M48
; DRILL file {KiCad 6.0.10-86aedd382b~118~ubuntu22.04.1} date St 28. december 2022, 16:13:39
; FORMAT={-:-/ absolute / metric / decimal}
; #@! TF.CreationDate,2022-12-28T16:13:39+01:00
; #@! TF.GenerationSoftware,Kicad,Pcbnew,6.0.10-86aedd382b~118~ubuntu22.04.1
; #@! TF.FileFunction,MixedPlating,1,2
FMAT,2
METRIC
; #@! TA.AperFunction,Plated,PTH,ViaDrill
T1C0.400
; #@! TA.AperFunction,Plated,PTH,ComponentDrill
T2C0.500
; #@! TA.AperFunction,Plated,PTH,ComponentDrill
T3C0.550
; #@! TA.AperFunction,Plated,PTH,ComponentDrill
T4C0.800
; #@! TA.AperFunction,Plated,PTH,ComponentDrill
T5C1.016
; #@! TA.AperFunction,NonPlated,NPTH,ComponentDrill
T6C1.200
%
G90
G05
T1
X155.626Y-177.47
X155.626Y-179.121
X155.626Y-180.899
X156.515Y-149.403
X156.515Y-151.181
X156.515Y-156.388
X156.515Y-157.912
X156.515Y-163.246
X156.515Y-165.024
X156.515Y-166.802
X156.515Y-168.453
X157.404Y-177.47
X157.404Y-179.121
X157.404Y-180.899
X158.166Y-149.403
X158.166Y-151.181
X158.42Y-152.832
X158.42Y-154.737
X158.674Y-172.263
X158.928Y-163.246
X158.928Y-169.088
X159.182Y-174.041
X159.182Y-175.692
X159.182Y-177.47
X159.182Y-179.248
X159.182Y-180.899
X159.436Y-85.45
X159.436Y-86.919
X159.563Y-170.612
X159.817Y-146.101
X159.817Y-147.752
X159.817Y-149.403
X159.817Y-151.181
X159.944Y-156.261
X159.944Y-157.785
X159.944Y-159.309
X159.944Y-162.23
X160.706Y-169.088
X160.706Y-174.041
X160.706Y-175.692
X160.833Y-180.899
X161.159Y-85.45
X161.214Y-86.919
X161.214Y-170.612
X161.722Y-144.323
X161.722Y-146.101
X161.722Y-147.625
X161.722Y-149.403
X161.722Y-151.181
X161.849Y-154.61
X161.849Y-156.261
X161.849Y-157.785
X161.849Y-159.309
X161.849Y-162.23
X161.849Y-163.754
X161.849Y-165.024
X161.849Y-167.31
X162.23Y-130.353
X162.23Y-132.131
X162.23Y-133.655
X162.23Y-136.195
X162.23Y-137.973
X162.23Y-139.878
X162.23Y-141.656
X162.23Y-174.041
X162.23Y-175.692
X162.357Y-160.833
X162.81Y-85.45
X162.865Y-86.919
X163.119Y-101.778
X163.5Y-163.754
X163.5Y-165.024
X163.5Y-167.31
X164.008Y-123.495
X164.008Y-125.273
X164.008Y-126.924
X164.008Y-128.575
X164.008Y-130.353
X164.008Y-132.131
X164.008Y-133.655
X164.008Y-136.195
X164.008Y-137.973
X164.008Y-139.878
X164.008Y-141.656
X164.008Y-176.962
X164.008Y-178.994
X164.516Y-149.149
X164.516Y-150.8
X164.588Y-85.45
X164.77Y-100.254
X165.278Y-163.754
X165.278Y-165.024
X165.278Y-167.31
X165.405Y-117.399
X165.405Y-119.395
X165.405Y-121.336
X165.659Y-127.051
X165.659Y-128.829
X165.786Y-130.48
X165.786Y-132.131
X165.786Y-133.591
X165.913Y-139.878
X165.913Y-141.656
X165.913Y-171.628
X166.04Y-111.684
X166.04Y-174.803
X166.04Y-176.2
X166.421Y-118.669
X166.421Y-121.336
X166.929Y-160.833
X166.929Y-162.23
X166.929Y-163.754
X166.929Y-165.024
X167.437Y-117.399
X167.437Y-134.163
X167.5Y-135.56
X167.564Y-139.878
X167.564Y-141.719
X167.691Y-169.596
X167.818Y-173.279
X167.818Y-174.803
X167.818Y-176.2
X167.945Y-159.817
X167.945Y-161.468
X167.945Y-163.119
X168.008Y-146.164
X168.199Y-152.578
X168.199Y-154.61
X168.199Y-156.642
X168.326Y-100.762
X168.332Y-101.905
X168.362Y-93.079
X168.453Y-90.983
X169.088Y-117.399
X169.215Y-134.099
X169.278Y-135.56
X169.469Y-87.427
X169.469Y-89.205
X169.469Y-91.872
X169.469Y-167.564
X169.469Y-171.628
X169.469Y-173.279
X169.469Y-174.803
X169.977Y-164.135
X170.104Y-132.194
X170.104Y-176.962
X170.332Y-94.031
X170.612Y-114.859
X170.612Y-146.291
X170.739Y-148.133
X170.739Y-159.944
X170.739Y-161.849
X170.802Y-133.909
X170.866Y-135.496
X170.866Y-150.419
X170.866Y-152.705
X170.866Y-154.61
X170.866Y-156.642
X170.993Y-87.427
X170.993Y-89.205
X170.993Y-91.872
X170.993Y-97.206
X170.993Y-99.365
X170.993Y-101.397
X170.993Y-169.596
X171.069Y-95.606
X171.145Y-142.723
X171.247Y-103.175
X171.31Y-131.813
X171.374Y-117.145
X171.628Y-175.819
X172.085Y-168.331
X172.827Y-167.588
X172.898Y-85.776
X172.898Y-87.427
X172.898Y-89.205
X172.898Y-91.872
X172.898Y-93.65
X173.152Y-108.382
X173.235Y-160.452
X173.279Y-99.619
X173.279Y-161.976
X173.533Y-152.387
X173.533Y-153.848
X173.634Y-139.776
X173.634Y-141.605
X173.66Y-118.669
X173.66Y-120.32
X173.66Y-131.75
X173.66Y-133.401
X173.66Y-135.052
X173.66Y-175.692
X173.685Y-143.485
X173.787Y-117.145
X173.85Y-136.639
X174.041Y-154.991
X174.676Y-85.776
X174.676Y-87.427
X174.676Y-89.205
X174.676Y-91.872
X174.676Y-93.65
X174.676Y-95.428
X174.676Y-96.952
X174.803Y-158.674
X174.93Y-156.261
X174.93Y-161.087
X175.184Y-131.75
X175.184Y-133.401
X175.247Y-135.052
X175.294Y-107.73
X175.311Y-101.397
X175.311Y-117.145
X175.311Y-118.669
X175.311Y-120.32
X175.565Y-156.896
X175.565Y-168.707
X175.565Y-170.231
X175.565Y-172.136
X175.565Y-174.041
X175.565Y-175.692
X175.755Y-136.512
X175.819Y-104.191
X175.819Y-148.209
X175.819Y-160.198
X176.517Y-134.29
X176.708Y-91.872
X176.817Y-148.262
X176.835Y-96.952
X176.962Y-101.397
X176.962Y-118.669
X176.962Y-120.32
X176.962Y-161.722
X177.216Y-155.372
X177.343Y-168.707
X177.343Y-170.231
X177.343Y-172.136
X177.343Y-174.041
X177.343Y-175.692
X177.495Y-152.324
X177.597Y-107.366
X177.978Y-160.071
X178.105Y-157.912
X178.359Y-146.431
X178.74Y-89.967
X178.74Y-91.872
X178.74Y-93.523
X178.74Y-98.095
X178.74Y-99.746
X178.74Y-101.397
X178.74Y-103.048
X178.994Y-110.16
X179.121Y-128.321
X179.121Y-168.58
X179.121Y-170.231
X179.121Y-172.136
X179.121Y-174.041
X179.121Y-175.692
X179.248Y-166.802
X179.375Y-126.162
X179.375Y-156.769
X179.502Y-111.938
X179.502Y-138.227
X179.502Y-139.624
X179.502Y-164.389
X179.527Y-142.723
X179.565Y-141.211
X179.565Y-146.418
X179.883Y-113.589
X180.264Y-106.096
X180.772Y-110.922
X180.772Y-142.735
X180.835Y-144.513
X180.848Y-146.385
X180.899Y-112.573
X180.899Y-150.927
X180.899Y-155.372
X180.899Y-168.58
X180.899Y-170.231
X180.899Y-172.136
X180.899Y-174.041
X180.899Y-175.692
X181.026Y-156.769
X181.28Y-153.848
X181.534Y-134.544
X181.661Y-106.096
X181.661Y-137.528
X182.423Y-135.687
X182.423Y-136.83
X182.55Y-156.769
X182.677Y-170.231
X182.677Y-172.136
X182.677Y-174.041
X182.677Y-175.692
X182.804Y-178.74
X182.804Y-180.645
X183.058Y-159.309
X183.058Y-160.96
X183.185Y-176.962
X183.439Y-85.141
X183.439Y-149.403
X183.693Y-123.368
X184.074Y-167.691
X184.201Y-126.035
X184.328Y-127.305
X184.328Y-128.575
X184.455Y-149.403
X184.455Y-172.39
X184.455Y-174.041
X184.455Y-175.692
X184.455Y-178.74
X184.455Y-180.645
X184.709Y-129.972
X184.709Y-131.369
X184.709Y-132.893
X184.709Y-134.417
X184.709Y-166.04
X184.836Y-154.737
X184.836Y-159.309
X184.836Y-160.833
X185.09Y-135.814
X185.09Y-137.211
X185.09Y-138.608
X185.09Y-140.132
X185.09Y-141.656
X185.09Y-143.053
X185.09Y-146.609
X185.09Y-148.133
X185.09Y-156.261
X185.344Y-152.07
X185.344Y-153.467
X185.471Y-85.141
X186.36Y-166.04
X186.36Y-167.437
X186.36Y-175.819
X186.36Y-178.74
X186.36Y-180.645
X186.614Y-140.132
X186.614Y-141.656
X186.614Y-143.18
X186.614Y-144.45
X186.614Y-148.133
X186.614Y-149.53
X186.614Y-161.087
X186.614Y-174.295
X186.741Y-152.07
X186.741Y-153.467
X187.884Y-85.141
X188.138Y-167.564
X188.138Y-168.961
X188.138Y-178.74
X188.138Y-180.645
X189.916Y-172.771
X189.916Y-174.295
X189.916Y-175.692
X189.916Y-178.74
X189.916Y-180.645
X190.043Y-149.022
X190.043Y-150.419
X190.043Y-159.182
X190.043Y-160.96
X190.043Y-162.738
X190.043Y-164.262
X191.313Y-148.895
X191.313Y-150.419
X191.567Y-178.74
X191.567Y-180.645
X193.726Y-177.47
X193.726Y-179.121
X193.726Y-180.899
X194.615Y-149.403
X194.615Y-151.181
X194.615Y-156.388
X194.615Y-157.912
X194.615Y-163.246
X194.615Y-165.024
X194.615Y-166.802
X194.615Y-168.453
X195.504Y-177.47
X195.504Y-179.121
X195.504Y-180.899
X196.266Y-149.403
X196.266Y-151.181
X196.52Y-152.832
X196.52Y-154.737
X196.774Y-172.263
X197.028Y-163.246
X197.028Y-169.088
X197.282Y-174.041
X197.282Y-175.692
X197.282Y-177.47
X197.282Y-179.248
X197.282Y-180.899
X197.536Y-85.45
X197.536Y-86.919
X197.663Y-170.612
X197.917Y-146.101
X197.917Y-147.752
X197.917Y-149.403
X197.917Y-151.181
X198.044Y-156.261
X198.044Y-157.785
X198.044Y-159.309
X198.044Y-162.23
X198.806Y-169.088
X198.806Y-174.041
X198.806Y-175.692
X198.933Y-180.899
X199.259Y-85.45
X199.314Y-86.919
X199.314Y-170.612
X199.822Y-144.323
X199.822Y-146.101
X199.822Y-147.625
X199.822Y-149.403
X199.822Y-151.181
X199.949Y-154.61
X199.949Y-156.261
X199.949Y-157.785
X199.949Y-159.309
X199.949Y-162.23
X199.949Y-163.754
X199.949Y-165.024
X199.949Y-167.31
X200.33Y-130.353
X200.33Y-132.131
X200.33Y-133.655
X200.33Y-136.195
X200.33Y-137.973
X200.33Y-139.878
X200.33Y-141.656
X200.33Y-174.041
X200.33Y-175.692
X200.457Y-160.833
X200.91Y-85.45
X200.965Y-86.919
X201.219Y-101.778
X201.6Y-163.754
X201.6Y-165.024
X201.6Y-167.31
X202.108Y-123.495
X202.108Y-125.273
X202.108Y-126.924
X202.108Y-128.575
X202.108Y-130.353
X202.108Y-132.131
X202.108Y-133.655
X202.108Y-136.195
X202.108Y-137.973
X202.108Y-139.878
X202.108Y-141.656
X202.108Y-176.962
X202.108Y-178.994
X202.616Y-149.149
X202.616Y-150.8
X202.688Y-85.45
X202.87Y-100.254
X203.378Y-163.754
X203.378Y-165.024
X203.378Y-167.31
X203.505Y-117.399
X203.505Y-119.395
X203.505Y-121.336
X203.759Y-127.051
X203.759Y-128.829
X203.886Y-130.48
X203.886Y-132.131
X203.886Y-133.591
X204.013Y-139.878
X204.013Y-141.656
X204.013Y-171.628
X204.14Y-111.684
X204.14Y-174.803
X204.14Y-176.2
X204.521Y-118.669
X204.521Y-121.336
X205.029Y-160.833
X205.029Y-162.23
X205.029Y-163.754
X205.029Y-165.024
X205.537Y-117.399
X205.537Y-134.163
X205.6Y-135.56
X205.664Y-139.878
X205.664Y-141.719
X205.791Y-169.596
X205.918Y-173.279
X205.918Y-174.803
X205.918Y-176.2
X206.045Y-159.817
X206.045Y-161.468
X206.045Y-163.119
X206.108Y-146.164
X206.299Y-152.578
X206.299Y-154.61
X206.299Y-156.642
X206.426Y-100.762
X206.432Y-101.905
X206.462Y-93.079
X206.553Y-90.983
X207.188Y-117.399
X207.315Y-134.099
X207.378Y-135.56
X207.569Y-87.427
X207.569Y-89.205
X207.569Y-91.872
X207.569Y-167.564
X207.569Y-171.628
X207.569Y-173.279
X207.569Y-174.803
X208.077Y-164.135
X208.204Y-132.194
X208.204Y-176.962
X208.432Y-94.031
X208.712Y-114.859
X208.712Y-146.291
X208.839Y-148.133
X208.839Y-159.944
X208.839Y-161.849
X208.902Y-133.909
X208.966Y-135.496
X208.966Y-150.419
X208.966Y-152.705
X208.966Y-154.61
X208.966Y-156.642
X209.093Y-87.427
X209.093Y-89.205
X209.093Y-91.872
X209.093Y-97.206
X209.093Y-99.365
X209.093Y-101.397
X209.093Y-169.596
X209.169Y-95.606
X209.245Y-142.723
X209.347Y-103.175
X209.41Y-131.813
X209.474Y-117.145
X209.728Y-175.819
X210.185Y-168.331
X210.927Y-167.588
X210.998Y-85.776
X210.998Y-87.427
X210.998Y-89.205
X210.998Y-91.872
X210.998Y-93.65
X211.252Y-108.382
X211.335Y-160.452
X211.379Y-99.619
X211.379Y-161.976
X211.633Y-152.387
X211.633Y-153.848
X211.734Y-139.776
X211.734Y-141.605
X211.76Y-118.669
X211.76Y-120.32
X211.76Y-131.75
X211.76Y-133.401
X211.76Y-135.052
X211.76Y-175.692
X211.785Y-143.485
X211.887Y-117.145
X211.95Y-136.639
X212.141Y-154.991
X212.776Y-85.776
X212.776Y-87.427
X212.776Y-89.205
X212.776Y-91.872
X212.776Y-93.65
X212.776Y-95.428
X212.776Y-96.952
X212.903Y-158.674
X213.03Y-156.261
X213.03Y-161.087
X213.284Y-131.75
X213.284Y-133.401
X213.347Y-135.052
X213.394Y-107.73
X213.411Y-101.397
X213.411Y-117.145
X213.411Y-118.669
X213.411Y-120.32
X213.665Y-156.896
X213.665Y-168.707
X213.665Y-170.231
X213.665Y-172.136
X213.665Y-174.041
X213.665Y-175.692
X213.855Y-136.512
X213.919Y-104.191
X213.919Y-148.209
X213.919Y-160.198
X214.617Y-134.29
X214.808Y-91.872
X214.917Y-148.262
X214.935Y-96.952
X215.062Y-101.397
X215.062Y-118.669
X215.062Y-120.32
X215.062Y-161.722
X215.316Y-155.372
X215.443Y-168.707
X215.443Y-170.231
X215.443Y-172.136
X215.443Y-174.041
X215.443Y-175.692
X215.595Y-152.324
X215.697Y-107.366
X216.078Y-160.071
X216.205Y-157.912
X216.459Y-146.431
X216.84Y-89.967
X216.84Y-91.872
X216.84Y-93.523
X216.84Y-98.095
X216.84Y-99.746
X216.84Y-101.397
X216.84Y-103.048
X217.094Y-110.16
X217.221Y-128.321
X217.221Y-168.58
X217.221Y-170.231
X217.221Y-172.136
X217.221Y-174.041
X217.221Y-175.692
X217.348Y-166.802
X217.475Y-126.162
X217.475Y-156.769
X217.602Y-111.938
X217.602Y-138.227
X217.602Y-139.624
X217.602Y-164.389
X217.627Y-142.723
X217.665Y-141.211
X217.665Y-146.418
X217.983Y-113.589
X218.364Y-106.096
X218.872Y-110.922
X218.872Y-142.735
X218.935Y-144.513
X218.948Y-146.385
X218.999Y-112.573
X218.999Y-150.927
X218.999Y-155.372
X218.999Y-168.58
X218.999Y-170.231
X218.999Y-172.136
X218.999Y-174.041
X218.999Y-175.692
X219.126Y-156.769
X219.38Y-153.848
X219.634Y-134.544
X219.761Y-106.096
X219.761Y-137.528
X220.523Y-135.687
X220.523Y-136.83
X220.65Y-156.769
X220.777Y-170.231
X220.777Y-172.136
X220.777Y-174.041
X220.777Y-175.692
X220.904Y-178.74
X220.904Y-180.645
X221.158Y-159.309
X221.158Y-160.96
X221.285Y-176.962
X221.539Y-85.141
X221.539Y-149.403
X221.793Y-123.368
X222.174Y-167.691
X222.301Y-126.035
X222.428Y-127.305
X222.428Y-128.575
X222.555Y-149.403
X222.555Y-172.39
X222.555Y-174.041
X222.555Y-175.692
X222.555Y-178.74
X222.555Y-180.645
X222.809Y-129.972
X222.809Y-131.369
X222.809Y-132.893
X222.809Y-134.417
X222.809Y-166.04
X222.936Y-154.737
X222.936Y-159.309
X222.936Y-160.833
X223.19Y-135.814
X223.19Y-137.211
X223.19Y-138.608
X223.19Y-140.132
X223.19Y-141.656
X223.19Y-143.053
X223.19Y-146.609
X223.19Y-148.133
X223.19Y-156.261
X223.444Y-152.07
X223.444Y-153.467
X223.571Y-85.141
X224.46Y-166.04
X224.46Y-167.437
X224.46Y-175.819
X224.46Y-178.74
X224.46Y-180.645
X224.714Y-140.132
X224.714Y-141.656
X224.714Y-143.18
X224.714Y-144.45
X224.714Y-148.133
X224.714Y-149.53
X224.714Y-161.087
X224.714Y-174.295
X224.841Y-152.07
X224.841Y-153.467
X225.984Y-85.141
X226.238Y-167.564
X226.238Y-168.961
X226.238Y-178.74
X226.238Y-180.645
X228.016Y-172.771
X228.016Y-174.295
X228.016Y-175.692
X228.016Y-178.74
X228.016Y-180.645
X228.143Y-149.022
X228.143Y-150.419
X228.143Y-159.182
X228.143Y-160.96
X228.143Y-162.738
X228.143Y-164.262
X229.413Y-148.895
X229.413Y-150.419
X229.667Y-178.74
X229.667Y-180.645
T4
X168.29Y-144.399
X170.79Y-144.399
X176.316Y-144.45
X178.816Y-144.45
X206.39Y-144.399
X208.89Y-144.399
X214.416Y-144.45
X216.916Y-144.45
T5
X157.023Y-86.03
X157.023Y-88.57
X157.023Y-91.11
X157.023Y-93.65
X157.023Y-96.19
X157.023Y-98.73
X157.023Y-101.27
X157.023Y-103.81
X157.023Y-106.35
X157.023Y-108.89
X157.023Y-111.43
X157.023Y-113.97
X157.023Y-116.51
X157.023Y-119.05
X157.023Y-121.59
X157.023Y-124.13
X157.023Y-126.67
X157.023Y-129.21
X157.023Y-131.75
X157.023Y-134.29
X157.023Y-136.83
X157.023Y-139.37
X157.023Y-141.91
X157.023Y-144.45
X157.023Y-146.99
X167.691Y-138.036
X170.231Y-138.036
X190.043Y-86.03
X190.043Y-88.57
X190.043Y-91.11
X190.043Y-93.65
X190.043Y-96.19
X190.043Y-98.73
X190.043Y-101.27
X190.043Y-103.81
X190.043Y-106.35
X190.043Y-108.89
X190.043Y-111.43
X190.043Y-113.97
X190.043Y-116.51
X190.043Y-119.05
X190.043Y-121.59
X190.043Y-124.13
X190.043Y-126.67
X190.043Y-129.21
X190.043Y-131.75
X190.043Y-134.29
X190.043Y-136.83
X190.043Y-139.37
X190.043Y-141.91
X190.043Y-144.45
X190.043Y-146.99
X195.123Y-86.03
X195.123Y-88.57
X195.123Y-91.11
X195.123Y-93.65
X195.123Y-96.19
X195.123Y-98.73
X195.123Y-101.27
X195.123Y-103.81
X195.123Y-106.35
X195.123Y-108.89
X195.123Y-111.43
X195.123Y-113.97
X195.123Y-116.51
X195.123Y-119.05
X195.123Y-121.59
X195.123Y-124.13
X195.123Y-126.67
X195.123Y-129.21
X195.123Y-131.75
X195.123Y-134.29
X195.123Y-136.83
X195.123Y-139.37
X195.123Y-141.91
X195.123Y-144.45
X195.123Y-146.99
X205.791Y-138.036
X208.331Y-138.036
X228.143Y-86.03
X228.143Y-88.57
X228.143Y-91.11
X228.143Y-93.65
X228.143Y-96.19
X228.143Y-98.73
X228.143Y-101.27
X228.143Y-103.81
X228.143Y-106.35
X228.143Y-108.89
X228.143Y-111.43
X228.143Y-113.97
X228.143Y-116.51
X228.143Y-119.05
X228.143Y-121.59
X228.143Y-124.13
X228.143Y-126.67
X228.143Y-129.21
X228.143Y-131.75
X228.143Y-134.29
X228.143Y-136.83
X228.143Y-139.37
X228.143Y-141.91
X228.143Y-144.45
X228.143Y-146.99
T6
X157.023Y-169.977
X157.991Y-157.277
X163.023Y-169.977
X163.991Y-157.277
X184.043Y-157.531
X184.043Y-170.866
X190.043Y-157.531
X190.043Y-170.866
X195.123Y-169.977
X196.091Y-157.277
X201.123Y-169.977
X202.091Y-157.277
X222.143Y-157.531
X222.143Y-170.866
X228.143Y-157.531
X228.143Y-170.866
T2
G00X168.762Y-181.472
M15
G01X168.762Y-180.822
M16
G05
G00X175.762Y-181.472
M15
G01X175.762Y-180.822
M16
G05
G00X206.862Y-181.472
M15
G01X206.862Y-180.822
M16
G05
G00X213.862Y-181.472
M15
G01X213.862Y-180.822
M16
G05
T3
G00X169.612Y-178.447
M15
G01X169.912Y-178.447
M16
G05
G00X174.612Y-178.447
M15
G01X174.912Y-178.447
M16
G05
G00X207.712Y-178.447
M15
G01X208.012Y-178.447
M16
G05
G00X212.712Y-178.447
M15
G01X213.012Y-178.447
M16
G05
T0
M30
