%TF.GenerationSoftware,KiCad,Pcbnew,6.0.10-86aedd382b~118~ubuntu22.04.1*%
%TF.CreationDate,2022-12-28T16:13:35+01:00*%
%TF.ProjectId,BM83_breadboard_adapter_panel,424d3833-5f62-4726-9561-64626f617264,rev?*%
%TF.SameCoordinates,Original*%
%TF.FileFunction,Soldermask,Top*%
%TF.FilePolarity,Negative*%
%FSLAX46Y46*%
G04 Gerber Fmt 4.6, Leading zero omitted, Abs format (unit mm)*
G04 Created by KiCad (PCBNEW 6.0.10-86aedd382b~118~ubuntu22.04.1) date 2022-12-28 16:13:35*
%MOMM*%
%LPD*%
G01*
G04 APERTURE LIST*
%ADD10R,2.000000X1.700000*%
%ADD11C,1.200000*%
%ADD12R,1.500000X3.500000*%
%ADD13R,2.032000X1.727200*%
%ADD14O,2.032000X1.727200*%
%ADD15R,1.500000X1.300000*%
%ADD16R,1.300000X1.500000*%
%ADD17R,2.180000X1.600000*%
%ADD18R,1.600000X2.180000*%
%ADD19R,1.500000X3.000000*%
%ADD20R,1.200000X0.900000*%
%ADD21R,2.032000X2.032000*%
%ADD22O,2.032000X2.032000*%
%ADD23R,0.400000X1.350000*%
%ADD24O,1.250000X0.950000*%
%ADD25O,1.000000X1.550000*%
%ADD26R,1.300000X1.300000*%
%ADD27C,1.300000*%
%ADD28R,1.501140X2.999740*%
G04 APERTURE END LIST*
D10*
%TO.C,D1*%
X215918800Y-104825800D03*
X211918800Y-104825800D03*
%TD*%
D11*
%TO.C,J2*%
X222142800Y-157530800D03*
X228142800Y-157530800D03*
D12*
X227942800Y-153780800D03*
X220942800Y-153780800D03*
X226142800Y-161280800D03*
%TD*%
D13*
%TO.C,J4*%
X228142800Y-86029800D03*
D14*
X228142800Y-88569800D03*
X228142800Y-91109800D03*
X228142800Y-93649800D03*
X228142800Y-96189800D03*
X228142800Y-98729800D03*
X228142800Y-101269800D03*
X228142800Y-103809800D03*
X228142800Y-106349800D03*
X228142800Y-108889800D03*
X228142800Y-111429800D03*
X228142800Y-113969800D03*
X228142800Y-116509800D03*
X228142800Y-119049800D03*
X228142800Y-121589800D03*
X228142800Y-124129800D03*
X228142800Y-126669800D03*
X228142800Y-129209800D03*
X228142800Y-131749800D03*
X228142800Y-134289800D03*
X228142800Y-136829800D03*
X228142800Y-139369800D03*
X228142800Y-141909800D03*
X228142800Y-144449800D03*
X228142800Y-146989800D03*
%TD*%
D13*
%TO.C,J5*%
X195122800Y-86029800D03*
D14*
X195122800Y-88569800D03*
X195122800Y-91109800D03*
X195122800Y-93649800D03*
X195122800Y-96189800D03*
X195122800Y-98729800D03*
X195122800Y-101269800D03*
X195122800Y-103809800D03*
X195122800Y-106349800D03*
X195122800Y-108889800D03*
X195122800Y-111429800D03*
X195122800Y-113969800D03*
X195122800Y-116509800D03*
X195122800Y-119049800D03*
X195122800Y-121589800D03*
X195122800Y-124129800D03*
X195122800Y-126669800D03*
X195122800Y-129209800D03*
X195122800Y-131749800D03*
X195122800Y-134289800D03*
X195122800Y-136829800D03*
X195122800Y-139369800D03*
X195122800Y-141909800D03*
X195122800Y-144449800D03*
X195122800Y-146989800D03*
%TD*%
D15*
%TO.C,R14*%
X204186800Y-107365800D03*
X206886800Y-107365800D03*
%TD*%
D16*
%TO.C,R10*%
X203123800Y-92586800D03*
X203123800Y-89886800D03*
%TD*%
D17*
%TO.C,SW7*%
X205760370Y-99362480D03*
X214965230Y-99367120D03*
%TD*%
D18*
%TO.C,SW6*%
X210746120Y-114764870D03*
X210741480Y-123969730D03*
%TD*%
D17*
%TO.C,SW8*%
X214965230Y-94541120D03*
X205760370Y-94536480D03*
%TD*%
D11*
%TO.C,U2*%
X202090800Y-157276800D03*
X196090800Y-157276800D03*
D19*
X202690800Y-160776800D03*
X195690800Y-160776800D03*
X194690800Y-153776800D03*
X198290800Y-153776800D03*
X204390800Y-153776800D03*
%TD*%
D10*
%TO.C,L1*%
X200107800Y-178104800D03*
X204107800Y-178104800D03*
%TD*%
D20*
%TO.C,RV3*%
X217052800Y-180644800D03*
X219252800Y-180644800D03*
%TD*%
D17*
%TO.C,SW1*%
X206141370Y-132191980D03*
X215346230Y-132196620D03*
%TD*%
D21*
%TO.C,JP3*%
X208330800Y-138036300D03*
D22*
X205790800Y-138036300D03*
%TD*%
D11*
%TO.C,J6*%
X222142800Y-170865800D03*
X228142800Y-170865800D03*
D12*
X227942800Y-167115800D03*
X220942800Y-167115800D03*
X226142800Y-174615800D03*
%TD*%
D10*
%TO.C,D2*%
X204552800Y-104825800D03*
X208552800Y-104825800D03*
%TD*%
D23*
%TO.C,J3*%
X209061900Y-178447260D03*
X209711900Y-178447260D03*
X210361900Y-178447260D03*
X211011900Y-178447260D03*
X211661900Y-178447260D03*
D24*
X207861900Y-178447260D03*
X212861900Y-178447260D03*
D25*
X213861900Y-181147260D03*
X206861900Y-181147260D03*
%TD*%
D17*
%TO.C,SW9*%
X205633370Y-88567480D03*
X214838230Y-88572120D03*
%TD*%
D26*
%TO.C,C22*%
X216916000Y-144449800D03*
D27*
X214416000Y-144449800D03*
%TD*%
D18*
%TO.C,SW3*%
X204579660Y-124033230D03*
X204584300Y-114828370D03*
%TD*%
D26*
%TO.C,C15*%
X208889600Y-144399000D03*
D27*
X206389600Y-144399000D03*
%TD*%
D28*
%TO.C,C12*%
X218490800Y-87205820D03*
X218490800Y-91203780D03*
%TD*%
D11*
%TO.C,J1*%
X201122800Y-169976800D03*
X195122800Y-169976800D03*
D12*
X195322800Y-173726800D03*
X202322800Y-173726800D03*
X197122800Y-166226800D03*
%TD*%
D20*
%TO.C,RV2*%
X217052800Y-178739800D03*
X219252800Y-178739800D03*
%TD*%
%TO.C,RV1*%
X203842800Y-180644800D03*
X201642800Y-180644800D03*
%TD*%
D18*
%TO.C,SW4*%
X216075480Y-123969730D03*
X216080120Y-114764870D03*
%TD*%
D17*
%TO.C,SW2*%
X205887370Y-111300480D03*
X215092230Y-111305120D03*
%TD*%
D16*
%TO.C,R15*%
X202971400Y-95373200D03*
X202971400Y-98073200D03*
%TD*%
D18*
%TO.C,SW4*%
X177975480Y-123969730D03*
X177980120Y-114764870D03*
%TD*%
D26*
%TO.C,C15*%
X170789600Y-144399000D03*
D27*
X168289600Y-144399000D03*
%TD*%
D17*
%TO.C,SW8*%
X176865230Y-94541120D03*
X167660370Y-94536480D03*
%TD*%
D11*
%TO.C,U2*%
X157990800Y-157276800D03*
X163990800Y-157276800D03*
D19*
X164590800Y-160776800D03*
X157590800Y-160776800D03*
X156590800Y-153776800D03*
X160190800Y-153776800D03*
X166290800Y-153776800D03*
%TD*%
D10*
%TO.C,L1*%
X162007800Y-178104800D03*
X166007800Y-178104800D03*
%TD*%
D20*
%TO.C,RV3*%
X178952800Y-180644800D03*
X181152800Y-180644800D03*
%TD*%
D17*
%TO.C,SW1*%
X168041370Y-132191980D03*
X177246230Y-132196620D03*
%TD*%
D21*
%TO.C,JP3*%
X170230800Y-138036300D03*
D22*
X167690800Y-138036300D03*
%TD*%
D11*
%TO.C,J6*%
X184042800Y-170865800D03*
X190042800Y-170865800D03*
D12*
X189842800Y-167115800D03*
X182842800Y-167115800D03*
X188042800Y-174615800D03*
%TD*%
D10*
%TO.C,D2*%
X166452800Y-104825800D03*
X170452800Y-104825800D03*
%TD*%
D23*
%TO.C,J3*%
X170961900Y-178447260D03*
X171611900Y-178447260D03*
X172261900Y-178447260D03*
X172911900Y-178447260D03*
X173561900Y-178447260D03*
D24*
X169761900Y-178447260D03*
D25*
X168761900Y-181147260D03*
X175761900Y-181147260D03*
D24*
X174761900Y-178447260D03*
%TD*%
D17*
%TO.C,SW9*%
X167533370Y-88567480D03*
X176738230Y-88572120D03*
%TD*%
D26*
%TO.C,C22*%
X178816000Y-144449800D03*
D27*
X176316000Y-144449800D03*
%TD*%
D18*
%TO.C,SW3*%
X166479660Y-124033230D03*
X166484300Y-114828370D03*
%TD*%
D28*
%TO.C,C12*%
X180390800Y-87205820D03*
X180390800Y-91203780D03*
%TD*%
D11*
%TO.C,J1*%
X163022800Y-169976800D03*
X157022800Y-169976800D03*
D12*
X157222800Y-173726800D03*
X164222800Y-173726800D03*
X159022800Y-166226800D03*
%TD*%
D20*
%TO.C,RV2*%
X178952800Y-178739800D03*
X181152800Y-178739800D03*
%TD*%
%TO.C,RV1*%
X165742800Y-180644800D03*
X163542800Y-180644800D03*
%TD*%
D17*
%TO.C,SW2*%
X167787370Y-111300480D03*
X176992230Y-111305120D03*
%TD*%
D16*
%TO.C,R15*%
X164871400Y-95373200D03*
X164871400Y-98073200D03*
%TD*%
D17*
%TO.C,SW7*%
X167660370Y-99362480D03*
X176865230Y-99367120D03*
%TD*%
D13*
%TO.C,J5*%
X157022800Y-86029800D03*
D14*
X157022800Y-88569800D03*
X157022800Y-91109800D03*
X157022800Y-93649800D03*
X157022800Y-96189800D03*
X157022800Y-98729800D03*
X157022800Y-101269800D03*
X157022800Y-103809800D03*
X157022800Y-106349800D03*
X157022800Y-108889800D03*
X157022800Y-111429800D03*
X157022800Y-113969800D03*
X157022800Y-116509800D03*
X157022800Y-119049800D03*
X157022800Y-121589800D03*
X157022800Y-124129800D03*
X157022800Y-126669800D03*
X157022800Y-129209800D03*
X157022800Y-131749800D03*
X157022800Y-134289800D03*
X157022800Y-136829800D03*
X157022800Y-139369800D03*
X157022800Y-141909800D03*
X157022800Y-144449800D03*
X157022800Y-146989800D03*
%TD*%
D16*
%TO.C,R10*%
X165023800Y-92586800D03*
X165023800Y-89886800D03*
%TD*%
D18*
%TO.C,SW6*%
X172646120Y-114764870D03*
X172641480Y-123969730D03*
%TD*%
D10*
%TO.C,D1*%
X177818800Y-104825800D03*
X173818800Y-104825800D03*
%TD*%
D13*
%TO.C,J4*%
X190042800Y-86029800D03*
D14*
X190042800Y-88569800D03*
X190042800Y-91109800D03*
X190042800Y-93649800D03*
X190042800Y-96189800D03*
X190042800Y-98729800D03*
X190042800Y-101269800D03*
X190042800Y-103809800D03*
X190042800Y-106349800D03*
X190042800Y-108889800D03*
X190042800Y-111429800D03*
X190042800Y-113969800D03*
X190042800Y-116509800D03*
X190042800Y-119049800D03*
X190042800Y-121589800D03*
X190042800Y-124129800D03*
X190042800Y-126669800D03*
X190042800Y-129209800D03*
X190042800Y-131749800D03*
X190042800Y-134289800D03*
X190042800Y-136829800D03*
X190042800Y-139369800D03*
X190042800Y-141909800D03*
X190042800Y-144449800D03*
X190042800Y-146989800D03*
%TD*%
D11*
%TO.C,J2*%
X184042800Y-157530800D03*
X190042800Y-157530800D03*
D12*
X189842800Y-153780800D03*
X182842800Y-153780800D03*
X188042800Y-161280800D03*
%TD*%
D15*
%TO.C,R14*%
X166086800Y-107365800D03*
X168786800Y-107365800D03*
%TD*%
M02*
