<?xml version="1.0" standalone="no"?>
 <!DOCTYPE svg PUBLIC "-//W3C//DTD SVG 1.1//EN" 
 "http://www.w3.org/Graphics/SVG/1.1/DTD/svg11.dtd"> 
<svg xmlns="http://www.w3.org/2000/svg" version="1.1" 
    width="29.7002cm" height="21.0007cm" viewBox="0 0 116930 82680 ">
<title>SVG Picture created as arduino_nano324-B_Fab.svg date 2019/08/21 17:55:37 </title>
  <desc>Picture generated by PCBNEW </desc>
<g style="fill:#000000; fill-opacity:1;stroke:#000000; stroke-opacity:1;
stroke-linecap:round; stroke-linejoin:round; "
 transform="translate(0 0) scale(1 1)">
</g>
<g style="fill:#000000; fill-opacity:0.0; 
stroke:#000000; stroke-width:-0.000393701; stroke-opacity:1; 
stroke-linecap:round; stroke-linejoin:round;">
</g>
<g style="fill:#000000; fill-opacity:0.0; 
stroke:#000000; stroke-width:196.85; stroke-opacity:1; 
stroke-linecap:round; stroke-linejoin:round;">
<path d="M82801 28300
L82800 53700
" />
<path d="M73200 53700
L73200 28300
" />
<path d="M73200 28300
L82800 28300
" />
<path d="M82800 53700
L73200 53700
" />
<g >
</g>
<g >
</g>
<g >
</g>
<g >
</g>
<g >
</g>
<g >
</g>
<g >
</g>
<g >
</g>
<g >
</g>
<g >
</g>
<g >
</g>
<g >
</g>
<g >
</g>
<g >
</g>
<g >
</g>
<g >
</g>
<g >
</g>
<g >
</g>
<g >
</g>
<g >
</g>
<g >
</g>
<g >
</g>
<g >
</g>
<g >
</g>
<g >
</g>
<g >
</g>
<g >
</g>
<g >
</g>
<g >
</g>
<g >
</g>
<g >
</g>
<g >
</g>
<g >
</g>
<g >
</g>
<g >
</g>
<g >
</g>
<g >
</g>
<g >
</g>
<g >
</g>
<g >
</g>
<g >
</g>
<g >
</g>
<g >
</g>
<g >
</g>
<g >
</g>
<g >
</g>
<g >
</g>
<g >
</g>
<g >
</g>
<g >
</g>
<g >
</g>
</g>
<g style="fill:#000000; fill-opacity:0.0; 
stroke:#000000; stroke-width:196.85; stroke-opacity:1; 
stroke-linecap:round; stroke-linejoin:round;">
</g>
<g style="fill:#000000; fill-opacity:0.0; 
stroke:#000000; stroke-width:59.0551; stroke-opacity:1; 
stroke-linecap:round; stroke-linejoin:round;">
<g class="stroked-text"><desc>CP2102N-A01-GQFN28</desc>
<path d="M81225 49178
L81243 49197
L81300 49216
L81337 49216
L81393 49197
L81431 49159
L81450 49122
L81468 49047
L81468 48991
L81450 48916
L81431 48878
L81393 48841
L81337 48822
L81300 48822
L81243 48841
L81225 48859
" />
<path d="M81056 49216
L81056 48822
L80906 48822
L80869 48841
L80850 48859
L80831 48897
L80831 48953
L80850 48991
L80869 49009
L80906 49028
L81056 49028
" />
<path d="M80681 48859
L80662 48841
L80625 48822
L80531 48822
L80494 48841
L80475 48859
L80456 48897
L80456 48934
L80475 48991
L80700 49216
L80456 49216
" />
<path d="M80081 49216
L80306 49216
" />
<path d="M80194 49216
L80194 48822
L80231 48878
L80269 48916
L80306 48934
" />
<path d="M79837 48822
L79800 48822
L79762 48841
L79744 48859
L79725 48897
L79706 48972
L79706 49066
L79725 49141
L79744 49178
L79762 49197
L79800 49216
L79837 49216
L79875 49197
L79894 49178
L79912 49141
L79931 49066
L79931 48972
L79912 48897
L79894 48859
L79875 48841
L79837 48822
" />
<path d="M79556 48859
L79537 48841
L79500 48822
L79406 48822
L79369 48841
L79350 48859
L79331 48897
L79331 48934
L79350 48991
L79575 49216
L79331 49216
" />
<path d="M79162 49216
L79162 48822
L78938 49216
L78938 48822
" />
<path d="M78750 49066
L78450 49066
" />
<path d="M78281 49103
L78094 49103
" />
<path d="M78319 49216
L78188 48822
L78056 49216
" />
<path d="M77850 48822
L77813 48822
L77775 48841
L77756 48859
L77738 48897
L77719 48972
L77719 49066
L77738 49141
L77756 49178
L77775 49197
L77813 49216
L77850 49216
L77888 49197
L77906 49178
L77925 49141
L77944 49066
L77944 48972
L77925 48897
L77906 48859
L77888 48841
L77850 48822
" />
<path d="M77344 49216
L77569 49216
" />
<path d="M77456 49216
L77456 48822
L77494 48878
L77531 48916
L77569 48934
" />
<path d="M77175 49066
L76875 49066
" />
<path d="M76482 48841
L76519 48822
L76575 48822
L76632 48841
L76669 48878
L76688 48916
L76707 48991
L76707 49047
L76688 49122
L76669 49159
L76632 49197
L76575 49216
L76538 49216
L76482 49197
L76463 49178
L76463 49047
L76538 49047
" />
<path d="M76032 49253
L76069 49234
L76107 49197
L76163 49141
L76200 49122
L76238 49122
" />
<path d="M76219 49216
L76257 49197
L76294 49159
L76313 49084
L76313 48953
L76294 48878
L76257 48841
L76219 48822
L76144 48822
L76107 48841
L76069 48878
L76050 48953
L76050 49084
L76069 49159
L76107 49197
L76144 49216
L76219 49216
" />
<path d="M75750 49009
L75882 49009
" />
<path d="M75882 49216
L75882 48822
L75694 48822
" />
<path d="M75544 49216
L75544 48822
L75319 49216
L75319 48822
" />
<path d="M75150 48859
L75132 48841
L75094 48822
L75001 48822
L74963 48841
L74944 48859
L74926 48897
L74926 48934
L74944 48991
L75169 49216
L74926 49216
" />
<path d="M74701 48991
L74738 48972
L74757 48953
L74776 48916
L74776 48897
L74757 48859
L74738 48841
L74701 48822
L74626 48822
L74588 48841
L74569 48859
L74551 48897
L74551 48916
L74569 48953
L74588 48972
L74626 48991
L74701 48991
L74738 49009
L74757 49028
L74776 49066
L74776 49141
L74757 49178
L74738 49197
L74701 49216
L74626 49216
L74588 49197
L74569 49178
L74551 49141
L74551 49066
L74569 49028
L74588 49009
L74626 48991
" />
</g><g class="stroked-text"><desc>0.1m</desc>
<path d="M76588 40197
L76550 40197
L76513 40216
L76494 40234
L76475 40272
L76457 40347
L76457 40441
L76475 40516
L76494 40553
L76513 40572
L76550 40591
L76588 40591
L76625 40572
L76644 40553
L76663 40516
L76682 40441
L76682 40347
L76663 40272
L76644 40234
L76625 40216
L76588 40197
" />
<path d="M76288 40553
L76269 40572
L76288 40591
L76307 40572
L76288 40553
L76288 40591
" />
<path d="M75894 40591
L76119 40591
" />
<path d="M76007 40591
L76007 40197
L76044 40253
L76082 40291
L76119 40309
" />
<path d="M75726 40591
L75726 40328
" />
<path d="M75726 40366
L75707 40347
L75669 40328
L75613 40328
L75576 40347
L75557 40384
L75557 40591
" />
<path d="M75557 40384
L75538 40347
L75501 40328
L75444 40328
L75407 40347
L75388 40384
L75388 40591
" />
</g><g class="stroked-text"><desc>0.1m</desc>
<path d="M77584 31687
L77547 31687
L77509 31705
L77490 31724
L77472 31762
L77453 31837
L77453 31930
L77472 32005
L77490 32043
L77509 32062
L77547 32080
L77584 32080
L77622 32062
L77640 32043
L77659 32005
L77678 31930
L77678 31837
L77659 31762
L77640 31724
L77622 31705
L77584 31687
" />
<path d="M77284 32043
L77265 32062
L77284 32080
L77303 32062
L77284 32043
L77284 32080
" />
<path d="M76890 32080
L77115 32080
" />
<path d="M77003 32080
L77003 31687
L77040 31743
L77078 31780
L77115 31799
" />
<path d="M76722 32080
L76722 31818
" />
<path d="M76722 31855
L76703 31837
L76665 31818
L76609 31818
L76572 31837
L76553 31874
L76553 32080
" />
<path d="M76553 31874
L76534 31837
L76497 31818
L76440 31818
L76403 31837
L76384 31874
L76384 32080
" />
</g><g class="stroked-text"><desc>0.1m</desc>
<path d="M79400 30007
L79362 30007
L79325 30026
L79306 30045
L79287 30082
L79269 30157
L79269 30251
L79287 30326
L79306 30363
L79325 30382
L79362 30401
L79400 30401
L79437 30382
L79456 30363
L79475 30326
L79494 30251
L79494 30157
L79475 30082
L79456 30045
L79437 30026
L79400 30007
" />
<path d="M79100 30363
L79081 30382
L79100 30401
L79119 30382
L79100 30363
L79100 30401
" />
<path d="M78706 30401
L78931 30401
" />
<path d="M78819 30401
L78819 30007
L78856 30063
L78894 30101
L78931 30120
" />
<path d="M78537 30401
L78537 30138
" />
<path d="M78537 30176
L78519 30157
L78481 30138
L78425 30138
L78387 30157
L78369 30195
L78369 30401
" />
<path d="M78369 30195
L78350 30157
L78312 30138
L78256 30138
L78219 30157
L78200 30195
L78200 30401
" />
</g><g class="stroked-text"><desc>MBR120</desc>
<path d="M76022 49555
L75628 49555
L75909 49686
L75628 49818
L76022 49818
" />
<path d="M75815 50136
L75834 50193
L75853 50211
L75890 50230
L75947 50230
L75984 50211
L76003 50193
L76022 50155
L76022 50005
L75628 50005
L75628 50136
L75647 50174
L75665 50193
L75703 50211
L75740 50211
L75778 50193
L75797 50174
L75815 50136
L75815 50005
" />
<path d="M76022 50624
L75834 50493
" />
<path d="M76022 50399
L75628 50399
L75628 50549
L75647 50586
L75665 50605
L75703 50624
L75759 50624
L75797 50605
L75815 50586
L75834 50549
L75834 50399
" />
<path d="M76022 50999
L76022 50774
" />
<path d="M76022 50886
L75628 50886
L75684 50849
L75722 50811
L75740 50774
" />
<path d="M75665 51149
L75647 51167
L75628 51205
L75628 51299
L75647 51336
L75665 51355
L75703 51374
L75740 51374
L75797 51355
L76022 51130
L76022 51374
" />
<path d="M75628 51617
L75628 51655
L75647 51692
L75665 51711
L75703 51730
L75778 51749
L75872 51749
L75947 51730
L75984 51711
L76003 51692
L76022 51655
L76022 51617
L76003 51580
L75984 51561
L75947 51542
L75872 51524
L75778 51524
L75703 51542
L75665 51561
L75647 51580
L75628 51617
" />
</g><g class="stroked-text"><desc>0.1m</desc>
<path d="M80480 43491
L80442 43491
L80405 43510
L80386 43528
L80367 43566
L80349 43641
L80349 43735
L80367 43810
L80386 43847
L80405 43866
L80442 43885
L80480 43885
L80517 43866
L80536 43847
L80555 43810
L80574 43735
L80574 43641
L80555 43566
L80536 43528
L80517 43510
L80480 43491
" />
<path d="M80180 43847
L80161 43866
L80180 43885
L80199 43866
L80180 43847
L80180 43885
" />
<path d="M79786 43885
L80011 43885
" />
<path d="M79899 43885
L79899 43491
L79936 43547
L79974 43585
L80011 43603
" />
<path d="M79618 43885
L79618 43622
" />
<path d="M79618 43660
L79599 43641
L79561 43622
L79505 43622
L79468 43641
L79449 43678
L79449 43885
" />
<path d="M79449 43678
L79430 43641
L79393 43622
L79336 43622
L79299 43641
L79280 43678
L79280 43885
" />
</g><g class="stroked-text"><desc>0.1m</desc>
<path d="M77934 44503
L77934 44541
L77953 44578
L77971 44597
L78009 44616
L78084 44634
L78178 44634
L78253 44616
L78290 44597
L78309 44578
L78328 44541
L78328 44503
L78309 44466
L78290 44447
L78253 44428
L78178 44409
L78084 44409
L78009 44428
L77971 44447
L77953 44466
L77934 44503
" />
<path d="M78290 44803
L78309 44822
L78328 44803
L78309 44784
L78290 44803
L78328 44803
" />
<path d="M78328 45197
L78328 44972
" />
<path d="M78328 45084
L77934 45084
L77990 45047
L78028 45009
L78046 44972
" />
<path d="M78328 45366
L78065 45366
" />
<path d="M78103 45366
L78084 45384
L78065 45422
L78065 45478
L78084 45516
L78121 45534
L78328 45534
" />
<path d="M78121 45534
L78084 45553
L78065 45591
L78065 45647
L78084 45684
L78121 45703
L78328 45703
" />
</g><g class="stroked-text"><desc>0.1m</desc>
<path d="M77615 34327
L77577 34327
L77540 34346
L77521 34365
L77502 34402
L77484 34477
L77484 34571
L77502 34646
L77521 34684
L77540 34702
L77577 34721
L77615 34721
L77652 34702
L77671 34684
L77690 34646
L77709 34571
L77709 34477
L77690 34402
L77671 34365
L77652 34346
L77615 34327
" />
<path d="M77315 34684
L77296 34702
L77315 34721
L77334 34702
L77315 34684
L77315 34721
" />
<path d="M76921 34721
L77146 34721
" />
<path d="M77034 34721
L77034 34327
L77071 34384
L77109 34421
L77146 34440
" />
<path d="M76753 34721
L76753 34459
" />
<path d="M76753 34496
L76734 34477
L76696 34459
L76640 34459
L76603 34477
L76584 34515
L76584 34721
" />
<path d="M76584 34515
L76565 34477
L76528 34459
L76471 34459
L76434 34477
L76415 34515
L76415 34721
" />
</g><g class="stroked-text"><desc>0.1m</desc>
<path d="M79834 37752
L79796 37752
L79759 37771
L79740 37789
L79721 37827
L79703 37902
L79703 37996
L79721 38071
L79740 38108
L79759 38127
L79796 38146
L79834 38146
L79871 38127
L79890 38108
L79909 38071
L79928 37996
L79928 37902
L79909 37827
L79890 37789
L79871 37771
L79834 37752
" />
<path d="M79534 38108
L79515 38127
L79534 38146
L79553 38127
L79534 38108
L79534 38146
" />
<path d="M79140 38146
L79365 38146
" />
<path d="M79253 38146
L79253 37752
L79290 37808
L79328 37846
L79365 37864
" />
<path d="M78972 38146
L78972 37883
" />
<path d="M78972 37921
L78953 37902
L78915 37883
L78859 37883
L78822 37902
L78803 37939
L78803 38146
" />
<path d="M78803 37939
L78784 37902
L78747 37883
L78690 37883
L78653 37902
L78634 37939
L78634 38146
" />
</g><g class="stroked-text"><desc>MBR120</desc>
<path d="M80091 34627
L80091 34233
L79959 34514
L79828 34233
L79828 34627
" />
<path d="M79509 34420
L79453 34439
L79434 34458
L79416 34495
L79416 34552
L79434 34589
L79453 34608
L79491 34627
L79641 34627
L79641 34233
L79509 34233
L79472 34252
L79453 34270
L79434 34308
L79434 34345
L79453 34383
L79472 34402
L79509 34420
L79641 34420
" />
<path d="M79022 34627
L79153 34439
" />
<path d="M79247 34627
L79247 34233
L79097 34233
L79059 34252
L79041 34270
L79022 34308
L79022 34364
L79041 34402
L79059 34420
L79097 34439
L79247 34439
" />
<path d="M78647 34627
L78872 34627
" />
<path d="M78759 34627
L78759 34233
L78797 34289
L78834 34327
L78872 34345
" />
<path d="M78497 34270
L78478 34252
L78441 34233
L78347 34233
L78310 34252
L78291 34270
L78272 34308
L78272 34345
L78291 34402
L78516 34627
L78272 34627
" />
<path d="M78028 34233
L77991 34233
L77953 34252
L77935 34270
L77916 34308
L77897 34383
L77897 34477
L77916 34552
L77935 34589
L77953 34608
L77991 34627
L78028 34627
L78066 34608
L78085 34589
L78103 34552
L78122 34477
L78122 34383
L78103 34308
L78085 34270
L78066 34252
L78028 34233
" />
</g><g class="stroked-text"><desc>Jumper_3_Open</desc>
<path d="M75578 36815
L75859 36815
L75915 36796
L75953 36759
L75972 36702
L75972 36665
" />
<path d="M75709 37171
L75972 37171
" />
<path d="M75709 37002
L75915 37002
L75953 37021
L75972 37059
L75972 37115
L75953 37152
L75934 37171
" />
<path d="M75972 37359
L75709 37359
" />
<path d="M75747 37359
L75728 37377
L75709 37415
L75709 37471
L75728 37509
L75765 37527
L75972 37527
" />
<path d="M75765 37527
L75728 37546
L75709 37584
L75709 37640
L75728 37677
L75765 37696
L75972 37696
" />
<path d="M75709 37884
L76103 37884
" />
<path d="M75728 37884
L75709 37921
L75709 37996
L75728 38033
L75747 38052
L75784 38071
L75897 38071
L75934 38052
L75953 38033
L75972 37996
L75972 37921
L75953 37884
" />
<path d="M75953 38390
L75972 38352
L75972 38277
L75953 38240
L75915 38221
L75765 38221
L75728 38240
L75709 38277
L75709 38352
L75728 38390
L75765 38408
L75803 38408
L75840 38221
" />
<path d="M75972 38577
L75709 38577
" />
<path d="M75784 38577
L75747 38596
L75728 38615
L75709 38652
L75709 38690
" />
<path d="M76009 38727
L76009 39027
" />
<path d="M75578 39083
L75578 39327
L75728 39196
L75728 39252
L75747 39290
L75765 39308
L75803 39327
L75897 39327
L75934 39308
L75953 39290
L75972 39252
L75972 39140
L75953 39102
L75934 39083
" />
<path d="M76009 39402
L76009 39702
" />
<path d="M75578 39871
L75578 39946
L75597 39983
L75634 40021
L75709 40039
L75840 40039
L75915 40021
L75953 39983
L75972 39946
L75972 39871
L75953 39833
L75915 39796
L75840 39777
L75709 39777
L75634 39796
L75597 39833
L75578 39871
" />
<path d="M75709 40208
L76103 40208
" />
<path d="M75728 40208
L75709 40246
L75709 40321
L75728 40358
L75747 40377
L75784 40396
L75897 40396
L75934 40377
L75953 40358
L75972 40321
L75972 40246
L75953 40208
" />
<path d="M75953 40714
L75972 40677
L75972 40602
L75953 40564
L75915 40546
L75765 40546
L75728 40564
L75709 40602
L75709 40677
L75728 40714
L75765 40733
L75803 40733
L75840 40546
" />
<path d="M75709 40902
L75972 40902
" />
<path d="M75747 40902
L75728 40921
L75709 40958
L75709 41014
L75728 41052
L75765 41071
L75972 41071
" />
</g><g class="stroked-text"><desc>Jumper_3_Open</desc>
<path d="M77046 36800
L77327 36800
L77383 36781
L77421 36744
L77440 36687
L77440 36650
" />
<path d="M77177 37156
L77440 37156
" />
<path d="M77177 36987
L77383 36987
L77421 37006
L77440 37044
L77440 37100
L77421 37137
L77402 37156
" />
<path d="M77440 37344
L77177 37344
" />
<path d="M77215 37344
L77196 37362
L77177 37400
L77177 37456
L77196 37494
L77233 37512
L77440 37512
" />
<path d="M77233 37512
L77196 37531
L77177 37569
L77177 37625
L77196 37662
L77233 37681
L77440 37681
" />
<path d="M77177 37869
L77571 37869
" />
<path d="M77196 37869
L77177 37906
L77177 37981
L77196 38018
L77215 38037
L77252 38056
L77365 38056
L77402 38037
L77421 38018
L77440 37981
L77440 37906
L77421 37869
" />
<path d="M77421 38375
L77440 38337
L77440 38262
L77421 38225
L77383 38206
L77233 38206
L77196 38225
L77177 38262
L77177 38337
L77196 38375
L77233 38393
L77271 38393
L77308 38206
" />
<path d="M77440 38562
L77177 38562
" />
<path d="M77252 38562
L77215 38581
L77196 38600
L77177 38637
L77177 38675
" />
<path d="M77477 38712
L77477 39012
" />
<path d="M77046 39068
L77046 39312
L77196 39181
L77196 39237
L77215 39275
L77233 39293
L77271 39312
L77365 39312
L77402 39293
L77421 39275
L77440 39237
L77440 39125
L77421 39087
L77402 39068
" />
<path d="M77477 39387
L77477 39687
" />
<path d="M77046 39856
L77046 39931
L77065 39968
L77102 40006
L77177 40024
L77308 40024
L77383 40006
L77421 39968
L77440 39931
L77440 39856
L77421 39818
L77383 39781
L77308 39762
L77177 39762
L77102 39781
L77065 39818
L77046 39856
" />
<path d="M77177 40193
L77571 40193
" />
<path d="M77196 40193
L77177 40231
L77177 40306
L77196 40343
L77215 40362
L77252 40381
L77365 40381
L77402 40362
L77421 40343
L77440 40306
L77440 40231
L77421 40193
" />
<path d="M77421 40699
L77440 40662
L77440 40587
L77421 40549
L77383 40531
L77233 40531
L77196 40549
L77177 40587
L77177 40662
L77196 40699
L77233 40718
L77271 40718
L77308 40531
" />
<path d="M77177 40887
L77440 40887
" />
<path d="M77215 40887
L77196 40906
L77177 40943
L77177 40999
L77196 41037
L77233 41056
L77440 41056
" />
</g><g class="stroked-text"><desc>Jumper_3_Open</desc>
<path d="M76263 42964
L76544 42964
L76600 42945
L76638 42908
L76657 42851
L76657 42814
" />
<path d="M76394 43320
L76657 43320
" />
<path d="M76394 43151
L76600 43151
L76638 43170
L76657 43208
L76657 43264
L76638 43301
L76619 43320
" />
<path d="M76657 43508
L76394 43508
" />
<path d="M76432 43508
L76413 43526
L76394 43564
L76394 43620
L76413 43658
L76450 43676
L76657 43676
" />
<path d="M76450 43676
L76413 43695
L76394 43733
L76394 43789
L76413 43826
L76450 43845
L76657 43845
" />
<path d="M76394 44033
L76788 44033
" />
<path d="M76413 44033
L76394 44070
L76394 44145
L76413 44182
L76432 44201
L76469 44220
L76582 44220
L76619 44201
L76638 44182
L76657 44145
L76657 44070
L76638 44033
" />
<path d="M76638 44539
L76657 44501
L76657 44426
L76638 44389
L76600 44370
L76450 44370
L76413 44389
L76394 44426
L76394 44501
L76413 44539
L76450 44557
L76488 44557
L76525 44370
" />
<path d="M76657 44726
L76394 44726
" />
<path d="M76469 44726
L76432 44745
L76413 44764
L76394 44801
L76394 44839
" />
<path d="M76694 44876
L76694 45176
" />
<path d="M76263 45232
L76263 45476
L76413 45345
L76413 45401
L76432 45439
L76450 45457
L76488 45476
L76582 45476
L76619 45457
L76638 45439
L76657 45401
L76657 45289
L76638 45251
L76619 45232
" />
<path d="M76694 45551
L76694 45851
" />
<path d="M76263 46020
L76263 46095
L76282 46132
L76319 46170
L76394 46188
L76525 46188
L76600 46170
L76638 46132
L76657 46095
L76657 46020
L76638 45982
L76600 45945
L76525 45926
L76394 45926
L76319 45945
L76282 45982
L76263 46020
" />
<path d="M76394 46357
L76788 46357
" />
<path d="M76413 46357
L76394 46395
L76394 46470
L76413 46507
L76432 46526
L76469 46545
L76582 46545
L76619 46526
L76638 46507
L76657 46470
L76657 46395
L76638 46357
" />
<path d="M76638 46863
L76657 46826
L76657 46751
L76638 46713
L76600 46695
L76450 46695
L76413 46713
L76394 46751
L76394 46826
L76413 46863
L76450 46882
L76488 46882
L76525 46695
" />
<path d="M76394 47051
L76657 47051
" />
<path d="M76432 47051
L76413 47070
L76394 47107
L76394 47163
L76413 47201
L76450 47220
L76657 47220
" />
</g><g class="stroked-text"><desc>Jumper_3_Open</desc>
<path d="M82302 46317
L82302 46598
L82321 46654
L82358 46692
L82415 46711
L82452 46711
" />
<path d="M81946 46448
L81946 46711
" />
<path d="M82115 46448
L82115 46654
L82096 46692
L82058 46711
L82002 46711
L81965 46692
L81946 46673
" />
<path d="M81758 46711
L81758 46448
" />
<path d="M81758 46486
L81740 46467
L81702 46448
L81646 46448
L81608 46467
L81590 46504
L81590 46711
" />
<path d="M81590 46504
L81571 46467
L81533 46448
L81477 46448
L81440 46467
L81421 46504
L81421 46711
" />
<path d="M81233 46448
L81233 46842
" />
<path d="M81233 46467
L81196 46448
L81121 46448
L81084 46467
L81065 46486
L81046 46523
L81046 46636
L81065 46673
L81084 46692
L81121 46711
L81196 46711
L81233 46692
" />
<path d="M80727 46692
L80765 46711
L80840 46711
L80877 46692
L80896 46654
L80896 46504
L80877 46467
L80840 46448
L80765 46448
L80727 46467
L80709 46504
L80709 46542
L80896 46579
" />
<path d="M80540 46711
L80540 46448
" />
<path d="M80540 46523
L80521 46486
L80502 46467
L80465 46448
L80427 46448
" />
<path d="M80390 46748
L80090 46748
" />
<path d="M80034 46317
L79790 46317
L79921 46467
L79865 46467
L79827 46486
L79809 46504
L79790 46542
L79790 46636
L79809 46673
L79827 46692
L79865 46711
L79977 46711
L80015 46692
L80034 46673
" />
<path d="M79715 46748
L79415 46748
" />
<path d="M79246 46317
L79171 46317
L79134 46336
L79096 46373
L79078 46448
L79078 46579
L79096 46654
L79134 46692
L79171 46711
L79246 46711
L79284 46692
L79321 46654
L79340 46579
L79340 46448
L79321 46373
L79284 46336
L79246 46317
" />
<path d="M78909 46448
L78909 46842
" />
<path d="M78909 46467
L78871 46448
L78796 46448
L78759 46467
L78740 46486
L78721 46523
L78721 46636
L78740 46673
L78759 46692
L78796 46711
L78871 46711
L78909 46692
" />
<path d="M78403 46692
L78440 46711
L78515 46711
L78553 46692
L78571 46654
L78571 46504
L78553 46467
L78515 46448
L78440 46448
L78403 46467
L78384 46504
L78384 46542
L78571 46579
" />
<path d="M78215 46448
L78215 46711
" />
<path d="M78215 46486
L78196 46467
L78159 46448
L78103 46448
L78065 46467
L78046 46504
L78046 46711
" />
</g><g class="stroked-text"><desc>Jumper_3_Open</desc>
<path d="M81366 38728
L81366 39009
L81385 39065
L81422 39103
L81479 39122
L81516 39122
" />
<path d="M81010 38859
L81010 39122
" />
<path d="M81179 38859
L81179 39065
L81160 39103
L81122 39122
L81066 39122
L81029 39103
L81010 39084
" />
<path d="M80822 39122
L80822 38859
" />
<path d="M80822 38897
L80804 38878
L80766 38859
L80710 38859
L80672 38878
L80654 38915
L80654 39122
" />
<path d="M80654 38915
L80635 38878
L80597 38859
L80541 38859
L80504 38878
L80485 38915
L80485 39122
" />
<path d="M80297 38859
L80297 39253
" />
<path d="M80297 38878
L80260 38859
L80185 38859
L80148 38878
L80129 38897
L80110 38934
L80110 39047
L80129 39084
L80148 39103
L80185 39122
L80260 39122
L80297 39103
" />
<path d="M79791 39103
L79829 39122
L79904 39122
L79941 39103
L79960 39065
L79960 38915
L79941 38878
L79904 38859
L79829 38859
L79791 38878
L79773 38915
L79773 38953
L79960 38990
" />
<path d="M79604 39122
L79604 38859
" />
<path d="M79604 38934
L79585 38897
L79566 38878
L79529 38859
L79491 38859
" />
<path d="M79454 39159
L79154 39159
" />
<path d="M79098 38728
L78854 38728
L78985 38878
L78929 38878
L78891 38897
L78873 38915
L78854 38953
L78854 39047
L78873 39084
L78891 39103
L78929 39122
L79041 39122
L79079 39103
L79098 39084
" />
<path d="M78779 39159
L78479 39159
" />
<path d="M78310 38728
L78235 38728
L78198 38747
L78160 38784
L78142 38859
L78142 38990
L78160 39065
L78198 39103
L78235 39122
L78310 39122
L78348 39103
L78385 39065
L78404 38990
L78404 38859
L78385 38784
L78348 38747
L78310 38728
" />
<path d="M77973 38859
L77973 39253
" />
<path d="M77973 38878
L77935 38859
L77860 38859
L77823 38878
L77804 38897
L77785 38934
L77785 39047
L77804 39084
L77823 39103
L77860 39122
L77935 39122
L77973 39103
" />
<path d="M77467 39103
L77504 39122
L77579 39122
L77617 39103
L77635 39065
L77635 38915
L77617 38878
L77579 38859
L77504 38859
L77467 38878
L77448 38915
L77448 38953
L77635 38990
" />
<path d="M77279 38859
L77279 39122
" />
<path d="M77279 38897
L77260 38878
L77223 38859
L77167 38859
L77129 38878
L77110 38915
L77110 39122
" />
</g><g class="stroked-text"><desc>Jumper_3_Open</desc>
<path d="M80980 48719
L81261 48719
L81317 48700
L81355 48663
L81374 48606
L81374 48569
" />
<path d="M81111 49075
L81374 49075
" />
<path d="M81111 48906
L81317 48906
L81355 48925
L81374 48963
L81374 49019
L81355 49056
L81336 49075
" />
<path d="M81374 49263
L81111 49263
" />
<path d="M81149 49263
L81130 49281
L81111 49319
L81111 49375
L81130 49413
L81167 49431
L81374 49431
" />
<path d="M81167 49431
L81130 49450
L81111 49488
L81111 49544
L81130 49581
L81167 49600
L81374 49600
" />
<path d="M81111 49788
L81505 49788
" />
<path d="M81130 49788
L81111 49825
L81111 49900
L81130 49937
L81149 49956
L81186 49975
L81299 49975
L81336 49956
L81355 49937
L81374 49900
L81374 49825
L81355 49788
" />
<path d="M81355 50294
L81374 50256
L81374 50181
L81355 50144
L81317 50125
L81167 50125
L81130 50144
L81111 50181
L81111 50256
L81130 50294
L81167 50312
L81205 50312
L81242 50125
" />
<path d="M81374 50481
L81111 50481
" />
<path d="M81186 50481
L81149 50500
L81130 50519
L81111 50556
L81111 50594
" />
<path d="M81411 50631
L81411 50931
" />
<path d="M80980 50987
L80980 51231
L81130 51100
L81130 51156
L81149 51194
L81167 51212
L81205 51231
L81299 51231
L81336 51212
L81355 51194
L81374 51156
L81374 51044
L81355 51006
L81336 50987
" />
<path d="M81411 51306
L81411 51606
" />
<path d="M80980 51775
L80980 51850
L80999 51887
L81036 51925
L81111 51943
L81242 51943
L81317 51925
L81355 51887
L81374 51850
L81374 51775
L81355 51737
L81317 51700
L81242 51681
L81111 51681
L81036 51700
L80999 51737
L80980 51775
" />
<path d="M81111 52112
L81505 52112
" />
<path d="M81130 52112
L81111 52150
L81111 52225
L81130 52262
L81149 52281
L81186 52300
L81299 52300
L81336 52281
L81355 52262
L81374 52225
L81374 52150
L81355 52112
" />
<path d="M81355 52618
L81374 52581
L81374 52506
L81355 52468
L81317 52450
L81167 52450
L81130 52468
L81111 52506
L81111 52581
L81130 52618
L81167 52637
L81205 52637
L81242 52450
" />
<path d="M81111 52806
L81374 52806
" />
<path d="M81149 52806
L81130 52825
L81111 52862
L81111 52918
L81130 52956
L81167 52975
L81374 52975
" />
</g><g class="stroked-text"><desc>22</desc>
<path d="M78389 52838
L78371 52819
L78333 52801
L78239 52801
L78202 52819
L78183 52838
L78164 52876
L78164 52913
L78183 52969
L78408 53194
L78164 53194
" />
<path d="M78015 52838
L77996 52819
L77958 52801
L77865 52801
L77827 52819
L77808 52838
L77790 52876
L77790 52913
L77808 52969
L78033 53194
L77790 53194
" />
</g><g class="stroked-text"><desc>22</desc>
<path d="M78399 53768
L78381 53749
L78343 53731
L78249 53731
L78212 53749
L78193 53768
L78174 53806
L78174 53843
L78193 53899
L78418 54124
L78174 54124
" />
<path d="M78025 53768
L78006 53749
L77968 53731
L77875 53731
L77837 53749
L77818 53768
L77800 53806
L77800 53843
L77818 53899
L78043 54124
L77800 54124
" />
</g><g class="stroked-text"><desc>1M</desc>
<path d="M75421 36793
L75421 36568
" />
<path d="M75421 36680
L75027 36680
L75083 36643
L75121 36605
L75139 36568
" />
<path d="M75421 36961
L75027 36961
L75308 37092
L75027 37224
L75421 37224
" />
</g><g class="stroked-text"><desc>MLC-05E</desc>
<path d="M76148 51385
L75754 51385
L76035 51517
L75754 51648
L76148 51648
" />
<path d="M76148 52023
L76148 51835
L75754 51835
" />
<path d="M76110 52379
L76129 52360
L76148 52304
L76148 52266
L76129 52210
L76091 52173
L76054 52154
L75979 52135
L75923 52135
L75848 52154
L75810 52173
L75773 52210
L75754 52266
L75754 52304
L75773 52360
L75791 52379
" />
<path d="M75998 52548
L75998 52848
" />
<path d="M75754 53110
L75754 53148
L75773 53185
L75791 53204
L75829 53223
L75904 53241
L75998 53241
L76073 53223
L76110 53204
L76129 53185
L76148 53148
L76148 53110
L76129 53073
L76110 53054
L76073 53035
L75998 53016
L75904 53016
L75829 53035
L75791 53054
L75773 53073
L75754 53110
" />
<path d="M75754 53598
L75754 53410
L75941 53391
L75923 53410
L75904 53448
L75904 53541
L75923 53579
L75941 53598
L75979 53616
L76073 53616
L76110 53598
L76129 53579
L76148 53541
L76148 53448
L76129 53410
L76110 53391
" />
<path d="M75941 53785
L75941 53916
" />
<path d="M76148 53972
L76148 53785
L75754 53785
L75754 53972
" />
</g><g class="stroked-text"><desc>MLC-05E</desc>
<path d="M79870 51285
L79476 51285
L79757 51417
L79476 51548
L79870 51548
" />
<path d="M79870 51923
L79870 51735
L79476 51735
" />
<path d="M79832 52279
L79851 52260
L79870 52204
L79870 52166
L79851 52110
L79813 52073
L79776 52054
L79701 52035
L79645 52035
L79570 52054
L79532 52073
L79495 52110
L79476 52166
L79476 52204
L79495 52260
L79513 52279
" />
<path d="M79720 52448
L79720 52748
" />
<path d="M79476 53010
L79476 53048
L79495 53085
L79513 53104
L79551 53123
L79626 53141
L79720 53141
L79795 53123
L79832 53104
L79851 53085
L79870 53048
L79870 53010
L79851 52973
L79832 52954
L79795 52935
L79720 52916
L79626 52916
L79551 52935
L79513 52954
L79495 52973
L79476 53010
" />
<path d="M79476 53498
L79476 53310
L79663 53291
L79645 53310
L79626 53348
L79626 53441
L79645 53479
L79663 53498
L79701 53516
L79795 53516
L79832 53498
L79851 53479
L79870 53441
L79870 53348
L79851 53310
L79832 53291
" />
<path d="M79663 53685
L79663 53816
" />
<path d="M79870 53872
L79870 53685
L79476 53685
L79476 53872
" />
</g><g class="stroked-text"><desc>Jumper</desc>
<path d="M78838 45934
L79119 45934
L79175 45916
L79213 45878
L79232 45822
L79232 45784
" />
<path d="M78969 46291
L79232 46291
" />
<path d="M78969 46122
L79175 46122
L79213 46141
L79232 46178
L79232 46234
L79213 46272
L79194 46291
" />
<path d="M79232 46478
L78969 46478
" />
<path d="M79007 46478
L78988 46497
L78969 46534
L78969 46591
L78988 46628
L79025 46647
L79232 46647
" />
<path d="M79025 46647
L78988 46666
L78969 46703
L78969 46759
L78988 46797
L79025 46816
L79232 46816
" />
<path d="M78969 47003
L79363 47003
" />
<path d="M78988 47003
L78969 47040
L78969 47115
L78988 47153
L79007 47172
L79044 47190
L79157 47190
L79194 47172
L79213 47153
L79232 47115
L79232 47040
L79213 47003
" />
<path d="M79213 47509
L79232 47472
L79232 47397
L79213 47359
L79175 47340
L79025 47340
L78988 47359
L78969 47397
L78969 47472
L78988 47509
L79025 47528
L79063 47528
L79100 47340
" />
<path d="M79232 47697
L78969 47697
" />
<path d="M79044 47697
L79007 47715
L78988 47734
L78969 47772
L78969 47809
" />
</g><g class="stroked-text"><desc>VIO</desc>
<path d="M79713 41743
L79581 42137
L79450 41743
" />
<path d="M79319 42137
L79319 41743
" />
<path d="M79057 41743
L78982 41743
L78944 41762
L78907 41799
L78888 41874
L78888 42005
L78907 42080
L78944 42118
L78982 42137
L79057 42137
L79094 42118
L79132 42080
L79150 42005
L79150 41874
L79132 41799
L79094 41762
L79057 41743
" />
</g><g >
</g>
</g> 
</svg>
