<?xml version="1.0" standalone="no"?>
 <!DOCTYPE svg PUBLIC "-//W3C//DTD SVG 1.1//EN" 
 "http://www.w3.org/Graphics/SVG/1.1/DTD/svg11.dtd"> 
<svg xmlns="http://www.w3.org/2000/svg" version="1.1" 
    width="29.7002cm" height="21.0007cm" viewBox="0 0 116930 82680 ">
<title>SVG Picture created as arduino_nano324-F_SilkS.svg date 2019/08/21 17:55:37 </title>
  <desc>Picture generated by PCBNEW </desc>
<g style="fill:#000000; fill-opacity:1;stroke:#000000; stroke-opacity:1;
stroke-linecap:round; stroke-linejoin:round; "
 transform="translate(0 0) scale(1 1)">
</g>
<g style="fill:#000000; fill-opacity:0.0; 
stroke:#000000; stroke-width:-0.000393701; stroke-opacity:1; 
stroke-linecap:round; stroke-linejoin:round;">
</g>
<g style="fill:#000000; fill-opacity:0.0; 
stroke:#000000; stroke-width:196.85; stroke-opacity:1; 
stroke-linecap:round; stroke-linejoin:round;">
<path d="M82801 28300
L82800 53700
" />
<path d="M73200 53700
L73200 28300
" />
</g>
<g style="fill:#000000; fill-opacity:0.0; 
stroke:#000000; stroke-width:59.0551; stroke-opacity:1; 
stroke-linecap:round; stroke-linejoin:round;">
<g class="stroked-text"><desc>nano324PB</desc>
<path d="M76428 46838
L76428 47101
" />
<path d="M76428 46876
L76446 46857
L76484 46838
L76540 46838
L76578 46857
L76596 46895
L76596 47101
" />
<path d="M76953 47101
L76953 46895
L76934 46857
L76896 46838
L76821 46838
L76784 46857
" />
<path d="M76953 47082
L76915 47101
L76821 47101
L76784 47082
L76765 47045
L76765 47007
L76784 46970
L76821 46951
L76915 46951
L76953 46932
" />
<path d="M77140 46838
L77140 47101
" />
<path d="M77140 46876
L77159 46857
L77196 46838
L77253 46838
L77290 46857
L77309 46895
L77309 47101
" />
<path d="M77553 47101
L77515 47082
L77496 47063
L77478 47026
L77478 46913
L77496 46876
L77515 46857
L77553 46838
L77609 46838
L77646 46857
L77665 46876
L77684 46913
L77684 47026
L77665 47063
L77646 47082
L77609 47101
L77553 47101
" />
<path d="M77815 46707
L78059 46707
L77928 46857
L77984 46857
L78021 46876
L78040 46895
L78059 46932
L78059 47026
L78040 47063
L78021 47082
L77984 47101
L77871 47101
L77834 47082
L77815 47063
" />
<path d="M78209 46745
L78227 46726
L78265 46707
L78359 46707
L78396 46726
L78415 46745
L78434 46782
L78434 46820
L78415 46876
L78190 47101
L78434 47101
" />
<path d="M78771 46838
L78771 47101
" />
<path d="M78677 46688
L78584 46970
L78827 46970
" />
<path d="M78977 47101
L78977 46707
L79127 46707
L79165 46726
L79184 46745
L79202 46782
L79202 46838
L79184 46876
L79165 46895
L79127 46913
L78977 46913
" />
<path d="M79502 46895
L79559 46913
L79577 46932
L79596 46970
L79596 47026
L79577 47063
L79559 47082
L79521 47101
L79371 47101
L79371 46707
L79502 46707
L79540 46726
L79559 46745
L79577 46782
L79577 46820
L79559 46857
L79540 46876
L79502 46895
L79371 46895
" />
</g><g class="stroked-text"><desc>by kovo</desc>
<path d="M76953 47735
L76953 47341
" />
<path d="M76953 47491
L76990 47472
L77065 47472
L77103 47491
L77121 47510
L77140 47547
L77140 47660
L77121 47697
L77103 47716
L77065 47735
L76990 47735
L76953 47716
" />
<path d="M77271 47472
L77365 47735
" />
<path d="M77459 47472
L77365 47735
L77328 47828
L77309 47847
L77271 47866
" />
<path d="M77909 47735
L77909 47341
" />
<path d="M77946 47585
L78059 47735
" />
<path d="M78059 47472
L77909 47622
" />
<path d="M78284 47735
L78246 47716
L78227 47697
L78209 47660
L78209 47547
L78227 47510
L78246 47491
L78284 47472
L78340 47472
L78377 47491
L78396 47510
L78415 47547
L78415 47660
L78396 47697
L78377 47716
L78340 47735
L78284 47735
" />
<path d="M78546 47472
L78640 47735
L78734 47472
" />
<path d="M78940 47735
L78902 47716
L78884 47697
L78865 47660
L78865 47547
L78884 47510
L78902 47491
L78940 47472
L78996 47472
L79034 47491
L79052 47510
L79071 47547
L79071 47660
L79052 47697
L79034 47716
L78996 47735
L78940 47735
" />
</g><g class="stroked-text"><desc>Made in Slovakia</desc>
<path d="M75547 48368
L75547 47975
L75678 48256
L75809 47975
L75809 48368
" />
<path d="M76165 48368
L76165 48162
L76146 48125
L76109 48106
L76034 48106
L75997 48125
" />
<path d="M76165 48350
L76128 48368
L76034 48368
L75997 48350
L75978 48312
L75978 48275
L75997 48237
L76034 48218
L76128 48218
L76165 48200
" />
<path d="M76521 48368
L76521 47975
" />
<path d="M76521 48350
L76484 48368
L76409 48368
L76371 48350
L76353 48331
L76334 48293
L76334 48181
L76353 48143
L76371 48125
L76409 48106
L76484 48106
L76521 48125
" />
<path d="M76859 48350
L76821 48368
L76746 48368
L76709 48350
L76690 48312
L76690 48162
L76709 48125
L76746 48106
L76821 48106
L76859 48125
L76878 48162
L76878 48200
L76690 48237
" />
<path d="M77346 48368
L77346 48106
" />
<path d="M77346 47975
L77328 47994
L77346 48012
L77365 47994
L77346 47975
L77346 48012
" />
<path d="M77534 48106
L77534 48368
" />
<path d="M77534 48143
L77553 48125
L77590 48106
L77646 48106
L77684 48125
L77703 48162
L77703 48368
" />
<path d="M78171 48350
L78227 48368
L78321 48368
L78359 48350
L78377 48331
L78396 48293
L78396 48256
L78377 48218
L78359 48200
L78321 48181
L78246 48162
L78209 48143
L78190 48125
L78171 48087
L78171 48050
L78190 48012
L78209 47994
L78246 47975
L78340 47975
L78396 47994
" />
<path d="M78621 48368
L78584 48350
L78565 48312
L78565 47975
" />
<path d="M78827 48368
L78790 48350
L78771 48331
L78752 48293
L78752 48181
L78771 48143
L78790 48125
L78827 48106
L78884 48106
L78921 48125
L78940 48143
L78959 48181
L78959 48293
L78940 48331
L78921 48350
L78884 48368
L78827 48368
" />
<path d="M79090 48106
L79184 48368
L79277 48106
" />
<path d="M79596 48368
L79596 48162
L79577 48125
L79540 48106
L79465 48106
L79427 48125
" />
<path d="M79596 48350
L79559 48368
L79465 48368
L79427 48350
L79409 48312
L79409 48275
L79427 48237
L79465 48218
L79559 48218
L79596 48200
" />
<path d="M79784 48368
L79784 47975
" />
<path d="M79821 48218
L79934 48368
" />
<path d="M79934 48106
L79784 48256
" />
<path d="M80102 48368
L80102 48106
" />
<path d="M80102 47975
L80083 47994
L80102 48012
L80121 47994
L80102 47975
L80102 48012
" />
<path d="M80458 48368
L80458 48162
L80440 48125
L80402 48106
L80327 48106
L80290 48125
" />
<path d="M80458 48350
L80421 48368
L80327 48368
L80290 48350
L80271 48312
L80271 48275
L80290 48237
L80327 48218
L80421 48218
L80458 48200
" />
</g></g>
<g style="fill:#000000; fill-opacity:0.0; 
stroke:#000000; stroke-width:39.3701; stroke-opacity:1; 
stroke-linecap:round; stroke-linejoin:round;">
<g class="stroked-text"><desc>MOSI</desc>
<path d="M77525 30892
L77525 30577
L77630 30802
L77735 30577
L77735 30892
" />
<path d="M77945 30577
L78005 30577
L78034 30592
L78064 30622
L78079 30682
L78079 30787
L78064 30847
L78034 30877
L78005 30892
L77945 30892
L77915 30877
L77885 30847
L77870 30787
L77870 30682
L77885 30622
L77915 30592
L77945 30577
" />
<path d="M78199 30877
L78244 30892
L78319 30892
L78349 30877
L78364 30862
L78379 30832
L78379 30802
L78364 30772
L78349 30757
L78319 30742
L78259 30727
L78229 30712
L78214 30697
L78199 30667
L78199 30637
L78214 30607
L78229 30592
L78259 30577
L78334 30577
L78379 30592
" />
<path d="M78514 30892
L78514 30577
" />
</g><g class="stroked-text"><desc>+5V</desc>
<path d="M79952 30654
L79952 30414
" />
<path d="M80072 30534
L79832 30534
" />
<path d="M79757 30115
L79757 30264
L79907 30279
L79892 30264
L79877 30235
L79877 30160
L79892 30130
L79907 30115
L79937 30100
L80012 30100
L80042 30115
L80057 30130
L80072 30160
L80072 30235
L80057 30264
L80042 30279
" />
<path d="M79757 30010
L80072 29905
L79757 29800
" />
</g><g class="stroked-text"><desc>MISO</desc>
<path d="M80072 29414
L79757 29414
L79982 29309
L79757 29204
L80072 29204
" />
<path d="M80072 29054
L79757 29054
" />
<path d="M80057 28920
L80072 28875
L80072 28800
L80057 28770
L80042 28755
L80012 28740
L79982 28740
L79952 28755
L79937 28770
L79922 28800
L79907 28860
L79892 28890
L79877 28905
L79847 28920
L79817 28920
L79787 28905
L79772 28890
L79757 28860
L79757 28785
L79772 28740
" />
<path d="M79757 28545
L79757 28485
L79772 28455
L79802 28425
L79862 28410
L79967 28410
L80027 28425
L80057 28455
L80072 28485
L80072 28545
L80057 28575
L80027 28605
L79967 28620
L79862 28620
L79802 28605
L79772 28575
L79757 28545
" />
</g><g class="stroked-text"><desc>GND</desc>
<path d="M75942 30439
L75927 30469
L75927 30514
L75942 30559
L75972 30589
L76002 30604
L76062 30619
L76107 30619
L76167 30604
L76197 30589
L76227 30559
L76242 30514
L76242 30484
L76227 30439
L76212 30424
L76107 30424
L76107 30484
" />
<path d="M76242 30289
L75927 30289
L76242 30110
L75927 30110
" />
<path d="M76242 29960
L75927 29960
L75927 29885
L75942 29840
L75972 29810
L76002 29795
L76062 29780
L76107 29780
L76167 29795
L76197 29810
L76227 29840
L76242 29885
L76242 29960
" />
</g><g class="stroked-text"><desc>RST</desc>
<path d="M76222 29082
L76072 29187
" />
<path d="M76222 29262
L75907 29262
L75907 29142
L75922 29112
L75937 29097
L75967 29082
L76012 29082
L76042 29097
L76057 29112
L76072 29142
L76072 29262
" />
<path d="M76207 28962
L76222 28917
L76222 28842
L76207 28812
L76192 28797
L76162 28782
L76132 28782
L76102 28797
L76087 28812
L76072 28842
L76057 28902
L76042 28932
L76027 28947
L75997 28962
L75967 28962
L75937 28947
L75922 28932
L75907 28902
L75907 28827
L75922 28782
" />
<path d="M75907 28692
L75907 28512
" />
<path d="M76222 28602
L75907 28602
" />
</g></g>
<g style="fill:#000000; fill-opacity:1.0; 
stroke:#000000; stroke-width:39.3701; stroke-opacity:1; 
stroke-linecap:round; stroke-linejoin:round;">
<path style="fill:#000000; fill-opacity:1.0; 
stroke:#000000; stroke-width:39.3701; stroke-opacity:1; 
stroke-linecap:round; stroke-linejoin:round;fill-rule:evenodd;"
d="M 80000,33990
75970,33990
75970,33290
80000,33290
Z" /> 
</g>
<g style="fill:#000000; fill-opacity:1.0; 
stroke:#000000; stroke-width:196.85; stroke-opacity:1; 
stroke-linecap:round; stroke-linejoin:round;">
</g>
<g style="fill:#000000; fill-opacity:0.0; 
stroke:#000000; stroke-width:196.85; stroke-opacity:1; 
stroke-linecap:round; stroke-linejoin:round;">
<path d="M73200 28300
L82800 28300
" />
</g>
<g style="fill:#000000; fill-opacity:0.0; 
stroke:#000000; stroke-width:39.3701; stroke-opacity:1; 
stroke-linecap:round; stroke-linejoin:round;">
<g class="stroked-text"><desc>37</desc>
<path d="M81020 50236
L81020 50041
L81140 50146
L81140 50101
L81155 50071
L81170 50056
L81200 50041
L81275 50041
L81305 50056
L81320 50071
L81335 50101
L81335 50191
L81320 50221
L81305 50236
" />
<path d="M81020 49937
L81020 49727
L81335 49862
" />
</g><g class="stroked-text"><desc>39</desc>
<path d="M81054 51280
L81054 51085
L81174 51190
L81174 51145
L81189 51115
L81204 51100
L81234 51085
L81309 51085
L81339 51100
L81354 51115
L81369 51145
L81369 51235
L81354 51265
L81339 51280
" />
<path d="M81369 50936
L81369 50876
L81354 50846
L81339 50831
L81294 50801
L81234 50786
L81114 50786
L81084 50801
L81069 50816
L81054 50846
L81054 50906
L81069 50936
L81084 50951
L81114 50966
L81189 50966
L81219 50951
L81234 50936
L81249 50906
L81249 50846
L81234 50816
L81219 50801
L81189 50786
" />
</g><g class="stroked-text"><desc>40</desc>
<path d="M81185 52065
L81395 52065
" />
<path d="M81065 52140
L81290 52215
L81290 52020
" />
<path d="M81080 51841
L81080 51811
L81095 51781
L81110 51766
L81140 51751
L81200 51736
L81275 51736
L81335 51751
L81365 51766
L81380 51781
L81395 51811
L81395 51841
L81380 51871
L81365 51886
L81335 51901
L81275 51916
L81200 51916
L81140 51901
L81110 51886
L81095 51871
L81080 51841
" />
</g><g class="stroked-text"><desc>36</desc>
<path d="M74653 52262
L74653 52067
L74773 52172
L74773 52127
L74788 52097
L74803 52082
L74833 52067
L74908 52067
L74938 52082
L74953 52097
L74968 52127
L74968 52217
L74953 52247
L74938 52262
" />
<path d="M74653 51798
L74653 51858
L74668 51888
L74683 51903
L74728 51933
L74788 51948
L74908 51948
L74938 51933
L74953 51918
L74968 51888
L74968 51828
L74953 51798
L74938 51783
L74908 51768
L74833 51768
L74803 51783
L74788 51798
L74773 51828
L74773 51888
L74788 51918
L74803 51933
L74833 51948
" />
</g><g class="stroked-text"><desc>35</desc>
<path d="M74644 51167
L74644 50972
L74764 51077
L74764 51032
L74779 51002
L74794 50987
L74824 50972
L74899 50972
L74929 50987
L74944 51002
L74959 51032
L74959 51122
L74944 51152
L74929 51167
" />
<path d="M74644 50688
L74644 50838
L74794 50853
L74779 50838
L74764 50808
L74764 50733
L74779 50703
L74794 50688
L74824 50673
L74899 50673
L74929 50688
L74944 50703
L74959 50733
L74959 50808
L74944 50838
L74929 50853
" />
</g><g class="stroked-text"><desc>34</desc>
<path d="M74627 50234
L74627 50039
L74747 50144
L74747 50099
L74762 50069
L74777 50054
L74807 50039
L74882 50039
L74912 50054
L74927 50069
L74942 50099
L74942 50189
L74927 50219
L74912 50234
" />
<path d="M74732 49770
L74942 49770
" />
<path d="M74612 49845
L74837 49920
L74837 49725
" />
</g><g class="stroked-text"><desc>Vin</desc>
<path d="M81002 30322
L81317 30217
L81002 30112
" />
<path d="M81317 30007
L81107 30007
" />
<path d="M81002 30007
L81017 30022
L81032 30007
L81017 29992
L81002 30007
L81032 30007
" />
<path d="M81107 29857
L81317 29857
" />
<path d="M81137 29857
L81122 29842
L81107 29812
L81107 29767
L81122 29737
L81152 29722
L81317 29722
" />
</g><g class="stroked-text"><desc>GND</desc>
<path d="M80992 31214
L80977 31244
L80977 31289
L80992 31334
L81022 31364
L81052 31379
L81112 31394
L81157 31394
L81217 31379
L81247 31364
L81277 31334
L81292 31289
L81292 31259
L81277 31214
L81262 31199
L81157 31199
L81157 31259
" />
<path d="M81292 31064
L80977 31064
L81292 30885
L80977 30885
" />
<path d="M81292 30735
L80977 30735
L80977 30660
L80992 30615
L81022 30585
L81052 30570
L81112 30555
L81157 30555
L81217 30570
L81247 30585
L81277 30615
L81292 30660
L81292 30735
" />
</g><g class="stroked-text"><desc>RST</desc>
<path d="M81292 32122
L81142 32227
" />
<path d="M81292 32302
L80977 32302
L80977 32182
L80992 32152
L81007 32137
L81037 32122
L81082 32122
L81112 32137
L81127 32152
L81142 32182
L81142 32302
" />
<path d="M81277 32002
L81292 31957
L81292 31882
L81277 31852
L81262 31837
L81232 31822
L81202 31822
L81172 31837
L81157 31852
L81142 31882
L81127 31942
L81112 31972
L81097 31987
L81067 32002
L81037 32002
L81007 31987
L80992 31972
L80977 31942
L80977 31867
L80992 31822
" />
<path d="M80977 31732
L80977 31552
" />
<path d="M81292 31642
L80977 31642
" />
</g><g class="stroked-text"><desc>5V</desc>
<path d="M81002 32984
L81002 33134
L81152 33149
L81137 33134
L81122 33104
L81122 33029
L81137 32999
L81152 32984
L81182 32969
L81257 32969
L81287 32984
L81302 32999
L81317 33029
L81317 33104
L81302 33134
L81287 33149
" />
<path d="M81002 32880
L81317 32775
L81002 32670
" />
</g><g class="stroked-text"><desc>A7</desc>
<path d="M81271 34180
L81271 34030
" />
<path d="M81361 34210
L81046 34105
L81361 34000
" />
<path d="M81046 33926
L81046 33716
L81361 33851
" />
</g><g class="stroked-text"><desc>A6</desc>
<path d="M81253 35207
L81253 35057
" />
<path d="M81343 35237
L81028 35132
L81343 35027
" />
<path d="M81028 34788
L81028 34848
L81043 34878
L81058 34893
L81103 34923
L81163 34938
L81283 34938
L81313 34923
L81328 34908
L81343 34878
L81343 34818
L81328 34788
L81313 34773
L81283 34758
L81208 34758
L81178 34773
L81163 34788
L81148 34818
L81148 34878
L81163 34908
L81178 34923
L81208 34938
" />
</g><g class="stroked-text"><desc>A5</desc>
<path d="M81262 36208
L81262 36058
" />
<path d="M81352 36238
L81037 36133
L81352 36028
" />
<path d="M81037 35774
L81037 35924
L81187 35939
L81172 35924
L81157 35894
L81157 35819
L81172 35789
L81187 35774
L81217 35759
L81292 35759
L81322 35774
L81337 35789
L81352 35819
L81352 35894
L81337 35924
L81322 35939
" />
</g><g class="stroked-text"><desc>A4</desc>
<path d="M81279 37192
L81279 37042
" />
<path d="M81369 37222
L81054 37117
L81369 37012
" />
<path d="M81159 36773
L81369 36773
" />
<path d="M81039 36848
L81264 36923
L81264 36728
" />
</g><g class="stroked-text"><desc>A3</desc>
<path d="M81296 38219
L81296 38069
" />
<path d="M81386 38249
L81071 38144
L81386 38039
" />
<path d="M81071 37965
L81071 37770
L81191 37875
L81191 37830
L81206 37800
L81221 37785
L81251 37770
L81326 37770
L81356 37785
L81371 37800
L81386 37830
L81386 37920
L81371 37950
L81356 37965
" />
</g><g class="stroked-text"><desc>A2</desc>
<path d="M81288 39194
L81288 39044
" />
<path d="M81378 39224
L81063 39119
L81378 39014
" />
<path d="M81093 38925
L81078 38910
L81063 38880
L81063 38805
L81078 38775
L81093 38760
L81123 38745
L81153 38745
L81198 38760
L81378 38940
L81378 38745
" />
</g><g class="stroked-text"><desc>A1</desc>
<path d="M81296 40221
L81296 40071
" />
<path d="M81386 40251
L81071 40146
L81386 40041
" />
<path d="M81386 39772
L81386 39952
" />
<path d="M81386 39862
L81071 39862
L81116 39892
L81146 39922
L81161 39952
" />
</g><g class="stroked-text"><desc>A0</desc>
<path d="M81322 41213
L81322 41063
" />
<path d="M81412 41243
L81097 41138
L81412 41033
" />
<path d="M81097 40869
L81097 40839
L81112 40809
L81127 40794
L81157 40779
L81217 40764
L81292 40764
L81352 40779
L81382 40794
L81397 40809
L81412 40839
L81412 40869
L81397 40899
L81382 40914
L81352 40929
L81292 40944
L81217 40944
L81157 40929
L81127 40914
L81112 40899
L81097 40869
" />
</g><g class="stroked-text"><desc>AREF</desc>
<path d="M81313 42457
L81313 42307
" />
<path d="M81403 42487
L81088 42382
L81403 42277
" />
<path d="M81403 41992
L81253 42097
" />
<path d="M81403 42172
L81088 42172
L81088 42052
L81103 42022
L81118 42007
L81148 41992
L81193 41992
L81223 42007
L81238 42022
L81253 42052
L81253 42172
" />
<path d="M81238 41858
L81238 41753
" />
<path d="M81403 41708
L81403 41858
L81088 41858
L81088 41708
" />
<path d="M81238 41468
L81238 41573
" />
<path d="M81403 41573
L81088 41573
L81088 41423
" />
</g><g class="stroked-text"><desc>3V3</desc>
<path d="M81046 43415
L81046 43220
L81166 43325
L81166 43280
L81181 43250
L81196 43235
L81226 43220
L81301 43220
L81331 43235
L81346 43250
L81361 43280
L81361 43370
L81346 43400
L81331 43415
" />
<path d="M81046 43130
L81361 43026
L81046 42921
" />
<path d="M81046 42846
L81046 42651
L81166 42756
L81166 42711
L81181 42681
L81196 42666
L81226 42651
L81301 42651
L81331 42666
L81346 42681
L81361 42711
L81361 42801
L81346 42831
L81331 42846
" />
</g><g class="stroked-text"><desc>13</desc>
<path d="M81343 44060
L81343 44240
" />
<path d="M81343 44150
L81028 44150
L81073 44180
L81103 44210
L81118 44240
" />
<path d="M81028 43956
L81028 43761
L81148 43866
L81148 43821
L81163 43791
L81178 43776
L81208 43761
L81283 43761
L81313 43776
L81328 43791
L81343 43821
L81343 43911
L81328 43941
L81313 43956
" />
</g><g class="stroked-text"><desc>14</desc>
<path d="M81361 45061
L81361 45241
" />
<path d="M81361 45151
L81046 45151
L81091 45181
L81121 45211
L81136 45241
" />
<path d="M81151 44792
L81361 44792
" />
<path d="M81031 44867
L81256 44942
L81256 44747
" />
</g><g class="stroked-text"><desc>15</desc>
<path d="M81378 46097
L81378 46277
" />
<path d="M81378 46187
L81063 46187
L81108 46217
L81138 46247
L81153 46277
" />
<path d="M81063 45813
L81063 45963
L81213 45978
L81198 45963
L81183 45933
L81183 45858
L81198 45828
L81213 45813
L81243 45798
L81318 45798
L81348 45813
L81363 45828
L81378 45858
L81378 45933
L81363 45963
L81348 45978
" />
</g><g class="stroked-text"><desc>16</desc>
<path d="M81326 47055
L81326 47235
" />
<path d="M81326 47145
L81011 47145
L81056 47175
L81086 47205
L81101 47235
" />
<path d="M81011 46786
L81011 46846
L81026 46876
L81041 46891
L81086 46921
L81146 46936
L81266 46936
L81296 46921
L81311 46906
L81326 46876
L81326 46816
L81311 46786
L81296 46771
L81266 46756
L81191 46756
L81161 46771
L81146 46786
L81131 46816
L81131 46876
L81146 46906
L81161 46921
L81191 46936
" />
</g><g class="stroked-text"><desc>17</desc>
<path d="M81326 48056
L81326 48236
" />
<path d="M81326 48146
L81011 48146
L81056 48176
L81086 48206
L81101 48236
" />
<path d="M81011 47952
L81011 47742
L81326 47877
" />
</g><g class="stroked-text"><desc>20</desc>
<path d="M81058 49254
L81043 49239
L81028 49209
L81028 49134
L81043 49104
L81058 49089
L81088 49074
L81118 49074
L81163 49089
L81343 49269
L81343 49074
" />
<path d="M81028 48880
L81028 48850
L81043 48820
L81058 48805
L81088 48790
L81148 48775
L81223 48775
L81283 48790
L81313 48805
L81328 48820
L81343 48850
L81343 48880
L81328 48910
L81313 48925
L81283 48940
L81223 48955
L81148 48955
L81088 48940
L81058 48925
L81043 48910
L81028 48880
" />
</g><g class="stroked-text"><desc>21</desc>
<path d="M74649 49226
L74634 49211
L74619 49181
L74619 49106
L74634 49076
L74649 49061
L74679 49046
L74709 49046
L74754 49061
L74934 49241
L74934 49046
" />
<path d="M74934 48747
L74934 48927
" />
<path d="M74934 48837
L74619 48837
L74664 48867
L74694 48897
L74709 48927
" />
</g><g class="stroked-text"><desc>22</desc>
<path d="M74641 48219
L74626 48204
L74611 48174
L74611 48099
L74626 48069
L74641 48054
L74671 48039
L74701 48039
L74746 48054
L74926 48234
L74926 48039
" />
<path d="M74641 47920
L74626 47905
L74611 47875
L74611 47800
L74626 47770
L74641 47755
L74671 47740
L74701 47740
L74746 47755
L74926 47935
L74926 47740
" />
</g><g class="stroked-text"><desc>23</desc>
<path d="M74641 47226
L74626 47211
L74611 47181
L74611 47106
L74626 47076
L74641 47061
L74671 47046
L74701 47046
L74746 47061
L74926 47241
L74926 47046
" />
<path d="M74611 46942
L74611 46747
L74731 46852
L74731 46807
L74746 46777
L74761 46762
L74791 46747
L74866 46747
L74896 46762
L74911 46777
L74926 46807
L74926 46897
L74911 46927
L74896 46942
" />
</g><g class="stroked-text"><desc>24</desc>
<path d="M74641 46242
L74626 46227
L74611 46197
L74611 46122
L74626 46092
L74641 46077
L74671 46062
L74701 46062
L74746 46077
L74926 46257
L74926 46062
" />
<path d="M74716 45793
L74926 45793
" />
<path d="M74596 45868
L74821 45943
L74821 45748
" />
</g><g class="stroked-text"><desc>25</desc>
<path d="M74684 45241
L74669 45226
L74654 45196
L74654 45121
L74669 45091
L74684 45076
L74714 45061
L74744 45061
L74789 45076
L74969 45256
L74969 45061
" />
<path d="M74654 44777
L74654 44927
L74804 44942
L74789 44927
L74774 44897
L74774 44822
L74789 44792
L74804 44777
L74834 44762
L74909 44762
L74939 44777
L74954 44792
L74969 44822
L74969 44897
L74954 44927
L74939 44942
" />
</g><g class="stroked-text"><desc>12</desc>
<path d="M74952 44077
L74952 44257
" />
<path d="M74952 44167
L74637 44167
L74682 44197
L74712 44227
L74727 44257
" />
<path d="M74667 43958
L74652 43943
L74637 43913
L74637 43838
L74652 43808
L74667 43793
L74697 43778
L74727 43778
L74772 43793
L74952 43973
L74952 43778
" />
</g><g class="stroked-text"><desc>11</desc>
<path d="M74918 43059
L74918 43239
" />
<path d="M74918 43149
L74603 43149
L74648 43179
L74678 43209
L74693 43239
" />
<path d="M74918 42760
L74918 42940
" />
<path d="M74918 42850
L74603 42850
L74648 42880
L74678 42910
L74693 42940
" />
</g><g class="stroked-text"><desc>10</desc>
<path d="M74942 42084
L74942 42264
" />
<path d="M74942 42174
L74627 42174
L74672 42204
L74702 42234
L74717 42264
" />
<path d="M74627 41890
L74627 41860
L74642 41830
L74657 41815
L74687 41800
L74747 41785
L74822 41785
L74882 41800
L74912 41815
L74927 41830
L74942 41860
L74942 41890
L74927 41920
L74912 41935
L74882 41950
L74822 41965
L74747 41965
L74687 41950
L74657 41935
L74642 41920
L74627 41890
" />
</g><g class="stroked-text"><desc>9</desc>
<path d="M74986 41066
L74986 41007
L74971 40977
L74956 40962
L74911 40932
L74851 40917
L74731 40917
L74701 40932
L74686 40947
L74671 40977
L74671 41036
L74686 41066
L74701 41081
L74731 41096
L74806 41096
L74836 41081
L74851 41066
L74866 41036
L74866 40977
L74851 40947
L74836 40932
L74806 40917
" />
</g><g class="stroked-text"><desc>8</desc>
<path d="M74798 40043
L74783 40073
L74768 40088
L74738 40103
L74723 40103
L74693 40088
L74678 40073
L74663 40043
L74663 39984
L74678 39954
L74693 39939
L74723 39924
L74738 39924
L74768 39939
L74783 39954
L74798 39984
L74798 40043
L74813 40073
L74828 40088
L74858 40103
L74918 40103
L74948 40088
L74963 40073
L74978 40043
L74978 39984
L74963 39954
L74948 39939
L74918 39924
L74858 39924
L74828 39939
L74813 39954
L74798 39984
" />
</g><g class="stroked-text"><desc>7</desc>
<path d="M74680 39091
L74680 38882
L74995 39016
" />
</g><g class="stroked-text"><desc>6</desc>
<path d="M74688 37952
L74688 38012
L74703 38041
L74718 38056
L74763 38086
L74823 38101
L74943 38101
L74973 38086
L74988 38071
L75003 38041
L75003 37982
L74988 37952
L74973 37937
L74943 37922
L74868 37922
L74838 37937
L74823 37952
L74808 37982
L74808 38041
L74823 38071
L74838 38086
L74868 38101
" />
</g><g class="stroked-text"><desc>5</desc>
<path d="M74697 36944
L74697 37093
L74847 37108
L74832 37093
L74817 37063
L74817 36989
L74832 36959
L74847 36944
L74877 36929
L74952 36929
L74982 36944
L74997 36959
L75012 36989
L75012 37063
L74997 37093
L74982 37108
" />
</g><g class="stroked-text"><desc>4</desc>
<path d="M74802 35881
L75012 35881
" />
<path d="M74682 35955
L74907 36030
L74907 35836
" />
</g><g class="stroked-text"><desc>3</desc>
<path d="M74705 35130
L74705 34936
L74825 35040
L74825 34996
L74840 34966
L74855 34951
L74885 34936
L74960 34936
L74990 34951
L75005 34966
L75020 34996
L75020 35085
L75005 35115
L74990 35130
" />
</g><g class="stroked-text"><desc>2</desc>
<path d="M74701 34114
L74686 34099
L74671 34069
L74671 33995
L74686 33965
L74701 33950
L74731 33935
L74761 33935
L74806 33950
L74986 34129
L74986 33935
" />
</g><g class="stroked-text"><desc>GND</desc>
<path d="M74652 33254
L74637 33284
L74637 33329
L74652 33374
L74682 33404
L74712 33419
L74772 33434
L74817 33434
L74877 33419
L74907 33404
L74937 33374
L74952 33329
L74952 33299
L74937 33254
L74922 33239
L74817 33239
L74817 33299
" />
<path d="M74952 33104
L74637 33104
L74952 32925
L74637 32925
" />
<path d="M74952 32775
L74637 32775
L74637 32700
L74652 32655
L74682 32625
L74712 32610
L74772 32595
L74817 32595
L74877 32610
L74907 32625
L74937 32655
L74952 32700
L74952 32775
" />
</g><g class="stroked-text"><desc>RST</desc>
<path d="M74969 32160
L74819 32265
" />
<path d="M74969 32340
L74654 32340
L74654 32220
L74669 32190
L74684 32175
L74714 32160
L74759 32160
L74789 32175
L74804 32190
L74819 32220
L74819 32340
" />
<path d="M74954 32040
L74969 31995
L74969 31920
L74954 31890
L74939 31875
L74909 31860
L74879 31860
L74849 31875
L74834 31890
L74819 31920
L74804 31980
L74789 32010
L74774 32025
L74744 32040
L74714 32040
L74684 32025
L74669 32010
L74654 31980
L74654 31905
L74669 31860
" />
<path d="M74654 31770
L74654 31590
" />
<path d="M74969 31680
L74654 31680
" />
</g></g>
<g style="fill:#000000; fill-opacity:0.0; 
stroke:#000000; stroke-width:59.0551; stroke-opacity:1; 
stroke-linecap:round; stroke-linejoin:round;">
<g class="stroked-text"><desc>reset</desc>
<path d="M79452 37498
L79452 37235
" />
<path d="M79452 37310
L79471 37273
L79490 37254
L79527 37235
L79565 37235
" />
<path d="M79846 37479
L79808 37498
L79733 37498
L79696 37479
L79677 37441
L79677 37291
L79696 37254
L79733 37235
L79808 37235
L79846 37254
L79865 37291
L79865 37329
L79677 37366
" />
<path d="M80015 37479
L80052 37498
L80127 37498
L80164 37479
L80183 37441
L80183 37423
L80164 37385
L80127 37366
L80071 37366
L80033 37348
L80015 37310
L80015 37291
L80033 37254
L80071 37235
L80127 37235
L80164 37254
" />
<path d="M80502 37479
L80464 37498
L80389 37498
L80352 37479
L80333 37441
L80333 37291
L80352 37254
L80389 37235
L80464 37235
L80502 37254
L80521 37291
L80521 37329
L80333 37366
" />
<path d="M80633 37235
L80783 37235
" />
<path d="M80689 37104
L80689 37441
L80708 37479
L80746 37498
L80783 37498
" />
</g></g>
<g style="fill:#000000; fill-opacity:0.0; 
stroke:#000000; stroke-width:39.3701; stroke-opacity:1; 
stroke-linecap:round; stroke-linejoin:round;">
<g class="stroked-text"><desc>RX0</desc>
<path d="M74986 31181
L74836 31286
" />
<path d="M74986 31361
L74671 31361
L74671 31241
L74686 31211
L74701 31196
L74731 31181
L74776 31181
L74806 31196
L74821 31211
L74836 31241
L74836 31361
" />
<path d="M74671 31076
L74986 30866
" />
<path d="M74671 30866
L74986 31076
" />
<path d="M74671 30686
L74671 30656
L74686 30626
L74701 30611
L74731 30596
L74791 30581
L74866 30581
L74926 30596
L74956 30611
L74971 30626
L74986 30656
L74986 30686
L74971 30716
L74956 30731
L74926 30746
L74866 30761
L74791 30761
L74731 30746
L74701 30731
L74686 30716
L74671 30686
" />
</g><g class="stroked-text"><desc>TX1</desc>
<path d="M74731 30367
L74731 30187
" />
<path d="M75046 30277
L74731 30277
" />
<path d="M74731 30112
L75046 29903
" />
<path d="M74731 29903
L75046 30112
" />
<path d="M75046 29618
L75046 29798
" />
<path d="M75046 29708
L74731 29708
L74776 29738
L74806 29768
L74821 29798
" />
</g></g>
<g style="fill:#000000; fill-opacity:0.0; 
stroke:#000000; stroke-width:196.85; stroke-opacity:1; 
stroke-linecap:round; stroke-linejoin:round;">
<path d="M82800 53700
L73200 53700
" />
</g>
<g style="fill:#000000; fill-opacity:0.0; 
stroke:#000000; stroke-width:59.0551; stroke-opacity:1; 
stroke-linecap:round; stroke-linejoin:round;">
<path d="M76016 31424
L76016 32841
" />
<path d="M76843 31424
L76843 32841
" />
<path d="M76548 32231
L76311 32231
" />
<path d="M76311 32231
L76430 32113
" />
<path d="M76430 32113
L76508 32192
" />
<path d="M76508 32192
L76410 32192
" />
<path d="M76410 32192
L76430 32172
" />
<path d="M76626 32074
L76233 32074
" />
<path d="M76430 32271
L76430 32467
" />
<path d="M76430 32074
L76626 32271
" />
<path d="M76626 32271
L76233 32271
" />
<path d="M76233 32271
L76430 32074
" />
<path d="M78500 28500
L76500 28500
" />
<path d="M79610 28389
L79610 29000
" />
<path d="M79500 29500
L78500 29500
" />
<path d="M78500 29500
L78500 28500
" />
<path d="M76500 28500
L76500 30500
" />
<path d="M76500 30500
L78500 30500
" />
<path d="M79610 28389
L79000 28389
" />
<path d="M79500 30500
L79500 29500
" />
<path d="M78500 30500
L79500 30500
" />
<path d="M78463 35261
L78463 34788
" />
<path d="M79152 34788
L79152 35261
" />
<path d="M79969 34787
L79969 35260
" />
<path d="M79280 35260
L79280 34787
" />
<path d="M76015 35261
L76015 34788
" />
<path d="M76704 34788
L76704 35261
" />
<path d="M79328 37367
L79328 36225
" />
<path d="M76898 36225
L76898 37387
" />
<path d="M78960 37096
L77260 37096
" />
<path d="M77260 37096
L77260 36496
" />
<path d="M77260 36496
L78960 36496
" />
<path d="M78960 36496
L78960 37096
" />
<path d="M76898.9 37387.2 A137.795 137.795 0.0 0 0 77036.7 37525 " />
<path d="M79151.8 37525 A177.165 177.165 0.0 0 0 79328.8 37356.7 " />
<path d="M79329 36225.8 A157.48 157.48 0.0 0 0 79171.5 36068.3 " />
<path d="M77056.4 36068.3 A157.48 157.48 0.0 0 0 76898.9 36225.8 " />
<path d="M79151 37525
L77036 37525
" />
<path d="M79171 36068
L77056 36068
" />
<path d="M78000 38518
L77812 38706
" />
<path d="M80881 41400
L80693 41587
" />
<path d="M78000 44281
L78187 44093
" />
<path d="M75118 41400
L75306 41212
" />
<path d="M78000 38518
L78187 38706
" />
<path d="M75118 41400
L75306 41587
" />
<path d="M78000 44281
L77812 44093
" />
<path d="M80881 41400
L80693 41212
" />
<path d="M77812 38706
L77457 38351
" />
<path d="M79608 45270
L76222 45270
" />
<path d="M76222 45270
L76222 46530
" />
<path d="M76222 46530
L79608 46530
" />
<path d="M79608 46235
L79608 46530
" />
<path d="M79608 45546
L79608 45270
" />
<path d="M79608 46018
L79726 46057
" />
<path d="M79608 45782
L79726 45743
" />
<path d="M79608 45546
L79608 46254
" />
<path d="M73389 29389
L74610 29389
" />
<path d="M73389 30000
L73389 29389
" />
<path d="M74500 30500
L73500 30500
" />
<path d="M74610 29389
L74610 30000
" />
<path d="M74500 52500
L74500 30500
" />
<path d="M73500 52500
L74500 52500
" />
<path d="M73500 30500
L73500 52500
" />
<path d="M81500 30500
L81500 52500
" />
<path d="M81500 52500
L82500 52500
" />
<path d="M82500 52500
L82500 30500
" />
<path d="M82610 29389
L82610 30000
" />
<path d="M82500 30500
L81500 30500
" />
<path d="M81389 30000
L81389 29389
" />
<path d="M81389 29389
L82610 29389
" />
<path d="M78141 49845
L80189 49845
" />
<path d="M80189 48901
L78141 48901
" />
<path d="M77748 48468
L77748 48901
" />
<path d="M77512 48665
L77984 48665
" />
<path d="M77946 48901
L77946 49845
" />
<path d="M79296 50065
L78903 50065
" />
<path d="M78903 50734
L79296 50734
" />
<path d="M79156 31423
L79156 32840
" />
<path d="M79983 31423
L79983 32840
" />
<path d="M79688 32230
L79451 32230
" />
<path d="M79451 32230
L79570 32112
" />
<path d="M79570 32112
L79648 32191
" />
<path d="M79648 32191
L79550 32191
" />
<path d="M79550 32191
L79570 32171
" />
<path d="M79766 32073
L79373 32073
" />
<path d="M79570 32270
L79570 32466
" />
<path d="M79570 32073
L79766 32270
" />
<path d="M79766 32270
L79373 32270
" />
<path d="M79373 32270
L79570 32073
" />
<path d="M77673 32267
L77477 32463
" />
<path d="M77280 32267
L77673 32267
" />
<path d="M77477 32463
L77280 32267
" />
<path d="M77477 32267
L77477 32070
" />
<path d="M77280 32463
L77673 32463
" />
<path d="M77496 32345
L77477 32365
" />
<path d="M77398 32345
L77496 32345
" />
<path d="M77477 32424
L77398 32345
" />
<path d="M77595 32306
L77477 32424
" />
<path d="M77358 32306
L77595 32306
" />
<path d="M77063 33113
L77063 31696
" />
<path d="M77890 33113
L77890 31696
" />
<path d="M78936 33113
L78936 31696
" />
<path d="M78109 33113
L78109 31696
" />
<path d="M78404 32306
L78641 32306
" />
<path d="M78641 32306
L78523 32424
" />
<path d="M78523 32424
L78444 32345
" />
<path d="M78444 32345
L78542 32345
" />
<path d="M78542 32345
L78523 32365
" />
<path d="M78326 32463
L78719 32463
" />
<path d="M78523 32267
L78523 32070
" />
<path d="M78523 32463
L78326 32267
" />
<path d="M78326 32267
L78719 32267
" />
<path d="M78719 32267
L78523 32463
" />
</g>
<g style="fill:#000000; fill-opacity:0.0; 
stroke:#000000; stroke-width:47.2441; stroke-opacity:1; 
stroke-linecap:round; stroke-linejoin:round;">
<path d="M76116 49954
L76903 49954
" />
<path d="M76903 50797
L76116 50797
" />
</g>
<g style="fill:#000000; fill-opacity:0.0; 
stroke:#000000; stroke-width:59.0551; stroke-opacity:1; 
stroke-linecap:round; stroke-linejoin:round;">
<path d="M80129 51982
L80129 52396
" />
<path d="M80759 52416
L80759 52002
" />
<path d="M77514 34788
L77514 35261
" />
<path d="M76825 35261
L76825 34788
" />
<path d="M77649 35261
L77649 34788
" />
<path d="M78338 34788
L78338 35261
" />
<path d="M76429 49085
L76902 49085
" />
<path d="M76902 49774
L76429 49774
" />
<path d="M75804 38857
L76750 37911
" />
<path d="M76750 37911
L76333 37493
" />
<path d="M76333 37493
L75386 38439
" />
<path d="M75386 38439
L75804 38857
" />
<path d="M76347 53582
L79772 53582
" />
<path d="M76347 51061
L79772 51061
" />
<path d="M79772 51061
L79772 53582
" />
<path d="M79772 53098
L76347 53098
" />
<path d="M76347 53582
L76347 51061
" />
<g >
</g>
<g >
</g>
<g >
</g>
<g >
</g>
<g >
</g>
<g >
</g>
<g >
</g>
<g >
</g>
<g >
</g>
<g >
</g>
<g >
</g>
<g >
</g>
<g >
</g>
<g >
</g>
<g >
</g>
<g >
</g>
<g >
</g>
<g >
</g>
<g >
</g>
<g >
</g>
<g >
</g>
<g >
</g>
<g >
</g>
<g >
</g>
<g >
</g>
<g >
</g>
<g >
</g>
<g >
</g>
<g >
</g>
<g >
</g>
<g >
</g>
<g >
</g>
<g >
</g>
<g >
</g>
<g >
</g>
<g >
</g>
<g >
</g>
<g >
</g>
<g >
</g>
<g >
</g>
<g >
</g>
<g >
</g>
<g >
</g>
<g >
</g>
<g >
</g>
<g >
</g>
<g >
</g>
<g >
</g>
<g >
</g>
<g >
</g>
<g >
</g>
</g>
<g style="fill:#000000; fill-opacity:0.0; 
stroke:#000000; stroke-width:59.0551; stroke-opacity:1; 
stroke-linecap:round; stroke-linejoin:round;">
<g class="stroked-text"><desc>P3</desc>
<path d="M73709 28378
L73709 27984
L73859 27984
L73896 28003
L73915 28021
L73934 28059
L73934 28115
L73915 28153
L73896 28171
L73859 28190
L73709 28190
" />
<path d="M74065 27984
L74309 27984
L74178 28134
L74234 28134
L74271 28153
L74290 28171
L74309 28209
L74309 28303
L74290 28340
L74271 28359
L74234 28378
L74121 28378
L74084 28359
L74065 28340
" />
</g><g class="stroked-text"><desc>P4</desc>
<path d="M73709 52378
L73709 51984
L73859 51984
L73896 52003
L73915 52021
L73934 52059
L73934 52115
L73915 52153
L73896 52171
L73859 52190
L73709 52190
" />
<path d="M74271 52115
L74271 52378
" />
<path d="M74178 51965
L74084 52246
L74328 52246
" />
</g><g class="stroked-text"><desc>P5</desc>
<path d="M81709 52378
L81709 51984
L81859 51984
L81896 52003
L81915 52021
L81934 52059
L81934 52115
L81915 52153
L81896 52171
L81859 52190
L81709 52190
" />
<path d="M82290 51984
L82103 51984
L82084 52171
L82103 52153
L82140 52134
L82234 52134
L82271 52153
L82290 52171
L82309 52209
L82309 52303
L82290 52340
L82271 52359
L82234 52378
L82140 52378
L82103 52359
L82084 52340
" />
</g><g class="stroked-text"><desc>P6</desc>
<path d="M81709 28378
L81709 27984
L81859 27984
L81896 28003
L81915 28021
L81934 28059
L81934 28115
L81915 28153
L81896 28171
L81859 28190
L81709 28190
" />
<path d="M82271 27984
L82196 27984
L82159 28003
L82140 28021
L82103 28078
L82084 28153
L82084 28303
L82103 28340
L82121 28359
L82159 28378
L82234 28378
L82271 28359
L82290 28340
L82309 28303
L82309 28209
L82290 28171
L82271 28153
L82234 28134
L82159 28134
L82121 28153
L82103 28171
L82084 28209
" />
</g></g>
<g style="fill:#000000; fill-opacity:0.0; 
stroke:#000000; stroke-width:39.3701; stroke-opacity:1; 
stroke-linecap:round; stroke-linejoin:round;">
<g class="stroked-text"><desc>D2</desc>
<path d="M75997 31229
L75997 30914
L76072 30914
L76117 30929
L76147 30959
L76162 30989
L76177 31049
L76177 31094
L76162 31154
L76147 31184
L76117 31214
L76072 31229
L75997 31229
" />
<path d="M76297 30944
L76312 30929
L76342 30914
L76417 30914
L76447 30929
L76462 30944
L76477 30974
L76477 31004
L76462 31049
L76282 31229
L76477 31229
" />
</g></g>
<g style="fill:#000000; fill-opacity:0.0; 
stroke:#000000; stroke-width:59.0551; stroke-opacity:1; 
stroke-linecap:round; stroke-linejoin:round;">
<g class="stroked-text"><desc>P7</desc>
<path d="M81185 29290
L80792 29290
L80792 29140
L80811 29103
L80829 29084
L80867 29065
L80923 29065
L80961 29084
L80979 29103
L80998 29140
L80998 29290
" />
<path d="M80792 28934
L80792 28671
L81185 28840
" />
</g></g>
<g style="fill:#000000; fill-opacity:0.0; 
stroke:#000000; stroke-width:39.3701; stroke-opacity:1; 
stroke-linecap:round; stroke-linejoin:round;">
<g class="stroked-text"><desc>R3</desc>
<path d="M78757 35189
L78652 35040
" />
<path d="M78577 35189
L78577 34875
L78697 34875
L78727 34890
L78742 34905
L78757 34935
L78757 34980
L78742 35010
L78727 35025
L78697 35040
L78577 35040
" />
<path d="M78862 34875
L79057 34875
L78952 34995
L78997 34995
L79027 35010
L79042 35025
L79057 35055
L79057 35129
L79042 35159
L79027 35174
L78997 35189
L78907 35189
L78877 35174
L78862 35159
" />
</g><g class="stroked-text"><desc>R4</desc>
<path d="M79584 35186
L79479 35036
" />
<path d="M79404 35186
L79404 34871
L79524 34871
L79554 34886
L79569 34901
L79584 34931
L79584 34976
L79569 35006
L79554 35021
L79524 35036
L79404 35036
" />
<path d="M79854 34976
L79854 35186
" />
<path d="M79779 34856
L79704 35081
L79899 35081
" />
</g><g class="stroked-text"><desc>R5</desc>
<path d="M76287 35207
L76182 35057
" />
<path d="M76107 35207
L76107 34892
L76227 34892
L76257 34907
L76272 34922
L76287 34952
L76287 34997
L76272 35027
L76257 35042
L76227 35057
L76107 35057
" />
<path d="M76572 34892
L76422 34892
L76407 35042
L76422 35027
L76452 35012
L76527 35012
L76557 35027
L76572 35042
L76587 35072
L76587 35147
L76572 35177
L76557 35192
L76527 35207
L76452 35207
L76422 35192
L76407 35177
" />
</g></g>
<g style="fill:#000000; fill-opacity:0.0; 
stroke:#000000; stroke-width:59.0551; stroke-opacity:1; 
stroke-linecap:round; stroke-linejoin:round;">
<g class="stroked-text"><desc>SW1</desc>
<path d="M77913 34731
L77970 34750
L78063 34750
L78101 34731
L78120 34712
L78138 34675
L78138 34637
L78120 34600
L78101 34581
L78063 34562
L77988 34544
L77951 34525
L77932 34506
L77913 34469
L77913 34431
L77932 34394
L77951 34375
L77988 34356
L78082 34356
L78138 34375
" />
<path d="M78270 34356
L78363 34750
L78438 34469
L78513 34750
L78607 34356
" />
<path d="M78963 34750
L78738 34750
" />
<path d="M78851 34750
L78851 34356
L78813 34412
L78776 34450
L78738 34469
" />
</g><g class="stroked-text"><desc>U1</desc>
<path d="M78040 41085
L77814 41310
L77801 41350
L77801 41377
L77814 41416
L77868 41469
L77907 41483
L77934 41483
L77974 41469
L78199 41244
" />
<path d="M78199 41801
L78040 41642
" />
<path d="M78119 41721
L78398 41443
L78331 41456
L78278 41456
L78239 41443
" />
</g><g class="stroked-text"><desc>X1</desc>
<path d="M78984 46218
L79378 45956
" />
<path d="M78984 45956
L79378 46218
" />
<path d="M79378 45600
L79378 45825
" />
<path d="M79378 45712
L78984 45712
L79040 45750
L79078 45787
L79096 45825
" />
</g><g class="stroked-text"><desc>P1</desc>
<path d="M73709 28170
L73709 27776
L73859 27776
L73896 27795
L73915 27814
L73934 27851
L73934 27907
L73915 27945
L73896 27964
L73859 27982
L73709 27982
" />
<path d="M74309 28170
L74084 28170
" />
<path d="M74196 28170
L74196 27776
L74159 27832
L74121 27870
L74084 27889
" />
</g><g class="stroked-text"><desc>P2</desc>
<path d="M81709 28170
L81709 27776
L81859 27776
L81896 27795
L81915 27814
L81934 27851
L81934 27907
L81915 27945
L81896 27964
L81859 27982
L81709 27982
" />
<path d="M82084 27814
L82103 27795
L82140 27776
L82234 27776
L82271 27795
L82290 27814
L82309 27851
L82309 27889
L82290 27945
L82065 28170
L82309 28170
" />
</g><g class="stroked-text"><desc>C3</desc>
<path d="M80658 49472
L80677 49491
L80696 49547
L80696 49585
L80677 49641
L80639 49678
L80602 49697
L80527 49716
L80471 49716
L80396 49697
L80358 49678
L80321 49641
L80302 49585
L80302 49547
L80321 49491
L80339 49472
" />
<path d="M80302 49341
L80302 49097
L80452 49228
L80452 49172
L80471 49135
L80489 49116
L80527 49097
L80621 49097
L80658 49116
L80677 49135
L80696 49172
L80696 49285
L80677 49322
L80658 49341
" />
</g><g class="stroked-text"><desc>+</desc>
<path d="M77581 48671
L77880 48671
" />
<path d="M77731 48821
L77731 48521
" />
</g><g class="stroked-text"><desc>C4</desc>
<path d="M80469 50450
L80488 50469
L80507 50525
L80507 50563
L80488 50619
L80450 50656
L80413 50675
L80338 50694
L80282 50694
L80207 50675
L80169 50656
L80132 50619
L80113 50563
L80113 50525
L80132 50469
L80150 50450
" />
<path d="M80244 50113
L80507 50113
" />
<path d="M80094 50206
L80375 50300
L80375 50056
" />
</g><g class="stroked-text"><desc>D1</desc>
<path d="M79289 31187
L79289 30793
L79383 30793
L79439 30812
L79476 30849
L79495 30887
L79514 30962
L79514 31018
L79495 31093
L79476 31130
L79439 31168
L79383 31187
L79289 31187
" />
<path d="M79889 31187
L79664 31187
" />
<path d="M79776 31187
L79776 30793
L79739 30849
L79701 30887
L79664 30905
" />
</g></g>
<g style="fill:#000000; fill-opacity:0.0; 
stroke:#000000; stroke-width:39.3701; stroke-opacity:1; 
stroke-linecap:round; stroke-linejoin:round;">
<g class="stroked-text"><desc>D3</desc>
<path d="M77044 33568
L77044 33253
L77119 33253
L77164 33268
L77194 33298
L77209 33328
L77224 33388
L77224 33433
L77209 33493
L77194 33523
L77164 33553
L77119 33568
L77044 33568
" />
<path d="M77329 33253
L77524 33253
L77419 33373
L77464 33373
L77494 33388
L77509 33403
L77524 33433
L77524 33508
L77509 33538
L77494 33553
L77464 33568
L77374 33568
L77344 33553
L77329 33538
" />
</g><g class="stroked-text"><desc>D4</desc>
<path d="M78470 33629
L78470 33314
L78545 33314
L78590 33329
L78620 33359
L78635 33389
L78650 33449
L78650 33494
L78635 33554
L78620 33584
L78590 33614
L78545 33629
L78470 33629
" />
<path d="M78920 33419
L78920 33629
" />
<path d="M78845 33299
L78770 33524
L78965 33524
" />
</g></g>
<g style="fill:#000000; fill-opacity:0.0; 
stroke:#000000; stroke-width:59.0551; stroke-opacity:1; 
stroke-linecap:round; stroke-linejoin:round;">
<g class="stroked-text"><desc>F1</desc>
<path d="M76338 50367
L76207 50367
" />
<path d="M76207 50574
L76207 50180
L76395 50180
" />
<path d="M76751 50574
L76526 50574
" />
<path d="M76638 50574
L76638 50180
L76601 50236
L76563 50274
L76526 50292
" />
</g><g class="stroked-text"><desc>L1</desc>
<path d="M80617 52279
L80617 52467
L80223 52467
" />
<path d="M80617 51942
L80617 52167
" />
<path d="M80617 52054
L80223 52054
L80279 52092
L80317 52129
L80335 52167
" />
</g></g>
<g style="fill:#000000; fill-opacity:0.0; 
stroke:#000000; stroke-width:39.3701; stroke-opacity:1; 
stroke-linecap:round; stroke-linejoin:round;">
<g class="stroked-text"><desc>R6</desc>
<path d="M77120 35185
L77015 35035
" />
<path d="M76940 35185
L76940 34870
L77060 34870
L77090 34885
L77105 34900
L77120 34930
L77120 34975
L77105 35005
L77090 35020
L77060 35035
L76940 35035
" />
<path d="M77390 34870
L77330 34870
L77300 34885
L77285 34900
L77255 34945
L77240 35005
L77240 35125
L77255 35155
L77270 35170
L77300 35185
L77360 35185
L77390 35170
L77405 35155
L77420 35125
L77420 35050
L77405 35020
L77390 35005
L77360 34990
L77300 34990
L77270 35005
L77255 35020
L77240 35050
" />
</g><g class="stroked-text"><desc>R7</desc>
<path d="M77948 35195
L77843 35045
" />
<path d="M77768 35195
L77768 34880
L77888 34880
L77918 34895
L77933 34910
L77948 34940
L77948 34985
L77933 35015
L77918 35030
L77888 35045
L77768 35045
" />
<path d="M78053 34880
L78263 34880
L78128 35195
" />
</g></g>
<g style="fill:#000000; fill-opacity:0.0; 
stroke:#000000; stroke-width:59.0551; stroke-opacity:1; 
stroke-linecap:round; stroke-linejoin:round;">
<g class="stroked-text"><desc>R9</desc>
<path d="M75656 49511
L75468 49642
" />
<path d="M75656 49736
L75262 49736
L75262 49586
L75281 49549
L75299 49530
L75337 49511
L75393 49511
L75431 49530
L75449 49549
L75468 49586
L75468 49736
" />
<path d="M75656 49324
L75656 49249
L75637 49211
L75618 49192
L75562 49155
L75487 49136
L75337 49136
L75299 49155
L75281 49174
L75262 49211
L75262 49286
L75281 49324
L75299 49342
L75337 49361
L75431 49361
L75468 49342
L75487 49324
L75506 49286
L75506 49211
L75487 49174
L75468 49155
L75431 49136
" />
</g><g class="stroked-text"><desc>Y1</desc>
<path d="M76344 38707
L76450 38813
" />
<path d="M76153 38665
L76344 38707
L76301 38516
" />
<path d="M76715 38548
L76588 38675
" />
<path d="M76651 38612
L76428 38389
L76439 38442
L76439 38485
L76428 38516
" />
</g><g class="stroked-text"><desc>J1</desc>
<path d="M76583 51712
L76583 51993
L76565 52049
L76527 52087
L76471 52106
L76433 52106
" />
<path d="M76977 52106
L76752 52106
" />
<path d="M76864 52106
L76864 51712
L76827 51768
L76789 51806
L76752 51824
" />
</g><g >
</g>
</g> 
</svg>
