<?xml version="1.0" standalone="no"?>
 <!DOCTYPE svg PUBLIC "-//W3C//DTD SVG 1.1//EN" 
 "http://www.w3.org/Graphics/SVG/1.1/DTD/svg11.dtd"> 
<svg xmlns="http://www.w3.org/2000/svg" version="1.1" 
    width="29.7002cm" height="21.0007cm" viewBox="0 0 116930 82680 ">
<title>SVG Picture created as arduino_nano324-B_SilkS.svg date 2019/08/21 17:55:37 </title>
  <desc>Picture generated by PCBNEW </desc>
<g style="fill:#000000; fill-opacity:1;stroke:#000000; stroke-opacity:1;
stroke-linecap:round; stroke-linejoin:round; "
 transform="translate(0 0) scale(1 1)">
</g>
<g style="fill:#000000; fill-opacity:0.0; 
stroke:#000000; stroke-width:-0.000393701; stroke-opacity:1; 
stroke-linecap:round; stroke-linejoin:round;">
</g>
<g style="fill:#000000; fill-opacity:0.0; 
stroke:#000000; stroke-width:196.85; stroke-opacity:1; 
stroke-linecap:round; stroke-linejoin:round;">
<path d="M82801 28300
L82800 53700
" />
<path d="M73200 53700
L73200 28300
" />
</g>
<g style="fill:#000000; fill-opacity:0.0; 
stroke:#000000; stroke-width:39.3701; stroke-opacity:1; 
stroke-linecap:round; stroke-linejoin:round;">
<g class="stroked-text"><desc>IO: 3V3|5V</desc>
<path d="M81042 42377
L81042 42062
" />
<path d="M80832 42062
L80772 42062
L80742 42077
L80712 42107
L80697 42167
L80697 42272
L80712 42332
L80742 42362
L80772 42377
L80832 42377
L80862 42362
L80892 42332
L80907 42272
L80907 42167
L80892 42107
L80862 42077
L80832 42062
" />
<path d="M80562 42347
L80547 42362
L80562 42377
L80577 42362
L80562 42347
L80562 42377
" />
<path d="M80562 42182
L80547 42197
L80562 42212
L80577 42197
L80562 42182
L80562 42212
" />
<path d="M80202 42062
L80007 42062
L80112 42182
L80067 42182
L80037 42197
L80022 42212
L80007 42242
L80007 42317
L80022 42347
L80037 42362
L80067 42377
L80157 42377
L80187 42362
L80202 42347
" />
<path d="M79917 42062
L79813 42377
L79708 42062
" />
<path d="M79633 42062
L79438 42062
L79543 42182
L79498 42182
L79468 42197
L79453 42212
L79438 42242
L79438 42317
L79453 42347
L79468 42362
L79498 42377
L79588 42377
L79618 42362
L79633 42347
" />
<path d="M79228 42482
L79228 42032
" />
<path d="M78853 42062
L79003 42062
L79018 42212
L79003 42197
L78973 42182
L78898 42182
L78868 42197
L78853 42212
L78838 42242
L78838 42317
L78853 42347
L78868 42362
L78898 42377
L78973 42377
L79003 42362
L79018 42347
" />
<path d="M78748 42062
L78643 42377
L78538 42062
" />
</g><g class="stroked-text"><desc>7: D|X</desc>
<path d="M75912 39977
L75912 39767
L75597 39902
" />
<path d="M75627 39647
L75612 39632
L75597 39647
L75612 39662
L75627 39647
L75597 39647
" />
<path d="M75792 39647
L75777 39632
L75762 39647
L75777 39662
L75792 39647
L75762 39647
" />
<path d="M75597 39257
L75912 39257
L75912 39182
L75897 39137
L75867 39107
L75837 39092
L75777 39077
L75732 39077
L75672 39092
L75642 39107
L75612 39137
L75597 39182
L75597 39257
" />
<path d="M75492 38867
L75942 38867
" />
<path d="M75912 38672
L75597 38462
" />
<path d="M75912 38462
L75597 38672
" />
</g><g class="stroked-text"><desc>8: D|X</desc>
<path d="M77337 39942
L77352 39972
L77367 39987
L77397 40002
L77412 40002
L77442 39987
L77457 39972
L77472 39942
L77472 39882
L77457 39852
L77442 39837
L77412 39822
L77397 39822
L77367 39837
L77352 39852
L77337 39882
L77337 39942
L77322 39972
L77307 39987
L77277 40002
L77217 40002
L77187 39987
L77172 39972
L77157 39942
L77157 39882
L77172 39852
L77187 39837
L77217 39822
L77277 39822
L77307 39837
L77322 39852
L77337 39882
" />
<path d="M77187 39687
L77172 39672
L77157 39687
L77172 39702
L77187 39687
L77157 39687
" />
<path d="M77352 39687
L77337 39672
L77322 39687
L77337 39702
L77352 39687
L77322 39687
" />
<path d="M77157 39297
L77472 39297
L77472 39222
L77457 39177
L77427 39147
L77397 39132
L77337 39117
L77292 39117
L77232 39132
L77202 39147
L77172 39177
L77157 39222
L77157 39297
" />
<path d="M77052 38907
L77502 38907
" />
<path d="M77472 38712
L77157 38502
" />
<path d="M77472 38502
L77157 38712
" />
</g><g class="stroked-text"><desc>CP2102</desc>
<path d="M78776 48169
L78791 48184
L78836 48199
L78866 48199
L78911 48184
L78941 48154
L78956 48124
L78971 48064
L78971 48019
L78956 47959
L78941 47929
L78911 47899
L78866 47884
L78836 47884
L78791 47899
L78776 47914
" />
<path d="M78641 48199
L78641 47884
L78521 47884
L78491 47899
L78476 47914
L78461 47944
L78461 47989
L78476 48019
L78491 48034
L78521 48049
L78641 48049
" />
<path d="M78341 47914
L78326 47899
L78296 47884
L78221 47884
L78191 47899
L78176 47914
L78161 47944
L78161 47974
L78176 48019
L78356 48199
L78161 48199
" />
<path d="M77862 48199
L78042 48199
" />
<path d="M77952 48199
L77952 47884
L77982 47929
L78012 47959
L78042 47974
" />
<path d="M77667 47884
L77637 47884
L77607 47899
L77592 47914
L77577 47944
L77562 48004
L77562 48079
L77577 48139
L77592 48169
L77607 48184
L77637 48199
L77667 48199
L77697 48184
L77712 48169
L77727 48139
L77742 48079
L77742 48004
L77727 47944
L77712 47914
L77697 47899
L77667 47884
" />
<path d="M77442 47914
L77427 47899
L77397 47884
L77322 47884
L77292 47899
L77277 47914
L77262 47944
L77262 47974
L77277 48019
L77457 48199
L77262 48199
" />
</g><g class="stroked-text"><desc>DTR</desc>
<path d="M77777 46430
L77462 46430
L77462 46505
L77477 46550
L77507 46580
L77537 46595
L77597 46610
L77642 46610
L77702 46595
L77732 46580
L77762 46550
L77777 46505
L77777 46430
" />
<path d="M77462 46700
L77462 46879
" />
<path d="M77777 46790
L77462 46790
" />
<path d="M77777 47164
L77627 47059
" />
<path d="M77777 46984
L77462 46984
L77462 47104
L77477 47134
L77492 47149
L77522 47164
L77567 47164
L77597 47149
L77612 47134
L77627 47104
L77627 46984
" />
</g><g class="stroked-text"><desc>PB|PA</desc>
<path d="M74902 45691
L75217 45691
L75217 45571
L75202 45541
L75187 45526
L75157 45511
L75112 45511
L75082 45526
L75067 45541
L75052 45571
L75052 45691
" />
<path d="M75067 45271
L75052 45226
L75037 45211
L75007 45196
L74962 45196
L74932 45211
L74917 45226
L74902 45256
L74902 45376
L75217 45376
L75217 45271
L75202 45241
L75187 45226
L75157 45211
L75127 45211
L75097 45226
L75082 45241
L75067 45271
L75067 45376
" />
<path d="M74797 44986
L75247 44986
" />
<path d="M74902 44761
L75217 44761
L75217 44641
L75202 44611
L75187 44596
L75157 44581
L75112 44581
L75082 44596
L75067 44611
L75052 44641
L75052 44761
" />
<path d="M74992 44461
L74992 44311
" />
<path d="M74902 44491
L75217 44386
L74902 44281
" />
</g><g class="stroked-text"><desc>PB|PA</desc>
<path d="M80857 48040
L80857 47725
L80737 47725
L80707 47740
L80692 47755
L80677 47785
L80677 47830
L80692 47860
L80707 47875
L80737 47890
L80857 47890
" />
<path d="M80437 47875
L80392 47890
L80377 47905
L80362 47935
L80362 47980
L80377 48010
L80392 48025
L80422 48040
L80542 48040
L80542 47725
L80437 47725
L80407 47740
L80392 47755
L80377 47785
L80377 47815
L80392 47845
L80407 47860
L80437 47875
L80542 47875
" />
<path d="M80152 48145
L80152 47695
" />
<path d="M79927 48040
L79927 47725
L79807 47725
L79777 47740
L79762 47755
L79747 47785
L79747 47830
L79762 47860
L79777 47875
L79807 47890
L79927 47890
" />
<path d="M79627 47950
L79477 47950
" />
<path d="M79657 48040
L79552 47725
L79447 48040
" />
</g><g class="stroked-text"><desc>PB|PA</desc>
<path d="M81118 51547
L81433 51547
L81433 51427
L81418 51397
L81403 51382
L81373 51367
L81328 51367
L81298 51382
L81283 51397
L81268 51427
L81268 51547
" />
<path d="M81283 51127
L81268 51082
L81253 51067
L81223 51052
L81178 51052
L81148 51067
L81133 51082
L81118 51112
L81118 51232
L81433 51232
L81433 51127
L81418 51097
L81403 51082
L81373 51067
L81343 51067
L81313 51082
L81298 51097
L81283 51127
L81283 51232
" />
<path d="M81013 50842
L81463 50842
" />
<path d="M81118 50617
L81433 50617
L81433 50497
L81418 50467
L81403 50452
L81373 50437
L81328 50437
L81298 50452
L81283 50467
L81268 50497
L81268 50617
" />
<path d="M81208 50317
L81208 50167
" />
<path d="M81118 50347
L81433 50242
L81118 50137
" />
</g><g class="stroked-text"><desc>PB|PA</desc>
<path d="M79946 38992
L79946 38677
L79826 38677
L79796 38692
L79781 38707
L79766 38737
L79766 38782
L79781 38812
L79796 38827
L79826 38842
L79946 38842
" />
<path d="M79526 38827
L79481 38842
L79466 38857
L79451 38887
L79451 38932
L79466 38962
L79481 38977
L79511 38992
L79631 38992
L79631 38677
L79526 38677
L79496 38692
L79481 38707
L79466 38737
L79466 38767
L79481 38797
L79496 38812
L79526 38827
L79631 38827
" />
<path d="M79241 39097
L79241 38647
" />
<path d="M79016 38992
L79016 38677
L78896 38677
L78866 38692
L78851 38707
L78836 38737
L78836 38782
L78851 38812
L78866 38827
L78896 38842
L79016 38842
" />
<path d="M78716 38902
L78566 38902
" />
<path d="M78746 38992
L78641 38677
L78536 38992
" />
</g></g>
<g style="fill:#000000; fill-opacity:0.0; 
stroke:#000000; stroke-width:196.85; stroke-opacity:1; 
stroke-linecap:round; stroke-linejoin:round;">
<path d="M73200 28300
L82800 28300
" />
<path d="M82800 53700
L73200 53700
" />
</g>
<g style="fill:#000000; fill-opacity:0.0; 
stroke:#000000; stroke-width:59.0551; stroke-opacity:1; 
stroke-linecap:round; stroke-linejoin:round;">
<path d="M79163 48496
L78868 48496
" />
<path d="M77096 50563
L77391 50563
" />
<path d="M77096 48496
L77391 48496
" />
<path d="M79163 50563
L79163 50268
" />
<path d="M77096 50563
L77096 50268
" />
<path d="M77096 48496
L77096 48791
" />
<path d="M79163 48496
L79163 48791
" />
<path d="M75884 40056
L76277 40056
" />
<path d="M76277 40725
L75884 40725
" />
<path d="M77218 31410
L76825 31410
" />
<path d="M76825 30741
L77218 30741
" />
<path d="M79034 31384
L78641 31384
" />
<path d="M78641 30715
L79034 30715
" />
<path d="M75803 50743
L75803 50893
" />
<path d="M75803 50343
L75803 50493
" />
<path d="M75803 50493
L75653 50743
" />
<path d="M75653 50743
L75953 50743
" />
<path d="M75953 50743
L75803 50493
" />
<path d="M75603 50493
L76003 50493
" />
<path d="M76157 49830
L76157 51224
" />
<path d="M75448 49830
L75448 51224
" />
</g>
<g style="fill:#000000; fill-opacity:0.0; 
stroke:#000000; stroke-width:50; stroke-opacity:1; 
stroke-linecap:round; stroke-linejoin:round;">
<path d="M77271 34044
L78648 34044
" />
<path d="M78648 31485
L77271 31485
" />
<circle cx="77586" cy="33729.6" r="118.11" /> 
</g>
<g style="fill:#000000; fill-opacity:0.0; 
stroke:#000000; stroke-width:59.0551; stroke-opacity:1; 
stroke-linecap:round; stroke-linejoin:round;">
<path d="M79742 43361
L80135 43361
" />
<path d="M80135 44030
L79742 44030
" />
<path d="M77847 45272
L77847 44879
" />
<path d="M78516 44879
L78516 45272
" />
<path d="M76872 34173
L77265 34173
" />
<path d="M77265 34842
L76872 34842
" />
<path d="M79458 38292
L79065 38292
" />
<path d="M79065 37623
L79458 37623
" />
<path d="M79117 34481
L79267 34481
" />
<path d="M78717 34481
L78867 34481
" />
<path d="M78867 34481
L79117 34631
" />
<path d="M79117 34631
L79117 34331
" />
<path d="M79117 34331
L78867 34481
" />
<path d="M78867 34681
L78867 34281
" />
<path d="M78205 34126
L79599 34126
" />
<path d="M78205 34835
L79599 34835
" />
</g>
<g style="fill:#000000; fill-opacity:0.0; 
stroke:#000000; stroke-width:47.2441; stroke-opacity:1; 
stroke-linecap:round; stroke-linejoin:round;">
<path d="M75518 38414
L75636 38532
" />
<path d="M75636 38296
L75636 38532
" />
<path d="M75518 38414
L75636 38296
" />
<path d="M75164 38079
L74927 38079
" />
<path d="M75439 39438
L75439 38335
" />
<path d="M74927 39694
L75164 39694
" />
<path d="M74652 38335
L74652 39438
" />
<path d="M74652.3 39418.5 A275.591 275.591 0.0 0 0 74927.9 39694.1 " />
<path d="M75164.1 39694.1 A275.591 275.591 0.0 0 0 75439.7 39418.5 " />
<path d="M75439.7 38355.5 A275.591 275.591 0.0 0 0 75164.1 38079.9 " />
<path d="M74927.9 38079.9 A275.591 275.591 0.0 0 0 74652.3 38355.5 " />
<path d="M76395.9 38064.9 A275.591 275.591 0.0 0 0 76120.3 38340.5 " />
<path d="M76907.7 38340.5 A275.591 275.591 0.0 0 0 76632.1 38064.9 " />
<path d="M76632.1 39679.1 A275.591 275.591 0.0 0 0 76907.7 39403.5 " />
<path d="M76120.3 39403.5 A275.591 275.591 0.0 0 0 76395.9 39679.1 " />
<path d="M76120 38320
L76120 39423
" />
<path d="M76395 39679
L76632 39679
" />
<path d="M76907 39423
L76907 38320
" />
<path d="M76632 38064
L76395 38064
" />
<path d="M76986 38399
L77104 38281
" />
<path d="M77104 38281
L77104 38517
" />
<path d="M76986 38399
L77104 38517
" />
<path d="M76203 44563
L76321 44681
" />
<path d="M76321 44445
L76321 44681
" />
<path d="M76203 44563
L76321 44445
" />
<path d="M75849 44228
L75612 44228
" />
<path d="M76124 45587
L76124 44484
" />
<path d="M75612 45843
L75849 45843
" />
<path d="M75337 44484
L75337 45587
" />
<path d="M75337.3 45567.5 A275.591 275.591 0.0 0 0 75612.9 45843.1 " />
<path d="M75849.1 45843.1 A275.591 275.591 0.0 0 0 76124.7 45567.5 " />
<path d="M76124.7 44504.5 A275.591 275.591 0.0 0 0 75849.1 44228.9 " />
<path d="M75612.9 44228.9 A275.591 275.591 0.0 0 0 75337.3 44504.5 " />
<path d="M79423.9 47399.1 A275.591 275.591 0.0 0 0 79699.5 47674.7 " />
<path d="M79699.5 46887.3 A275.591 275.591 0.0 0 0 79423.9 47162.9 " />
<path d="M81038.1 47162.9 A275.591 275.591 0.0 0 0 80762.5 46887.3 " />
<path d="M80762.5 47674.7 A275.591 275.591 0.0 0 0 81038.1 47399.1 " />
<path d="M79679 47674
L80782 47674
" />
<path d="M81038 47399
L81038 47162
" />
<path d="M80782 46887
L79679 46887
" />
<path d="M79423 47162
L79423 47399
" />
<path d="M79758 46808
L79640 46690
" />
<path d="M79640 46690
L79876 46690
" />
<path d="M79758 46808
L79876 46690
" />
<path d="M78487.9 39810.1 A275.591 275.591 0.0 0 0 78763.5 40085.7 " />
<path d="M78763.5 39298.3 A275.591 275.591 0.0 0 0 78487.9 39573.9 " />
<path d="M80102.1 39573.9 A275.591 275.591 0.0 0 0 79826.5 39298.3 " />
<path d="M79826.5 40085.7 A275.591 275.591 0.0 0 0 80102.1 39810.1 " />
<path d="M78743 40085
L79846 40085
" />
<path d="M80102 39810
L80102 39573
" />
<path d="M79846 39298
L78743 39298
" />
<path d="M78487 39573
L78487 39810
" />
<path d="M78822 39219
L78704 39101
" />
<path d="M78704 39101
L78940 39101
" />
<path d="M78822 39219
L78940 39101
" />
<path d="M80920 50318
L81038 50436
" />
<path d="M81038 50200
L81038 50436
" />
<path d="M80920 50318
L81038 50200
" />
<path d="M80566 49983
L80329 49983
" />
<path d="M80841 51342
L80841 50239
" />
<path d="M80329 51598
L80566 51598
" />
<path d="M80054 50239
L80054 51342
" />
<path d="M80054.3 51322.5 A275.591 275.591 0.0 0 0 80329.9 51598.1 " />
<path d="M80566.1 51598.1 A275.591 275.591 0.0 0 0 80841.7 51322.5 " />
<path d="M80841.7 50259.5 A275.591 275.591 0.0 0 0 80566.1 49983.9 " />
<path d="M80329.9 49983.9 A275.591 275.591 0.0 0 0 80054.3 50259.5 " />
</g>
<g style="fill:#000000; fill-opacity:0.0; 
stroke:#000000; stroke-width:59.0551; stroke-opacity:1; 
stroke-linecap:round; stroke-linejoin:round;">
<path d="M77853 52534
L78326 52534
" />
<path d="M78326 51845
L77853 51845
" />
<path d="M78336 52775
L77863 52775
" />
<path d="M77863 53464
L78336 53464
" />
<path d="M75617 37150
L75617 36677
" />
<path d="M74928 36677
L74928 37150
" />
<path d="M76125 52826
L76125 52433
" />
<path d="M75594 52433
L75594 52826
" />
<path d="M80705 52766
L80705 52373
" />
<path d="M80174 52373
L80174 52766
" />
</g>
<g style="fill:#000000; fill-opacity:0.0; 
stroke:#000000; stroke-width:50; stroke-opacity:1; 
stroke-linecap:round; stroke-linejoin:round;">
<circle cx="77566" cy="37164.6" r="118.11" /> 
<path d="M78628 34920
L77251 34920
" />
<path d="M77251 37479
L78628 37479
" />
</g>
<g style="fill:#000000; fill-opacity:0.0; 
stroke:#000000; stroke-width:47.2441; stroke-opacity:1; 
stroke-linecap:round; stroke-linejoin:round;">
<path d="M78699 46236
L77912 46236
" />
<path d="M78699 47339
L78699 46236
" />
<path d="M77912 47339
L78699 47339
" />
<path d="M77912 46236
L77912 47339
" />
<path d="M79754 41683
L79636 41801
" />
<path d="M79872 41801
L79636 41801
" />
<path d="M79754 41683
L79872 41801
" />
<path d="M80089 41329
L80089 41092
" />
<path d="M78730 41604
L79833 41604
" />
<path d="M78474 41092
L78474 41329
" />
<path d="M79833 40817
L78730 40817
" />
<path d="M78750.5 40817.3 A275.591 275.591 0.0 0 0 78474.9 41092.9 " />
<path d="M78474.9 41329.1 A275.591 275.591 0.0 0 0 78750.5 41604.7 " />
<path d="M79813.5 41604.7 A275.591 275.591 0.0 0 0 80089.1 41329.1 " />
<path d="M80089.1 41092.9 A275.591 275.591 0.0 0 0 79813.5 40817.3 " />
<g >
</g>
<g >
</g>
<g >
</g>
<g >
</g>
<g >
</g>
<g >
</g>
<g >
</g>
<g >
</g>
<g >
</g>
<g >
</g>
<g >
</g>
<g >
</g>
<g >
</g>
<g >
</g>
<g >
</g>
<g >
</g>
<g >
</g>
<g >
</g>
<g >
</g>
<g >
</g>
<g >
</g>
<g >
</g>
<g >
</g>
<g >
</g>
<g >
</g>
<g >
</g>
<g >
</g>
<g >
</g>
<g >
</g>
<g >
</g>
<g >
</g>
<g >
</g>
<g >
</g>
<g >
</g>
<g >
</g>
<g >
</g>
<g >
</g>
<g >
</g>
<g >
</g>
<g >
</g>
<g >
</g>
<g >
</g>
<g >
</g>
<g >
</g>
<g >
</g>
<g >
</g>
<g >
</g>
<g >
</g>
<g >
</g>
<g >
</g>
<g >
</g>
</g>
<g style="fill:#000000; fill-opacity:0.0; 
stroke:#000000; stroke-width:47.2441; stroke-opacity:1; 
stroke-linecap:round; stroke-linejoin:round;">
</g>
<g style="fill:#000000; fill-opacity:0.0; 
stroke:#000000; stroke-width:59.0551; stroke-opacity:1; 
stroke-linecap:round; stroke-linejoin:round;">
<g class="stroked-text"><desc>U2</desc>
<path d="M79439 49230
L79758 49230
L79796 49248
L79814 49267
L79833 49305
L79833 49380
L79814 49417
L79796 49436
L79758 49455
L79439 49455
" />
<path d="M79477 49623
L79458 49642
L79439 49679
L79439 49773
L79458 49811
L79477 49829
L79514 49848
L79552 49848
L79608 49829
L79833 49604
L79833 49848
" />
</g><g class="stroked-text"><desc>C1</desc>
<path d="M75112 40298
L75131 40279
L75150 40223
L75150 40185
L75131 40129
L75093 40092
L75056 40073
L74981 40054
L74925 40054
L74850 40073
L74812 40092
L74775 40129
L74756 40185
L74756 40223
L74775 40279
L74793 40298
" />
<path d="M75150 40673
L75150 40448
" />
<path d="M75150 40560
L74756 40560
L74812 40523
L74850 40485
L74868 40448
" />
</g><g class="stroked-text"><desc>C6</desc>
<path d="M75890 30984
L75909 30965
L75928 30909
L75928 30871
L75909 30815
L75871 30778
L75834 30759
L75759 30740
L75703 30740
L75628 30759
L75590 30778
L75553 30815
L75534 30871
L75534 30909
L75553 30965
L75571 30984
" />
<path d="M75534 31321
L75534 31246
L75553 31209
L75571 31190
L75628 31153
L75703 31134
L75853 31134
L75890 31153
L75909 31171
L75928 31209
L75928 31284
L75909 31321
L75890 31340
L75853 31359
L75759 31359
L75721 31340
L75703 31321
L75684 31284
L75684 31209
L75703 31171
L75721 31153
L75759 31134
" />
</g><g class="stroked-text"><desc>C7</desc>
<path d="M80290 30930
L80309 30911
L80328 30855
L80328 30817
L80309 30761
L80271 30724
L80234 30705
L80159 30686
L80103 30686
L80028 30705
L79990 30724
L79953 30761
L79934 30817
L79934 30855
L79953 30911
L79971 30930
" />
<path d="M79934 31061
L79934 31324
L80328 31155
" />
</g><g class="stroked-text"><desc>D5</desc>
<path d="M75131 50327
L74737 50327
L74737 50421
L74756 50477
L74793 50514
L74831 50533
L74906 50552
L74962 50552
L75037 50533
L75074 50514
L75112 50477
L75131 50421
L75131 50327
" />
<path d="M74737 50908
L74737 50721
L74924 50702
L74906 50721
L74887 50758
L74887 50852
L74906 50889
L74924 50908
L74962 50927
L75056 50927
L75093 50908
L75112 50889
L75131 50852
L75131 50758
L75112 50721
L75093 50702
" />
</g></g>
<g style="fill:#000000; fill-opacity:0.0; 
stroke:#000000; stroke-width:30; stroke-opacity:1; 
stroke-linecap:round; stroke-linejoin:round;">
<g class="stroked-text"><desc>U3</desc>
<path d="M78333 33549
L78333 33808
L78318 33839
L78303 33854
L78272 33869
L78211 33869
L78181 33854
L78166 33839
L78150 33808
L78150 33549
" />
<path d="M78029 33549
L77830 33549
L77937 33671
L77891 33671
L77861 33686
L77846 33702
L77830 33732
L77830 33808
L77846 33839
L77861 33854
L77891 33869
L77983 33869
L78013 33854
L78029 33839
" />
</g><g class="stroked-text"><desc>AP1117-50</desc>
<path d="M78248 32353
L78096 32353
" />
<path d="M78279 32444
L78172 32124
L78065 32444
" />
<path d="M77959 32444
L77959 32124
L77837 32124
L77806 32140
L77791 32155
L77776 32185
L77776 32231
L77791 32261
L77806 32277
L77837 32292
L77959 32292
" />
<path d="M77471 32444
L77654 32444
" />
<path d="M77562 32444
L77562 32124
L77593 32170
L77623 32200
L77654 32216
" />
<path d="M77166 32444
L77349 32444
" />
<path d="M77258 32444
L77258 32124
L77288 32170
L77319 32200
L77349 32216
" />
<path d="M76861 32444
L77044 32444
" />
<path d="M76953 32444
L76953 32124
L76983 32170
L77014 32200
L77044 32216
" />
<path d="M76755 32124
L76541 32124
L76679 32444
" />
<path d="M76420 32322
L76176 32322
" />
<path d="M75871 32124
L76023 32124
L76039 32277
L76023 32261
L75993 32246
L75917 32246
L75886 32261
L75871 32277
L75856 32307
L75856 32383
L75871 32414
L75886 32429
L75917 32444
L75993 32444
L76023 32429
L76039 32414
" />
<path d="M75658 32124
L75627 32124
L75597 32140
L75581 32155
L75566 32185
L75551 32246
L75551 32322
L75566 32383
L75581 32414
L75597 32429
L75627 32444
L75658 32444
L75688 32429
L75703 32414
L75719 32383
L75734 32322
L75734 32246
L75719 32185
L75703 32155
L75688 32140
L75658 32124
" />
</g></g>
<g style="fill:#000000; fill-opacity:0.0; 
stroke:#000000; stroke-width:59.0551; stroke-opacity:1; 
stroke-linecap:round; stroke-linejoin:round;">
<g class="stroked-text"><desc>C2</desc>
<path d="M80004 43009
L80023 43028
L80079 43047
L80117 43047
L80173 43028
L80210 42991
L80229 42953
L80248 42878
L80248 42822
L80229 42747
L80210 42709
L80173 42672
L80117 42653
L80079 42653
L80023 42672
L80004 42691
" />
<path d="M79854 42691
L79835 42672
L79798 42653
L79704 42653
L79667 42672
L79648 42691
L79629 42728
L79629 42766
L79648 42822
L79873 43047
L79629 43047
" />
</g><g class="stroked-text"><desc>C5</desc>
<path d="M77495 45010
L77514 44991
L77533 44935
L77533 44898
L77514 44841
L77477 44804
L77439 44785
L77364 44766
L77308 44766
L77233 44785
L77195 44804
L77158 44841
L77139 44898
L77139 44935
L77158 44991
L77177 45010
" />
<path d="M77139 45366
L77139 45179
L77327 45160
L77308 45179
L77289 45216
L77289 45310
L77308 45347
L77327 45366
L77364 45385
L77458 45385
L77495 45366
L77514 45347
L77533 45310
L77533 45216
L77514 45179
L77495 45160
" />
</g><g class="stroked-text"><desc>C8</desc>
<path d="M76148 34422
L76167 34403
L76186 34347
L76186 34309
L76167 34253
L76129 34216
L76092 34197
L76017 34178
L75961 34178
L75886 34197
L75848 34216
L75811 34253
L75792 34309
L75792 34347
L75811 34403
L75829 34422
" />
<path d="M75961 34647
L75942 34609
L75923 34591
L75886 34572
L75867 34572
L75829 34591
L75811 34609
L75792 34647
L75792 34722
L75811 34759
L75829 34778
L75867 34797
L75886 34797
L75923 34778
L75942 34759
L75961 34722
L75961 34647
L75979 34609
L75998 34591
L76036 34572
L76111 34572
L76148 34591
L76167 34609
L76186 34647
L76186 34722
L76167 34759
L76148 34778
L76111 34797
L76036 34797
L75998 34778
L75979 34759
L75961 34722
" />
</g><g class="stroked-text"><desc>C9</desc>
<path d="M78100 38044
L78119 38063
L78175 38082
L78213 38082
L78269 38063
L78306 38025
L78325 37988
L78344 37913
L78344 37857
L78325 37782
L78306 37744
L78269 37707
L78213 37688
L78175 37688
L78119 37707
L78100 37725
" />
<path d="M77913 38082
L77838 38082
L77800 38063
L77781 38044
L77744 37988
L77725 37913
L77725 37763
L77744 37725
L77763 37707
L77800 37688
L77875 37688
L77913 37707
L77931 37725
L77950 37763
L77950 37857
L77931 37894
L77913 37913
L77875 37932
L77800 37932
L77763 37913
L77744 37894
L77725 37857
" />
</g><g class="stroked-text"><desc>D6</desc>
<path d="M80394 34217
L80000 34217
L80000 34311
L80019 34367
L80056 34404
L80094 34423
L80169 34442
L80225 34442
L80300 34423
L80337 34404
L80375 34367
L80394 34311
L80394 34217
" />
<path d="M80000 34779
L80000 34704
L80019 34667
L80037 34648
L80094 34611
L80169 34592
L80319 34592
L80356 34611
L80375 34629
L80394 34667
L80394 34742
L80375 34779
L80356 34798
L80319 34817
L80225 34817
L80187 34798
L80169 34779
L80150 34742
L80150 34667
L80169 34629
L80187 34611
L80225 34592
" />
</g><g class="stroked-text"><desc>JP1</desc>
<path d="M74121 38558
L74402 38558
L74459 38540
L74496 38502
L74515 38446
L74515 38408
" />
<path d="M74515 38746
L74121 38746
L74121 38896
L74140 38933
L74159 38952
L74196 38971
L74252 38971
L74290 38952
L74309 38933
L74327 38896
L74327 38746
" />
<path d="M74515 39346
L74515 39121
" />
<path d="M74515 39233
L74121 39233
L74177 39196
L74215 39158
L74234 39121
" />
</g><g class="stroked-text"><desc>JP2</desc>
<path d="M75589 38543
L75870 38543
L75927 38525
L75964 38487
L75983 38431
L75983 38393
" />
<path d="M75983 38731
L75589 38731
L75589 38881
L75608 38918
L75627 38937
L75664 38956
L75720 38956
L75758 38937
L75777 38918
L75795 38881
L75795 38731
" />
<path d="M75627 39106
L75608 39125
L75589 39162
L75589 39256
L75608 39293
L75627 39312
L75664 39331
L75702 39331
L75758 39312
L75983 39087
L75983 39331
" />
</g><g class="stroked-text"><desc>JP3</desc>
<path d="M74806 44707
L75087 44707
L75144 44689
L75181 44651
L75200 44595
L75200 44557
" />
<path d="M75200 44895
L74806 44895
L74806 45045
L74825 45082
L74844 45101
L74881 45120
L74937 45120
L74975 45101
L74994 45082
L75012 45045
L75012 44895
" />
<path d="M74806 45251
L74806 45495
L74956 45364
L74956 45420
L74975 45457
L74994 45476
L75031 45495
L75125 45495
L75162 45476
L75181 45457
L75200 45420
L75200 45307
L75181 45270
L75162 45251
" />
</g><g class="stroked-text"><desc>JP4</desc>
<path d="M80559 47774
L80559 48055
L80577 48111
L80615 48149
L80671 48167
L80709 48167
" />
<path d="M80371 48167
L80371 47774
L80221 47774
L80184 47792
L80165 47811
L80146 47849
L80146 47905
L80165 47942
L80184 47961
L80221 47980
L80371 47980
" />
<path d="M79809 47905
L79809 48167
" />
<path d="M79902 47755
L79996 48036
L79752 48036
" />
</g><g class="stroked-text"><desc>JP5</desc>
<path d="M79623 40185
L79623 40466
L79641 40522
L79679 40560
L79735 40578
L79773 40578
" />
<path d="M79435 40578
L79435 40185
L79285 40185
L79248 40203
L79229 40222
L79210 40260
L79210 40316
L79229 40353
L79248 40372
L79285 40391
L79435 40391
" />
<path d="M78854 40185
L79041 40185
L79060 40372
L79041 40353
L79004 40335
L78910 40335
L78873 40353
L78854 40372
L78835 40410
L78835 40503
L78854 40541
L78873 40560
L78910 40578
L79004 40578
L79041 40560
L79060 40541
" />
</g><g class="stroked-text"><desc>JP6</desc>
<path d="M79523 50462
L79804 50462
L79861 50444
L79898 50406
L79917 50350
L79917 50312
" />
<path d="M79917 50650
L79523 50650
L79523 50800
L79542 50837
L79561 50856
L79598 50875
L79654 50875
L79692 50856
L79711 50837
L79729 50800
L79729 50650
" />
<path d="M79523 51212
L79523 51137
L79542 51100
L79561 51081
L79617 51044
L79692 51025
L79842 51025
L79879 51044
L79898 51062
L79917 51100
L79917 51175
L79898 51212
L79879 51231
L79842 51250
L79748 51250
L79711 51231
L79692 51212
L79673 51175
L79673 51100
L79692 51062
L79711 51044
L79748 51025
" />
</g><g class="stroked-text"><desc>R1</desc>
<path d="M76875 52094
L77006 51906
" />
<path d="M77100 52094
L77100 51700
L76950 51700
L76913 51719
L76894 51737
L76875 51775
L76875 51831
L76894 51869
L76913 51887
L76950 51906
L77100 51906
" />
<path d="M76500 52094
L76725 52094
" />
<path d="M76613 52094
L76613 51700
L76650 51756
L76688 51794
L76725 51812
" />
</g><g class="stroked-text"><desc>R2</desc>
<path d="M76840 53419
L76971 53231
" />
<path d="M77065 53419
L77065 53025
L76915 53025
L76878 53044
L76859 53062
L76840 53100
L76840 53156
L76859 53194
L76878 53212
L76915 53231
L77065 53231
" />
<path d="M76690 53062
L76671 53044
L76634 53025
L76540 53025
L76503 53044
L76484 53062
L76465 53100
L76465 53137
L76484 53194
L76709 53419
L76465 53419
" />
</g><g class="stroked-text"><desc>R8</desc>
<path d="M75471 35525
L75283 35394
" />
<path d="M75471 35300
L75077 35300
L75077 35450
L75096 35487
L75114 35506
L75152 35525
L75208 35525
L75246 35506
L75264 35487
L75283 35450
L75283 35300
" />
<path d="M75246 35750
L75227 35712
L75208 35694
L75171 35675
L75152 35675
L75114 35694
L75096 35712
L75077 35750
L75077 35825
L75096 35862
L75114 35881
L75152 35900
L75171 35900
L75208 35881
L75227 35862
L75246 35825
L75246 35750
L75264 35712
L75283 35694
L75321 35675
L75396 35675
L75433 35694
L75452 35712
L75471 35750
L75471 35825
L75452 35862
L75433 35881
L75396 35900
L75321 35900
L75283 35881
L75264 35862
L75246 35825
" />
</g><g class="stroked-text"><desc>TH1</desc>
<path d="M74896 52123
L74896 52348
" />
<path d="M75290 52236
L74896 52236
" />
<path d="M75290 52480
L74896 52480
" />
<path d="M75083 52480
L75083 52704
" />
<path d="M75290 52704
L74896 52704
" />
<path d="M75290 53098
L75290 52873
" />
<path d="M75290 52986
L74896 52986
L74952 52948
L74990 52911
L75008 52873
" />
</g><g class="stroked-text"><desc>TH2</desc>
<path d="M80972 52063
L80972 52288
" />
<path d="M81366 52176
L80972 52176
" />
<path d="M81366 52420
L80972 52420
" />
<path d="M81159 52420
L81159 52644
" />
<path d="M81366 52644
L80972 52644
" />
<path d="M81009 52813
L80991 52832
L80972 52869
L80972 52963
L80991 53001
L81009 53019
L81047 53038
L81084 53038
L81141 53019
L81366 52794
L81366 53038
" />
</g></g>
<g style="fill:#000000; fill-opacity:0.0; 
stroke:#000000; stroke-width:30; stroke-opacity:1; 
stroke-linecap:round; stroke-linejoin:round;">
<g class="stroked-text"><desc>U4</desc>
<path d="M78313 36984
L78313 37243
L78298 37274
L78283 37289
L78252 37304
L78191 37304
L78161 37289
L78146 37274
L78130 37243
L78130 36984
" />
<path d="M77841 37091
L77841 37304
" />
<path d="M77917 36969
L77993 37198
L77795 37198
" />
</g><g class="stroked-text"><desc>AP1117-33</desc>
<path d="M80076 35409
L79924 35409
" />
<path d="M80107 35500
L80000 35180
L79893 35500
" />
<path d="M79787 35500
L79787 35180
L79665 35180
L79634 35196
L79619 35211
L79604 35241
L79604 35287
L79619 35317
L79634 35333
L79665 35348
L79787 35348
" />
<path d="M79299 35500
L79482 35500
" />
<path d="M79390 35500
L79390 35180
L79421 35226
L79451 35256
L79482 35272
" />
<path d="M78994 35500
L79177 35500
" />
<path d="M79086 35500
L79086 35180
L79116 35226
L79147 35256
L79177 35272
" />
<path d="M78689 35500
L78872 35500
" />
<path d="M78781 35500
L78781 35180
L78811 35226
L78842 35256
L78872 35272
" />
<path d="M78583 35180
L78369 35180
L78507 35500
" />
<path d="M78248 35378
L78004 35378
" />
<path d="M77882 35180
L77684 35180
L77790 35302
L77745 35302
L77714 35317
L77699 35333
L77684 35363
L77684 35439
L77699 35470
L77714 35485
L77745 35500
L77836 35500
L77867 35485
L77882 35470
" />
<path d="M77577 35180
L77379 35180
L77486 35302
L77440 35302
L77409 35317
L77394 35333
L77379 35363
L77379 35439
L77394 35470
L77409 35485
L77440 35500
L77531 35500
L77562 35485
L77577 35470
" />
</g></g>
<g style="fill:#000000; fill-opacity:0.0; 
stroke:#000000; stroke-width:59.0551; stroke-opacity:1; 
stroke-linecap:round; stroke-linejoin:round;">
<g class="stroked-text"><desc>JP9</desc>
<path d="M77381 46459
L77662 46459
L77719 46441
L77756 46403
L77775 46347
L77775 46309
" />
<path d="M77775 46647
L77381 46647
L77381 46797
L77400 46834
L77419 46853
L77456 46872
L77512 46872
L77550 46853
L77569 46834
L77587 46797
L77587 46647
" />
<path d="M77775 47059
L77775 47134
L77756 47172
L77737 47190
L77681 47228
L77606 47247
L77456 47247
L77419 47228
L77400 47209
L77381 47172
L77381 47097
L77400 47059
L77419 47040
L77456 47022
L77550 47022
L77587 47040
L77606 47059
L77625 47097
L77625 47172
L77606 47209
L77587 47228
L77550 47247
" />
</g><g class="stroked-text"><desc>JP7</desc>
<path d="M79610 40286
L79610 40567
L79628 40624
L79666 40661
L79722 40680
L79760 40680
" />
<path d="M79422 40680
L79422 40286
L79272 40286
L79235 40305
L79216 40324
L79197 40361
L79197 40417
L79216 40455
L79235 40474
L79272 40492
L79422 40492
" />
<path d="M79066 40286
L78803 40286
L78972 40680
" />
</g><g >
</g>
</g> 
</svg>
