<?xml version="1.0" standalone="no"?>
 <!DOCTYPE svg PUBLIC "-//W3C//DTD SVG 1.1//EN" 
 "http://www.w3.org/Graphics/SVG/1.1/DTD/svg11.dtd"> 
<svg xmlns="http://www.w3.org/2000/svg" version="1.1" 
    width="29.7002cm" height="21.0007cm" viewBox="0 0 116930 82680 ">
<title>SVG Picture created as arduino_nano324-F_Fab.svg date 2019/08/21 17:55:37 </title>
  <desc>Picture generated by PCBNEW </desc>
<g style="fill:#000000; fill-opacity:1;stroke:#000000; stroke-opacity:1;
stroke-linecap:round; stroke-linejoin:round; "
 transform="translate(0 0) scale(1 1)">
</g>
<g style="fill:#000000; fill-opacity:0.0; 
stroke:#000000; stroke-width:-0.000393701; stroke-opacity:1; 
stroke-linecap:round; stroke-linejoin:round;">
</g>
<g style="fill:#000000; fill-opacity:0.0; 
stroke:#000000; stroke-width:196.85; stroke-opacity:1; 
stroke-linecap:round; stroke-linejoin:round;">
<path d="M82801 28300
L82800 53700
" />
<path d="M73200 53700
L73200 28300
" />
<path d="M73200 28300
L82800 28300
" />
<path d="M82800 53700
L73200 53700
" />
</g>
<g style="fill:#000000; fill-opacity:0.0; 
stroke:#000000; stroke-width:39.3701; stroke-opacity:1; 
stroke-linecap:round; stroke-linejoin:round;">
<path d="M75880 50061
L77139 50061
" />
<path d="M77139 50061
L77139 50690
" />
<path d="M77139 50690
L75880 50690
" />
<path d="M75880 50690
L75880 50061
" />
<g >
</g>
<g >
</g>
<g >
</g>
<g >
</g>
<g >
</g>
<g >
</g>
<g >
</g>
<g >
</g>
<g >
</g>
<g >
</g>
<g >
</g>
<g >
</g>
<g >
</g>
<g >
</g>
<g >
</g>
<g >
</g>
<g >
</g>
<g >
</g>
<g >
</g>
<g >
</g>
<g >
</g>
<g >
</g>
<g >
</g>
<g >
</g>
<g >
</g>
<g >
</g>
<g >
</g>
<g >
</g>
<g >
</g>
<g >
</g>
<g >
</g>
<g >
</g>
<g >
</g>
<g >
</g>
<g >
</g>
<g >
</g>
<g >
</g>
<g >
</g>
<g >
</g>
<g >
</g>
<g >
</g>
<g >
</g>
<g >
</g>
<g >
</g>
<g >
</g>
<g >
</g>
<g >
</g>
<g >
</g>
<g >
</g>
<g >
</g>
<g >
</g>
</g>
<g style="fill:#000000; fill-opacity:0.0; 
stroke:#000000; stroke-width:39.3701; stroke-opacity:1; 
stroke-linecap:round; stroke-linejoin:round;">
</g>
<g style="fill:#000000; fill-opacity:0.0; 
stroke:#000000; stroke-width:59.0551; stroke-opacity:1; 
stroke-linecap:round; stroke-linejoin:round;">
<g class="stroked-text"><desc>CONN_01X01</desc>
<path d="M72415 29940
L72397 29959
L72340 29978
L72303 29978
L72247 29959
L72209 29921
L72190 29884
L72172 29809
L72172 29753
L72190 29678
L72209 29640
L72247 29603
L72303 29584
L72340 29584
L72397 29603
L72415 29621
" />
<path d="M72659 29584
L72734 29584
L72772 29603
L72809 29640
L72828 29715
L72828 29846
L72809 29921
L72772 29959
L72734 29978
L72659 29978
L72622 29959
L72584 29921
L72565 29846
L72565 29715
L72584 29640
L72622 29603
L72659 29584
" />
<path d="M72997 29978
L72997 29584
L73221 29978
L73221 29584
" />
<path d="M73409 29978
L73409 29584
L73634 29978
L73634 29584
" />
<path d="M73728 30015
L74028 30015
" />
<path d="M74196 29584
L74234 29584
L74271 29603
L74290 29621
L74309 29659
L74328 29734
L74328 29828
L74309 29903
L74290 29940
L74271 29959
L74234 29978
L74196 29978
L74159 29959
L74140 29940
L74121 29903
L74103 29828
L74103 29734
L74121 29659
L74140 29621
L74159 29603
L74196 29584
" />
<path d="M74703 29978
L74478 29978
" />
<path d="M74590 29978
L74590 29584
L74553 29640
L74515 29678
L74478 29696
" />
<path d="M74834 29584
L75096 29978
" />
<path d="M75096 29584
L74834 29978
" />
<path d="M75321 29584
L75359 29584
L75396 29603
L75415 29621
L75434 29659
L75452 29734
L75452 29828
L75434 29903
L75415 29940
L75396 29959
L75359 29978
L75321 29978
L75284 29959
L75265 29940
L75246 29903
L75227 29828
L75227 29734
L75246 29659
L75265 29621
L75284 29603
L75321 29584
" />
<path d="M75827 29978
L75602 29978
" />
<path d="M75715 29978
L75715 29584
L75677 29640
L75640 29678
L75602 29696
" />
</g><g class="stroked-text"><desc>CONN_01X01</desc>
<path d="M72415 53940
L72397 53959
L72340 53978
L72303 53978
L72247 53959
L72209 53921
L72190 53884
L72172 53809
L72172 53753
L72190 53678
L72209 53640
L72247 53603
L72303 53584
L72340 53584
L72397 53603
L72415 53621
" />
<path d="M72659 53584
L72734 53584
L72772 53603
L72809 53640
L72828 53715
L72828 53846
L72809 53921
L72772 53959
L72734 53978
L72659 53978
L72622 53959
L72584 53921
L72565 53846
L72565 53715
L72584 53640
L72622 53603
L72659 53584
" />
<path d="M72997 53978
L72997 53584
L73221 53978
L73221 53584
" />
<path d="M73409 53978
L73409 53584
L73634 53978
L73634 53584
" />
<path d="M73728 54015
L74028 54015
" />
<path d="M74196 53584
L74234 53584
L74271 53603
L74290 53621
L74309 53659
L74328 53734
L74328 53828
L74309 53903
L74290 53940
L74271 53959
L74234 53978
L74196 53978
L74159 53959
L74140 53940
L74121 53903
L74103 53828
L74103 53734
L74121 53659
L74140 53621
L74159 53603
L74196 53584
" />
<path d="M74703 53978
L74478 53978
" />
<path d="M74590 53978
L74590 53584
L74553 53640
L74515 53678
L74478 53696
" />
<path d="M74834 53584
L75096 53978
" />
<path d="M75096 53584
L74834 53978
" />
<path d="M75321 53584
L75359 53584
L75396 53603
L75415 53621
L75434 53659
L75452 53734
L75452 53828
L75434 53903
L75415 53940
L75396 53959
L75359 53978
L75321 53978
L75284 53959
L75265 53940
L75246 53903
L75227 53828
L75227 53734
L75246 53659
L75265 53621
L75284 53603
L75321 53584
" />
<path d="M75827 53978
L75602 53978
" />
<path d="M75715 53978
L75715 53584
L75677 53640
L75640 53678
L75602 53696
" />
</g><g class="stroked-text"><desc>CONN_01X01</desc>
<path d="M80415 53940
L80397 53959
L80340 53978
L80303 53978
L80247 53959
L80209 53921
L80190 53884
L80172 53809
L80172 53753
L80190 53678
L80209 53640
L80247 53603
L80303 53584
L80340 53584
L80397 53603
L80415 53621
" />
<path d="M80659 53584
L80734 53584
L80772 53603
L80809 53640
L80828 53715
L80828 53846
L80809 53921
L80772 53959
L80734 53978
L80659 53978
L80622 53959
L80584 53921
L80565 53846
L80565 53715
L80584 53640
L80622 53603
L80659 53584
" />
<path d="M80997 53978
L80997 53584
L81221 53978
L81221 53584
" />
<path d="M81409 53978
L81409 53584
L81634 53978
L81634 53584
" />
<path d="M81728 54015
L82028 54015
" />
<path d="M82196 53584
L82234 53584
L82271 53603
L82290 53621
L82309 53659
L82328 53734
L82328 53828
L82309 53903
L82290 53940
L82271 53959
L82234 53978
L82196 53978
L82159 53959
L82140 53940
L82121 53903
L82103 53828
L82103 53734
L82121 53659
L82140 53621
L82159 53603
L82196 53584
" />
<path d="M82703 53978
L82478 53978
" />
<path d="M82590 53978
L82590 53584
L82553 53640
L82515 53678
L82478 53696
" />
<path d="M82834 53584
L83096 53978
" />
<path d="M83096 53584
L82834 53978
" />
<path d="M83321 53584
L83359 53584
L83396 53603
L83415 53621
L83434 53659
L83452 53734
L83452 53828
L83434 53903
L83415 53940
L83396 53959
L83359 53978
L83321 53978
L83284 53959
L83265 53940
L83246 53903
L83227 53828
L83227 53734
L83246 53659
L83265 53621
L83284 53603
L83321 53584
" />
<path d="M83827 53978
L83602 53978
" />
<path d="M83715 53978
L83715 53584
L83677 53640
L83640 53678
L83602 53696
" />
</g><g class="stroked-text"><desc>CONN_01X01</desc>
<path d="M80415 29940
L80397 29959
L80340 29978
L80303 29978
L80247 29959
L80209 29921
L80190 29884
L80172 29809
L80172 29753
L80190 29678
L80209 29640
L80247 29603
L80303 29584
L80340 29584
L80397 29603
L80415 29621
" />
<path d="M80659 29584
L80734 29584
L80772 29603
L80809 29640
L80828 29715
L80828 29846
L80809 29921
L80772 29959
L80734 29978
L80659 29978
L80622 29959
L80584 29921
L80565 29846
L80565 29715
L80584 29640
L80622 29603
L80659 29584
" />
<path d="M80997 29978
L80997 29584
L81221 29978
L81221 29584
" />
<path d="M81409 29978
L81409 29584
L81634 29978
L81634 29584
" />
<path d="M81728 30015
L82028 30015
" />
<path d="M82196 29584
L82234 29584
L82271 29603
L82290 29621
L82309 29659
L82328 29734
L82328 29828
L82309 29903
L82290 29940
L82271 29959
L82234 29978
L82196 29978
L82159 29959
L82140 29940
L82121 29903
L82103 29828
L82103 29734
L82121 29659
L82140 29621
L82159 29603
L82196 29584
" />
<path d="M82703 29978
L82478 29978
" />
<path d="M82590 29978
L82590 29584
L82553 29640
L82515 29678
L82478 29696
" />
<path d="M82834 29584
L83096 29978
" />
<path d="M83096 29584
L82834 29978
" />
<path d="M83321 29584
L83359 29584
L83396 29603
L83415 29621
L83434 29659
L83452 29734
L83452 29828
L83434 29903
L83415 29940
L83396 29959
L83359 29978
L83321 29978
L83284 29959
L83265 29940
L83246 29903
L83227 29828
L83227 29734
L83246 29659
L83265 29621
L83284 29603
L83321 29584
" />
<path d="M83827 29978
L83602 29978
" />
<path d="M83715 29978
L83715 29584
L83677 29640
L83640 29678
L83602 29696
" />
</g><g class="stroked-text"><desc>GLED</desc>
<path d="M76263 32688
L76244 32725
L76244 32781
L76263 32838
L76300 32875
L76338 32894
L76413 32913
L76469 32913
L76544 32894
L76581 32875
L76619 32838
L76638 32781
L76638 32744
L76619 32688
L76600 32669
L76469 32669
L76469 32744
" />
<path d="M76638 32313
L76638 32500
L76244 32500
" />
<path d="M76431 32182
L76431 32050
" />
<path d="M76638 31994
L76638 32182
L76244 32182
L76244 31994
" />
<path d="M76638 31825
L76244 31825
L76244 31732
L76263 31675
L76300 31638
L76338 31619
L76413 31600
L76469 31600
L76544 31619
L76581 31638
L76619 31675
L76638 31732
L76638 31825
" />
</g><g class="stroked-text"><desc>CONN_6</desc>
<path d="M80361 29834
L80379 29853
L80398 29909
L80398 29946
L80379 30002
L80342 30040
L80304 30059
L80229 30077
L80173 30077
L80098 30059
L80061 30040
L80023 30002
L80004 29946
L80004 29909
L80023 29853
L80042 29834
" />
<path d="M80004 29590
L80004 29515
L80023 29478
L80061 29440
L80136 29421
L80267 29421
L80342 29440
L80379 29478
L80398 29515
L80398 29590
L80379 29628
L80342 29665
L80267 29684
L80136 29684
L80061 29665
L80023 29628
L80004 29590
" />
<path d="M80398 29253
L80004 29253
L80398 29028
L80004 29028
" />
<path d="M80398 28840
L80004 28840
L80398 28615
L80004 28615
" />
<path d="M80436 28521
L80436 28221
" />
<path d="M80004 27959
L80004 28034
L80023 28071
L80042 28090
L80098 28128
L80173 28146
L80323 28146
L80361 28128
L80379 28109
L80398 28071
L80398 27997
L80379 27959
L80361 27940
L80323 27922
L80229 27922
L80192 27940
L80173 27959
L80154 27997
L80154 28071
L80173 28109
L80192 28128
L80229 28146
" />
</g><g class="stroked-text"><desc>1k</desc>
<path d="M78976 34521
L78976 34746
" />
<path d="M78976 34634
L78582 34634
L78638 34671
L78676 34709
L78694 34746
" />
<path d="M78976 34353
L78582 34353
" />
<path d="M78826 34315
L78976 34203
" />
<path d="M78713 34203
L78863 34353
" />
</g><g class="stroked-text"><desc>10k</desc>
<path d="M80473 35738
L80473 35963
" />
<path d="M80473 35850
L80079 35850
L80135 35888
L80173 35925
L80191 35963
" />
<path d="M80079 35494
L80079 35457
L80098 35419
L80116 35400
L80154 35382
L80229 35363
L80323 35363
L80398 35382
L80435 35400
L80454 35419
L80473 35457
L80473 35494
L80454 35532
L80435 35550
L80398 35569
L80323 35588
L80229 35588
L80154 35569
L80116 35550
L80098 35532
L80079 35494
" />
<path d="M80473 35194
L80079 35194
" />
<path d="M80323 35157
L80473 35044
" />
<path d="M80210 35044
L80360 35194
" />
</g><g class="stroked-text"><desc>1k</desc>
<path d="M76528 34496
L76528 34721
" />
<path d="M76528 34609
L76134 34609
L76190 34646
L76228 34684
L76246 34721
" />
<path d="M76528 34328
L76134 34328
" />
<path d="M76378 34290
L76528 34178
" />
<path d="M76265 34178
L76415 34328
" />
</g><g class="stroked-text"><desc>SW_PUSH</desc>
<path d="M77115 35400
L77171 35419
L77265 35419
L77302 35400
L77321 35382
L77340 35344
L77340 35307
L77321 35269
L77302 35250
L77265 35232
L77190 35213
L77152 35194
L77133 35175
L77115 35138
L77115 35100
L77133 35063
L77152 35044
L77190 35025
L77283 35025
L77340 35044
" />
<path d="M77471 35025
L77565 35419
L77640 35138
L77715 35419
L77808 35025
" />
<path d="M77865 35457
L78165 35457
" />
<path d="M78258 35419
L78258 35025
L78408 35025
L78446 35044
L78464 35063
L78483 35100
L78483 35157
L78464 35194
L78446 35213
L78408 35232
L78258 35232
" />
<path d="M78652 35025
L78652 35344
L78671 35382
L78689 35400
L78727 35419
L78802 35419
L78839 35400
L78858 35382
L78877 35344
L78877 35025
" />
<path d="M79046 35400
L79102 35419
L79196 35419
L79233 35400
L79252 35382
L79271 35344
L79271 35307
L79252 35269
L79233 35250
L79196 35232
L79121 35213
L79083 35194
L79064 35175
L79046 35138
L79046 35100
L79064 35063
L79083 35044
L79121 35025
L79214 35025
L79271 35044
" />
<path d="M79439 35419
L79439 35025
" />
<path d="M79439 35213
L79664 35213
" />
<path d="M79664 35419
L79664 35025
" />
</g><g class="stroked-text"><desc>ATMEGA324PB-AU</desc>
<path d="M75294 40496
L75426 40629
" />
<path d="M75188 40550
L75559 40364
L75373 40735
" />
<path d="M75705 40510
L75864 40669
" />
<path d="M75506 40868
L75784 40589
" />
<path d="M75678 41040
L75957 40762
L75850 41053
L76142 40947
L75864 41226
" />
<path d="M76142 41212
L76235 41305
" />
<path d="M76129 41491
L75996 41358
L76275 41080
L76407 41212
" />
<path d="M76659 41491
L76646 41451
L76606 41411
L76553 41385
L76500 41385
L76460 41398
L76394 41438
L76354 41477
L76314 41544
L76301 41584
L76301 41637
L76328 41690
L76354 41716
L76407 41743
L76434 41743
L76527 41650
L76474 41597
" />
<path d="M76593 41796
L76725 41928
" />
<path d="M76487 41849
L76858 41663
L76672 42034
" />
<path d="M77017 41822
L77189 41994
L76991 42008
L77030 42048
L77044 42087
L77044 42114
L77030 42154
L76964 42220
L76924 42233
L76898 42233
L76858 42220
L76778 42140
L76765 42101
L76765 42074
" />
<path d="M77269 42127
L77295 42127
L77335 42140
L77401 42207
L77415 42246
L77415 42273
L77401 42313
L77375 42339
L77322 42366
L77004 42366
L77176 42538
" />
<path d="M77600 42591
L77415 42777
" />
<path d="M77640 42419
L77375 42551
L77547 42724
" />
<path d="M77561 42922
L77839 42644
L77945 42750
L77958 42790
L77958 42816
L77945 42856
L77905 42896
L77865 42909
L77839 42909
L77799 42896
L77693 42790
" />
<path d="M78078 43148
L78104 43201
L78104 43227
L78091 43267
L78051 43307
L78011 43320
L77985 43320
L77945 43307
L77839 43201
L78117 42922
L78210 43015
L78223 43055
L78223 43082
L78210 43121
L78184 43148
L78144 43161
L78117 43161
L78078 43148
L77985 43055
" />
<path d="M78223 43373
L78436 43585
" />
<path d="M78528 43731
L78661 43864
" />
<path d="M78422 43784
L78793 43599
L78608 43970
" />
<path d="M78979 43784
L78754 44009
L78740 44049
L78740 44076
L78754 44116
L78807 44169
L78846 44182
L78873 44182
L78913 44169
L79138 43943
" />
</g><g class="stroked-text"><desc>CRYSTAL</desc>
<path d="M76961 46095
L76940 46114
L76881 46133
L76843 46133
L76790 46114
L76757 46076
L76743 46039
L76733 45964
L76740 45908
L76768 45833
L76792 45795
L76834 45758
L76893 45739
L76930 45739
L76984 45758
L77000 45776
" />
<path d="M77350 46133
L77242 45945
" />
<path d="M77125 46133
L77174 45739
L77324 45739
L77359 45758
L77375 45776
L77390 45814
L77382 45870
L77359 45908
L77338 45926
L77298 45945
L77148 45945
" />
<path d="M77617 45945
L77593 46133
" />
<path d="M77511 45739
L77617 45945
L77774 45739
" />
<path d="M77839 46114
L77893 46133
L77987 46133
L78027 46114
L78048 46095
L78071 46058
L78076 46020
L78062 45983
L78046 45964
L78011 45945
L77938 45926
L77903 45908
L77886 45889
L77872 45851
L77877 45814
L77900 45776
L77921 45758
L77961 45739
L78055 45739
L78109 45758
" />
<path d="M78224 45739
L78449 45739
" />
<path d="M78287 46133
L78336 45739
" />
<path d="M78526 46020
L78714 46020
" />
<path d="M78475 46133
L78655 45739
L78737 46133
" />
<path d="M79056 46133
L78868 46133
L78917 45739
" />
</g><g class="stroked-text"><desc>Digital</desc>
<path d="M73137 28957
L73137 28563
L73231 28563
L73287 28582
L73325 28620
L73343 28657
L73362 28732
L73362 28788
L73343 28863
L73325 28901
L73287 28938
L73231 28957
L73137 28957
" />
<path d="M73531 28957
L73531 28695
" />
<path d="M73531 28563
L73512 28582
L73531 28601
L73550 28582
L73531 28563
L73531 28601
" />
<path d="M73887 28695
L73887 29013
L73868 29051
L73850 29070
L73812 29088
L73756 29088
L73718 29070
" />
<path d="M73887 28938
L73850 28957
L73775 28957
L73737 28938
L73718 28920
L73700 28882
L73700 28770
L73718 28732
L73737 28713
L73775 28695
L73850 28695
L73887 28713
" />
<path d="M74074 28957
L74074 28695
" />
<path d="M74074 28563
L74056 28582
L74074 28601
L74093 28582
L74074 28563
L74074 28601
" />
<path d="M74206 28695
L74356 28695
" />
<path d="M74262 28563
L74262 28901
L74281 28938
L74318 28957
L74356 28957
" />
<path d="M74656 28957
L74656 28751
L74637 28713
L74599 28695
L74524 28695
L74487 28713
" />
<path d="M74656 28938
L74618 28957
L74524 28957
L74487 28938
L74468 28901
L74468 28863
L74487 28826
L74524 28807
L74618 28807
L74656 28788
" />
<path d="M74899 28957
L74862 28938
L74843 28901
L74843 28563
" />
</g><g class="stroked-text"><desc>Analog</desc>
<path d="M81090 28845
L81278 28845
" />
<path d="M81053 28957
L81184 28563
L81315 28957
" />
<path d="M81446 28695
L81446 28957
" />
<path d="M81446 28732
L81465 28713
L81503 28695
L81559 28695
L81596 28713
L81615 28751
L81615 28957
" />
<path d="M81971 28957
L81971 28751
L81953 28713
L81915 28695
L81840 28695
L81803 28713
" />
<path d="M81971 28938
L81934 28957
L81840 28957
L81803 28938
L81784 28901
L81784 28863
L81803 28826
L81840 28807
L81934 28807
L81971 28788
" />
<path d="M82215 28957
L82178 28938
L82159 28901
L82159 28563
" />
<path d="M82421 28957
L82384 28938
L82365 28920
L82346 28882
L82346 28770
L82365 28732
L82384 28713
L82421 28695
L82478 28695
L82515 28713
L82534 28732
L82553 28770
L82553 28882
L82534 28920
L82515 28938
L82478 28957
L82421 28957
" />
<path d="M82890 28695
L82890 29013
L82871 29051
L82853 29070
L82815 29088
L82759 29088
L82721 29070
" />
<path d="M82890 28938
L82853 28957
L82778 28957
L82740 28938
L82721 28920
L82703 28882
L82703 28770
L82721 28732
L82740 28713
L82778 28695
L82853 28695
L82890 28713
" />
</g><g class="stroked-text"><desc>1u</desc>
<path d="M79125 49562
L78900 49562
" />
<path d="M79012 49562
L79012 49168
L78975 49224
L78937 49262
L78900 49280
" />
<path d="M79462 49299
L79462 49562
" />
<path d="M79294 49299
L79294 49505
L79312 49543
L79350 49562
L79406 49562
L79444 49543
L79462 49524
" />
</g><g class="stroked-text"><desc>0.1m</desc>
<path d="M78574 50166
L78612 50166
L78649 50185
L78668 50203
L78687 50241
L78705 50316
L78705 50410
L78687 50485
L78668 50522
L78649 50541
L78612 50560
L78574 50560
L78537 50541
L78518 50522
L78499 50485
L78480 50410
L78480 50316
L78499 50241
L78518 50203
L78537 50185
L78574 50166
" />
<path d="M78874 50522
L78893 50541
L78874 50560
L78855 50541
L78874 50522
L78874 50560
" />
<path d="M79268 50560
L79043 50560
" />
<path d="M79155 50560
L79155 50166
L79118 50222
L79080 50260
L79043 50278
" />
<path d="M79436 50560
L79436 50297
" />
<path d="M79436 50335
L79455 50316
L79493 50297
L79549 50297
L79586 50316
L79605 50353
L79605 50560
" />
<path d="M79605 50353
L79624 50316
L79661 50297
L79718 50297
L79755 50316
L79774 50353
L79774 50560
" />
</g><g class="stroked-text"><desc>GRED</desc>
<path d="M79298 32754
L79280 32792
L79280 32848
L79298 32904
L79336 32942
L79373 32960
L79448 32979
L79505 32979
L79580 32960
L79617 32942
L79655 32904
L79673 32848
L79673 32810
L79655 32754
L79636 32735
L79505 32735
L79505 32810
" />
<path d="M79673 32342
L79486 32473
" />
<path d="M79673 32567
L79280 32567
L79280 32417
L79298 32379
L79317 32360
L79355 32342
L79411 32342
L79448 32360
L79467 32379
L79486 32417
L79486 32567
" />
<path d="M79467 32173
L79467 32042
" />
<path d="M79673 31985
L79673 32173
L79280 32173
L79280 31985
" />
<path d="M79673 31817
L79280 31817
L79280 31723
L79298 31667
L79336 31629
L79373 31610
L79448 31592
L79505 31592
L79580 31610
L79617 31629
L79655 31667
L79673 31723
L79673 31817
" />
</g><g class="stroked-text"><desc>YLED</desc>
<path d="M77417 32820
L77605 32820
" />
<path d="M77211 32951
L77417 32820
L77211 32689
" />
<path d="M77605 32370
L77605 32557
L77211 32557
" />
<path d="M77398 32239
L77398 32107
" />
<path d="M77605 32051
L77605 32239
L77211 32239
L77211 32051
" />
<path d="M77605 31882
L77211 31882
L77211 31789
L77230 31732
L77267 31695
L77305 31676
L77380 31657
L77436 31657
L77511 31676
L77548 31695
L77586 31732
L77605 31789
L77605 31882
" />
</g><g class="stroked-text"><desc>YLED</desc>
<path d="M78473 32821
L78661 32821
" />
<path d="M78267 32952
L78473 32821
L78267 32690
" />
<path d="M78661 32371
L78661 32558
L78267 32558
" />
<path d="M78454 32240
L78454 32108
" />
<path d="M78661 32052
L78661 32240
L78267 32240
L78267 32052
" />
<path d="M78661 31883
L78267 31883
L78267 31790
L78286 31733
L78323 31696
L78361 31677
L78436 31658
L78492 31658
L78567 31677
L78604 31696
L78642 31733
L78661 31790
L78661 31883
" />
</g><g class="stroked-text"><desc>Fuse</desc>
<path d="M76030 50387
L75898 50387
" />
<path d="M75898 50594
L75898 50200
L76086 50200
" />
<path d="M76405 50331
L76405 50594
" />
<path d="M76236 50331
L76236 50537
L76255 50575
L76292 50594
L76348 50594
L76386 50575
L76405 50556
" />
<path d="M76573 50575
L76611 50594
L76686 50594
L76723 50575
L76742 50537
L76742 50519
L76723 50481
L76686 50462
L76629 50462
L76592 50444
L76573 50406
L76573 50387
L76592 50350
L76629 50331
L76686 50331
L76723 50350
" />
<path d="M77061 50575
L77023 50594
L76948 50594
L76911 50575
L76892 50537
L76892 50387
L76911 50350
L76948 50331
L77023 50331
L77061 50350
L77079 50387
L77079 50425
L76892 50462
" />
</g><g class="stroked-text"><desc>ferite_bead</desc>
<path d="M79359 53792
L79359 53642
" />
<path d="M79622 53736
L79284 53736
L79247 53717
L79228 53680
L79228 53642
" />
<path d="M79603 53361
L79622 53398
L79622 53473
L79603 53511
L79565 53530
L79415 53530
L79378 53511
L79359 53473
L79359 53398
L79378 53361
L79415 53342
L79453 53342
L79490 53530
" />
<path d="M79622 53173
L79359 53173
" />
<path d="M79434 53173
L79397 53155
L79378 53136
L79359 53098
L79359 53061
" />
<path d="M79622 52930
L79359 52930
" />
<path d="M79228 52930
L79247 52948
L79265 52930
L79247 52911
L79228 52930
L79265 52930
" />
<path d="M79359 52798
L79359 52648
" />
<path d="M79228 52742
L79565 52742
L79603 52723
L79622 52686
L79622 52648
" />
<path d="M79603 52367
L79622 52405
L79622 52480
L79603 52517
L79565 52536
L79415 52536
L79378 52517
L79359 52480
L79359 52405
L79378 52367
L79415 52348
L79453 52348
L79490 52536
" />
<path d="M79659 52273
L79659 51974
" />
<path d="M79622 51880
L79228 51880
" />
<path d="M79378 51880
L79359 51842
L79359 51767
L79378 51730
L79397 51711
L79434 51692
L79547 51692
L79584 51711
L79603 51730
L79622 51767
L79622 51842
L79603 51880
" />
<path d="M79603 51374
L79622 51411
L79622 51486
L79603 51524
L79565 51542
L79415 51542
L79378 51524
L79359 51486
L79359 51411
L79378 51374
L79415 51355
L79453 51355
L79490 51542
" />
<path d="M79622 51017
L79415 51017
L79378 51036
L79359 51074
L79359 51149
L79378 51186
" />
<path d="M79603 51017
L79622 51055
L79622 51149
L79603 51186
L79565 51205
L79528 51205
L79490 51186
L79472 51149
L79472 51055
L79453 51017
" />
<path d="M79622 50661
L79228 50661
" />
<path d="M79603 50661
L79622 50699
L79622 50774
L79603 50811
L79584 50830
L79547 50849
L79434 50849
L79397 50830
L79378 50811
L79359 50774
L79359 50699
L79378 50661
" />
</g><g class="stroked-text"><desc>1k</desc>
<path d="M77361 35122
L77361 35347
" />
<path d="M77361 35235
L76967 35235
L77023 35272
L77061 35310
L77079 35347
" />
<path d="M77361 34954
L76967 34954
" />
<path d="M77211 34916
L77361 34804
" />
<path d="M77098 34804
L77248 34954
" />
</g><g class="stroked-text"><desc>1k</desc>
<path d="M78172 35101
L78172 35326
" />
<path d="M78172 35214
L77778 35214
L77834 35251
L77872 35289
L77890 35326
" />
<path d="M78172 34933
L77778 34933
" />
<path d="M78022 34895
L78172 34783
" />
<path d="M77909 34783
L78059 34933
" />
</g><g class="stroked-text"><desc>10k</desc>
<path d="M76406 49643
L76181 49643
" />
<path d="M76294 49643
L76294 49249
L76256 49305
L76219 49343
L76181 49361
" />
<path d="M76650 49249
L76687 49249
L76725 49268
L76744 49286
L76762 49324
L76781 49399
L76781 49493
L76762 49568
L76744 49605
L76725 49624
L76687 49643
L76650 49643
L76612 49624
L76594 49605
L76575 49568
L76556 49493
L76556 49399
L76575 49324
L76594 49286
L76612 49268
L76650 49249
" />
<path d="M76950 49643
L76950 49249
" />
<path d="M76987 49493
L77100 49643
" />
<path d="M77100 49380
L76950 49530
" />
</g><g class="stroked-text"><desc>16Mhz</desc>
<path d="M75432 38249
L75305 38377
" />
<path d="M75369 38313
L75146 38090
L75157 38143
L75157 38186
L75146 38218
" />
<path d="M75401 37836
L75358 37878
L75348 37910
L75348 37931
L75358 37984
L75390 38037
L75475 38122
L75507 38133
L75528 38133
L75560 38122
L75602 38080
L75613 38048
L75613 38027
L75602 37995
L75549 37942
L75517 37931
L75496 37931
L75464 37942
L75422 37984
L75411 38016
L75411 38037
L75422 38069
" />
<path d="M75740 37942
L75517 37719
L75751 37804
L75666 37571
L75888 37793
" />
<path d="M75994 37687
L75772 37465
" />
<path d="M76090 37592
L75973 37475
L75941 37465
L75910 37475
L75878 37507
L75867 37539
L75867 37560
" />
<path d="M76026 37358
L76143 37242
L76175 37507
L76291 37390
" />
</g><g class="stroked-text"><desc>USB_B_Micro</desc>
<path d="M76278 53754
L76278 54072
L76297 54110
L76316 54129
L76353 54147
L76428 54147
L76466 54129
L76485 54110
L76503 54072
L76503 53754
" />
<path d="M76672 54129
L76728 54147
L76822 54147
L76860 54129
L76878 54110
L76897 54072
L76897 54035
L76878 53997
L76860 53979
L76822 53960
L76747 53941
L76710 53922
L76691 53904
L76672 53866
L76672 53829
L76691 53791
L76710 53772
L76747 53754
L76841 53754
L76897 53772
" />
<path d="M77197 53941
L77253 53960
L77272 53979
L77291 54016
L77291 54072
L77272 54110
L77253 54129
L77216 54147
L77066 54147
L77066 53754
L77197 53754
L77235 53772
L77253 53791
L77272 53829
L77272 53866
L77253 53904
L77235 53922
L77197 53941
L77066 53941
" />
<path d="M77366 54185
L77666 54185
" />
<path d="M77891 53941
L77947 53960
L77966 53979
L77985 54016
L77985 54072
L77966 54110
L77947 54129
L77910 54147
L77760 54147
L77760 53754
L77891 53754
L77928 53772
L77947 53791
L77966 53829
L77966 53866
L77947 53904
L77928 53922
L77891 53941
L77760 53941
" />
<path d="M78060 54185
L78359 54185
" />
<path d="M78453 54147
L78453 53754
L78584 54035
L78716 53754
L78716 54147
" />
<path d="M78903 54147
L78903 53885
" />
<path d="M78903 53754
L78884 53772
L78903 53791
L78922 53772
L78903 53754
L78903 53791
" />
<path d="M79259 54129
L79222 54147
L79147 54147
L79109 54129
L79091 54110
L79072 54072
L79072 53960
L79091 53922
L79109 53904
L79147 53885
L79222 53885
L79259 53904
" />
<path d="M79428 54147
L79428 53885
" />
<path d="M79428 53960
L79447 53922
L79466 53904
L79503 53885
L79541 53885
" />
<path d="M79728 54147
L79691 54129
L79672 54110
L79653 54072
L79653 53960
L79672 53922
L79691 53904
L79728 53885
L79784 53885
L79822 53904
L79841 53922
L79859 53960
L79859 54072
L79841 54110
L79822 54129
L79784 54147
L79728 54147
" />
</g><g >
</g>
</g> 
</svg>
