<?xml version="1.0" standalone="no"?>
 <!DOCTYPE svg PUBLIC "-//W3C//DTD SVG 1.1//EN" 
 "http://www.w3.org/Graphics/SVG/1.1/DTD/svg11.dtd"> 
<svg xmlns="http://www.w3.org/2000/svg" version="1.1" 
    width="29.7002cm" height="21.0007cm" viewBox="0 0 116930 82680 ">
<title>SVG Picture created as arduino_nano324-B_SilkS.svg date 2019/02/10 21:42:41 </title>
  <desc>Picture generated by PCBNEW </desc>
<g style="fill:#000000; fill-opacity:1;stroke:#000000; stroke-opacity:1;
stroke-linecap:round; stroke-linejoin:round; "
 transform="translate(0 0) scale(1 1)">
</g>
<g style="fill:#000000; fill-opacity:0.0; 
stroke:#000000; stroke-width:-0.000393701; stroke-opacity:1; 
stroke-linecap:round; stroke-linejoin:round;">
</g>
<g style="fill:#000000; fill-opacity:0.0; 
stroke:#000000; stroke-width:196.85; stroke-opacity:1; 
stroke-linecap:round; stroke-linejoin:round;">
<path d="M73200 28300
L82800 28300
" />
<path d="M82800 25000
L73200 25000
" />
<path d="M82800 25000
L82800 53700
" />
<path d="M73200 53700
L73200 25000
" />
<path d="M82800 53700
L73200 53700
" />
</g>
<g style="fill:#000000; fill-opacity:0.0; 
stroke:#000000; stroke-width:50; stroke-opacity:1; 
stroke-linecap:round; stroke-linejoin:round;">
<circle cx="77596" cy="37169.6" r="118.11" /> 
<path d="M78658 34925
L77281 34925
" />
<path d="M77281 37484
L78658 37484
" />
</g>
<g style="fill:#000000; fill-opacity:0.0; 
stroke:#000000; stroke-width:59.0551; stroke-opacity:1; 
stroke-linecap:round; stroke-linejoin:round;">
<path d="M76946 39134
L76553 39134
" />
<path d="M76553 38465
L76946 38465
" />
<path d="M79003 41065
L79396 41065
" />
<path d="M79396 41734
L79003 41734
" />
<path d="M76905 34163
L77298 34163
" />
<path d="M77298 34832
L76905 34832
" />
<path d="M77218 31410
L76825 31410
" />
<path d="M76825 30741
L77218 30741
" />
<path d="M78979 38475
L79372 38475
" />
<path d="M79372 39144
L78979 39144
" />
<path d="M79034 31388
L78641 31388
" />
<path d="M78641 30719
L79034 30719
" />
<path d="M79368 38302
L78975 38302
" />
<path d="M78975 37633
L79368 37633
" />
<path d="M76300 48925
L76300 49075
" />
<path d="M76300 48525
L76300 48675
" />
<path d="M76300 48675
L76150 48925
" />
<path d="M76150 48925
L76450 48925
" />
<path d="M76450 48925
L76300 48675
" />
<path d="M76100 48675
L76500 48675
" />
<path d="M76654 48012
L76654 49406
" />
<path d="M75945 48012
L75945 49406
" />
<path d="M79107 34502
L79257 34502
" />
<path d="M78707 34502
L78857 34502
" />
<path d="M78857 34502
L79107 34652
" />
<path d="M79107 34652
L79107 34352
" />
<path d="M79107 34352
L78857 34502
" />
<path d="M78857 34702
L78857 34302
" />
<path d="M78194 34147
L79588 34147
" />
<path d="M78194 34856
L79588 34856
" />
</g>
<g style="fill:#000000; fill-opacity:0.0; 
stroke:#000000; stroke-width:47.2441; stroke-opacity:1; 
stroke-linecap:round; stroke-linejoin:round;">
<path d="M75878 50494
L75878 51281
" />
<path d="M76721 51281
L76721 50494
" />
</g>
<g style="fill:#000000; fill-opacity:0.0; 
stroke:#000000; stroke-width:59.0551; stroke-opacity:1; 
stroke-linecap:round; stroke-linejoin:round;">
<path d="M78336 51855
L77863 51855
" />
<path d="M77863 52544
L78336 52544
" />
<path d="M77863 53414
L78336 53414
" />
<path d="M78336 52725
L77863 52725
" />
<path d="M77002 37599
L76530 37599
" />
<path d="M76530 38288
L77002 38288
" />
<path d="M78912 48872
L78705 48872
" />
<path d="M77219 50565
L77426 50565
" />
<path d="M77219 48872
L77426 48872
" />
<path d="M78912 50565
L78912 50358
" />
<path d="M77219 50565
L77219 50358
" />
<path d="M77219 48872
L77219 49079
" />
<path d="M78912 48872
L78912 49079
" />
</g>
<g style="fill:#000000; fill-opacity:0.0; 
stroke:#000000; stroke-width:50; stroke-opacity:1; 
stroke-linecap:round; stroke-linejoin:round;">
<path d="M77271 34044
L78648 34044
" />
<path d="M78648 31485
L77271 31485
" />
<circle cx="77586" cy="33729.6" r="118.11" /> 
<svg:g >
</g>
<svg:g >
</g>
<svg:g >
</g>
<svg:g >
</g>
<svg:g >
</g>
<svg:g >
</g>
<svg:g >
</g>
<svg:g >
</g>
<svg:g >
</g>
<svg:g >
</g>
<svg:g >
</g>
<svg:g >
</g>
<svg:g >
</g>
<svg:g >
</g>
<svg:g >
</g>
<svg:g >
</g>
<svg:g >
</g>
<svg:g >
</g>
<svg:g >
</g>
<svg:g >
</g>
<svg:g >
</g>
<svg:g >
</g>
<svg:g >
</g>
<svg:g >
</g>
<svg:g >
</g>
<svg:g >
</g>
<svg:g >
</g>
<svg:g >
</g>
<svg:g >
</g>
<svg:g >
</g>
<svg:g >
</g>
<svg:g >
</g>
<svg:g >
</g>
<svg:g >
</g>
<svg:g >
</g>
<svg:g >
</g>
<svg:g >
</g>
<svg:g >
</g>
<svg:g >
</g>
</g>
<g style="fill:#000000; fill-opacity:0.0; 
stroke:#000000; stroke-width:30; stroke-opacity:1; 
stroke-linecap:round; stroke-linejoin:round;">
<path d="M78343 36989
L78343 37248
L78328 37279
L78313 37294
L78282 37309
L78221 37309
L78191 37294
L78176 37279
L78160 37248
L78160 36989
" />
<path d="M77871 37096
L77871 37309
" />
<path d="M77947 36974
L78023 37203
L77825 37203
" />
<path d="M78248 35803
L78096 35803
" />
<path d="M78279 35894
L78172 35574
L78065 35894
" />
<path d="M77959 35894
L77959 35574
L77837 35574
L77806 35590
L77791 35605
L77776 35635
L77776 35681
L77791 35711
L77806 35727
L77837 35742
L77959 35742
" />
<path d="M77471 35894
L77654 35894
" />
<path d="M77562 35894
L77562 35574
L77593 35620
L77623 35650
L77654 35666
" />
<path d="M77166 35894
L77349 35894
" />
<path d="M77258 35894
L77258 35574
L77288 35620
L77319 35650
L77349 35666
" />
<path d="M76861 35894
L77044 35894
" />
<path d="M76953 35894
L76953 35574
L76983 35620
L77014 35650
L77044 35666
" />
<path d="M76755 35574
L76541 35574
L76679 35894
" />
<path d="M76420 35772
L76176 35772
" />
<path d="M75871 35574
L76023 35574
L76039 35727
L76023 35711
L75993 35696
L75917 35696
L75886 35711
L75871 35727
L75856 35757
L75856 35833
L75871 35864
L75886 35879
L75917 35894
L75993 35894
L76023 35879
L76039 35864
" />
<path d="M75658 35574
L75627 35574
L75597 35590
L75581 35605
L75566 35635
L75551 35696
L75551 35772
L75566 35833
L75581 35864
L75597 35879
L75627 35894
L75658 35894
L75688 35879
L75703 35864
L75719 35833
L75734 35772
L75734 35696
L75719 35635
L75703 35605
L75688 35590
L75658 35574
" />
</g>
<g style="fill:#000000; fill-opacity:0.0; 
stroke:#000000; stroke-width:59.0551; stroke-opacity:1; 
stroke-linecap:round; stroke-linejoin:round;">
<path d="M75618 38726
L75637 38707
L75656 38651
L75656 38613
L75637 38557
L75599 38520
L75562 38501
L75487 38482
L75431 38482
L75356 38501
L75318 38520
L75281 38557
L75262 38613
L75262 38651
L75281 38707
L75300 38726
" />
<path d="M75431 38951
L75412 38913
L75393 38895
L75356 38876
L75337 38876
L75300 38895
L75281 38913
L75262 38951
L75262 39026
L75281 39063
L75300 39082
L75337 39101
L75356 39101
L75393 39082
L75412 39063
L75431 39026
L75431 38951
L75450 38913
L75468 38895
L75506 38876
L75581 38876
L75618 38895
L75637 38913
L75656 38951
L75656 39026
L75637 39063
L75618 39082
L75581 39101
L75506 39101
L75468 39082
L75450 39063
L75431 39026
" />
<path d="M80590 41334
L80609 41315
L80628 41259
L80628 41221
L80609 41165
L80571 41128
L80534 41109
L80459 41090
L80403 41090
L80328 41109
L80290 41128
L80253 41165
L80234 41221
L80234 41259
L80253 41315
L80271 41334
" />
<path d="M80271 41484
L80253 41503
L80234 41540
L80234 41634
L80253 41671
L80271 41690
L80309 41709
L80346 41709
L80403 41690
L80628 41465
L80628 41709
" />
<path d="M75940 34484
L75959 34465
L75978 34409
L75978 34371
L75959 34315
L75921 34278
L75884 34259
L75809 34240
L75753 34240
L75678 34259
L75640 34278
L75603 34315
L75584 34371
L75584 34409
L75603 34465
L75621 34484
" />
<path d="M75978 34859
L75978 34634
" />
<path d="M75978 34746
L75584 34746
L75640 34709
L75678 34671
L75696 34634
" />
<path d="M75890 30984
L75909 30965
L75928 30909
L75928 30871
L75909 30815
L75871 30778
L75834 30759
L75759 30740
L75703 30740
L75628 30759
L75590 30778
L75553 30815
L75534 30871
L75534 30909
L75553 30965
L75571 30984
" />
<path d="M75534 31321
L75534 31246
L75553 31209
L75571 31190
L75628 31153
L75703 31134
L75853 31134
L75890 31153
L75909 31171
L75928 31209
L75928 31284
L75909 31321
L75890 31340
L75853 31359
L75759 31359
L75721 31340
L75703 31321
L75684 31284
L75684 31209
L75703 31171
L75721 31153
L75759 31134
" />
<path d="M80540 38734
L80559 38715
L80578 38659
L80578 38621
L80559 38565
L80521 38528
L80484 38509
L80409 38490
L80353 38490
L80278 38509
L80240 38528
L80203 38565
L80184 38621
L80184 38659
L80203 38715
L80221 38734
" />
<path d="M80184 39090
L80184 38903
L80371 38884
L80353 38903
L80334 38940
L80334 39034
L80353 39071
L80371 39090
L80409 39109
L80503 39109
L80540 39090
L80559 39071
L80578 39034
L80578 38940
L80559 38903
L80540 38884
" />
<path d="M80290 30934
L80309 30915
L80328 30859
L80328 30821
L80309 30765
L80271 30728
L80234 30709
L80159 30690
L80103 30690
L80028 30709
L79990 30728
L79953 30765
L79934 30821
L79934 30859
L79953 30915
L79971 30934
" />
<path d="M79934 31065
L79934 31328
L80328 31159
" />
<path d="M80540 37884
L80559 37865
L80578 37809
L80578 37771
L80559 37715
L80521 37678
L80484 37659
L80409 37640
L80353 37640
L80278 37659
L80240 37678
L80203 37715
L80184 37771
L80184 37809
L80203 37865
L80221 37884
" />
<path d="M80578 38071
L80578 38146
L80559 38184
L80540 38203
L80484 38240
L80409 38259
L80259 38259
L80221 38240
L80203 38221
L80184 38184
L80184 38109
L80203 38071
L80221 38053
L80259 38034
L80353 38034
L80390 38053
L80409 38071
L80428 38109
L80428 38184
L80409 38221
L80390 38240
L80353 38259
" />
<path d="M75628 48509
L75234 48509
L75234 48603
L75253 48659
L75290 48696
L75328 48715
L75403 48734
L75459 48734
L75534 48715
L75571 48696
L75609 48659
L75628 48603
L75628 48509
" />
<path d="M75234 49090
L75234 48903
L75421 48884
L75403 48903
L75384 48940
L75384 49034
L75403 49071
L75421 49090
L75459 49109
L75553 49109
L75590 49090
L75609 49071
L75628 49034
L75628 48940
L75609 48903
L75590 48884
" />
<path d="M80378 34259
L79984 34259
L79984 34353
L80003 34409
L80040 34446
L80078 34465
L80153 34484
L80209 34484
L80284 34465
L80321 34446
L80359 34409
L80378 34353
L80378 34259
" />
<path d="M79984 34821
L79984 34746
L80003 34709
L80021 34690
L80078 34653
L80153 34634
L80303 34634
L80340 34653
L80359 34671
L80378 34709
L80378 34784
L80359 34821
L80340 34840
L80303 34859
L80209 34859
L80171 34840
L80153 34821
L80134 34784
L80134 34709
L80153 34671
L80171 34653
L80209 34634
" />
<path d="M75405 50737
L75405 50605
" />
<path d="M75611 50605
L75218 50605
L75218 50793
" />
<path d="M75611 51149
L75611 50924
" />
<path d="M75611 51037
L75218 51037
L75274 50999
L75311 50962
L75330 50924
" />
<path d="M80328 52134
L80140 52003
" />
<path d="M80328 51909
L79934 51909
L79934 52059
L79953 52096
L79971 52115
L80009 52134
L80065 52134
L80103 52115
L80121 52096
L80140 52059
L80140 51909
" />
<path d="M80328 52509
L80328 52284
" />
<path d="M80328 52396
L79934 52396
L79990 52359
L80028 52321
L80046 52284
" />
<path d="M80328 52984
L80140 52853
" />
<path d="M80328 52759
L79934 52759
L79934 52909
L79953 52946
L79971 52965
L80009 52984
L80065 52984
L80103 52965
L80121 52946
L80140 52909
L80140 52759
" />
<path d="M79971 53134
L79953 53153
L79934 53190
L79934 53284
L79953 53321
L79971 53340
L80009 53359
L80046 53359
L80103 53340
L80328 53115
L80328 53359
" />
<path d="M75678 37934
L75490 37803
" />
<path d="M75678 37709
L75284 37709
L75284 37859
L75303 37896
L75321 37915
L75359 37934
L75415 37934
L75453 37915
L75471 37896
L75490 37859
L75490 37709
" />
<path d="M75453 38159
L75434 38121
L75415 38103
L75378 38084
L75359 38084
L75321 38103
L75303 38121
L75284 38159
L75284 38234
L75303 38271
L75321 38290
L75359 38309
L75378 38309
L75415 38290
L75434 38271
L75453 38234
L75453 38159
L75471 38121
L75490 38103
L75528 38084
L75603 38084
L75640 38103
L75659 38121
L75678 38159
L75678 38234
L75659 38271
L75640 38290
L75603 38309
L75528 38309
L75490 38290
L75471 38271
L75453 38234
" />
<path d="M79234 49400
L79553 49400
L79590 49418
L79609 49437
L79628 49475
L79628 49550
L79609 49587
L79590 49606
L79553 49625
L79234 49625
" />
<path d="M79271 49793
L79253 49812
L79234 49849
L79234 49943
L79253 49981
L79271 49999
L79309 50018
L79346 50018
L79403 49999
L79628 49774
L79628 50018
" />
</g>
<g style="fill:#000000; fill-opacity:0.0; 
stroke:#000000; stroke-width:30; stroke-opacity:1; 
stroke-linecap:round; stroke-linejoin:round;">
<path d="M78333 33549
L78333 33808
L78318 33839
L78303 33854
L78272 33869
L78211 33869
L78181 33854
L78166 33839
L78150 33808
L78150 33549
" />
<path d="M78029 33549
L77830 33549
L77937 33671
L77891 33671
L77861 33686
L77846 33702
L77830 33732
L77830 33808
L77846 33839
L77861 33854
L77891 33869
L77983 33869
L78013 33854
L78029 33839
" />
<path d="M78248 32353
L78096 32353
" />
<path d="M78279 32444
L78172 32124
L78065 32444
" />
<path d="M77959 32444
L77959 32124
L77837 32124
L77806 32140
L77791 32155
L77776 32185
L77776 32231
L77791 32261
L77806 32277
L77837 32292
L77959 32292
" />
<path d="M77471 32444
L77654 32444
" />
<path d="M77562 32444
L77562 32124
L77593 32170
L77623 32200
L77654 32216
" />
<path d="M77166 32444
L77349 32444
" />
<path d="M77258 32444
L77258 32124
L77288 32170
L77319 32200
L77349 32216
" />
<path d="M76861 32444
L77044 32444
" />
<path d="M76953 32444
L76953 32124
L76983 32170
L77014 32200
L77044 32216
" />
<path d="M76755 32124
L76541 32124
L76679 32444
" />
<path d="M76420 32322
L76176 32322
" />
<path d="M75871 32124
L76023 32124
L76039 32277
L76023 32261
L75993 32246
L75917 32246
L75886 32261
L75871 32277
L75856 32307
L75856 32383
L75871 32414
L75886 32429
L75917 32444
L75993 32444
L76023 32429
L76039 32414
" />
<path d="M75658 32124
L75627 32124
L75597 32140
L75581 32155
L75566 32185
L75551 32246
L75551 32322
L75566 32383
L75581 32414
L75597 32429
L75627 32444
L75658 32444
L75688 32429
L75703 32414
L75719 32383
L75734 32322
L75734 32246
L75719 32185
L75703 32155
L75688 32140
L75658 32124
" />
<svg:g >
</g>
</g> 
</svg>
