<?xml version="1.0" encoding="UTF-8" standalone="no"?>
<svg
   xmlns:dc="http://purl.org/dc/elements/1.1/"
   xmlns:cc="http://creativecommons.org/ns#"
   xmlns:rdf="http://www.w3.org/1999/02/22-rdf-syntax-ns#"
   xmlns:svg="http://www.w3.org/2000/svg"
   xmlns="http://www.w3.org/2000/svg"
   xmlns:sodipodi="http://sodipodi.sourceforge.net/DTD/sodipodi-0.dtd"
   xmlns:inkscape="http://www.inkscape.org/namespaces/inkscape"
   version="1.1"
   width="29.7002cm"
   height="21.0007cm"
   viewBox="0 0 116930 82680 "
   id="svg8319"
   inkscape:version="0.91 r13725"
   sodipodi:docname="arduino_nano324-F_SilkS.svg">
  <metadata
     id="metadata9225">
    <rdf:RDF>
      <cc:Work
         rdf:about="">
        <dc:format>image/svg+xml</dc:format>
        <dc:type
           rdf:resource="http://purl.org/dc/dcmitype/StillImage" />
        <dc:title>SVG Picture created as arduino_nano324-F_SilkS.svg date 2019/02/10 21:42:41 </dc:title>
      </cc:Work>
    </rdf:RDF>
  </metadata>
  <defs
     id="defs9223" />
  <sodipodi:namedview
     pagecolor="#ffffff"
     bordercolor="#666666"
     borderopacity="1"
     objecttolerance="10"
     gridtolerance="10"
     guidetolerance="10"
     inkscape:pageopacity="0"
     inkscape:pageshadow="2"
     inkscape:window-width="1855"
     inkscape:window-height="1056"
     id="namedview9221"
     showgrid="false"
     inkscape:zoom="0.28554616"
     inkscape:cx="573.78643"
     inkscape:cy="361.22363"
     inkscape:window-x="65"
     inkscape:window-y="24"
     inkscape:window-maximized="1"
     inkscape:current-layer="svg8319" />
  <title
     id="title8321">SVG Picture created as arduino_nano324-F_SilkS.svg date 2019/02/10 21:42:41 </title>
  <desc
     id="desc8323">Picture generated by PCBNEW </desc>
  <g
     style="fill:#000000; fill-opacity:1;stroke:#000000; stroke-opacity:1; stroke-linecap:round; stroke-linejoin:round; "
     id="g8325"
     transform="translate(0 0) scale(1 1)" />
  <g
     style="fill:#000000; fill-opacity:0.0;  stroke:#000000; stroke-width:-0.000393701; stroke-opacity:1;  stroke-linecap:round; stroke-linejoin:round;"
     id="g8327" />
  <g
     style="fill:#000000; fill-opacity:0.0;  stroke:#000000; stroke-width:39.3701; stroke-opacity:1;  stroke-linecap:round; stroke-linejoin:round;"
     id="g8329">
    <path
       d="M77455 30902 L77455 30587 L77560 30812 L77665 30587 L77665 30902 "
       id="path8331" />
    <path
       d="M77875 30587 L77935 30587 L77964 30602 L77994 30632 L78009 30692 L78009 30797 L77994 30857 L77964 30887 L77935 30902 L77875 30902 L77845 30887 L77815 30857 L77800 30797 L77800 30692 L77815 30632 L77845 30602 L77875 30587 "
       id="path8333" />
    <path
       d="M78129 30887 L78174 30902 L78249 30902 L78279 30887 L78294 30872 L78309 30842 L78309 30812 L78294 30782 L78279 30767 L78249 30752 L78189 30737 L78159 30722 L78144 30707 L78129 30677 L78129 30647 L78144 30617 L78159 30602 L78189 30587 L78264 30587 L78309 30602 "
       id="path8335" />
    <path
       d="M78444 30902 L78444 30587 "
       id="path8337" />
    <path
       d="M79952 30654 L79952 30414 "
       id="path8339" />
    <path
       d="M80072 30534 L79832 30534 "
       id="path8341" />
    <path
       d="M79757 30115 L79757 30264 L79907 30279 L79892 30264 L79877 30235 L79877 30160 L79892 30130 L79907 30115 L79937 30100 L80012 30100 L80042 30115 L80057 30130 L80072 30160 L80072 30235 L80057 30264 L80042 30279 "
       id="path8343" />
    <path
       d="M79757 30010 L80072 29905 L79757 29800 "
       id="path8345" />
    <path
       d="M80072 29414 L79757 29414 L79982 29309 L79757 29204 L80072 29204 "
       id="path8347" />
    <path
       d="M80072 29054 L79757 29054 "
       id="path8349" />
    <path
       d="M80057 28920 L80072 28875 L80072 28800 L80057 28770 L80042 28755 L80012 28740 L79982 28740 L79952 28755 L79937 28770 L79922 28800 L79907 28860 L79892 28890 L79877 28905 L79847 28920 L79817 28920 L79787 28905 L79772 28890 L79757 28860 L79757 28785 L79772 28740 "
       id="path8351" />
    <path
       d="M79757 28545 L79757 28485 L79772 28455 L79802 28425 L79862 28410 L79967 28410 L80027 28425 L80057 28455 L80072 28485 L80072 28545 L80057 28575 L80027 28605 L79967 28620 L79862 28620 L79802 28605 L79772 28575 L79757 28545 "
       id="path8353" />
    <path
       d="M75942 30439 L75927 30469 L75927 30514 L75942 30559 L75972 30589 L76002 30604 L76062 30619 L76107 30619 L76167 30604 L76197 30589 L76227 30559 L76242 30514 L76242 30484 L76227 30439 L76212 30424 L76107 30424 L76107 30484 "
       id="path8355" />
    <path
       d="M76242 30289 L75927 30289 L76242 30110 L75927 30110 "
       id="path8357" />
    <path
       d="M76242 29960 L75927 29960 L75927 29885 L75942 29840 L75972 29810 L76002 29795 L76062 29780 L76107 29780 L76167 29795 L76197 29810 L76227 29840 L76242 29885 L76242 29960 "
       id="path8359" />
    <path
       d="M76222 29082 L76072 29187 "
       id="path8361" />
    <path
       d="M76222 29262 L75907 29262 L75907 29142 L75922 29112 L75937 29097 L75967 29082 L76012 29082 L76042 29097 L76057 29112 L76072 29142 L76072 29262 "
       id="path8363" />
    <path
       d="M76207 28962 L76222 28917 L76222 28842 L76207 28812 L76192 28797 L76162 28782 L76132 28782 L76102 28797 L76087 28812 L76072 28842 L76057 28902 L76042 28932 L76027 28947 L75997 28962 L75967 28962 L75937 28947 L75922 28932 L75907 28902 L75907 28827 L75922 28782 "
       id="path8365" />
    <path
       d="M75907 28692 L75907 28512 "
       id="path8367" />
    <path
       d="M76222 28602 L75907 28602 "
       id="path8369" />
  </g>
  <g
     style="fill:#000000; fill-opacity:1.0;  stroke:#000000; stroke-width:39.3701; stroke-opacity:1;  stroke-linecap:round; stroke-linejoin:round;"
     id="g8371">
    <path
       style="fill:#000000; fill-opacity:1.0;  stroke:#000000; stroke-width:39.3701; stroke-opacity:1;  stroke-linecap:round; stroke-linejoin:round;fill-rule:evenodd;"
       d="M 80000,33990 75970,33990 75970,33290 80000,33290 Z"
       id="path8373" />
  </g>
  <g
     style="fill:#000000; fill-opacity:1.0;  stroke:#000000; stroke-width:196.85; stroke-opacity:1;  stroke-linecap:round; stroke-linejoin:round;"
     id="g8375" />
  <g
     style="fill:#000000; fill-opacity:0.0;  stroke:#000000; stroke-width:196.85; stroke-opacity:1;  stroke-linecap:round; stroke-linejoin:round;"
     id="g8377">
    <path
       d="M73200 28300 L82800 28300 "
       id="path8379" />
    <path
       d="M82800 25000 L73200 25000 "
       id="path8381" />
  </g>
  <g
     style="fill:#000000; fill-opacity:0.0;  stroke:#000000; stroke-width:39.3701; stroke-opacity:1;  stroke-linecap:round; stroke-linejoin:round;"
     id="g8383">
    <path
       d="M80927 50154 L80927 49959 L81047 50064 L81047 50019 L81062 49989 L81077 49974 L81107 49959 L81182 49959 L81212 49974 L81227 49989 L81242 50019 L81242 50109 L81227 50139 L81212 50154 "
       id="path8385" />
    <path
       d="M81242 49660 L81242 49840 "
       id="path8387" />
    <path
       d="M81242 49750 L80927 49750 L80972 49780 L81002 49810 L81017 49840 "
       id="path8389" />
    <path
       d="M80927 51154 L80927 50959 L81047 51064 L81047 51019 L81062 50989 L81077 50974 L81107 50959 L81182 50959 L81212 50974 L81227 50989 L81242 51019 L81242 51109 L81227 51139 L81212 51154 "
       id="path8391" />
    <path
       d="M80927 50765 L80927 50735 L80942 50705 L80957 50690 L80987 50675 L81047 50660 L81122 50660 L81182 50675 L81212 50690 L81227 50705 L81242 50735 L81242 50765 L81227 50795 L81212 50810 L81182 50825 L81122 50840 L81047 50840 L80987 50825 L80957 50810 L80942 50795 L80927 50765 "
       id="path8393" />
    <path
       d="M80957 52139 L80942 52124 L80927 52094 L80927 52019 L80942 51989 L80957 51974 L80987 51959 L81017 51959 L81062 51974 L81242 52154 L81242 51959 "
       id="path8395" />
    <path
       d="M81242 51810 L81242 51750 L81227 51720 L81212 51705 L81167 51675 L81107 51660 L80987 51660 L80957 51675 L80942 51690 L80927 51720 L80927 51780 L80942 51810 L80957 51825 L80987 51840 L81062 51840 L81092 51825 L81107 51810 L81122 51780 L81122 51720 L81107 51690 L81092 51675 L81062 51660 "
       id="path8397" />
    <path
       d="M74857 52139 L74842 52124 L74827 52094 L74827 52019 L74842 51989 L74857 51974 L74887 51959 L74917 51959 L74962 51974 L75142 52154 L75142 51959 "
       id="path8399" />
    <path
       d="M74962 51780 L74947 51810 L74932 51825 L74902 51840 L74887 51840 L74857 51825 L74842 51810 L74827 51780 L74827 51720 L74842 51690 L74857 51675 L74887 51660 L74902 51660 L74932 51675 L74947 51690 L74962 51720 L74962 51780 L74977 51810 L74992 51825 L75022 51840 L75082 51840 L75112 51825 L75127 51810 L75142 51780 L75142 51720 L75127 51690 L75112 51675 L75082 51660 L75022 51660 L74992 51675 L74977 51690 L74962 51720 "
       id="path8401" />
    <path
       d="M74857 51139 L74842 51124 L74827 51094 L74827 51019 L74842 50989 L74857 50974 L74887 50959 L74917 50959 L74962 50974 L75142 51154 L75142 50959 "
       id="path8403" />
    <path
       d="M74827 50855 L74827 50645 L75142 50780 "
       id="path8405" />
    <path
       d="M74857 50139 L74842 50124 L74827 50094 L74827 50019 L74842 49989 L74857 49974 L74887 49959 L74917 49959 L74962 49974 L75142 50154 L75142 49959 "
       id="path8407" />
    <path
       d="M74827 49690 L74827 49750 L74842 49780 L74857 49795 L74902 49825 L74962 49840 L75082 49840 L75112 49825 L75127 49810 L75142 49780 L75142 49720 L75127 49690 L75112 49675 L75082 49660 L75007 49660 L74977 49675 L74962 49690 L74947 49720 L74947 49780 L74962 49810 L74977 49825 L75007 49840 "
       id="path8409" />
    <path
       d="M81002 30322 L81317 30217 L81002 30112 "
       id="path8411" />
    <path
       d="M81317 30007 L81107 30007 "
       id="path8413" />
    <path
       d="M81002 30007 L81017 30022 L81032 30007 L81017 29992 L81002 30007 L81032 30007 "
       id="path8415" />
    <path
       d="M81107 29857 L81317 29857 "
       id="path8417" />
    <path
       d="M81137 29857 L81122 29842 L81107 29812 L81107 29767 L81122 29737 L81152 29722 L81317 29722 "
       id="path8419" />
    <path
       d="M80992 31214 L80977 31244 L80977 31289 L80992 31334 L81022 31364 L81052 31379 L81112 31394 L81157 31394 L81217 31379 L81247 31364 L81277 31334 L81292 31289 L81292 31259 L81277 31214 L81262 31199 L81157 31199 L81157 31259 "
       id="path8421" />
    <path
       d="M81292 31064 L80977 31064 L81292 30885 L80977 30885 "
       id="path8423" />
    <path
       d="M81292 30735 L80977 30735 L80977 30660 L80992 30615 L81022 30585 L81052 30570 L81112 30555 L81157 30555 L81217 30570 L81247 30585 L81277 30615 L81292 30660 L81292 30735 "
       id="path8425" />
    <path
       d="M81292 32122 L81142 32227 "
       id="path8427" />
    <path
       d="M81292 32302 L80977 32302 L80977 32182 L80992 32152 L81007 32137 L81037 32122 L81082 32122 L81112 32137 L81127 32152 L81142 32182 L81142 32302 "
       id="path8429" />
    <path
       d="M81277 32002 L81292 31957 L81292 31882 L81277 31852 L81262 31837 L81232 31822 L81202 31822 L81172 31837 L81157 31852 L81142 31882 L81127 31942 L81112 31972 L81097 31987 L81067 32002 L81037 32002 L81007 31987 L80992 31972 L80977 31942 L80977 31867 L80992 31822 "
       id="path8431" />
    <path
       d="M80977 31732 L80977 31552 "
       id="path8433" />
    <path
       d="M81292 31642 L80977 31642 "
       id="path8435" />
    <path
       d="M81227 33149 L81227 32999 "
       id="path8437" />
    <path
       d="M81317 33179 L81002 33074 L81317 32969 "
       id="path8439" />
    <path
       d="M81137 32820 L81122 32850 L81107 32865 L81077 32880 L81062 32880 L81032 32865 L81017 32850 L81002 32820 L81002 32760 L81017 32730 L81032 32715 L81062 32700 L81077 32700 L81107 32715 L81122 32730 L81137 32760 L81137 32820 L81152 32850 L81167 32865 L81197 32880 L81257 32880 L81287 32865 L81302 32850 L81317 32820 L81317 32760 L81302 32730 L81287 32715 L81257 32700 L81197 32700 L81167 32715 L81152 32730 L81137 32760 "
       id="path8441" />
    <path
       d="M81202 34174 L81202 34024 "
       id="path8443" />
    <path
       d="M81292 34204 L80977 34099 L81292 33994 "
       id="path8445" />
    <path
       d="M80977 33920 L80977 33710 L81292 33845 "
       id="path8447" />
    <path
       d="M81202 35174 L81202 35024 "
       id="path8449" />
    <path
       d="M81292 35204 L80977 35099 L81292 34994 "
       id="path8451" />
    <path
       d="M80977 34755 L80977 34815 L80992 34845 L81007 34860 L81052 34890 L81112 34905 L81232 34905 L81262 34890 L81277 34875 L81292 34845 L81292 34785 L81277 34755 L81262 34740 L81232 34725 L81157 34725 L81127 34740 L81112 34755 L81097 34785 L81097 34845 L81112 34875 L81127 34890 L81157 34905 "
       id="path8453" />
    <path
       d="M81202 36174 L81202 36024 "
       id="path8455" />
    <path
       d="M81292 36204 L80977 36099 L81292 35994 "
       id="path8457" />
    <path
       d="M80977 35740 L80977 35890 L81127 35905 L81112 35890 L81097 35860 L81097 35785 L81112 35755 L81127 35740 L81157 35725 L81232 35725 L81262 35740 L81277 35755 L81292 35785 L81292 35860 L81277 35890 L81262 35905 "
       id="path8459" />
    <path
       d="M81227 37174 L81227 37024 "
       id="path8461" />
    <path
       d="M81317 37204 L81002 37099 L81317 36994 "
       id="path8463" />
    <path
       d="M81107 36755 L81317 36755 "
       id="path8465" />
    <path
       d="M80987 36830 L81212 36905 L81212 36710 "
       id="path8467" />
    <path
       d="M81227 38199 L81227 38049 "
       id="path8469" />
    <path
       d="M81317 38229 L81002 38124 L81317 38019 "
       id="path8471" />
    <path
       d="M81002 37945 L81002 37750 L81122 37855 L81122 37810 L81137 37780 L81152 37765 L81182 37750 L81257 37750 L81287 37765 L81302 37780 L81317 37810 L81317 37900 L81302 37930 L81287 37945 "
       id="path8473" />
    <path
       d="M81252 39199 L81252 39049 "
       id="path8475" />
    <path
       d="M81342 39229 L81027 39124 L81342 39019 "
       id="path8477" />
    <path
       d="M81057 38930 L81042 38915 L81027 38885 L81027 38810 L81042 38780 L81057 38765 L81087 38750 L81117 38750 L81162 38765 L81342 38945 L81342 38750 "
       id="path8479" />
    <path
       d="M81277 40199 L81277 40049 "
       id="path8481" />
    <path
       d="M81367 40229 L81052 40124 L81367 40019 "
       id="path8483" />
    <path
       d="M81367 39750 L81367 39930 "
       id="path8485" />
    <path
       d="M81367 39840 L81052 39840 L81097 39870 L81127 39900 L81142 39930 "
       id="path8487" />
    <path
       d="M81277 41199 L81277 41049 "
       id="path8489" />
    <path
       d="M81367 41229 L81052 41124 L81367 41019 "
       id="path8491" />
    <path
       d="M81052 40855 L81052 40825 L81067 40795 L81082 40780 L81112 40765 L81172 40750 L81247 40750 L81307 40765 L81337 40780 L81352 40795 L81367 40825 L81367 40855 L81352 40885 L81337 40900 L81307 40915 L81247 40930 L81172 40930 L81112 40915 L81082 40900 L81067 40885 L81052 40855 "
       id="path8493" />
    <path
       d="M81252 42509 L81252 42359 "
       id="path8495" />
    <path
       d="M81342 42539 L81027 42434 L81342 42329 "
       id="path8497" />
    <path
       d="M81342 42044 L81192 42149 "
       id="path8499" />
    <path
       d="M81342 42224 L81027 42224 L81027 42104 L81042 42074 L81057 42059 L81087 42044 L81132 42044 L81162 42059 L81177 42074 L81192 42104 L81192 42224 "
       id="path8501" />
    <path
       d="M81177 41910 L81177 41805 "
       id="path8503" />
    <path
       d="M81342 41760 L81342 41910 L81027 41910 L81027 41760 "
       id="path8505" />
    <path
       d="M81177 41520 L81177 41625 "
       id="path8507" />
    <path
       d="M81342 41625 L81027 41625 L81027 41475 "
       id="path8509" />
    <path
       d="M80927 43439 L80927 43244 L81047 43349 L81047 43304 L81062 43274 L81077 43259 L81107 43244 L81182 43244 L81212 43259 L81227 43274 L81242 43304 L81242 43394 L81227 43424 L81212 43439 "
       id="path8511" />
    <path
       d="M80927 43154 L81242 43050 L80927 42945 "
       id="path8513" />
    <path
       d="M80927 42870 L80927 42675 L81047 42780 L81047 42735 L81062 42705 L81077 42690 L81107 42675 L81182 42675 L81212 42690 L81227 42705 L81242 42735 L81242 42825 L81227 42855 L81212 42870 "
       id="path8515" />
    <path
       d="M81242 44034 L81242 44214 "
       id="path8517" />
    <path
       d="M81242 44124 L80927 44124 L80972 44154 L81002 44184 L81017 44214 "
       id="path8519" />
    <path
       d="M80927 43930 L80927 43735 L81047 43840 L81047 43795 L81062 43765 L81077 43750 L81107 43735 L81182 43735 L81212 43750 L81227 43765 L81242 43795 L81242 43885 L81227 43915 L81212 43930 "
       id="path8521" />
    <path
       d="M81242 45109 L81242 45289 "
       id="path8523" />
    <path
       d="M81242 45199 L80927 45199 L80972 45229 L81002 45259 L81017 45289 "
       id="path8525" />
    <path
       d="M81032 44840 L81242 44840 "
       id="path8527" />
    <path
       d="M80912 44915 L81137 44990 L81137 44795 "
       id="path8529" />
    <path
       d="M81267 46084 L81267 46264 "
       id="path8531" />
    <path
       d="M81267 46174 L80952 46174 L80997 46204 L81027 46234 L81042 46264 "
       id="path8533" />
    <path
       d="M80952 45800 L80952 45950 L81102 45965 L81087 45950 L81072 45920 L81072 45845 L81087 45815 L81102 45800 L81132 45785 L81207 45785 L81237 45800 L81252 45815 L81267 45845 L81267 45920 L81252 45950 L81237 45965 "
       id="path8535" />
    <path
       d="M81242 47084 L81242 47264 "
       id="path8537" />
    <path
       d="M81242 47174 L80927 47174 L80972 47204 L81002 47234 L81017 47264 "
       id="path8539" />
    <path
       d="M80927 46815 L80927 46875 L80942 46905 L80957 46920 L81002 46950 L81062 46965 L81182 46965 L81212 46950 L81227 46935 L81242 46905 L81242 46845 L81227 46815 L81212 46800 L81182 46785 L81107 46785 L81077 46800 L81062 46815 L81047 46845 L81047 46905 L81062 46935 L81077 46950 L81107 46965 "
       id="path8541" />
    <path
       d="M81242 48059 L81242 48239 "
       id="path8543" />
    <path
       d="M81242 48149 L80927 48149 L80972 48179 L81002 48209 L81017 48239 "
       id="path8545" />
    <path
       d="M80927 47955 L80927 47745 L81242 47880 "
       id="path8547" />
    <path
       d="M80957 49239 L80942 49224 L80927 49194 L80927 49119 L80942 49089 L80957 49074 L80987 49059 L81017 49059 L81062 49074 L81242 49254 L81242 49059 "
       id="path8549" />
    <path
       d="M80927 48865 L80927 48835 L80942 48805 L80957 48790 L80987 48775 L81047 48760 L81122 48760 L81182 48775 L81212 48790 L81227 48805 L81242 48835 L81242 48865 L81227 48895 L81212 48910 L81182 48925 L81122 48940 L81047 48940 L80987 48925 L80957 48910 L80942 48895 L80927 48865 "
       id="path8551" />
    <path
       d="M74857 49239 L74842 49224 L74827 49194 L74827 49119 L74842 49089 L74857 49074 L74887 49059 L74917 49059 L74962 49074 L75142 49254 L75142 49059 "
       id="path8553" />
    <path
       d="M75142 48760 L75142 48940 "
       id="path8555" />
    <path
       d="M75142 48850 L74827 48850 L74872 48880 L74902 48910 L74917 48940 "
       id="path8557" />
    <path
       d="M74857 48214 L74842 48199 L74827 48169 L74827 48094 L74842 48064 L74857 48049 L74887 48034 L74917 48034 L74962 48049 L75142 48229 L75142 48034 "
       id="path8559" />
    <path
       d="M74857 47915 L74842 47900 L74827 47870 L74827 47795 L74842 47765 L74857 47750 L74887 47735 L74917 47735 L74962 47750 L75142 47930 L75142 47735 "
       id="path8561" />
    <path
       d="M74882 47239 L74867 47224 L74852 47194 L74852 47119 L74867 47089 L74882 47074 L74912 47059 L74942 47059 L74987 47074 L75167 47254 L75167 47059 "
       id="path8563" />
    <path
       d="M74852 46955 L74852 46760 L74972 46865 L74972 46820 L74987 46790 L75002 46775 L75032 46760 L75107 46760 L75137 46775 L75152 46790 L75167 46820 L75167 46910 L75152 46940 L75137 46955 "
       id="path8565" />
    <path
       d="M74887 46214 L74872 46199 L74857 46169 L74857 46094 L74872 46064 L74887 46049 L74917 46034 L74947 46034 L74992 46049 L75172 46229 L75172 46034 "
       id="path8567" />
    <path
       d="M74962 45765 L75172 45765 "
       id="path8569" />
    <path
       d="M74842 45840 L75067 45915 L75067 45720 "
       id="path8571" />
    <path
       d="M74862 45204 L74847 45189 L74832 45159 L74832 45084 L74847 45054 L74862 45039 L74892 45024 L74922 45024 L74967 45039 L75147 45219 L75147 45024 "
       id="path8573" />
    <path
       d="M74832 44740 L74832 44890 L74982 44905 L74967 44890 L74952 44860 L74952 44785 L74967 44755 L74982 44740 L75012 44725 L75087 44725 L75117 44740 L75132 44755 L75147 44785 L75147 44860 L75132 44890 L75117 44905 "
       id="path8575" />
    <path
       d="M75142 44009 L75142 44189 "
       id="path8577" />
    <path
       d="M75142 44099 L74827 44099 L74872 44129 L74902 44159 L74917 44189 "
       id="path8579" />
    <path
       d="M74857 43890 L74842 43875 L74827 43845 L74827 43770 L74842 43740 L74857 43725 L74887 43710 L74917 43710 L74962 43725 L75142 43905 L75142 43710 "
       id="path8581" />
    <path
       d="M75117 43034 L75117 43214 "
       id="path8583" />
    <path
       d="M75117 43124 L74802 43124 L74847 43154 L74877 43184 L74892 43214 "
       id="path8585" />
    <path
       d="M75117 42735 L75117 42915 "
       id="path8587" />
    <path
       d="M75117 42825 L74802 42825 L74847 42855 L74877 42885 L74892 42915 "
       id="path8589" />
    <path
       d="M74942 42084 L74942 42264 "
       id="path8591" />
    <path
       d="M74942 42174 L74627 42174 L74672 42204 L74702 42234 L74717 42264 "
       id="path8593" />
    <path
       d="M74627 41890 L74627 41860 L74642 41830 L74657 41815 L74687 41800 L74747 41785 L74822 41785 L74882 41800 L74912 41815 L74927 41830 L74942 41860 L74942 41890 L74927 41920 L74912 41935 L74882 41950 L74822 41965 L74747 41965 L74687 41950 L74657 41935 L74642 41920 L74627 41890 "
       id="path8595" />
    <path
       d="M75042 41034 L75042 40975 L75027 40945 L75012 40930 L74967 40900 L74907 40885 L74787 40885 L74757 40900 L74742 40915 L74727 40945 L74727 41004 L74742 41034 L74757 41049 L74787 41064 L74862 41064 L74892 41049 L74907 41034 L74922 41004 L74922 40945 L74907 40915 L74892 40900 L74862 40885 "
       id="path8597" />
    <path
       d="M74932 40009 L74917 40039 L74902 40054 L74872 40069 L74857 40069 L74827 40054 L74812 40039 L74797 40009 L74797 39950 L74812 39920 L74827 39905 L74857 39890 L74872 39890 L74902 39905 L74917 39920 L74932 39950 L74932 40009 L74947 40039 L74962 40054 L74992 40069 L75052 40069 L75082 40054 L75097 40039 L75112 40009 L75112 39950 L75097 39920 L75082 39905 L75052 39890 L74992 39890 L74962 39905 L74947 39920 L74932 39950 "
       id="path8599" />
    <path
       d="M74807 39089 L74807 38880 L75122 39014 "
       id="path8601" />
    <path
       d="M74807 37945 L74807 38005 L74822 38034 L74837 38049 L74882 38079 L74942 38094 L75062 38094 L75092 38079 L75107 38064 L75122 38034 L75122 37975 L75107 37945 L75092 37930 L75062 37915 L74987 37915 L74957 37930 L74942 37945 L74927 37975 L74927 38034 L74942 38064 L74957 38079 L74987 38094 "
       id="path8603" />
    <path
       d="M74837 36940 L74837 37089 L74987 37104 L74972 37089 L74957 37059 L74957 36985 L74972 36955 L74987 36940 L75017 36925 L75092 36925 L75122 36940 L75137 36955 L75152 36985 L75152 37059 L75137 37089 L75122 37104 "
       id="path8605" />
    <path
       d="M74947 35915 L75157 35915 "
       id="path8607" />
    <path
       d="M74827 35989 L75052 36064 L75052 35870 "
       id="path8609" />
    <path
       d="M74852 35129 L74852 34935 L74972 35039 L74972 34995 L74987 34965 L75002 34950 L75032 34935 L75107 34935 L75137 34950 L75152 34965 L75167 34995 L75167 35084 L75152 35114 L75137 35129 "
       id="path8611" />
    <path
       d="M74862 34059 L74847 34044 L74832 34014 L74832 33940 L74847 33910 L74862 33895 L74892 33880 L74922 33880 L74967 33895 L75147 34074 L75147 33880 "
       id="path8613" />
    <path
       d="M74867 33189 L74852 33219 L74852 33264 L74867 33309 L74897 33339 L74927 33354 L74987 33369 L75032 33369 L75092 33354 L75122 33339 L75152 33309 L75167 33264 L75167 33234 L75152 33189 L75137 33174 L75032 33174 L75032 33234 "
       id="path8615" />
    <path
       d="M75167 33039 L74852 33039 L75167 32860 L74852 32860 "
       id="path8617" />
    <path
       d="M75167 32710 L74852 32710 L74852 32635 L74867 32590 L74897 32560 L74927 32545 L74987 32530 L75032 32530 L75092 32545 L75122 32560 L75152 32590 L75167 32635 L75167 32710 "
       id="path8619" />
    <path
       d="M75142 32172 L74992 32277 "
       id="path8621" />
    <path
       d="M75142 32352 L74827 32352 L74827 32232 L74842 32202 L74857 32187 L74887 32172 L74932 32172 L74962 32187 L74977 32202 L74992 32232 L74992 32352 "
       id="path8623" />
    <path
       d="M75127 32052 L75142 32007 L75142 31932 L75127 31902 L75112 31887 L75082 31872 L75052 31872 L75022 31887 L75007 31902 L74992 31932 L74977 31992 L74962 32022 L74947 32037 L74917 32052 L74887 32052 L74857 32037 L74842 32022 L74827 31992 L74827 31917 L74842 31872 "
       id="path8625" />
    <path
       d="M74827 31782 L74827 31602 "
       id="path8627" />
    <path
       d="M75142 31692 L74827 31692 "
       id="path8629" />
  </g>
  <g
     style="fill:#000000; fill-opacity:0.0;  stroke:#000000; stroke-width:59.0551; stroke-opacity:1;  stroke-linecap:round; stroke-linejoin:round;"
     id="g8631">
    <path
       d="M79452 37498 L79452 37235 "
       id="path8633" />
    <path
       d="M79452 37310 L79471 37273 L79490 37254 L79527 37235 L79565 37235 "
       id="path8635" />
    <path
       d="M79846 37479 L79808 37498 L79733 37498 L79696 37479 L79677 37441 L79677 37291 L79696 37254 L79733 37235 L79808 37235 L79846 37254 L79865 37291 L79865 37329 L79677 37366 "
       id="path8637" />
    <path
       d="M80015 37479 L80052 37498 L80127 37498 L80164 37479 L80183 37441 L80183 37423 L80164 37385 L80127 37366 L80071 37366 L80033 37348 L80015 37310 L80015 37291 L80033 37254 L80071 37235 L80127 37235 L80164 37254 "
       id="path8639" />
    <path
       d="M80502 37479 L80464 37498 L80389 37498 L80352 37479 L80333 37441 L80333 37291 L80352 37254 L80389 37235 L80464 37235 L80502 37254 L80521 37291 L80521 37329 L80333 37366 "
       id="path8641" />
    <path
       d="M80633 37235 L80783 37235 "
       id="path8643" />
    <path
       d="M80689 37104 L80689 37441 L80708 37479 L80746 37498 L80783 37498 "
       id="path8645" />
  </g>
  <g
     style="fill:#000000; fill-opacity:0.0;  stroke:#000000; stroke-width:39.3701; stroke-opacity:1;  stroke-linecap:round; stroke-linejoin:round;"
     id="g8647">
    <path
       d="M75142 31252 L74992 31357 "
       id="path8649" />
    <path
       d="M75142 31432 L74827 31432 L74827 31312 L74842 31282 L74857 31267 L74887 31252 L74932 31252 L74962 31267 L74977 31282 L74992 31312 L74992 31432 "
       id="path8651" />
    <path
       d="M74827 31147 L75142 30937 "
       id="path8653" />
    <path
       d="M74827 30937 L75142 31147 "
       id="path8655" />
    <path
       d="M74827 30757 L74827 30727 L74842 30697 L74857 30682 L74887 30667 L74947 30652 L75022 30652 L75082 30667 L75112 30682 L75127 30697 L75142 30727 L75142 30757 L75127 30787 L75112 30802 L75082 30817 L75022 30832 L74947 30832 L74887 30817 L74857 30802 L74842 30787 L74827 30757 "
       id="path8657" />
    <path
       d="M74827 30314 L74827 30134 "
       id="path8659" />
    <path
       d="M75142 30224 L74827 30224 "
       id="path8661" />
    <path
       d="M74827 30059 L75142 29850 "
       id="path8663" />
    <path
       d="M74827 29850 L75142 30059 "
       id="path8665" />
    <path
       d="M75142 29565 L75142 29745 "
       id="path8667" />
    <path
       d="M75142 29655 L74827 29655 L74872 29685 L74902 29715 L74917 29745 "
       id="path8669" />
  </g>
  <g
     style="fill:#000000; fill-opacity:0.0;  stroke:#000000; stroke-width:59.0551; stroke-opacity:1;  stroke-linecap:round; stroke-linejoin:round;"
     id="g8671">
    <path
       d="M76515 47766 L76515 48028 "
       id="path8673" />
    <path
       d="M76515 47803 L76533 47784 L76571 47766 L76627 47766 L76665 47784 L76683 47822 L76683 48028 "
       id="path8675" />
    <path
       d="M77040 48028 L77040 47822 L77021 47784 L76983 47766 L76908 47766 L76871 47784 "
       id="path8677" />
    <path
       d="M77040 48009 L77002 48028 L76908 48028 L76871 48009 L76852 47972 L76852 47934 L76871 47897 L76908 47878 L77002 47878 L77040 47859 "
       id="path8679" />
    <path
       d="M77227 47766 L77227 48028 "
       id="path8681" />
    <path
       d="M77227 47803 L77246 47784 L77283 47766 L77340 47766 L77377 47784 L77396 47822 L77396 48028 "
       id="path8683" />
    <path
       d="M77640 48028 L77602 48009 L77583 47991 L77565 47953 L77565 47841 L77583 47803 L77602 47784 L77640 47766 L77696 47766 L77733 47784 L77752 47803 L77771 47841 L77771 47953 L77752 47991 L77733 48009 L77696 48028 L77640 48028 "
       id="path8685" />
    <path
       d="M77902 47634 L78146 47634 L78015 47784 L78071 47784 L78108 47803 L78127 47822 L78146 47859 L78146 47953 L78127 47991 L78108 48009 L78071 48028 L77958 48028 L77921 48009 L77902 47991 "
       id="path8687" />
    <path
       d="M78296 47672 L78314 47653 L78352 47634 L78446 47634 L78483 47653 L78502 47672 L78521 47709 L78521 47747 L78502 47803 L78277 48028 L78521 48028 "
       id="path8689" />
    <path
       d="M78858 47766 L78858 48028 "
       id="path8691" />
    <path
       d="M78764 47616 L78671 47897 L78914 47897 "
       id="path8693" />
    <path
       d="M79064 48028 L79064 47634 L79214 47634 L79252 47653 L79271 47672 L79289 47709 L79289 47766 L79271 47803 L79252 47822 L79214 47841 L79064 47841 "
       id="path8695" />
    <path
       d="M79589 47822 L79646 47841 L79664 47859 L79683 47897 L79683 47953 L79664 47991 L79646 48009 L79608 48028 L79458 48028 L79458 47634 L79589 47634 L79627 47653 L79646 47672 L79664 47709 L79664 47747 L79646 47784 L79627 47803 L79589 47822 L79458 47822 "
       id="path8697" />
    <path
       d="M77040 48678 L77040 48284 "
       id="path8699" />
    <path
       d="M77040 48434 L77077 48415 L77152 48415 L77190 48434 L77208 48453 L77227 48490 L77227 48603 L77208 48640 L77190 48659 L77152 48678 L77077 48678 L77040 48659 "
       id="path8701" />
    <path
       d="M77358 48415 L77452 48678 "
       id="path8703" />
    <path
       d="M77546 48415 L77452 48678 L77415 48771 L77396 48790 L77358 48809 "
       id="path8705" />
    <path
       d="M77996 48678 L77996 48284 "
       id="path8707" />
    <path
       d="M78033 48528 L78146 48678 "
       id="path8709" />
    <path
       d="M78146 48415 L77996 48565 "
       id="path8711" />
    <path
       d="M78371 48678 L78333 48659 L78314 48640 L78296 48603 L78296 48490 L78314 48453 L78333 48434 L78371 48415 L78427 48415 L78464 48434 L78483 48453 L78502 48490 L78502 48603 L78483 48640 L78464 48659 L78427 48678 L78371 48678 "
       id="path8713" />
    <path
       d="M78633 48415 L78727 48678 L78821 48415 "
       id="path8715" />
    <path
       d="M79027 48678 L78989 48659 L78971 48640 L78952 48603 L78952 48490 L78971 48453 L78989 48434 L79027 48415 L79083 48415 L79121 48434 L79139 48453 L79158 48490 L79158 48603 L79139 48640 L79121 48659 L79083 48678 L79027 48678 "
       id="path8717" />
    <path
       d="M75634 49327 L75634 48934 L75765 49215 L75896 48934 L75896 49327 "
       id="path8719" />
    <path
       d="M76252 49327 L76252 49121 L76233 49083 L76196 49065 L76121 49065 L76084 49083 "
       id="path8721" />
    <path
       d="M76252 49308 L76215 49327 L76121 49327 L76084 49308 L76065 49271 L76065 49233 L76084 49196 L76121 49177 L76215 49177 L76252 49158 "
       id="path8723" />
    <path
       d="M76608 49327 L76608 48934 "
       id="path8725" />
    <path
       d="M76608 49308 L76571 49327 L76496 49327 L76458 49308 L76440 49290 L76421 49252 L76421 49140 L76440 49102 L76458 49083 L76496 49065 L76571 49065 L76608 49083 "
       id="path8727" />
    <path
       d="M76946 49308 L76908 49327 L76833 49327 L76796 49308 L76777 49271 L76777 49121 L76796 49083 L76833 49065 L76908 49065 L76946 49083 L76965 49121 L76965 49158 L76777 49196 "
       id="path8729" />
    <path
       d="M77433 49327 L77433 49065 "
       id="path8731" />
    <path
       d="M77433 48934 L77415 48952 L77433 48971 L77452 48952 L77433 48934 L77433 48971 "
       id="path8733" />
    <path
       d="M77621 49065 L77621 49327 "
       id="path8735" />
    <path
       d="M77621 49102 L77640 49083 L77677 49065 L77733 49065 L77771 49083 L77790 49121 L77790 49327 "
       id="path8737" />
    <path
       d="M78258 49308 L78314 49327 L78408 49327 L78446 49308 L78464 49290 L78483 49252 L78483 49215 L78464 49177 L78446 49158 L78408 49140 L78333 49121 L78296 49102 L78277 49083 L78258 49046 L78258 49008 L78277 48971 L78296 48952 L78333 48934 L78427 48934 L78483 48952 "
       id="path8739" />
    <path
       d="M78708 49327 L78671 49308 L78652 49271 L78652 48934 "
       id="path8741" />
    <path
       d="M78914 49327 L78877 49308 L78858 49290 L78839 49252 L78839 49140 L78858 49102 L78877 49083 L78914 49065 L78971 49065 L79008 49083 L79027 49102 L79046 49140 L79046 49252 L79027 49290 L79008 49308 L78971 49327 L78914 49327 "
       id="path8743" />
    <path
       d="M79177 49065 L79271 49327 L79364 49065 "
       id="path8745" />
    <path
       d="M79683 49327 L79683 49121 L79664 49083 L79627 49065 L79552 49065 L79514 49083 "
       id="path8747" />
    <path
       d="M79683 49308 L79646 49327 L79552 49327 L79514 49308 L79496 49271 L79496 49233 L79514 49196 L79552 49177 L79646 49177 L79683 49158 "
       id="path8749" />
    <path
       d="M79871 49327 L79871 48934 "
       id="path8751" />
    <path
       d="M79908 49177 L80021 49327 "
       id="path8753" />
    <path
       d="M80021 49065 L79871 49215 "
       id="path8755" />
    <path
       d="M80189 49327 L80189 49065 "
       id="path8757" />
    <path
       d="M80189 48934 L80170 48952 L80189 48971 L80208 48952 L80189 48934 L80189 48971 "
       id="path8759" />
    <path
       d="M80545 49327 L80545 49121 L80527 49083 L80489 49065 L80414 49065 L80377 49083 "
       id="path8761" />
    <path
       d="M80545 49308 L80508 49327 L80414 49327 L80377 49308 L80358 49271 L80358 49233 L80377 49196 L80414 49177 L80508 49177 L80545 49158 "
       id="path8763" />
  </g>
  <g
     style="fill:#000000; fill-opacity:0.0;  stroke:#000000; stroke-width:196.85; stroke-opacity:1;  stroke-linecap:round; stroke-linejoin:round;"
     id="g8765">
    <path
       d="M82800 25000 L82800 53700 "
       id="path8767" />
    <path
       d="M73200 53700 L73200 25000 "
       id="path8769" />
    <path
       d="M82800 53700 L73200 53700 "
       id="path8771" />
  </g>
  <g
     style="fill:#000000; fill-opacity:0.0;  stroke:#000000; stroke-width:59.0551; stroke-opacity:1;  stroke-linecap:round; stroke-linejoin:round;"
     id="g8773">
    <path
       d="M78278 32269 L78475 32072 "
       id="path8775" />
    <path
       d="M78671 32269 L78278 32269 "
       id="path8777" />
    <path
       d="M78475 32072 L78671 32269 "
       id="path8779" />
    <path
       d="M78475 32269 L78475 32465 "
       id="path8781" />
    <path
       d="M78671 32072 L78278 32072 "
       id="path8783" />
    <path
       d="M78455 32190 L78475 32170 "
       id="path8785" />
    <path
       d="M78553 32190 L78455 32190 "
       id="path8787" />
    <path
       d="M78475 32111 L78553 32190 "
       id="path8789" />
    <path
       d="M78356 32229 L78475 32111 "
       id="path8791" />
    <path
       d="M78593 32229 L78356 32229 "
       id="path8793" />
    <path
       d="M78888 31422 L78888 32839 "
       id="path8795" />
    <path
       d="M78061 31422 L78061 32839 "
       id="path8797" />
    <path
       d="M80220 49928 L78172 49928 "
       id="path8799" />
    <path
       d="M78172 50872 L80220 50872 "
       id="path8801" />
    <path
       d="M80613 51305 L80613 50872 "
       id="path8803" />
    <path
       d="M80849 51108 L80377 51108 "
       id="path8805" />
    <path
       d="M80415 50872 L80415 49928 "
       id="path8807" />
    <path
       d="M75772 49938 L75772 50882 "
       id="path8809" />
    <path
       d="M75338 49702 L75810 49702 "
       id="path8811" />
    <path
       d="M75574 49505 L75574 49938 "
       id="path8813" />
    <path
       d="M78015 49938 L75967 49938 "
       id="path8815" />
    <path
       d="M75967 50882 L78015 50882 "
       id="path8817" />
    <path
       d="M79288 32269 L79485 32072 "
       id="path8819" />
    <path
       d="M79681 32269 L79288 32269 "
       id="path8821" />
    <path
       d="M79485 32072 L79681 32269 "
       id="path8823" />
    <path
       d="M79485 32269 L79485 32465 "
       id="path8825" />
    <path
       d="M79681 32072 L79288 32072 "
       id="path8827" />
    <path
       d="M79465 32190 L79485 32170 "
       id="path8829" />
    <path
       d="M79563 32190 L79465 32190 "
       id="path8831" />
    <path
       d="M79485 32111 L79563 32190 "
       id="path8833" />
    <path
       d="M79366 32229 L79485 32111 "
       id="path8835" />
    <path
       d="M79603 32229 L79366 32229 "
       id="path8837" />
    <path
       d="M79898 31422 L79898 32839 "
       id="path8839" />
    <path
       d="M79071 31422 L79071 32839 "
       id="path8841" />
    <path
       d="M76016 31417 L76016 32834 "
       id="path8843" />
    <path
       d="M76843 31417 L76843 32834 "
       id="path8845" />
    <path
       d="M76548 32224 L76311 32224 "
       id="path8847" />
    <path
       d="M76311 32224 L76430 32106 "
       id="path8849" />
    <path
       d="M76430 32106 L76508 32185 "
       id="path8851" />
    <path
       d="M76508 32185 L76410 32185 "
       id="path8853" />
    <path
       d="M76410 32185 L76430 32165 "
       id="path8855" />
    <path
       d="M76626 32067 L76233 32067 "
       id="path8857" />
    <path
       d="M76430 32264 L76430 32460 "
       id="path8859" />
    <path
       d="M76430 32067 L76626 32264 "
       id="path8861" />
    <path
       d="M76626 32264 L76233 32264 "
       id="path8863" />
    <path
       d="M76233 32264 L76430 32067 "
       id="path8865" />
    <path
       d="M77253 32264 L77450 32067 "
       id="path8867" />
    <path
       d="M77646 32264 L77253 32264 "
       id="path8869" />
    <path
       d="M77450 32067 L77646 32264 "
       id="path8871" />
    <path
       d="M77450 32264 L77450 32460 "
       id="path8873" />
    <path
       d="M77646 32067 L77253 32067 "
       id="path8875" />
    <path
       d="M77430 32185 L77450 32165 "
       id="path8877" />
    <path
       d="M77528 32185 L77430 32185 "
       id="path8879" />
    <path
       d="M77450 32106 L77528 32185 "
       id="path8881" />
    <path
       d="M77331 32224 L77450 32106 "
       id="path8883" />
    <path
       d="M77568 32224 L77331 32224 "
       id="path8885" />
    <path
       d="M77863 31417 L77863 32834 "
       id="path8887" />
    <path
       d="M77036 31417 L77036 32834 "
       id="path8889" />
    <path
       d="M76361 53573 L79786 53573 "
       id="path8891" />
    <path
       d="M76361 51052 L79786 51052 "
       id="path8893" />
    <path
       d="M79786 51052 L79786 53573 "
       id="path8895" />
    <path
       d="M79786 53089 L76361 53089 "
       id="path8897" />
    <path
       d="M76361 53573 L76361 51052 "
       id="path8899" />
    <path
       d="M78500 28500 L76500 28500 "
       id="path8901" />
    <path
       d="M79610 28389 L79610 29000 "
       id="path8903" />
    <path
       d="M79500 29500 L78500 29500 "
       id="path8905" />
    <path
       d="M78500 29500 L78500 28500 "
       id="path8907" />
    <path
       d="M76500 28500 L76500 30500 "
       id="path8909" />
    <path
       d="M76500 30500 L78500 30500 "
       id="path8911" />
    <path
       d="M79610 28389 L79000 28389 "
       id="path8913" />
    <path
       d="M79500 30500 L79500 29500 "
       id="path8915" />
    <path
       d="M78500 30500 L79500 30500 "
       id="path8917" />
    <path
       d="M78455 35236 L78455 34763 "
       id="path8919" />
    <path
       d="M79144 34763 L79144 35236 "
       id="path8921" />
    <path
       d="M79944 34763 L79944 35236 "
       id="path8923" />
    <path
       d="M79255 35236 L79255 34763 "
       id="path8925" />
    <path
       d="M76015 35261 L76015 34788 "
       id="path8927" />
    <path
       d="M76704 34788 L76704 35261 "
       id="path8929" />
    <path
       d="M78329 34770 L78329 35242 "
       id="path8931" />
    <path
       d="M77640 35242 L77640 34770 "
       id="path8933" />
    <path
       d="M76825 35251 L76825 34778 "
       id="path8935" />
    <path
       d="M77514 34778 L77514 35251 "
       id="path8937" />
    <path
       d="M79328 37367 L79328 36225 "
       id="path8939" />
    <path
       d="M76898 36225 L76898 37387 "
       id="path8941" />
    <path
       d="M78960 37096 L77260 37096 "
       id="path8943" />
    <path
       d="M77260 37096 L77260 36496 "
       id="path8945" />
    <path
       d="M77260 36496 L78960 36496 "
       id="path8947" />
    <path
       d="M78960 36496 L78960 37096 "
       id="path8949" />
    <path
       d="M76898.9 37387.2 A137.795 137.795 0.0 0 0 77036.7 37525 "
       id="path8951" />
    <path
       d="M79151.8 37525 A177.165 177.165 0.0 0 0 79328.8 37356.7 "
       id="path8953" />
    <path
       d="M79329 36225.8 A157.48 157.48 0.0 0 0 79171.5 36068.3 "
       id="path8955" />
    <path
       d="M77056.4 36068.3 A157.48 157.48 0.0 0 0 76898.9 36225.8 "
       id="path8957" />
    <path
       d="M79151 37525 L77036 37525 "
       id="path8959" />
    <path
       d="M79171 36068 L77056 36068 "
       id="path8961" />
    <path
       d="M76150 38282 L75203 39228 "
       id="path8963" />
    <path
       d="M75203 39228 L75621 39646 "
       id="path8965" />
    <path
       d="M75621 39646 L76567 38700 "
       id="path8967" />
    <path
       d="M76567 38700 L76150 38282 "
       id="path8969" />
    <path
       d="M78000 38518 L77812 38706 "
       id="path8971" />
    <path
       d="M80881 41400 L80693 41587 "
       id="path8973" />
    <path
       d="M78000 44281 L78187 44093 "
       id="path8975" />
    <path
       d="M75118 41400 L75306 41212 "
       id="path8977" />
    <path
       d="M78000 38518 L78187 38706 "
       id="path8979" />
    <path
       d="M75118 41400 L75306 41587 "
       id="path8981" />
    <path
       d="M78000 44281 L77812 44093 "
       id="path8983" />
    <path
       d="M80881 41400 L80693 41212 "
       id="path8985" />
    <path
       d="M77812 38706 L77457 38351 "
       id="path8987" />
    <path
       d="M79608 45270 L76222 45270 "
       id="path8989" />
    <path
       d="M76222 45270 L76222 46530 "
       id="path8991" />
    <path
       d="M76222 46530 L79608 46530 "
       id="path8993" />
    <path
       d="M79608 46235 L79608 46530 "
       id="path8995" />
    <path
       d="M79608 45546 L79608 45270 "
       id="path8997" />
    <path
       d="M79608 46018 L79726 46057 "
       id="path8999" />
    <path
       d="M79608 45782 L79726 45743 "
       id="path9001" />
    <path
       d="M79608 45546 L79608 46254 "
       id="path9003" />
    <path
       d="M73389 29389 L74610 29389 "
       id="path9005" />
    <path
       d="M73389 30000 L73389 29389 "
       id="path9007" />
    <path
       d="M74500 30500 L73500 30500 "
       id="path9009" />
    <path
       d="M74610 29389 L74610 30000 "
       id="path9011" />
    <path
       d="M74500 52500 L74500 30500 "
       id="path9013" />
    <path
       d="M73500 52500 L74500 52500 "
       id="path9015" />
    <path
       d="M73500 30500 L73500 52500 "
       id="path9017" />
    <path
       d="M81500 30500 L81500 52500 "
       id="path9019" />
    <path
       d="M81500 52500 L82500 52500 "
       id="path9021" />
    <path
       d="M82500 52500 L82500 30500 "
       id="path9023" />
    <path
       d="M82610 29389 L82610 30000 "
       id="path9025" />
    <path
       d="M82500 30500 L81500 30500 "
       id="path9027" />
    <path
       d="M81389 30000 L81389 29389 "
       id="path9029" />
    <path
       d="M81389 29389 L82610 29389 "
       id="path9031" />
    <g
       id="g9033" />
    <g
       id="g9035" />
    <g
       id="g9037" />
    <g
       id="g9039" />
    <g
       id="g9041" />
    <g
       id="g9043" />
    <g
       id="g9045" />
    <g
       id="g9047" />
    <g
       id="g9049" />
    <g
       id="g9051" />
    <g
       id="g9053" />
    <g
       id="g9055" />
    <g
       id="g9057" />
    <g
       id="g9059" />
    <g
       id="g9061" />
    <g
       id="g9063" />
    <g
       id="g9065" />
    <g
       id="g9067" />
    <g
       id="g9069" />
    <g
       id="g9071" />
    <g
       id="g9073" />
    <g
       id="g9075" />
    <g
       id="g9077" />
    <g
       id="g9079" />
    <g
       id="g9081" />
    <g
       id="g9083" />
    <g
       id="g9085" />
    <g
       id="g9087" />
    <g
       id="g9089" />
    <g
       id="g9091" />
    <g
       id="g9093" />
    <g
       id="g9095" />
    <g
       id="g9097" />
    <g
       id="g9099" />
    <g
       id="g9101" />
    <g
       id="g9103" />
    <g
       id="g9105" />
    <g
       id="g9107" />
    <g
       id="g9109" />
  </g>
  <g
     style="fill:#000000; fill-opacity:0.0;  stroke:#000000; stroke-width:39.3701; stroke-opacity:1;  stroke-linecap:round; stroke-linejoin:round;"
     id="g9111">
    <path
       d="M78587 31222 L78587 30907 L78662 30907 L78707 30922 L78737 30952 L78752 30982 L78767 31042 L78767 31087 L78752 31147 L78737 31177 L78707 31207 L78662 31222 L78587 31222 "
       id="path9113" />
    <path
       d="M78872 30907 L79067 30907 L78962 31027 L79007 31027 L79037 31042 L79052 31057 L79067 31087 L79067 31162 L79052 31192 L79037 31207 L79007 31222 L78917 31222 L78887 31207 L78872 31192 "
       id="path9115" />
    <path
       d="M80782 50247 L80797 50262 L80812 50307 L80812 50337 L80797 50382 L80767 50412 L80737 50427 L80677 50442 L80632 50442 L80572 50427 L80542 50412 L80512 50382 L80497 50337 L80497 50307 L80512 50262 L80527 50247 "
       id="path9117" />
    <path
       d="M80497 50142 L80497 49947 L80617 50052 L80617 50007 L80632 49977 L80647 49962 L80677 49947 L80752 49947 L80782 49962 L80797 49977 L80812 50007 L80812 50097 L80797 50127 L80782 50142 "
       id="path9119" />
  </g>
  <g
     style="fill:#000000; fill-opacity:0.0;  stroke:#000000; stroke-width:59.0551; stroke-opacity:1;  stroke-linecap:round; stroke-linejoin:round;"
     id="g9121">
    <path
       d="M80463 51137 L80762 51137 "
       id="path9123" />
    <path
       d="M80613 51287 L80613 50987 "
       id="path9125" />
  </g>
  <g
     style="fill:#000000; fill-opacity:0.0;  stroke:#000000; stroke-width:39.3701; stroke-opacity:1;  stroke-linecap:round; stroke-linejoin:round;"
     id="g9127">
    <path
       d="M76092 51292 L76107 51307 L76122 51352 L76122 51382 L76107 51427 L76077 51457 L76047 51472 L75987 51487 L75942 51487 L75882 51472 L75852 51457 L75822 51427 L75807 51382 L75807 51352 L75822 51307 L75837 51292 "
       id="path9129" />
    <path
       d="M75912 51022 L76122 51022 "
       id="path9131" />
    <path
       d="M75792 51097 L76017 51172 L76017 50977 "
       id="path9133" />
  </g>
  <g
     style="fill:#000000; fill-opacity:0.0;  stroke:#000000; stroke-width:59.0551; stroke-opacity:1;  stroke-linecap:round; stroke-linejoin:round;"
     id="g9135">
    <path
       d="M75424 49729 L75723 49729 "
       id="path9137" />
    <path
       d="M75574 49879 L75574 49579 "
       id="path9139" />
  </g>
  <g
     style="fill:#000000; fill-opacity:0.0;  stroke:#000000; stroke-width:39.3701; stroke-opacity:1;  stroke-linecap:round; stroke-linejoin:round;"
     id="g9141">
    <path
       d="M79457 31222 L79457 30907 L79532 30907 L79577 30922 L79607 30952 L79622 30982 L79637 31042 L79637 31087 L79622 31147 L79607 31177 L79577 31207 L79532 31222 L79457 31222 "
       id="path9143" />
    <path
       d="M79937 31222 L79757 31222 "
       id="path9145" />
    <path
       d="M79847 31222 L79847 30907 L79817 30952 L79787 30982 L79757 30997 "
       id="path9147" />
    <path
       d="M75997 31222 L75997 30907 L76072 30907 L76117 30922 L76147 30952 L76162 30982 L76177 31042 L76177 31087 L76162 31147 L76147 31177 L76117 31207 L76072 31222 L75997 31222 "
       id="path9149" />
    <path
       d="M76297 30937 L76312 30922 L76342 30907 L76417 30907 L76447 30922 L76462 30937 L76477 30967 L76477 30997 L76462 31042 L76282 31222 L76477 31222 "
       id="path9151" />
    <path
       d="M76867 31222 L76867 30907 L76942 30907 L76987 30922 L77017 30952 L77032 30982 L77047 31042 L77047 31087 L77032 31147 L77017 31177 L76987 31207 L76942 31222 L76867 31222 "
       id="path9153" />
    <path
       d="M77317 31012 L77317 31222 "
       id="path9155" />
    <path
       d="M77242 30892 L77167 31117 L77362 31117 "
       id="path9157" />
  </g>
  <g
     style="fill:#000000; fill-opacity:0.0;  stroke:#000000; stroke-width:59.0551; stroke-opacity:1;  stroke-linecap:round; stroke-linejoin:round;"
     id="g9159">
    <path
       d="M78568 52434 L78568 52715 L78550 52771 L78512 52809 L78456 52828 L78418 52828 "
       id="path9161" />
    <path
       d="M78962 52828 L78737 52828 "
       id="path9163" />
    <path
       d="M78849 52828 L78849 52434 L78812 52490 L78774 52528 L78737 52546 "
       id="path9165" />
  </g>
  <g
     style="fill:#000000; fill-opacity:0.0;  stroke:#000000; stroke-width:39.3701; stroke-opacity:1;  stroke-linecap:round; stroke-linejoin:round;"
     id="g9167">
    <path
       d="M78749 35164 L78644 35015 "
       id="path9169" />
    <path
       d="M78569 35164 L78569 34850 L78689 34850 L78719 34865 L78734 34880 L78749 34910 L78749 34955 L78734 34985 L78719 35000 L78689 35015 L78569 35015 "
       id="path9171" />
    <path
       d="M78854 34850 L79049 34850 L78944 34970 L78989 34970 L79019 34985 L79034 35000 L79049 35030 L79049 35104 L79034 35134 L79019 35149 L78989 35164 L78899 35164 L78869 35149 L78854 35134 "
       id="path9173" />
    <path
       d="M79559 35162 L79454 35012 "
       id="path9175" />
    <path
       d="M79379 35162 L79379 34847 L79499 34847 L79529 34862 L79544 34877 L79559 34907 L79559 34952 L79544 34982 L79529 34997 L79499 35012 L79379 35012 "
       id="path9177" />
    <path
       d="M79829 34952 L79829 35162 "
       id="path9179" />
    <path
       d="M79754 34832 L79679 35057 L79874 35057 "
       id="path9181" />
    <path
       d="M76287 35207 L76182 35057 "
       id="path9183" />
    <path
       d="M76107 35207 L76107 34892 L76227 34892 L76257 34907 L76272 34922 L76287 34952 L76287 34997 L76272 35027 L76257 35042 L76227 35057 L76107 35057 "
       id="path9185" />
    <path
       d="M76572 34892 L76422 34892 L76407 35042 L76422 35027 L76452 35012 L76527 35012 L76557 35027 L76572 35042 L76587 35072 L76587 35147 L76572 35177 L76557 35192 L76527 35207 L76452 35207 L76422 35192 L76407 35177 "
       id="path9187" />
    <path
       d="M77930 35167 L77825 35017 "
       id="path9189" />
    <path
       d="M77750 35167 L77750 34852 L77870 34852 L77900 34867 L77915 34882 L77930 34912 L77930 34957 L77915 34987 L77900 35002 L77870 35017 L77750 35017 "
       id="path9191" />
    <path
       d="M78200 34852 L78140 34852 L78110 34867 L78095 34882 L78065 34927 L78050 34987 L78050 35107 L78065 35137 L78080 35152 L78110 35167 L78170 35167 L78200 35152 L78215 35137 L78230 35107 L78230 35032 L78215 35002 L78200 34987 L78170 34972 L78110 34972 L78080 34987 L78065 35002 L78050 35032 "
       id="path9193" />
    <path
       d="M77127 35172 L77022 35022 "
       id="path9195" />
    <path
       d="M76947 35172 L76947 34857 L77067 34857 L77097 34872 L77112 34887 L77127 34917 L77127 34962 L77112 34992 L77097 35007 L77067 35022 L76947 35022 "
       id="path9197" />
    <path
       d="M77232 34857 L77442 34857 L77307 35172 "
       id="path9199" />
  </g>
  <g
     style="fill:#000000; fill-opacity:0.0;  stroke:#000000; stroke-width:59.0551; stroke-opacity:1;  stroke-linecap:round; stroke-linejoin:round;"
     id="g9201">
    <path
       d="M75387 38633 L75493 38739 "
       id="path9203" />
    <path
       d="M75196 38591 L75387 38633 L75344 38442 "
       id="path9205" />
    <path
       d="M75758 38474 L75631 38601 "
       id="path9207" />
    <path
       d="M75694 38538 L75472 38315 L75482 38368 L75482 38411 L75472 38442 "
       id="path9209" />
    <path
       d="M78984 46218 L79378 45956 "
       id="path9211" />
    <path
       d="M78984 45956 L79378 46218 "
       id="path9213" />
    <path
       d="M79378 45600 L79378 45825 "
       id="path9215" />
    <path
       d="M79378 45712 L78984 45712 L79040 45750 L79078 45787 L79096 45825 "
       id="path9217" />
    <g
       id="g9219" />
  </g>
</svg>
