<?xml version="1.0" standalone="no"?>
 <!DOCTYPE svg PUBLIC "-//W3C//DTD SVG 1.1//EN" 
 "http://www.w3.org/Graphics/SVG/1.1/DTD/svg11.dtd"> 
<svg xmlns="http://www.w3.org/2000/svg" version="1.1" 
    width="29.7002cm" height="21.0007cm" viewBox="0 0 116930 82680 ">
<title>SVG Picture created as arduino_nano324-F_Fab.svg date 2019/02/10 21:42:41 </title>
  <desc>Picture generated by PCBNEW </desc>
<g style="fill:#000000; fill-opacity:1;stroke:#000000; stroke-opacity:1;
stroke-linecap:round; stroke-linejoin:round; "
 transform="translate(0 0) scale(1 1)">
</g>
<g style="fill:#000000; fill-opacity:0.0; 
stroke:#000000; stroke-width:-0.000393701; stroke-opacity:1; 
stroke-linecap:round; stroke-linejoin:round;">
</g>
<g style="fill:#000000; fill-opacity:0.0; 
stroke:#000000; stroke-width:196.85; stroke-opacity:1; 
stroke-linecap:round; stroke-linejoin:round;">
<path d="M73200 28300
L82800 28300
" />
<path d="M82800 25000
L73200 25000
" />
<path d="M82800 25000
L82800 53700
" />
<path d="M73200 53700
L73200 25000
" />
<path d="M82800 53700
L73200 53700
" />
<svg:g >
</g>
<svg:g >
</g>
<svg:g >
</g>
<svg:g >
</g>
<svg:g >
</g>
<svg:g >
</g>
<svg:g >
</g>
<svg:g >
</g>
<svg:g >
</g>
<svg:g >
</g>
<svg:g >
</g>
<svg:g >
</g>
<svg:g >
</g>
<svg:g >
</g>
<svg:g >
</g>
<svg:g >
</g>
<svg:g >
</g>
<svg:g >
</g>
<svg:g >
</g>
<svg:g >
</g>
<svg:g >
</g>
<svg:g >
</g>
<svg:g >
</g>
<svg:g >
</g>
<svg:g >
</g>
<svg:g >
</g>
<svg:g >
</g>
<svg:g >
</g>
<svg:g >
</g>
<svg:g >
</g>
<svg:g >
</g>
<svg:g >
</g>
<svg:g >
</g>
<svg:g >
</g>
<svg:g >
</g>
<svg:g >
</g>
<svg:g >
</g>
<svg:g >
</g>
<svg:g >
</g>
</g>
<g style="fill:#000000; fill-opacity:0.0; 
stroke:#000000; stroke-width:59.0551; stroke-opacity:1; 
stroke-linecap:round; stroke-linejoin:round;">
<path d="M78470 32989
L78658 32989
" />
<path d="M78264 33120
L78470 32989
L78264 32858
" />
<path d="M78658 32539
L78658 32726
L78264 32726
" />
<path d="M79164 50598
L78939 50598
" />
<path d="M79051 50598
L79051 50204
L79014 50260
L78976 50298
L78939 50316
" />
<path d="M79501 50335
L79501 50598
" />
<path d="M79333 50335
L79333 50541
L79351 50579
L79389 50598
L79445 50598
L79483 50579
L79501 50560
" />
<path d="M76766 50638
L76541 50638
" />
<path d="M76654 50638
L76654 50244
L76616 50300
L76579 50338
L76541 50356
" />
<path d="M77010 50244
L77048 50244
L77085 50263
L77104 50281
L77123 50319
L77141 50394
L77141 50488
L77123 50563
L77104 50600
L77085 50619
L77048 50638
L77010 50638
L76973 50619
L76954 50600
L76935 50563
L76916 50488
L76916 50394
L76935 50319
L76954 50281
L76973 50263
L77010 50244
" />
<path d="M77479 50375
L77479 50638
" />
<path d="M77310 50375
L77310 50581
L77329 50619
L77366 50638
L77423 50638
L77460 50619
L77479 50600
" />
<path d="M80418 33099
L80230 33230
" />
<path d="M80418 33324
L80024 33324
L80024 33174
L80043 33136
L80061 33118
L80099 33099
L80155 33099
L80193 33118
L80211 33136
L80230 33174
L80230 33324
" />
<path d="M80399 32780
L80418 32818
L80418 32893
L80399 32930
L80361 32949
L80211 32949
L80174 32930
L80155 32893
L80155 32818
L80174 32780
L80211 32761
L80249 32761
L80286 32949
" />
<path d="M80418 32424
L80024 32424
" />
<path d="M80399 32424
L80418 32461
L80418 32536
L80399 32574
L80380 32593
L80343 32611
L80230 32611
L80193 32593
L80174 32574
L80155 32536
L80155 32461
L80174 32424
" />
<path d="M80418 31749
L80418 31936
L80024 31936
" />
<path d="M80211 31618
L80211 31486
" />
<path d="M80418 31430
L80418 31618
L80024 31618
L80024 31430
" />
<path d="M80418 31261
L80024 31261
L80024 31168
L80043 31112
L80080 31074
L80118 31055
L80193 31037
L80249 31037
L80324 31055
L80361 31074
L80399 31112
L80418 31168
L80418 31261
" />
<path d="M75445 33482
L75427 33520
L75427 33576
L75445 33632
L75483 33670
L75520 33688
L75595 33707
L75651 33707
L75726 33688
L75764 33670
L75801 33632
L75820 33576
L75820 33538
L75801 33482
L75783 33463
L75651 33463
L75651 33538
" />
<path d="M75820 33295
L75558 33295
" />
<path d="M75633 33295
L75595 33276
L75576 33257
L75558 33220
L75558 33182
" />
<path d="M75801 32901
L75820 32938
L75820 33013
L75801 33051
L75764 33070
L75614 33070
L75576 33051
L75558 33013
L75558 32938
L75576 32901
L75614 32882
L75651 32882
L75689 33070
" />
<path d="M75801 32563
L75820 32601
L75820 32676
L75801 32713
L75764 32732
L75614 32732
L75576 32713
L75558 32676
L75558 32601
L75576 32563
L75614 32545
L75651 32545
L75689 32732
" />
<path d="M75558 32376
L75820 32376
" />
<path d="M75595 32376
L75576 32357
L75558 32320
L75558 32264
L75576 32226
L75614 32207
L75820 32207
" />
<path d="M75820 31532
L75820 31720
L75427 31720
" />
<path d="M75614 31401
L75614 31270
" />
<path d="M75820 31214
L75820 31401
L75427 31401
L75427 31214
" />
<path d="M75820 31045
L75427 31045
L75427 30951
L75445 30895
L75483 30857
L75520 30839
L75595 30820
L75651 30820
L75726 30839
L75764 30857
L75801 30895
L75820 30951
L75820 31045
" />
<path d="M77430 32999
L77618 32999
" />
<path d="M77224 33130
L77430 32999
L77224 32868
" />
<path d="M77618 32549
L77618 32736
L77224 32736
" />
<path d="M76292 53745
L76292 54063
L76311 54101
L76330 54119
L76367 54138
L76442 54138
L76480 54119
L76499 54101
L76517 54063
L76517 53745
" />
<path d="M76686 54119
L76742 54138
L76836 54138
L76874 54119
L76892 54101
L76911 54063
L76911 54026
L76892 53988
L76874 53970
L76836 53951
L76761 53932
L76724 53913
L76705 53895
L76686 53857
L76686 53820
L76705 53782
L76724 53763
L76761 53745
L76855 53745
L76911 53763
" />
<path d="M77211 53932
L77267 53951
L77286 53970
L77305 54007
L77305 54063
L77286 54101
L77267 54119
L77230 54138
L77080 54138
L77080 53745
L77211 53745
L77249 53763
L77267 53782
L77286 53820
L77286 53857
L77267 53895
L77249 53913
L77211 53932
L77080 53932
" />
<path d="M77380 54176
L77680 54176
" />
<path d="M77905 53932
L77961 53951
L77980 53970
L77999 54007
L77999 54063
L77980 54101
L77961 54119
L77924 54138
L77774 54138
L77774 53745
L77905 53745
L77942 53763
L77961 53782
L77980 53820
L77980 53857
L77961 53895
L77942 53913
L77905 53932
L77774 53932
" />
<path d="M78074 54176
L78373 54176
" />
<path d="M78467 54138
L78467 53745
L78598 54026
L78730 53745
L78730 54138
" />
<path d="M78917 54138
L78917 53876
" />
<path d="M78917 53745
L78898 53763
L78917 53782
L78936 53763
L78917 53745
L78917 53782
" />
<path d="M79273 54119
L79236 54138
L79161 54138
L79123 54119
L79105 54101
L79086 54063
L79086 53951
L79105 53913
L79123 53895
L79161 53876
L79236 53876
L79273 53895
" />
<path d="M79442 54138
L79442 53876
" />
<path d="M79442 53951
L79461 53913
L79480 53895
L79517 53876
L79555 53876
" />
<path d="M79742 54138
L79705 54119
L79686 54101
L79667 54063
L79667 53951
L79686 53913
L79705 53895
L79742 53876
L79798 53876
L79836 53895
L79855 53913
L79873 53951
L79873 54063
L79855 54101
L79836 54119
L79798 54138
L79742 54138
" />
<path d="M78968 34496
L78968 34721
" />
<path d="M78968 34609
L78574 34609
L78630 34646
L78668 34684
L78686 34721
" />
<path d="M78968 34328
L78574 34328
" />
<path d="M78818 34290
L78968 34178
" />
<path d="M78705 34178
L78855 34328
" />
<path d="M80448 35714
L80448 35939
" />
<path d="M80448 35826
L80054 35826
L80110 35864
L80148 35901
L80166 35939
" />
<path d="M80054 35470
L80054 35433
L80073 35395
L80091 35376
L80129 35358
L80204 35339
L80298 35339
L80373 35358
L80410 35376
L80429 35395
L80448 35433
L80448 35470
L80429 35508
L80410 35526
L80373 35545
L80298 35564
L80204 35564
L80129 35545
L80091 35526
L80073 35508
L80054 35470
" />
<path d="M80448 35170
L80054 35170
" />
<path d="M80298 35133
L80448 35020
" />
<path d="M80185 35020
L80335 35170
" />
<path d="M76528 34496
L76528 34721
" />
<path d="M76528 34609
L76134 34609
L76190 34646
L76228 34684
L76246 34721
" />
<path d="M76528 34328
L76134 34328
" />
<path d="M76378 34290
L76528 34178
" />
<path d="M76265 34178
L76415 34328
" />
<path d="M78168 34466
L78168 34691
" />
<path d="M78168 34579
L77774 34579
L77830 34616
L77868 34654
L77886 34691
" />
<path d="M78168 34298
L77774 34298
" />
<path d="M78018 34260
L78168 34148
" />
<path d="M77905 34148
L78055 34298
" />
<path d="M77348 34496
L77348 34721
" />
<path d="M77348 34609
L76954 34609
L77010 34646
L77048 34684
L77066 34721
" />
<path d="M77348 34328
L76954 34328
" />
<path d="M77198 34290
L77348 34178
" />
<path d="M77085 34178
L77235 34328
" />
<path d="M75714 39367
L75586 39494
" />
<path d="M75650 39430
L75427 39208
L75438 39261
L75438 39303
L75427 39335
" />
<path d="M75682 38953
L75640 38996
L75629 39027
L75629 39049
L75640 39102
L75671 39155
L75756 39239
L75788 39250
L75809 39250
L75841 39239
L75883 39197
L75894 39165
L75894 39144
L75883 39112
L75830 39059
L75799 39049
L75777 39049
L75746 39059
L75703 39102
L75693 39133
L75693 39155
L75703 39186
" />
<path d="M76021 39059
L75799 38836
L76032 38921
L75947 38688
L76170 38911
" />
<path d="M76276 38805
L76053 38582
" />
<path d="M76159 38688
L76286 38561
" />
<path d="M76403 38677
L76180 38455
" />
<path d="M76339 38444
L76456 38327
L76488 38593
L76605 38476
" />
<path d="M75294 40496
L75426 40629
" />
<path d="M75188 40550
L75559 40364
L75373 40735
" />
<path d="M75705 40510
L75864 40669
" />
<path d="M75506 40868
L75784 40589
" />
<path d="M75678 41040
L75957 40762
L75850 41053
L76142 40947
L75864 41226
" />
<path d="M76142 41212
L76235 41305
" />
<path d="M76129 41491
L75996 41358
L76275 41080
L76407 41212
" />
<path d="M76659 41491
L76646 41451
L76606 41411
L76553 41385
L76500 41385
L76460 41398
L76394 41438
L76354 41477
L76314 41544
L76301 41584
L76301 41637
L76328 41690
L76354 41716
L76407 41743
L76434 41743
L76527 41650
L76474 41597
" />
<path d="M76593 41796
L76725 41928
" />
<path d="M76487 41849
L76858 41663
L76672 42034
" />
<path d="M77017 41822
L77189 41994
L76991 42008
L77030 42048
L77044 42087
L77044 42114
L77030 42154
L76964 42220
L76924 42233
L76898 42233
L76858 42220
L76778 42140
L76765 42101
L76765 42074
" />
<path d="M77269 42127
L77295 42127
L77335 42140
L77401 42207
L77415 42246
L77415 42273
L77401 42313
L77375 42339
L77322 42366
L77004 42366
L77176 42538
" />
<path d="M77600 42591
L77415 42777
" />
<path d="M77640 42419
L77375 42551
L77547 42724
" />
<path d="M77561 42922
L77839 42644
L77945 42750
L77958 42790
L77958 42816
L77945 42856
L77905 42896
L77865 42909
L77839 42909
L77799 42896
L77693 42790
" />
<path d="M78078 43148
L78104 43201
L78104 43227
L78091 43267
L78051 43307
L78011 43320
L77985 43320
L77945 43307
L77839 43201
L78117 42922
L78210 43015
L78223 43055
L78223 43082
L78210 43121
L78184 43148
L78144 43161
L78117 43161
L78078 43148
L77985 43055
" />
<path d="M78223 43373
L78436 43585
" />
<path d="M78528 43731
L78661 43864
" />
<path d="M78422 43784
L78793 43599
L78608 43970
" />
<path d="M78979 43784
L78754 44009
L78740 44049
L78740 44076
L78754 44116
L78807 44169
L78846 44182
L78873 44182
L78913 44169
L79138 43943
" />
<path d="M76490 46654
L76733 46654
L76583 46804
L76640 46804
L76675 46823
L76691 46841
L76705 46879
L76693 46973
L76670 47010
L76649 47029
L76609 47048
L76497 47048
L76461 47029
L76445 47010
" />
<path d="M76879 46691
L76900 46673
L76939 46654
L77033 46654
L77068 46673
L77085 46691
L77099 46729
L77094 46766
L77068 46823
L76815 47048
L77059 47048
" />
<path d="M77232 47010
L77249 47029
L77228 47048
L77211 47029
L77232 47010
L77228 47048
" />
<path d="M77427 46654
L77689 46654
L77471 47048
" />
<path d="M78008 46654
L77933 46654
L77893 46673
L77872 46691
L77828 46748
L77800 46823
L77781 46973
L77795 47010
L77811 47029
L77846 47048
L77921 47048
L77961 47029
L77982 47010
L78006 46973
L78017 46879
L78003 46841
L77987 46823
L77952 46804
L77877 46804
L77837 46823
L77816 46841
L77792 46879
" />
<path d="M78249 46823
L78214 46804
L78198 46785
L78184 46748
L78186 46729
L78210 46691
L78231 46673
L78271 46654
L78346 46654
L78381 46673
L78397 46691
L78411 46729
L78409 46748
L78385 46785
L78364 46804
L78324 46823
L78249 46823
L78210 46841
L78189 46860
L78165 46898
L78156 46973
L78170 47010
L78186 47029
L78221 47048
L78296 47048
L78336 47029
L78357 47010
L78381 46973
L78390 46898
L78376 46860
L78360 46841
L78324 46823
" />
<path d="M78540 47048
L78589 46654
" />
<path d="M78596 46898
L78690 47048
" />
<path d="M78723 46785
L78554 46935
" />
<path d="M78859 47048
L78908 46654
" />
<path d="M78885 46841
L79110 46841
" />
<path d="M79084 47048
L79133 46654
" />
<path d="M79267 46785
L79473 46785
L79234 47048
L79440 47048
" />
<svg:g >
</g>
</g> 
</svg>
