<?xml version="1.0" standalone="no"?>
 <!DOCTYPE svg PUBLIC "-//W3C//DTD SVG 1.1//EN" 
 "http://www.w3.org/Graphics/SVG/1.1/DTD/svg11.dtd"> 
<svg xmlns="http://www.w3.org/2000/svg" version="1.1" 
    width="29.7002cm" height="21.0007cm" viewBox="0 0 116930 82680 ">
<title>SVG Picture created as arduino_nano324-B_Fab.svg date 2019/02/10 21:42:41 </title>
  <desc>Picture generated by PCBNEW </desc>
<g style="fill:#000000; fill-opacity:1;stroke:#000000; stroke-opacity:1;
stroke-linecap:round; stroke-linejoin:round; "
 transform="translate(0 0) scale(1 1)">
</g>
<g style="fill:#000000; fill-opacity:0.0; 
stroke:#000000; stroke-width:-0.000393701; stroke-opacity:1; 
stroke-linecap:round; stroke-linejoin:round;">
</g>
<g style="fill:#000000; fill-opacity:0.0; 
stroke:#000000; stroke-width:196.85; stroke-opacity:1; 
stroke-linecap:round; stroke-linejoin:round;">
<path d="M73200 28300
L82800 28300
" />
<path d="M82800 25000
L73200 25000
" />
<path d="M82800 25000
L82800 53700
" />
<path d="M73200 53700
L73200 25000
" />
<path d="M82800 53700
L73200 53700
" />
</g>
<g style="fill:#000000; fill-opacity:0.0; 
stroke:#000000; stroke-width:39.3701; stroke-opacity:1; 
stroke-linecap:round; stroke-linejoin:round;">
<path d="M75985 50258
L75985 51517
" />
<path d="M75985 51517
L76614 51517
" />
<path d="M76614 51517
L76614 50258
" />
<path d="M76614 50258
L75985 50258
" />
<svg:g >
</g>
<svg:g >
</g>
<svg:g >
</g>
<svg:g >
</g>
<svg:g >
</g>
<svg:g >
</g>
<svg:g >
</g>
<svg:g >
</g>
<svg:g >
</g>
<svg:g >
</g>
<svg:g >
</g>
<svg:g >
</g>
<svg:g >
</g>
<svg:g >
</g>
<svg:g >
</g>
<svg:g >
</g>
<svg:g >
</g>
<svg:g >
</g>
<svg:g >
</g>
<svg:g >
</g>
<svg:g >
</g>
<svg:g >
</g>
<svg:g >
</g>
<svg:g >
</g>
<svg:g >
</g>
<svg:g >
</g>
<svg:g >
</g>
<svg:g >
</g>
<svg:g >
</g>
<svg:g >
</g>
<svg:g >
</g>
<svg:g >
</g>
<svg:g >
</g>
<svg:g >
</g>
<svg:g >
</g>
<svg:g >
</g>
<svg:g >
</g>
<svg:g >
</g>
<svg:g >
</g>
</g>
<g style="fill:#000000; fill-opacity:0.0; 
stroke:#000000; stroke-width:59.0551; stroke-opacity:1; 
stroke-linecap:round; stroke-linejoin:round;">
<path d="M77312 38574
L77274 38574
L77237 38593
L77218 38611
L77199 38649
L77181 38724
L77181 38818
L77199 38893
L77218 38930
L77237 38949
L77274 38968
L77312 38968
L77349 38949
L77368 38930
L77387 38893
L77406 38818
L77406 38724
L77387 38649
L77368 38611
L77349 38593
L77312 38574
" />
<path d="M77012 38930
L76993 38949
L77012 38968
L77031 38949
L77012 38930
L77012 38968
" />
<path d="M76618 38968
L76843 38968
" />
<path d="M76731 38968
L76731 38574
L76768 38630
L76806 38668
L76843 38686
" />
<path d="M76450 38968
L76450 38705
" />
<path d="M76450 38743
L76431 38724
L76393 38705
L76337 38705
L76300 38724
L76281 38761
L76281 38968
" />
<path d="M76281 38761
L76262 38724
L76225 38705
L76168 38705
L76131 38724
L76112 38761
L76112 38968
" />
<path d="M79762 41204
L79724 41204
L79687 41223
L79668 41241
L79649 41279
L79631 41354
L79631 41448
L79649 41523
L79668 41560
L79687 41579
L79724 41598
L79762 41598
L79799 41579
L79818 41560
L79837 41523
L79856 41448
L79856 41354
L79837 41279
L79818 41241
L79799 41223
L79762 41204
" />
<path d="M79462 41560
L79443 41579
L79462 41598
L79481 41579
L79462 41560
L79462 41598
" />
<path d="M79068 41598
L79293 41598
" />
<path d="M79181 41598
L79181 41204
L79218 41260
L79256 41298
L79293 41316
" />
<path d="M78900 41598
L78900 41335
" />
<path d="M78900 41373
L78881 41354
L78843 41335
L78787 41335
L78750 41354
L78731 41391
L78731 41598
" />
<path d="M78731 41391
L78712 41354
L78675 41335
L78618 41335
L78581 41354
L78562 41391
L78562 41598
" />
<path d="M77664 33455
L77626 33455
L77589 33474
L77570 33493
L77551 33530
L77533 33605
L77533 33699
L77551 33774
L77570 33811
L77589 33830
L77626 33849
L77664 33849
L77701 33830
L77720 33811
L77739 33774
L77758 33699
L77758 33605
L77739 33530
L77720 33493
L77701 33474
L77664 33455
" />
<path d="M77364 33811
L77345 33830
L77364 33849
L77383 33830
L77364 33811
L77364 33849
" />
<path d="M76970 33849
L77195 33849
" />
<path d="M77083 33849
L77083 33455
L77120 33511
L77158 33549
L77195 33568
" />
<path d="M76802 33849
L76802 33586
" />
<path d="M76802 33624
L76783 33605
L76745 33586
L76689 33586
L76652 33605
L76633 33643
L76633 33849
" />
<path d="M76633 33643
L76614 33605
L76577 33586
L76520 33586
L76483 33605
L76464 33643
L76464 33849
" />
<path d="M77584 31687
L77547 31687
L77509 31705
L77490 31724
L77472 31762
L77453 31837
L77453 31930
L77472 32005
L77490 32043
L77509 32062
L77547 32080
L77584 32080
L77622 32062
L77640 32043
L77659 32005
L77678 31930
L77678 31837
L77659 31762
L77640 31724
L77622 31705
L77584 31687
" />
<path d="M77284 32043
L77265 32062
L77284 32080
L77303 32062
L77284 32043
L77284 32080
" />
<path d="M76890 32080
L77115 32080
" />
<path d="M77003 32080
L77003 31687
L77040 31743
L77078 31780
L77115 31799
" />
<path d="M76722 32080
L76722 31818
" />
<path d="M76722 31855
L76703 31837
L76665 31818
L76609 31818
L76572 31837
L76553 31874
L76553 32080
" />
<path d="M76553 31874
L76534 31837
L76497 31818
L76440 31818
L76403 31837
L76384 31874
L76384 32080
" />
<path d="M79742 38604
L79704 38604
L79667 38623
L79648 38641
L79629 38679
L79611 38754
L79611 38848
L79629 38923
L79648 38960
L79667 38979
L79704 38998
L79742 38998
L79779 38979
L79798 38960
L79817 38923
L79836 38848
L79836 38754
L79817 38679
L79798 38641
L79779 38623
L79742 38604
" />
<path d="M79442 38960
L79423 38979
L79442 38998
L79461 38979
L79442 38960
L79442 38998
" />
<path d="M79048 38998
L79273 38998
" />
<path d="M79161 38998
L79161 38604
L79198 38660
L79236 38698
L79273 38716
" />
<path d="M78880 38998
L78880 38735
" />
<path d="M78880 38773
L78861 38754
L78823 38735
L78767 38735
L78730 38754
L78711 38791
L78711 38998
" />
<path d="M78711 38791
L78692 38754
L78655 38735
L78598 38735
L78561 38754
L78542 38791
L78542 38998
" />
<path d="M79400 30011
L79362 30011
L79325 30030
L79306 30049
L79287 30086
L79269 30161
L79269 30255
L79287 30330
L79306 30367
L79325 30386
L79362 30405
L79400 30405
L79437 30386
L79456 30367
L79475 30330
L79494 30255
L79494 30161
L79475 30086
L79456 30049
L79437 30030
L79400 30011
" />
<path d="M79100 30367
L79081 30386
L79100 30405
L79119 30386
L79100 30367
L79100 30405
" />
<path d="M78706 30405
L78931 30405
" />
<path d="M78819 30405
L78819 30011
L78856 30067
L78894 30105
L78931 30124
" />
<path d="M78537 30405
L78537 30142
" />
<path d="M78537 30180
L78519 30161
L78481 30142
L78425 30142
L78387 30161
L78369 30199
L78369 30405
" />
<path d="M78369 30199
L78350 30161
L78312 30142
L78256 30142
L78219 30161
L78200 30199
L78200 30405
" />
<path d="M79722 37784
L79684 37784
L79647 37803
L79628 37821
L79609 37859
L79591 37934
L79591 38028
L79609 38103
L79628 38140
L79647 38159
L79684 38178
L79722 38178
L79759 38159
L79778 38140
L79797 38103
L79816 38028
L79816 37934
L79797 37859
L79778 37821
L79759 37803
L79722 37784
" />
<path d="M79422 38140
L79403 38159
L79422 38178
L79441 38159
L79422 38140
L79422 38178
" />
<path d="M79028 38178
L79253 38178
" />
<path d="M79141 38178
L79141 37784
L79178 37840
L79216 37878
L79253 37896
" />
<path d="M78860 38178
L78860 37915
" />
<path d="M78860 37953
L78841 37934
L78803 37915
L78747 37915
L78710 37934
L78691 37971
L78691 38178
" />
<path d="M78691 37971
L78672 37934
L78635 37915
L78578 37915
L78541 37934
L78522 37971
L78522 38178
" />
<path d="M75848 46132
L75454 46132
L75735 46263
L75454 46395
L75848 46395
" />
<path d="M75641 46713
L75660 46770
L75679 46788
L75716 46807
L75773 46807
L75810 46788
L75829 46770
L75848 46732
L75848 46582
L75454 46582
L75454 46713
L75473 46751
L75491 46770
L75529 46788
L75566 46788
L75604 46770
L75623 46751
L75641 46713
L75641 46582
" />
<path d="M75848 47201
L75660 47070
" />
<path d="M75848 46976
L75454 46976
L75454 47126
L75473 47163
L75491 47182
L75529 47201
L75585 47201
L75623 47182
L75641 47163
L75660 47126
L75660 46976
" />
<path d="M75848 47576
L75848 47351
" />
<path d="M75848 47463
L75454 47463
L75510 47426
L75548 47388
L75566 47351
" />
<path d="M75491 47726
L75473 47744
L75454 47782
L75454 47876
L75473 47913
L75491 47932
L75529 47951
L75566 47951
L75623 47932
L75848 47707
L75848 47951
" />
<path d="M75454 48194
L75454 48232
L75473 48269
L75491 48288
L75529 48307
L75604 48326
L75698 48326
L75773 48307
L75810 48288
L75829 48269
L75848 48232
L75848 48194
L75829 48157
L75810 48138
L75773 48119
L75698 48101
L75604 48101
L75529 48119
L75491 48138
L75473 48157
L75454 48194
" />
<path d="M80069 33853
L80069 33459
L79938 33740
L79806 33459
L79806 33853
" />
<path d="M79488 33647
L79431 33665
L79413 33684
L79394 33722
L79394 33778
L79413 33815
L79431 33834
L79469 33853
L79619 33853
L79619 33459
L79488 33459
L79450 33478
L79431 33497
L79413 33534
L79413 33572
L79431 33609
L79450 33628
L79488 33647
L79619 33647
" />
<path d="M79000 33853
L79131 33665
" />
<path d="M79225 33853
L79225 33459
L79075 33459
L79038 33478
L79019 33497
L79000 33534
L79000 33590
L79019 33628
L79038 33647
L79075 33665
L79225 33665
" />
<path d="M78625 33853
L78850 33853
" />
<path d="M78738 33853
L78738 33459
L78775 33515
L78813 33553
L78850 33572
" />
<path d="M78475 33497
L78457 33478
L78419 33459
L78325 33459
L78288 33478
L78269 33497
L78250 33534
L78250 33572
L78269 33628
L78494 33853
L78250 33853
" />
<path d="M78007 33459
L77969 33459
L77932 33478
L77913 33497
L77894 33534
L77875 33609
L77875 33703
L77894 33778
L77913 33815
L77932 33834
L77969 33853
L78007 33853
L78044 33834
L78063 33815
L78082 33778
L78100 33703
L78100 33609
L78082 33534
L78063 33497
L78044 33478
L78007 33459
" />
<path d="M76271 50420
L76271 50288
" />
<path d="M76478 50288
L76084 50288
L76084 50476
" />
<path d="M76215 50795
L76478 50795
" />
<path d="M76215 50626
L76421 50626
L76459 50645
L76478 50682
L76478 50738
L76459 50776
L76440 50795
" />
<path d="M76459 50963
L76478 51001
L76478 51076
L76459 51113
L76421 51132
L76403 51132
L76365 51113
L76346 51076
L76346 51019
L76328 50982
L76290 50963
L76271 50963
L76234 50982
L76215 51019
L76215 51076
L76234 51113
" />
<path d="M76459 51451
L76478 51413
L76478 51338
L76459 51301
L76421 51282
L76271 51282
L76234 51301
L76215 51338
L76215 51413
L76234 51451
L76271 51469
L76309 51469
L76346 51282
" />
<path d="M78399 52848
L78381 52829
L78343 52811
L78249 52811
L78212 52829
L78193 52848
L78174 52886
L78174 52923
L78193 52979
L78418 53204
L78174 53204
" />
<path d="M78025 52848
L78006 52829
L77968 52811
L77875 52811
L77837 52829
L77818 52848
L77800 52886
L77800 52923
L77818 52979
L78043 53204
L77800 53204
" />
<path d="M78399 53718
L78381 53699
L78343 53681
L78249 53681
L78212 53699
L78193 53718
L78174 53756
L78174 53793
L78193 53849
L78418 54074
L78174 54074
" />
<path d="M78025 53718
L78006 53699
L77968 53681
L77875 53681
L77837 53699
L77818 53718
L77800 53756
L77800 53793
L77818 53849
L78043 54074
L77800 54074
" />
<path d="M76872 38138
L77097 38138
" />
<path d="M76984 38138
L76984 37744
L77022 37800
L77059 37838
L77097 37856
" />
<path d="M76703 38138
L76703 37744
L76572 38025
L76441 37744
L76441 38138
" />
<path d="M79404 48530
L79423 48549
L79479 48568
L79517 48568
L79573 48549
L79611 48511
L79629 48474
L79648 48399
L79648 48343
L79629 48268
L79611 48230
L79573 48193
L79517 48174
L79479 48174
L79423 48193
L79404 48211
" />
<path d="M79236 48568
L79236 48174
L79086 48174
L79048 48193
L79029 48211
L79011 48249
L79011 48305
L79029 48343
L79048 48361
L79086 48380
L79236 48380
" />
<path d="M78861 48211
L78842 48193
L78804 48174
L78711 48174
L78673 48193
L78654 48211
L78636 48249
L78636 48286
L78654 48343
L78879 48568
L78636 48568
" />
<path d="M78261 48568
L78486 48568
" />
<path d="M78373 48568
L78373 48174
L78411 48230
L78448 48268
L78486 48286
" />
<path d="M78017 48174
L77980 48174
L77942 48193
L77923 48211
L77905 48249
L77886 48324
L77886 48418
L77905 48493
L77923 48530
L77942 48549
L77980 48568
L78017 48568
L78055 48549
L78073 48530
L78092 48493
L78111 48418
L78111 48324
L78092 48249
L78073 48211
L78055 48193
L78017 48174
" />
<path d="M77548 48305
L77548 48568
" />
<path d="M77642 48155
L77736 48436
L77492 48436
" />
<svg:g >
</g>
</g> 
</svg>
