<?xml version="1.0" standalone="no"?>
 <!DOCTYPE svg PUBLIC "-//W3C//DTD SVG 1.1//EN" 
 "http://www.w3.org/Graphics/SVG/1.1/DTD/svg11.dtd"> 
<svg xmlns="http://www.w3.org/2000/svg" version="1.1" 
    width="29.7002cm" height="21.0007cm" viewBox="0 0 116930 82680 ">
<title>SVG Picture created as arduino_nano324-F_Mask.svg date 2019/02/10 21:42:41 </title>
  <desc>Picture generated by PCBNEW </desc>
<g style="fill:#000000; fill-opacity:1;stroke:#000000; stroke-opacity:1;
stroke-linecap:round; stroke-linejoin:round; "
 transform="translate(0 0) scale(1 1)">
</g>
<g style="fill:#000000; fill-opacity:0.0; 
stroke:#000000; stroke-width:-0.000393701; stroke-opacity:1; 
stroke-linecap:round; stroke-linejoin:round;">
</g>
<g style="fill:#000000; fill-opacity:0.0; 
stroke:#000000; stroke-width:196.85; stroke-opacity:1; 
stroke-linecap:round; stroke-linejoin:round;">
<path d="M73200 28300
L82800 28300
" />
<path d="M82800 25000
L73200 25000
" />
</g>
<g style="fill:#000000; fill-opacity:0.0; 
stroke:#000000; stroke-width:59.0551; stroke-opacity:1; 
stroke-linecap:round; stroke-linejoin:round;">
<path d="M78424 33848
L78293 33660
" />
<path d="M78199 33848
L78199 33454
L78349 33454
L78386 33473
L78405 33491
L78424 33529
L78424 33585
L78405 33623
L78386 33641
L78349 33660
L78199 33660
" />
<path d="M78555 33454
L78818 33848
" />
<path d="M78818 33454
L78555 33848
" />
<path d="M77145 33474
L77370 33474
" />
<path d="M77257 33868
L77257 33474
" />
<path d="M77463 33474
L77726 33868
" />
<path d="M77726 33474
L77463 33868
" />
<path d="M76501 33848
L76314 33848
L76314 33454
" />
<path d="M79256 33444
L79331 33444
L79368 33463
L79406 33500
L79425 33575
L79425 33706
L79406 33781
L79368 33819
L79331 33838
L79256 33838
L79218 33819
L79181 33781
L79162 33706
L79162 33575
L79181 33500
L79218 33463
L79256 33444
" />
<path d="M79593 33838
L79593 33444
L79818 33838
L79818 33444
" />
</g>
<g style="fill:#000000; fill-opacity:0.0; 
stroke:#000000; stroke-width:196.85; stroke-opacity:1; 
stroke-linecap:round; stroke-linejoin:round;">
<path d="M82800 25000
L82800 53700
" />
<path d="M73200 53700
L73200 25000
" />
<path d="M82800 53700
L73200 53700
" />
</g>
<g style="fill:#000000; fill-opacity:1.0; 
stroke:#000000; stroke-width:0; stroke-opacity:1; 
stroke-linecap:round; stroke-linejoin:round;">
<path style="fill:#000000; fill-opacity:1.0; 
stroke:#000000; stroke-width:0; stroke-opacity:1; 
stroke-linecap:round; stroke-linejoin:round;fill-rule:evenodd;"
d="M 82097,52509
82145,52519
82236,52556
82278,52584
82318,52611
82388,52681
82415,52721
82443,52763
82480,52854
82500,52950
82500,53049
82480,53145
82443,53236
82388,53318
82318,53388
82236,53443
82145,53480
82097,53490
82049,53500
81950,53500
81902,53490
81854,53480
81763,53443
81681,53388
81611,53318
81556,53236
81519,53145
81500,53049
81500,52950
81519,52854
81556,52763
81584,52721
81611,52681
81681,52611
81721,52584
81763,52556
81854,52519
81902,52509
81950,52500
82049,52500
82097,52509
Z" /> 
<path style="fill:#000000; fill-opacity:1.0; 
stroke:#000000; stroke-width:0; stroke-opacity:1; 
stroke-linecap:round; stroke-linejoin:round;fill-rule:evenodd;"
d="M 74097,52509
74145,52519
74236,52556
74278,52584
74318,52611
74388,52681
74415,52721
74443,52763
74480,52854
74500,52950
74500,53049
74480,53145
74443,53236
74388,53318
74318,53388
74236,53443
74145,53480
74097,53490
74049,53500
73950,53500
73902,53490
73854,53480
73763,53443
73681,53388
73611,53318
73556,53236
73519,53145
73500,53049
73500,52950
73519,52854
73556,52763
73584,52721
73611,52681
73681,52611
73721,52584
73763,52556
73854,52519
73902,52509
73950,52500
74049,52500
74097,52509
Z" /> 
<path style="fill:#000000; fill-opacity:1.0; 
stroke:#000000; stroke-width:0; stroke-opacity:1; 
stroke-linecap:round; stroke-linejoin:round;fill-rule:evenodd;"
d="M 79490,52216
79527,52227
79553,52241
79561,52245
79591,52270
79602,52284
79616,52300
79634,52334
79645,52371
79648,52400
79648,52636
79645,52665
79634,52702
79616,52736
79591,52766
79561,52791
79527,52809
79490,52820
79451,52824
79413,52820
79375,52809
79341,52791
79311,52766
79287,52736
79268,52702
79257,52665
79254,52636
79254,52400
79257,52371
79268,52334
79287,52300
79287,52300
79311,52270
79341,52245
79341,52245
79341,52245
79375,52227
79413,52216
79451,52212
79490,52216
Z" /> 
<path style="fill:#000000; fill-opacity:1.0; 
stroke:#000000; stroke-width:0; stroke-opacity:1; 
stroke-linecap:round; stroke-linejoin:round;fill-rule:evenodd;"
d="M 76734,52216
76771,52227
76797,52241
76805,52245
76835,52270
76846,52284
76860,52300
76878,52334
76889,52371
76892,52400
76892,52636
76889,52665
76878,52702
76860,52736
76835,52766
76805,52791
76771,52809
76734,52820
76695,52824
76657,52820
76620,52809
76585,52791
76555,52766
76531,52736
76512,52702
76501,52665
76498,52636
76498,52400
76501,52371
76512,52334
76531,52300
76531,52300
76555,52270
76585,52245
76585,52245
76585,52245
76620,52227
76657,52216
76695,52212
76734,52216
Z" /> 
<path style="fill:#000000; fill-opacity:1.0; 
stroke:#000000; stroke-width:0; stroke-opacity:1; 
stroke-linecap:round; stroke-linejoin:round;fill-rule:evenodd;"
d="M 74093,51661
74126,51664
74190,51684
74190,51684
74249,51715
74249,51715
74249,51715
74301,51758
74344,51810
74344,51810
74344,51810
74375,51869
74375,51869
74395,51933
74401,52000
74395,52066
74375,52130
74375,52130
74344,52189
74344,52189
74301,52241
74249,52284
74249,52284
74249,52284
74190,52315
74190,52315
74126,52335
74093,52338
74076,52340
73923,52340
73906,52338
73873,52335
73809,52315
73809,52315
73750,52284
73750,52284
73750,52284
73698,52241
73655,52189
73655,52189
73624,52130
73624,52130
73604,52066
73598,52000
73604,51933
73624,51869
73624,51869
73655,51810
73655,51810
73655,51810
73698,51758
73750,51715
73750,51715
73750,51715
73809,51684
73809,51684
73873,51664
73906,51661
73923,51660
74076,51660
74093,51661
Z" /> 
<path style="fill:#000000; fill-opacity:1.0; 
stroke:#000000; stroke-width:0; stroke-opacity:1; 
stroke-linecap:round; stroke-linejoin:round;fill-rule:evenodd;"
d="M 82093,51661
82126,51664
82190,51684
82190,51684
82249,51715
82249,51715
82249,51715
82301,51758
82344,51810
82344,51810
82344,51810
82375,51869
82375,51869
82395,51933
82401,52000
82395,52066
82375,52130
82375,52130
82344,52189
82344,52189
82301,52241
82249,52284
82249,52284
82249,52284
82190,52315
82190,52315
82126,52335
82093,52338
82076,52340
81923,52340
81906,52338
81873,52335
81809,52315
81809,52315
81750,52284
81750,52284
81750,52284
81698,52241
81655,52189
81655,52189
81624,52130
81624,52130
81604,52066
81598,52000
81604,51933
81624,51869
81624,51869
81655,51810
81655,51810
81655,51810
81698,51758
81750,51715
81750,51715
81750,51715
81809,51684
81809,51684
81873,51664
81906,51661
81923,51660
82076,51660
82093,51661
Z" /> 
<path style="fill:#000000; fill-opacity:1.0; 
stroke:#000000; stroke-width:0; stroke-opacity:1; 
stroke-linecap:round; stroke-linejoin:round;fill-rule:evenodd;"
d="M 77640,51721
77483,51721
77483,51189
77640,51189
77640,51721
Z" /> 
<path style="fill:#000000; fill-opacity:1.0; 
stroke:#000000; stroke-width:0; stroke-opacity:1; 
stroke-linecap:round; stroke-linejoin:round;fill-rule:evenodd;"
d="M 78664,51721
78506,51721
78506,51189
78664,51189
78664,51721
Z" /> 
<path style="fill:#000000; fill-opacity:1.0; 
stroke:#000000; stroke-width:0; stroke-opacity:1; 
stroke-linecap:round; stroke-linejoin:round;fill-rule:evenodd;"
d="M 78408,51721
78250,51721
78250,51189
78408,51189
78408,51721
Z" /> 
<path style="fill:#000000; fill-opacity:1.0; 
stroke:#000000; stroke-width:0; stroke-opacity:1; 
stroke-linecap:round; stroke-linejoin:round;fill-rule:evenodd;"
d="M 78152,51721
77994,51721
77994,51189
78152,51189
78152,51721
Z" /> 
<path style="fill:#000000; fill-opacity:1.0; 
stroke:#000000; stroke-width:0; stroke-opacity:1; 
stroke-linecap:round; stroke-linejoin:round;fill-rule:evenodd;"
d="M 77896,51721
77739,51721
77739,51189
77896,51189
77896,51721
Z" /> 
<path style="fill:#000000; fill-opacity:1.0; 
stroke:#000000; stroke-width:0; stroke-opacity:1; 
stroke-linecap:round; stroke-linejoin:round;fill-rule:evenodd;"
d="M 79135,51269
79153,51271
79179,51279
79188,51282
79219,51298
79221,51299
79249,51322
79273,51351
79273,51351
79290,51383
79301,51419
79304,51455
79301,51492
79290,51527
79274,51558
79273,51560
79249,51588
79221,51611
79221,51611
79188,51629
79179,51632
79153,51639
79135,51641
79126,51642
78989,51642
78980,51641
78962,51639
78936,51632
78926,51629
78894,51611
78894,51611
78865,51588
78842,51560
78841,51558
78825,51527
78814,51492
78810,51455
78814,51419
78825,51383
78842,51351
78842,51351
78865,51322
78894,51299
78896,51298
78926,51282
78936,51279
78962,51271
78980,51269
78989,51268
79126,51268
79135,51269
Z" /> 
<path style="fill:#000000; fill-opacity:1.0; 
stroke:#000000; stroke-width:0; stroke-opacity:1; 
stroke-linecap:round; stroke-linejoin:round;fill-rule:evenodd;"
d="M 77166,51269
77185,51271
77211,51279
77220,51282
77251,51298
77252,51299
77281,51322
77304,51351
77304,51351
77322,51383
77332,51419
77336,51455
77332,51492
77322,51527
77305,51558
77304,51560
77281,51588
77252,51611
77252,51611
77220,51629
77211,51632
77185,51639
77166,51641
77157,51642
77021,51642
77012,51641
76993,51639
76967,51632
76958,51629
76925,51611
76925,51611
76897,51588
76874,51560
76873,51558
76856,51527
76846,51492
76842,51455
76846,51419
76856,51383
76874,51351
76874,51351
76897,51322
76925,51299
76927,51298
76958,51282
76967,51279
76993,51271
77012,51269
77021,51268
77157,51268
77166,51269
Z" /> 
<path style="fill:#000000; fill-opacity:1.0; 
stroke:#000000; stroke-width:0; stroke-opacity:1; 
stroke-linecap:round; stroke-linejoin:round;fill-rule:evenodd;"
d="M 82093,50661
82126,50664
82190,50684
82190,50684
82249,50715
82249,50715
82249,50715
82301,50758
82344,50810
82344,50810
82344,50810
82375,50869
82375,50869
82395,50933
82401,51000
82395,51066
82375,51130
82375,51130
82344,51189
82344,51189
82301,51241
82249,51284
82249,51284
82249,51284
82190,51315
82190,51315
82126,51335
82093,51338
82076,51340
81923,51340
81906,51338
81873,51335
81809,51315
81809,51315
81750,51284
81750,51284
81750,51284
81698,51241
81655,51189
81655,51189
81624,51130
81624,51130
81604,51066
81598,51000
81604,50933
81624,50869
81624,50869
81655,50810
81655,50810
81655,50810
81698,50758
81750,50715
81750,50715
81750,50715
81809,50684
81809,50684
81873,50664
81906,50661
81923,50660
82076,50660
82093,50661
Z" /> 
<path style="fill:#000000; fill-opacity:1.0; 
stroke:#000000; stroke-width:0; stroke-opacity:1; 
stroke-linecap:round; stroke-linejoin:round;fill-rule:evenodd;"
d="M 74093,50661
74126,50664
74190,50684
74190,50684
74249,50715
74249,50715
74249,50715
74301,50758
74344,50810
74344,50810
74344,50810
74375,50869
74375,50869
74395,50933
74401,51000
74395,51066
74375,51130
74375,51130
74344,51189
74344,51189
74301,51241
74249,51284
74249,51284
74249,51284
74190,51315
74190,51315
74126,51335
74093,51338
74076,51340
73923,51340
73906,51338
73873,51335
73809,51315
73809,51315
73750,51284
73750,51284
73750,51284
73698,51241
73655,51189
73655,51189
73624,51130
73624,51130
73604,51066
73598,51000
73604,50933
73624,50869
73624,50869
73655,50810
73655,50810
73655,50810
73698,50758
73750,50715
73750,50715
73750,50715
73809,50684
73809,50684
73873,50664
73906,50661
73923,50660
74076,50660
74093,50661
Z" /> 
<path style="fill:#000000; fill-opacity:1.0; 
stroke:#000000; stroke-width:0; stroke-opacity:1; 
stroke-linecap:round; stroke-linejoin:round;fill-rule:evenodd;"
d="M 78005,50705
77159,50705
77159,50114
78005,50114
78005,50705
Z" /> 
<path style="fill:#000000; fill-opacity:1.0; 
stroke:#000000; stroke-width:0; stroke-opacity:1; 
stroke-linecap:round; stroke-linejoin:round;fill-rule:evenodd;"
d="M 76823,50705
75977,50705
75977,50114
76823,50114
76823,50705
Z" /> 
<path style="fill:#000000; fill-opacity:1.0; 
stroke:#000000; stroke-width:0; stroke-opacity:1; 
stroke-linecap:round; stroke-linejoin:round;fill-rule:evenodd;"
d="M 79028,50695
78182,50695
78182,50104
79028,50104
79028,50695
Z" /> 
<path style="fill:#000000; fill-opacity:1.0; 
stroke:#000000; stroke-width:0; stroke-opacity:1; 
stroke-linecap:round; stroke-linejoin:round;fill-rule:evenodd;"
d="M 80210,50695
79364,50695
79364,50104
80210,50104
80210,50695
Z" /> 
<path style="fill:#000000; fill-opacity:1.0; 
stroke:#000000; stroke-width:0; stroke-opacity:1; 
stroke-linecap:round; stroke-linejoin:round;fill-rule:evenodd;"
d="M 82093,49661
82126,49664
82190,49684
82190,49684
82249,49715
82249,49715
82249,49715
82301,49758
82344,49810
82344,49810
82344,49810
82375,49869
82375,49869
82395,49933
82401,50000
82395,50066
82383,50104
82375,50130
82344,50189
82344,50189
82301,50241
82249,50284
82249,50284
82249,50284
82190,50315
82190,50315
82126,50335
82093,50338
82076,50340
81923,50340
81906,50338
81873,50335
81809,50315
81809,50315
81750,50284
81750,50284
81750,50284
81698,50241
81655,50189
81655,50189
81624,50130
81616,50104
81604,50066
81598,50000
81604,49933
81624,49869
81624,49869
81655,49810
81655,49810
81655,49810
81698,49758
81750,49715
81750,49715
81750,49715
81809,49684
81809,49684
81873,49664
81906,49661
81923,49660
82076,49660
82093,49661
Z" /> 
<path style="fill:#000000; fill-opacity:1.0; 
stroke:#000000; stroke-width:0; stroke-opacity:1; 
stroke-linecap:round; stroke-linejoin:round;fill-rule:evenodd;"
d="M 74093,49661
74126,49664
74190,49684
74190,49684
74249,49715
74249,49715
74249,49715
74301,49758
74344,49810
74344,49810
74344,49810
74375,49869
74375,49869
74395,49933
74401,50000
74395,50066
74383,50104
74375,50130
74344,50189
74344,50189
74301,50241
74249,50284
74249,50284
74249,50284
74190,50315
74190,50315
74126,50335
74093,50338
74076,50340
73923,50340
73906,50338
73873,50335
73809,50315
73809,50315
73750,50284
73750,50284
73750,50284
73698,50241
73655,50189
73655,50189
73624,50130
73616,50104
73604,50066
73598,50000
73604,49933
73624,49869
73624,49869
73655,49810
73655,49810
73655,49810
73698,49758
73750,49715
73750,49715
73750,49715
73809,49684
73809,49684
73873,49664
73906,49661
73923,49660
74076,49660
74093,49661
Z" /> 
<path style="fill:#000000; fill-opacity:1.0; 
stroke:#000000; stroke-width:0; stroke-opacity:1; 
stroke-linecap:round; stroke-linejoin:round;fill-rule:evenodd;"
d="M 82093,48661
82126,48664
82190,48684
82190,48684
82249,48715
82249,48715
82249,48715
82301,48758
82344,48810
82344,48810
82344,48810
82375,48869
82375,48869
82395,48933
82401,49000
82395,49066
82375,49130
82375,49130
82344,49189
82344,49189
82301,49241
82249,49284
82249,49284
82249,49284
82190,49315
82190,49315
82126,49335
82093,49338
82076,49340
81923,49340
81906,49338
81873,49335
81809,49315
81809,49315
81750,49284
81750,49284
81750,49284
81698,49241
81655,49189
81655,49189
81624,49130
81624,49130
81604,49066
81598,49000
81604,48933
81624,48869
81624,48869
81655,48810
81655,48810
81655,48810
81698,48758
81750,48715
81750,48715
81750,48715
81809,48684
81809,48684
81873,48664
81906,48661
81923,48660
82076,48660
82093,48661
Z" /> 
<path style="fill:#000000; fill-opacity:1.0; 
stroke:#000000; stroke-width:0; stroke-opacity:1; 
stroke-linecap:round; stroke-linejoin:round;fill-rule:evenodd;"
d="M 74093,48661
74126,48664
74190,48684
74190,48684
74249,48715
74249,48715
74249,48715
74301,48758
74344,48810
74344,48810
74344,48810
74375,48869
74375,48869
74395,48933
74401,49000
74395,49066
74375,49130
74375,49130
74344,49189
74344,49189
74301,49241
74249,49284
74249,49284
74249,49284
74190,49315
74190,49315
74126,49335
74093,49338
74076,49340
73923,49340
73906,49338
73873,49335
73809,49315
73809,49315
73750,49284
73750,49284
73750,49284
73698,49241
73655,49189
73655,49189
73624,49130
73624,49130
73604,49066
73598,49000
73604,48933
73624,48869
73624,48869
73655,48810
73655,48810
73655,48810
73698,48758
73750,48715
73750,48715
73750,48715
73809,48684
73809,48684
73873,48664
73906,48661
73923,48660
74076,48660
74093,48661
Z" /> 
<path style="fill:#000000; fill-opacity:1.0; 
stroke:#000000; stroke-width:0; stroke-opacity:1; 
stroke-linecap:round; stroke-linejoin:round;fill-rule:evenodd;"
d="M 82093,47661
82126,47664
82190,47684
82190,47684
82249,47715
82249,47715
82249,47715
82301,47758
82344,47810
82344,47810
82344,47810
82375,47869
82375,47869
82395,47933
82401,48000
82395,48066
82375,48130
82375,48130
82344,48189
82344,48189
82301,48241
82249,48284
82249,48284
82249,48284
82190,48315
82190,48315
82126,48335
82093,48338
82076,48340
81923,48340
81906,48338
81873,48335
81809,48315
81809,48315
81750,48284
81750,48284
81750,48284
81698,48241
81655,48189
81655,48189
81624,48130
81624,48130
81604,48066
81598,48000
81604,47933
81624,47869
81624,47869
81655,47810
81655,47810
81655,47810
81698,47758
81750,47715
81750,47715
81750,47715
81809,47684
81809,47684
81873,47664
81906,47661
81923,47660
82076,47660
82093,47661
Z" /> 
<path style="fill:#000000; fill-opacity:1.0; 
stroke:#000000; stroke-width:0; stroke-opacity:1; 
stroke-linecap:round; stroke-linejoin:round;fill-rule:evenodd;"
d="M 74093,47661
74126,47664
74190,47684
74190,47684
74249,47715
74249,47715
74249,47715
74301,47758
74344,47810
74344,47810
74344,47810
74375,47869
74375,47869
74395,47933
74401,48000
74395,48066
74375,48130
74375,48130
74344,48189
74344,48189
74301,48241
74249,48284
74249,48284
74249,48284
74190,48315
74190,48315
74126,48335
74093,48338
74076,48340
73923,48340
73906,48338
73873,48335
73809,48315
73809,48315
73750,48284
73750,48284
73750,48284
73698,48241
73655,48189
73655,48189
73624,48130
73624,48130
73604,48066
73598,48000
73604,47933
73624,47869
73624,47869
73655,47810
73655,47810
73655,47810
73698,47758
73750,47715
73750,47715
73750,47715
73809,47684
73809,47684
73873,47664
73906,47661
73923,47660
74076,47660
74093,47661
Z" /> 
<path style="fill:#000000; fill-opacity:1.0; 
stroke:#000000; stroke-width:0; stroke-opacity:1; 
stroke-linecap:round; stroke-linejoin:round;fill-rule:evenodd;"
d="M 74093,46661
74126,46664
74190,46684
74190,46684
74249,46715
74249,46715
74249,46715
74301,46758
74344,46810
74344,46810
74344,46810
74375,46869
74375,46869
74395,46933
74401,47000
74395,47066
74375,47130
74375,47130
74344,47189
74344,47189
74301,47241
74249,47284
74249,47284
74249,47284
74190,47315
74190,47315
74126,47335
74093,47338
74076,47340
73923,47340
73906,47338
73873,47335
73809,47315
73809,47315
73750,47284
73750,47284
73750,47284
73698,47241
73655,47189
73655,47189
73624,47130
73624,47130
73604,47066
73598,47000
73604,46933
73624,46869
73624,46869
73655,46810
73655,46810
73655,46810
73698,46758
73750,46715
73750,46715
73750,46715
73809,46684
73809,46684
73873,46664
73906,46661
73923,46660
74076,46660
74093,46661
Z" /> 
<path style="fill:#000000; fill-opacity:1.0; 
stroke:#000000; stroke-width:0; stroke-opacity:1; 
stroke-linecap:round; stroke-linejoin:round;fill-rule:evenodd;"
d="M 82093,46661
82126,46664
82190,46684
82190,46684
82249,46715
82249,46715
82249,46715
82301,46758
82344,46810
82344,46810
82344,46810
82375,46869
82375,46869
82395,46933
82401,47000
82395,47066
82375,47130
82375,47130
82344,47189
82344,47189
82301,47241
82249,47284
82249,47284
82249,47284
82190,47315
82190,47315
82126,47335
82093,47338
82076,47340
81923,47340
81906,47338
81873,47335
81809,47315
81809,47315
81750,47284
81750,47284
81750,47284
81698,47241
81655,47189
81655,47189
81624,47130
81624,47130
81604,47066
81598,47000
81604,46933
81624,46869
81624,46869
81655,46810
81655,46810
81655,46810
81698,46758
81750,46715
81750,46715
81750,46715
81809,46684
81809,46684
81873,46664
81906,46661
81923,46660
82076,46660
82093,46661
Z" /> 
<path style="fill:#000000; fill-opacity:1.0; 
stroke:#000000; stroke-width:0; stroke-opacity:1; 
stroke-linecap:round; stroke-linejoin:round;fill-rule:evenodd;"
d="M 80152,46014
80189,46025
80223,46044
80246,46062
80399,46215
80417,46238
80435,46272
80447,46309
80451,46348
80447,46386
80435,46423
80417,46458
80393,46488
80363,46512
80328,46530
80291,46542
80253,46546
80214,46542
80177,46530
80143,46512
80120,46494
79967,46341
79949,46318
79930,46284
79919,46247
79915,46208
79919,46170
79930,46133
79949,46098
79973,46068
80003,46044
80038,46025
80075,46014
80113,46010
80152,46014
Z" /> 
<path style="fill:#000000; fill-opacity:1.0; 
stroke:#000000; stroke-width:0; stroke-opacity:1; 
stroke-linecap:round; stroke-linejoin:round;fill-rule:evenodd;"
d="M 82093,45661
82126,45664
82190,45684
82190,45684
82249,45715
82249,45715
82249,45715
82301,45758
82344,45810
82344,45810
82344,45810
82375,45869
82375,45869
82395,45933
82401,46000
82395,46066
82394,46068
82375,46130
82344,46189
82344,46189
82301,46241
82249,46284
82249,46284
82249,46284
82190,46315
82190,46315
82126,46335
82093,46338
82076,46340
81923,46340
81906,46338
81873,46335
81809,46315
81809,46315
81750,46284
81750,46284
81750,46284
81698,46241
81655,46189
81655,46189
81624,46130
81605,46068
81604,46066
81598,46000
81604,45933
81624,45869
81624,45869
81655,45810
81655,45810
81655,45810
81698,45758
81750,45715
81750,45715
81750,45715
81809,45684
81809,45684
81873,45664
81906,45661
81923,45660
82076,45660
82093,45661
Z" /> 
<path style="fill:#000000; fill-opacity:1.0; 
stroke:#000000; stroke-width:0; stroke-opacity:1; 
stroke-linecap:round; stroke-linejoin:round;fill-rule:evenodd;"
d="M 74093,45661
74126,45664
74190,45684
74190,45684
74249,45715
74249,45715
74249,45715
74301,45758
74344,45810
74344,45810
74344,45810
74375,45869
74375,45869
74395,45933
74401,46000
74395,46066
74394,46068
74375,46130
74344,46189
74344,46189
74301,46241
74249,46284
74249,46284
74249,46284
74190,46315
74190,46315
74126,46335
74093,46338
74076,46340
73923,46340
73906,46338
73873,46335
73809,46315
73809,46315
73750,46284
73750,46284
73750,46284
73698,46241
73655,46189
73655,46189
73624,46130
73605,46068
73604,46066
73598,46000
73604,45933
73624,45869
73624,45869
73655,45810
73655,45810
73655,45810
73698,45758
73750,45715
73750,45715
73750,45715
73809,45684
73809,45684
73873,45664
73906,45661
73923,45660
74076,45660
74093,45661
Z" /> 
<path style="fill:#000000; fill-opacity:1.0; 
stroke:#000000; stroke-width:0; stroke-opacity:1; 
stroke-linecap:round; stroke-linejoin:round;fill-rule:evenodd;"
d="M 80291,45257
80328,45269
80363,45287
80393,45311
80417,45341
80435,45376
80447,45413
80451,45451
80447,45490
80435,45527
80417,45561
80399,45584
80246,45737
80223,45755
80189,45774
80152,45785
80113,45789
80075,45785
80038,45774
80003,45755
79973,45731
79949,45701
79930,45666
79919,45629
79915,45591
79919,45552
79930,45515
79949,45481
79967,45458
80120,45305
80143,45287
80177,45269
80214,45257
80253,45253
80291,45257
Z" /> 
<path style="fill:#000000; fill-opacity:1.0; 
stroke:#000000; stroke-width:0; stroke-opacity:1; 
stroke-linecap:round; stroke-linejoin:round;fill-rule:evenodd;"
d="M 82093,44661
82126,44664
82190,44684
82190,44684
82249,44715
82249,44715
82249,44715
82301,44758
82344,44810
82344,44810
82344,44810
82375,44869
82375,44869
82395,44933
82401,45000
82395,45066
82375,45130
82375,45130
82344,45189
82344,45189
82301,45241
82249,45284
82249,45284
82249,45284
82190,45315
82190,45315
82126,45335
82093,45338
82076,45340
81923,45340
81906,45338
81873,45335
81809,45315
81809,45315
81750,45284
81750,45284
81750,45284
81698,45241
81655,45189
81655,45189
81624,45130
81624,45130
81604,45066
81598,45000
81604,44933
81624,44869
81624,44869
81655,44810
81655,44810
81655,44810
81698,44758
81750,44715
81750,44715
81750,44715
81809,44684
81809,44684
81873,44664
81906,44661
81923,44660
82076,44660
82093,44661
Z" /> 
<path style="fill:#000000; fill-opacity:1.0; 
stroke:#000000; stroke-width:0; stroke-opacity:1; 
stroke-linecap:round; stroke-linejoin:round;fill-rule:evenodd;"
d="M 74093,44661
74126,44664
74190,44684
74190,44684
74249,44715
74249,44715
74249,44715
74301,44758
74344,44810
74344,44810
74344,44810
74375,44869
74375,44869
74395,44933
74401,45000
74395,45066
74375,45130
74375,45130
74344,45189
74344,45189
74301,45241
74249,45284
74249,45284
74249,45284
74190,45315
74190,45315
74126,45335
74093,45338
74076,45340
73923,45340
73906,45338
73873,45335
73809,45315
73809,45315
73750,45284
73750,45284
73750,45284
73698,45241
73655,45189
73655,45189
73624,45130
73624,45130
73604,45066
73598,45000
73604,44933
73624,44869
73624,44869
73655,44810
73655,44810
73655,44810
73698,44758
73750,44715
73750,44715
73750,44715
73809,44684
73809,44684
73873,44664
73906,44661
73923,44660
74076,44660
74093,44661
Z" /> 
<path style="fill:#000000; fill-opacity:1.0; 
stroke:#000000; stroke-width:0; stroke-opacity:1; 
stroke-linecap:round; stroke-linejoin:round;fill-rule:evenodd;"
d="M 77812,43968
77394,44385
77241,44232
77658,43815
77812,43968
Z" /> 
<path style="fill:#000000; fill-opacity:1.0; 
stroke:#000000; stroke-width:0; stroke-opacity:1; 
stroke-linecap:round; stroke-linejoin:round;fill-rule:evenodd;"
d="M 78758,44232
78605,44385
78187,43968
78341,43815
78758,44232
Z" /> 
<path style="fill:#000000; fill-opacity:1.0; 
stroke:#000000; stroke-width:0; stroke-opacity:1; 
stroke-linecap:round; stroke-linejoin:round;fill-rule:evenodd;"
d="M 82093,43661
82126,43664
82190,43684
82190,43684
82249,43715
82249,43715
82249,43715
82301,43758
82344,43810
82344,43810
82344,43810
82375,43869
82375,43869
82395,43933
82401,44000
82395,44066
82375,44130
82375,44130
82344,44189
82344,44189
82301,44241
82249,44284
82249,44284
82249,44284
82190,44315
82190,44315
82126,44335
82093,44338
82076,44340
81923,44340
81906,44338
81873,44335
81809,44315
81809,44315
81750,44284
81750,44284
81750,44284
81698,44241
81655,44189
81655,44189
81624,44130
81624,44130
81604,44066
81598,44000
81604,43933
81624,43869
81624,43869
81655,43810
81655,43810
81655,43810
81698,43758
81750,43715
81750,43715
81750,43715
81809,43684
81809,43684
81873,43664
81906,43661
81923,43660
82076,43660
82093,43661
Z" /> 
<path style="fill:#000000; fill-opacity:1.0; 
stroke:#000000; stroke-width:0; stroke-opacity:1; 
stroke-linecap:round; stroke-linejoin:round;fill-rule:evenodd;"
d="M 74093,43661
74126,43664
74190,43684
74190,43684
74249,43715
74249,43715
74249,43715
74301,43758
74344,43810
74344,43810
74344,43810
74375,43869
74375,43869
74395,43933
74401,44000
74395,44066
74375,44130
74375,44130
74344,44189
74344,44189
74301,44241
74249,44284
74249,44284
74249,44284
74190,44315
74190,44315
74126,44335
74093,44338
74076,44340
73923,44340
73906,44338
73873,44335
73809,44315
73809,44315
73750,44284
73750,44284
73750,44284
73698,44241
73655,44189
73655,44189
73624,44130
73624,44130
73604,44066
73598,44000
73604,43933
73624,43869
73624,43869
73655,43810
73655,43810
73655,43810
73698,43758
73750,43715
73750,43715
73750,43715
73809,43684
73809,43684
73873,43664
73906,43661
73923,43660
74076,43660
74093,43661
Z" /> 
<path style="fill:#000000; fill-opacity:1.0; 
stroke:#000000; stroke-width:0; stroke-opacity:1; 
stroke-linecap:round; stroke-linejoin:round;fill-rule:evenodd;"
d="M 77589,43745
77171,44163
77018,44009
77436,43592
77589,43745
Z" /> 
<path style="fill:#000000; fill-opacity:1.0; 
stroke:#000000; stroke-width:0; stroke-opacity:1; 
stroke-linecap:round; stroke-linejoin:round;fill-rule:evenodd;"
d="M 78981,44009
78828,44163
78410,43745
78563,43592
78981,44009
Z" /> 
<path style="fill:#000000; fill-opacity:1.0; 
stroke:#000000; stroke-width:0; stroke-opacity:1; 
stroke-linecap:round; stroke-linejoin:round;fill-rule:evenodd;"
d="M 77366,43522
76949,43940
76795,43787
77213,43369
77366,43522
Z" /> 
<path style="fill:#000000; fill-opacity:1.0; 
stroke:#000000; stroke-width:0; stroke-opacity:1; 
stroke-linecap:round; stroke-linejoin:round;fill-rule:evenodd;"
d="M 79204,43787
79050,43940
78633,43522
78786,43369
79204,43787
Z" /> 
<path style="fill:#000000; fill-opacity:1.0; 
stroke:#000000; stroke-width:0; stroke-opacity:1; 
stroke-linecap:round; stroke-linejoin:round;fill-rule:evenodd;"
d="M 77143,43300
76726,43717
76573,43564
76990,43146
77143,43300
Z" /> 
<path style="fill:#000000; fill-opacity:1.0; 
stroke:#000000; stroke-width:0; stroke-opacity:1; 
stroke-linecap:round; stroke-linejoin:round;fill-rule:evenodd;"
d="M 79426,43564
79273,43717
78856,43300
79009,43146
79426,43564
Z" /> 
<path style="fill:#000000; fill-opacity:1.0; 
stroke:#000000; stroke-width:0; stroke-opacity:1; 
stroke-linecap:round; stroke-linejoin:round;fill-rule:evenodd;"
d="M 79649,43341
79496,43494
79078,43077
79231,42924
79649,43341
Z" /> 
<path style="fill:#000000; fill-opacity:1.0; 
stroke:#000000; stroke-width:0; stroke-opacity:1; 
stroke-linecap:round; stroke-linejoin:round;fill-rule:evenodd;"
d="M 76921,43077
76503,43494
76350,43341
76768,42924
76921,43077
Z" /> 
<path style="fill:#000000; fill-opacity:1.0; 
stroke:#000000; stroke-width:0; stroke-opacity:1; 
stroke-linecap:round; stroke-linejoin:round;fill-rule:evenodd;"
d="M 74093,42661
74126,42664
74190,42684
74190,42684
74249,42715
74249,42715
74249,42715
74301,42758
74344,42810
74344,42810
74344,42810
74375,42869
74375,42869
74395,42933
74401,43000
74395,43066
74379,43119
74375,43130
74367,43146
74344,43189
74301,43241
74249,43284
74249,43284
74249,43284
74190,43315
74190,43315
74126,43335
74093,43338
74076,43340
73923,43340
73906,43338
73873,43335
73809,43315
73809,43315
73750,43284
73750,43284
73750,43284
73698,43241
73655,43189
73632,43146
73624,43130
73620,43119
73604,43066
73598,43000
73604,42933
73624,42869
73624,42869
73655,42810
73655,42810
73655,42810
73698,42758
73750,42715
73750,42715
73750,42715
73809,42684
73809,42684
73873,42664
73906,42661
73923,42660
74076,42660
74093,42661
Z" /> 
<path style="fill:#000000; fill-opacity:1.0; 
stroke:#000000; stroke-width:0; stroke-opacity:1; 
stroke-linecap:round; stroke-linejoin:round;fill-rule:evenodd;"
d="M 82093,42661
82126,42664
82190,42684
82190,42684
82249,42715
82249,42715
82249,42715
82301,42758
82344,42810
82344,42810
82344,42810
82375,42869
82375,42869
82395,42933
82401,43000
82395,43066
82379,43119
82375,43130
82367,43146
82344,43189
82301,43241
82249,43284
82249,43284
82249,43284
82190,43315
82190,43315
82126,43335
82093,43338
82076,43340
81923,43340
81906,43338
81873,43335
81809,43315
81809,43315
81750,43284
81750,43284
81750,43284
81698,43241
81655,43189
81632,43146
81624,43130
81620,43119
81604,43066
81598,43000
81604,42933
81624,42869
81624,42869
81655,42810
81655,42810
81655,42810
81698,42758
81750,42715
81750,42715
81750,42715
81809,42684
81809,42684
81873,42664
81906,42661
81923,42660
82076,42660
82093,42661
Z" /> 
<path style="fill:#000000; fill-opacity:1.0; 
stroke:#000000; stroke-width:0; stroke-opacity:1; 
stroke-linecap:round; stroke-linejoin:round;fill-rule:evenodd;"
d="M 76698,42854
76280,43272
76127,43119
76545,42701
76698,42854
Z" /> 
<path style="fill:#000000; fill-opacity:1.0; 
stroke:#000000; stroke-width:0; stroke-opacity:1; 
stroke-linecap:round; stroke-linejoin:round;fill-rule:evenodd;"
d="M 79872,43119
79719,43272
79301,42854
79454,42701
79872,43119
Z" /> 
<path style="fill:#000000; fill-opacity:1.0; 
stroke:#000000; stroke-width:0; stroke-opacity:1; 
stroke-linecap:round; stroke-linejoin:round;fill-rule:evenodd;"
d="M 80094,42896
79941,43049
79524,42631
79677,42478
80094,42896
Z" /> 
<path style="fill:#000000; fill-opacity:1.0; 
stroke:#000000; stroke-width:0; stroke-opacity:1; 
stroke-linecap:round; stroke-linejoin:round;fill-rule:evenodd;"
d="M 76475,42631
76058,43049
75905,42896
76322,42478
76475,42631
Z" /> 
<path style="fill:#000000; fill-opacity:1.0; 
stroke:#000000; stroke-width:0; stroke-opacity:1; 
stroke-linecap:round; stroke-linejoin:round;fill-rule:evenodd;"
d="M 80317,42673
80164,42826
79746,42409
79900,42256
80317,42673
Z" /> 
<path style="fill:#000000; fill-opacity:1.0; 
stroke:#000000; stroke-width:0; stroke-opacity:1; 
stroke-linecap:round; stroke-linejoin:round;fill-rule:evenodd;"
d="M 76253,42409
75835,42826
75682,42673
76099,42256
76253,42409
Z" /> 
<path style="fill:#000000; fill-opacity:1.0; 
stroke:#000000; stroke-width:0; stroke-opacity:1; 
stroke-linecap:round; stroke-linejoin:round;fill-rule:evenodd;"
d="M 80540,42450
80387,42604
79969,42186
80122,42033
80540,42450
Z" /> 
<path style="fill:#000000; fill-opacity:1.0; 
stroke:#000000; stroke-width:0; stroke-opacity:1; 
stroke-linecap:round; stroke-linejoin:round;fill-rule:evenodd;"
d="M 76030,42186
75612,42604
75459,42450
75877,42033
76030,42186
Z" /> 
<path style="fill:#000000; fill-opacity:1.0; 
stroke:#000000; stroke-width:0; stroke-opacity:1; 
stroke-linecap:round; stroke-linejoin:round;fill-rule:evenodd;"
d="M 75807,41963
75390,42381
75236,42228
75654,41810
75807,41963
Z" /> 
<path style="fill:#000000; fill-opacity:1.0; 
stroke:#000000; stroke-width:0; stroke-opacity:1; 
stroke-linecap:round; stroke-linejoin:round;fill-rule:evenodd;"
d="M 80763,42228
80609,42381
80192,41963
80345,41810
80763,42228
Z" /> 
<path style="fill:#000000; fill-opacity:1.0; 
stroke:#000000; stroke-width:0; stroke-opacity:1; 
stroke-linecap:round; stroke-linejoin:round;fill-rule:evenodd;"
d="M 74093,41661
74126,41664
74190,41684
74190,41684
74249,41715
74249,41715
74249,41715
74301,41758
74344,41810
74344,41810
74344,41810
74375,41869
74375,41869
74395,41933
74401,42000
74395,42066
74375,42130
74375,42130
74360,42158
74344,42189
74301,42241
74249,42284
74249,42284
74249,42284
74190,42315
74190,42315
74126,42335
74093,42338
74076,42340
73923,42340
73906,42338
73873,42335
73809,42315
73809,42315
73750,42284
73750,42284
73750,42284
73698,42241
73655,42189
73639,42158
73624,42130
73624,42130
73604,42066
73598,42000
73604,41933
73624,41869
73624,41869
73655,41810
73655,41810
73655,41810
73698,41758
73750,41715
73750,41715
73750,41715
73809,41684
73809,41684
73873,41664
73906,41661
73923,41660
74076,41660
74093,41661
Z" /> 
<path style="fill:#000000; fill-opacity:1.0; 
stroke:#000000; stroke-width:0; stroke-opacity:1; 
stroke-linecap:round; stroke-linejoin:round;fill-rule:evenodd;"
d="M 82093,41661
82126,41664
82190,41684
82190,41684
82249,41715
82249,41715
82249,41715
82301,41758
82344,41810
82344,41810
82344,41810
82375,41869
82375,41869
82395,41933
82401,42000
82395,42066
82375,42130
82375,42130
82360,42158
82344,42189
82301,42241
82249,42284
82249,42284
82249,42284
82190,42315
82190,42315
82126,42335
82093,42338
82076,42340
81923,42340
81906,42338
81873,42335
81809,42315
81809,42315
81750,42284
81750,42284
81750,42284
81698,42241
81655,42189
81639,42158
81624,42130
81624,42130
81604,42066
81598,42000
81604,41933
81624,41869
81624,41869
81655,41810
81655,41810
81655,41810
81698,41758
81750,41715
81750,41715
81750,41715
81809,41684
81809,41684
81873,41664
81906,41661
81923,41660
82076,41660
82093,41661
Z" /> 
<path style="fill:#000000; fill-opacity:1.0; 
stroke:#000000; stroke-width:0; stroke-opacity:1; 
stroke-linecap:round; stroke-linejoin:round;fill-rule:evenodd;"
d="M 75584,41741
75167,42158
75014,42005
75431,41587
75584,41741
Z" /> 
<path style="fill:#000000; fill-opacity:1.0; 
stroke:#000000; stroke-width:0; stroke-opacity:1; 
stroke-linecap:round; stroke-linejoin:round;fill-rule:evenodd;"
d="M 80985,42005
80832,42158
80415,41741
80568,41587
80985,42005
Z" /> 
<path style="fill:#000000; fill-opacity:1.0; 
stroke:#000000; stroke-width:0; stroke-opacity:1; 
stroke-linecap:round; stroke-linejoin:round;fill-rule:evenodd;"
d="M 82093,40661
82126,40664
82190,40684
82190,40684
82249,40715
82249,40715
82249,40715
82301,40758
82344,40810
82344,40810
82344,40810
82375,40869
82375,40869
82395,40933
82401,41000
82395,41066
82375,41130
82375,41130
82344,41189
82344,41189
82301,41241
82249,41284
82249,41284
82249,41284
82190,41315
82190,41315
82126,41335
82093,41338
82076,41340
81923,41340
81906,41338
81873,41335
81809,41315
81809,41315
81750,41284
81750,41284
81750,41284
81698,41241
81655,41189
81655,41189
81624,41130
81624,41130
81604,41066
81598,41000
81604,40933
81624,40869
81624,40869
81655,40810
81655,40810
81655,40810
81698,40758
81750,40715
81750,40715
81750,40715
81809,40684
81809,40684
81873,40664
81906,40661
81923,40660
82076,40660
82093,40661
Z" /> 
<path style="fill:#000000; fill-opacity:1.0; 
stroke:#000000; stroke-width:0; stroke-opacity:1; 
stroke-linecap:round; stroke-linejoin:round;fill-rule:evenodd;"
d="M 74093,40661
74126,40664
74190,40684
74190,40684
74249,40715
74249,40715
74249,40715
74301,40758
74344,40810
74344,40810
74344,40810
74375,40869
74375,40869
74395,40933
74401,41000
74395,41066
74375,41130
74375,41130
74344,41189
74344,41189
74301,41241
74249,41284
74249,41284
74249,41284
74190,41315
74190,41315
74126,41335
74093,41338
74076,41340
73923,41340
73906,41338
73873,41335
73809,41315
73809,41315
73750,41284
73750,41284
73750,41284
73698,41241
73655,41189
73655,41189
73624,41130
73624,41130
73604,41066
73598,41000
73604,40933
73624,40869
73624,40869
73655,40810
73655,40810
73655,40810
73698,40758
73750,40715
73750,40715
73750,40715
73809,40684
73809,40684
73873,40664
73906,40661
73923,40660
74076,40660
74093,40661
Z" /> 
<path style="fill:#000000; fill-opacity:1.0; 
stroke:#000000; stroke-width:0; stroke-opacity:1; 
stroke-linecap:round; stroke-linejoin:round;fill-rule:evenodd;"
d="M 75584,41058
75431,41212
75014,40794
75167,40641
75584,41058
Z" /> 
<path style="fill:#000000; fill-opacity:1.0; 
stroke:#000000; stroke-width:0; stroke-opacity:1; 
stroke-linecap:round; stroke-linejoin:round;fill-rule:evenodd;"
d="M 80985,40794
80568,41212
80415,41058
80832,40641
80985,40794
Z" /> 
<path style="fill:#000000; fill-opacity:1.0; 
stroke:#000000; stroke-width:0; stroke-opacity:1; 
stroke-linecap:round; stroke-linejoin:round;fill-rule:evenodd;"
d="M 75807,40836
75654,40989
75236,40571
75390,40418
75807,40836
Z" /> 
<path style="fill:#000000; fill-opacity:1.0; 
stroke:#000000; stroke-width:0; stroke-opacity:1; 
stroke-linecap:round; stroke-linejoin:round;fill-rule:evenodd;"
d="M 80763,40571
80345,40989
80192,40836
80609,40418
80763,40571
Z" /> 
<path style="fill:#000000; fill-opacity:1.0; 
stroke:#000000; stroke-width:0; stroke-opacity:1; 
stroke-linecap:round; stroke-linejoin:round;fill-rule:evenodd;"
d="M 80540,40349
80122,40766
79969,40613
80387,40195
80540,40349
Z" /> 
<path style="fill:#000000; fill-opacity:1.0; 
stroke:#000000; stroke-width:0; stroke-opacity:1; 
stroke-linecap:round; stroke-linejoin:round;fill-rule:evenodd;"
d="M 76030,40613
75877,40766
75459,40349
75612,40195
76030,40613
Z" /> 
<path style="fill:#000000; fill-opacity:1.0; 
stroke:#000000; stroke-width:0; stroke-opacity:1; 
stroke-linecap:round; stroke-linejoin:round;fill-rule:evenodd;"
d="M 80317,40126
79900,40543
79746,40390
80164,39973
80317,40126
Z" /> 
<path style="fill:#000000; fill-opacity:1.0; 
stroke:#000000; stroke-width:0; stroke-opacity:1; 
stroke-linecap:round; stroke-linejoin:round;fill-rule:evenodd;"
d="M 76253,40390
76099,40543
75682,40126
75835,39973
76253,40390
Z" /> 
<path style="fill:#000000; fill-opacity:1.0; 
stroke:#000000; stroke-width:0; stroke-opacity:1; 
stroke-linecap:round; stroke-linejoin:round;fill-rule:evenodd;"
d="M 82093,39661
82126,39664
82179,39680
82190,39684
82249,39715
82249,39715
82249,39715
82301,39758
82344,39810
82344,39810
82344,39810
82375,39869
82375,39869
82395,39933
82401,40000
82395,40066
82375,40130
82375,40130
82344,40189
82344,40189
82301,40241
82249,40284
82249,40284
82249,40284
82190,40315
82190,40315
82126,40335
82093,40338
82076,40340
81923,40340
81906,40338
81873,40335
81809,40315
81809,40315
81750,40284
81750,40284
81750,40284
81698,40241
81655,40189
81655,40189
81624,40130
81624,40130
81604,40066
81598,40000
81604,39933
81624,39869
81624,39869
81655,39810
81655,39810
81655,39810
81698,39758
81750,39715
81750,39715
81750,39715
81809,39684
81820,39680
81873,39664
81906,39661
81923,39660
82076,39660
82093,39661
Z" /> 
<path style="fill:#000000; fill-opacity:1.0; 
stroke:#000000; stroke-width:0; stroke-opacity:1; 
stroke-linecap:round; stroke-linejoin:round;fill-rule:evenodd;"
d="M 74093,39661
74126,39664
74179,39680
74190,39684
74249,39715
74249,39715
74249,39715
74301,39758
74344,39810
74344,39810
74344,39810
74375,39869
74375,39869
74395,39933
74401,40000
74395,40066
74375,40130
74375,40130
74344,40189
74344,40189
74301,40241
74249,40284
74249,40284
74249,40284
74190,40315
74190,40315
74126,40335
74093,40338
74076,40340
73923,40340
73906,40338
73873,40335
73809,40315
73809,40315
73750,40284
73750,40284
73750,40284
73698,40241
73655,40189
73655,40189
73624,40130
73624,40130
73604,40066
73598,40000
73604,39933
73624,39869
73624,39869
73655,39810
73655,39810
73655,39810
73698,39758
73750,39715
73750,39715
73750,39715
73809,39684
73820,39680
73873,39664
73906,39661
73923,39660
74076,39660
74093,39661
Z" /> 
<path style="fill:#000000; fill-opacity:1.0; 
stroke:#000000; stroke-width:0; stroke-opacity:1; 
stroke-linecap:round; stroke-linejoin:round;fill-rule:evenodd;"
d="M 80094,39903
79677,40321
79524,40168
79941,39750
80094,39903
Z" /> 
<path style="fill:#000000; fill-opacity:1.0; 
stroke:#000000; stroke-width:0; stroke-opacity:1; 
stroke-linecap:round; stroke-linejoin:round;fill-rule:evenodd;"
d="M 76475,40168
76322,40321
75905,39903
76058,39750
76475,40168
Z" /> 
<path style="fill:#000000; fill-opacity:1.0; 
stroke:#000000; stroke-width:0; stroke-opacity:1; 
stroke-linecap:round; stroke-linejoin:round;fill-rule:evenodd;"
d="M 76698,39945
76545,40098
76127,39680
76280,39527
76698,39945
Z" /> 
<path style="fill:#000000; fill-opacity:1.0; 
stroke:#000000; stroke-width:0; stroke-opacity:1; 
stroke-linecap:round; stroke-linejoin:round;fill-rule:evenodd;"
d="M 79872,39680
79454,40098
79301,39945
79719,39527
79872,39680
Z" /> 
<path style="fill:#000000; fill-opacity:1.0; 
stroke:#000000; stroke-width:0; stroke-opacity:1; 
stroke-linecap:round; stroke-linejoin:round;fill-rule:evenodd;"
d="M 76921,39722
76768,39875
76350,39458
76503,39305
76921,39722
Z" /> 
<path style="fill:#000000; fill-opacity:1.0; 
stroke:#000000; stroke-width:0; stroke-opacity:1; 
stroke-linecap:round; stroke-linejoin:round;fill-rule:evenodd;"
d="M 79649,39458
79231,39875
79078,39722
79496,39305
79649,39458
Z" /> 
<path style="fill:#000000; fill-opacity:1.0; 
stroke:#000000; stroke-width:0; stroke-opacity:1; 
stroke-linecap:round; stroke-linejoin:round;fill-rule:evenodd;"
d="M 79426,39235
79009,39653
78856,39499
79273,39082
79426,39235
Z" /> 
<path style="fill:#000000; fill-opacity:1.0; 
stroke:#000000; stroke-width:0; stroke-opacity:1; 
stroke-linecap:round; stroke-linejoin:round;fill-rule:evenodd;"
d="M 77143,39499
76990,39653
76573,39235
76726,39082
77143,39499
Z" /> 
<path style="fill:#000000; fill-opacity:1.0; 
stroke:#000000; stroke-width:0; stroke-opacity:1; 
stroke-linecap:round; stroke-linejoin:round;fill-rule:evenodd;"
d="M 75885,39326
75718,39493
75356,39131
75523,38964
75885,39326
Z" /> 
<path style="fill:#000000; fill-opacity:1.0; 
stroke:#000000; stroke-width:0; stroke-opacity:1; 
stroke-linecap:round; stroke-linejoin:round;fill-rule:evenodd;"
d="M 77366,39277
77213,39430
76795,39012
76949,38859
77366,39277
Z" /> 
<path style="fill:#000000; fill-opacity:1.0; 
stroke:#000000; stroke-width:0; stroke-opacity:1; 
stroke-linecap:round; stroke-linejoin:round;fill-rule:evenodd;"
d="M 79204,39012
78786,39430
78633,39277
79050,38859
79204,39012
Z" /> 
<path style="fill:#000000; fill-opacity:1.0; 
stroke:#000000; stroke-width:0; stroke-opacity:1; 
stroke-linecap:round; stroke-linejoin:round;fill-rule:evenodd;"
d="M 74093,38661
74126,38664
74190,38684
74190,38684
74249,38715
74249,38715
74249,38715
74301,38758
74344,38810
74344,38810
74344,38810
74375,38869
74375,38869
74395,38933
74401,39000
74395,39066
74375,39130
74375,39130
74344,39189
74344,39189
74301,39241
74249,39284
74249,39284
74249,39284
74190,39315
74190,39315
74126,39335
74093,39338
74076,39340
73923,39340
73906,39338
73873,39335
73809,39315
73809,39315
73750,39284
73750,39284
73750,39284
73698,39241
73655,39189
73655,39189
73624,39130
73624,39130
73604,39066
73598,39000
73604,38933
73624,38869
73624,38869
73655,38810
73655,38810
73655,38810
73698,38758
73750,38715
73750,38715
73750,38715
73809,38684
73809,38684
73873,38664
73906,38661
73923,38660
74076,38660
74093,38661
Z" /> 
<path style="fill:#000000; fill-opacity:1.0; 
stroke:#000000; stroke-width:0; stroke-opacity:1; 
stroke-linecap:round; stroke-linejoin:round;fill-rule:evenodd;"
d="M 82093,38661
82126,38664
82190,38684
82190,38684
82249,38715
82249,38715
82249,38715
82301,38758
82344,38810
82344,38810
82344,38810
82375,38869
82375,38869
82395,38933
82401,39000
82395,39066
82375,39130
82375,39130
82344,39189
82344,39189
82301,39241
82249,39284
82249,39284
82249,39284
82190,39315
82190,39315
82126,39335
82093,39338
82076,39340
81923,39340
81906,39338
81873,39335
81809,39315
81809,39315
81750,39284
81750,39284
81750,39284
81698,39241
81655,39189
81655,39189
81624,39130
81624,39130
81604,39066
81598,39000
81604,38933
81624,38869
81624,38869
81655,38810
81655,38810
81655,38810
81698,38758
81750,38715
81750,38715
81750,38715
81809,38684
81809,38684
81873,38664
81906,38661
81923,38660
82076,38660
82093,38661
Z" /> 
<path style="fill:#000000; fill-opacity:1.0; 
stroke:#000000; stroke-width:0; stroke-opacity:1; 
stroke-linecap:round; stroke-linejoin:round;fill-rule:evenodd;"
d="M 76150,39061
75982,39228
75621,38867
75788,38700
76150,39061
Z" /> 
<path style="fill:#000000; fill-opacity:1.0; 
stroke:#000000; stroke-width:0; stroke-opacity:1; 
stroke-linecap:round; stroke-linejoin:round;fill-rule:evenodd;"
d="M 77589,39054
77436,39207
77018,38790
77171,38636
77589,39054
Z" /> 
<path style="fill:#000000; fill-opacity:1.0; 
stroke:#000000; stroke-width:0; stroke-opacity:1; 
stroke-linecap:round; stroke-linejoin:round;fill-rule:evenodd;"
d="M 78981,38790
78563,39207
78410,39054
78828,38636
78981,38790
Z" /> 
<path style="fill:#000000; fill-opacity:1.0; 
stroke:#000000; stroke-width:0; stroke-opacity:1; 
stroke-linecap:round; stroke-linejoin:round;fill-rule:evenodd;"
d="M 78758,38567
78341,38984
78187,38831
78605,38414
78758,38567
Z" /> 
<path style="fill:#000000; fill-opacity:1.0; 
stroke:#000000; stroke-width:0; stroke-opacity:1; 
stroke-linecap:round; stroke-linejoin:round;fill-rule:evenodd;"
d="M 77812,38831
77658,38984
77241,38567
77394,38414
77812,38831
Z" /> 
<path style="fill:#000000; fill-opacity:1.0; 
stroke:#000000; stroke-width:0; stroke-opacity:1; 
stroke-linecap:round; stroke-linejoin:round;fill-rule:evenodd;"
d="M 76414,38797
76247,38964
75885,38602
76052,38435
76414,38797
Z" /> 
<path style="fill:#000000; fill-opacity:1.0; 
stroke:#000000; stroke-width:0; stroke-opacity:1; 
stroke-linecap:round; stroke-linejoin:round;fill-rule:evenodd;"
d="M 74093,37661
74126,37664
74190,37684
74190,37684
74249,37715
74249,37715
74249,37715
74301,37758
74344,37810
74344,37810
74344,37810
74375,37869
74375,37869
74395,37933
74401,38000
74395,38066
74375,38130
74375,38130
74344,38189
74344,38189
74301,38241
74249,38284
74249,38284
74249,38284
74190,38315
74190,38315
74126,38335
74093,38338
74076,38340
73923,38340
73906,38338
73873,38335
73809,38315
73809,38315
73750,38284
73750,38284
73750,38284
73698,38241
73655,38189
73655,38189
73624,38130
73624,38130
73604,38066
73598,38000
73604,37933
73624,37869
73624,37869
73655,37810
73655,37810
73655,37810
73698,37758
73750,37715
73750,37715
73750,37715
73809,37684
73809,37684
73873,37664
73906,37661
73923,37660
74076,37660
74093,37661
Z" /> 
<path style="fill:#000000; fill-opacity:1.0; 
stroke:#000000; stroke-width:0; stroke-opacity:1; 
stroke-linecap:round; stroke-linejoin:round;fill-rule:evenodd;"
d="M 82093,37661
82126,37664
82190,37684
82190,37684
82249,37715
82249,37715
82249,37715
82301,37758
82344,37810
82344,37810
82344,37810
82375,37869
82375,37869
82395,37933
82401,38000
82395,38066
82375,38130
82375,38130
82344,38189
82344,38189
82301,38241
82249,38284
82249,38284
82249,38284
82190,38315
82190,38315
82126,38335
82093,38338
82076,38340
81923,38340
81906,38338
81873,38335
81809,38315
81809,38315
81750,38284
81750,38284
81750,38284
81698,38241
81655,38189
81655,38189
81624,38130
81624,38130
81604,38066
81598,38000
81604,37933
81624,37869
81624,37869
81655,37810
81655,37810
81655,37810
81698,37758
81750,37715
81750,37715
81750,37715
81809,37684
81809,37684
81873,37664
81906,37661
81923,37660
82076,37660
82093,37661
Z" /> 
<path style="fill:#000000; fill-opacity:1.0; 
stroke:#000000; stroke-width:0; stroke-opacity:1; 
stroke-linecap:round; stroke-linejoin:round;fill-rule:evenodd;"
d="M 82093,36661
82126,36664
82190,36684
82190,36684
82249,36715
82249,36715
82249,36715
82301,36758
82344,36810
82344,36810
82344,36810
82375,36869
82375,36869
82395,36933
82401,37000
82395,37066
82392,37075
82375,37130
82344,37189
82344,37189
82301,37241
82249,37284
82249,37284
82249,37284
82190,37315
82190,37315
82126,37335
82093,37338
82076,37340
81923,37340
81906,37338
81873,37335
81809,37315
81809,37315
81750,37284
81750,37284
81750,37284
81698,37241
81655,37189
81655,37189
81624,37130
81607,37075
81604,37066
81598,37000
81604,36933
81624,36869
81624,36869
81655,36810
81655,36810
81655,36810
81698,36758
81750,36715
81750,36715
81750,36715
81809,36684
81809,36684
81873,36664
81906,36661
81923,36660
82076,36660
82093,36661
Z" /> 
<path style="fill:#000000; fill-opacity:1.0; 
stroke:#000000; stroke-width:0; stroke-opacity:1; 
stroke-linecap:round; stroke-linejoin:round;fill-rule:evenodd;"
d="M 74093,36661
74126,36664
74190,36684
74190,36684
74249,36715
74249,36715
74249,36715
74301,36758
74344,36810
74344,36810
74344,36810
74375,36869
74375,36869
74395,36933
74401,37000
74395,37066
74392,37075
74375,37130
74344,37189
74344,37189
74301,37241
74249,37284
74249,37284
74249,37284
74190,37315
74190,37315
74126,37335
74093,37338
74076,37340
73923,37340
73906,37338
73873,37335
73809,37315
73809,37315
73750,37284
73750,37284
73750,37284
73698,37241
73655,37189
73655,37189
73624,37130
73607,37075
73604,37066
73598,37000
73604,36933
73624,36869
73624,36869
73655,36810
73655,36810
73655,36810
73698,36758
73750,36715
73750,36715
73750,36715
73809,36684
73809,36684
73873,36664
73906,36661
73923,36660
74076,36660
74093,36661
Z" /> 
<path style="fill:#000000; fill-opacity:1.0; 
stroke:#000000; stroke-width:0; stroke-opacity:1; 
stroke-linecap:round; stroke-linejoin:round;fill-rule:evenodd;"
d="M 79995,37075
79404,37075
79404,36524
79995,36524
79995,37075
Z" /> 
<path style="fill:#000000; fill-opacity:1.0; 
stroke:#000000; stroke-width:0; stroke-opacity:1; 
stroke-linecap:round; stroke-linejoin:round;fill-rule:evenodd;"
d="M 76824,37072
76234,37072
76234,36521
76824,36521
76824,37072
Z" /> 
<path style="fill:#000000; fill-opacity:1.0; 
stroke:#000000; stroke-width:0; stroke-opacity:1; 
stroke-linecap:round; stroke-linejoin:round;fill-rule:evenodd;"
d="M 82093,35661
82126,35664
82190,35684
82190,35684
82249,35715
82249,35715
82249,35715
82301,35758
82344,35810
82344,35810
82344,35810
82375,35869
82375,35869
82395,35933
82401,36000
82395,36066
82375,36130
82375,36130
82344,36189
82344,36189
82301,36241
82249,36284
82249,36284
82249,36284
82190,36315
82190,36315
82126,36335
82093,36338
82076,36340
81923,36340
81906,36338
81873,36335
81809,36315
81809,36315
81750,36284
81750,36284
81750,36284
81698,36241
81655,36189
81655,36189
81624,36130
81624,36130
81604,36066
81598,36000
81604,35933
81624,35869
81624,35869
81655,35810
81655,35810
81655,35810
81698,35758
81750,35715
81750,35715
81750,35715
81809,35684
81809,35684
81873,35664
81906,35661
81923,35660
82076,35660
82093,35661
Z" /> 
<path style="fill:#000000; fill-opacity:1.0; 
stroke:#000000; stroke-width:0; stroke-opacity:1; 
stroke-linecap:round; stroke-linejoin:round;fill-rule:evenodd;"
d="M 74093,35661
74126,35664
74190,35684
74190,35684
74249,35715
74249,35715
74249,35715
74301,35758
74344,35810
74344,35810
74344,35810
74375,35869
74375,35869
74395,35933
74401,36000
74395,36066
74375,36130
74375,36130
74344,36189
74344,36189
74301,36241
74249,36284
74249,36284
74249,36284
74190,36315
74190,36315
74126,36335
74093,36338
74076,36340
73923,36340
73906,36338
73873,36335
73809,36315
73809,36315
73750,36284
73750,36284
73750,36284
73698,36241
73655,36189
73655,36189
73624,36130
73624,36130
73604,36066
73598,36000
73604,35933
73624,35869
73624,35869
73655,35810
73655,35810
73655,35810
73698,35758
73750,35715
73750,35715
73750,35715
73809,35684
73809,35684
73873,35664
73906,35661
73923,35660
74076,35660
74093,35661
Z" /> 
<path style="fill:#000000; fill-opacity:1.0; 
stroke:#000000; stroke-width:0; stroke-opacity:1; 
stroke-linecap:round; stroke-linejoin:round;fill-rule:evenodd;"
d="M 76615,35851
76104,35851
76104,35261
76615,35261
76615,35851
Z" /> 
<path style="fill:#000000; fill-opacity:1.0; 
stroke:#000000; stroke-width:0; stroke-opacity:1; 
stroke-linecap:round; stroke-linejoin:round;fill-rule:evenodd;"
d="M 77425,35841
76914,35841
76914,35251
77425,35251
77425,35841
Z" /> 
<path style="fill:#000000; fill-opacity:1.0; 
stroke:#000000; stroke-width:0; stroke-opacity:1; 
stroke-linecap:round; stroke-linejoin:round;fill-rule:evenodd;"
d="M 78240,35833
77729,35833
77729,35242
78240,35242
78240,35833
Z" /> 
<path style="fill:#000000; fill-opacity:1.0; 
stroke:#000000; stroke-width:0; stroke-opacity:1; 
stroke-linecap:round; stroke-linejoin:round;fill-rule:evenodd;"
d="M 79855,35826
79344,35826
79344,35236
79855,35236
79855,35826
Z" /> 
<path style="fill:#000000; fill-opacity:1.0; 
stroke:#000000; stroke-width:0; stroke-opacity:1; 
stroke-linecap:round; stroke-linejoin:round;fill-rule:evenodd;"
d="M 79055,35826
78544,35826
78544,35236
79055,35236
79055,35826
Z" /> 
<path style="fill:#000000; fill-opacity:1.0; 
stroke:#000000; stroke-width:0; stroke-opacity:1; 
stroke-linecap:round; stroke-linejoin:round;fill-rule:evenodd;"
d="M 82093,34661
82126,34664
82190,34684
82190,34684
82249,34715
82249,34715
82249,34715
82301,34758
82344,34810
82344,34810
82344,34810
82375,34869
82375,34869
82395,34933
82401,35000
82395,35066
82375,35130
82375,35130
82344,35189
82344,35189
82301,35241
82249,35284
82249,35284
82249,35284
82190,35315
82190,35315
82126,35335
82093,35338
82076,35340
81923,35340
81906,35338
81873,35335
81809,35315
81809,35315
81750,35284
81750,35284
81750,35284
81698,35241
81655,35189
81655,35189
81624,35130
81624,35130
81604,35066
81598,35000
81604,34933
81624,34869
81624,34869
81655,34810
81655,34810
81655,34810
81698,34758
81750,34715
81750,34715
81750,34715
81809,34684
81809,34684
81873,34664
81906,34661
81923,34660
82076,34660
82093,34661
Z" /> 
<path style="fill:#000000; fill-opacity:1.0; 
stroke:#000000; stroke-width:0; stroke-opacity:1; 
stroke-linecap:round; stroke-linejoin:round;fill-rule:evenodd;"
d="M 74093,34661
74126,34664
74190,34684
74190,34684
74249,34715
74249,34715
74249,34715
74301,34758
74344,34810
74344,34810
74344,34810
74375,34869
74375,34869
74395,34933
74401,35000
74395,35066
74375,35130
74375,35130
74344,35189
74344,35189
74301,35241
74249,35284
74249,35284
74249,35284
74190,35315
74190,35315
74126,35335
74093,35338
74076,35340
73923,35340
73906,35338
73873,35335
73809,35315
73809,35315
73750,35284
73750,35284
73750,35284
73698,35241
73655,35189
73655,35189
73624,35130
73624,35130
73604,35066
73598,35000
73604,34933
73624,34869
73624,34869
73655,34810
73655,34810
73655,34810
73698,34758
73750,34715
73750,34715
73750,34715
73809,34684
73809,34684
73873,34664
73906,34661
73923,34660
74076,34660
74093,34661
Z" /> 
<path style="fill:#000000; fill-opacity:1.0; 
stroke:#000000; stroke-width:0; stroke-opacity:1; 
stroke-linecap:round; stroke-linejoin:round;fill-rule:evenodd;"
d="M 76615,34788
76104,34788
76104,34198
76615,34198
76615,34788
Z" /> 
<path style="fill:#000000; fill-opacity:1.0; 
stroke:#000000; stroke-width:0; stroke-opacity:1; 
stroke-linecap:round; stroke-linejoin:round;fill-rule:evenodd;"
d="M 77425,34778
76914,34778
76914,34188
77425,34188
77425,34778
Z" /> 
<path style="fill:#000000; fill-opacity:1.0; 
stroke:#000000; stroke-width:0; stroke-opacity:1; 
stroke-linecap:round; stroke-linejoin:round;fill-rule:evenodd;"
d="M 78240,34770
77729,34770
77729,34179
78240,34179
78240,34770
Z" /> 
<path style="fill:#000000; fill-opacity:1.0; 
stroke:#000000; stroke-width:0; stroke-opacity:1; 
stroke-linecap:round; stroke-linejoin:round;fill-rule:evenodd;"
d="M 79055,34763
78544,34763
78544,34173
79055,34173
79055,34763
Z" /> 
<path style="fill:#000000; fill-opacity:1.0; 
stroke:#000000; stroke-width:0; stroke-opacity:1; 
stroke-linecap:round; stroke-linejoin:round;fill-rule:evenodd;"
d="M 79855,34763
79344,34763
79344,34173
79855,34173
79855,34763
Z" /> 
<path style="fill:#000000; fill-opacity:1.0; 
stroke:#000000; stroke-width:0; stroke-opacity:1; 
stroke-linecap:round; stroke-linejoin:round;fill-rule:evenodd;"
d="M 82093,33661
82126,33664
82190,33684
82190,33684
82249,33715
82249,33715
82249,33715
82301,33758
82344,33810
82344,33810
82344,33810
82375,33869
82375,33869
82395,33933
82401,34000
82395,34066
82375,34130
82375,34130
82344,34189
82344,34189
82301,34241
82249,34284
82249,34284
82249,34284
82190,34315
82190,34315
82126,34335
82093,34338
82076,34340
81923,34340
81906,34338
81873,34335
81809,34315
81809,34315
81750,34284
81750,34284
81750,34284
81698,34241
81655,34189
81655,34189
81624,34130
81624,34130
81604,34066
81598,34000
81604,33933
81624,33869
81624,33869
81655,33810
81655,33810
81655,33810
81698,33758
81750,33715
81750,33715
81750,33715
81809,33684
81809,33684
81873,33664
81906,33661
81923,33660
82076,33660
82093,33661
Z" /> 
<path style="fill:#000000; fill-opacity:1.0; 
stroke:#000000; stroke-width:0; stroke-opacity:1; 
stroke-linecap:round; stroke-linejoin:round;fill-rule:evenodd;"
d="M 74093,33661
74126,33664
74190,33684
74190,33684
74249,33715
74249,33715
74249,33715
74301,33758
74344,33810
74344,33810
74344,33810
74375,33869
74375,33869
74395,33933
74401,34000
74395,34066
74375,34130
74375,34130
74344,34189
74344,34189
74301,34241
74249,34284
74249,34284
74249,34284
74190,34315
74190,34315
74126,34335
74093,34338
74076,34340
73923,34340
73906,34338
73873,34335
73809,34315
73809,34315
73750,34284
73750,34284
73750,34284
73698,34241
73655,34189
73655,34189
73624,34130
73624,34130
73604,34066
73598,34000
73604,33933
73624,33869
73624,33869
73655,33810
73655,33810
73655,33810
73698,33758
73750,33715
73750,33715
73750,33715
73809,33684
73809,33684
73873,33664
73906,33661
73923,33660
74076,33660
74093,33661
Z" /> 
<path style="fill:#000000; fill-opacity:1.0; 
stroke:#000000; stroke-width:0; stroke-opacity:1; 
stroke-linecap:round; stroke-linejoin:round;fill-rule:evenodd;"
d="M 82093,32661
82126,32664
82190,32684
82190,32684
82249,32715
82249,32715
82249,32715
82301,32758
82344,32810
82344,32810
82344,32810
82375,32869
82375,32869
82395,32933
82401,33000
82395,33066
82375,33130
82375,33130
82344,33189
82344,33189
82301,33241
82249,33284
82249,33284
82249,33284
82190,33315
82190,33315
82126,33335
82093,33338
82076,33340
81923,33340
81906,33338
81873,33335
81809,33315
81809,33315
81750,33284
81750,33284
81750,33284
81698,33241
81655,33189
81655,33189
81624,33130
81624,33130
81604,33066
81598,33000
81604,32933
81624,32869
81624,32869
81655,32810
81655,32810
81655,32810
81698,32758
81750,32715
81750,32715
81750,32715
81809,32684
81809,32684
81873,32664
81906,32661
81923,32660
82076,32660
82093,32661
Z" /> 
<path style="fill:#000000; fill-opacity:1.0; 
stroke:#000000; stroke-width:0; stroke-opacity:1; 
stroke-linecap:round; stroke-linejoin:round;fill-rule:evenodd;"
d="M 74093,32661
74126,32664
74190,32684
74190,32684
74249,32715
74249,32715
74249,32715
74301,32758
74344,32810
74344,32810
74344,32810
74375,32869
74375,32869
74395,32933
74401,33000
74395,33066
74375,33130
74375,33130
74344,33189
74344,33189
74301,33241
74249,33284
74249,33284
74249,33284
74190,33315
74190,33315
74126,33335
74093,33338
74076,33340
73923,33340
73906,33338
73873,33335
73809,33315
73809,33315
73750,33284
73750,33284
73750,33284
73698,33241
73655,33189
73655,33189
73624,33130
73624,33130
73604,33066
73598,33000
73604,32933
73624,32869
73624,32869
73655,32810
73655,32810
73655,32810
73698,32758
73750,32715
73750,32715
73750,32715
73809,32684
73809,32684
73873,32664
73906,32661
73923,32660
74076,32660
74093,32661
Z" /> 
<path style="fill:#000000; fill-opacity:1.0; 
stroke:#000000; stroke-width:0; stroke-opacity:1; 
stroke-linecap:round; stroke-linejoin:round;fill-rule:evenodd;"
d="M 78829,33142
78120,33142
78120,32513
78829,32513
78829,33142
Z" /> 
<path style="fill:#000000; fill-opacity:1.0; 
stroke:#000000; stroke-width:0; stroke-opacity:1; 
stroke-linecap:round; stroke-linejoin:round;fill-rule:evenodd;"
d="M 79839,33142
79130,33142
79130,32513
79839,32513
79839,33142
Z" /> 
<path style="fill:#000000; fill-opacity:1.0; 
stroke:#000000; stroke-width:0; stroke-opacity:1; 
stroke-linecap:round; stroke-linejoin:round;fill-rule:evenodd;"
d="M 77804,33137
77095,33137
77095,32508
77804,32508
77804,33137
Z" /> 
<path style="fill:#000000; fill-opacity:1.0; 
stroke:#000000; stroke-width:0; stroke-opacity:1; 
stroke-linecap:round; stroke-linejoin:round;fill-rule:evenodd;"
d="M 76784,33137
76075,33137
76075,32508
76784,32508
76784,33137
Z" /> 
<path style="fill:#000000; fill-opacity:1.0; 
stroke:#000000; stroke-width:0; stroke-opacity:1; 
stroke-linecap:round; stroke-linejoin:round;fill-rule:evenodd;"
d="M 82093,31661
82126,31664
82190,31684
82190,31684
82249,31715
82249,31715
82249,31715
82301,31758
82344,31810
82344,31810
82344,31810
82375,31869
82375,31869
82395,31933
82401,32000
82395,32066
82375,32130
82375,32130
82344,32189
82344,32189
82301,32241
82249,32284
82249,32284
82249,32284
82190,32315
82190,32315
82126,32335
82093,32338
82076,32340
81923,32340
81906,32338
81873,32335
81809,32315
81809,32315
81750,32284
81750,32284
81750,32284
81698,32241
81655,32189
81655,32189
81624,32130
81624,32130
81604,32066
81598,32000
81604,31933
81624,31869
81624,31869
81655,31810
81655,31810
81655,31810
81698,31758
81750,31715
81750,31715
81750,31715
81809,31684
81809,31684
81873,31664
81906,31661
81923,31660
82076,31660
82093,31661
Z" /> 
<path style="fill:#000000; fill-opacity:1.0; 
stroke:#000000; stroke-width:0; stroke-opacity:1; 
stroke-linecap:round; stroke-linejoin:round;fill-rule:evenodd;"
d="M 74093,31661
74126,31664
74190,31684
74190,31684
74249,31715
74249,31715
74249,31715
74301,31758
74344,31810
74344,31810
74344,31810
74375,31869
74375,31869
74395,31933
74401,32000
74395,32066
74375,32130
74375,32130
74344,32189
74344,32189
74301,32241
74249,32284
74249,32284
74249,32284
74190,32315
74190,32315
74126,32335
74093,32338
74076,32340
73923,32340
73906,32338
73873,32335
73809,32315
73809,32315
73750,32284
73750,32284
73750,32284
73698,32241
73655,32189
73655,32189
73624,32130
73624,32130
73604,32066
73598,32000
73604,31933
73624,31869
73624,31869
73655,31810
73655,31810
73655,31810
73698,31758
73750,31715
73750,31715
73750,31715
73809,31684
73809,31684
73873,31664
73906,31661
73923,31660
74076,31660
74093,31661
Z" /> 
<path style="fill:#000000; fill-opacity:1.0; 
stroke:#000000; stroke-width:0; stroke-opacity:1; 
stroke-linecap:round; stroke-linejoin:round;fill-rule:evenodd;"
d="M 79839,32024
79130,32024
79130,31395
79839,31395
79839,32024
Z" /> 
<path style="fill:#000000; fill-opacity:1.0; 
stroke:#000000; stroke-width:0; stroke-opacity:1; 
stroke-linecap:round; stroke-linejoin:round;fill-rule:evenodd;"
d="M 78829,32024
78120,32024
78120,31395
78829,31395
78829,32024
Z" /> 
<path style="fill:#000000; fill-opacity:1.0; 
stroke:#000000; stroke-width:0; stroke-opacity:1; 
stroke-linecap:round; stroke-linejoin:round;fill-rule:evenodd;"
d="M 77804,32019
77095,32019
77095,31390
77804,31390
77804,32019
Z" /> 
<path style="fill:#000000; fill-opacity:1.0; 
stroke:#000000; stroke-width:0; stroke-opacity:1; 
stroke-linecap:round; stroke-linejoin:round;fill-rule:evenodd;"
d="M 76784,32019
76075,32019
76075,31390
76784,31390
76784,32019
Z" /> 
<path style="fill:#000000; fill-opacity:1.0; 
stroke:#000000; stroke-width:0; stroke-opacity:1; 
stroke-linecap:round; stroke-linejoin:round;fill-rule:evenodd;"
d="M 74093,30661
74126,30664
74190,30684
74190,30684
74249,30715
74249,30715
74249,30715
74301,30758
74344,30810
74344,30810
74344,30810
74375,30869
74375,30869
74395,30933
74401,31000
74395,31066
74375,31130
74375,31130
74344,31189
74344,31189
74301,31241
74249,31284
74249,31284
74249,31284
74190,31315
74190,31315
74126,31335
74093,31338
74076,31340
73923,31340
73906,31338
73873,31335
73809,31315
73809,31315
73750,31284
73750,31284
73750,31284
73698,31241
73655,31189
73655,31189
73624,31130
73624,31130
73604,31066
73598,31000
73604,30933
73624,30869
73624,30869
73655,30810
73655,30810
73655,30810
73698,30758
73750,30715
73750,30715
73750,30715
73809,30684
73809,30684
73873,30664
73906,30661
73923,30660
74076,30660
74093,30661
Z" /> 
<path style="fill:#000000; fill-opacity:1.0; 
stroke:#000000; stroke-width:0; stroke-opacity:1; 
stroke-linecap:round; stroke-linejoin:round;fill-rule:evenodd;"
d="M 82093,30661
82126,30664
82190,30684
82190,30684
82249,30715
82249,30715
82249,30715
82301,30758
82344,30810
82344,30810
82344,30810
82375,30869
82375,30869
82395,30933
82401,31000
82395,31066
82375,31130
82375,31130
82344,31189
82344,31189
82301,31241
82249,31284
82249,31284
82249,31284
82190,31315
82190,31315
82126,31335
82093,31338
82076,31340
81923,31340
81906,31338
81873,31335
81809,31315
81809,31315
81750,31284
81750,31284
81750,31284
81698,31241
81655,31189
81655,31189
81624,31130
81624,31130
81604,31066
81598,31000
81604,30933
81624,30869
81624,30869
81655,30810
81655,30810
81655,30810
81698,30758
81750,30715
81750,30715
81750,30715
81809,30684
81809,30684
81873,30664
81906,30661
81923,30660
82076,30660
82093,30661
Z" /> 
<path style="fill:#000000; fill-opacity:1.0; 
stroke:#000000; stroke-width:0; stroke-opacity:1; 
stroke-linecap:round; stroke-linejoin:round;fill-rule:evenodd;"
d="M 79033,29661
79066,29664
79130,29684
79130,29684
79189,29715
79189,29715
79189,29715
79241,29758
79284,29810
79284,29810
79284,29810
79315,29869
79315,29869
79335,29933
79341,30000
79335,30066
79315,30130
79315,30130
79284,30189
79284,30189
79241,30241
79189,30284
79189,30284
79189,30284
79130,30315
79130,30315
79066,30335
79033,30338
79016,30340
78983,30340
78966,30338
78933,30335
78869,30315
78869,30315
78810,30284
78810,30284
78810,30284
78758,30241
78715,30189
78715,30189
78684,30130
78684,30130
78664,30066
78658,30000
78664,29933
78684,29869
78684,29869
78715,29810
78715,29810
78715,29810
78758,29758
78810,29715
78810,29715
78810,29715
78869,29684
78869,29684
78933,29664
78966,29661
78983,29660
79016,29660
79033,29661
Z" /> 
<path style="fill:#000000; fill-opacity:1.0; 
stroke:#000000; stroke-width:0; stroke-opacity:1; 
stroke-linecap:round; stroke-linejoin:round;fill-rule:evenodd;"
d="M 74400,30340
73600,30340
73600,29660
74400,29660
74400,30340
Z" /> 
<path style="fill:#000000; fill-opacity:1.0; 
stroke:#000000; stroke-width:0; stroke-opacity:1; 
stroke-linecap:round; stroke-linejoin:round;fill-rule:evenodd;"
d="M 77033,29661
77066,29664
77130,29684
77130,29684
77189,29715
77189,29715
77189,29715
77241,29758
77284,29810
77284,29810
77284,29810
77315,29869
77315,29869
77335,29933
77341,30000
77335,30066
77315,30130
77315,30130
77284,30189
77284,30189
77241,30241
77189,30284
77189,30284
77189,30284
77130,30315
77130,30315
77066,30335
77033,30338
77016,30340
76983,30340
76966,30338
76933,30335
76869,30315
76869,30315
76810,30284
76810,30284
76810,30284
76758,30241
76715,30189
76715,30189
76684,30130
76684,30130
76664,30066
76658,30000
76664,29933
76684,29869
76684,29869
76715,29810
76715,29810
76715,29810
76758,29758
76810,29715
76810,29715
76810,29715
76869,29684
76869,29684
76933,29664
76966,29661
76983,29660
77016,29660
77033,29661
Z" /> 
<path style="fill:#000000; fill-opacity:1.0; 
stroke:#000000; stroke-width:0; stroke-opacity:1; 
stroke-linecap:round; stroke-linejoin:round;fill-rule:evenodd;"
d="M 78033,29661
78066,29664
78130,29684
78130,29684
78189,29715
78189,29715
78189,29715
78241,29758
78284,29810
78284,29810
78284,29810
78315,29869
78315,29869
78335,29933
78341,30000
78335,30066
78315,30130
78315,30130
78284,30189
78284,30189
78241,30241
78189,30284
78189,30284
78189,30284
78130,30315
78130,30315
78066,30335
78033,30338
78016,30340
77983,30340
77966,30338
77933,30335
77869,30315
77869,30315
77810,30284
77810,30284
77810,30284
77758,30241
77715,30189
77715,30189
77684,30130
77684,30130
77664,30066
77658,30000
77664,29933
77684,29869
77684,29869
77715,29810
77715,29810
77715,29810
77758,29758
77810,29715
77810,29715
77810,29715
77869,29684
77869,29684
77933,29664
77966,29661
77983,29660
78016,29660
78033,29661
Z" /> 
<path style="fill:#000000; fill-opacity:1.0; 
stroke:#000000; stroke-width:0; stroke-opacity:1; 
stroke-linecap:round; stroke-linejoin:round;fill-rule:evenodd;"
d="M 82400,30340
81600,30340
81600,29660
82400,29660
82400,30340
Z" /> 
<path style="fill:#000000; fill-opacity:1.0; 
stroke:#000000; stroke-width:0; stroke-opacity:1; 
stroke-linecap:round; stroke-linejoin:round;fill-rule:evenodd;"
d="M 74097,28509
74145,28519
74236,28556
74278,28584
74318,28611
74388,28681
74443,28763
74480,28854
74500,28950
74500,29049
74480,29145
74443,29236
74390,29315
74388,29318
74318,29388
74236,29443
74145,29480
74097,29490
74049,29500
73950,29500
73902,29490
73854,29480
73763,29443
73681,29388
73611,29318
73609,29315
73556,29236
73519,29145
73500,29049
73500,28950
73519,28854
73556,28763
73611,28681
73681,28611
73721,28584
73763,28556
73854,28519
73902,28509
73950,28500
74049,28500
74097,28509
Z" /> 
<path style="fill:#000000; fill-opacity:1.0; 
stroke:#000000; stroke-width:0; stroke-opacity:1; 
stroke-linecap:round; stroke-linejoin:round;fill-rule:evenodd;"
d="M 82097,28509
82145,28519
82236,28556
82278,28584
82318,28611
82388,28681
82443,28763
82480,28854
82500,28950
82500,29049
82480,29145
82443,29236
82390,29315
82388,29318
82318,29388
82236,29443
82145,29480
82097,29490
82049,29500
81950,29500
81902,29490
81854,29480
81763,29443
81681,29388
81611,29318
81609,29315
81556,29236
81519,29145
81500,29049
81500,28950
81519,28854
81556,28763
81611,28681
81681,28611
81721,28584
81763,28556
81854,28519
81902,28509
81950,28500
82049,28500
82097,28509
Z" /> 
<path style="fill:#000000; fill-opacity:1.0; 
stroke:#000000; stroke-width:0; stroke-opacity:1; 
stroke-linecap:round; stroke-linejoin:round;fill-rule:evenodd;"
d="M 77033,28661
77066,28664
77130,28684
77130,28684
77189,28715
77189,28715
77189,28715
77241,28758
77284,28810
77284,28810
77284,28810
77315,28869
77315,28869
77335,28933
77341,29000
77335,29066
77315,29130
77315,29130
77307,29145
77284,29189
77241,29241
77189,29284
77189,29284
77189,29284
77130,29315
77130,29315
77066,29335
77033,29338
77016,29340
76983,29340
76966,29338
76933,29335
76869,29315
76869,29315
76810,29284
76810,29284
76810,29284
76758,29241
76715,29189
76692,29145
76684,29130
76684,29130
76664,29066
76658,29000
76664,28933
76684,28869
76684,28869
76715,28810
76715,28810
76715,28810
76758,28758
76810,28715
76810,28715
76810,28715
76869,28684
76869,28684
76933,28664
76966,28661
76983,28660
77016,28660
77033,28661
Z" /> 
<path style="fill:#000000; fill-opacity:1.0; 
stroke:#000000; stroke-width:0; stroke-opacity:1; 
stroke-linecap:round; stroke-linejoin:round;fill-rule:evenodd;"
d="M 79340,29340
78660,29340
78660,28660
79340,28660
79340,29340
Z" /> 
<path style="fill:#000000; fill-opacity:1.0; 
stroke:#000000; stroke-width:0; stroke-opacity:1; 
stroke-linecap:round; stroke-linejoin:round;fill-rule:evenodd;"
d="M 78033,28661
78066,28664
78130,28684
78130,28684
78189,28715
78189,28715
78189,28715
78241,28758
78284,28810
78284,28810
78284,28810
78315,28869
78315,28869
78335,28933
78341,29000
78335,29066
78315,29130
78315,29130
78307,29145
78284,29189
78241,29241
78189,29284
78189,29284
78189,29284
78130,29315
78130,29315
78066,29335
78033,29338
78016,29340
77983,29340
77966,29338
77933,29335
77869,29315
77869,29315
77810,29284
77810,29284
77810,29284
77758,29241
77715,29189
77692,29145
77684,29130
77684,29130
77664,29066
77658,29000
77664,28933
77684,28869
77684,28869
77715,28810
77715,28810
77715,28810
77758,28758
77810,28715
77810,28715
77810,28715
77869,28684
77869,28684
77933,28664
77966,28661
77983,28660
78016,28660
78033,28661
Z" /> 
</g> 
</svg>
