G04 #@! TF.GenerationSoftware,KiCad,Pcbnew,6.0.0-unknown-a40367c~86~ubuntu16.04.1*
G04 #@! TF.CreationDate,2019-05-10T13:23:40+02:00*
G04 #@! TF.ProjectId,arduino_nanoPB,61726475-696e-46f5-9f6e-616e6f50422e,rev?*
G04 #@! TF.SameCoordinates,Original*
G04 #@! TF.FileFunction,Soldermask,Bot*
G04 #@! TF.FilePolarity,Negative*
%FSLAX46Y46*%
G04 Gerber Fmt 4.6, Leading zero omitted, Abs format (unit mm)*
G04 Created by KiCad (PCBNEW 6.0.0-unknown-a40367c~86~ubuntu16.04.1) date 2019-05-10 13:23:40*
%MOMM*%
%LPD*%
G04 APERTURE LIST*
%ADD10C,0.100000*%
G04 APERTURE END LIST*
D10*
G36*
X154947764Y-110854402D02*
G01*
X155070445Y-110878805D01*
X155301571Y-110974541D01*
X155509578Y-111113527D01*
X155686473Y-111290422D01*
X155825459Y-111498429D01*
X155921195Y-111729555D01*
X155970000Y-111974916D01*
X155970000Y-112225084D01*
X155921195Y-112470445D01*
X155825459Y-112701571D01*
X155686473Y-112909578D01*
X155509578Y-113086473D01*
X155301571Y-113225459D01*
X155070445Y-113321195D01*
X154947764Y-113345598D01*
X154825085Y-113370000D01*
X154574915Y-113370000D01*
X154452236Y-113345598D01*
X154329555Y-113321195D01*
X154098429Y-113225459D01*
X153890422Y-113086473D01*
X153713527Y-112909578D01*
X153574541Y-112701571D01*
X153478805Y-112470445D01*
X153430000Y-112225084D01*
X153430000Y-111974916D01*
X153478805Y-111729555D01*
X153574541Y-111498429D01*
X153713527Y-111290422D01*
X153890422Y-111113527D01*
X154098429Y-110974541D01*
X154329555Y-110878805D01*
X154452236Y-110854402D01*
X154574915Y-110830000D01*
X154825085Y-110830000D01*
X154947764Y-110854402D01*
X154947764Y-110854402D01*
G37*
G36*
X139647764Y-110854402D02*
G01*
X139770445Y-110878805D01*
X140001571Y-110974541D01*
X140209578Y-111113527D01*
X140386473Y-111290422D01*
X140525459Y-111498429D01*
X140621195Y-111729555D01*
X140670000Y-111974916D01*
X140670000Y-112225084D01*
X140621195Y-112470445D01*
X140525459Y-112701571D01*
X140386473Y-112909578D01*
X140209578Y-113086473D01*
X140001571Y-113225459D01*
X139770445Y-113321195D01*
X139647764Y-113345598D01*
X139525085Y-113370000D01*
X139274915Y-113370000D01*
X139152236Y-113345598D01*
X139029555Y-113321195D01*
X138798429Y-113225459D01*
X138590422Y-113086473D01*
X138413527Y-112909578D01*
X138274541Y-112701571D01*
X138178805Y-112470445D01*
X138130000Y-112225084D01*
X138130000Y-111974916D01*
X138178805Y-111729555D01*
X138274541Y-111498429D01*
X138413527Y-111290422D01*
X138590422Y-111113527D01*
X138798429Y-110974541D01*
X139029555Y-110878805D01*
X139152236Y-110854402D01*
X139274915Y-110830000D01*
X139525085Y-110830000D01*
X139647764Y-110854402D01*
X139647764Y-110854402D01*
G37*
G36*
X142309000Y-113018040D02*
G01*
X141409000Y-113018040D01*
X141409000Y-111818040D01*
X142309000Y-111818040D01*
X142309000Y-113018040D01*
X142309000Y-113018040D01*
G37*
G36*
X152773800Y-112723400D02*
G01*
X151873800Y-112723400D01*
X151873800Y-111523400D01*
X152773800Y-111523400D01*
X152773800Y-112723400D01*
X152773800Y-112723400D01*
G37*
G36*
X146466000Y-112587800D02*
G01*
X144966000Y-112587800D01*
X144966000Y-111287800D01*
X146466000Y-111287800D01*
X146466000Y-112587800D01*
X146466000Y-112587800D01*
G37*
G36*
X149166000Y-112587800D02*
G01*
X147666000Y-112587800D01*
X147666000Y-111287800D01*
X149166000Y-111287800D01*
X149166000Y-112587800D01*
X149166000Y-112587800D01*
G37*
G36*
X143597114Y-109769694D02*
G01*
X143691369Y-109798286D01*
X143749030Y-109829107D01*
X143778229Y-109844714D01*
X143854364Y-109907196D01*
X143898200Y-109960611D01*
X143916847Y-109983332D01*
X143963274Y-110070190D01*
X143991866Y-110164445D01*
X143999100Y-110237896D01*
X143999100Y-110837024D01*
X143991866Y-110910475D01*
X143963274Y-111004730D01*
X143916847Y-111091588D01*
X143854364Y-111167724D01*
X143778228Y-111230207D01*
X143691370Y-111276634D01*
X143597115Y-111305226D01*
X143499100Y-111314879D01*
X143401086Y-111305226D01*
X143306831Y-111276634D01*
X143219973Y-111230207D01*
X143143837Y-111167724D01*
X143081355Y-111091590D01*
X143034925Y-111004728D01*
X143006334Y-110910475D01*
X142999100Y-110837024D01*
X142999100Y-110237897D01*
X143006334Y-110164446D01*
X143034926Y-110070191D01*
X143081353Y-109983333D01*
X143081354Y-109983331D01*
X143143836Y-109907196D01*
X143219971Y-109844714D01*
X143219970Y-109844714D01*
X143219972Y-109844713D01*
X143306830Y-109798286D01*
X143401085Y-109769694D01*
X143499100Y-109760041D01*
X143597114Y-109769694D01*
X143597114Y-109769694D01*
G37*
G36*
X150597114Y-109769694D02*
G01*
X150691369Y-109798286D01*
X150749030Y-109829107D01*
X150778229Y-109844714D01*
X150854364Y-109907196D01*
X150898200Y-109960611D01*
X150916847Y-109983332D01*
X150963274Y-110070190D01*
X150991866Y-110164445D01*
X150999100Y-110237896D01*
X150999100Y-110837024D01*
X150991866Y-110910475D01*
X150963274Y-111004730D01*
X150916847Y-111091588D01*
X150854364Y-111167724D01*
X150778228Y-111230207D01*
X150691370Y-111276634D01*
X150597115Y-111305226D01*
X150499100Y-111314879D01*
X150401086Y-111305226D01*
X150306831Y-111276634D01*
X150219973Y-111230207D01*
X150143837Y-111167724D01*
X150081355Y-111091590D01*
X150034925Y-111004728D01*
X150006334Y-110910475D01*
X149999100Y-110837024D01*
X149999100Y-110237897D01*
X150006334Y-110164446D01*
X150034926Y-110070191D01*
X150081353Y-109983333D01*
X150081354Y-109983331D01*
X150143836Y-109907196D01*
X150219971Y-109844714D01*
X150219970Y-109844714D01*
X150219972Y-109844713D01*
X150306830Y-109798286D01*
X150401085Y-109769694D01*
X150499100Y-109760041D01*
X150597114Y-109769694D01*
X150597114Y-109769694D01*
G37*
G36*
X142309000Y-110818040D02*
G01*
X141409000Y-110818040D01*
X141409000Y-109618040D01*
X142309000Y-109618040D01*
X142309000Y-110818040D01*
X142309000Y-110818040D01*
G37*
G36*
X152773800Y-110523400D02*
G01*
X151873800Y-110523400D01*
X151873800Y-109323400D01*
X152773800Y-109323400D01*
X152773800Y-110523400D01*
X152773800Y-110523400D01*
G37*
G36*
X146466000Y-110378000D02*
G01*
X144966000Y-110378000D01*
X144966000Y-109078000D01*
X146466000Y-109078000D01*
X146466000Y-110378000D01*
X146466000Y-110378000D01*
G37*
G36*
X149166000Y-110378000D02*
G01*
X147666000Y-110378000D01*
X147666000Y-109078000D01*
X149166000Y-109078000D01*
X149166000Y-110378000D01*
X149166000Y-110378000D01*
G37*
G36*
X139683112Y-108487565D02*
G01*
X139767695Y-108495896D01*
X139930484Y-108545278D01*
X139930487Y-108545279D01*
X140080507Y-108625466D01*
X140080508Y-108625467D01*
X140080512Y-108625469D01*
X140212012Y-108733388D01*
X140319931Y-108864888D01*
X140319933Y-108864892D01*
X140319934Y-108864893D01*
X140400121Y-109014913D01*
X140400122Y-109014916D01*
X140449504Y-109177705D01*
X140466178Y-109347000D01*
X140449504Y-109516295D01*
X140400122Y-109679084D01*
X140400121Y-109679087D01*
X140336408Y-109798286D01*
X140319931Y-109829112D01*
X140212012Y-109960612D01*
X140080512Y-110068531D01*
X140080508Y-110068533D01*
X140080507Y-110068534D01*
X139930487Y-110148721D01*
X139930484Y-110148722D01*
X139767695Y-110198104D01*
X139683112Y-110206435D01*
X139640821Y-110210600D01*
X139251179Y-110210600D01*
X139208888Y-110206435D01*
X139124305Y-110198104D01*
X138961516Y-110148722D01*
X138961513Y-110148721D01*
X138811493Y-110068534D01*
X138811492Y-110068533D01*
X138811488Y-110068531D01*
X138679988Y-109960612D01*
X138572069Y-109829112D01*
X138555592Y-109798286D01*
X138491879Y-109679087D01*
X138491878Y-109679084D01*
X138442496Y-109516295D01*
X138425822Y-109347000D01*
X138442496Y-109177705D01*
X138491878Y-109014916D01*
X138491879Y-109014913D01*
X138572066Y-108864893D01*
X138572067Y-108864892D01*
X138572069Y-108864888D01*
X138679988Y-108733388D01*
X138811488Y-108625469D01*
X138811492Y-108625467D01*
X138811493Y-108625466D01*
X138961513Y-108545279D01*
X138961516Y-108545278D01*
X139124305Y-108495896D01*
X139208888Y-108487565D01*
X139251179Y-108483400D01*
X139640821Y-108483400D01*
X139683112Y-108487565D01*
X139683112Y-108487565D01*
G37*
G36*
X154923112Y-108487565D02*
G01*
X155007695Y-108495896D01*
X155170484Y-108545278D01*
X155170487Y-108545279D01*
X155320507Y-108625466D01*
X155320508Y-108625467D01*
X155320512Y-108625469D01*
X155452012Y-108733388D01*
X155559931Y-108864888D01*
X155559933Y-108864892D01*
X155559934Y-108864893D01*
X155640121Y-109014913D01*
X155640122Y-109014916D01*
X155689504Y-109177705D01*
X155706178Y-109347000D01*
X155689504Y-109516295D01*
X155640122Y-109679084D01*
X155640121Y-109679087D01*
X155576408Y-109798286D01*
X155559931Y-109829112D01*
X155452012Y-109960612D01*
X155320512Y-110068531D01*
X155320508Y-110068533D01*
X155320507Y-110068534D01*
X155170487Y-110148721D01*
X155170484Y-110148722D01*
X155007695Y-110198104D01*
X154923112Y-110206435D01*
X154880821Y-110210600D01*
X154491179Y-110210600D01*
X154448888Y-110206435D01*
X154364305Y-110198104D01*
X154201516Y-110148722D01*
X154201513Y-110148721D01*
X154051493Y-110068534D01*
X154051492Y-110068533D01*
X154051488Y-110068531D01*
X153919988Y-109960612D01*
X153812069Y-109829112D01*
X153795592Y-109798286D01*
X153731879Y-109679087D01*
X153731878Y-109679084D01*
X153682496Y-109516295D01*
X153665822Y-109347000D01*
X153682496Y-109177705D01*
X153731878Y-109014916D01*
X153731879Y-109014913D01*
X153812066Y-108864893D01*
X153812067Y-108864892D01*
X153812069Y-108864888D01*
X153919988Y-108733388D01*
X154051488Y-108625469D01*
X154051492Y-108625467D01*
X154051493Y-108625466D01*
X154201513Y-108545279D01*
X154201516Y-108545278D01*
X154364305Y-108495896D01*
X154448888Y-108487565D01*
X154491179Y-108483400D01*
X154880821Y-108483400D01*
X154923112Y-108487565D01*
X154923112Y-108487565D01*
G37*
G36*
X143509000Y-108800520D02*
G01*
X141479000Y-108800520D01*
X141479000Y-107150520D01*
X143509000Y-107150520D01*
X143509000Y-108800520D01*
X143509000Y-108800520D01*
G37*
G36*
X144695693Y-107364751D02*
G01*
X144742216Y-107369333D01*
X144808459Y-107389427D01*
X144831758Y-107396495D01*
X144909553Y-107438078D01*
X144914273Y-107440601D01*
X144986601Y-107499959D01*
X145045959Y-107572287D01*
X145045960Y-107572289D01*
X145090065Y-107654802D01*
X145117227Y-107744345D01*
X145126398Y-107837460D01*
X145117227Y-107930575D01*
X145090065Y-108020118D01*
X145048482Y-108097913D01*
X145045959Y-108102633D01*
X144986601Y-108174961D01*
X144914273Y-108234319D01*
X144914271Y-108234320D01*
X144831758Y-108278425D01*
X144808459Y-108285493D01*
X144742216Y-108305587D01*
X144695693Y-108310169D01*
X144672433Y-108312460D01*
X144325767Y-108312460D01*
X144302507Y-108310169D01*
X144255984Y-108305587D01*
X144189741Y-108285493D01*
X144166442Y-108278425D01*
X144083929Y-108234320D01*
X144083927Y-108234319D01*
X144011599Y-108174961D01*
X143952241Y-108102633D01*
X143949718Y-108097913D01*
X143908135Y-108020118D01*
X143880973Y-107930575D01*
X143871802Y-107837460D01*
X143880973Y-107744345D01*
X143908135Y-107654802D01*
X143952240Y-107572289D01*
X143952241Y-107572287D01*
X144011599Y-107499959D01*
X144083927Y-107440601D01*
X144088647Y-107438078D01*
X144166442Y-107396495D01*
X144189741Y-107389427D01*
X144255984Y-107369333D01*
X144302507Y-107364751D01*
X144325767Y-107362460D01*
X144672433Y-107362460D01*
X144695693Y-107364751D01*
X144695693Y-107364751D01*
G37*
G36*
X149695693Y-107364751D02*
G01*
X149742216Y-107369333D01*
X149808459Y-107389427D01*
X149831758Y-107396495D01*
X149909553Y-107438078D01*
X149914273Y-107440601D01*
X149986601Y-107499959D01*
X150045959Y-107572287D01*
X150045960Y-107572289D01*
X150090065Y-107654802D01*
X150117227Y-107744345D01*
X150126398Y-107837460D01*
X150117227Y-107930575D01*
X150090065Y-108020118D01*
X150048482Y-108097913D01*
X150045959Y-108102633D01*
X149986601Y-108174961D01*
X149914273Y-108234319D01*
X149914271Y-108234320D01*
X149831758Y-108278425D01*
X149808459Y-108285493D01*
X149742216Y-108305587D01*
X149695693Y-108310169D01*
X149672433Y-108312460D01*
X149325767Y-108312460D01*
X149302507Y-108310169D01*
X149255984Y-108305587D01*
X149189741Y-108285493D01*
X149166442Y-108278425D01*
X149083929Y-108234320D01*
X149083927Y-108234319D01*
X149011599Y-108174961D01*
X148952241Y-108102633D01*
X148949718Y-108097913D01*
X148908135Y-108020118D01*
X148880973Y-107930575D01*
X148871802Y-107837460D01*
X148880973Y-107744345D01*
X148908135Y-107654802D01*
X148952240Y-107572289D01*
X148952241Y-107572287D01*
X149011599Y-107499959D01*
X149083927Y-107440601D01*
X149088647Y-107438078D01*
X149166442Y-107396495D01*
X149189741Y-107389427D01*
X149255984Y-107369333D01*
X149302507Y-107364751D01*
X149325767Y-107362460D01*
X149672433Y-107362460D01*
X149695693Y-107364751D01*
X149695693Y-107364751D01*
G37*
G36*
X139683112Y-105947565D02*
G01*
X139767695Y-105955896D01*
X139930484Y-106005278D01*
X139930487Y-106005279D01*
X140080507Y-106085466D01*
X140080508Y-106085467D01*
X140080512Y-106085469D01*
X140212012Y-106193388D01*
X140319931Y-106324888D01*
X140319933Y-106324892D01*
X140319934Y-106324893D01*
X140400121Y-106474913D01*
X140400122Y-106474916D01*
X140449504Y-106637705D01*
X140466178Y-106807000D01*
X140449504Y-106976295D01*
X140400122Y-107139084D01*
X140400121Y-107139087D01*
X140319934Y-107289107D01*
X140319931Y-107289112D01*
X140212012Y-107420612D01*
X140080512Y-107528531D01*
X140080508Y-107528533D01*
X140080507Y-107528534D01*
X139930487Y-107608721D01*
X139930484Y-107608722D01*
X139767695Y-107658104D01*
X139683112Y-107666435D01*
X139640821Y-107670600D01*
X139251179Y-107670600D01*
X139208888Y-107666435D01*
X139124305Y-107658104D01*
X138961516Y-107608722D01*
X138961513Y-107608721D01*
X138811493Y-107528534D01*
X138811492Y-107528533D01*
X138811488Y-107528531D01*
X138679988Y-107420612D01*
X138572069Y-107289112D01*
X138572066Y-107289107D01*
X138491879Y-107139087D01*
X138491878Y-107139084D01*
X138442496Y-106976295D01*
X138425822Y-106807000D01*
X138442496Y-106637705D01*
X138491878Y-106474916D01*
X138491879Y-106474913D01*
X138572066Y-106324893D01*
X138572067Y-106324892D01*
X138572069Y-106324888D01*
X138679988Y-106193388D01*
X138811488Y-106085469D01*
X138811492Y-106085467D01*
X138811493Y-106085466D01*
X138961513Y-106005279D01*
X138961516Y-106005278D01*
X139124305Y-105955896D01*
X139208888Y-105947565D01*
X139251179Y-105943400D01*
X139640821Y-105943400D01*
X139683112Y-105947565D01*
X139683112Y-105947565D01*
G37*
G36*
X154923112Y-105947565D02*
G01*
X155007695Y-105955896D01*
X155170484Y-106005278D01*
X155170487Y-106005279D01*
X155320507Y-106085466D01*
X155320508Y-106085467D01*
X155320512Y-106085469D01*
X155452012Y-106193388D01*
X155559931Y-106324888D01*
X155559933Y-106324892D01*
X155559934Y-106324893D01*
X155640121Y-106474913D01*
X155640122Y-106474916D01*
X155689504Y-106637705D01*
X155706178Y-106807000D01*
X155689504Y-106976295D01*
X155640122Y-107139084D01*
X155640121Y-107139087D01*
X155559934Y-107289107D01*
X155559931Y-107289112D01*
X155452012Y-107420612D01*
X155320512Y-107528531D01*
X155320508Y-107528533D01*
X155320507Y-107528534D01*
X155170487Y-107608721D01*
X155170484Y-107608722D01*
X155007695Y-107658104D01*
X154923112Y-107666435D01*
X154880821Y-107670600D01*
X154491179Y-107670600D01*
X154448888Y-107666435D01*
X154364305Y-107658104D01*
X154201516Y-107608722D01*
X154201513Y-107608721D01*
X154051493Y-107528534D01*
X154051492Y-107528533D01*
X154051488Y-107528531D01*
X153919988Y-107420612D01*
X153812069Y-107289112D01*
X153812066Y-107289107D01*
X153731879Y-107139087D01*
X153731878Y-107139084D01*
X153682496Y-106976295D01*
X153665822Y-106807000D01*
X153682496Y-106637705D01*
X153731878Y-106474916D01*
X153731879Y-106474913D01*
X153812066Y-106324893D01*
X153812067Y-106324892D01*
X153812069Y-106324888D01*
X153919988Y-106193388D01*
X154051488Y-106085469D01*
X154051492Y-106085467D01*
X154051493Y-106085466D01*
X154201513Y-106005279D01*
X154201516Y-106005278D01*
X154364305Y-105955896D01*
X154448888Y-105947565D01*
X154491179Y-105943400D01*
X154880821Y-105943400D01*
X154923112Y-105947565D01*
X154923112Y-105947565D01*
G37*
G36*
X148913600Y-106517600D02*
G01*
X147413600Y-106517600D01*
X147413600Y-105267600D01*
X148913600Y-105267600D01*
X148913600Y-106517600D01*
X148913600Y-106517600D01*
G37*
G36*
X146413600Y-106517600D02*
G01*
X144913600Y-106517600D01*
X144913600Y-105267600D01*
X146413600Y-105267600D01*
X146413600Y-106517600D01*
X146413600Y-106517600D01*
G37*
G36*
X152002310Y-105392600D02*
G01*
X152502300Y-105392600D01*
X152502300Y-105965336D01*
X152494743Y-105981314D01*
X152492995Y-105987075D01*
X152492693Y-105990146D01*
X152464240Y-106083943D01*
X152418035Y-106170386D01*
X152355853Y-106246154D01*
X152280085Y-106308336D01*
X152193642Y-106354541D01*
X152099845Y-106382994D01*
X152002300Y-106392601D01*
X151502300Y-106392601D01*
X151404755Y-106382994D01*
X151310958Y-106354541D01*
X151224515Y-106308336D01*
X151148747Y-106246154D01*
X151086565Y-106170386D01*
X151040360Y-106083943D01*
X151011907Y-105990146D01*
X151011605Y-105987075D01*
X151009857Y-105981314D01*
X151002300Y-105963071D01*
X151002300Y-105392600D01*
X151502290Y-105392600D01*
X151502300Y-105392599D01*
X152002300Y-105392599D01*
X152002310Y-105392600D01*
X152002310Y-105392600D01*
G37*
G36*
X143509000Y-105640520D02*
G01*
X141479000Y-105640520D01*
X141479000Y-103990520D01*
X143509000Y-103990520D01*
X143509000Y-105640520D01*
X143509000Y-105640520D01*
G37*
G36*
X154923112Y-103407565D02*
G01*
X155007695Y-103415896D01*
X155170484Y-103465278D01*
X155170487Y-103465279D01*
X155320507Y-103545466D01*
X155320508Y-103545467D01*
X155320512Y-103545469D01*
X155452012Y-103653388D01*
X155559931Y-103784888D01*
X155559933Y-103784892D01*
X155559934Y-103784893D01*
X155640121Y-103934913D01*
X155640122Y-103934916D01*
X155689504Y-104097705D01*
X155706178Y-104267000D01*
X155689504Y-104436295D01*
X155671679Y-104495054D01*
X155640121Y-104599087D01*
X155591449Y-104690146D01*
X155559931Y-104749112D01*
X155452012Y-104880612D01*
X155320512Y-104988531D01*
X155320508Y-104988533D01*
X155320507Y-104988534D01*
X155170487Y-105068721D01*
X155170484Y-105068722D01*
X155007695Y-105118104D01*
X154923112Y-105126435D01*
X154880821Y-105130600D01*
X154491179Y-105130600D01*
X154448888Y-105126435D01*
X154364305Y-105118104D01*
X154201516Y-105068722D01*
X154201513Y-105068721D01*
X154051493Y-104988534D01*
X154051492Y-104988533D01*
X154051488Y-104988531D01*
X153919988Y-104880612D01*
X153812069Y-104749112D01*
X153780551Y-104690146D01*
X153731879Y-104599087D01*
X153700321Y-104495054D01*
X153682496Y-104436295D01*
X153665822Y-104267000D01*
X153682496Y-104097705D01*
X153731878Y-103934916D01*
X153731879Y-103934913D01*
X153812066Y-103784893D01*
X153812067Y-103784892D01*
X153812069Y-103784888D01*
X153919988Y-103653388D01*
X154051488Y-103545469D01*
X154051492Y-103545467D01*
X154051493Y-103545466D01*
X154201513Y-103465279D01*
X154201516Y-103465278D01*
X154364305Y-103415896D01*
X154448888Y-103407565D01*
X154491179Y-103403400D01*
X154880821Y-103403400D01*
X154923112Y-103407565D01*
X154923112Y-103407565D01*
G37*
G36*
X139683112Y-103407565D02*
G01*
X139767695Y-103415896D01*
X139930484Y-103465278D01*
X139930487Y-103465279D01*
X140080507Y-103545466D01*
X140080508Y-103545467D01*
X140080512Y-103545469D01*
X140212012Y-103653388D01*
X140319931Y-103784888D01*
X140319933Y-103784892D01*
X140319934Y-103784893D01*
X140400121Y-103934913D01*
X140400122Y-103934916D01*
X140449504Y-104097705D01*
X140466178Y-104267000D01*
X140449504Y-104436295D01*
X140431679Y-104495054D01*
X140400121Y-104599087D01*
X140351449Y-104690146D01*
X140319931Y-104749112D01*
X140212012Y-104880612D01*
X140080512Y-104988531D01*
X140080508Y-104988533D01*
X140080507Y-104988534D01*
X139930487Y-105068721D01*
X139930484Y-105068722D01*
X139767695Y-105118104D01*
X139683112Y-105126435D01*
X139640821Y-105130600D01*
X139251179Y-105130600D01*
X139208888Y-105126435D01*
X139124305Y-105118104D01*
X138961516Y-105068722D01*
X138961513Y-105068721D01*
X138811493Y-104988534D01*
X138811492Y-104988533D01*
X138811488Y-104988531D01*
X138679988Y-104880612D01*
X138572069Y-104749112D01*
X138540551Y-104690146D01*
X138491879Y-104599087D01*
X138460321Y-104495054D01*
X138442496Y-104436295D01*
X138425822Y-104267000D01*
X138442496Y-104097705D01*
X138491878Y-103934916D01*
X138491879Y-103934913D01*
X138572066Y-103784893D01*
X138572067Y-103784892D01*
X138572069Y-103784888D01*
X138679988Y-103653388D01*
X138811488Y-103545469D01*
X138811492Y-103545467D01*
X138811493Y-103545466D01*
X138961513Y-103465279D01*
X138961516Y-103465278D01*
X139124305Y-103415896D01*
X139208888Y-103407565D01*
X139251179Y-103403400D01*
X139640821Y-103403400D01*
X139683112Y-103407565D01*
X139683112Y-103407565D01*
G37*
G36*
X152099845Y-104102206D02*
G01*
X152193642Y-104130659D01*
X152280085Y-104176864D01*
X152355853Y-104239046D01*
X152418035Y-104314814D01*
X152464240Y-104401257D01*
X152492693Y-104495054D01*
X152492995Y-104498125D01*
X152494743Y-104503886D01*
X152502300Y-104522129D01*
X152502300Y-105092600D01*
X152002310Y-105092600D01*
X152002300Y-105092601D01*
X151502300Y-105092601D01*
X151502290Y-105092600D01*
X151002300Y-105092600D01*
X151002300Y-104519864D01*
X151009857Y-104503886D01*
X151011605Y-104498125D01*
X151011907Y-104495054D01*
X151040360Y-104401257D01*
X151086565Y-104314814D01*
X151148747Y-104239046D01*
X151224515Y-104176864D01*
X151310958Y-104130659D01*
X151404755Y-104102206D01*
X151502300Y-104092599D01*
X152002300Y-104092599D01*
X152099845Y-104102206D01*
X152099845Y-104102206D01*
G37*
G36*
X148596106Y-103627171D02*
G01*
X148624378Y-103635747D01*
X148650439Y-103649677D01*
X148673279Y-103668421D01*
X148692022Y-103691260D01*
X148705954Y-103717324D01*
X148714529Y-103745593D01*
X148716700Y-103767638D01*
X148716700Y-104332362D01*
X148714529Y-104354407D01*
X148705954Y-104382676D01*
X148692022Y-104408740D01*
X148673279Y-104431579D01*
X148650440Y-104450322D01*
X148624376Y-104464254D01*
X148596107Y-104472829D01*
X148566700Y-104475725D01*
X148537294Y-104472829D01*
X148509025Y-104464254D01*
X148482961Y-104450322D01*
X148460122Y-104431579D01*
X148441377Y-104408737D01*
X148426940Y-104381728D01*
X148413326Y-104361353D01*
X148395999Y-104344026D01*
X148375625Y-104330413D01*
X148352986Y-104321035D01*
X148328953Y-104316255D01*
X148304449Y-104316255D01*
X148280415Y-104321036D01*
X148257777Y-104330413D01*
X148237402Y-104344027D01*
X148220075Y-104361354D01*
X148206463Y-104381725D01*
X148192023Y-104408738D01*
X148173279Y-104431579D01*
X148150440Y-104450322D01*
X148124376Y-104464254D01*
X148096107Y-104472829D01*
X148066700Y-104475725D01*
X148037294Y-104472829D01*
X148009025Y-104464254D01*
X147982961Y-104450322D01*
X147960122Y-104431579D01*
X147941377Y-104408737D01*
X147926940Y-104381728D01*
X147913326Y-104361353D01*
X147895999Y-104344026D01*
X147875625Y-104330413D01*
X147852986Y-104321035D01*
X147828953Y-104316255D01*
X147804449Y-104316255D01*
X147780415Y-104321036D01*
X147757777Y-104330413D01*
X147737402Y-104344027D01*
X147720075Y-104361354D01*
X147706463Y-104381725D01*
X147692023Y-104408738D01*
X147673279Y-104431579D01*
X147650440Y-104450322D01*
X147624376Y-104464254D01*
X147596107Y-104472829D01*
X147566700Y-104475725D01*
X147537294Y-104472829D01*
X147509025Y-104464254D01*
X147482961Y-104450322D01*
X147460122Y-104431579D01*
X147441377Y-104408737D01*
X147426940Y-104381728D01*
X147413326Y-104361353D01*
X147395999Y-104344026D01*
X147375625Y-104330413D01*
X147352986Y-104321035D01*
X147328953Y-104316255D01*
X147304449Y-104316255D01*
X147280415Y-104321036D01*
X147257777Y-104330413D01*
X147237402Y-104344027D01*
X147220075Y-104361354D01*
X147206463Y-104381725D01*
X147192023Y-104408738D01*
X147173279Y-104431579D01*
X147150440Y-104450322D01*
X147124376Y-104464254D01*
X147096107Y-104472829D01*
X147066700Y-104475725D01*
X147037294Y-104472829D01*
X147009025Y-104464254D01*
X146982961Y-104450322D01*
X146960122Y-104431579D01*
X146941377Y-104408737D01*
X146926940Y-104381728D01*
X146913326Y-104361353D01*
X146895999Y-104344026D01*
X146875625Y-104330413D01*
X146852986Y-104321035D01*
X146828953Y-104316255D01*
X146804449Y-104316255D01*
X146780415Y-104321036D01*
X146757777Y-104330413D01*
X146737402Y-104344027D01*
X146720075Y-104361354D01*
X146706463Y-104381725D01*
X146692023Y-104408738D01*
X146673279Y-104431579D01*
X146650440Y-104450322D01*
X146624376Y-104464254D01*
X146596107Y-104472829D01*
X146566700Y-104475725D01*
X146537294Y-104472829D01*
X146509025Y-104464254D01*
X146482961Y-104450322D01*
X146460122Y-104431579D01*
X146441377Y-104408737D01*
X146426940Y-104381728D01*
X146413326Y-104361353D01*
X146395999Y-104344026D01*
X146375625Y-104330413D01*
X146352986Y-104321035D01*
X146328953Y-104316255D01*
X146304449Y-104316255D01*
X146280415Y-104321036D01*
X146257777Y-104330413D01*
X146237402Y-104344027D01*
X146220075Y-104361354D01*
X146206463Y-104381725D01*
X146192023Y-104408738D01*
X146173279Y-104431579D01*
X146150440Y-104450322D01*
X146124376Y-104464254D01*
X146096107Y-104472829D01*
X146066700Y-104475725D01*
X146037294Y-104472829D01*
X146009025Y-104464254D01*
X145982961Y-104450322D01*
X145960122Y-104431579D01*
X145941377Y-104408737D01*
X145926940Y-104381728D01*
X145913326Y-104361353D01*
X145895999Y-104344026D01*
X145875625Y-104330413D01*
X145852986Y-104321035D01*
X145828953Y-104316255D01*
X145804449Y-104316255D01*
X145780415Y-104321036D01*
X145757777Y-104330413D01*
X145737402Y-104344027D01*
X145720075Y-104361354D01*
X145706463Y-104381725D01*
X145692023Y-104408738D01*
X145673279Y-104431579D01*
X145650440Y-104450322D01*
X145624376Y-104464254D01*
X145596107Y-104472829D01*
X145566700Y-104475725D01*
X145537294Y-104472829D01*
X145509025Y-104464254D01*
X145482961Y-104450322D01*
X145460122Y-104431579D01*
X145441379Y-104408740D01*
X145427447Y-104382676D01*
X145418872Y-104354407D01*
X145416701Y-104332362D01*
X145416700Y-103767639D01*
X145418871Y-103745594D01*
X145427447Y-103717322D01*
X145441377Y-103691261D01*
X145460121Y-103668421D01*
X145482960Y-103649678D01*
X145509024Y-103635746D01*
X145537293Y-103627171D01*
X145566700Y-103624275D01*
X145596106Y-103627171D01*
X145624378Y-103635747D01*
X145650439Y-103649677D01*
X145673279Y-103668421D01*
X145692025Y-103691263D01*
X145706462Y-103718273D01*
X145720076Y-103738647D01*
X145737403Y-103755974D01*
X145757777Y-103769587D01*
X145780416Y-103778964D01*
X145804450Y-103783744D01*
X145828954Y-103783744D01*
X145852987Y-103778963D01*
X145875626Y-103769585D01*
X145896000Y-103755971D01*
X145913327Y-103738644D01*
X145926938Y-103718273D01*
X145941375Y-103691263D01*
X145960121Y-103668421D01*
X145982960Y-103649678D01*
X146009024Y-103635746D01*
X146037293Y-103627171D01*
X146066700Y-103624275D01*
X146096106Y-103627171D01*
X146124378Y-103635747D01*
X146150439Y-103649677D01*
X146173279Y-103668421D01*
X146192025Y-103691263D01*
X146206462Y-103718273D01*
X146220076Y-103738647D01*
X146237403Y-103755974D01*
X146257777Y-103769587D01*
X146280416Y-103778964D01*
X146304450Y-103783744D01*
X146328954Y-103783744D01*
X146352987Y-103778963D01*
X146375626Y-103769585D01*
X146396000Y-103755971D01*
X146413327Y-103738644D01*
X146426938Y-103718273D01*
X146441375Y-103691263D01*
X146460121Y-103668421D01*
X146482960Y-103649678D01*
X146509024Y-103635746D01*
X146537293Y-103627171D01*
X146566700Y-103624275D01*
X146596106Y-103627171D01*
X146624378Y-103635747D01*
X146650439Y-103649677D01*
X146673279Y-103668421D01*
X146692025Y-103691263D01*
X146706462Y-103718273D01*
X146720076Y-103738647D01*
X146737403Y-103755974D01*
X146757777Y-103769587D01*
X146780416Y-103778964D01*
X146804450Y-103783744D01*
X146828954Y-103783744D01*
X146852987Y-103778963D01*
X146875626Y-103769585D01*
X146896000Y-103755971D01*
X146913327Y-103738644D01*
X146926938Y-103718273D01*
X146941375Y-103691263D01*
X146960121Y-103668421D01*
X146982960Y-103649678D01*
X147009024Y-103635746D01*
X147037293Y-103627171D01*
X147066700Y-103624275D01*
X147096106Y-103627171D01*
X147124378Y-103635747D01*
X147150439Y-103649677D01*
X147173279Y-103668421D01*
X147192025Y-103691263D01*
X147206462Y-103718273D01*
X147220076Y-103738647D01*
X147237403Y-103755974D01*
X147257777Y-103769587D01*
X147280416Y-103778964D01*
X147304450Y-103783744D01*
X147328954Y-103783744D01*
X147352987Y-103778963D01*
X147375626Y-103769585D01*
X147396000Y-103755971D01*
X147413327Y-103738644D01*
X147426938Y-103718273D01*
X147441375Y-103691263D01*
X147460121Y-103668421D01*
X147482960Y-103649678D01*
X147509024Y-103635746D01*
X147537293Y-103627171D01*
X147566700Y-103624275D01*
X147596106Y-103627171D01*
X147624378Y-103635747D01*
X147650439Y-103649677D01*
X147673279Y-103668421D01*
X147692025Y-103691263D01*
X147706462Y-103718273D01*
X147720076Y-103738647D01*
X147737403Y-103755974D01*
X147757777Y-103769587D01*
X147780416Y-103778964D01*
X147804450Y-103783744D01*
X147828954Y-103783744D01*
X147852987Y-103778963D01*
X147875626Y-103769585D01*
X147896000Y-103755971D01*
X147913327Y-103738644D01*
X147926938Y-103718273D01*
X147941375Y-103691263D01*
X147960121Y-103668421D01*
X147982960Y-103649678D01*
X148009024Y-103635746D01*
X148037293Y-103627171D01*
X148066700Y-103624275D01*
X148096106Y-103627171D01*
X148124378Y-103635747D01*
X148150439Y-103649677D01*
X148173279Y-103668421D01*
X148192025Y-103691263D01*
X148206462Y-103718273D01*
X148220076Y-103738647D01*
X148237403Y-103755974D01*
X148257777Y-103769587D01*
X148280416Y-103778964D01*
X148304450Y-103783744D01*
X148328954Y-103783744D01*
X148352987Y-103778963D01*
X148375626Y-103769585D01*
X148396000Y-103755971D01*
X148413327Y-103738644D01*
X148426938Y-103718273D01*
X148441375Y-103691263D01*
X148460121Y-103668421D01*
X148482960Y-103649678D01*
X148509024Y-103635746D01*
X148537293Y-103627171D01*
X148566700Y-103624275D01*
X148596106Y-103627171D01*
X148596106Y-103627171D01*
G37*
G36*
X143129400Y-103334400D02*
G01*
X141909400Y-103334400D01*
X141909400Y-102424400D01*
X143129400Y-102424400D01*
X143129400Y-103334400D01*
X143129400Y-103334400D01*
G37*
G36*
X148741700Y-103275000D02*
G01*
X145391700Y-103275000D01*
X145391700Y-99925000D01*
X148741700Y-99925000D01*
X148741700Y-103275000D01*
X148741700Y-103275000D01*
G37*
G36*
X144921107Y-99952171D02*
G01*
X144949376Y-99960746D01*
X144975440Y-99974678D01*
X144998279Y-99993421D01*
X145017022Y-100016260D01*
X145030954Y-100042324D01*
X145039529Y-100070593D01*
X145042425Y-100100000D01*
X145039529Y-100129407D01*
X145030954Y-100157676D01*
X145017022Y-100183740D01*
X144998279Y-100206579D01*
X144975437Y-100225325D01*
X144948427Y-100239762D01*
X144928053Y-100253376D01*
X144910726Y-100270703D01*
X144897113Y-100291077D01*
X144887736Y-100313716D01*
X144882956Y-100337750D01*
X144882956Y-100362254D01*
X144887737Y-100386287D01*
X144897115Y-100408926D01*
X144910729Y-100429300D01*
X144928056Y-100446627D01*
X144948427Y-100460238D01*
X144975437Y-100474675D01*
X144998279Y-100493421D01*
X145017022Y-100516260D01*
X145030954Y-100542324D01*
X145039529Y-100570593D01*
X145042425Y-100600000D01*
X145039529Y-100629407D01*
X145030954Y-100657676D01*
X145017022Y-100683740D01*
X144998279Y-100706579D01*
X144975437Y-100725325D01*
X144948427Y-100739762D01*
X144928053Y-100753376D01*
X144910726Y-100770703D01*
X144897113Y-100791077D01*
X144887736Y-100813716D01*
X144882956Y-100837750D01*
X144882956Y-100862254D01*
X144887737Y-100886287D01*
X144897115Y-100908926D01*
X144910729Y-100929300D01*
X144928056Y-100946627D01*
X144948427Y-100960238D01*
X144975437Y-100974675D01*
X144998279Y-100993421D01*
X145017022Y-101016260D01*
X145030954Y-101042324D01*
X145039529Y-101070593D01*
X145042425Y-101100000D01*
X145039529Y-101129407D01*
X145030954Y-101157676D01*
X145017022Y-101183740D01*
X144998279Y-101206579D01*
X144975437Y-101225325D01*
X144948427Y-101239762D01*
X144928053Y-101253376D01*
X144910726Y-101270703D01*
X144897113Y-101291077D01*
X144887736Y-101313716D01*
X144882956Y-101337750D01*
X144882956Y-101362254D01*
X144887737Y-101386287D01*
X144897115Y-101408926D01*
X144910729Y-101429300D01*
X144928056Y-101446627D01*
X144948427Y-101460238D01*
X144975437Y-101474675D01*
X144998279Y-101493421D01*
X145017022Y-101516260D01*
X145030954Y-101542324D01*
X145039529Y-101570593D01*
X145042425Y-101600000D01*
X145039529Y-101629407D01*
X145030954Y-101657676D01*
X145017022Y-101683740D01*
X144998279Y-101706579D01*
X144975437Y-101725325D01*
X144948427Y-101739762D01*
X144928053Y-101753376D01*
X144910726Y-101770703D01*
X144897113Y-101791077D01*
X144887736Y-101813716D01*
X144882956Y-101837750D01*
X144882956Y-101862254D01*
X144887737Y-101886287D01*
X144897115Y-101908926D01*
X144910729Y-101929300D01*
X144928056Y-101946627D01*
X144948427Y-101960238D01*
X144975437Y-101974675D01*
X144998279Y-101993421D01*
X145017022Y-102016260D01*
X145030954Y-102042324D01*
X145039529Y-102070593D01*
X145042425Y-102100000D01*
X145039529Y-102129407D01*
X145030954Y-102157676D01*
X145017022Y-102183740D01*
X144998279Y-102206579D01*
X144975437Y-102225325D01*
X144948427Y-102239762D01*
X144928053Y-102253376D01*
X144910726Y-102270703D01*
X144897113Y-102291077D01*
X144887736Y-102313716D01*
X144882956Y-102337750D01*
X144882956Y-102362254D01*
X144887737Y-102386287D01*
X144897115Y-102408926D01*
X144910729Y-102429300D01*
X144928056Y-102446627D01*
X144948427Y-102460238D01*
X144975437Y-102474675D01*
X144998279Y-102493421D01*
X145017022Y-102516260D01*
X145030954Y-102542324D01*
X145039529Y-102570593D01*
X145042425Y-102600000D01*
X145039529Y-102629407D01*
X145030954Y-102657676D01*
X145017022Y-102683740D01*
X144998279Y-102706579D01*
X144975437Y-102725325D01*
X144948427Y-102739762D01*
X144928053Y-102753376D01*
X144910726Y-102770703D01*
X144897113Y-102791077D01*
X144887736Y-102813716D01*
X144882956Y-102837750D01*
X144882956Y-102862254D01*
X144887737Y-102886287D01*
X144897115Y-102908926D01*
X144910729Y-102929300D01*
X144928056Y-102946627D01*
X144948427Y-102960238D01*
X144975437Y-102974675D01*
X144998279Y-102993421D01*
X145017022Y-103016260D01*
X145030954Y-103042324D01*
X145039529Y-103070593D01*
X145042425Y-103100000D01*
X145039529Y-103129407D01*
X145030954Y-103157676D01*
X145017022Y-103183740D01*
X144998279Y-103206579D01*
X144975440Y-103225322D01*
X144949376Y-103239254D01*
X144921107Y-103247829D01*
X144899062Y-103250000D01*
X144334338Y-103250000D01*
X144312293Y-103247829D01*
X144284024Y-103239254D01*
X144257960Y-103225322D01*
X144235121Y-103206579D01*
X144216378Y-103183740D01*
X144202446Y-103157676D01*
X144193871Y-103129407D01*
X144190975Y-103100000D01*
X144193871Y-103070593D01*
X144202446Y-103042324D01*
X144216378Y-103016260D01*
X144235121Y-102993421D01*
X144257963Y-102974675D01*
X144284973Y-102960238D01*
X144305347Y-102946624D01*
X144322674Y-102929297D01*
X144336287Y-102908923D01*
X144345664Y-102886284D01*
X144350444Y-102862250D01*
X144350444Y-102837746D01*
X144345663Y-102813713D01*
X144336285Y-102791074D01*
X144322671Y-102770700D01*
X144305344Y-102753373D01*
X144284973Y-102739762D01*
X144257963Y-102725325D01*
X144235121Y-102706579D01*
X144216378Y-102683740D01*
X144202446Y-102657676D01*
X144193871Y-102629407D01*
X144190975Y-102600000D01*
X144193871Y-102570593D01*
X144202446Y-102542324D01*
X144216378Y-102516260D01*
X144235121Y-102493421D01*
X144257963Y-102474675D01*
X144284973Y-102460238D01*
X144305347Y-102446624D01*
X144322674Y-102429297D01*
X144336287Y-102408923D01*
X144345664Y-102386284D01*
X144350444Y-102362250D01*
X144350444Y-102337746D01*
X144345663Y-102313713D01*
X144336285Y-102291074D01*
X144322671Y-102270700D01*
X144305344Y-102253373D01*
X144284973Y-102239762D01*
X144257963Y-102225325D01*
X144235121Y-102206579D01*
X144216378Y-102183740D01*
X144202446Y-102157676D01*
X144193871Y-102129407D01*
X144190975Y-102100000D01*
X144193871Y-102070593D01*
X144202446Y-102042324D01*
X144216378Y-102016260D01*
X144235121Y-101993421D01*
X144257963Y-101974675D01*
X144284973Y-101960238D01*
X144305347Y-101946624D01*
X144322674Y-101929297D01*
X144336287Y-101908923D01*
X144345664Y-101886284D01*
X144350444Y-101862250D01*
X144350444Y-101837746D01*
X144345663Y-101813713D01*
X144336285Y-101791074D01*
X144322671Y-101770700D01*
X144305344Y-101753373D01*
X144284973Y-101739762D01*
X144257963Y-101725325D01*
X144235121Y-101706579D01*
X144216378Y-101683740D01*
X144202446Y-101657676D01*
X144193871Y-101629407D01*
X144190975Y-101600000D01*
X144193871Y-101570593D01*
X144202446Y-101542324D01*
X144216378Y-101516260D01*
X144235121Y-101493421D01*
X144257963Y-101474675D01*
X144284973Y-101460238D01*
X144305347Y-101446624D01*
X144322674Y-101429297D01*
X144336287Y-101408923D01*
X144345664Y-101386284D01*
X144350444Y-101362250D01*
X144350444Y-101337746D01*
X144345663Y-101313713D01*
X144336285Y-101291074D01*
X144322671Y-101270700D01*
X144305344Y-101253373D01*
X144284973Y-101239762D01*
X144257963Y-101225325D01*
X144235121Y-101206579D01*
X144216378Y-101183740D01*
X144202446Y-101157676D01*
X144193871Y-101129407D01*
X144190975Y-101100000D01*
X144193871Y-101070593D01*
X144202446Y-101042324D01*
X144216378Y-101016260D01*
X144235121Y-100993421D01*
X144257963Y-100974675D01*
X144284973Y-100960238D01*
X144305347Y-100946624D01*
X144322674Y-100929297D01*
X144336287Y-100908923D01*
X144345664Y-100886284D01*
X144350444Y-100862250D01*
X144350444Y-100837746D01*
X144345663Y-100813713D01*
X144336285Y-100791074D01*
X144322671Y-100770700D01*
X144305344Y-100753373D01*
X144284973Y-100739762D01*
X144257963Y-100725325D01*
X144235121Y-100706579D01*
X144216378Y-100683740D01*
X144202446Y-100657676D01*
X144193871Y-100629407D01*
X144190975Y-100600000D01*
X144193871Y-100570593D01*
X144202446Y-100542324D01*
X144216378Y-100516260D01*
X144235121Y-100493421D01*
X144257963Y-100474675D01*
X144284973Y-100460238D01*
X144305347Y-100446624D01*
X144322674Y-100429297D01*
X144336287Y-100408923D01*
X144345664Y-100386284D01*
X144350444Y-100362250D01*
X144350444Y-100337746D01*
X144345663Y-100313713D01*
X144336285Y-100291074D01*
X144322671Y-100270700D01*
X144305344Y-100253373D01*
X144284973Y-100239762D01*
X144257963Y-100225325D01*
X144235121Y-100206579D01*
X144216378Y-100183740D01*
X144202446Y-100157676D01*
X144193871Y-100129407D01*
X144190975Y-100100000D01*
X144193871Y-100070593D01*
X144202446Y-100042324D01*
X144216378Y-100016260D01*
X144235121Y-99993421D01*
X144257960Y-99974678D01*
X144284024Y-99960746D01*
X144312293Y-99952171D01*
X144334338Y-99950000D01*
X144899062Y-99950000D01*
X144921107Y-99952171D01*
X144921107Y-99952171D01*
G37*
G36*
X149821107Y-99952171D02*
G01*
X149849376Y-99960746D01*
X149875440Y-99974678D01*
X149898279Y-99993421D01*
X149917022Y-100016260D01*
X149930954Y-100042324D01*
X149939529Y-100070593D01*
X149942425Y-100100000D01*
X149939529Y-100129407D01*
X149930954Y-100157676D01*
X149917022Y-100183740D01*
X149898279Y-100206579D01*
X149875437Y-100225325D01*
X149848427Y-100239762D01*
X149828053Y-100253376D01*
X149810726Y-100270703D01*
X149797113Y-100291077D01*
X149787736Y-100313716D01*
X149782956Y-100337750D01*
X149782956Y-100362254D01*
X149787737Y-100386287D01*
X149797115Y-100408926D01*
X149810729Y-100429300D01*
X149828056Y-100446627D01*
X149848427Y-100460238D01*
X149875437Y-100474675D01*
X149898279Y-100493421D01*
X149917022Y-100516260D01*
X149930954Y-100542324D01*
X149939529Y-100570593D01*
X149942425Y-100600000D01*
X149939529Y-100629407D01*
X149930954Y-100657676D01*
X149917022Y-100683740D01*
X149898279Y-100706579D01*
X149875437Y-100725325D01*
X149848427Y-100739762D01*
X149828053Y-100753376D01*
X149810726Y-100770703D01*
X149797113Y-100791077D01*
X149787736Y-100813716D01*
X149782956Y-100837750D01*
X149782956Y-100862254D01*
X149787737Y-100886287D01*
X149797115Y-100908926D01*
X149810729Y-100929300D01*
X149828056Y-100946627D01*
X149848427Y-100960238D01*
X149875437Y-100974675D01*
X149898279Y-100993421D01*
X149917022Y-101016260D01*
X149930954Y-101042324D01*
X149939529Y-101070593D01*
X149942425Y-101100000D01*
X149939529Y-101129407D01*
X149930954Y-101157676D01*
X149917022Y-101183740D01*
X149898279Y-101206579D01*
X149875437Y-101225325D01*
X149848427Y-101239762D01*
X149828053Y-101253376D01*
X149810726Y-101270703D01*
X149797113Y-101291077D01*
X149787736Y-101313716D01*
X149782956Y-101337750D01*
X149782956Y-101362254D01*
X149787737Y-101386287D01*
X149797115Y-101408926D01*
X149810729Y-101429300D01*
X149828056Y-101446627D01*
X149848427Y-101460238D01*
X149875437Y-101474675D01*
X149898279Y-101493421D01*
X149917022Y-101516260D01*
X149930954Y-101542324D01*
X149939529Y-101570593D01*
X149942425Y-101600000D01*
X149939529Y-101629407D01*
X149930954Y-101657676D01*
X149917022Y-101683740D01*
X149898279Y-101706579D01*
X149875437Y-101725325D01*
X149848427Y-101739762D01*
X149828053Y-101753376D01*
X149810726Y-101770703D01*
X149797113Y-101791077D01*
X149787736Y-101813716D01*
X149782956Y-101837750D01*
X149782956Y-101862254D01*
X149787737Y-101886287D01*
X149797115Y-101908926D01*
X149810729Y-101929300D01*
X149828056Y-101946627D01*
X149848427Y-101960238D01*
X149875437Y-101974675D01*
X149898279Y-101993421D01*
X149917022Y-102016260D01*
X149930954Y-102042324D01*
X149939529Y-102070593D01*
X149942425Y-102100000D01*
X149939529Y-102129407D01*
X149930954Y-102157676D01*
X149917022Y-102183740D01*
X149898279Y-102206579D01*
X149875437Y-102225325D01*
X149848427Y-102239762D01*
X149828053Y-102253376D01*
X149810726Y-102270703D01*
X149797113Y-102291077D01*
X149787736Y-102313716D01*
X149782956Y-102337750D01*
X149782956Y-102362254D01*
X149787737Y-102386287D01*
X149797115Y-102408926D01*
X149810729Y-102429300D01*
X149828056Y-102446627D01*
X149848427Y-102460238D01*
X149875437Y-102474675D01*
X149898279Y-102493421D01*
X149917022Y-102516260D01*
X149930954Y-102542324D01*
X149939529Y-102570593D01*
X149942425Y-102600000D01*
X149939529Y-102629407D01*
X149930954Y-102657676D01*
X149917022Y-102683740D01*
X149898279Y-102706579D01*
X149875437Y-102725325D01*
X149848427Y-102739762D01*
X149828053Y-102753376D01*
X149810726Y-102770703D01*
X149797113Y-102791077D01*
X149787736Y-102813716D01*
X149782956Y-102837750D01*
X149782956Y-102862254D01*
X149787737Y-102886287D01*
X149797115Y-102908926D01*
X149810729Y-102929300D01*
X149828056Y-102946627D01*
X149848427Y-102960238D01*
X149875437Y-102974675D01*
X149898279Y-102993421D01*
X149917022Y-103016260D01*
X149930954Y-103042324D01*
X149939529Y-103070593D01*
X149942425Y-103100000D01*
X149939529Y-103129407D01*
X149930954Y-103157676D01*
X149917022Y-103183740D01*
X149898279Y-103206579D01*
X149875440Y-103225322D01*
X149849376Y-103239254D01*
X149821107Y-103247829D01*
X149799062Y-103250000D01*
X149234338Y-103250000D01*
X149212293Y-103247829D01*
X149184024Y-103239254D01*
X149157960Y-103225322D01*
X149135121Y-103206579D01*
X149116378Y-103183740D01*
X149102446Y-103157676D01*
X149093871Y-103129407D01*
X149090975Y-103100000D01*
X149093871Y-103070593D01*
X149102446Y-103042324D01*
X149116378Y-103016260D01*
X149135121Y-102993421D01*
X149157963Y-102974675D01*
X149184973Y-102960238D01*
X149205347Y-102946624D01*
X149222674Y-102929297D01*
X149236287Y-102908923D01*
X149245664Y-102886284D01*
X149250444Y-102862250D01*
X149250444Y-102837746D01*
X149245663Y-102813713D01*
X149236285Y-102791074D01*
X149222671Y-102770700D01*
X149205344Y-102753373D01*
X149184973Y-102739762D01*
X149157963Y-102725325D01*
X149135121Y-102706579D01*
X149116378Y-102683740D01*
X149102446Y-102657676D01*
X149093871Y-102629407D01*
X149090975Y-102600000D01*
X149093871Y-102570593D01*
X149102446Y-102542324D01*
X149116378Y-102516260D01*
X149135121Y-102493421D01*
X149157963Y-102474675D01*
X149184973Y-102460238D01*
X149205347Y-102446624D01*
X149222674Y-102429297D01*
X149236287Y-102408923D01*
X149245664Y-102386284D01*
X149250444Y-102362250D01*
X149250444Y-102337746D01*
X149245663Y-102313713D01*
X149236285Y-102291074D01*
X149222671Y-102270700D01*
X149205344Y-102253373D01*
X149184973Y-102239762D01*
X149157963Y-102225325D01*
X149135121Y-102206579D01*
X149116378Y-102183740D01*
X149102446Y-102157676D01*
X149093871Y-102129407D01*
X149090975Y-102100000D01*
X149093871Y-102070593D01*
X149102446Y-102042324D01*
X149116378Y-102016260D01*
X149135121Y-101993421D01*
X149157963Y-101974675D01*
X149184973Y-101960238D01*
X149205347Y-101946624D01*
X149222674Y-101929297D01*
X149236287Y-101908923D01*
X149245664Y-101886284D01*
X149250444Y-101862250D01*
X149250444Y-101837746D01*
X149245663Y-101813713D01*
X149236285Y-101791074D01*
X149222671Y-101770700D01*
X149205344Y-101753373D01*
X149184973Y-101739762D01*
X149157963Y-101725325D01*
X149135121Y-101706579D01*
X149116378Y-101683740D01*
X149102446Y-101657676D01*
X149093871Y-101629407D01*
X149090975Y-101600000D01*
X149093871Y-101570593D01*
X149102446Y-101542324D01*
X149116378Y-101516260D01*
X149135121Y-101493421D01*
X149157963Y-101474675D01*
X149184973Y-101460238D01*
X149205347Y-101446624D01*
X149222674Y-101429297D01*
X149236287Y-101408923D01*
X149245664Y-101386284D01*
X149250444Y-101362250D01*
X149250444Y-101337746D01*
X149245663Y-101313713D01*
X149236285Y-101291074D01*
X149222671Y-101270700D01*
X149205344Y-101253373D01*
X149184973Y-101239762D01*
X149157963Y-101225325D01*
X149135121Y-101206579D01*
X149116378Y-101183740D01*
X149102446Y-101157676D01*
X149093871Y-101129407D01*
X149090975Y-101100000D01*
X149093871Y-101070593D01*
X149102446Y-101042324D01*
X149116378Y-101016260D01*
X149135121Y-100993421D01*
X149157963Y-100974675D01*
X149184973Y-100960238D01*
X149205347Y-100946624D01*
X149222674Y-100929297D01*
X149236287Y-100908923D01*
X149245664Y-100886284D01*
X149250444Y-100862250D01*
X149250444Y-100837746D01*
X149245663Y-100813713D01*
X149236285Y-100791074D01*
X149222671Y-100770700D01*
X149205344Y-100753373D01*
X149184973Y-100739762D01*
X149157963Y-100725325D01*
X149135121Y-100706579D01*
X149116378Y-100683740D01*
X149102446Y-100657676D01*
X149093871Y-100629407D01*
X149090975Y-100600000D01*
X149093871Y-100570593D01*
X149102446Y-100542324D01*
X149116378Y-100516260D01*
X149135121Y-100493421D01*
X149157963Y-100474675D01*
X149184973Y-100460238D01*
X149205347Y-100446624D01*
X149222674Y-100429297D01*
X149236287Y-100408923D01*
X149245664Y-100386284D01*
X149250444Y-100362250D01*
X149250444Y-100337746D01*
X149245663Y-100313713D01*
X149236285Y-100291074D01*
X149222671Y-100270700D01*
X149205344Y-100253373D01*
X149184973Y-100239762D01*
X149157963Y-100225325D01*
X149135121Y-100206579D01*
X149116378Y-100183740D01*
X149102446Y-100157676D01*
X149093871Y-100129407D01*
X149090975Y-100100000D01*
X149093871Y-100070593D01*
X149102446Y-100042324D01*
X149116378Y-100016260D01*
X149135121Y-99993421D01*
X149157960Y-99974678D01*
X149184024Y-99960746D01*
X149212293Y-99952171D01*
X149234338Y-99950000D01*
X149799062Y-99950000D01*
X149821107Y-99952171D01*
X149821107Y-99952171D01*
G37*
G36*
X152692800Y-102527779D02*
G01*
X152687815Y-102544211D01*
X152683193Y-102591146D01*
X152654740Y-102684943D01*
X152608535Y-102771386D01*
X152546353Y-102847154D01*
X152470585Y-102909336D01*
X152384142Y-102955541D01*
X152290345Y-102983994D01*
X152192800Y-102993601D01*
X151692800Y-102993601D01*
X151595255Y-102983994D01*
X151501458Y-102955541D01*
X151415015Y-102909336D01*
X151339247Y-102847154D01*
X151277065Y-102771386D01*
X151230860Y-102684943D01*
X151202407Y-102591146D01*
X151198386Y-102550321D01*
X151194805Y-102532315D01*
X151192800Y-102527474D01*
X151192800Y-101943600D01*
X152692800Y-101943600D01*
X152692800Y-102527779D01*
X152692800Y-102527779D01*
G37*
G36*
X154923112Y-100867565D02*
G01*
X155007695Y-100875896D01*
X155170484Y-100925278D01*
X155170487Y-100925279D01*
X155320507Y-101005466D01*
X155320508Y-101005467D01*
X155320512Y-101005469D01*
X155452012Y-101113388D01*
X155559931Y-101244888D01*
X155559933Y-101244892D01*
X155559934Y-101244893D01*
X155640121Y-101394913D01*
X155640122Y-101394916D01*
X155689504Y-101557705D01*
X155706178Y-101727000D01*
X155689504Y-101896295D01*
X155653112Y-102016262D01*
X155640121Y-102059087D01*
X155587424Y-102157676D01*
X155559931Y-102209112D01*
X155452012Y-102340612D01*
X155320512Y-102448531D01*
X155320508Y-102448533D01*
X155320507Y-102448534D01*
X155170487Y-102528721D01*
X155170484Y-102528722D01*
X155007695Y-102578104D01*
X154923112Y-102586435D01*
X154880821Y-102590600D01*
X154491179Y-102590600D01*
X154448888Y-102586435D01*
X154364305Y-102578104D01*
X154201516Y-102528722D01*
X154201513Y-102528721D01*
X154051493Y-102448534D01*
X154051492Y-102448533D01*
X154051488Y-102448531D01*
X153919988Y-102340612D01*
X153812069Y-102209112D01*
X153784576Y-102157676D01*
X153731879Y-102059087D01*
X153718888Y-102016262D01*
X153682496Y-101896295D01*
X153665822Y-101727000D01*
X153682496Y-101557705D01*
X153731878Y-101394916D01*
X153731879Y-101394913D01*
X153812066Y-101244893D01*
X153812067Y-101244892D01*
X153812069Y-101244888D01*
X153919988Y-101113388D01*
X154051488Y-101005469D01*
X154051492Y-101005467D01*
X154051493Y-101005466D01*
X154201513Y-100925279D01*
X154201516Y-100925278D01*
X154364305Y-100875896D01*
X154448888Y-100867565D01*
X154491179Y-100863400D01*
X154880821Y-100863400D01*
X154923112Y-100867565D01*
X154923112Y-100867565D01*
G37*
G36*
X139683112Y-100867565D02*
G01*
X139767695Y-100875896D01*
X139930484Y-100925278D01*
X139930487Y-100925279D01*
X140080507Y-101005466D01*
X140080508Y-101005467D01*
X140080512Y-101005469D01*
X140212012Y-101113388D01*
X140319931Y-101244888D01*
X140319933Y-101244892D01*
X140319934Y-101244893D01*
X140400121Y-101394913D01*
X140400122Y-101394916D01*
X140449504Y-101557705D01*
X140466178Y-101727000D01*
X140449504Y-101896295D01*
X140413112Y-102016262D01*
X140400121Y-102059087D01*
X140347424Y-102157676D01*
X140319931Y-102209112D01*
X140212012Y-102340612D01*
X140080512Y-102448531D01*
X140080508Y-102448533D01*
X140080507Y-102448534D01*
X139930487Y-102528721D01*
X139930484Y-102528722D01*
X139767695Y-102578104D01*
X139683112Y-102586435D01*
X139640821Y-102590600D01*
X139251179Y-102590600D01*
X139208888Y-102586435D01*
X139124305Y-102578104D01*
X138961516Y-102528722D01*
X138961513Y-102528721D01*
X138811493Y-102448534D01*
X138811492Y-102448533D01*
X138811488Y-102448531D01*
X138679988Y-102340612D01*
X138572069Y-102209112D01*
X138544576Y-102157676D01*
X138491879Y-102059087D01*
X138478888Y-102016262D01*
X138442496Y-101896295D01*
X138425822Y-101727000D01*
X138442496Y-101557705D01*
X138491878Y-101394916D01*
X138491879Y-101394913D01*
X138572066Y-101244893D01*
X138572067Y-101244892D01*
X138572069Y-101244888D01*
X138679988Y-101113388D01*
X138811488Y-101005469D01*
X138811492Y-101005467D01*
X138811493Y-101005466D01*
X138961513Y-100925279D01*
X138961516Y-100925278D01*
X139124305Y-100875896D01*
X139208888Y-100867565D01*
X139251179Y-100863400D01*
X139640821Y-100863400D01*
X139683112Y-100867565D01*
X139683112Y-100867565D01*
G37*
G36*
X152692800Y-101693600D02*
G01*
X151192800Y-101693600D01*
X151192800Y-100693600D01*
X152692800Y-100693600D01*
X152692800Y-101693600D01*
X152692800Y-101693600D01*
G37*
G36*
X152290345Y-99403206D02*
G01*
X152384142Y-99431659D01*
X152470585Y-99477864D01*
X152546353Y-99540046D01*
X152608535Y-99615814D01*
X152654740Y-99702257D01*
X152683193Y-99796054D01*
X152687214Y-99836879D01*
X152690795Y-99854885D01*
X152692800Y-99859726D01*
X152692800Y-100443600D01*
X151192800Y-100443600D01*
X151192800Y-99859421D01*
X151197785Y-99842987D01*
X151202407Y-99796054D01*
X151230860Y-99702257D01*
X151277065Y-99615814D01*
X151339247Y-99540046D01*
X151415015Y-99477864D01*
X151501458Y-99431659D01*
X151595255Y-99403206D01*
X151692800Y-99393599D01*
X152192800Y-99393599D01*
X152290345Y-99403206D01*
X152290345Y-99403206D01*
G37*
G36*
X143129400Y-100064400D02*
G01*
X141909400Y-100064400D01*
X141909400Y-99154400D01*
X143129400Y-99154400D01*
X143129400Y-100064400D01*
X143129400Y-100064400D01*
G37*
G36*
X154923112Y-98327565D02*
G01*
X155007695Y-98335896D01*
X155170484Y-98385278D01*
X155170487Y-98385279D01*
X155320507Y-98465466D01*
X155320508Y-98465467D01*
X155320512Y-98465469D01*
X155452012Y-98573388D01*
X155559931Y-98704888D01*
X155559933Y-98704892D01*
X155559934Y-98704893D01*
X155640121Y-98854913D01*
X155640122Y-98854916D01*
X155689504Y-99017705D01*
X155706178Y-99187000D01*
X155689504Y-99356295D01*
X155657634Y-99461354D01*
X155640121Y-99519087D01*
X155588239Y-99616151D01*
X155559931Y-99669112D01*
X155452012Y-99800612D01*
X155320512Y-99908531D01*
X155320508Y-99908533D01*
X155320507Y-99908534D01*
X155170487Y-99988721D01*
X155170484Y-99988722D01*
X155007695Y-100038104D01*
X154923112Y-100046435D01*
X154880821Y-100050600D01*
X154491179Y-100050600D01*
X154448888Y-100046435D01*
X154364305Y-100038104D01*
X154201516Y-99988722D01*
X154201513Y-99988721D01*
X154051493Y-99908534D01*
X154051492Y-99908533D01*
X154051488Y-99908531D01*
X153919988Y-99800612D01*
X153812069Y-99669112D01*
X153783761Y-99616151D01*
X153731879Y-99519087D01*
X153714366Y-99461354D01*
X153682496Y-99356295D01*
X153665822Y-99187000D01*
X153682496Y-99017705D01*
X153731878Y-98854916D01*
X153731879Y-98854913D01*
X153812066Y-98704893D01*
X153812067Y-98704892D01*
X153812069Y-98704888D01*
X153919988Y-98573388D01*
X154051488Y-98465469D01*
X154051492Y-98465467D01*
X154051493Y-98465466D01*
X154201513Y-98385279D01*
X154201516Y-98385278D01*
X154364305Y-98335896D01*
X154448888Y-98327565D01*
X154491179Y-98323400D01*
X154880821Y-98323400D01*
X154923112Y-98327565D01*
X154923112Y-98327565D01*
G37*
G36*
X139683112Y-98327565D02*
G01*
X139767695Y-98335896D01*
X139930484Y-98385278D01*
X139930487Y-98385279D01*
X140080507Y-98465466D01*
X140080508Y-98465467D01*
X140080512Y-98465469D01*
X140212012Y-98573388D01*
X140319931Y-98704888D01*
X140319933Y-98704892D01*
X140319934Y-98704893D01*
X140400121Y-98854913D01*
X140400122Y-98854916D01*
X140449504Y-99017705D01*
X140466178Y-99187000D01*
X140449504Y-99356295D01*
X140417634Y-99461354D01*
X140400121Y-99519087D01*
X140348239Y-99616151D01*
X140319931Y-99669112D01*
X140212012Y-99800612D01*
X140080512Y-99908531D01*
X140080508Y-99908533D01*
X140080507Y-99908534D01*
X139930487Y-99988721D01*
X139930484Y-99988722D01*
X139767695Y-100038104D01*
X139683112Y-100046435D01*
X139640821Y-100050600D01*
X139251179Y-100050600D01*
X139208888Y-100046435D01*
X139124305Y-100038104D01*
X138961516Y-99988722D01*
X138961513Y-99988721D01*
X138811493Y-99908534D01*
X138811492Y-99908533D01*
X138811488Y-99908531D01*
X138679988Y-99800612D01*
X138572069Y-99669112D01*
X138543761Y-99616151D01*
X138491879Y-99519087D01*
X138474366Y-99461354D01*
X138442496Y-99356295D01*
X138425822Y-99187000D01*
X138442496Y-99017705D01*
X138491878Y-98854916D01*
X138491879Y-98854913D01*
X138572066Y-98704893D01*
X138572067Y-98704892D01*
X138572069Y-98704888D01*
X138679988Y-98573388D01*
X138811488Y-98465469D01*
X138811492Y-98465467D01*
X138811493Y-98465466D01*
X138961513Y-98385279D01*
X138961516Y-98385278D01*
X139124305Y-98335896D01*
X139208888Y-98327565D01*
X139251179Y-98323400D01*
X139640821Y-98323400D01*
X139683112Y-98327565D01*
X139683112Y-98327565D01*
G37*
G36*
X148596106Y-98727171D02*
G01*
X148624378Y-98735747D01*
X148650439Y-98749677D01*
X148673279Y-98768421D01*
X148692022Y-98791260D01*
X148705954Y-98817324D01*
X148714529Y-98845593D01*
X148716700Y-98867638D01*
X148716700Y-99432362D01*
X148714529Y-99454407D01*
X148705954Y-99482676D01*
X148692022Y-99508740D01*
X148673279Y-99531579D01*
X148650440Y-99550322D01*
X148624376Y-99564254D01*
X148596107Y-99572829D01*
X148566700Y-99575725D01*
X148537294Y-99572829D01*
X148509025Y-99564254D01*
X148482961Y-99550322D01*
X148460122Y-99531579D01*
X148441377Y-99508737D01*
X148426940Y-99481728D01*
X148413326Y-99461353D01*
X148395999Y-99444026D01*
X148375625Y-99430413D01*
X148352986Y-99421035D01*
X148328953Y-99416255D01*
X148304449Y-99416255D01*
X148280415Y-99421036D01*
X148257777Y-99430413D01*
X148237402Y-99444027D01*
X148220075Y-99461354D01*
X148206463Y-99481725D01*
X148192023Y-99508738D01*
X148173279Y-99531579D01*
X148150440Y-99550322D01*
X148124376Y-99564254D01*
X148096107Y-99572829D01*
X148066700Y-99575725D01*
X148037294Y-99572829D01*
X148009025Y-99564254D01*
X147982961Y-99550322D01*
X147960122Y-99531579D01*
X147941377Y-99508737D01*
X147926940Y-99481728D01*
X147913326Y-99461353D01*
X147895999Y-99444026D01*
X147875625Y-99430413D01*
X147852986Y-99421035D01*
X147828953Y-99416255D01*
X147804449Y-99416255D01*
X147780415Y-99421036D01*
X147757777Y-99430413D01*
X147737402Y-99444027D01*
X147720075Y-99461354D01*
X147706463Y-99481725D01*
X147692023Y-99508738D01*
X147673279Y-99531579D01*
X147650440Y-99550322D01*
X147624376Y-99564254D01*
X147596107Y-99572829D01*
X147566700Y-99575725D01*
X147537294Y-99572829D01*
X147509025Y-99564254D01*
X147482961Y-99550322D01*
X147460122Y-99531579D01*
X147441377Y-99508737D01*
X147426940Y-99481728D01*
X147413326Y-99461353D01*
X147395999Y-99444026D01*
X147375625Y-99430413D01*
X147352986Y-99421035D01*
X147328953Y-99416255D01*
X147304449Y-99416255D01*
X147280415Y-99421036D01*
X147257777Y-99430413D01*
X147237402Y-99444027D01*
X147220075Y-99461354D01*
X147206463Y-99481725D01*
X147192023Y-99508738D01*
X147173279Y-99531579D01*
X147150440Y-99550322D01*
X147124376Y-99564254D01*
X147096107Y-99572829D01*
X147066700Y-99575725D01*
X147037294Y-99572829D01*
X147009025Y-99564254D01*
X146982961Y-99550322D01*
X146960122Y-99531579D01*
X146941377Y-99508737D01*
X146926940Y-99481728D01*
X146913326Y-99461353D01*
X146895999Y-99444026D01*
X146875625Y-99430413D01*
X146852986Y-99421035D01*
X146828953Y-99416255D01*
X146804449Y-99416255D01*
X146780415Y-99421036D01*
X146757777Y-99430413D01*
X146737402Y-99444027D01*
X146720075Y-99461354D01*
X146706463Y-99481725D01*
X146692023Y-99508738D01*
X146673279Y-99531579D01*
X146650440Y-99550322D01*
X146624376Y-99564254D01*
X146596107Y-99572829D01*
X146566700Y-99575725D01*
X146537294Y-99572829D01*
X146509025Y-99564254D01*
X146482961Y-99550322D01*
X146460122Y-99531579D01*
X146441377Y-99508737D01*
X146426940Y-99481728D01*
X146413326Y-99461353D01*
X146395999Y-99444026D01*
X146375625Y-99430413D01*
X146352986Y-99421035D01*
X146328953Y-99416255D01*
X146304449Y-99416255D01*
X146280415Y-99421036D01*
X146257777Y-99430413D01*
X146237402Y-99444027D01*
X146220075Y-99461354D01*
X146206463Y-99481725D01*
X146192023Y-99508738D01*
X146173279Y-99531579D01*
X146150440Y-99550322D01*
X146124376Y-99564254D01*
X146096107Y-99572829D01*
X146066700Y-99575725D01*
X146037294Y-99572829D01*
X146009025Y-99564254D01*
X145982961Y-99550322D01*
X145960122Y-99531579D01*
X145941377Y-99508737D01*
X145926940Y-99481728D01*
X145913326Y-99461353D01*
X145895999Y-99444026D01*
X145875625Y-99430413D01*
X145852986Y-99421035D01*
X145828953Y-99416255D01*
X145804449Y-99416255D01*
X145780415Y-99421036D01*
X145757777Y-99430413D01*
X145737402Y-99444027D01*
X145720075Y-99461354D01*
X145706463Y-99481725D01*
X145692023Y-99508738D01*
X145673279Y-99531579D01*
X145650440Y-99550322D01*
X145624376Y-99564254D01*
X145596107Y-99572829D01*
X145566700Y-99575725D01*
X145537294Y-99572829D01*
X145509025Y-99564254D01*
X145482961Y-99550322D01*
X145460122Y-99531579D01*
X145441379Y-99508740D01*
X145427447Y-99482676D01*
X145418872Y-99454407D01*
X145416701Y-99432362D01*
X145416700Y-98867639D01*
X145418871Y-98845594D01*
X145427447Y-98817322D01*
X145441377Y-98791261D01*
X145460121Y-98768421D01*
X145482960Y-98749678D01*
X145509024Y-98735746D01*
X145537293Y-98727171D01*
X145566700Y-98724275D01*
X145596106Y-98727171D01*
X145624378Y-98735747D01*
X145650439Y-98749677D01*
X145673279Y-98768421D01*
X145692025Y-98791263D01*
X145706462Y-98818273D01*
X145720076Y-98838647D01*
X145737403Y-98855974D01*
X145757777Y-98869587D01*
X145780416Y-98878964D01*
X145804450Y-98883744D01*
X145828954Y-98883744D01*
X145852987Y-98878963D01*
X145875626Y-98869585D01*
X145896000Y-98855971D01*
X145913327Y-98838644D01*
X145926938Y-98818273D01*
X145941375Y-98791263D01*
X145960121Y-98768421D01*
X145982960Y-98749678D01*
X146009024Y-98735746D01*
X146037293Y-98727171D01*
X146066700Y-98724275D01*
X146096106Y-98727171D01*
X146124378Y-98735747D01*
X146150439Y-98749677D01*
X146173279Y-98768421D01*
X146192025Y-98791263D01*
X146206462Y-98818273D01*
X146220076Y-98838647D01*
X146237403Y-98855974D01*
X146257777Y-98869587D01*
X146280416Y-98878964D01*
X146304450Y-98883744D01*
X146328954Y-98883744D01*
X146352987Y-98878963D01*
X146375626Y-98869585D01*
X146396000Y-98855971D01*
X146413327Y-98838644D01*
X146426938Y-98818273D01*
X146441375Y-98791263D01*
X146460121Y-98768421D01*
X146482960Y-98749678D01*
X146509024Y-98735746D01*
X146537293Y-98727171D01*
X146566700Y-98724275D01*
X146596106Y-98727171D01*
X146624378Y-98735747D01*
X146650439Y-98749677D01*
X146673279Y-98768421D01*
X146692025Y-98791263D01*
X146706462Y-98818273D01*
X146720076Y-98838647D01*
X146737403Y-98855974D01*
X146757777Y-98869587D01*
X146780416Y-98878964D01*
X146804450Y-98883744D01*
X146828954Y-98883744D01*
X146852987Y-98878963D01*
X146875626Y-98869585D01*
X146896000Y-98855971D01*
X146913327Y-98838644D01*
X146926938Y-98818273D01*
X146941375Y-98791263D01*
X146960121Y-98768421D01*
X146982960Y-98749678D01*
X147009024Y-98735746D01*
X147037293Y-98727171D01*
X147066700Y-98724275D01*
X147096106Y-98727171D01*
X147124378Y-98735747D01*
X147150439Y-98749677D01*
X147173279Y-98768421D01*
X147192025Y-98791263D01*
X147206462Y-98818273D01*
X147220076Y-98838647D01*
X147237403Y-98855974D01*
X147257777Y-98869587D01*
X147280416Y-98878964D01*
X147304450Y-98883744D01*
X147328954Y-98883744D01*
X147352987Y-98878963D01*
X147375626Y-98869585D01*
X147396000Y-98855971D01*
X147413327Y-98838644D01*
X147426938Y-98818273D01*
X147441375Y-98791263D01*
X147460121Y-98768421D01*
X147482960Y-98749678D01*
X147509024Y-98735746D01*
X147537293Y-98727171D01*
X147566700Y-98724275D01*
X147596106Y-98727171D01*
X147624378Y-98735747D01*
X147650439Y-98749677D01*
X147673279Y-98768421D01*
X147692025Y-98791263D01*
X147706462Y-98818273D01*
X147720076Y-98838647D01*
X147737403Y-98855974D01*
X147757777Y-98869587D01*
X147780416Y-98878964D01*
X147804450Y-98883744D01*
X147828954Y-98883744D01*
X147852987Y-98878963D01*
X147875626Y-98869585D01*
X147896000Y-98855971D01*
X147913327Y-98838644D01*
X147926938Y-98818273D01*
X147941375Y-98791263D01*
X147960121Y-98768421D01*
X147982960Y-98749678D01*
X148009024Y-98735746D01*
X148037293Y-98727171D01*
X148066700Y-98724275D01*
X148096106Y-98727171D01*
X148124378Y-98735747D01*
X148150439Y-98749677D01*
X148173279Y-98768421D01*
X148192025Y-98791263D01*
X148206462Y-98818273D01*
X148220076Y-98838647D01*
X148237403Y-98855974D01*
X148257777Y-98869587D01*
X148280416Y-98878964D01*
X148304450Y-98883744D01*
X148328954Y-98883744D01*
X148352987Y-98878963D01*
X148375626Y-98869585D01*
X148396000Y-98855971D01*
X148413327Y-98838644D01*
X148426938Y-98818273D01*
X148441375Y-98791263D01*
X148460121Y-98768421D01*
X148482960Y-98749678D01*
X148509024Y-98735746D01*
X148537293Y-98727171D01*
X148566700Y-98724275D01*
X148596106Y-98727171D01*
X148596106Y-98727171D01*
G37*
G36*
X143231300Y-97879579D02*
G01*
X143226315Y-97896011D01*
X143221693Y-97942946D01*
X143193240Y-98036743D01*
X143147035Y-98123186D01*
X143084853Y-98198954D01*
X143009085Y-98261136D01*
X142922642Y-98307341D01*
X142828845Y-98335794D01*
X142731300Y-98345401D01*
X142231300Y-98345401D01*
X142133755Y-98335794D01*
X142039958Y-98307341D01*
X141953515Y-98261136D01*
X141877747Y-98198954D01*
X141815565Y-98123186D01*
X141769360Y-98036743D01*
X141740907Y-97942946D01*
X141736886Y-97902121D01*
X141733305Y-97884115D01*
X141731300Y-97879274D01*
X141731300Y-97295400D01*
X143231300Y-97295400D01*
X143231300Y-97879579D01*
X143231300Y-97879579D01*
G37*
G36*
X154923112Y-95787565D02*
G01*
X155007695Y-95795896D01*
X155170484Y-95845278D01*
X155170487Y-95845279D01*
X155320507Y-95925466D01*
X155320508Y-95925467D01*
X155320512Y-95925469D01*
X155452012Y-96033388D01*
X155559931Y-96164888D01*
X155559933Y-96164892D01*
X155559934Y-96164893D01*
X155640121Y-96314913D01*
X155640122Y-96314916D01*
X155689504Y-96477705D01*
X155706178Y-96647000D01*
X155689504Y-96816295D01*
X155640122Y-96979084D01*
X155640121Y-96979087D01*
X155604676Y-97045400D01*
X155559931Y-97129112D01*
X155452012Y-97260612D01*
X155320512Y-97368531D01*
X155320508Y-97368533D01*
X155320507Y-97368534D01*
X155170487Y-97448721D01*
X155170484Y-97448722D01*
X155007695Y-97498104D01*
X154923112Y-97506435D01*
X154880821Y-97510600D01*
X154491179Y-97510600D01*
X154448888Y-97506435D01*
X154364305Y-97498104D01*
X154201516Y-97448722D01*
X154201513Y-97448721D01*
X154051493Y-97368534D01*
X154051492Y-97368533D01*
X154051488Y-97368531D01*
X153919988Y-97260612D01*
X153812069Y-97129112D01*
X153767324Y-97045400D01*
X153731879Y-96979087D01*
X153731878Y-96979084D01*
X153682496Y-96816295D01*
X153665822Y-96647000D01*
X153682496Y-96477705D01*
X153731878Y-96314916D01*
X153731879Y-96314913D01*
X153812066Y-96164893D01*
X153812067Y-96164892D01*
X153812069Y-96164888D01*
X153919988Y-96033388D01*
X154051488Y-95925469D01*
X154051492Y-95925467D01*
X154051493Y-95925466D01*
X154201513Y-95845279D01*
X154201516Y-95845278D01*
X154364305Y-95795896D01*
X154448888Y-95787565D01*
X154491179Y-95783400D01*
X154880821Y-95783400D01*
X154923112Y-95787565D01*
X154923112Y-95787565D01*
G37*
G36*
X139683112Y-95787565D02*
G01*
X139767695Y-95795896D01*
X139930484Y-95845278D01*
X139930487Y-95845279D01*
X140080507Y-95925466D01*
X140080508Y-95925467D01*
X140080512Y-95925469D01*
X140212012Y-96033388D01*
X140319931Y-96164888D01*
X140319933Y-96164892D01*
X140319934Y-96164893D01*
X140400121Y-96314913D01*
X140400122Y-96314916D01*
X140449504Y-96477705D01*
X140466178Y-96647000D01*
X140449504Y-96816295D01*
X140400122Y-96979084D01*
X140400121Y-96979087D01*
X140364676Y-97045400D01*
X140319931Y-97129112D01*
X140212012Y-97260612D01*
X140080512Y-97368531D01*
X140080508Y-97368533D01*
X140080507Y-97368534D01*
X139930487Y-97448721D01*
X139930484Y-97448722D01*
X139767695Y-97498104D01*
X139683112Y-97506435D01*
X139640821Y-97510600D01*
X139251179Y-97510600D01*
X139208888Y-97506435D01*
X139124305Y-97498104D01*
X138961516Y-97448722D01*
X138961513Y-97448721D01*
X138811493Y-97368534D01*
X138811492Y-97368533D01*
X138811488Y-97368531D01*
X138679988Y-97260612D01*
X138572069Y-97129112D01*
X138527324Y-97045400D01*
X138491879Y-96979087D01*
X138491878Y-96979084D01*
X138442496Y-96816295D01*
X138425822Y-96647000D01*
X138442496Y-96477705D01*
X138491878Y-96314916D01*
X138491879Y-96314913D01*
X138572066Y-96164893D01*
X138572067Y-96164892D01*
X138572069Y-96164888D01*
X138679988Y-96033388D01*
X138811488Y-95925469D01*
X138811492Y-95925467D01*
X138811493Y-95925466D01*
X138961513Y-95845279D01*
X138961516Y-95845278D01*
X139124305Y-95795896D01*
X139208888Y-95787565D01*
X139251179Y-95783400D01*
X139640821Y-95783400D01*
X139683112Y-95787565D01*
X139683112Y-95787565D01*
G37*
G36*
X143231300Y-97045400D02*
G01*
X141731300Y-97045400D01*
X141731300Y-96045400D01*
X143231300Y-96045400D01*
X143231300Y-97045400D01*
X143231300Y-97045400D01*
G37*
G36*
X152139400Y-96776700D02*
G01*
X150639400Y-96776700D01*
X150639400Y-95526700D01*
X152139400Y-95526700D01*
X152139400Y-96776700D01*
X152139400Y-96776700D01*
G37*
G36*
X149639400Y-96776700D02*
G01*
X148139400Y-96776700D01*
X148139400Y-95526700D01*
X149639400Y-95526700D01*
X149639400Y-96776700D01*
X149639400Y-96776700D01*
G37*
G36*
X142828845Y-94755006D02*
G01*
X142922642Y-94783459D01*
X143009085Y-94829664D01*
X143084853Y-94891846D01*
X143147035Y-94967614D01*
X143193240Y-95054057D01*
X143221693Y-95147854D01*
X143225714Y-95188679D01*
X143229295Y-95206685D01*
X143231300Y-95211526D01*
X143231300Y-95795400D01*
X141731300Y-95795400D01*
X141731300Y-95211221D01*
X141736285Y-95194787D01*
X141740907Y-95147854D01*
X141769360Y-95054057D01*
X141815565Y-94967614D01*
X141877747Y-94891846D01*
X141953515Y-94829664D01*
X142039958Y-94783459D01*
X142133755Y-94755006D01*
X142231300Y-94745399D01*
X142731300Y-94745399D01*
X142828845Y-94755006D01*
X142828845Y-94755006D01*
G37*
G36*
X139683112Y-93247565D02*
G01*
X139767695Y-93255896D01*
X139930484Y-93305278D01*
X139930487Y-93305279D01*
X140080507Y-93385466D01*
X140080508Y-93385467D01*
X140080512Y-93385469D01*
X140212012Y-93493388D01*
X140319931Y-93624888D01*
X140319933Y-93624892D01*
X140319934Y-93624893D01*
X140400121Y-93774913D01*
X140400122Y-93774916D01*
X140449504Y-93937705D01*
X140466178Y-94107000D01*
X140449504Y-94276295D01*
X140400122Y-94439084D01*
X140400121Y-94439087D01*
X140319934Y-94589107D01*
X140319931Y-94589112D01*
X140212012Y-94720612D01*
X140080512Y-94828531D01*
X140080508Y-94828533D01*
X140080507Y-94828534D01*
X139930487Y-94908721D01*
X139930484Y-94908722D01*
X139767695Y-94958104D01*
X139683112Y-94966435D01*
X139640821Y-94970600D01*
X139251179Y-94970600D01*
X139208888Y-94966435D01*
X139124305Y-94958104D01*
X138961516Y-94908722D01*
X138961513Y-94908721D01*
X138811493Y-94828534D01*
X138811492Y-94828533D01*
X138811488Y-94828531D01*
X138679988Y-94720612D01*
X138572069Y-94589112D01*
X138572066Y-94589107D01*
X138491879Y-94439087D01*
X138491878Y-94439084D01*
X138442496Y-94276295D01*
X138425822Y-94107000D01*
X138442496Y-93937705D01*
X138491878Y-93774916D01*
X138491879Y-93774913D01*
X138572066Y-93624893D01*
X138572067Y-93624892D01*
X138572069Y-93624888D01*
X138679988Y-93493388D01*
X138811488Y-93385469D01*
X138811492Y-93385467D01*
X138811493Y-93385466D01*
X138961513Y-93305279D01*
X138961516Y-93305278D01*
X139124305Y-93255896D01*
X139208888Y-93247565D01*
X139251179Y-93243400D01*
X139640821Y-93243400D01*
X139683112Y-93247565D01*
X139683112Y-93247565D01*
G37*
G36*
X154923112Y-93247565D02*
G01*
X155007695Y-93255896D01*
X155170484Y-93305278D01*
X155170487Y-93305279D01*
X155320507Y-93385466D01*
X155320508Y-93385467D01*
X155320512Y-93385469D01*
X155452012Y-93493388D01*
X155559931Y-93624888D01*
X155559933Y-93624892D01*
X155559934Y-93624893D01*
X155640121Y-93774913D01*
X155640122Y-93774916D01*
X155689504Y-93937705D01*
X155706178Y-94107000D01*
X155689504Y-94276295D01*
X155640122Y-94439084D01*
X155640121Y-94439087D01*
X155559934Y-94589107D01*
X155559931Y-94589112D01*
X155452012Y-94720612D01*
X155320512Y-94828531D01*
X155320508Y-94828533D01*
X155320507Y-94828534D01*
X155170487Y-94908721D01*
X155170484Y-94908722D01*
X155007695Y-94958104D01*
X154923112Y-94966435D01*
X154880821Y-94970600D01*
X154491179Y-94970600D01*
X154448888Y-94966435D01*
X154364305Y-94958104D01*
X154201516Y-94908722D01*
X154201513Y-94908721D01*
X154051493Y-94828534D01*
X154051492Y-94828533D01*
X154051488Y-94828531D01*
X153919988Y-94720612D01*
X153812069Y-94589112D01*
X153812066Y-94589107D01*
X153731879Y-94439087D01*
X153731878Y-94439084D01*
X153682496Y-94276295D01*
X153665822Y-94107000D01*
X153682496Y-93937705D01*
X153731878Y-93774916D01*
X153731879Y-93774913D01*
X153812066Y-93624893D01*
X153812067Y-93624892D01*
X153812069Y-93624888D01*
X153919988Y-93493388D01*
X154051488Y-93385469D01*
X154051492Y-93385467D01*
X154051493Y-93385466D01*
X154201513Y-93305279D01*
X154201516Y-93305278D01*
X154364305Y-93255896D01*
X154448888Y-93247565D01*
X154491179Y-93243400D01*
X154880821Y-93243400D01*
X154923112Y-93247565D01*
X154923112Y-93247565D01*
G37*
G36*
X149553040Y-93868400D02*
G01*
X148053040Y-93868400D01*
X148053040Y-92618400D01*
X149553040Y-92618400D01*
X149553040Y-93868400D01*
X149553040Y-93868400D01*
G37*
G36*
X152053040Y-93868400D02*
G01*
X150553040Y-93868400D01*
X150553040Y-92618400D01*
X152053040Y-92618400D01*
X152053040Y-93868400D01*
X152053040Y-93868400D01*
G37*
G36*
X145946560Y-93736320D02*
G01*
X144446560Y-93736320D01*
X144446560Y-92486320D01*
X145946560Y-92486320D01*
X145946560Y-93736320D01*
X145946560Y-93736320D01*
G37*
G36*
X143446560Y-93736320D02*
G01*
X141946560Y-93736320D01*
X141946560Y-92486320D01*
X143446560Y-92486320D01*
X143446560Y-93736320D01*
X143446560Y-93736320D01*
G37*
G36*
X139683112Y-90707565D02*
G01*
X139767695Y-90715896D01*
X139930484Y-90765278D01*
X139930487Y-90765279D01*
X140080507Y-90845466D01*
X140080508Y-90845467D01*
X140080512Y-90845469D01*
X140212012Y-90953388D01*
X140319931Y-91084888D01*
X140319933Y-91084892D01*
X140319934Y-91084893D01*
X140400121Y-91234913D01*
X140400122Y-91234916D01*
X140449504Y-91397705D01*
X140466178Y-91567000D01*
X140449504Y-91736295D01*
X140400122Y-91899084D01*
X140400121Y-91899087D01*
X140319934Y-92049107D01*
X140319931Y-92049112D01*
X140212012Y-92180612D01*
X140080512Y-92288531D01*
X140080508Y-92288533D01*
X140080507Y-92288534D01*
X139930487Y-92368721D01*
X139930484Y-92368722D01*
X139767695Y-92418104D01*
X139683112Y-92426435D01*
X139640821Y-92430600D01*
X139251179Y-92430600D01*
X139208888Y-92426435D01*
X139124305Y-92418104D01*
X138961516Y-92368722D01*
X138961513Y-92368721D01*
X138811493Y-92288534D01*
X138811492Y-92288533D01*
X138811488Y-92288531D01*
X138679988Y-92180612D01*
X138572069Y-92049112D01*
X138572066Y-92049107D01*
X138491879Y-91899087D01*
X138491878Y-91899084D01*
X138442496Y-91736295D01*
X138425822Y-91567000D01*
X138442496Y-91397705D01*
X138491878Y-91234916D01*
X138491879Y-91234913D01*
X138572066Y-91084893D01*
X138572067Y-91084892D01*
X138572069Y-91084888D01*
X138679988Y-90953388D01*
X138811488Y-90845469D01*
X138811492Y-90845467D01*
X138811493Y-90845466D01*
X138961513Y-90765279D01*
X138961516Y-90765278D01*
X139124305Y-90715896D01*
X139208888Y-90707565D01*
X139251179Y-90703400D01*
X139640821Y-90703400D01*
X139683112Y-90707565D01*
X139683112Y-90707565D01*
G37*
G36*
X154923112Y-90707565D02*
G01*
X155007695Y-90715896D01*
X155170484Y-90765278D01*
X155170487Y-90765279D01*
X155320507Y-90845466D01*
X155320508Y-90845467D01*
X155320512Y-90845469D01*
X155452012Y-90953388D01*
X155559931Y-91084888D01*
X155559933Y-91084892D01*
X155559934Y-91084893D01*
X155640121Y-91234913D01*
X155640122Y-91234916D01*
X155689504Y-91397705D01*
X155706178Y-91567000D01*
X155689504Y-91736295D01*
X155640122Y-91899084D01*
X155640121Y-91899087D01*
X155559934Y-92049107D01*
X155559931Y-92049112D01*
X155452012Y-92180612D01*
X155320512Y-92288531D01*
X155320508Y-92288533D01*
X155320507Y-92288534D01*
X155170487Y-92368721D01*
X155170484Y-92368722D01*
X155007695Y-92418104D01*
X154923112Y-92426435D01*
X154880821Y-92430600D01*
X154491179Y-92430600D01*
X154448888Y-92426435D01*
X154364305Y-92418104D01*
X154201516Y-92368722D01*
X154201513Y-92368721D01*
X154051493Y-92288534D01*
X154051492Y-92288533D01*
X154051488Y-92288531D01*
X153919988Y-92180612D01*
X153812069Y-92049112D01*
X153812066Y-92049107D01*
X153731879Y-91899087D01*
X153731878Y-91899084D01*
X153682496Y-91736295D01*
X153665822Y-91567000D01*
X153682496Y-91397705D01*
X153731878Y-91234916D01*
X153731879Y-91234913D01*
X153812066Y-91084893D01*
X153812067Y-91084892D01*
X153812069Y-91084888D01*
X153919988Y-90953388D01*
X154051488Y-90845469D01*
X154051492Y-90845467D01*
X154051493Y-90845466D01*
X154201513Y-90765279D01*
X154201516Y-90765278D01*
X154364305Y-90715896D01*
X154448888Y-90707565D01*
X154491179Y-90703400D01*
X154880821Y-90703400D01*
X154923112Y-90707565D01*
X154923112Y-90707565D01*
G37*
G36*
X149543200Y-91729720D02*
G01*
X148043200Y-91729720D01*
X148043200Y-90479720D01*
X149543200Y-90479720D01*
X149543200Y-91729720D01*
X149543200Y-91729720D01*
G37*
G36*
X152043200Y-91729720D02*
G01*
X150543200Y-91729720D01*
X150543200Y-90479720D01*
X152043200Y-90479720D01*
X152043200Y-91729720D01*
X152043200Y-91729720D01*
G37*
G36*
X146118000Y-91582000D02*
G01*
X144618000Y-91582000D01*
X144618000Y-90282000D01*
X146118000Y-90282000D01*
X146118000Y-91582000D01*
X146118000Y-91582000D01*
G37*
G36*
X143418000Y-91582000D02*
G01*
X141918000Y-91582000D01*
X141918000Y-90282000D01*
X143418000Y-90282000D01*
X143418000Y-91582000D01*
X143418000Y-91582000D01*
G37*
G36*
X139683112Y-88167565D02*
G01*
X139767695Y-88175896D01*
X139930484Y-88225278D01*
X139930487Y-88225279D01*
X140080507Y-88305466D01*
X140080508Y-88305467D01*
X140080512Y-88305469D01*
X140212012Y-88413388D01*
X140319931Y-88544888D01*
X140319933Y-88544892D01*
X140319934Y-88544893D01*
X140400121Y-88694913D01*
X140400122Y-88694916D01*
X140449504Y-88857705D01*
X140466178Y-89027000D01*
X140449504Y-89196295D01*
X140400122Y-89359084D01*
X140400121Y-89359087D01*
X140319934Y-89509107D01*
X140319931Y-89509112D01*
X140212012Y-89640612D01*
X140080512Y-89748531D01*
X140080508Y-89748533D01*
X140080507Y-89748534D01*
X139930487Y-89828721D01*
X139930484Y-89828722D01*
X139767695Y-89878104D01*
X139683112Y-89886435D01*
X139640821Y-89890600D01*
X139251179Y-89890600D01*
X139208888Y-89886435D01*
X139124305Y-89878104D01*
X138961516Y-89828722D01*
X138961513Y-89828721D01*
X138811493Y-89748534D01*
X138811492Y-89748533D01*
X138811488Y-89748531D01*
X138679988Y-89640612D01*
X138572069Y-89509112D01*
X138572066Y-89509107D01*
X138491879Y-89359087D01*
X138491878Y-89359084D01*
X138442496Y-89196295D01*
X138425822Y-89027000D01*
X138442496Y-88857705D01*
X138491878Y-88694916D01*
X138491879Y-88694913D01*
X138572066Y-88544893D01*
X138572067Y-88544892D01*
X138572069Y-88544888D01*
X138679988Y-88413388D01*
X138811488Y-88305469D01*
X138811492Y-88305467D01*
X138811493Y-88305466D01*
X138961513Y-88225279D01*
X138961516Y-88225278D01*
X139124305Y-88175896D01*
X139208888Y-88167565D01*
X139251179Y-88163400D01*
X139640821Y-88163400D01*
X139683112Y-88167565D01*
X139683112Y-88167565D01*
G37*
G36*
X154923112Y-88167565D02*
G01*
X155007695Y-88175896D01*
X155170484Y-88225278D01*
X155170487Y-88225279D01*
X155320507Y-88305466D01*
X155320508Y-88305467D01*
X155320512Y-88305469D01*
X155452012Y-88413388D01*
X155559931Y-88544888D01*
X155559933Y-88544892D01*
X155559934Y-88544893D01*
X155640121Y-88694913D01*
X155640122Y-88694916D01*
X155689504Y-88857705D01*
X155706178Y-89027000D01*
X155689504Y-89196295D01*
X155640122Y-89359084D01*
X155640121Y-89359087D01*
X155559934Y-89509107D01*
X155559931Y-89509112D01*
X155452012Y-89640612D01*
X155320512Y-89748531D01*
X155320508Y-89748533D01*
X155320507Y-89748534D01*
X155170487Y-89828721D01*
X155170484Y-89828722D01*
X155007695Y-89878104D01*
X154923112Y-89886435D01*
X154880821Y-89890600D01*
X154491179Y-89890600D01*
X154448888Y-89886435D01*
X154364305Y-89878104D01*
X154201516Y-89828722D01*
X154201513Y-89828721D01*
X154051493Y-89748534D01*
X154051492Y-89748533D01*
X154051488Y-89748531D01*
X153919988Y-89640612D01*
X153812069Y-89509112D01*
X153812066Y-89509107D01*
X153731879Y-89359087D01*
X153731878Y-89359084D01*
X153682496Y-89196295D01*
X153665822Y-89027000D01*
X153682496Y-88857705D01*
X153731878Y-88694916D01*
X153731879Y-88694913D01*
X153812066Y-88544893D01*
X153812067Y-88544892D01*
X153812069Y-88544888D01*
X153919988Y-88413388D01*
X154051488Y-88305469D01*
X154051492Y-88305467D01*
X154051493Y-88305466D01*
X154201513Y-88225279D01*
X154201516Y-88225278D01*
X154364305Y-88175896D01*
X154448888Y-88167565D01*
X154491179Y-88163400D01*
X154880821Y-88163400D01*
X154923112Y-88167565D01*
X154923112Y-88167565D01*
G37*
G36*
X145164800Y-89401700D02*
G01*
X143014800Y-89401700D01*
X143014800Y-88451700D01*
X145164800Y-88451700D01*
X145164800Y-89401700D01*
X145164800Y-89401700D01*
G37*
G36*
X150964800Y-88251700D02*
G01*
X148814800Y-88251700D01*
X148814800Y-85001700D01*
X150964800Y-85001700D01*
X150964800Y-88251700D01*
X150964800Y-88251700D01*
G37*
G36*
X154923112Y-85627565D02*
G01*
X155007695Y-85635896D01*
X155170484Y-85685278D01*
X155170487Y-85685279D01*
X155320507Y-85765466D01*
X155320508Y-85765467D01*
X155320512Y-85765469D01*
X155452012Y-85873388D01*
X155559931Y-86004888D01*
X155559933Y-86004892D01*
X155559934Y-86004893D01*
X155640121Y-86154913D01*
X155640122Y-86154916D01*
X155689504Y-86317705D01*
X155706178Y-86487000D01*
X155689504Y-86656295D01*
X155640122Y-86819084D01*
X155640121Y-86819087D01*
X155559934Y-86969107D01*
X155559931Y-86969112D01*
X155452012Y-87100612D01*
X155320512Y-87208531D01*
X155320508Y-87208533D01*
X155320507Y-87208534D01*
X155170487Y-87288721D01*
X155170484Y-87288722D01*
X155007695Y-87338104D01*
X154923112Y-87346435D01*
X154880821Y-87350600D01*
X154491179Y-87350600D01*
X154448888Y-87346435D01*
X154364305Y-87338104D01*
X154201516Y-87288722D01*
X154201513Y-87288721D01*
X154051493Y-87208534D01*
X154051492Y-87208533D01*
X154051488Y-87208531D01*
X153919988Y-87100612D01*
X153812069Y-86969112D01*
X153812066Y-86969107D01*
X153731879Y-86819087D01*
X153731878Y-86819084D01*
X153682496Y-86656295D01*
X153665822Y-86487000D01*
X153682496Y-86317705D01*
X153731878Y-86154916D01*
X153731879Y-86154913D01*
X153812066Y-86004893D01*
X153812067Y-86004892D01*
X153812069Y-86004888D01*
X153919988Y-85873388D01*
X154051488Y-85765469D01*
X154051492Y-85765467D01*
X154051493Y-85765466D01*
X154201513Y-85685279D01*
X154201516Y-85685278D01*
X154364305Y-85635896D01*
X154448888Y-85627565D01*
X154491179Y-85623400D01*
X154880821Y-85623400D01*
X154923112Y-85627565D01*
X154923112Y-85627565D01*
G37*
G36*
X139683112Y-85627565D02*
G01*
X139767695Y-85635896D01*
X139930484Y-85685278D01*
X139930487Y-85685279D01*
X140080507Y-85765466D01*
X140080508Y-85765467D01*
X140080512Y-85765469D01*
X140212012Y-85873388D01*
X140319931Y-86004888D01*
X140319933Y-86004892D01*
X140319934Y-86004893D01*
X140400121Y-86154913D01*
X140400122Y-86154916D01*
X140449504Y-86317705D01*
X140466178Y-86487000D01*
X140449504Y-86656295D01*
X140400122Y-86819084D01*
X140400121Y-86819087D01*
X140319934Y-86969107D01*
X140319931Y-86969112D01*
X140212012Y-87100612D01*
X140080512Y-87208531D01*
X140080508Y-87208533D01*
X140080507Y-87208534D01*
X139930487Y-87288721D01*
X139930484Y-87288722D01*
X139767695Y-87338104D01*
X139683112Y-87346435D01*
X139640821Y-87350600D01*
X139251179Y-87350600D01*
X139208888Y-87346435D01*
X139124305Y-87338104D01*
X138961516Y-87288722D01*
X138961513Y-87288721D01*
X138811493Y-87208534D01*
X138811492Y-87208533D01*
X138811488Y-87208531D01*
X138679988Y-87100612D01*
X138572069Y-86969112D01*
X138572066Y-86969107D01*
X138491879Y-86819087D01*
X138491878Y-86819084D01*
X138442496Y-86656295D01*
X138425822Y-86487000D01*
X138442496Y-86317705D01*
X138491878Y-86154916D01*
X138491879Y-86154913D01*
X138572066Y-86004893D01*
X138572067Y-86004892D01*
X138572069Y-86004888D01*
X138679988Y-85873388D01*
X138811488Y-85765469D01*
X138811492Y-85765467D01*
X138811493Y-85765466D01*
X138961513Y-85685279D01*
X138961516Y-85685278D01*
X139124305Y-85635896D01*
X139208888Y-85627565D01*
X139251179Y-85623400D01*
X139640821Y-85623400D01*
X139683112Y-85627565D01*
X139683112Y-85627565D01*
G37*
G36*
X145164800Y-87101700D02*
G01*
X143014800Y-87101700D01*
X143014800Y-86151700D01*
X145164800Y-86151700D01*
X145164800Y-87101700D01*
X145164800Y-87101700D01*
G37*
G36*
X154923112Y-83087565D02*
G01*
X155007695Y-83095896D01*
X155170484Y-83145278D01*
X155170487Y-83145279D01*
X155320507Y-83225466D01*
X155320508Y-83225467D01*
X155320512Y-83225469D01*
X155452012Y-83333388D01*
X155559931Y-83464888D01*
X155559933Y-83464892D01*
X155559934Y-83464893D01*
X155640121Y-83614913D01*
X155640122Y-83614916D01*
X155689504Y-83777705D01*
X155706178Y-83947000D01*
X155689504Y-84116295D01*
X155640122Y-84279084D01*
X155640121Y-84279087D01*
X155559934Y-84429107D01*
X155559931Y-84429112D01*
X155452012Y-84560612D01*
X155320512Y-84668531D01*
X155320508Y-84668533D01*
X155320507Y-84668534D01*
X155170487Y-84748721D01*
X155170484Y-84748722D01*
X155007695Y-84798104D01*
X154923112Y-84806435D01*
X154880821Y-84810600D01*
X154491179Y-84810600D01*
X154448888Y-84806435D01*
X154364305Y-84798104D01*
X154201516Y-84748722D01*
X154201513Y-84748721D01*
X154051493Y-84668534D01*
X154051492Y-84668533D01*
X154051488Y-84668531D01*
X153919988Y-84560612D01*
X153812069Y-84429112D01*
X153812066Y-84429107D01*
X153731879Y-84279087D01*
X153731878Y-84279084D01*
X153682496Y-84116295D01*
X153665822Y-83947000D01*
X153682496Y-83777705D01*
X153731878Y-83614916D01*
X153731879Y-83614913D01*
X153812066Y-83464893D01*
X153812067Y-83464892D01*
X153812069Y-83464888D01*
X153919988Y-83333388D01*
X154051488Y-83225469D01*
X154051492Y-83225467D01*
X154051493Y-83225466D01*
X154201513Y-83145279D01*
X154201516Y-83145278D01*
X154364305Y-83095896D01*
X154448888Y-83087565D01*
X154491179Y-83083400D01*
X154880821Y-83083400D01*
X154923112Y-83087565D01*
X154923112Y-83087565D01*
G37*
G36*
X139683112Y-83087565D02*
G01*
X139767695Y-83095896D01*
X139930484Y-83145278D01*
X139930487Y-83145279D01*
X140080507Y-83225466D01*
X140080508Y-83225467D01*
X140080512Y-83225469D01*
X140212012Y-83333388D01*
X140319931Y-83464888D01*
X140319933Y-83464892D01*
X140319934Y-83464893D01*
X140400121Y-83614913D01*
X140400122Y-83614916D01*
X140449504Y-83777705D01*
X140466178Y-83947000D01*
X140449504Y-84116295D01*
X140400122Y-84279084D01*
X140400121Y-84279087D01*
X140319934Y-84429107D01*
X140319931Y-84429112D01*
X140212012Y-84560612D01*
X140080512Y-84668531D01*
X140080508Y-84668533D01*
X140080507Y-84668534D01*
X139930487Y-84748721D01*
X139930484Y-84748722D01*
X139767695Y-84798104D01*
X139683112Y-84806435D01*
X139640821Y-84810600D01*
X139251179Y-84810600D01*
X139208888Y-84806435D01*
X139124305Y-84798104D01*
X138961516Y-84748722D01*
X138961513Y-84748721D01*
X138811493Y-84668534D01*
X138811492Y-84668533D01*
X138811488Y-84668531D01*
X138679988Y-84560612D01*
X138572069Y-84429112D01*
X138572066Y-84429107D01*
X138491879Y-84279087D01*
X138491878Y-84279084D01*
X138442496Y-84116295D01*
X138425822Y-83947000D01*
X138442496Y-83777705D01*
X138491878Y-83614916D01*
X138491879Y-83614913D01*
X138572066Y-83464893D01*
X138572067Y-83464892D01*
X138572069Y-83464888D01*
X138679988Y-83333388D01*
X138811488Y-83225469D01*
X138811492Y-83225467D01*
X138811493Y-83225466D01*
X138961513Y-83145279D01*
X138961516Y-83145278D01*
X139124305Y-83095896D01*
X139208888Y-83087565D01*
X139251179Y-83083400D01*
X139640821Y-83083400D01*
X139683112Y-83087565D01*
X139683112Y-83087565D01*
G37*
G36*
X145164800Y-84801700D02*
G01*
X143014800Y-84801700D01*
X143014800Y-83851700D01*
X145164800Y-83851700D01*
X145164800Y-84801700D01*
X145164800Y-84801700D01*
G37*
G36*
X144285080Y-82915920D02*
G01*
X142785080Y-82915920D01*
X142785080Y-81665920D01*
X144285080Y-81665920D01*
X144285080Y-82915920D01*
X144285080Y-82915920D01*
G37*
G36*
X146785080Y-82915920D02*
G01*
X145285080Y-82915920D01*
X145285080Y-81665920D01*
X146785080Y-81665920D01*
X146785080Y-82915920D01*
X146785080Y-82915920D01*
G37*
G36*
X151650280Y-82911080D02*
G01*
X150740280Y-82911080D01*
X150740280Y-81691080D01*
X151650280Y-81691080D01*
X151650280Y-82911080D01*
X151650280Y-82911080D01*
G37*
G36*
X148380280Y-82911080D02*
G01*
X147470280Y-82911080D01*
X147470280Y-81691080D01*
X148380280Y-81691080D01*
X148380280Y-82911080D01*
X148380280Y-82911080D01*
G37*
G36*
X139683112Y-80547565D02*
G01*
X139767695Y-80555896D01*
X139930484Y-80605278D01*
X139930487Y-80605279D01*
X140080507Y-80685466D01*
X140080508Y-80685467D01*
X140080512Y-80685469D01*
X140212012Y-80793388D01*
X140319931Y-80924888D01*
X140319933Y-80924892D01*
X140319934Y-80924893D01*
X140400121Y-81074913D01*
X140400122Y-81074916D01*
X140449504Y-81237705D01*
X140466178Y-81407000D01*
X140449504Y-81576295D01*
X140422316Y-81665920D01*
X140400121Y-81739087D01*
X140319934Y-81889107D01*
X140319931Y-81889112D01*
X140212012Y-82020612D01*
X140080512Y-82128531D01*
X140080508Y-82128533D01*
X140080507Y-82128534D01*
X139930487Y-82208721D01*
X139930484Y-82208722D01*
X139767695Y-82258104D01*
X139683112Y-82266435D01*
X139640821Y-82270600D01*
X139251179Y-82270600D01*
X139208888Y-82266435D01*
X139124305Y-82258104D01*
X138961516Y-82208722D01*
X138961513Y-82208721D01*
X138811493Y-82128534D01*
X138811492Y-82128533D01*
X138811488Y-82128531D01*
X138679988Y-82020612D01*
X138572069Y-81889112D01*
X138572066Y-81889107D01*
X138491879Y-81739087D01*
X138469684Y-81665920D01*
X138442496Y-81576295D01*
X138425822Y-81407000D01*
X138442496Y-81237705D01*
X138491878Y-81074916D01*
X138491879Y-81074913D01*
X138572066Y-80924893D01*
X138572067Y-80924892D01*
X138572069Y-80924888D01*
X138679988Y-80793388D01*
X138811488Y-80685469D01*
X138811492Y-80685467D01*
X138811493Y-80685466D01*
X138961513Y-80605279D01*
X138961516Y-80605278D01*
X139124305Y-80555896D01*
X139208888Y-80547565D01*
X139251179Y-80543400D01*
X139640821Y-80543400D01*
X139683112Y-80547565D01*
X139683112Y-80547565D01*
G37*
G36*
X154923112Y-80547565D02*
G01*
X155007695Y-80555896D01*
X155170484Y-80605278D01*
X155170487Y-80605279D01*
X155320507Y-80685466D01*
X155320508Y-80685467D01*
X155320512Y-80685469D01*
X155452012Y-80793388D01*
X155559931Y-80924888D01*
X155559933Y-80924892D01*
X155559934Y-80924893D01*
X155640121Y-81074913D01*
X155640122Y-81074916D01*
X155689504Y-81237705D01*
X155706178Y-81407000D01*
X155689504Y-81576295D01*
X155662316Y-81665920D01*
X155640121Y-81739087D01*
X155559934Y-81889107D01*
X155559931Y-81889112D01*
X155452012Y-82020612D01*
X155320512Y-82128531D01*
X155320508Y-82128533D01*
X155320507Y-82128534D01*
X155170487Y-82208721D01*
X155170484Y-82208722D01*
X155007695Y-82258104D01*
X154923112Y-82266435D01*
X154880821Y-82270600D01*
X154491179Y-82270600D01*
X154448888Y-82266435D01*
X154364305Y-82258104D01*
X154201516Y-82208722D01*
X154201513Y-82208721D01*
X154051493Y-82128534D01*
X154051492Y-82128533D01*
X154051488Y-82128531D01*
X153919988Y-82020612D01*
X153812069Y-81889112D01*
X153812066Y-81889107D01*
X153731879Y-81739087D01*
X153709684Y-81665920D01*
X153682496Y-81576295D01*
X153665822Y-81407000D01*
X153682496Y-81237705D01*
X153731878Y-81074916D01*
X153731879Y-81074913D01*
X153812066Y-80924893D01*
X153812067Y-80924892D01*
X153812069Y-80924888D01*
X153919988Y-80793388D01*
X154051488Y-80685469D01*
X154051492Y-80685467D01*
X154051493Y-80685466D01*
X154201513Y-80605279D01*
X154201516Y-80605278D01*
X154364305Y-80555896D01*
X154448888Y-80547565D01*
X154491179Y-80543400D01*
X154880821Y-80543400D01*
X154923112Y-80547565D01*
X154923112Y-80547565D01*
G37*
G36*
X145344460Y-80678100D02*
G01*
X143194460Y-80678100D01*
X143194460Y-79728100D01*
X145344460Y-79728100D01*
X145344460Y-80678100D01*
X145344460Y-80678100D01*
G37*
G36*
X154923112Y-78007565D02*
G01*
X155007695Y-78015896D01*
X155170484Y-78065278D01*
X155170487Y-78065279D01*
X155320507Y-78145466D01*
X155320508Y-78145467D01*
X155320512Y-78145469D01*
X155452012Y-78253388D01*
X155559931Y-78384888D01*
X155559933Y-78384892D01*
X155559934Y-78384893D01*
X155640121Y-78534913D01*
X155640122Y-78534916D01*
X155689504Y-78697705D01*
X155706178Y-78867000D01*
X155689504Y-79036295D01*
X155640122Y-79199084D01*
X155640121Y-79199087D01*
X155559934Y-79349107D01*
X155559931Y-79349112D01*
X155452012Y-79480612D01*
X155320512Y-79588531D01*
X155320508Y-79588533D01*
X155320507Y-79588534D01*
X155170487Y-79668721D01*
X155170484Y-79668722D01*
X155007695Y-79718104D01*
X154923112Y-79726435D01*
X154880821Y-79730600D01*
X154491179Y-79730600D01*
X154448888Y-79726435D01*
X154364305Y-79718104D01*
X154201516Y-79668722D01*
X154201513Y-79668721D01*
X154051493Y-79588534D01*
X154051492Y-79588533D01*
X154051488Y-79588531D01*
X153919988Y-79480612D01*
X153812069Y-79349112D01*
X153812066Y-79349107D01*
X153731879Y-79199087D01*
X153731878Y-79199084D01*
X153682496Y-79036295D01*
X153665822Y-78867000D01*
X153682496Y-78697705D01*
X153731878Y-78534916D01*
X153731879Y-78534913D01*
X153812066Y-78384893D01*
X153812067Y-78384892D01*
X153812069Y-78384888D01*
X153919988Y-78253388D01*
X154051488Y-78145469D01*
X154051492Y-78145467D01*
X154051493Y-78145466D01*
X154201513Y-78065279D01*
X154201516Y-78065278D01*
X154364305Y-78015896D01*
X154448888Y-78007565D01*
X154491179Y-78003400D01*
X154880821Y-78003400D01*
X154923112Y-78007565D01*
X154923112Y-78007565D01*
G37*
G36*
X139683112Y-78007565D02*
G01*
X139767695Y-78015896D01*
X139930484Y-78065278D01*
X139930487Y-78065279D01*
X140080507Y-78145466D01*
X140080508Y-78145467D01*
X140080512Y-78145469D01*
X140212012Y-78253388D01*
X140319931Y-78384888D01*
X140319933Y-78384892D01*
X140319934Y-78384893D01*
X140400121Y-78534913D01*
X140400122Y-78534916D01*
X140449504Y-78697705D01*
X140466178Y-78867000D01*
X140449504Y-79036295D01*
X140400122Y-79199084D01*
X140400121Y-79199087D01*
X140319934Y-79349107D01*
X140319931Y-79349112D01*
X140212012Y-79480612D01*
X140080512Y-79588531D01*
X140080508Y-79588533D01*
X140080507Y-79588534D01*
X139930487Y-79668721D01*
X139930484Y-79668722D01*
X139767695Y-79718104D01*
X139683112Y-79726435D01*
X139640821Y-79730600D01*
X139251179Y-79730600D01*
X139208888Y-79726435D01*
X139124305Y-79718104D01*
X138961516Y-79668722D01*
X138961513Y-79668721D01*
X138811493Y-79588534D01*
X138811492Y-79588533D01*
X138811488Y-79588531D01*
X138679988Y-79480612D01*
X138572069Y-79349112D01*
X138572066Y-79349107D01*
X138491879Y-79199087D01*
X138491878Y-79199084D01*
X138442496Y-79036295D01*
X138425822Y-78867000D01*
X138442496Y-78697705D01*
X138491878Y-78534916D01*
X138491879Y-78534913D01*
X138572066Y-78384893D01*
X138572067Y-78384892D01*
X138572069Y-78384888D01*
X138679988Y-78253388D01*
X138811488Y-78145469D01*
X138811492Y-78145467D01*
X138811493Y-78145466D01*
X138961513Y-78065279D01*
X138961516Y-78065278D01*
X139124305Y-78015896D01*
X139208888Y-78007565D01*
X139251179Y-78003400D01*
X139640821Y-78003400D01*
X139683112Y-78007565D01*
X139683112Y-78007565D01*
G37*
G36*
X151144460Y-79528100D02*
G01*
X148994460Y-79528100D01*
X148994460Y-76278100D01*
X151144460Y-76278100D01*
X151144460Y-79528100D01*
X151144460Y-79528100D01*
G37*
G36*
X145344460Y-78378100D02*
G01*
X143194460Y-78378100D01*
X143194460Y-77428100D01*
X145344460Y-77428100D01*
X145344460Y-78378100D01*
X145344460Y-78378100D01*
G37*
G36*
X154923112Y-75467565D02*
G01*
X155007695Y-75475896D01*
X155170484Y-75525278D01*
X155170487Y-75525279D01*
X155320507Y-75605466D01*
X155320508Y-75605467D01*
X155320512Y-75605469D01*
X155452012Y-75713388D01*
X155559931Y-75844888D01*
X155559933Y-75844892D01*
X155559934Y-75844893D01*
X155640121Y-75994913D01*
X155640122Y-75994916D01*
X155689504Y-76157705D01*
X155706178Y-76327000D01*
X155689504Y-76496295D01*
X155640122Y-76659084D01*
X155640121Y-76659087D01*
X155559934Y-76809107D01*
X155559931Y-76809112D01*
X155452012Y-76940612D01*
X155320512Y-77048531D01*
X155320508Y-77048533D01*
X155320507Y-77048534D01*
X155170487Y-77128721D01*
X155170484Y-77128722D01*
X155007695Y-77178104D01*
X154923112Y-77186435D01*
X154880821Y-77190600D01*
X154491179Y-77190600D01*
X154448888Y-77186435D01*
X154364305Y-77178104D01*
X154201516Y-77128722D01*
X154201513Y-77128721D01*
X154051493Y-77048534D01*
X154051492Y-77048533D01*
X154051488Y-77048531D01*
X153919988Y-76940612D01*
X153812069Y-76809112D01*
X153812066Y-76809107D01*
X153731879Y-76659087D01*
X153731878Y-76659084D01*
X153682496Y-76496295D01*
X153665822Y-76327000D01*
X153682496Y-76157705D01*
X153731878Y-75994916D01*
X153731879Y-75994913D01*
X153812066Y-75844893D01*
X153812067Y-75844892D01*
X153812069Y-75844888D01*
X153919988Y-75713388D01*
X154051488Y-75605469D01*
X154051492Y-75605467D01*
X154051493Y-75605466D01*
X154201513Y-75525279D01*
X154201516Y-75525278D01*
X154364305Y-75475896D01*
X154448888Y-75467565D01*
X154491179Y-75463400D01*
X154880821Y-75463400D01*
X154923112Y-75467565D01*
X154923112Y-75467565D01*
G37*
G36*
X139683112Y-75467565D02*
G01*
X139767695Y-75475896D01*
X139930484Y-75525278D01*
X139930487Y-75525279D01*
X140080507Y-75605466D01*
X140080508Y-75605467D01*
X140080512Y-75605469D01*
X140212012Y-75713388D01*
X140319931Y-75844888D01*
X140319933Y-75844892D01*
X140319934Y-75844893D01*
X140400121Y-75994913D01*
X140400122Y-75994916D01*
X140449504Y-76157705D01*
X140466178Y-76327000D01*
X140449504Y-76496295D01*
X140400122Y-76659084D01*
X140400121Y-76659087D01*
X140319934Y-76809107D01*
X140319931Y-76809112D01*
X140212012Y-76940612D01*
X140080512Y-77048531D01*
X140080508Y-77048533D01*
X140080507Y-77048534D01*
X139930487Y-77128721D01*
X139930484Y-77128722D01*
X139767695Y-77178104D01*
X139683112Y-77186435D01*
X139640821Y-77190600D01*
X139251179Y-77190600D01*
X139208888Y-77186435D01*
X139124305Y-77178104D01*
X138961516Y-77128722D01*
X138961513Y-77128721D01*
X138811493Y-77048534D01*
X138811492Y-77048533D01*
X138811488Y-77048531D01*
X138679988Y-76940612D01*
X138572069Y-76809112D01*
X138572066Y-76809107D01*
X138491879Y-76659087D01*
X138491878Y-76659084D01*
X138442496Y-76496295D01*
X138425822Y-76327000D01*
X138442496Y-76157705D01*
X138491878Y-75994916D01*
X138491879Y-75994913D01*
X138572066Y-75844893D01*
X138572067Y-75844892D01*
X138572069Y-75844888D01*
X138679988Y-75713388D01*
X138811488Y-75605469D01*
X138811492Y-75605467D01*
X138811493Y-75605466D01*
X138961513Y-75525279D01*
X138961516Y-75525278D01*
X139124305Y-75475896D01*
X139208888Y-75467565D01*
X139251179Y-75463400D01*
X139640821Y-75463400D01*
X139683112Y-75467565D01*
X139683112Y-75467565D01*
G37*
G36*
X145344460Y-76078100D02*
G01*
X143194460Y-76078100D01*
X143194460Y-75128100D01*
X145344460Y-75128100D01*
X145344460Y-76078100D01*
X145344460Y-76078100D01*
G37*
G36*
X139683112Y-72927565D02*
G01*
X139767695Y-72935896D01*
X139930484Y-72985278D01*
X139930487Y-72985279D01*
X140080507Y-73065466D01*
X140080508Y-73065467D01*
X140080512Y-73065469D01*
X140212012Y-73173388D01*
X140319931Y-73304888D01*
X140319933Y-73304892D01*
X140319934Y-73304893D01*
X140400121Y-73454913D01*
X140400122Y-73454916D01*
X140449504Y-73617705D01*
X140466178Y-73787000D01*
X140449504Y-73956295D01*
X140400122Y-74119084D01*
X140400121Y-74119087D01*
X140319934Y-74269107D01*
X140319931Y-74269112D01*
X140212012Y-74400612D01*
X140080512Y-74508531D01*
X140080508Y-74508533D01*
X140080507Y-74508534D01*
X139930487Y-74588721D01*
X139930484Y-74588722D01*
X139767695Y-74638104D01*
X139683112Y-74646435D01*
X139640821Y-74650600D01*
X139251179Y-74650600D01*
X139208888Y-74646435D01*
X139124305Y-74638104D01*
X138961516Y-74588722D01*
X138961513Y-74588721D01*
X138811493Y-74508534D01*
X138811492Y-74508533D01*
X138811488Y-74508531D01*
X138679988Y-74400612D01*
X138572069Y-74269112D01*
X138572066Y-74269107D01*
X138491879Y-74119087D01*
X138491878Y-74119084D01*
X138442496Y-73956295D01*
X138425822Y-73787000D01*
X138442496Y-73617705D01*
X138491878Y-73454916D01*
X138491879Y-73454913D01*
X138572066Y-73304893D01*
X138572067Y-73304892D01*
X138572069Y-73304888D01*
X138679988Y-73173388D01*
X138811488Y-73065469D01*
X138811492Y-73065467D01*
X138811493Y-73065466D01*
X138961513Y-72985279D01*
X138961516Y-72985278D01*
X139124305Y-72935896D01*
X139208888Y-72927565D01*
X139251179Y-72923400D01*
X139640821Y-72923400D01*
X139683112Y-72927565D01*
X139683112Y-72927565D01*
G37*
G36*
X154923112Y-72927565D02*
G01*
X155007695Y-72935896D01*
X155170484Y-72985278D01*
X155170487Y-72985279D01*
X155320507Y-73065466D01*
X155320508Y-73065467D01*
X155320512Y-73065469D01*
X155452012Y-73173388D01*
X155559931Y-73304888D01*
X155559933Y-73304892D01*
X155559934Y-73304893D01*
X155640121Y-73454913D01*
X155640122Y-73454916D01*
X155689504Y-73617705D01*
X155706178Y-73787000D01*
X155689504Y-73956295D01*
X155640122Y-74119084D01*
X155640121Y-74119087D01*
X155559934Y-74269107D01*
X155559931Y-74269112D01*
X155452012Y-74400612D01*
X155320512Y-74508531D01*
X155320508Y-74508533D01*
X155320507Y-74508534D01*
X155170487Y-74588721D01*
X155170484Y-74588722D01*
X155007695Y-74638104D01*
X154923112Y-74646435D01*
X154880821Y-74650600D01*
X154491179Y-74650600D01*
X154448888Y-74646435D01*
X154364305Y-74638104D01*
X154201516Y-74588722D01*
X154201513Y-74588721D01*
X154051493Y-74508534D01*
X154051492Y-74508533D01*
X154051488Y-74508531D01*
X153919988Y-74400612D01*
X153812069Y-74269112D01*
X153812066Y-74269107D01*
X153731879Y-74119087D01*
X153731878Y-74119084D01*
X153682496Y-73956295D01*
X153665822Y-73787000D01*
X153682496Y-73617705D01*
X153731878Y-73454916D01*
X153731879Y-73454913D01*
X153812066Y-73304893D01*
X153812067Y-73304892D01*
X153812069Y-73304888D01*
X153919988Y-73173388D01*
X154051488Y-73065469D01*
X154051492Y-73065467D01*
X154051493Y-73065466D01*
X154201513Y-72985279D01*
X154201516Y-72985278D01*
X154364305Y-72935896D01*
X154448888Y-72927565D01*
X154491179Y-72923400D01*
X154880821Y-72923400D01*
X154923112Y-72927565D01*
X154923112Y-72927565D01*
G37*
G36*
X144082200Y-74224040D02*
G01*
X142582200Y-74224040D01*
X142582200Y-72974040D01*
X144082200Y-72974040D01*
X144082200Y-74224040D01*
X144082200Y-74224040D01*
G37*
G36*
X146582200Y-74224040D02*
G01*
X145082200Y-74224040D01*
X145082200Y-72974040D01*
X146582200Y-72974040D01*
X146582200Y-74224040D01*
X146582200Y-74224040D01*
G37*
G36*
X148694200Y-74168160D02*
G01*
X147194200Y-74168160D01*
X147194200Y-72918160D01*
X148694200Y-72918160D01*
X148694200Y-74168160D01*
X148694200Y-74168160D01*
G37*
G36*
X151194200Y-74168160D02*
G01*
X149694200Y-74168160D01*
X149694200Y-72918160D01*
X151194200Y-72918160D01*
X151194200Y-74168160D01*
X151194200Y-74168160D01*
G37*
G36*
X155702000Y-72110600D02*
G01*
X153670000Y-72110600D01*
X153670000Y-70383400D01*
X155702000Y-70383400D01*
X155702000Y-72110600D01*
X155702000Y-72110600D01*
G37*
G36*
X140462000Y-72110600D02*
G01*
X138430000Y-72110600D01*
X138430000Y-70383400D01*
X140462000Y-70383400D01*
X140462000Y-72110600D01*
X140462000Y-72110600D01*
G37*
G36*
X144604712Y-70380565D02*
G01*
X144689295Y-70388896D01*
X144852084Y-70438278D01*
X144852087Y-70438279D01*
X145002107Y-70518466D01*
X145002108Y-70518467D01*
X145002112Y-70518469D01*
X145133612Y-70626388D01*
X145241531Y-70757888D01*
X145241533Y-70757892D01*
X145241534Y-70757893D01*
X145321721Y-70907913D01*
X145321722Y-70907916D01*
X145371104Y-71070705D01*
X145387778Y-71240000D01*
X145371104Y-71409295D01*
X145321722Y-71572084D01*
X145321721Y-71572087D01*
X145241534Y-71722107D01*
X145241531Y-71722112D01*
X145133612Y-71853612D01*
X145002112Y-71961531D01*
X145002108Y-71961533D01*
X145002107Y-71961534D01*
X144852087Y-72041721D01*
X144852084Y-72041722D01*
X144689295Y-72091104D01*
X144604712Y-72099435D01*
X144562421Y-72103600D01*
X144477579Y-72103600D01*
X144435288Y-72099435D01*
X144350705Y-72091104D01*
X144187916Y-72041722D01*
X144187913Y-72041721D01*
X144037893Y-71961534D01*
X144037892Y-71961533D01*
X144037888Y-71961531D01*
X143906388Y-71853612D01*
X143798469Y-71722112D01*
X143798466Y-71722107D01*
X143718279Y-71572087D01*
X143718278Y-71572084D01*
X143668896Y-71409295D01*
X143652222Y-71240000D01*
X143668896Y-71070705D01*
X143718278Y-70907916D01*
X143718279Y-70907913D01*
X143798466Y-70757893D01*
X143798467Y-70757892D01*
X143798469Y-70757888D01*
X143906388Y-70626388D01*
X144037888Y-70518469D01*
X144037892Y-70518467D01*
X144037893Y-70518466D01*
X144187913Y-70438279D01*
X144187916Y-70438278D01*
X144350705Y-70388896D01*
X144435288Y-70380565D01*
X144477579Y-70376400D01*
X144562421Y-70376400D01*
X144604712Y-70380565D01*
X144604712Y-70380565D01*
G37*
G36*
X149684712Y-70380565D02*
G01*
X149769295Y-70388896D01*
X149932084Y-70438278D01*
X149932087Y-70438279D01*
X150082107Y-70518466D01*
X150082108Y-70518467D01*
X150082112Y-70518469D01*
X150213612Y-70626388D01*
X150321531Y-70757888D01*
X150321533Y-70757892D01*
X150321534Y-70757893D01*
X150401721Y-70907913D01*
X150401722Y-70907916D01*
X150451104Y-71070705D01*
X150467778Y-71240000D01*
X150451104Y-71409295D01*
X150401722Y-71572084D01*
X150401721Y-71572087D01*
X150321534Y-71722107D01*
X150321531Y-71722112D01*
X150213612Y-71853612D01*
X150082112Y-71961531D01*
X150082108Y-71961533D01*
X150082107Y-71961534D01*
X149932087Y-72041721D01*
X149932084Y-72041722D01*
X149769295Y-72091104D01*
X149684712Y-72099435D01*
X149642421Y-72103600D01*
X149557579Y-72103600D01*
X149515288Y-72099435D01*
X149430705Y-72091104D01*
X149267916Y-72041722D01*
X149267913Y-72041721D01*
X149117893Y-71961534D01*
X149117892Y-71961533D01*
X149117888Y-71961531D01*
X148986388Y-71853612D01*
X148878469Y-71722112D01*
X148878466Y-71722107D01*
X148798279Y-71572087D01*
X148798278Y-71572084D01*
X148748896Y-71409295D01*
X148732222Y-71240000D01*
X148748896Y-71070705D01*
X148798278Y-70907916D01*
X148798279Y-70907913D01*
X148878466Y-70757893D01*
X148878467Y-70757892D01*
X148878469Y-70757888D01*
X148986388Y-70626388D01*
X149117888Y-70518469D01*
X149117892Y-70518467D01*
X149117893Y-70518466D01*
X149267913Y-70438279D01*
X149267916Y-70438278D01*
X149430705Y-70388896D01*
X149515288Y-70380565D01*
X149557579Y-70376400D01*
X149642421Y-70376400D01*
X149684712Y-70380565D01*
X149684712Y-70380565D01*
G37*
G36*
X147144712Y-70380565D02*
G01*
X147229295Y-70388896D01*
X147392084Y-70438278D01*
X147392087Y-70438279D01*
X147542107Y-70518466D01*
X147542108Y-70518467D01*
X147542112Y-70518469D01*
X147673612Y-70626388D01*
X147781531Y-70757888D01*
X147781533Y-70757892D01*
X147781534Y-70757893D01*
X147861721Y-70907913D01*
X147861722Y-70907916D01*
X147911104Y-71070705D01*
X147927778Y-71240000D01*
X147911104Y-71409295D01*
X147861722Y-71572084D01*
X147861721Y-71572087D01*
X147781534Y-71722107D01*
X147781531Y-71722112D01*
X147673612Y-71853612D01*
X147542112Y-71961531D01*
X147542108Y-71961533D01*
X147542107Y-71961534D01*
X147392087Y-72041721D01*
X147392084Y-72041722D01*
X147229295Y-72091104D01*
X147144712Y-72099435D01*
X147102421Y-72103600D01*
X147017579Y-72103600D01*
X146975288Y-72099435D01*
X146890705Y-72091104D01*
X146727916Y-72041722D01*
X146727913Y-72041721D01*
X146577893Y-71961534D01*
X146577892Y-71961533D01*
X146577888Y-71961531D01*
X146446388Y-71853612D01*
X146338469Y-71722112D01*
X146338466Y-71722107D01*
X146258279Y-71572087D01*
X146258278Y-71572084D01*
X146208896Y-71409295D01*
X146192222Y-71240000D01*
X146208896Y-71070705D01*
X146258278Y-70907916D01*
X146258279Y-70907913D01*
X146338466Y-70757893D01*
X146338467Y-70757892D01*
X146338469Y-70757888D01*
X146446388Y-70626388D01*
X146577888Y-70518469D01*
X146577892Y-70518467D01*
X146577893Y-70518466D01*
X146727913Y-70438279D01*
X146727916Y-70438278D01*
X146890705Y-70388896D01*
X146975288Y-70380565D01*
X147017579Y-70376400D01*
X147102421Y-70376400D01*
X147144712Y-70380565D01*
X147144712Y-70380565D01*
G37*
G36*
X154933765Y-67461403D02*
G01*
X155056445Y-67485805D01*
X155287571Y-67581541D01*
X155495578Y-67720527D01*
X155672473Y-67897422D01*
X155811459Y-68105429D01*
X155907195Y-68336555D01*
X155956000Y-68581916D01*
X155956000Y-68832084D01*
X155907195Y-69077445D01*
X155811459Y-69308571D01*
X155741495Y-69413279D01*
X155682400Y-69501722D01*
X155672473Y-69516578D01*
X155495578Y-69693473D01*
X155287571Y-69832459D01*
X155056445Y-69928195D01*
X154933765Y-69952597D01*
X154811085Y-69977000D01*
X154560915Y-69977000D01*
X154438235Y-69952597D01*
X154315555Y-69928195D01*
X154084429Y-69832459D01*
X153876422Y-69693473D01*
X153699527Y-69516578D01*
X153689601Y-69501722D01*
X153630505Y-69413279D01*
X153560541Y-69308571D01*
X153464805Y-69077445D01*
X153416000Y-68832084D01*
X153416000Y-68581916D01*
X153464805Y-68336555D01*
X153560541Y-68105429D01*
X153699527Y-67897422D01*
X153876422Y-67720527D01*
X154084429Y-67581541D01*
X154315555Y-67485805D01*
X154438235Y-67461403D01*
X154560915Y-67437000D01*
X154811085Y-67437000D01*
X154933765Y-67461403D01*
X154933765Y-67461403D01*
G37*
G36*
X139693765Y-67461403D02*
G01*
X139816445Y-67485805D01*
X140047571Y-67581541D01*
X140255578Y-67720527D01*
X140432473Y-67897422D01*
X140571459Y-68105429D01*
X140667195Y-68336555D01*
X140716000Y-68581916D01*
X140716000Y-68832084D01*
X140667195Y-69077445D01*
X140571459Y-69308571D01*
X140501495Y-69413279D01*
X140442400Y-69501722D01*
X140432473Y-69516578D01*
X140255578Y-69693473D01*
X140047571Y-69832459D01*
X139816445Y-69928195D01*
X139693765Y-69952597D01*
X139571085Y-69977000D01*
X139320915Y-69977000D01*
X139198235Y-69952597D01*
X139075555Y-69928195D01*
X138844429Y-69832459D01*
X138636422Y-69693473D01*
X138459527Y-69516578D01*
X138449601Y-69501722D01*
X138390505Y-69413279D01*
X138320541Y-69308571D01*
X138224805Y-69077445D01*
X138176000Y-68832084D01*
X138176000Y-68581916D01*
X138224805Y-68336555D01*
X138320541Y-68105429D01*
X138459527Y-67897422D01*
X138636422Y-67720527D01*
X138844429Y-67581541D01*
X139075555Y-67485805D01*
X139198235Y-67461403D01*
X139320915Y-67437000D01*
X139571085Y-67437000D01*
X139693765Y-67461403D01*
X139693765Y-67461403D01*
G37*
G36*
X147144712Y-67840565D02*
G01*
X147229295Y-67848896D01*
X147389262Y-67897422D01*
X147392087Y-67898279D01*
X147542107Y-67978466D01*
X147542108Y-67978467D01*
X147542112Y-67978469D01*
X147673612Y-68086388D01*
X147781531Y-68217888D01*
X147781533Y-68217892D01*
X147781534Y-68217893D01*
X147861721Y-68367913D01*
X147861722Y-68367916D01*
X147911104Y-68530705D01*
X147927778Y-68700000D01*
X147911104Y-68869295D01*
X147861722Y-69032084D01*
X147861721Y-69032087D01*
X147781534Y-69182107D01*
X147781531Y-69182112D01*
X147673612Y-69313612D01*
X147542112Y-69421531D01*
X147542108Y-69421533D01*
X147542107Y-69421534D01*
X147392087Y-69501721D01*
X147392084Y-69501722D01*
X147229295Y-69551104D01*
X147144712Y-69559435D01*
X147102421Y-69563600D01*
X147017579Y-69563600D01*
X146975288Y-69559435D01*
X146890705Y-69551104D01*
X146727916Y-69501722D01*
X146727913Y-69501721D01*
X146577893Y-69421534D01*
X146577892Y-69421533D01*
X146577888Y-69421531D01*
X146446388Y-69313612D01*
X146338469Y-69182112D01*
X146338466Y-69182107D01*
X146258279Y-69032087D01*
X146258278Y-69032084D01*
X146208896Y-68869295D01*
X146192222Y-68700000D01*
X146208896Y-68530705D01*
X146258278Y-68367916D01*
X146258279Y-68367913D01*
X146338466Y-68217893D01*
X146338467Y-68217892D01*
X146338469Y-68217888D01*
X146446388Y-68086388D01*
X146577888Y-67978469D01*
X146577892Y-67978467D01*
X146577893Y-67978466D01*
X146727913Y-67898279D01*
X146730738Y-67897422D01*
X146890705Y-67848896D01*
X146975288Y-67840565D01*
X147017579Y-67836400D01*
X147102421Y-67836400D01*
X147144712Y-67840565D01*
X147144712Y-67840565D01*
G37*
G36*
X144604712Y-67840565D02*
G01*
X144689295Y-67848896D01*
X144849262Y-67897422D01*
X144852087Y-67898279D01*
X145002107Y-67978466D01*
X145002108Y-67978467D01*
X145002112Y-67978469D01*
X145133612Y-68086388D01*
X145241531Y-68217888D01*
X145241533Y-68217892D01*
X145241534Y-68217893D01*
X145321721Y-68367913D01*
X145321722Y-68367916D01*
X145371104Y-68530705D01*
X145387778Y-68700000D01*
X145371104Y-68869295D01*
X145321722Y-69032084D01*
X145321721Y-69032087D01*
X145241534Y-69182107D01*
X145241531Y-69182112D01*
X145133612Y-69313612D01*
X145002112Y-69421531D01*
X145002108Y-69421533D01*
X145002107Y-69421534D01*
X144852087Y-69501721D01*
X144852084Y-69501722D01*
X144689295Y-69551104D01*
X144604712Y-69559435D01*
X144562421Y-69563600D01*
X144477579Y-69563600D01*
X144435288Y-69559435D01*
X144350705Y-69551104D01*
X144187916Y-69501722D01*
X144187913Y-69501721D01*
X144037893Y-69421534D01*
X144037892Y-69421533D01*
X144037888Y-69421531D01*
X143906388Y-69313612D01*
X143798469Y-69182112D01*
X143798466Y-69182107D01*
X143718279Y-69032087D01*
X143718278Y-69032084D01*
X143668896Y-68869295D01*
X143652222Y-68700000D01*
X143668896Y-68530705D01*
X143718278Y-68367916D01*
X143718279Y-68367913D01*
X143798466Y-68217893D01*
X143798467Y-68217892D01*
X143798469Y-68217888D01*
X143906388Y-68086388D01*
X144037888Y-67978469D01*
X144037892Y-67978467D01*
X144037893Y-67978466D01*
X144187913Y-67898279D01*
X144190738Y-67897422D01*
X144350705Y-67848896D01*
X144435288Y-67840565D01*
X144477579Y-67836400D01*
X144562421Y-67836400D01*
X144604712Y-67840565D01*
X144604712Y-67840565D01*
G37*
G36*
X150463600Y-69563600D02*
G01*
X148736400Y-69563600D01*
X148736400Y-67836400D01*
X150463600Y-67836400D01*
X150463600Y-69563600D01*
X150463600Y-69563600D01*
G37*
M02*
