G04 #@! TF.GenerationSoftware,KiCad,Pcbnew,6.0.0-unknown-a40367c~86~ubuntu16.04.1*
G04 #@! TF.CreationDate,2019-05-10T13:23:40+02:00*
G04 #@! TF.ProjectId,arduino_nanoPB,61726475-696e-46f5-9f6e-616e6f50422e,rev?*
G04 #@! TF.SameCoordinates,Original*
G04 #@! TF.FileFunction,Soldermask,Top*
G04 #@! TF.FilePolarity,Negative*
%FSLAX46Y46*%
G04 Gerber Fmt 4.6, Leading zero omitted, Abs format (unit mm)*
G04 Created by KiCad (PCBNEW 6.0.0-unknown-a40367c~86~ubuntu16.04.1) date 2019-05-10 13:23:40*
%MOMM*%
%LPD*%
G04 APERTURE LIST*
%ADD10C,0.100000*%
G04 APERTURE END LIST*
D10*
X143332685Y-79965504D02*
X142951733Y-79965504D01*
X142951733Y-79165504D01*
X145275542Y-79965504D02*
X145008876Y-79584552D01*
X144818400Y-79965504D02*
X144818400Y-79165504D01*
X145123161Y-79165504D01*
X145199352Y-79203600D01*
X145237447Y-79241695D01*
X145275542Y-79317885D01*
X145275542Y-79432171D01*
X145237447Y-79508361D01*
X145199352Y-79546457D01*
X145123161Y-79584552D01*
X144818400Y-79584552D01*
X145542209Y-79165504D02*
X146075542Y-79965504D01*
X146075542Y-79165504D02*
X145542209Y-79965504D01*
X147485066Y-79165504D02*
X147942209Y-79165504D01*
X147713638Y-79965504D02*
X147713638Y-79165504D01*
X148132685Y-79165504D02*
X148666019Y-79965504D01*
X148666019Y-79165504D02*
X148132685Y-79965504D01*
X150342209Y-79165504D02*
X150494590Y-79165504D01*
X150570780Y-79203600D01*
X150646971Y-79279790D01*
X150685066Y-79432171D01*
X150685066Y-79698838D01*
X150646971Y-79851219D01*
X150570780Y-79927409D01*
X150494590Y-79965504D01*
X150342209Y-79965504D01*
X150266019Y-79927409D01*
X150189828Y-79851219D01*
X150151733Y-79698838D01*
X150151733Y-79432171D01*
X150189828Y-79279790D01*
X150266019Y-79203600D01*
X150342209Y-79165504D01*
X151027923Y-79965504D02*
X151027923Y-79165504D01*
X151485066Y-79965504D01*
X151485066Y-79165504D01*
G36*
X154947764Y-110854402D02*
G01*
X155070445Y-110878805D01*
X155301571Y-110974541D01*
X155509578Y-111113527D01*
X155686473Y-111290422D01*
X155825459Y-111498429D01*
X155921195Y-111729555D01*
X155970000Y-111974916D01*
X155970000Y-112225084D01*
X155921195Y-112470445D01*
X155825459Y-112701571D01*
X155686473Y-112909578D01*
X155509578Y-113086473D01*
X155301571Y-113225459D01*
X155070445Y-113321195D01*
X154947764Y-113345598D01*
X154825085Y-113370000D01*
X154574915Y-113370000D01*
X154452236Y-113345598D01*
X154329555Y-113321195D01*
X154098429Y-113225459D01*
X153890422Y-113086473D01*
X153713527Y-112909578D01*
X153574541Y-112701571D01*
X153478805Y-112470445D01*
X153430000Y-112225084D01*
X153430000Y-111974916D01*
X153478805Y-111729555D01*
X153574541Y-111498429D01*
X153713527Y-111290422D01*
X153890422Y-111113527D01*
X154098429Y-110974541D01*
X154329555Y-110878805D01*
X154452236Y-110854402D01*
X154574915Y-110830000D01*
X154825085Y-110830000D01*
X154947764Y-110854402D01*
X154947764Y-110854402D01*
G37*
G36*
X139647764Y-110854402D02*
G01*
X139770445Y-110878805D01*
X140001571Y-110974541D01*
X140209578Y-111113527D01*
X140386473Y-111290422D01*
X140525459Y-111498429D01*
X140621195Y-111729555D01*
X140670000Y-111974916D01*
X140670000Y-112225084D01*
X140621195Y-112470445D01*
X140525459Y-112701571D01*
X140386473Y-112909578D01*
X140209578Y-113086473D01*
X140001571Y-113225459D01*
X139770445Y-113321195D01*
X139647764Y-113345598D01*
X139525085Y-113370000D01*
X139274915Y-113370000D01*
X139152236Y-113345598D01*
X139029555Y-113321195D01*
X138798429Y-113225459D01*
X138590422Y-113086473D01*
X138413527Y-112909578D01*
X138274541Y-112701571D01*
X138178805Y-112470445D01*
X138130000Y-112225084D01*
X138130000Y-111974916D01*
X138178805Y-111729555D01*
X138274541Y-111498429D01*
X138413527Y-111290422D01*
X138590422Y-111113527D01*
X138798429Y-110974541D01*
X139029555Y-110878805D01*
X139152236Y-110854402D01*
X139274915Y-110830000D01*
X139525085Y-110830000D01*
X139647764Y-110854402D01*
X139647764Y-110854402D01*
G37*
G36*
X152946100Y-111970820D02*
G01*
X151747220Y-111970820D01*
X151747220Y-110370620D01*
X152946100Y-110370620D01*
X152946100Y-111970820D01*
X152946100Y-111970820D01*
G37*
G36*
X143597114Y-109769694D02*
G01*
X143691369Y-109798286D01*
X143749030Y-109829107D01*
X143778229Y-109844714D01*
X143854364Y-109907196D01*
X143898200Y-109960611D01*
X143916847Y-109983332D01*
X143963274Y-110070190D01*
X143991866Y-110164445D01*
X143999100Y-110237896D01*
X143999100Y-110837024D01*
X143991866Y-110910475D01*
X143963274Y-111004730D01*
X143916847Y-111091588D01*
X143854364Y-111167724D01*
X143778228Y-111230207D01*
X143691370Y-111276634D01*
X143597115Y-111305226D01*
X143499100Y-111314879D01*
X143401086Y-111305226D01*
X143306831Y-111276634D01*
X143219973Y-111230207D01*
X143143837Y-111167724D01*
X143081355Y-111091590D01*
X143034925Y-111004728D01*
X143006334Y-110910475D01*
X142999100Y-110837024D01*
X142999100Y-110237897D01*
X143006334Y-110164446D01*
X143034926Y-110070191D01*
X143081353Y-109983333D01*
X143081354Y-109983331D01*
X143143836Y-109907196D01*
X143219971Y-109844714D01*
X143219970Y-109844714D01*
X143219972Y-109844713D01*
X143306830Y-109798286D01*
X143401085Y-109769694D01*
X143499100Y-109760041D01*
X143597114Y-109769694D01*
X143597114Y-109769694D01*
G37*
G36*
X150597114Y-109769694D02*
G01*
X150691369Y-109798286D01*
X150749030Y-109829107D01*
X150778229Y-109844714D01*
X150854364Y-109907196D01*
X150898200Y-109960611D01*
X150916847Y-109983332D01*
X150963274Y-110070190D01*
X150991866Y-110164445D01*
X150999100Y-110237896D01*
X150999100Y-110837024D01*
X150991866Y-110910475D01*
X150963274Y-111004730D01*
X150916847Y-111091588D01*
X150854364Y-111167724D01*
X150778228Y-111230207D01*
X150691370Y-111276634D01*
X150597115Y-111305226D01*
X150499100Y-111314879D01*
X150401086Y-111305226D01*
X150306831Y-111276634D01*
X150219973Y-111230207D01*
X150143837Y-111167724D01*
X150081355Y-111091590D01*
X150034925Y-111004728D01*
X150006334Y-110910475D01*
X149999100Y-110837024D01*
X149999100Y-110237897D01*
X150006334Y-110164446D01*
X150034926Y-110070191D01*
X150081353Y-109983333D01*
X150081354Y-109983331D01*
X150143836Y-109907196D01*
X150219971Y-109844714D01*
X150219970Y-109844714D01*
X150219972Y-109844713D01*
X150306830Y-109798286D01*
X150401085Y-109769694D01*
X150499100Y-109760041D01*
X150597114Y-109769694D01*
X150597114Y-109769694D01*
G37*
G36*
X154923112Y-108487565D02*
G01*
X155007695Y-108495896D01*
X155170484Y-108545278D01*
X155170487Y-108545279D01*
X155320507Y-108625466D01*
X155320508Y-108625467D01*
X155320512Y-108625469D01*
X155452012Y-108733388D01*
X155559931Y-108864888D01*
X155559933Y-108864892D01*
X155559934Y-108864893D01*
X155640121Y-109014913D01*
X155640122Y-109014916D01*
X155689504Y-109177705D01*
X155706178Y-109347000D01*
X155689504Y-109516295D01*
X155640122Y-109679084D01*
X155640121Y-109679087D01*
X155576408Y-109798286D01*
X155559931Y-109829112D01*
X155452012Y-109960612D01*
X155320512Y-110068531D01*
X155320508Y-110068533D01*
X155320507Y-110068534D01*
X155170487Y-110148721D01*
X155170484Y-110148722D01*
X155007695Y-110198104D01*
X154923112Y-110206435D01*
X154880821Y-110210600D01*
X154491179Y-110210600D01*
X154448888Y-110206435D01*
X154364305Y-110198104D01*
X154201516Y-110148722D01*
X154201513Y-110148721D01*
X154051493Y-110068534D01*
X154051492Y-110068533D01*
X154051488Y-110068531D01*
X153919988Y-109960612D01*
X153812069Y-109829112D01*
X153795592Y-109798286D01*
X153731879Y-109679087D01*
X153731878Y-109679084D01*
X153682496Y-109516295D01*
X153665822Y-109347000D01*
X153682496Y-109177705D01*
X153731878Y-109014916D01*
X153731879Y-109014913D01*
X153812066Y-108864893D01*
X153812067Y-108864892D01*
X153812069Y-108864888D01*
X153919988Y-108733388D01*
X154051488Y-108625469D01*
X154051492Y-108625467D01*
X154051493Y-108625466D01*
X154201513Y-108545279D01*
X154201516Y-108545278D01*
X154364305Y-108495896D01*
X154448888Y-108487565D01*
X154491179Y-108483400D01*
X154880821Y-108483400D01*
X154923112Y-108487565D01*
X154923112Y-108487565D01*
G37*
G36*
X139683112Y-108487565D02*
G01*
X139767695Y-108495896D01*
X139930484Y-108545278D01*
X139930487Y-108545279D01*
X140080507Y-108625466D01*
X140080508Y-108625467D01*
X140080512Y-108625469D01*
X140212012Y-108733388D01*
X140319931Y-108864888D01*
X140319933Y-108864892D01*
X140319934Y-108864893D01*
X140400121Y-109014913D01*
X140400122Y-109014916D01*
X140449504Y-109177705D01*
X140466178Y-109347000D01*
X140449504Y-109516295D01*
X140400122Y-109679084D01*
X140400121Y-109679087D01*
X140336408Y-109798286D01*
X140319931Y-109829112D01*
X140212012Y-109960612D01*
X140080512Y-110068531D01*
X140080508Y-110068533D01*
X140080507Y-110068534D01*
X139930487Y-110148721D01*
X139930484Y-110148722D01*
X139767695Y-110198104D01*
X139683112Y-110206435D01*
X139640821Y-110210600D01*
X139251179Y-110210600D01*
X139208888Y-110206435D01*
X139124305Y-110198104D01*
X138961516Y-110148722D01*
X138961513Y-110148721D01*
X138811493Y-110068534D01*
X138811492Y-110068533D01*
X138811488Y-110068531D01*
X138679988Y-109960612D01*
X138572069Y-109829112D01*
X138555592Y-109798286D01*
X138491879Y-109679087D01*
X138491878Y-109679084D01*
X138442496Y-109516295D01*
X138425822Y-109347000D01*
X138442496Y-109177705D01*
X138491878Y-109014916D01*
X138491879Y-109014913D01*
X138572066Y-108864893D01*
X138572067Y-108864892D01*
X138572069Y-108864888D01*
X138679988Y-108733388D01*
X138811488Y-108625469D01*
X138811492Y-108625467D01*
X138811493Y-108625466D01*
X138961513Y-108545279D01*
X138961516Y-108545278D01*
X139124305Y-108495896D01*
X139208888Y-108487565D01*
X139251179Y-108483400D01*
X139640821Y-108483400D01*
X139683112Y-108487565D01*
X139683112Y-108487565D01*
G37*
G36*
X145899100Y-108512460D02*
G01*
X145499100Y-108512460D01*
X145499100Y-107162460D01*
X145899100Y-107162460D01*
X145899100Y-108512460D01*
X145899100Y-108512460D01*
G37*
G36*
X146549100Y-108512460D02*
G01*
X146149100Y-108512460D01*
X146149100Y-107162460D01*
X146549100Y-107162460D01*
X146549100Y-108512460D01*
X146549100Y-108512460D01*
G37*
G36*
X147199100Y-108512460D02*
G01*
X146799100Y-108512460D01*
X146799100Y-107162460D01*
X147199100Y-107162460D01*
X147199100Y-108512460D01*
X147199100Y-108512460D01*
G37*
G36*
X147849100Y-108512460D02*
G01*
X147449100Y-108512460D01*
X147449100Y-107162460D01*
X147849100Y-107162460D01*
X147849100Y-108512460D01*
X147849100Y-108512460D01*
G37*
G36*
X148499100Y-108512460D02*
G01*
X148099100Y-108512460D01*
X148099100Y-107162460D01*
X148499100Y-107162460D01*
X148499100Y-108512460D01*
X148499100Y-108512460D01*
G37*
G36*
X152946100Y-108369100D02*
G01*
X151747220Y-108369100D01*
X151747220Y-106768900D01*
X152946100Y-106768900D01*
X152946100Y-108369100D01*
X152946100Y-108369100D01*
G37*
G36*
X144695693Y-107364751D02*
G01*
X144742216Y-107369333D01*
X144808459Y-107389427D01*
X144831758Y-107396495D01*
X144909553Y-107438078D01*
X144914273Y-107440601D01*
X144986601Y-107499959D01*
X145045959Y-107572287D01*
X145045960Y-107572289D01*
X145090065Y-107654802D01*
X145117227Y-107744345D01*
X145126398Y-107837460D01*
X145117227Y-107930575D01*
X145090065Y-108020118D01*
X145048482Y-108097913D01*
X145045959Y-108102633D01*
X144986601Y-108174961D01*
X144914273Y-108234319D01*
X144914271Y-108234320D01*
X144831758Y-108278425D01*
X144808459Y-108285493D01*
X144742216Y-108305587D01*
X144695693Y-108310169D01*
X144672433Y-108312460D01*
X144325767Y-108312460D01*
X144302507Y-108310169D01*
X144255984Y-108305587D01*
X144189741Y-108285493D01*
X144166442Y-108278425D01*
X144083929Y-108234320D01*
X144083927Y-108234319D01*
X144011599Y-108174961D01*
X143952241Y-108102633D01*
X143949718Y-108097913D01*
X143908135Y-108020118D01*
X143880973Y-107930575D01*
X143871802Y-107837460D01*
X143880973Y-107744345D01*
X143908135Y-107654802D01*
X143952240Y-107572289D01*
X143952241Y-107572287D01*
X144011599Y-107499959D01*
X144083927Y-107440601D01*
X144088647Y-107438078D01*
X144166442Y-107396495D01*
X144189741Y-107389427D01*
X144255984Y-107369333D01*
X144302507Y-107364751D01*
X144325767Y-107362460D01*
X144672433Y-107362460D01*
X144695693Y-107364751D01*
X144695693Y-107364751D01*
G37*
G36*
X149695693Y-107364751D02*
G01*
X149742216Y-107369333D01*
X149808459Y-107389427D01*
X149831758Y-107396495D01*
X149909553Y-107438078D01*
X149914273Y-107440601D01*
X149986601Y-107499959D01*
X150045959Y-107572287D01*
X150045960Y-107572289D01*
X150090065Y-107654802D01*
X150117227Y-107744345D01*
X150126398Y-107837460D01*
X150117227Y-107930575D01*
X150090065Y-108020118D01*
X150048482Y-108097913D01*
X150045959Y-108102633D01*
X149986601Y-108174961D01*
X149914273Y-108234319D01*
X149914271Y-108234320D01*
X149831758Y-108278425D01*
X149808459Y-108285493D01*
X149742216Y-108305587D01*
X149695693Y-108310169D01*
X149672433Y-108312460D01*
X149325767Y-108312460D01*
X149302507Y-108310169D01*
X149255984Y-108305587D01*
X149189741Y-108285493D01*
X149166442Y-108278425D01*
X149083929Y-108234320D01*
X149083927Y-108234319D01*
X149011599Y-108174961D01*
X148952241Y-108102633D01*
X148949718Y-108097913D01*
X148908135Y-108020118D01*
X148880973Y-107930575D01*
X148871802Y-107837460D01*
X148880973Y-107744345D01*
X148908135Y-107654802D01*
X148952240Y-107572289D01*
X148952241Y-107572287D01*
X149011599Y-107499959D01*
X149083927Y-107440601D01*
X149088647Y-107438078D01*
X149166442Y-107396495D01*
X149189741Y-107389427D01*
X149255984Y-107369333D01*
X149302507Y-107364751D01*
X149325767Y-107362460D01*
X149672433Y-107362460D01*
X149695693Y-107364751D01*
X149695693Y-107364751D01*
G37*
G36*
X154923112Y-105947565D02*
G01*
X155007695Y-105955896D01*
X155170484Y-106005278D01*
X155170487Y-106005279D01*
X155320507Y-106085466D01*
X155320508Y-106085467D01*
X155320512Y-106085469D01*
X155452012Y-106193388D01*
X155559931Y-106324888D01*
X155559933Y-106324892D01*
X155559934Y-106324893D01*
X155640121Y-106474913D01*
X155640122Y-106474916D01*
X155689504Y-106637705D01*
X155706178Y-106807000D01*
X155689504Y-106976295D01*
X155640122Y-107139084D01*
X155640121Y-107139087D01*
X155559934Y-107289107D01*
X155559931Y-107289112D01*
X155452012Y-107420612D01*
X155320512Y-107528531D01*
X155320508Y-107528533D01*
X155320507Y-107528534D01*
X155170487Y-107608721D01*
X155170484Y-107608722D01*
X155007695Y-107658104D01*
X154923112Y-107666435D01*
X154880821Y-107670600D01*
X154491179Y-107670600D01*
X154448888Y-107666435D01*
X154364305Y-107658104D01*
X154201516Y-107608722D01*
X154201513Y-107608721D01*
X154051493Y-107528534D01*
X154051492Y-107528533D01*
X154051488Y-107528531D01*
X153919988Y-107420612D01*
X153812069Y-107289112D01*
X153812066Y-107289107D01*
X153731879Y-107139087D01*
X153731878Y-107139084D01*
X153682496Y-106976295D01*
X153665822Y-106807000D01*
X153682496Y-106637705D01*
X153731878Y-106474916D01*
X153731879Y-106474913D01*
X153812066Y-106324893D01*
X153812067Y-106324892D01*
X153812069Y-106324888D01*
X153919988Y-106193388D01*
X154051488Y-106085469D01*
X154051492Y-106085467D01*
X154051493Y-106085466D01*
X154201513Y-106005279D01*
X154201516Y-106005278D01*
X154364305Y-105955896D01*
X154448888Y-105947565D01*
X154491179Y-105943400D01*
X154880821Y-105943400D01*
X154923112Y-105947565D01*
X154923112Y-105947565D01*
G37*
G36*
X139683112Y-105947565D02*
G01*
X139767695Y-105955896D01*
X139930484Y-106005278D01*
X139930487Y-106005279D01*
X140080507Y-106085466D01*
X140080508Y-106085467D01*
X140080512Y-106085469D01*
X140212012Y-106193388D01*
X140319931Y-106324888D01*
X140319933Y-106324892D01*
X140319934Y-106324893D01*
X140400121Y-106474913D01*
X140400122Y-106474916D01*
X140449504Y-106637705D01*
X140466178Y-106807000D01*
X140449504Y-106976295D01*
X140400122Y-107139084D01*
X140400121Y-107139087D01*
X140319934Y-107289107D01*
X140319931Y-107289112D01*
X140212012Y-107420612D01*
X140080512Y-107528531D01*
X140080508Y-107528533D01*
X140080507Y-107528534D01*
X139930487Y-107608721D01*
X139930484Y-107608722D01*
X139767695Y-107658104D01*
X139683112Y-107666435D01*
X139640821Y-107670600D01*
X139251179Y-107670600D01*
X139208888Y-107666435D01*
X139124305Y-107658104D01*
X138961516Y-107608722D01*
X138961513Y-107608721D01*
X138811493Y-107528534D01*
X138811492Y-107528533D01*
X138811488Y-107528531D01*
X138679988Y-107420612D01*
X138572069Y-107289112D01*
X138572066Y-107289107D01*
X138491879Y-107139087D01*
X138491878Y-107139084D01*
X138442496Y-106976295D01*
X138425822Y-106807000D01*
X138442496Y-106637705D01*
X138491878Y-106474916D01*
X138491879Y-106474913D01*
X138572066Y-106324893D01*
X138572067Y-106324892D01*
X138572069Y-106324888D01*
X138679988Y-106193388D01*
X138811488Y-106085469D01*
X138811492Y-106085467D01*
X138811493Y-106085466D01*
X138961513Y-106005279D01*
X138961516Y-106005278D01*
X139124305Y-105955896D01*
X139208888Y-105947565D01*
X139251179Y-105943400D01*
X139640821Y-105943400D01*
X139683112Y-105947565D01*
X139683112Y-105947565D01*
G37*
G36*
X154923112Y-103407565D02*
G01*
X155007695Y-103415896D01*
X155170484Y-103465278D01*
X155170487Y-103465279D01*
X155320507Y-103545466D01*
X155320508Y-103545467D01*
X155320512Y-103545469D01*
X155452012Y-103653388D01*
X155559931Y-103784888D01*
X155559933Y-103784892D01*
X155559934Y-103784893D01*
X155640121Y-103934913D01*
X155640122Y-103934916D01*
X155689504Y-104097705D01*
X155706178Y-104267000D01*
X155689504Y-104436295D01*
X155640122Y-104599084D01*
X155640121Y-104599087D01*
X155559934Y-104749107D01*
X155559931Y-104749112D01*
X155452012Y-104880612D01*
X155320512Y-104988531D01*
X155320508Y-104988533D01*
X155320507Y-104988534D01*
X155170487Y-105068721D01*
X155170484Y-105068722D01*
X155007695Y-105118104D01*
X154923112Y-105126435D01*
X154880821Y-105130600D01*
X154491179Y-105130600D01*
X154448888Y-105126435D01*
X154364305Y-105118104D01*
X154201516Y-105068722D01*
X154201513Y-105068721D01*
X154051493Y-104988534D01*
X154051492Y-104988533D01*
X154051488Y-104988531D01*
X153919988Y-104880612D01*
X153812069Y-104749112D01*
X153812066Y-104749107D01*
X153731879Y-104599087D01*
X153731878Y-104599084D01*
X153682496Y-104436295D01*
X153665822Y-104267000D01*
X153682496Y-104097705D01*
X153731878Y-103934916D01*
X153731879Y-103934913D01*
X153812066Y-103784893D01*
X153812067Y-103784892D01*
X153812069Y-103784888D01*
X153919988Y-103653388D01*
X154051488Y-103545469D01*
X154051492Y-103545467D01*
X154051493Y-103545466D01*
X154201513Y-103465279D01*
X154201516Y-103465278D01*
X154364305Y-103415896D01*
X154448888Y-103407565D01*
X154491179Y-103403400D01*
X154880821Y-103403400D01*
X154923112Y-103407565D01*
X154923112Y-103407565D01*
G37*
G36*
X139683112Y-103407565D02*
G01*
X139767695Y-103415896D01*
X139930484Y-103465278D01*
X139930487Y-103465279D01*
X140080507Y-103545466D01*
X140080508Y-103545467D01*
X140080512Y-103545469D01*
X140212012Y-103653388D01*
X140319931Y-103784888D01*
X140319933Y-103784892D01*
X140319934Y-103784893D01*
X140400121Y-103934913D01*
X140400122Y-103934916D01*
X140449504Y-104097705D01*
X140466178Y-104267000D01*
X140449504Y-104436295D01*
X140400122Y-104599084D01*
X140400121Y-104599087D01*
X140319934Y-104749107D01*
X140319931Y-104749112D01*
X140212012Y-104880612D01*
X140080512Y-104988531D01*
X140080508Y-104988533D01*
X140080507Y-104988534D01*
X139930487Y-105068721D01*
X139930484Y-105068722D01*
X139767695Y-105118104D01*
X139683112Y-105126435D01*
X139640821Y-105130600D01*
X139251179Y-105130600D01*
X139208888Y-105126435D01*
X139124305Y-105118104D01*
X138961516Y-105068722D01*
X138961513Y-105068721D01*
X138811493Y-104988534D01*
X138811492Y-104988533D01*
X138811488Y-104988531D01*
X138679988Y-104880612D01*
X138572069Y-104749112D01*
X138572066Y-104749107D01*
X138491879Y-104599087D01*
X138491878Y-104599084D01*
X138442496Y-104436295D01*
X138425822Y-104267000D01*
X138442496Y-104097705D01*
X138491878Y-103934916D01*
X138491879Y-103934913D01*
X138572066Y-103784893D01*
X138572067Y-103784892D01*
X138572069Y-103784888D01*
X138679988Y-103653388D01*
X138811488Y-103545469D01*
X138811492Y-103545467D01*
X138811493Y-103545466D01*
X138961513Y-103465279D01*
X138961516Y-103465278D01*
X139124305Y-103415896D01*
X139208888Y-103407565D01*
X139251179Y-103403400D01*
X139640821Y-103403400D01*
X139683112Y-103407565D01*
X139683112Y-103407565D01*
G37*
G36*
X149542500Y-104976930D02*
G01*
X147393660Y-104976930D01*
X147393660Y-103475790D01*
X149542500Y-103475790D01*
X149542500Y-104976930D01*
X149542500Y-104976930D01*
G37*
G36*
X152544780Y-104976930D02*
G01*
X150395940Y-104976930D01*
X150395940Y-103475790D01*
X152544780Y-103475790D01*
X152544780Y-104976930D01*
X152544780Y-104976930D01*
G37*
G36*
X143515800Y-104927160D02*
G01*
X142015800Y-104927160D01*
X142015800Y-103627160D01*
X143515800Y-103627160D01*
X143515800Y-104927160D01*
X143515800Y-104927160D01*
G37*
G36*
X146215800Y-104927160D02*
G01*
X144715800Y-104927160D01*
X144715800Y-103627160D01*
X146215800Y-103627160D01*
X146215800Y-104927160D01*
X146215800Y-104927160D01*
G37*
G36*
X154923112Y-100867565D02*
G01*
X155007695Y-100875896D01*
X155170484Y-100925278D01*
X155170487Y-100925279D01*
X155320507Y-101005466D01*
X155320508Y-101005467D01*
X155320512Y-101005469D01*
X155452012Y-101113388D01*
X155559931Y-101244888D01*
X155559933Y-101244892D01*
X155559934Y-101244893D01*
X155640121Y-101394913D01*
X155640122Y-101394916D01*
X155689504Y-101557705D01*
X155706178Y-101727000D01*
X155689504Y-101896295D01*
X155640122Y-102059084D01*
X155640121Y-102059087D01*
X155559934Y-102209107D01*
X155559931Y-102209112D01*
X155452012Y-102340612D01*
X155320512Y-102448531D01*
X155320508Y-102448533D01*
X155320507Y-102448534D01*
X155170487Y-102528721D01*
X155170484Y-102528722D01*
X155007695Y-102578104D01*
X154923112Y-102586435D01*
X154880821Y-102590600D01*
X154491179Y-102590600D01*
X154448888Y-102586435D01*
X154364305Y-102578104D01*
X154201516Y-102528722D01*
X154201513Y-102528721D01*
X154051493Y-102448534D01*
X154051492Y-102448533D01*
X154051488Y-102448531D01*
X153919988Y-102340612D01*
X153812069Y-102209112D01*
X153812066Y-102209107D01*
X153731879Y-102059087D01*
X153731878Y-102059084D01*
X153682496Y-101896295D01*
X153665822Y-101727000D01*
X153682496Y-101557705D01*
X153731878Y-101394916D01*
X153731879Y-101394913D01*
X153812066Y-101244893D01*
X153812067Y-101244892D01*
X153812069Y-101244888D01*
X153919988Y-101113388D01*
X154051488Y-101005469D01*
X154051492Y-101005467D01*
X154051493Y-101005466D01*
X154201513Y-100925279D01*
X154201516Y-100925278D01*
X154364305Y-100875896D01*
X154448888Y-100867565D01*
X154491179Y-100863400D01*
X154880821Y-100863400D01*
X154923112Y-100867565D01*
X154923112Y-100867565D01*
G37*
G36*
X139683112Y-100867565D02*
G01*
X139767695Y-100875896D01*
X139930484Y-100925278D01*
X139930487Y-100925279D01*
X140080507Y-101005466D01*
X140080508Y-101005467D01*
X140080512Y-101005469D01*
X140212012Y-101113388D01*
X140319931Y-101244888D01*
X140319933Y-101244892D01*
X140319934Y-101244893D01*
X140400121Y-101394913D01*
X140400122Y-101394916D01*
X140449504Y-101557705D01*
X140466178Y-101727000D01*
X140449504Y-101896295D01*
X140400122Y-102059084D01*
X140400121Y-102059087D01*
X140319934Y-102209107D01*
X140319931Y-102209112D01*
X140212012Y-102340612D01*
X140080512Y-102448531D01*
X140080508Y-102448533D01*
X140080507Y-102448534D01*
X139930487Y-102528721D01*
X139930484Y-102528722D01*
X139767695Y-102578104D01*
X139683112Y-102586435D01*
X139640821Y-102590600D01*
X139251179Y-102590600D01*
X139208888Y-102586435D01*
X139124305Y-102578104D01*
X138961516Y-102528722D01*
X138961513Y-102528721D01*
X138811493Y-102448534D01*
X138811492Y-102448533D01*
X138811488Y-102448531D01*
X138679988Y-102340612D01*
X138572069Y-102209112D01*
X138572066Y-102209107D01*
X138491879Y-102059087D01*
X138491878Y-102059084D01*
X138442496Y-101896295D01*
X138425822Y-101727000D01*
X138442496Y-101557705D01*
X138491878Y-101394916D01*
X138491879Y-101394913D01*
X138572066Y-101244893D01*
X138572067Y-101244892D01*
X138572069Y-101244888D01*
X138679988Y-101113388D01*
X138811488Y-101005469D01*
X138811492Y-101005467D01*
X138811493Y-101005466D01*
X138961513Y-100925279D01*
X138961516Y-100925278D01*
X139124305Y-100875896D01*
X139208888Y-100867565D01*
X139251179Y-100863400D01*
X139640821Y-100863400D01*
X139683112Y-100867565D01*
X139683112Y-100867565D01*
G37*
G36*
X147034835Y-100829072D02*
G01*
X145903464Y-101960443D01*
X145514555Y-101571534D01*
X146645926Y-100440163D01*
X147034835Y-100829072D01*
X147034835Y-100829072D01*
G37*
G36*
X149085445Y-101571534D02*
G01*
X148696536Y-101960443D01*
X147565165Y-100829072D01*
X147954074Y-100440163D01*
X149085445Y-101571534D01*
X149085445Y-101571534D01*
G37*
G36*
X149651130Y-101005848D02*
G01*
X149262221Y-101394757D01*
X148130850Y-100263386D01*
X148519759Y-99874477D01*
X149651130Y-101005848D01*
X149651130Y-101005848D01*
G37*
G36*
X146469150Y-100263386D02*
G01*
X145337779Y-101394757D01*
X144948870Y-101005848D01*
X146080241Y-99874477D01*
X146469150Y-100263386D01*
X146469150Y-100263386D01*
G37*
G36*
X150216816Y-100440163D02*
G01*
X149827907Y-100829072D01*
X148696536Y-99697701D01*
X149085445Y-99308792D01*
X150216816Y-100440163D01*
X150216816Y-100440163D01*
G37*
G36*
X145903464Y-99697701D02*
G01*
X144772093Y-100829072D01*
X144383184Y-100440163D01*
X145514555Y-99308792D01*
X145903464Y-99697701D01*
X145903464Y-99697701D01*
G37*
G36*
X150782501Y-99874478D02*
G01*
X150393592Y-100263387D01*
X149262221Y-99132016D01*
X149651130Y-98743107D01*
X150782501Y-99874478D01*
X150782501Y-99874478D01*
G37*
G36*
X145337779Y-99132016D02*
G01*
X144206408Y-100263387D01*
X143817499Y-99874478D01*
X144948870Y-98743107D01*
X145337779Y-99132016D01*
X145337779Y-99132016D01*
G37*
G36*
X154923112Y-98327565D02*
G01*
X155007695Y-98335896D01*
X155170484Y-98385278D01*
X155170487Y-98385279D01*
X155320507Y-98465466D01*
X155320508Y-98465467D01*
X155320512Y-98465469D01*
X155452012Y-98573388D01*
X155559931Y-98704888D01*
X155559933Y-98704892D01*
X155559934Y-98704893D01*
X155640121Y-98854913D01*
X155640122Y-98854916D01*
X155689504Y-99017705D01*
X155706178Y-99187000D01*
X155689504Y-99356295D01*
X155640122Y-99519084D01*
X155640121Y-99519087D01*
X155559934Y-99669107D01*
X155559931Y-99669112D01*
X155452012Y-99800612D01*
X155320512Y-99908531D01*
X155320508Y-99908533D01*
X155320507Y-99908534D01*
X155170487Y-99988721D01*
X155170484Y-99988722D01*
X155007695Y-100038104D01*
X154923112Y-100046435D01*
X154880821Y-100050600D01*
X154491179Y-100050600D01*
X154448888Y-100046435D01*
X154364305Y-100038104D01*
X154201516Y-99988722D01*
X154201513Y-99988721D01*
X154051493Y-99908534D01*
X154051492Y-99908533D01*
X154051488Y-99908531D01*
X153919988Y-99800612D01*
X153812069Y-99669112D01*
X153812066Y-99669107D01*
X153731879Y-99519087D01*
X153731878Y-99519084D01*
X153682496Y-99356295D01*
X153665822Y-99187000D01*
X153682496Y-99017705D01*
X153731878Y-98854916D01*
X153731879Y-98854913D01*
X153812066Y-98704893D01*
X153812067Y-98704892D01*
X153812069Y-98704888D01*
X153919988Y-98573388D01*
X154051488Y-98465469D01*
X154051492Y-98465467D01*
X154051493Y-98465466D01*
X154201513Y-98385279D01*
X154201516Y-98385278D01*
X154364305Y-98335896D01*
X154448888Y-98327565D01*
X154491179Y-98323400D01*
X154880821Y-98323400D01*
X154923112Y-98327565D01*
X154923112Y-98327565D01*
G37*
G36*
X139683112Y-98327565D02*
G01*
X139767695Y-98335896D01*
X139930484Y-98385278D01*
X139930487Y-98385279D01*
X140080507Y-98465466D01*
X140080508Y-98465467D01*
X140080512Y-98465469D01*
X140212012Y-98573388D01*
X140319931Y-98704888D01*
X140319933Y-98704892D01*
X140319934Y-98704893D01*
X140400121Y-98854913D01*
X140400122Y-98854916D01*
X140449504Y-99017705D01*
X140466178Y-99187000D01*
X140449504Y-99356295D01*
X140400122Y-99519084D01*
X140400121Y-99519087D01*
X140319934Y-99669107D01*
X140319931Y-99669112D01*
X140212012Y-99800612D01*
X140080512Y-99908531D01*
X140080508Y-99908533D01*
X140080507Y-99908534D01*
X139930487Y-99988721D01*
X139930484Y-99988722D01*
X139767695Y-100038104D01*
X139683112Y-100046435D01*
X139640821Y-100050600D01*
X139251179Y-100050600D01*
X139208888Y-100046435D01*
X139124305Y-100038104D01*
X138961516Y-99988722D01*
X138961513Y-99988721D01*
X138811493Y-99908534D01*
X138811492Y-99908533D01*
X138811488Y-99908531D01*
X138679988Y-99800612D01*
X138572069Y-99669112D01*
X138572066Y-99669107D01*
X138491879Y-99519087D01*
X138491878Y-99519084D01*
X138442496Y-99356295D01*
X138425822Y-99187000D01*
X138442496Y-99017705D01*
X138491878Y-98854916D01*
X138491879Y-98854913D01*
X138572066Y-98704893D01*
X138572067Y-98704892D01*
X138572069Y-98704888D01*
X138679988Y-98573388D01*
X138811488Y-98465469D01*
X138811492Y-98465467D01*
X138811493Y-98465466D01*
X138961513Y-98385279D01*
X138961516Y-98385278D01*
X139124305Y-98335896D01*
X139208888Y-98327565D01*
X139251179Y-98323400D01*
X139640821Y-98323400D01*
X139683112Y-98327565D01*
X139683112Y-98327565D01*
G37*
G36*
X151348187Y-99308792D02*
G01*
X150959278Y-99697701D01*
X149827907Y-98566330D01*
X150216816Y-98177421D01*
X151348187Y-99308792D01*
X151348187Y-99308792D01*
G37*
G36*
X144772093Y-98566330D02*
G01*
X143640722Y-99697701D01*
X143251813Y-99308792D01*
X144383184Y-98177421D01*
X144772093Y-98566330D01*
X144772093Y-98566330D01*
G37*
G36*
X144206408Y-98000645D02*
G01*
X143075037Y-99132016D01*
X142686128Y-98743107D01*
X143817499Y-97611736D01*
X144206408Y-98000645D01*
X144206408Y-98000645D01*
G37*
G36*
X151913872Y-98743107D02*
G01*
X151524963Y-99132016D01*
X150393592Y-98000645D01*
X150782501Y-97611736D01*
X151913872Y-98743107D01*
X151913872Y-98743107D01*
G37*
G36*
X143640723Y-97434959D02*
G01*
X142509352Y-98566330D01*
X142120443Y-98177421D01*
X143251814Y-97046050D01*
X143640723Y-97434959D01*
X143640723Y-97434959D01*
G37*
G36*
X152479557Y-98177421D02*
G01*
X152090648Y-98566330D01*
X150959277Y-97434959D01*
X151348186Y-97046050D01*
X152479557Y-98177421D01*
X152479557Y-98177421D01*
G37*
G36*
X153045243Y-97611736D02*
G01*
X152656334Y-98000645D01*
X151524963Y-96869274D01*
X151913872Y-96480365D01*
X153045243Y-97611736D01*
X153045243Y-97611736D01*
G37*
G36*
X143075037Y-96869274D02*
G01*
X141943666Y-98000645D01*
X141554757Y-97611736D01*
X142686128Y-96480365D01*
X143075037Y-96869274D01*
X143075037Y-96869274D01*
G37*
G36*
X154923112Y-95787565D02*
G01*
X155007695Y-95795896D01*
X155170484Y-95845278D01*
X155170487Y-95845279D01*
X155320507Y-95925466D01*
X155320508Y-95925467D01*
X155320512Y-95925469D01*
X155452012Y-96033388D01*
X155559931Y-96164888D01*
X155559933Y-96164892D01*
X155559934Y-96164893D01*
X155640121Y-96314913D01*
X155640122Y-96314916D01*
X155689504Y-96477705D01*
X155706178Y-96647000D01*
X155689504Y-96816295D01*
X155640122Y-96979084D01*
X155640121Y-96979087D01*
X155604328Y-97046051D01*
X155559931Y-97129112D01*
X155452012Y-97260612D01*
X155320512Y-97368531D01*
X155320508Y-97368533D01*
X155320507Y-97368534D01*
X155170487Y-97448721D01*
X155170484Y-97448722D01*
X155007695Y-97498104D01*
X154923112Y-97506435D01*
X154880821Y-97510600D01*
X154491179Y-97510600D01*
X154448888Y-97506435D01*
X154364305Y-97498104D01*
X154201516Y-97448722D01*
X154201513Y-97448721D01*
X154051493Y-97368534D01*
X154051492Y-97368533D01*
X154051488Y-97368531D01*
X153919988Y-97260612D01*
X153812069Y-97129112D01*
X153767672Y-97046051D01*
X153731879Y-96979087D01*
X153731878Y-96979084D01*
X153682496Y-96816295D01*
X153665822Y-96647000D01*
X153682496Y-96477705D01*
X153731878Y-96314916D01*
X153731879Y-96314913D01*
X153812066Y-96164893D01*
X153812067Y-96164892D01*
X153812069Y-96164888D01*
X153919988Y-96033388D01*
X154051488Y-95925469D01*
X154051492Y-95925467D01*
X154051493Y-95925466D01*
X154201513Y-95845279D01*
X154201516Y-95845278D01*
X154364305Y-95795896D01*
X154448888Y-95787565D01*
X154491179Y-95783400D01*
X154880821Y-95783400D01*
X154923112Y-95787565D01*
X154923112Y-95787565D01*
G37*
G36*
X139683112Y-95787565D02*
G01*
X139767695Y-95795896D01*
X139930484Y-95845278D01*
X139930487Y-95845279D01*
X140080507Y-95925466D01*
X140080508Y-95925467D01*
X140080512Y-95925469D01*
X140212012Y-96033388D01*
X140319931Y-96164888D01*
X140319933Y-96164892D01*
X140319934Y-96164893D01*
X140400121Y-96314913D01*
X140400122Y-96314916D01*
X140449504Y-96477705D01*
X140466178Y-96647000D01*
X140449504Y-96816295D01*
X140400122Y-96979084D01*
X140400121Y-96979087D01*
X140364328Y-97046051D01*
X140319931Y-97129112D01*
X140212012Y-97260612D01*
X140080512Y-97368531D01*
X140080508Y-97368533D01*
X140080507Y-97368534D01*
X139930487Y-97448721D01*
X139930484Y-97448722D01*
X139767695Y-97498104D01*
X139683112Y-97506435D01*
X139640821Y-97510600D01*
X139251179Y-97510600D01*
X139208888Y-97506435D01*
X139124305Y-97498104D01*
X138961516Y-97448722D01*
X138961513Y-97448721D01*
X138811493Y-97368534D01*
X138811492Y-97368533D01*
X138811488Y-97368531D01*
X138679988Y-97260612D01*
X138572069Y-97129112D01*
X138527672Y-97046051D01*
X138491879Y-96979087D01*
X138491878Y-96979084D01*
X138442496Y-96816295D01*
X138425822Y-96647000D01*
X138442496Y-96477705D01*
X138491878Y-96314916D01*
X138491879Y-96314913D01*
X138572066Y-96164893D01*
X138572067Y-96164892D01*
X138572069Y-96164888D01*
X138679988Y-96033388D01*
X138811488Y-95925469D01*
X138811492Y-95925467D01*
X138811493Y-95925466D01*
X138961513Y-95845279D01*
X138961516Y-95845278D01*
X139124305Y-95795896D01*
X139208888Y-95787565D01*
X139251179Y-95783400D01*
X139640821Y-95783400D01*
X139683112Y-95787565D01*
X139683112Y-95787565D01*
G37*
G36*
X143075037Y-95561126D02*
G01*
X142686128Y-95950035D01*
X141554757Y-94818664D01*
X141943666Y-94429755D01*
X143075037Y-95561126D01*
X143075037Y-95561126D01*
G37*
G36*
X153045243Y-94818664D02*
G01*
X151913872Y-95950035D01*
X151524963Y-95561126D01*
X152656334Y-94429755D01*
X153045243Y-94818664D01*
X153045243Y-94818664D01*
G37*
G36*
X143640723Y-94995441D02*
G01*
X143251814Y-95384350D01*
X142120443Y-94252979D01*
X142509352Y-93864070D01*
X143640723Y-94995441D01*
X143640723Y-94995441D01*
G37*
G36*
X152479557Y-94252979D02*
G01*
X151348186Y-95384350D01*
X150959277Y-94995441D01*
X152090648Y-93864070D01*
X152479557Y-94252979D01*
X152479557Y-94252979D01*
G37*
G36*
X154923112Y-93247565D02*
G01*
X155007695Y-93255896D01*
X155147761Y-93298385D01*
X155170487Y-93305279D01*
X155320507Y-93385466D01*
X155320508Y-93385467D01*
X155320512Y-93385469D01*
X155452012Y-93493388D01*
X155559931Y-93624888D01*
X155559933Y-93624892D01*
X155559934Y-93624893D01*
X155640121Y-93774913D01*
X155640122Y-93774916D01*
X155689504Y-93937705D01*
X155706178Y-94107000D01*
X155689504Y-94276295D01*
X155642952Y-94429755D01*
X155640121Y-94439087D01*
X155559934Y-94589107D01*
X155559931Y-94589112D01*
X155452012Y-94720612D01*
X155320512Y-94828531D01*
X155320508Y-94828533D01*
X155320507Y-94828534D01*
X155170487Y-94908721D01*
X155170484Y-94908722D01*
X155007695Y-94958104D01*
X154923112Y-94966435D01*
X154880821Y-94970600D01*
X154491179Y-94970600D01*
X154448888Y-94966435D01*
X154364305Y-94958104D01*
X154201516Y-94908722D01*
X154201513Y-94908721D01*
X154051493Y-94828534D01*
X154051492Y-94828533D01*
X154051488Y-94828531D01*
X153919988Y-94720612D01*
X153812069Y-94589112D01*
X153812066Y-94589107D01*
X153731879Y-94439087D01*
X153729048Y-94429755D01*
X153682496Y-94276295D01*
X153665822Y-94107000D01*
X153682496Y-93937705D01*
X153731878Y-93774916D01*
X153731879Y-93774913D01*
X153812066Y-93624893D01*
X153812067Y-93624892D01*
X153812069Y-93624888D01*
X153919988Y-93493388D01*
X154051488Y-93385469D01*
X154051492Y-93385467D01*
X154051493Y-93385466D01*
X154201513Y-93305279D01*
X154224239Y-93298385D01*
X154364305Y-93255896D01*
X154448888Y-93247565D01*
X154491179Y-93243400D01*
X154880821Y-93243400D01*
X154923112Y-93247565D01*
X154923112Y-93247565D01*
G37*
G36*
X139683112Y-93247565D02*
G01*
X139767695Y-93255896D01*
X139907761Y-93298385D01*
X139930487Y-93305279D01*
X140080507Y-93385466D01*
X140080508Y-93385467D01*
X140080512Y-93385469D01*
X140212012Y-93493388D01*
X140319931Y-93624888D01*
X140319933Y-93624892D01*
X140319934Y-93624893D01*
X140400121Y-93774913D01*
X140400122Y-93774916D01*
X140449504Y-93937705D01*
X140466178Y-94107000D01*
X140449504Y-94276295D01*
X140402952Y-94429755D01*
X140400121Y-94439087D01*
X140319934Y-94589107D01*
X140319931Y-94589112D01*
X140212012Y-94720612D01*
X140080512Y-94828531D01*
X140080508Y-94828533D01*
X140080507Y-94828534D01*
X139930487Y-94908721D01*
X139930484Y-94908722D01*
X139767695Y-94958104D01*
X139683112Y-94966435D01*
X139640821Y-94970600D01*
X139251179Y-94970600D01*
X139208888Y-94966435D01*
X139124305Y-94958104D01*
X138961516Y-94908722D01*
X138961513Y-94908721D01*
X138811493Y-94828534D01*
X138811492Y-94828533D01*
X138811488Y-94828531D01*
X138679988Y-94720612D01*
X138572069Y-94589112D01*
X138572066Y-94589107D01*
X138491879Y-94439087D01*
X138489048Y-94429755D01*
X138442496Y-94276295D01*
X138425822Y-94107000D01*
X138442496Y-93937705D01*
X138491878Y-93774916D01*
X138491879Y-93774913D01*
X138572066Y-93624893D01*
X138572067Y-93624892D01*
X138572069Y-93624888D01*
X138679988Y-93493388D01*
X138811488Y-93385469D01*
X138811492Y-93385467D01*
X138811493Y-93385466D01*
X138961513Y-93305279D01*
X138984239Y-93298385D01*
X139124305Y-93255896D01*
X139208888Y-93247565D01*
X139251179Y-93243400D01*
X139640821Y-93243400D01*
X139683112Y-93247565D01*
X139683112Y-93247565D01*
G37*
G36*
X151913872Y-93687293D02*
G01*
X150782501Y-94818664D01*
X150393592Y-94429755D01*
X151524963Y-93298384D01*
X151913872Y-93687293D01*
X151913872Y-93687293D01*
G37*
G36*
X144206408Y-94429755D02*
G01*
X143817499Y-94818664D01*
X142686128Y-93687293D01*
X143075037Y-93298384D01*
X144206408Y-94429755D01*
X144206408Y-94429755D01*
G37*
G36*
X151348187Y-93121608D02*
G01*
X150216816Y-94252979D01*
X149827907Y-93864070D01*
X150959278Y-92732699D01*
X151348187Y-93121608D01*
X151348187Y-93121608D01*
G37*
G36*
X144772093Y-93864070D02*
G01*
X144383184Y-94252979D01*
X143251813Y-93121608D01*
X143640722Y-92732699D01*
X144772093Y-93864070D01*
X144772093Y-93864070D01*
G37*
G36*
X150782501Y-92555922D02*
G01*
X149651130Y-93687293D01*
X149262221Y-93298384D01*
X150393592Y-92167013D01*
X150782501Y-92555922D01*
X150782501Y-92555922D01*
G37*
G36*
X145337779Y-93298384D02*
G01*
X144948870Y-93687293D01*
X143817499Y-92555922D01*
X144206408Y-92167013D01*
X145337779Y-93298384D01*
X145337779Y-93298384D01*
G37*
G36*
X150216816Y-91990237D02*
G01*
X149085445Y-93121608D01*
X148696536Y-92732699D01*
X149827907Y-91601328D01*
X150216816Y-91990237D01*
X150216816Y-91990237D01*
G37*
G36*
X145903464Y-92732699D02*
G01*
X145514555Y-93121608D01*
X144383184Y-91990237D01*
X144772093Y-91601328D01*
X145903464Y-92732699D01*
X145903464Y-92732699D01*
G37*
G36*
X149651130Y-91424552D02*
G01*
X148519759Y-92555923D01*
X148130850Y-92167014D01*
X149262221Y-91035643D01*
X149651130Y-91424552D01*
X149651130Y-91424552D01*
G37*
G36*
X146469150Y-92167014D02*
G01*
X146080241Y-92555923D01*
X144948870Y-91424552D01*
X145337779Y-91035643D01*
X146469150Y-92167014D01*
X146469150Y-92167014D01*
G37*
G36*
X143114951Y-92093887D02*
G01*
X142690687Y-92518151D01*
X141771449Y-91598913D01*
X142195713Y-91174649D01*
X143114951Y-92093887D01*
X143114951Y-92093887D01*
G37*
G36*
X154923112Y-90707565D02*
G01*
X155007695Y-90715896D01*
X155170484Y-90765278D01*
X155170487Y-90765279D01*
X155320507Y-90845466D01*
X155320508Y-90845467D01*
X155320512Y-90845469D01*
X155452012Y-90953388D01*
X155559931Y-91084888D01*
X155559933Y-91084892D01*
X155559934Y-91084893D01*
X155640121Y-91234913D01*
X155640122Y-91234916D01*
X155689504Y-91397705D01*
X155706178Y-91567000D01*
X155689504Y-91736295D01*
X155640122Y-91899084D01*
X155640121Y-91899087D01*
X155559934Y-92049107D01*
X155559931Y-92049112D01*
X155452012Y-92180612D01*
X155320512Y-92288531D01*
X155320508Y-92288533D01*
X155320507Y-92288534D01*
X155170487Y-92368721D01*
X155170484Y-92368722D01*
X155007695Y-92418104D01*
X154923112Y-92426435D01*
X154880821Y-92430600D01*
X154491179Y-92430600D01*
X154448888Y-92426435D01*
X154364305Y-92418104D01*
X154201516Y-92368722D01*
X154201513Y-92368721D01*
X154051493Y-92288534D01*
X154051492Y-92288533D01*
X154051488Y-92288531D01*
X153919988Y-92180612D01*
X153812069Y-92049112D01*
X153812066Y-92049107D01*
X153731879Y-91899087D01*
X153731878Y-91899084D01*
X153682496Y-91736295D01*
X153665822Y-91567000D01*
X153682496Y-91397705D01*
X153731878Y-91234916D01*
X153731879Y-91234913D01*
X153812066Y-91084893D01*
X153812067Y-91084892D01*
X153812069Y-91084888D01*
X153919988Y-90953388D01*
X154051488Y-90845469D01*
X154051492Y-90845467D01*
X154051493Y-90845466D01*
X154201513Y-90765279D01*
X154201516Y-90765278D01*
X154364305Y-90715896D01*
X154448888Y-90707565D01*
X154491179Y-90703400D01*
X154880821Y-90703400D01*
X154923112Y-90707565D01*
X154923112Y-90707565D01*
G37*
G36*
X139683112Y-90707565D02*
G01*
X139767695Y-90715896D01*
X139930484Y-90765278D01*
X139930487Y-90765279D01*
X140080507Y-90845466D01*
X140080508Y-90845467D01*
X140080512Y-90845469D01*
X140212012Y-90953388D01*
X140319931Y-91084888D01*
X140319933Y-91084892D01*
X140319934Y-91084893D01*
X140400121Y-91234913D01*
X140400122Y-91234916D01*
X140449504Y-91397705D01*
X140466178Y-91567000D01*
X140449504Y-91736295D01*
X140400122Y-91899084D01*
X140400121Y-91899087D01*
X140319934Y-92049107D01*
X140319931Y-92049112D01*
X140212012Y-92180612D01*
X140080512Y-92288531D01*
X140080508Y-92288533D01*
X140080507Y-92288534D01*
X139930487Y-92368721D01*
X139930484Y-92368722D01*
X139767695Y-92418104D01*
X139683112Y-92426435D01*
X139640821Y-92430600D01*
X139251179Y-92430600D01*
X139208888Y-92426435D01*
X139124305Y-92418104D01*
X138961516Y-92368722D01*
X138961513Y-92368721D01*
X138811493Y-92288534D01*
X138811492Y-92288533D01*
X138811488Y-92288531D01*
X138679988Y-92180612D01*
X138572069Y-92049112D01*
X138572066Y-92049107D01*
X138491879Y-91899087D01*
X138491878Y-91899084D01*
X138442496Y-91736295D01*
X138425822Y-91567000D01*
X138442496Y-91397705D01*
X138491878Y-91234916D01*
X138491879Y-91234913D01*
X138572066Y-91084893D01*
X138572067Y-91084892D01*
X138572069Y-91084888D01*
X138679988Y-90953388D01*
X138811488Y-90845469D01*
X138811492Y-90845467D01*
X138811493Y-90845466D01*
X138961513Y-90765279D01*
X138961516Y-90765278D01*
X139124305Y-90715896D01*
X139208888Y-90707565D01*
X139251179Y-90703400D01*
X139640821Y-90703400D01*
X139683112Y-90707565D01*
X139683112Y-90707565D01*
G37*
G36*
X149085445Y-90858866D02*
G01*
X147954074Y-91990237D01*
X147565165Y-91601328D01*
X148696536Y-90469957D01*
X149085445Y-90858866D01*
X149085445Y-90858866D01*
G37*
G36*
X147034835Y-91601328D02*
G01*
X146645926Y-91990237D01*
X145514555Y-90858866D01*
X145903464Y-90469957D01*
X147034835Y-91601328D01*
X147034835Y-91601328D01*
G37*
G36*
X143786702Y-91422136D02*
G01*
X143362438Y-91846400D01*
X142443200Y-90927162D01*
X142867464Y-90502898D01*
X143786702Y-91422136D01*
X143786702Y-91422136D01*
G37*
G36*
X144458454Y-90750384D02*
G01*
X144034190Y-91174648D01*
X143114952Y-90255410D01*
X143539216Y-89831146D01*
X144458454Y-90750384D01*
X144458454Y-90750384D01*
G37*
G36*
X139683112Y-88167565D02*
G01*
X139767695Y-88175896D01*
X139930484Y-88225278D01*
X139930487Y-88225279D01*
X140080507Y-88305466D01*
X140080508Y-88305467D01*
X140080512Y-88305469D01*
X140212012Y-88413388D01*
X140319931Y-88544888D01*
X140319933Y-88544892D01*
X140319934Y-88544893D01*
X140400121Y-88694913D01*
X140400122Y-88694916D01*
X140449504Y-88857705D01*
X140466178Y-89027000D01*
X140449504Y-89196295D01*
X140400122Y-89359084D01*
X140400121Y-89359087D01*
X140319934Y-89509107D01*
X140319931Y-89509112D01*
X140212012Y-89640612D01*
X140080512Y-89748531D01*
X140080508Y-89748533D01*
X140080507Y-89748534D01*
X139930487Y-89828721D01*
X139930484Y-89828722D01*
X139767695Y-89878104D01*
X139683112Y-89886435D01*
X139640821Y-89890600D01*
X139251179Y-89890600D01*
X139208888Y-89886435D01*
X139124305Y-89878104D01*
X138961516Y-89828722D01*
X138961513Y-89828721D01*
X138811493Y-89748534D01*
X138811492Y-89748533D01*
X138811488Y-89748531D01*
X138679988Y-89640612D01*
X138572069Y-89509112D01*
X138572066Y-89509107D01*
X138491879Y-89359087D01*
X138491878Y-89359084D01*
X138442496Y-89196295D01*
X138425822Y-89027000D01*
X138442496Y-88857705D01*
X138491878Y-88694916D01*
X138491879Y-88694913D01*
X138572066Y-88544893D01*
X138572067Y-88544892D01*
X138572069Y-88544888D01*
X138679988Y-88413388D01*
X138811488Y-88305469D01*
X138811492Y-88305467D01*
X138811493Y-88305466D01*
X138961513Y-88225279D01*
X138961516Y-88225278D01*
X139124305Y-88175896D01*
X139208888Y-88167565D01*
X139251179Y-88163400D01*
X139640821Y-88163400D01*
X139683112Y-88167565D01*
X139683112Y-88167565D01*
G37*
G36*
X154923112Y-88167565D02*
G01*
X155007695Y-88175896D01*
X155170484Y-88225278D01*
X155170487Y-88225279D01*
X155320507Y-88305466D01*
X155320508Y-88305467D01*
X155320512Y-88305469D01*
X155452012Y-88413388D01*
X155559931Y-88544888D01*
X155559933Y-88544892D01*
X155559934Y-88544893D01*
X155640121Y-88694913D01*
X155640122Y-88694916D01*
X155689504Y-88857705D01*
X155706178Y-89027000D01*
X155689504Y-89196295D01*
X155640122Y-89359084D01*
X155640121Y-89359087D01*
X155559934Y-89509107D01*
X155559931Y-89509112D01*
X155452012Y-89640612D01*
X155320512Y-89748531D01*
X155320508Y-89748533D01*
X155320507Y-89748534D01*
X155170487Y-89828721D01*
X155170484Y-89828722D01*
X155007695Y-89878104D01*
X154923112Y-89886435D01*
X154880821Y-89890600D01*
X154491179Y-89890600D01*
X154448888Y-89886435D01*
X154364305Y-89878104D01*
X154201516Y-89828722D01*
X154201513Y-89828721D01*
X154051493Y-89748534D01*
X154051492Y-89748533D01*
X154051488Y-89748531D01*
X153919988Y-89640612D01*
X153812069Y-89509112D01*
X153812066Y-89509107D01*
X153731879Y-89359087D01*
X153731878Y-89359084D01*
X153682496Y-89196295D01*
X153665822Y-89027000D01*
X153682496Y-88857705D01*
X153731878Y-88694916D01*
X153731879Y-88694913D01*
X153812066Y-88544893D01*
X153812067Y-88544892D01*
X153812069Y-88544888D01*
X153919988Y-88413388D01*
X154051488Y-88305469D01*
X154051492Y-88305467D01*
X154051493Y-88305466D01*
X154201513Y-88225279D01*
X154201516Y-88225278D01*
X154364305Y-88175896D01*
X154448888Y-88167565D01*
X154491179Y-88163400D01*
X154880821Y-88163400D01*
X154923112Y-88167565D01*
X154923112Y-88167565D01*
G37*
G36*
X151709820Y-87634040D02*
G01*
X150209820Y-87634040D01*
X150209820Y-86234040D01*
X151709820Y-86234040D01*
X151709820Y-87634040D01*
X151709820Y-87634040D01*
G37*
G36*
X143656220Y-87625640D02*
G01*
X142156220Y-87625640D01*
X142156220Y-86225640D01*
X143656220Y-86225640D01*
X143656220Y-87625640D01*
X143656220Y-87625640D01*
G37*
G36*
X139683112Y-85627565D02*
G01*
X139767695Y-85635896D01*
X139930484Y-85685278D01*
X139930487Y-85685279D01*
X140080507Y-85765466D01*
X140080508Y-85765467D01*
X140080512Y-85765469D01*
X140212012Y-85873388D01*
X140319931Y-86004888D01*
X140319933Y-86004892D01*
X140319934Y-86004893D01*
X140400121Y-86154913D01*
X140400122Y-86154916D01*
X140449504Y-86317705D01*
X140466178Y-86487000D01*
X140449504Y-86656295D01*
X140400122Y-86819084D01*
X140400121Y-86819087D01*
X140319934Y-86969107D01*
X140319931Y-86969112D01*
X140212012Y-87100612D01*
X140080512Y-87208531D01*
X140080508Y-87208533D01*
X140080507Y-87208534D01*
X139930487Y-87288721D01*
X139930484Y-87288722D01*
X139767695Y-87338104D01*
X139683112Y-87346435D01*
X139640821Y-87350600D01*
X139251179Y-87350600D01*
X139208888Y-87346435D01*
X139124305Y-87338104D01*
X138961516Y-87288722D01*
X138961513Y-87288721D01*
X138811493Y-87208534D01*
X138811492Y-87208533D01*
X138811488Y-87208531D01*
X138679988Y-87100612D01*
X138572069Y-86969112D01*
X138572066Y-86969107D01*
X138491879Y-86819087D01*
X138491878Y-86819084D01*
X138442496Y-86656295D01*
X138425822Y-86487000D01*
X138442496Y-86317705D01*
X138491878Y-86154916D01*
X138491879Y-86154913D01*
X138572066Y-86004893D01*
X138572067Y-86004892D01*
X138572069Y-86004888D01*
X138679988Y-85873388D01*
X138811488Y-85765469D01*
X138811492Y-85765467D01*
X138811493Y-85765466D01*
X138961513Y-85685279D01*
X138961516Y-85685278D01*
X139124305Y-85635896D01*
X139208888Y-85627565D01*
X139251179Y-85623400D01*
X139640821Y-85623400D01*
X139683112Y-85627565D01*
X139683112Y-85627565D01*
G37*
G36*
X154923112Y-85627565D02*
G01*
X155007695Y-85635896D01*
X155170484Y-85685278D01*
X155170487Y-85685279D01*
X155320507Y-85765466D01*
X155320508Y-85765467D01*
X155320512Y-85765469D01*
X155452012Y-85873388D01*
X155559931Y-86004888D01*
X155559933Y-86004892D01*
X155559934Y-86004893D01*
X155640121Y-86154913D01*
X155640122Y-86154916D01*
X155689504Y-86317705D01*
X155706178Y-86487000D01*
X155689504Y-86656295D01*
X155640122Y-86819084D01*
X155640121Y-86819087D01*
X155559934Y-86969107D01*
X155559931Y-86969112D01*
X155452012Y-87100612D01*
X155320512Y-87208531D01*
X155320508Y-87208533D01*
X155320507Y-87208534D01*
X155170487Y-87288721D01*
X155170484Y-87288722D01*
X155007695Y-87338104D01*
X154923112Y-87346435D01*
X154880821Y-87350600D01*
X154491179Y-87350600D01*
X154448888Y-87346435D01*
X154364305Y-87338104D01*
X154201516Y-87288722D01*
X154201513Y-87288721D01*
X154051493Y-87208534D01*
X154051492Y-87208533D01*
X154051488Y-87208531D01*
X153919988Y-87100612D01*
X153812069Y-86969112D01*
X153812066Y-86969107D01*
X153731879Y-86819087D01*
X153731878Y-86819084D01*
X153682496Y-86656295D01*
X153665822Y-86487000D01*
X153682496Y-86317705D01*
X153731878Y-86154916D01*
X153731879Y-86154913D01*
X153812066Y-86004893D01*
X153812067Y-86004892D01*
X153812069Y-86004888D01*
X153919988Y-85873388D01*
X154051488Y-85765469D01*
X154051492Y-85765467D01*
X154051493Y-85765466D01*
X154201513Y-85685279D01*
X154201516Y-85685278D01*
X154364305Y-85635896D01*
X154448888Y-85627565D01*
X154491179Y-85623400D01*
X154880821Y-85623400D01*
X154923112Y-85627565D01*
X154923112Y-85627565D01*
G37*
G36*
X139683112Y-83087565D02*
G01*
X139767695Y-83095896D01*
X139930484Y-83145278D01*
X139930487Y-83145279D01*
X140080507Y-83225466D01*
X140080508Y-83225467D01*
X140080512Y-83225469D01*
X140212012Y-83333388D01*
X140319931Y-83464888D01*
X140319933Y-83464892D01*
X140319934Y-83464893D01*
X140400121Y-83614913D01*
X140400122Y-83614916D01*
X140449504Y-83777705D01*
X140466178Y-83947000D01*
X140449504Y-84116295D01*
X140400122Y-84279084D01*
X140400121Y-84279087D01*
X140319934Y-84429107D01*
X140319931Y-84429112D01*
X140212012Y-84560612D01*
X140080512Y-84668531D01*
X140080508Y-84668533D01*
X140080507Y-84668534D01*
X139930487Y-84748721D01*
X139930484Y-84748722D01*
X139767695Y-84798104D01*
X139683112Y-84806435D01*
X139640821Y-84810600D01*
X139251179Y-84810600D01*
X139208888Y-84806435D01*
X139124305Y-84798104D01*
X138961516Y-84748722D01*
X138961513Y-84748721D01*
X138811493Y-84668534D01*
X138811492Y-84668533D01*
X138811488Y-84668531D01*
X138679988Y-84560612D01*
X138572069Y-84429112D01*
X138572066Y-84429107D01*
X138491879Y-84279087D01*
X138491878Y-84279084D01*
X138442496Y-84116295D01*
X138425822Y-83947000D01*
X138442496Y-83777705D01*
X138491878Y-83614916D01*
X138491879Y-83614913D01*
X138572066Y-83464893D01*
X138572067Y-83464892D01*
X138572069Y-83464888D01*
X138679988Y-83333388D01*
X138811488Y-83225469D01*
X138811492Y-83225467D01*
X138811493Y-83225466D01*
X138961513Y-83145279D01*
X138961516Y-83145278D01*
X139124305Y-83095896D01*
X139208888Y-83087565D01*
X139251179Y-83083400D01*
X139640821Y-83083400D01*
X139683112Y-83087565D01*
X139683112Y-83087565D01*
G37*
G36*
X154923112Y-83087565D02*
G01*
X155007695Y-83095896D01*
X155170484Y-83145278D01*
X155170487Y-83145279D01*
X155320507Y-83225466D01*
X155320508Y-83225467D01*
X155320512Y-83225469D01*
X155452012Y-83333388D01*
X155559931Y-83464888D01*
X155559933Y-83464892D01*
X155559934Y-83464893D01*
X155640121Y-83614913D01*
X155640122Y-83614916D01*
X155689504Y-83777705D01*
X155706178Y-83947000D01*
X155689504Y-84116295D01*
X155640122Y-84279084D01*
X155640121Y-84279087D01*
X155559934Y-84429107D01*
X155559931Y-84429112D01*
X155452012Y-84560612D01*
X155320512Y-84668531D01*
X155320508Y-84668533D01*
X155320507Y-84668534D01*
X155170487Y-84748721D01*
X155170484Y-84748722D01*
X155007695Y-84798104D01*
X154923112Y-84806435D01*
X154880821Y-84810600D01*
X154491179Y-84810600D01*
X154448888Y-84806435D01*
X154364305Y-84798104D01*
X154201516Y-84748722D01*
X154201513Y-84748721D01*
X154051493Y-84668534D01*
X154051492Y-84668533D01*
X154051488Y-84668531D01*
X153919988Y-84560612D01*
X153812069Y-84429112D01*
X153812066Y-84429107D01*
X153731879Y-84279087D01*
X153731878Y-84279084D01*
X153682496Y-84116295D01*
X153665822Y-83947000D01*
X153682496Y-83777705D01*
X153731878Y-83614916D01*
X153731879Y-83614913D01*
X153812066Y-83464893D01*
X153812067Y-83464892D01*
X153812069Y-83464888D01*
X153919988Y-83333388D01*
X154051488Y-83225469D01*
X154051492Y-83225467D01*
X154051493Y-83225466D01*
X154201513Y-83145279D01*
X154201516Y-83145278D01*
X154364305Y-83095896D01*
X154448888Y-83087565D01*
X154491179Y-83083400D01*
X154880821Y-83083400D01*
X154923112Y-83087565D01*
X154923112Y-83087565D01*
G37*
G36*
X151780000Y-84497600D02*
G01*
X150480000Y-84497600D01*
X150480000Y-82997600D01*
X151780000Y-82997600D01*
X151780000Y-84497600D01*
X151780000Y-84497600D01*
G37*
G36*
X145557000Y-84497600D02*
G01*
X144257000Y-84497600D01*
X144257000Y-82997600D01*
X145557000Y-82997600D01*
X145557000Y-84497600D01*
X145557000Y-84497600D01*
G37*
G36*
X149702280Y-84497600D02*
G01*
X148402280Y-84497600D01*
X148402280Y-82997600D01*
X149702280Y-82997600D01*
X149702280Y-84497600D01*
X149702280Y-84497600D01*
G37*
G36*
X143499600Y-84497600D02*
G01*
X142199600Y-84497600D01*
X142199600Y-82997600D01*
X143499600Y-82997600D01*
X143499600Y-84497600D01*
X143499600Y-84497600D01*
G37*
G36*
X147639800Y-84497600D02*
G01*
X146339800Y-84497600D01*
X146339800Y-82997600D01*
X147639800Y-82997600D01*
X147639800Y-84497600D01*
X147639800Y-84497600D01*
G37*
G36*
X154923112Y-80547565D02*
G01*
X155007695Y-80555896D01*
X155170484Y-80605278D01*
X155170487Y-80605279D01*
X155320507Y-80685466D01*
X155320508Y-80685467D01*
X155320512Y-80685469D01*
X155452012Y-80793388D01*
X155559931Y-80924888D01*
X155559933Y-80924892D01*
X155559934Y-80924893D01*
X155640121Y-81074913D01*
X155640122Y-81074916D01*
X155689504Y-81237705D01*
X155706178Y-81407000D01*
X155689504Y-81576295D01*
X155640122Y-81739084D01*
X155640121Y-81739087D01*
X155608845Y-81797600D01*
X155559931Y-81889112D01*
X155452012Y-82020612D01*
X155320512Y-82128531D01*
X155320508Y-82128533D01*
X155320507Y-82128534D01*
X155170487Y-82208721D01*
X155170484Y-82208722D01*
X155007695Y-82258104D01*
X154923112Y-82266435D01*
X154880821Y-82270600D01*
X154491179Y-82270600D01*
X154448888Y-82266435D01*
X154364305Y-82258104D01*
X154201516Y-82208722D01*
X154201513Y-82208721D01*
X154051493Y-82128534D01*
X154051492Y-82128533D01*
X154051488Y-82128531D01*
X153919988Y-82020612D01*
X153812069Y-81889112D01*
X153763155Y-81797600D01*
X153731879Y-81739087D01*
X153731878Y-81739084D01*
X153682496Y-81576295D01*
X153665822Y-81407000D01*
X153682496Y-81237705D01*
X153731878Y-81074916D01*
X153731879Y-81074913D01*
X153812066Y-80924893D01*
X153812067Y-80924892D01*
X153812069Y-80924888D01*
X153919988Y-80793388D01*
X154051488Y-80685469D01*
X154051492Y-80685467D01*
X154051493Y-80685466D01*
X154201513Y-80605279D01*
X154201516Y-80605278D01*
X154364305Y-80555896D01*
X154448888Y-80547565D01*
X154491179Y-80543400D01*
X154880821Y-80543400D01*
X154923112Y-80547565D01*
X154923112Y-80547565D01*
G37*
G36*
X139683112Y-80547565D02*
G01*
X139767695Y-80555896D01*
X139930484Y-80605278D01*
X139930487Y-80605279D01*
X140080507Y-80685466D01*
X140080508Y-80685467D01*
X140080512Y-80685469D01*
X140212012Y-80793388D01*
X140319931Y-80924888D01*
X140319933Y-80924892D01*
X140319934Y-80924893D01*
X140400121Y-81074913D01*
X140400122Y-81074916D01*
X140449504Y-81237705D01*
X140466178Y-81407000D01*
X140449504Y-81576295D01*
X140400122Y-81739084D01*
X140400121Y-81739087D01*
X140368845Y-81797600D01*
X140319931Y-81889112D01*
X140212012Y-82020612D01*
X140080512Y-82128531D01*
X140080508Y-82128533D01*
X140080507Y-82128534D01*
X139930487Y-82208721D01*
X139930484Y-82208722D01*
X139767695Y-82258104D01*
X139683112Y-82266435D01*
X139640821Y-82270600D01*
X139251179Y-82270600D01*
X139208888Y-82266435D01*
X139124305Y-82258104D01*
X138961516Y-82208722D01*
X138961513Y-82208721D01*
X138811493Y-82128534D01*
X138811492Y-82128533D01*
X138811488Y-82128531D01*
X138679988Y-82020612D01*
X138572069Y-81889112D01*
X138523155Y-81797600D01*
X138491879Y-81739087D01*
X138491878Y-81739084D01*
X138442496Y-81576295D01*
X138425822Y-81407000D01*
X138442496Y-81237705D01*
X138491878Y-81074916D01*
X138491879Y-81074913D01*
X138572066Y-80924893D01*
X138572067Y-80924892D01*
X138572069Y-80924888D01*
X138679988Y-80793388D01*
X138811488Y-80685469D01*
X138811492Y-80685467D01*
X138811493Y-80685466D01*
X138961513Y-80605279D01*
X138961516Y-80605278D01*
X139124305Y-80555896D01*
X139208888Y-80547565D01*
X139251179Y-80543400D01*
X139640821Y-80543400D01*
X139683112Y-80547565D01*
X139683112Y-80547565D01*
G37*
G36*
X143499600Y-81797600D02*
G01*
X142199600Y-81797600D01*
X142199600Y-80297600D01*
X143499600Y-80297600D01*
X143499600Y-81797600D01*
X143499600Y-81797600D01*
G37*
G36*
X151780000Y-81797600D02*
G01*
X150480000Y-81797600D01*
X150480000Y-80297600D01*
X151780000Y-80297600D01*
X151780000Y-81797600D01*
X151780000Y-81797600D01*
G37*
G36*
X147639800Y-81797600D02*
G01*
X146339800Y-81797600D01*
X146339800Y-80297600D01*
X147639800Y-80297600D01*
X147639800Y-81797600D01*
X147639800Y-81797600D01*
G37*
G36*
X149702280Y-81797600D02*
G01*
X148402280Y-81797600D01*
X148402280Y-80297600D01*
X149702280Y-80297600D01*
X149702280Y-81797600D01*
X149702280Y-81797600D01*
G37*
G36*
X145557000Y-81797600D02*
G01*
X144257000Y-81797600D01*
X144257000Y-80297600D01*
X145557000Y-80297600D01*
X145557000Y-81797600D01*
X145557000Y-81797600D01*
G37*
G36*
X154923112Y-78007565D02*
G01*
X155007695Y-78015896D01*
X155170484Y-78065278D01*
X155170487Y-78065279D01*
X155320507Y-78145466D01*
X155320508Y-78145467D01*
X155320512Y-78145469D01*
X155452012Y-78253388D01*
X155559931Y-78384888D01*
X155559933Y-78384892D01*
X155559934Y-78384893D01*
X155640121Y-78534913D01*
X155640122Y-78534916D01*
X155689504Y-78697705D01*
X155706178Y-78867000D01*
X155689504Y-79036295D01*
X155640122Y-79199084D01*
X155640121Y-79199087D01*
X155559934Y-79349107D01*
X155559931Y-79349112D01*
X155452012Y-79480612D01*
X155320512Y-79588531D01*
X155320508Y-79588533D01*
X155320507Y-79588534D01*
X155170487Y-79668721D01*
X155170484Y-79668722D01*
X155007695Y-79718104D01*
X154923112Y-79726435D01*
X154880821Y-79730600D01*
X154491179Y-79730600D01*
X154448888Y-79726435D01*
X154364305Y-79718104D01*
X154201516Y-79668722D01*
X154201513Y-79668721D01*
X154051493Y-79588534D01*
X154051492Y-79588533D01*
X154051488Y-79588531D01*
X153919988Y-79480612D01*
X153812069Y-79349112D01*
X153812066Y-79349107D01*
X153731879Y-79199087D01*
X153731878Y-79199084D01*
X153682496Y-79036295D01*
X153665822Y-78867000D01*
X153682496Y-78697705D01*
X153731878Y-78534916D01*
X153731879Y-78534913D01*
X153812066Y-78384893D01*
X153812067Y-78384892D01*
X153812069Y-78384888D01*
X153919988Y-78253388D01*
X154051488Y-78145469D01*
X154051492Y-78145467D01*
X154051493Y-78145466D01*
X154201513Y-78065279D01*
X154201516Y-78065278D01*
X154364305Y-78015896D01*
X154448888Y-78007565D01*
X154491179Y-78003400D01*
X154880821Y-78003400D01*
X154923112Y-78007565D01*
X154923112Y-78007565D01*
G37*
G36*
X139683112Y-78007565D02*
G01*
X139767695Y-78015896D01*
X139930484Y-78065278D01*
X139930487Y-78065279D01*
X140080507Y-78145466D01*
X140080508Y-78145467D01*
X140080512Y-78145469D01*
X140212012Y-78253388D01*
X140319931Y-78384888D01*
X140319933Y-78384892D01*
X140319934Y-78384893D01*
X140400121Y-78534913D01*
X140400122Y-78534916D01*
X140449504Y-78697705D01*
X140466178Y-78867000D01*
X140449504Y-79036295D01*
X140400122Y-79199084D01*
X140400121Y-79199087D01*
X140319934Y-79349107D01*
X140319931Y-79349112D01*
X140212012Y-79480612D01*
X140080512Y-79588531D01*
X140080508Y-79588533D01*
X140080507Y-79588534D01*
X139930487Y-79668721D01*
X139930484Y-79668722D01*
X139767695Y-79718104D01*
X139683112Y-79726435D01*
X139640821Y-79730600D01*
X139251179Y-79730600D01*
X139208888Y-79726435D01*
X139124305Y-79718104D01*
X138961516Y-79668722D01*
X138961513Y-79668721D01*
X138811493Y-79588534D01*
X138811492Y-79588533D01*
X138811488Y-79588531D01*
X138679988Y-79480612D01*
X138572069Y-79349112D01*
X138572066Y-79349107D01*
X138491879Y-79199087D01*
X138491878Y-79199084D01*
X138442496Y-79036295D01*
X138425822Y-78867000D01*
X138442496Y-78697705D01*
X138491878Y-78534916D01*
X138491879Y-78534913D01*
X138572066Y-78384893D01*
X138572067Y-78384892D01*
X138572069Y-78384888D01*
X138679988Y-78253388D01*
X138811488Y-78145469D01*
X138811492Y-78145467D01*
X138811493Y-78145466D01*
X138961513Y-78065279D01*
X138961516Y-78065278D01*
X139124305Y-78015896D01*
X139208888Y-78007565D01*
X139251179Y-78003400D01*
X139640821Y-78003400D01*
X139683112Y-78007565D01*
X139683112Y-78007565D01*
G37*
G36*
X151738330Y-78847950D02*
G01*
X149937470Y-78847950D01*
X149937470Y-77250290D01*
X151738330Y-77250290D01*
X151738330Y-78847950D01*
X151738330Y-78847950D01*
G37*
G36*
X149172930Y-78847950D02*
G01*
X147372070Y-78847950D01*
X147372070Y-77250290D01*
X149172930Y-77250290D01*
X149172930Y-78847950D01*
X149172930Y-78847950D01*
G37*
G36*
X143978630Y-78835250D02*
G01*
X142177770Y-78835250D01*
X142177770Y-77237590D01*
X143978630Y-77237590D01*
X143978630Y-78835250D01*
X143978630Y-78835250D01*
G37*
G36*
X146569430Y-78835250D02*
G01*
X144768570Y-78835250D01*
X144768570Y-77237590D01*
X146569430Y-77237590D01*
X146569430Y-78835250D01*
X146569430Y-78835250D01*
G37*
G36*
X139683112Y-75467565D02*
G01*
X139767695Y-75475896D01*
X139930484Y-75525278D01*
X139930487Y-75525279D01*
X140080507Y-75605466D01*
X140080508Y-75605467D01*
X140080512Y-75605469D01*
X140212012Y-75713388D01*
X140319931Y-75844888D01*
X140319933Y-75844892D01*
X140319934Y-75844893D01*
X140400121Y-75994913D01*
X140400122Y-75994916D01*
X140449504Y-76157705D01*
X140466178Y-76327000D01*
X140449504Y-76496295D01*
X140400122Y-76659084D01*
X140400121Y-76659087D01*
X140319934Y-76809107D01*
X140319931Y-76809112D01*
X140212012Y-76940612D01*
X140080512Y-77048531D01*
X140080508Y-77048533D01*
X140080507Y-77048534D01*
X139930487Y-77128721D01*
X139930484Y-77128722D01*
X139767695Y-77178104D01*
X139683112Y-77186435D01*
X139640821Y-77190600D01*
X139251179Y-77190600D01*
X139208888Y-77186435D01*
X139124305Y-77178104D01*
X138961516Y-77128722D01*
X138961513Y-77128721D01*
X138811493Y-77048534D01*
X138811492Y-77048533D01*
X138811488Y-77048531D01*
X138679988Y-76940612D01*
X138572069Y-76809112D01*
X138572066Y-76809107D01*
X138491879Y-76659087D01*
X138491878Y-76659084D01*
X138442496Y-76496295D01*
X138425822Y-76327000D01*
X138442496Y-76157705D01*
X138491878Y-75994916D01*
X138491879Y-75994913D01*
X138572066Y-75844893D01*
X138572067Y-75844892D01*
X138572069Y-75844888D01*
X138679988Y-75713388D01*
X138811488Y-75605469D01*
X138811492Y-75605467D01*
X138811493Y-75605466D01*
X138961513Y-75525279D01*
X138961516Y-75525278D01*
X139124305Y-75475896D01*
X139208888Y-75467565D01*
X139251179Y-75463400D01*
X139640821Y-75463400D01*
X139683112Y-75467565D01*
X139683112Y-75467565D01*
G37*
G36*
X154923112Y-75467565D02*
G01*
X155007695Y-75475896D01*
X155170484Y-75525278D01*
X155170487Y-75525279D01*
X155320507Y-75605466D01*
X155320508Y-75605467D01*
X155320512Y-75605469D01*
X155452012Y-75713388D01*
X155559931Y-75844888D01*
X155559933Y-75844892D01*
X155559934Y-75844893D01*
X155640121Y-75994913D01*
X155640122Y-75994916D01*
X155689504Y-76157705D01*
X155706178Y-76327000D01*
X155689504Y-76496295D01*
X155640122Y-76659084D01*
X155640121Y-76659087D01*
X155559934Y-76809107D01*
X155559931Y-76809112D01*
X155452012Y-76940612D01*
X155320512Y-77048531D01*
X155320508Y-77048533D01*
X155320507Y-77048534D01*
X155170487Y-77128721D01*
X155170484Y-77128722D01*
X155007695Y-77178104D01*
X154923112Y-77186435D01*
X154880821Y-77190600D01*
X154491179Y-77190600D01*
X154448888Y-77186435D01*
X154364305Y-77178104D01*
X154201516Y-77128722D01*
X154201513Y-77128721D01*
X154051493Y-77048534D01*
X154051492Y-77048533D01*
X154051488Y-77048531D01*
X153919988Y-76940612D01*
X153812069Y-76809112D01*
X153812066Y-76809107D01*
X153731879Y-76659087D01*
X153731878Y-76659084D01*
X153682496Y-76496295D01*
X153665822Y-76327000D01*
X153682496Y-76157705D01*
X153731878Y-75994916D01*
X153731879Y-75994913D01*
X153812066Y-75844893D01*
X153812067Y-75844892D01*
X153812069Y-75844888D01*
X153919988Y-75713388D01*
X154051488Y-75605469D01*
X154051492Y-75605467D01*
X154051493Y-75605466D01*
X154201513Y-75525279D01*
X154201516Y-75525278D01*
X154364305Y-75475896D01*
X154448888Y-75467565D01*
X154491179Y-75463400D01*
X154880821Y-75463400D01*
X154923112Y-75467565D01*
X154923112Y-75467565D01*
G37*
G36*
X151738330Y-76008230D02*
G01*
X149937470Y-76008230D01*
X149937470Y-74410570D01*
X151738330Y-74410570D01*
X151738330Y-76008230D01*
X151738330Y-76008230D01*
G37*
G36*
X149172930Y-76008230D02*
G01*
X147372070Y-76008230D01*
X147372070Y-74410570D01*
X149172930Y-74410570D01*
X149172930Y-76008230D01*
X149172930Y-76008230D01*
G37*
G36*
X143978630Y-75995530D02*
G01*
X142177770Y-75995530D01*
X142177770Y-74397870D01*
X143978630Y-74397870D01*
X143978630Y-75995530D01*
X143978630Y-75995530D01*
G37*
G36*
X146569430Y-75995530D02*
G01*
X144768570Y-75995530D01*
X144768570Y-74397870D01*
X146569430Y-74397870D01*
X146569430Y-75995530D01*
X146569430Y-75995530D01*
G37*
G36*
X154923112Y-72927565D02*
G01*
X155007695Y-72935896D01*
X155170484Y-72985278D01*
X155170487Y-72985279D01*
X155320507Y-73065466D01*
X155320508Y-73065467D01*
X155320512Y-73065469D01*
X155452012Y-73173388D01*
X155559931Y-73304888D01*
X155559933Y-73304892D01*
X155559934Y-73304893D01*
X155640121Y-73454913D01*
X155640122Y-73454916D01*
X155689504Y-73617705D01*
X155706178Y-73787000D01*
X155689504Y-73956295D01*
X155640122Y-74119084D01*
X155640121Y-74119087D01*
X155559934Y-74269107D01*
X155559931Y-74269112D01*
X155452012Y-74400612D01*
X155320512Y-74508531D01*
X155320508Y-74508533D01*
X155320507Y-74508534D01*
X155170487Y-74588721D01*
X155170484Y-74588722D01*
X155007695Y-74638104D01*
X154923112Y-74646435D01*
X154880821Y-74650600D01*
X154491179Y-74650600D01*
X154448888Y-74646435D01*
X154364305Y-74638104D01*
X154201516Y-74588722D01*
X154201513Y-74588721D01*
X154051493Y-74508534D01*
X154051492Y-74508533D01*
X154051488Y-74508531D01*
X153919988Y-74400612D01*
X153812069Y-74269112D01*
X153812066Y-74269107D01*
X153731879Y-74119087D01*
X153731878Y-74119084D01*
X153682496Y-73956295D01*
X153665822Y-73787000D01*
X153682496Y-73617705D01*
X153731878Y-73454916D01*
X153731879Y-73454913D01*
X153812066Y-73304893D01*
X153812067Y-73304892D01*
X153812069Y-73304888D01*
X153919988Y-73173388D01*
X154051488Y-73065469D01*
X154051492Y-73065467D01*
X154051493Y-73065466D01*
X154201513Y-72985279D01*
X154201516Y-72985278D01*
X154364305Y-72935896D01*
X154448888Y-72927565D01*
X154491179Y-72923400D01*
X154880821Y-72923400D01*
X154923112Y-72927565D01*
X154923112Y-72927565D01*
G37*
G36*
X139683112Y-72927565D02*
G01*
X139767695Y-72935896D01*
X139930484Y-72985278D01*
X139930487Y-72985279D01*
X140080507Y-73065466D01*
X140080508Y-73065467D01*
X140080512Y-73065469D01*
X140212012Y-73173388D01*
X140319931Y-73304888D01*
X140319933Y-73304892D01*
X140319934Y-73304893D01*
X140400121Y-73454913D01*
X140400122Y-73454916D01*
X140449504Y-73617705D01*
X140466178Y-73787000D01*
X140449504Y-73956295D01*
X140400122Y-74119084D01*
X140400121Y-74119087D01*
X140319934Y-74269107D01*
X140319931Y-74269112D01*
X140212012Y-74400612D01*
X140080512Y-74508531D01*
X140080508Y-74508533D01*
X140080507Y-74508534D01*
X139930487Y-74588721D01*
X139930484Y-74588722D01*
X139767695Y-74638104D01*
X139683112Y-74646435D01*
X139640821Y-74650600D01*
X139251179Y-74650600D01*
X139208888Y-74646435D01*
X139124305Y-74638104D01*
X138961516Y-74588722D01*
X138961513Y-74588721D01*
X138811493Y-74508534D01*
X138811492Y-74508533D01*
X138811488Y-74508531D01*
X138679988Y-74400612D01*
X138572069Y-74269112D01*
X138572066Y-74269107D01*
X138491879Y-74119087D01*
X138491878Y-74119084D01*
X138442496Y-73956295D01*
X138425822Y-73787000D01*
X138442496Y-73617705D01*
X138491878Y-73454916D01*
X138491879Y-73454913D01*
X138572066Y-73304893D01*
X138572067Y-73304892D01*
X138572069Y-73304888D01*
X138679988Y-73173388D01*
X138811488Y-73065469D01*
X138811492Y-73065467D01*
X138811493Y-73065466D01*
X138961513Y-72985279D01*
X138961516Y-72985278D01*
X139124305Y-72935896D01*
X139208888Y-72927565D01*
X139251179Y-72923400D01*
X139640821Y-72923400D01*
X139683112Y-72927565D01*
X139683112Y-72927565D01*
G37*
G36*
X140462000Y-72110600D02*
G01*
X138430000Y-72110600D01*
X138430000Y-70383400D01*
X140462000Y-70383400D01*
X140462000Y-72110600D01*
X140462000Y-72110600D01*
G37*
G36*
X155702000Y-72110600D02*
G01*
X153670000Y-72110600D01*
X153670000Y-70383400D01*
X155702000Y-70383400D01*
X155702000Y-72110600D01*
X155702000Y-72110600D01*
G37*
G36*
X147144712Y-70380565D02*
G01*
X147229295Y-70388896D01*
X147392084Y-70438278D01*
X147392087Y-70438279D01*
X147542107Y-70518466D01*
X147542108Y-70518467D01*
X147542112Y-70518469D01*
X147673612Y-70626388D01*
X147781531Y-70757888D01*
X147781533Y-70757892D01*
X147781534Y-70757893D01*
X147861721Y-70907913D01*
X147861722Y-70907916D01*
X147911104Y-71070705D01*
X147927778Y-71240000D01*
X147911104Y-71409295D01*
X147861722Y-71572084D01*
X147861721Y-71572087D01*
X147781534Y-71722107D01*
X147781531Y-71722112D01*
X147673612Y-71853612D01*
X147542112Y-71961531D01*
X147542108Y-71961533D01*
X147542107Y-71961534D01*
X147392087Y-72041721D01*
X147392084Y-72041722D01*
X147229295Y-72091104D01*
X147144712Y-72099435D01*
X147102421Y-72103600D01*
X147017579Y-72103600D01*
X146975288Y-72099435D01*
X146890705Y-72091104D01*
X146727916Y-72041722D01*
X146727913Y-72041721D01*
X146577893Y-71961534D01*
X146577892Y-71961533D01*
X146577888Y-71961531D01*
X146446388Y-71853612D01*
X146338469Y-71722112D01*
X146338466Y-71722107D01*
X146258279Y-71572087D01*
X146258278Y-71572084D01*
X146208896Y-71409295D01*
X146192222Y-71240000D01*
X146208896Y-71070705D01*
X146258278Y-70907916D01*
X146258279Y-70907913D01*
X146338466Y-70757893D01*
X146338467Y-70757892D01*
X146338469Y-70757888D01*
X146446388Y-70626388D01*
X146577888Y-70518469D01*
X146577892Y-70518467D01*
X146577893Y-70518466D01*
X146727913Y-70438279D01*
X146727916Y-70438278D01*
X146890705Y-70388896D01*
X146975288Y-70380565D01*
X147017579Y-70376400D01*
X147102421Y-70376400D01*
X147144712Y-70380565D01*
X147144712Y-70380565D01*
G37*
G36*
X144604712Y-70380565D02*
G01*
X144689295Y-70388896D01*
X144852084Y-70438278D01*
X144852087Y-70438279D01*
X145002107Y-70518466D01*
X145002108Y-70518467D01*
X145002112Y-70518469D01*
X145133612Y-70626388D01*
X145241531Y-70757888D01*
X145241533Y-70757892D01*
X145241534Y-70757893D01*
X145321721Y-70907913D01*
X145321722Y-70907916D01*
X145371104Y-71070705D01*
X145387778Y-71240000D01*
X145371104Y-71409295D01*
X145321722Y-71572084D01*
X145321721Y-71572087D01*
X145241534Y-71722107D01*
X145241531Y-71722112D01*
X145133612Y-71853612D01*
X145002112Y-71961531D01*
X145002108Y-71961533D01*
X145002107Y-71961534D01*
X144852087Y-72041721D01*
X144852084Y-72041722D01*
X144689295Y-72091104D01*
X144604712Y-72099435D01*
X144562421Y-72103600D01*
X144477579Y-72103600D01*
X144435288Y-72099435D01*
X144350705Y-72091104D01*
X144187916Y-72041722D01*
X144187913Y-72041721D01*
X144037893Y-71961534D01*
X144037892Y-71961533D01*
X144037888Y-71961531D01*
X143906388Y-71853612D01*
X143798469Y-71722112D01*
X143798466Y-71722107D01*
X143718279Y-71572087D01*
X143718278Y-71572084D01*
X143668896Y-71409295D01*
X143652222Y-71240000D01*
X143668896Y-71070705D01*
X143718278Y-70907916D01*
X143718279Y-70907913D01*
X143798466Y-70757893D01*
X143798467Y-70757892D01*
X143798469Y-70757888D01*
X143906388Y-70626388D01*
X144037888Y-70518469D01*
X144037892Y-70518467D01*
X144037893Y-70518466D01*
X144187913Y-70438279D01*
X144187916Y-70438278D01*
X144350705Y-70388896D01*
X144435288Y-70380565D01*
X144477579Y-70376400D01*
X144562421Y-70376400D01*
X144604712Y-70380565D01*
X144604712Y-70380565D01*
G37*
G36*
X149684712Y-70380565D02*
G01*
X149769295Y-70388896D01*
X149932084Y-70438278D01*
X149932087Y-70438279D01*
X150082107Y-70518466D01*
X150082108Y-70518467D01*
X150082112Y-70518469D01*
X150213612Y-70626388D01*
X150321531Y-70757888D01*
X150321533Y-70757892D01*
X150321534Y-70757893D01*
X150401721Y-70907913D01*
X150401722Y-70907916D01*
X150451104Y-71070705D01*
X150467778Y-71240000D01*
X150451104Y-71409295D01*
X150401722Y-71572084D01*
X150401721Y-71572087D01*
X150321534Y-71722107D01*
X150321531Y-71722112D01*
X150213612Y-71853612D01*
X150082112Y-71961531D01*
X150082108Y-71961533D01*
X150082107Y-71961534D01*
X149932087Y-72041721D01*
X149932084Y-72041722D01*
X149769295Y-72091104D01*
X149684712Y-72099435D01*
X149642421Y-72103600D01*
X149557579Y-72103600D01*
X149515288Y-72099435D01*
X149430705Y-72091104D01*
X149267916Y-72041722D01*
X149267913Y-72041721D01*
X149117893Y-71961534D01*
X149117892Y-71961533D01*
X149117888Y-71961531D01*
X148986388Y-71853612D01*
X148878469Y-71722112D01*
X148878466Y-71722107D01*
X148798279Y-71572087D01*
X148798278Y-71572084D01*
X148748896Y-71409295D01*
X148732222Y-71240000D01*
X148748896Y-71070705D01*
X148798278Y-70907916D01*
X148798279Y-70907913D01*
X148878466Y-70757893D01*
X148878467Y-70757892D01*
X148878469Y-70757888D01*
X148986388Y-70626388D01*
X149117888Y-70518469D01*
X149117892Y-70518467D01*
X149117893Y-70518466D01*
X149267913Y-70438279D01*
X149267916Y-70438278D01*
X149430705Y-70388896D01*
X149515288Y-70380565D01*
X149557579Y-70376400D01*
X149642421Y-70376400D01*
X149684712Y-70380565D01*
X149684712Y-70380565D01*
G37*
G36*
X139693765Y-67461403D02*
G01*
X139816445Y-67485805D01*
X140047571Y-67581541D01*
X140255578Y-67720527D01*
X140432473Y-67897422D01*
X140571459Y-68105429D01*
X140667195Y-68336555D01*
X140716000Y-68581916D01*
X140716000Y-68832084D01*
X140667195Y-69077445D01*
X140571459Y-69308571D01*
X140501495Y-69413279D01*
X140442400Y-69501722D01*
X140432473Y-69516578D01*
X140255578Y-69693473D01*
X140047571Y-69832459D01*
X139816445Y-69928195D01*
X139693765Y-69952597D01*
X139571085Y-69977000D01*
X139320915Y-69977000D01*
X139198235Y-69952597D01*
X139075555Y-69928195D01*
X138844429Y-69832459D01*
X138636422Y-69693473D01*
X138459527Y-69516578D01*
X138449601Y-69501722D01*
X138390505Y-69413279D01*
X138320541Y-69308571D01*
X138224805Y-69077445D01*
X138176000Y-68832084D01*
X138176000Y-68581916D01*
X138224805Y-68336555D01*
X138320541Y-68105429D01*
X138459527Y-67897422D01*
X138636422Y-67720527D01*
X138844429Y-67581541D01*
X139075555Y-67485805D01*
X139198235Y-67461403D01*
X139320915Y-67437000D01*
X139571085Y-67437000D01*
X139693765Y-67461403D01*
X139693765Y-67461403D01*
G37*
G36*
X154933765Y-67461403D02*
G01*
X155056445Y-67485805D01*
X155287571Y-67581541D01*
X155495578Y-67720527D01*
X155672473Y-67897422D01*
X155811459Y-68105429D01*
X155907195Y-68336555D01*
X155956000Y-68581916D01*
X155956000Y-68832084D01*
X155907195Y-69077445D01*
X155811459Y-69308571D01*
X155741495Y-69413279D01*
X155682400Y-69501722D01*
X155672473Y-69516578D01*
X155495578Y-69693473D01*
X155287571Y-69832459D01*
X155056445Y-69928195D01*
X154933765Y-69952597D01*
X154811085Y-69977000D01*
X154560915Y-69977000D01*
X154438235Y-69952597D01*
X154315555Y-69928195D01*
X154084429Y-69832459D01*
X153876422Y-69693473D01*
X153699527Y-69516578D01*
X153689601Y-69501722D01*
X153630505Y-69413279D01*
X153560541Y-69308571D01*
X153464805Y-69077445D01*
X153416000Y-68832084D01*
X153416000Y-68581916D01*
X153464805Y-68336555D01*
X153560541Y-68105429D01*
X153699527Y-67897422D01*
X153876422Y-67720527D01*
X154084429Y-67581541D01*
X154315555Y-67485805D01*
X154438235Y-67461403D01*
X154560915Y-67437000D01*
X154811085Y-67437000D01*
X154933765Y-67461403D01*
X154933765Y-67461403D01*
G37*
G36*
X144604712Y-67840565D02*
G01*
X144689295Y-67848896D01*
X144849262Y-67897422D01*
X144852087Y-67898279D01*
X145002107Y-67978466D01*
X145002108Y-67978467D01*
X145002112Y-67978469D01*
X145133612Y-68086388D01*
X145241531Y-68217888D01*
X145241533Y-68217892D01*
X145241534Y-68217893D01*
X145321721Y-68367913D01*
X145321722Y-68367916D01*
X145371104Y-68530705D01*
X145387778Y-68700000D01*
X145371104Y-68869295D01*
X145321722Y-69032084D01*
X145321721Y-69032087D01*
X145241534Y-69182107D01*
X145241531Y-69182112D01*
X145133612Y-69313612D01*
X145002112Y-69421531D01*
X145002108Y-69421533D01*
X145002107Y-69421534D01*
X144852087Y-69501721D01*
X144852084Y-69501722D01*
X144689295Y-69551104D01*
X144604712Y-69559435D01*
X144562421Y-69563600D01*
X144477579Y-69563600D01*
X144435288Y-69559435D01*
X144350705Y-69551104D01*
X144187916Y-69501722D01*
X144187913Y-69501721D01*
X144037893Y-69421534D01*
X144037892Y-69421533D01*
X144037888Y-69421531D01*
X143906388Y-69313612D01*
X143798469Y-69182112D01*
X143798466Y-69182107D01*
X143718279Y-69032087D01*
X143718278Y-69032084D01*
X143668896Y-68869295D01*
X143652222Y-68700000D01*
X143668896Y-68530705D01*
X143718278Y-68367916D01*
X143718279Y-68367913D01*
X143798466Y-68217893D01*
X143798467Y-68217892D01*
X143798469Y-68217888D01*
X143906388Y-68086388D01*
X144037888Y-67978469D01*
X144037892Y-67978467D01*
X144037893Y-67978466D01*
X144187913Y-67898279D01*
X144190738Y-67897422D01*
X144350705Y-67848896D01*
X144435288Y-67840565D01*
X144477579Y-67836400D01*
X144562421Y-67836400D01*
X144604712Y-67840565D01*
X144604712Y-67840565D01*
G37*
G36*
X147144712Y-67840565D02*
G01*
X147229295Y-67848896D01*
X147389262Y-67897422D01*
X147392087Y-67898279D01*
X147542107Y-67978466D01*
X147542108Y-67978467D01*
X147542112Y-67978469D01*
X147673612Y-68086388D01*
X147781531Y-68217888D01*
X147781533Y-68217892D01*
X147781534Y-68217893D01*
X147861721Y-68367913D01*
X147861722Y-68367916D01*
X147911104Y-68530705D01*
X147927778Y-68700000D01*
X147911104Y-68869295D01*
X147861722Y-69032084D01*
X147861721Y-69032087D01*
X147781534Y-69182107D01*
X147781531Y-69182112D01*
X147673612Y-69313612D01*
X147542112Y-69421531D01*
X147542108Y-69421533D01*
X147542107Y-69421534D01*
X147392087Y-69501721D01*
X147392084Y-69501722D01*
X147229295Y-69551104D01*
X147144712Y-69559435D01*
X147102421Y-69563600D01*
X147017579Y-69563600D01*
X146975288Y-69559435D01*
X146890705Y-69551104D01*
X146727916Y-69501722D01*
X146727913Y-69501721D01*
X146577893Y-69421534D01*
X146577892Y-69421533D01*
X146577888Y-69421531D01*
X146446388Y-69313612D01*
X146338469Y-69182112D01*
X146338466Y-69182107D01*
X146258279Y-69032087D01*
X146258278Y-69032084D01*
X146208896Y-68869295D01*
X146192222Y-68700000D01*
X146208896Y-68530705D01*
X146258278Y-68367916D01*
X146258279Y-68367913D01*
X146338466Y-68217893D01*
X146338467Y-68217892D01*
X146338469Y-68217888D01*
X146446388Y-68086388D01*
X146577888Y-67978469D01*
X146577892Y-67978467D01*
X146577893Y-67978466D01*
X146727913Y-67898279D01*
X146730738Y-67897422D01*
X146890705Y-67848896D01*
X146975288Y-67840565D01*
X147017579Y-67836400D01*
X147102421Y-67836400D01*
X147144712Y-67840565D01*
X147144712Y-67840565D01*
G37*
G36*
X150463600Y-69563600D02*
G01*
X148736400Y-69563600D01*
X148736400Y-67836400D01*
X150463600Y-67836400D01*
X150463600Y-69563600D01*
X150463600Y-69563600D01*
G37*
M02*
