G04 #@! TF.GenerationSoftware,KiCad,Pcbnew,6.0.0-unknown-a40367c~86~ubuntu16.04.1*
G04 #@! TF.CreationDate,2019-05-10T13:23:40+02:00*
G04 #@! TF.ProjectId,arduino_nanoPB,61726475-696e-46f5-9f6e-616e6f50422e,rev?*
G04 #@! TF.SameCoordinates,Original*
G04 #@! TF.FileFunction,Copper,L2,Bot*
G04 #@! TF.FilePolarity,Positive*
%FSLAX46Y46*%
G04 Gerber Fmt 4.6, Leading zero omitted, Abs format (unit mm)*
G04 Created by KiCad (PCBNEW 6.0.0-unknown-a40367c~86~ubuntu16.04.1) date 2019-05-10 13:23:40*
%MOMM*%
%LPD*%
G04 APERTURE LIST*
%ADD10R,1.675000X1.675000*%
%ADD11O,0.850000X0.300000*%
%ADD12O,0.300000X0.850000*%
%ADD13C,0.100000*%
%ADD14C,1.000000*%
%ADD15R,1.500000X0.500000*%
%ADD16R,1.500000X1.000000*%
%ADD17O,2.032000X1.727200*%
%ADD18R,2.032000X1.727200*%
%ADD19R,1.500000X1.250000*%
%ADD20C,2.540000*%
%ADD21R,1.220000X0.910000*%
%ADD22R,0.910000X1.220000*%
%ADD23R,2.030000X1.650000*%
%ADD24O,1.250000X0.950000*%
%ADD25O,1.000000X1.550000*%
%ADD26R,1.727200X1.727200*%
%ADD27O,1.727200X1.727200*%
%ADD28R,1.500000X1.300000*%
%ADD29R,0.900000X1.200000*%
%ADD30R,2.150000X0.950000*%
%ADD31R,2.150000X3.250000*%
%ADD32C,0.600000*%
%ADD33C,0.150000*%
%ADD34C,0.254000*%
G04 APERTURE END LIST*
D10*
X147904200Y-102437500D03*
X146229200Y-102437500D03*
X147904200Y-100762500D03*
X146229200Y-100762500D03*
D11*
X149516700Y-103100000D03*
X149516700Y-102600000D03*
X149516700Y-102100000D03*
X149516700Y-101600000D03*
X149516700Y-101100000D03*
X149516700Y-100600000D03*
X149516700Y-100100000D03*
D12*
X148566700Y-99150000D03*
X148066700Y-99150000D03*
X147566700Y-99150000D03*
X147066700Y-99150000D03*
X146566700Y-99150000D03*
X146066700Y-99150000D03*
X145566700Y-99150000D03*
D11*
X144616700Y-100100000D03*
X144616700Y-100600000D03*
X144616700Y-101100000D03*
X144616700Y-101600000D03*
X144616700Y-102100000D03*
X144616700Y-102600000D03*
X144616700Y-103100000D03*
D12*
X145566700Y-104050000D03*
X146066700Y-104050000D03*
X146566700Y-104050000D03*
X147066700Y-104050000D03*
X147566700Y-104050000D03*
X148066700Y-104050000D03*
X148566700Y-104050000D03*
D13*
G36*
X152241809Y-101996007D02*
G01*
X152290345Y-102003206D01*
X152337942Y-102015129D01*
X152384142Y-102031659D01*
X152428498Y-102052638D01*
X152470585Y-102077864D01*
X152509997Y-102107094D01*
X152546353Y-102140046D01*
X152579305Y-102176402D01*
X152608535Y-102215814D01*
X152633761Y-102257901D01*
X152654740Y-102302257D01*
X152671270Y-102348457D01*
X152683193Y-102396054D01*
X152690392Y-102444590D01*
X152692800Y-102493599D01*
X152692800Y-102493601D01*
X152690392Y-102542610D01*
X152683193Y-102591146D01*
X152671270Y-102638743D01*
X152654740Y-102684943D01*
X152633761Y-102729299D01*
X152608535Y-102771386D01*
X152579305Y-102810798D01*
X152546353Y-102847154D01*
X152509997Y-102880106D01*
X152470585Y-102909336D01*
X152428498Y-102934562D01*
X152384142Y-102955541D01*
X152337942Y-102972071D01*
X152290345Y-102983994D01*
X152241809Y-102991193D01*
X152192800Y-102993601D01*
X151692800Y-102993601D01*
X151643791Y-102991193D01*
X151595255Y-102983994D01*
X151547658Y-102972071D01*
X151501458Y-102955541D01*
X151457102Y-102934562D01*
X151415015Y-102909336D01*
X151375603Y-102880106D01*
X151339247Y-102847154D01*
X151306295Y-102810798D01*
X151277065Y-102771386D01*
X151251839Y-102729299D01*
X151230860Y-102684943D01*
X151214330Y-102638743D01*
X151202407Y-102591146D01*
X151195208Y-102542610D01*
X151192800Y-102493601D01*
X151192800Y-102493599D01*
X151195208Y-102444590D01*
X151202407Y-102396054D01*
X151214330Y-102348457D01*
X151230860Y-102302257D01*
X151251839Y-102257901D01*
X151277065Y-102215814D01*
X151306295Y-102176402D01*
X151339247Y-102140046D01*
X151375603Y-102107094D01*
X151415015Y-102077864D01*
X151457102Y-102052638D01*
X151501458Y-102031659D01*
X151547658Y-102015129D01*
X151595255Y-102003206D01*
X151643791Y-101996007D01*
X151692800Y-101993599D01*
X152192800Y-101993599D01*
X152241809Y-101996007D01*
X152241809Y-101996007D01*
G37*
D14*
X151942800Y-102493600D03*
D15*
X151942800Y-102193600D03*
D16*
X151942800Y-101193600D03*
D13*
G36*
X152241809Y-99396007D02*
G01*
X152290345Y-99403206D01*
X152337942Y-99415129D01*
X152384142Y-99431659D01*
X152428498Y-99452638D01*
X152470585Y-99477864D01*
X152509997Y-99507094D01*
X152546353Y-99540046D01*
X152579305Y-99576402D01*
X152608535Y-99615814D01*
X152633761Y-99657901D01*
X152654740Y-99702257D01*
X152671270Y-99748457D01*
X152683193Y-99796054D01*
X152690392Y-99844590D01*
X152692800Y-99893599D01*
X152692800Y-99893601D01*
X152690392Y-99942610D01*
X152683193Y-99991146D01*
X152671270Y-100038743D01*
X152654740Y-100084943D01*
X152633761Y-100129299D01*
X152608535Y-100171386D01*
X152579305Y-100210798D01*
X152546353Y-100247154D01*
X152509997Y-100280106D01*
X152470585Y-100309336D01*
X152428498Y-100334562D01*
X152384142Y-100355541D01*
X152337942Y-100372071D01*
X152290345Y-100383994D01*
X152241809Y-100391193D01*
X152192800Y-100393601D01*
X151692800Y-100393601D01*
X151643791Y-100391193D01*
X151595255Y-100383994D01*
X151547658Y-100372071D01*
X151501458Y-100355541D01*
X151457102Y-100334562D01*
X151415015Y-100309336D01*
X151375603Y-100280106D01*
X151339247Y-100247154D01*
X151306295Y-100210798D01*
X151277065Y-100171386D01*
X151251839Y-100129299D01*
X151230860Y-100084943D01*
X151214330Y-100038743D01*
X151202407Y-99991146D01*
X151195208Y-99942610D01*
X151192800Y-99893601D01*
X151192800Y-99893599D01*
X151195208Y-99844590D01*
X151202407Y-99796054D01*
X151214330Y-99748457D01*
X151230860Y-99702257D01*
X151251839Y-99657901D01*
X151277065Y-99615814D01*
X151306295Y-99576402D01*
X151339247Y-99540046D01*
X151375603Y-99507094D01*
X151415015Y-99477864D01*
X151457102Y-99452638D01*
X151501458Y-99431659D01*
X151547658Y-99415129D01*
X151595255Y-99403206D01*
X151643791Y-99396007D01*
X151692800Y-99393599D01*
X152192800Y-99393599D01*
X152241809Y-99396007D01*
X152241809Y-99396007D01*
G37*
D14*
X151942800Y-99893600D03*
D15*
X151942800Y-100193600D03*
D17*
X154686000Y-109347000D03*
X154686000Y-106807000D03*
X154686000Y-104267000D03*
X154686000Y-101727000D03*
X154686000Y-99187000D03*
X154686000Y-96647000D03*
X154686000Y-94107000D03*
X154686000Y-91567000D03*
X154686000Y-89027000D03*
X154686000Y-86487000D03*
X154686000Y-83947000D03*
X154686000Y-81407000D03*
X154686000Y-78867000D03*
X154686000Y-76327000D03*
X154686000Y-73787000D03*
D18*
X154686000Y-71247000D03*
D19*
X151389400Y-96151700D03*
X148889400Y-96151700D03*
D17*
X139446000Y-109347000D03*
X139446000Y-106807000D03*
X139446000Y-104267000D03*
X139446000Y-101727000D03*
X139446000Y-99187000D03*
X139446000Y-96647000D03*
X139446000Y-94107000D03*
X139446000Y-91567000D03*
X139446000Y-89027000D03*
X139446000Y-86487000D03*
X139446000Y-83947000D03*
X139446000Y-81407000D03*
X139446000Y-78867000D03*
X139446000Y-76327000D03*
X139446000Y-73787000D03*
D18*
X139446000Y-71247000D03*
D20*
X139446000Y-68707000D03*
X139400000Y-112100000D03*
X154700000Y-112100000D03*
X154686000Y-68707000D03*
D19*
X146035080Y-82290920D03*
X143535080Y-82290920D03*
X143332200Y-73599040D03*
X145832200Y-73599040D03*
X151303040Y-93243400D03*
X148803040Y-93243400D03*
X147944200Y-73543160D03*
X150444200Y-73543160D03*
X142696560Y-93111320D03*
X145196560Y-93111320D03*
X148793200Y-91104720D03*
X151293200Y-91104720D03*
D21*
X142519400Y-99609400D03*
X142519400Y-102879400D03*
D22*
X147925280Y-82301080D03*
X151195280Y-82301080D03*
D23*
X142494000Y-107975520D03*
X142494000Y-104815520D03*
D24*
X144499100Y-107837460D03*
X149499100Y-107837460D03*
D25*
X143499100Y-110537460D03*
X150499100Y-110537460D03*
D15*
X142481300Y-95545400D03*
D13*
G36*
X142780309Y-94747807D02*
G01*
X142828845Y-94755006D01*
X142876442Y-94766929D01*
X142922642Y-94783459D01*
X142966998Y-94804438D01*
X143009085Y-94829664D01*
X143048497Y-94858894D01*
X143084853Y-94891846D01*
X143117805Y-94928202D01*
X143147035Y-94967614D01*
X143172261Y-95009701D01*
X143193240Y-95054057D01*
X143209770Y-95100257D01*
X143221693Y-95147854D01*
X143228892Y-95196390D01*
X143231300Y-95245399D01*
X143231300Y-95245401D01*
X143228892Y-95294410D01*
X143221693Y-95342946D01*
X143209770Y-95390543D01*
X143193240Y-95436743D01*
X143172261Y-95481099D01*
X143147035Y-95523186D01*
X143117805Y-95562598D01*
X143084853Y-95598954D01*
X143048497Y-95631906D01*
X143009085Y-95661136D01*
X142966998Y-95686362D01*
X142922642Y-95707341D01*
X142876442Y-95723871D01*
X142828845Y-95735794D01*
X142780309Y-95742993D01*
X142731300Y-95745401D01*
X142231300Y-95745401D01*
X142182291Y-95742993D01*
X142133755Y-95735794D01*
X142086158Y-95723871D01*
X142039958Y-95707341D01*
X141995602Y-95686362D01*
X141953515Y-95661136D01*
X141914103Y-95631906D01*
X141877747Y-95598954D01*
X141844795Y-95562598D01*
X141815565Y-95523186D01*
X141790339Y-95481099D01*
X141769360Y-95436743D01*
X141752830Y-95390543D01*
X141740907Y-95342946D01*
X141733708Y-95294410D01*
X141731300Y-95245401D01*
X141731300Y-95245399D01*
X141733708Y-95196390D01*
X141740907Y-95147854D01*
X141752830Y-95100257D01*
X141769360Y-95054057D01*
X141790339Y-95009701D01*
X141815565Y-94967614D01*
X141844795Y-94928202D01*
X141877747Y-94891846D01*
X141914103Y-94858894D01*
X141953515Y-94829664D01*
X141995602Y-94804438D01*
X142039958Y-94783459D01*
X142086158Y-94766929D01*
X142133755Y-94755006D01*
X142182291Y-94747807D01*
X142231300Y-94745399D01*
X142731300Y-94745399D01*
X142780309Y-94747807D01*
X142780309Y-94747807D01*
G37*
D14*
X142481300Y-95245400D03*
D16*
X142481300Y-96545400D03*
D15*
X142481300Y-97545400D03*
D13*
G36*
X142780309Y-97347807D02*
G01*
X142828845Y-97355006D01*
X142876442Y-97366929D01*
X142922642Y-97383459D01*
X142966998Y-97404438D01*
X143009085Y-97429664D01*
X143048497Y-97458894D01*
X143084853Y-97491846D01*
X143117805Y-97528202D01*
X143147035Y-97567614D01*
X143172261Y-97609701D01*
X143193240Y-97654057D01*
X143209770Y-97700257D01*
X143221693Y-97747854D01*
X143228892Y-97796390D01*
X143231300Y-97845399D01*
X143231300Y-97845401D01*
X143228892Y-97894410D01*
X143221693Y-97942946D01*
X143209770Y-97990543D01*
X143193240Y-98036743D01*
X143172261Y-98081099D01*
X143147035Y-98123186D01*
X143117805Y-98162598D01*
X143084853Y-98198954D01*
X143048497Y-98231906D01*
X143009085Y-98261136D01*
X142966998Y-98286362D01*
X142922642Y-98307341D01*
X142876442Y-98323871D01*
X142828845Y-98335794D01*
X142780309Y-98342993D01*
X142731300Y-98345401D01*
X142231300Y-98345401D01*
X142182291Y-98342993D01*
X142133755Y-98335794D01*
X142086158Y-98323871D01*
X142039958Y-98307341D01*
X141995602Y-98286362D01*
X141953515Y-98261136D01*
X141914103Y-98231906D01*
X141877747Y-98198954D01*
X141844795Y-98162598D01*
X141815565Y-98123186D01*
X141790339Y-98081099D01*
X141769360Y-98036743D01*
X141752830Y-97990543D01*
X141740907Y-97942946D01*
X141733708Y-97894410D01*
X141731300Y-97845401D01*
X141731300Y-97845399D01*
X141733708Y-97796390D01*
X141740907Y-97747854D01*
X141752830Y-97700257D01*
X141769360Y-97654057D01*
X141790339Y-97609701D01*
X141815565Y-97567614D01*
X141844795Y-97528202D01*
X141877747Y-97491846D01*
X141914103Y-97458894D01*
X141953515Y-97429664D01*
X141995602Y-97404438D01*
X142039958Y-97383459D01*
X142086158Y-97366929D01*
X142133755Y-97355006D01*
X142182291Y-97347807D01*
X142231300Y-97345399D01*
X142731300Y-97345399D01*
X142780309Y-97347807D01*
X142780309Y-97347807D01*
G37*
D14*
X142481300Y-97845400D03*
D26*
X149600000Y-68700000D03*
D27*
X149600000Y-71240000D03*
X147060000Y-68700000D03*
X147060000Y-71240000D03*
X144520000Y-68700000D03*
X144520000Y-71240000D03*
D28*
X145716000Y-109728000D03*
X148416000Y-109728000D03*
X148416000Y-111937800D03*
X145716000Y-111937800D03*
D29*
X141859000Y-110218040D03*
X141859000Y-112418040D03*
X152323800Y-112123400D03*
X152323800Y-109923400D03*
D30*
X144269460Y-75603100D03*
X144269460Y-77903100D03*
X144269460Y-80203100D03*
D31*
X150069460Y-77903100D03*
X149889800Y-86626700D03*
D30*
X144089800Y-88926700D03*
X144089800Y-86626700D03*
X144089800Y-84326700D03*
D28*
X145368000Y-90932000D03*
X142668000Y-90932000D03*
D13*
G36*
X152051309Y-105395007D02*
G01*
X152099845Y-105402206D01*
X152147442Y-105414129D01*
X152193642Y-105430659D01*
X152237998Y-105451638D01*
X152280085Y-105476864D01*
X152319497Y-105506094D01*
X152355853Y-105539046D01*
X152388805Y-105575402D01*
X152418035Y-105614814D01*
X152443261Y-105656901D01*
X152464240Y-105701257D01*
X152480770Y-105747457D01*
X152492693Y-105795054D01*
X152499892Y-105843590D01*
X152502300Y-105892599D01*
X152502300Y-105892601D01*
X152499892Y-105941610D01*
X152492693Y-105990146D01*
X152480770Y-106037743D01*
X152464240Y-106083943D01*
X152443261Y-106128299D01*
X152418035Y-106170386D01*
X152388805Y-106209798D01*
X152355853Y-106246154D01*
X152319497Y-106279106D01*
X152280085Y-106308336D01*
X152237998Y-106333562D01*
X152193642Y-106354541D01*
X152147442Y-106371071D01*
X152099845Y-106382994D01*
X152051309Y-106390193D01*
X152002300Y-106392601D01*
X151502300Y-106392601D01*
X151453291Y-106390193D01*
X151404755Y-106382994D01*
X151357158Y-106371071D01*
X151310958Y-106354541D01*
X151266602Y-106333562D01*
X151224515Y-106308336D01*
X151185103Y-106279106D01*
X151148747Y-106246154D01*
X151115795Y-106209798D01*
X151086565Y-106170386D01*
X151061339Y-106128299D01*
X151040360Y-106083943D01*
X151023830Y-106037743D01*
X151011907Y-105990146D01*
X151004708Y-105941610D01*
X151002300Y-105892601D01*
X151002300Y-105892599D01*
X151004708Y-105843590D01*
X151011907Y-105795054D01*
X151023830Y-105747457D01*
X151040360Y-105701257D01*
X151061339Y-105656901D01*
X151086565Y-105614814D01*
X151115795Y-105575402D01*
X151148747Y-105539046D01*
X151185103Y-105506094D01*
X151224515Y-105476864D01*
X151266602Y-105451638D01*
X151310958Y-105430659D01*
X151357158Y-105414129D01*
X151404755Y-105402206D01*
X151453291Y-105395007D01*
X151502300Y-105392599D01*
X152002300Y-105392599D01*
X152051309Y-105395007D01*
X152051309Y-105395007D01*
G37*
D14*
X151752300Y-105892600D03*
D13*
G36*
X152051309Y-104095007D02*
G01*
X152099845Y-104102206D01*
X152147442Y-104114129D01*
X152193642Y-104130659D01*
X152237998Y-104151638D01*
X152280085Y-104176864D01*
X152319497Y-104206094D01*
X152355853Y-104239046D01*
X152388805Y-104275402D01*
X152418035Y-104314814D01*
X152443261Y-104356901D01*
X152464240Y-104401257D01*
X152480770Y-104447457D01*
X152492693Y-104495054D01*
X152499892Y-104543590D01*
X152502300Y-104592599D01*
X152502300Y-104592601D01*
X152499892Y-104641610D01*
X152492693Y-104690146D01*
X152480770Y-104737743D01*
X152464240Y-104783943D01*
X152443261Y-104828299D01*
X152418035Y-104870386D01*
X152388805Y-104909798D01*
X152355853Y-104946154D01*
X152319497Y-104979106D01*
X152280085Y-105008336D01*
X152237998Y-105033562D01*
X152193642Y-105054541D01*
X152147442Y-105071071D01*
X152099845Y-105082994D01*
X152051309Y-105090193D01*
X152002300Y-105092601D01*
X151502300Y-105092601D01*
X151453291Y-105090193D01*
X151404755Y-105082994D01*
X151357158Y-105071071D01*
X151310958Y-105054541D01*
X151266602Y-105033562D01*
X151224515Y-105008336D01*
X151185103Y-104979106D01*
X151148747Y-104946154D01*
X151115795Y-104909798D01*
X151086565Y-104870386D01*
X151061339Y-104828299D01*
X151040360Y-104783943D01*
X151023830Y-104737743D01*
X151011907Y-104690146D01*
X151004708Y-104641610D01*
X151002300Y-104592601D01*
X151002300Y-104592599D01*
X151004708Y-104543590D01*
X151011907Y-104495054D01*
X151023830Y-104447457D01*
X151040360Y-104401257D01*
X151061339Y-104356901D01*
X151086565Y-104314814D01*
X151115795Y-104275402D01*
X151148747Y-104239046D01*
X151185103Y-104206094D01*
X151224515Y-104176864D01*
X151266602Y-104151638D01*
X151310958Y-104130659D01*
X151357158Y-104114129D01*
X151404755Y-104102206D01*
X151453291Y-104095007D01*
X151502300Y-104092599D01*
X152002300Y-104092599D01*
X152051309Y-104095007D01*
X152051309Y-104095007D01*
G37*
D14*
X151752300Y-104592600D03*
D15*
X151752300Y-104842600D03*
X151752300Y-105642600D03*
D19*
X148163600Y-105892600D03*
X145663600Y-105892600D03*
D32*
X147137533Y-95575533D03*
X146100800Y-87985600D03*
X146390257Y-93167200D03*
X140360400Y-80327464D03*
X147840291Y-94512808D03*
X151292511Y-92129722D03*
X142760700Y-76837588D03*
X143357600Y-85420200D03*
X141946156Y-79181903D03*
X142367000Y-70739000D03*
X142430500Y-69215000D03*
X151955500Y-68834000D03*
X152082500Y-70629810D03*
X145897602Y-86512400D03*
X145897600Y-85394800D03*
X148414774Y-86106000D03*
X147904200Y-89230200D03*
X149301200Y-89001600D03*
X148713917Y-94371452D03*
X144569984Y-94597126D03*
X150213289Y-96331811D03*
X150066376Y-106175174D03*
X149250400Y-98513900D03*
X152806400Y-78054200D03*
X152781000Y-79806800D03*
X152781000Y-75996800D03*
X142440660Y-71942960D03*
X141389883Y-90114301D03*
X142138400Y-88366592D03*
X147715198Y-85573706D03*
X145759200Y-94164823D03*
X149651999Y-95178601D03*
X149504400Y-74904600D03*
X152196800Y-78816200D03*
X148006019Y-87094279D03*
X144305020Y-97111820D03*
X144388840Y-95534480D03*
X152769965Y-98958400D03*
X153339800Y-103466900D03*
X141447490Y-82613500D03*
X142448310Y-84975700D03*
X146627306Y-97644303D03*
X145921224Y-96825564D03*
X147050811Y-88117982D03*
X151612600Y-85267800D03*
X145878129Y-97548344D03*
X148996400Y-72542400D03*
X144299940Y-104594660D03*
X141512020Y-91186000D03*
X152704800Y-89789000D03*
X151504777Y-89840667D03*
X145097500Y-108648500D03*
X146862800Y-109651800D03*
X147129500Y-111506000D03*
X145097500Y-110871000D03*
X149161500Y-110807500D03*
X144345660Y-96281240D03*
X148107400Y-97205800D03*
X144243279Y-90144317D03*
X143586200Y-102745540D03*
D33*
X147137533Y-95999797D02*
X147137533Y-95575533D01*
X147132377Y-96004953D02*
X147137533Y-95999797D01*
X147132377Y-97615515D02*
X147132377Y-96004953D01*
X149898100Y-97993200D02*
X149045166Y-97993200D01*
X149045166Y-97993200D02*
X148753066Y-98285300D01*
X150116708Y-98211808D02*
X149898100Y-97993200D01*
X149791700Y-101600000D02*
X150116708Y-101274992D01*
X149516700Y-101600000D02*
X149791700Y-101600000D01*
X150116708Y-101274992D02*
X150116708Y-98211808D01*
X148753066Y-98285300D02*
X147802162Y-98285300D01*
X147802162Y-98285300D02*
X147408681Y-97891819D01*
X147408681Y-97891819D02*
X147132377Y-97615515D01*
X146100800Y-87985600D02*
X146037300Y-87985600D01*
X146100800Y-88610440D02*
X146390257Y-88899897D01*
X146390257Y-88899897D02*
X146390257Y-92742936D01*
X146390257Y-92742936D02*
X146390257Y-93167200D01*
X146100800Y-87985600D02*
X146100800Y-88610440D01*
X145676536Y-87985600D02*
X146100800Y-87985600D01*
X142460412Y-87985600D02*
X145676536Y-87985600D01*
X141612620Y-87137808D02*
X142460412Y-87985600D01*
X140703300Y-74505820D02*
X140717449Y-74519970D01*
X140703300Y-72351900D02*
X140703300Y-74505820D01*
X141612620Y-83481632D02*
X141612620Y-87137808D01*
X139598400Y-71247000D02*
X140703300Y-72351900D01*
X140889078Y-74691599D02*
X140889078Y-81842714D01*
X139446000Y-71247000D02*
X139598400Y-71247000D01*
X140717449Y-74519970D02*
X140889078Y-74691599D01*
X140889078Y-81842714D02*
X140952578Y-81906214D01*
X140952578Y-82821590D02*
X141612620Y-83481632D01*
X140952578Y-81906214D02*
X140952578Y-82821590D01*
X139446000Y-73787000D02*
X139598400Y-73787000D01*
X139598400Y-73787000D02*
X140639067Y-74827667D01*
X140639067Y-79624533D02*
X140360400Y-79903200D01*
X140360400Y-79903200D02*
X140360400Y-80327464D01*
X140639067Y-74827667D02*
X140639067Y-79624533D01*
X147641489Y-96589741D02*
X147641489Y-95135874D01*
X149516700Y-102100000D02*
X149791700Y-102100000D01*
X147382388Y-96848842D02*
X147641489Y-96589741D01*
X150366719Y-98108251D02*
X150001657Y-97743189D01*
X147641489Y-95135874D02*
X147840291Y-94937072D01*
X150001657Y-97743189D02*
X148941609Y-97743189D01*
X150366719Y-101524981D02*
X150366719Y-98108251D01*
X149791700Y-102100000D02*
X150366719Y-101524981D01*
X148649509Y-98035289D02*
X147905719Y-98035289D01*
X147382388Y-97511958D02*
X147382388Y-96848842D01*
X148941609Y-97743189D02*
X148649509Y-98035289D01*
X147905719Y-98035289D02*
X147382388Y-97511958D01*
X147840291Y-94937072D02*
X147840291Y-94512808D01*
X151303040Y-93243400D02*
X151303040Y-92140251D01*
X151303040Y-92140251D02*
X151292511Y-92129722D01*
X143535080Y-80718420D02*
X144064400Y-80189100D01*
X143535080Y-82290920D02*
X143535080Y-80718420D01*
X142370420Y-79181903D02*
X142482123Y-79070200D01*
X141946156Y-79181903D02*
X142370420Y-79181903D01*
X142482123Y-79070200D02*
X143941800Y-79070200D01*
X144064400Y-79192800D02*
X144064400Y-80189100D01*
X143941800Y-79070200D02*
X144064400Y-79192800D01*
X142265400Y-80189100D02*
X144064400Y-80189100D01*
X142265400Y-77332888D02*
X142265400Y-80189100D01*
X142760700Y-76837588D02*
X142265400Y-77332888D01*
X142163800Y-74767440D02*
X143332200Y-73599040D01*
X142163800Y-76240688D02*
X142163800Y-74767440D01*
X142760700Y-76837588D02*
X142163800Y-76240688D01*
X144520000Y-71240000D02*
X142691500Y-71240000D01*
X142367000Y-70915500D02*
X142367000Y-70739000D01*
X142691500Y-71240000D02*
X142367000Y-70915500D01*
X142430500Y-69215000D02*
X142430500Y-68643500D01*
X142666720Y-95260640D02*
X142829885Y-95097475D01*
X151782501Y-70929809D02*
X152082500Y-70629810D01*
X151782501Y-71229499D02*
X151782501Y-70929809D01*
X150444200Y-72567800D02*
X151782501Y-71229499D01*
X150444200Y-73543160D02*
X150444200Y-72567800D01*
X144162240Y-92977000D02*
X144162240Y-92100400D01*
X145196560Y-93111320D02*
X144296560Y-93111320D01*
X144296560Y-93111320D02*
X144162240Y-92977000D01*
X144162240Y-92100400D02*
X141833600Y-92100400D01*
X141833600Y-92100400D02*
X141478000Y-92456000D01*
X143662400Y-90576400D02*
X144162240Y-91076240D01*
X144162240Y-91643200D02*
X144162240Y-92100400D01*
X143662400Y-89979100D02*
X143662400Y-90576400D01*
X144089800Y-89551700D02*
X143662400Y-89979100D01*
X144162240Y-91076240D02*
X144162240Y-91643200D01*
X144089800Y-88926700D02*
X144089800Y-89551700D01*
X146321864Y-85394800D02*
X145897600Y-85394800D01*
X146501801Y-86512400D02*
X146321866Y-86512400D01*
X147775824Y-87786423D02*
X146501801Y-86512400D01*
X147775824Y-89508224D02*
X147775824Y-87786423D01*
X148793200Y-90525600D02*
X147775824Y-89508224D01*
X148793200Y-91104720D02*
X148793200Y-90525600D01*
X146321866Y-86512400D02*
X145897602Y-86512400D01*
X143357600Y-85420200D02*
X146845598Y-85420200D01*
X147531398Y-86106000D02*
X147990510Y-86106000D01*
X146845598Y-85420200D02*
X147531398Y-86106000D01*
X147990510Y-86106000D02*
X148414774Y-86106000D01*
X147775824Y-89358576D02*
X147904200Y-89230200D01*
X147775824Y-89508224D02*
X147775824Y-89358576D01*
X144869983Y-94297127D02*
X144569984Y-94597126D01*
X145196560Y-93970550D02*
X144869983Y-94297127D01*
X145196560Y-93111320D02*
X145196560Y-93970550D01*
X151389400Y-96151700D02*
X150393400Y-96151700D01*
X150393400Y-96151700D02*
X150213289Y-96331811D01*
X147566700Y-103775000D02*
X147566700Y-104050000D01*
X147904200Y-103437500D02*
X147566700Y-103775000D01*
X147904200Y-102437500D02*
X147904200Y-103437500D01*
X147566700Y-105295700D02*
X148163600Y-105892600D01*
X147566700Y-104050000D02*
X147566700Y-105295700D01*
X149783802Y-105892600D02*
X150066376Y-106175174D01*
X148163600Y-105892600D02*
X149783802Y-105892600D01*
X141478000Y-94242100D02*
X141478000Y-94043500D01*
X142481300Y-95245400D02*
X141478000Y-94242100D01*
X141478000Y-92456000D02*
X141478000Y-94043500D01*
X147904200Y-100762500D02*
X147904200Y-100761800D01*
X147904200Y-100761800D02*
X147904200Y-102648067D01*
X149250400Y-99416300D02*
X147904200Y-100762500D01*
X149250400Y-98513900D02*
X149250400Y-99416300D01*
X152806400Y-76022200D02*
X152781000Y-75996800D01*
X152806400Y-78054200D02*
X152806400Y-76022200D01*
X154686000Y-73787000D02*
X154533600Y-73787000D01*
X152781000Y-75539600D02*
X152781000Y-75572536D01*
X154533600Y-73787000D02*
X152781000Y-75539600D01*
X152781000Y-75572536D02*
X152781000Y-75996800D01*
X148414774Y-85681736D02*
X148414774Y-86106000D01*
X148414774Y-84792750D02*
X148414774Y-85681736D01*
X148464300Y-80189100D02*
X149385020Y-81109820D01*
X144064400Y-80189100D02*
X148464300Y-80189100D01*
X149385020Y-81109820D02*
X149385020Y-83822504D01*
X149385020Y-83822504D02*
X148414774Y-84792750D01*
X143332200Y-72278240D02*
X143042640Y-71988680D01*
X143332200Y-73599040D02*
X143332200Y-72278240D01*
X142953740Y-71942960D02*
X142440660Y-71942960D01*
X143332200Y-72321420D02*
X142953740Y-71942960D01*
X143332200Y-73599040D02*
X143332200Y-72321420D01*
X142577484Y-88926700D02*
X141689882Y-89814302D01*
X144089800Y-88926700D02*
X142577484Y-88926700D01*
X141689882Y-89814302D02*
X141389883Y-90114301D01*
X144089800Y-88926700D02*
X142698508Y-88926700D01*
X142698508Y-88926700D02*
X142438399Y-88666591D01*
X142438399Y-88666591D02*
X142138400Y-88366592D01*
X147655580Y-92117340D02*
X147655580Y-93785942D01*
X148668200Y-91104720D02*
X147655580Y-92117340D01*
X148413918Y-94071453D02*
X148713917Y-94371452D01*
X148385866Y-94043401D02*
X148413918Y-94071453D01*
X147913039Y-94043401D02*
X148385866Y-94043401D01*
X147655580Y-93785942D02*
X147913039Y-94043401D01*
X148793200Y-91104720D02*
X148668200Y-91104720D01*
X145832200Y-75185900D02*
X145832200Y-73599040D01*
X145429000Y-75589100D02*
X145832200Y-75185900D01*
X144064400Y-75589100D02*
X145429000Y-75589100D01*
X148386800Y-72440800D02*
X148183600Y-72644000D01*
X145957200Y-73599040D02*
X145832200Y-73599040D01*
X148386800Y-70485000D02*
X148386800Y-72440800D01*
X154686000Y-71247000D02*
X154533600Y-71247000D01*
X148183600Y-72644000D02*
X146912240Y-72644000D01*
X154533600Y-71247000D02*
X153314400Y-70027800D01*
X153314400Y-70027800D02*
X148844000Y-70027800D01*
X146912240Y-72644000D02*
X145957200Y-73599040D01*
X148844000Y-70027800D02*
X148386800Y-70485000D01*
X147915120Y-82290920D02*
X147925280Y-82301080D01*
X146035080Y-82290920D02*
X147915120Y-82290920D01*
X144319020Y-84326700D02*
X146035080Y-82610640D01*
X146035080Y-82610640D02*
X146035080Y-82290920D01*
X144089800Y-84326700D02*
X144319020Y-84326700D01*
X152349200Y-94691200D02*
X151790400Y-94132400D01*
X151790400Y-94132400D02*
X150077841Y-94132400D01*
X150077841Y-94132400D02*
X149823841Y-94132400D01*
X149823841Y-94132400D02*
X149773041Y-94081600D01*
X147925280Y-82301080D02*
X147925280Y-85363624D01*
X147925280Y-85363624D02*
X147715198Y-85573706D01*
X152294964Y-98225236D02*
X152349200Y-98171000D01*
X152294964Y-99186401D02*
X152294964Y-98225236D01*
X151942800Y-99538565D02*
X152294964Y-99186401D01*
X151942800Y-99893600D02*
X151942800Y-99538565D01*
X152349200Y-98171000D02*
X152349200Y-94691200D01*
X149773041Y-94081600D02*
X149651999Y-94202642D01*
X149014400Y-96151700D02*
X149651999Y-95514101D01*
X148889400Y-96151700D02*
X149014400Y-96151700D01*
X149651999Y-94202642D02*
X149651999Y-95080099D01*
X149651999Y-95514101D02*
X149651999Y-95178601D01*
X149651999Y-95178601D02*
X149651999Y-95080099D01*
X154686000Y-78867000D02*
X152247600Y-78867000D01*
X152247600Y-78867000D02*
X152196800Y-78816200D01*
X152095200Y-78816200D02*
X152196800Y-78816200D01*
X149504400Y-74904600D02*
X151079200Y-74904600D01*
X151663400Y-78384400D02*
X152095200Y-78816200D01*
X151079200Y-74904600D02*
X151663400Y-75488800D01*
X151663400Y-75488800D02*
X151663400Y-78384400D01*
X149773041Y-90387841D02*
X148306018Y-88920818D01*
X149773041Y-94081600D02*
X149773041Y-90387841D01*
X148306018Y-88920818D02*
X148306018Y-87394278D01*
X148306018Y-87394278D02*
X148006019Y-87094279D01*
X149504400Y-71335600D02*
X149600000Y-71240000D01*
X149504400Y-74904600D02*
X149504400Y-71335600D01*
X144305020Y-97978780D02*
X144305020Y-97536084D01*
X144305020Y-97536084D02*
X144305020Y-97111820D01*
X142674400Y-99609400D02*
X144305020Y-97978780D01*
X142519400Y-99609400D02*
X142674400Y-99609400D01*
X145759200Y-94164823D02*
X144389543Y-95534480D01*
X144389543Y-95534480D02*
X144388840Y-95534480D01*
X142696560Y-93886320D02*
X144344720Y-95534480D01*
X144344720Y-95534480D02*
X144388840Y-95534480D01*
X142696560Y-93111320D02*
X142696560Y-93886320D01*
X151979787Y-90120559D02*
X151979787Y-85688013D01*
X152704800Y-90845572D02*
X151979787Y-90120559D01*
X152769965Y-98534136D02*
X152908000Y-98396101D01*
X152908000Y-98396101D02*
X152908000Y-95097600D01*
X151979787Y-85688013D02*
X152704800Y-84963000D01*
X152704800Y-83235800D02*
X154533600Y-81407000D01*
X152908000Y-95097600D02*
X152704800Y-94894400D01*
X152769965Y-98958400D02*
X152769965Y-98534136D01*
X152704800Y-84963000D02*
X152704800Y-83235800D01*
X154533600Y-81407000D02*
X154686000Y-81407000D01*
X152704800Y-94894400D02*
X152704800Y-90845572D01*
X152229798Y-90017002D02*
X153244979Y-91032183D01*
X152229798Y-86250802D02*
X152229798Y-90017002D01*
X154533600Y-83947000D02*
X152229798Y-86250802D01*
X154686000Y-83947000D02*
X154533600Y-83947000D01*
X153244979Y-91032183D02*
X153244979Y-102947815D01*
X153244979Y-102947815D02*
X153339800Y-103042636D01*
X153339800Y-103042636D02*
X153339800Y-103466900D01*
X141139089Y-81739157D02*
X141139089Y-74588042D01*
X141139089Y-74588042D02*
X140967460Y-74416413D01*
X146196401Y-69563599D02*
X147060000Y-68700000D01*
X140967460Y-74416413D02*
X140967460Y-70588026D01*
X141447490Y-82047558D02*
X141139089Y-81739157D01*
X141756287Y-69799200D02*
X145960800Y-69799200D01*
X145960800Y-69799200D02*
X146196401Y-69563599D01*
X141447490Y-82613500D02*
X141447490Y-82047558D01*
X140967460Y-70588026D02*
X141756287Y-69799200D01*
X146662531Y-95828935D02*
X146796475Y-95962879D01*
X146662531Y-95347531D02*
X146662531Y-95828935D01*
X147365289Y-94644773D02*
X146662531Y-95347531D01*
X147365289Y-88912959D02*
X147365289Y-94644773D01*
X146796475Y-95962879D02*
X146796475Y-97475134D01*
X145718442Y-87260588D02*
X146896421Y-87260588D01*
X142448310Y-84975700D02*
X142448310Y-86850211D01*
X147525813Y-88752435D02*
X147365289Y-88912959D01*
X142874800Y-87276701D02*
X145702329Y-87276701D01*
X142448310Y-86850211D02*
X142874800Y-87276701D01*
X146796475Y-97475134D02*
X146627306Y-97644303D01*
X145702329Y-87276701D02*
X145718442Y-87260588D01*
X146896421Y-87260588D02*
X147525813Y-87889980D01*
X147525813Y-87889980D02*
X147525813Y-88752435D01*
X147060000Y-71240000D02*
X145924000Y-70104000D01*
X145924000Y-70104000D02*
X141864080Y-70104000D01*
X146865267Y-89021339D02*
X146865267Y-94437659D01*
X141922500Y-82169000D02*
X141922500Y-86906100D01*
X142543109Y-87526709D02*
X145805889Y-87526709D01*
X146575801Y-88731873D02*
X146865267Y-89021339D01*
X141864080Y-70104000D02*
X141389100Y-70578980D01*
X145805889Y-87526709D02*
X145821999Y-87510599D01*
X145821999Y-87510599D02*
X146328801Y-87510599D01*
X146328801Y-87510599D02*
X146575801Y-87757599D01*
X145921224Y-96401300D02*
X145921224Y-96825564D01*
X146575801Y-87757599D02*
X146575801Y-88731873D01*
X141922500Y-86906100D02*
X142543109Y-87526709D01*
X146865267Y-94437659D02*
X145921224Y-95381702D01*
X141389100Y-81635600D02*
X141922500Y-82169000D01*
X141389100Y-70578980D02*
X141389100Y-81635600D01*
X145921224Y-95381702D02*
X145921224Y-96401300D01*
X151912599Y-84967801D02*
X151612600Y-85267800D01*
X151912599Y-80835201D02*
X151912599Y-84967801D01*
X151409400Y-80332002D02*
X151912599Y-80835201D01*
X151409400Y-76225400D02*
X151409400Y-80332002D01*
X148996400Y-72542400D02*
X148996400Y-75311000D01*
X150850600Y-75666600D02*
X151409400Y-76225400D01*
X148996400Y-75311000D02*
X149352000Y-75666600D01*
X149352000Y-75666600D02*
X150850600Y-75666600D01*
X146412520Y-95243974D02*
X146412520Y-96463618D01*
X146178128Y-97248345D02*
X145878129Y-97548344D01*
X146351685Y-97248345D02*
X146178128Y-97248345D01*
X146546464Y-97053566D02*
X146351685Y-97248345D01*
X146546464Y-96597562D02*
X146546464Y-97053566D01*
X147050811Y-88117982D02*
X147050811Y-88542246D01*
X146412520Y-96463618D02*
X146546464Y-96597562D01*
X147115278Y-94541216D02*
X146412520Y-95243974D01*
X147115278Y-88606713D02*
X147115278Y-94541216D01*
X147050811Y-88542246D02*
X147115278Y-88606713D01*
X146066700Y-104050000D02*
X146066700Y-104325000D01*
X145446243Y-104945457D02*
X144650737Y-104945457D01*
X144599939Y-104894659D02*
X144299940Y-104594660D01*
X146066700Y-104325000D02*
X145446243Y-104945457D01*
X144650737Y-104945457D02*
X144599939Y-104894659D01*
X141766020Y-90932000D02*
X141512020Y-91186000D01*
X142668000Y-90932000D02*
X141766020Y-90932000D01*
X151292560Y-104198280D02*
X151292560Y-104598280D01*
X151726900Y-104231300D02*
X151726900Y-104631300D01*
X150763399Y-103267799D02*
X151726900Y-104231300D01*
X150757601Y-103267799D02*
X150763399Y-103267799D01*
X150757601Y-100622065D02*
X150757601Y-103267799D01*
X150616730Y-100481194D02*
X150757601Y-100622065D01*
X150616730Y-98004694D02*
X150616730Y-100481194D01*
X148518522Y-97785278D02*
X148810622Y-97493178D01*
X148803040Y-93243400D02*
X149188919Y-93629279D01*
X150105214Y-97493178D02*
X150616730Y-98004694D01*
X149188919Y-93629279D02*
X149188919Y-94793253D01*
X148810622Y-97493178D02*
X150105214Y-97493178D01*
X147891500Y-95430340D02*
X147891500Y-96693298D01*
X149188919Y-94793253D02*
X148732172Y-95250000D01*
X147891500Y-96693298D02*
X147632399Y-96952399D01*
X148732172Y-95250000D02*
X148071840Y-95250000D01*
X148071840Y-95250000D02*
X147891500Y-95430340D01*
X147632399Y-96952399D02*
X147632399Y-97408401D01*
X147632399Y-97408401D02*
X148009276Y-97785278D01*
X148009276Y-97785278D02*
X148518522Y-97785278D01*
X151195280Y-81094980D02*
X151195280Y-81589880D01*
X149864400Y-79764100D02*
X151195280Y-81094980D01*
X149864400Y-77889100D02*
X149864400Y-79764100D01*
X151195280Y-82301080D02*
X151195280Y-81589880D01*
X147944200Y-73543160D02*
X147944200Y-75526900D01*
X147944200Y-77887200D02*
X147942300Y-77889100D01*
X147944200Y-77025500D02*
X147944200Y-77887200D01*
X147944200Y-77025500D02*
X147944200Y-75526900D01*
X144064400Y-77889100D02*
X147942300Y-77889100D01*
X147942300Y-77889100D02*
X149864400Y-77889100D01*
X151114800Y-90764400D02*
X151846001Y-91495601D01*
X151455120Y-91104720D02*
X151846001Y-91495601D01*
X151293200Y-91104720D02*
X151455120Y-91104720D01*
X149889800Y-86626700D02*
X149889800Y-87176700D01*
X151504777Y-90264931D02*
X151504777Y-89840667D01*
X151846001Y-91495601D02*
X151504777Y-91154377D01*
X149889800Y-87176700D02*
X151504777Y-88791677D01*
X151504777Y-91154377D02*
X151504777Y-90264931D01*
X151504777Y-89416403D02*
X151504777Y-89840667D01*
X151504777Y-88791677D02*
X151504777Y-89416403D01*
X154686000Y-104267000D02*
X154686000Y-103436998D01*
X153494990Y-90579190D02*
X153004799Y-90088999D01*
X153494990Y-102245988D02*
X153494990Y-90579190D01*
X153004799Y-90088999D02*
X152704800Y-89789000D01*
X154686000Y-103436998D02*
X153494990Y-102245988D01*
X147586965Y-86616735D02*
X148654835Y-86616735D01*
X146956828Y-85986598D02*
X147586965Y-86616735D01*
X148664800Y-86626700D02*
X149889800Y-86626700D01*
X144689800Y-86626700D02*
X145329902Y-85986598D01*
X144089800Y-86626700D02*
X144689800Y-86626700D01*
X145329902Y-85986598D02*
X146956828Y-85986598D01*
X148654835Y-86616735D02*
X148664800Y-86626700D01*
X142519400Y-104790120D02*
X142494000Y-104815520D01*
X142519400Y-102879400D02*
X142519400Y-104790120D01*
X142684000Y-104815520D02*
X143344900Y-104154620D01*
X142494000Y-104815520D02*
X142684000Y-104815520D01*
X144763600Y-105892600D02*
X144725500Y-105854500D01*
X144624198Y-104050000D02*
X145566700Y-104050000D01*
X144624198Y-104050000D02*
X144637167Y-104050000D01*
X144637167Y-104050000D02*
X144602200Y-104015033D01*
X144616700Y-103795300D02*
X144616700Y-103100000D01*
X144602200Y-103809800D02*
X144616700Y-103795300D01*
X144602200Y-104015033D02*
X144602200Y-103809800D01*
X144673236Y-108648500D02*
X145097500Y-108648500D01*
X142684000Y-107975520D02*
X143356980Y-108648500D01*
X142494000Y-107975520D02*
X142684000Y-107975520D01*
X145663600Y-106553000D02*
X145663600Y-105892600D01*
X143356980Y-108648500D02*
X144673236Y-108648500D01*
X145663600Y-108082400D02*
X145663600Y-106553000D01*
X145097500Y-108648500D02*
X145663600Y-108082400D01*
X144763600Y-105892600D02*
X145663600Y-105892600D01*
X144616700Y-103400000D02*
X143824938Y-104191762D01*
X144616700Y-103100000D02*
X144616700Y-103400000D01*
X143824938Y-104953938D02*
X144763600Y-105892600D01*
X143824938Y-104191762D02*
X143824938Y-104953938D01*
X146786600Y-109728000D02*
X146862800Y-109651800D01*
X145716000Y-109728000D02*
X146786600Y-109728000D01*
X144622499Y-110721501D02*
X144622499Y-109921501D01*
X141871700Y-112174200D02*
X143169800Y-112174200D01*
X143169800Y-112174200D02*
X144622499Y-110721501D01*
X144622499Y-109921501D02*
X144816000Y-109728000D01*
X144816000Y-109728000D02*
X145716000Y-109728000D01*
X147129500Y-112692264D02*
X147129500Y-111930264D01*
X146697700Y-111937800D02*
X146829501Y-111805999D01*
X151723800Y-112123400D02*
X150934399Y-112912801D01*
X150934399Y-112912801D02*
X147350037Y-112912801D01*
X147350037Y-112912801D02*
X147129500Y-112692264D01*
X147129500Y-111930264D02*
X147129500Y-111506000D01*
X146829501Y-111805999D02*
X147129500Y-111506000D01*
X145716000Y-111937800D02*
X146697700Y-111937800D01*
X152323800Y-112123400D02*
X151723800Y-112123400D01*
X151113160Y-109923400D02*
X150499100Y-110537460D01*
X152323800Y-109923400D02*
X151113160Y-109923400D01*
X150499100Y-109512460D02*
X150499100Y-110537460D01*
X149649100Y-107837460D02*
X150499100Y-108687460D01*
X149499100Y-107837460D02*
X149649100Y-107837460D01*
X142935840Y-109974200D02*
X143499100Y-110537460D01*
X141871700Y-109974200D02*
X142935840Y-109974200D01*
X150499100Y-108687460D02*
X150499100Y-109512460D01*
X145097500Y-110871000D02*
X149098000Y-110871000D01*
X149098000Y-110871000D02*
X149161500Y-110807500D01*
X144081500Y-96545400D02*
X144345660Y-96281240D01*
X142481300Y-96545400D02*
X144081500Y-96545400D01*
X150171404Y-97205800D02*
X148531664Y-97205800D01*
X151942800Y-101193600D02*
X151692800Y-101193600D01*
X151692800Y-101193600D02*
X150866741Y-100367541D01*
X150866741Y-100367541D02*
X150866741Y-97901137D01*
X150866741Y-97901137D02*
X150171404Y-97205800D01*
X148531664Y-97205800D02*
X148107400Y-97205800D01*
X149791700Y-103100000D02*
X150647400Y-103955700D01*
X149516700Y-103100000D02*
X149791700Y-103100000D01*
X151252300Y-105642600D02*
X151752300Y-105642600D01*
X150647400Y-105037700D02*
X151252300Y-105642600D01*
X150647400Y-103955700D02*
X150647400Y-105037700D01*
X147726400Y-109728000D02*
X148416000Y-109728000D01*
X146664801Y-108666401D02*
X147726400Y-109728000D01*
X146566700Y-104625000D02*
X146664801Y-104723101D01*
X146566700Y-104050000D02*
X146566700Y-104625000D01*
X146664801Y-104723101D02*
X146664801Y-105516801D01*
X146664801Y-105516801D02*
X146664801Y-108666401D01*
X149636501Y-109174301D02*
X149636501Y-111617299D01*
X149316000Y-111937800D02*
X148416000Y-111937800D01*
X149250400Y-108788200D02*
X149636501Y-109174301D01*
X149636501Y-111617299D02*
X149316000Y-111937800D01*
X147370800Y-108788200D02*
X149250400Y-108788200D01*
X147066700Y-108484100D02*
X147218400Y-108635800D01*
X147218400Y-108635800D02*
X147370800Y-108788200D01*
X147066700Y-104625000D02*
X147066700Y-105334500D01*
X147066700Y-105334500D02*
X147066700Y-108484100D01*
X147066700Y-104050000D02*
X147066700Y-104625000D01*
X147066700Y-105166900D02*
X147066700Y-105334500D01*
X144468000Y-90932000D02*
X144243279Y-90707279D01*
X145368000Y-90932000D02*
X144468000Y-90932000D01*
X144243279Y-90707279D02*
X144243279Y-90568581D01*
X144243279Y-90568581D02*
X144243279Y-90144317D01*
X143731740Y-102600000D02*
X143586200Y-102745540D01*
X144616700Y-102600000D02*
X143731740Y-102600000D01*
X139598400Y-109347000D02*
X139446000Y-109347000D01*
X141058900Y-107886500D02*
X139598400Y-109347000D01*
X142481300Y-97845400D02*
X141562300Y-97845400D01*
X141562300Y-97845400D02*
X141058900Y-98348800D01*
X141058900Y-98348800D02*
X141058900Y-99898200D01*
X141058900Y-99898200D02*
X141058900Y-107886500D01*
X151942800Y-102493600D02*
X151942800Y-103093601D01*
X153029920Y-107843320D02*
X154533600Y-109347000D01*
X153029920Y-104180721D02*
X153029920Y-107843320D01*
X154533600Y-109347000D02*
X154686000Y-109347000D01*
X151942800Y-103093601D02*
X153029920Y-104180721D01*
D34*
G36*
X149937400Y-104249791D02*
G01*
X149937401Y-105002816D01*
X149933965Y-105037700D01*
X149947674Y-105176884D01*
X149988272Y-105310719D01*
X150040654Y-105408719D01*
X150054201Y-105434063D01*
X150142926Y-105542175D01*
X150170017Y-105564408D01*
X150364228Y-105758619D01*
X150364228Y-105892600D01*
X150370847Y-105959800D01*
X150386096Y-106114628D01*
X150450859Y-106328122D01*
X150556028Y-106524880D01*
X150697562Y-106697339D01*
X150870021Y-106838873D01*
X151066779Y-106944042D01*
X151280273Y-107008805D01*
X151502300Y-107030673D01*
X152002300Y-107030673D01*
X152224327Y-107008805D01*
X152319921Y-106979807D01*
X152319921Y-107808435D01*
X152316485Y-107843320D01*
X152330194Y-107982504D01*
X152370792Y-108116339D01*
X152412838Y-108195001D01*
X152436721Y-108239683D01*
X152525446Y-108347795D01*
X152552537Y-108370028D01*
X152878110Y-108695601D01*
X152773800Y-108685328D01*
X151873800Y-108685328D01*
X151749318Y-108697588D01*
X151629620Y-108733898D01*
X151519306Y-108792863D01*
X151422615Y-108872215D01*
X151343263Y-108968906D01*
X151284298Y-109079220D01*
X151247988Y-109198918D01*
X151246562Y-109213400D01*
X151209100Y-109213400D01*
X151209100Y-108722337D01*
X151212535Y-108687460D01*
X151198827Y-108548275D01*
X151158228Y-108414440D01*
X151137404Y-108375481D01*
X151092300Y-108291097D01*
X151003574Y-108182985D01*
X150976483Y-108160752D01*
X150754492Y-107938761D01*
X150764470Y-107837460D01*
X150743038Y-107619862D01*
X150679568Y-107410626D01*
X150576496Y-107217794D01*
X150437786Y-107048774D01*
X150268766Y-106910064D01*
X150075934Y-106806992D01*
X149866698Y-106743522D01*
X149703621Y-106727460D01*
X149513513Y-106727460D01*
X149539412Y-106642082D01*
X149551672Y-106517600D01*
X149548600Y-106178350D01*
X149389850Y-106019600D01*
X148290600Y-106019600D01*
X148290600Y-106993850D01*
X148449350Y-107152600D01*
X148475067Y-107152770D01*
X148421704Y-107217794D01*
X148318632Y-107410626D01*
X148255162Y-107619862D01*
X148233730Y-107837460D01*
X148255162Y-108055058D01*
X148262182Y-108078200D01*
X147776700Y-108078200D01*
X147776700Y-107153269D01*
X147877850Y-107152600D01*
X148036600Y-106993850D01*
X148036600Y-106019600D01*
X148016600Y-106019600D01*
X148016600Y-105765600D01*
X148036600Y-105765600D01*
X148036600Y-105745600D01*
X148290600Y-105745600D01*
X148290600Y-105765600D01*
X149389850Y-105765600D01*
X149548600Y-105606850D01*
X149551672Y-105267600D01*
X149539412Y-105143118D01*
X149503102Y-105023420D01*
X149444137Y-104913106D01*
X149364785Y-104816415D01*
X149268094Y-104737063D01*
X149243560Y-104723949D01*
X149295454Y-104626860D01*
X149340341Y-104478887D01*
X149351700Y-104363561D01*
X149351700Y-103885000D01*
X149572609Y-103885000D01*
X149937400Y-104249791D01*
X149937400Y-104249791D01*
G37*
X149937400Y-104249791D02*
X149937401Y-105002816D01*
X149933965Y-105037700D01*
X149947674Y-105176884D01*
X149988272Y-105310719D01*
X150040654Y-105408719D01*
X150054201Y-105434063D01*
X150142926Y-105542175D01*
X150170017Y-105564408D01*
X150364228Y-105758619D01*
X150364228Y-105892600D01*
X150370847Y-105959800D01*
X150386096Y-106114628D01*
X150450859Y-106328122D01*
X150556028Y-106524880D01*
X150697562Y-106697339D01*
X150870021Y-106838873D01*
X151066779Y-106944042D01*
X151280273Y-107008805D01*
X151502300Y-107030673D01*
X152002300Y-107030673D01*
X152224327Y-107008805D01*
X152319921Y-106979807D01*
X152319921Y-107808435D01*
X152316485Y-107843320D01*
X152330194Y-107982504D01*
X152370792Y-108116339D01*
X152412838Y-108195001D01*
X152436721Y-108239683D01*
X152525446Y-108347795D01*
X152552537Y-108370028D01*
X152878110Y-108695601D01*
X152773800Y-108685328D01*
X151873800Y-108685328D01*
X151749318Y-108697588D01*
X151629620Y-108733898D01*
X151519306Y-108792863D01*
X151422615Y-108872215D01*
X151343263Y-108968906D01*
X151284298Y-109079220D01*
X151247988Y-109198918D01*
X151246562Y-109213400D01*
X151209100Y-109213400D01*
X151209100Y-108722337D01*
X151212535Y-108687460D01*
X151198827Y-108548275D01*
X151158228Y-108414440D01*
X151137404Y-108375481D01*
X151092300Y-108291097D01*
X151003574Y-108182985D01*
X150976483Y-108160752D01*
X150754492Y-107938761D01*
X150764470Y-107837460D01*
X150743038Y-107619862D01*
X150679568Y-107410626D01*
X150576496Y-107217794D01*
X150437786Y-107048774D01*
X150268766Y-106910064D01*
X150075934Y-106806992D01*
X149866698Y-106743522D01*
X149703621Y-106727460D01*
X149513513Y-106727460D01*
X149539412Y-106642082D01*
X149551672Y-106517600D01*
X149548600Y-106178350D01*
X149389850Y-106019600D01*
X148290600Y-106019600D01*
X148290600Y-106993850D01*
X148449350Y-107152600D01*
X148475067Y-107152770D01*
X148421704Y-107217794D01*
X148318632Y-107410626D01*
X148255162Y-107619862D01*
X148233730Y-107837460D01*
X148255162Y-108055058D01*
X148262182Y-108078200D01*
X147776700Y-108078200D01*
X147776700Y-107153269D01*
X147877850Y-107152600D01*
X148036600Y-106993850D01*
X148036600Y-106019600D01*
X148016600Y-106019600D01*
X148016600Y-105765600D01*
X148036600Y-105765600D01*
X148036600Y-105745600D01*
X148290600Y-105745600D01*
X148290600Y-105765600D01*
X149389850Y-105765600D01*
X149548600Y-105606850D01*
X149551672Y-105267600D01*
X149539412Y-105143118D01*
X149503102Y-105023420D01*
X149444137Y-104913106D01*
X149364785Y-104816415D01*
X149268094Y-104737063D01*
X149243560Y-104723949D01*
X149295454Y-104626860D01*
X149340341Y-104478887D01*
X149351700Y-104363561D01*
X149351700Y-103885000D01*
X149572609Y-103885000D01*
X149937400Y-104249791D01*
G36*
X146356200Y-100635500D02*
G01*
X147777200Y-100635500D01*
X147777200Y-100615500D01*
X148031200Y-100615500D01*
X148031200Y-100635500D01*
X148051200Y-100635500D01*
X148051200Y-100889500D01*
X148031200Y-100889500D01*
X148031200Y-102310500D01*
X148051200Y-102310500D01*
X148051200Y-102564500D01*
X148031200Y-102564500D01*
X148031200Y-102584500D01*
X147777200Y-102584500D01*
X147777200Y-102564500D01*
X146356200Y-102564500D01*
X146356200Y-102584500D01*
X146102200Y-102584500D01*
X146102200Y-102564500D01*
X146082200Y-102564500D01*
X146082200Y-102310500D01*
X146102200Y-102310500D01*
X146102200Y-100889500D01*
X146356200Y-100889500D01*
X146356200Y-102310500D01*
X147777200Y-102310500D01*
X147777200Y-100889500D01*
X146356200Y-100889500D01*
X146102200Y-100889500D01*
X146082200Y-100889500D01*
X146082200Y-100635500D01*
X146102200Y-100635500D01*
X146102200Y-100615500D01*
X146356200Y-100615500D01*
X146356200Y-100635500D01*
X146356200Y-100635500D01*
G37*
X146356200Y-100635500D02*
X147777200Y-100635500D01*
X147777200Y-100615500D01*
X148031200Y-100615500D01*
X148031200Y-100635500D01*
X148051200Y-100635500D01*
X148051200Y-100889500D01*
X148031200Y-100889500D01*
X148031200Y-102310500D01*
X148051200Y-102310500D01*
X148051200Y-102564500D01*
X148031200Y-102564500D01*
X148031200Y-102584500D01*
X147777200Y-102584500D01*
X147777200Y-102564500D01*
X146356200Y-102564500D01*
X146356200Y-102584500D01*
X146102200Y-102584500D01*
X146102200Y-102564500D01*
X146082200Y-102564500D01*
X146082200Y-102310500D01*
X146102200Y-102310500D01*
X146102200Y-100889500D01*
X146356200Y-100889500D01*
X146356200Y-102310500D01*
X147777200Y-102310500D01*
X147777200Y-100889500D01*
X146356200Y-100889500D01*
X146102200Y-100889500D01*
X146082200Y-100889500D01*
X146082200Y-100635500D01*
X146102200Y-100635500D01*
X146102200Y-100615500D01*
X146356200Y-100615500D01*
X146356200Y-100635500D01*
G36*
X149406709Y-99315000D02*
G01*
X149351700Y-99315000D01*
X149351700Y-98836439D01*
X149340341Y-98721113D01*
X149335919Y-98706537D01*
X149339257Y-98703200D01*
X149406709Y-98703200D01*
X149406709Y-99315000D01*
X149406709Y-99315000D01*
G37*
X149406709Y-99315000D02*
X149351700Y-99315000D01*
X149351700Y-98836439D01*
X149340341Y-98721113D01*
X149335919Y-98706537D01*
X149339257Y-98703200D01*
X149406709Y-98703200D01*
X149406709Y-99315000D01*
G36*
X151610380Y-94956471D02*
G01*
X151516400Y-95050450D01*
X151516400Y-96024700D01*
X151536400Y-96024700D01*
X151536400Y-96278700D01*
X151516400Y-96278700D01*
X151516400Y-97252950D01*
X151639200Y-97375750D01*
X151639200Y-97945923D01*
X151635836Y-97952217D01*
X151595238Y-98086052D01*
X151581529Y-98225236D01*
X151584965Y-98260120D01*
X151584964Y-98766148D01*
X151576741Y-98766958D01*
X151576741Y-97936011D01*
X151580176Y-97901136D01*
X151575535Y-97854016D01*
X151566468Y-97761953D01*
X151525869Y-97628117D01*
X151459941Y-97504774D01*
X151371216Y-97396662D01*
X151344125Y-97374429D01*
X151242523Y-97272827D01*
X151262400Y-97252950D01*
X151262400Y-96278700D01*
X151242400Y-96278700D01*
X151242400Y-96024700D01*
X151262400Y-96024700D01*
X151262400Y-95050450D01*
X151103650Y-94891700D01*
X150639400Y-94888628D01*
X150547667Y-94897663D01*
X150524776Y-94842400D01*
X151496309Y-94842400D01*
X151610380Y-94956471D01*
X151610380Y-94956471D01*
G37*
X151610380Y-94956471D02*
X151516400Y-95050450D01*
X151516400Y-96024700D01*
X151536400Y-96024700D01*
X151536400Y-96278700D01*
X151516400Y-96278700D01*
X151516400Y-97252950D01*
X151639200Y-97375750D01*
X151639200Y-97945923D01*
X151635836Y-97952217D01*
X151595238Y-98086052D01*
X151581529Y-98225236D01*
X151584965Y-98260120D01*
X151584964Y-98766148D01*
X151576741Y-98766958D01*
X151576741Y-97936011D01*
X151580176Y-97901136D01*
X151575535Y-97854016D01*
X151566468Y-97761953D01*
X151525869Y-97628117D01*
X151459941Y-97504774D01*
X151371216Y-97396662D01*
X151344125Y-97374429D01*
X151242523Y-97272827D01*
X151262400Y-97252950D01*
X151262400Y-96278700D01*
X151242400Y-96278700D01*
X151242400Y-96024700D01*
X151262400Y-96024700D01*
X151262400Y-95050450D01*
X151103650Y-94891700D01*
X150639400Y-94888628D01*
X150547667Y-94897663D01*
X150524776Y-94842400D01*
X151496309Y-94842400D01*
X151610380Y-94956471D01*
G36*
X141069131Y-92014586D02*
G01*
X141239291Y-92085068D01*
X141419931Y-92121000D01*
X141424908Y-92121000D01*
X141416023Y-92131826D01*
X141357058Y-92242140D01*
X141320748Y-92361838D01*
X141308488Y-92486320D01*
X141308488Y-93736320D01*
X141320748Y-93860802D01*
X141357058Y-93980500D01*
X141416023Y-94090814D01*
X141474828Y-94162468D01*
X141376806Y-94214863D01*
X141280115Y-94294215D01*
X141200763Y-94390906D01*
X141141798Y-94501220D01*
X141105488Y-94620918D01*
X141093228Y-94745400D01*
X141096300Y-94959650D01*
X141157483Y-95020833D01*
X141145494Y-95042482D01*
X141107409Y-95161627D01*
X141096300Y-95263650D01*
X141230050Y-95397400D01*
X141209052Y-95418398D01*
X141096300Y-95418398D01*
X141096300Y-95531150D01*
X141093228Y-95745400D01*
X141100833Y-95822617D01*
X141096300Y-95827150D01*
X141106240Y-95918438D01*
X141105488Y-95920918D01*
X141093228Y-96045400D01*
X141093228Y-96535084D01*
X141075316Y-96353223D01*
X140989625Y-96070736D01*
X140850469Y-95810394D01*
X140663197Y-95582203D01*
X140435006Y-95394931D01*
X140401460Y-95377000D01*
X140435006Y-95359069D01*
X140663197Y-95171797D01*
X140850469Y-94943606D01*
X140989625Y-94683264D01*
X141075316Y-94400777D01*
X141104251Y-94107000D01*
X141075316Y-93813223D01*
X140989625Y-93530736D01*
X140850469Y-93270394D01*
X140663197Y-93042203D01*
X140435006Y-92854931D01*
X140401460Y-92837000D01*
X140435006Y-92819069D01*
X140663197Y-92631797D01*
X140850469Y-92403606D01*
X140989625Y-92143264D01*
X141035480Y-91992101D01*
X141069131Y-92014586D01*
X141069131Y-92014586D01*
G37*
X141069131Y-92014586D02*
X141239291Y-92085068D01*
X141419931Y-92121000D01*
X141424908Y-92121000D01*
X141416023Y-92131826D01*
X141357058Y-92242140D01*
X141320748Y-92361838D01*
X141308488Y-92486320D01*
X141308488Y-93736320D01*
X141320748Y-93860802D01*
X141357058Y-93980500D01*
X141416023Y-94090814D01*
X141474828Y-94162468D01*
X141376806Y-94214863D01*
X141280115Y-94294215D01*
X141200763Y-94390906D01*
X141141798Y-94501220D01*
X141105488Y-94620918D01*
X141093228Y-94745400D01*
X141096300Y-94959650D01*
X141157483Y-95020833D01*
X141145494Y-95042482D01*
X141107409Y-95161627D01*
X141096300Y-95263650D01*
X141230050Y-95397400D01*
X141209052Y-95418398D01*
X141096300Y-95418398D01*
X141096300Y-95531150D01*
X141093228Y-95745400D01*
X141100833Y-95822617D01*
X141096300Y-95827150D01*
X141106240Y-95918438D01*
X141105488Y-95920918D01*
X141093228Y-96045400D01*
X141093228Y-96535084D01*
X141075316Y-96353223D01*
X140989625Y-96070736D01*
X140850469Y-95810394D01*
X140663197Y-95582203D01*
X140435006Y-95394931D01*
X140401460Y-95377000D01*
X140435006Y-95359069D01*
X140663197Y-95171797D01*
X140850469Y-94943606D01*
X140989625Y-94683264D01*
X141075316Y-94400777D01*
X141104251Y-94107000D01*
X141075316Y-93813223D01*
X140989625Y-93530736D01*
X140850469Y-93270394D01*
X140663197Y-93042203D01*
X140435006Y-92854931D01*
X140401460Y-92837000D01*
X140435006Y-92819069D01*
X140663197Y-92631797D01*
X140850469Y-92403606D01*
X140989625Y-92143264D01*
X141035480Y-91992101D01*
X141069131Y-92014586D01*
G36*
X144092066Y-94266857D02*
G01*
X144202380Y-94325822D01*
X144322078Y-94362132D01*
X144446560Y-94374392D01*
X144546199Y-94373733D01*
X144367132Y-94552800D01*
X144031408Y-94217076D01*
X144092066Y-94266857D01*
X144092066Y-94266857D01*
G37*
X144092066Y-94266857D02*
X144202380Y-94325822D01*
X144322078Y-94362132D01*
X144446560Y-94374392D01*
X144546199Y-94373733D01*
X144367132Y-94552800D01*
X144031408Y-94217076D01*
X144092066Y-94266857D01*
G36*
X145323560Y-92984320D02*
G01*
X145343560Y-92984320D01*
X145343560Y-93238320D01*
X145323560Y-93238320D01*
X145323560Y-93258320D01*
X145069560Y-93258320D01*
X145069560Y-93238320D01*
X145049560Y-93238320D01*
X145049560Y-92984320D01*
X145069560Y-92984320D01*
X145069560Y-92964320D01*
X145323560Y-92964320D01*
X145323560Y-92984320D01*
X145323560Y-92984320D01*
G37*
X145323560Y-92984320D02*
X145343560Y-92984320D01*
X145343560Y-93238320D01*
X145323560Y-93238320D01*
X145323560Y-93258320D01*
X145069560Y-93258320D01*
X145069560Y-93238320D01*
X145049560Y-93238320D01*
X145049560Y-92984320D01*
X145069560Y-92984320D01*
X145069560Y-92964320D01*
X145323560Y-92964320D01*
X145323560Y-92984320D01*
G36*
X144028498Y-91826180D02*
G01*
X144087463Y-91936494D01*
X144099870Y-91951612D01*
X144092066Y-91955783D01*
X143995375Y-92035135D01*
X143946560Y-92094616D01*
X143897745Y-92035135D01*
X143879723Y-92020345D01*
X143948537Y-91936494D01*
X144007502Y-91826180D01*
X144018000Y-91791573D01*
X144028498Y-91826180D01*
X144028498Y-91826180D01*
G37*
X144028498Y-91826180D02*
X144087463Y-91936494D01*
X144099870Y-91951612D01*
X144092066Y-91955783D01*
X143995375Y-92035135D01*
X143946560Y-92094616D01*
X143897745Y-92035135D01*
X143879723Y-92020345D01*
X143948537Y-91936494D01*
X144007502Y-91826180D01*
X144018000Y-91791573D01*
X144028498Y-91826180D01*
G36*
X148920200Y-90977720D02*
G01*
X148940200Y-90977720D01*
X148940200Y-91231720D01*
X148920200Y-91231720D01*
X148920200Y-91251720D01*
X148666200Y-91251720D01*
X148666200Y-91231720D01*
X148646200Y-91231720D01*
X148646200Y-90977720D01*
X148666200Y-90977720D01*
X148666200Y-90957720D01*
X148920200Y-90957720D01*
X148920200Y-90977720D01*
X148920200Y-90977720D01*
G37*
X148920200Y-90977720D02*
X148940200Y-90977720D01*
X148940200Y-91231720D01*
X148920200Y-91231720D01*
X148920200Y-91251720D01*
X148666200Y-91251720D01*
X148666200Y-91231720D01*
X148646200Y-91231720D01*
X148646200Y-90977720D01*
X148666200Y-90977720D01*
X148666200Y-90957720D01*
X148920200Y-90957720D01*
X148920200Y-90977720D01*
G36*
X140912894Y-87276992D02*
G01*
X140953492Y-87410827D01*
X141012891Y-87521954D01*
X141019421Y-87534171D01*
X141108146Y-87642283D01*
X141135236Y-87664515D01*
X141933704Y-88462984D01*
X141955937Y-88490075D01*
X142064049Y-88578800D01*
X142187392Y-88644728D01*
X142321228Y-88685327D01*
X142425535Y-88695600D01*
X142425537Y-88695600D01*
X142435424Y-88696574D01*
X142538550Y-88799700D01*
X143962800Y-88799700D01*
X143962800Y-88779700D01*
X144216800Y-88779700D01*
X144216800Y-88799700D01*
X144236800Y-88799700D01*
X144236800Y-89053700D01*
X144216800Y-89053700D01*
X144216800Y-89073700D01*
X143962800Y-89073700D01*
X143962800Y-89053700D01*
X142538550Y-89053700D01*
X142379800Y-89212450D01*
X142376728Y-89401700D01*
X142388988Y-89526182D01*
X142424706Y-89643928D01*
X141918000Y-89643928D01*
X141793518Y-89656188D01*
X141673820Y-89692498D01*
X141563506Y-89751463D01*
X141466815Y-89830815D01*
X141387463Y-89927506D01*
X141328498Y-90037820D01*
X141292188Y-90157518D01*
X141280245Y-90278786D01*
X141239291Y-90286932D01*
X141069131Y-90357414D01*
X140915992Y-90459738D01*
X140785758Y-90589972D01*
X140763081Y-90623911D01*
X140663197Y-90502203D01*
X140435006Y-90314931D01*
X140401460Y-90297000D01*
X140435006Y-90279069D01*
X140663197Y-90091797D01*
X140850469Y-89863606D01*
X140989625Y-89603264D01*
X141075316Y-89320777D01*
X141104251Y-89027000D01*
X141075316Y-88733223D01*
X140989625Y-88450736D01*
X140850469Y-88190394D01*
X140663197Y-87962203D01*
X140435006Y-87774931D01*
X140401460Y-87757000D01*
X140435006Y-87739069D01*
X140663197Y-87551797D01*
X140850469Y-87323606D01*
X140907058Y-87217736D01*
X140912894Y-87276992D01*
X140912894Y-87276992D01*
G37*
X140912894Y-87276992D02*
X140953492Y-87410827D01*
X141012891Y-87521954D01*
X141019421Y-87534171D01*
X141108146Y-87642283D01*
X141135236Y-87664515D01*
X141933704Y-88462984D01*
X141955937Y-88490075D01*
X142064049Y-88578800D01*
X142187392Y-88644728D01*
X142321228Y-88685327D01*
X142425535Y-88695600D01*
X142425537Y-88695600D01*
X142435424Y-88696574D01*
X142538550Y-88799700D01*
X143962800Y-88799700D01*
X143962800Y-88779700D01*
X144216800Y-88779700D01*
X144216800Y-88799700D01*
X144236800Y-88799700D01*
X144236800Y-89053700D01*
X144216800Y-89053700D01*
X144216800Y-89073700D01*
X143962800Y-89073700D01*
X143962800Y-89053700D01*
X142538550Y-89053700D01*
X142379800Y-89212450D01*
X142376728Y-89401700D01*
X142388988Y-89526182D01*
X142424706Y-89643928D01*
X141918000Y-89643928D01*
X141793518Y-89656188D01*
X141673820Y-89692498D01*
X141563506Y-89751463D01*
X141466815Y-89830815D01*
X141387463Y-89927506D01*
X141328498Y-90037820D01*
X141292188Y-90157518D01*
X141280245Y-90278786D01*
X141239291Y-90286932D01*
X141069131Y-90357414D01*
X140915992Y-90459738D01*
X140785758Y-90589972D01*
X140763081Y-90623911D01*
X140663197Y-90502203D01*
X140435006Y-90314931D01*
X140401460Y-90297000D01*
X140435006Y-90279069D01*
X140663197Y-90091797D01*
X140850469Y-89863606D01*
X140989625Y-89603264D01*
X141075316Y-89320777D01*
X141104251Y-89027000D01*
X141075316Y-88733223D01*
X140989625Y-88450736D01*
X140850469Y-88190394D01*
X140663197Y-87962203D01*
X140435006Y-87774931D01*
X140401460Y-87757000D01*
X140435006Y-87739069D01*
X140663197Y-87551797D01*
X140850469Y-87323606D01*
X140907058Y-87217736D01*
X140912894Y-87276992D01*
G36*
X150794777Y-89085769D02*
G01*
X150794777Y-89228377D01*
X150778515Y-89244639D01*
X150676191Y-89397778D01*
X150605709Y-89567938D01*
X150569777Y-89748578D01*
X150569777Y-89841648D01*
X150543200Y-89841648D01*
X150418718Y-89853908D01*
X150299020Y-89890218D01*
X150287982Y-89896118D01*
X150277516Y-89883366D01*
X150250420Y-89861129D01*
X149279063Y-88889772D01*
X150598780Y-88889772D01*
X150794777Y-89085769D01*
X150794777Y-89085769D01*
G37*
X150794777Y-89085769D02*
X150794777Y-89228377D01*
X150778515Y-89244639D01*
X150676191Y-89397778D01*
X150605709Y-89567938D01*
X150569777Y-89748578D01*
X150569777Y-89841648D01*
X150543200Y-89841648D01*
X150418718Y-89853908D01*
X150299020Y-89890218D01*
X150287982Y-89896118D01*
X150277516Y-89883366D01*
X150250420Y-89861129D01*
X149279063Y-88889772D01*
X150598780Y-88889772D01*
X150794777Y-89085769D01*
G36*
X144825427Y-85482123D02*
G01*
X144803194Y-85509214D01*
X144798780Y-85513628D01*
X143213393Y-85513628D01*
X143262742Y-85439772D01*
X144877032Y-85439772D01*
X144825427Y-85482123D01*
X144825427Y-85482123D01*
G37*
X144825427Y-85482123D02*
X144803194Y-85509214D01*
X144798780Y-85513628D01*
X143213393Y-85513628D01*
X143262742Y-85439772D01*
X144877032Y-85439772D01*
X144825427Y-85482123D01*
G36*
X147215280Y-83494799D02*
G01*
X147215281Y-84783225D01*
X147119170Y-84847444D01*
X146988936Y-84977678D01*
X146886612Y-85130817D01*
X146826228Y-85276598D01*
X145587091Y-85276598D01*
X145615985Y-85252885D01*
X145695337Y-85156194D01*
X145754302Y-85045880D01*
X145790612Y-84926182D01*
X145802872Y-84801700D01*
X145802872Y-83851700D01*
X145802445Y-83847366D01*
X146095820Y-83553992D01*
X146785080Y-83553992D01*
X146909562Y-83541732D01*
X147029260Y-83505422D01*
X147132207Y-83450395D01*
X147215280Y-83494799D01*
X147215280Y-83494799D01*
G37*
X147215280Y-83494799D02*
X147215281Y-84783225D01*
X147119170Y-84847444D01*
X146988936Y-84977678D01*
X146886612Y-85130817D01*
X146826228Y-85276598D01*
X145587091Y-85276598D01*
X145615985Y-85252885D01*
X145695337Y-85156194D01*
X145754302Y-85045880D01*
X145790612Y-84926182D01*
X145802872Y-84801700D01*
X145802872Y-83851700D01*
X145802445Y-83847366D01*
X146095820Y-83553992D01*
X146785080Y-83553992D01*
X146909562Y-83541732D01*
X147029260Y-83505422D01*
X147132207Y-83450395D01*
X147215280Y-83494799D01*
G36*
X142131015Y-74675225D02*
G01*
X142227706Y-74754577D01*
X142338020Y-74813542D01*
X142457718Y-74849852D01*
X142582200Y-74862112D01*
X142616737Y-74861883D01*
X142604958Y-74883920D01*
X142568648Y-75003618D01*
X142556388Y-75128100D01*
X142556388Y-76078100D01*
X142568648Y-76202582D01*
X142604958Y-76322280D01*
X142663923Y-76432594D01*
X142743275Y-76529285D01*
X142839966Y-76608637D01*
X142950280Y-76667602D01*
X143069978Y-76703912D01*
X143194460Y-76716172D01*
X145344460Y-76716172D01*
X145468942Y-76703912D01*
X145588640Y-76667602D01*
X145698954Y-76608637D01*
X145795645Y-76529285D01*
X145874997Y-76432594D01*
X145933962Y-76322280D01*
X145970272Y-76202582D01*
X145982532Y-76078100D01*
X145982532Y-76039659D01*
X146309578Y-75712612D01*
X146336674Y-75690375D01*
X146425400Y-75582263D01*
X146491328Y-75458920D01*
X146531927Y-75325084D01*
X146542200Y-75220777D01*
X146542200Y-75220775D01*
X146545635Y-75185900D01*
X146542200Y-75151025D01*
X146542200Y-74862112D01*
X146582200Y-74862112D01*
X146706682Y-74849852D01*
X146826380Y-74813542D01*
X146936694Y-74754577D01*
X146939674Y-74752132D01*
X146950020Y-74757662D01*
X147069718Y-74793972D01*
X147194200Y-74806232D01*
X147234201Y-74806232D01*
X147234201Y-75492023D01*
X147234200Y-76990623D01*
X147234200Y-77179100D01*
X145931386Y-77179100D01*
X145874997Y-77073606D01*
X145795645Y-76976915D01*
X145698954Y-76897563D01*
X145588640Y-76838598D01*
X145468942Y-76802288D01*
X145344460Y-76790028D01*
X143194460Y-76790028D01*
X143069978Y-76802288D01*
X142950280Y-76838598D01*
X142839966Y-76897563D01*
X142743275Y-76976915D01*
X142663923Y-77073606D01*
X142604958Y-77183920D01*
X142568648Y-77303618D01*
X142556388Y-77428100D01*
X142556388Y-78378100D01*
X142568648Y-78502582D01*
X142604958Y-78622280D01*
X142663923Y-78732594D01*
X142743275Y-78829285D01*
X142839966Y-78908637D01*
X142950280Y-78967602D01*
X143069978Y-79003912D01*
X143194460Y-79016172D01*
X145344460Y-79016172D01*
X145468942Y-79003912D01*
X145588640Y-78967602D01*
X145698954Y-78908637D01*
X145795645Y-78829285D01*
X145874997Y-78732594D01*
X145933962Y-78622280D01*
X145940994Y-78599100D01*
X147907425Y-78599100D01*
X147942300Y-78602535D01*
X147977175Y-78599100D01*
X148356388Y-78599100D01*
X148356388Y-79528100D01*
X148368648Y-79652582D01*
X148404958Y-79772280D01*
X148463923Y-79882594D01*
X148543275Y-79979285D01*
X148639966Y-80058637D01*
X148750280Y-80117602D01*
X148869978Y-80153912D01*
X148994460Y-80166172D01*
X149275886Y-80166172D01*
X149332680Y-80235375D01*
X149359926Y-80268575D01*
X149387017Y-80290808D01*
X150314915Y-81218706D01*
X150289095Y-81239895D01*
X150209743Y-81336586D01*
X150150778Y-81446900D01*
X150114468Y-81566598D01*
X150102208Y-81691080D01*
X150102208Y-82911080D01*
X150114468Y-83035562D01*
X150150778Y-83155260D01*
X150209743Y-83265574D01*
X150289095Y-83362265D01*
X150385786Y-83441617D01*
X150496100Y-83500582D01*
X150615798Y-83536892D01*
X150740280Y-83549152D01*
X151202600Y-83549152D01*
X151202600Y-84410263D01*
X151089282Y-84375888D01*
X150964800Y-84363628D01*
X148814800Y-84363628D01*
X148690318Y-84375888D01*
X148635280Y-84392584D01*
X148635280Y-83494798D01*
X148734774Y-83441617D01*
X148831465Y-83362265D01*
X148910817Y-83265574D01*
X148969782Y-83155260D01*
X149006092Y-83035562D01*
X149018352Y-82911080D01*
X149018352Y-81691080D01*
X149006092Y-81566598D01*
X148969782Y-81446900D01*
X148910817Y-81336586D01*
X148831465Y-81239895D01*
X148734774Y-81160543D01*
X148624460Y-81101578D01*
X148504762Y-81065268D01*
X148380280Y-81053008D01*
X147470280Y-81053008D01*
X147345798Y-81065268D01*
X147226100Y-81101578D01*
X147148757Y-81142919D01*
X147139574Y-81135383D01*
X147029260Y-81076418D01*
X146909562Y-81040108D01*
X146785080Y-81027848D01*
X145877534Y-81027848D01*
X145933962Y-80922280D01*
X145970272Y-80802582D01*
X145982532Y-80678100D01*
X145979460Y-80488850D01*
X145820710Y-80330100D01*
X144396460Y-80330100D01*
X144396460Y-80350100D01*
X144142460Y-80350100D01*
X144142460Y-80330100D01*
X142718210Y-80330100D01*
X142559460Y-80488850D01*
X142556388Y-80678100D01*
X142568648Y-80802582D01*
X142604958Y-80922280D01*
X142663923Y-81032594D01*
X142669380Y-81039243D01*
X142660598Y-81040108D01*
X142540900Y-81076418D01*
X142430586Y-81135383D01*
X142333895Y-81214735D01*
X142254543Y-81311426D01*
X142195578Y-81421740D01*
X142191797Y-81434206D01*
X142099100Y-81341509D01*
X142099100Y-79728100D01*
X142556388Y-79728100D01*
X142559460Y-79917350D01*
X142718210Y-80076100D01*
X144142460Y-80076100D01*
X144142460Y-79251850D01*
X144396460Y-79251850D01*
X144396460Y-80076100D01*
X145820710Y-80076100D01*
X145979460Y-79917350D01*
X145982532Y-79728100D01*
X145970272Y-79603618D01*
X145933962Y-79483920D01*
X145874997Y-79373606D01*
X145795645Y-79276915D01*
X145698954Y-79197563D01*
X145588640Y-79138598D01*
X145468942Y-79102288D01*
X145344460Y-79090028D01*
X144555210Y-79093100D01*
X144396460Y-79251850D01*
X144142460Y-79251850D01*
X143983710Y-79093100D01*
X143194460Y-79090028D01*
X143069978Y-79102288D01*
X142950280Y-79138598D01*
X142839966Y-79197563D01*
X142743275Y-79276915D01*
X142663923Y-79373606D01*
X142604958Y-79483920D01*
X142568648Y-79603618D01*
X142556388Y-79728100D01*
X142099100Y-79728100D01*
X142099100Y-74636336D01*
X142131015Y-74675225D01*
X142131015Y-74675225D01*
G37*
X142131015Y-74675225D02*
X142227706Y-74754577D01*
X142338020Y-74813542D01*
X142457718Y-74849852D01*
X142582200Y-74862112D01*
X142616737Y-74861883D01*
X142604958Y-74883920D01*
X142568648Y-75003618D01*
X142556388Y-75128100D01*
X142556388Y-76078100D01*
X142568648Y-76202582D01*
X142604958Y-76322280D01*
X142663923Y-76432594D01*
X142743275Y-76529285D01*
X142839966Y-76608637D01*
X142950280Y-76667602D01*
X143069978Y-76703912D01*
X143194460Y-76716172D01*
X145344460Y-76716172D01*
X145468942Y-76703912D01*
X145588640Y-76667602D01*
X145698954Y-76608637D01*
X145795645Y-76529285D01*
X145874997Y-76432594D01*
X145933962Y-76322280D01*
X145970272Y-76202582D01*
X145982532Y-76078100D01*
X145982532Y-76039659D01*
X146309578Y-75712612D01*
X146336674Y-75690375D01*
X146425400Y-75582263D01*
X146491328Y-75458920D01*
X146531927Y-75325084D01*
X146542200Y-75220777D01*
X146542200Y-75220775D01*
X146545635Y-75185900D01*
X146542200Y-75151025D01*
X146542200Y-74862112D01*
X146582200Y-74862112D01*
X146706682Y-74849852D01*
X146826380Y-74813542D01*
X146936694Y-74754577D01*
X146939674Y-74752132D01*
X146950020Y-74757662D01*
X147069718Y-74793972D01*
X147194200Y-74806232D01*
X147234201Y-74806232D01*
X147234201Y-75492023D01*
X147234200Y-76990623D01*
X147234200Y-77179100D01*
X145931386Y-77179100D01*
X145874997Y-77073606D01*
X145795645Y-76976915D01*
X145698954Y-76897563D01*
X145588640Y-76838598D01*
X145468942Y-76802288D01*
X145344460Y-76790028D01*
X143194460Y-76790028D01*
X143069978Y-76802288D01*
X142950280Y-76838598D01*
X142839966Y-76897563D01*
X142743275Y-76976915D01*
X142663923Y-77073606D01*
X142604958Y-77183920D01*
X142568648Y-77303618D01*
X142556388Y-77428100D01*
X142556388Y-78378100D01*
X142568648Y-78502582D01*
X142604958Y-78622280D01*
X142663923Y-78732594D01*
X142743275Y-78829285D01*
X142839966Y-78908637D01*
X142950280Y-78967602D01*
X143069978Y-79003912D01*
X143194460Y-79016172D01*
X145344460Y-79016172D01*
X145468942Y-79003912D01*
X145588640Y-78967602D01*
X145698954Y-78908637D01*
X145795645Y-78829285D01*
X145874997Y-78732594D01*
X145933962Y-78622280D01*
X145940994Y-78599100D01*
X147907425Y-78599100D01*
X147942300Y-78602535D01*
X147977175Y-78599100D01*
X148356388Y-78599100D01*
X148356388Y-79528100D01*
X148368648Y-79652582D01*
X148404958Y-79772280D01*
X148463923Y-79882594D01*
X148543275Y-79979285D01*
X148639966Y-80058637D01*
X148750280Y-80117602D01*
X148869978Y-80153912D01*
X148994460Y-80166172D01*
X149275886Y-80166172D01*
X149332680Y-80235375D01*
X149359926Y-80268575D01*
X149387017Y-80290808D01*
X150314915Y-81218706D01*
X150289095Y-81239895D01*
X150209743Y-81336586D01*
X150150778Y-81446900D01*
X150114468Y-81566598D01*
X150102208Y-81691080D01*
X150102208Y-82911080D01*
X150114468Y-83035562D01*
X150150778Y-83155260D01*
X150209743Y-83265574D01*
X150289095Y-83362265D01*
X150385786Y-83441617D01*
X150496100Y-83500582D01*
X150615798Y-83536892D01*
X150740280Y-83549152D01*
X151202600Y-83549152D01*
X151202600Y-84410263D01*
X151089282Y-84375888D01*
X150964800Y-84363628D01*
X148814800Y-84363628D01*
X148690318Y-84375888D01*
X148635280Y-84392584D01*
X148635280Y-83494798D01*
X148734774Y-83441617D01*
X148831465Y-83362265D01*
X148910817Y-83265574D01*
X148969782Y-83155260D01*
X149006092Y-83035562D01*
X149018352Y-82911080D01*
X149018352Y-81691080D01*
X149006092Y-81566598D01*
X148969782Y-81446900D01*
X148910817Y-81336586D01*
X148831465Y-81239895D01*
X148734774Y-81160543D01*
X148624460Y-81101578D01*
X148504762Y-81065268D01*
X148380280Y-81053008D01*
X147470280Y-81053008D01*
X147345798Y-81065268D01*
X147226100Y-81101578D01*
X147148757Y-81142919D01*
X147139574Y-81135383D01*
X147029260Y-81076418D01*
X146909562Y-81040108D01*
X146785080Y-81027848D01*
X145877534Y-81027848D01*
X145933962Y-80922280D01*
X145970272Y-80802582D01*
X145982532Y-80678100D01*
X145979460Y-80488850D01*
X145820710Y-80330100D01*
X144396460Y-80330100D01*
X144396460Y-80350100D01*
X144142460Y-80350100D01*
X144142460Y-80330100D01*
X142718210Y-80330100D01*
X142559460Y-80488850D01*
X142556388Y-80678100D01*
X142568648Y-80802582D01*
X142604958Y-80922280D01*
X142663923Y-81032594D01*
X142669380Y-81039243D01*
X142660598Y-81040108D01*
X142540900Y-81076418D01*
X142430586Y-81135383D01*
X142333895Y-81214735D01*
X142254543Y-81311426D01*
X142195578Y-81421740D01*
X142191797Y-81434206D01*
X142099100Y-81341509D01*
X142099100Y-79728100D01*
X142556388Y-79728100D01*
X142559460Y-79917350D01*
X142718210Y-80076100D01*
X144142460Y-80076100D01*
X144142460Y-79251850D01*
X144396460Y-79251850D01*
X144396460Y-80076100D01*
X145820710Y-80076100D01*
X145979460Y-79917350D01*
X145982532Y-79728100D01*
X145970272Y-79603618D01*
X145933962Y-79483920D01*
X145874997Y-79373606D01*
X145795645Y-79276915D01*
X145698954Y-79197563D01*
X145588640Y-79138598D01*
X145468942Y-79102288D01*
X145344460Y-79090028D01*
X144555210Y-79093100D01*
X144396460Y-79251850D01*
X144142460Y-79251850D01*
X143983710Y-79093100D01*
X143194460Y-79090028D01*
X143069978Y-79102288D01*
X142950280Y-79138598D01*
X142839966Y-79197563D01*
X142743275Y-79276915D01*
X142663923Y-79373606D01*
X142604958Y-79483920D01*
X142568648Y-79603618D01*
X142556388Y-79728100D01*
X142099100Y-79728100D01*
X142099100Y-74636336D01*
X142131015Y-74675225D01*
G36*
X143662080Y-82163920D02*
G01*
X143682080Y-82163920D01*
X143682080Y-82417920D01*
X143662080Y-82417920D01*
X143662080Y-82437920D01*
X143408080Y-82437920D01*
X143408080Y-82417920D01*
X143388080Y-82417920D01*
X143388080Y-82163920D01*
X143408080Y-82163920D01*
X143408080Y-82143920D01*
X143662080Y-82143920D01*
X143662080Y-82163920D01*
X143662080Y-82163920D01*
G37*
X143662080Y-82163920D02*
X143682080Y-82163920D01*
X143682080Y-82417920D01*
X143662080Y-82417920D01*
X143662080Y-82437920D01*
X143408080Y-82437920D01*
X143408080Y-82417920D01*
X143388080Y-82417920D01*
X143388080Y-82163920D01*
X143408080Y-82163920D01*
X143408080Y-82143920D01*
X143662080Y-82143920D01*
X143662080Y-82163920D01*
G36*
X153281531Y-79703606D02*
G01*
X153468803Y-79931797D01*
X153696994Y-80119069D01*
X153730540Y-80137000D01*
X153696994Y-80154931D01*
X153468803Y-80342203D01*
X153281531Y-80570394D01*
X153142375Y-80830736D01*
X153056684Y-81113223D01*
X153027749Y-81407000D01*
X153056684Y-81700777D01*
X153098356Y-81838153D01*
X152622599Y-82313910D01*
X152622599Y-80870076D01*
X152626034Y-80835201D01*
X152617433Y-80747872D01*
X152612326Y-80696017D01*
X152571727Y-80562181D01*
X152505799Y-80438838D01*
X152417073Y-80330726D01*
X152389982Y-80308493D01*
X152119400Y-80037911D01*
X152119400Y-79751200D01*
X152288889Y-79751200D01*
X152469529Y-79715268D01*
X152639689Y-79644786D01*
X152741138Y-79577000D01*
X153213859Y-79577000D01*
X153281531Y-79703606D01*
X153281531Y-79703606D01*
G37*
X153281531Y-79703606D02*
X153468803Y-79931797D01*
X153696994Y-80119069D01*
X153730540Y-80137000D01*
X153696994Y-80154931D01*
X153468803Y-80342203D01*
X153281531Y-80570394D01*
X153142375Y-80830736D01*
X153056684Y-81113223D01*
X153027749Y-81407000D01*
X153056684Y-81700777D01*
X153098356Y-81838153D01*
X152622599Y-82313910D01*
X152622599Y-80870076D01*
X152626034Y-80835201D01*
X152617433Y-80747872D01*
X152612326Y-80696017D01*
X152571727Y-80562181D01*
X152505799Y-80438838D01*
X152417073Y-80330726D01*
X152389982Y-80308493D01*
X152119400Y-80037911D01*
X152119400Y-79751200D01*
X152288889Y-79751200D01*
X152469529Y-79715268D01*
X152639689Y-79644786D01*
X152741138Y-79577000D01*
X153213859Y-79577000D01*
X153281531Y-79703606D01*
G36*
X139573000Y-78740000D02*
G01*
X139593000Y-78740000D01*
X139593000Y-78994000D01*
X139573000Y-78994000D01*
X139573000Y-79014000D01*
X139319000Y-79014000D01*
X139319000Y-78994000D01*
X139299000Y-78994000D01*
X139299000Y-78740000D01*
X139319000Y-78740000D01*
X139319000Y-78720000D01*
X139573000Y-78720000D01*
X139573000Y-78740000D01*
X139573000Y-78740000D01*
G37*
X139573000Y-78740000D02*
X139593000Y-78740000D01*
X139593000Y-78994000D01*
X139573000Y-78994000D01*
X139573000Y-79014000D01*
X139319000Y-79014000D01*
X139319000Y-78994000D01*
X139299000Y-78994000D01*
X139299000Y-78740000D01*
X139319000Y-78740000D01*
X139319000Y-78720000D01*
X139573000Y-78720000D01*
X139573000Y-78740000D01*
G36*
X153031928Y-70749419D02*
G01*
X153031928Y-72110600D01*
X153044188Y-72235082D01*
X153080498Y-72354780D01*
X153139463Y-72465094D01*
X153218815Y-72561785D01*
X153315506Y-72641137D01*
X153425820Y-72700102D01*
X153487912Y-72718937D01*
X153335267Y-72884965D01*
X153182314Y-73136081D01*
X153081291Y-73412211D01*
X153078642Y-73427974D01*
X153199783Y-73660000D01*
X154559000Y-73660000D01*
X154559000Y-73640000D01*
X154813000Y-73640000D01*
X154813000Y-73660000D01*
X154833000Y-73660000D01*
X154833000Y-73914000D01*
X154813000Y-73914000D01*
X154813000Y-73934000D01*
X154559000Y-73934000D01*
X154559000Y-73914000D01*
X153199783Y-73914000D01*
X153078642Y-74146026D01*
X153081291Y-74161789D01*
X153182314Y-74437919D01*
X153335267Y-74689035D01*
X153534271Y-74905486D01*
X153736947Y-75053576D01*
X153696994Y-75074931D01*
X153468803Y-75262203D01*
X153281531Y-75490394D01*
X153142375Y-75750736D01*
X153056684Y-76033223D01*
X153027749Y-76327000D01*
X153056684Y-76620777D01*
X153142375Y-76903264D01*
X153281531Y-77163606D01*
X153468803Y-77391797D01*
X153696994Y-77579069D01*
X153730540Y-77597000D01*
X153696994Y-77614931D01*
X153468803Y-77802203D01*
X153281531Y-78030394D01*
X153213859Y-78157000D01*
X152859890Y-78157000D01*
X152792828Y-78089938D01*
X152639689Y-77987614D01*
X152469529Y-77917132D01*
X152373400Y-77898011D01*
X152373400Y-75523677D01*
X152376835Y-75488800D01*
X152363127Y-75349615D01*
X152322528Y-75215780D01*
X152306557Y-75185900D01*
X152256600Y-75092437D01*
X152167874Y-74984325D01*
X152140783Y-74962092D01*
X151714193Y-74535502D01*
X151724737Y-74522654D01*
X151783702Y-74412340D01*
X151820012Y-74292642D01*
X151832272Y-74168160D01*
X151829200Y-73828910D01*
X151670450Y-73670160D01*
X150571200Y-73670160D01*
X150571200Y-73690160D01*
X150317200Y-73690160D01*
X150317200Y-73670160D01*
X150297200Y-73670160D01*
X150297200Y-73416160D01*
X150317200Y-73416160D01*
X150317200Y-73396160D01*
X150571200Y-73396160D01*
X150571200Y-73416160D01*
X151670450Y-73416160D01*
X151829200Y-73257410D01*
X151832272Y-72918160D01*
X151820012Y-72793678D01*
X151783702Y-72673980D01*
X151724737Y-72563666D01*
X151645385Y-72466975D01*
X151548694Y-72387623D01*
X151438380Y-72328658D01*
X151318682Y-72292348D01*
X151194200Y-72280088D01*
X150729950Y-72283160D01*
X150571202Y-72441908D01*
X150571202Y-72381609D01*
X150664797Y-72304797D01*
X150852069Y-72076606D01*
X150991225Y-71816264D01*
X151076916Y-71533777D01*
X151105851Y-71240000D01*
X151076916Y-70946223D01*
X151013692Y-70737800D01*
X153020309Y-70737800D01*
X153031928Y-70749419D01*
X153031928Y-70749419D01*
G37*
X153031928Y-70749419D02*
X153031928Y-72110600D01*
X153044188Y-72235082D01*
X153080498Y-72354780D01*
X153139463Y-72465094D01*
X153218815Y-72561785D01*
X153315506Y-72641137D01*
X153425820Y-72700102D01*
X153487912Y-72718937D01*
X153335267Y-72884965D01*
X153182314Y-73136081D01*
X153081291Y-73412211D01*
X153078642Y-73427974D01*
X153199783Y-73660000D01*
X154559000Y-73660000D01*
X154559000Y-73640000D01*
X154813000Y-73640000D01*
X154813000Y-73660000D01*
X154833000Y-73660000D01*
X154833000Y-73914000D01*
X154813000Y-73914000D01*
X154813000Y-73934000D01*
X154559000Y-73934000D01*
X154559000Y-73914000D01*
X153199783Y-73914000D01*
X153078642Y-74146026D01*
X153081291Y-74161789D01*
X153182314Y-74437919D01*
X153335267Y-74689035D01*
X153534271Y-74905486D01*
X153736947Y-75053576D01*
X153696994Y-75074931D01*
X153468803Y-75262203D01*
X153281531Y-75490394D01*
X153142375Y-75750736D01*
X153056684Y-76033223D01*
X153027749Y-76327000D01*
X153056684Y-76620777D01*
X153142375Y-76903264D01*
X153281531Y-77163606D01*
X153468803Y-77391797D01*
X153696994Y-77579069D01*
X153730540Y-77597000D01*
X153696994Y-77614931D01*
X153468803Y-77802203D01*
X153281531Y-78030394D01*
X153213859Y-78157000D01*
X152859890Y-78157000D01*
X152792828Y-78089938D01*
X152639689Y-77987614D01*
X152469529Y-77917132D01*
X152373400Y-77898011D01*
X152373400Y-75523677D01*
X152376835Y-75488800D01*
X152363127Y-75349615D01*
X152322528Y-75215780D01*
X152306557Y-75185900D01*
X152256600Y-75092437D01*
X152167874Y-74984325D01*
X152140783Y-74962092D01*
X151714193Y-74535502D01*
X151724737Y-74522654D01*
X151783702Y-74412340D01*
X151820012Y-74292642D01*
X151832272Y-74168160D01*
X151829200Y-73828910D01*
X151670450Y-73670160D01*
X150571200Y-73670160D01*
X150571200Y-73690160D01*
X150317200Y-73690160D01*
X150317200Y-73670160D01*
X150297200Y-73670160D01*
X150297200Y-73416160D01*
X150317200Y-73416160D01*
X150317200Y-73396160D01*
X150571200Y-73396160D01*
X150571200Y-73416160D01*
X151670450Y-73416160D01*
X151829200Y-73257410D01*
X151832272Y-72918160D01*
X151820012Y-72793678D01*
X151783702Y-72673980D01*
X151724737Y-72563666D01*
X151645385Y-72466975D01*
X151548694Y-72387623D01*
X151438380Y-72328658D01*
X151318682Y-72292348D01*
X151194200Y-72280088D01*
X150729950Y-72283160D01*
X150571202Y-72441908D01*
X150571202Y-72381609D01*
X150664797Y-72304797D01*
X150852069Y-72076606D01*
X150991225Y-71816264D01*
X151076916Y-71533777D01*
X151105851Y-71240000D01*
X151076916Y-70946223D01*
X151013692Y-70737800D01*
X153020309Y-70737800D01*
X153031928Y-70749419D01*
G36*
X143065037Y-70880973D02*
G01*
X143185536Y-71113000D01*
X144393000Y-71113000D01*
X144393000Y-71093000D01*
X144647000Y-71093000D01*
X144647000Y-71113000D01*
X144667000Y-71113000D01*
X144667000Y-71367000D01*
X144647000Y-71367000D01*
X144647000Y-71387000D01*
X144393000Y-71387000D01*
X144393000Y-71367000D01*
X143185536Y-71367000D01*
X143065037Y-71599027D01*
X143163036Y-71875978D01*
X143313183Y-72128488D01*
X143509707Y-72346854D01*
X143567190Y-72389800D01*
X143459200Y-72497790D01*
X143459200Y-73472040D01*
X143479200Y-73472040D01*
X143479200Y-73726040D01*
X143459200Y-73726040D01*
X143459200Y-73746040D01*
X143205200Y-73746040D01*
X143205200Y-73726040D01*
X143185200Y-73726040D01*
X143185200Y-73472040D01*
X143205200Y-73472040D01*
X143205200Y-72497790D01*
X143046450Y-72339040D01*
X142582200Y-72335968D01*
X142457718Y-72348228D01*
X142338020Y-72384538D01*
X142227706Y-72443503D01*
X142131015Y-72522855D01*
X142099100Y-72561744D01*
X142099100Y-70873071D01*
X142158171Y-70814000D01*
X143088735Y-70814000D01*
X143065037Y-70880973D01*
X143065037Y-70880973D01*
G37*
X143065037Y-70880973D02*
X143185536Y-71113000D01*
X144393000Y-71113000D01*
X144393000Y-71093000D01*
X144647000Y-71093000D01*
X144647000Y-71113000D01*
X144667000Y-71113000D01*
X144667000Y-71367000D01*
X144647000Y-71367000D01*
X144647000Y-71387000D01*
X144393000Y-71387000D01*
X144393000Y-71367000D01*
X143185536Y-71367000D01*
X143065037Y-71599027D01*
X143163036Y-71875978D01*
X143313183Y-72128488D01*
X143509707Y-72346854D01*
X143567190Y-72389800D01*
X143459200Y-72497790D01*
X143459200Y-73472040D01*
X143479200Y-73472040D01*
X143479200Y-73726040D01*
X143459200Y-73726040D01*
X143459200Y-73746040D01*
X143205200Y-73746040D01*
X143205200Y-73726040D01*
X143185200Y-73726040D01*
X143185200Y-73472040D01*
X143205200Y-73472040D01*
X143205200Y-72497790D01*
X143046450Y-72339040D01*
X142582200Y-72335968D01*
X142457718Y-72348228D01*
X142338020Y-72384538D01*
X142227706Y-72443503D01*
X142131015Y-72522855D01*
X142099100Y-72561744D01*
X142099100Y-70873071D01*
X142158171Y-70814000D01*
X143088735Y-70814000D01*
X143065037Y-70880973D01*
G36*
X152854209Y-68151332D02*
G01*
X152781000Y-68519374D01*
X152781000Y-68894626D01*
X152854209Y-69262668D01*
X152877045Y-69317800D01*
X151101672Y-69317800D01*
X151101672Y-67945000D01*
X152939674Y-67945000D01*
X152854209Y-68151332D01*
X152854209Y-68151332D01*
G37*
X152854209Y-68151332D02*
X152781000Y-68519374D01*
X152781000Y-68894626D01*
X152854209Y-69262668D01*
X152877045Y-69317800D01*
X151101672Y-69317800D01*
X151101672Y-67945000D01*
X152939674Y-67945000D01*
X152854209Y-68151332D01*
G36*
X143128775Y-68123736D02*
G01*
X143043084Y-68406223D01*
X143014149Y-68700000D01*
X143043084Y-68993777D01*
X143072030Y-69089200D01*
X141791162Y-69089200D01*
X141756287Y-69085765D01*
X141721412Y-69089200D01*
X141721410Y-69089200D01*
X141617103Y-69099473D01*
X141483267Y-69140072D01*
X141359924Y-69206000D01*
X141271053Y-69278934D01*
X141277791Y-69262668D01*
X141351000Y-68894626D01*
X141351000Y-68519374D01*
X141277791Y-68151332D01*
X141192326Y-67945000D01*
X143224312Y-67945000D01*
X143128775Y-68123736D01*
X143128775Y-68123736D01*
G37*
X143128775Y-68123736D02*
X143043084Y-68406223D01*
X143014149Y-68700000D01*
X143043084Y-68993777D01*
X143072030Y-69089200D01*
X141791162Y-69089200D01*
X141756287Y-69085765D01*
X141721412Y-69089200D01*
X141721410Y-69089200D01*
X141617103Y-69099473D01*
X141483267Y-69140072D01*
X141359924Y-69206000D01*
X141271053Y-69278934D01*
X141277791Y-69262668D01*
X141351000Y-68894626D01*
X141351000Y-68519374D01*
X141277791Y-68151332D01*
X141192326Y-67945000D01*
X143224312Y-67945000D01*
X143128775Y-68123736D01*
M02*
