M48
; DRILL file {KiCad 5.1.0-rc2-unknown-6eb84e4~82~ubuntu16.04.1} date Pi 15. marec 2019, 17:01:56 CET
; FORMAT={-:-/ absolute / metric / decimal}
; #@! TF.CreationDate,2019-03-15T17:01:56+01:00
; #@! TF.GenerationSoftware,Kicad,Pcbnew,5.1.0-rc2-unknown-6eb84e4~82~ubuntu16.04.1
FMAT,2
METRIC
T1C0.400
T2C0.500
T3C0.550
T4C1.016
T5C1.778
%
G90
G05
T1
X140.36Y-80.327
X141.447Y-82.614
X141.478Y-89.916
X141.512Y-91.186
X141.946Y-79.182
X142.095Y-88.436
X142.126Y-73.622
X142.367Y-70.739
X142.43Y-69.215
X142.448Y-84.976
X142.761Y-76.838
X143.358Y-85.42
X143.472Y-103.591
X144.243Y-90.144
X144.268Y-95.951
X144.437Y-104.94
X144.45Y-88.062
X144.57Y-94.597
X144.787Y-96.421
X144.869Y-95.377
X145.097Y-108.648
X145.097Y-110.871
X145.4Y-88.002
X145.759Y-94.165
X145.878Y-97.548
X145.898Y-85.395
X145.898Y-86.512
X145.981Y-96.826
X146.101Y-87.986
X146.609Y-97.625
X146.863Y-109.652
X147.051Y-88.118
X147.13Y-111.506
X147.138Y-95.576
X147.715Y-85.574
X147.774Y-94.498
X147.904Y-89.23
X148.006Y-87.345
X148.107Y-97.206
X148.415Y-86.106
X148.714Y-94.371
X148.996Y-72.542
X149.161Y-110.807
X149.25Y-98.514
X149.301Y-89.002
X149.504Y-74.905
X149.652Y-95.179
X150.066Y-106.175
X150.213Y-96.332
X151.293Y-92.13
X151.505Y-89.841
X151.613Y-85.268
X151.956Y-68.834
X152.082Y-70.63
X152.197Y-78.816
X152.705Y-89.789
X152.77Y-98.958
X152.781Y-75.997
X152.781Y-79.807
X152.806Y-78.054
X153.34Y-103.467
T4
X154.686Y-71.247
X154.686Y-73.787
X154.686Y-76.327
X154.686Y-78.867
X154.686Y-81.407
X154.686Y-83.947
X154.686Y-86.487
X154.686Y-89.027
X154.686Y-91.567
X154.686Y-94.107
X154.686Y-96.647
X154.686Y-99.187
X154.686Y-101.727
X154.686Y-104.267
X154.686Y-106.807
X154.686Y-109.347
X139.446Y-71.247
X139.446Y-73.787
X139.446Y-76.327
X139.446Y-78.867
X139.446Y-81.407
X139.446Y-83.947
X139.446Y-86.487
X139.446Y-89.027
X139.446Y-91.567
X139.446Y-94.107
X139.446Y-96.647
X139.446Y-99.187
X139.446Y-101.727
X139.446Y-104.267
X139.446Y-106.807
X139.446Y-109.347
X144.52Y-68.7
X144.52Y-71.24
X147.06Y-68.7
X147.06Y-71.24
X149.6Y-68.7
X149.6Y-71.24
T5
X154.686Y-68.707
X154.7Y-112.1
X139.446Y-68.707
X139.4Y-112.1
T2
G00X143.499Y-110.862
M15
G01X143.499Y-110.212
M16
G05
G00X150.499Y-110.862
M15
G01X150.499Y-110.212
M16
G05
T3
G00X144.349Y-107.837
M15
G01X144.649Y-107.837
M16
G05
G00X149.349Y-107.837
M15
G01X149.649Y-107.837
M16
G05
T0
M30
