G04 #@! TF.GenerationSoftware,KiCad,Pcbnew,5.1.0-rc2-unknown-6eb84e4~82~ubuntu16.04.1*
G04 #@! TF.CreationDate,2019-03-15T17:01:55+01:00*
G04 #@! TF.ProjectId,arduino_nanoPB,61726475-696e-46f5-9f6e-616e6f50422e,rev?*
G04 #@! TF.SameCoordinates,Original*
G04 #@! TF.FileFunction,Legend,Bot*
G04 #@! TF.FilePolarity,Positive*
%FSLAX46Y46*%
G04 Gerber Fmt 4.6, Leading zero omitted, Abs format (unit mm)*
G04 Created by KiCad (PCBNEW 5.1.0-rc2-unknown-6eb84e4~82~ubuntu16.04.1) date 2019-03-15 17:01:55*
%MOMM*%
%LPD*%
G04 APERTURE LIST*
%ADD10C,0.100000*%
%ADD11C,0.150000*%
%ADD12R,1.675000X1.675000*%
%ADD13O,0.850000X0.300000*%
%ADD14O,0.300000X0.850000*%
%ADD15C,1.000000*%
%ADD16R,1.500000X0.500000*%
%ADD17R,1.500000X1.000000*%
%ADD18O,2.032000X1.727200*%
%ADD19R,2.032000X1.727200*%
%ADD20R,1.500000X1.250000*%
%ADD21C,2.540000*%
%ADD22R,1.220000X0.910000*%
%ADD23R,0.910000X1.220000*%
%ADD24R,2.030000X1.650000*%
%ADD25O,1.250000X0.950000*%
%ADD26O,1.000000X1.550000*%
%ADD27R,1.727200X1.727200*%
%ADD28O,1.727200X1.727200*%
%ADD29R,1.500000X1.300000*%
%ADD30R,0.900000X1.200000*%
%ADD31R,2.150000X0.950000*%
%ADD32R,2.150000X3.250000*%
G04 APERTURE END LIST*
D10*
X144989504Y-94837466D02*
X144189504Y-94837466D01*
X144189504Y-95142228D01*
X144227600Y-95218419D01*
X144265695Y-95256514D01*
X144341885Y-95294609D01*
X144456171Y-95294609D01*
X144532361Y-95256514D01*
X144570457Y-95218419D01*
X144608552Y-95142228D01*
X144608552Y-94837466D01*
X144760933Y-95599371D02*
X144760933Y-95980323D01*
X144989504Y-95523180D02*
X144189504Y-95789847D01*
X144989504Y-96056514D01*
X145256171Y-96513657D02*
X144113314Y-96513657D01*
X144989504Y-97085085D02*
X144189504Y-97085085D01*
X144189504Y-97389847D01*
X144227600Y-97466038D01*
X144265695Y-97504133D01*
X144341885Y-97542228D01*
X144456171Y-97542228D01*
X144532361Y-97504133D01*
X144570457Y-97466038D01*
X144608552Y-97389847D01*
X144608552Y-97085085D01*
X144570457Y-98151752D02*
X144608552Y-98266038D01*
X144646647Y-98304133D01*
X144722838Y-98342228D01*
X144837123Y-98342228D01*
X144913314Y-98304133D01*
X144951409Y-98266038D01*
X144989504Y-98189847D01*
X144989504Y-97885085D01*
X144189504Y-97885085D01*
X144189504Y-98151752D01*
X144227600Y-98227942D01*
X144265695Y-98266038D01*
X144341885Y-98304133D01*
X144418076Y-98304133D01*
X144494266Y-98266038D01*
X144532361Y-98227942D01*
X144570457Y-98151752D01*
X144570457Y-97885085D01*
X150856904Y-99511066D02*
X150056904Y-99511066D01*
X150056904Y-99815828D01*
X150095000Y-99892019D01*
X150133095Y-99930114D01*
X150209285Y-99968209D01*
X150323571Y-99968209D01*
X150399761Y-99930114D01*
X150437857Y-99892019D01*
X150475952Y-99815828D01*
X150475952Y-99511066D01*
X150628333Y-100272971D02*
X150628333Y-100653923D01*
X150856904Y-100196780D02*
X150056904Y-100463447D01*
X150856904Y-100730114D01*
X151123571Y-101187257D02*
X149980714Y-101187257D01*
X150856904Y-101758685D02*
X150056904Y-101758685D01*
X150056904Y-102063447D01*
X150095000Y-102139638D01*
X150133095Y-102177733D01*
X150209285Y-102215828D01*
X150323571Y-102215828D01*
X150399761Y-102177733D01*
X150437857Y-102139638D01*
X150475952Y-102063447D01*
X150475952Y-101758685D01*
X150437857Y-102825352D02*
X150475952Y-102939638D01*
X150514047Y-102977733D01*
X150590238Y-103015828D01*
X150704523Y-103015828D01*
X150780714Y-102977733D01*
X150818809Y-102939638D01*
X150856904Y-102863447D01*
X150856904Y-102558685D01*
X150056904Y-102558685D01*
X150056904Y-102825352D01*
X150095000Y-102901542D01*
X150133095Y-102939638D01*
X150209285Y-102977733D01*
X150285476Y-102977733D01*
X150361666Y-102939638D01*
X150399761Y-102901542D01*
X150437857Y-102825352D01*
X150437857Y-102558685D01*
X150564804Y-105016414D02*
X149764804Y-105016414D01*
X149764804Y-105206890D01*
X149802900Y-105321176D01*
X149879090Y-105397366D01*
X149955280Y-105435461D01*
X150107661Y-105473557D01*
X150221947Y-105473557D01*
X150374328Y-105435461D01*
X150450519Y-105397366D01*
X150526709Y-105321176D01*
X150564804Y-105206890D01*
X150564804Y-105016414D01*
X149764804Y-105702128D02*
X149764804Y-106159271D01*
X150564804Y-105930700D02*
X149764804Y-105930700D01*
X150564804Y-106883080D02*
X150183852Y-106616414D01*
X150564804Y-106425938D02*
X149764804Y-106425938D01*
X149764804Y-106730700D01*
X149802900Y-106806890D01*
X149840995Y-106844985D01*
X149917185Y-106883080D01*
X150031471Y-106883080D01*
X150107661Y-106844985D01*
X150145757Y-106806890D01*
X150183852Y-106730700D01*
X150183852Y-106425938D01*
X147586571Y-70275409D02*
X147472285Y-70313504D01*
X147281809Y-70313504D01*
X147205619Y-70275409D01*
X147167523Y-70237314D01*
X147129428Y-70161123D01*
X147129428Y-70084933D01*
X147167523Y-70008742D01*
X147205619Y-69970647D01*
X147281809Y-69932552D01*
X147434190Y-69894457D01*
X147510380Y-69856361D01*
X147548476Y-69818266D01*
X147586571Y-69742076D01*
X147586571Y-69665885D01*
X147548476Y-69589695D01*
X147510380Y-69551600D01*
X147434190Y-69513504D01*
X147243714Y-69513504D01*
X147129428Y-69551600D01*
X146329428Y-70237314D02*
X146367523Y-70275409D01*
X146481809Y-70313504D01*
X146558000Y-70313504D01*
X146672285Y-70275409D01*
X146748476Y-70199219D01*
X146786571Y-70123028D01*
X146824666Y-69970647D01*
X146824666Y-69856361D01*
X146786571Y-69703980D01*
X146748476Y-69627790D01*
X146672285Y-69551600D01*
X146558000Y-69513504D01*
X146481809Y-69513504D01*
X146367523Y-69551600D01*
X146329428Y-69589695D01*
X145986571Y-70313504D02*
X145986571Y-69513504D01*
X145529428Y-70313504D02*
X145872285Y-69856361D01*
X145529428Y-69513504D02*
X145986571Y-69970647D01*
X151923695Y-71957961D02*
X151923695Y-72338914D01*
X151542742Y-72377009D01*
X151580838Y-72338914D01*
X151618933Y-72262723D01*
X151618933Y-72072247D01*
X151580838Y-71996057D01*
X151542742Y-71957961D01*
X151466552Y-71919866D01*
X151276076Y-71919866D01*
X151199885Y-71957961D01*
X151161790Y-71996057D01*
X151123695Y-72072247D01*
X151123695Y-72262723D01*
X151161790Y-72338914D01*
X151199885Y-72377009D01*
X151923695Y-71691295D02*
X151123695Y-71424628D01*
X151923695Y-71157961D01*
X151123695Y-70281771D02*
X151923695Y-70281771D01*
X151352266Y-70015104D01*
X151923695Y-69748438D01*
X151123695Y-69748438D01*
X151123695Y-69367485D02*
X151923695Y-69367485D01*
X151161790Y-69024628D02*
X151123695Y-68910342D01*
X151123695Y-68719866D01*
X151161790Y-68643676D01*
X151199885Y-68605580D01*
X151276076Y-68567485D01*
X151352266Y-68567485D01*
X151428457Y-68605580D01*
X151466552Y-68643676D01*
X151504647Y-68719866D01*
X151542742Y-68872247D01*
X151580838Y-68948438D01*
X151618933Y-68986533D01*
X151695123Y-69024628D01*
X151771314Y-69024628D01*
X151847504Y-68986533D01*
X151885600Y-68948438D01*
X151923695Y-68872247D01*
X151923695Y-68681771D01*
X151885600Y-68567485D01*
X151923695Y-68072247D02*
X151923695Y-67919866D01*
X151885600Y-67843676D01*
X151809409Y-67767485D01*
X151657028Y-67729390D01*
X151390361Y-67729390D01*
X151237980Y-67767485D01*
X151161790Y-67843676D01*
X151123695Y-67919866D01*
X151123695Y-68072247D01*
X151161790Y-68148438D01*
X151237980Y-68224628D01*
X151390361Y-68262723D01*
X151657028Y-68262723D01*
X151809409Y-68224628D01*
X151885600Y-68148438D01*
X151923695Y-68072247D01*
X143148000Y-72154800D02*
X143186095Y-72230990D01*
X143186095Y-72345276D01*
X143148000Y-72459561D01*
X143071809Y-72535752D01*
X142995619Y-72573847D01*
X142843238Y-72611942D01*
X142728952Y-72611942D01*
X142576571Y-72573847D01*
X142500380Y-72535752D01*
X142424190Y-72459561D01*
X142386095Y-72345276D01*
X142386095Y-72269085D01*
X142424190Y-72154800D01*
X142462285Y-72116704D01*
X142728952Y-72116704D01*
X142728952Y-72269085D01*
X142386095Y-71773847D02*
X143186095Y-71773847D01*
X142386095Y-71316704D01*
X143186095Y-71316704D01*
X142386095Y-70935752D02*
X143186095Y-70935752D01*
X143186095Y-70745276D01*
X143148000Y-70630990D01*
X143071809Y-70554800D01*
X142995619Y-70516704D01*
X142843238Y-70478609D01*
X142728952Y-70478609D01*
X142576571Y-70516704D01*
X142500380Y-70554800D01*
X142424190Y-70630990D01*
X142386095Y-70745276D01*
X142386095Y-70935752D01*
X142386095Y-69069085D02*
X142767047Y-69335752D01*
X142386095Y-69526228D02*
X143186095Y-69526228D01*
X143186095Y-69221466D01*
X143148000Y-69145276D01*
X143109904Y-69107180D01*
X143033714Y-69069085D01*
X142919428Y-69069085D01*
X142843238Y-69107180D01*
X142805142Y-69145276D01*
X142767047Y-69221466D01*
X142767047Y-69526228D01*
X142424190Y-68764323D02*
X142386095Y-68650038D01*
X142386095Y-68459561D01*
X142424190Y-68383371D01*
X142462285Y-68345276D01*
X142538476Y-68307180D01*
X142614666Y-68307180D01*
X142690857Y-68345276D01*
X142728952Y-68383371D01*
X142767047Y-68459561D01*
X142805142Y-68611942D01*
X142843238Y-68688133D01*
X142881333Y-68726228D01*
X142957523Y-68764323D01*
X143033714Y-68764323D01*
X143109904Y-68726228D01*
X143148000Y-68688133D01*
X143186095Y-68611942D01*
X143186095Y-68421466D01*
X143148000Y-68307180D01*
X143186095Y-68078609D02*
X143186095Y-67621466D01*
X142386095Y-67850038D02*
X143186095Y-67850038D01*
X148018342Y-72904304D02*
X148018342Y-72104304D01*
X147751676Y-72675733D01*
X147485009Y-72104304D01*
X147485009Y-72904304D01*
X146951676Y-72104304D02*
X146799295Y-72104304D01*
X146723104Y-72142400D01*
X146646914Y-72218590D01*
X146608819Y-72370971D01*
X146608819Y-72637638D01*
X146646914Y-72790019D01*
X146723104Y-72866209D01*
X146799295Y-72904304D01*
X146951676Y-72904304D01*
X147027866Y-72866209D01*
X147104057Y-72790019D01*
X147142152Y-72637638D01*
X147142152Y-72370971D01*
X147104057Y-72218590D01*
X147027866Y-72142400D01*
X146951676Y-72104304D01*
X146304057Y-72866209D02*
X146189771Y-72904304D01*
X145999295Y-72904304D01*
X145923104Y-72866209D01*
X145885009Y-72828114D01*
X145846914Y-72751923D01*
X145846914Y-72675733D01*
X145885009Y-72599542D01*
X145923104Y-72561447D01*
X145999295Y-72523352D01*
X146151676Y-72485257D01*
X146227866Y-72447161D01*
X146265961Y-72409066D01*
X146304057Y-72332876D01*
X146304057Y-72256685D01*
X146265961Y-72180495D01*
X146227866Y-72142400D01*
X146151676Y-72104304D01*
X145961200Y-72104304D01*
X145846914Y-72142400D01*
X145504057Y-72904304D02*
X145504057Y-72104304D01*
D11*
X149691700Y-98975000D02*
X149691700Y-99725000D01*
X144441700Y-98975000D02*
X144441700Y-99725000D01*
X144441700Y-104225000D02*
X144441700Y-103475000D01*
X149691700Y-104225000D02*
X149691700Y-103475000D01*
X144441700Y-98975000D02*
X145191700Y-98975000D01*
X144441700Y-104225000D02*
X145191700Y-104225000D01*
X149691700Y-98975000D02*
X148941700Y-98975000D01*
X151642800Y-103243600D02*
X152242800Y-103243600D01*
X150942800Y-99793600D02*
X150942800Y-102593600D01*
X152242800Y-99143600D02*
X151642800Y-99143600D01*
X152942800Y-102593600D02*
X152942800Y-99793600D01*
X152942800Y-99843600D02*
G75*
G03X152242800Y-99143600I-700000J0D01*
G01*
X151642800Y-99143600D02*
G75*
G03X150942800Y-99843600I0J-700000D01*
G01*
X150942800Y-102543600D02*
G75*
G03X151642800Y-103243600I700000J0D01*
G01*
X152242800Y-103243600D02*
G75*
G03X152942800Y-102543600I0J700000D01*
G01*
X149639400Y-95301700D02*
X150639400Y-95301700D01*
X150639400Y-97001700D02*
X149639400Y-97001700D01*
X144285080Y-81440920D02*
X145285080Y-81440920D01*
X145285080Y-83140920D02*
X144285080Y-83140920D01*
X145082200Y-74449040D02*
X144082200Y-74449040D01*
X144082200Y-72749040D02*
X145082200Y-72749040D01*
X149553040Y-92393400D02*
X150553040Y-92393400D01*
X150553040Y-94093400D02*
X149553040Y-94093400D01*
X149694200Y-74393160D02*
X148694200Y-74393160D01*
X148694200Y-72693160D02*
X149694200Y-72693160D01*
X144446560Y-93961320D02*
X143446560Y-93961320D01*
X143446560Y-92261320D02*
X144446560Y-92261320D01*
X150543200Y-91954720D02*
X149543200Y-91954720D01*
X149543200Y-90254720D02*
X150543200Y-90254720D01*
X142519400Y-101561900D02*
X142519400Y-101942900D01*
X142519400Y-100545900D02*
X142519400Y-100926900D01*
X142519400Y-100926900D02*
X142138400Y-101561900D01*
X142138400Y-101561900D02*
X142900400Y-101561900D01*
X142900400Y-101561900D02*
X142519400Y-100926900D01*
X142011400Y-100926900D02*
X143027400Y-100926900D01*
X143419400Y-99244400D02*
X143419400Y-102784400D01*
X141619400Y-99244400D02*
X141619400Y-102784400D01*
X149877780Y-82301080D02*
X150258780Y-82301080D01*
X148861780Y-82301080D02*
X149242780Y-82301080D01*
X149242780Y-82301080D02*
X149877780Y-82682080D01*
X149877780Y-82682080D02*
X149877780Y-81920080D01*
X149877780Y-81920080D02*
X149242780Y-82301080D01*
X149242780Y-82809080D02*
X149242780Y-81793080D01*
X147560280Y-81401080D02*
X151100280Y-81401080D01*
X147560280Y-83201080D02*
X151100280Y-83201080D01*
X141424000Y-105395520D02*
X141424000Y-107395520D01*
X143564000Y-107395520D02*
X143564000Y-105395520D01*
X142781300Y-98595400D02*
G75*
G03X143481300Y-97895400I0J700000D01*
G01*
X141481300Y-97895400D02*
G75*
G03X142181300Y-98595400I700000J0D01*
G01*
X142181300Y-94495400D02*
G75*
G03X141481300Y-95195400I0J-700000D01*
G01*
X143481300Y-95195400D02*
G75*
G03X142781300Y-94495400I-700000J0D01*
G01*
X143481300Y-97945400D02*
X143481300Y-95145400D01*
X142781300Y-94495400D02*
X142181300Y-94495400D01*
X141481300Y-95145400D02*
X141481300Y-97945400D01*
X142181300Y-98595400D02*
X142781300Y-98595400D01*
X147666000Y-108853000D02*
X146466000Y-108853000D01*
X146466000Y-110603000D02*
X147666000Y-110603000D01*
X146466000Y-112812800D02*
X147666000Y-112812800D01*
X147666000Y-111062800D02*
X146466000Y-111062800D01*
X142534000Y-111818040D02*
X142534000Y-110818040D01*
X141184000Y-110818040D02*
X141184000Y-111818040D01*
X151648800Y-110523400D02*
X151648800Y-111523400D01*
X152998800Y-111523400D02*
X152998800Y-110523400D01*
X145214400Y-81139100D02*
X148714400Y-81139100D01*
X148714400Y-74639100D02*
X145214400Y-74639100D01*
X146314400Y-80339100D02*
G75*
G03X146314400Y-80339100I-300000J0D01*
G01*
X146339800Y-89076700D02*
G75*
G03X146339800Y-89076700I-300000J0D01*
G01*
X148739800Y-83376700D02*
X145239800Y-83376700D01*
X145239800Y-89876700D02*
X148739800Y-89876700D01*
X143418000Y-91807000D02*
X144618000Y-91807000D01*
X144618000Y-90057000D02*
X143418000Y-90057000D01*
X150752300Y-105942600D02*
G75*
G03X151452300Y-106642600I700000J0D01*
G01*
X152052300Y-106642600D02*
G75*
G03X152752300Y-105942600I0J700000D01*
G01*
X152752300Y-104542600D02*
G75*
G03X152052300Y-103842600I-700000J0D01*
G01*
X151452300Y-103842600D02*
G75*
G03X150752300Y-104542600I0J-700000D01*
G01*
X152052300Y-103842600D02*
X151452300Y-103842600D01*
X152752300Y-105942600D02*
X152752300Y-104542600D01*
X151452300Y-106642600D02*
X152052300Y-106642600D01*
X150752300Y-104542600D02*
X150752300Y-105942600D01*
X146413600Y-105042600D02*
X147413600Y-105042600D01*
X147413600Y-106742600D02*
X146413600Y-106742600D01*
X145807180Y-96723295D02*
X146616704Y-96723295D01*
X146711942Y-96770914D01*
X146759561Y-96818533D01*
X146807180Y-96913771D01*
X146807180Y-97104247D01*
X146759561Y-97199485D01*
X146711942Y-97247104D01*
X146616704Y-97294723D01*
X145807180Y-97294723D01*
X145902419Y-97723295D02*
X145854800Y-97770914D01*
X145807180Y-97866152D01*
X145807180Y-98104247D01*
X145854800Y-98199485D01*
X145902419Y-98247104D01*
X145997657Y-98294723D01*
X146092895Y-98294723D01*
X146235752Y-98247104D01*
X146807180Y-97675676D01*
X146807180Y-98294723D01*
D10*
X153289914Y-96069166D02*
X153328009Y-96031071D01*
X153366104Y-95916785D01*
X153366104Y-95840595D01*
X153328009Y-95726309D01*
X153251819Y-95650119D01*
X153175628Y-95612023D01*
X153023247Y-95573928D01*
X152908961Y-95573928D01*
X152756580Y-95612023D01*
X152680390Y-95650119D01*
X152604200Y-95726309D01*
X152566104Y-95840595D01*
X152566104Y-95916785D01*
X152604200Y-96031071D01*
X152642295Y-96069166D01*
X152642295Y-96373928D02*
X152604200Y-96412023D01*
X152566104Y-96488214D01*
X152566104Y-96678690D01*
X152604200Y-96754880D01*
X152642295Y-96792976D01*
X152718485Y-96831071D01*
X152794676Y-96831071D01*
X152908961Y-96792976D01*
X153366104Y-96335833D01*
X153366104Y-96831071D01*
X142068514Y-82111866D02*
X142106609Y-82073771D01*
X142144704Y-81959485D01*
X142144704Y-81883295D01*
X142106609Y-81769009D01*
X142030419Y-81692819D01*
X141954228Y-81654723D01*
X141801847Y-81616628D01*
X141687561Y-81616628D01*
X141535180Y-81654723D01*
X141458990Y-81692819D01*
X141382800Y-81769009D01*
X141344704Y-81883295D01*
X141344704Y-81959485D01*
X141382800Y-82073771D01*
X141420895Y-82111866D01*
X142144704Y-82873771D02*
X142144704Y-82416628D01*
X142144704Y-82645200D02*
X141344704Y-82645200D01*
X141458990Y-82569009D01*
X141535180Y-82492819D01*
X141573276Y-82416628D01*
X141916114Y-73374266D02*
X141954209Y-73336171D01*
X141992304Y-73221885D01*
X141992304Y-73145695D01*
X141954209Y-73031409D01*
X141878019Y-72955219D01*
X141801828Y-72917123D01*
X141649447Y-72879028D01*
X141535161Y-72879028D01*
X141382780Y-72917123D01*
X141306590Y-72955219D01*
X141230400Y-73031409D01*
X141192304Y-73145695D01*
X141192304Y-73221885D01*
X141230400Y-73336171D01*
X141268495Y-73374266D01*
X141192304Y-73640933D02*
X141192304Y-74174266D01*
X141992304Y-73831409D01*
X153244514Y-93491066D02*
X153282609Y-93452971D01*
X153320704Y-93338685D01*
X153320704Y-93262495D01*
X153282609Y-93148209D01*
X153206419Y-93072019D01*
X153130228Y-93033923D01*
X152977847Y-92995828D01*
X152863561Y-92995828D01*
X152711180Y-93033923D01*
X152634990Y-93072019D01*
X152558800Y-93148209D01*
X152520704Y-93262495D01*
X152520704Y-93338685D01*
X152558800Y-93452971D01*
X152596895Y-93491066D01*
X152863561Y-93948209D02*
X152825466Y-93872019D01*
X152787371Y-93833923D01*
X152711180Y-93795828D01*
X152673085Y-93795828D01*
X152596895Y-93833923D01*
X152558800Y-93872019D01*
X152520704Y-93948209D01*
X152520704Y-94100590D01*
X152558800Y-94176780D01*
X152596895Y-94214876D01*
X152673085Y-94252971D01*
X152711180Y-94252971D01*
X152787371Y-94214876D01*
X152825466Y-94176780D01*
X152863561Y-94100590D01*
X152863561Y-93948209D01*
X152901657Y-93872019D01*
X152939752Y-93833923D01*
X153015942Y-93795828D01*
X153168323Y-93795828D01*
X153244514Y-93833923D01*
X153282609Y-93872019D01*
X153320704Y-93948209D01*
X153320704Y-94100590D01*
X153282609Y-94176780D01*
X153244514Y-94214876D01*
X153168323Y-94252971D01*
X153015942Y-94252971D01*
X152939752Y-94214876D01*
X152901657Y-94176780D01*
X152863561Y-94100590D01*
X152634914Y-73272666D02*
X152673009Y-73234571D01*
X152711104Y-73120285D01*
X152711104Y-73044095D01*
X152673009Y-72929809D01*
X152596819Y-72853619D01*
X152520628Y-72815523D01*
X152368247Y-72777428D01*
X152253961Y-72777428D01*
X152101580Y-72815523D01*
X152025390Y-72853619D01*
X151949200Y-72929809D01*
X151911104Y-73044095D01*
X151911104Y-73120285D01*
X151949200Y-73234571D01*
X151987295Y-73272666D01*
X152711104Y-73653619D02*
X152711104Y-73806000D01*
X152673009Y-73882190D01*
X152634914Y-73920285D01*
X152520628Y-73996476D01*
X152368247Y-74034571D01*
X152063485Y-74034571D01*
X151987295Y-73996476D01*
X151949200Y-73958380D01*
X151911104Y-73882190D01*
X151911104Y-73729809D01*
X151949200Y-73653619D01*
X151987295Y-73615523D01*
X152063485Y-73577428D01*
X152253961Y-73577428D01*
X152330152Y-73615523D01*
X152368247Y-73653619D01*
X152406342Y-73729809D01*
X152406342Y-73882190D01*
X152368247Y-73958380D01*
X152330152Y-73996476D01*
X152253961Y-74034571D01*
X141357314Y-92957714D02*
X141395409Y-92919619D01*
X141433504Y-92805333D01*
X141433504Y-92729142D01*
X141395409Y-92614857D01*
X141319219Y-92538666D01*
X141243028Y-92500571D01*
X141090647Y-92462476D01*
X140976361Y-92462476D01*
X140823980Y-92500571D01*
X140747790Y-92538666D01*
X140671600Y-92614857D01*
X140633504Y-92729142D01*
X140633504Y-92805333D01*
X140671600Y-92919619D01*
X140709695Y-92957714D01*
X141433504Y-93719619D02*
X141433504Y-93262476D01*
X141433504Y-93491047D02*
X140633504Y-93491047D01*
X140747790Y-93414857D01*
X140823980Y-93338666D01*
X140862076Y-93262476D01*
X140633504Y-94214857D02*
X140633504Y-94291047D01*
X140671600Y-94367238D01*
X140709695Y-94405333D01*
X140785885Y-94443428D01*
X140938266Y-94481523D01*
X141128742Y-94481523D01*
X141281123Y-94443428D01*
X141357314Y-94405333D01*
X141395409Y-94367238D01*
X141433504Y-94291047D01*
X141433504Y-94214857D01*
X141395409Y-94138666D01*
X141357314Y-94100571D01*
X141281123Y-94062476D01*
X141128742Y-94024380D01*
X140938266Y-94024380D01*
X140785885Y-94062476D01*
X140709695Y-94100571D01*
X140671600Y-94138666D01*
X140633504Y-94214857D01*
X153092114Y-90417714D02*
X153130209Y-90379619D01*
X153168304Y-90265333D01*
X153168304Y-90189142D01*
X153130209Y-90074857D01*
X153054019Y-89998666D01*
X152977828Y-89960571D01*
X152825447Y-89922476D01*
X152711161Y-89922476D01*
X152558780Y-89960571D01*
X152482590Y-89998666D01*
X152406400Y-90074857D01*
X152368304Y-90189142D01*
X152368304Y-90265333D01*
X152406400Y-90379619D01*
X152444495Y-90417714D01*
X153168304Y-91179619D02*
X153168304Y-90722476D01*
X153168304Y-90951047D02*
X152368304Y-90951047D01*
X152482590Y-90874857D01*
X152558780Y-90798666D01*
X152596876Y-90722476D01*
X153168304Y-91941523D02*
X153168304Y-91484380D01*
X153168304Y-91712952D02*
X152368304Y-91712952D01*
X152482590Y-91636761D01*
X152558780Y-91560571D01*
X152596876Y-91484380D01*
X141240464Y-101100963D02*
X140440464Y-101100963D01*
X140440464Y-101291440D01*
X140478560Y-101405725D01*
X140554750Y-101481916D01*
X140630940Y-101520011D01*
X140783321Y-101558106D01*
X140897607Y-101558106D01*
X141049988Y-101520011D01*
X141126179Y-101481916D01*
X141202369Y-101405725D01*
X141240464Y-101291440D01*
X141240464Y-101100963D01*
X140440464Y-102281916D02*
X140440464Y-101900963D01*
X140821417Y-101862868D01*
X140783321Y-101900963D01*
X140745226Y-101977154D01*
X140745226Y-102167630D01*
X140783321Y-102243820D01*
X140821417Y-102281916D01*
X140897607Y-102320011D01*
X141088083Y-102320011D01*
X141164274Y-102281916D01*
X141202369Y-102243820D01*
X141240464Y-102167630D01*
X141240464Y-101977154D01*
X141202369Y-101900963D01*
X141164274Y-101862868D01*
X152863504Y-81756323D02*
X152063504Y-81756323D01*
X152063504Y-81946800D01*
X152101600Y-82061085D01*
X152177790Y-82137276D01*
X152253980Y-82175371D01*
X152406361Y-82213466D01*
X152520647Y-82213466D01*
X152673028Y-82175371D01*
X152749219Y-82137276D01*
X152825409Y-82061085D01*
X152863504Y-81946800D01*
X152863504Y-81756323D01*
X152063504Y-82899180D02*
X152063504Y-82746800D01*
X152101600Y-82670609D01*
X152139695Y-82632514D01*
X152253980Y-82556323D01*
X152406361Y-82518228D01*
X152711123Y-82518228D01*
X152787314Y-82556323D01*
X152825409Y-82594419D01*
X152863504Y-82670609D01*
X152863504Y-82822990D01*
X152825409Y-82899180D01*
X152787314Y-82937276D01*
X152711123Y-82975371D01*
X152520647Y-82975371D01*
X152444457Y-82937276D01*
X152406361Y-82899180D01*
X152368266Y-82822990D01*
X152368266Y-82670609D01*
X152406361Y-82594419D01*
X152444457Y-82556323D01*
X152520647Y-82518228D01*
X142697166Y-106368857D02*
X142963833Y-106368857D01*
X142963833Y-106787904D02*
X142963833Y-105987904D01*
X142582880Y-105987904D01*
X141859071Y-106787904D02*
X142316214Y-106787904D01*
X142087642Y-106787904D02*
X142087642Y-105987904D01*
X142163833Y-106102190D01*
X142240023Y-106178380D01*
X142316214Y-106216476D01*
X150653733Y-109378704D02*
X150920400Y-108997752D01*
X151110876Y-109378704D02*
X151110876Y-108578704D01*
X150806114Y-108578704D01*
X150729923Y-108616800D01*
X150691828Y-108654895D01*
X150653733Y-108731085D01*
X150653733Y-108845371D01*
X150691828Y-108921561D01*
X150729923Y-108959657D01*
X150806114Y-108997752D01*
X151110876Y-108997752D01*
X149891828Y-109378704D02*
X150348971Y-109378704D01*
X150120400Y-109378704D02*
X150120400Y-108578704D01*
X150196590Y-108692990D01*
X150272780Y-108769180D01*
X150348971Y-108807276D01*
X150653733Y-112629904D02*
X150920400Y-112248952D01*
X151110876Y-112629904D02*
X151110876Y-111829904D01*
X150806114Y-111829904D01*
X150729923Y-111868000D01*
X150691828Y-111906095D01*
X150653733Y-111982285D01*
X150653733Y-112096571D01*
X150691828Y-112172761D01*
X150729923Y-112210857D01*
X150806114Y-112248952D01*
X151110876Y-112248952D01*
X150348971Y-111906095D02*
X150310876Y-111868000D01*
X150234685Y-111829904D01*
X150044209Y-111829904D01*
X149968019Y-111868000D01*
X149929923Y-111906095D01*
X149891828Y-111982285D01*
X149891828Y-112058476D01*
X149929923Y-112172761D01*
X150387066Y-112629904D01*
X149891828Y-112629904D01*
X144619851Y-112353144D02*
X144162708Y-112353144D01*
X144391280Y-113153144D02*
X144391280Y-112353144D01*
X143896041Y-113153144D02*
X143896041Y-112353144D01*
X143896041Y-112734097D02*
X143438899Y-112734097D01*
X143438899Y-113153144D02*
X143438899Y-112353144D01*
X142638899Y-113153144D02*
X143096041Y-113153144D01*
X142867470Y-113153144D02*
X142867470Y-112353144D01*
X142943660Y-112467430D01*
X143019851Y-112543620D01*
X143096041Y-112581716D01*
X151916184Y-106840148D02*
X151916184Y-107297291D01*
X152716184Y-107068720D02*
X151916184Y-107068720D01*
X152716184Y-107563958D02*
X151916184Y-107563958D01*
X152297137Y-107563958D02*
X152297137Y-108021100D01*
X152716184Y-108021100D02*
X151916184Y-108021100D01*
X151992375Y-108363958D02*
X151954280Y-108402053D01*
X151916184Y-108478243D01*
X151916184Y-108668720D01*
X151954280Y-108744910D01*
X151992375Y-108783005D01*
X152068565Y-108821100D01*
X152144756Y-108821100D01*
X152259041Y-108783005D01*
X152716184Y-108325862D01*
X152716184Y-108821100D01*
X147904123Y-79889404D02*
X147904123Y-80537023D01*
X147866028Y-80613214D01*
X147827933Y-80651309D01*
X147751742Y-80689404D01*
X147599361Y-80689404D01*
X147523171Y-80651309D01*
X147485076Y-80613214D01*
X147446980Y-80537023D01*
X147446980Y-79889404D01*
X147142219Y-79889404D02*
X146646980Y-79889404D01*
X146913647Y-80194166D01*
X146799361Y-80194166D01*
X146723171Y-80232261D01*
X146685076Y-80270357D01*
X146646980Y-80346547D01*
X146646980Y-80537023D01*
X146685076Y-80613214D01*
X146723171Y-80651309D01*
X146799361Y-80689404D01*
X147027933Y-80689404D01*
X147104123Y-80651309D01*
X147142219Y-80613214D01*
X152113828Y-75774533D02*
X151732876Y-75774533D01*
X152190019Y-76003104D02*
X151923352Y-75203104D01*
X151656685Y-76003104D01*
X151390019Y-76003104D02*
X151390019Y-75203104D01*
X151085257Y-75203104D01*
X151009066Y-75241200D01*
X150970971Y-75279295D01*
X150932876Y-75355485D01*
X150932876Y-75469771D01*
X150970971Y-75545961D01*
X151009066Y-75584057D01*
X151085257Y-75622152D01*
X151390019Y-75622152D01*
X150170971Y-76003104D02*
X150628114Y-76003104D01*
X150399542Y-76003104D02*
X150399542Y-75203104D01*
X150475733Y-75317390D01*
X150551923Y-75393580D01*
X150628114Y-75431676D01*
X149409066Y-76003104D02*
X149866209Y-76003104D01*
X149637638Y-76003104D02*
X149637638Y-75203104D01*
X149713828Y-75317390D01*
X149790019Y-75393580D01*
X149866209Y-75431676D01*
X148647161Y-76003104D02*
X149104304Y-76003104D01*
X148875733Y-76003104D02*
X148875733Y-75203104D01*
X148951923Y-75317390D01*
X149028114Y-75393580D01*
X149104304Y-75431676D01*
X148380495Y-75203104D02*
X147847161Y-75203104D01*
X148190019Y-76003104D01*
X147542400Y-75698342D02*
X146932876Y-75698342D01*
X146170971Y-75203104D02*
X146551923Y-75203104D01*
X146590019Y-75584057D01*
X146551923Y-75545961D01*
X146475733Y-75507866D01*
X146285257Y-75507866D01*
X146209066Y-75545961D01*
X146170971Y-75584057D01*
X146132876Y-75660247D01*
X146132876Y-75850723D01*
X146170971Y-75926914D01*
X146209066Y-75965009D01*
X146285257Y-76003104D01*
X146475733Y-76003104D01*
X146551923Y-75965009D01*
X146590019Y-75926914D01*
X145637638Y-75203104D02*
X145561447Y-75203104D01*
X145485257Y-75241200D01*
X145447161Y-75279295D01*
X145409066Y-75355485D01*
X145370971Y-75507866D01*
X145370971Y-75698342D01*
X145409066Y-75850723D01*
X145447161Y-75926914D01*
X145485257Y-75965009D01*
X145561447Y-76003104D01*
X145637638Y-76003104D01*
X145713828Y-75965009D01*
X145751923Y-75926914D01*
X145790019Y-75850723D01*
X145828114Y-75698342D01*
X145828114Y-75507866D01*
X145790019Y-75355485D01*
X145751923Y-75279295D01*
X145713828Y-75241200D01*
X145637638Y-75203104D01*
X147929523Y-88627004D02*
X147929523Y-89274623D01*
X147891428Y-89350814D01*
X147853333Y-89388909D01*
X147777142Y-89427004D01*
X147624761Y-89427004D01*
X147548571Y-89388909D01*
X147510476Y-89350814D01*
X147472380Y-89274623D01*
X147472380Y-88627004D01*
X146748571Y-88893671D02*
X146748571Y-89427004D01*
X146939047Y-88588909D02*
X147129523Y-89160338D01*
X146634285Y-89160338D01*
X152215428Y-84410533D02*
X151834476Y-84410533D01*
X152291619Y-84639104D02*
X152024952Y-83839104D01*
X151758285Y-84639104D01*
X151491619Y-84639104D02*
X151491619Y-83839104D01*
X151186857Y-83839104D01*
X151110666Y-83877200D01*
X151072571Y-83915295D01*
X151034476Y-83991485D01*
X151034476Y-84105771D01*
X151072571Y-84181961D01*
X151110666Y-84220057D01*
X151186857Y-84258152D01*
X151491619Y-84258152D01*
X150272571Y-84639104D02*
X150729714Y-84639104D01*
X150501142Y-84639104D02*
X150501142Y-83839104D01*
X150577333Y-83953390D01*
X150653523Y-84029580D01*
X150729714Y-84067676D01*
X149510666Y-84639104D02*
X149967809Y-84639104D01*
X149739238Y-84639104D02*
X149739238Y-83839104D01*
X149815428Y-83953390D01*
X149891619Y-84029580D01*
X149967809Y-84067676D01*
X148748761Y-84639104D02*
X149205904Y-84639104D01*
X148977333Y-84639104D02*
X148977333Y-83839104D01*
X149053523Y-83953390D01*
X149129714Y-84029580D01*
X149205904Y-84067676D01*
X148482095Y-83839104D02*
X147948761Y-83839104D01*
X148291619Y-84639104D01*
X147644000Y-84334342D02*
X147034476Y-84334342D01*
X146272571Y-83839104D02*
X146653523Y-83839104D01*
X146691619Y-84220057D01*
X146653523Y-84181961D01*
X146577333Y-84143866D01*
X146386857Y-84143866D01*
X146310666Y-84181961D01*
X146272571Y-84220057D01*
X146234476Y-84296247D01*
X146234476Y-84486723D01*
X146272571Y-84562914D01*
X146310666Y-84601009D01*
X146386857Y-84639104D01*
X146577333Y-84639104D01*
X146653523Y-84601009D01*
X146691619Y-84562914D01*
X145739238Y-83839104D02*
X145663047Y-83839104D01*
X145586857Y-83877200D01*
X145548761Y-83915295D01*
X145510666Y-83991485D01*
X145472571Y-84143866D01*
X145472571Y-84334342D01*
X145510666Y-84486723D01*
X145548761Y-84562914D01*
X145586857Y-84601009D01*
X145663047Y-84639104D01*
X145739238Y-84639104D01*
X145815428Y-84601009D01*
X145853523Y-84562914D01*
X145891619Y-84486723D01*
X145929714Y-84334342D01*
X145929714Y-84143866D01*
X145891619Y-83991485D01*
X145853523Y-83915295D01*
X145815428Y-83877200D01*
X145739238Y-83839104D01*
X141535104Y-91001866D02*
X141154152Y-90735200D01*
X141535104Y-90544723D02*
X140735104Y-90544723D01*
X140735104Y-90849485D01*
X140773200Y-90925676D01*
X140811295Y-90963771D01*
X140887485Y-91001866D01*
X141001771Y-91001866D01*
X141077961Y-90963771D01*
X141116057Y-90925676D01*
X141154152Y-90849485D01*
X141154152Y-90544723D01*
X141001771Y-91687580D02*
X141535104Y-91687580D01*
X140697009Y-91497104D02*
X141268438Y-91306628D01*
X141268438Y-91801866D01*
D11*
X147080266Y-108349742D02*
X147127885Y-108397361D01*
X147270742Y-108444980D01*
X147365980Y-108444980D01*
X147508838Y-108397361D01*
X147604076Y-108302123D01*
X147651695Y-108206885D01*
X147699314Y-108016409D01*
X147699314Y-107873552D01*
X147651695Y-107683076D01*
X147604076Y-107587838D01*
X147508838Y-107492600D01*
X147365980Y-107444980D01*
X147270742Y-107444980D01*
X147127885Y-107492600D01*
X147080266Y-107540219D01*
X146223123Y-107778314D02*
X146223123Y-108444980D01*
X146461219Y-107397361D02*
X146699314Y-108111647D01*
X146080266Y-108111647D01*
%LPC*%
D12*
X147904200Y-102437500D03*
X146229200Y-102437500D03*
X147904200Y-100762500D03*
X146229200Y-100762500D03*
D13*
X149516700Y-103100000D03*
X149516700Y-102600000D03*
X149516700Y-102100000D03*
X149516700Y-101600000D03*
X149516700Y-101100000D03*
X149516700Y-100600000D03*
X149516700Y-100100000D03*
D14*
X148566700Y-99150000D03*
X148066700Y-99150000D03*
X147566700Y-99150000D03*
X147066700Y-99150000D03*
X146566700Y-99150000D03*
X146066700Y-99150000D03*
X145566700Y-99150000D03*
D13*
X144616700Y-100100000D03*
X144616700Y-100600000D03*
X144616700Y-101100000D03*
X144616700Y-101600000D03*
X144616700Y-102100000D03*
X144616700Y-102600000D03*
X144616700Y-103100000D03*
D14*
X145566700Y-104050000D03*
X146066700Y-104050000D03*
X146566700Y-104050000D03*
X147066700Y-104050000D03*
X147566700Y-104050000D03*
X148066700Y-104050000D03*
X148566700Y-104050000D03*
D10*
G36*
X152241809Y-101996007D02*
G01*
X152290345Y-102003206D01*
X152337942Y-102015129D01*
X152384142Y-102031659D01*
X152428498Y-102052638D01*
X152470585Y-102077864D01*
X152509997Y-102107094D01*
X152546353Y-102140046D01*
X152579305Y-102176402D01*
X152608535Y-102215814D01*
X152633761Y-102257901D01*
X152654740Y-102302257D01*
X152671270Y-102348457D01*
X152683193Y-102396054D01*
X152690392Y-102444590D01*
X152692800Y-102493599D01*
X152692800Y-102493601D01*
X152690392Y-102542610D01*
X152683193Y-102591146D01*
X152671270Y-102638743D01*
X152654740Y-102684943D01*
X152633761Y-102729299D01*
X152608535Y-102771386D01*
X152579305Y-102810798D01*
X152546353Y-102847154D01*
X152509997Y-102880106D01*
X152470585Y-102909336D01*
X152428498Y-102934562D01*
X152384142Y-102955541D01*
X152337942Y-102972071D01*
X152290345Y-102983994D01*
X152241809Y-102991193D01*
X152192800Y-102993601D01*
X151692800Y-102993601D01*
X151643791Y-102991193D01*
X151595255Y-102983994D01*
X151547658Y-102972071D01*
X151501458Y-102955541D01*
X151457102Y-102934562D01*
X151415015Y-102909336D01*
X151375603Y-102880106D01*
X151339247Y-102847154D01*
X151306295Y-102810798D01*
X151277065Y-102771386D01*
X151251839Y-102729299D01*
X151230860Y-102684943D01*
X151214330Y-102638743D01*
X151202407Y-102591146D01*
X151195208Y-102542610D01*
X151192800Y-102493601D01*
X151192800Y-102493599D01*
X151195208Y-102444590D01*
X151202407Y-102396054D01*
X151214330Y-102348457D01*
X151230860Y-102302257D01*
X151251839Y-102257901D01*
X151277065Y-102215814D01*
X151306295Y-102176402D01*
X151339247Y-102140046D01*
X151375603Y-102107094D01*
X151415015Y-102077864D01*
X151457102Y-102052638D01*
X151501458Y-102031659D01*
X151547658Y-102015129D01*
X151595255Y-102003206D01*
X151643791Y-101996007D01*
X151692800Y-101993599D01*
X152192800Y-101993599D01*
X152241809Y-101996007D01*
X152241809Y-101996007D01*
G37*
D15*
X151942800Y-102493600D03*
D16*
X151942800Y-102193600D03*
D17*
X151942800Y-101193600D03*
D10*
G36*
X152241809Y-99396007D02*
G01*
X152290345Y-99403206D01*
X152337942Y-99415129D01*
X152384142Y-99431659D01*
X152428498Y-99452638D01*
X152470585Y-99477864D01*
X152509997Y-99507094D01*
X152546353Y-99540046D01*
X152579305Y-99576402D01*
X152608535Y-99615814D01*
X152633761Y-99657901D01*
X152654740Y-99702257D01*
X152671270Y-99748457D01*
X152683193Y-99796054D01*
X152690392Y-99844590D01*
X152692800Y-99893599D01*
X152692800Y-99893601D01*
X152690392Y-99942610D01*
X152683193Y-99991146D01*
X152671270Y-100038743D01*
X152654740Y-100084943D01*
X152633761Y-100129299D01*
X152608535Y-100171386D01*
X152579305Y-100210798D01*
X152546353Y-100247154D01*
X152509997Y-100280106D01*
X152470585Y-100309336D01*
X152428498Y-100334562D01*
X152384142Y-100355541D01*
X152337942Y-100372071D01*
X152290345Y-100383994D01*
X152241809Y-100391193D01*
X152192800Y-100393601D01*
X151692800Y-100393601D01*
X151643791Y-100391193D01*
X151595255Y-100383994D01*
X151547658Y-100372071D01*
X151501458Y-100355541D01*
X151457102Y-100334562D01*
X151415015Y-100309336D01*
X151375603Y-100280106D01*
X151339247Y-100247154D01*
X151306295Y-100210798D01*
X151277065Y-100171386D01*
X151251839Y-100129299D01*
X151230860Y-100084943D01*
X151214330Y-100038743D01*
X151202407Y-99991146D01*
X151195208Y-99942610D01*
X151192800Y-99893601D01*
X151192800Y-99893599D01*
X151195208Y-99844590D01*
X151202407Y-99796054D01*
X151214330Y-99748457D01*
X151230860Y-99702257D01*
X151251839Y-99657901D01*
X151277065Y-99615814D01*
X151306295Y-99576402D01*
X151339247Y-99540046D01*
X151375603Y-99507094D01*
X151415015Y-99477864D01*
X151457102Y-99452638D01*
X151501458Y-99431659D01*
X151547658Y-99415129D01*
X151595255Y-99403206D01*
X151643791Y-99396007D01*
X151692800Y-99393599D01*
X152192800Y-99393599D01*
X152241809Y-99396007D01*
X152241809Y-99396007D01*
G37*
D15*
X151942800Y-99893600D03*
D16*
X151942800Y-100193600D03*
D18*
X154686000Y-109347000D03*
X154686000Y-106807000D03*
X154686000Y-104267000D03*
X154686000Y-101727000D03*
X154686000Y-99187000D03*
X154686000Y-96647000D03*
X154686000Y-94107000D03*
X154686000Y-91567000D03*
X154686000Y-89027000D03*
X154686000Y-86487000D03*
X154686000Y-83947000D03*
X154686000Y-81407000D03*
X154686000Y-78867000D03*
X154686000Y-76327000D03*
X154686000Y-73787000D03*
D19*
X154686000Y-71247000D03*
D20*
X151389400Y-96151700D03*
X148889400Y-96151700D03*
D18*
X139446000Y-109347000D03*
X139446000Y-106807000D03*
X139446000Y-104267000D03*
X139446000Y-101727000D03*
X139446000Y-99187000D03*
X139446000Y-96647000D03*
X139446000Y-94107000D03*
X139446000Y-91567000D03*
X139446000Y-89027000D03*
X139446000Y-86487000D03*
X139446000Y-83947000D03*
X139446000Y-81407000D03*
X139446000Y-78867000D03*
X139446000Y-76327000D03*
X139446000Y-73787000D03*
D19*
X139446000Y-71247000D03*
D21*
X139446000Y-68707000D03*
X139400000Y-112100000D03*
X154700000Y-112100000D03*
X154686000Y-68707000D03*
D20*
X146035080Y-82290920D03*
X143535080Y-82290920D03*
X143332200Y-73599040D03*
X145832200Y-73599040D03*
X151303040Y-93243400D03*
X148803040Y-93243400D03*
X147944200Y-73543160D03*
X150444200Y-73543160D03*
X142696560Y-93111320D03*
X145196560Y-93111320D03*
X148793200Y-91104720D03*
X151293200Y-91104720D03*
D22*
X142519400Y-99609400D03*
X142519400Y-102879400D03*
D23*
X147925280Y-82301080D03*
X151195280Y-82301080D03*
D24*
X142494000Y-107975520D03*
X142494000Y-104815520D03*
D25*
X144499100Y-107837460D03*
X149499100Y-107837460D03*
D26*
X143499100Y-110537460D03*
X150499100Y-110537460D03*
D16*
X142481300Y-95545400D03*
D10*
G36*
X142780309Y-94747807D02*
G01*
X142828845Y-94755006D01*
X142876442Y-94766929D01*
X142922642Y-94783459D01*
X142966998Y-94804438D01*
X143009085Y-94829664D01*
X143048497Y-94858894D01*
X143084853Y-94891846D01*
X143117805Y-94928202D01*
X143147035Y-94967614D01*
X143172261Y-95009701D01*
X143193240Y-95054057D01*
X143209770Y-95100257D01*
X143221693Y-95147854D01*
X143228892Y-95196390D01*
X143231300Y-95245399D01*
X143231300Y-95245401D01*
X143228892Y-95294410D01*
X143221693Y-95342946D01*
X143209770Y-95390543D01*
X143193240Y-95436743D01*
X143172261Y-95481099D01*
X143147035Y-95523186D01*
X143117805Y-95562598D01*
X143084853Y-95598954D01*
X143048497Y-95631906D01*
X143009085Y-95661136D01*
X142966998Y-95686362D01*
X142922642Y-95707341D01*
X142876442Y-95723871D01*
X142828845Y-95735794D01*
X142780309Y-95742993D01*
X142731300Y-95745401D01*
X142231300Y-95745401D01*
X142182291Y-95742993D01*
X142133755Y-95735794D01*
X142086158Y-95723871D01*
X142039958Y-95707341D01*
X141995602Y-95686362D01*
X141953515Y-95661136D01*
X141914103Y-95631906D01*
X141877747Y-95598954D01*
X141844795Y-95562598D01*
X141815565Y-95523186D01*
X141790339Y-95481099D01*
X141769360Y-95436743D01*
X141752830Y-95390543D01*
X141740907Y-95342946D01*
X141733708Y-95294410D01*
X141731300Y-95245401D01*
X141731300Y-95245399D01*
X141733708Y-95196390D01*
X141740907Y-95147854D01*
X141752830Y-95100257D01*
X141769360Y-95054057D01*
X141790339Y-95009701D01*
X141815565Y-94967614D01*
X141844795Y-94928202D01*
X141877747Y-94891846D01*
X141914103Y-94858894D01*
X141953515Y-94829664D01*
X141995602Y-94804438D01*
X142039958Y-94783459D01*
X142086158Y-94766929D01*
X142133755Y-94755006D01*
X142182291Y-94747807D01*
X142231300Y-94745399D01*
X142731300Y-94745399D01*
X142780309Y-94747807D01*
X142780309Y-94747807D01*
G37*
D15*
X142481300Y-95245400D03*
D17*
X142481300Y-96545400D03*
D16*
X142481300Y-97545400D03*
D10*
G36*
X142780309Y-97347807D02*
G01*
X142828845Y-97355006D01*
X142876442Y-97366929D01*
X142922642Y-97383459D01*
X142966998Y-97404438D01*
X143009085Y-97429664D01*
X143048497Y-97458894D01*
X143084853Y-97491846D01*
X143117805Y-97528202D01*
X143147035Y-97567614D01*
X143172261Y-97609701D01*
X143193240Y-97654057D01*
X143209770Y-97700257D01*
X143221693Y-97747854D01*
X143228892Y-97796390D01*
X143231300Y-97845399D01*
X143231300Y-97845401D01*
X143228892Y-97894410D01*
X143221693Y-97942946D01*
X143209770Y-97990543D01*
X143193240Y-98036743D01*
X143172261Y-98081099D01*
X143147035Y-98123186D01*
X143117805Y-98162598D01*
X143084853Y-98198954D01*
X143048497Y-98231906D01*
X143009085Y-98261136D01*
X142966998Y-98286362D01*
X142922642Y-98307341D01*
X142876442Y-98323871D01*
X142828845Y-98335794D01*
X142780309Y-98342993D01*
X142731300Y-98345401D01*
X142231300Y-98345401D01*
X142182291Y-98342993D01*
X142133755Y-98335794D01*
X142086158Y-98323871D01*
X142039958Y-98307341D01*
X141995602Y-98286362D01*
X141953515Y-98261136D01*
X141914103Y-98231906D01*
X141877747Y-98198954D01*
X141844795Y-98162598D01*
X141815565Y-98123186D01*
X141790339Y-98081099D01*
X141769360Y-98036743D01*
X141752830Y-97990543D01*
X141740907Y-97942946D01*
X141733708Y-97894410D01*
X141731300Y-97845401D01*
X141731300Y-97845399D01*
X141733708Y-97796390D01*
X141740907Y-97747854D01*
X141752830Y-97700257D01*
X141769360Y-97654057D01*
X141790339Y-97609701D01*
X141815565Y-97567614D01*
X141844795Y-97528202D01*
X141877747Y-97491846D01*
X141914103Y-97458894D01*
X141953515Y-97429664D01*
X141995602Y-97404438D01*
X142039958Y-97383459D01*
X142086158Y-97366929D01*
X142133755Y-97355006D01*
X142182291Y-97347807D01*
X142231300Y-97345399D01*
X142731300Y-97345399D01*
X142780309Y-97347807D01*
X142780309Y-97347807D01*
G37*
D15*
X142481300Y-97845400D03*
D27*
X149600000Y-68700000D03*
D28*
X149600000Y-71240000D03*
X147060000Y-68700000D03*
X147060000Y-71240000D03*
X144520000Y-68700000D03*
X144520000Y-71240000D03*
D29*
X145716000Y-109728000D03*
X148416000Y-109728000D03*
X148416000Y-111937800D03*
X145716000Y-111937800D03*
D30*
X141859000Y-110218040D03*
X141859000Y-112418040D03*
X152323800Y-112123400D03*
X152323800Y-109923400D03*
D31*
X144064400Y-75589100D03*
X144064400Y-77889100D03*
X144064400Y-80189100D03*
D32*
X149864400Y-77889100D03*
X149889800Y-86626700D03*
D31*
X144089800Y-88926700D03*
X144089800Y-86626700D03*
X144089800Y-84326700D03*
D29*
X145368000Y-90932000D03*
X142668000Y-90932000D03*
D10*
G36*
X152051309Y-105395007D02*
G01*
X152099845Y-105402206D01*
X152147442Y-105414129D01*
X152193642Y-105430659D01*
X152237998Y-105451638D01*
X152280085Y-105476864D01*
X152319497Y-105506094D01*
X152355853Y-105539046D01*
X152388805Y-105575402D01*
X152418035Y-105614814D01*
X152443261Y-105656901D01*
X152464240Y-105701257D01*
X152480770Y-105747457D01*
X152492693Y-105795054D01*
X152499892Y-105843590D01*
X152502300Y-105892599D01*
X152502300Y-105892601D01*
X152499892Y-105941610D01*
X152492693Y-105990146D01*
X152480770Y-106037743D01*
X152464240Y-106083943D01*
X152443261Y-106128299D01*
X152418035Y-106170386D01*
X152388805Y-106209798D01*
X152355853Y-106246154D01*
X152319497Y-106279106D01*
X152280085Y-106308336D01*
X152237998Y-106333562D01*
X152193642Y-106354541D01*
X152147442Y-106371071D01*
X152099845Y-106382994D01*
X152051309Y-106390193D01*
X152002300Y-106392601D01*
X151502300Y-106392601D01*
X151453291Y-106390193D01*
X151404755Y-106382994D01*
X151357158Y-106371071D01*
X151310958Y-106354541D01*
X151266602Y-106333562D01*
X151224515Y-106308336D01*
X151185103Y-106279106D01*
X151148747Y-106246154D01*
X151115795Y-106209798D01*
X151086565Y-106170386D01*
X151061339Y-106128299D01*
X151040360Y-106083943D01*
X151023830Y-106037743D01*
X151011907Y-105990146D01*
X151004708Y-105941610D01*
X151002300Y-105892601D01*
X151002300Y-105892599D01*
X151004708Y-105843590D01*
X151011907Y-105795054D01*
X151023830Y-105747457D01*
X151040360Y-105701257D01*
X151061339Y-105656901D01*
X151086565Y-105614814D01*
X151115795Y-105575402D01*
X151148747Y-105539046D01*
X151185103Y-105506094D01*
X151224515Y-105476864D01*
X151266602Y-105451638D01*
X151310958Y-105430659D01*
X151357158Y-105414129D01*
X151404755Y-105402206D01*
X151453291Y-105395007D01*
X151502300Y-105392599D01*
X152002300Y-105392599D01*
X152051309Y-105395007D01*
X152051309Y-105395007D01*
G37*
D15*
X151752300Y-105892600D03*
D10*
G36*
X152051309Y-104095007D02*
G01*
X152099845Y-104102206D01*
X152147442Y-104114129D01*
X152193642Y-104130659D01*
X152237998Y-104151638D01*
X152280085Y-104176864D01*
X152319497Y-104206094D01*
X152355853Y-104239046D01*
X152388805Y-104275402D01*
X152418035Y-104314814D01*
X152443261Y-104356901D01*
X152464240Y-104401257D01*
X152480770Y-104447457D01*
X152492693Y-104495054D01*
X152499892Y-104543590D01*
X152502300Y-104592599D01*
X152502300Y-104592601D01*
X152499892Y-104641610D01*
X152492693Y-104690146D01*
X152480770Y-104737743D01*
X152464240Y-104783943D01*
X152443261Y-104828299D01*
X152418035Y-104870386D01*
X152388805Y-104909798D01*
X152355853Y-104946154D01*
X152319497Y-104979106D01*
X152280085Y-105008336D01*
X152237998Y-105033562D01*
X152193642Y-105054541D01*
X152147442Y-105071071D01*
X152099845Y-105082994D01*
X152051309Y-105090193D01*
X152002300Y-105092601D01*
X151502300Y-105092601D01*
X151453291Y-105090193D01*
X151404755Y-105082994D01*
X151357158Y-105071071D01*
X151310958Y-105054541D01*
X151266602Y-105033562D01*
X151224515Y-105008336D01*
X151185103Y-104979106D01*
X151148747Y-104946154D01*
X151115795Y-104909798D01*
X151086565Y-104870386D01*
X151061339Y-104828299D01*
X151040360Y-104783943D01*
X151023830Y-104737743D01*
X151011907Y-104690146D01*
X151004708Y-104641610D01*
X151002300Y-104592601D01*
X151002300Y-104592599D01*
X151004708Y-104543590D01*
X151011907Y-104495054D01*
X151023830Y-104447457D01*
X151040360Y-104401257D01*
X151061339Y-104356901D01*
X151086565Y-104314814D01*
X151115795Y-104275402D01*
X151148747Y-104239046D01*
X151185103Y-104206094D01*
X151224515Y-104176864D01*
X151266602Y-104151638D01*
X151310958Y-104130659D01*
X151357158Y-104114129D01*
X151404755Y-104102206D01*
X151453291Y-104095007D01*
X151502300Y-104092599D01*
X152002300Y-104092599D01*
X152051309Y-104095007D01*
X152051309Y-104095007D01*
G37*
D15*
X151752300Y-104592600D03*
D16*
X151752300Y-104842600D03*
X151752300Y-105642600D03*
D20*
X148163600Y-105892600D03*
X145663600Y-105892600D03*
M02*
