G04 #@! TF.GenerationSoftware,KiCad,Pcbnew,5.1.0-rc2-unknown-6eb84e4~82~ubuntu16.04.1*
G04 #@! TF.CreationDate,2019-03-15T17:01:55+01:00*
G04 #@! TF.ProjectId,arduino_nanoPB,61726475-696e-46f5-9f6e-616e6f50422e,rev?*
G04 #@! TF.SameCoordinates,Original*
G04 #@! TF.FileFunction,Legend,Top*
G04 #@! TF.FilePolarity,Positive*
%FSLAX46Y46*%
G04 Gerber Fmt 4.6, Leading zero omitted, Abs format (unit mm)*
G04 Created by KiCad (PCBNEW 5.1.0-rc2-unknown-6eb84e4~82~ubuntu16.04.1) date 2019-03-15 17:01:55*
%MOMM*%
%LPD*%
G04 APERTURE LIST*
%ADD10C,0.100000*%
%ADD11C,0.150000*%
%ADD12O,2.032000X1.727200*%
%ADD13R,2.032000X1.727200*%
%ADD14R,1.500000X1.400000*%
%ADD15C,0.550000*%
%ADD16C,2.540000*%
%ADD17R,2.148840X1.501140*%
%ADD18R,1.800860X1.597660*%
%ADD19R,0.400000X1.350000*%
%ADD20O,1.250000X0.950000*%
%ADD21O,1.000000X1.550000*%
%ADD22R,1.198880X1.600200*%
%ADD23R,1.727200X1.727200*%
%ADD24O,1.727200X1.727200*%
%ADD25R,1.300000X1.500000*%
%ADD26C,0.600000*%
%ADD27R,1.500000X1.300000*%
G04 APERTURE END LIST*
D10*
G36*
X151892000Y-80187800D02*
G01*
X142036800Y-80187800D01*
X142036800Y-78994000D01*
X151892000Y-78994000D01*
X151892000Y-80187800D01*
G37*
X151892000Y-80187800D02*
X142036800Y-80187800D01*
X142036800Y-78994000D01*
X151892000Y-78994000D01*
X151892000Y-80187800D01*
X145707257Y-73412304D02*
X145707257Y-72612304D01*
X145973923Y-73183733D01*
X146240590Y-72612304D01*
X146240590Y-73412304D01*
X146773923Y-72612304D02*
X146926304Y-72612304D01*
X147002495Y-72650400D01*
X147078685Y-72726590D01*
X147116780Y-72878971D01*
X147116780Y-73145638D01*
X147078685Y-73298019D01*
X147002495Y-73374209D01*
X146926304Y-73412304D01*
X146773923Y-73412304D01*
X146697733Y-73374209D01*
X146621542Y-73298019D01*
X146583447Y-73145638D01*
X146583447Y-72878971D01*
X146621542Y-72726590D01*
X146697733Y-72650400D01*
X146773923Y-72612304D01*
X147421542Y-73374209D02*
X147535828Y-73412304D01*
X147726304Y-73412304D01*
X147802495Y-73374209D01*
X147840590Y-73336114D01*
X147878685Y-73259923D01*
X147878685Y-73183733D01*
X147840590Y-73107542D01*
X147802495Y-73069447D01*
X147726304Y-73031352D01*
X147573923Y-72993257D01*
X147497733Y-72955161D01*
X147459638Y-72917066D01*
X147421542Y-72840876D01*
X147421542Y-72764685D01*
X147459638Y-72688495D01*
X147497733Y-72650400D01*
X147573923Y-72612304D01*
X147764400Y-72612304D01*
X147878685Y-72650400D01*
X148221542Y-73412304D02*
X148221542Y-72612304D01*
X151301504Y-72211923D02*
X151301504Y-72592876D01*
X151682457Y-72630971D01*
X151644361Y-72592876D01*
X151606266Y-72516685D01*
X151606266Y-72326209D01*
X151644361Y-72250019D01*
X151682457Y-72211923D01*
X151758647Y-72173828D01*
X151949123Y-72173828D01*
X152025314Y-72211923D01*
X152063409Y-72250019D01*
X152101504Y-72326209D01*
X152101504Y-72516685D01*
X152063409Y-72592876D01*
X152025314Y-72630971D01*
X151301504Y-71945257D02*
X152101504Y-71678590D01*
X151301504Y-71411923D01*
X152101504Y-69926209D02*
X151301504Y-69926209D01*
X151872933Y-69659542D01*
X151301504Y-69392876D01*
X152101504Y-69392876D01*
X152101504Y-69011923D02*
X151301504Y-69011923D01*
X152063409Y-68669066D02*
X152101504Y-68554780D01*
X152101504Y-68364304D01*
X152063409Y-68288114D01*
X152025314Y-68250019D01*
X151949123Y-68211923D01*
X151872933Y-68211923D01*
X151796742Y-68250019D01*
X151758647Y-68288114D01*
X151720552Y-68364304D01*
X151682457Y-68516685D01*
X151644361Y-68592876D01*
X151606266Y-68630971D01*
X151530076Y-68669066D01*
X151453885Y-68669066D01*
X151377695Y-68630971D01*
X151339600Y-68592876D01*
X151301504Y-68516685D01*
X151301504Y-68326209D01*
X151339600Y-68211923D01*
X151301504Y-67716685D02*
X151301504Y-67564304D01*
X151339600Y-67488114D01*
X151415790Y-67411923D01*
X151568171Y-67373828D01*
X151834838Y-67373828D01*
X151987219Y-67411923D01*
X152063409Y-67488114D01*
X152101504Y-67564304D01*
X152101504Y-67716685D01*
X152063409Y-67792876D01*
X151987219Y-67869066D01*
X151834838Y-67907161D01*
X151568171Y-67907161D01*
X151415790Y-67869066D01*
X151339600Y-67792876D01*
X151301504Y-67716685D01*
X142348000Y-71729523D02*
X142309904Y-71805714D01*
X142309904Y-71920000D01*
X142348000Y-72034285D01*
X142424190Y-72110476D01*
X142500380Y-72148571D01*
X142652761Y-72186666D01*
X142767047Y-72186666D01*
X142919428Y-72148571D01*
X142995619Y-72110476D01*
X143071809Y-72034285D01*
X143109904Y-71920000D01*
X143109904Y-71843809D01*
X143071809Y-71729523D01*
X143033714Y-71691428D01*
X142767047Y-71691428D01*
X142767047Y-71843809D01*
X143109904Y-71348571D02*
X142309904Y-71348571D01*
X143109904Y-70891428D01*
X142309904Y-70891428D01*
X143109904Y-70510476D02*
X142309904Y-70510476D01*
X142309904Y-70320000D01*
X142348000Y-70205714D01*
X142424190Y-70129523D01*
X142500380Y-70091428D01*
X142652761Y-70053333D01*
X142767047Y-70053333D01*
X142919428Y-70091428D01*
X142995619Y-70129523D01*
X143071809Y-70205714D01*
X143109904Y-70320000D01*
X143109904Y-70510476D01*
X143059104Y-69068895D02*
X142678152Y-69335561D01*
X143059104Y-69526038D02*
X142259104Y-69526038D01*
X142259104Y-69221276D01*
X142297200Y-69145085D01*
X142335295Y-69106990D01*
X142411485Y-69068895D01*
X142525771Y-69068895D01*
X142601961Y-69106990D01*
X142640057Y-69145085D01*
X142678152Y-69221276D01*
X142678152Y-69526038D01*
X143021009Y-68764133D02*
X143059104Y-68649847D01*
X143059104Y-68459371D01*
X143021009Y-68383180D01*
X142982914Y-68345085D01*
X142906723Y-68306990D01*
X142830533Y-68306990D01*
X142754342Y-68345085D01*
X142716247Y-68383180D01*
X142678152Y-68459371D01*
X142640057Y-68611752D01*
X142601961Y-68687942D01*
X142563866Y-68726038D01*
X142487676Y-68764133D01*
X142411485Y-68764133D01*
X142335295Y-68726038D01*
X142297200Y-68687942D01*
X142259104Y-68611752D01*
X142259104Y-68421276D01*
X142297200Y-68306990D01*
X142259104Y-68078419D02*
X142259104Y-67621276D01*
X143059104Y-67849847D02*
X142259104Y-67849847D01*
X152215904Y-72066047D02*
X153015904Y-71799380D01*
X152215904Y-71532714D01*
X153015904Y-71266047D02*
X152482571Y-71266047D01*
X152215904Y-71266047D02*
X152254000Y-71304142D01*
X152292095Y-71266047D01*
X152254000Y-71227952D01*
X152215904Y-71266047D01*
X152292095Y-71266047D01*
X152482571Y-70885095D02*
X153015904Y-70885095D01*
X152558761Y-70885095D02*
X152520666Y-70847000D01*
X152482571Y-70770809D01*
X152482571Y-70656523D01*
X152520666Y-70580333D01*
X152596857Y-70542238D01*
X153015904Y-70542238D01*
X152317500Y-74396523D02*
X152279404Y-74472714D01*
X152279404Y-74587000D01*
X152317500Y-74701285D01*
X152393690Y-74777476D01*
X152469880Y-74815571D01*
X152622261Y-74853666D01*
X152736547Y-74853666D01*
X152888928Y-74815571D01*
X152965119Y-74777476D01*
X153041309Y-74701285D01*
X153079404Y-74587000D01*
X153079404Y-74510809D01*
X153041309Y-74396523D01*
X153003214Y-74358428D01*
X152736547Y-74358428D01*
X152736547Y-74510809D01*
X153079404Y-74015571D02*
X152279404Y-74015571D01*
X153079404Y-73558428D01*
X152279404Y-73558428D01*
X153079404Y-73177476D02*
X152279404Y-73177476D01*
X152279404Y-72987000D01*
X152317500Y-72872714D01*
X152393690Y-72796523D01*
X152469880Y-72758428D01*
X152622261Y-72720333D01*
X152736547Y-72720333D01*
X152888928Y-72758428D01*
X152965119Y-72796523D01*
X153041309Y-72872714D01*
X153079404Y-72987000D01*
X153079404Y-73177476D01*
X153079404Y-76765095D02*
X152698452Y-77031761D01*
X153079404Y-77222238D02*
X152279404Y-77222238D01*
X152279404Y-76917476D01*
X152317500Y-76841285D01*
X152355595Y-76803190D01*
X152431785Y-76765095D01*
X152546071Y-76765095D01*
X152622261Y-76803190D01*
X152660357Y-76841285D01*
X152698452Y-76917476D01*
X152698452Y-77222238D01*
X153041309Y-76460333D02*
X153079404Y-76346047D01*
X153079404Y-76155571D01*
X153041309Y-76079380D01*
X153003214Y-76041285D01*
X152927023Y-76003190D01*
X152850833Y-76003190D01*
X152774642Y-76041285D01*
X152736547Y-76079380D01*
X152698452Y-76155571D01*
X152660357Y-76307952D01*
X152622261Y-76384142D01*
X152584166Y-76422238D01*
X152507976Y-76460333D01*
X152431785Y-76460333D01*
X152355595Y-76422238D01*
X152317500Y-76384142D01*
X152279404Y-76307952D01*
X152279404Y-76117476D01*
X152317500Y-76003190D01*
X152279404Y-75774619D02*
X152279404Y-75317476D01*
X153079404Y-75546047D02*
X152279404Y-75546047D01*
X152342904Y-79146380D02*
X152342904Y-79527333D01*
X152723857Y-79565428D01*
X152685761Y-79527333D01*
X152647666Y-79451142D01*
X152647666Y-79260666D01*
X152685761Y-79184476D01*
X152723857Y-79146380D01*
X152800047Y-79108285D01*
X152990523Y-79108285D01*
X153066714Y-79146380D01*
X153104809Y-79184476D01*
X153142904Y-79260666D01*
X153142904Y-79451142D01*
X153104809Y-79527333D01*
X153066714Y-79565428D01*
X152342904Y-78879714D02*
X153142904Y-78613047D01*
X152342904Y-78346380D01*
X152914333Y-82041928D02*
X152914333Y-81660976D01*
X153142904Y-82118119D02*
X152342904Y-81851452D01*
X153142904Y-81584785D01*
X152342904Y-81394309D02*
X152342904Y-80860976D01*
X153142904Y-81203833D01*
X152850833Y-84518428D02*
X152850833Y-84137476D01*
X153079404Y-84594619D02*
X152279404Y-84327952D01*
X153079404Y-84061285D01*
X152279404Y-83451761D02*
X152279404Y-83604142D01*
X152317500Y-83680333D01*
X152355595Y-83718428D01*
X152469880Y-83794619D01*
X152622261Y-83832714D01*
X152927023Y-83832714D01*
X153003214Y-83794619D01*
X153041309Y-83756523D01*
X153079404Y-83680333D01*
X153079404Y-83527952D01*
X153041309Y-83451761D01*
X153003214Y-83413666D01*
X152927023Y-83375571D01*
X152736547Y-83375571D01*
X152660357Y-83413666D01*
X152622261Y-83451761D01*
X152584166Y-83527952D01*
X152584166Y-83680333D01*
X152622261Y-83756523D01*
X152660357Y-83794619D01*
X152736547Y-83832714D01*
X152914333Y-87185428D02*
X152914333Y-86804476D01*
X153142904Y-87261619D02*
X152342904Y-86994952D01*
X153142904Y-86728285D01*
X152342904Y-86080666D02*
X152342904Y-86461619D01*
X152723857Y-86499714D01*
X152685761Y-86461619D01*
X152647666Y-86385428D01*
X152647666Y-86194952D01*
X152685761Y-86118761D01*
X152723857Y-86080666D01*
X152800047Y-86042571D01*
X152990523Y-86042571D01*
X153066714Y-86080666D01*
X153104809Y-86118761D01*
X153142904Y-86194952D01*
X153142904Y-86385428D01*
X153104809Y-86461619D01*
X153066714Y-86499714D01*
X152787333Y-89598428D02*
X152787333Y-89217476D01*
X153015904Y-89674619D02*
X152215904Y-89407952D01*
X153015904Y-89141285D01*
X152482571Y-88531761D02*
X153015904Y-88531761D01*
X152177809Y-88722238D02*
X152749238Y-88912714D01*
X152749238Y-88417476D01*
X153041333Y-92011428D02*
X153041333Y-91630476D01*
X153269904Y-92087619D02*
X152469904Y-91820952D01*
X153269904Y-91554285D01*
X152469904Y-91363809D02*
X152469904Y-90868571D01*
X152774666Y-91135238D01*
X152774666Y-91020952D01*
X152812761Y-90944761D01*
X152850857Y-90906666D01*
X152927047Y-90868571D01*
X153117523Y-90868571D01*
X153193714Y-90906666D01*
X153231809Y-90944761D01*
X153269904Y-91020952D01*
X153269904Y-91249523D01*
X153231809Y-91325714D01*
X153193714Y-91363809D01*
X153041333Y-93916428D02*
X153041333Y-93535476D01*
X153269904Y-93992619D02*
X152469904Y-93725952D01*
X153269904Y-93459285D01*
X152546095Y-93230714D02*
X152508000Y-93192619D01*
X152469904Y-93116428D01*
X152469904Y-92925952D01*
X152508000Y-92849761D01*
X152546095Y-92811666D01*
X152622285Y-92773571D01*
X152698476Y-92773571D01*
X152812761Y-92811666D01*
X153269904Y-93268809D01*
X153269904Y-92773571D01*
X153041333Y-96837428D02*
X153041333Y-96456476D01*
X153269904Y-96913619D02*
X152469904Y-96646952D01*
X153269904Y-96380285D01*
X153269904Y-95694571D02*
X153269904Y-96151714D01*
X153269904Y-95923142D02*
X152469904Y-95923142D01*
X152584190Y-95999333D01*
X152660380Y-96075523D01*
X152698476Y-96151714D01*
X153041333Y-99758428D02*
X153041333Y-99377476D01*
X153269904Y-99834619D02*
X152469904Y-99567952D01*
X153269904Y-99301285D01*
X152469904Y-98882238D02*
X152469904Y-98806047D01*
X152508000Y-98729857D01*
X152546095Y-98691761D01*
X152622285Y-98653666D01*
X152774666Y-98615571D01*
X152965142Y-98615571D01*
X153117523Y-98653666D01*
X153193714Y-98691761D01*
X153231809Y-98729857D01*
X153269904Y-98806047D01*
X153269904Y-98882238D01*
X153231809Y-98958428D01*
X153193714Y-98996523D01*
X153117523Y-99034619D01*
X152965142Y-99072714D01*
X152774666Y-99072714D01*
X152622285Y-99034619D01*
X152546095Y-98996523D01*
X152508000Y-98958428D01*
X152469904Y-98882238D01*
X150977761Y-101733333D02*
X151358714Y-101733333D01*
X150901571Y-101961904D02*
X151168238Y-101161904D01*
X151434904Y-101961904D01*
X152158714Y-101961904D02*
X151892047Y-101580952D01*
X151701571Y-101961904D02*
X151701571Y-101161904D01*
X152006333Y-101161904D01*
X152082523Y-101200000D01*
X152120619Y-101238095D01*
X152158714Y-101314285D01*
X152158714Y-101428571D01*
X152120619Y-101504761D01*
X152082523Y-101542857D01*
X152006333Y-101580952D01*
X151701571Y-101580952D01*
X152501571Y-101542857D02*
X152768238Y-101542857D01*
X152882523Y-101961904D02*
X152501571Y-101961904D01*
X152501571Y-101161904D01*
X152882523Y-101161904D01*
X153492047Y-101542857D02*
X153225380Y-101542857D01*
X153225380Y-101961904D02*
X153225380Y-101161904D01*
X153606333Y-101161904D01*
X151790523Y-102812904D02*
X152285761Y-102812904D01*
X152019095Y-103117666D01*
X152133380Y-103117666D01*
X152209571Y-103155761D01*
X152247666Y-103193857D01*
X152285761Y-103270047D01*
X152285761Y-103460523D01*
X152247666Y-103536714D01*
X152209571Y-103574809D01*
X152133380Y-103612904D01*
X151904809Y-103612904D01*
X151828619Y-103574809D01*
X151790523Y-103536714D01*
X152514333Y-102812904D02*
X152781000Y-103612904D01*
X153047666Y-102812904D01*
X153238142Y-102812904D02*
X153733380Y-102812904D01*
X153466714Y-103117666D01*
X153581000Y-103117666D01*
X153657190Y-103155761D01*
X153695285Y-103193857D01*
X153733380Y-103270047D01*
X153733380Y-103460523D01*
X153695285Y-103536714D01*
X153657190Y-103574809D01*
X153581000Y-103612904D01*
X153352428Y-103612904D01*
X153276238Y-103574809D01*
X153238142Y-103536714D01*
X153054095Y-108559523D02*
X153016000Y-108521428D01*
X152977904Y-108445238D01*
X152977904Y-108254761D01*
X153016000Y-108178571D01*
X153054095Y-108140476D01*
X153130285Y-108102380D01*
X153206476Y-108102380D01*
X153320761Y-108140476D01*
X153777904Y-108597619D01*
X153777904Y-108102380D01*
X153244571Y-107416666D02*
X153777904Y-107416666D01*
X152939809Y-107607142D02*
X153511238Y-107797619D01*
X153511238Y-107302380D01*
X153676304Y-105727480D02*
X153676304Y-106184623D01*
X153676304Y-105956052D02*
X152876304Y-105956052D01*
X152990590Y-106032242D01*
X153066780Y-106108433D01*
X153104876Y-106184623D01*
X152876304Y-105460814D02*
X152876304Y-104965576D01*
X153181066Y-105232242D01*
X153181066Y-105117957D01*
X153219161Y-105041766D01*
X153257257Y-105003671D01*
X153333447Y-104965576D01*
X153523923Y-104965576D01*
X153600114Y-105003671D01*
X153638209Y-105041766D01*
X153676304Y-105117957D01*
X153676304Y-105346528D01*
X153638209Y-105422719D01*
X153600114Y-105460814D01*
X141179595Y-109829523D02*
X141141500Y-109791428D01*
X141103404Y-109715238D01*
X141103404Y-109524761D01*
X141141500Y-109448571D01*
X141179595Y-109410476D01*
X141255785Y-109372380D01*
X141331976Y-109372380D01*
X141446261Y-109410476D01*
X141903404Y-109867619D01*
X141903404Y-109372380D01*
X141103404Y-109105714D02*
X141103404Y-108610476D01*
X141408166Y-108877142D01*
X141408166Y-108762857D01*
X141446261Y-108686666D01*
X141484357Y-108648571D01*
X141560547Y-108610476D01*
X141751023Y-108610476D01*
X141827214Y-108648571D01*
X141865309Y-108686666D01*
X141903404Y-108762857D01*
X141903404Y-108991428D01*
X141865309Y-109067619D01*
X141827214Y-109105714D01*
X141839904Y-107149880D02*
X141839904Y-107607023D01*
X141839904Y-107378452D02*
X141039904Y-107378452D01*
X141154190Y-107454642D01*
X141230380Y-107530833D01*
X141268476Y-107607023D01*
X141116095Y-106845119D02*
X141078000Y-106807023D01*
X141039904Y-106730833D01*
X141039904Y-106540357D01*
X141078000Y-106464166D01*
X141116095Y-106426071D01*
X141192285Y-106387976D01*
X141268476Y-106387976D01*
X141382761Y-106426071D01*
X141839904Y-106883214D01*
X141839904Y-106387976D01*
X141763704Y-104292380D02*
X141763704Y-104749523D01*
X141763704Y-104520952D02*
X140963704Y-104520952D01*
X141077990Y-104597142D01*
X141154180Y-104673333D01*
X141192276Y-104749523D01*
X141763704Y-103530476D02*
X141763704Y-103987619D01*
X141763704Y-103759047D02*
X140963704Y-103759047D01*
X141077990Y-103835238D01*
X141154180Y-103911428D01*
X141192276Y-103987619D01*
X141579619Y-102063504D02*
X141122476Y-102063504D01*
X141351047Y-102063504D02*
X141351047Y-101263504D01*
X141274857Y-101377790D01*
X141198666Y-101453980D01*
X141122476Y-101492076D01*
X142074857Y-101263504D02*
X142151047Y-101263504D01*
X142227238Y-101301600D01*
X142265333Y-101339695D01*
X142303428Y-101415885D01*
X142341523Y-101568266D01*
X142341523Y-101758742D01*
X142303428Y-101911123D01*
X142265333Y-101987314D01*
X142227238Y-102025409D01*
X142151047Y-102063504D01*
X142074857Y-102063504D01*
X141998666Y-102025409D01*
X141960571Y-101987314D01*
X141922476Y-101911123D01*
X141884380Y-101758742D01*
X141884380Y-101568266D01*
X141922476Y-101415885D01*
X141960571Y-101339695D01*
X141998666Y-101301600D01*
X142074857Y-101263504D01*
X141839904Y-99212380D02*
X141839904Y-99060000D01*
X141801809Y-98983809D01*
X141763714Y-98945714D01*
X141649428Y-98869523D01*
X141497047Y-98831428D01*
X141192285Y-98831428D01*
X141116095Y-98869523D01*
X141078000Y-98907619D01*
X141039904Y-98983809D01*
X141039904Y-99136190D01*
X141078000Y-99212380D01*
X141116095Y-99250476D01*
X141192285Y-99288571D01*
X141382761Y-99288571D01*
X141458952Y-99250476D01*
X141497047Y-99212380D01*
X141535142Y-99136190D01*
X141535142Y-98983809D01*
X141497047Y-98907619D01*
X141458952Y-98869523D01*
X141382761Y-98831428D01*
X141382761Y-96659690D02*
X141344666Y-96735880D01*
X141306571Y-96773976D01*
X141230380Y-96812071D01*
X141192285Y-96812071D01*
X141116095Y-96773976D01*
X141078000Y-96735880D01*
X141039904Y-96659690D01*
X141039904Y-96507309D01*
X141078000Y-96431119D01*
X141116095Y-96393023D01*
X141192285Y-96354928D01*
X141230380Y-96354928D01*
X141306571Y-96393023D01*
X141344666Y-96431119D01*
X141382761Y-96507309D01*
X141382761Y-96659690D01*
X141420857Y-96735880D01*
X141458952Y-96773976D01*
X141535142Y-96812071D01*
X141687523Y-96812071D01*
X141763714Y-96773976D01*
X141801809Y-96735880D01*
X141839904Y-96659690D01*
X141839904Y-96507309D01*
X141801809Y-96431119D01*
X141763714Y-96393023D01*
X141687523Y-96354928D01*
X141535142Y-96354928D01*
X141458952Y-96393023D01*
X141420857Y-96431119D01*
X141382761Y-96507309D01*
X140912904Y-94310166D02*
X140912904Y-93776833D01*
X141712904Y-94119690D01*
X140912904Y-92303619D02*
X140912904Y-92456000D01*
X140951000Y-92532190D01*
X140989095Y-92570285D01*
X141103380Y-92646476D01*
X141255761Y-92684571D01*
X141560523Y-92684571D01*
X141636714Y-92646476D01*
X141674809Y-92608380D01*
X141712904Y-92532190D01*
X141712904Y-92379809D01*
X141674809Y-92303619D01*
X141636714Y-92265523D01*
X141560523Y-92227428D01*
X141370047Y-92227428D01*
X141293857Y-92265523D01*
X141255761Y-92303619D01*
X141217666Y-92379809D01*
X141217666Y-92532190D01*
X141255761Y-92608380D01*
X141293857Y-92646476D01*
X141370047Y-92684571D01*
X141039904Y-88836523D02*
X141039904Y-89217476D01*
X141420857Y-89255571D01*
X141382761Y-89217476D01*
X141344666Y-89141285D01*
X141344666Y-88950809D01*
X141382761Y-88874619D01*
X141420857Y-88836523D01*
X141497047Y-88798428D01*
X141687523Y-88798428D01*
X141763714Y-88836523D01*
X141801809Y-88874619D01*
X141839904Y-88950809D01*
X141839904Y-89141285D01*
X141801809Y-89217476D01*
X141763714Y-89255571D01*
X141243071Y-86271119D02*
X141776404Y-86271119D01*
X140938309Y-86461595D02*
X141509738Y-86652071D01*
X141509738Y-86156833D01*
X140976404Y-84277166D02*
X140976404Y-83781928D01*
X141281166Y-84048595D01*
X141281166Y-83934309D01*
X141319261Y-83858119D01*
X141357357Y-83820023D01*
X141433547Y-83781928D01*
X141624023Y-83781928D01*
X141700214Y-83820023D01*
X141738309Y-83858119D01*
X141776404Y-83934309D01*
X141776404Y-84162880D01*
X141738309Y-84239071D01*
X141700214Y-84277166D01*
X140989095Y-81762571D02*
X140951000Y-81724476D01*
X140912904Y-81648285D01*
X140912904Y-81457809D01*
X140951000Y-81381619D01*
X140989095Y-81343523D01*
X141065285Y-81305428D01*
X141141476Y-81305428D01*
X141255761Y-81343523D01*
X141712904Y-81800666D01*
X141712904Y-81305428D01*
X140951000Y-79476523D02*
X140912904Y-79552714D01*
X140912904Y-79667000D01*
X140951000Y-79781285D01*
X141027190Y-79857476D01*
X141103380Y-79895571D01*
X141255761Y-79933666D01*
X141370047Y-79933666D01*
X141522428Y-79895571D01*
X141598619Y-79857476D01*
X141674809Y-79781285D01*
X141712904Y-79667000D01*
X141712904Y-79590809D01*
X141674809Y-79476523D01*
X141636714Y-79438428D01*
X141370047Y-79438428D01*
X141370047Y-79590809D01*
X141712904Y-79095571D02*
X140912904Y-79095571D01*
X141712904Y-78638428D01*
X140912904Y-78638428D01*
X141712904Y-78257476D02*
X140912904Y-78257476D01*
X140912904Y-78067000D01*
X140951000Y-77952714D01*
X141027190Y-77876523D01*
X141103380Y-77838428D01*
X141255761Y-77800333D01*
X141370047Y-77800333D01*
X141522428Y-77838428D01*
X141598619Y-77876523D01*
X141674809Y-77952714D01*
X141712904Y-78067000D01*
X141712904Y-78257476D01*
X141712904Y-76765095D02*
X141331952Y-77031761D01*
X141712904Y-77222238D02*
X140912904Y-77222238D01*
X140912904Y-76917476D01*
X140951000Y-76841285D01*
X140989095Y-76803190D01*
X141065285Y-76765095D01*
X141179571Y-76765095D01*
X141255761Y-76803190D01*
X141293857Y-76841285D01*
X141331952Y-76917476D01*
X141331952Y-77222238D01*
X141674809Y-76460333D02*
X141712904Y-76346047D01*
X141712904Y-76155571D01*
X141674809Y-76079380D01*
X141636714Y-76041285D01*
X141560523Y-76003190D01*
X141484333Y-76003190D01*
X141408142Y-76041285D01*
X141370047Y-76079380D01*
X141331952Y-76155571D01*
X141293857Y-76307952D01*
X141255761Y-76384142D01*
X141217666Y-76422238D01*
X141141476Y-76460333D01*
X141065285Y-76460333D01*
X140989095Y-76422238D01*
X140951000Y-76384142D01*
X140912904Y-76307952D01*
X140912904Y-76117476D01*
X140951000Y-76003190D01*
X140912904Y-75774619D02*
X140912904Y-75317476D01*
X141712904Y-75546047D02*
X140912904Y-75546047D01*
X141712904Y-74301285D02*
X141331952Y-74567952D01*
X141712904Y-74758428D02*
X140912904Y-74758428D01*
X140912904Y-74453666D01*
X140951000Y-74377476D01*
X140989095Y-74339380D01*
X141065285Y-74301285D01*
X141179571Y-74301285D01*
X141255761Y-74339380D01*
X141293857Y-74377476D01*
X141331952Y-74453666D01*
X141331952Y-74758428D01*
X140912904Y-74034619D02*
X141712904Y-73501285D01*
X140912904Y-73501285D02*
X141712904Y-74034619D01*
X140912904Y-73044142D02*
X140912904Y-72967952D01*
X140951000Y-72891761D01*
X140989095Y-72853666D01*
X141065285Y-72815571D01*
X141217666Y-72777476D01*
X141408142Y-72777476D01*
X141560523Y-72815571D01*
X141636714Y-72853666D01*
X141674809Y-72891761D01*
X141712904Y-72967952D01*
X141712904Y-73044142D01*
X141674809Y-73120333D01*
X141636714Y-73158428D01*
X141560523Y-73196523D01*
X141408142Y-73234619D01*
X141217666Y-73234619D01*
X141065285Y-73196523D01*
X140989095Y-73158428D01*
X140951000Y-73120333D01*
X140912904Y-73044142D01*
X141293904Y-71856476D02*
X141293904Y-71399333D01*
X142093904Y-71627904D02*
X141293904Y-71627904D01*
X141293904Y-71208857D02*
X142093904Y-70675523D01*
X141293904Y-70675523D02*
X142093904Y-71208857D01*
X142093904Y-69951714D02*
X142093904Y-70408857D01*
X142093904Y-70180285D02*
X141293904Y-70180285D01*
X141408190Y-70256476D01*
X141484380Y-70332666D01*
X141522476Y-70408857D01*
X142355200Y-100245810D02*
X142920885Y-99680125D01*
X142705386Y-99895624D02*
X142786198Y-99922562D01*
X142893948Y-100030311D01*
X142920885Y-100111123D01*
X142920885Y-100164998D01*
X142893948Y-100245810D01*
X142732323Y-100407435D01*
X142651511Y-100434372D01*
X142597636Y-100434372D01*
X142516824Y-100407435D01*
X142409075Y-100299685D01*
X142382137Y-100218873D01*
X143190259Y-100326623D02*
X142947823Y-100838433D01*
X143459633Y-100595997D02*
X142947823Y-100838433D01*
X142759261Y-100919245D01*
X142705386Y-100919245D01*
X142624574Y-100892308D01*
X143729007Y-101619618D02*
X144294693Y-101053932D01*
X143998381Y-101457993D02*
X143944506Y-101835117D01*
X144321630Y-101457993D02*
X143890632Y-101457993D01*
X144267755Y-102158366D02*
X144240818Y-102077554D01*
X144240818Y-102023679D01*
X144267755Y-101942867D01*
X144429380Y-101781242D01*
X144510192Y-101754305D01*
X144564067Y-101754305D01*
X144644879Y-101781242D01*
X144725691Y-101862054D01*
X144752628Y-101942867D01*
X144752628Y-101996741D01*
X144725691Y-102077554D01*
X144564067Y-102239178D01*
X144483254Y-102266115D01*
X144429380Y-102266115D01*
X144348567Y-102239178D01*
X144267755Y-102158366D01*
X145022002Y-102158366D02*
X144779566Y-102670176D01*
X145291376Y-102427740D01*
X145210564Y-103101175D02*
X145183627Y-103020363D01*
X145183627Y-102966488D01*
X145210564Y-102885676D01*
X145372189Y-102724051D01*
X145453001Y-102697114D01*
X145506876Y-102697114D01*
X145587688Y-102724051D01*
X145668500Y-102804863D01*
X145695437Y-102885676D01*
X145695437Y-102939550D01*
X145668500Y-103020363D01*
X145506876Y-103181987D01*
X145426063Y-103208924D01*
X145372189Y-103208924D01*
X145291376Y-103181987D01*
X145210564Y-103101175D01*
X149409011Y-90373713D02*
X149786135Y-90750837D01*
X149462886Y-90427588D02*
X149462886Y-90373713D01*
X149489823Y-90292901D01*
X149570636Y-90212089D01*
X149651448Y-90185151D01*
X149732260Y-90212089D01*
X150028571Y-90508400D01*
X150540382Y-89996590D02*
X150244071Y-89700278D01*
X150163258Y-89673341D01*
X150082446Y-89700278D01*
X149974697Y-89808028D01*
X149947759Y-89888840D01*
X150513445Y-89969652D02*
X150486507Y-90050464D01*
X150351820Y-90185151D01*
X150271008Y-90212089D01*
X150190196Y-90185151D01*
X150136321Y-90131277D01*
X150109384Y-90050464D01*
X150136321Y-89969652D01*
X150271008Y-89834965D01*
X150297945Y-89754153D01*
X150432632Y-89350092D02*
X150809756Y-89727216D01*
X150486507Y-89403967D02*
X150486507Y-89350092D01*
X150513445Y-89269280D01*
X150594257Y-89188468D01*
X150675069Y-89161530D01*
X150755881Y-89188468D01*
X151052193Y-89484779D01*
X151402379Y-89134593D02*
X151321567Y-89161530D01*
X151267692Y-89161530D01*
X151186880Y-89134593D01*
X151025255Y-88972968D01*
X150998318Y-88892156D01*
X150998318Y-88838281D01*
X151025255Y-88757469D01*
X151106067Y-88676657D01*
X151186880Y-88649720D01*
X151240754Y-88649720D01*
X151321567Y-88676657D01*
X151483191Y-88838281D01*
X151510128Y-88919094D01*
X151510128Y-88972968D01*
X151483191Y-89053781D01*
X151402379Y-89134593D01*
X150705374Y-91670076D02*
X150139688Y-91104390D01*
X150355188Y-90888891D01*
X150436000Y-90861954D01*
X150489875Y-90861954D01*
X150570687Y-90888891D01*
X150651499Y-90969703D01*
X150678436Y-91050516D01*
X150678436Y-91104390D01*
X150651499Y-91185203D01*
X150436000Y-91400702D01*
X151163310Y-90619517D02*
X151271059Y-90565642D01*
X151324934Y-90565642D01*
X151405746Y-90592580D01*
X151486558Y-90673392D01*
X151513496Y-90754204D01*
X151513496Y-90808079D01*
X151486558Y-90888891D01*
X151271059Y-91104390D01*
X150705374Y-90538705D01*
X150893936Y-90350143D01*
X150974748Y-90323206D01*
X151028623Y-90323206D01*
X151109435Y-90350143D01*
X151163310Y-90404018D01*
X151190247Y-90484830D01*
X151190247Y-90538705D01*
X151163310Y-90619517D01*
X150974748Y-90808079D01*
X146202523Y-89719104D02*
X145935857Y-89338152D01*
X145745380Y-89719104D02*
X145745380Y-88919104D01*
X146050142Y-88919104D01*
X146126333Y-88957200D01*
X146164428Y-88995295D01*
X146202523Y-89071485D01*
X146202523Y-89185771D01*
X146164428Y-89261961D01*
X146126333Y-89300057D01*
X146050142Y-89338152D01*
X145745380Y-89338152D01*
X146850142Y-89681009D02*
X146773952Y-89719104D01*
X146621571Y-89719104D01*
X146545380Y-89681009D01*
X146507285Y-89604819D01*
X146507285Y-89300057D01*
X146545380Y-89223866D01*
X146621571Y-89185771D01*
X146773952Y-89185771D01*
X146850142Y-89223866D01*
X146888238Y-89300057D01*
X146888238Y-89376247D01*
X146507285Y-89452438D01*
X147193000Y-89681009D02*
X147269190Y-89719104D01*
X147421571Y-89719104D01*
X147497761Y-89681009D01*
X147535857Y-89604819D01*
X147535857Y-89566723D01*
X147497761Y-89490533D01*
X147421571Y-89452438D01*
X147307285Y-89452438D01*
X147231095Y-89414342D01*
X147193000Y-89338152D01*
X147193000Y-89300057D01*
X147231095Y-89223866D01*
X147307285Y-89185771D01*
X147421571Y-89185771D01*
X147497761Y-89223866D01*
X148183476Y-89681009D02*
X148107285Y-89719104D01*
X147954904Y-89719104D01*
X147878714Y-89681009D01*
X147840619Y-89604819D01*
X147840619Y-89300057D01*
X147878714Y-89223866D01*
X147954904Y-89185771D01*
X148107285Y-89185771D01*
X148183476Y-89223866D01*
X148221571Y-89300057D01*
X148221571Y-89376247D01*
X147840619Y-89452438D01*
X148450142Y-89185771D02*
X148754904Y-89185771D01*
X148564428Y-88919104D02*
X148564428Y-89604819D01*
X148602523Y-89681009D01*
X148678714Y-89719104D01*
X148754904Y-89719104D01*
D11*
X153136000Y-69697000D02*
X156236000Y-69697000D01*
X153136000Y-71247000D02*
X153136000Y-69697000D01*
X155956000Y-72517000D02*
X153416000Y-72517000D01*
X156236000Y-69697000D02*
X156236000Y-71247000D01*
X155956000Y-110617000D02*
X155956000Y-72517000D01*
X153416000Y-110617000D02*
X155956000Y-110617000D01*
X153416000Y-72517000D02*
X153416000Y-110617000D01*
X150418000Y-88394200D02*
X150418000Y-85494200D01*
X144245600Y-85494200D02*
X144245600Y-88444200D01*
X149480800Y-87706200D02*
X145162800Y-87706200D01*
X145162800Y-87706200D02*
X145162800Y-86182200D01*
X145162800Y-86182200D02*
X149480800Y-86182200D01*
X149480800Y-86182200D02*
X149480800Y-87706200D01*
X144595600Y-88794200D02*
G75*
G02X144245600Y-88444200I0J350000D01*
G01*
X150417444Y-88366572D02*
G75*
G02X149968000Y-88794200I-449444J22372D01*
G01*
X150018000Y-85094200D02*
G75*
G02X150418000Y-85494200I0J-400000D01*
G01*
X144245600Y-85494200D02*
G75*
G02X144645600Y-85094200I400000J0D01*
G01*
X149968000Y-88794200D02*
X144595600Y-88794200D01*
X150018000Y-85094200D02*
X144645600Y-85094200D01*
X147300000Y-91088676D02*
X147070190Y-91318486D01*
X152426524Y-96215200D02*
X152196714Y-96445010D01*
X147300000Y-101341724D02*
X147529810Y-101111914D01*
X142173476Y-96215200D02*
X142403286Y-95985390D01*
X147300000Y-91088676D02*
X147529810Y-91318486D01*
X142173476Y-96215200D02*
X142403286Y-96445010D01*
X147300000Y-101341724D02*
X147070190Y-101111914D01*
X152426524Y-96215200D02*
X152196714Y-95985390D01*
X147070190Y-91318486D02*
X146062563Y-90310858D01*
X137896000Y-69697000D02*
X140996000Y-69697000D01*
X137896000Y-71247000D02*
X137896000Y-69697000D01*
X140716000Y-72517000D02*
X138176000Y-72517000D01*
X140996000Y-69697000D02*
X140996000Y-71247000D01*
X140716000Y-110617000D02*
X140716000Y-72517000D01*
X138176000Y-110617000D02*
X140716000Y-110617000D01*
X138176000Y-72517000D02*
X138176000Y-110617000D01*
X146862800Y-103906320D02*
X146862800Y-106304080D01*
X145760440Y-103306880D02*
X146959320Y-103306880D01*
X146359880Y-102806500D02*
X146359880Y-103906320D01*
X152560020Y-103906320D02*
X147358100Y-103906320D01*
X147358100Y-106304080D02*
X152560020Y-106304080D01*
X150337900Y-76629260D02*
X150837900Y-76129260D01*
X151337900Y-76629260D02*
X150337900Y-76629260D01*
X150837900Y-76129260D02*
X151337900Y-76629260D01*
X150837900Y-76629260D02*
X150837900Y-77129260D01*
X151337900Y-76129260D02*
X150337900Y-76129260D01*
X150787900Y-76429260D02*
X150837900Y-76379260D01*
X151037900Y-76429260D02*
X150787900Y-76429260D01*
X150837900Y-76229260D02*
X151037900Y-76429260D01*
X150537900Y-76529260D02*
X150837900Y-76229260D01*
X151137900Y-76529260D02*
X150537900Y-76529260D01*
X151887900Y-74479260D02*
X151887900Y-78079260D01*
X149787900Y-74479260D02*
X149787900Y-78079260D01*
X142028200Y-74466560D02*
X142028200Y-78066560D01*
X144128200Y-74466560D02*
X144128200Y-78066560D01*
X143378200Y-76516560D02*
X142778200Y-76516560D01*
X142778200Y-76516560D02*
X143078200Y-76216560D01*
X143078200Y-76216560D02*
X143278200Y-76416560D01*
X143278200Y-76416560D02*
X143028200Y-76416560D01*
X143028200Y-76416560D02*
X143078200Y-76366560D01*
X143578200Y-76116560D02*
X142578200Y-76116560D01*
X143078200Y-76616560D02*
X143078200Y-77116560D01*
X143078200Y-76116560D02*
X143578200Y-76616560D01*
X143578200Y-76616560D02*
X142578200Y-76616560D01*
X142578200Y-76616560D02*
X143078200Y-76116560D01*
X147222500Y-74479260D02*
X147222500Y-78079260D01*
X149322500Y-74479260D02*
X149322500Y-78079260D01*
X148572500Y-76529260D02*
X147972500Y-76529260D01*
X147972500Y-76529260D02*
X148272500Y-76229260D01*
X148272500Y-76229260D02*
X148472500Y-76429260D01*
X148472500Y-76429260D02*
X148222500Y-76429260D01*
X148222500Y-76429260D02*
X148272500Y-76379260D01*
X148772500Y-76129260D02*
X147772500Y-76129260D01*
X148272500Y-76629260D02*
X148272500Y-77129260D01*
X148272500Y-76129260D02*
X148772500Y-76629260D01*
X148772500Y-76629260D02*
X147772500Y-76629260D01*
X147772500Y-76629260D02*
X148272500Y-76129260D01*
X145169000Y-76616560D02*
X145669000Y-76116560D01*
X146169000Y-76616560D02*
X145169000Y-76616560D01*
X145669000Y-76116560D02*
X146169000Y-76616560D01*
X145669000Y-76616560D02*
X145669000Y-77116560D01*
X146169000Y-76116560D02*
X145169000Y-76116560D01*
X145619000Y-76416560D02*
X145669000Y-76366560D01*
X145869000Y-76416560D02*
X145619000Y-76416560D01*
X145669000Y-76216560D02*
X145869000Y-76416560D01*
X145369000Y-76516560D02*
X145669000Y-76216560D01*
X145969000Y-76516560D02*
X145369000Y-76516560D01*
X146719000Y-74466560D02*
X146719000Y-78066560D01*
X144619000Y-74466560D02*
X144619000Y-78066560D01*
X142649100Y-113217460D02*
X151349100Y-113217460D01*
X142649100Y-106812460D02*
X151349100Y-106812460D01*
X151349100Y-106812460D02*
X151349100Y-113217460D01*
X151349100Y-111987460D02*
X142649100Y-111987460D01*
X142649100Y-113217460D02*
X142649100Y-106812460D01*
X153289000Y-110802420D02*
X153289000Y-109750860D01*
X151688800Y-109700060D02*
X151688800Y-110751620D01*
X148330000Y-67430000D02*
X143250000Y-67430000D01*
X151150000Y-67150000D02*
X151150000Y-68700000D01*
X150870000Y-69970000D02*
X148330000Y-69970000D01*
X148330000Y-69970000D02*
X148330000Y-67430000D01*
X143250000Y-67430000D02*
X143250000Y-72510000D01*
X143250000Y-72510000D02*
X148330000Y-72510000D01*
X151150000Y-67150000D02*
X149600000Y-67150000D01*
X150870000Y-72510000D02*
X150870000Y-69970000D01*
X148330000Y-72510000D02*
X150870000Y-72510000D01*
X149927280Y-81797600D02*
X149927280Y-82997600D01*
X148177280Y-82997600D02*
X148177280Y-81797600D01*
X150255000Y-82997600D02*
X150255000Y-81797600D01*
X152005000Y-81797600D02*
X152005000Y-82997600D01*
X141974600Y-82997600D02*
X141974600Y-81797600D01*
X143724600Y-81797600D02*
X143724600Y-82997600D01*
X147864800Y-81797600D02*
X147864800Y-82997600D01*
X146114800Y-82997600D02*
X146114800Y-81797600D01*
X144032000Y-82997600D02*
X144032000Y-81797600D01*
X145782000Y-81797600D02*
X145782000Y-82997600D01*
X142443200Y-92907060D02*
X144847363Y-90502897D01*
X144847363Y-90502897D02*
X143786703Y-89442237D01*
X143786703Y-89442237D02*
X141382540Y-91846400D01*
X141382540Y-91846400D02*
X142443200Y-92907060D01*
X144748800Y-105980200D02*
X143548800Y-105980200D01*
X143548800Y-104230200D02*
X144748800Y-104230200D01*
D10*
X148417981Y-93786421D02*
X147960045Y-94244357D01*
X147933108Y-94325169D01*
X147933108Y-94379044D01*
X147960045Y-94459856D01*
X148067795Y-94567606D01*
X148148607Y-94594543D01*
X148202482Y-94594543D01*
X148283294Y-94567606D01*
X148741230Y-94109670D01*
X148741230Y-95241041D02*
X148417981Y-94917792D01*
X148579606Y-95079416D02*
X149145291Y-94513731D01*
X149010604Y-94540668D01*
X148902854Y-94540668D01*
X148822042Y-94513731D01*
X149000226Y-103485914D02*
X148962131Y-103524009D01*
X148847845Y-103562104D01*
X148771655Y-103562104D01*
X148657369Y-103524009D01*
X148581179Y-103447819D01*
X148543083Y-103371628D01*
X148504988Y-103219247D01*
X148504988Y-103104961D01*
X148543083Y-102952580D01*
X148581179Y-102876390D01*
X148657369Y-102800200D01*
X148771655Y-102762104D01*
X148847845Y-102762104D01*
X148962131Y-102800200D01*
X149000226Y-102838295D01*
X149266893Y-102762104D02*
X149762131Y-102762104D01*
X149495464Y-103066866D01*
X149609750Y-103066866D01*
X149685940Y-103104961D01*
X149724036Y-103143057D01*
X149762131Y-103219247D01*
X149762131Y-103409723D01*
X149724036Y-103485914D01*
X149685940Y-103524009D01*
X149609750Y-103562104D01*
X149381179Y-103562104D01*
X149304988Y-103524009D01*
X149266893Y-103485914D01*
X146098298Y-103257342D02*
X146707821Y-103257342D01*
X146403060Y-103562104D02*
X146403060Y-102952580D01*
X150222023Y-74021904D02*
X150222023Y-73221904D01*
X150412500Y-73221904D01*
X150526785Y-73260000D01*
X150602976Y-73336190D01*
X150641071Y-73412380D01*
X150679166Y-73564761D01*
X150679166Y-73679047D01*
X150641071Y-73831428D01*
X150602976Y-73907619D01*
X150526785Y-73983809D01*
X150412500Y-74021904D01*
X150222023Y-74021904D01*
X151441071Y-74021904D02*
X150983928Y-74021904D01*
X151212500Y-74021904D02*
X151212500Y-73221904D01*
X151136309Y-73336190D01*
X151060119Y-73412380D01*
X150983928Y-73450476D01*
X142563923Y-74021904D02*
X142563923Y-73221904D01*
X142754400Y-73221904D01*
X142868685Y-73260000D01*
X142944876Y-73336190D01*
X142982971Y-73412380D01*
X143021066Y-73564761D01*
X143021066Y-73679047D01*
X142982971Y-73831428D01*
X142944876Y-73907619D01*
X142868685Y-73983809D01*
X142754400Y-74021904D01*
X142563923Y-74021904D01*
X143325828Y-73298095D02*
X143363923Y-73260000D01*
X143440114Y-73221904D01*
X143630590Y-73221904D01*
X143706780Y-73260000D01*
X143744876Y-73298095D01*
X143782971Y-73374285D01*
X143782971Y-73450476D01*
X143744876Y-73564761D01*
X143287733Y-74021904D01*
X143782971Y-74021904D01*
X148304323Y-74021904D02*
X148304323Y-73221904D01*
X148494800Y-73221904D01*
X148609085Y-73260000D01*
X148685276Y-73336190D01*
X148723371Y-73412380D01*
X148761466Y-73564761D01*
X148761466Y-73679047D01*
X148723371Y-73831428D01*
X148685276Y-73907619D01*
X148609085Y-73983809D01*
X148494800Y-74021904D01*
X148304323Y-74021904D01*
X149028133Y-73221904D02*
X149523371Y-73221904D01*
X149256704Y-73526666D01*
X149370990Y-73526666D01*
X149447180Y-73564761D01*
X149485276Y-73602857D01*
X149523371Y-73679047D01*
X149523371Y-73869523D01*
X149485276Y-73945714D01*
X149447180Y-73983809D01*
X149370990Y-74021904D01*
X149142419Y-74021904D01*
X149066228Y-73983809D01*
X149028133Y-73945714D01*
X144443523Y-74021904D02*
X144443523Y-73221904D01*
X144634000Y-73221904D01*
X144748285Y-73260000D01*
X144824476Y-73336190D01*
X144862571Y-73412380D01*
X144900666Y-73564761D01*
X144900666Y-73679047D01*
X144862571Y-73831428D01*
X144824476Y-73907619D01*
X144748285Y-73983809D01*
X144634000Y-74021904D01*
X144443523Y-74021904D01*
X145586380Y-73488571D02*
X145586380Y-74021904D01*
X145395904Y-73183809D02*
X145205428Y-73755238D01*
X145700666Y-73755238D01*
X146850133Y-110153504D02*
X146850133Y-110724933D01*
X146812038Y-110839219D01*
X146735847Y-110915409D01*
X146621561Y-110953504D01*
X146545371Y-110953504D01*
X147650133Y-110953504D02*
X147192990Y-110953504D01*
X147421561Y-110953504D02*
X147421561Y-110153504D01*
X147345371Y-110267790D01*
X147269180Y-110343980D01*
X147192990Y-110382076D01*
X150310804Y-110384573D02*
X150310804Y-110765525D01*
X149510804Y-110765525D01*
X150310804Y-109698859D02*
X150310804Y-110156001D01*
X150310804Y-109927430D02*
X149510804Y-109927430D01*
X149625090Y-110003620D01*
X149701280Y-110079811D01*
X149739376Y-110156001D01*
X148924026Y-82816664D02*
X148657360Y-82435712D01*
X148466883Y-82816664D02*
X148466883Y-82016664D01*
X148771645Y-82016664D01*
X148847836Y-82054760D01*
X148885931Y-82092855D01*
X148924026Y-82169045D01*
X148924026Y-82283331D01*
X148885931Y-82359521D01*
X148847836Y-82397617D01*
X148771645Y-82435712D01*
X148466883Y-82435712D01*
X149190693Y-82016664D02*
X149685931Y-82016664D01*
X149419264Y-82321426D01*
X149533550Y-82321426D01*
X149609740Y-82359521D01*
X149647836Y-82397617D01*
X149685931Y-82473807D01*
X149685931Y-82664283D01*
X149647836Y-82740474D01*
X149609740Y-82778569D01*
X149533550Y-82816664D01*
X149304979Y-82816664D01*
X149228788Y-82778569D01*
X149190693Y-82740474D01*
X151027146Y-82810304D02*
X150760480Y-82429352D01*
X150570003Y-82810304D02*
X150570003Y-82010304D01*
X150874765Y-82010304D01*
X150950956Y-82048400D01*
X150989051Y-82086495D01*
X151027146Y-82162685D01*
X151027146Y-82276971D01*
X150989051Y-82353161D01*
X150950956Y-82391257D01*
X150874765Y-82429352D01*
X150570003Y-82429352D01*
X151712860Y-82010304D02*
X151560480Y-82010304D01*
X151484289Y-82048400D01*
X151446194Y-82086495D01*
X151370003Y-82200780D01*
X151331908Y-82353161D01*
X151331908Y-82657923D01*
X151370003Y-82734114D01*
X151408099Y-82772209D01*
X151484289Y-82810304D01*
X151636670Y-82810304D01*
X151712860Y-82772209D01*
X151750956Y-82734114D01*
X151789051Y-82657923D01*
X151789051Y-82467447D01*
X151750956Y-82391257D01*
X151712860Y-82353161D01*
X151636670Y-82315066D01*
X151484289Y-82315066D01*
X151408099Y-82353161D01*
X151370003Y-82391257D01*
X151331908Y-82467447D01*
X142665466Y-82861104D02*
X142398800Y-82480152D01*
X142208323Y-82861104D02*
X142208323Y-82061104D01*
X142513085Y-82061104D01*
X142589276Y-82099200D01*
X142627371Y-82137295D01*
X142665466Y-82213485D01*
X142665466Y-82327771D01*
X142627371Y-82403961D01*
X142589276Y-82442057D01*
X142513085Y-82480152D01*
X142208323Y-82480152D01*
X142932133Y-82061104D02*
X143465466Y-82061104D01*
X143122609Y-82861104D01*
X146851386Y-82806504D02*
X146584720Y-82425552D01*
X146394243Y-82806504D02*
X146394243Y-82006504D01*
X146699005Y-82006504D01*
X146775196Y-82044600D01*
X146813291Y-82082695D01*
X146851386Y-82158885D01*
X146851386Y-82273171D01*
X146813291Y-82349361D01*
X146775196Y-82387457D01*
X146699005Y-82425552D01*
X146394243Y-82425552D01*
X147308529Y-82349361D02*
X147232339Y-82311266D01*
X147194243Y-82273171D01*
X147156148Y-82196980D01*
X147156148Y-82158885D01*
X147194243Y-82082695D01*
X147232339Y-82044600D01*
X147308529Y-82006504D01*
X147460910Y-82006504D01*
X147537100Y-82044600D01*
X147575196Y-82082695D01*
X147613291Y-82158885D01*
X147613291Y-82196980D01*
X147575196Y-82273171D01*
X147537100Y-82311266D01*
X147460910Y-82349361D01*
X147308529Y-82349361D01*
X147232339Y-82387457D01*
X147194243Y-82425552D01*
X147156148Y-82501742D01*
X147156148Y-82654123D01*
X147194243Y-82730314D01*
X147232339Y-82768409D01*
X147308529Y-82806504D01*
X147460910Y-82806504D01*
X147537100Y-82768409D01*
X147575196Y-82730314D01*
X147613291Y-82654123D01*
X147613291Y-82501742D01*
X147575196Y-82425552D01*
X147537100Y-82387457D01*
X147460910Y-82349361D01*
X144799066Y-82797604D02*
X144532400Y-82416652D01*
X144341923Y-82797604D02*
X144341923Y-81997604D01*
X144646685Y-81997604D01*
X144722876Y-82035700D01*
X144760971Y-82073795D01*
X144799066Y-82149985D01*
X144799066Y-82264271D01*
X144760971Y-82340461D01*
X144722876Y-82378557D01*
X144646685Y-82416652D01*
X144341923Y-82416652D01*
X145180019Y-82797604D02*
X145332400Y-82797604D01*
X145408590Y-82759509D01*
X145446685Y-82721414D01*
X145522876Y-82607128D01*
X145560971Y-82454747D01*
X145560971Y-82149985D01*
X145522876Y-82073795D01*
X145484780Y-82035700D01*
X145408590Y-81997604D01*
X145256209Y-81997604D01*
X145180019Y-82035700D01*
X145141923Y-82073795D01*
X145103828Y-82149985D01*
X145103828Y-82340461D01*
X145141923Y-82416652D01*
X145180019Y-82454747D01*
X145256209Y-82492842D01*
X145408590Y-82492842D01*
X145484780Y-82454747D01*
X145522876Y-82416652D01*
X145560971Y-82340461D01*
X142617557Y-89714705D02*
X142886931Y-89984079D01*
X142132684Y-89606955D02*
X142617557Y-89714705D01*
X142509807Y-89229832D01*
X143560366Y-89310644D02*
X143237117Y-89633893D01*
X143398741Y-89472268D02*
X142833056Y-88906583D01*
X142859993Y-89041270D01*
X142859993Y-89149019D01*
X142833056Y-89229832D01*
X144532304Y-105263933D02*
X144151352Y-105530600D01*
X144532304Y-105721076D02*
X143732304Y-105721076D01*
X143732304Y-105416314D01*
X143770400Y-105340123D01*
X143808495Y-105302028D01*
X143884685Y-105263933D01*
X143998971Y-105263933D01*
X144075161Y-105302028D01*
X144113257Y-105340123D01*
X144151352Y-105416314D01*
X144151352Y-105721076D01*
X143732304Y-104540123D02*
X143732304Y-104921076D01*
X144113257Y-104959171D01*
X144075161Y-104921076D01*
X144037066Y-104844885D01*
X144037066Y-104654409D01*
X144075161Y-104578219D01*
X144113257Y-104540123D01*
X144189447Y-104502028D01*
X144379923Y-104502028D01*
X144456114Y-104540123D01*
X144494209Y-104578219D01*
X144532304Y-104654409D01*
X144532304Y-104844885D01*
X144494209Y-104921076D01*
X144456114Y-104959171D01*
%LPC*%
X143332685Y-79965504D02*
X142951733Y-79965504D01*
X142951733Y-79165504D01*
X144704114Y-79165504D02*
X145161257Y-79165504D01*
X144932685Y-79965504D02*
X144932685Y-79165504D01*
X145351733Y-79165504D02*
X145885066Y-79965504D01*
X145885066Y-79165504D02*
X145351733Y-79965504D01*
X147866019Y-79965504D02*
X147599352Y-79584552D01*
X147408876Y-79965504D02*
X147408876Y-79165504D01*
X147713638Y-79165504D01*
X147789828Y-79203600D01*
X147827923Y-79241695D01*
X147866019Y-79317885D01*
X147866019Y-79432171D01*
X147827923Y-79508361D01*
X147789828Y-79546457D01*
X147713638Y-79584552D01*
X147408876Y-79584552D01*
X148132685Y-79165504D02*
X148666019Y-79965504D01*
X148666019Y-79165504D02*
X148132685Y-79965504D01*
X150342209Y-79165504D02*
X150494590Y-79165504D01*
X150570780Y-79203600D01*
X150646971Y-79279790D01*
X150685066Y-79432171D01*
X150685066Y-79698838D01*
X150646971Y-79851219D01*
X150570780Y-79927409D01*
X150494590Y-79965504D01*
X150342209Y-79965504D01*
X150266019Y-79927409D01*
X150189828Y-79851219D01*
X150151733Y-79698838D01*
X150151733Y-79432171D01*
X150189828Y-79279790D01*
X150266019Y-79203600D01*
X150342209Y-79165504D01*
X151027923Y-79965504D02*
X151027923Y-79165504D01*
X151485066Y-79965504D01*
X151485066Y-79165504D01*
D12*
X154686000Y-109347000D03*
X154686000Y-106807000D03*
X154686000Y-104267000D03*
X154686000Y-101727000D03*
X154686000Y-99187000D03*
X154686000Y-96647000D03*
X154686000Y-94107000D03*
X154686000Y-91567000D03*
X154686000Y-89027000D03*
X154686000Y-86487000D03*
X154686000Y-83947000D03*
X154686000Y-81407000D03*
X154686000Y-78867000D03*
X154686000Y-76327000D03*
X154686000Y-73787000D03*
D13*
X154686000Y-71247000D03*
D14*
X143306800Y-86944200D03*
X151360400Y-86952600D03*
D15*
X146274695Y-91230097D03*
D10*
G36*
X145514555Y-90858866D02*
G01*
X145903464Y-90469957D01*
X147034835Y-91601328D01*
X146645926Y-91990237D01*
X145514555Y-90858866D01*
X145514555Y-90858866D01*
G37*
D15*
X145709010Y-91795783D03*
D10*
G36*
X144948870Y-91424552D02*
G01*
X145337779Y-91035643D01*
X146469150Y-92167014D01*
X146080241Y-92555923D01*
X144948870Y-91424552D01*
X144948870Y-91424552D01*
G37*
D15*
X145143324Y-92361468D03*
D10*
G36*
X144383184Y-91990237D02*
G01*
X144772093Y-91601328D01*
X145903464Y-92732699D01*
X145514555Y-93121608D01*
X144383184Y-91990237D01*
X144383184Y-91990237D01*
G37*
D15*
X144577639Y-92927153D03*
D10*
G36*
X143817499Y-92555922D02*
G01*
X144206408Y-92167013D01*
X145337779Y-93298384D01*
X144948870Y-93687293D01*
X143817499Y-92555922D01*
X143817499Y-92555922D01*
G37*
D15*
X144011953Y-93492839D03*
D10*
G36*
X143251813Y-93121608D02*
G01*
X143640722Y-92732699D01*
X144772093Y-93864070D01*
X144383184Y-94252979D01*
X143251813Y-93121608D01*
X143251813Y-93121608D01*
G37*
D15*
X143446268Y-94058524D03*
D10*
G36*
X142686128Y-93687293D02*
G01*
X143075037Y-93298384D01*
X144206408Y-94429755D01*
X143817499Y-94818664D01*
X142686128Y-93687293D01*
X142686128Y-93687293D01*
G37*
D15*
X142880583Y-94624210D03*
D10*
G36*
X142120443Y-94252979D02*
G01*
X142509352Y-93864070D01*
X143640723Y-94995441D01*
X143251814Y-95384350D01*
X142120443Y-94252979D01*
X142120443Y-94252979D01*
G37*
D15*
X142314897Y-95189895D03*
D10*
G36*
X141554757Y-94818664D02*
G01*
X141943666Y-94429755D01*
X143075037Y-95561126D01*
X142686128Y-95950035D01*
X141554757Y-94818664D01*
X141554757Y-94818664D01*
G37*
D15*
X142314897Y-97240505D03*
D10*
G36*
X141943666Y-98000645D02*
G01*
X141554757Y-97611736D01*
X142686128Y-96480365D01*
X143075037Y-96869274D01*
X141943666Y-98000645D01*
X141943666Y-98000645D01*
G37*
D15*
X142880583Y-97806190D03*
D10*
G36*
X142509352Y-98566330D02*
G01*
X142120443Y-98177421D01*
X143251814Y-97046050D01*
X143640723Y-97434959D01*
X142509352Y-98566330D01*
X142509352Y-98566330D01*
G37*
D15*
X143446268Y-98371876D03*
D10*
G36*
X143075037Y-99132016D02*
G01*
X142686128Y-98743107D01*
X143817499Y-97611736D01*
X144206408Y-98000645D01*
X143075037Y-99132016D01*
X143075037Y-99132016D01*
G37*
D15*
X144011953Y-98937561D03*
D10*
G36*
X143640722Y-99697701D02*
G01*
X143251813Y-99308792D01*
X144383184Y-98177421D01*
X144772093Y-98566330D01*
X143640722Y-99697701D01*
X143640722Y-99697701D01*
G37*
D15*
X144577639Y-99503247D03*
D10*
G36*
X144206408Y-100263387D02*
G01*
X143817499Y-99874478D01*
X144948870Y-98743107D01*
X145337779Y-99132016D01*
X144206408Y-100263387D01*
X144206408Y-100263387D01*
G37*
D15*
X145143324Y-100068932D03*
D10*
G36*
X144772093Y-100829072D02*
G01*
X144383184Y-100440163D01*
X145514555Y-99308792D01*
X145903464Y-99697701D01*
X144772093Y-100829072D01*
X144772093Y-100829072D01*
G37*
D15*
X145709010Y-100634617D03*
D10*
G36*
X145337779Y-101394757D02*
G01*
X144948870Y-101005848D01*
X146080241Y-99874477D01*
X146469150Y-100263386D01*
X145337779Y-101394757D01*
X145337779Y-101394757D01*
G37*
D15*
X146274695Y-101200303D03*
D10*
G36*
X145903464Y-101960443D02*
G01*
X145514555Y-101571534D01*
X146645926Y-100440163D01*
X147034835Y-100829072D01*
X145903464Y-101960443D01*
X145903464Y-101960443D01*
G37*
D15*
X148325305Y-101200303D03*
D10*
G36*
X147565165Y-100829072D02*
G01*
X147954074Y-100440163D01*
X149085445Y-101571534D01*
X148696536Y-101960443D01*
X147565165Y-100829072D01*
X147565165Y-100829072D01*
G37*
D15*
X148890990Y-100634617D03*
D10*
G36*
X148130850Y-100263386D02*
G01*
X148519759Y-99874477D01*
X149651130Y-101005848D01*
X149262221Y-101394757D01*
X148130850Y-100263386D01*
X148130850Y-100263386D01*
G37*
D15*
X149456676Y-100068932D03*
D10*
G36*
X148696536Y-99697701D02*
G01*
X149085445Y-99308792D01*
X150216816Y-100440163D01*
X149827907Y-100829072D01*
X148696536Y-99697701D01*
X148696536Y-99697701D01*
G37*
D15*
X150022361Y-99503247D03*
D10*
G36*
X149262221Y-99132016D02*
G01*
X149651130Y-98743107D01*
X150782501Y-99874478D01*
X150393592Y-100263387D01*
X149262221Y-99132016D01*
X149262221Y-99132016D01*
G37*
D15*
X150588047Y-98937561D03*
D10*
G36*
X149827907Y-98566330D02*
G01*
X150216816Y-98177421D01*
X151348187Y-99308792D01*
X150959278Y-99697701D01*
X149827907Y-98566330D01*
X149827907Y-98566330D01*
G37*
D15*
X151153732Y-98371876D03*
D10*
G36*
X150393592Y-98000645D02*
G01*
X150782501Y-97611736D01*
X151913872Y-98743107D01*
X151524963Y-99132016D01*
X150393592Y-98000645D01*
X150393592Y-98000645D01*
G37*
D15*
X151719417Y-97806190D03*
D10*
G36*
X150959277Y-97434959D02*
G01*
X151348186Y-97046050D01*
X152479557Y-98177421D01*
X152090648Y-98566330D01*
X150959277Y-97434959D01*
X150959277Y-97434959D01*
G37*
D15*
X152285103Y-97240505D03*
D10*
G36*
X151524963Y-96869274D02*
G01*
X151913872Y-96480365D01*
X153045243Y-97611736D01*
X152656334Y-98000645D01*
X151524963Y-96869274D01*
X151524963Y-96869274D01*
G37*
D15*
X152285103Y-95189895D03*
D10*
G36*
X151913872Y-95950035D02*
G01*
X151524963Y-95561126D01*
X152656334Y-94429755D01*
X153045243Y-94818664D01*
X151913872Y-95950035D01*
X151913872Y-95950035D01*
G37*
D15*
X151719417Y-94624210D03*
D10*
G36*
X151348186Y-95384350D02*
G01*
X150959277Y-94995441D01*
X152090648Y-93864070D01*
X152479557Y-94252979D01*
X151348186Y-95384350D01*
X151348186Y-95384350D01*
G37*
D15*
X151153732Y-94058524D03*
D10*
G36*
X150782501Y-94818664D02*
G01*
X150393592Y-94429755D01*
X151524963Y-93298384D01*
X151913872Y-93687293D01*
X150782501Y-94818664D01*
X150782501Y-94818664D01*
G37*
D15*
X150588047Y-93492839D03*
D10*
G36*
X150216816Y-94252979D02*
G01*
X149827907Y-93864070D01*
X150959278Y-92732699D01*
X151348187Y-93121608D01*
X150216816Y-94252979D01*
X150216816Y-94252979D01*
G37*
D15*
X150022361Y-92927153D03*
D10*
G36*
X149651130Y-93687293D02*
G01*
X149262221Y-93298384D01*
X150393592Y-92167013D01*
X150782501Y-92555922D01*
X149651130Y-93687293D01*
X149651130Y-93687293D01*
G37*
D15*
X149456676Y-92361468D03*
D10*
G36*
X149085445Y-93121608D02*
G01*
X148696536Y-92732699D01*
X149827907Y-91601328D01*
X150216816Y-91990237D01*
X149085445Y-93121608D01*
X149085445Y-93121608D01*
G37*
D15*
X148890990Y-91795783D03*
D10*
G36*
X148519759Y-92555923D02*
G01*
X148130850Y-92167014D01*
X149262221Y-91035643D01*
X149651130Y-91424552D01*
X148519759Y-92555923D01*
X148519759Y-92555923D01*
G37*
D15*
X148325305Y-91230097D03*
D10*
G36*
X147954074Y-91990237D02*
G01*
X147565165Y-91601328D01*
X148696536Y-90469957D01*
X149085445Y-90858866D01*
X147954074Y-91990237D01*
X147954074Y-91990237D01*
G37*
D12*
X139446000Y-109347000D03*
X139446000Y-106807000D03*
X139446000Y-104267000D03*
X139446000Y-101727000D03*
X139446000Y-99187000D03*
X139446000Y-96647000D03*
X139446000Y-94107000D03*
X139446000Y-91567000D03*
X139446000Y-89027000D03*
X139446000Y-86487000D03*
X139446000Y-83947000D03*
X139446000Y-81407000D03*
X139446000Y-78867000D03*
X139446000Y-76327000D03*
X139446000Y-73787000D03*
D13*
X139446000Y-71247000D03*
D16*
X139446000Y-68707000D03*
X139400000Y-112100000D03*
X154700000Y-112100000D03*
X154686000Y-68707000D03*
D17*
X148457920Y-105105200D03*
X151460200Y-105105200D03*
D18*
X150837900Y-75209400D03*
X150837900Y-78049120D03*
X143078200Y-78036420D03*
X143078200Y-75196700D03*
X148272500Y-78049120D03*
X148272500Y-75209400D03*
X145669000Y-75196700D03*
X145669000Y-78036420D03*
D19*
X145699100Y-107837460D03*
X146349100Y-107837460D03*
X146999100Y-107837460D03*
X147649100Y-107837460D03*
X148299100Y-107837460D03*
D20*
X144499100Y-107837460D03*
X149499100Y-107837460D03*
D21*
X143499100Y-110537460D03*
X150499100Y-110537460D03*
D22*
X152488900Y-112052100D03*
X152488900Y-108450380D03*
D23*
X149600000Y-68700000D03*
D24*
X149600000Y-71240000D03*
X147060000Y-68700000D03*
X147060000Y-71240000D03*
X144520000Y-68700000D03*
X144520000Y-71240000D03*
D25*
X149052280Y-83747600D03*
X149052280Y-81047600D03*
X151130000Y-81047600D03*
X151130000Y-83747600D03*
X142849600Y-81047600D03*
X142849600Y-83747600D03*
X146989800Y-83747600D03*
X146989800Y-81047600D03*
X144907000Y-81047600D03*
X144907000Y-83747600D03*
D26*
X142443200Y-91846400D03*
D10*
G36*
X142690687Y-92518151D02*
G01*
X141771449Y-91598913D01*
X142195713Y-91174649D01*
X143114951Y-92093887D01*
X142690687Y-92518151D01*
X142690687Y-92518151D01*
G37*
D26*
X143786703Y-90502897D03*
D10*
G36*
X144034190Y-91174648D02*
G01*
X143114952Y-90255410D01*
X143539216Y-89831146D01*
X144458454Y-90750384D01*
X144034190Y-91174648D01*
X144034190Y-91174648D01*
G37*
D26*
X143114951Y-91174649D03*
D10*
G36*
X143362438Y-91846400D02*
G01*
X142443200Y-90927162D01*
X142867464Y-90502898D01*
X143786702Y-91422136D01*
X143362438Y-91846400D01*
X143362438Y-91846400D01*
G37*
D27*
X142798800Y-105105200D03*
X145498800Y-105105200D03*
M02*
