G04 #@! TF.GenerationSoftware,KiCad,Pcbnew,5.1.0-rc2-unknown-6eb84e4~82~ubuntu16.04.1*
G04 #@! TF.CreationDate,2019-03-15T17:01:54+01:00*
G04 #@! TF.ProjectId,arduino_nanoPB,61726475-696e-46f5-9f6e-616e6f50422e,rev?*
G04 #@! TF.SameCoordinates,Original*
G04 #@! TF.FileFunction,Copper,L1,Top*
G04 #@! TF.FilePolarity,Positive*
%FSLAX46Y46*%
G04 Gerber Fmt 4.6, Leading zero omitted, Abs format (unit mm)*
G04 Created by KiCad (PCBNEW 5.1.0-rc2-unknown-6eb84e4~82~ubuntu16.04.1) date 2019-03-15 17:01:54*
%MOMM*%
%LPD*%
G04 APERTURE LIST*
%ADD10O,2.032000X1.727200*%
%ADD11R,2.032000X1.727200*%
%ADD12R,1.500000X1.400000*%
%ADD13C,0.550000*%
%ADD14C,0.100000*%
%ADD15C,2.540000*%
%ADD16R,2.148840X1.501140*%
%ADD17R,1.800860X1.597660*%
%ADD18R,0.400000X1.350000*%
%ADD19O,1.250000X0.950000*%
%ADD20O,1.000000X1.550000*%
%ADD21R,1.198880X1.600200*%
%ADD22R,1.727200X1.727200*%
%ADD23O,1.727200X1.727200*%
%ADD24R,1.300000X1.500000*%
%ADD25C,0.600000*%
%ADD26R,1.500000X1.300000*%
%ADD27C,0.150000*%
%ADD28C,0.254000*%
G04 APERTURE END LIST*
D10*
X154686000Y-109347000D03*
X154686000Y-106807000D03*
X154686000Y-104267000D03*
X154686000Y-101727000D03*
X154686000Y-99187000D03*
X154686000Y-96647000D03*
X154686000Y-94107000D03*
X154686000Y-91567000D03*
X154686000Y-89027000D03*
X154686000Y-86487000D03*
X154686000Y-83947000D03*
X154686000Y-81407000D03*
X154686000Y-78867000D03*
X154686000Y-76327000D03*
X154686000Y-73787000D03*
D11*
X154686000Y-71247000D03*
D12*
X143306800Y-86944200D03*
X151360400Y-86952600D03*
D13*
X146274695Y-91230097D03*
D14*
G36*
X145514555Y-90858866D02*
G01*
X145903464Y-90469957D01*
X147034835Y-91601328D01*
X146645926Y-91990237D01*
X145514555Y-90858866D01*
X145514555Y-90858866D01*
G37*
D13*
X145709010Y-91795783D03*
D14*
G36*
X144948870Y-91424552D02*
G01*
X145337779Y-91035643D01*
X146469150Y-92167014D01*
X146080241Y-92555923D01*
X144948870Y-91424552D01*
X144948870Y-91424552D01*
G37*
D13*
X145143324Y-92361468D03*
D14*
G36*
X144383184Y-91990237D02*
G01*
X144772093Y-91601328D01*
X145903464Y-92732699D01*
X145514555Y-93121608D01*
X144383184Y-91990237D01*
X144383184Y-91990237D01*
G37*
D13*
X144577639Y-92927153D03*
D14*
G36*
X143817499Y-92555922D02*
G01*
X144206408Y-92167013D01*
X145337779Y-93298384D01*
X144948870Y-93687293D01*
X143817499Y-92555922D01*
X143817499Y-92555922D01*
G37*
D13*
X144011953Y-93492839D03*
D14*
G36*
X143251813Y-93121608D02*
G01*
X143640722Y-92732699D01*
X144772093Y-93864070D01*
X144383184Y-94252979D01*
X143251813Y-93121608D01*
X143251813Y-93121608D01*
G37*
D13*
X143446268Y-94058524D03*
D14*
G36*
X142686128Y-93687293D02*
G01*
X143075037Y-93298384D01*
X144206408Y-94429755D01*
X143817499Y-94818664D01*
X142686128Y-93687293D01*
X142686128Y-93687293D01*
G37*
D13*
X142880583Y-94624210D03*
D14*
G36*
X142120443Y-94252979D02*
G01*
X142509352Y-93864070D01*
X143640723Y-94995441D01*
X143251814Y-95384350D01*
X142120443Y-94252979D01*
X142120443Y-94252979D01*
G37*
D13*
X142314897Y-95189895D03*
D14*
G36*
X141554757Y-94818664D02*
G01*
X141943666Y-94429755D01*
X143075037Y-95561126D01*
X142686128Y-95950035D01*
X141554757Y-94818664D01*
X141554757Y-94818664D01*
G37*
D13*
X142314897Y-97240505D03*
D14*
G36*
X141943666Y-98000645D02*
G01*
X141554757Y-97611736D01*
X142686128Y-96480365D01*
X143075037Y-96869274D01*
X141943666Y-98000645D01*
X141943666Y-98000645D01*
G37*
D13*
X142880583Y-97806190D03*
D14*
G36*
X142509352Y-98566330D02*
G01*
X142120443Y-98177421D01*
X143251814Y-97046050D01*
X143640723Y-97434959D01*
X142509352Y-98566330D01*
X142509352Y-98566330D01*
G37*
D13*
X143446268Y-98371876D03*
D14*
G36*
X143075037Y-99132016D02*
G01*
X142686128Y-98743107D01*
X143817499Y-97611736D01*
X144206408Y-98000645D01*
X143075037Y-99132016D01*
X143075037Y-99132016D01*
G37*
D13*
X144011953Y-98937561D03*
D14*
G36*
X143640722Y-99697701D02*
G01*
X143251813Y-99308792D01*
X144383184Y-98177421D01*
X144772093Y-98566330D01*
X143640722Y-99697701D01*
X143640722Y-99697701D01*
G37*
D13*
X144577639Y-99503247D03*
D14*
G36*
X144206408Y-100263387D02*
G01*
X143817499Y-99874478D01*
X144948870Y-98743107D01*
X145337779Y-99132016D01*
X144206408Y-100263387D01*
X144206408Y-100263387D01*
G37*
D13*
X145143324Y-100068932D03*
D14*
G36*
X144772093Y-100829072D02*
G01*
X144383184Y-100440163D01*
X145514555Y-99308792D01*
X145903464Y-99697701D01*
X144772093Y-100829072D01*
X144772093Y-100829072D01*
G37*
D13*
X145709010Y-100634617D03*
D14*
G36*
X145337779Y-101394757D02*
G01*
X144948870Y-101005848D01*
X146080241Y-99874477D01*
X146469150Y-100263386D01*
X145337779Y-101394757D01*
X145337779Y-101394757D01*
G37*
D13*
X146274695Y-101200303D03*
D14*
G36*
X145903464Y-101960443D02*
G01*
X145514555Y-101571534D01*
X146645926Y-100440163D01*
X147034835Y-100829072D01*
X145903464Y-101960443D01*
X145903464Y-101960443D01*
G37*
D13*
X148325305Y-101200303D03*
D14*
G36*
X147565165Y-100829072D02*
G01*
X147954074Y-100440163D01*
X149085445Y-101571534D01*
X148696536Y-101960443D01*
X147565165Y-100829072D01*
X147565165Y-100829072D01*
G37*
D13*
X148890990Y-100634617D03*
D14*
G36*
X148130850Y-100263386D02*
G01*
X148519759Y-99874477D01*
X149651130Y-101005848D01*
X149262221Y-101394757D01*
X148130850Y-100263386D01*
X148130850Y-100263386D01*
G37*
D13*
X149456676Y-100068932D03*
D14*
G36*
X148696536Y-99697701D02*
G01*
X149085445Y-99308792D01*
X150216816Y-100440163D01*
X149827907Y-100829072D01*
X148696536Y-99697701D01*
X148696536Y-99697701D01*
G37*
D13*
X150022361Y-99503247D03*
D14*
G36*
X149262221Y-99132016D02*
G01*
X149651130Y-98743107D01*
X150782501Y-99874478D01*
X150393592Y-100263387D01*
X149262221Y-99132016D01*
X149262221Y-99132016D01*
G37*
D13*
X150588047Y-98937561D03*
D14*
G36*
X149827907Y-98566330D02*
G01*
X150216816Y-98177421D01*
X151348187Y-99308792D01*
X150959278Y-99697701D01*
X149827907Y-98566330D01*
X149827907Y-98566330D01*
G37*
D13*
X151153732Y-98371876D03*
D14*
G36*
X150393592Y-98000645D02*
G01*
X150782501Y-97611736D01*
X151913872Y-98743107D01*
X151524963Y-99132016D01*
X150393592Y-98000645D01*
X150393592Y-98000645D01*
G37*
D13*
X151719417Y-97806190D03*
D14*
G36*
X150959277Y-97434959D02*
G01*
X151348186Y-97046050D01*
X152479557Y-98177421D01*
X152090648Y-98566330D01*
X150959277Y-97434959D01*
X150959277Y-97434959D01*
G37*
D13*
X152285103Y-97240505D03*
D14*
G36*
X151524963Y-96869274D02*
G01*
X151913872Y-96480365D01*
X153045243Y-97611736D01*
X152656334Y-98000645D01*
X151524963Y-96869274D01*
X151524963Y-96869274D01*
G37*
D13*
X152285103Y-95189895D03*
D14*
G36*
X151913872Y-95950035D02*
G01*
X151524963Y-95561126D01*
X152656334Y-94429755D01*
X153045243Y-94818664D01*
X151913872Y-95950035D01*
X151913872Y-95950035D01*
G37*
D13*
X151719417Y-94624210D03*
D14*
G36*
X151348186Y-95384350D02*
G01*
X150959277Y-94995441D01*
X152090648Y-93864070D01*
X152479557Y-94252979D01*
X151348186Y-95384350D01*
X151348186Y-95384350D01*
G37*
D13*
X151153732Y-94058524D03*
D14*
G36*
X150782501Y-94818664D02*
G01*
X150393592Y-94429755D01*
X151524963Y-93298384D01*
X151913872Y-93687293D01*
X150782501Y-94818664D01*
X150782501Y-94818664D01*
G37*
D13*
X150588047Y-93492839D03*
D14*
G36*
X150216816Y-94252979D02*
G01*
X149827907Y-93864070D01*
X150959278Y-92732699D01*
X151348187Y-93121608D01*
X150216816Y-94252979D01*
X150216816Y-94252979D01*
G37*
D13*
X150022361Y-92927153D03*
D14*
G36*
X149651130Y-93687293D02*
G01*
X149262221Y-93298384D01*
X150393592Y-92167013D01*
X150782501Y-92555922D01*
X149651130Y-93687293D01*
X149651130Y-93687293D01*
G37*
D13*
X149456676Y-92361468D03*
D14*
G36*
X149085445Y-93121608D02*
G01*
X148696536Y-92732699D01*
X149827907Y-91601328D01*
X150216816Y-91990237D01*
X149085445Y-93121608D01*
X149085445Y-93121608D01*
G37*
D13*
X148890990Y-91795783D03*
D14*
G36*
X148519759Y-92555923D02*
G01*
X148130850Y-92167014D01*
X149262221Y-91035643D01*
X149651130Y-91424552D01*
X148519759Y-92555923D01*
X148519759Y-92555923D01*
G37*
D13*
X148325305Y-91230097D03*
D14*
G36*
X147954074Y-91990237D02*
G01*
X147565165Y-91601328D01*
X148696536Y-90469957D01*
X149085445Y-90858866D01*
X147954074Y-91990237D01*
X147954074Y-91990237D01*
G37*
D10*
X139446000Y-109347000D03*
X139446000Y-106807000D03*
X139446000Y-104267000D03*
X139446000Y-101727000D03*
X139446000Y-99187000D03*
X139446000Y-96647000D03*
X139446000Y-94107000D03*
X139446000Y-91567000D03*
X139446000Y-89027000D03*
X139446000Y-86487000D03*
X139446000Y-83947000D03*
X139446000Y-81407000D03*
X139446000Y-78867000D03*
X139446000Y-76327000D03*
X139446000Y-73787000D03*
D11*
X139446000Y-71247000D03*
D15*
X139446000Y-68707000D03*
X139400000Y-112100000D03*
X154700000Y-112100000D03*
X154686000Y-68707000D03*
D16*
X148457920Y-105105200D03*
X151460200Y-105105200D03*
D17*
X150837900Y-75209400D03*
X150837900Y-78049120D03*
X143078200Y-78036420D03*
X143078200Y-75196700D03*
X148272500Y-78049120D03*
X148272500Y-75209400D03*
X145669000Y-75196700D03*
X145669000Y-78036420D03*
D18*
X145699100Y-107837460D03*
X146349100Y-107837460D03*
X146999100Y-107837460D03*
X147649100Y-107837460D03*
X148299100Y-107837460D03*
D19*
X144499100Y-107837460D03*
X149499100Y-107837460D03*
D20*
X143499100Y-110537460D03*
X150499100Y-110537460D03*
D21*
X152488900Y-112052100D03*
X152488900Y-108450380D03*
D22*
X149600000Y-68700000D03*
D23*
X149600000Y-71240000D03*
X147060000Y-68700000D03*
X147060000Y-71240000D03*
X144520000Y-68700000D03*
X144520000Y-71240000D03*
D24*
X149052280Y-83747600D03*
X149052280Y-81047600D03*
X151130000Y-81047600D03*
X151130000Y-83747600D03*
X142849600Y-81047600D03*
X142849600Y-83747600D03*
X146989800Y-83747600D03*
X146989800Y-81047600D03*
X144907000Y-81047600D03*
X144907000Y-83747600D03*
D25*
X142443200Y-91846400D03*
D14*
G36*
X142690687Y-92518151D02*
G01*
X141771449Y-91598913D01*
X142195713Y-91174649D01*
X143114951Y-92093887D01*
X142690687Y-92518151D01*
X142690687Y-92518151D01*
G37*
D25*
X143786703Y-90502897D03*
D14*
G36*
X144034190Y-91174648D02*
G01*
X143114952Y-90255410D01*
X143539216Y-89831146D01*
X144458454Y-90750384D01*
X144034190Y-91174648D01*
X144034190Y-91174648D01*
G37*
D25*
X143114951Y-91174649D03*
D14*
G36*
X143362438Y-91846400D02*
G01*
X142443200Y-90927162D01*
X142867464Y-90502898D01*
X143786702Y-91422136D01*
X143362438Y-91846400D01*
X143362438Y-91846400D01*
G37*
D26*
X142798800Y-105105200D03*
X145498800Y-105105200D03*
D25*
X142094616Y-88435782D03*
X147137533Y-95575533D03*
X140360400Y-80327464D03*
X147774242Y-94497681D03*
X151292511Y-92129722D03*
X142760700Y-76837588D03*
X143357600Y-85420200D03*
X141946156Y-79181903D03*
X142125700Y-73621900D03*
X142367000Y-70739000D03*
X142430500Y-69215000D03*
X151955500Y-68834000D03*
X141478000Y-89916000D03*
X152082500Y-70629810D03*
X145897602Y-86512400D03*
X145897600Y-85394800D03*
X148414774Y-86106000D03*
X147904200Y-89230200D03*
X149301200Y-89001600D03*
X144449800Y-88061800D03*
X148713917Y-94371452D03*
X144569984Y-94597126D03*
X150213289Y-96331811D03*
X150066376Y-106175174D03*
X149250400Y-98513900D03*
X152806400Y-78054200D03*
X152781000Y-79806800D03*
X152781000Y-75996800D03*
X148006019Y-87344852D03*
X147715198Y-85573706D03*
X144868900Y-95377000D03*
X144787014Y-96420974D03*
X145759200Y-94164823D03*
X149651999Y-95178601D03*
X149504400Y-74904600D03*
X152196800Y-78816200D03*
X152769965Y-98958400D03*
X153339800Y-103466900D03*
X141447490Y-82613500D03*
X142448310Y-84975700D03*
X146608800Y-97624900D03*
X145981390Y-96825564D03*
X147050811Y-88117982D03*
X151612600Y-85267800D03*
X145878129Y-97548344D03*
X148996400Y-72542400D03*
X144437100Y-104940100D03*
X141512020Y-91186000D03*
X152704800Y-89789000D03*
X151504777Y-89840667D03*
X145097500Y-108648500D03*
X146862800Y-109651800D03*
X147129500Y-111506000D03*
X145097500Y-110871000D03*
X149161500Y-110807500D03*
X144268219Y-95951008D03*
X148107400Y-97205800D03*
X144243279Y-90144317D03*
X145399811Y-88001713D03*
X146100800Y-87985600D03*
X143471900Y-103590518D03*
D27*
X144842453Y-88976745D02*
X144701475Y-88835767D01*
X149527385Y-91159388D02*
X149527385Y-90650185D01*
X142394615Y-88735781D02*
X142094616Y-88435782D01*
X149527385Y-90650185D02*
X149097387Y-90220187D01*
X142494601Y-88835767D02*
X142394615Y-88735781D01*
X144701475Y-88835767D02*
X142494601Y-88835767D01*
X145569977Y-88976745D02*
X144842453Y-88976745D01*
X146813419Y-90220187D02*
X145569977Y-88976745D01*
X149097387Y-90220187D02*
X146813419Y-90220187D01*
X148890990Y-91795783D02*
X149527385Y-91159388D01*
X148890990Y-91795783D02*
X147137533Y-93549240D01*
X147137533Y-93549240D02*
X147137533Y-95151269D01*
X147137533Y-95151269D02*
X147137533Y-95575533D01*
X150093071Y-91725073D02*
X150093071Y-90606271D01*
X150093071Y-90606271D02*
X149402800Y-89916000D01*
X140761999Y-82961213D02*
X140761999Y-80729063D01*
X140660399Y-80627463D02*
X140360400Y-80327464D01*
X141630400Y-87299800D02*
X141630400Y-83829614D01*
X141630400Y-83829614D02*
X140761999Y-82961213D01*
X140761999Y-80729063D02*
X140660399Y-80627463D01*
X142916356Y-88585756D02*
X141630400Y-87299800D01*
X145673534Y-88726734D02*
X144946010Y-88726734D01*
X146862800Y-89916000D02*
X145673534Y-88726734D01*
X149456676Y-92361468D02*
X150093071Y-91725073D01*
X149402800Y-89916000D02*
X146862800Y-89916000D01*
X144946010Y-88726734D02*
X144805032Y-88585756D01*
X144805032Y-88585756D02*
X142916356Y-88585756D01*
X147774242Y-94043902D02*
X147774242Y-94073417D01*
X147774242Y-94073417D02*
X147774242Y-94497681D01*
X149456676Y-92361468D02*
X147774242Y-94043902D01*
X141071600Y-76327000D02*
X139446000Y-76327000D01*
X142100300Y-68719700D02*
X144500300Y-68719700D01*
X141071600Y-76327000D02*
X141038150Y-76293550D01*
X144500300Y-68719700D02*
X144520000Y-68700000D01*
X141038150Y-69781850D02*
X142100300Y-68719700D01*
X141038150Y-76293550D02*
X141038150Y-69781850D01*
X154406600Y-76327000D02*
X153771600Y-76962000D01*
X153416000Y-77075289D02*
X153658311Y-77075289D01*
X153658311Y-77075289D02*
X153771600Y-76962000D01*
X154686000Y-76327000D02*
X154406600Y-76327000D01*
X149652897Y-93385775D02*
X150036458Y-93385775D01*
X150992512Y-92429721D02*
X151292511Y-92129722D01*
X150036458Y-93385775D02*
X150992512Y-92429721D01*
X151930000Y-83747600D02*
X151130000Y-83747600D01*
X151403600Y-86508400D02*
X151743600Y-86508400D01*
X151743600Y-86508400D02*
X152425400Y-85826600D01*
X152425400Y-85826600D02*
X152425400Y-84243000D01*
X152425400Y-84243000D02*
X151930000Y-83747600D01*
X150992512Y-91829723D02*
X151292511Y-92129722D01*
X150992512Y-89088288D02*
X150992512Y-91829723D01*
X151403600Y-88677200D02*
X150992512Y-89088288D01*
X151403600Y-86508400D02*
X151403600Y-88677200D01*
X144628569Y-77062589D02*
X146709431Y-77062589D01*
X146722131Y-77075289D02*
X153111200Y-77075289D01*
X153111200Y-77075289D02*
X153416000Y-77075289D01*
X143892980Y-76327000D02*
X144628569Y-77062589D01*
X141071600Y-76327000D02*
X143892980Y-76327000D01*
X146709431Y-77062589D02*
X146722131Y-77075289D01*
X153416000Y-77075289D02*
X153416000Y-80558960D01*
X153416000Y-80558960D02*
X151130000Y-82844960D01*
X151130000Y-82847600D02*
X151130000Y-83747600D01*
X151130000Y-82844960D02*
X151130000Y-82847600D01*
X142760700Y-76822300D02*
X142760700Y-76837588D01*
X141579600Y-76822300D02*
X142760700Y-76822300D01*
X139446000Y-78867000D02*
X141338300Y-78867000D01*
X141325600Y-78854300D02*
X141325600Y-77076300D01*
X141325600Y-77076300D02*
X141579600Y-76822300D01*
X141338300Y-78867000D02*
X141325600Y-78854300D01*
X139446000Y-78867000D02*
X141185900Y-78867000D01*
X141500803Y-79181903D02*
X141946156Y-79181903D01*
X141185900Y-78867000D02*
X141500803Y-79181903D01*
X142862300Y-73621900D02*
X142125700Y-73621900D01*
X143078200Y-73837800D02*
X142862300Y-73621900D01*
X143078200Y-75196700D02*
X143078200Y-73837800D01*
X142367000Y-69278500D02*
X142430500Y-69215000D01*
X142367000Y-70739000D02*
X142367000Y-69278500D01*
X152311100Y-112052100D02*
X152311100Y-111851440D01*
X141856302Y-89916000D02*
X141478000Y-89916000D01*
X143114951Y-91174649D02*
X141856302Y-89916000D01*
X151955500Y-68834000D02*
X151955500Y-70502810D01*
X151955500Y-70502810D02*
X152082500Y-70629810D01*
X145897600Y-86512398D02*
X145897602Y-86512400D01*
X145897600Y-85394800D02*
X145897600Y-86512398D01*
X149072600Y-89230200D02*
X149301200Y-89001600D01*
X147904200Y-89230200D02*
X149072600Y-89230200D01*
X143357600Y-85420200D02*
X143357600Y-86969600D01*
X144149801Y-87761801D02*
X144449800Y-88061800D01*
X143357600Y-86969600D02*
X144149801Y-87761801D01*
X144011953Y-93492839D02*
X144011953Y-93981748D01*
X144011953Y-93981748D02*
X144569984Y-94539779D01*
X144569984Y-94539779D02*
X144569984Y-94597126D01*
X150235780Y-106005770D02*
X150066376Y-106175174D01*
X151136350Y-105105200D02*
X150235780Y-106005770D01*
X151460200Y-105105200D02*
X151136350Y-105105200D01*
X150213289Y-96331811D02*
X150213289Y-98562803D01*
X150213289Y-98562803D02*
X150588047Y-98937561D01*
X150213289Y-94968289D02*
X150213289Y-95907547D01*
X149616452Y-94371452D02*
X150213289Y-94968289D01*
X150213289Y-95907547D02*
X150213289Y-96331811D01*
X148713917Y-94371452D02*
X149616452Y-94371452D01*
X149669426Y-98513900D02*
X149250400Y-98513900D01*
X150093087Y-98937561D02*
X149669426Y-98513900D01*
X150588047Y-98937561D02*
X150093087Y-98937561D01*
X152806400Y-79781400D02*
X152781000Y-79806800D01*
X152806400Y-78054200D02*
X152806400Y-79781400D01*
X152704800Y-76073000D02*
X152781000Y-75996800D01*
X152704800Y-75285600D02*
X152704800Y-76073000D01*
X152628600Y-75209400D02*
X152704800Y-75285600D01*
X150837900Y-75209400D02*
X152628600Y-75209400D01*
X150837900Y-76158230D02*
X150837900Y-75209400D01*
X150516730Y-76479400D02*
X150837900Y-76158230D01*
X144462500Y-76479400D02*
X150516730Y-76479400D01*
X143179800Y-75196700D02*
X144462500Y-76479400D01*
X143078200Y-75196700D02*
X143179800Y-75196700D01*
X144738896Y-89226756D02*
X144597918Y-89085778D01*
X139446000Y-81998782D02*
X139446000Y-81407000D01*
X141252263Y-83805045D02*
X139446000Y-81998782D01*
X145466420Y-89226756D02*
X144738896Y-89226756D01*
X147469761Y-91230097D02*
X145466420Y-89226756D01*
X148325305Y-91230097D02*
X147469761Y-91230097D01*
X141252263Y-88296433D02*
X141252263Y-83805045D01*
X142041608Y-89085778D02*
X141252263Y-88296433D01*
X144597918Y-89085778D02*
X142041608Y-89085778D01*
X145638300Y-90479728D02*
X144494361Y-89335789D01*
X139598400Y-83947000D02*
X139446000Y-83947000D01*
X141002252Y-85350852D02*
X139598400Y-83947000D01*
X145638300Y-90593702D02*
X145638300Y-90479728D01*
X141002252Y-88399990D02*
X141002252Y-85350852D01*
X141938051Y-89335789D02*
X141002252Y-88399990D01*
X146274695Y-91230097D02*
X145638300Y-90593702D01*
X144494361Y-89335789D02*
X141938051Y-89335789D01*
X139598400Y-86487000D02*
X140612000Y-87500600D01*
X139446000Y-86487000D02*
X139598400Y-86487000D01*
X141834494Y-89585800D02*
X144390804Y-89585800D01*
X145186400Y-91273173D02*
X145709010Y-91795783D01*
X140612000Y-88363306D02*
X141834494Y-89585800D01*
X144390804Y-89585800D02*
X145186400Y-90381396D01*
X145186400Y-90381396D02*
X145186400Y-91273173D01*
X140612000Y-87500600D02*
X140612000Y-88363306D01*
X141037020Y-92652052D02*
X141037020Y-90465620D01*
X141037020Y-90465620D02*
X139598400Y-89027000D01*
X139598400Y-89027000D02*
X139446000Y-89027000D01*
X141347011Y-92962043D02*
X141037020Y-92652052D01*
X141347011Y-96272619D02*
X142314897Y-97240505D01*
X141347011Y-96012000D02*
X141347011Y-96272619D01*
X141347011Y-96012000D02*
X141347011Y-92962043D01*
X139598400Y-91567000D02*
X139446000Y-91567000D01*
X142880583Y-97806190D02*
X142511118Y-98175655D01*
X141838255Y-98175655D02*
X141097000Y-97434400D01*
X141097000Y-93065600D02*
X139598400Y-91567000D01*
X142511118Y-98175655D02*
X141838255Y-98175655D01*
X141097000Y-97434400D02*
X141097000Y-93065600D01*
X140843000Y-95351600D02*
X139598400Y-94107000D01*
X139598400Y-94107000D02*
X139446000Y-94107000D01*
X140843000Y-97840800D02*
X140868400Y-97840800D01*
X140843000Y-97840800D02*
X140843000Y-95351600D01*
X140868400Y-97840800D02*
X142036800Y-99009200D01*
X142808944Y-99009200D02*
X143446268Y-98371876D01*
X142036800Y-99009200D02*
X142808944Y-99009200D01*
X143205747Y-99743767D02*
X144011953Y-98937561D01*
X142392400Y-99743767D02*
X143205747Y-99743767D01*
X139446000Y-96797367D02*
X142392400Y-99743767D01*
X139446000Y-96647000D02*
X139446000Y-96797367D01*
X140612000Y-99187000D02*
X139446000Y-99187000D01*
X141418777Y-99993777D02*
X140612000Y-99187000D01*
X143598200Y-99993777D02*
X141418777Y-99993777D01*
X144088730Y-99503247D02*
X143598200Y-99993777D01*
X144577639Y-99503247D02*
X144088730Y-99503247D01*
X143485256Y-101727000D02*
X145143324Y-100068932D01*
X139446000Y-101727000D02*
X143485256Y-101727000D01*
X149052280Y-82948760D02*
X149052280Y-82848760D01*
X149052280Y-82848760D02*
X151119840Y-80781200D01*
X147715198Y-85997970D02*
X147715198Y-85573706D01*
X148006019Y-87344852D02*
X148006019Y-86920588D01*
X148006019Y-86920588D02*
X147715198Y-86629767D01*
X149052280Y-82948760D02*
X149052280Y-84236624D01*
X148015197Y-85273707D02*
X147715198Y-85573706D01*
X147715198Y-86629767D02*
X147715198Y-85997970D01*
X149052280Y-84236624D02*
X148015197Y-85273707D01*
X145712227Y-96050100D02*
X145341353Y-96420974D01*
X145211278Y-96420974D02*
X144787014Y-96420974D01*
X145341353Y-96420974D02*
X145211278Y-96420974D01*
X146253200Y-96050100D02*
X145712227Y-96050100D01*
X145034188Y-94496381D02*
X145168899Y-94631092D01*
X146253200Y-94658823D02*
X146059199Y-94464822D01*
X146059199Y-94464822D02*
X145759200Y-94164823D01*
X145034188Y-93872611D02*
X145034188Y-94496381D01*
X145168899Y-95077001D02*
X144868900Y-95377000D01*
X146253200Y-96050100D02*
X146253200Y-94658823D01*
X145168899Y-94631092D02*
X145168899Y-95077001D01*
X144577639Y-92927153D02*
X144577639Y-93416062D01*
X144577639Y-93416062D02*
X145034188Y-93872611D01*
X146296401Y-96093301D02*
X148772901Y-96093301D01*
X146253200Y-96050100D02*
X146296401Y-96093301D01*
X148254595Y-99998222D02*
X148254595Y-98056741D01*
X148890990Y-100634617D02*
X148254595Y-99998222D01*
X148772901Y-96057699D02*
X149651999Y-95178601D01*
X148772901Y-96093301D02*
X148772901Y-96057699D01*
X148962068Y-96282468D02*
X148962068Y-97349268D01*
X148772901Y-96093301D02*
X148962068Y-96282468D01*
X148254595Y-98056741D02*
X148962068Y-97349268D01*
X148259800Y-75196700D02*
X148272500Y-75209400D01*
X145669000Y-75196700D02*
X148259800Y-75196700D01*
X148577300Y-74904600D02*
X148272500Y-75209400D01*
X149504400Y-74904600D02*
X148577300Y-74904600D01*
X149504400Y-71335600D02*
X149600000Y-71240000D01*
X149504400Y-74904600D02*
X149504400Y-71335600D01*
X151896801Y-79116199D02*
X152196800Y-78816200D01*
X151130000Y-81047600D02*
X151130000Y-79883000D01*
X151130000Y-79883000D02*
X151896801Y-79116199D01*
X151740256Y-98958400D02*
X151153732Y-98371876D01*
X152769965Y-98958400D02*
X151740256Y-98958400D01*
X152915536Y-103466900D02*
X153339800Y-103466900D01*
X149456676Y-100068932D02*
X152854644Y-103466900D01*
X152854644Y-103466900D02*
X152915536Y-103466900D01*
X154533600Y-86487000D02*
X153306801Y-87713799D01*
X151076956Y-93492839D02*
X150588047Y-93492839D01*
X154686000Y-86487000D02*
X154533600Y-86487000D01*
X153306801Y-87713799D02*
X153306801Y-89763001D01*
X153179802Y-89890000D02*
X153179802Y-91389993D01*
X153179802Y-91389993D02*
X151076956Y-93492839D01*
X153306801Y-89763001D02*
X153179802Y-89890000D01*
X154533600Y-89027000D02*
X154686000Y-89027000D01*
X151153732Y-94058524D02*
X151254676Y-94058524D01*
X151254676Y-94058524D02*
X153494990Y-91818210D01*
X153494990Y-91818210D02*
X153494990Y-90065610D01*
X153494990Y-90065610D02*
X154533600Y-89027000D01*
X154686000Y-91657627D02*
X154686000Y-91567000D01*
X151719417Y-94624210D02*
X154686000Y-91657627D01*
X152298400Y-95199200D02*
X153390600Y-94107000D01*
X152294408Y-95199200D02*
X152298400Y-95199200D01*
X153390600Y-94107000D02*
X154686000Y-94107000D01*
X152285103Y-95189895D02*
X152294408Y-95199200D01*
X154660600Y-96621600D02*
X154686000Y-96647000D01*
X152904008Y-96621600D02*
X154660600Y-96621600D01*
X152285103Y-97240505D02*
X152904008Y-96621600D01*
X154276400Y-98777400D02*
X154686000Y-98777400D01*
X153941585Y-98442585D02*
X154276400Y-98777400D01*
X152355812Y-98442585D02*
X153941585Y-98442585D01*
X151719417Y-97806190D02*
X152355812Y-98442585D01*
X153520000Y-101727000D02*
X154686000Y-101727000D01*
X151932642Y-100139642D02*
X153520000Y-101727000D01*
X150658756Y-100139642D02*
X151932642Y-100139642D01*
X150022361Y-99503247D02*
X150658756Y-100139642D01*
X142606990Y-83773000D02*
X142824200Y-83773000D01*
X141447490Y-82613500D02*
X142606990Y-83773000D01*
X142824200Y-84599810D02*
X142448310Y-84975700D01*
X142824200Y-83773000D02*
X142824200Y-84599810D01*
X152857200Y-105130600D02*
X154533600Y-106807000D01*
X148325305Y-101200303D02*
X148961700Y-101836698D01*
X154533600Y-106807000D02*
X154686000Y-106807000D01*
X148961700Y-101836698D02*
X150858698Y-101836698D01*
X152857200Y-103835200D02*
X152857200Y-105130600D01*
X150858698Y-101836698D02*
X152857200Y-103835200D01*
X146908799Y-97924899D02*
X146608800Y-97624900D01*
X148325305Y-101200303D02*
X147688910Y-100563908D01*
X147688910Y-100563908D02*
X147688910Y-98705010D01*
X147688910Y-98705010D02*
X146908799Y-97924899D01*
X139598400Y-104267000D02*
X139446000Y-104267000D01*
X141855011Y-102010389D02*
X139598400Y-104267000D01*
X144333238Y-102010389D02*
X141855011Y-102010389D01*
X145709010Y-100634617D02*
X144333238Y-102010389D01*
X145914558Y-96825564D02*
X145981390Y-96825564D01*
X145403119Y-98633523D02*
X145403119Y-97337003D01*
X145709010Y-100634617D02*
X146345405Y-99998222D01*
X146345405Y-99998222D02*
X146345405Y-99575809D01*
X146345405Y-99575809D02*
X145403119Y-98633523D01*
X145403119Y-97337003D02*
X145914558Y-96825564D01*
X151188336Y-85267800D02*
X151612600Y-85267800D01*
X149651418Y-88117982D02*
X150228300Y-87541100D01*
X150901400Y-85267800D02*
X151188336Y-85267800D01*
X147050811Y-88117982D02*
X149651418Y-88117982D01*
X150228300Y-85940900D02*
X150901400Y-85267800D01*
X150228300Y-87541100D02*
X150228300Y-85940900D01*
X145214598Y-102260400D02*
X146274695Y-101200303D01*
X143002000Y-102260400D02*
X145214598Y-102260400D01*
X140868400Y-104394000D02*
X143002000Y-102260400D01*
X140868400Y-105537000D02*
X140868400Y-104394000D01*
X139598400Y-106807000D02*
X140868400Y-105537000D01*
X139446000Y-106807000D02*
X139598400Y-106807000D01*
X146911090Y-100563908D02*
X146911090Y-99608092D01*
X145878129Y-98575131D02*
X145878129Y-97972608D01*
X146274695Y-101200303D02*
X146911090Y-100563908D01*
X145878129Y-97972608D02*
X145878129Y-97548344D01*
X146911090Y-99608092D02*
X145878129Y-98575131D01*
X148386800Y-71932800D02*
X148696401Y-72242401D01*
X148386800Y-70926800D02*
X148386800Y-71932800D01*
X148696401Y-72242401D02*
X148996400Y-72542400D01*
X149600000Y-68700000D02*
X149600000Y-69713600D01*
X149600000Y-69713600D02*
X148386800Y-70926800D01*
X146398800Y-105105200D02*
X148457920Y-105105200D01*
X145498800Y-105105200D02*
X146398800Y-105105200D01*
X145333700Y-104940100D02*
X145498800Y-105105200D01*
X144437100Y-104940100D02*
X145333700Y-104940100D01*
X142443200Y-91846400D02*
X141678502Y-92611098D01*
X141782800Y-91186000D02*
X142443200Y-91846400D01*
X141512020Y-91186000D02*
X141782800Y-91186000D01*
X141678502Y-94553500D02*
X142314897Y-95189895D01*
X141678502Y-93370400D02*
X141678502Y-94553500D01*
X141678502Y-92611098D02*
X141678502Y-93370400D01*
X151504777Y-89840667D02*
X152653133Y-89840667D01*
X152653133Y-89840667D02*
X152704800Y-89789000D01*
X150736300Y-78049120D02*
X150837900Y-78049120D01*
X149052280Y-79733140D02*
X150736300Y-78049120D01*
X149052280Y-80248760D02*
X149052280Y-79733140D01*
X149052280Y-80248760D02*
X149052280Y-81047600D01*
X142819120Y-80264000D02*
X142819120Y-81067920D01*
X143078200Y-80004920D02*
X142819120Y-80264000D01*
X142819120Y-81067920D02*
X142824200Y-81073000D01*
X143078200Y-78036420D02*
X143078200Y-80004920D01*
X146979640Y-79240380D02*
X146979640Y-81037440D01*
X146979640Y-81037440D02*
X146989800Y-81047600D01*
X148170900Y-78049120D02*
X146979640Y-79240380D01*
X148272500Y-78049120D02*
X148170900Y-78049120D01*
X145669000Y-79491840D02*
X144907000Y-80253840D01*
X145669000Y-78036420D02*
X145669000Y-79491840D01*
X144907000Y-81047600D02*
X144907000Y-80253840D01*
X145111460Y-108662460D02*
X145097500Y-108648500D01*
X145699100Y-108312460D02*
X145349100Y-108662460D01*
X145699100Y-107837460D02*
X145699100Y-108312460D01*
X145349100Y-108662460D02*
X145111460Y-108662460D01*
X146349100Y-109138100D02*
X146349100Y-107837460D01*
X146862800Y-109651800D02*
X146349100Y-109138100D01*
X147429499Y-109293497D02*
X147429499Y-111206001D01*
X147429499Y-111206001D02*
X147129500Y-111506000D01*
X146999100Y-107837460D02*
X146999100Y-108863098D01*
X146999100Y-108863098D02*
X147429499Y-109293497D01*
X144499100Y-110287460D02*
X144249100Y-110537460D01*
X144499100Y-107837460D02*
X144499100Y-110287460D01*
X149499100Y-110287460D02*
X149749100Y-110537460D01*
X149499100Y-107837460D02*
X149499100Y-110287460D01*
X149499100Y-107837460D02*
X148299100Y-107837460D01*
X149749100Y-110537460D02*
X150499100Y-110537460D01*
X143499100Y-110537460D02*
X144249100Y-110537460D01*
X150997120Y-110537460D02*
X150499100Y-110537460D01*
X143499100Y-110537460D02*
X144763960Y-110537460D01*
X144763960Y-110537460D02*
X144797501Y-110571001D01*
X144797501Y-110571001D02*
X145097500Y-110871000D01*
X150499100Y-110537460D02*
X149431540Y-110537460D01*
X149431540Y-110537460D02*
X149161500Y-110807500D01*
X152311100Y-108450460D02*
X152311100Y-108450380D01*
X150499100Y-110262460D02*
X152311100Y-108450460D01*
X150499100Y-110537460D02*
X150499100Y-110262460D01*
X149499100Y-110469900D02*
X149499100Y-107837460D01*
X149161500Y-110807500D02*
X149499100Y-110469900D01*
X145779719Y-92997863D02*
X145779719Y-93441302D01*
X145454044Y-95506944D02*
X145015016Y-95945972D01*
X145015016Y-95945972D02*
X144697519Y-95945972D01*
X145284199Y-94392824D02*
X145454044Y-94562669D01*
X144692483Y-95951008D02*
X144268219Y-95951008D01*
X145454044Y-94562669D02*
X145454044Y-95506944D01*
X145779719Y-93441302D02*
X145284199Y-93936822D01*
X145284199Y-93936822D02*
X145284199Y-94392824D01*
X144697519Y-95945972D02*
X144692483Y-95951008D01*
X145143324Y-92361468D02*
X145779719Y-92997863D01*
X143793218Y-95723007D02*
X143793218Y-96741190D01*
X143446268Y-94058524D02*
X144082663Y-94694919D01*
X147251406Y-96349806D02*
X147807401Y-96905801D01*
X145138097Y-96977798D02*
X145766089Y-96349806D01*
X144082663Y-95433562D02*
X143793218Y-95723007D01*
X144082663Y-94694919D02*
X144082663Y-95433562D01*
X147807401Y-96905801D02*
X148107400Y-97205800D01*
X144029826Y-96977798D02*
X145138097Y-96977798D01*
X143793218Y-96741190D02*
X144029826Y-96977798D01*
X145766089Y-96349806D02*
X147251406Y-96349806D01*
X144145283Y-90144317D02*
X144243279Y-90144317D01*
X144243279Y-91468721D02*
X144243279Y-90568581D01*
X143786703Y-90502897D02*
X144145283Y-90144317D01*
X142244188Y-93987815D02*
X142244188Y-93467812D01*
X144243279Y-90568581D02*
X144243279Y-90144317D01*
X142244188Y-93467812D02*
X144243279Y-91468721D01*
X142880583Y-94624210D02*
X142244188Y-93987815D01*
X146989800Y-83722200D02*
X146989800Y-86411724D01*
X145699810Y-87701714D02*
X145399811Y-88001713D01*
X146989800Y-86411724D02*
X145699810Y-87701714D01*
X144924801Y-88351957D02*
X145049567Y-88476723D01*
X145049567Y-88476723D02*
X145609677Y-88476723D01*
X145800801Y-88285599D02*
X146100800Y-87985600D01*
X144738083Y-84022757D02*
X144738083Y-87647081D01*
X144738083Y-87647081D02*
X144924801Y-87833799D01*
X144924801Y-87833799D02*
X144924801Y-88351957D01*
X145609677Y-88476723D02*
X145800801Y-88285599D01*
X144907000Y-83853840D02*
X144738083Y-84022757D01*
X142798800Y-104263618D02*
X142798800Y-105105200D01*
X143471900Y-103590518D02*
X142798800Y-104263618D01*
D28*
G36*
X148245351Y-102411628D02*
G01*
X148342042Y-102490980D01*
X148452356Y-102549945D01*
X148572054Y-102586255D01*
X148696536Y-102598515D01*
X148821018Y-102586255D01*
X148940716Y-102549945D01*
X148943684Y-102548359D01*
X148961699Y-102550133D01*
X148996574Y-102546698D01*
X150564607Y-102546698D01*
X151741745Y-103723836D01*
X151587200Y-103878380D01*
X151587200Y-104978200D01*
X151607200Y-104978200D01*
X151607200Y-105232200D01*
X151587200Y-105232200D01*
X151587200Y-106332020D01*
X151745950Y-106490770D01*
X152534620Y-106493842D01*
X152659102Y-106481582D01*
X152778800Y-106445272D01*
X152889114Y-106386307D01*
X152985805Y-106306955D01*
X153005484Y-106282975D01*
X153098356Y-106375847D01*
X153056684Y-106513223D01*
X153027749Y-106807000D01*
X153047961Y-107012208D01*
X151889460Y-107012208D01*
X151764978Y-107024468D01*
X151645280Y-107060778D01*
X151534966Y-107119743D01*
X151438275Y-107199095D01*
X151358923Y-107295786D01*
X151299958Y-107406100D01*
X151263648Y-107525798D01*
X151251388Y-107650280D01*
X151251388Y-108506080D01*
X150623270Y-109134199D01*
X150499100Y-109121969D01*
X150276601Y-109143883D01*
X150209100Y-109164359D01*
X150209100Y-108796748D01*
X150268766Y-108764856D01*
X150437786Y-108626146D01*
X150576496Y-108457126D01*
X150679568Y-108264294D01*
X150743038Y-108055058D01*
X150764470Y-107837460D01*
X150743038Y-107619862D01*
X150679568Y-107410626D01*
X150576496Y-107217794D01*
X150437786Y-107048774D01*
X150268766Y-106910064D01*
X150075934Y-106806992D01*
X149866698Y-106743522D01*
X149703621Y-106727460D01*
X149294579Y-106727460D01*
X149131502Y-106743522D01*
X149007595Y-106781108D01*
X148950285Y-106711275D01*
X148853594Y-106631923D01*
X148743280Y-106572958D01*
X148623582Y-106536648D01*
X148499100Y-106524388D01*
X148099100Y-106524388D01*
X147974618Y-106536648D01*
X147974100Y-106536805D01*
X147973582Y-106536648D01*
X147849100Y-106524388D01*
X147449100Y-106524388D01*
X147324618Y-106536648D01*
X147324100Y-106536805D01*
X147323582Y-106536648D01*
X147199100Y-106524388D01*
X146799100Y-106524388D01*
X146674618Y-106536648D01*
X146674100Y-106536805D01*
X146673582Y-106536648D01*
X146549100Y-106524388D01*
X146149100Y-106524388D01*
X146024618Y-106536648D01*
X146024100Y-106536805D01*
X146023582Y-106536648D01*
X145899100Y-106524388D01*
X145499100Y-106524388D01*
X145374618Y-106536648D01*
X145254920Y-106572958D01*
X145144606Y-106631923D01*
X145047915Y-106711275D01*
X144990605Y-106781108D01*
X144866698Y-106743522D01*
X144703621Y-106727460D01*
X144294579Y-106727460D01*
X144131502Y-106743522D01*
X143922266Y-106806992D01*
X143729434Y-106910064D01*
X143560414Y-107048774D01*
X143421704Y-107217794D01*
X143318632Y-107410626D01*
X143255162Y-107619862D01*
X143233730Y-107837460D01*
X143255162Y-108055058D01*
X143318632Y-108264294D01*
X143421704Y-108457126D01*
X143560414Y-108626146D01*
X143729434Y-108764856D01*
X143789100Y-108796749D01*
X143789101Y-109164360D01*
X143721598Y-109143883D01*
X143499100Y-109121969D01*
X143276601Y-109143883D01*
X143062653Y-109208784D01*
X142865477Y-109314176D01*
X142692651Y-109456011D01*
X142550816Y-109628837D01*
X142445424Y-109826014D01*
X142380523Y-110039962D01*
X142364100Y-110206709D01*
X142364100Y-110868212D01*
X142380523Y-111034959D01*
X142445424Y-111248907D01*
X142550817Y-111446083D01*
X142692652Y-111618909D01*
X142865478Y-111760744D01*
X143062654Y-111866136D01*
X143276602Y-111931037D01*
X143499100Y-111952951D01*
X143721599Y-111931037D01*
X143935547Y-111866136D01*
X144132723Y-111760744D01*
X144305549Y-111618909D01*
X144403620Y-111499410D01*
X144501472Y-111597262D01*
X144654611Y-111699586D01*
X144824771Y-111770068D01*
X145005411Y-111806000D01*
X145189589Y-111806000D01*
X145370229Y-111770068D01*
X145540389Y-111699586D01*
X145693528Y-111597262D01*
X145823762Y-111467028D01*
X145926086Y-111313889D01*
X145996568Y-111143729D01*
X146032500Y-110963089D01*
X146032500Y-110778911D01*
X145996568Y-110598271D01*
X145926086Y-110428111D01*
X145823762Y-110274972D01*
X145693528Y-110144738D01*
X145540389Y-110042414D01*
X145370229Y-109971932D01*
X145209100Y-109939881D01*
X145209100Y-109579619D01*
X145370229Y-109547568D01*
X145540389Y-109477086D01*
X145681401Y-109382865D01*
X145689972Y-109411119D01*
X145755900Y-109534462D01*
X145844625Y-109642574D01*
X145871717Y-109664808D01*
X145927800Y-109720891D01*
X145927800Y-109743889D01*
X145963732Y-109924529D01*
X146034214Y-110094689D01*
X146136538Y-110247828D01*
X146266772Y-110378062D01*
X146419911Y-110480386D01*
X146590071Y-110550868D01*
X146719500Y-110576613D01*
X146719500Y-110663791D01*
X146686611Y-110677414D01*
X146533472Y-110779738D01*
X146403238Y-110909972D01*
X146300914Y-111063111D01*
X146230432Y-111233271D01*
X146194500Y-111413911D01*
X146194500Y-111598089D01*
X146230432Y-111778729D01*
X146300914Y-111948889D01*
X146403238Y-112102028D01*
X146533472Y-112232262D01*
X146686611Y-112334586D01*
X146856771Y-112405068D01*
X147037411Y-112441000D01*
X147221589Y-112441000D01*
X147402229Y-112405068D01*
X147572389Y-112334586D01*
X147725528Y-112232262D01*
X147855762Y-112102028D01*
X147958086Y-111948889D01*
X148028568Y-111778729D01*
X148064500Y-111598089D01*
X148064500Y-111524160D01*
X148088627Y-111479021D01*
X148129226Y-111345185D01*
X148139499Y-111240878D01*
X148139499Y-111240876D01*
X148142934Y-111206001D01*
X148139499Y-111171126D01*
X148139499Y-109328371D01*
X148142934Y-109293496D01*
X148134603Y-109208911D01*
X148129226Y-109154313D01*
X148128079Y-109150532D01*
X148499100Y-109150532D01*
X148623582Y-109138272D01*
X148743280Y-109101962D01*
X148789101Y-109077470D01*
X148789101Y-109091389D01*
X148789100Y-109949717D01*
X148718611Y-109978914D01*
X148565472Y-110081238D01*
X148435238Y-110211472D01*
X148332914Y-110364611D01*
X148262432Y-110534771D01*
X148226500Y-110715411D01*
X148226500Y-110899589D01*
X148262432Y-111080229D01*
X148332914Y-111250389D01*
X148435238Y-111403528D01*
X148565472Y-111533762D01*
X148718611Y-111636086D01*
X148888771Y-111706568D01*
X149069411Y-111742500D01*
X149253589Y-111742500D01*
X149434229Y-111706568D01*
X149604389Y-111636086D01*
X149670498Y-111591914D01*
X149692652Y-111618909D01*
X149865478Y-111760744D01*
X150062654Y-111866136D01*
X150276602Y-111931037D01*
X150499100Y-111952951D01*
X150721599Y-111931037D01*
X150935547Y-111866136D01*
X151132723Y-111760744D01*
X151253833Y-111661351D01*
X151254460Y-111766350D01*
X151413210Y-111925100D01*
X152361900Y-111925100D01*
X152361900Y-110775750D01*
X152203150Y-110617000D01*
X151889460Y-110613928D01*
X151764978Y-110626188D01*
X151699871Y-110645938D01*
X151710555Y-110537460D01*
X151696847Y-110398276D01*
X151656248Y-110264440D01*
X151634100Y-110223004D01*
X151634100Y-110206708D01*
X151627361Y-110138290D01*
X151878208Y-109887444D01*
X151889460Y-109888552D01*
X153088340Y-109888552D01*
X153130583Y-109884392D01*
X153142375Y-109923264D01*
X153281531Y-110183606D01*
X153468803Y-110411797D01*
X153616392Y-110532920D01*
X153485634Y-110620290D01*
X153404794Y-110701130D01*
X153332520Y-110662498D01*
X153212822Y-110626188D01*
X153088340Y-110613928D01*
X152774650Y-110617000D01*
X152615900Y-110775750D01*
X152615900Y-111925100D01*
X152635900Y-111925100D01*
X152635900Y-112179100D01*
X152615900Y-112179100D01*
X152615900Y-112199100D01*
X152361900Y-112199100D01*
X152361900Y-112179100D01*
X151413210Y-112179100D01*
X151254460Y-112337850D01*
X151252578Y-112653000D01*
X141232322Y-112653000D01*
X141305000Y-112287626D01*
X141305000Y-111912374D01*
X141231791Y-111544332D01*
X141088189Y-111197644D01*
X140879710Y-110885634D01*
X140614366Y-110620290D01*
X140501247Y-110544706D01*
X140663197Y-110411797D01*
X140850469Y-110183606D01*
X140989625Y-109923264D01*
X141075316Y-109640777D01*
X141104251Y-109347000D01*
X141075316Y-109053223D01*
X140989625Y-108770736D01*
X140850469Y-108510394D01*
X140663197Y-108282203D01*
X140435006Y-108094931D01*
X140401460Y-108077000D01*
X140435006Y-108059069D01*
X140663197Y-107871797D01*
X140850469Y-107643606D01*
X140989625Y-107383264D01*
X141075316Y-107100777D01*
X141104251Y-106807000D01*
X141075316Y-106513223D01*
X141033644Y-106375848D01*
X141345789Y-106063703D01*
X141372874Y-106041475D01*
X141395104Y-106014388D01*
X141395107Y-106014385D01*
X141445298Y-105953227D01*
X141459298Y-105999380D01*
X141518263Y-106109694D01*
X141597615Y-106206385D01*
X141694306Y-106285737D01*
X141804620Y-106344702D01*
X141924318Y-106381012D01*
X142048800Y-106393272D01*
X143548800Y-106393272D01*
X143673282Y-106381012D01*
X143792980Y-106344702D01*
X143903294Y-106285737D01*
X143999985Y-106206385D01*
X144079337Y-106109694D01*
X144138302Y-105999380D01*
X144148800Y-105964773D01*
X144159298Y-105999380D01*
X144218263Y-106109694D01*
X144297615Y-106206385D01*
X144394306Y-106285737D01*
X144504620Y-106344702D01*
X144624318Y-106381012D01*
X144748800Y-106393272D01*
X146248800Y-106393272D01*
X146373282Y-106381012D01*
X146492980Y-106344702D01*
X146603294Y-106285737D01*
X146699985Y-106206385D01*
X146779337Y-106109694D01*
X146790576Y-106088668D01*
X146793998Y-106099950D01*
X146852963Y-106210264D01*
X146932315Y-106306955D01*
X147029006Y-106386307D01*
X147139320Y-106445272D01*
X147259018Y-106481582D01*
X147383500Y-106493842D01*
X149532340Y-106493842D01*
X149656822Y-106481582D01*
X149776520Y-106445272D01*
X149886834Y-106386307D01*
X149959060Y-106327033D01*
X150031286Y-106386307D01*
X150141600Y-106445272D01*
X150261298Y-106481582D01*
X150385780Y-106493842D01*
X151174450Y-106490770D01*
X151333200Y-106332020D01*
X151333200Y-105232200D01*
X151313200Y-105232200D01*
X151313200Y-104978200D01*
X151333200Y-104978200D01*
X151333200Y-103878380D01*
X151174450Y-103719630D01*
X150385780Y-103716558D01*
X150261298Y-103728818D01*
X150141600Y-103765128D01*
X150031286Y-103824093D01*
X149959060Y-103883367D01*
X149886834Y-103824093D01*
X149776520Y-103765128D01*
X149656822Y-103728818D01*
X149532340Y-103716558D01*
X147383500Y-103716558D01*
X147259018Y-103728818D01*
X147139320Y-103765128D01*
X147029006Y-103824093D01*
X146932315Y-103903445D01*
X146852963Y-104000136D01*
X146793998Y-104110450D01*
X146790576Y-104121732D01*
X146779337Y-104100706D01*
X146699985Y-104004015D01*
X146603294Y-103924663D01*
X146492980Y-103865698D01*
X146373282Y-103829388D01*
X146248800Y-103817128D01*
X144748800Y-103817128D01*
X144624318Y-103829388D01*
X144504620Y-103865698D01*
X144394306Y-103924663D01*
X144320409Y-103985309D01*
X144370968Y-103863247D01*
X144406900Y-103682607D01*
X144406900Y-103498429D01*
X144370968Y-103317789D01*
X144300486Y-103147629D01*
X144198162Y-102994490D01*
X144174072Y-102970400D01*
X145179723Y-102970400D01*
X145214598Y-102973835D01*
X145249473Y-102970400D01*
X145249475Y-102970400D01*
X145353782Y-102960127D01*
X145487618Y-102919528D01*
X145610961Y-102853600D01*
X145719073Y-102764875D01*
X145741310Y-102737779D01*
X145882626Y-102596463D01*
X145903464Y-102598515D01*
X146027946Y-102586255D01*
X146147644Y-102549945D01*
X146257958Y-102490980D01*
X146354649Y-102411628D01*
X147300000Y-101466277D01*
X148245351Y-102411628D01*
X148245351Y-102411628D01*
G37*
X148245351Y-102411628D02*
X148342042Y-102490980D01*
X148452356Y-102549945D01*
X148572054Y-102586255D01*
X148696536Y-102598515D01*
X148821018Y-102586255D01*
X148940716Y-102549945D01*
X148943684Y-102548359D01*
X148961699Y-102550133D01*
X148996574Y-102546698D01*
X150564607Y-102546698D01*
X151741745Y-103723836D01*
X151587200Y-103878380D01*
X151587200Y-104978200D01*
X151607200Y-104978200D01*
X151607200Y-105232200D01*
X151587200Y-105232200D01*
X151587200Y-106332020D01*
X151745950Y-106490770D01*
X152534620Y-106493842D01*
X152659102Y-106481582D01*
X152778800Y-106445272D01*
X152889114Y-106386307D01*
X152985805Y-106306955D01*
X153005484Y-106282975D01*
X153098356Y-106375847D01*
X153056684Y-106513223D01*
X153027749Y-106807000D01*
X153047961Y-107012208D01*
X151889460Y-107012208D01*
X151764978Y-107024468D01*
X151645280Y-107060778D01*
X151534966Y-107119743D01*
X151438275Y-107199095D01*
X151358923Y-107295786D01*
X151299958Y-107406100D01*
X151263648Y-107525798D01*
X151251388Y-107650280D01*
X151251388Y-108506080D01*
X150623270Y-109134199D01*
X150499100Y-109121969D01*
X150276601Y-109143883D01*
X150209100Y-109164359D01*
X150209100Y-108796748D01*
X150268766Y-108764856D01*
X150437786Y-108626146D01*
X150576496Y-108457126D01*
X150679568Y-108264294D01*
X150743038Y-108055058D01*
X150764470Y-107837460D01*
X150743038Y-107619862D01*
X150679568Y-107410626D01*
X150576496Y-107217794D01*
X150437786Y-107048774D01*
X150268766Y-106910064D01*
X150075934Y-106806992D01*
X149866698Y-106743522D01*
X149703621Y-106727460D01*
X149294579Y-106727460D01*
X149131502Y-106743522D01*
X149007595Y-106781108D01*
X148950285Y-106711275D01*
X148853594Y-106631923D01*
X148743280Y-106572958D01*
X148623582Y-106536648D01*
X148499100Y-106524388D01*
X148099100Y-106524388D01*
X147974618Y-106536648D01*
X147974100Y-106536805D01*
X147973582Y-106536648D01*
X147849100Y-106524388D01*
X147449100Y-106524388D01*
X147324618Y-106536648D01*
X147324100Y-106536805D01*
X147323582Y-106536648D01*
X147199100Y-106524388D01*
X146799100Y-106524388D01*
X146674618Y-106536648D01*
X146674100Y-106536805D01*
X146673582Y-106536648D01*
X146549100Y-106524388D01*
X146149100Y-106524388D01*
X146024618Y-106536648D01*
X146024100Y-106536805D01*
X146023582Y-106536648D01*
X145899100Y-106524388D01*
X145499100Y-106524388D01*
X145374618Y-106536648D01*
X145254920Y-106572958D01*
X145144606Y-106631923D01*
X145047915Y-106711275D01*
X144990605Y-106781108D01*
X144866698Y-106743522D01*
X144703621Y-106727460D01*
X144294579Y-106727460D01*
X144131502Y-106743522D01*
X143922266Y-106806992D01*
X143729434Y-106910064D01*
X143560414Y-107048774D01*
X143421704Y-107217794D01*
X143318632Y-107410626D01*
X143255162Y-107619862D01*
X143233730Y-107837460D01*
X143255162Y-108055058D01*
X143318632Y-108264294D01*
X143421704Y-108457126D01*
X143560414Y-108626146D01*
X143729434Y-108764856D01*
X143789100Y-108796749D01*
X143789101Y-109164360D01*
X143721598Y-109143883D01*
X143499100Y-109121969D01*
X143276601Y-109143883D01*
X143062653Y-109208784D01*
X142865477Y-109314176D01*
X142692651Y-109456011D01*
X142550816Y-109628837D01*
X142445424Y-109826014D01*
X142380523Y-110039962D01*
X142364100Y-110206709D01*
X142364100Y-110868212D01*
X142380523Y-111034959D01*
X142445424Y-111248907D01*
X142550817Y-111446083D01*
X142692652Y-111618909D01*
X142865478Y-111760744D01*
X143062654Y-111866136D01*
X143276602Y-111931037D01*
X143499100Y-111952951D01*
X143721599Y-111931037D01*
X143935547Y-111866136D01*
X144132723Y-111760744D01*
X144305549Y-111618909D01*
X144403620Y-111499410D01*
X144501472Y-111597262D01*
X144654611Y-111699586D01*
X144824771Y-111770068D01*
X145005411Y-111806000D01*
X145189589Y-111806000D01*
X145370229Y-111770068D01*
X145540389Y-111699586D01*
X145693528Y-111597262D01*
X145823762Y-111467028D01*
X145926086Y-111313889D01*
X145996568Y-111143729D01*
X146032500Y-110963089D01*
X146032500Y-110778911D01*
X145996568Y-110598271D01*
X145926086Y-110428111D01*
X145823762Y-110274972D01*
X145693528Y-110144738D01*
X145540389Y-110042414D01*
X145370229Y-109971932D01*
X145209100Y-109939881D01*
X145209100Y-109579619D01*
X145370229Y-109547568D01*
X145540389Y-109477086D01*
X145681401Y-109382865D01*
X145689972Y-109411119D01*
X145755900Y-109534462D01*
X145844625Y-109642574D01*
X145871717Y-109664808D01*
X145927800Y-109720891D01*
X145927800Y-109743889D01*
X145963732Y-109924529D01*
X146034214Y-110094689D01*
X146136538Y-110247828D01*
X146266772Y-110378062D01*
X146419911Y-110480386D01*
X146590071Y-110550868D01*
X146719500Y-110576613D01*
X146719500Y-110663791D01*
X146686611Y-110677414D01*
X146533472Y-110779738D01*
X146403238Y-110909972D01*
X146300914Y-111063111D01*
X146230432Y-111233271D01*
X146194500Y-111413911D01*
X146194500Y-111598089D01*
X146230432Y-111778729D01*
X146300914Y-111948889D01*
X146403238Y-112102028D01*
X146533472Y-112232262D01*
X146686611Y-112334586D01*
X146856771Y-112405068D01*
X147037411Y-112441000D01*
X147221589Y-112441000D01*
X147402229Y-112405068D01*
X147572389Y-112334586D01*
X147725528Y-112232262D01*
X147855762Y-112102028D01*
X147958086Y-111948889D01*
X148028568Y-111778729D01*
X148064500Y-111598089D01*
X148064500Y-111524160D01*
X148088627Y-111479021D01*
X148129226Y-111345185D01*
X148139499Y-111240878D01*
X148139499Y-111240876D01*
X148142934Y-111206001D01*
X148139499Y-111171126D01*
X148139499Y-109328371D01*
X148142934Y-109293496D01*
X148134603Y-109208911D01*
X148129226Y-109154313D01*
X148128079Y-109150532D01*
X148499100Y-109150532D01*
X148623582Y-109138272D01*
X148743280Y-109101962D01*
X148789101Y-109077470D01*
X148789101Y-109091389D01*
X148789100Y-109949717D01*
X148718611Y-109978914D01*
X148565472Y-110081238D01*
X148435238Y-110211472D01*
X148332914Y-110364611D01*
X148262432Y-110534771D01*
X148226500Y-110715411D01*
X148226500Y-110899589D01*
X148262432Y-111080229D01*
X148332914Y-111250389D01*
X148435238Y-111403528D01*
X148565472Y-111533762D01*
X148718611Y-111636086D01*
X148888771Y-111706568D01*
X149069411Y-111742500D01*
X149253589Y-111742500D01*
X149434229Y-111706568D01*
X149604389Y-111636086D01*
X149670498Y-111591914D01*
X149692652Y-111618909D01*
X149865478Y-111760744D01*
X150062654Y-111866136D01*
X150276602Y-111931037D01*
X150499100Y-111952951D01*
X150721599Y-111931037D01*
X150935547Y-111866136D01*
X151132723Y-111760744D01*
X151253833Y-111661351D01*
X151254460Y-111766350D01*
X151413210Y-111925100D01*
X152361900Y-111925100D01*
X152361900Y-110775750D01*
X152203150Y-110617000D01*
X151889460Y-110613928D01*
X151764978Y-110626188D01*
X151699871Y-110645938D01*
X151710555Y-110537460D01*
X151696847Y-110398276D01*
X151656248Y-110264440D01*
X151634100Y-110223004D01*
X151634100Y-110206708D01*
X151627361Y-110138290D01*
X151878208Y-109887444D01*
X151889460Y-109888552D01*
X153088340Y-109888552D01*
X153130583Y-109884392D01*
X153142375Y-109923264D01*
X153281531Y-110183606D01*
X153468803Y-110411797D01*
X153616392Y-110532920D01*
X153485634Y-110620290D01*
X153404794Y-110701130D01*
X153332520Y-110662498D01*
X153212822Y-110626188D01*
X153088340Y-110613928D01*
X152774650Y-110617000D01*
X152615900Y-110775750D01*
X152615900Y-111925100D01*
X152635900Y-111925100D01*
X152635900Y-112179100D01*
X152615900Y-112179100D01*
X152615900Y-112199100D01*
X152361900Y-112199100D01*
X152361900Y-112179100D01*
X151413210Y-112179100D01*
X151254460Y-112337850D01*
X151252578Y-112653000D01*
X141232322Y-112653000D01*
X141305000Y-112287626D01*
X141305000Y-111912374D01*
X141231791Y-111544332D01*
X141088189Y-111197644D01*
X140879710Y-110885634D01*
X140614366Y-110620290D01*
X140501247Y-110544706D01*
X140663197Y-110411797D01*
X140850469Y-110183606D01*
X140989625Y-109923264D01*
X141075316Y-109640777D01*
X141104251Y-109347000D01*
X141075316Y-109053223D01*
X140989625Y-108770736D01*
X140850469Y-108510394D01*
X140663197Y-108282203D01*
X140435006Y-108094931D01*
X140401460Y-108077000D01*
X140435006Y-108059069D01*
X140663197Y-107871797D01*
X140850469Y-107643606D01*
X140989625Y-107383264D01*
X141075316Y-107100777D01*
X141104251Y-106807000D01*
X141075316Y-106513223D01*
X141033644Y-106375848D01*
X141345789Y-106063703D01*
X141372874Y-106041475D01*
X141395104Y-106014388D01*
X141395107Y-106014385D01*
X141445298Y-105953227D01*
X141459298Y-105999380D01*
X141518263Y-106109694D01*
X141597615Y-106206385D01*
X141694306Y-106285737D01*
X141804620Y-106344702D01*
X141924318Y-106381012D01*
X142048800Y-106393272D01*
X143548800Y-106393272D01*
X143673282Y-106381012D01*
X143792980Y-106344702D01*
X143903294Y-106285737D01*
X143999985Y-106206385D01*
X144079337Y-106109694D01*
X144138302Y-105999380D01*
X144148800Y-105964773D01*
X144159298Y-105999380D01*
X144218263Y-106109694D01*
X144297615Y-106206385D01*
X144394306Y-106285737D01*
X144504620Y-106344702D01*
X144624318Y-106381012D01*
X144748800Y-106393272D01*
X146248800Y-106393272D01*
X146373282Y-106381012D01*
X146492980Y-106344702D01*
X146603294Y-106285737D01*
X146699985Y-106206385D01*
X146779337Y-106109694D01*
X146790576Y-106088668D01*
X146793998Y-106099950D01*
X146852963Y-106210264D01*
X146932315Y-106306955D01*
X147029006Y-106386307D01*
X147139320Y-106445272D01*
X147259018Y-106481582D01*
X147383500Y-106493842D01*
X149532340Y-106493842D01*
X149656822Y-106481582D01*
X149776520Y-106445272D01*
X149886834Y-106386307D01*
X149959060Y-106327033D01*
X150031286Y-106386307D01*
X150141600Y-106445272D01*
X150261298Y-106481582D01*
X150385780Y-106493842D01*
X151174450Y-106490770D01*
X151333200Y-106332020D01*
X151333200Y-105232200D01*
X151313200Y-105232200D01*
X151313200Y-104978200D01*
X151333200Y-104978200D01*
X151333200Y-103878380D01*
X151174450Y-103719630D01*
X150385780Y-103716558D01*
X150261298Y-103728818D01*
X150141600Y-103765128D01*
X150031286Y-103824093D01*
X149959060Y-103883367D01*
X149886834Y-103824093D01*
X149776520Y-103765128D01*
X149656822Y-103728818D01*
X149532340Y-103716558D01*
X147383500Y-103716558D01*
X147259018Y-103728818D01*
X147139320Y-103765128D01*
X147029006Y-103824093D01*
X146932315Y-103903445D01*
X146852963Y-104000136D01*
X146793998Y-104110450D01*
X146790576Y-104121732D01*
X146779337Y-104100706D01*
X146699985Y-104004015D01*
X146603294Y-103924663D01*
X146492980Y-103865698D01*
X146373282Y-103829388D01*
X146248800Y-103817128D01*
X144748800Y-103817128D01*
X144624318Y-103829388D01*
X144504620Y-103865698D01*
X144394306Y-103924663D01*
X144320409Y-103985309D01*
X144370968Y-103863247D01*
X144406900Y-103682607D01*
X144406900Y-103498429D01*
X144370968Y-103317789D01*
X144300486Y-103147629D01*
X144198162Y-102994490D01*
X144174072Y-102970400D01*
X145179723Y-102970400D01*
X145214598Y-102973835D01*
X145249473Y-102970400D01*
X145249475Y-102970400D01*
X145353782Y-102960127D01*
X145487618Y-102919528D01*
X145610961Y-102853600D01*
X145719073Y-102764875D01*
X145741310Y-102737779D01*
X145882626Y-102596463D01*
X145903464Y-102598515D01*
X146027946Y-102586255D01*
X146147644Y-102549945D01*
X146257958Y-102490980D01*
X146354649Y-102411628D01*
X147300000Y-101466277D01*
X148245351Y-102411628D01*
G36*
X150897001Y-95835535D02*
G01*
X150993692Y-95914887D01*
X150994171Y-95915143D01*
X150994426Y-95915620D01*
X151073778Y-96012311D01*
X151276667Y-96215200D01*
X151073778Y-96418089D01*
X150994426Y-96514780D01*
X150994171Y-96515257D01*
X150993692Y-96515513D01*
X150897001Y-96594865D01*
X150508092Y-96983774D01*
X150428740Y-97080465D01*
X150428484Y-97080944D01*
X150428007Y-97081199D01*
X150331316Y-97160551D01*
X149942407Y-97549460D01*
X149863055Y-97646151D01*
X149862495Y-97647199D01*
X149775405Y-97720807D01*
X149775405Y-97851027D01*
X149767780Y-97876163D01*
X149755520Y-98000645D01*
X149766924Y-98116439D01*
X149651130Y-98105035D01*
X149526648Y-98117295D01*
X149501515Y-98124919D01*
X149371293Y-98124919D01*
X149297685Y-98212009D01*
X149296636Y-98212570D01*
X149199945Y-98291922D01*
X148964595Y-98527272D01*
X148964595Y-98350832D01*
X149439447Y-97875980D01*
X149466543Y-97853743D01*
X149555268Y-97745631D01*
X149621196Y-97622288D01*
X149661795Y-97488452D01*
X149672068Y-97384145D01*
X149672068Y-97384143D01*
X149675503Y-97349268D01*
X149672068Y-97314393D01*
X149672068Y-96317345D01*
X149675503Y-96282468D01*
X149664450Y-96170241D01*
X149721091Y-96113601D01*
X149744088Y-96113601D01*
X149924728Y-96077669D01*
X150094888Y-96007187D01*
X150248027Y-95904863D01*
X150378261Y-95774629D01*
X150480585Y-95621490D01*
X150539858Y-95478392D01*
X150897001Y-95835535D01*
X150897001Y-95835535D01*
G37*
X150897001Y-95835535D02*
X150993692Y-95914887D01*
X150994171Y-95915143D01*
X150994426Y-95915620D01*
X151073778Y-96012311D01*
X151276667Y-96215200D01*
X151073778Y-96418089D01*
X150994426Y-96514780D01*
X150994171Y-96515257D01*
X150993692Y-96515513D01*
X150897001Y-96594865D01*
X150508092Y-96983774D01*
X150428740Y-97080465D01*
X150428484Y-97080944D01*
X150428007Y-97081199D01*
X150331316Y-97160551D01*
X149942407Y-97549460D01*
X149863055Y-97646151D01*
X149862495Y-97647199D01*
X149775405Y-97720807D01*
X149775405Y-97851027D01*
X149767780Y-97876163D01*
X149755520Y-98000645D01*
X149766924Y-98116439D01*
X149651130Y-98105035D01*
X149526648Y-98117295D01*
X149501515Y-98124919D01*
X149371293Y-98124919D01*
X149297685Y-98212009D01*
X149296636Y-98212570D01*
X149199945Y-98291922D01*
X148964595Y-98527272D01*
X148964595Y-98350832D01*
X149439447Y-97875980D01*
X149466543Y-97853743D01*
X149555268Y-97745631D01*
X149621196Y-97622288D01*
X149661795Y-97488452D01*
X149672068Y-97384145D01*
X149672068Y-97384143D01*
X149675503Y-97349268D01*
X149672068Y-97314393D01*
X149672068Y-96317345D01*
X149675503Y-96282468D01*
X149664450Y-96170241D01*
X149721091Y-96113601D01*
X149744088Y-96113601D01*
X149924728Y-96077669D01*
X150094888Y-96007187D01*
X150248027Y-95904863D01*
X150378261Y-95774629D01*
X150480585Y-95621490D01*
X150539858Y-95478392D01*
X150897001Y-95835535D01*
G36*
X149199945Y-94138478D02*
G01*
X149296636Y-94217830D01*
X149297114Y-94218086D01*
X149297370Y-94218564D01*
X149355490Y-94289383D01*
X149209110Y-94350015D01*
X149055971Y-94452339D01*
X148925737Y-94582573D01*
X148823413Y-94735712D01*
X148752931Y-94905872D01*
X148716999Y-95086512D01*
X148716999Y-95109509D01*
X148443208Y-95383301D01*
X148079438Y-95383301D01*
X148217131Y-95326267D01*
X148370270Y-95223943D01*
X148500504Y-95093709D01*
X148602828Y-94940570D01*
X148673310Y-94770410D01*
X148709242Y-94589770D01*
X148709242Y-94405592D01*
X148673310Y-94224952D01*
X148651042Y-94171193D01*
X148941851Y-93880384D01*
X149199945Y-94138478D01*
X149199945Y-94138478D01*
G37*
X149199945Y-94138478D02*
X149296636Y-94217830D01*
X149297114Y-94218086D01*
X149297370Y-94218564D01*
X149355490Y-94289383D01*
X149209110Y-94350015D01*
X149055971Y-94452339D01*
X148925737Y-94582573D01*
X148823413Y-94735712D01*
X148752931Y-94905872D01*
X148716999Y-95086512D01*
X148716999Y-95109509D01*
X148443208Y-95383301D01*
X148079438Y-95383301D01*
X148217131Y-95326267D01*
X148370270Y-95223943D01*
X148500504Y-95093709D01*
X148602828Y-94940570D01*
X148673310Y-94770410D01*
X148709242Y-94589770D01*
X148709242Y-94405592D01*
X148673310Y-94224952D01*
X148651042Y-94171193D01*
X148941851Y-93880384D01*
X149199945Y-94138478D01*
G36*
X143227331Y-91270159D02*
G01*
X143210462Y-91287028D01*
X143002572Y-91079138D01*
X143019441Y-91062269D01*
X143227331Y-91270159D01*
X143227331Y-91270159D01*
G37*
X143227331Y-91270159D02*
X143210462Y-91287028D01*
X143002572Y-91079138D01*
X143019441Y-91062269D01*
X143227331Y-91270159D01*
G36*
X150610400Y-88290672D02*
G01*
X150693601Y-88290672D01*
X150693601Y-88383108D01*
X150515129Y-88561580D01*
X150488037Y-88583814D01*
X150399312Y-88691926D01*
X150333384Y-88815269D01*
X150292785Y-88949105D01*
X150285113Y-89027001D01*
X150279077Y-89088288D01*
X150282512Y-89123163D01*
X150282512Y-89791621D01*
X149929512Y-89438621D01*
X149907275Y-89411525D01*
X149799163Y-89322800D01*
X149675820Y-89256872D01*
X149541984Y-89216273D01*
X149437677Y-89206000D01*
X149437675Y-89206000D01*
X149402800Y-89202565D01*
X149367925Y-89206000D01*
X147156892Y-89206000D01*
X147003874Y-89052982D01*
X147142900Y-89052982D01*
X147323540Y-89017050D01*
X147493700Y-88946568D01*
X147646839Y-88844244D01*
X147663101Y-88827982D01*
X149616543Y-88827982D01*
X149651418Y-88831417D01*
X149686293Y-88827982D01*
X149686295Y-88827982D01*
X149790602Y-88817709D01*
X149924438Y-88777110D01*
X150047781Y-88711182D01*
X150155893Y-88622457D01*
X150178130Y-88595361D01*
X150494258Y-88279233D01*
X150610400Y-88290672D01*
X150610400Y-88290672D01*
G37*
X150610400Y-88290672D02*
X150693601Y-88290672D01*
X150693601Y-88383108D01*
X150515129Y-88561580D01*
X150488037Y-88583814D01*
X150399312Y-88691926D01*
X150333384Y-88815269D01*
X150292785Y-88949105D01*
X150285113Y-89027001D01*
X150279077Y-89088288D01*
X150282512Y-89123163D01*
X150282512Y-89791621D01*
X149929512Y-89438621D01*
X149907275Y-89411525D01*
X149799163Y-89322800D01*
X149675820Y-89256872D01*
X149541984Y-89216273D01*
X149437677Y-89206000D01*
X149437675Y-89206000D01*
X149402800Y-89202565D01*
X149367925Y-89206000D01*
X147156892Y-89206000D01*
X147003874Y-89052982D01*
X147142900Y-89052982D01*
X147323540Y-89017050D01*
X147493700Y-88946568D01*
X147646839Y-88844244D01*
X147663101Y-88827982D01*
X149616543Y-88827982D01*
X149651418Y-88831417D01*
X149686293Y-88827982D01*
X149686295Y-88827982D01*
X149790602Y-88817709D01*
X149924438Y-88777110D01*
X150047781Y-88711182D01*
X150155893Y-88622457D01*
X150178130Y-88595361D01*
X150494258Y-88279233D01*
X150610400Y-88290672D01*
G36*
X150125506Y-85028137D02*
G01*
X150132978Y-85032131D01*
X149750916Y-85414193D01*
X149723826Y-85436425D01*
X149701593Y-85463516D01*
X149635101Y-85544537D01*
X149569172Y-85667881D01*
X149528574Y-85801716D01*
X149514865Y-85940900D01*
X149518301Y-85975784D01*
X149518300Y-87247008D01*
X149357327Y-87407982D01*
X148941019Y-87407982D01*
X148941019Y-87252763D01*
X148905087Y-87072123D01*
X148834605Y-86901963D01*
X148732281Y-86748824D01*
X148680005Y-86696548D01*
X148665147Y-86647568D01*
X148599219Y-86524225D01*
X148510494Y-86416113D01*
X148483398Y-86393876D01*
X148425198Y-86335676D01*
X148425198Y-86185996D01*
X148441460Y-86169734D01*
X148543784Y-86016595D01*
X148614266Y-85846435D01*
X148650198Y-85665795D01*
X148650198Y-85642797D01*
X149157323Y-85135672D01*
X149702280Y-85135672D01*
X149826762Y-85123412D01*
X149946460Y-85087102D01*
X150056774Y-85028137D01*
X150091140Y-84999934D01*
X150125506Y-85028137D01*
X150125506Y-85028137D01*
G37*
X150125506Y-85028137D02*
X150132978Y-85032131D01*
X149750916Y-85414193D01*
X149723826Y-85436425D01*
X149701593Y-85463516D01*
X149635101Y-85544537D01*
X149569172Y-85667881D01*
X149528574Y-85801716D01*
X149514865Y-85940900D01*
X149518301Y-85975784D01*
X149518300Y-87247008D01*
X149357327Y-87407982D01*
X148941019Y-87407982D01*
X148941019Y-87252763D01*
X148905087Y-87072123D01*
X148834605Y-86901963D01*
X148732281Y-86748824D01*
X148680005Y-86696548D01*
X148665147Y-86647568D01*
X148599219Y-86524225D01*
X148510494Y-86416113D01*
X148483398Y-86393876D01*
X148425198Y-86335676D01*
X148425198Y-86185996D01*
X148441460Y-86169734D01*
X148543784Y-86016595D01*
X148614266Y-85846435D01*
X148650198Y-85665795D01*
X148650198Y-85642797D01*
X149157323Y-85135672D01*
X149702280Y-85135672D01*
X149826762Y-85123412D01*
X149946460Y-85087102D01*
X150056774Y-85028137D01*
X150091140Y-84999934D01*
X150125506Y-85028137D01*
G36*
X143902506Y-85028137D02*
G01*
X144012820Y-85087102D01*
X144028083Y-85091732D01*
X144028083Y-85606318D01*
X143592550Y-85609200D01*
X143433800Y-85767950D01*
X143433800Y-86817200D01*
X143453800Y-86817200D01*
X143453800Y-87071200D01*
X143433800Y-87071200D01*
X143433800Y-87091200D01*
X143179800Y-87091200D01*
X143179800Y-87071200D01*
X143159800Y-87071200D01*
X143159800Y-86817200D01*
X143179800Y-86817200D01*
X143179800Y-85767950D01*
X143079075Y-85667225D01*
X143174572Y-85571728D01*
X143276896Y-85418589D01*
X143347378Y-85248429D01*
X143369807Y-85135672D01*
X143499600Y-85135672D01*
X143624082Y-85123412D01*
X143743780Y-85087102D01*
X143854094Y-85028137D01*
X143878300Y-85008272D01*
X143902506Y-85028137D01*
X143902506Y-85028137D01*
G37*
X143902506Y-85028137D02*
X144012820Y-85087102D01*
X144028083Y-85091732D01*
X144028083Y-85606318D01*
X143592550Y-85609200D01*
X143433800Y-85767950D01*
X143433800Y-86817200D01*
X143453800Y-86817200D01*
X143453800Y-87071200D01*
X143433800Y-87071200D01*
X143433800Y-87091200D01*
X143179800Y-87091200D01*
X143179800Y-87071200D01*
X143159800Y-87071200D01*
X143159800Y-86817200D01*
X143179800Y-86817200D01*
X143179800Y-85767950D01*
X143079075Y-85667225D01*
X143174572Y-85571728D01*
X143276896Y-85418589D01*
X143347378Y-85248429D01*
X143369807Y-85135672D01*
X143499600Y-85135672D01*
X143624082Y-85123412D01*
X143743780Y-85087102D01*
X143854094Y-85028137D01*
X143878300Y-85008272D01*
X143902506Y-85028137D01*
G36*
X145985306Y-85028137D02*
G01*
X146095620Y-85087102D01*
X146215318Y-85123412D01*
X146279801Y-85129763D01*
X146279801Y-86117631D01*
X145448083Y-86949350D01*
X145448083Y-85135672D01*
X145557000Y-85135672D01*
X145681482Y-85123412D01*
X145801180Y-85087102D01*
X145911494Y-85028137D01*
X145948400Y-84997849D01*
X145985306Y-85028137D01*
X145985306Y-85028137D01*
G37*
X145985306Y-85028137D02*
X146095620Y-85087102D01*
X146215318Y-85123412D01*
X146279801Y-85129763D01*
X146279801Y-86117631D01*
X145448083Y-86949350D01*
X145448083Y-85135672D01*
X145557000Y-85135672D01*
X145681482Y-85123412D01*
X145801180Y-85087102D01*
X145911494Y-85028137D01*
X145948400Y-84997849D01*
X145985306Y-85028137D01*
G36*
X141071599Y-77040435D02*
G01*
X141106474Y-77037000D01*
X141575045Y-77037000D01*
X141551958Y-77113108D01*
X141539698Y-77237590D01*
X141539698Y-78835250D01*
X141551958Y-78959732D01*
X141588268Y-79079430D01*
X141647233Y-79189744D01*
X141726585Y-79286435D01*
X141823276Y-79365787D01*
X141933590Y-79424752D01*
X142053288Y-79461062D01*
X142177770Y-79473322D01*
X142368201Y-79473322D01*
X142368201Y-79659528D01*
X142199600Y-79659528D01*
X142075118Y-79671788D01*
X141955420Y-79708098D01*
X141845106Y-79767063D01*
X141748415Y-79846415D01*
X141669063Y-79943106D01*
X141610098Y-80053420D01*
X141573788Y-80173118D01*
X141561528Y-80297600D01*
X141561528Y-81682866D01*
X141539579Y-81678500D01*
X141471999Y-81678500D01*
X141471999Y-80763937D01*
X141475434Y-80729062D01*
X141471938Y-80693565D01*
X141461726Y-80589879D01*
X141421127Y-80456043D01*
X141355199Y-80332700D01*
X141295400Y-80259835D01*
X141295400Y-80235375D01*
X141259468Y-80054735D01*
X141188986Y-79884575D01*
X141086662Y-79731436D01*
X140956428Y-79601202D01*
X140915582Y-79573910D01*
X140949686Y-79517919D01*
X141050709Y-79241789D01*
X141053358Y-79226026D01*
X140932217Y-78994000D01*
X139573000Y-78994000D01*
X139573000Y-79014000D01*
X139319000Y-79014000D01*
X139319000Y-78994000D01*
X139299000Y-78994000D01*
X139299000Y-78740000D01*
X139319000Y-78740000D01*
X139319000Y-78720000D01*
X139573000Y-78720000D01*
X139573000Y-78740000D01*
X140932217Y-78740000D01*
X141053358Y-78507974D01*
X141050709Y-78492211D01*
X140949686Y-78216081D01*
X140796733Y-77964965D01*
X140597729Y-77748514D01*
X140395053Y-77600424D01*
X140435006Y-77579069D01*
X140663197Y-77391797D01*
X140850469Y-77163606D01*
X140918141Y-77037000D01*
X141036724Y-77037000D01*
X141071599Y-77040435D01*
X141071599Y-77040435D01*
G37*
X141071599Y-77040435D02*
X141106474Y-77037000D01*
X141575045Y-77037000D01*
X141551958Y-77113108D01*
X141539698Y-77237590D01*
X141539698Y-78835250D01*
X141551958Y-78959732D01*
X141588268Y-79079430D01*
X141647233Y-79189744D01*
X141726585Y-79286435D01*
X141823276Y-79365787D01*
X141933590Y-79424752D01*
X142053288Y-79461062D01*
X142177770Y-79473322D01*
X142368201Y-79473322D01*
X142368201Y-79659528D01*
X142199600Y-79659528D01*
X142075118Y-79671788D01*
X141955420Y-79708098D01*
X141845106Y-79767063D01*
X141748415Y-79846415D01*
X141669063Y-79943106D01*
X141610098Y-80053420D01*
X141573788Y-80173118D01*
X141561528Y-80297600D01*
X141561528Y-81682866D01*
X141539579Y-81678500D01*
X141471999Y-81678500D01*
X141471999Y-80763937D01*
X141475434Y-80729062D01*
X141471938Y-80693565D01*
X141461726Y-80589879D01*
X141421127Y-80456043D01*
X141355199Y-80332700D01*
X141295400Y-80259835D01*
X141295400Y-80235375D01*
X141259468Y-80054735D01*
X141188986Y-79884575D01*
X141086662Y-79731436D01*
X140956428Y-79601202D01*
X140915582Y-79573910D01*
X140949686Y-79517919D01*
X141050709Y-79241789D01*
X141053358Y-79226026D01*
X140932217Y-78994000D01*
X139573000Y-78994000D01*
X139573000Y-79014000D01*
X139319000Y-79014000D01*
X139319000Y-78994000D01*
X139299000Y-78994000D01*
X139299000Y-78740000D01*
X139319000Y-78740000D01*
X139319000Y-78720000D01*
X139573000Y-78720000D01*
X139573000Y-78740000D01*
X140932217Y-78740000D01*
X141053358Y-78507974D01*
X141050709Y-78492211D01*
X140949686Y-78216081D01*
X140796733Y-77964965D01*
X140597729Y-77748514D01*
X140395053Y-77600424D01*
X140435006Y-77579069D01*
X140663197Y-77391797D01*
X140850469Y-77163606D01*
X140918141Y-77037000D01*
X141036724Y-77037000D01*
X141071599Y-77040435D01*
G36*
X152706001Y-80264867D02*
G01*
X152418072Y-80552796D01*
X152418072Y-80297600D01*
X152405812Y-80173118D01*
X152369502Y-80053420D01*
X152310537Y-79943106D01*
X152231185Y-79846415D01*
X152197951Y-79819141D01*
X152265892Y-79751200D01*
X152288889Y-79751200D01*
X152469529Y-79715268D01*
X152639689Y-79644786D01*
X152706001Y-79600478D01*
X152706001Y-80264867D01*
X152706001Y-80264867D01*
G37*
X152706001Y-80264867D02*
X152418072Y-80552796D01*
X152418072Y-80297600D01*
X152405812Y-80173118D01*
X152369502Y-80053420D01*
X152310537Y-79943106D01*
X152231185Y-79846415D01*
X152197951Y-79819141D01*
X152265892Y-79751200D01*
X152288889Y-79751200D01*
X152469529Y-79715268D01*
X152639689Y-79644786D01*
X152706001Y-79600478D01*
X152706001Y-80264867D01*
G36*
X152706000Y-78031922D02*
G01*
X152639689Y-77987614D01*
X152469529Y-77917132D01*
X152376402Y-77898608D01*
X152376402Y-77785289D01*
X152706000Y-77785289D01*
X152706000Y-78031922D01*
X152706000Y-78031922D01*
G37*
X152706000Y-78031922D02*
X152639689Y-77987614D01*
X152469529Y-77917132D01*
X152376402Y-77898608D01*
X152376402Y-77785289D01*
X152706000Y-77785289D01*
X152706000Y-78031922D01*
G36*
X152781000Y-68519374D02*
G01*
X152781000Y-68894626D01*
X152854209Y-69262668D01*
X152997811Y-69609356D01*
X153206290Y-69921366D01*
X153218060Y-69933136D01*
X153139463Y-70028906D01*
X153080498Y-70139220D01*
X153044188Y-70258918D01*
X153031928Y-70383400D01*
X153031928Y-72110600D01*
X153044188Y-72235082D01*
X153080498Y-72354780D01*
X153139463Y-72465094D01*
X153218815Y-72561785D01*
X153315506Y-72641137D01*
X153425820Y-72700102D01*
X153487912Y-72718937D01*
X153335267Y-72884965D01*
X153182314Y-73136081D01*
X153081291Y-73412211D01*
X153078642Y-73427974D01*
X153199783Y-73660000D01*
X154559000Y-73660000D01*
X154559000Y-73640000D01*
X154813000Y-73640000D01*
X154813000Y-73660000D01*
X154833000Y-73660000D01*
X154833000Y-73914000D01*
X154813000Y-73914000D01*
X154813000Y-73934000D01*
X154559000Y-73934000D01*
X154559000Y-73914000D01*
X153199783Y-73914000D01*
X153078642Y-74146026D01*
X153081291Y-74161789D01*
X153182314Y-74437919D01*
X153335267Y-74689035D01*
X153534271Y-74905486D01*
X153736947Y-75053576D01*
X153696994Y-75074931D01*
X153468803Y-75262203D01*
X153281531Y-75490394D01*
X153142375Y-75750736D01*
X153056684Y-76033223D01*
X153027749Y-76327000D01*
X153031520Y-76365289D01*
X152266762Y-76365289D01*
X152268867Y-76362724D01*
X152327832Y-76252410D01*
X152364142Y-76132712D01*
X152376402Y-76008230D01*
X152373330Y-75495150D01*
X152214580Y-75336400D01*
X150964900Y-75336400D01*
X150964900Y-75356400D01*
X150710900Y-75356400D01*
X150710900Y-75336400D01*
X150690900Y-75336400D01*
X150690900Y-75082400D01*
X150710900Y-75082400D01*
X150710900Y-73934320D01*
X150964900Y-73934320D01*
X150964900Y-75082400D01*
X152214580Y-75082400D01*
X152373330Y-74923650D01*
X152376402Y-74410570D01*
X152364142Y-74286088D01*
X152327832Y-74166390D01*
X152268867Y-74056076D01*
X152189515Y-73959385D01*
X152092824Y-73880033D01*
X151982510Y-73821068D01*
X151862812Y-73784758D01*
X151738330Y-73772498D01*
X151123650Y-73775570D01*
X150964900Y-73934320D01*
X150710900Y-73934320D01*
X150552150Y-73775570D01*
X150214400Y-73773882D01*
X150214400Y-72610841D01*
X150436606Y-72492069D01*
X150664797Y-72304797D01*
X150852069Y-72076606D01*
X150991225Y-71816264D01*
X151076916Y-71533777D01*
X151105851Y-71240000D01*
X151076916Y-70946223D01*
X150991225Y-70663736D01*
X150852069Y-70403394D01*
X150664797Y-70175203D01*
X150656735Y-70168586D01*
X150707780Y-70153102D01*
X150818094Y-70094137D01*
X150914785Y-70014785D01*
X150994137Y-69918094D01*
X151053102Y-69807780D01*
X151089412Y-69688082D01*
X151101672Y-69563600D01*
X151101672Y-68195000D01*
X152845523Y-68195000D01*
X152781000Y-68519374D01*
X152781000Y-68519374D01*
G37*
X152781000Y-68519374D02*
X152781000Y-68894626D01*
X152854209Y-69262668D01*
X152997811Y-69609356D01*
X153206290Y-69921366D01*
X153218060Y-69933136D01*
X153139463Y-70028906D01*
X153080498Y-70139220D01*
X153044188Y-70258918D01*
X153031928Y-70383400D01*
X153031928Y-72110600D01*
X153044188Y-72235082D01*
X153080498Y-72354780D01*
X153139463Y-72465094D01*
X153218815Y-72561785D01*
X153315506Y-72641137D01*
X153425820Y-72700102D01*
X153487912Y-72718937D01*
X153335267Y-72884965D01*
X153182314Y-73136081D01*
X153081291Y-73412211D01*
X153078642Y-73427974D01*
X153199783Y-73660000D01*
X154559000Y-73660000D01*
X154559000Y-73640000D01*
X154813000Y-73640000D01*
X154813000Y-73660000D01*
X154833000Y-73660000D01*
X154833000Y-73914000D01*
X154813000Y-73914000D01*
X154813000Y-73934000D01*
X154559000Y-73934000D01*
X154559000Y-73914000D01*
X153199783Y-73914000D01*
X153078642Y-74146026D01*
X153081291Y-74161789D01*
X153182314Y-74437919D01*
X153335267Y-74689035D01*
X153534271Y-74905486D01*
X153736947Y-75053576D01*
X153696994Y-75074931D01*
X153468803Y-75262203D01*
X153281531Y-75490394D01*
X153142375Y-75750736D01*
X153056684Y-76033223D01*
X153027749Y-76327000D01*
X153031520Y-76365289D01*
X152266762Y-76365289D01*
X152268867Y-76362724D01*
X152327832Y-76252410D01*
X152364142Y-76132712D01*
X152376402Y-76008230D01*
X152373330Y-75495150D01*
X152214580Y-75336400D01*
X150964900Y-75336400D01*
X150964900Y-75356400D01*
X150710900Y-75356400D01*
X150710900Y-75336400D01*
X150690900Y-75336400D01*
X150690900Y-75082400D01*
X150710900Y-75082400D01*
X150710900Y-73934320D01*
X150964900Y-73934320D01*
X150964900Y-75082400D01*
X152214580Y-75082400D01*
X152373330Y-74923650D01*
X152376402Y-74410570D01*
X152364142Y-74286088D01*
X152327832Y-74166390D01*
X152268867Y-74056076D01*
X152189515Y-73959385D01*
X152092824Y-73880033D01*
X151982510Y-73821068D01*
X151862812Y-73784758D01*
X151738330Y-73772498D01*
X151123650Y-73775570D01*
X150964900Y-73934320D01*
X150710900Y-73934320D01*
X150552150Y-73775570D01*
X150214400Y-73773882D01*
X150214400Y-72610841D01*
X150436606Y-72492069D01*
X150664797Y-72304797D01*
X150852069Y-72076606D01*
X150991225Y-71816264D01*
X151076916Y-71533777D01*
X151105851Y-71240000D01*
X151076916Y-70946223D01*
X150991225Y-70663736D01*
X150852069Y-70403394D01*
X150664797Y-70175203D01*
X150656735Y-70168586D01*
X150707780Y-70153102D01*
X150818094Y-70094137D01*
X150914785Y-70014785D01*
X150994137Y-69918094D01*
X151053102Y-69807780D01*
X151089412Y-69688082D01*
X151101672Y-69563600D01*
X151101672Y-68195000D01*
X152845523Y-68195000D01*
X152781000Y-68519374D01*
G36*
X143267931Y-69536606D02*
G01*
X143455203Y-69764797D01*
X143683394Y-69952069D01*
X143723433Y-69973470D01*
X143509707Y-70133146D01*
X143313183Y-70351512D01*
X143163036Y-70604022D01*
X143065037Y-70880973D01*
X143185536Y-71113000D01*
X144393000Y-71113000D01*
X144393000Y-71093000D01*
X144647000Y-71093000D01*
X144647000Y-71113000D01*
X144667000Y-71113000D01*
X144667000Y-71367000D01*
X144647000Y-71367000D01*
X144647000Y-72573817D01*
X144879026Y-72694958D01*
X145029814Y-72649222D01*
X145294944Y-72522684D01*
X145530293Y-72346854D01*
X145726817Y-72128488D01*
X145784137Y-72032090D01*
X145807931Y-72076606D01*
X145995203Y-72304797D01*
X146223394Y-72492069D01*
X146483736Y-72631225D01*
X146766223Y-72716916D01*
X146986381Y-72738600D01*
X147133619Y-72738600D01*
X147353777Y-72716916D01*
X147636264Y-72631225D01*
X147896606Y-72492069D01*
X147921526Y-72471617D01*
X148061400Y-72611491D01*
X148061400Y-72634489D01*
X148097332Y-72815129D01*
X148167814Y-72985289D01*
X148270138Y-73138428D01*
X148400372Y-73268662D01*
X148553511Y-73370986D01*
X148723671Y-73441468D01*
X148794400Y-73455537D01*
X148794400Y-73772498D01*
X147372070Y-73772498D01*
X147247588Y-73784758D01*
X147127890Y-73821068D01*
X147017576Y-73880033D01*
X146978488Y-73912112D01*
X146923924Y-73867333D01*
X146813610Y-73808368D01*
X146693912Y-73772058D01*
X146569430Y-73759798D01*
X144768570Y-73759798D01*
X144644088Y-73772058D01*
X144524390Y-73808368D01*
X144414076Y-73867333D01*
X144373600Y-73900551D01*
X144333124Y-73867333D01*
X144222810Y-73808368D01*
X144103112Y-73772058D01*
X143978630Y-73759798D01*
X143363950Y-73762870D01*
X143205200Y-73921620D01*
X143205200Y-75069700D01*
X143225200Y-75069700D01*
X143225200Y-75323700D01*
X143205200Y-75323700D01*
X143205200Y-75343700D01*
X142951200Y-75343700D01*
X142951200Y-75323700D01*
X142931200Y-75323700D01*
X142931200Y-75069700D01*
X142951200Y-75069700D01*
X142951200Y-73921620D01*
X142792450Y-73762870D01*
X142177770Y-73759798D01*
X142053288Y-73772058D01*
X141933590Y-73808368D01*
X141823276Y-73867333D01*
X141748150Y-73928987D01*
X141748150Y-71599027D01*
X143065037Y-71599027D01*
X143163036Y-71875978D01*
X143313183Y-72128488D01*
X143509707Y-72346854D01*
X143745056Y-72522684D01*
X144010186Y-72649222D01*
X144160974Y-72694958D01*
X144393000Y-72573817D01*
X144393000Y-71367000D01*
X143185536Y-71367000D01*
X143065037Y-71599027D01*
X141748150Y-71599027D01*
X141748150Y-70075941D01*
X142394392Y-69429700D01*
X143210788Y-69429700D01*
X143267931Y-69536606D01*
X143267931Y-69536606D01*
G37*
X143267931Y-69536606D02*
X143455203Y-69764797D01*
X143683394Y-69952069D01*
X143723433Y-69973470D01*
X143509707Y-70133146D01*
X143313183Y-70351512D01*
X143163036Y-70604022D01*
X143065037Y-70880973D01*
X143185536Y-71113000D01*
X144393000Y-71113000D01*
X144393000Y-71093000D01*
X144647000Y-71093000D01*
X144647000Y-71113000D01*
X144667000Y-71113000D01*
X144667000Y-71367000D01*
X144647000Y-71367000D01*
X144647000Y-72573817D01*
X144879026Y-72694958D01*
X145029814Y-72649222D01*
X145294944Y-72522684D01*
X145530293Y-72346854D01*
X145726817Y-72128488D01*
X145784137Y-72032090D01*
X145807931Y-72076606D01*
X145995203Y-72304797D01*
X146223394Y-72492069D01*
X146483736Y-72631225D01*
X146766223Y-72716916D01*
X146986381Y-72738600D01*
X147133619Y-72738600D01*
X147353777Y-72716916D01*
X147636264Y-72631225D01*
X147896606Y-72492069D01*
X147921526Y-72471617D01*
X148061400Y-72611491D01*
X148061400Y-72634489D01*
X148097332Y-72815129D01*
X148167814Y-72985289D01*
X148270138Y-73138428D01*
X148400372Y-73268662D01*
X148553511Y-73370986D01*
X148723671Y-73441468D01*
X148794400Y-73455537D01*
X148794400Y-73772498D01*
X147372070Y-73772498D01*
X147247588Y-73784758D01*
X147127890Y-73821068D01*
X147017576Y-73880033D01*
X146978488Y-73912112D01*
X146923924Y-73867333D01*
X146813610Y-73808368D01*
X146693912Y-73772058D01*
X146569430Y-73759798D01*
X144768570Y-73759798D01*
X144644088Y-73772058D01*
X144524390Y-73808368D01*
X144414076Y-73867333D01*
X144373600Y-73900551D01*
X144333124Y-73867333D01*
X144222810Y-73808368D01*
X144103112Y-73772058D01*
X143978630Y-73759798D01*
X143363950Y-73762870D01*
X143205200Y-73921620D01*
X143205200Y-75069700D01*
X143225200Y-75069700D01*
X143225200Y-75323700D01*
X143205200Y-75323700D01*
X143205200Y-75343700D01*
X142951200Y-75343700D01*
X142951200Y-75323700D01*
X142931200Y-75323700D01*
X142931200Y-75069700D01*
X142951200Y-75069700D01*
X142951200Y-73921620D01*
X142792450Y-73762870D01*
X142177770Y-73759798D01*
X142053288Y-73772058D01*
X141933590Y-73808368D01*
X141823276Y-73867333D01*
X141748150Y-73928987D01*
X141748150Y-71599027D01*
X143065037Y-71599027D01*
X143163036Y-71875978D01*
X143313183Y-72128488D01*
X143509707Y-72346854D01*
X143745056Y-72522684D01*
X144010186Y-72649222D01*
X144160974Y-72694958D01*
X144393000Y-72573817D01*
X144393000Y-71367000D01*
X143185536Y-71367000D01*
X143065037Y-71599027D01*
X141748150Y-71599027D01*
X141748150Y-70075941D01*
X142394392Y-69429700D01*
X143210788Y-69429700D01*
X143267931Y-69536606D01*
M02*
