G04 #@! TF.GenerationSoftware,KiCad,Pcbnew,6.0.0-unknown-a40367c~86~ubuntu16.04.1*
G04 #@! TF.CreationDate,2019-05-10T13:23:40+02:00*
G04 #@! TF.ProjectId,arduino_nanoPB,61726475-696e-46f5-9f6e-616e6f50422e,rev?*
G04 #@! TF.SameCoordinates,Original*
G04 #@! TF.FileFunction,Copper,L1,Top*
G04 #@! TF.FilePolarity,Positive*
%FSLAX46Y46*%
G04 Gerber Fmt 4.6, Leading zero omitted, Abs format (unit mm)*
G04 Created by KiCad (PCBNEW 6.0.0-unknown-a40367c~86~ubuntu16.04.1) date 2019-05-10 13:23:40*
%MOMM*%
%LPD*%
G04 APERTURE LIST*
%ADD10O,2.032000X1.727200*%
%ADD11R,2.032000X1.727200*%
%ADD12R,1.500000X1.400000*%
%ADD13C,0.550000*%
%ADD14C,0.100000*%
%ADD15C,2.540000*%
%ADD16R,2.148840X1.501140*%
%ADD17R,1.800860X1.597660*%
%ADD18R,0.400000X1.350000*%
%ADD19O,1.250000X0.950000*%
%ADD20O,1.000000X1.550000*%
%ADD21R,1.198880X1.600200*%
%ADD22R,1.727200X1.727200*%
%ADD23O,1.727200X1.727200*%
%ADD24R,1.300000X1.500000*%
%ADD25C,0.600000*%
%ADD26R,1.500000X1.300000*%
%ADD27C,0.150000*%
%ADD28C,0.254000*%
G04 APERTURE END LIST*
D10*
X154686000Y-109347000D03*
X154686000Y-106807000D03*
X154686000Y-104267000D03*
X154686000Y-101727000D03*
X154686000Y-99187000D03*
X154686000Y-96647000D03*
X154686000Y-94107000D03*
X154686000Y-91567000D03*
X154686000Y-89027000D03*
X154686000Y-86487000D03*
X154686000Y-83947000D03*
X154686000Y-81407000D03*
X154686000Y-78867000D03*
X154686000Y-76327000D03*
X154686000Y-73787000D03*
D11*
X154686000Y-71247000D03*
D12*
X142906220Y-86925640D03*
X150959820Y-86934040D03*
D13*
X146274695Y-91230097D03*
D14*
G36*
X145514555Y-90858866D02*
G01*
X145903464Y-90469957D01*
X147034835Y-91601328D01*
X146645926Y-91990237D01*
X145514555Y-90858866D01*
X145514555Y-90858866D01*
G37*
D13*
X145709010Y-91795783D03*
D14*
G36*
X144948870Y-91424552D02*
G01*
X145337779Y-91035643D01*
X146469150Y-92167014D01*
X146080241Y-92555923D01*
X144948870Y-91424552D01*
X144948870Y-91424552D01*
G37*
D13*
X145143324Y-92361468D03*
D14*
G36*
X144383184Y-91990237D02*
G01*
X144772093Y-91601328D01*
X145903464Y-92732699D01*
X145514555Y-93121608D01*
X144383184Y-91990237D01*
X144383184Y-91990237D01*
G37*
D13*
X144577639Y-92927153D03*
D14*
G36*
X143817499Y-92555922D02*
G01*
X144206408Y-92167013D01*
X145337779Y-93298384D01*
X144948870Y-93687293D01*
X143817499Y-92555922D01*
X143817499Y-92555922D01*
G37*
D13*
X144011953Y-93492839D03*
D14*
G36*
X143251813Y-93121608D02*
G01*
X143640722Y-92732699D01*
X144772093Y-93864070D01*
X144383184Y-94252979D01*
X143251813Y-93121608D01*
X143251813Y-93121608D01*
G37*
D13*
X143446268Y-94058524D03*
D14*
G36*
X142686128Y-93687293D02*
G01*
X143075037Y-93298384D01*
X144206408Y-94429755D01*
X143817499Y-94818664D01*
X142686128Y-93687293D01*
X142686128Y-93687293D01*
G37*
D13*
X142880583Y-94624210D03*
D14*
G36*
X142120443Y-94252979D02*
G01*
X142509352Y-93864070D01*
X143640723Y-94995441D01*
X143251814Y-95384350D01*
X142120443Y-94252979D01*
X142120443Y-94252979D01*
G37*
D13*
X142314897Y-95189895D03*
D14*
G36*
X141554757Y-94818664D02*
G01*
X141943666Y-94429755D01*
X143075037Y-95561126D01*
X142686128Y-95950035D01*
X141554757Y-94818664D01*
X141554757Y-94818664D01*
G37*
D13*
X142314897Y-97240505D03*
D14*
G36*
X141943666Y-98000645D02*
G01*
X141554757Y-97611736D01*
X142686128Y-96480365D01*
X143075037Y-96869274D01*
X141943666Y-98000645D01*
X141943666Y-98000645D01*
G37*
D13*
X142880583Y-97806190D03*
D14*
G36*
X142509352Y-98566330D02*
G01*
X142120443Y-98177421D01*
X143251814Y-97046050D01*
X143640723Y-97434959D01*
X142509352Y-98566330D01*
X142509352Y-98566330D01*
G37*
D13*
X143446268Y-98371876D03*
D14*
G36*
X143075037Y-99132016D02*
G01*
X142686128Y-98743107D01*
X143817499Y-97611736D01*
X144206408Y-98000645D01*
X143075037Y-99132016D01*
X143075037Y-99132016D01*
G37*
D13*
X144011953Y-98937561D03*
D14*
G36*
X143640722Y-99697701D02*
G01*
X143251813Y-99308792D01*
X144383184Y-98177421D01*
X144772093Y-98566330D01*
X143640722Y-99697701D01*
X143640722Y-99697701D01*
G37*
D13*
X144577639Y-99503247D03*
D14*
G36*
X144206408Y-100263387D02*
G01*
X143817499Y-99874478D01*
X144948870Y-98743107D01*
X145337779Y-99132016D01*
X144206408Y-100263387D01*
X144206408Y-100263387D01*
G37*
D13*
X145143324Y-100068932D03*
D14*
G36*
X144772093Y-100829072D02*
G01*
X144383184Y-100440163D01*
X145514555Y-99308792D01*
X145903464Y-99697701D01*
X144772093Y-100829072D01*
X144772093Y-100829072D01*
G37*
D13*
X145709010Y-100634617D03*
D14*
G36*
X145337779Y-101394757D02*
G01*
X144948870Y-101005848D01*
X146080241Y-99874477D01*
X146469150Y-100263386D01*
X145337779Y-101394757D01*
X145337779Y-101394757D01*
G37*
D13*
X146274695Y-101200303D03*
D14*
G36*
X145903464Y-101960443D02*
G01*
X145514555Y-101571534D01*
X146645926Y-100440163D01*
X147034835Y-100829072D01*
X145903464Y-101960443D01*
X145903464Y-101960443D01*
G37*
D13*
X148325305Y-101200303D03*
D14*
G36*
X147565165Y-100829072D02*
G01*
X147954074Y-100440163D01*
X149085445Y-101571534D01*
X148696536Y-101960443D01*
X147565165Y-100829072D01*
X147565165Y-100829072D01*
G37*
D13*
X148890990Y-100634617D03*
D14*
G36*
X148130850Y-100263386D02*
G01*
X148519759Y-99874477D01*
X149651130Y-101005848D01*
X149262221Y-101394757D01*
X148130850Y-100263386D01*
X148130850Y-100263386D01*
G37*
D13*
X149456676Y-100068932D03*
D14*
G36*
X148696536Y-99697701D02*
G01*
X149085445Y-99308792D01*
X150216816Y-100440163D01*
X149827907Y-100829072D01*
X148696536Y-99697701D01*
X148696536Y-99697701D01*
G37*
D13*
X150022361Y-99503247D03*
D14*
G36*
X149262221Y-99132016D02*
G01*
X149651130Y-98743107D01*
X150782501Y-99874478D01*
X150393592Y-100263387D01*
X149262221Y-99132016D01*
X149262221Y-99132016D01*
G37*
D13*
X150588047Y-98937561D03*
D14*
G36*
X149827907Y-98566330D02*
G01*
X150216816Y-98177421D01*
X151348187Y-99308792D01*
X150959278Y-99697701D01*
X149827907Y-98566330D01*
X149827907Y-98566330D01*
G37*
D13*
X151153732Y-98371876D03*
D14*
G36*
X150393592Y-98000645D02*
G01*
X150782501Y-97611736D01*
X151913872Y-98743107D01*
X151524963Y-99132016D01*
X150393592Y-98000645D01*
X150393592Y-98000645D01*
G37*
D13*
X151719417Y-97806190D03*
D14*
G36*
X150959277Y-97434959D02*
G01*
X151348186Y-97046050D01*
X152479557Y-98177421D01*
X152090648Y-98566330D01*
X150959277Y-97434959D01*
X150959277Y-97434959D01*
G37*
D13*
X152285103Y-97240505D03*
D14*
G36*
X151524963Y-96869274D02*
G01*
X151913872Y-96480365D01*
X153045243Y-97611736D01*
X152656334Y-98000645D01*
X151524963Y-96869274D01*
X151524963Y-96869274D01*
G37*
D13*
X152285103Y-95189895D03*
D14*
G36*
X151913872Y-95950035D02*
G01*
X151524963Y-95561126D01*
X152656334Y-94429755D01*
X153045243Y-94818664D01*
X151913872Y-95950035D01*
X151913872Y-95950035D01*
G37*
D13*
X151719417Y-94624210D03*
D14*
G36*
X151348186Y-95384350D02*
G01*
X150959277Y-94995441D01*
X152090648Y-93864070D01*
X152479557Y-94252979D01*
X151348186Y-95384350D01*
X151348186Y-95384350D01*
G37*
D13*
X151153732Y-94058524D03*
D14*
G36*
X150782501Y-94818664D02*
G01*
X150393592Y-94429755D01*
X151524963Y-93298384D01*
X151913872Y-93687293D01*
X150782501Y-94818664D01*
X150782501Y-94818664D01*
G37*
D13*
X150588047Y-93492839D03*
D14*
G36*
X150216816Y-94252979D02*
G01*
X149827907Y-93864070D01*
X150959278Y-92732699D01*
X151348187Y-93121608D01*
X150216816Y-94252979D01*
X150216816Y-94252979D01*
G37*
D13*
X150022361Y-92927153D03*
D14*
G36*
X149651130Y-93687293D02*
G01*
X149262221Y-93298384D01*
X150393592Y-92167013D01*
X150782501Y-92555922D01*
X149651130Y-93687293D01*
X149651130Y-93687293D01*
G37*
D13*
X149456676Y-92361468D03*
D14*
G36*
X149085445Y-93121608D02*
G01*
X148696536Y-92732699D01*
X149827907Y-91601328D01*
X150216816Y-91990237D01*
X149085445Y-93121608D01*
X149085445Y-93121608D01*
G37*
D13*
X148890990Y-91795783D03*
D14*
G36*
X148519759Y-92555923D02*
G01*
X148130850Y-92167014D01*
X149262221Y-91035643D01*
X149651130Y-91424552D01*
X148519759Y-92555923D01*
X148519759Y-92555923D01*
G37*
D13*
X148325305Y-91230097D03*
D14*
G36*
X147954074Y-91990237D02*
G01*
X147565165Y-91601328D01*
X148696536Y-90469957D01*
X149085445Y-90858866D01*
X147954074Y-91990237D01*
X147954074Y-91990237D01*
G37*
D10*
X139446000Y-109347000D03*
X139446000Y-106807000D03*
X139446000Y-104267000D03*
X139446000Y-101727000D03*
X139446000Y-99187000D03*
X139446000Y-96647000D03*
X139446000Y-94107000D03*
X139446000Y-91567000D03*
X139446000Y-89027000D03*
X139446000Y-86487000D03*
X139446000Y-83947000D03*
X139446000Y-81407000D03*
X139446000Y-78867000D03*
X139446000Y-76327000D03*
X139446000Y-73787000D03*
D11*
X139446000Y-71247000D03*
D15*
X139446000Y-68707000D03*
X139400000Y-112100000D03*
X154700000Y-112100000D03*
X154686000Y-68707000D03*
D16*
X148468080Y-104226360D03*
X151470360Y-104226360D03*
D17*
X150837900Y-75209400D03*
X150837900Y-78049120D03*
X143078200Y-78036420D03*
X143078200Y-75196700D03*
X148272500Y-75209400D03*
X148272500Y-78049120D03*
X145669000Y-78036420D03*
X145669000Y-75196700D03*
D18*
X145699100Y-107837460D03*
X146349100Y-107837460D03*
X146999100Y-107837460D03*
X147649100Y-107837460D03*
X148299100Y-107837460D03*
D19*
X144499100Y-107837460D03*
X149499100Y-107837460D03*
D20*
X143499100Y-110537460D03*
X150499100Y-110537460D03*
D21*
X152346660Y-107569000D03*
X152346660Y-111170720D03*
D22*
X149600000Y-68700000D03*
D23*
X149600000Y-71240000D03*
X147060000Y-68700000D03*
X147060000Y-71240000D03*
X144520000Y-68700000D03*
X144520000Y-71240000D03*
D24*
X149052280Y-83747600D03*
X149052280Y-81047600D03*
X151130000Y-81047600D03*
X151130000Y-83747600D03*
X142849600Y-81047600D03*
X142849600Y-83747600D03*
X146989800Y-83747600D03*
X146989800Y-81047600D03*
X144907000Y-81047600D03*
X144907000Y-83747600D03*
D25*
X142443200Y-91846400D03*
D14*
G36*
X142690687Y-92518151D02*
G01*
X141771449Y-91598913D01*
X142195713Y-91174649D01*
X143114951Y-92093887D01*
X142690687Y-92518151D01*
X142690687Y-92518151D01*
G37*
D25*
X143786703Y-90502897D03*
D14*
G36*
X144034190Y-91174648D02*
G01*
X143114952Y-90255410D01*
X143539216Y-89831146D01*
X144458454Y-90750384D01*
X144034190Y-91174648D01*
X144034190Y-91174648D01*
G37*
D25*
X143114951Y-91174649D03*
D14*
G36*
X143362438Y-91846400D02*
G01*
X142443200Y-90927162D01*
X142867464Y-90502898D01*
X143786702Y-91422136D01*
X143362438Y-91846400D01*
X143362438Y-91846400D01*
G37*
D26*
X142765800Y-104277160D03*
X145465800Y-104277160D03*
D25*
X147137533Y-95575533D03*
X146100800Y-87985600D03*
X146390257Y-93167200D03*
X140360400Y-80327464D03*
X147840291Y-94512808D03*
X151292511Y-92129722D03*
X142760700Y-76837588D03*
X143357600Y-85420200D03*
X141946156Y-79181903D03*
X142367000Y-70739000D03*
X142430500Y-69215000D03*
X151955500Y-68834000D03*
X152082500Y-70629810D03*
X145897602Y-86512400D03*
X145897600Y-85394800D03*
X148414774Y-86106000D03*
X147904200Y-89230200D03*
X149301200Y-89001600D03*
X148713917Y-94371452D03*
X144569984Y-94597126D03*
X150213289Y-96331811D03*
X150066376Y-106175174D03*
X149250400Y-98513900D03*
X152806400Y-78054200D03*
X152781000Y-79806800D03*
X152781000Y-75996800D03*
X142440660Y-71942960D03*
X141389883Y-90114301D03*
X142138400Y-88366592D03*
X147715198Y-85573706D03*
X145759200Y-94164823D03*
X149651999Y-95178601D03*
X149504400Y-74904600D03*
X152196800Y-78816200D03*
X148006019Y-87094279D03*
X144305020Y-97111820D03*
X144388840Y-95534480D03*
X152769965Y-98958400D03*
X153339800Y-103466900D03*
X141447490Y-82613500D03*
X142448310Y-84975700D03*
X146627306Y-97644303D03*
X145921224Y-96825564D03*
X147050811Y-88117982D03*
X151612600Y-85267800D03*
X145878129Y-97548344D03*
X148996400Y-72542400D03*
X144299940Y-104594660D03*
X141512020Y-91186000D03*
X152704800Y-89789000D03*
X151504777Y-89840667D03*
X145097500Y-108648500D03*
X146862800Y-109651800D03*
X147129500Y-111506000D03*
X145097500Y-110871000D03*
X149161500Y-110807500D03*
X144345660Y-96281240D03*
X148107400Y-97205800D03*
X144243279Y-90144317D03*
X143586200Y-102745540D03*
D27*
X146989800Y-87096600D02*
X146989800Y-83747600D01*
X146100800Y-87985600D02*
X146989800Y-87096600D01*
X147137533Y-93914476D02*
X146690256Y-93467199D01*
X147137533Y-95575533D02*
X147137533Y-93914476D01*
X146814521Y-93167200D02*
X146390257Y-93167200D01*
X148890990Y-91795783D02*
X147519573Y-93167200D01*
X147519573Y-93167200D02*
X146814521Y-93167200D01*
X146690256Y-93467199D02*
X146390257Y-93167200D01*
X144424400Y-84230200D02*
X144907000Y-83747600D01*
X140761999Y-80729063D02*
X140660399Y-80627463D01*
X140761999Y-82961213D02*
X140761999Y-80729063D01*
X140660399Y-80627463D02*
X140360400Y-80327464D01*
X141630400Y-83829614D02*
X140761999Y-82961213D01*
X141841818Y-88841602D02*
X141630400Y-88630184D01*
X141630400Y-88630184D02*
X141630400Y-83829614D01*
X142493424Y-88811100D02*
X142462922Y-88841602D01*
X142462922Y-88841602D02*
X141841818Y-88841602D01*
X144424400Y-88747600D02*
X144487900Y-88811100D01*
X144424400Y-86751160D02*
X144424400Y-88747600D01*
X144424400Y-86751160D02*
X144424400Y-84230200D01*
X144487900Y-88811100D02*
X142493424Y-88811100D01*
X149456676Y-92361468D02*
X147840291Y-93977853D01*
X147840291Y-93977853D02*
X147840291Y-94088544D01*
X147840291Y-94088544D02*
X147840291Y-94512808D01*
X150093071Y-91725073D02*
X149456676Y-92361468D01*
X150093071Y-90606271D02*
X150093071Y-91725073D01*
X149621240Y-90134440D02*
X150093071Y-90606271D01*
X148784550Y-90134440D02*
X149621240Y-90134440D01*
X148157170Y-90761820D02*
X148784550Y-90134440D01*
X146405600Y-89941400D02*
X147226020Y-90761820D01*
X145244820Y-88811100D02*
X146375120Y-89941400D01*
X147226020Y-90761820D02*
X148157170Y-90761820D01*
X146375120Y-89941400D02*
X146405600Y-89941400D01*
X144487900Y-88811100D02*
X145244820Y-88811100D01*
X141071600Y-76327000D02*
X139446000Y-76327000D01*
X142100300Y-68719700D02*
X144500300Y-68719700D01*
X141071600Y-76327000D02*
X141038150Y-76293550D01*
X144500300Y-68719700D02*
X144520000Y-68700000D01*
X141038150Y-69781850D02*
X142100300Y-68719700D01*
X141038150Y-76293550D02*
X141038150Y-69781850D01*
X154406600Y-76327000D02*
X153771600Y-76962000D01*
X153416000Y-77075289D02*
X153658311Y-77075289D01*
X153658311Y-77075289D02*
X153771600Y-76962000D01*
X154686000Y-76327000D02*
X154406600Y-76327000D01*
X149652897Y-93385775D02*
X150036458Y-93385775D01*
X150992512Y-92429721D02*
X151292511Y-92129722D01*
X150036458Y-93385775D02*
X150992512Y-92429721D01*
X153416000Y-77075289D02*
X153416000Y-80558960D01*
X153416000Y-80558960D02*
X151130000Y-82844960D01*
X151130000Y-82847600D02*
X151130000Y-83747600D01*
X151130000Y-82844960D02*
X151130000Y-82847600D01*
X153111200Y-77075289D02*
X153416000Y-77075289D01*
X151716740Y-76327000D02*
X152465029Y-77075289D01*
X152465029Y-77075289D02*
X153111200Y-77075289D01*
X141071600Y-76327000D02*
X151716740Y-76327000D01*
X150992512Y-91829723D02*
X151292511Y-92129722D01*
X151743600Y-86508400D02*
X150992512Y-86508400D01*
X151130000Y-83747600D02*
X151930000Y-83747600D01*
X152425400Y-85826600D02*
X151743600Y-86508400D01*
X150992512Y-86508400D02*
X150992512Y-91829723D01*
X151930000Y-83747600D02*
X152425400Y-84243000D01*
X152425400Y-84243000D02*
X152425400Y-85826600D01*
X142760700Y-76822300D02*
X142760700Y-76837588D01*
X141579600Y-76822300D02*
X142760700Y-76822300D01*
X139446000Y-78867000D02*
X141338300Y-78867000D01*
X141325600Y-78854300D02*
X141325600Y-77076300D01*
X141325600Y-77076300D02*
X141579600Y-76822300D01*
X141338300Y-78867000D02*
X141325600Y-78854300D01*
X139446000Y-78867000D02*
X141185900Y-78867000D01*
X141500803Y-79181903D02*
X141946156Y-79181903D01*
X141185900Y-78867000D02*
X141500803Y-79181903D01*
X142367000Y-69278500D02*
X142430500Y-69215000D01*
X142367000Y-70739000D02*
X142367000Y-69278500D01*
X151955500Y-68834000D02*
X151955500Y-70502810D01*
X151955500Y-70502810D02*
X152082500Y-70629810D01*
X145897600Y-86512398D02*
X145897602Y-86512400D01*
X145897600Y-85394800D02*
X145897600Y-86512398D01*
X149072600Y-89230200D02*
X149301200Y-89001600D01*
X147904200Y-89230200D02*
X149072600Y-89230200D01*
X144011953Y-93492839D02*
X144011953Y-93981748D01*
X144011953Y-93981748D02*
X144569984Y-94539779D01*
X144569984Y-94539779D02*
X144569984Y-94597126D01*
X150213289Y-94968289D02*
X150213289Y-95907547D01*
X149616452Y-94371452D02*
X150213289Y-94968289D01*
X150213289Y-95907547D02*
X150213289Y-96331811D01*
X148713917Y-94371452D02*
X149616452Y-94371452D01*
X149669426Y-98513900D02*
X149250400Y-98513900D01*
X150093087Y-98937561D02*
X149669426Y-98513900D01*
X150588047Y-98937561D02*
X150093087Y-98937561D01*
X152806400Y-79781400D02*
X152781000Y-79806800D01*
X152806400Y-78054200D02*
X152806400Y-79781400D01*
X152704800Y-76073000D02*
X152781000Y-75996800D01*
X152704800Y-75285600D02*
X152704800Y-76073000D01*
X152628600Y-75209400D02*
X152704800Y-75285600D01*
X150837900Y-75209400D02*
X152628600Y-75209400D01*
X142740659Y-72242959D02*
X142440660Y-71942960D01*
X143375380Y-72242959D02*
X142740659Y-72242959D01*
X143375380Y-74899520D02*
X143375380Y-72242959D01*
X143078200Y-75196700D02*
X143375380Y-74899520D01*
X143114951Y-91174649D02*
X142450231Y-91174649D01*
X141689882Y-90414300D02*
X141389883Y-90114301D01*
X142450231Y-91174649D02*
X141689882Y-90414300D01*
X142906220Y-87598772D02*
X142438399Y-88066593D01*
X142438399Y-88066593D02*
X142138400Y-88366592D01*
X142906220Y-85871580D02*
X142906220Y-87598772D01*
X143357600Y-85420200D02*
X142906220Y-85871580D01*
X149755860Y-98105374D02*
X150588047Y-98937561D01*
X149755860Y-96789240D02*
X149755860Y-98105374D01*
X150213289Y-96331811D02*
X149755860Y-96789240D01*
X151470360Y-105562400D02*
X151470360Y-104226360D01*
X150857586Y-106175174D02*
X151470360Y-105562400D01*
X150066376Y-106175174D02*
X150857586Y-106175174D01*
X142579179Y-89091613D02*
X141710321Y-89091613D01*
X139446000Y-81998782D02*
X139446000Y-81407000D01*
X142585014Y-89085778D02*
X142579179Y-89091613D01*
X141710321Y-89091613D02*
X141252263Y-88633555D01*
X145165930Y-89085778D02*
X142585014Y-89085778D01*
X141252263Y-88633555D02*
X141252263Y-83805045D01*
X148325305Y-91230097D02*
X147310249Y-91230097D01*
X141252263Y-83805045D02*
X139446000Y-81998782D01*
X147310249Y-91230097D02*
X145165930Y-89085778D01*
X141002252Y-88737112D02*
X141002252Y-85350852D01*
X141606764Y-89341624D02*
X141002252Y-88737112D01*
X139598400Y-83947000D02*
X139446000Y-83947000D01*
X141002252Y-85350852D02*
X139598400Y-83947000D01*
X146274695Y-90741188D02*
X144875131Y-89341624D01*
X144875131Y-89341624D02*
X141606764Y-89341624D01*
X146274695Y-91230097D02*
X146274695Y-90741188D01*
X144457599Y-89652595D02*
X145072615Y-90267611D01*
X140612000Y-87500600D02*
X140612000Y-88700428D01*
X145072615Y-90267611D02*
X145072615Y-91159388D01*
X139598400Y-86487000D02*
X140612000Y-87500600D01*
X141564167Y-89652595D02*
X144457599Y-89652595D01*
X139446000Y-86487000D02*
X139598400Y-86487000D01*
X145072615Y-91159388D02*
X145709010Y-91795783D01*
X140612000Y-88700428D02*
X141564167Y-89652595D01*
X141037020Y-92652052D02*
X141037020Y-90465620D01*
X141037020Y-90465620D02*
X139598400Y-89027000D01*
X139598400Y-89027000D02*
X139446000Y-89027000D01*
X141347011Y-92962043D02*
X141037020Y-92652052D01*
X141347011Y-96272619D02*
X142314897Y-97240505D01*
X141347011Y-96012000D02*
X141347011Y-96272619D01*
X141347011Y-96012000D02*
X141347011Y-92962043D01*
X139598400Y-91567000D02*
X139446000Y-91567000D01*
X142880583Y-97806190D02*
X142511118Y-98175655D01*
X141838255Y-98175655D02*
X141097000Y-97434400D01*
X141097000Y-93065600D02*
X139598400Y-91567000D01*
X142511118Y-98175655D02*
X141838255Y-98175655D01*
X141097000Y-97434400D02*
X141097000Y-93065600D01*
X140843000Y-95351600D02*
X139598400Y-94107000D01*
X139598400Y-94107000D02*
X139446000Y-94107000D01*
X140843000Y-97840800D02*
X140868400Y-97840800D01*
X140843000Y-97840800D02*
X140843000Y-95351600D01*
X140868400Y-97840800D02*
X142036800Y-99009200D01*
X142808944Y-99009200D02*
X143446268Y-98371876D01*
X142036800Y-99009200D02*
X142808944Y-99009200D01*
X143205747Y-99743767D02*
X144011953Y-98937561D01*
X142392400Y-99743767D02*
X143205747Y-99743767D01*
X139446000Y-96797367D02*
X142392400Y-99743767D01*
X139446000Y-96647000D02*
X139446000Y-96797367D01*
X140612000Y-99187000D02*
X139446000Y-99187000D01*
X141418777Y-99993777D02*
X140612000Y-99187000D01*
X143598200Y-99993777D02*
X141418777Y-99993777D01*
X144088730Y-99503247D02*
X143598200Y-99993777D01*
X144577639Y-99503247D02*
X144088730Y-99503247D01*
X143492540Y-101719716D02*
X144506929Y-100705327D01*
X143153960Y-101727000D02*
X143161244Y-101719716D01*
X139446000Y-101727000D02*
X143153960Y-101727000D01*
X144506929Y-100705327D02*
X145143324Y-100068932D01*
X143161244Y-101719716D02*
X143492540Y-101719716D01*
X149052280Y-82948760D02*
X149052280Y-82848760D01*
X149052280Y-82848760D02*
X151119840Y-80781200D01*
X149052280Y-82948760D02*
X149052280Y-84236624D01*
X148015197Y-85273707D02*
X147715198Y-85573706D01*
X149052280Y-84236624D02*
X148015197Y-85273707D01*
X148772901Y-96057699D02*
X149651999Y-95178601D01*
X148772901Y-96093301D02*
X148772901Y-96057699D01*
X151896801Y-79116199D02*
X152196800Y-78816200D01*
X151130000Y-81047600D02*
X151130000Y-79883000D01*
X151130000Y-79883000D02*
X151896801Y-79116199D01*
X147715198Y-85573706D02*
X147715198Y-86803458D01*
X147715198Y-86803458D02*
X148006019Y-87094279D01*
X148577300Y-74904600D02*
X148272500Y-75209400D01*
X149504400Y-74904600D02*
X148577300Y-74904600D01*
X145681700Y-75209400D02*
X145669000Y-75196700D01*
X148272500Y-75209400D02*
X145681700Y-75209400D01*
X145034188Y-94496381D02*
X145057139Y-94519332D01*
X144577639Y-92927153D02*
X144577639Y-93416062D01*
X144577639Y-93416062D02*
X145034188Y-93872611D01*
X145057139Y-94866181D02*
X144688839Y-95234481D01*
X145034188Y-93872611D02*
X145034188Y-94496381D01*
X145057139Y-94519332D02*
X145057139Y-94866181D01*
X144688839Y-95234481D02*
X144388840Y-95534480D01*
X145323539Y-96093301D02*
X144305020Y-97111820D01*
X146672321Y-96093301D02*
X148772901Y-96093301D01*
X145759200Y-96061560D02*
X145790941Y-96093301D01*
X145759200Y-94164823D02*
X145759200Y-96061560D01*
X145790941Y-96093301D02*
X145323539Y-96093301D01*
X146672321Y-96093301D02*
X145790941Y-96093301D01*
X148254595Y-99998222D02*
X148890990Y-100634617D01*
X148772901Y-96093301D02*
X148717000Y-96149202D01*
X148717000Y-96149202D02*
X148717000Y-97594336D01*
X148717000Y-97594336D02*
X148254595Y-98056741D01*
X148254595Y-98056741D02*
X148254595Y-99998222D01*
X151740256Y-98958400D02*
X151153732Y-98371876D01*
X152769965Y-98958400D02*
X151740256Y-98958400D01*
X151883851Y-101586687D02*
X153339800Y-103042636D01*
X150974431Y-101586687D02*
X151883851Y-101586687D01*
X149456676Y-100068932D02*
X150974431Y-101586687D01*
X153339800Y-103042636D02*
X153339800Y-103466900D01*
X154533600Y-86487000D02*
X153306801Y-87713799D01*
X151076956Y-93492839D02*
X150588047Y-93492839D01*
X154686000Y-86487000D02*
X154533600Y-86487000D01*
X153306801Y-87713799D02*
X153306801Y-89763001D01*
X153179802Y-89890000D02*
X153179802Y-91389993D01*
X153179802Y-91389993D02*
X151076956Y-93492839D01*
X153306801Y-89763001D02*
X153179802Y-89890000D01*
X154533600Y-89027000D02*
X154686000Y-89027000D01*
X151153732Y-94058524D02*
X151254676Y-94058524D01*
X151254676Y-94058524D02*
X153494990Y-91818210D01*
X153494990Y-91818210D02*
X153494990Y-90065610D01*
X153494990Y-90065610D02*
X154533600Y-89027000D01*
X154686000Y-91657627D02*
X154686000Y-91567000D01*
X151719417Y-94624210D02*
X154686000Y-91657627D01*
X152298400Y-95199200D02*
X153390600Y-94107000D01*
X152294408Y-95199200D02*
X152298400Y-95199200D01*
X153390600Y-94107000D02*
X154686000Y-94107000D01*
X152285103Y-95189895D02*
X152294408Y-95199200D01*
X154660600Y-96621600D02*
X154686000Y-96647000D01*
X152904008Y-96621600D02*
X154660600Y-96621600D01*
X152285103Y-97240505D02*
X152904008Y-96621600D01*
X154276400Y-98777400D02*
X154686000Y-98777400D01*
X153941585Y-98442585D02*
X154276400Y-98777400D01*
X152355812Y-98442585D02*
X153941585Y-98442585D01*
X151719417Y-97806190D02*
X152355812Y-98442585D01*
X153520000Y-101727000D02*
X154686000Y-101727000D01*
X151932642Y-100139642D02*
X153520000Y-101727000D01*
X150658756Y-100139642D02*
X151932642Y-100139642D01*
X150022361Y-99503247D02*
X150658756Y-100139642D01*
X142606990Y-83773000D02*
X142824200Y-83773000D01*
X141447490Y-82613500D02*
X142606990Y-83773000D01*
X142824200Y-84599810D02*
X142448310Y-84975700D01*
X142824200Y-83773000D02*
X142824200Y-84599810D01*
X154533600Y-106807000D02*
X154686000Y-106807000D01*
X152857200Y-105130600D02*
X154533600Y-106807000D01*
X148325305Y-101200303D02*
X148961700Y-101836698D01*
X148961700Y-101836698D02*
X151643558Y-101836698D01*
X152857200Y-103050340D02*
X152857200Y-105130600D01*
X151643558Y-101836698D02*
X152857200Y-103050340D01*
X147688910Y-98705907D02*
X146927305Y-97944302D01*
X146927305Y-97944302D02*
X146627306Y-97644303D01*
X147688910Y-100563908D02*
X147688910Y-98705907D01*
X148325305Y-101200303D02*
X147688910Y-100563908D01*
X143264801Y-101969727D02*
X143254641Y-101979887D01*
X144373900Y-101969727D02*
X143264801Y-101969727D01*
X143254641Y-101979887D02*
X141885513Y-101979887D01*
X141885513Y-101979887D02*
X139598400Y-104267000D01*
X139598400Y-104267000D02*
X139446000Y-104267000D01*
X145709010Y-100634617D02*
X144373900Y-101969727D01*
X145621225Y-97125563D02*
X145921224Y-96825564D01*
X145709010Y-100634617D02*
X146345405Y-99998222D01*
X145403119Y-98633523D02*
X145403119Y-97343669D01*
X146345405Y-99998222D02*
X146345405Y-99575809D01*
X146345405Y-99575809D02*
X145403119Y-98633523D01*
X145403119Y-97343669D02*
X145621225Y-97125563D01*
X146911090Y-100563908D02*
X146911090Y-99608092D01*
X145878129Y-98575131D02*
X145878129Y-97972608D01*
X146274695Y-101200303D02*
X146911090Y-100563908D01*
X145878129Y-97972608D02*
X145878129Y-97548344D01*
X146911090Y-99608092D02*
X145878129Y-98575131D01*
X148386800Y-71932800D02*
X148696401Y-72242401D01*
X148386800Y-70926800D02*
X148386800Y-71932800D01*
X148696401Y-72242401D02*
X148996400Y-72542400D01*
X149600000Y-68700000D02*
X149600000Y-69713600D01*
X149600000Y-69713600D02*
X148386800Y-70926800D01*
X145255260Y-102219738D02*
X145638300Y-101836698D01*
X143368358Y-102219738D02*
X145255260Y-102219738D01*
X142661662Y-102229898D02*
X143358198Y-102229898D01*
X139446000Y-106807000D02*
X139598400Y-106807000D01*
X140919200Y-103972360D02*
X142661662Y-102229898D01*
X145638300Y-101836698D02*
X146274695Y-101200303D01*
X143358198Y-102229898D02*
X143368358Y-102219738D01*
X139598400Y-106807000D02*
X140919200Y-105486200D01*
X140919200Y-105486200D02*
X140919200Y-103972360D01*
X150553420Y-85267800D02*
X151188336Y-85267800D01*
X147050811Y-88117982D02*
X149651418Y-88117982D01*
X151188336Y-85267800D02*
X151612600Y-85267800D01*
X149651418Y-88117982D02*
X149923500Y-87845900D01*
X149923500Y-87845900D02*
X149923500Y-85897720D01*
X149923500Y-85897720D02*
X150553420Y-85267800D01*
X148417280Y-104277160D02*
X148468080Y-104226360D01*
X145465800Y-104277160D02*
X148417280Y-104277160D01*
X144299940Y-104543020D02*
X144299940Y-104594660D01*
X145465800Y-104277160D02*
X144565800Y-104277160D01*
X144565800Y-104277160D02*
X144299940Y-104543020D01*
X142443200Y-91846400D02*
X141678502Y-92611098D01*
X141782800Y-91186000D02*
X142443200Y-91846400D01*
X141512020Y-91186000D02*
X141782800Y-91186000D01*
X141678502Y-94553500D02*
X142314897Y-95189895D01*
X141678502Y-93370400D02*
X141678502Y-94553500D01*
X141678502Y-92611098D02*
X141678502Y-93370400D01*
X151504777Y-89840667D02*
X152653133Y-89840667D01*
X152653133Y-89840667D02*
X152704800Y-89789000D01*
X150736300Y-78049120D02*
X150837900Y-78049120D01*
X149052280Y-79733140D02*
X150736300Y-78049120D01*
X149052280Y-80248760D02*
X149052280Y-79733140D01*
X149052280Y-80248760D02*
X149052280Y-81047600D01*
X142819120Y-80264000D02*
X142819120Y-81067920D01*
X143078200Y-80004920D02*
X142819120Y-80264000D01*
X142819120Y-81067920D02*
X142824200Y-81073000D01*
X143078200Y-78036420D02*
X143078200Y-80004920D01*
X145111460Y-108662460D02*
X145097500Y-108648500D01*
X145699100Y-108312460D02*
X145349100Y-108662460D01*
X145699100Y-107837460D02*
X145699100Y-108312460D01*
X145349100Y-108662460D02*
X145111460Y-108662460D01*
X146349100Y-109138100D02*
X146349100Y-107837460D01*
X146862800Y-109651800D02*
X146349100Y-109138100D01*
X147429499Y-109293497D02*
X147429499Y-111206001D01*
X147429499Y-111206001D02*
X147129500Y-111506000D01*
X146999100Y-107837460D02*
X146999100Y-108863098D01*
X146999100Y-108863098D02*
X147429499Y-109293497D01*
X144499100Y-110287460D02*
X144249100Y-110537460D01*
X144499100Y-107837460D02*
X144499100Y-110287460D01*
X149499100Y-110287460D02*
X149749100Y-110537460D01*
X149499100Y-107837460D02*
X149499100Y-110287460D01*
X149499100Y-107837460D02*
X148299100Y-107837460D01*
X149749100Y-110537460D02*
X150499100Y-110537460D01*
X143499100Y-110537460D02*
X144249100Y-110537460D01*
X150997120Y-110537460D02*
X150499100Y-110537460D01*
X143499100Y-110537460D02*
X144763960Y-110537460D01*
X144763960Y-110537460D02*
X144797501Y-110571001D01*
X144797501Y-110571001D02*
X145097500Y-110871000D01*
X150499100Y-110537460D02*
X149431540Y-110537460D01*
X149431540Y-110537460D02*
X149161500Y-110807500D01*
X149499100Y-110469900D02*
X149499100Y-107837460D01*
X149161500Y-110807500D02*
X149499100Y-110469900D01*
X150499100Y-110537460D02*
X151991860Y-110537460D01*
X151713400Y-110537460D02*
X152346660Y-111170720D01*
X150499100Y-110537460D02*
X151713400Y-110537460D01*
X145454044Y-94562669D02*
X145454044Y-95597120D01*
X145454044Y-95597120D02*
X144769924Y-96281240D01*
X144769924Y-96281240D02*
X144345660Y-96281240D01*
X145779719Y-93441302D02*
X145284199Y-93936822D01*
X145284199Y-93936822D02*
X145284199Y-94392824D01*
X145779719Y-92997863D02*
X145779719Y-93441302D01*
X145143324Y-92361468D02*
X145779719Y-92997863D01*
X145284199Y-94392824D02*
X145454044Y-94562669D01*
X148094700Y-97218500D02*
X148107400Y-97205800D01*
X147035520Y-97218500D02*
X148094700Y-97218500D01*
X146166826Y-96349806D02*
X147035520Y-97218500D01*
X143756359Y-95306479D02*
X143756359Y-97303093D01*
X144082663Y-94694919D02*
X144082663Y-94980175D01*
X143446268Y-94058524D02*
X144082663Y-94694919D01*
X143756359Y-97303093D02*
X144113748Y-97660482D01*
X144113748Y-97660482D02*
X144853638Y-97660482D01*
X144853638Y-97660482D02*
X145059400Y-97454720D01*
X144082663Y-94980175D02*
X143756359Y-95306479D01*
X145420600Y-96349806D02*
X146166826Y-96349806D01*
X145059400Y-97454720D02*
X145059400Y-96711006D01*
X145059400Y-96711006D02*
X145420600Y-96349806D01*
X144145283Y-90144317D02*
X144243279Y-90144317D01*
X144243279Y-91468721D02*
X144243279Y-90568581D01*
X143786703Y-90502897D02*
X144145283Y-90144317D01*
X142244188Y-93987815D02*
X142244188Y-93467812D01*
X144243279Y-90568581D02*
X144243279Y-90144317D01*
X142244188Y-93467812D02*
X144243279Y-91468721D01*
X142880583Y-94624210D02*
X142244188Y-93987815D01*
X142798800Y-104244160D02*
X142765800Y-104277160D01*
X142798800Y-103532940D02*
X142798800Y-104244160D01*
X143586200Y-102745540D02*
X142798800Y-103532940D01*
X146989800Y-79230220D02*
X148170900Y-78049120D01*
X148170900Y-78049120D02*
X148272500Y-78049120D01*
X146989800Y-81047600D02*
X146989800Y-79230220D01*
X145669000Y-80285600D02*
X144907000Y-81047600D01*
X145669000Y-78036420D02*
X145669000Y-80285600D01*
D28*
G36*
X148245351Y-102411628D02*
G01*
X148342042Y-102490980D01*
X148452356Y-102549945D01*
X148572054Y-102586255D01*
X148696536Y-102598515D01*
X148821018Y-102586255D01*
X148940716Y-102549945D01*
X148943684Y-102548359D01*
X148961699Y-102550133D01*
X148996574Y-102546698D01*
X151349467Y-102546698D01*
X151699834Y-102897066D01*
X151597360Y-102999540D01*
X151597360Y-104099360D01*
X151617360Y-104099360D01*
X151617360Y-104353360D01*
X151597360Y-104353360D01*
X151597360Y-105453180D01*
X151756110Y-105611930D01*
X152335584Y-105614187D01*
X152352726Y-105635075D01*
X152379817Y-105657308D01*
X152854237Y-106131728D01*
X152632410Y-106133900D01*
X152473660Y-106292650D01*
X152473660Y-107442000D01*
X152493660Y-107442000D01*
X152493660Y-107696000D01*
X152473660Y-107696000D01*
X152473660Y-108845350D01*
X152632410Y-109004100D01*
X152946100Y-109007172D01*
X153070582Y-108994912D01*
X153074756Y-108993646D01*
X153056684Y-109053223D01*
X153027749Y-109347000D01*
X153056684Y-109640777D01*
X153090031Y-109750708D01*
X153070582Y-109744808D01*
X152946100Y-109732548D01*
X151747220Y-109732548D01*
X151622738Y-109744808D01*
X151525188Y-109774399D01*
X151447384Y-109628837D01*
X151305549Y-109456011D01*
X151132723Y-109314176D01*
X150935546Y-109208784D01*
X150721598Y-109143883D01*
X150499100Y-109121969D01*
X150276601Y-109143883D01*
X150209100Y-109164359D01*
X150209100Y-108796748D01*
X150268766Y-108764856D01*
X150437786Y-108626146D01*
X150576496Y-108457126D01*
X150623547Y-108369100D01*
X151109148Y-108369100D01*
X151121408Y-108493582D01*
X151157718Y-108613280D01*
X151216683Y-108723594D01*
X151296035Y-108820285D01*
X151392726Y-108899637D01*
X151503040Y-108958602D01*
X151622738Y-108994912D01*
X151747220Y-109007172D01*
X152060910Y-109004100D01*
X152219660Y-108845350D01*
X152219660Y-107696000D01*
X151270970Y-107696000D01*
X151112220Y-107854750D01*
X151109148Y-108369100D01*
X150623547Y-108369100D01*
X150679568Y-108264294D01*
X150743038Y-108055058D01*
X150764470Y-107837460D01*
X150743038Y-107619862D01*
X150679568Y-107410626D01*
X150576496Y-107217794D01*
X150437786Y-107048774D01*
X150268766Y-106910064D01*
X150075934Y-106806992D01*
X149950360Y-106768900D01*
X151109148Y-106768900D01*
X151112220Y-107283250D01*
X151270970Y-107442000D01*
X152219660Y-107442000D01*
X152219660Y-106292650D01*
X152060910Y-106133900D01*
X151747220Y-106130828D01*
X151622738Y-106143088D01*
X151503040Y-106179398D01*
X151392726Y-106238363D01*
X151296035Y-106317715D01*
X151216683Y-106414406D01*
X151157718Y-106524720D01*
X151121408Y-106644418D01*
X151109148Y-106768900D01*
X149950360Y-106768900D01*
X149866698Y-106743522D01*
X149703621Y-106727460D01*
X149294579Y-106727460D01*
X149131502Y-106743522D01*
X149007595Y-106781108D01*
X148950285Y-106711275D01*
X148853594Y-106631923D01*
X148743280Y-106572958D01*
X148623582Y-106536648D01*
X148499100Y-106524388D01*
X148099100Y-106524388D01*
X147974618Y-106536648D01*
X147974100Y-106536805D01*
X147973582Y-106536648D01*
X147849100Y-106524388D01*
X147449100Y-106524388D01*
X147324618Y-106536648D01*
X147324100Y-106536805D01*
X147323582Y-106536648D01*
X147199100Y-106524388D01*
X146799100Y-106524388D01*
X146674618Y-106536648D01*
X146674100Y-106536805D01*
X146673582Y-106536648D01*
X146549100Y-106524388D01*
X146149100Y-106524388D01*
X146024618Y-106536648D01*
X146024100Y-106536805D01*
X146023582Y-106536648D01*
X145899100Y-106524388D01*
X145499100Y-106524388D01*
X145374618Y-106536648D01*
X145254920Y-106572958D01*
X145144606Y-106631923D01*
X145047915Y-106711275D01*
X144990605Y-106781108D01*
X144866698Y-106743522D01*
X144703621Y-106727460D01*
X144294579Y-106727460D01*
X144131502Y-106743522D01*
X143922266Y-106806992D01*
X143729434Y-106910064D01*
X143560414Y-107048774D01*
X143421704Y-107217794D01*
X143318632Y-107410626D01*
X143255162Y-107619862D01*
X143233730Y-107837460D01*
X143255162Y-108055058D01*
X143318632Y-108264294D01*
X143421704Y-108457126D01*
X143560414Y-108626146D01*
X143729434Y-108764856D01*
X143789100Y-108796749D01*
X143789101Y-109164360D01*
X143721598Y-109143883D01*
X143499100Y-109121969D01*
X143276601Y-109143883D01*
X143062653Y-109208784D01*
X142865477Y-109314176D01*
X142692651Y-109456011D01*
X142550816Y-109628837D01*
X142445424Y-109826014D01*
X142380523Y-110039962D01*
X142364100Y-110206709D01*
X142364100Y-110868212D01*
X142380523Y-111034959D01*
X142445424Y-111248907D01*
X142550817Y-111446083D01*
X142692652Y-111618909D01*
X142865478Y-111760744D01*
X143062654Y-111866136D01*
X143276602Y-111931037D01*
X143499100Y-111952951D01*
X143721599Y-111931037D01*
X143935547Y-111866136D01*
X144132723Y-111760744D01*
X144305549Y-111618909D01*
X144403620Y-111499410D01*
X144501472Y-111597262D01*
X144654611Y-111699586D01*
X144824771Y-111770068D01*
X145005411Y-111806000D01*
X145189589Y-111806000D01*
X145370229Y-111770068D01*
X145540389Y-111699586D01*
X145693528Y-111597262D01*
X145823762Y-111467028D01*
X145926086Y-111313889D01*
X145996568Y-111143729D01*
X146032500Y-110963089D01*
X146032500Y-110778911D01*
X145996568Y-110598271D01*
X145926086Y-110428111D01*
X145823762Y-110274972D01*
X145693528Y-110144738D01*
X145540389Y-110042414D01*
X145370229Y-109971932D01*
X145209100Y-109939881D01*
X145209100Y-109579619D01*
X145370229Y-109547568D01*
X145540389Y-109477086D01*
X145681401Y-109382865D01*
X145689972Y-109411119D01*
X145755900Y-109534462D01*
X145844625Y-109642574D01*
X145871717Y-109664808D01*
X145927800Y-109720891D01*
X145927800Y-109743889D01*
X145963732Y-109924529D01*
X146034214Y-110094689D01*
X146136538Y-110247828D01*
X146266772Y-110378062D01*
X146419911Y-110480386D01*
X146590071Y-110550868D01*
X146719500Y-110576613D01*
X146719500Y-110663791D01*
X146686611Y-110677414D01*
X146533472Y-110779738D01*
X146403238Y-110909972D01*
X146300914Y-111063111D01*
X146230432Y-111233271D01*
X146194500Y-111413911D01*
X146194500Y-111598089D01*
X146230432Y-111778729D01*
X146300914Y-111948889D01*
X146403238Y-112102028D01*
X146533472Y-112232262D01*
X146686611Y-112334586D01*
X146856771Y-112405068D01*
X147037411Y-112441000D01*
X147221589Y-112441000D01*
X147402229Y-112405068D01*
X147572389Y-112334586D01*
X147725528Y-112232262D01*
X147855762Y-112102028D01*
X147958086Y-111948889D01*
X148028568Y-111778729D01*
X148064500Y-111598089D01*
X148064500Y-111524160D01*
X148088627Y-111479021D01*
X148129226Y-111345185D01*
X148139499Y-111240878D01*
X148139499Y-111240876D01*
X148142934Y-111206001D01*
X148139499Y-111171126D01*
X148139499Y-109328371D01*
X148142934Y-109293496D01*
X148134603Y-109208911D01*
X148129226Y-109154313D01*
X148128079Y-109150532D01*
X148499100Y-109150532D01*
X148623582Y-109138272D01*
X148743280Y-109101962D01*
X148789101Y-109077470D01*
X148789101Y-109091389D01*
X148789100Y-109949717D01*
X148718611Y-109978914D01*
X148565472Y-110081238D01*
X148435238Y-110211472D01*
X148332914Y-110364611D01*
X148262432Y-110534771D01*
X148226500Y-110715411D01*
X148226500Y-110899589D01*
X148262432Y-111080229D01*
X148332914Y-111250389D01*
X148435238Y-111403528D01*
X148565472Y-111533762D01*
X148718611Y-111636086D01*
X148888771Y-111706568D01*
X149069411Y-111742500D01*
X149253589Y-111742500D01*
X149434229Y-111706568D01*
X149604389Y-111636086D01*
X149670498Y-111591914D01*
X149692652Y-111618909D01*
X149865478Y-111760744D01*
X150062654Y-111866136D01*
X150276602Y-111931037D01*
X150499100Y-111952951D01*
X150721599Y-111931037D01*
X150935547Y-111866136D01*
X151109148Y-111773345D01*
X151109148Y-111970820D01*
X151121408Y-112095302D01*
X151157718Y-112215000D01*
X151216683Y-112325314D01*
X151296035Y-112422005D01*
X151392726Y-112501357D01*
X151503040Y-112560322D01*
X151622738Y-112596632D01*
X151747220Y-112608892D01*
X152858905Y-112608892D01*
X152868209Y-112655668D01*
X152970657Y-112903000D01*
X141129343Y-112903000D01*
X141231791Y-112655668D01*
X141305000Y-112287626D01*
X141305000Y-111912374D01*
X141231791Y-111544332D01*
X141088189Y-111197644D01*
X140879710Y-110885634D01*
X140614366Y-110620290D01*
X140501247Y-110544706D01*
X140663197Y-110411797D01*
X140850469Y-110183606D01*
X140989625Y-109923264D01*
X141075316Y-109640777D01*
X141104251Y-109347000D01*
X141075316Y-109053223D01*
X140989625Y-108770736D01*
X140850469Y-108510394D01*
X140663197Y-108282203D01*
X140435006Y-108094931D01*
X140401460Y-108077000D01*
X140435006Y-108059069D01*
X140663197Y-107871797D01*
X140850469Y-107643606D01*
X140989625Y-107383264D01*
X141075316Y-107100777D01*
X141104251Y-106807000D01*
X141075316Y-106513223D01*
X141033644Y-106375848D01*
X141396589Y-106012903D01*
X141423674Y-105990675D01*
X141445904Y-105963588D01*
X141445907Y-105963585D01*
X141512399Y-105882564D01*
X141512400Y-105882563D01*
X141578328Y-105759220D01*
X141618927Y-105625384D01*
X141629200Y-105521077D01*
X141629200Y-105521076D01*
X141632635Y-105486201D01*
X141629200Y-105451326D01*
X141629200Y-105431348D01*
X141661306Y-105457697D01*
X141771620Y-105516662D01*
X141891318Y-105552972D01*
X142015800Y-105565232D01*
X143515800Y-105565232D01*
X143640282Y-105552972D01*
X143759980Y-105516662D01*
X143870294Y-105457697D01*
X143893750Y-105438447D01*
X144027211Y-105493728D01*
X144207851Y-105529660D01*
X144392029Y-105529660D01*
X144467756Y-105514597D01*
X144471620Y-105516662D01*
X144591318Y-105552972D01*
X144715800Y-105565232D01*
X146215800Y-105565232D01*
X146340282Y-105552972D01*
X146459980Y-105516662D01*
X146570294Y-105457697D01*
X146666985Y-105378345D01*
X146746337Y-105281654D01*
X146794941Y-105190724D01*
X146804158Y-105221110D01*
X146863123Y-105331424D01*
X146942475Y-105428115D01*
X147039166Y-105507467D01*
X147149480Y-105566432D01*
X147269178Y-105602742D01*
X147393660Y-105615002D01*
X149542500Y-105615002D01*
X149666982Y-105602742D01*
X149786680Y-105566432D01*
X149896994Y-105507467D01*
X149969220Y-105448193D01*
X150041446Y-105507467D01*
X150151760Y-105566432D01*
X150271458Y-105602742D01*
X150395940Y-105615002D01*
X151184610Y-105611930D01*
X151343360Y-105453180D01*
X151343360Y-104353360D01*
X151323360Y-104353360D01*
X151323360Y-104099360D01*
X151343360Y-104099360D01*
X151343360Y-102999540D01*
X151184610Y-102840790D01*
X150395940Y-102837718D01*
X150271458Y-102849978D01*
X150151760Y-102886288D01*
X150041446Y-102945253D01*
X149969220Y-103004527D01*
X149896994Y-102945253D01*
X149786680Y-102886288D01*
X149666982Y-102849978D01*
X149542500Y-102837718D01*
X147393660Y-102837718D01*
X147269178Y-102849978D01*
X147149480Y-102886288D01*
X147039166Y-102945253D01*
X146942475Y-103024605D01*
X146863123Y-103121296D01*
X146804158Y-103231610D01*
X146775279Y-103326812D01*
X146746337Y-103272666D01*
X146666985Y-103175975D01*
X146570294Y-103096623D01*
X146459980Y-103037658D01*
X146340282Y-103001348D01*
X146215800Y-102989088D01*
X144715800Y-102989088D01*
X144591318Y-103001348D01*
X144478044Y-103035709D01*
X144485268Y-103018269D01*
X144502878Y-102929738D01*
X145220385Y-102929738D01*
X145255260Y-102933173D01*
X145290135Y-102929738D01*
X145290137Y-102929738D01*
X145394444Y-102919465D01*
X145528280Y-102878866D01*
X145651623Y-102812938D01*
X145759735Y-102724213D01*
X145781972Y-102697117D01*
X145882626Y-102596463D01*
X145903464Y-102598515D01*
X146027946Y-102586255D01*
X146147644Y-102549945D01*
X146257958Y-102490980D01*
X146354649Y-102411628D01*
X147300000Y-101466277D01*
X148245351Y-102411628D01*
X148245351Y-102411628D01*
G37*
X148245351Y-102411628D02*
X148342042Y-102490980D01*
X148452356Y-102549945D01*
X148572054Y-102586255D01*
X148696536Y-102598515D01*
X148821018Y-102586255D01*
X148940716Y-102549945D01*
X148943684Y-102548359D01*
X148961699Y-102550133D01*
X148996574Y-102546698D01*
X151349467Y-102546698D01*
X151699834Y-102897066D01*
X151597360Y-102999540D01*
X151597360Y-104099360D01*
X151617360Y-104099360D01*
X151617360Y-104353360D01*
X151597360Y-104353360D01*
X151597360Y-105453180D01*
X151756110Y-105611930D01*
X152335584Y-105614187D01*
X152352726Y-105635075D01*
X152379817Y-105657308D01*
X152854237Y-106131728D01*
X152632410Y-106133900D01*
X152473660Y-106292650D01*
X152473660Y-107442000D01*
X152493660Y-107442000D01*
X152493660Y-107696000D01*
X152473660Y-107696000D01*
X152473660Y-108845350D01*
X152632410Y-109004100D01*
X152946100Y-109007172D01*
X153070582Y-108994912D01*
X153074756Y-108993646D01*
X153056684Y-109053223D01*
X153027749Y-109347000D01*
X153056684Y-109640777D01*
X153090031Y-109750708D01*
X153070582Y-109744808D01*
X152946100Y-109732548D01*
X151747220Y-109732548D01*
X151622738Y-109744808D01*
X151525188Y-109774399D01*
X151447384Y-109628837D01*
X151305549Y-109456011D01*
X151132723Y-109314176D01*
X150935546Y-109208784D01*
X150721598Y-109143883D01*
X150499100Y-109121969D01*
X150276601Y-109143883D01*
X150209100Y-109164359D01*
X150209100Y-108796748D01*
X150268766Y-108764856D01*
X150437786Y-108626146D01*
X150576496Y-108457126D01*
X150623547Y-108369100D01*
X151109148Y-108369100D01*
X151121408Y-108493582D01*
X151157718Y-108613280D01*
X151216683Y-108723594D01*
X151296035Y-108820285D01*
X151392726Y-108899637D01*
X151503040Y-108958602D01*
X151622738Y-108994912D01*
X151747220Y-109007172D01*
X152060910Y-109004100D01*
X152219660Y-108845350D01*
X152219660Y-107696000D01*
X151270970Y-107696000D01*
X151112220Y-107854750D01*
X151109148Y-108369100D01*
X150623547Y-108369100D01*
X150679568Y-108264294D01*
X150743038Y-108055058D01*
X150764470Y-107837460D01*
X150743038Y-107619862D01*
X150679568Y-107410626D01*
X150576496Y-107217794D01*
X150437786Y-107048774D01*
X150268766Y-106910064D01*
X150075934Y-106806992D01*
X149950360Y-106768900D01*
X151109148Y-106768900D01*
X151112220Y-107283250D01*
X151270970Y-107442000D01*
X152219660Y-107442000D01*
X152219660Y-106292650D01*
X152060910Y-106133900D01*
X151747220Y-106130828D01*
X151622738Y-106143088D01*
X151503040Y-106179398D01*
X151392726Y-106238363D01*
X151296035Y-106317715D01*
X151216683Y-106414406D01*
X151157718Y-106524720D01*
X151121408Y-106644418D01*
X151109148Y-106768900D01*
X149950360Y-106768900D01*
X149866698Y-106743522D01*
X149703621Y-106727460D01*
X149294579Y-106727460D01*
X149131502Y-106743522D01*
X149007595Y-106781108D01*
X148950285Y-106711275D01*
X148853594Y-106631923D01*
X148743280Y-106572958D01*
X148623582Y-106536648D01*
X148499100Y-106524388D01*
X148099100Y-106524388D01*
X147974618Y-106536648D01*
X147974100Y-106536805D01*
X147973582Y-106536648D01*
X147849100Y-106524388D01*
X147449100Y-106524388D01*
X147324618Y-106536648D01*
X147324100Y-106536805D01*
X147323582Y-106536648D01*
X147199100Y-106524388D01*
X146799100Y-106524388D01*
X146674618Y-106536648D01*
X146674100Y-106536805D01*
X146673582Y-106536648D01*
X146549100Y-106524388D01*
X146149100Y-106524388D01*
X146024618Y-106536648D01*
X146024100Y-106536805D01*
X146023582Y-106536648D01*
X145899100Y-106524388D01*
X145499100Y-106524388D01*
X145374618Y-106536648D01*
X145254920Y-106572958D01*
X145144606Y-106631923D01*
X145047915Y-106711275D01*
X144990605Y-106781108D01*
X144866698Y-106743522D01*
X144703621Y-106727460D01*
X144294579Y-106727460D01*
X144131502Y-106743522D01*
X143922266Y-106806992D01*
X143729434Y-106910064D01*
X143560414Y-107048774D01*
X143421704Y-107217794D01*
X143318632Y-107410626D01*
X143255162Y-107619862D01*
X143233730Y-107837460D01*
X143255162Y-108055058D01*
X143318632Y-108264294D01*
X143421704Y-108457126D01*
X143560414Y-108626146D01*
X143729434Y-108764856D01*
X143789100Y-108796749D01*
X143789101Y-109164360D01*
X143721598Y-109143883D01*
X143499100Y-109121969D01*
X143276601Y-109143883D01*
X143062653Y-109208784D01*
X142865477Y-109314176D01*
X142692651Y-109456011D01*
X142550816Y-109628837D01*
X142445424Y-109826014D01*
X142380523Y-110039962D01*
X142364100Y-110206709D01*
X142364100Y-110868212D01*
X142380523Y-111034959D01*
X142445424Y-111248907D01*
X142550817Y-111446083D01*
X142692652Y-111618909D01*
X142865478Y-111760744D01*
X143062654Y-111866136D01*
X143276602Y-111931037D01*
X143499100Y-111952951D01*
X143721599Y-111931037D01*
X143935547Y-111866136D01*
X144132723Y-111760744D01*
X144305549Y-111618909D01*
X144403620Y-111499410D01*
X144501472Y-111597262D01*
X144654611Y-111699586D01*
X144824771Y-111770068D01*
X145005411Y-111806000D01*
X145189589Y-111806000D01*
X145370229Y-111770068D01*
X145540389Y-111699586D01*
X145693528Y-111597262D01*
X145823762Y-111467028D01*
X145926086Y-111313889D01*
X145996568Y-111143729D01*
X146032500Y-110963089D01*
X146032500Y-110778911D01*
X145996568Y-110598271D01*
X145926086Y-110428111D01*
X145823762Y-110274972D01*
X145693528Y-110144738D01*
X145540389Y-110042414D01*
X145370229Y-109971932D01*
X145209100Y-109939881D01*
X145209100Y-109579619D01*
X145370229Y-109547568D01*
X145540389Y-109477086D01*
X145681401Y-109382865D01*
X145689972Y-109411119D01*
X145755900Y-109534462D01*
X145844625Y-109642574D01*
X145871717Y-109664808D01*
X145927800Y-109720891D01*
X145927800Y-109743889D01*
X145963732Y-109924529D01*
X146034214Y-110094689D01*
X146136538Y-110247828D01*
X146266772Y-110378062D01*
X146419911Y-110480386D01*
X146590071Y-110550868D01*
X146719500Y-110576613D01*
X146719500Y-110663791D01*
X146686611Y-110677414D01*
X146533472Y-110779738D01*
X146403238Y-110909972D01*
X146300914Y-111063111D01*
X146230432Y-111233271D01*
X146194500Y-111413911D01*
X146194500Y-111598089D01*
X146230432Y-111778729D01*
X146300914Y-111948889D01*
X146403238Y-112102028D01*
X146533472Y-112232262D01*
X146686611Y-112334586D01*
X146856771Y-112405068D01*
X147037411Y-112441000D01*
X147221589Y-112441000D01*
X147402229Y-112405068D01*
X147572389Y-112334586D01*
X147725528Y-112232262D01*
X147855762Y-112102028D01*
X147958086Y-111948889D01*
X148028568Y-111778729D01*
X148064500Y-111598089D01*
X148064500Y-111524160D01*
X148088627Y-111479021D01*
X148129226Y-111345185D01*
X148139499Y-111240878D01*
X148139499Y-111240876D01*
X148142934Y-111206001D01*
X148139499Y-111171126D01*
X148139499Y-109328371D01*
X148142934Y-109293496D01*
X148134603Y-109208911D01*
X148129226Y-109154313D01*
X148128079Y-109150532D01*
X148499100Y-109150532D01*
X148623582Y-109138272D01*
X148743280Y-109101962D01*
X148789101Y-109077470D01*
X148789101Y-109091389D01*
X148789100Y-109949717D01*
X148718611Y-109978914D01*
X148565472Y-110081238D01*
X148435238Y-110211472D01*
X148332914Y-110364611D01*
X148262432Y-110534771D01*
X148226500Y-110715411D01*
X148226500Y-110899589D01*
X148262432Y-111080229D01*
X148332914Y-111250389D01*
X148435238Y-111403528D01*
X148565472Y-111533762D01*
X148718611Y-111636086D01*
X148888771Y-111706568D01*
X149069411Y-111742500D01*
X149253589Y-111742500D01*
X149434229Y-111706568D01*
X149604389Y-111636086D01*
X149670498Y-111591914D01*
X149692652Y-111618909D01*
X149865478Y-111760744D01*
X150062654Y-111866136D01*
X150276602Y-111931037D01*
X150499100Y-111952951D01*
X150721599Y-111931037D01*
X150935547Y-111866136D01*
X151109148Y-111773345D01*
X151109148Y-111970820D01*
X151121408Y-112095302D01*
X151157718Y-112215000D01*
X151216683Y-112325314D01*
X151296035Y-112422005D01*
X151392726Y-112501357D01*
X151503040Y-112560322D01*
X151622738Y-112596632D01*
X151747220Y-112608892D01*
X152858905Y-112608892D01*
X152868209Y-112655668D01*
X152970657Y-112903000D01*
X141129343Y-112903000D01*
X141231791Y-112655668D01*
X141305000Y-112287626D01*
X141305000Y-111912374D01*
X141231791Y-111544332D01*
X141088189Y-111197644D01*
X140879710Y-110885634D01*
X140614366Y-110620290D01*
X140501247Y-110544706D01*
X140663197Y-110411797D01*
X140850469Y-110183606D01*
X140989625Y-109923264D01*
X141075316Y-109640777D01*
X141104251Y-109347000D01*
X141075316Y-109053223D01*
X140989625Y-108770736D01*
X140850469Y-108510394D01*
X140663197Y-108282203D01*
X140435006Y-108094931D01*
X140401460Y-108077000D01*
X140435006Y-108059069D01*
X140663197Y-107871797D01*
X140850469Y-107643606D01*
X140989625Y-107383264D01*
X141075316Y-107100777D01*
X141104251Y-106807000D01*
X141075316Y-106513223D01*
X141033644Y-106375848D01*
X141396589Y-106012903D01*
X141423674Y-105990675D01*
X141445904Y-105963588D01*
X141445907Y-105963585D01*
X141512399Y-105882564D01*
X141512400Y-105882563D01*
X141578328Y-105759220D01*
X141618927Y-105625384D01*
X141629200Y-105521077D01*
X141629200Y-105521076D01*
X141632635Y-105486201D01*
X141629200Y-105451326D01*
X141629200Y-105431348D01*
X141661306Y-105457697D01*
X141771620Y-105516662D01*
X141891318Y-105552972D01*
X142015800Y-105565232D01*
X143515800Y-105565232D01*
X143640282Y-105552972D01*
X143759980Y-105516662D01*
X143870294Y-105457697D01*
X143893750Y-105438447D01*
X144027211Y-105493728D01*
X144207851Y-105529660D01*
X144392029Y-105529660D01*
X144467756Y-105514597D01*
X144471620Y-105516662D01*
X144591318Y-105552972D01*
X144715800Y-105565232D01*
X146215800Y-105565232D01*
X146340282Y-105552972D01*
X146459980Y-105516662D01*
X146570294Y-105457697D01*
X146666985Y-105378345D01*
X146746337Y-105281654D01*
X146794941Y-105190724D01*
X146804158Y-105221110D01*
X146863123Y-105331424D01*
X146942475Y-105428115D01*
X147039166Y-105507467D01*
X147149480Y-105566432D01*
X147269178Y-105602742D01*
X147393660Y-105615002D01*
X149542500Y-105615002D01*
X149666982Y-105602742D01*
X149786680Y-105566432D01*
X149896994Y-105507467D01*
X149969220Y-105448193D01*
X150041446Y-105507467D01*
X150151760Y-105566432D01*
X150271458Y-105602742D01*
X150395940Y-105615002D01*
X151184610Y-105611930D01*
X151343360Y-105453180D01*
X151343360Y-104353360D01*
X151323360Y-104353360D01*
X151323360Y-104099360D01*
X151343360Y-104099360D01*
X151343360Y-102999540D01*
X151184610Y-102840790D01*
X150395940Y-102837718D01*
X150271458Y-102849978D01*
X150151760Y-102886288D01*
X150041446Y-102945253D01*
X149969220Y-103004527D01*
X149896994Y-102945253D01*
X149786680Y-102886288D01*
X149666982Y-102849978D01*
X149542500Y-102837718D01*
X147393660Y-102837718D01*
X147269178Y-102849978D01*
X147149480Y-102886288D01*
X147039166Y-102945253D01*
X146942475Y-103024605D01*
X146863123Y-103121296D01*
X146804158Y-103231610D01*
X146775279Y-103326812D01*
X146746337Y-103272666D01*
X146666985Y-103175975D01*
X146570294Y-103096623D01*
X146459980Y-103037658D01*
X146340282Y-103001348D01*
X146215800Y-102989088D01*
X144715800Y-102989088D01*
X144591318Y-103001348D01*
X144478044Y-103035709D01*
X144485268Y-103018269D01*
X144502878Y-102929738D01*
X145220385Y-102929738D01*
X145255260Y-102933173D01*
X145290135Y-102929738D01*
X145290137Y-102929738D01*
X145394444Y-102919465D01*
X145528280Y-102878866D01*
X145651623Y-102812938D01*
X145759735Y-102724213D01*
X145781972Y-102697117D01*
X145882626Y-102596463D01*
X145903464Y-102598515D01*
X146027946Y-102586255D01*
X146147644Y-102549945D01*
X146257958Y-102490980D01*
X146354649Y-102411628D01*
X147300000Y-101466277D01*
X148245351Y-102411628D01*
G36*
X150897001Y-95835535D02*
G01*
X150993692Y-95914887D01*
X150994171Y-95915143D01*
X150994426Y-95915620D01*
X151073778Y-96012311D01*
X151276667Y-96215200D01*
X151073778Y-96418089D01*
X150994426Y-96514780D01*
X150994171Y-96515257D01*
X150993692Y-96515513D01*
X150897001Y-96594865D01*
X150508092Y-96983774D01*
X150428740Y-97080465D01*
X150428484Y-97080944D01*
X150428007Y-97081199D01*
X150331316Y-97160551D01*
X149942407Y-97549460D01*
X149863055Y-97646151D01*
X149862495Y-97647199D01*
X149775405Y-97720807D01*
X149775405Y-97851027D01*
X149767780Y-97876163D01*
X149755520Y-98000645D01*
X149766924Y-98116439D01*
X149651130Y-98105035D01*
X149526648Y-98117295D01*
X149501515Y-98124919D01*
X149371293Y-98124919D01*
X149297685Y-98212009D01*
X149296636Y-98212570D01*
X149199945Y-98291922D01*
X148964595Y-98527272D01*
X148964595Y-98350832D01*
X149194379Y-98121048D01*
X149221475Y-98098811D01*
X149289003Y-98016528D01*
X149310199Y-97990701D01*
X149329848Y-97953940D01*
X149376128Y-97867356D01*
X149416727Y-97733520D01*
X149427000Y-97629213D01*
X149427000Y-97629212D01*
X149430435Y-97594337D01*
X149427000Y-97559462D01*
X149427000Y-96407691D01*
X149721091Y-96113601D01*
X149744088Y-96113601D01*
X149924728Y-96077669D01*
X150094888Y-96007187D01*
X150248027Y-95904863D01*
X150378261Y-95774629D01*
X150480585Y-95621490D01*
X150539858Y-95478392D01*
X150897001Y-95835535D01*
X150897001Y-95835535D01*
G37*
X150897001Y-95835535D02*
X150993692Y-95914887D01*
X150994171Y-95915143D01*
X150994426Y-95915620D01*
X151073778Y-96012311D01*
X151276667Y-96215200D01*
X151073778Y-96418089D01*
X150994426Y-96514780D01*
X150994171Y-96515257D01*
X150993692Y-96515513D01*
X150897001Y-96594865D01*
X150508092Y-96983774D01*
X150428740Y-97080465D01*
X150428484Y-97080944D01*
X150428007Y-97081199D01*
X150331316Y-97160551D01*
X149942407Y-97549460D01*
X149863055Y-97646151D01*
X149862495Y-97647199D01*
X149775405Y-97720807D01*
X149775405Y-97851027D01*
X149767780Y-97876163D01*
X149755520Y-98000645D01*
X149766924Y-98116439D01*
X149651130Y-98105035D01*
X149526648Y-98117295D01*
X149501515Y-98124919D01*
X149371293Y-98124919D01*
X149297685Y-98212009D01*
X149296636Y-98212570D01*
X149199945Y-98291922D01*
X148964595Y-98527272D01*
X148964595Y-98350832D01*
X149194379Y-98121048D01*
X149221475Y-98098811D01*
X149289003Y-98016528D01*
X149310199Y-97990701D01*
X149329848Y-97953940D01*
X149376128Y-97867356D01*
X149416727Y-97733520D01*
X149427000Y-97629213D01*
X149427000Y-97629212D01*
X149430435Y-97594337D01*
X149427000Y-97559462D01*
X149427000Y-96407691D01*
X149721091Y-96113601D01*
X149744088Y-96113601D01*
X149924728Y-96077669D01*
X150094888Y-96007187D01*
X150248027Y-95904863D01*
X150378261Y-95774629D01*
X150480585Y-95621490D01*
X150539858Y-95478392D01*
X150897001Y-95835535D01*
G36*
X149199945Y-94138478D02*
G01*
X149296636Y-94217830D01*
X149297114Y-94218086D01*
X149297370Y-94218564D01*
X149355490Y-94289383D01*
X149209110Y-94350015D01*
X149055971Y-94452339D01*
X148925737Y-94582573D01*
X148823413Y-94735712D01*
X148752931Y-94905872D01*
X148716999Y-95086512D01*
X148716999Y-95109509D01*
X148443208Y-95383301D01*
X148182007Y-95383301D01*
X148283180Y-95341394D01*
X148436319Y-95239070D01*
X148566553Y-95108836D01*
X148668877Y-94955697D01*
X148739359Y-94785537D01*
X148775291Y-94604897D01*
X148775291Y-94420719D01*
X148739359Y-94240079D01*
X148693316Y-94128919D01*
X148941851Y-93880384D01*
X149199945Y-94138478D01*
X149199945Y-94138478D01*
G37*
X149199945Y-94138478D02*
X149296636Y-94217830D01*
X149297114Y-94218086D01*
X149297370Y-94218564D01*
X149355490Y-94289383D01*
X149209110Y-94350015D01*
X149055971Y-94452339D01*
X148925737Y-94582573D01*
X148823413Y-94735712D01*
X148752931Y-94905872D01*
X148716999Y-95086512D01*
X148716999Y-95109509D01*
X148443208Y-95383301D01*
X148182007Y-95383301D01*
X148283180Y-95341394D01*
X148436319Y-95239070D01*
X148566553Y-95108836D01*
X148668877Y-94955697D01*
X148739359Y-94785537D01*
X148775291Y-94604897D01*
X148775291Y-94420719D01*
X148739359Y-94240079D01*
X148693316Y-94128919D01*
X148941851Y-93880384D01*
X149199945Y-94138478D01*
G36*
X143227331Y-91270159D02*
G01*
X143210462Y-91287028D01*
X143002572Y-91079138D01*
X143019441Y-91062269D01*
X143227331Y-91270159D01*
X143227331Y-91270159D01*
G37*
X143227331Y-91270159D02*
X143210462Y-91287028D01*
X143002572Y-91079138D01*
X143019441Y-91062269D01*
X143227331Y-91270159D01*
G36*
X150282513Y-89791622D02*
G01*
X150147953Y-89657062D01*
X150125715Y-89629965D01*
X150017603Y-89541240D01*
X149894260Y-89475312D01*
X149760424Y-89434713D01*
X149656117Y-89424440D01*
X149656115Y-89424440D01*
X149621240Y-89421005D01*
X149586365Y-89424440D01*
X148819424Y-89424440D01*
X148784549Y-89421005D01*
X148749674Y-89424440D01*
X148749673Y-89424440D01*
X148645366Y-89434713D01*
X148511530Y-89475312D01*
X148388187Y-89541240D01*
X148280075Y-89629965D01*
X148257842Y-89657056D01*
X147863079Y-90051820D01*
X147520112Y-90051820D01*
X146932312Y-89464021D01*
X146910075Y-89436925D01*
X146801963Y-89348200D01*
X146767694Y-89329883D01*
X146330949Y-88893138D01*
X146373529Y-88884668D01*
X146461036Y-88848422D01*
X146607922Y-88946568D01*
X146778082Y-89017050D01*
X146958722Y-89052982D01*
X147142900Y-89052982D01*
X147323540Y-89017050D01*
X147493700Y-88946568D01*
X147646839Y-88844244D01*
X147663101Y-88827982D01*
X149616543Y-88827982D01*
X149651418Y-88831417D01*
X149686293Y-88827982D01*
X149686295Y-88827982D01*
X149790602Y-88817709D01*
X149924438Y-88777110D01*
X150047781Y-88711182D01*
X150155893Y-88622457D01*
X150178130Y-88595361D01*
X150282512Y-88490979D01*
X150282513Y-89791622D01*
X150282513Y-89791622D01*
G37*
X150282513Y-89791622D02*
X150147953Y-89657062D01*
X150125715Y-89629965D01*
X150017603Y-89541240D01*
X149894260Y-89475312D01*
X149760424Y-89434713D01*
X149656117Y-89424440D01*
X149656115Y-89424440D01*
X149621240Y-89421005D01*
X149586365Y-89424440D01*
X148819424Y-89424440D01*
X148784549Y-89421005D01*
X148749674Y-89424440D01*
X148749673Y-89424440D01*
X148645366Y-89434713D01*
X148511530Y-89475312D01*
X148388187Y-89541240D01*
X148280075Y-89629965D01*
X148257842Y-89657056D01*
X147863079Y-90051820D01*
X147520112Y-90051820D01*
X146932312Y-89464021D01*
X146910075Y-89436925D01*
X146801963Y-89348200D01*
X146767694Y-89329883D01*
X146330949Y-88893138D01*
X146373529Y-88884668D01*
X146461036Y-88848422D01*
X146607922Y-88946568D01*
X146778082Y-89017050D01*
X146958722Y-89052982D01*
X147142900Y-89052982D01*
X147323540Y-89017050D01*
X147493700Y-88946568D01*
X147646839Y-88844244D01*
X147663101Y-88827982D01*
X149616543Y-88827982D01*
X149651418Y-88831417D01*
X149686293Y-88827982D01*
X149686295Y-88827982D01*
X149790602Y-88817709D01*
X149924438Y-88777110D01*
X150047781Y-88711182D01*
X150155893Y-88622457D01*
X150178130Y-88595361D01*
X150282512Y-88490979D01*
X150282513Y-89791622D01*
G36*
X145985306Y-85028137D02*
G01*
X146095620Y-85087102D01*
X146215318Y-85123412D01*
X146279801Y-85129763D01*
X146279800Y-86802509D01*
X146031709Y-87050600D01*
X146008711Y-87050600D01*
X145828071Y-87086532D01*
X145657911Y-87157014D01*
X145504772Y-87259338D01*
X145374538Y-87389572D01*
X145272214Y-87542711D01*
X145201732Y-87712871D01*
X145165800Y-87893511D01*
X145165800Y-88077689D01*
X145170457Y-88101100D01*
X145134400Y-88101100D01*
X145134400Y-85135672D01*
X145557000Y-85135672D01*
X145681482Y-85123412D01*
X145801180Y-85087102D01*
X145911494Y-85028137D01*
X145948400Y-84997849D01*
X145985306Y-85028137D01*
X145985306Y-85028137D01*
G37*
X145985306Y-85028137D02*
X146095620Y-85087102D01*
X146215318Y-85123412D01*
X146279801Y-85129763D01*
X146279800Y-86802509D01*
X146031709Y-87050600D01*
X146008711Y-87050600D01*
X145828071Y-87086532D01*
X145657911Y-87157014D01*
X145504772Y-87259338D01*
X145374538Y-87389572D01*
X145272214Y-87542711D01*
X145201732Y-87712871D01*
X145165800Y-87893511D01*
X145165800Y-88077689D01*
X145170457Y-88101100D01*
X145134400Y-88101100D01*
X145134400Y-85135672D01*
X145557000Y-85135672D01*
X145681482Y-85123412D01*
X145801180Y-85087102D01*
X145911494Y-85028137D01*
X145948400Y-84997849D01*
X145985306Y-85028137D01*
G36*
X149446116Y-85371013D02*
G01*
X149419026Y-85393245D01*
X149396793Y-85420336D01*
X149330301Y-85501357D01*
X149264372Y-85624701D01*
X149223774Y-85758536D01*
X149210065Y-85897720D01*
X149213501Y-85932604D01*
X149213500Y-87407982D01*
X148888115Y-87407982D01*
X148905087Y-87367008D01*
X148941019Y-87186368D01*
X148941019Y-87002190D01*
X148905087Y-86821550D01*
X148834605Y-86651390D01*
X148732281Y-86498251D01*
X148602047Y-86368017D01*
X148448908Y-86265693D01*
X148425198Y-86255872D01*
X148425198Y-86185996D01*
X148441460Y-86169734D01*
X148543784Y-86016595D01*
X148614266Y-85846435D01*
X148650198Y-85665795D01*
X148650198Y-85642797D01*
X149157323Y-85135672D01*
X149681457Y-85135672D01*
X149446116Y-85371013D01*
X149446116Y-85371013D01*
G37*
X149446116Y-85371013D02*
X149419026Y-85393245D01*
X149396793Y-85420336D01*
X149330301Y-85501357D01*
X149264372Y-85624701D01*
X149223774Y-85758536D01*
X149210065Y-85897720D01*
X149213501Y-85932604D01*
X149213500Y-87407982D01*
X148888115Y-87407982D01*
X148905087Y-87367008D01*
X148941019Y-87186368D01*
X148941019Y-87002190D01*
X148905087Y-86821550D01*
X148834605Y-86651390D01*
X148732281Y-86498251D01*
X148602047Y-86368017D01*
X148448908Y-86265693D01*
X148425198Y-86255872D01*
X148425198Y-86185996D01*
X148441460Y-86169734D01*
X148543784Y-86016595D01*
X148614266Y-85846435D01*
X148650198Y-85665795D01*
X148650198Y-85642797D01*
X149157323Y-85135672D01*
X149681457Y-85135672D01*
X149446116Y-85371013D01*
G36*
X143033220Y-86798640D02*
G01*
X143053220Y-86798640D01*
X143053220Y-87052640D01*
X143033220Y-87052640D01*
X143033220Y-87072640D01*
X142779220Y-87072640D01*
X142779220Y-87052640D01*
X142759220Y-87052640D01*
X142759220Y-86798640D01*
X142779220Y-86798640D01*
X142779220Y-86778640D01*
X143033220Y-86778640D01*
X143033220Y-86798640D01*
X143033220Y-86798640D01*
G37*
X143033220Y-86798640D02*
X143053220Y-86798640D01*
X143053220Y-87052640D01*
X143033220Y-87052640D01*
X143033220Y-87072640D01*
X142779220Y-87072640D01*
X142779220Y-87052640D01*
X142759220Y-87052640D01*
X142759220Y-86798640D01*
X142779220Y-86798640D01*
X142779220Y-86778640D01*
X143033220Y-86778640D01*
X143033220Y-86798640D01*
G36*
X143714400Y-85593298D02*
G01*
X143656220Y-85587568D01*
X143191970Y-85590640D01*
X143033222Y-85749388D01*
X143033222Y-85709389D01*
X143044338Y-85701962D01*
X143174572Y-85571728D01*
X143276896Y-85418589D01*
X143347378Y-85248429D01*
X143369807Y-85135672D01*
X143499600Y-85135672D01*
X143624082Y-85123412D01*
X143714401Y-85096014D01*
X143714400Y-85593298D01*
X143714400Y-85593298D01*
G37*
X143714400Y-85593298D02*
X143656220Y-85587568D01*
X143191970Y-85590640D01*
X143033222Y-85749388D01*
X143033222Y-85709389D01*
X143044338Y-85701962D01*
X143174572Y-85571728D01*
X143276896Y-85418589D01*
X143347378Y-85248429D01*
X143369807Y-85135672D01*
X143499600Y-85135672D01*
X143624082Y-85123412D01*
X143714401Y-85096014D01*
X143714400Y-85593298D01*
G36*
X141071599Y-77040435D02*
G01*
X141106474Y-77037000D01*
X141575045Y-77037000D01*
X141551958Y-77113108D01*
X141539698Y-77237590D01*
X141539698Y-78835250D01*
X141551958Y-78959732D01*
X141588268Y-79079430D01*
X141647233Y-79189744D01*
X141726585Y-79286435D01*
X141823276Y-79365787D01*
X141933590Y-79424752D01*
X142053288Y-79461062D01*
X142177770Y-79473322D01*
X142368201Y-79473322D01*
X142368201Y-79659528D01*
X142199600Y-79659528D01*
X142075118Y-79671788D01*
X141955420Y-79708098D01*
X141845106Y-79767063D01*
X141748415Y-79846415D01*
X141669063Y-79943106D01*
X141610098Y-80053420D01*
X141573788Y-80173118D01*
X141561528Y-80297600D01*
X141561528Y-81682866D01*
X141539579Y-81678500D01*
X141471999Y-81678500D01*
X141471999Y-80763937D01*
X141475434Y-80729062D01*
X141470795Y-80681963D01*
X141461726Y-80589879D01*
X141421127Y-80456043D01*
X141355199Y-80332700D01*
X141295400Y-80259835D01*
X141295400Y-80235375D01*
X141259468Y-80054735D01*
X141188986Y-79884575D01*
X141086662Y-79731436D01*
X140956428Y-79601202D01*
X140915582Y-79573910D01*
X140949686Y-79517919D01*
X141050709Y-79241789D01*
X141053358Y-79226026D01*
X140932217Y-78994000D01*
X139573000Y-78994000D01*
X139573000Y-79014000D01*
X139319000Y-79014000D01*
X139319000Y-78994000D01*
X139299000Y-78994000D01*
X139299000Y-78740000D01*
X139319000Y-78740000D01*
X139319000Y-78720000D01*
X139573000Y-78720000D01*
X139573000Y-78740000D01*
X140932217Y-78740000D01*
X141053358Y-78507974D01*
X141050709Y-78492211D01*
X140949686Y-78216081D01*
X140796733Y-77964965D01*
X140597729Y-77748514D01*
X140395053Y-77600424D01*
X140435006Y-77579069D01*
X140663197Y-77391797D01*
X140850469Y-77163606D01*
X140918141Y-77037000D01*
X141036724Y-77037000D01*
X141071599Y-77040435D01*
X141071599Y-77040435D01*
G37*
X141071599Y-77040435D02*
X141106474Y-77037000D01*
X141575045Y-77037000D01*
X141551958Y-77113108D01*
X141539698Y-77237590D01*
X141539698Y-78835250D01*
X141551958Y-78959732D01*
X141588268Y-79079430D01*
X141647233Y-79189744D01*
X141726585Y-79286435D01*
X141823276Y-79365787D01*
X141933590Y-79424752D01*
X142053288Y-79461062D01*
X142177770Y-79473322D01*
X142368201Y-79473322D01*
X142368201Y-79659528D01*
X142199600Y-79659528D01*
X142075118Y-79671788D01*
X141955420Y-79708098D01*
X141845106Y-79767063D01*
X141748415Y-79846415D01*
X141669063Y-79943106D01*
X141610098Y-80053420D01*
X141573788Y-80173118D01*
X141561528Y-80297600D01*
X141561528Y-81682866D01*
X141539579Y-81678500D01*
X141471999Y-81678500D01*
X141471999Y-80763937D01*
X141475434Y-80729062D01*
X141470795Y-80681963D01*
X141461726Y-80589879D01*
X141421127Y-80456043D01*
X141355199Y-80332700D01*
X141295400Y-80259835D01*
X141295400Y-80235375D01*
X141259468Y-80054735D01*
X141188986Y-79884575D01*
X141086662Y-79731436D01*
X140956428Y-79601202D01*
X140915582Y-79573910D01*
X140949686Y-79517919D01*
X141050709Y-79241789D01*
X141053358Y-79226026D01*
X140932217Y-78994000D01*
X139573000Y-78994000D01*
X139573000Y-79014000D01*
X139319000Y-79014000D01*
X139319000Y-78994000D01*
X139299000Y-78994000D01*
X139299000Y-78740000D01*
X139319000Y-78740000D01*
X139319000Y-78720000D01*
X139573000Y-78720000D01*
X139573000Y-78740000D01*
X140932217Y-78740000D01*
X141053358Y-78507974D01*
X141050709Y-78492211D01*
X140949686Y-78216081D01*
X140796733Y-77964965D01*
X140597729Y-77748514D01*
X140395053Y-77600424D01*
X140435006Y-77579069D01*
X140663197Y-77391797D01*
X140850469Y-77163606D01*
X140918141Y-77037000D01*
X141036724Y-77037000D01*
X141071599Y-77040435D01*
G36*
X152706001Y-80264867D02*
G01*
X152418072Y-80552796D01*
X152418072Y-80297600D01*
X152405812Y-80173118D01*
X152369502Y-80053420D01*
X152310537Y-79943106D01*
X152231185Y-79846415D01*
X152197951Y-79819141D01*
X152265892Y-79751200D01*
X152288889Y-79751200D01*
X152469529Y-79715268D01*
X152639689Y-79644786D01*
X152706001Y-79600478D01*
X152706001Y-80264867D01*
X152706001Y-80264867D01*
G37*
X152706001Y-80264867D02*
X152418072Y-80552796D01*
X152418072Y-80297600D01*
X152405812Y-80173118D01*
X152369502Y-80053420D01*
X152310537Y-79943106D01*
X152231185Y-79846415D01*
X152197951Y-79819141D01*
X152265892Y-79751200D01*
X152288889Y-79751200D01*
X152469529Y-79715268D01*
X152639689Y-79644786D01*
X152706001Y-79600478D01*
X152706001Y-80264867D01*
G36*
X152430152Y-77785289D02*
G01*
X152430153Y-77785289D01*
X152465028Y-77788724D01*
X152499903Y-77785289D01*
X152706000Y-77785289D01*
X152706000Y-78031922D01*
X152639689Y-77987614D01*
X152469529Y-77917132D01*
X152376402Y-77898608D01*
X152376402Y-77779995D01*
X152430152Y-77785289D01*
X152430152Y-77785289D01*
G37*
X152430152Y-77785289D02*
X152430153Y-77785289D01*
X152465028Y-77788724D01*
X152499903Y-77785289D01*
X152706000Y-77785289D01*
X152706000Y-78031922D01*
X152639689Y-77987614D01*
X152469529Y-77917132D01*
X152376402Y-77898608D01*
X152376402Y-77779995D01*
X152430152Y-77785289D01*
G36*
X152854209Y-68151332D02*
G01*
X152781000Y-68519374D01*
X152781000Y-68894626D01*
X152854209Y-69262668D01*
X152997811Y-69609356D01*
X153206290Y-69921366D01*
X153218060Y-69933136D01*
X153139463Y-70028906D01*
X153080498Y-70139220D01*
X153044188Y-70258918D01*
X153031928Y-70383400D01*
X153031928Y-72110600D01*
X153044188Y-72235082D01*
X153080498Y-72354780D01*
X153139463Y-72465094D01*
X153218815Y-72561785D01*
X153315506Y-72641137D01*
X153425820Y-72700102D01*
X153487912Y-72718937D01*
X153335267Y-72884965D01*
X153182314Y-73136081D01*
X153081291Y-73412211D01*
X153078642Y-73427974D01*
X153199783Y-73660000D01*
X154559000Y-73660000D01*
X154559000Y-73640000D01*
X154813000Y-73640000D01*
X154813000Y-73660000D01*
X154833000Y-73660000D01*
X154833000Y-73914000D01*
X154813000Y-73914000D01*
X154813000Y-73934000D01*
X154559000Y-73934000D01*
X154559000Y-73914000D01*
X153199783Y-73914000D01*
X153078642Y-74146026D01*
X153081291Y-74161789D01*
X153182314Y-74437919D01*
X153335267Y-74689035D01*
X153534271Y-74905486D01*
X153736947Y-75053576D01*
X153696994Y-75074931D01*
X153468803Y-75262203D01*
X153281531Y-75490394D01*
X153142375Y-75750736D01*
X153056684Y-76033223D01*
X153027749Y-76327000D01*
X153031520Y-76365289D01*
X152759121Y-76365289D01*
X152376247Y-75982416D01*
X152373330Y-75495150D01*
X152214580Y-75336400D01*
X150964900Y-75336400D01*
X150964900Y-75356400D01*
X150710900Y-75356400D01*
X150710900Y-75336400D01*
X150690900Y-75336400D01*
X150690900Y-75082400D01*
X150710900Y-75082400D01*
X150710900Y-73934320D01*
X150964900Y-73934320D01*
X150964900Y-75082400D01*
X152214580Y-75082400D01*
X152373330Y-74923650D01*
X152376402Y-74410570D01*
X152364142Y-74286088D01*
X152327832Y-74166390D01*
X152268867Y-74056076D01*
X152189515Y-73959385D01*
X152092824Y-73880033D01*
X151982510Y-73821068D01*
X151862812Y-73784758D01*
X151738330Y-73772498D01*
X151123650Y-73775570D01*
X150964900Y-73934320D01*
X150710900Y-73934320D01*
X150552150Y-73775570D01*
X149937470Y-73772498D01*
X149812988Y-73784758D01*
X149693290Y-73821068D01*
X149582976Y-73880033D01*
X149555200Y-73902828D01*
X149527424Y-73880033D01*
X149417110Y-73821068D01*
X149297412Y-73784758D01*
X149172930Y-73772498D01*
X147372070Y-73772498D01*
X147247588Y-73784758D01*
X147127890Y-73821068D01*
X147017576Y-73880033D01*
X146978488Y-73912112D01*
X146923924Y-73867333D01*
X146813610Y-73808368D01*
X146693912Y-73772058D01*
X146569430Y-73759798D01*
X144768570Y-73759798D01*
X144644088Y-73772058D01*
X144524390Y-73808368D01*
X144414076Y-73867333D01*
X144373600Y-73900551D01*
X144333124Y-73867333D01*
X144222810Y-73808368D01*
X144103112Y-73772058D01*
X143978630Y-73759798D01*
X143363950Y-73762870D01*
X143205200Y-73921620D01*
X143205200Y-75069700D01*
X143225200Y-75069700D01*
X143225200Y-75323700D01*
X143205200Y-75323700D01*
X143205200Y-75343700D01*
X142951200Y-75343700D01*
X142951200Y-75323700D01*
X142931200Y-75323700D01*
X142931200Y-75069700D01*
X142951200Y-75069700D01*
X142951200Y-73921620D01*
X142792450Y-73762870D01*
X142177770Y-73759798D01*
X142053288Y-73772058D01*
X141933590Y-73808368D01*
X141823276Y-73867333D01*
X141748150Y-73928987D01*
X141748150Y-71599027D01*
X143065037Y-71599027D01*
X143163036Y-71875978D01*
X143313183Y-72128488D01*
X143509707Y-72346854D01*
X143745056Y-72522684D01*
X144010186Y-72649222D01*
X144160974Y-72694958D01*
X144393000Y-72573817D01*
X144393000Y-71367000D01*
X143185536Y-71367000D01*
X143065037Y-71599027D01*
X141748150Y-71599027D01*
X141748150Y-70075941D01*
X142394392Y-69429700D01*
X143210788Y-69429700D01*
X143267931Y-69536606D01*
X143455203Y-69764797D01*
X143683394Y-69952069D01*
X143723433Y-69973470D01*
X143509707Y-70133146D01*
X143313183Y-70351512D01*
X143163036Y-70604022D01*
X143065037Y-70880973D01*
X143185536Y-71113000D01*
X144393000Y-71113000D01*
X144393000Y-71093000D01*
X144647000Y-71093000D01*
X144647000Y-71113000D01*
X144667000Y-71113000D01*
X144667000Y-71367000D01*
X144647000Y-71367000D01*
X144647000Y-72573817D01*
X144879026Y-72694958D01*
X145029814Y-72649222D01*
X145294944Y-72522684D01*
X145530293Y-72346854D01*
X145726817Y-72128488D01*
X145784137Y-72032090D01*
X145807931Y-72076606D01*
X145995203Y-72304797D01*
X146223394Y-72492069D01*
X146483736Y-72631225D01*
X146766223Y-72716916D01*
X146986381Y-72738600D01*
X147133619Y-72738600D01*
X147353777Y-72716916D01*
X147636264Y-72631225D01*
X147896606Y-72492069D01*
X147921526Y-72471617D01*
X148061400Y-72611491D01*
X148061400Y-72634489D01*
X148097332Y-72815129D01*
X148167814Y-72985289D01*
X148270138Y-73138428D01*
X148400372Y-73268662D01*
X148553511Y-73370986D01*
X148723671Y-73441468D01*
X148904311Y-73477400D01*
X149088489Y-73477400D01*
X149269129Y-73441468D01*
X149439289Y-73370986D01*
X149592428Y-73268662D01*
X149722662Y-73138428D01*
X149824986Y-72985289D01*
X149895468Y-72815129D01*
X149916367Y-72710063D01*
X150176264Y-72631225D01*
X150436606Y-72492069D01*
X150664797Y-72304797D01*
X150852069Y-72076606D01*
X150991225Y-71816264D01*
X151076916Y-71533777D01*
X151105851Y-71240000D01*
X151076916Y-70946223D01*
X150991225Y-70663736D01*
X150852069Y-70403394D01*
X150664797Y-70175203D01*
X150656735Y-70168586D01*
X150707780Y-70153102D01*
X150818094Y-70094137D01*
X150914785Y-70014785D01*
X150994137Y-69918094D01*
X151053102Y-69807780D01*
X151089412Y-69688082D01*
X151101672Y-69563600D01*
X151101672Y-67945000D01*
X152939674Y-67945000D01*
X152854209Y-68151332D01*
X152854209Y-68151332D01*
G37*
X152854209Y-68151332D02*
X152781000Y-68519374D01*
X152781000Y-68894626D01*
X152854209Y-69262668D01*
X152997811Y-69609356D01*
X153206290Y-69921366D01*
X153218060Y-69933136D01*
X153139463Y-70028906D01*
X153080498Y-70139220D01*
X153044188Y-70258918D01*
X153031928Y-70383400D01*
X153031928Y-72110600D01*
X153044188Y-72235082D01*
X153080498Y-72354780D01*
X153139463Y-72465094D01*
X153218815Y-72561785D01*
X153315506Y-72641137D01*
X153425820Y-72700102D01*
X153487912Y-72718937D01*
X153335267Y-72884965D01*
X153182314Y-73136081D01*
X153081291Y-73412211D01*
X153078642Y-73427974D01*
X153199783Y-73660000D01*
X154559000Y-73660000D01*
X154559000Y-73640000D01*
X154813000Y-73640000D01*
X154813000Y-73660000D01*
X154833000Y-73660000D01*
X154833000Y-73914000D01*
X154813000Y-73914000D01*
X154813000Y-73934000D01*
X154559000Y-73934000D01*
X154559000Y-73914000D01*
X153199783Y-73914000D01*
X153078642Y-74146026D01*
X153081291Y-74161789D01*
X153182314Y-74437919D01*
X153335267Y-74689035D01*
X153534271Y-74905486D01*
X153736947Y-75053576D01*
X153696994Y-75074931D01*
X153468803Y-75262203D01*
X153281531Y-75490394D01*
X153142375Y-75750736D01*
X153056684Y-76033223D01*
X153027749Y-76327000D01*
X153031520Y-76365289D01*
X152759121Y-76365289D01*
X152376247Y-75982416D01*
X152373330Y-75495150D01*
X152214580Y-75336400D01*
X150964900Y-75336400D01*
X150964900Y-75356400D01*
X150710900Y-75356400D01*
X150710900Y-75336400D01*
X150690900Y-75336400D01*
X150690900Y-75082400D01*
X150710900Y-75082400D01*
X150710900Y-73934320D01*
X150964900Y-73934320D01*
X150964900Y-75082400D01*
X152214580Y-75082400D01*
X152373330Y-74923650D01*
X152376402Y-74410570D01*
X152364142Y-74286088D01*
X152327832Y-74166390D01*
X152268867Y-74056076D01*
X152189515Y-73959385D01*
X152092824Y-73880033D01*
X151982510Y-73821068D01*
X151862812Y-73784758D01*
X151738330Y-73772498D01*
X151123650Y-73775570D01*
X150964900Y-73934320D01*
X150710900Y-73934320D01*
X150552150Y-73775570D01*
X149937470Y-73772498D01*
X149812988Y-73784758D01*
X149693290Y-73821068D01*
X149582976Y-73880033D01*
X149555200Y-73902828D01*
X149527424Y-73880033D01*
X149417110Y-73821068D01*
X149297412Y-73784758D01*
X149172930Y-73772498D01*
X147372070Y-73772498D01*
X147247588Y-73784758D01*
X147127890Y-73821068D01*
X147017576Y-73880033D01*
X146978488Y-73912112D01*
X146923924Y-73867333D01*
X146813610Y-73808368D01*
X146693912Y-73772058D01*
X146569430Y-73759798D01*
X144768570Y-73759798D01*
X144644088Y-73772058D01*
X144524390Y-73808368D01*
X144414076Y-73867333D01*
X144373600Y-73900551D01*
X144333124Y-73867333D01*
X144222810Y-73808368D01*
X144103112Y-73772058D01*
X143978630Y-73759798D01*
X143363950Y-73762870D01*
X143205200Y-73921620D01*
X143205200Y-75069700D01*
X143225200Y-75069700D01*
X143225200Y-75323700D01*
X143205200Y-75323700D01*
X143205200Y-75343700D01*
X142951200Y-75343700D01*
X142951200Y-75323700D01*
X142931200Y-75323700D01*
X142931200Y-75069700D01*
X142951200Y-75069700D01*
X142951200Y-73921620D01*
X142792450Y-73762870D01*
X142177770Y-73759798D01*
X142053288Y-73772058D01*
X141933590Y-73808368D01*
X141823276Y-73867333D01*
X141748150Y-73928987D01*
X141748150Y-71599027D01*
X143065037Y-71599027D01*
X143163036Y-71875978D01*
X143313183Y-72128488D01*
X143509707Y-72346854D01*
X143745056Y-72522684D01*
X144010186Y-72649222D01*
X144160974Y-72694958D01*
X144393000Y-72573817D01*
X144393000Y-71367000D01*
X143185536Y-71367000D01*
X143065037Y-71599027D01*
X141748150Y-71599027D01*
X141748150Y-70075941D01*
X142394392Y-69429700D01*
X143210788Y-69429700D01*
X143267931Y-69536606D01*
X143455203Y-69764797D01*
X143683394Y-69952069D01*
X143723433Y-69973470D01*
X143509707Y-70133146D01*
X143313183Y-70351512D01*
X143163036Y-70604022D01*
X143065037Y-70880973D01*
X143185536Y-71113000D01*
X144393000Y-71113000D01*
X144393000Y-71093000D01*
X144647000Y-71093000D01*
X144647000Y-71113000D01*
X144667000Y-71113000D01*
X144667000Y-71367000D01*
X144647000Y-71367000D01*
X144647000Y-72573817D01*
X144879026Y-72694958D01*
X145029814Y-72649222D01*
X145294944Y-72522684D01*
X145530293Y-72346854D01*
X145726817Y-72128488D01*
X145784137Y-72032090D01*
X145807931Y-72076606D01*
X145995203Y-72304797D01*
X146223394Y-72492069D01*
X146483736Y-72631225D01*
X146766223Y-72716916D01*
X146986381Y-72738600D01*
X147133619Y-72738600D01*
X147353777Y-72716916D01*
X147636264Y-72631225D01*
X147896606Y-72492069D01*
X147921526Y-72471617D01*
X148061400Y-72611491D01*
X148061400Y-72634489D01*
X148097332Y-72815129D01*
X148167814Y-72985289D01*
X148270138Y-73138428D01*
X148400372Y-73268662D01*
X148553511Y-73370986D01*
X148723671Y-73441468D01*
X148904311Y-73477400D01*
X149088489Y-73477400D01*
X149269129Y-73441468D01*
X149439289Y-73370986D01*
X149592428Y-73268662D01*
X149722662Y-73138428D01*
X149824986Y-72985289D01*
X149895468Y-72815129D01*
X149916367Y-72710063D01*
X150176264Y-72631225D01*
X150436606Y-72492069D01*
X150664797Y-72304797D01*
X150852069Y-72076606D01*
X150991225Y-71816264D01*
X151076916Y-71533777D01*
X151105851Y-71240000D01*
X151076916Y-70946223D01*
X150991225Y-70663736D01*
X150852069Y-70403394D01*
X150664797Y-70175203D01*
X150656735Y-70168586D01*
X150707780Y-70153102D01*
X150818094Y-70094137D01*
X150914785Y-70014785D01*
X150994137Y-69918094D01*
X151053102Y-69807780D01*
X151089412Y-69688082D01*
X151101672Y-69563600D01*
X151101672Y-67945000D01*
X152939674Y-67945000D01*
X152854209Y-68151332D01*
M02*
