%TF.GenerationSoftware,KiCad,Pcbnew,5.99.0-unknown-9c2a260~88~ubuntu18.04.1*%
%TF.CreationDate,2020-04-14T17:14:38+02:00*%
%TF.ProjectId,BM64_adapter,424d3634-5f61-4646-9170-7465722e6b69,rev?*%
%TF.SameCoordinates,Original*%
%TF.FileFunction,Soldermask,Bot*%
%TF.FilePolarity,Negative*%
%FSLAX46Y46*%
G04 Gerber Fmt 4.6, Leading zero omitted, Abs format (unit mm)*
G04 Created by KiCad (PCBNEW 5.99.0-unknown-9c2a260~88~ubuntu18.04.1) date 2020-04-14 17:14:38*
%MOMM*%
%LPD*%
G01*
G04 APERTURE LIST*
%ADD10O,1.100000X1.650000*%
%ADD11O,1.350000X1.050000*%
%ADD12C,1.300000*%
%ADD13O,1.800000X1.800000*%
G04 APERTURE END LIST*
%TO.C,R7*%
G36*
G01*
X181091600Y-127542200D02*
X179791600Y-127542200D01*
G75*
G02*
X179741600Y-127492200I0J50000D01*
G01*
X179741600Y-125992200D01*
G75*
G02*
X179791600Y-125942200I50000J0D01*
G01*
X181091600Y-125942200D01*
G75*
G02*
X181141600Y-125992200I0J-50000D01*
G01*
X181141600Y-127492200D01*
G75*
G02*
X181091600Y-127542200I-50000J0D01*
G01*
G37*
G36*
G01*
X181091600Y-130242200D02*
X179791600Y-130242200D01*
G75*
G02*
X179741600Y-130192200I0J50000D01*
G01*
X179741600Y-128692200D01*
G75*
G02*
X179791600Y-128642200I50000J0D01*
G01*
X181091600Y-128642200D01*
G75*
G02*
X181141600Y-128692200I0J-50000D01*
G01*
X181141600Y-130192200D01*
G75*
G02*
X181091600Y-130242200I-50000J0D01*
G01*
G37*
%TD*%
%TO.C,C9*%
G36*
G01*
X181317800Y-120766800D02*
X179717800Y-120766800D01*
G75*
G02*
X179667800Y-120716800I0J50000D01*
G01*
X179667800Y-118716800D01*
G75*
G02*
X179717800Y-118666800I50000J0D01*
G01*
X181317800Y-118666800D01*
G75*
G02*
X181367800Y-118716800I0J-50000D01*
G01*
X181367800Y-120716800D01*
G75*
G02*
X181317800Y-120766800I-50000J0D01*
G01*
G37*
G36*
G01*
X181317800Y-124766800D02*
X179717800Y-124766800D01*
G75*
G02*
X179667800Y-124716800I0J50000D01*
G01*
X179667800Y-122716800D01*
G75*
G02*
X179717800Y-122666800I50000J0D01*
G01*
X181317800Y-122666800D01*
G75*
G02*
X181367800Y-122716800I0J-50000D01*
G01*
X181367800Y-124716800D01*
G75*
G02*
X181317800Y-124766800I-50000J0D01*
G01*
G37*
%TD*%
D10*
%TO.C,J3*%
X171901100Y-134843060D03*
X164901100Y-134843060D03*
D11*
X170901100Y-132143060D03*
X165901100Y-132143060D03*
%TD*%
%TO.C,R2*%
G36*
G01*
X169149000Y-128540600D02*
X170449000Y-128540600D01*
G75*
G02*
X170499000Y-128590600I0J-50000D01*
G01*
X170499000Y-130090600D01*
G75*
G02*
X170449000Y-130140600I-50000J0D01*
G01*
X169149000Y-130140600D01*
G75*
G02*
X169099000Y-130090600I0J50000D01*
G01*
X169099000Y-128590600D01*
G75*
G02*
X169149000Y-128540600I50000J0D01*
G01*
G37*
G36*
G01*
X169149000Y-125840600D02*
X170449000Y-125840600D01*
G75*
G02*
X170499000Y-125890600I0J-50000D01*
G01*
X170499000Y-127390600D01*
G75*
G02*
X170449000Y-127440600I-50000J0D01*
G01*
X169149000Y-127440600D01*
G75*
G02*
X169099000Y-127390600I0J50000D01*
G01*
X169099000Y-125890600D01*
G75*
G02*
X169149000Y-125840600I50000J0D01*
G01*
G37*
%TD*%
%TO.C,C2*%
G36*
G01*
X174002600Y-119573000D02*
X172402600Y-119573000D01*
G75*
G02*
X172352600Y-119523000I0J50000D01*
G01*
X172352600Y-117523000D01*
G75*
G02*
X172402600Y-117473000I50000J0D01*
G01*
X174002600Y-117473000D01*
G75*
G02*
X174052600Y-117523000I0J-50000D01*
G01*
X174052600Y-119523000D01*
G75*
G02*
X174002600Y-119573000I-50000J0D01*
G01*
G37*
G36*
G01*
X174002600Y-123573000D02*
X172402600Y-123573000D01*
G75*
G02*
X172352600Y-123523000I0J50000D01*
G01*
X172352600Y-121523000D01*
G75*
G02*
X172402600Y-121473000I50000J0D01*
G01*
X174002600Y-121473000D01*
G75*
G02*
X174052600Y-121523000I0J-50000D01*
G01*
X174052600Y-123523000D01*
G75*
G02*
X174002600Y-123573000I-50000J0D01*
G01*
G37*
%TD*%
%TO.C,C1*%
G36*
G01*
X167525800Y-121441000D02*
X169125800Y-121441000D01*
G75*
G02*
X169175800Y-121491000I0J-50000D01*
G01*
X169175800Y-123491000D01*
G75*
G02*
X169125800Y-123541000I-50000J0D01*
G01*
X167525800Y-123541000D01*
G75*
G02*
X167475800Y-123491000I0J50000D01*
G01*
X167475800Y-121491000D01*
G75*
G02*
X167525800Y-121441000I50000J0D01*
G01*
G37*
G36*
G01*
X167525800Y-117441000D02*
X169125800Y-117441000D01*
G75*
G02*
X169175800Y-117491000I0J-50000D01*
G01*
X169175800Y-119491000D01*
G75*
G02*
X169125800Y-119541000I-50000J0D01*
G01*
X167525800Y-119541000D01*
G75*
G02*
X167475800Y-119491000I0J50000D01*
G01*
X167475800Y-117491000D01*
G75*
G02*
X167525800Y-117441000I50000J0D01*
G01*
G37*
%TD*%
%TO.C,C12*%
G36*
G01*
X173819720Y-71037160D02*
X172219720Y-71037160D01*
G75*
G02*
X172169720Y-70987160I0J50000D01*
G01*
X172169720Y-68987160D01*
G75*
G02*
X172219720Y-68937160I50000J0D01*
G01*
X173819720Y-68937160D01*
G75*
G02*
X173869720Y-68987160I0J-50000D01*
G01*
X173869720Y-70987160D01*
G75*
G02*
X173819720Y-71037160I-50000J0D01*
G01*
G37*
G36*
G01*
X173819720Y-75037160D02*
X172219720Y-75037160D01*
G75*
G02*
X172169720Y-74987160I0J50000D01*
G01*
X172169720Y-72987160D01*
G75*
G02*
X172219720Y-72937160I50000J0D01*
G01*
X173819720Y-72937160D01*
G75*
G02*
X173869720Y-72987160I0J-50000D01*
G01*
X173869720Y-74987160D01*
G75*
G02*
X173819720Y-75037160I-50000J0D01*
G01*
G37*
%TD*%
D12*
%TO.C,U4*%
X177743600Y-132994400D03*
X183743600Y-132994400D03*
%TD*%
%TO.C,U3*%
X176420000Y-121716800D03*
X182420000Y-121716800D03*
%TD*%
%TO.C,U2*%
X169525200Y-124561600D03*
X163525200Y-124561600D03*
%TD*%
%TO.C,R9*%
G36*
G01*
X179039280Y-104856200D02*
X177739280Y-104856200D01*
G75*
G02*
X177689280Y-104806200I0J50000D01*
G01*
X177689280Y-103306200D01*
G75*
G02*
X177739280Y-103256200I50000J0D01*
G01*
X179039280Y-103256200D01*
G75*
G02*
X179089280Y-103306200I0J-50000D01*
G01*
X179089280Y-104806200D01*
G75*
G02*
X179039280Y-104856200I-50000J0D01*
G01*
G37*
G36*
G01*
X179039280Y-107556200D02*
X177739280Y-107556200D01*
G75*
G02*
X177689280Y-107506200I0J50000D01*
G01*
X177689280Y-106006200D01*
G75*
G02*
X177739280Y-105956200I50000J0D01*
G01*
X179039280Y-105956200D01*
G75*
G02*
X179089280Y-106006200I0J-50000D01*
G01*
X179089280Y-107506200D01*
G75*
G02*
X179039280Y-107556200I-50000J0D01*
G01*
G37*
%TD*%
%TO.C,R8*%
G36*
G01*
X169822100Y-105591700D02*
X171122100Y-105591700D01*
G75*
G02*
X171172100Y-105641700I0J-50000D01*
G01*
X171172100Y-107141700D01*
G75*
G02*
X171122100Y-107191700I-50000J0D01*
G01*
X169822100Y-107191700D01*
G75*
G02*
X169772100Y-107141700I0J50000D01*
G01*
X169772100Y-105641700D01*
G75*
G02*
X169822100Y-105591700I50000J0D01*
G01*
G37*
G36*
G01*
X169822100Y-102891700D02*
X171122100Y-102891700D01*
G75*
G02*
X171172100Y-102941700I0J-50000D01*
G01*
X171172100Y-104441700D01*
G75*
G02*
X171122100Y-104491700I-50000J0D01*
G01*
X169822100Y-104491700D01*
G75*
G02*
X169772100Y-104441700I0J50000D01*
G01*
X169772100Y-102941700D01*
G75*
G02*
X169822100Y-102891700I50000J0D01*
G01*
G37*
%TD*%
%TO.C,R6*%
G36*
G01*
X182255400Y-128642200D02*
X183555400Y-128642200D01*
G75*
G02*
X183605400Y-128692200I0J-50000D01*
G01*
X183605400Y-130192200D01*
G75*
G02*
X183555400Y-130242200I-50000J0D01*
G01*
X182255400Y-130242200D01*
G75*
G02*
X182205400Y-130192200I0J50000D01*
G01*
X182205400Y-128692200D01*
G75*
G02*
X182255400Y-128642200I50000J0D01*
G01*
G37*
G36*
G01*
X182255400Y-125942200D02*
X183555400Y-125942200D01*
G75*
G02*
X183605400Y-125992200I0J-50000D01*
G01*
X183605400Y-127492200D01*
G75*
G02*
X183555400Y-127542200I-50000J0D01*
G01*
X182255400Y-127542200D01*
G75*
G02*
X182205400Y-127492200I0J50000D01*
G01*
X182205400Y-125992200D01*
G75*
G02*
X182255400Y-125942200I50000J0D01*
G01*
G37*
%TD*%
%TO.C,R5*%
G36*
G01*
X166080200Y-127364400D02*
X164780200Y-127364400D01*
G75*
G02*
X164730200Y-127314400I0J50000D01*
G01*
X164730200Y-125814400D01*
G75*
G02*
X164780200Y-125764400I50000J0D01*
G01*
X166080200Y-125764400D01*
G75*
G02*
X166130200Y-125814400I0J-50000D01*
G01*
X166130200Y-127314400D01*
G75*
G02*
X166080200Y-127364400I-50000J0D01*
G01*
G37*
G36*
G01*
X166080200Y-130064400D02*
X164780200Y-130064400D01*
G75*
G02*
X164730200Y-130014400I0J50000D01*
G01*
X164730200Y-128514400D01*
G75*
G02*
X164780200Y-128464400I50000J0D01*
G01*
X166080200Y-128464400D01*
G75*
G02*
X166130200Y-128514400I0J-50000D01*
G01*
X166130200Y-130014400D01*
G75*
G02*
X166080200Y-130064400I-50000J0D01*
G01*
G37*
%TD*%
%TO.C,R4*%
G36*
G01*
X176214800Y-127618400D02*
X174914800Y-127618400D01*
G75*
G02*
X174864800Y-127568400I0J50000D01*
G01*
X174864800Y-126068400D01*
G75*
G02*
X174914800Y-126018400I50000J0D01*
G01*
X176214800Y-126018400D01*
G75*
G02*
X176264800Y-126068400I0J-50000D01*
G01*
X176264800Y-127568400D01*
G75*
G02*
X176214800Y-127618400I-50000J0D01*
G01*
G37*
G36*
G01*
X176214800Y-130318400D02*
X174914800Y-130318400D01*
G75*
G02*
X174864800Y-130268400I0J50000D01*
G01*
X174864800Y-128768400D01*
G75*
G02*
X174914800Y-128718400I50000J0D01*
G01*
X176214800Y-128718400D01*
G75*
G02*
X176264800Y-128768400I0J-50000D01*
G01*
X176264800Y-130268400D01*
G75*
G02*
X176214800Y-130318400I-50000J0D01*
G01*
G37*
%TD*%
%TO.C,R3*%
G36*
G01*
X177378600Y-128743800D02*
X178678600Y-128743800D01*
G75*
G02*
X178728600Y-128793800I0J-50000D01*
G01*
X178728600Y-130293800D01*
G75*
G02*
X178678600Y-130343800I-50000J0D01*
G01*
X177378600Y-130343800D01*
G75*
G02*
X177328600Y-130293800I0J50000D01*
G01*
X177328600Y-128793800D01*
G75*
G02*
X177378600Y-128743800I50000J0D01*
G01*
G37*
G36*
G01*
X177378600Y-126043800D02*
X178678600Y-126043800D01*
G75*
G02*
X178728600Y-126093800I0J-50000D01*
G01*
X178728600Y-127593800D01*
G75*
G02*
X178678600Y-127643800I-50000J0D01*
G01*
X177378600Y-127643800D01*
G75*
G02*
X177328600Y-127593800I0J50000D01*
G01*
X177328600Y-126093800D01*
G75*
G02*
X177378600Y-126043800I50000J0D01*
G01*
G37*
%TD*%
%TO.C,R1*%
G36*
G01*
X168264600Y-127389800D02*
X166964600Y-127389800D01*
G75*
G02*
X166914600Y-127339800I0J50000D01*
G01*
X166914600Y-125839800D01*
G75*
G02*
X166964600Y-125789800I50000J0D01*
G01*
X168264600Y-125789800D01*
G75*
G02*
X168314600Y-125839800I0J-50000D01*
G01*
X168314600Y-127339800D01*
G75*
G02*
X168264600Y-127389800I-50000J0D01*
G01*
G37*
G36*
G01*
X168264600Y-130089800D02*
X166964600Y-130089800D01*
G75*
G02*
X166914600Y-130039800I0J50000D01*
G01*
X166914600Y-128539800D01*
G75*
G02*
X166964600Y-128489800I50000J0D01*
G01*
X168264600Y-128489800D01*
G75*
G02*
X168314600Y-128539800I0J-50000D01*
G01*
X168314600Y-130039800D01*
G75*
G02*
X168264600Y-130089800I-50000J0D01*
G01*
G37*
%TD*%
%TO.C,J2*%
G36*
G01*
X184520000Y-66890000D02*
X184520000Y-65190000D01*
G75*
G02*
X184570000Y-65140000I50000J0D01*
G01*
X186270000Y-65140000D01*
G75*
G02*
X186320000Y-65190000I0J-50000D01*
G01*
X186320000Y-66890000D01*
G75*
G02*
X186270000Y-66940000I-50000J0D01*
G01*
X184570000Y-66940000D01*
G75*
G02*
X184520000Y-66890000I0J50000D01*
G01*
G37*
D13*
X185420000Y-68580000D03*
X185420000Y-71120000D03*
X185420000Y-73660000D03*
X185420000Y-76200000D03*
X185420000Y-78740000D03*
X185420000Y-81280000D03*
X185420000Y-83820000D03*
X185420000Y-86360000D03*
X185420000Y-88900000D03*
X185420000Y-91440000D03*
X185420000Y-93980000D03*
X185420000Y-96520000D03*
X185420000Y-99060000D03*
X185420000Y-101600000D03*
X185420000Y-104140000D03*
X185420000Y-106680000D03*
X185420000Y-109220000D03*
X185420000Y-111760000D03*
X185420000Y-114300000D03*
X185420000Y-116840000D03*
%TD*%
%TO.C,J1*%
G36*
G01*
X161660000Y-66890000D02*
X161660000Y-65190000D01*
G75*
G02*
X161710000Y-65140000I50000J0D01*
G01*
X163410000Y-65140000D01*
G75*
G02*
X163460000Y-65190000I0J-50000D01*
G01*
X163460000Y-66890000D01*
G75*
G02*
X163410000Y-66940000I-50000J0D01*
G01*
X161710000Y-66940000D01*
G75*
G02*
X161660000Y-66890000I0J50000D01*
G01*
G37*
X162560000Y-68580000D03*
X162560000Y-71120000D03*
X162560000Y-73660000D03*
X162560000Y-76200000D03*
X162560000Y-78740000D03*
X162560000Y-81280000D03*
X162560000Y-83820000D03*
X162560000Y-86360000D03*
X162560000Y-88900000D03*
X162560000Y-91440000D03*
X162560000Y-93980000D03*
X162560000Y-96520000D03*
X162560000Y-99060000D03*
X162560000Y-101600000D03*
X162560000Y-104140000D03*
X162560000Y-106680000D03*
X162560000Y-109220000D03*
X162560000Y-111760000D03*
X162560000Y-114300000D03*
X162560000Y-116840000D03*
X162560000Y-119380000D03*
%TD*%
%TO.C,C11*%
G36*
G01*
X176308920Y-71006680D02*
X174708920Y-71006680D01*
G75*
G02*
X174658920Y-70956680I0J50000D01*
G01*
X174658920Y-68956680D01*
G75*
G02*
X174708920Y-68906680I50000J0D01*
G01*
X176308920Y-68906680D01*
G75*
G02*
X176358920Y-68956680I0J-50000D01*
G01*
X176358920Y-70956680D01*
G75*
G02*
X176308920Y-71006680I-50000J0D01*
G01*
G37*
G36*
G01*
X176308920Y-75006680D02*
X174708920Y-75006680D01*
G75*
G02*
X174658920Y-74956680I0J50000D01*
G01*
X174658920Y-72956680D01*
G75*
G02*
X174708920Y-72906680I50000J0D01*
G01*
X176308920Y-72906680D01*
G75*
G02*
X176358920Y-72956680I0J-50000D01*
G01*
X176358920Y-74956680D01*
G75*
G02*
X176308920Y-75006680I-50000J0D01*
G01*
G37*
%TD*%
%TO.C,C10*%
G36*
G01*
X178767640Y-71064080D02*
X177167640Y-71064080D01*
G75*
G02*
X177117640Y-71014080I0J50000D01*
G01*
X177117640Y-69014080D01*
G75*
G02*
X177167640Y-68964080I50000J0D01*
G01*
X178767640Y-68964080D01*
G75*
G02*
X178817640Y-69014080I0J-50000D01*
G01*
X178817640Y-71014080D01*
G75*
G02*
X178767640Y-71064080I-50000J0D01*
G01*
G37*
G36*
G01*
X178767640Y-75064080D02*
X177167640Y-75064080D01*
G75*
G02*
X177117640Y-75014080I0J50000D01*
G01*
X177117640Y-73014080D01*
G75*
G02*
X177167640Y-72964080I50000J0D01*
G01*
X178767640Y-72964080D01*
G75*
G02*
X178817640Y-73014080I0J-50000D01*
G01*
X178817640Y-75014080D01*
G75*
G02*
X178767640Y-75064080I-50000J0D01*
G01*
G37*
%TD*%
%TO.C,C8*%
G36*
G01*
X179006400Y-120766800D02*
X177406400Y-120766800D01*
G75*
G02*
X177356400Y-120716800I0J50000D01*
G01*
X177356400Y-118716800D01*
G75*
G02*
X177406400Y-118666800I50000J0D01*
G01*
X179006400Y-118666800D01*
G75*
G02*
X179056400Y-118716800I0J-50000D01*
G01*
X179056400Y-120716800D01*
G75*
G02*
X179006400Y-120766800I-50000J0D01*
G01*
G37*
G36*
G01*
X179006400Y-124766800D02*
X177406400Y-124766800D01*
G75*
G02*
X177356400Y-124716800I0J50000D01*
G01*
X177356400Y-122716800D01*
G75*
G02*
X177406400Y-122666800I50000J0D01*
G01*
X179006400Y-122666800D01*
G75*
G02*
X179056400Y-122716800I0J-50000D01*
G01*
X179056400Y-124716800D01*
G75*
G02*
X179006400Y-124766800I-50000J0D01*
G01*
G37*
%TD*%
%TO.C,C7*%
G36*
G01*
X183756200Y-120792200D02*
X182156200Y-120792200D01*
G75*
G02*
X182106200Y-120742200I0J50000D01*
G01*
X182106200Y-118742200D01*
G75*
G02*
X182156200Y-118692200I50000J0D01*
G01*
X183756200Y-118692200D01*
G75*
G02*
X183806200Y-118742200I0J-50000D01*
G01*
X183806200Y-120742200D01*
G75*
G02*
X183756200Y-120792200I-50000J0D01*
G01*
G37*
G36*
G01*
X183756200Y-124792200D02*
X182156200Y-124792200D01*
G75*
G02*
X182106200Y-124742200I0J50000D01*
G01*
X182106200Y-122742200D01*
G75*
G02*
X182156200Y-122692200I50000J0D01*
G01*
X183756200Y-122692200D01*
G75*
G02*
X183806200Y-122742200I0J-50000D01*
G01*
X183806200Y-124742200D01*
G75*
G02*
X183756200Y-124792200I-50000J0D01*
G01*
G37*
%TD*%
%TO.C,C6*%
G36*
G01*
X174815600Y-122768400D02*
X176415600Y-122768400D01*
G75*
G02*
X176465600Y-122818400I0J-50000D01*
G01*
X176465600Y-124818400D01*
G75*
G02*
X176415600Y-124868400I-50000J0D01*
G01*
X174815600Y-124868400D01*
G75*
G02*
X174765600Y-124818400I0J50000D01*
G01*
X174765600Y-122818400D01*
G75*
G02*
X174815600Y-122768400I50000J0D01*
G01*
G37*
G36*
G01*
X174815600Y-118768400D02*
X176415600Y-118768400D01*
G75*
G02*
X176465600Y-118818400I0J-50000D01*
G01*
X176465600Y-120818400D01*
G75*
G02*
X176415600Y-120868400I-50000J0D01*
G01*
X174815600Y-120868400D01*
G75*
G02*
X174765600Y-120818400I0J50000D01*
G01*
X174765600Y-118818400D01*
G75*
G02*
X174815600Y-118768400I50000J0D01*
G01*
G37*
%TD*%
%TO.C,C5*%
G36*
G01*
X171615000Y-119566400D02*
X170015000Y-119566400D01*
G75*
G02*
X169965000Y-119516400I0J50000D01*
G01*
X169965000Y-117516400D01*
G75*
G02*
X170015000Y-117466400I50000J0D01*
G01*
X171615000Y-117466400D01*
G75*
G02*
X171665000Y-117516400I0J-50000D01*
G01*
X171665000Y-119516400D01*
G75*
G02*
X171615000Y-119566400I-50000J0D01*
G01*
G37*
G36*
G01*
X171615000Y-123566400D02*
X170015000Y-123566400D01*
G75*
G02*
X169965000Y-123516400I0J50000D01*
G01*
X169965000Y-121516400D01*
G75*
G02*
X170015000Y-121466400I50000J0D01*
G01*
X171615000Y-121466400D01*
G75*
G02*
X171665000Y-121516400I0J-50000D01*
G01*
X171665000Y-123516400D01*
G75*
G02*
X171615000Y-123566400I-50000J0D01*
G01*
G37*
%TD*%
%TO.C,C4*%
G36*
G01*
X171228920Y-71006680D02*
X169628920Y-71006680D01*
G75*
G02*
X169578920Y-70956680I0J50000D01*
G01*
X169578920Y-68956680D01*
G75*
G02*
X169628920Y-68906680I50000J0D01*
G01*
X171228920Y-68906680D01*
G75*
G02*
X171278920Y-68956680I0J-50000D01*
G01*
X171278920Y-70956680D01*
G75*
G02*
X171228920Y-71006680I-50000J0D01*
G01*
G37*
G36*
G01*
X171228920Y-75006680D02*
X169628920Y-75006680D01*
G75*
G02*
X169578920Y-74956680I0J50000D01*
G01*
X169578920Y-72956680D01*
G75*
G02*
X169628920Y-72906680I50000J0D01*
G01*
X171228920Y-72906680D01*
G75*
G02*
X171278920Y-72956680I0J-50000D01*
G01*
X171278920Y-74956680D01*
G75*
G02*
X171228920Y-75006680I-50000J0D01*
G01*
G37*
%TD*%
%TO.C,C3*%
G36*
G01*
X166636600Y-119515600D02*
X165036600Y-119515600D01*
G75*
G02*
X164986600Y-119465600I0J50000D01*
G01*
X164986600Y-117465600D01*
G75*
G02*
X165036600Y-117415600I50000J0D01*
G01*
X166636600Y-117415600D01*
G75*
G02*
X166686600Y-117465600I0J-50000D01*
G01*
X166686600Y-119465600D01*
G75*
G02*
X166636600Y-119515600I-50000J0D01*
G01*
G37*
G36*
G01*
X166636600Y-123515600D02*
X165036600Y-123515600D01*
G75*
G02*
X164986600Y-123465600I0J50000D01*
G01*
X164986600Y-121465600D01*
G75*
G02*
X165036600Y-121415600I50000J0D01*
G01*
X166636600Y-121415600D01*
G75*
G02*
X166686600Y-121465600I0J-50000D01*
G01*
X166686600Y-123465600D01*
G75*
G02*
X166636600Y-123515600I-50000J0D01*
G01*
G37*
%TD*%
M02*
