%TF.GenerationSoftware,KiCad,Pcbnew,5.99.0-unknown-9c2a260~88~ubuntu18.04.1*%
%TF.CreationDate,2020-04-14T17:14:38+02:00*%
%TF.ProjectId,BM64_adapter,424d3634-5f61-4646-9170-7465722e6b69,rev?*%
%TF.SameCoordinates,Original*%
%TF.FileFunction,Legend,Bot*%
%TF.FilePolarity,Positive*%
%FSLAX46Y46*%
G04 Gerber Fmt 4.6, Leading zero omitted, Abs format (unit mm)*
G04 Created by KiCad (PCBNEW 5.99.0-unknown-9c2a260~88~ubuntu18.04.1) date 2020-04-14 17:14:38*
%MOMM*%
%LPD*%
G01*
G04 APERTURE LIST*
%ADD10C,0.150000*%
G04 APERTURE END LIST*
D10*
%TO.C,R7*%
X181316600Y-128692200D02*
X181316600Y-127492200D01*
X179566600Y-127492200D02*
X179566600Y-128692200D01*
%TO.C,C9*%
X179492800Y-122716800D02*
X179492800Y-120716800D01*
X181542800Y-120716800D02*
X181542800Y-122716800D01*
%TO.C,R2*%
X168924000Y-127390600D02*
X168924000Y-128590600D01*
X170674000Y-128590600D02*
X170674000Y-127390600D01*
%TO.C,C2*%
X172177600Y-121523000D02*
X172177600Y-119523000D01*
X174227600Y-119523000D02*
X174227600Y-121523000D01*
%TO.C,C1*%
X169350800Y-119491000D02*
X169350800Y-121491000D01*
X167300800Y-121491000D02*
X167300800Y-119491000D01*
%TO.C,C12*%
X171994720Y-72987160D02*
X171994720Y-70987160D01*
X174044720Y-70987160D02*
X174044720Y-72987160D01*
%TO.C,R9*%
X179264280Y-106006200D02*
X179264280Y-104806200D01*
X177514280Y-104806200D02*
X177514280Y-106006200D01*
%TO.C,R8*%
X169597100Y-104441700D02*
X169597100Y-105641700D01*
X171347100Y-105641700D02*
X171347100Y-104441700D01*
%TO.C,R6*%
X182030400Y-127492200D02*
X182030400Y-128692200D01*
X183780400Y-128692200D02*
X183780400Y-127492200D01*
%TO.C,R5*%
X166305200Y-128514400D02*
X166305200Y-127314400D01*
X164555200Y-127314400D02*
X164555200Y-128514400D01*
%TO.C,R4*%
X176439800Y-128768400D02*
X176439800Y-127568400D01*
X174689800Y-127568400D02*
X174689800Y-128768400D01*
%TO.C,R3*%
X177153600Y-127593800D02*
X177153600Y-128793800D01*
X178903600Y-128793800D02*
X178903600Y-127593800D01*
%TO.C,R1*%
X168489600Y-128539800D02*
X168489600Y-127339800D01*
X166739600Y-127339800D02*
X166739600Y-128539800D01*
%TO.C,C11*%
X174483920Y-72956680D02*
X174483920Y-70956680D01*
X176533920Y-70956680D02*
X176533920Y-72956680D01*
%TO.C,C10*%
X176942640Y-73014080D02*
X176942640Y-71014080D01*
X178992640Y-71014080D02*
X178992640Y-73014080D01*
%TO.C,C8*%
X177181400Y-122716800D02*
X177181400Y-120716800D01*
X179231400Y-120716800D02*
X179231400Y-122716800D01*
%TO.C,C7*%
X181931200Y-122742200D02*
X181931200Y-120742200D01*
X183981200Y-120742200D02*
X183981200Y-122742200D01*
%TO.C,C6*%
X176640600Y-120818400D02*
X176640600Y-122818400D01*
X174590600Y-122818400D02*
X174590600Y-120818400D01*
%TO.C,C5*%
X169790000Y-121516400D02*
X169790000Y-119516400D01*
X171840000Y-119516400D02*
X171840000Y-121516400D01*
%TO.C,C4*%
X169403920Y-72956680D02*
X169403920Y-70956680D01*
X171453920Y-70956680D02*
X171453920Y-72956680D01*
%TO.C,C3*%
X164811600Y-121465600D02*
X164811600Y-119465600D01*
X166861600Y-119465600D02*
X166861600Y-121465600D01*
%TO.C,R7*%
X180709866Y-131774180D02*
X181043200Y-131297990D01*
X181281295Y-131774180D02*
X181281295Y-130774180D01*
X180900342Y-130774180D01*
X180805104Y-130821800D01*
X180757485Y-130869419D01*
X180709866Y-130964657D01*
X180709866Y-131107514D01*
X180757485Y-131202752D01*
X180805104Y-131250371D01*
X180900342Y-131297990D01*
X181281295Y-131297990D01*
X180376533Y-130774180D02*
X179709866Y-130774180D01*
X180138438Y-131774180D01*
%TO.C,C9*%
X180608266Y-117787442D02*
X180655885Y-117835061D01*
X180798742Y-117882680D01*
X180893980Y-117882680D01*
X181036838Y-117835061D01*
X181132076Y-117739823D01*
X181179695Y-117644585D01*
X181227314Y-117454109D01*
X181227314Y-117311252D01*
X181179695Y-117120776D01*
X181132076Y-117025538D01*
X181036838Y-116930300D01*
X180893980Y-116882680D01*
X180798742Y-116882680D01*
X180655885Y-116930300D01*
X180608266Y-116977919D01*
X180132076Y-117882680D02*
X179941600Y-117882680D01*
X179846361Y-117835061D01*
X179798742Y-117787442D01*
X179703504Y-117644585D01*
X179655885Y-117454109D01*
X179655885Y-117073157D01*
X179703504Y-116977919D01*
X179751123Y-116930300D01*
X179846361Y-116882680D01*
X180036838Y-116882680D01*
X180132076Y-116930300D01*
X180179695Y-116977919D01*
X180227314Y-117073157D01*
X180227314Y-117311252D01*
X180179695Y-117406490D01*
X180132076Y-117454109D01*
X180036838Y-117501728D01*
X179846361Y-117501728D01*
X179751123Y-117454109D01*
X179703504Y-117406490D01*
X179655885Y-117311252D01*
%TO.C,R2*%
X170054566Y-131846580D02*
X170387900Y-131370390D01*
X170625995Y-131846580D02*
X170625995Y-130846580D01*
X170245042Y-130846580D01*
X170149804Y-130894200D01*
X170102185Y-130941819D01*
X170054566Y-131037057D01*
X170054566Y-131179914D01*
X170102185Y-131275152D01*
X170149804Y-131322771D01*
X170245042Y-131370390D01*
X170625995Y-131370390D01*
X169673614Y-130941819D02*
X169625995Y-130894200D01*
X169530757Y-130846580D01*
X169292661Y-130846580D01*
X169197423Y-130894200D01*
X169149804Y-130941819D01*
X169102185Y-131037057D01*
X169102185Y-131132295D01*
X169149804Y-131275152D01*
X169721233Y-131846580D01*
X169102185Y-131846580D01*
%TO.C,C2*%
X173506426Y-116430562D02*
X173554045Y-116478181D01*
X173696902Y-116525800D01*
X173792140Y-116525800D01*
X173934998Y-116478181D01*
X174030236Y-116382943D01*
X174077855Y-116287705D01*
X174125474Y-116097229D01*
X174125474Y-115954372D01*
X174077855Y-115763896D01*
X174030236Y-115668658D01*
X173934998Y-115573420D01*
X173792140Y-115525800D01*
X173696902Y-115525800D01*
X173554045Y-115573420D01*
X173506426Y-115621039D01*
X173125474Y-115621039D02*
X173077855Y-115573420D01*
X172982617Y-115525800D01*
X172744521Y-115525800D01*
X172649283Y-115573420D01*
X172601664Y-115621039D01*
X172554045Y-115716277D01*
X172554045Y-115811515D01*
X172601664Y-115954372D01*
X173173093Y-116525800D01*
X172554045Y-116525800D01*
%TO.C,C1*%
X168451826Y-116626662D02*
X168499445Y-116674281D01*
X168642302Y-116721900D01*
X168737540Y-116721900D01*
X168880398Y-116674281D01*
X168975636Y-116579043D01*
X169023255Y-116483805D01*
X169070874Y-116293329D01*
X169070874Y-116150472D01*
X169023255Y-115959996D01*
X168975636Y-115864758D01*
X168880398Y-115769520D01*
X168737540Y-115721900D01*
X168642302Y-115721900D01*
X168499445Y-115769520D01*
X168451826Y-115817139D01*
X167499445Y-116721900D02*
X168070874Y-116721900D01*
X167785160Y-116721900D02*
X167785160Y-115721900D01*
X167880398Y-115864758D01*
X167975636Y-115959996D01*
X168070874Y-116007615D01*
%TO.C,C12*%
X173637177Y-76479422D02*
X173684796Y-76527041D01*
X173827653Y-76574660D01*
X173922891Y-76574660D01*
X174065748Y-76527041D01*
X174160986Y-76431803D01*
X174208605Y-76336565D01*
X174256224Y-76146089D01*
X174256224Y-76003232D01*
X174208605Y-75812756D01*
X174160986Y-75717518D01*
X174065748Y-75622280D01*
X173922891Y-75574660D01*
X173827653Y-75574660D01*
X173684796Y-75622280D01*
X173637177Y-75669899D01*
X172684796Y-76574660D02*
X173256224Y-76574660D01*
X172970510Y-76574660D02*
X172970510Y-75574660D01*
X173065748Y-75717518D01*
X173160986Y-75812756D01*
X173256224Y-75860375D01*
X172303843Y-75669899D02*
X172256224Y-75622280D01*
X172160986Y-75574660D01*
X171922891Y-75574660D01*
X171827653Y-75622280D01*
X171780034Y-75669899D01*
X171732415Y-75765137D01*
X171732415Y-75860375D01*
X171780034Y-76003232D01*
X172351462Y-76574660D01*
X171732415Y-76574660D01*
%TO.C,R9*%
X178641546Y-109214220D02*
X178974880Y-108738030D01*
X179212975Y-109214220D02*
X179212975Y-108214220D01*
X178832022Y-108214220D01*
X178736784Y-108261840D01*
X178689165Y-108309459D01*
X178641546Y-108404697D01*
X178641546Y-108547554D01*
X178689165Y-108642792D01*
X178736784Y-108690411D01*
X178832022Y-108738030D01*
X179212975Y-108738030D01*
X178165356Y-109214220D02*
X177974880Y-109214220D01*
X177879641Y-109166601D01*
X177832022Y-109118982D01*
X177736784Y-108976125D01*
X177689165Y-108785649D01*
X177689165Y-108404697D01*
X177736784Y-108309459D01*
X177784403Y-108261840D01*
X177879641Y-108214220D01*
X178070118Y-108214220D01*
X178165356Y-108261840D01*
X178212975Y-108309459D01*
X178260594Y-108404697D01*
X178260594Y-108642792D01*
X178212975Y-108738030D01*
X178165356Y-108785649D01*
X178070118Y-108833268D01*
X177879641Y-108833268D01*
X177784403Y-108785649D01*
X177736784Y-108738030D01*
X177689165Y-108642792D01*
%TO.C,R8*%
X168824480Y-104875033D02*
X168348290Y-104541700D01*
X168824480Y-104303604D02*
X167824480Y-104303604D01*
X167824480Y-104684557D01*
X167872100Y-104779795D01*
X167919719Y-104827414D01*
X168014957Y-104875033D01*
X168157814Y-104875033D01*
X168253052Y-104827414D01*
X168300671Y-104779795D01*
X168348290Y-104684557D01*
X168348290Y-104303604D01*
X168253052Y-105446461D02*
X168205433Y-105351223D01*
X168157814Y-105303604D01*
X168062576Y-105255985D01*
X168014957Y-105255985D01*
X167919719Y-105303604D01*
X167872100Y-105351223D01*
X167824480Y-105446461D01*
X167824480Y-105636938D01*
X167872100Y-105732176D01*
X167919719Y-105779795D01*
X168014957Y-105827414D01*
X168062576Y-105827414D01*
X168157814Y-105779795D01*
X168205433Y-105732176D01*
X168253052Y-105636938D01*
X168253052Y-105446461D01*
X168300671Y-105351223D01*
X168348290Y-105303604D01*
X168443528Y-105255985D01*
X168634004Y-105255985D01*
X168729242Y-105303604D01*
X168776861Y-105351223D01*
X168824480Y-105446461D01*
X168824480Y-105636938D01*
X168776861Y-105732176D01*
X168729242Y-105779795D01*
X168634004Y-105827414D01*
X168443528Y-105827414D01*
X168348290Y-105779795D01*
X168300671Y-105732176D01*
X168253052Y-105636938D01*
%TO.C,R6*%
X183173666Y-131922780D02*
X183507000Y-131446590D01*
X183745095Y-131922780D02*
X183745095Y-130922780D01*
X183364142Y-130922780D01*
X183268904Y-130970400D01*
X183221285Y-131018019D01*
X183173666Y-131113257D01*
X183173666Y-131256114D01*
X183221285Y-131351352D01*
X183268904Y-131398971D01*
X183364142Y-131446590D01*
X183745095Y-131446590D01*
X182316523Y-130922780D02*
X182507000Y-130922780D01*
X182602238Y-130970400D01*
X182649857Y-131018019D01*
X182745095Y-131160876D01*
X182792714Y-131351352D01*
X182792714Y-131732304D01*
X182745095Y-131827542D01*
X182697476Y-131875161D01*
X182602238Y-131922780D01*
X182411761Y-131922780D01*
X182316523Y-131875161D01*
X182268904Y-131827542D01*
X182221285Y-131732304D01*
X182221285Y-131494209D01*
X182268904Y-131398971D01*
X182316523Y-131351352D01*
X182411761Y-131303733D01*
X182602238Y-131303733D01*
X182697476Y-131351352D01*
X182745095Y-131398971D01*
X182792714Y-131494209D01*
%TO.C,R5*%
X165775626Y-131782620D02*
X166108960Y-131306430D01*
X166347055Y-131782620D02*
X166347055Y-130782620D01*
X165966102Y-130782620D01*
X165870864Y-130830240D01*
X165823245Y-130877859D01*
X165775626Y-130973097D01*
X165775626Y-131115954D01*
X165823245Y-131211192D01*
X165870864Y-131258811D01*
X165966102Y-131306430D01*
X166347055Y-131306430D01*
X164870864Y-130782620D02*
X165347055Y-130782620D01*
X165394674Y-131258811D01*
X165347055Y-131211192D01*
X165251817Y-131163573D01*
X165013721Y-131163573D01*
X164918483Y-131211192D01*
X164870864Y-131258811D01*
X164823245Y-131354049D01*
X164823245Y-131592144D01*
X164870864Y-131687382D01*
X164918483Y-131735001D01*
X165013721Y-131782620D01*
X165251817Y-131782620D01*
X165347055Y-131735001D01*
X165394674Y-131687382D01*
%TO.C,R4*%
X175528266Y-132049780D02*
X175861600Y-131573590D01*
X176099695Y-132049780D02*
X176099695Y-131049780D01*
X175718742Y-131049780D01*
X175623504Y-131097400D01*
X175575885Y-131145019D01*
X175528266Y-131240257D01*
X175528266Y-131383114D01*
X175575885Y-131478352D01*
X175623504Y-131525971D01*
X175718742Y-131573590D01*
X176099695Y-131573590D01*
X174671123Y-131383114D02*
X174671123Y-132049780D01*
X174909219Y-131002161D02*
X175147314Y-131716447D01*
X174528266Y-131716447D01*
%TO.C,R3*%
X178525466Y-131998980D02*
X178858800Y-131522790D01*
X179096895Y-131998980D02*
X179096895Y-130998980D01*
X178715942Y-130998980D01*
X178620704Y-131046600D01*
X178573085Y-131094219D01*
X178525466Y-131189457D01*
X178525466Y-131332314D01*
X178573085Y-131427552D01*
X178620704Y-131475171D01*
X178715942Y-131522790D01*
X179096895Y-131522790D01*
X178192133Y-130998980D02*
X177573085Y-130998980D01*
X177906419Y-131379933D01*
X177763561Y-131379933D01*
X177668323Y-131427552D01*
X177620704Y-131475171D01*
X177573085Y-131570409D01*
X177573085Y-131808504D01*
X177620704Y-131903742D01*
X177668323Y-131951361D01*
X177763561Y-131998980D01*
X178049276Y-131998980D01*
X178144514Y-131951361D01*
X178192133Y-131903742D01*
%TO.C,R1*%
X167781266Y-131744980D02*
X168114600Y-131268790D01*
X168352695Y-131744980D02*
X168352695Y-130744980D01*
X167971742Y-130744980D01*
X167876504Y-130792600D01*
X167828885Y-130840219D01*
X167781266Y-130935457D01*
X167781266Y-131078314D01*
X167828885Y-131173552D01*
X167876504Y-131221171D01*
X167971742Y-131268790D01*
X168352695Y-131268790D01*
X166828885Y-131744980D02*
X167400314Y-131744980D01*
X167114600Y-131744980D02*
X167114600Y-130744980D01*
X167209838Y-130887838D01*
X167305076Y-130983076D01*
X167400314Y-131030695D01*
%TO.C,C11*%
X176126377Y-76716662D02*
X176173996Y-76764281D01*
X176316853Y-76811900D01*
X176412091Y-76811900D01*
X176554948Y-76764281D01*
X176650186Y-76669043D01*
X176697805Y-76573805D01*
X176745424Y-76383329D01*
X176745424Y-76240472D01*
X176697805Y-76049996D01*
X176650186Y-75954758D01*
X176554948Y-75859520D01*
X176412091Y-75811900D01*
X176316853Y-75811900D01*
X176173996Y-75859520D01*
X176126377Y-75907139D01*
X175173996Y-76811900D02*
X175745424Y-76811900D01*
X175459710Y-76811900D02*
X175459710Y-75811900D01*
X175554948Y-75954758D01*
X175650186Y-76049996D01*
X175745424Y-76097615D01*
X174221615Y-76811900D02*
X174793043Y-76811900D01*
X174507329Y-76811900D02*
X174507329Y-75811900D01*
X174602567Y-75954758D01*
X174697805Y-76049996D01*
X174793043Y-76097615D01*
%TO.C,C10*%
X178661297Y-76670422D02*
X178708916Y-76718041D01*
X178851773Y-76765660D01*
X178947011Y-76765660D01*
X179089868Y-76718041D01*
X179185106Y-76622803D01*
X179232725Y-76527565D01*
X179280344Y-76337089D01*
X179280344Y-76194232D01*
X179232725Y-76003756D01*
X179185106Y-75908518D01*
X179089868Y-75813280D01*
X178947011Y-75765660D01*
X178851773Y-75765660D01*
X178708916Y-75813280D01*
X178661297Y-75860899D01*
X177708916Y-76765660D02*
X178280344Y-76765660D01*
X177994630Y-76765660D02*
X177994630Y-75765660D01*
X178089868Y-75908518D01*
X178185106Y-76003756D01*
X178280344Y-76051375D01*
X177089868Y-75765660D02*
X176994630Y-75765660D01*
X176899392Y-75813280D01*
X176851773Y-75860899D01*
X176804154Y-75956137D01*
X176756535Y-76146613D01*
X176756535Y-76384708D01*
X176804154Y-76575184D01*
X176851773Y-76670422D01*
X176899392Y-76718041D01*
X176994630Y-76765660D01*
X177089868Y-76765660D01*
X177185106Y-76718041D01*
X177232725Y-76670422D01*
X177280344Y-76575184D01*
X177327963Y-76384708D01*
X177327963Y-76146613D01*
X177280344Y-75956137D01*
X177232725Y-75860899D01*
X177185106Y-75813280D01*
X177089868Y-75765660D01*
%TO.C,C8*%
X178281626Y-117894622D02*
X178329245Y-117942241D01*
X178472102Y-117989860D01*
X178567340Y-117989860D01*
X178710198Y-117942241D01*
X178805436Y-117847003D01*
X178853055Y-117751765D01*
X178900674Y-117561289D01*
X178900674Y-117418432D01*
X178853055Y-117227956D01*
X178805436Y-117132718D01*
X178710198Y-117037480D01*
X178567340Y-116989860D01*
X178472102Y-116989860D01*
X178329245Y-117037480D01*
X178281626Y-117085099D01*
X177710198Y-117418432D02*
X177805436Y-117370813D01*
X177853055Y-117323194D01*
X177900674Y-117227956D01*
X177900674Y-117180337D01*
X177853055Y-117085099D01*
X177805436Y-117037480D01*
X177710198Y-116989860D01*
X177519721Y-116989860D01*
X177424483Y-117037480D01*
X177376864Y-117085099D01*
X177329245Y-117180337D01*
X177329245Y-117227956D01*
X177376864Y-117323194D01*
X177424483Y-117370813D01*
X177519721Y-117418432D01*
X177710198Y-117418432D01*
X177805436Y-117466051D01*
X177853055Y-117513670D01*
X177900674Y-117608908D01*
X177900674Y-117799384D01*
X177853055Y-117894622D01*
X177805436Y-117942241D01*
X177710198Y-117989860D01*
X177519721Y-117989860D01*
X177424483Y-117942241D01*
X177376864Y-117894622D01*
X177329245Y-117799384D01*
X177329245Y-117608908D01*
X177376864Y-117513670D01*
X177424483Y-117466051D01*
X177519721Y-117418432D01*
%TO.C,C7*%
X182899346Y-117988102D02*
X182946965Y-118035721D01*
X183089822Y-118083340D01*
X183185060Y-118083340D01*
X183327918Y-118035721D01*
X183423156Y-117940483D01*
X183470775Y-117845245D01*
X183518394Y-117654769D01*
X183518394Y-117511912D01*
X183470775Y-117321436D01*
X183423156Y-117226198D01*
X183327918Y-117130960D01*
X183185060Y-117083340D01*
X183089822Y-117083340D01*
X182946965Y-117130960D01*
X182899346Y-117178579D01*
X182566013Y-117083340D02*
X181899346Y-117083340D01*
X182327918Y-118083340D01*
%TO.C,C6*%
X175731466Y-117933742D02*
X175779085Y-117981361D01*
X175921942Y-118028980D01*
X176017180Y-118028980D01*
X176160038Y-117981361D01*
X176255276Y-117886123D01*
X176302895Y-117790885D01*
X176350514Y-117600409D01*
X176350514Y-117457552D01*
X176302895Y-117267076D01*
X176255276Y-117171838D01*
X176160038Y-117076600D01*
X176017180Y-117028980D01*
X175921942Y-117028980D01*
X175779085Y-117076600D01*
X175731466Y-117124219D01*
X174874323Y-117028980D02*
X175064800Y-117028980D01*
X175160038Y-117076600D01*
X175207657Y-117124219D01*
X175302895Y-117267076D01*
X175350514Y-117457552D01*
X175350514Y-117838504D01*
X175302895Y-117933742D01*
X175255276Y-117981361D01*
X175160038Y-118028980D01*
X174969561Y-118028980D01*
X174874323Y-117981361D01*
X174826704Y-117933742D01*
X174779085Y-117838504D01*
X174779085Y-117600409D01*
X174826704Y-117505171D01*
X174874323Y-117457552D01*
X174969561Y-117409933D01*
X175160038Y-117409933D01*
X175255276Y-117457552D01*
X175302895Y-117505171D01*
X175350514Y-117600409D01*
%TO.C,C5*%
X171108666Y-116726742D02*
X171156285Y-116774361D01*
X171299142Y-116821980D01*
X171394380Y-116821980D01*
X171537238Y-116774361D01*
X171632476Y-116679123D01*
X171680095Y-116583885D01*
X171727714Y-116393409D01*
X171727714Y-116250552D01*
X171680095Y-116060076D01*
X171632476Y-115964838D01*
X171537238Y-115869600D01*
X171394380Y-115821980D01*
X171299142Y-115821980D01*
X171156285Y-115869600D01*
X171108666Y-115917219D01*
X170203904Y-115821980D02*
X170680095Y-115821980D01*
X170727714Y-116298171D01*
X170680095Y-116250552D01*
X170584857Y-116202933D01*
X170346761Y-116202933D01*
X170251523Y-116250552D01*
X170203904Y-116298171D01*
X170156285Y-116393409D01*
X170156285Y-116631504D01*
X170203904Y-116726742D01*
X170251523Y-116774361D01*
X170346761Y-116821980D01*
X170584857Y-116821980D01*
X170680095Y-116774361D01*
X170727714Y-116726742D01*
%TO.C,C4*%
X170539706Y-67760622D02*
X170587325Y-67808241D01*
X170730182Y-67855860D01*
X170825420Y-67855860D01*
X170968278Y-67808241D01*
X171063516Y-67713003D01*
X171111135Y-67617765D01*
X171158754Y-67427289D01*
X171158754Y-67284432D01*
X171111135Y-67093956D01*
X171063516Y-66998718D01*
X170968278Y-66903480D01*
X170825420Y-66855860D01*
X170730182Y-66855860D01*
X170587325Y-66903480D01*
X170539706Y-66951099D01*
X169682563Y-67189194D02*
X169682563Y-67855860D01*
X169920659Y-66808241D02*
X170158754Y-67522527D01*
X169539706Y-67522527D01*
%TO.C,C3*%
X165927066Y-116707942D02*
X165974685Y-116755561D01*
X166117542Y-116803180D01*
X166212780Y-116803180D01*
X166355638Y-116755561D01*
X166450876Y-116660323D01*
X166498495Y-116565085D01*
X166546114Y-116374609D01*
X166546114Y-116231752D01*
X166498495Y-116041276D01*
X166450876Y-115946038D01*
X166355638Y-115850800D01*
X166212780Y-115803180D01*
X166117542Y-115803180D01*
X165974685Y-115850800D01*
X165927066Y-115898419D01*
X165593733Y-115803180D02*
X164974685Y-115803180D01*
X165308019Y-116184133D01*
X165165161Y-116184133D01*
X165069923Y-116231752D01*
X165022304Y-116279371D01*
X164974685Y-116374609D01*
X164974685Y-116612704D01*
X165022304Y-116707942D01*
X165069923Y-116755561D01*
X165165161Y-116803180D01*
X165450876Y-116803180D01*
X165546114Y-116755561D01*
X165593733Y-116707942D01*
%TD*%
M02*
