M48
; DRILL file {KiCad 5.99.0-unknown-9c2a260~88~ubuntu18.04.1} date Tue Apr 14 17:14:40 2020
; FORMAT={-:-/ absolute / metric / decimal}
; #@! TF.CreationDate,2020-04-14T17:14:40+02:00
; #@! TF.GenerationSoftware,Kicad,Pcbnew,5.99.0-unknown-9c2a260~88~ubuntu18.04.1
FMAT,2
METRIC
T1C0.400
T2C0.500
T3C0.550
T4C1.000
T5C1.200
%
G90
G05
T1
X163.652Y-126.035
X165.36Y-101.895
X165.361Y-85.075
X165.402Y-86.38
X165.928Y-88.435
X165.966Y-99.598
X166.388Y-101.382
X166.461Y-98.207
X167.244Y-93.983
X167.262Y-91.138
X167.371Y-101.079
X167.889Y-110.937
X167.894Y-75.463
X167.945Y-73.127
X167.945Y-82.677
X167.97Y-79.019
X167.996Y-76.657
X167.996Y-81.382
X168.006Y-113.421
X168.148Y-70.587
X168.173Y-68.224
X168.773Y-80.274
X168.966Y-64.851
X169.896Y-82.301
X169.962Y-72.146
X170.282Y-108.128
X170.294Y-102.133
X170.642Y-83.495
X170.815Y-67.442
X170.923Y-124.492
X171.48Y-77.582
X171.668Y-71.892
X171.76Y-97.607
X171.78Y-90.607
X172.085Y-128.321
X172.222Y-115.839
X172.994Y-76.119
X174.163Y-115.87
X174.401Y-64.724
X174.595Y-83.683
X174.879Y-67.488
X175.402Y-106.751
X175.631Y-82.453
X176.149Y-125.578
X176.24Y-108.387
X176.738Y-71.958
X176.804Y-103.749
X176.977Y-79.69
X176.977Y-89.007
X177.145Y-109.291
X177.764Y-67.467
X177.79Y-97.77
X178.029Y-135.809
X178.344Y-64.831
X178.368Y-105.492
X178.384Y-102.108
X178.816Y-125.451
X178.913Y-99.106
X179.672Y-76.444
X179.675Y-114.833
X179.705Y-80.239
X179.73Y-77.902
X179.73Y-91.45
X179.857Y-73.076
X180.7Y-110.088
X180.746Y-116.012
X180.797Y-108.966
X181.026Y-121.285
X181.104Y-103.499
X181.559Y-89.007
X181.564Y-99.278
X181.732Y-115.458
X181.93Y-101.615
X182.077Y-87.208
X182.606Y-112.974
X182.702Y-125.374
X184.287Y-136.83
T4
X162.56Y-66.04
X162.56Y-68.58
X162.56Y-71.12
X162.56Y-73.66
X162.56Y-76.2
X162.56Y-78.74
X162.56Y-81.28
X162.56Y-83.82
X162.56Y-86.36
X162.56Y-88.9
X162.56Y-91.44
X162.56Y-93.98
X162.56Y-96.52
X162.56Y-99.06
X162.56Y-101.6
X162.56Y-104.14
X162.56Y-106.68
X162.56Y-109.22
X162.56Y-111.76
X162.56Y-114.3
X162.56Y-116.84
X162.56Y-119.38
X185.42Y-66.04
X185.42Y-68.58
X185.42Y-71.12
X185.42Y-73.66
X185.42Y-76.2
X185.42Y-78.74
X185.42Y-81.28
X185.42Y-83.82
X185.42Y-86.36
X185.42Y-88.9
X185.42Y-91.44
X185.42Y-93.98
X185.42Y-96.52
X185.42Y-99.06
X185.42Y-101.6
X185.42Y-104.14
X185.42Y-106.68
X185.42Y-109.22
X185.42Y-111.76
X185.42Y-114.3
X185.42Y-116.84
T5
X176.42Y-121.717
X182.42Y-121.717
X163.525Y-124.562
X169.525Y-124.562
X177.744Y-132.994
X183.744Y-132.994
T2
G00X164.901Y-135.168
M15
G01X164.901Y-134.518
M16
G05
G00X171.901Y-135.168
M15
G01X171.901Y-134.518
M16
G05
T3
G00X165.751Y-132.143
M15
G01X166.051Y-132.143
M16
G05
G00X170.751Y-132.143
M15
G01X171.051Y-132.143
M16
G05
T0
M30
