%TF.GenerationSoftware,KiCad,Pcbnew,5.99.0-unknown-9c2a260~88~ubuntu18.04.1*%
%TF.CreationDate,2020-04-14T17:14:38+02:00*%
%TF.ProjectId,BM64_adapter,424d3634-5f61-4646-9170-7465722e6b69,rev?*%
%TF.SameCoordinates,Original*%
%TF.FileFunction,Paste,Bot*%
%TF.FilePolarity,Positive*%
%FSLAX46Y46*%
G04 Gerber Fmt 4.6, Leading zero omitted, Abs format (unit mm)*
G04 Created by KiCad (PCBNEW 5.99.0-unknown-9c2a260~88~ubuntu18.04.1) date 2020-04-14 17:14:38*
%MOMM*%
%LPD*%
G01*
G04 APERTURE LIST*
%ADD10R,1.300000X1.500000*%
%ADD11R,1.600000X2.000000*%
G04 APERTURE END LIST*
D10*
%TO.C,R7*%
X180441600Y-126742200D03*
X180441600Y-129442200D03*
%TD*%
D11*
%TO.C,C9*%
X180517800Y-119716800D03*
X180517800Y-123716800D03*
%TD*%
D10*
%TO.C,R2*%
X169799000Y-129340600D03*
X169799000Y-126640600D03*
%TD*%
D11*
%TO.C,C2*%
X173202600Y-118523000D03*
X173202600Y-122523000D03*
%TD*%
%TO.C,C1*%
X168325800Y-122491000D03*
X168325800Y-118491000D03*
%TD*%
%TO.C,C12*%
X173019720Y-69987160D03*
X173019720Y-73987160D03*
%TD*%
D10*
%TO.C,R9*%
X178389280Y-104056200D03*
X178389280Y-106756200D03*
%TD*%
%TO.C,R8*%
X170472100Y-106391700D03*
X170472100Y-103691700D03*
%TD*%
%TO.C,R6*%
X182905400Y-129442200D03*
X182905400Y-126742200D03*
%TD*%
%TO.C,R5*%
X165430200Y-126564400D03*
X165430200Y-129264400D03*
%TD*%
%TO.C,R4*%
X175564800Y-126818400D03*
X175564800Y-129518400D03*
%TD*%
%TO.C,R3*%
X178028600Y-129543800D03*
X178028600Y-126843800D03*
%TD*%
%TO.C,R1*%
X167614600Y-126589800D03*
X167614600Y-129289800D03*
%TD*%
D11*
%TO.C,C11*%
X175508920Y-69956680D03*
X175508920Y-73956680D03*
%TD*%
%TO.C,C10*%
X177967640Y-70014080D03*
X177967640Y-74014080D03*
%TD*%
%TO.C,C8*%
X178206400Y-119716800D03*
X178206400Y-123716800D03*
%TD*%
%TO.C,C7*%
X182956200Y-119742200D03*
X182956200Y-123742200D03*
%TD*%
%TO.C,C6*%
X175615600Y-123818400D03*
X175615600Y-119818400D03*
%TD*%
%TO.C,C5*%
X170815000Y-118516400D03*
X170815000Y-122516400D03*
%TD*%
%TO.C,C4*%
X170428920Y-69956680D03*
X170428920Y-73956680D03*
%TD*%
%TO.C,C3*%
X165836600Y-118465600D03*
X165836600Y-122465600D03*
%TD*%
M02*
