<?xml version="1.0" encoding="UTF-8" standalone="no"?>
<svg
   xmlns:dc="http://purl.org/dc/elements/1.1/"
   xmlns:cc="http://creativecommons.org/ns#"
   xmlns:rdf="http://www.w3.org/1999/02/22-rdf-syntax-ns#"
   xmlns:svg="http://www.w3.org/2000/svg"
   xmlns="http://www.w3.org/2000/svg"
   xmlns:sodipodi="http://sodipodi.sourceforge.net/DTD/sodipodi-0.dtd"
   xmlns:inkscape="http://www.inkscape.org/namespaces/inkscape"
   version="1.1"
   width="2.3114cm"
   height="5.04952cm"
   viewBox="0 0 9100 19880 "
   id="svg2"
   inkscape:version="0.91 r13725"
   sodipodi:docname="arduino_nanoPB-B_Fab.svg">
  <metadata
     id="metadata464">
    <rdf:RDF>
      <cc:Work
         rdf:about="">
        <dc:format>image/svg+xml</dc:format>
        <dc:type
           rdf:resource="http://purl.org/dc/dcmitype/StillImage" />
      </cc:Work>
    </rdf:RDF>
  </metadata>
  <defs
     id="defs462" />
  <sodipodi:namedview
     pagecolor="#ffffff"
     bordercolor="#666666"
     borderopacity="1"
     objecttolerance="10"
     gridtolerance="10"
     guidetolerance="10"
     inkscape:pageopacity="0"
     inkscape:pageshadow="2"
     inkscape:window-width="1855"
     inkscape:window-height="1056"
     id="namedview460"
     showgrid="false"
     inkscape:zoom="4.8381434"
     inkscape:cx="-9.3792242"
     inkscape:cy="89.46"
     inkscape:window-x="65"
     inkscape:window-y="24"
     inkscape:window-maximized="1"
     inkscape:current-layer="svg2" />
  <title
     id="title4">SVG Picture created as arduino_nanoPB-B_Fab.svg date 2019/05/10 10:53:15 </title>
  <desc
     id="desc6">Picture generated by PCBNEW </desc>
  <g
     style="fill:#000000; fill-opacity:1;stroke:#000000; stroke-opacity:1; stroke-linecap:round; stroke-linejoin:round; "
     transform="translate(0 0) scale(1 1)"
     id="g8" />
  <g
     style="fill:#000000; fill-opacity:0.0;  stroke:#000000; stroke-width:-0.000393701; stroke-opacity:1;  stroke-linecap:round; stroke-linejoin:round;"
     id="g10" />
  <g
     id="g4592">
    <g
       id="g12"
       style="fill:#000000; fill-opacity:0.0;  stroke:#000000; stroke-width:59.0551; stroke-opacity:1;  stroke-linecap:round; stroke-linejoin:round;">
      <path
         id="path14"
         d="M2445 15244 L2445 16504 " />
      <path
         id="path16"
         d="M2445 16504 L3075 16504 " />
      <path
         id="path18"
         d="M3075 16504 L3075 15244 " />
      <path
         id="path20"
         d="M3075 15244 L2445 15244 " />
      <g
         id="g22" />
      <g
         id="g24" />
      <g
         id="g26" />
      <g
         id="g28" />
      <g
         id="g30" />
      <g
         id="g32" />
      <g
         id="g34" />
      <g
         id="g36" />
      <g
         id="g38" />
      <g
         id="g40" />
      <g
         id="g42" />
      <g
         id="g44" />
      <g
         id="g46" />
      <g
         id="g48" />
      <g
         id="g50" />
      <g
         id="g52" />
      <g
         id="g54" />
      <g
         id="g56" />
      <g
         id="g58" />
      <g
         id="g60" />
      <g
         id="g62" />
      <g
         id="g64" />
      <g
         id="g66" />
      <g
         id="g68" />
      <g
         id="g70" />
      <g
         id="g72" />
      <g
         id="g74" />
      <g
         id="g76" />
      <g
         id="g78" />
      <g
         id="g80" />
      <g
         id="g82" />
      <g
         id="g84" />
      <g
         id="g86" />
      <g
         id="g88" />
      <g
         id="g90" />
      <g
         id="g92" />
      <g
         id="g94" />
      <g
         id="g96" />
      <g
         id="g98" />
      <g
         id="g100" />
      <g
         id="g102" />
      <g
         id="g104" />
      <g
         id="g106" />
      <g
         id="g108" />
      <g
         id="g110" />
    </g>
    <g
       id="g112"
       style="fill:#000000; fill-opacity:0.0;  stroke:#000000; stroke-width:39.3701; stroke-opacity:1;  stroke-linecap:round; stroke-linejoin:round;">
      <path
         id="path114"
         d="M4472 13356 L4487 13341 L4502 13296 L4502 13266 L4487 13221 L4457 13191 L4427 13176 L4367 13161 L4322 13161 L4262 13176 L4232 13191 L4202 13221 L4187 13266 L4187 13296 L4202 13341 L4217 13356 " />
      <path
         id="path116"
         d="M4502 13491 L4187 13491 L4187 13611 L4202 13641 L4217 13656 L4247 13671 L4292 13671 L4322 13656 L4337 13641 L4352 13611 L4352 13491 " />
      <path
         id="path118"
         d="M4217 13791 L4202 13806 L4187 13836 L4187 13911 L4202 13941 L4217 13956 L4247 13971 L4277 13971 L4322 13956 L4502 13776 L4502 13971 " />
      <path
         id="path120"
         d="M4502 14271 L4502 14091 " />
      <path
         id="path122"
         d="M4502 14181 L4187 14181 L4232 14151 L4262 14121 L4277 14091 " />
      <path
         id="path124"
         d="M4187 14466 L4187 14496 L4202 14526 L4217 14541 L4247 14556 L4307 14571 L4382 14571 L4442 14556 L4472 14541 L4487 14526 L4502 14496 L4502 14466 L4487 14436 L4472 14421 L4442 14406 L4382 14391 L4307 14391 L4247 14406 L4217 14421 L4202 14436 L4187 14466 " />
      <path
         id="path126"
         d="M4217 14691 L4202 14706 L4187 14736 L4187 14811 L4202 14841 L4217 14856 L4247 14871 L4277 14871 L4322 14856 L4502 14676 L4502 14871 " />
      <path
         id="path128"
         d="M6177 11689 L6147 11689 L6117 11704 L6102 11719 L6087 11749 L6072 11809 L6072 11884 L6087 11944 L6102 11974 L6117 11989 L6147 12004 L6177 12004 L6207 11989 L6222 11974 L6237 11944 L6252 11884 L6252 11809 L6237 11749 L6222 11719 L6207 11704 L6177 11689 " />
      <path
         id="path130"
         d="M5937 11974 L5922 11989 L5937 12004 L5952 11989 L5937 11974 L5937 12004 " />
      <path
         id="path132"
         d="M5622 12004 L5802 12004 " />
      <path
         id="path134"
         d="M5712 12004 L5712 11689 L5742 11734 L5772 11764 L5802 11779 " />
      <path
         id="path136"
         d="M5488 12004 L5488 11794 " />
      <path
         id="path138"
         d="M5488 11824 L5473 11809 L5443 11794 L5398 11794 L5368 11809 L5353 11839 L5353 12004 " />
      <path
         id="path140"
         d="M5353 11839 L5338 11809 L5308 11794 L5263 11794 L5233 11809 L5218 11839 L5218 12004 " />
      <path
         id="path142"
         d="M4090 6184 L4060 6184 L4030 6199 L4015 6214 L4000 6244 L3985 6304 L3985 6379 L4000 6439 L4015 6469 L4030 6484 L4060 6499 L4090 6499 L4120 6484 L4135 6469 L4150 6439 L4165 6379 L4165 6304 L4150 6244 L4135 6214 L4120 6199 L4090 6184 " />
      <path
         id="path144"
         d="M3850 6469 L3835 6484 L3850 6499 L3865 6484 L3850 6469 L3850 6499 " />
      <path
         id="path146"
         d="M3535 6499 L3715 6499 " />
      <path
         id="path148"
         d="M3625 6499 L3625 6184 L3655 6229 L3685 6259 L3715 6274 " />
      <path
         id="path150"
         d="M3400 6499 L3400 6289 " />
      <path
         id="path152"
         d="M3400 6319 L3385 6304 L3355 6289 L3310 6289 L3280 6304 L3265 6334 L3265 6499 " />
      <path
         id="path154"
         d="M3265 6334 L3250 6304 L3220 6289 L3175 6289 L3145 6304 L3130 6334 L3130 6499 " />
      <path
         id="path156"
         d="M4070 2804 L4040 2804 L4010 2819 L3995 2834 L3980 2864 L3965 2924 L3965 2999 L3980 3059 L3995 3089 L4010 3104 L4040 3119 L4070 3119 L4100 3104 L4115 3089 L4130 3059 L4145 2999 L4145 2924 L4130 2864 L4115 2834 L4100 2819 L4070 2804 " />
      <path
         id="path158"
         d="M3830 3089 L3815 3104 L3830 3119 L3845 3104 L3830 3089 L3830 3119 " />
      <path
         id="path160"
         d="M3515 3119 L3695 3119 " />
      <path
         id="path162"
         d="M3605 3119 L3605 2804 L3635 2849 L3665 2879 L3695 2894 " />
      <path
         id="path164"
         d="M3380 3119 L3380 2909 " />
      <path
         id="path166"
         d="M3380 2939 L3365 2924 L3335 2909 L3290 2909 L3260 2924 L3245 2954 L3245 3119 " />
      <path
         id="path168"
         d="M3245 2954 L3230 2924 L3200 2909 L3155 2909 L3125 2924 L3110 2954 L3110 3119 " />
      <path
         id="path170"
         d="M6210 10524 L6180 10524 L6150 10539 L6135 10554 L6120 10584 L6105 10644 L6105 10719 L6120 10779 L6135 10809 L6150 10824 L6180 10839 L6210 10839 L6240 10824 L6255 10809 L6270 10779 L6285 10719 L6285 10644 L6270 10584 L6255 10554 L6240 10539 L6210 10524 " />
      <path
         id="path172"
         d="M5970 10809 L5955 10824 L5970 10839 L5985 10824 L5970 10809 L5970 10839 " />
      <path
         id="path174"
         d="M5655 10839 L5835 10839 " />
      <path
         id="path176"
         d="M5745 10839 L5745 10524 L5775 10569 L5805 10599 L5835 10614 " />
      <path
         id="path178"
         d="M5520 10839 L5520 10629 " />
      <path
         id="path180"
         d="M5520 10659 L5505 10644 L5475 10629 L5430 10629 L5400 10644 L5385 10674 L5385 10839 " />
      <path
         id="path182"
         d="M5385 10674 L5370 10644 L5340 10629 L5295 10629 L5265 10644 L5250 10674 L5250 10839 " />
      <path
         id="path184"
         d="M5770 2784 L5740 2784 L5710 2799 L5695 2814 L5680 2844 L5665 2904 L5665 2979 L5680 3039 L5695 3069 L5710 3084 L5740 3099 L5770 3099 L5800 3084 L5815 3069 L5830 3039 L5845 2979 L5845 2904 L5830 2844 L5815 2814 L5800 2799 L5770 2784 " />
      <path
         id="path186"
         d="M5530 3069 L5515 3084 L5530 3099 L5545 3084 L5530 3069 L5530 3099 " />
      <path
         id="path188"
         d="M5215 3099 L5395 3099 " />
      <path
         id="path190"
         d="M5305 3099 L5305 2784 L5335 2829 L5365 2859 L5395 2874 " />
      <path
         id="path192"
         d="M5080 3099 L5080 2889 " />
      <path
         id="path194"
         d="M5080 2919 L5065 2904 L5035 2889 L4990 2889 L4960 2904 L4945 2934 L4945 3099 " />
      <path
         id="path196"
         d="M4945 2934 L4930 2904 L4900 2889 L4855 2889 L4825 2904 L4810 2934 L4810 3099 " />
      <path
         id="path198"
         d="M3781 9645 L3751 9645 L3721 9660 L3706 9675 L3691 9705 L3676 9765 L3676 9840 L3691 9900 L3706 9930 L3721 9945 L3751 9960 L3781 9960 L3811 9945 L3826 9930 L3841 9900 L3856 9840 L3856 9765 L3841 9705 L3826 9675 L3811 9660 L3781 9645 " />
      <path
         id="path200"
         d="M3541 9930 L3526 9945 L3541 9960 L3556 9945 L3541 9930 L3541 9960 " />
      <path
         id="path202"
         d="M3226 9960 L3406 9960 " />
      <path
         id="path204"
         d="M3316 9960 L3316 9645 L3346 9690 L3376 9720 L3406 9735 " />
      <path
         id="path206"
         d="M3092 9960 L3092 9750 " />
      <path
         id="path208"
         d="M3092 9780 L3077 9765 L3047 9750 L3002 9750 L2972 9765 L2957 9795 L2957 9960 " />
      <path
         id="path210"
         d="M2957 9795 L2942 9765 L2912 9750 L2867 9750 L2837 9765 L2822 9795 L2822 9960 " />
      <path
         id="path212"
         d="M6190 9684 L6160 9684 L6130 9699 L6115 9714 L6100 9744 L6085 9804 L6085 9879 L6100 9939 L6115 9969 L6130 9984 L6160 9999 L6190 9999 L6220 9984 L6235 9969 L6250 9939 L6265 9879 L6265 9804 L6250 9744 L6235 9714 L6220 9699 L6190 9684 " />
      <path
         id="path214"
         d="M5950 9969 L5935 9984 L5950 9999 L5965 9984 L5950 9969 L5950 9999 " />
      <path
         id="path216"
         d="M5635 9999 L5815 9999 " />
      <path
         id="path218"
         d="M5725 9999 L5725 9684 L5755 9729 L5785 9759 L5815 9774 " />
      <path
         id="path220"
         d="M5500 9999 L5500 9789 " />
      <path
         id="path222"
         d="M5500 9819 L5485 9804 L5455 9789 L5410 9789 L5380 9804 L5365 9834 L5365 9999 " />
      <path
         id="path224"
         d="M5365 9834 L5350 9804 L5320 9789 L5275 9789 L5245 9804 L5230 9834 L5230 9999 " />
      <path
         id="path226"
         d="M3520 13282 L3205 13282 L3430 13387 L3205 13492 L3520 13492 " />
      <path
         id="path228"
         d="M3355 13747 L3370 13792 L3385 13807 L3415 13822 L3460 13822 L3490 13807 L3505 13792 L3520 13762 L3520 13642 L3205 13642 L3205 13747 L3220 13777 L3235 13792 L3265 13807 L3295 13807 L3325 13792 L3340 13777 L3355 13747 L3355 13642 " />
      <path
         id="path230"
         d="M3520 14137 L3370 14032 " />
      <path
         id="path232"
         d="M3520 13957 L3205 13957 L3205 14077 L3220 14107 L3235 14122 L3265 14137 L3310 14137 L3340 14122 L3355 14107 L3370 14077 L3370 13957 " />
      <path
         id="path234"
         d="M3520 14437 L3520 14257 " />
      <path
         id="path236"
         d="M3520 14347 L3205 14347 L3250 14317 L3280 14287 L3295 14257 " />
      <path
         id="path238"
         d="M3235 14557 L3220 14572 L3205 14602 L3205 14677 L3220 14707 L3235 14722 L3265 14737 L3295 14737 L3340 14722 L3520 14542 L3520 14737 " />
      <path
         id="path240"
         d="M3205 14932 L3205 14962 L3220 14992 L3235 15007 L3265 15022 L3325 15037 L3400 15037 L3460 15022 L3490 15007 L3505 14992 L3520 14962 L3520 14932 L3505 14902 L3490 14887 L3460 14872 L3400 14857 L3325 14857 L3265 14872 L3235 14887 L3220 14902 L3205 14932 " />
      <path
         id="path242"
         d="M7268 5880 L7268 5565 L7164 5790 L7059 5565 L7059 5880 " />
      <path
         id="path244"
         d="M6804 5715 L6759 5730 L6744 5745 L6729 5775 L6729 5820 L6744 5850 L6759 5865 L6789 5880 L6909 5880 L6909 5565 L6804 5565 L6774 5580 L6759 5595 L6744 5625 L6744 5655 L6759 5685 L6774 5700 L6804 5715 L6909 5715 " />
      <path
         id="path246"
         d="M6414 5880 L6519 5730 " />
      <path
         id="path248"
         d="M6594 5880 L6594 5565 L6474 5565 L6444 5580 L6429 5595 L6414 5625 L6414 5670 L6429 5700 L6444 5715 L6474 5730 L6594 5730 " />
      <path
         id="path250"
         d="M6114 5880 L6294 5880 " />
      <path
         id="path252"
         d="M6204 5880 L6204 5565 L6234 5610 L6264 5640 L6294 5655 " />
      <path
         id="path254"
         d="M5994 5595 L5979 5580 L5949 5565 L5874 5565 L5844 5580 L5829 5595 L5814 5625 L5814 5655 L5829 5700 L6009 5880 L5814 5880 " />
      <path
         id="path256"
         d="M5619 5565 L5589 5565 L5559 5580 L5544 5595 L5529 5625 L5514 5685 L5514 5760 L5529 5820 L5544 5850 L5559 5865 L5589 5880 L5619 5880 L5649 5865 L5664 5850 L5679 5820 L5694 5760 L5694 5685 L5679 5625 L5664 5595 L5649 5580 L5619 5565 " />
      <path
         id="path258"
         d="M2717 15486 L2717 15381 " />
      <path
         id="path260"
         d="M2882 15381 L2567 15381 L2567 15531 " />
      <path
         id="path262"
         d="M2672 15786 L2882 15786 " />
      <path
         id="path264"
         d="M2672 15651 L2837 15651 L2867 15666 L2882 15696 L2882 15741 L2867 15771 L2852 15786 " />
      <path
         id="path266"
         d="M2867 15921 L2882 15951 L2882 16011 L2867 16041 L2837 16056 L2822 16056 L2792 16041 L2777 16011 L2777 15966 L2762 15936 L2732 15921 L2717 15921 L2687 15936 L2672 15966 L2672 16011 L2687 16041 " />
      <path
         id="path268"
         d="M2867 16311 L2882 16281 L2882 16221 L2867 16191 L2837 16176 L2717 16176 L2687 16191 L2672 16221 L2672 16281 L2687 16311 L2717 16326 L2747 16326 L2777 16176 " />
      <path
         id="path270"
         d="M4760 17054 L4745 17039 L4715 17024 L4640 17024 L4610 17039 L4595 17054 L4580 17084 L4580 17114 L4595 17159 L4775 17339 L4580 17339 " />
      <path
         id="path272"
         d="M4460 17054 L4445 17039 L4415 17024 L4340 17024 L4310 17039 L4295 17054 L4280 17084 L4280 17114 L4295 17159 L4475 17339 L4280 17339 " />
      <path
         id="path274"
         d="M4820 17934 L4805 17919 L4775 17904 L4700 17904 L4670 17919 L4655 17934 L4640 17964 L4640 17994 L4655 18039 L4835 18219 L4640 18219 " />
      <path
         id="path276"
         d="M4520 17934 L4505 17919 L4475 17904 L4400 17904 L4370 17919 L4355 17934 L4340 17964 L4340 17994 L4355 18039 L4535 18219 L4340 18219 " />
      <path
         id="path278"
         d="M2113 15896 L2128 15881 L2143 15836 L2143 15806 L2128 15761 L2098 15731 L2068 15716 L2008 15701 L1963 15701 L1903 15716 L1873 15731 L1843 15761 L1828 15806 L1828 15836 L1843 15881 L1858 15896 " />
      <path
         id="path280"
         d="M1843 16196 L1828 16166 L1828 16121 L1843 16076 L1873 16046 L1903 16031 L1963 16016 L2008 16016 L2068 16031 L2098 16046 L2128 16076 L2143 16121 L2143 16151 L2128 16196 L2113 16211 L2008 16211 L2008 16151 " />
      <path
         id="path282"
         d="M1828 16406 L1828 16436 L1843 16466 L1858 16481 L1888 16496 L1948 16511 L2023 16511 L2083 16496 L2113 16481 L2128 16466 L2143 16436 L2143 16406 L2128 16376 L2113 16361 L2083 16346 L2023 16331 L1948 16331 L1888 16346 L1858 16361 L1843 16376 L1828 16406 " />
      <path
         id="path284"
         d="M1828 16781 L1828 16721 L1843 16691 L1858 16676 L1903 16646 L1963 16631 L2083 16631 L2113 16646 L2128 16661 L2143 16691 L2143 16751 L2128 16781 L2113 16796 L2083 16811 L2008 16811 L1978 16796 L1963 16781 L1948 16751 L1948 16691 L1963 16661 L1978 16646 L2008 16631 " />
      <path
         id="path286"
         d="M1828 17006 L1828 17036 L1843 17066 L1858 17081 L1888 17096 L1948 17111 L2023 17111 L2083 17096 L2113 17081 L2128 17066 L2143 17036 L2143 17006 L2128 16976 L2113 16961 L2083 16946 L2023 16931 L1948 16931 L1888 16946 L1858 16961 L1843 16976 L1828 17006 " />
      <path
         id="path288"
         d="M1828 17216 L1828 17411 L1948 17306 L1948 17351 L1963 17381 L1978 17396 L2008 17411 L2083 17411 L2113 17396 L2128 17381 L2143 17351 L2143 17261 L2128 17231 L2113 17216 " />
      <path
         id="path290"
         d="M2143 17546 L1828 17546 L2053 17651 L1828 17756 L2143 17756 " />
      <path
         id="path292"
         d="M2143 18056 L2143 17906 L1828 17906 " />
      <path
         id="path294"
         d="M2113 18341 L2128 18326 L2143 18281 L2143 18251 L2128 18206 L2098 18176 L2068 18161 L2008 18146 L1963 18146 L1903 18161 L1873 18176 L1843 18206 L1828 18251 L1828 18281 L1843 18326 L1858 18341 " />
      <path
         id="path296"
         d="M2023 18476 L2023 18715 " />
      <path
         id="path298"
         d="M1828 18925 L1828 18955 L1843 18985 L1858 19000 L1888 19015 L1948 19030 L2023 19030 L2083 19015 L2113 19000 L2128 18985 L2143 18955 L2143 18925 L2128 18895 L2113 18880 L2083 18865 L2023 18850 L1948 18850 L1888 18865 L1858 18880 L1843 18895 L1828 18925 " />
      <path
         id="path300"
         d="M1828 19315 L1828 19165 L1978 19150 L1963 19165 L1948 19195 L1948 19270 L1963 19300 L1978 19315 L2008 19330 L2083 19330 L2113 19315 L2128 19300 L2143 19270 L2143 19195 L2128 19165 L2113 19150 " />
      <path
         id="path302"
         d="M1978 19465 L1978 19570 " />
      <path
         id="path304"
         d="M2143 19615 L2143 19465 L1828 19465 L1828 19615 " />
      <path
         id="path306"
         d="M7356 16085 L7371 16070 L7386 16025 L7386 15995 L7371 15950 L7341 15920 L7311 15905 L7251 15890 L7206 15890 L7146 15905 L7116 15920 L7086 15950 L7071 15995 L7071 16025 L7086 16070 L7101 16085 " />
      <path
         id="path308"
         d="M7086 16385 L7071 16355 L7071 16310 L7086 16265 L7116 16235 L7146 16220 L7206 16205 L7251 16205 L7311 16220 L7341 16235 L7371 16265 L7386 16310 L7386 16340 L7371 16385 L7356 16400 L7251 16400 L7251 16340 " />
      <path
         id="path310"
         d="M7071 16595 L7071 16625 L7086 16655 L7101 16670 L7131 16685 L7191 16700 L7266 16700 L7326 16685 L7356 16670 L7371 16655 L7386 16625 L7386 16595 L7371 16565 L7356 16550 L7326 16535 L7266 16520 L7191 16520 L7131 16535 L7101 16550 L7086 16565 L7071 16595 " />
      <path
         id="path312"
         d="M7071 16970 L7071 16910 L7086 16880 L7101 16865 L7146 16835 L7206 16820 L7326 16820 L7356 16835 L7371 16850 L7386 16880 L7386 16940 L7371 16970 L7356 16985 L7326 17000 L7251 17000 L7221 16985 L7206 16970 L7191 16940 L7191 16880 L7206 16850 L7221 16835 L7251 16820 " />
      <path
         id="path314"
         d="M7071 17195 L7071 17225 L7086 17255 L7101 17270 L7131 17285 L7191 17300 L7266 17300 L7326 17285 L7356 17270 L7371 17255 L7386 17225 L7386 17195 L7371 17165 L7356 17150 L7326 17135 L7266 17120 L7191 17120 L7131 17135 L7101 17150 L7086 17165 L7071 17195 " />
      <path
         id="path316"
         d="M7071 17405 L7071 17600 L7191 17495 L7191 17540 L7206 17570 L7221 17585 L7251 17600 L7326 17600 L7356 17585 L7371 17570 L7386 17540 L7386 17450 L7371 17420 L7356 17405 " />
      <path
         id="path318"
         d="M7386 17735 L7071 17735 L7296 17840 L7071 17945 L7386 17945 " />
      <path
         id="path320"
         d="M7386 18245 L7386 18095 L7071 18095 " />
      <path
         id="path322"
         d="M7356 18530 L7371 18515 L7386 18470 L7386 18440 L7371 18395 L7341 18365 L7311 18350 L7251 18335 L7206 18335 L7146 18350 L7116 18365 L7086 18395 L7071 18440 L7071 18470 L7086 18515 L7101 18530 " />
      <path
         id="path324"
         d="M7266 18665 L7266 18904 " />
      <path
         id="path326"
         d="M7071 19114 L7071 19144 L7086 19174 L7101 19189 L7131 19204 L7191 19219 L7266 19219 L7326 19204 L7356 19189 L7371 19174 L7386 19144 L7386 19114 L7371 19084 L7356 19069 L7326 19054 L7266 19039 L7191 19039 L7131 19054 L7101 19069 L7086 19084 L7071 19114 " />
      <path
         id="path328"
         d="M7071 19504 L7071 19354 L7221 19339 L7206 19354 L7191 19384 L7191 19459 L7206 19489 L7221 19504 L7251 19519 L7326 19519 L7356 19504 L7371 19489 L7386 19459 L7386 19384 L7371 19354 L7356 19339 " />
      <path
         id="path330"
         d="M7221 19654 L7221 19759 " />
      <path
         id="path332"
         d="M7386 19804 L7386 19654 L7071 19654 L7071 19804 " />
      <path
         id="path334"
         d="M3450 10755 L3630 10755 " />
      <path
         id="path336"
         d="M3540 10755 L3540 10440 L3570 10485 L3600 10515 L3630 10530 " />
      <path
         id="path338"
         d="M3315 10755 L3315 10440 L3210 10665 L3105 10440 L3105 10755 " />
    </g>
    <g
       id="g340"
       style="fill:#000000; fill-opacity:0.0;  stroke:#000000; stroke-width:59.0551; stroke-opacity:1;  stroke-linecap:round; stroke-linejoin:round;">
      <path
         id="path342"
         d="M5077 15506 L5040 15506 L5002 15524 L4983 15543 L4965 15581 L4946 15655 L4946 15749 L4965 15824 L4983 15862 L5002 15880 L5040 15899 L5077 15899 L5115 15880 L5133 15862 L5152 15824 L5171 15749 L5171 15655 L5152 15581 L5133 15543 L5115 15524 L5077 15506 " />
      <path
         id="path344"
         d="M4777 15862 L4758 15880 L4777 15899 L4796 15880 L4777 15862 L4777 15899 " />
      <path
         id="path346"
         d="M4383 15899 L4608 15899 " />
      <path
         id="path348"
         d="M4496 15899 L4496 15506 L4533 15562 L4571 15599 L4608 15618 " />
      <path
         id="path350"
         d="M4215 15899 L4215 15637 " />
      <path
         id="path352"
         d="M4215 15674 L4196 15655 L4158 15637 L4102 15637 L4065 15655 L4046 15693 L4046 15899 " />
      <path
         id="path354"
         d="M4046 15693 L4027 15655 L3990 15637 L3933 15637 L3896 15655 L3877 15693 L3877 15899 " />
      <g
         id="g356" />
    </g>
  </g>
</svg>
