<?xml version="1.0" encoding="UTF-8" standalone="no"?>
<svg
   xmlns:dc="http://purl.org/dc/elements/1.1/"
   xmlns:cc="http://creativecommons.org/ns#"
   xmlns:rdf="http://www.w3.org/1999/02/22-rdf-syntax-ns#"
   xmlns:svg="http://www.w3.org/2000/svg"
   xmlns="http://www.w3.org/2000/svg"
   xmlns:sodipodi="http://sodipodi.sourceforge.net/DTD/sodipodi-0.dtd"
   xmlns:inkscape="http://www.inkscape.org/namespaces/inkscape"
   version="1.1"
   width="2.3114cm"
   height="5.04952cm"
   viewBox="0 0 9100 19880 "
   id="svg2"
   inkscape:version="0.91 r13725"
   sodipodi:docname="arduino_nanoPB-B_SilkS.svg">
  <metadata
     id="metadata546">
    <rdf:RDF>
      <cc:Work
         rdf:about="">
        <dc:format>image/svg+xml</dc:format>
        <dc:type
           rdf:resource="http://purl.org/dc/dcmitype/StillImage" />
      </cc:Work>
    </rdf:RDF>
  </metadata>
  <defs
     id="defs544" />
  <sodipodi:namedview
     pagecolor="#ffffff"
     bordercolor="#666666"
     borderopacity="1"
     objecttolerance="10"
     gridtolerance="10"
     guidetolerance="10"
     inkscape:pageopacity="0"
     inkscape:pageshadow="2"
     inkscape:window-width="1855"
     inkscape:window-height="1056"
     id="namedview542"
     showgrid="false"
     inkscape:zoom="4.8381434"
     inkscape:cx="40.949999"
     inkscape:cy="89.46"
     inkscape:window-x="65"
     inkscape:window-y="24"
     inkscape:window-maximized="1"
     inkscape:current-layer="svg2" />
  <title
     id="title4">SVG Picture created as arduino_nanoPB-B_SilkS.svg date 2019/05/10 10:53:15 </title>
  <desc
     id="desc6">Picture generated by PCBNEW </desc>
  <g
     id="g4674">
    <g
       id="g8"
       transform="translate(0 0) scale(1 1)"
       style="fill:#000000; fill-opacity:1;stroke:#000000; stroke-opacity:1; stroke-linecap:round; stroke-linejoin:round; " />
    <g
       id="g10"
       style="fill:#000000; fill-opacity:0.0;  stroke:#000000; stroke-width:-0.000393701; stroke-opacity:1;  stroke-linecap:round; stroke-linejoin:round;" />
    <g
       id="g12"
       style="fill:#000000; fill-opacity:0.0;  stroke:#000000; stroke-width:39.3701; stroke-opacity:1;  stroke-linecap:round; stroke-linejoin:round;">
      <path
         id="path14"
         d="M3742 11324 L3427 11324 L3427 11444 L3442 11474 L3457 11489 L3487 11504 L3532 11504 L3562 11489 L3577 11474 L3592 11444 L3592 11324 " />
      <path
         id="path16"
         d="M3652 11624 L3652 11774 " />
      <path
         id="path18"
         d="M3742 11594 L3427 11699 L3742 11804 " />
      <path
         id="path20"
         d="M3847 11984 L3397 11984 " />
      <path
         id="path22"
         d="M3742 12209 L3427 12209 L3427 12329 L3442 12359 L3457 12374 L3487 12389 L3532 12389 L3562 12374 L3577 12359 L3592 12329 L3592 12209 " />
      <path
         id="path24"
         d="M3577 12629 L3592 12674 L3607 12689 L3637 12704 L3682 12704 L3712 12689 L3727 12674 L3742 12644 L3742 12524 L3427 12524 L3427 12629 L3442 12659 L3457 12674 L3487 12689 L3517 12689 L3547 12674 L3562 12659 L3577 12629 L3577 12524 " />
      <path
         id="path26"
         d="M6052 13164 L5737 13164 L5737 13284 L5752 13314 L5767 13329 L5797 13344 L5842 13344 L5872 13329 L5887 13314 L5902 13284 L5902 13164 " />
      <path
         id="path28"
         d="M5962 13464 L5962 13614 " />
      <path
         id="path30"
         d="M6052 13434 L5737 13539 L6052 13644 " />
      <path
         id="path32"
         d="M6157 13824 L5707 13824 " />
      <path
         id="path34"
         d="M6052 14049 L5737 14049 L5737 14169 L5752 14199 L5767 14214 L5797 14229 L5842 14229 L5872 14214 L5887 14199 L5902 14169 L5902 14049 " />
      <path
         id="path36"
         d="M5887 14469 L5902 14514 L5917 14529 L5947 14544 L5992 14544 L6022 14529 L6037 14514 L6052 14484 L6052 14364 L5737 14364 L5737 14469 L5752 14499 L5767 14514 L5797 14529 L5827 14529 L5857 14514 L5872 14499 L5887 14469 L5887 14364 " />
      <path
         id="path38"
         d="M5937 15331 L5622 15331 L5622 15406 L5637 15451 L5667 15481 L5697 15496 L5757 15511 L5802 15511 L5862 15496 L5892 15481 L5922 15451 L5937 15406 L5937 15331 " />
      <path
         id="path40"
         d="M5622 15601 L5622 15781 " />
      <path
         id="path42"
         d="M5937 15691 L5622 15691 " />
      <path
         id="path44"
         d="M5937 16066 L5787 15961 " />
      <path
         id="path46"
         d="M5937 15886 L5622 15886 L5622 16006 L5637 16036 L5652 16051 L5682 16066 L5727 16066 L5757 16051 L5772 16036 L5787 16006 L5787 15886 " />
      <path
         id="path48"
         d="M4765 1654 L4720 1669 L4645 1669 L4615 1654 L4600 1639 L4585 1609 L4585 1579 L4600 1549 L4615 1534 L4645 1519 L4705 1504 L4735 1489 L4750 1474 L4765 1444 L4765 1414 L4750 1384 L4735 1369 L4705 1354 L4630 1354 L4585 1369 " />
      <path
         id="path50"
         d="M4270 1639 L4285 1654 L4330 1669 L4360 1669 L4405 1654 L4435 1624 L4450 1594 L4465 1534 L4465 1489 L4450 1429 L4435 1399 L4405 1369 L4360 1354 L4330 1354 L4285 1369 L4270 1384 " />
      <path
         id="path52"
         d="M4135 1669 L4135 1354 " />
      <path
         id="path54"
         d="M3955 1669 L4090 1489 " />
      <path
         id="path56"
         d="M3955 1354 L4135 1534 " />
      <path
         id="path58"
         d="M6472 2316 L6472 2466 L6322 2481 L6337 2466 L6352 2436 L6352 2361 L6337 2331 L6322 2316 L6292 2301 L6217 2301 L6187 2316 L6172 2331 L6157 2361 L6157 2436 L6172 2466 L6187 2481 " />
      <path
         id="path60"
         d="M6472 2211 L6157 2106 L6472 2001 " />
      <path
         id="path62"
         d="M6157 1656 L6472 1656 L6247 1551 L6472 1446 L6157 1446 " />
      <path
         id="path64"
         d="M6157 1296 L6472 1296 " />
      <path
         id="path66"
         d="M6172 1161 L6157 1116 L6157 1041 L6172 1011 L6187 996 L6217 981 L6247 981 L6277 996 L6292 1011 L6307 1041 L6322 1101 L6337 1131 L6352 1146 L6382 1161 L6412 1161 L6442 1146 L6457 1131 L6472 1101 L6472 1026 L6457 981 " />
      <path
         id="path68"
         d="M6472 786 L6472 726 L6457 696 L6427 666 L6367 651 L6262 651 L6202 666 L6172 696 L6157 726 L6157 786 L6172 816 L6202 846 L6262 861 L6367 861 L6427 846 L6457 816 L6472 786 " />
      <path
         id="path70"
         d="M3017 2394 L3032 2424 L3032 2469 L3017 2514 L2987 2543 L2957 2558 L2897 2573 L2852 2573 L2792 2558 L2762 2543 L2732 2514 L2717 2469 L2717 2439 L2732 2394 L2747 2379 L2852 2379 L2852 2439 " />
      <path
         id="path72"
         d="M2717 2244 L3032 2244 L2717 2064 L3032 2064 " />
      <path
         id="path74"
         d="M2717 1914 L3032 1914 L3032 1839 L3017 1794 L2987 1764 L2957 1749 L2897 1734 L2852 1734 L2792 1749 L2762 1764 L2732 1794 L2717 1839 L2717 1914 " />
      <path
         id="path76"
         d="M2717 1179 L2867 1284 " />
      <path
         id="path78"
         d="M2717 1359 L3032 1359 L3032 1239 L3017 1209 L3002 1194 L2972 1179 L2927 1179 L2897 1194 L2882 1209 L2867 1239 L2867 1359 " />
      <path
         id="path80"
         d="M2732 1059 L2717 1014 L2717 939 L2732 909 L2747 894 L2777 879 L2807 879 L2837 894 L2852 909 L2867 939 L2882 999 L2897 1029 L2912 1044 L2942 1059 L2972 1059 L3002 1044 L3017 1029 L3032 999 L3032 924 L3017 879 " />
      <path
         id="path82"
         d="M3032 789 L3032 609 " />
      <path
         id="path84"
         d="M2717 699 L3032 699 " />
      <path
         id="path86"
         d="M4935 2689 L4935 2374 L4830 2599 L4725 2374 L4725 2689 " />
      <path
         id="path88"
         d="M4515 2374 L4455 2374 L4425 2389 L4395 2419 L4380 2479 L4380 2584 L4395 2644 L4425 2674 L4455 2689 L4515 2689 L4545 2674 L4575 2644 L4590 2584 L4590 2479 L4575 2419 L4545 2389 L4515 2374 " />
      <path
         id="path90"
         d="M4260 2674 L4215 2689 L4140 2689 L4110 2674 L4095 2659 L4080 2629 L4080 2599 L4095 2569 L4110 2554 L4140 2539 L4200 2524 L4230 2509 L4245 2494 L4260 2464 L4260 2434 L4245 2404 L4230 2389 L4200 2374 L4125 2374 L4080 2389 " />
      <path
         id="path92"
         d="M3945 2689 L3945 2374 " />
    </g>
    <g
       id="g94"
       style="fill:#000000; fill-opacity:0.0;  stroke:#000000; stroke-width:59.0551; stroke-opacity:1;  stroke-linecap:round; stroke-linejoin:round;">
      <path
         id="path96"
         d="M5593 12953 L5593 13248 " />
      <path
         id="path98"
         d="M3526 12953 L3526 13248 " />
      <path
         id="path100"
         d="M3526 15020 L3526 14724 " />
      <path
         id="path102"
         d="M5593 15020 L5593 14724 " />
      <path
         id="path104"
         d="M3526 12953 L3822 12953 " />
      <path
         id="path106"
         d="M3526 15020 L3822 15020 " />
      <path
         id="path108"
         d="M5593 12953 L5298 12953 " />
      <path
         id="path110"
         d="M6361 14633 L6598 14633 " />
      <path
         id="path112"
         d="M6086 13275 L6086 14377 " />
      <path
         id="path114"
         d="M6598 13019 L6361 13019 " />
      <path
         id="path116"
         d="M6873 14377 L6873 13275 " />
      <path
         id="path118"
         d="M6873.81 13295.1 A275.591 275.591 0.0 0 0 6598.21 13019.5 " />
      <path
         id="path120"
         d="M6361.99 13019.5 A275.591 275.591 0.0 0 0 6086.4 13295.1 " />
      <path
         id="path122"
         d="M6086.4 14358.1 A275.591 275.591 0.0 0 0 6361.99 14633.7 " />
      <path
         id="path124"
         d="M6598.21 14633.7 A275.591 275.591 0.0 0 0 6873.81 14358.1 " />
      <path
         id="path126"
         d="M5573 11506 L5966 11506 " />
      <path
         id="path128"
         d="M5966 12176 L5573 12176 " />
      <path
         id="path130"
         d="M3465 6049 L3858 6049 " />
      <path
         id="path132"
         d="M3858 6719 L3465 6719 " />
      <path
         id="path134"
         d="M3779 3297 L3385 3297 " />
      <path
         id="path136"
         d="M3385 2627 L3779 2627 " />
      <path
         id="path138"
         d="M5539 10361 L5932 10361 " />
      <path
         id="path140"
         d="M5932 11031 L5539 11031 " />
      <path
         id="path142"
         d="M5594 3275 L5201 3275 " />
      <path
         id="path144"
         d="M5201 2605 L5594 2605 " />
      <path
         id="path146"
         d="M3528 10979 L3135 10979 " />
      <path
         id="path148"
         d="M3135 10309 L3528 10309 " />
      <path
         id="path150"
         d="M5929 10189 L5535 10189 " />
      <path
         id="path152"
         d="M5535 9519 L5929 9519 " />
      <path
         id="path154"
         d="M2770 13971 L2770 14121 " />
      <path
         id="path156"
         d="M2770 13571 L2770 13721 " />
      <path
         id="path158"
         d="M2770 13721 L2620 13971 " />
      <path
         id="path160"
         d="M2620 13971 L2920 13971 " />
      <path
         id="path162"
         d="M2920 13971 L2770 13721 " />
      <path
         id="path164"
         d="M2570 13721 L2970 13721 " />
      <path
         id="path166"
         d="M3124 13059 L3124 14452 " />
      <path
         id="path168"
         d="M2415 13059 L2415 14452 " />
      <path
         id="path170"
         d="M5667 6388 L5817 6388 " />
      <path
         id="path172"
         d="M5267 6388 L5417 6388 " />
      <path
         id="path174"
         d="M5417 6388 L5667 6538 " />
      <path
         id="path176"
         d="M5667 6538 L5667 6238 " />
      <path
         id="path178"
         d="M5667 6238 L5417 6388 " />
      <path
         id="path180"
         d="M5417 6588 L5417 6188 " />
      <path
         id="path182"
         d="M4754 6034 L6148 6034 " />
      <path
         id="path184"
         d="M4754 6742 L6148 6742 " />
      <path
         id="path186"
         d="M2338 15480 L2338 16268 " />
      <path
         id="path188"
         d="M3181 16268 L3181 15480 " />
      <path
         id="path190"
         d="M2873.21 12803.7 A275.591 275.591 0.0 0 0 3148.81 12528.1 " />
      <path
         id="path192"
         d="M2361.4 12528.1 A275.591 275.591 0.0 0 0 2636.99 12803.7 " />
      <path
         id="path194"
         d="M2636.99 11189.5 A275.591 275.591 0.0 0 0 2361.4 11465.1 " />
      <path
         id="path196"
         d="M3148.81 11465.1 A275.591 275.591 0.0 0 0 2873.21 11189.5 " />
      <path
         id="path198"
         d="M3148 12547 L3148 11445 " />
      <path
         id="path200"
         d="M2873 11189 L2636 11189 " />
      <path
         id="path202"
         d="M2361 11445 L2361 12547 " />
      <path
         id="path204"
         d="M2636 12803 L2873 12803 " />
      <path
         id="path206"
         d="M4796 16842 L4323 16842 " />
      <path
         id="path208"
         d="M4323 17531 L4796 17531 " />
      <path
         id="path210"
         d="M4323 18401 L4796 18401 " />
      <path
         id="path212"
         d="M4796 17712 L4323 17712 " />
      <path
         id="path214"
         d="M2775 18009 L2775 17615 " />
      <path
         id="path216"
         d="M2244 17615 L2244 18009 " />
      <path
         id="path218"
         d="M6364 17499 L6364 17893 " />
      <path
         id="path220"
         d="M6895 17893 L6895 17499 " />
      <path
         id="path222"
         d="M3911 5936 L5289 5936 " />
      <path
         id="path224"
         d="M5289 3377 L3911 3377 " />
      <circle
         id="circle226"
         r="118.11"
         cy="5621.69"
         cx="4226.82" />
      <circle
         id="circle228"
         r="118.11"
         cy="9056.18"
         cx="4156.09" />
      <path
         id="path230"
         d="M5219 6812 L3841 6812 " />
      <path
         id="path232"
         d="M3841 9371 L5219 9371 " />
      <path
         id="path234"
         d="M3123 10131 L3596 10131 " />
      <path
         id="path236"
         d="M3596 9442 L3123 9442 " />
      <path
         id="path238"
         d="M6011.4 15696.3 A275.591 275.591 0.0 0 0 6286.99 15971.9 " />
      <path
         id="path240"
         d="M6523.21 15971.9 A275.591 275.591 0.0 0 0 6798.81 15696.3 " />
      <path
         id="path242"
         d="M6798.81 15145.1 A275.591 275.591 0.0 0 0 6523.21 14869.5 " />
      <path
         id="path244"
         d="M6286.99 14869.5 A275.591 275.591 0.0 0 0 6011.4 15145.1 " />
      <path
         id="path246"
         d="M6523 14869 L6286 14869 " />
      <path
         id="path248"
         d="M6798 15696 L6798 15145 " />
      <path
         id="path250"
         d="M6286 15971 L6523 15971 " />
      <path
         id="path252"
         d="M6011 15145 L6011 15696 " />
      <path
         id="path254"
         d="M4303 15341 L4696 15341 " />
      <path
         id="path256"
         d="M4696 16011 L4303 16011 " />
      <path
         id="path258"
         d="M4064 12066 L4383 12066 L4420 12085 L4439 12104 L4458 12141 L4458 12216 L4439 12254 L4420 12272 L4383 12291 L4064 12291 " />
      <path
         id="path260"
         d="M4102 12460 L4083 12479 L4064 12516 L4064 12610 L4083 12647 L4102 12666 L4139 12685 L4176 12685 L4233 12666 L4458 12441 L4458 12685 " />
    </g>
    <g
       id="g262"
       style="fill:#000000; fill-opacity:0.0;  stroke:#000000; stroke-width:39.3701; stroke-opacity:1;  stroke-linecap:round; stroke-linejoin:round;">
      <path
         id="path264"
         d="M7010 11809 L7025 11794 L7040 11749 L7040 11719 L7025 11674 L6995 11644 L6965 11629 L6905 11614 L6860 11614 L6800 11629 L6770 11644 L6740 11674 L6725 11719 L6725 11749 L6740 11794 L6755 11809 " />
      <path
         id="path266"
         d="M6755 11929 L6740 11944 L6725 11974 L6725 12049 L6740 12079 L6755 12094 L6785 12109 L6815 12109 L6860 12094 L7040 11914 L7040 12109 " />
      <path
         id="path268"
         d="M2592 6314 L2607 6299 L2622 6254 L2622 6224 L2607 6179 L2577 6149 L2547 6134 L2487 6119 L2442 6119 L2382 6134 L2352 6149 L2322 6179 L2307 6224 L2307 6254 L2322 6299 L2337 6314 " />
      <path
         id="path270"
         d="M2622 6614 L2622 6434 " />
      <path
         id="path272"
         d="M2622 6524 L2307 6524 L2352 6494 L2382 6464 L2397 6434 " />
      <path
         id="path274"
         d="M2532 2874 L2547 2859 L2562 2814 L2562 2784 L2547 2739 L2517 2709 L2487 2694 L2427 2679 L2382 2679 L2322 2694 L2292 2709 L2262 2739 L2247 2784 L2247 2814 L2262 2859 L2277 2874 " />
      <path
         id="path276"
         d="M2247 2979 L2247 3189 L2562 3054 " />
      <path
         id="path278"
         d="M6992 10794 L7007 10779 L7022 10734 L7022 10704 L7007 10659 L6977 10629 L6947 10614 L6887 10599 L6842 10599 L6782 10614 L6752 10629 L6722 10659 L6707 10704 L6707 10734 L6722 10779 L6737 10794 " />
      <path
         id="path280"
         d="M6842 10974 L6827 10944 L6812 10929 L6782 10914 L6767 10914 L6737 10929 L6722 10944 L6707 10974 L6707 11034 L6722 11064 L6737 11079 L6767 11094 L6782 11094 L6812 11079 L6827 11064 L6842 11034 L6842 10974 L6857 10944 L6872 10929 L6902 10914 L6962 10914 L6992 10929 L7007 10944 L7022 10974 L7022 11034 L7007 11064 L6992 11079 L6962 11094 L6902 11094 L6872 11079 L6857 11064 L6842 11034 " />
      <path
         id="path282"
         d="M6752 2834 L6767 2819 L6782 2774 L6782 2744 L6767 2699 L6737 2669 L6707 2654 L6647 2639 L6602 2639 L6542 2654 L6512 2669 L6482 2699 L6467 2744 L6467 2774 L6482 2819 L6497 2834 " />
      <path
         id="path284"
         d="M6782 2984 L6782 3044 L6767 3074 L6752 3089 L6707 3119 L6647 3134 L6527 3134 L6497 3119 L6482 3104 L6467 3074 L6467 3014 L6482 2984 L6497 2969 L6527 2954 L6602 2954 L6632 2969 L6647 2984 L6662 3014 L6662 3074 L6647 3104 L6632 3119 L6602 3134 " />
      <path
         id="path286"
         d="M2312 10584 L2327 10569 L2342 10524 L2342 10494 L2327 10449 L2297 10419 L2267 10404 L2207 10389 L2162 10389 L2102 10404 L2072 10419 L2042 10449 L2027 10494 L2027 10524 L2042 10569 L2057 10584 " />
      <path
         id="path288"
         d="M2342 10884 L2342 10704 " />
      <path
         id="path290"
         d="M2342 10794 L2027 10794 L2072 10764 L2102 10734 L2117 10704 " />
      <path
         id="path292"
         d="M2027 11079 L2027 11109 L2042 11139 L2057 11154 L2087 11169 L2147 11184 L2222 11184 L2282 11169 L2312 11154 L2327 11139 L2342 11109 L2342 11079 L2327 11049 L2312 11034 L2282 11019 L2222 11004 L2147 11004 L2087 11019 L2057 11034 L2042 11049 L2027 11079 " />
      <path
         id="path294"
         d="M6932 9584 L6947 9569 L6962 9524 L6962 9494 L6947 9449 L6917 9419 L6887 9404 L6827 9389 L6782 9389 L6722 9404 L6692 9419 L6662 9449 L6647 9494 L6647 9524 L6662 9569 L6677 9584 " />
      <path
         id="path296"
         d="M6962 9884 L6962 9704 " />
      <path
         id="path298"
         d="M6962 9794 L6647 9794 L6692 9764 L6722 9734 L6737 9704 " />
      <path
         id="path300"
         d="M6962 10184 L6962 10004 " />
      <path
         id="path302"
         d="M6962 10094 L6647 10094 L6692 10064 L6722 10034 L6737 10004 " />
      <path
         id="path304"
         d="M2266 13790 L1951 13790 L1951 13865 L1966 13910 L1996 13940 L2026 13955 L2086 13970 L2131 13970 L2191 13955 L2221 13940 L2251 13910 L2266 13865 L2266 13790 " />
      <path
         id="path306"
         d="M1951 14255 L1951 14105 L2101 14090 L2086 14105 L2071 14135 L2071 14210 L2086 14240 L2101 14255 L2131 14270 L2206 14270 L2236 14255 L2251 14240 L2266 14210 L2266 14135 L2251 14105 L2236 14090 " />
      <path
         id="path308"
         d="M6842 6174 L6527 6174 L6527 6249 L6542 6294 L6572 6324 L6602 6339 L6662 6354 L6707 6354 L6767 6339 L6797 6324 L6827 6294 L6842 6249 L6842 6174 " />
      <path
         id="path310"
         d="M6527 6624 L6527 6564 L6542 6534 L6557 6519 L6602 6489 L6662 6474 L6782 6474 L6812 6489 L6827 6504 L6842 6534 L6842 6594 L6827 6624 L6812 6639 L6782 6654 L6707 6654 L6677 6639 L6662 6624 L6647 6594 L6647 6534 L6662 6504 L6677 6489 L6707 6474 " />
      <path
         id="path312"
         d="M2840 15864 L2945 15864 " />
      <path
         id="path314"
         d="M2945 16029 L2945 15714 L2795 15714 " />
      <path
         id="path316"
         d="M2510 16029 L2690 16029 " />
      <path
         id="path318"
         d="M2600 16029 L2600 15714 L2630 15759 L2660 15789 L2690 15804 " />
      <path
         id="path320"
         d="M5972 17049 L6077 16899 " />
      <path
         id="path322"
         d="M6152 17049 L6152 16734 L6032 16734 L6002 16749 L5987 16764 L5972 16794 L5972 16839 L5987 16869 L6002 16884 L6032 16899 L6152 16899 " />
      <path
         id="path324"
         d="M5672 17049 L5852 17049 " />
      <path
         id="path326"
         d="M5762 17049 L5762 16734 L5792 16779 L5822 16809 L5852 16824 " />
      <path
         id="path328"
         d="M5972 18329 L6077 18179 " />
      <path
         id="path330"
         d="M6152 18329 L6152 18014 L6032 18014 L6002 18029 L5987 18044 L5972 18074 L5972 18119 L5987 18149 L6002 18164 L6032 18179 L6152 18179 " />
      <path
         id="path332"
         d="M5852 18044 L5837 18029 L5807 18014 L5732 18014 L5702 18029 L5687 18044 L5672 18074 L5672 18104 L5687 18149 L5867 18329 L5672 18329 " />
      <path
         id="path334"
         d="M3597 18220 L3417 18220 " />
      <path
         id="path336"
         d="M3507 18535 L3507 18220 " />
      <path
         id="path338"
         d="M3312 18535 L3312 18220 " />
      <path
         id="path340"
         d="M3312 18370 L3132 18370 " />
      <path
         id="path342"
         d="M3132 18535 L3132 18220 " />
      <path
         id="path344"
         d="M2817 18535 L2997 18535 " />
      <path
         id="path346"
         d="M2907 18535 L2907 18220 L2937 18265 L2967 18295 L2997 18310 " />
      <path
         id="path348"
         d="M6469 16049 L6469 16229 " />
      <path
         id="path350"
         d="M6784 16139 L6469 16139 " />
      <path
         id="path352"
         d="M6784 16334 L6469 16334 " />
      <path
         id="path354"
         d="M6619 16334 L6619 16514 " />
      <path
         id="path356"
         d="M6784 16514 L6469 16514 " />
      <path
         id="path358"
         d="M6499 16649 L6484 16664 L6469 16694 L6469 16769 L6484 16799 L6499 16814 L6529 16829 L6559 16829 L6604 16814 L6784 16634 L6784 16829 " />
      <path
         id="path360"
         d="M4970 5444 L4970 5699 L4955 5729 L4940 5744 L4910 5759 L4850 5759 L4820 5744 L4805 5729 L4790 5699 L4790 5444 " />
      <path
         id="path362"
         d="M4670 5444 L4475 5444 L4580 5564 L4535 5564 L4505 5579 L4490 5594 L4475 5624 L4475 5699 L4490 5729 L4505 5744 L4535 5759 L4625 5759 L4655 5744 L4670 5729 " />
      <path
         id="path364"
         d="M6628 3824 L6478 3824 " />
      <path
         id="path366"
         d="M6658 3914 L6553 3599 L6448 3914 " />
      <path
         id="path368"
         d="M6343 3914 L6343 3599 L6223 3599 L6193 3614 L6178 3629 L6163 3659 L6163 3704 L6178 3734 L6193 3749 L6223 3764 L6343 3764 " />
      <path
         id="path370"
         d="M5863 3914 L6043 3914 " />
      <path
         id="path372"
         d="M5953 3914 L5953 3599 L5983 3644 L6013 3674 L6043 3689 " />
      <path
         id="path374"
         d="M5563 3914 L5743 3914 " />
      <path
         id="path376"
         d="M5653 3914 L5653 3599 L5683 3644 L5713 3674 L5743 3689 " />
      <path
         id="path378"
         d="M5263 3914 L5443 3914 " />
      <path
         id="path380"
         d="M5353 3914 L5353 3599 L5383 3644 L5413 3674 L5443 3689 " />
      <path
         id="path382"
         d="M5158 3599 L4948 3599 L5083 3914 " />
      <path
         id="path384"
         d="M4828 3794 L4588 3794 " />
      <path
         id="path386"
         d="M4288 3599 L4438 3599 L4453 3749 L4438 3734 L4408 3719 L4333 3719 L4303 3734 L4288 3749 L4273 3779 L4273 3854 L4288 3884 L4303 3899 L4333 3914 L4408 3914 L4438 3899 L4453 3884 " />
      <path
         id="path388"
         d="M4078 3599 L4048 3599 L4018 3614 L4003 3629 L3988 3659 L3973 3719 L3973 3794 L3988 3854 L4003 3884 L4018 3899 L4048 3914 L4078 3914 L4108 3899 L4123 3884 L4138 3854 L4153 3794 L4153 3719 L4138 3659 L4123 3629 L4108 3614 L4078 3599 " />
      <path
         id="path390"
         d="M4900 8879 L4900 9134 L4885 9164 L4870 9179 L4840 9194 L4780 9194 L4750 9179 L4735 9164 L4720 9134 L4720 8879 " />
      <path
         id="path392"
         d="M4435 8984 L4435 9194 " />
      <path
         id="path394"
         d="M4510 8864 L4585 9089 L4390 9089 " />
      <path
         id="path396"
         d="M6587 7219 L6437 7219 " />
      <path
         id="path398"
         d="M6617 7309 L6512 6994 L6407 7309 " />
      <path
         id="path400"
         d="M6302 7309 L6302 6994 L6182 6994 L6152 7009 L6137 7024 L6122 7054 L6122 7099 L6137 7129 L6152 7144 L6182 7159 L6302 7159 " />
      <path
         id="path402"
         d="M5822 7309 L6002 7309 " />
      <path
         id="path404"
         d="M5912 7309 L5912 6994 L5942 7039 L5972 7069 L6002 7084 " />
      <path
         id="path406"
         d="M5522 7309 L5702 7309 " />
      <path
         id="path408"
         d="M5612 7309 L5612 6994 L5642 7039 L5672 7069 L5702 7084 " />
      <path
         id="path410"
         d="M5222 7309 L5402 7309 " />
      <path
         id="path412"
         d="M5312 7309 L5312 6994 L5342 7039 L5372 7069 L5402 7084 " />
      <path
         id="path414"
         d="M5117 6994 L4907 6994 L5042 7309 " />
      <path
         id="path416"
         d="M4787 7189 L4547 7189 " />
      <path
         id="path418"
         d="M4427 6994 L4232 6994 L4337 7114 L4292 7114 L4262 7129 L4247 7144 L4232 7174 L4232 7249 L4247 7279 L4262 7294 L4292 7309 L4382 7309 L4412 7294 L4427 7279 " />
      <path
         id="path420"
         d="M4127 6994 L3932 6994 L4037 7114 L3992 7114 L3962 7129 L3947 7144 L3932 7174 L3932 7249 L3947 7279 L3962 7294 L3992 7309 L4082 7309 L4112 7294 L4127 7279 " />
      <path
         id="path422"
         d="M2382 9814 L2232 9709 " />
      <path
         id="path424"
         d="M2382 9634 L2067 9634 L2067 9754 L2082 9784 L2097 9799 L2127 9814 L2172 9814 L2202 9799 L2217 9784 L2232 9754 L2232 9634 " />
      <path
         id="path426"
         d="M2172 10084 L2382 10084 " />
      <path
         id="path428"
         d="M2052 10009 L2277 9934 L2277 10129 " />
    </g>
    <g
       id="g430"
       style="fill:#000000; fill-opacity:0.0;  stroke:#000000; stroke-width:59.0551; stroke-opacity:1;  stroke-linecap:round; stroke-linejoin:round;">
      <path
         id="path432"
         d="M4565 16643 L4584 16662 L4640 16681 L4678 16681 L4734 16662 L4771 16625 L4790 16587 L4809 16512 L4809 16456 L4790 16381 L4771 16344 L4734 16306 L4678 16287 L4640 16287 L4584 16306 L4565 16325 " />
      <path
         id="path434"
         d="M4228 16419 L4228 16681 " />
      <path
         id="path436"
         d="M4322 16269 L4415 16550 L4172 16550 " />
      <g
         id="g438" />
    </g>
  </g>
</svg>
