<?xml version="1.0" encoding="UTF-8" standalone="no"?>
<svg
   xmlns:dc="http://purl.org/dc/elements/1.1/"
   xmlns:cc="http://creativecommons.org/ns#"
   xmlns:rdf="http://www.w3.org/1999/02/22-rdf-syntax-ns#"
   xmlns:svg="http://www.w3.org/2000/svg"
   xmlns="http://www.w3.org/2000/svg"
   xmlns:sodipodi="http://sodipodi.sourceforge.net/DTD/sodipodi-0.dtd"
   xmlns:inkscape="http://www.inkscape.org/namespaces/inkscape"
   version="1.1"
   width="2.3114cm"
   height="5.04952cm"
   viewBox="0 0 9100 19880 "
   id="svg2"
   inkscape:version="0.91 r13725"
   sodipodi:docname="arduino_nanoPB-F_Fab.svg">
  <metadata
     id="metadata486">
    <rdf:RDF>
      <cc:Work
         rdf:about="">
        <dc:format>image/svg+xml</dc:format>
        <dc:type
           rdf:resource="http://purl.org/dc/dcmitype/StillImage" />
      </cc:Work>
    </rdf:RDF>
  </metadata>
  <defs
     id="defs484" />
  <sodipodi:namedview
     pagecolor="#ffffff"
     bordercolor="#666666"
     borderopacity="1"
     objecttolerance="10"
     gridtolerance="10"
     guidetolerance="10"
     inkscape:pageopacity="0"
     inkscape:pageshadow="2"
     inkscape:window-width="1855"
     inkscape:window-height="1056"
     id="namedview482"
     showgrid="false"
     inkscape:zoom="4.8381434"
     inkscape:cx="-9.3792242"
     inkscape:cy="-81.245346"
     inkscape:window-x="65"
     inkscape:window-y="24"
     inkscape:window-maximized="1"
     inkscape:current-layer="svg2" />
  <title
     id="title4">SVG Picture created as arduino_nanoPB-F_Fab.svg date 2019/05/10 10:53:15 </title>
  <desc
     id="desc6">Picture generated by PCBNEW </desc>
  <g
     style="fill:#000000; fill-opacity:1;stroke:#000000; stroke-opacity:1; stroke-linecap:round; stroke-linejoin:round; "
     transform="translate(0 0) scale(1 1)"
     id="g8" />
  <g
     style="fill:#000000; fill-opacity:0.0;  stroke:#000000; stroke-width:-0.000393701; stroke-opacity:1;  stroke-linecap:round; stroke-linejoin:round;"
     id="g10">
    <g
       id="g12" />
    <g
       id="g14" />
    <g
       id="g16" />
    <g
       id="g18" />
    <g
       id="g20" />
    <g
       id="g22" />
    <g
       id="g24" />
    <g
       id="g26" />
    <g
       id="g28" />
    <g
       id="g30" />
    <g
       id="g32" />
    <g
       id="g34" />
    <g
       id="g36" />
    <g
       id="g38" />
    <g
       id="g40" />
    <g
       id="g42" />
    <g
       id="g44" />
    <g
       id="g46" />
    <g
       id="g48" />
    <g
       id="g50" />
    <g
       id="g52" />
    <g
       id="g54" />
    <g
       id="g56" />
    <g
       id="g58" />
    <g
       id="g60" />
    <g
       id="g62" />
    <g
       id="g64" />
    <g
       id="g66" />
    <g
       id="g68" />
    <g
       id="g70" />
    <g
       id="g72" />
    <g
       id="g74" />
    <g
       id="g76" />
    <g
       id="g78" />
    <g
       id="g80" />
    <g
       id="g82" />
    <g
       id="g84" />
    <g
       id="g86" />
    <g
       id="g88" />
    <g
       id="g90" />
    <g
       id="g92" />
    <g
       id="g94" />
    <g
       id="g96" />
    <g
       id="g98" />
    <g
       id="g100" />
  </g>
  <g
     id="g4614">
    <g
       id="g102"
       style="fill:#000000; fill-opacity:0.0;  stroke:#000000; stroke-width:39.3701; stroke-opacity:1;  stroke-linecap:round; stroke-linejoin:round;">
      <path
         id="path104"
         d="M2566 12523 L2716 12523 " />
      <path
         id="path106"
         d="M2536 12613 L2641 12298 L2746 12613 " />
      <path
         id="path108"
         d="M2806 12298 L2986 12298 " />
      <path
         id="path110"
         d="M2896 12613 L2896 12298 " />
      <path
         id="path112"
         d="M3091 12613 L3091 12298 L3196 12523 L3301 12298 L3301 12613 " />
      <path
         id="path114"
         d="M3451 12448 L3556 12448 " />
      <path
         id="path116"
         d="M3601 12613 L3451 12613 L3451 12298 L3601 12298 " />
      <path
         id="path118"
         d="M3901 12313 L3871 12298 L3826 12298 L3781 12313 L3751 12343 L3736 12373 L3721 12433 L3721 12478 L3736 12538 L3751 12568 L3781 12598 L3826 12613 L3856 12613 L3901 12598 L3916 12583 L3916 12478 L3856 12478 " />
      <path
         id="path120"
         d="M4036 12523 L4186 12523 " />
      <path
         id="path122"
         d="M4006 12613 L4111 12298 L4216 12613 " />
      <path
         id="path124"
         d="M4291 12298 L4486 12298 L4381 12418 L4426 12418 L4456 12433 L4471 12448 L4486 12478 L4486 12553 L4471 12583 L4456 12598 L4426 12613 L4336 12613 L4306 12598 L4291 12583 " />
      <path
         id="path126"
         d="M4606 12328 L4621 12313 L4651 12298 L4726 12298 L4756 12313 L4771 12328 L4786 12358 L4786 12388 L4771 12433 L4591 12613 L4786 12613 " />
      <path
         id="path128"
         d="M4966 12433 L4936 12418 L4921 12403 L4906 12373 L4906 12358 L4921 12328 L4936 12313 L4966 12298 L5026 12298 L5056 12313 L5071 12328 L5086 12358 L5086 12373 L5071 12403 L5056 12418 L5026 12433 L4966 12433 L4936 12448 L4921 12463 L4906 12493 L4906 12553 L4921 12583 L4936 12598 L4966 12613 L5026 12613 L5056 12598 L5071 12583 L5086 12553 L5086 12493 L5071 12463 L5056 12448 L5026 12433 " />
      <path
         id="path130"
         d="M5221 12613 L5221 12298 L5341 12298 L5371 12313 L5386 12328 L5401 12358 L5401 12403 L5386 12433 L5371 12448 L5341 12463 L5221 12463 " />
      <path
         id="path132"
         d="M5640 12448 L5685 12463 L5700 12478 L5715 12508 L5715 12553 L5700 12583 L5685 12598 L5655 12613 L5535 12613 L5535 12298 L5640 12298 L5670 12313 L5685 12328 L5700 12358 L5700 12388 L5685 12418 L5670 12433 L5640 12448 L5535 12448 " />
      <path
         id="path134"
         d="M5850 12493 L6090 12493 " />
      <path
         id="path136"
         d="M6225 12523 L6375 12523 " />
      <path
         id="path138"
         d="M6195 12613 L6300 12298 L6405 12613 " />
      <path
         id="path140"
         d="M6510 12298 L6510 12553 L6525 12583 L6540 12598 L6570 12613 L6630 12613 L6660 12598 L6675 12583 L6690 12553 L6690 12298 " />
      <path
         id="path142"
         d="M5648 15881 L5468 15881 " />
      <path
         id="path144"
         d="M5558 15881 L5558 15566 L5528 15611 L5498 15641 L5468 15656 " />
      <path
         id="path146"
         d="M5918 15671 L5918 15881 " />
      <path
         id="path148"
         d="M5783 15671 L5783 15836 L5798 15866 L5828 15881 L5873 15881 L5903 15866 L5918 15851 " />
      <path
         id="path150"
         d="M5732 5291 L5717 5321 L5717 5366 L5732 5411 L5762 5441 L5792 5456 L5852 5471 L5897 5471 L5957 5456 L5987 5441 L6017 5411 L6032 5366 L6032 5336 L6017 5291 L6002 5276 L5897 5276 L5897 5336 " />
      <path
         id="path152"
         d="M6032 5141 L5822 5141 " />
      <path
         id="path154"
         d="M5882 5141 L5852 5126 L5837 5111 L5822 5081 L5822 5051 " />
      <path
         id="path156"
         d="M6017 4826 L6032 4856 L6032 4916 L6017 4946 L5987 4961 L5867 4961 L5837 4946 L5822 4916 L5822 4856 L5837 4826 L5867 4811 L5897 4811 L5927 4961 " />
      <path
         id="path158"
         d="M6017 4556 L6032 4586 L6032 4646 L6017 4676 L5987 4691 L5867 4691 L5837 4676 L5822 4646 L5822 4586 L5837 4556 L5867 4541 L5897 4541 L5927 4691 " />
      <path
         id="path160"
         d="M5822 4406 L6032 4406 " />
      <path
         id="path162"
         d="M5852 4406 L5837 4391 L5822 4361 L5822 4316 L5837 4286 L5867 4271 L6032 4271 " />
      <path
         id="path164"
         d="M6032 3701 L5882 3806 " />
      <path
         id="path166"
         d="M6032 3881 L5717 3881 L5717 3761 L5732 3731 L5747 3716 L5777 3701 L5822 3701 L5852 3716 L5867 3731 L5882 3761 L5882 3881 " />
      <path
         id="path168"
         d="M5867 3566 L5867 3461 " />
      <path
         id="path170"
         d="M6032 3416 L6032 3566 L5717 3566 L5717 3416 " />
      <path
         id="path172"
         d="M6032 3281 L5717 3281 L5717 3206 L5732 3161 L5762 3131 L5792 3116 L5852 3101 L5897 3101 L5957 3116 L5987 3131 L6017 3161 L6032 3206 L6032 3281 " />
      <path
         id="path174"
         d="M2932 4874 L2782 4979 " />
      <path
         id="path176"
         d="M2932 5054 L2617 5054 L2617 4934 L2632 4904 L2647 4889 L2677 4874 L2722 4874 L2752 4889 L2767 4904 L2782 4934 L2782 5054 " />
      <path
         id="path178"
         d="M2917 4619 L2932 4649 L2932 4709 L2917 4739 L2887 4754 L2767 4754 L2737 4739 L2722 4709 L2722 4649 L2737 4619 L2767 4604 L2797 4604 L2827 4754 " />
      <path
         id="path180"
         d="M2932 4334 L2617 4334 " />
      <path
         id="path182"
         d="M2917 4334 L2932 4364 L2932 4424 L2917 4454 L2902 4469 L2872 4484 L2782 4484 L2752 4469 L2737 4454 L2722 4424 L2722 4364 L2737 4334 " />
      <path
         id="path184"
         d="M2932 3794 L2932 3944 L2617 3944 " />
      <path
         id="path186"
         d="M2767 3689 L2767 3584 " />
      <path
         id="path188"
         d="M2932 3539 L2932 3689 L2617 3689 L2617 3539 " />
      <path
         id="path190"
         d="M2932 3404 L2617 3404 L2617 3329 L2632 3284 L2662 3254 L2692 3239 L2752 3224 L2797 3224 L2857 3239 L2887 3254 L2917 3284 L2932 3329 L2932 3404 " />
      <path
         id="path192"
         d="M5182 5069 L5332 5069 " />
      <path
         id="path194"
         d="M5017 5174 L5182 5069 L5017 4964 " />
      <path
         id="path196"
         d="M5317 4739 L5332 4769 L5332 4829 L5317 4859 L5287 4874 L5167 4874 L5137 4859 L5122 4829 L5122 4769 L5137 4739 L5167 4724 L5197 4724 L5227 4874 " />
      <path
         id="path198"
         d="M5332 4544 L5317 4574 L5287 4589 L5017 4589 " />
      <path
         id="path200"
         d="M5332 4379 L5317 4409 L5287 4424 L5017 4424 " />
      <path
         id="path202"
         d="M5332 4214 L5317 4244 L5302 4259 L5272 4274 L5182 4274 L5152 4259 L5137 4244 L5122 4214 L5122 4169 L5137 4139 L5152 4124 L5182 4109 L5272 4109 L5302 4124 L5317 4139 L5332 4169 L5332 4214 " />
      <path
         id="path204"
         d="M5122 4004 L5332 3944 L5182 3884 L5332 3824 L5122 3764 " />
      <path
         id="path206"
         d="M5332 3254 L5332 3404 L5017 3404 " />
      <path
         id="path208"
         d="M5167 3149 L5167 3044 " />
      <path
         id="path210"
         d="M5332 2999 L5332 3149 L5017 3149 L5017 2999 " />
      <path
         id="path212"
         d="M5332 2864 L5017 2864 L5017 2789 L5032 2744 L5062 2714 L5092 2699 L5152 2684 L5197 2684 L5257 2699 L5287 2714 L5317 2744 L5332 2789 L5332 2864 " />
      <path
         id="path214"
         d="M4152 5049 L4302 5049 " />
      <path
         id="path216"
         d="M3987 5154 L4152 5049 L3987 4944 " />
      <path
         id="path218"
         d="M4287 4719 L4302 4749 L4302 4809 L4287 4839 L4257 4854 L4137 4854 L4107 4839 L4092 4809 L4092 4749 L4107 4719 L4137 4704 L4167 4704 L4197 4854 " />
      <path
         id="path220"
         d="M4302 4524 L4287 4554 L4257 4569 L3987 4569 " />
      <path
         id="path222"
         d="M4302 4359 L4287 4389 L4257 4404 L3987 4404 " />
      <path
         id="path224"
         d="M4302 4194 L4287 4224 L4272 4239 L4242 4254 L4152 4254 L4122 4239 L4107 4224 L4092 4194 L4092 4149 L4107 4119 L4122 4104 L4152 4089 L4242 4089 L4272 4104 L4287 4119 L4302 4149 L4302 4194 " />
      <path
         id="path226"
         d="M4092 3984 L4302 3924 L4152 3864 L4302 3804 L4092 3744 " />
      <path
         id="path228"
         d="M4302 3234 L4302 3384 L3987 3384 " />
      <path
         id="path230"
         d="M4137 3129 L4137 3024 " />
      <path
         id="path232"
         d="M4302 2979 L4302 3129 L3987 3129 L3987 2979 " />
      <path
         id="path234"
         d="M4302 2844 L3987 2844 L3987 2769 L4002 2724 L4032 2694 L4062 2679 L4122 2664 L4167 2664 L4227 2679 L4257 2694 L4287 2724 L4302 2769 L4302 2844 " />
      <path
         id="path236"
         d="M3055 18144 L3055 18399 L3070 18429 L3085 18444 L3115 18459 L3175 18459 L3205 18444 L3220 18429 L3235 18399 L3235 18144 " />
      <path
         id="path238"
         d="M3370 18444 L3415 18459 L3490 18459 L3520 18444 L3535 18429 L3550 18399 L3550 18369 L3535 18339 L3520 18324 L3490 18309 L3430 18294 L3400 18279 L3385 18264 L3370 18234 L3370 18204 L3385 18174 L3400 18159 L3430 18144 L3505 18144 L3550 18159 " />
      <path
         id="path240"
         d="M3790 18294 L3835 18309 L3850 18324 L3865 18354 L3865 18399 L3850 18429 L3835 18444 L3805 18459 L3685 18459 L3685 18144 L3790 18144 L3820 18159 L3835 18174 L3850 18204 L3850 18234 L3835 18264 L3820 18279 L3790 18294 L3685 18294 " />
      <path
         id="path242"
         d="M3925 18489 L4165 18489 " />
      <path
         id="path244"
         d="M4345 18294 L4390 18309 L4405 18324 L4420 18354 L4420 18399 L4405 18429 L4390 18444 L4360 18459 L4240 18459 L4240 18144 L4345 18144 L4375 18159 L4390 18174 L4405 18204 L4405 18234 L4390 18264 L4375 18279 L4345 18294 L4240 18294 " />
      <path
         id="path246"
         d="M4480 18489 L4720 18489 " />
      <path
         id="path248"
         d="M4795 18459 L4795 18144 L4900 18369 L5005 18144 L5005 18459 " />
      <path
         id="path250"
         d="M5155 18459 L5155 18249 " />
      <path
         id="path252"
         d="M5155 18144 L5140 18159 L5155 18174 L5170 18159 L5155 18144 L5155 18174 " />
      <path
         id="path254"
         d="M5439 18444 L5409 18459 L5349 18459 L5319 18444 L5305 18429 L5290 18399 L5290 18309 L5305 18279 L5319 18264 L5349 18249 L5409 18249 L5439 18264 " />
      <path
         id="path256"
         d="M5574 18459 L5574 18249 " />
      <path
         id="path258"
         d="M5574 18309 L5589 18279 L5604 18264 L5634 18249 L5664 18249 " />
      <path
         id="path260"
         d="M5814 18459 L5784 18444 L5769 18429 L5754 18399 L5754 18309 L5769 18279 L5784 18264 L5814 18249 L5859 18249 L5889 18264 L5904 18279 L5919 18309 L5919 18399 L5904 18429 L5889 18444 L5859 18459 L5814 18459 " />
      <path
         id="path262"
         d="M7132 18297 L7132 18177 " />
      <path
         id="path264"
         d="M7342 18252 L7072 18252 L7042 18237 L7027 18207 L7027 18177 " />
      <path
         id="path266"
         d="M7327 17952 L7342 17982 L7342 18042 L7327 18072 L7297 18087 L7177 18087 L7147 18072 L7132 18042 L7132 17982 L7147 17952 L7177 17937 L7207 17937 L7237 18087 " />
      <path
         id="path268"
         d="M7342 17802 L7132 17802 " />
      <path
         id="path270"
         d="M7192 17802 L7162 17787 L7147 17772 L7132 17742 L7132 17712 " />
      <path
         id="path272"
         d="M7342 17607 L7132 17607 " />
      <path
         id="path274"
         d="M7027 17607 L7042 17622 L7057 17607 L7042 17592 L7027 17607 L7057 17607 " />
      <path
         id="path276"
         d="M7132 17502 L7132 17382 " />
      <path
         id="path278"
         d="M7027 17457 L7297 17457 L7327 17442 L7342 17412 L7342 17382 " />
      <path
         id="path280"
         d="M7327 17157 L7342 17187 L7342 17247 L7327 17277 L7297 17292 L7177 17292 L7147 17277 L7132 17247 L7132 17187 L7147 17157 L7177 17142 L7207 17142 L7237 17292 " />
      <path
         id="path282"
         d="M7342 16767 L7027 16767 " />
      <path
         id="path284"
         d="M7147 16767 L7132 16737 L7132 16677 L7147 16647 L7162 16632 L7192 16617 L7282 16617 L7312 16632 L7327 16647 L7342 16677 L7342 16737 L7327 16767 " />
      <path
         id="path286"
         d="M7327 16362 L7342 16392 L7342 16452 L7327 16482 L7297 16497 L7177 16497 L7147 16482 L7132 16452 L7132 16392 L7147 16362 L7177 16347 L7207 16347 L7237 16497 " />
      <path
         id="path288"
         d="M7342 16077 L7177 16077 L7147 16092 L7132 16122 L7132 16182 L7147 16212 " />
      <path
         id="path290"
         d="M7327 16077 L7342 16107 L7342 16182 L7327 16212 L7297 16227 L7267 16227 L7237 16212 L7222 16182 L7222 16107 L7207 16077 " />
      <path
         id="path292"
         d="M7342 15792 L7027 15792 " />
      <path
         id="path294"
         d="M7327 15792 L7342 15822 L7342 15882 L7327 15912 L7312 15927 L7282 15942 L7192 15942 L7162 15927 L7147 15912 L7132 15882 L7132 15822 L7147 15792 " />
      <path
         id="path296"
         d="M5482 6988 L5482 7168 " />
      <path
         id="path298"
         d="M5482 7078 L5167 7078 L5212 7108 L5242 7138 L5257 7168 " />
      <path
         id="path300"
         d="M5482 6853 L5167 6853 " />
      <path
         id="path302"
         d="M5362 6823 L5482 6733 " />
      <path
         id="path304"
         d="M5272 6733 L5392 6853 " />
      <path
         id="path306"
         d="M6326 7296 L6326 7476 " />
      <path
         id="path308"
         d="M6326 7386 L6011 7386 L6056 7416 L6086 7446 L6101 7476 " />
      <path
         id="path310"
         d="M6011 7101 L6011 7071 L6026 7041 L6041 7026 L6071 7011 L6131 6996 L6206 6996 L6266 7011 L6296 7026 L6311 7041 L6326 7071 L6326 7101 L6311 7131 L6296 7146 L6266 7161 L6206 7176 L6131 7176 L6071 7161 L6041 7146 L6026 7131 L6011 7101 " />
      <path
         id="path312"
         d="M6326 6861 L6011 6861 " />
      <path
         id="path314"
         d="M6206 6831 L6326 6741 " />
      <path
         id="path316"
         d="M6116 6741 L6236 6861 " />
      <path
         id="path318"
         d="M3044 6982 L3044 7162 " />
      <path
         id="path320"
         d="M3044 7072 L2729 7072 L2774 7102 L2804 7132 L2819 7162 " />
      <path
         id="path322"
         d="M3044 6847 L2729 6847 " />
      <path
         id="path324"
         d="M2924 6817 L3044 6727 " />
      <path
         id="path326"
         d="M2834 6727 L2954 6847 " />
      <path
         id="path328"
         d="M4686 6978 L4686 7158 " />
      <path
         id="path330"
         d="M4686 7068 L4371 7068 L4416 7098 L4446 7128 L4461 7158 " />
      <path
         id="path332"
         d="M4686 6843 L4371 6843 " />
      <path
         id="path334"
         d="M4566 6813 L4686 6723 " />
      <path
         id="path336"
         d="M4476 6723 L4596 6843 " />
      <path
         id="path338"
         d="M3882 6986 L3882 7166 " />
      <path
         id="path340"
         d="M3882 7076 L3567 7076 L3612 7106 L3642 7136 L3657 7166 " />
      <path
         id="path342"
         d="M3882 6851 L3567 6851 " />
      <path
         id="path344"
         d="M3762 6821 L3882 6731 " />
      <path
         id="path346"
         d="M3672 6731 L3792 6851 " />
      <path
         id="path348"
         d="M3112 10740 L2985 10868 " />
      <path
         id="path350"
         d="M3048 10804 L2826 10581 L2836 10634 L2836 10677 L2826 10709 " />
      <path
         id="path352"
         d="M3080 10327 L3038 10369 L3027 10401 L3027 10422 L3038 10475 L3069 10528 L3154 10613 L3186 10624 L3207 10624 L3239 10613 L3282 10571 L3292 10539 L3292 10518 L3282 10486 L3229 10433 L3197 10422 L3175 10422 L3144 10433 L3101 10475 L3091 10507 L3091 10528 L3101 10560 " />
      <path
         id="path354"
         d="M3419 10433 L3197 10210 L3430 10295 L3345 10062 L3568 10284 " />
      <path
         id="path356"
         d="M3674 10178 L3451 9956 " />
      <path
         id="path358"
         d="M3557 10062 L3685 9934 " />
      <path
         id="path360"
         d="M3801 10051 L3578 9828 " />
      <path
         id="path362"
         d="M3738 9818 L3854 9701 L3886 9966 L4003 9850 " />
    </g>
    <g
       id="g364"
       style="fill:#000000; fill-opacity:0.0;  stroke:#000000; stroke-width:59.0551; stroke-opacity:1;  stroke-linecap:round; stroke-linejoin:round;">
      <path
         id="path366"
         d="M3210 15908 L2985 15908 " />
      <path
         id="path368"
         d="M3098 15908 L3098 15515 L3060 15571 L3023 15608 L2985 15627 " />
      <path
         id="path370"
         d="M3454 15515 L3491 15515 L3529 15533 L3548 15552 L3566 15590 L3585 15664 L3585 15758 L3566 15833 L3548 15871 L3529 15889 L3491 15908 L3454 15908 L3416 15889 L3398 15871 L3379 15833 L3360 15758 L3360 15664 L3379 15590 L3398 15552 L3416 15533 L3454 15515 " />
      <path
         id="path372"
         d="M3754 15908 L3754 15515 " />
      <path
         id="path374"
         d="M3791 15758 L3904 15908 " />
      <path
         id="path376"
         d="M3904 15646 L3754 15796 " />
      <g
         id="g378" />
    </g>
  </g>
</svg>
