<?xml version="1.0" standalone="no"?>
 <!DOCTYPE svg PUBLIC "-//W3C//DTD SVG 1.1//EN" 
 "http://www.w3.org/Graphics/SVG/1.1/DTD/svg11.dtd"> 
<svg xmlns="http://www.w3.org/2000/svg" version="1.1" 
    width="29.7002cm" height="21.0007cm" viewBox="0 0 116930 82680 ">
<title>SVG Picture created as arduino_mega_all_pins-F_Fab.svg date 2019/02/05 21:25:40 </title>
  <desc>Picture generated by PCBNEW </desc>
<g style="fill:#000000; fill-opacity:1;stroke:#000000; stroke-opacity:1;
stroke-linecap:round; stroke-linejoin:round; "
 transform="translate(0 0) scale(1 1)">
</g>
<g style="fill:#000000; fill-opacity:0.0; 
stroke:#000000; stroke-width:-0.000393701; stroke-opacity:1; 
stroke-linecap:round; stroke-linejoin:round;">
</g>
<g style="fill:#000000; fill-opacity:0.0; 
stroke:#000000; stroke-width:59.0551; stroke-opacity:1; 
stroke-linecap:round; stroke-linejoin:round;">
<path d="M80700 28650
L80700 26900
" />
<path d="M78900 26900
L80700 26900
" />
<path d="M78900 26900
L78700 26900
" />
<path d="M80700 28900
L80700 28650
" />
<path d="M80700 28900
L80700 32900
" />
<path d="M80700 32900
L80700 46400
" />
<path d="M80700 46400
L79700 47400
" />
<path d="M79700 47400
L79700 47900
" />
<path d="M79700 47900
L40700 47900
" />
<path d="M40700 26900
L78700 26900
" />
<path d="M40700 47900
L40700 26900
" />
</g>
<g style="fill:#000000; fill-opacity:0.0; 
stroke:#000000; stroke-width:39.3701; stroke-opacity:1; 
stroke-linecap:round; stroke-linejoin:round;">
<path d="M46801 36364
L45542 36364
" />
<path d="M45542 36364
L45542 35735
" />
<path d="M45542 35735
L46801 35735
" />
<path d="M46801 35735
L46801 36364
" />
<path d="M76042 37089
L75727 37089
L75727 37014
L75742 36969
L75772 36939
L75802 36924
L75862 36909
L75907 36909
L75967 36924
L75997 36939
L76027 36969
L76042 37014
L76042 37089
" />
<path d="M76042 36774
L75832 36774
" />
<path d="M75727 36774
L75742 36789
L75757 36774
L75742 36759
L75727 36774
L75757 36774
" />
<path d="M75832 36489
L76087 36489
L76117 36504
L76132 36519
L76147 36549
L76147 36594
L76132 36624
" />
<path d="M76027 36489
L76042 36519
L76042 36579
L76027 36609
L76012 36624
L75982 36639
L75892 36639
L75862 36624
L75847 36609
L75832 36579
L75832 36519
L75847 36489
" />
<path d="M76042 36340
L75832 36340
" />
<path d="M75727 36340
L75742 36355
L75757 36340
L75742 36325
L75727 36340
L75757 36340
" />
<path d="M75832 36235
L75832 36115
" />
<path d="M75727 36190
L75997 36190
L76027 36175
L76042 36145
L76042 36115
" />
<path d="M76042 35875
L75877 35875
L75847 35890
L75832 35920
L75832 35980
L75847 36010
" />
<path d="M76027 35875
L76042 35905
L76042 35980
L76027 36010
L75997 36025
L75967 36025
L75937 36010
L75922 35980
L75922 35905
L75907 35875
" />
<path d="M76042 35680
L76027 35710
L75997 35725
L75727 35725
" />
<path d="M57947 30777
L57977 30777
L58007 30792
L58022 30807
L58037 30837
L58052 30897
L58052 30972
L58037 31032
L58022 31062
L58007 31077
L57977 31092
L57947 31092
L57917 31077
L57902 31062
L57887 31032
L57872 30972
L57872 30897
L57887 30837
L57902 30807
L57917 30792
L57947 30777
" />
<path d="M58187 31062
L58202 31077
L58187 31092
L58172 31077
L58187 31062
L58187 31092
" />
<path d="M58502 31092
L58322 31092
" />
<path d="M58412 31092
L58412 30777
L58382 30822
L58352 30852
L58322 30867
" />
<path d="M58637 31092
L58637 30882
" />
<path d="M58637 30912
L58652 30897
L58682 30882
L58727 30882
L58757 30897
L58772 30927
L58772 31092
" />
<path d="M58772 30927
L58787 30897
L58817 30882
L58862 30882
L58892 30897
L58907 30927
L58907 31092
" />
<path d="M57995 38952
L58145 38952
" />
<path d="M57965 39042
L58070 38727
L58175 39042
" />
<path d="M58235 38727
L58415 38727
" />
<path d="M58325 39042
L58325 38727
" />
<path d="M58520 39042
L58520 38727
L58625 38952
L58730 38727
L58730 39042
" />
<path d="M58880 38877
L58985 38877
" />
<path d="M59030 39042
L58880 39042
L58880 38727
L59030 38727
" />
<path d="M59330 38742
L59300 38727
L59255 38727
L59210 38742
L59180 38772
L59165 38802
L59150 38862
L59150 38907
L59165 38967
L59180 38997
L59210 39027
L59255 39042
L59285 39042
L59330 39027
L59345 39012
L59345 38907
L59285 38907
" />
<path d="M59465 38952
L59615 38952
" />
<path d="M59435 39042
L59540 38727
L59645 39042
" />
<path d="M59735 38757
L59750 38742
L59780 38727
L59855 38727
L59885 38742
L59900 38757
L59915 38787
L59915 38817
L59900 38862
L59720 39042
L59915 39042
" />
<path d="M60200 38727
L60050 38727
L60035 38877
L60050 38862
L60080 38847
L60155 38847
L60185 38862
L60200 38877
L60214 38907
L60214 38982
L60200 39012
L60185 39027
L60155 39042
L60080 39042
L60050 39027
L60035 39012
" />
<path d="M60484 38727
L60424 38727
L60394 38742
L60379 38757
L60349 38802
L60334 38862
L60334 38982
L60349 39012
L60364 39027
L60394 39042
L60454 39042
L60484 39027
L60499 39012
L60514 38982
L60514 38907
L60499 38877
L60484 38862
L60454 38847
L60394 38847
L60364 38862
L60349 38877
L60334 38907
" />
<path d="M60709 38727
L60739 38727
L60769 38742
L60784 38757
L60799 38787
L60814 38847
L60814 38922
L60799 38982
L60784 39012
L60769 39027
L60739 39042
L60709 39042
L60679 39027
L60664 39012
L60649 38982
L60634 38922
L60634 38847
L60649 38787
L60664 38757
L60679 38742
L60709 38727
" />
<path d="M60949 38922
L61189 38922
" />
<path d="M61504 39042
L61324 39042
" />
<path d="M61414 39042
L61414 38727
L61384 38772
L61354 38802
L61324 38817
" />
<path d="M61774 38727
L61714 38727
L61684 38742
L61669 38757
L61639 38802
L61624 38862
L61624 38982
L61639 39012
L61654 39027
L61684 39042
L61744 39042
L61774 39027
L61789 39012
L61804 38982
L61804 38907
L61789 38877
L61774 38862
L61744 38847
L61684 38847
L61654 38862
L61639 38877
L61624 38907
" />
<path d="M61924 38952
L62074 38952
" />
<path d="M61894 39042
L61999 38727
L62104 39042
" />
<path d="M62209 38727
L62209 38982
L62224 39012
L62239 39027
L62269 39042
L62329 39042
L62359 39027
L62374 39012
L62389 38982
L62389 38727
" />
<path d="M53550 34677
L53580 34677
L53610 34692
L53625 34707
L53640 34737
L53655 34797
L53655 34872
L53640 34932
L53625 34962
L53610 34977
L53580 34992
L53550 34992
L53520 34977
L53505 34962
L53490 34932
L53475 34872
L53475 34797
L53490 34737
L53505 34707
L53520 34692
L53550 34677
" />
<path d="M53790 34962
L53805 34977
L53790 34992
L53775 34977
L53790 34962
L53790 34992
" />
<path d="M54104 34992
L53925 34992
" />
<path d="M54014 34992
L54014 34677
L53985 34722
L53955 34752
L53925 34767
" />
<path d="M54239 34992
L54239 34782
" />
<path d="M54239 34812
L54254 34797
L54284 34782
L54329 34782
L54359 34797
L54374 34827
L54374 34992
" />
<path d="M54374 34827
L54389 34797
L54419 34782
L54464 34782
L54494 34797
L54509 34827
L54509 34992
" />
<path d="M57622 29342
L57307 29342
L57307 29222
L57322 29192
L57337 29177
L57367 29162
L57412 29162
L57442 29177
L57457 29192
L57472 29222
L57472 29342
" />
<path d="M57307 29057
L57622 28982
L57397 28922
L57622 28862
L57307 28787
" />
<path d="M57622 28667
L57307 28667
L57532 28562
L57307 28457
L57622 28457
" />
<path d="M50042 46452
L50042 46632
" />
<path d="M50042 46542
L49727 46542
L49772 46572
L49802 46602
L49817 46632
" />
<path d="M49727 46257
L49727 46227
L49742 46197
L49757 46182
L49787 46167
L49847 46152
L49922 46152
L49982 46167
L50012 46182
L50027 46197
L50042 46227
L50042 46257
L50027 46287
L50012 46302
L49982 46317
L49922 46332
L49847 46332
L49787 46317
L49757 46302
L49742 46287
L49727 46257
" />
<path d="M49832 45882
L50042 45882
" />
<path d="M49832 46017
L49997 46017
L50027 46002
L50042 45972
L50042 45927
L50027 45897
L50012 45882
" />
<path d="M49712 45507
L50117 45777
" />
<path d="M49727 45432
L49727 45237
L49847 45342
L49847 45297
L49862 45267
L49877 45252
L49907 45237
L49982 45237
L50012 45252
L50027 45267
L50042 45297
L50042 45387
L50027 45417
L50012 45432
" />
<path d="M49727 44952
L49727 45102
L49877 45117
L49862 45102
L49847 45072
L49847 44997
L49862 44967
L49877 44952
L49907 44937
L49982 44937
L50012 44952
L50027 44967
L50042 44997
L50042 45072
L50027 45102
L50012 45117
" />
<path d="M49727 44847
L50042 44742
L49727 44637
" />
<path d="M48242 46352
L48242 46532
" />
<path d="M48242 46442
L47927 46442
L47972 46472
L48002 46502
L48017 46532
" />
<path d="M47927 46157
L47927 46127
L47942 46097
L47957 46082
L47987 46067
L48047 46052
L48122 46052
L48182 46067
L48212 46082
L48227 46097
L48242 46127
L48242 46157
L48227 46187
L48212 46202
L48182 46217
L48122 46232
L48047 46232
L47987 46217
L47957 46202
L47942 46187
L47927 46157
" />
<path d="M48032 45782
L48242 45782
" />
<path d="M48032 45917
L48197 45917
L48227 45902
L48242 45872
L48242 45827
L48227 45797
L48212 45782
" />
<path d="M47912 45407
L48317 45677
" />
<path d="M47927 45332
L47927 45137
L48047 45242
L48047 45197
L48062 45167
L48077 45152
L48107 45137
L48182 45137
L48212 45152
L48227 45167
L48242 45197
L48242 45287
L48227 45317
L48212 45332
" />
<path d="M47927 44852
L47927 45002
L48077 45017
L48062 45002
L48047 44972
L48047 44897
L48062 44867
L48077 44852
L48107 44837
L48182 44837
L48212 44852
L48227 44867
L48242 44897
L48242 44972
L48227 45002
L48212 45017
" />
<path d="M47927 44747
L48242 44642
L47927 44537
" />
<path d="M53072 32192
L52967 32042
" />
<path d="M52892 32192
L52892 31877
L53012 31877
L53042 31892
L53057 31907
L53072 31937
L53072 31982
L53057 32012
L53042 32027
L53012 32042
L52892 32042
" />
<path d="M53327 32177
L53297 32192
L53237 32192
L53207 32177
L53192 32147
L53192 32027
L53207 31997
L53237 31982
L53297 31982
L53327 31997
L53342 32027
L53342 32057
L53192 32087
" />
<path d="M53612 32192
L53612 31877
" />
<path d="M53612 32177
L53582 32192
L53522 32192
L53492 32177
L53477 32162
L53462 32132
L53462 32042
L53477 32012
L53492 31997
L53522 31982
L53582 31982
L53612 31997
" />
<path d="M54152 32192
L54002 32192
L54002 31877
" />
<path d="M54257 32027
L54362 32027
" />
<path d="M54407 32192
L54257 32192
L54257 31877
L54407 31877
" />
<path d="M54542 32192
L54542 31877
L54617 31877
L54662 31892
L54692 31922
L54707 31952
L54722 32012
L54722 32057
L54707 32117
L54692 32147
L54662 32177
L54617 32192
L54542 32192
" />
<path d="M46047 35092
L45867 35092
" />
<path d="M45957 35092
L45957 34777
L45927 34822
L45897 34852
L45867 34867
" />
<path d="M46317 34882
L46317 35092
" />
<path d="M46182 34882
L46182 35047
L46197 35077
L46227 35092
L46272 35092
L46302 35077
L46317 35062
" />
<path d="M53697 33192
L53517 33192
" />
<path d="M53607 33192
L53607 32877
L53577 32922
L53547 32952
L53517 32967
" />
<path d="M53892 32877
L53922 32877
L53952 32892
L53967 32907
L53982 32937
L53997 32997
L53997 33072
L53982 33132
L53967 33162
L53952 33177
L53922 33192
L53892 33192
L53862 33177
L53847 33162
L53832 33132
L53817 33072
L53817 32997
L53832 32937
L53847 32907
L53862 32892
L53892 32877
" />
<path d="M54267 32982
L54267 33192
" />
<path d="M54132 32982
L54132 33147
L54147 33177
L54177 33192
L54222 33192
L54252 33177
L54267 33162
" />
<path d="M45395 41992
L45365 41977
L45320 41977
L45275 41992
L45245 42022
L45230 42052
L45215 42112
L45215 42157
L45230 42217
L45245 42247
L45275 42277
L45320 42292
L45350 42292
L45395 42277
L45410 42262
L45410 42157
L45350 42157
" />
<path d="M45545 42292
L45545 42082
" />
<path d="M45545 42142
L45560 42112
L45575 42097
L45605 42082
L45635 42082
" />
<path d="M45860 42277
L45830 42292
L45770 42292
L45740 42277
L45725 42247
L45725 42127
L45740 42097
L45770 42082
L45830 42082
L45860 42097
L45875 42127
L45875 42157
L45725 42187
" />
<path d="M46130 42277
L46100 42292
L46040 42292
L46010 42277
L45995 42247
L45995 42127
L46010 42097
L46040 42082
L46100 42082
L46130 42097
L46145 42127
L46145 42157
L45995 42187
" />
<path d="M46280 42082
L46280 42292
" />
<path d="M46280 42112
L46295 42097
L46325 42082
L46370 42082
L46400 42097
L46414 42127
L46414 42292
" />
<path d="M46984 42292
L46879 42142
" />
<path d="M46804 42292
L46804 41977
L46924 41977
L46954 41992
L46969 42007
L46984 42037
L46984 42082
L46969 42112
L46954 42127
L46924 42142
L46804 42142
" />
<path d="M47119 42127
L47224 42127
" />
<path d="M47269 42292
L47119 42292
L47119 41977
L47269 41977
" />
<path d="M47404 42292
L47404 41977
L47479 41977
L47524 41992
L47554 42022
L47569 42052
L47584 42112
L47584 42157
L47569 42217
L47554 42247
L47524 42277
L47479 42292
L47404 42292
" />
<path d="M42945 39742
L42945 39892
" />
<path d="M42840 39577
L42945 39742
L43050 39577
" />
<path d="M43275 39877
L43245 39892
L43185 39892
L43155 39877
L43140 39847
L43140 39727
L43155 39697
L43185 39682
L43245 39682
L43275 39697
L43290 39727
L43290 39757
L43140 39787
" />
<path d="M43470 39892
L43440 39877
L43425 39847
L43425 39577
" />
<path d="M43635 39892
L43605 39877
L43590 39847
L43590 39577
" />
<path d="M43800 39892
L43770 39877
L43755 39862
L43740 39832
L43740 39742
L43755 39712
L43770 39697
L43800 39682
L43845 39682
L43875 39697
L43890 39712
L43905 39742
L43905 39832
L43890 39862
L43875 39877
L43845 39892
L43800 39892
" />
<path d="M44010 39682
L44070 39892
L44129 39742
L44189 39892
L44249 39682
" />
<path d="M44759 39892
L44609 39892
L44609 39577
" />
<path d="M44864 39727
L44969 39727
" />
<path d="M45014 39892
L44864 39892
L44864 39577
L45014 39577
" />
<path d="M45149 39892
L45149 39577
L45224 39577
L45269 39592
L45299 39622
L45314 39652
L45329 39712
L45329 39757
L45314 39817
L45299 39847
L45269 39877
L45224 39892
L45149 39892
" />
<path d="M43345 37442
L43345 37592
" />
<path d="M43240 37277
L43345 37442
L43450 37277
" />
<path d="M43675 37577
L43645 37592
L43585 37592
L43555 37577
L43540 37547
L43540 37427
L43555 37397
L43585 37382
L43645 37382
L43675 37397
L43690 37427
L43690 37457
L43540 37487
" />
<path d="M43870 37592
L43840 37577
L43825 37547
L43825 37277
" />
<path d="M44035 37592
L44005 37577
L43990 37547
L43990 37277
" />
<path d="M44200 37592
L44170 37577
L44155 37562
L44140 37532
L44140 37442
L44155 37412
L44170 37397
L44200 37382
L44245 37382
L44275 37397
L44290 37412
L44305 37442
L44305 37532
L44290 37562
L44275 37577
L44245 37592
L44200 37592
" />
<path d="M44410 37382
L44470 37592
L44529 37442
L44589 37592
L44649 37382
" />
<path d="M45159 37592
L45009 37592
L45009 37277
" />
<path d="M45264 37427
L45369 37427
" />
<path d="M45414 37592
L45264 37592
L45264 37277
L45414 37277
" />
<path d="M45549 37592
L45549 37277
L45624 37277
L45669 37292
L45699 37322
L45714 37352
L45729 37412
L45729 37457
L45714 37517
L45699 37547
L45669 37577
L45624 37592
L45549 37592
" />
<path d="M53072 39292
L53072 38977
L53177 39202
L53282 38977
L53282 39292
" />
<path d="M53537 39127
L53582 39142
L53597 39157
L53612 39187
L53612 39232
L53597 39262
L53582 39277
L53552 39292
L53432 39292
L53432 38977
L53537 38977
L53567 38992
L53582 39007
L53597 39037
L53597 39067
L53582 39097
L53567 39112
L53537 39127
L53432 39127
" />
<path d="M53927 39292
L53822 39142
" />
<path d="M53747 39292
L53747 38977
L53867 38977
L53897 38992
L53912 39007
L53927 39037
L53927 39082
L53912 39112
L53897 39127
L53867 39142
L53747 39142
" />
<path d="M54226 39292
L54046 39292
" />
<path d="M54136 39292
L54136 38977
L54106 39022
L54076 39052
L54046 39067
" />
<path d="M54346 39007
L54361 38992
L54391 38977
L54466 38977
L54496 38992
L54511 39007
L54526 39037
L54526 39067
L54511 39112
L54331 39292
L54526 39292
" />
<path d="M54721 38977
L54751 38977
L54781 38992
L54796 39007
L54811 39037
L54826 39097
L54826 39172
L54811 39232
L54796 39262
L54781 39277
L54751 39292
L54721 39292
L54691 39277
L54676 39262
L54661 39232
L54646 39172
L54646 39097
L54661 39037
L54676 39007
L54691 38992
L54721 38977
" />
<path d="M53030 34192
L53030 33877
L53135 34102
L53240 33877
L53240 34192
" />
<path d="M53495 34027
L53540 34042
L53555 34057
L53570 34087
L53570 34132
L53555 34162
L53540 34177
L53510 34192
L53390 34192
L53390 33877
L53495 33877
L53525 33892
L53540 33907
L53555 33937
L53555 33967
L53540 33997
L53525 34012
L53495 34027
L53390 34027
" />
<path d="M53885 34192
L53780 34042
" />
<path d="M53705 34192
L53705 33877
L53825 33877
L53855 33892
L53870 33907
L53885 33937
L53885 33982
L53870 34012
L53855 34027
L53825 34042
L53705 34042
" />
<path d="M54184 34192
L54004 34192
" />
<path d="M54094 34192
L54094 33877
L54064 33922
L54034 33952
L54004 33967
" />
<path d="M54304 33907
L54319 33892
L54349 33877
L54424 33877
L54454 33892
L54469 33907
L54484 33937
L54484 33967
L54469 34012
L54289 34192
L54484 34192
" />
<path d="M54679 33877
L54709 33877
L54739 33892
L54754 33907
L54769 33937
L54784 33997
L54784 34072
L54769 34132
L54754 34162
L54739 34177
L54709 34192
L54679 34192
L54649 34177
L54634 34162
L54619 34132
L54604 34072
L54604 33997
L54619 33937
L54634 33907
L54649 33892
L54679 33877
" />
<path d="M40877 33574
L41132 33574
L41162 33559
L41177 33544
L41192 33514
L41192 33454
L41177 33424
L41162 33409
L41132 33394
L40877 33394
" />
<path d="M41177 33259
L41192 33214
L41192 33139
L41177 33109
L41162 33094
L41132 33079
L41102 33079
L41072 33094
L41057 33109
L41042 33139
L41027 33199
L41012 33229
L40997 33244
L40967 33259
L40937 33259
L40907 33244
L40892 33229
L40877 33199
L40877 33124
L40892 33079
" />
<path d="M41027 32840
L41042 32795
L41057 32780
L41087 32765
L41132 32765
L41162 32780
L41177 32795
L41192 32825
L41192 32944
L40877 32944
L40877 32840
L40892 32810
L40907 32795
L40937 32780
L40967 32780
L40997 32795
L41012 32810
L41027 32840
L41027 32944
" />
<path d="M41222 32705
L41222 32465
" />
<path d="M41027 32285
L41042 32240
L41057 32225
L41087 32210
L41132 32210
L41162 32225
L41177 32240
L41192 32270
L41192 32390
L40877 32390
L40877 32285
L40892 32255
L40907 32240
L40937 32225
L40967 32225
L40997 32240
L41012 32255
L41027 32285
L41027 32390
" />
<path d="M40827 39124
L41082 39124
L41112 39109
L41127 39094
L41142 39064
L41142 39004
L41127 38974
L41112 38959
L41082 38944
L40827 38944
" />
<path d="M41127 38809
L41142 38764
L41142 38689
L41127 38659
L41112 38644
L41082 38629
L41052 38629
L41022 38644
L41007 38659
L40992 38689
L40977 38749
L40962 38779
L40947 38794
L40917 38809
L40887 38809
L40857 38794
L40842 38779
L40827 38749
L40827 38674
L40842 38629
" />
<path d="M40977 38389
L40992 38344
L41007 38329
L41037 38314
L41082 38314
L41112 38329
L41127 38344
L41142 38374
L41142 38494
L40827 38494
L40827 38389
L40842 38359
L40857 38344
L40887 38329
L40917 38329
L40947 38344
L40962 38359
L40977 38389
L40977 38494
" />
<path d="M41172 38254
L41172 38014
" />
<path d="M40977 37834
L40992 37789
L41007 37774
L41037 37759
L41082 37759
L41112 37774
L41127 37789
L41142 37819
L41142 37939
L40827 37939
L40827 37834
L40842 37804
L40857 37789
L40887 37774
L40917 37774
L40947 37789
L40962 37804
L40977 37834
L40977 37939
" />
<path d="M41172 37700
L41172 37460
" />
<path d="M41142 37385
L40827 37385
L41052 37280
L40827 37175
L41142 37175
" />
<path d="M41142 37025
L40932 37025
" />
<path d="M40827 37025
L40842 37040
L40857 37025
L40842 37010
L40827 37025
L40857 37025
" />
<path d="M41127 36740
L41142 36770
L41142 36830
L41127 36860
L41112 36875
L41082 36890
L40992 36890
L40962 36875
L40947 36860
L40932 36830
L40932 36770
L40947 36740
" />
<path d="M41142 36605
L40932 36605
" />
<path d="M40992 36605
L40962 36590
L40947 36575
L40932 36545
L40932 36515
" />
<path d="M41142 36365
L41127 36395
L41112 36410
L41082 36425
L40992 36425
L40962 36410
L40947 36395
L40932 36365
L40932 36320
L40947 36290
L40962 36275
L40992 36260
L41082 36260
L41112 36275
L41127 36290
L41142 36320
L41142 36365
" />
<path d="M40777 42624
L41032 42624
L41062 42609
L41077 42594
L41092 42564
L41092 42504
L41077 42474
L41062 42459
L41032 42444
L40777 42444
" />
<path d="M41077 42309
L41092 42264
L41092 42189
L41077 42159
L41062 42144
L41032 42129
L41002 42129
L40972 42144
L40957 42159
L40942 42189
L40927 42249
L40912 42279
L40897 42294
L40867 42309
L40837 42309
L40807 42294
L40792 42279
L40777 42249
L40777 42174
L40792 42129
" />
<path d="M40927 41889
L40942 41844
L40957 41829
L40987 41814
L41032 41814
L41062 41829
L41077 41844
L41092 41874
L41092 41994
L40777 41994
L40777 41889
L40792 41859
L40807 41844
L40837 41829
L40867 41829
L40897 41844
L40912 41859
L40927 41889
L40927 41994
" />
<path d="M41122 41754
L41122 41514
" />
<path d="M40927 41334
L40942 41289
L40957 41274
L40987 41259
L41032 41259
L41062 41274
L41077 41289
L41092 41319
L41092 41439
L40777 41439
L40777 41334
L40792 41304
L40807 41289
L40837 41274
L40867 41274
L40897 41289
L40912 41304
L40927 41334
L40927 41439
" />
<path d="M41122 41200
L41122 40960
" />
<path d="M41092 40885
L40777 40885
L41002 40780
L40777 40675
L41092 40675
" />
<path d="M41092 40525
L40882 40525
" />
<path d="M40777 40525
L40792 40540
L40807 40525
L40792 40510
L40777 40525
L40807 40525
" />
<path d="M41077 40240
L41092 40270
L41092 40330
L41077 40360
L41062 40375
L41032 40390
L40942 40390
L40912 40375
L40897 40360
L40882 40330
L40882 40270
L40897 40240
" />
<path d="M41092 40105
L40882 40105
" />
<path d="M40942 40105
L40912 40090
L40897 40075
L40882 40045
L40882 40015
" />
<path d="M41092 39865
L41077 39895
L41062 39910
L41032 39925
L40942 39925
L40912 39910
L40897 39895
L40882 39865
L40882 39820
L40897 39790
L40912 39775
L40942 39760
L41032 39760
L41062 39775
L41077 39790
L41092 39820
L41092 39865
" />
<path d="M53252 43077
L53252 42927
" />
<path d="M53342 43107
L53027 43002
L53342 42897
" />
<path d="M53342 42792
L53027 42792
L53027 42672
L53042 42642
L53057 42627
L53087 42612
L53132 42612
L53162 42627
L53177 42642
L53192 42672
L53192 42792
" />
<path d="M53342 42312
L53342 42492
" />
<path d="M53342 42402
L53027 42402
L53072 42432
L53102 42462
L53117 42492
" />
<path d="M53342 42012
L53342 42192
" />
<path d="M53342 42102
L53027 42102
L53072 42132
L53102 42162
L53117 42192
" />
<path d="M53342 41712
L53342 41892
" />
<path d="M53342 41802
L53027 41802
L53072 41832
L53102 41862
L53117 41892
" />
<path d="M53027 41607
L53027 41397
L53342 41532
" />
<path d="M53222 41277
L53222 41037
" />
<path d="M53027 40737
L53027 40887
L53177 40902
L53162 40887
L53147 40857
L53147 40782
L53162 40752
L53177 40737
L53207 40722
L53282 40722
L53312 40737
L53327 40752
L53342 40782
L53342 40857
L53327 40887
L53312 40902
" />
<path d="M53027 40527
L53027 40497
L53042 40467
L53057 40452
L53087 40437
L53147 40422
L53222 40422
L53282 40437
L53312 40452
L53327 40467
L53342 40497
L53342 40527
L53327 40557
L53312 40572
L53282 40587
L53222 40602
L53147 40602
L53087 40587
L53057 40572
L53042 40557
L53027 40527
" />
<path d="M45430 41192
L45430 40877
L45535 41102
L45640 40877
L45640 41192
" />
<path d="M45895 41027
L45940 41042
L45955 41057
L45970 41087
L45970 41132
L45955 41162
L45940 41177
L45910 41192
L45790 41192
L45790 40877
L45895 40877
L45925 40892
L45940 40907
L45955 40937
L45955 40967
L45940 40997
L45925 41012
L45895 41027
L45790 41027
" />
<path d="M46285 41192
L46180 41042
" />
<path d="M46105 41192
L46105 40877
L46225 40877
L46255 40892
L46270 40907
L46285 40937
L46285 40982
L46270 41012
L46255 41027
L46225 41042
L46105 41042
" />
<path d="M46584 41192
L46404 41192
" />
<path d="M46494 41192
L46494 40877
L46464 40922
L46434 40952
L46404 40967
" />
<path d="M46704 40907
L46719 40892
L46749 40877
L46824 40877
L46854 40892
L46869 40907
L46884 40937
L46884 40967
L46869 41012
L46689 41192
L46884 41192
" />
<path d="M47079 40877
L47109 40877
L47139 40892
L47154 40907
L47169 40937
L47184 40997
L47184 41072
L47169 41132
L47154 41162
L47139 41177
L47109 41192
L47079 41192
L47049 41177
L47034 41162
L47019 41132
L47004 41072
L47004 40997
L47019 40937
L47034 40907
L47049 40892
L47079 40877
" />
<path d="M45351 34092
L45351 33777
L45456 34002
L45561 33777
L45561 34092
" />
<path d="M45861 34092
L45711 34092
L45711 33777
" />
<path d="M46146 34062
L46131 34077
L46086 34092
L46056 34092
L46011 34077
L45981 34047
L45966 34017
L45951 33957
L45951 33912
L45966 33852
L45981 33822
L46011 33792
L46056 33777
L46086 33777
L46131 33792
L46146 33807
" />
<path d="M46281 33972
L46521 33972
" />
<path d="M46731 33777
L46761 33777
L46791 33792
L46806 33807
L46821 33837
L46836 33897
L46836 33972
L46821 34032
L46806 34062
L46791 34077
L46761 34092
L46731 34092
L46701 34077
L46686 34062
L46671 34032
L46656 33972
L46656 33897
L46671 33837
L46686 33807
L46701 33792
L46731 33777
" />
<path d="M47121 33777
L46971 33777
L46956 33927
L46971 33912
L47001 33897
L47076 33897
L47106 33912
L47121 33927
L47136 33957
L47136 34032
L47121 34062
L47106 34077
L47076 34092
L47001 34092
L46971 34077
L46956 34062
" />
<path d="M47271 33927
L47376 33927
" />
<path d="M47421 34092
L47271 34092
L47271 33777
L47421 33777
" />
<path d="M45672 31592
L45672 31277
L45777 31502
L45882 31277
L45882 31592
" />
<path d="M46182 31592
L46032 31592
L46032 31277
" />
<path d="M46467 31562
L46452 31577
L46407 31592
L46377 31592
L46332 31577
L46302 31547
L46287 31517
L46272 31457
L46272 31412
L46287 31352
L46302 31322
L46332 31292
L46377 31277
L46407 31277
L46452 31292
L46467 31307
" />
<path d="M46602 31472
L46842 31472
" />
<path d="M47052 31277
L47082 31277
L47112 31292
L47127 31307
L47142 31337
L47157 31397
L47157 31472
L47142 31532
L47127 31562
L47112 31577
L47082 31592
L47052 31592
L47022 31577
L47007 31562
L46992 31532
L46977 31472
L46977 31397
L46992 31337
L47007 31307
L47022 31292
L47052 31277
" />
<path d="M47442 31277
L47292 31277
L47277 31427
L47292 31412
L47322 31397
L47397 31397
L47427 31412
L47442 31427
L47457 31457
L47457 31532
L47442 31562
L47427 31577
L47397 31592
L47322 31592
L47292 31577
L47277 31562
" />
<path d="M47592 31427
L47697 31427
" />
<path d="M47742 31592
L47592 31592
L47592 31277
L47742 31277
" />
<path d="M45325 30482
L45445 30482
" />
<path d="M45370 30692
L45370 30422
L45385 30392
L45415 30377
L45445 30377
" />
<path d="M45670 30677
L45640 30692
L45580 30692
L45550 30677
L45535 30647
L45535 30527
L45550 30497
L45580 30482
L45640 30482
L45670 30497
L45685 30527
L45685 30557
L45535 30587
" />
<path d="M45820 30692
L45820 30482
" />
<path d="M45820 30542
L45835 30512
L45850 30497
L45880 30482
L45910 30482
" />
<path d="M46015 30692
L46015 30482
" />
<path d="M46015 30377
L46000 30392
L46015 30407
L46030 30392
L46015 30377
L46015 30407
" />
<path d="M46120 30482
L46240 30482
" />
<path d="M46165 30377
L46165 30647
L46180 30677
L46210 30692
L46240 30692
" />
<path d="M46465 30677
L46435 30692
L46375 30692
L46345 30677
L46330 30647
L46330 30527
L46345 30497
L46375 30482
L46435 30482
L46465 30497
L46480 30527
L46480 30557
L46330 30587
" />
<path d="M46854 30692
L46854 30377
" />
<path d="M46854 30497
L46884 30482
L46944 30482
L46974 30497
L46989 30512
L47004 30542
L47004 30632
L46989 30662
L46974 30677
L46944 30692
L46884 30692
L46854 30677
" />
<path d="M47259 30677
L47229 30692
L47169 30692
L47139 30677
L47124 30647
L47124 30527
L47139 30497
L47169 30482
L47229 30482
L47259 30497
L47274 30527
L47274 30557
L47124 30587
" />
<path d="M47544 30692
L47544 30527
L47529 30497
L47499 30482
L47439 30482
L47409 30497
" />
<path d="M47544 30677
L47514 30692
L47439 30692
L47409 30677
L47394 30647
L47394 30617
L47409 30587
L47439 30572
L47514 30572
L47544 30557
" />
<path d="M47829 30692
L47829 30377
" />
<path d="M47829 30677
L47799 30692
L47739 30692
L47709 30677
L47694 30662
L47679 30632
L47679 30542
L47694 30512
L47709 30497
L47739 30482
L47799 30482
L47829 30497
" />
<path d="M45840 36027
L45735 36027
" />
<path d="M45735 36192
L45735 35877
L45885 35877
" />
<path d="M46140 35982
L46140 36192
" />
<path d="M46005 35982
L46005 36147
L46020 36177
L46050 36192
L46095 36192
L46125 36177
L46140 36162
" />
<path d="M46274 36177
L46304 36192
L46364 36192
L46394 36177
L46409 36147
L46409 36132
L46394 36102
L46364 36087
L46319 36087
L46289 36072
L46274 36042
L46274 36027
L46289 35997
L46319 35982
L46364 35982
L46394 35997
" />
<path d="M46664 36177
L46634 36192
L46574 36192
L46544 36177
L46529 36147
L46529 36027
L46544 35997
L46574 35982
L46634 35982
L46664 35997
L46679 36027
L46679 36057
L46529 36087
" />
<path d="M46262 43292
L46082 43292
" />
<path d="M46172 43292
L46172 42977
L46142 43022
L46112 43052
L46082 43067
" />
<path d="M46397 43292
L46397 42977
" />
<path d="M46427 43172
L46517 43292
" />
<path d="M46517 43082
L46397 43202
" />
<path d="M53712 35892
L53532 35892
" />
<path d="M53622 35892
L53622 35577
L53592 35622
L53562 35652
L53532 35667
" />
<path d="M53907 35577
L53937 35577
L53967 35592
L53982 35607
L53997 35637
L54012 35697
L54012 35772
L53997 35832
L53982 35862
L53967 35877
L53937 35892
L53907 35892
L53877 35877
L53862 35862
L53847 35832
L53832 35772
L53832 35697
L53847 35637
L53862 35607
L53877 35592
L53907 35577
" />
<path d="M54147 35892
L54147 35577
" />
<path d="M54177 35772
L54267 35892
" />
<path d="M54267 35682
L54147 35802
" />
<path d="M53862 31092
L53682 31092
" />
<path d="M53772 31092
L53772 30777
L53742 30822
L53712 30852
L53682 30867
" />
<path d="M53997 31092
L53997 30777
" />
<path d="M54027 30972
L54117 31092
" />
<path d="M54117 30882
L53997 31002
" />
<path d="M46241 40292
L46061 40292
" />
<path d="M46151 40292
L46151 39977
L46121 40022
L46091 40052
L46061 40067
" />
<path d="M46376 40292
L46376 39977
" />
<path d="M46406 40172
L46496 40292
" />
<path d="M46496 40082
L46376 40202
" />
<path d="M47462 36892
L47282 36892
" />
<path d="M47372 36892
L47372 36577
L47342 36622
L47312 36652
L47282 36667
" />
<path d="M47597 36892
L47597 36577
" />
<path d="M47627 36772
L47717 36892
" />
<path d="M47717 36682
L47597 36802
" />
<path d="M46139 33107
L46154 33092
L46184 33077
L46259 33077
L46289 33092
L46304 33107
L46319 33137
L46319 33167
L46304 33212
L46124 33392
L46319 33392
" />
<path d="M46438 33107
L46453 33092
L46483 33077
L46558 33077
L46588 33092
L46603 33107
L46618 33137
L46618 33167
L46603 33212
L46423 33392
L46618 33392
" />
<path d="M46139 32107
L46154 32092
L46184 32077
L46259 32077
L46289 32092
L46304 32107
L46319 32137
L46319 32167
L46304 32212
L46124 32392
L46319 32392
" />
<path d="M46438 32107
L46453 32092
L46483 32077
L46558 32077
L46588 32092
L46603 32107
L46618 32137
L46618 32167
L46603 32212
L46423 32392
L46618 32392
" />
<path d="M53450 36377
L53480 36377
L53510 36392
L53525 36407
L53540 36437
L53555 36497
L53555 36572
L53540 36632
L53525 36662
L53510 36677
L53480 36692
L53450 36692
L53420 36677
L53405 36662
L53390 36632
L53375 36572
L53375 36497
L53390 36437
L53405 36407
L53420 36392
L53450 36377
" />
<path d="M53690 36662
L53705 36677
L53690 36692
L53675 36677
L53690 36662
L53690 36692
" />
<path d="M54004 36692
L53825 36692
" />
<path d="M53914 36692
L53914 36377
L53885 36422
L53855 36452
L53825 36467
" />
<path d="M54139 36692
L54139 36482
" />
<path d="M54139 36512
L54154 36497
L54184 36482
L54229 36482
L54259 36497
L54274 36527
L54274 36692
" />
<path d="M54274 36527
L54289 36497
L54319 36482
L54364 36482
L54394 36497
L54409 36527
L54409 36692
" />
<path d="M54727 42726
L54727 42696
L54742 42666
L54757 42651
L54787 42636
L54847 42621
L54922 42621
L54982 42636
L55012 42651
L55027 42666
L55042 42696
L55042 42726
L55027 42756
L55012 42771
L54982 42786
L54922 42801
L54847 42801
L54787 42786
L54757 42771
L54742 42756
L54727 42726
" />
<path d="M55012 42486
L55027 42471
L55042 42486
L55027 42501
L55012 42486
L55042 42486
" />
<path d="M55042 42172
L55042 42351
" />
<path d="M55042 42262
L54727 42262
L54772 42291
L54802 42321
L54817 42351
" />
<path d="M55042 42037
L54832 42037
" />
<path d="M54862 42037
L54847 42022
L54832 41992
L54832 41947
L54847 41917
L54877 41902
L55042 41902
" />
<path d="M54877 41902
L54847 41887
L54832 41857
L54832 41812
L54847 41782
L54877 41767
L55042 41767
" />
<path d="M53500 37187
L53530 37187
L53560 37202
L53575 37217
L53590 37247
L53605 37307
L53605 37382
L53590 37442
L53575 37472
L53560 37487
L53530 37502
L53500 37502
L53470 37487
L53455 37472
L53440 37442
L53425 37382
L53425 37307
L53440 37247
L53455 37217
L53470 37202
L53500 37187
" />
<path d="M53740 37472
L53755 37487
L53740 37502
L53725 37487
L53740 37472
L53740 37502
" />
<path d="M54054 37502
L53875 37502
" />
<path d="M53964 37502
L53964 37187
L53935 37232
L53905 37262
L53875 37277
" />
<path d="M54189 37502
L54189 37292
" />
<path d="M54189 37322
L54204 37307
L54234 37292
L54279 37292
L54309 37307
L54324 37337
L54324 37502
" />
<path d="M54324 37337
L54339 37307
L54369 37292
L54414 37292
L54444 37307
L54459 37337
L54459 37502
" />
<path d="M51227 42799
L51227 42769
L51242 42739
L51257 42724
L51287 42709
L51347 42694
L51422 42694
L51482 42709
L51512 42724
L51527 42739
L51542 42769
L51542 42799
L51527 42829
L51512 42844
L51482 42859
L51422 42874
L51347 42874
L51287 42859
L51257 42844
L51242 42829
L51227 42799
" />
<path d="M51512 42559
L51527 42544
L51542 42559
L51527 42574
L51512 42559
L51542 42559
" />
<path d="M51542 42245
L51542 42424
" />
<path d="M51542 42335
L51227 42335
L51272 42364
L51302 42394
L51317 42424
" />
<path d="M51542 42110
L51332 42110
" />
<path d="M51362 42110
L51347 42095
L51332 42065
L51332 42020
L51347 41990
L51377 41975
L51542 41975
" />
<path d="M51377 41975
L51347 41960
L51332 41930
L51332 41885
L51347 41855
L51377 41840
L51542 41840
" />
<path d="M47527 42684
L47527 42654
L47542 42624
L47557 42609
L47587 42594
L47647 42579
L47722 42579
L47782 42594
L47812 42609
L47827 42624
L47842 42654
L47842 42684
L47827 42714
L47812 42729
L47782 42744
L47722 42759
L47647 42759
L47587 42744
L47557 42729
L47542 42714
L47527 42684
" />
<path d="M47812 42444
L47827 42429
L47842 42444
L47827 42459
L47812 42444
L47842 42444
" />
<path d="M47842 42130
L47842 42309
" />
<path d="M47842 42220
L47527 42220
L47572 42249
L47602 42279
L47617 42309
" />
<path d="M47842 41995
L47632 41995
" />
<path d="M47662 41995
L47647 41980
L47632 41950
L47632 41905
L47647 41875
L47677 41860
L47842 41860
" />
<path d="M47677 41860
L47647 41845
L47632 41815
L47632 41770
L47647 41740
L47677 41725
L47842 41725
" />
<path d="M41070 43392
L41070 43077
L41145 43077
L41190 43092
L41220 43122
L41235 43152
L41250 43212
L41250 43257
L41235 43317
L41220 43347
L41190 43377
L41145 43392
L41070 43392
" />
<path d="M41565 43362
L41550 43377
L41505 43392
L41475 43392
L41430 43377
L41400 43347
L41385 43317
L41370 43257
L41370 43212
L41385 43152
L41400 43122
L41430 43092
L41475 43077
L41505 43077
L41550 43092
L41565 43107
" />
<path d="M41625 43422
L41865 43422
" />
<path d="M42029 43077
L42029 43302
L42014 43347
L41985 43377
L41940 43392
L41910 43392
" />
<path d="M42164 43302
L42314 43302
" />
<path d="M42134 43392
L42239 43077
L42344 43392
" />
<path d="M42629 43362
L42614 43377
L42569 43392
L42539 43392
L42494 43377
L42464 43347
L42449 43317
L42434 43257
L42434 43212
L42449 43152
L42464 43122
L42494 43092
L42539 43077
L42569 43077
L42614 43092
L42629 43107
" />
<path d="M42764 43392
L42764 43077
" />
<path d="M42944 43392
L42809 43212
" />
<path d="M42944 43077
L42764 43257
" />
<path d="M53450 38077
L53480 38077
L53510 38092
L53525 38107
L53540 38137
L53555 38197
L53555 38272
L53540 38332
L53525 38362
L53510 38377
L53480 38392
L53450 38392
L53420 38377
L53405 38362
L53390 38332
L53375 38272
L53375 38197
L53390 38137
L53405 38107
L53420 38092
L53450 38077
" />
<path d="M53690 38362
L53705 38377
L53690 38392
L53675 38377
L53690 38362
L53690 38392
" />
<path d="M54004 38392
L53825 38392
" />
<path d="M53914 38392
L53914 38077
L53885 38122
L53855 38152
L53825 38167
" />
<path d="M54139 38392
L54139 38182
" />
<path d="M54139 38212
L54154 38197
L54184 38182
L54229 38182
L54259 38197
L54274 38227
L54274 38392
" />
<path d="M54274 38227
L54289 38197
L54319 38182
L54364 38182
L54394 38197
L54409 38227
L54409 38392
" />
<path d="M59057 43289
L59042 43274
L59027 43244
L59027 43169
L59042 43139
L59057 43124
L59087 43109
L59117 43109
L59162 43124
L59342 43304
L59342 43109
" />
<path d="M59057 42990
L59042 42975
L59027 42945
L59027 42870
L59042 42840
L59057 42825
L59087 42810
L59117 42810
L59162 42825
L59342 43005
L59342 42810
" />
<path d="M56257 43089
L56242 43074
L56227 43044
L56227 42969
L56242 42939
L56257 42924
L56287 42909
L56317 42909
L56362 42924
L56542 43104
L56542 42909
" />
<path d="M56257 42790
L56242 42775
L56227 42745
L56227 42670
L56242 42640
L56257 42625
L56287 42610
L56317 42610
L56362 42625
L56542 42805
L56542 42610
" />
<path d="M60632 31092
L60452 31092
" />
<path d="M60542 31092
L60542 30777
L60512 30822
L60482 30852
L60452 30867
" />
<path d="M60827 30777
L60857 30777
L60887 30792
L60902 30807
L60917 30837
L60932 30897
L60932 30972
L60917 31032
L60902 31062
L60887 31077
L60857 31092
L60827 31092
L60797 31077
L60782 31062
L60767 31032
L60752 30972
L60752 30897
L60767 30837
L60782 30807
L60797 30792
L60827 30777
" />
<path d="M61202 30882
L61202 31092
" />
<path d="M61067 30882
L61067 31047
L61082 31077
L61112 31092
L61157 31092
L61187 31077
L61202 31062
" />
<path d="M61352 31092
L61352 30777
" />
<path d="M61352 30927
L61532 30927
" />
<path d="M61532 31092
L61532 30777
" />
<path d="M61742 40759
L61742 40939
" />
<path d="M61742 40849
L61427 40849
L61472 40879
L61502 40909
L61517 40939
" />
<path d="M61427 40564
L61427 40535
L61442 40505
L61457 40490
L61487 40475
L61547 40460
L61622 40460
L61682 40475
L61712 40490
L61727 40505
L61742 40535
L61742 40564
L61727 40594
L61712 40609
L61682 40624
L61622 40639
L61547 40639
L61487 40624
L61457 40609
L61442 40594
L61427 40564
" />
<path d="M61427 40265
L61427 40235
L61442 40205
L61457 40190
L61487 40175
L61547 40160
L61622 40160
L61682 40175
L61712 40190
L61727 40205
L61742 40235
L61742 40265
L61727 40295
L61712 40310
L61682 40325
L61622 40340
L61547 40340
L61487 40325
L61457 40310
L61442 40295
L61427 40265
" />
<path d="M57942 43139
L57942 43319
" />
<path d="M57942 43229
L57627 43229
L57672 43259
L57702 43289
L57717 43319
" />
<path d="M57942 43005
L57627 43005
L57852 42900
L57627 42795
L57942 42795
" />
<path d="M64010 40377
L64205 40377
L64100 40497
L64145 40497
L64175 40512
L64190 40527
L64205 40557
L64205 40632
L64190 40662
L64175 40677
L64145 40692
L64055 40692
L64025 40677
L64010 40662
" />
<path d="M64325 40407
L64340 40392
L64370 40377
L64445 40377
L64475 40392
L64490 40407
L64505 40437
L64505 40467
L64490 40512
L64310 40692
L64505 40692
" />
<path d="M64640 40662
L64655 40677
L64640 40692
L64625 40677
L64640 40662
L64640 40692
" />
<path d="M64760 40377
L64970 40377
L64835 40692
" />
<path d="M65225 40377
L65165 40377
L65135 40392
L65120 40407
L65090 40452
L65075 40512
L65075 40632
L65090 40662
L65105 40677
L65135 40692
L65195 40692
L65225 40677
L65240 40662
L65255 40632
L65255 40557
L65240 40527
L65225 40512
L65195 40497
L65135 40497
L65105 40512
L65090 40527
L65075 40557
" />
<path d="M65435 40512
L65405 40497
L65390 40482
L65375 40452
L65375 40437
L65390 40407
L65405 40392
L65435 40377
L65495 40377
L65525 40392
L65540 40407
L65555 40437
L65555 40452
L65540 40482
L65525 40497
L65495 40512
L65435 40512
L65405 40527
L65390 40542
L65375 40572
L65375 40632
L65390 40662
L65405 40677
L65435 40692
L65495 40692
L65525 40677
L65540 40662
L65555 40632
L65555 40572
L65540 40542
L65525 40527
L65495 40512
" />
<path d="M65690 40692
L65690 40377
" />
<path d="M65720 40572
L65810 40692
" />
<path d="M65810 40482
L65690 40602
" />
<path d="M65945 40692
L65945 40377
" />
<path d="M65945 40527
L66125 40527
" />
<path d="M66125 40692
L66125 40377
" />
<path d="M66245 40482
L66410 40482
L66245 40692
L66410 40692
" />
<path d="M66859 40812
L66844 40797
L66814 40752
L66799 40722
L66784 40677
L66769 40602
L66769 40542
L66784 40467
L66799 40422
L66814 40392
L66844 40347
L66859 40332
" />
<path d="M67024 40692
L66994 40677
L66979 40662
L66964 40632
L66964 40542
L66979 40512
L66994 40497
L67024 40482
L67069 40482
L67099 40497
L67114 40512
L67129 40542
L67129 40632
L67114 40662
L67099 40677
L67069 40692
L67024 40692
" />
<path d="M67264 40482
L67264 40797
" />
<path d="M67264 40497
L67294 40482
L67354 40482
L67384 40497
L67399 40512
L67414 40542
L67414 40632
L67399 40662
L67384 40677
L67354 40692
L67294 40692
L67264 40677
" />
<path d="M67504 40482
L67624 40482
" />
<path d="M67549 40377
L67549 40647
L67564 40677
L67594 40692
L67624 40692
" />
<path d="M67729 40692
L67729 40482
" />
<path d="M67729 40377
L67714 40392
L67729 40407
L67744 40392
L67729 40377
L67729 40407
" />
<path d="M67924 40692
L67894 40677
L67879 40662
L67864 40632
L67864 40542
L67879 40512
L67894 40497
L67924 40482
L67969 40482
L67999 40497
L68014 40512
L68029 40542
L68029 40632
L68014 40662
L67999 40677
L67969 40692
L67924 40692
" />
<path d="M68164 40482
L68164 40692
" />
<path d="M68164 40512
L68179 40497
L68209 40482
L68254 40482
L68284 40497
L68299 40527
L68299 40692
" />
<path d="M68584 40692
L68584 40527
L68569 40497
L68539 40482
L68479 40482
L68449 40497
" />
<path d="M68584 40677
L68554 40692
L68479 40692
L68449 40677
L68434 40647
L68434 40617
L68449 40587
L68479 40572
L68554 40572
L68584 40557
" />
<path d="M68779 40692
L68749 40677
L68734 40647
L68734 40377
" />
<path d="M68869 40812
L68884 40797
L68914 40752
L68929 40722
L68944 40677
L68959 40602
L68959 40542
L68944 40467
L68929 40422
L68914 40392
L68884 40347
L68869 40332
" />
<path d="M57367 40392
L57187 40392
" />
<path d="M57277 40392
L57277 40077
L57247 40122
L57217 40152
L57187 40167
" />
<path d="M57637 40077
L57577 40077
L57547 40092
L57532 40107
L57502 40152
L57487 40212
L57487 40332
L57502 40362
L57517 40377
L57547 40392
L57607 40392
L57637 40377
L57652 40362
L57667 40332
L57667 40257
L57652 40227
L57637 40212
L57607 40197
L57547 40197
L57517 40212
L57502 40227
L57487 40257
" />
<path d="M57802 40392
L57802 40077
L57907 40302
L58012 40077
L58012 40392
" />
<path d="M58162 40392
L58162 40077
" />
<path d="M58162 40227
L58342 40227
" />
<path d="M58342 40392
L58342 40077
" />
<path d="M58462 40182
L58627 40182
L58462 40392
L58627 40392
" />
</g> 
</svg>
