M48
; DRILL file {KiCad 5.1.0-rc1-unknown-6bb8fde~66~ubuntu16.04.1} date Ne 10. február 2019, 19:39:00 CET
; FORMAT={-:-/ absolute / metric / decimal}
; #@! TF.CreationDate,2019-02-10T19:39:00+01:00
; #@! TF.GenerationSoftware,Kicad,Pcbnew,5.1.0-rc1-unknown-6bb8fde~66~ubuntu16.04.1
FMAT,2
METRIC
T1C0.400
T2C0.500
T3C0.550
T4C0.599
T5C0.800
T6C0.813
T7C1.000
T8C1.016
T9C2.301
T10C3.048
%
G90
G05
T1
X107.262Y-95.123
X107.362Y-102.484
X107.389Y-103.505
X107.887Y-97.155
X108.618Y-100.851
X110.31Y-97.155
X110.517Y-104.568
X110.971Y-96.62
X111.118Y-103.966
X111.453Y-83.693
X111.572Y-96.019
X112.758Y-93.662
X112.911Y-100.901
X112.936Y-87.185
X113.139Y-104.661
X115.554Y-82.633
X115.554Y-83.483
X116.967Y-91.948
X117.285Y-103.251
X117.411Y-112.433
X119.581Y-101.981
X120.002Y-116.116
X120.078Y-94.488
X120.65Y-73.914
X120.986Y-82.073
X121.031Y-81.374
X121.285Y-85.661
X122.047Y-77.851
X122.364Y-81.089
X123.503Y-82.408
X123.503Y-83.708
X123.903Y-80.327
X124.46Y-110.363
X124.803Y-82.408
X124.803Y-83.708
X125.793Y-100.965
X125.913Y-110.002
X125.92Y-80.962
X126.238Y-85.026
X126.238Y-85.915
X126.568Y-115.392
X126.936Y-82.808
X129.794Y-74.676
X130.393Y-104.823
X130.81Y-88.265
X131.318Y-74.867
X132.08Y-79.756
X132.715Y-99.822
X133.718Y-85.484
X133.807Y-87.312
X133.998Y-97.142
X134.747Y-82.741
X135.128Y-115.316
X135.445Y-104.874
X136.462Y-85.407
X136.779Y-80.518
X136.779Y-87.376
X137.033Y-95.504
X137.033Y-97.282
X137.795Y-100.965
X139.192Y-89.535
X139.573Y-91.059
X140.081Y-99.822
X140.462Y-97.396
X140.701Y-106.236
X141.74Y-91.051
X142.43Y-96.406
X143.256Y-86.36
X143.411Y-88.745
X144.201Y-81.445
X144.328Y-96.66
X144.559Y-82.491
X145.011Y-76.114
X145.761Y-97.41
X145.819Y-96.66
X146.431Y-87.654
X146.987Y-98.354
X147.088Y-84.736
X147.498Y-84.108
X147.582Y-93.186
X147.701Y-99.17
X147.716Y-80.044
X147.764Y-92.202
X148.107Y-83.61
X148.209Y-78.613
X148.269Y-90.429
X148.289Y-93.435
X148.336Y-91.196
X148.888Y-84.349
X148.971Y-100.838
X149.195Y-83.647
X150.111Y-85.852
X150.223Y-84.089
X150.588Y-83.071
X150.937Y-86.208
X151.327Y-85.141
X151.951Y-84.168
X152.172Y-110.213
X152.173Y-111.03
X152.202Y-111.816
X153.118Y-83.889
X153.128Y-83.139
X153.606Y-75.819
X153.886Y-91.174
X153.921Y-83.871
X154.125Y-86.36
X154.125Y-88.01
X154.175Y-94.478
X154.203Y-95.504
X154.299Y-93.689
X154.414Y-92.956
X154.665Y-91.914
X154.76Y-83.845
X154.813Y-80.01
X154.878Y-84.872
X155.102Y-92.632
X155.187Y-90.919
X155.219Y-94.082
X155.321Y-95.148
X155.453Y-75.702
X155.76Y-90.435
X155.838Y-89.446
X156.373Y-89.995
X156.566Y-89.267
X156.614Y-87.846
X156.677Y-87.008
X157.16Y-89.725
X157.226Y-94.767
X157.658Y-95.326
X158.013Y-84.024
X158.072Y-85.164
X158.75Y-91.046
X158.847Y-78.326
X158.852Y-85.166
X158.877Y-90.17
X158.902Y-84.404
X158.902Y-83.134
X159.436Y-96.114
X159.461Y-98.425
X159.995Y-97.714
X161.798Y-88.773
X162.088Y-90.908
X162.329Y-88.215
X163.072Y-88.39
X163.772Y-88.411
X164.236Y-86.639
X164.533Y-88.341
X164.706Y-101.74
X165.34Y-88.432
X172.593Y-81.407
X173.736Y-83.439
X174.231Y-108.661
X174.587Y-98.971
X176.505Y-99.136
X177.057Y-96.759
X177.495Y-97.538
X177.521Y-98.552
X177.876Y-96.19
X178.204Y-96.872
X178.665Y-95.604
X178.689Y-88.519
X178.943Y-86.106
X179.121Y-96.301
X179.197Y-101.371
X180.086Y-83.566
X180.162Y-95.58
X180.217Y-81.669
X180.226Y-78.326
X180.869Y-100.835
X181.315Y-101.507
X181.813Y-105.855
X181.864Y-111.379
X182.149Y-100.528
X182.372Y-81.534
X182.423Y-101.473
X182.956Y-100.609
X183.769Y-108.839
X183.896Y-86.741
X184.125Y-100.99
X184.937Y-99.949
X185.115Y-96.114
X185.166Y-112.07
X187.858Y-98.095
X187.96Y-76.708
X187.96Y-99.949
X188.468Y-80.645
X188.665Y-82.898
T3
X108.225Y-102.394
X108.225Y-106.393
T4
X163.195Y-99.708
X163.195Y-101.206
T5
X144.697Y-104.309
X149.579Y-104.309
T6
X107.93Y-82.296
X107.93Y-84.836
X109.929Y-82.296
X109.929Y-84.836
T7
X106.075Y-101.569
X106.075Y-107.219
T8
X122.883Y-88.011
X122.883Y-90.551
X122.883Y-93.091
X122.883Y-95.631
X122.883Y-98.171
X125.423Y-88.011
X125.423Y-90.551
X125.423Y-93.091
X125.423Y-95.631
X125.423Y-98.171
X177.038Y-116.586
X177.038Y-119.126
X179.578Y-116.586
X179.578Y-119.126
X182.118Y-116.586
X182.118Y-119.126
X184.658Y-116.586
X184.658Y-119.126
X187.198Y-116.586
X187.198Y-119.126
X189.738Y-116.586
X189.738Y-119.126
X192.278Y-116.586
X192.278Y-119.126
X194.818Y-116.586
X194.818Y-119.126
X167.005Y-91.186
X167.005Y-93.726
X167.005Y-96.266
X169.545Y-91.186
X169.545Y-93.726
X169.545Y-96.266
X122.174Y-70.866
X122.174Y-73.406
X124.714Y-70.866
X124.714Y-73.406
X127.254Y-70.866
X127.254Y-73.406
X129.794Y-70.866
X129.794Y-73.406
X132.334Y-70.866
X132.334Y-73.406
X134.874Y-70.866
X134.874Y-73.406
X137.414Y-70.866
X137.414Y-73.406
X139.954Y-70.866
X139.954Y-73.406
X142.494Y-70.866
X142.494Y-73.406
X145.034Y-70.866
X145.034Y-73.406
X131.318Y-116.332
X131.318Y-118.872
X133.858Y-116.332
X133.858Y-118.872
X136.398Y-116.332
X136.398Y-118.872
X138.938Y-116.332
X138.938Y-118.872
X141.478Y-116.332
X141.478Y-118.872
X144.018Y-116.332
X144.018Y-118.872
X146.558Y-116.332
X146.558Y-118.872
X149.098Y-116.332
X149.098Y-118.872
X154.178Y-108.712
X156.718Y-108.712
X159.258Y-108.712
X161.798Y-108.712
X164.338Y-108.712
X166.878Y-108.712
X169.418Y-108.712
X171.958Y-108.712
X189.738Y-75.946
X189.738Y-78.486
X189.738Y-81.026
X189.738Y-83.566
X189.738Y-86.106
X189.738Y-88.646
X189.738Y-91.186
X189.738Y-93.726
X189.738Y-96.266
X189.738Y-98.806
X189.738Y-101.346
X189.738Y-103.886
X189.738Y-106.426
X189.738Y-108.966
X189.738Y-111.506
X189.738Y-114.046
X192.278Y-75.946
X192.278Y-78.486
X192.278Y-81.026
X192.278Y-83.566
X192.278Y-86.106
X192.278Y-88.646
X192.278Y-91.186
X192.278Y-93.726
X192.278Y-96.266
X192.278Y-98.806
X192.278Y-101.346
X192.278Y-103.886
X192.278Y-106.426
X192.278Y-108.966
X192.278Y-111.506
X192.278Y-114.046
X131.773Y-82.169
X131.773Y-84.709
X131.773Y-87.249
X131.773Y-89.789
X131.773Y-92.329
X131.773Y-94.869
X194.818Y-75.946
X194.818Y-78.486
X194.818Y-81.026
X194.818Y-83.566
X194.818Y-86.106
X194.818Y-88.646
X194.818Y-91.186
X194.818Y-93.726
X194.818Y-96.266
X194.818Y-98.806
X194.818Y-101.346
X194.818Y-103.886
X194.818Y-106.426
X194.818Y-108.966
X194.818Y-111.506
X194.818Y-114.046
X154.178Y-119.126
X156.718Y-119.126
X159.258Y-119.126
X161.798Y-119.126
X164.338Y-119.126
X166.878Y-119.126
X169.418Y-119.126
X171.958Y-119.126
X202.438Y-70.866
X202.438Y-73.406
X202.438Y-75.946
X202.438Y-78.486
X202.438Y-81.026
X202.438Y-83.566
X202.438Y-86.106
X202.438Y-88.646
X202.438Y-91.186
X202.438Y-93.726
X202.438Y-96.266
X202.438Y-98.806
X202.438Y-101.346
X202.438Y-103.886
X202.438Y-106.426
X202.438Y-108.966
X202.438Y-111.506
X202.438Y-114.046
X197.358Y-70.866
X197.358Y-73.406
X197.358Y-75.946
X197.358Y-78.486
X197.358Y-81.026
X197.358Y-83.566
X197.358Y-86.106
X197.358Y-88.646
X197.358Y-91.186
X197.358Y-93.726
X197.358Y-96.266
X197.358Y-98.806
X197.358Y-101.346
X197.358Y-103.886
X197.358Y-106.426
X197.358Y-108.966
X197.358Y-111.506
X197.358Y-114.046
X199.898Y-70.866
X199.898Y-73.406
X199.898Y-75.946
X199.898Y-78.486
X199.898Y-81.026
X199.898Y-83.566
X199.898Y-86.106
X199.898Y-88.646
X199.898Y-91.186
X199.898Y-93.726
X199.898Y-96.266
X199.898Y-98.806
X199.898Y-101.346
X199.898Y-103.886
X199.898Y-106.426
X199.898Y-108.966
X199.898Y-111.506
X199.898Y-114.046
X149.098Y-70.866
X149.098Y-73.406
X151.638Y-70.866
X151.638Y-73.406
X154.178Y-70.866
X154.178Y-73.406
X156.718Y-70.866
X156.718Y-73.406
X159.258Y-70.866
X159.258Y-73.406
X161.798Y-70.866
X161.798Y-73.406
X164.338Y-70.866
X164.338Y-73.406
X166.878Y-70.866
X166.878Y-73.406
X171.958Y-70.866
X171.958Y-73.406
X174.498Y-70.866
X174.498Y-73.406
X177.038Y-70.866
X177.038Y-73.406
X179.578Y-70.866
X179.578Y-73.406
X182.118Y-70.866
X182.118Y-73.406
X184.658Y-70.866
X184.658Y-73.406
X187.198Y-70.866
X187.198Y-73.406
X189.738Y-70.866
X189.738Y-73.406
X111.707Y-106.934
T9
X105.23Y-77.567
X105.23Y-89.565
T10
X193.548Y-70.866
X169.418Y-86.106
X118.618Y-70.866
X199.898Y-119.126
X117.348Y-119.126
X169.418Y-114.046
T2
G00X105.799Y-92.257
M15
G01X106.449Y-92.257
M16
G05
G00X105.799Y-99.257
M15
G01X106.449Y-99.257
M16
G05
T3
G00X108.824Y-93.107
M15
G01X108.824Y-93.407
M16
G05
G00X108.824Y-98.107
M15
G01X108.824Y-98.407
M16
G05
T8
G00X106.573Y-112.585
M15
G01X106.573Y-114.109
M16
G05
G00X108.097Y-118.427
M15
G01X109.621Y-118.427
M16
G05
G00X112.669Y-112.585
M15
G01X112.669Y-114.109
M16
G05
T0
M30
