G04 #@! TF.GenerationSoftware,KiCad,Pcbnew,5.1.0-rc1-unknown-6bb8fde~66~ubuntu16.04.1*
G04 #@! TF.CreationDate,2019-02-10T19:38:57+01:00
G04 #@! TF.ProjectId,arduino_mega_all_pins,61726475-696e-46f5-9f6d-6567615f616c,rev?*
G04 #@! TF.SameCoordinates,Original*
G04 #@! TF.FileFunction,Legend,Bot*
G04 #@! TF.FilePolarity,Positive*
%FSLAX46Y46*%
G04 Gerber Fmt 4.6, Leading zero omitted, Abs format (unit mm)*
G04 Created by KiCad (PCBNEW 5.1.0-rc1-unknown-6bb8fde~66~ubuntu16.04.1) date 2019-02-10 19:38:57*
%MOMM*%
%LPD*%
G04 APERTURE LIST*
%ADD10C,0.150000*%
%ADD11R,2.032000X1.727200*%
%ADD12O,2.032000X1.727200*%
%ADD13C,1.727200*%
%ADD14O,1.727200X1.727200*%
%ADD15R,1.727200X2.032000*%
%ADD16O,1.727200X2.032000*%
%ADD17C,4.064000*%
%ADD18R,1.727200X1.727200*%
%ADD19C,1.524000*%
%ADD20C,2.700020*%
%ADD21O,0.950000X1.250000*%
%ADD22O,1.550000X1.000000*%
%ADD23C,1.700000*%
%ADD24C,0.550000*%
%ADD25R,2.235200X2.235200*%
%ADD26C,4.800600*%
%ADD27R,4.800600X4.800600*%
%ADD28C,1.000760*%
%ADD29C,1.000760*%
%ADD30C,1.501140*%
G04 APERTURE END LIST*
D10*
X204978000Y-72771000D02*
X204978000Y-68326000D01*
X200406000Y-68326000D02*
X204978000Y-68326000D01*
X200406000Y-68326000D02*
X199898000Y-68326000D01*
X204978000Y-73406000D02*
X204978000Y-72771000D01*
X204978000Y-73406000D02*
X204978000Y-83566000D01*
X204978000Y-83566000D02*
X204978000Y-117856000D01*
X204978000Y-117856000D02*
X202438000Y-120396000D01*
X202438000Y-120396000D02*
X202438000Y-121666000D01*
X202438000Y-121666000D02*
X103378000Y-121666000D01*
X103378000Y-68326000D02*
X199898000Y-68326000D01*
X103378000Y-121666000D02*
X103378000Y-68326000D01*
%LPC*%
D11*
X194818000Y-75946000D03*
D12*
X194818000Y-78486000D03*
X194818000Y-81026000D03*
X194818000Y-83566000D03*
X194818000Y-86106000D03*
X194818000Y-88646000D03*
X194818000Y-91186000D03*
X194818000Y-93726000D03*
X194818000Y-96266000D03*
X194818000Y-98806000D03*
X194818000Y-101346000D03*
X194818000Y-103886000D03*
X194818000Y-106426000D03*
X194818000Y-108966000D03*
X194818000Y-111506000D03*
X194818000Y-114046000D03*
D13*
X197358000Y-114046000D03*
D14*
X199898000Y-114046000D03*
X197358000Y-111506000D03*
X199898000Y-111506000D03*
X197358000Y-108966000D03*
X199898000Y-108966000D03*
X197358000Y-106426000D03*
X199898000Y-106426000D03*
X197358000Y-103886000D03*
X199898000Y-103886000D03*
X197358000Y-101346000D03*
X199898000Y-101346000D03*
X197358000Y-98806000D03*
X199898000Y-98806000D03*
X197358000Y-96266000D03*
X199898000Y-96266000D03*
X197358000Y-93726000D03*
X199898000Y-93726000D03*
X197358000Y-91186000D03*
X199898000Y-91186000D03*
X197358000Y-88646000D03*
X199898000Y-88646000D03*
X197358000Y-86106000D03*
X199898000Y-86106000D03*
X197358000Y-83566000D03*
X199898000Y-83566000D03*
X197358000Y-81026000D03*
X199898000Y-81026000D03*
X197358000Y-78486000D03*
X199898000Y-78486000D03*
X197358000Y-75946000D03*
X199898000Y-75946000D03*
X197358000Y-73406000D03*
X199898000Y-73406000D03*
X197358000Y-70866000D03*
X199898000Y-70866000D03*
D15*
X154178000Y-108712000D03*
D16*
X156718000Y-108712000D03*
X159258000Y-108712000D03*
X161798000Y-108712000D03*
X164338000Y-108712000D03*
X166878000Y-108712000D03*
X169418000Y-108712000D03*
X171958000Y-108712000D03*
D17*
X117348000Y-119126000D03*
X169418000Y-114046000D03*
X199898000Y-119126000D03*
X118618000Y-70866000D03*
X169418000Y-86106000D03*
X193548000Y-70866000D03*
D14*
X149098000Y-116332000D03*
X149098000Y-118872000D03*
X146558000Y-116332000D03*
X146558000Y-118872000D03*
X144018000Y-116332000D03*
X144018000Y-118872000D03*
X141478000Y-116332000D03*
X141478000Y-118872000D03*
X138938000Y-116332000D03*
X138938000Y-118872000D03*
X136398000Y-116332000D03*
X136398000Y-118872000D03*
X133858000Y-116332000D03*
X133858000Y-118872000D03*
X131318000Y-116332000D03*
D18*
X131318000Y-118872000D03*
X177038000Y-119126000D03*
D14*
X177038000Y-116586000D03*
X179578000Y-119126000D03*
X179578000Y-116586000D03*
X182118000Y-119126000D03*
X182118000Y-116586000D03*
X184658000Y-119126000D03*
X184658000Y-116586000D03*
X187198000Y-119126000D03*
X187198000Y-116586000D03*
X189738000Y-119126000D03*
X189738000Y-116586000D03*
X192278000Y-119126000D03*
X192278000Y-116586000D03*
X194818000Y-119126000D03*
X194818000Y-116586000D03*
D18*
X122174000Y-73406000D03*
D14*
X122174000Y-70866000D03*
X124714000Y-73406000D03*
X124714000Y-70866000D03*
X127254000Y-73406000D03*
X127254000Y-70866000D03*
X129794000Y-73406000D03*
X129794000Y-70866000D03*
X132334000Y-73406000D03*
X132334000Y-70866000D03*
X134874000Y-73406000D03*
X134874000Y-70866000D03*
X137414000Y-73406000D03*
X137414000Y-70866000D03*
X139954000Y-73406000D03*
X139954000Y-70866000D03*
X142494000Y-73406000D03*
X142494000Y-70866000D03*
X145034000Y-73406000D03*
X145034000Y-70866000D03*
X189738000Y-70866000D03*
X189738000Y-73406000D03*
X187198000Y-70866000D03*
X187198000Y-73406000D03*
X184658000Y-70866000D03*
X184658000Y-73406000D03*
X182118000Y-70866000D03*
X182118000Y-73406000D03*
X179578000Y-70866000D03*
X179578000Y-73406000D03*
X177038000Y-70866000D03*
X177038000Y-73406000D03*
X174498000Y-70866000D03*
X174498000Y-73406000D03*
X171958000Y-70866000D03*
D18*
X171958000Y-73406000D03*
X167005000Y-91186000D03*
D14*
X169545000Y-91186000D03*
X167005000Y-93726000D03*
X169545000Y-93726000D03*
X167005000Y-96266000D03*
X169545000Y-96266000D03*
D18*
X189738000Y-75946000D03*
D14*
X192278000Y-75946000D03*
X189738000Y-78486000D03*
X192278000Y-78486000D03*
X189738000Y-81026000D03*
X192278000Y-81026000D03*
X189738000Y-83566000D03*
X192278000Y-83566000D03*
X189738000Y-86106000D03*
X192278000Y-86106000D03*
X189738000Y-88646000D03*
X192278000Y-88646000D03*
X189738000Y-91186000D03*
X192278000Y-91186000D03*
X189738000Y-93726000D03*
X192278000Y-93726000D03*
X189738000Y-96266000D03*
X192278000Y-96266000D03*
X189738000Y-98806000D03*
X192278000Y-98806000D03*
X189738000Y-101346000D03*
X192278000Y-101346000D03*
X189738000Y-103886000D03*
X192278000Y-103886000D03*
X189738000Y-106426000D03*
X192278000Y-106426000D03*
X189738000Y-108966000D03*
X192278000Y-108966000D03*
X189738000Y-111506000D03*
X192278000Y-111506000D03*
X189738000Y-114046000D03*
X192278000Y-114046000D03*
X166878000Y-70866000D03*
X166878000Y-73406000D03*
X164338000Y-70866000D03*
X164338000Y-73406000D03*
X161798000Y-70866000D03*
X161798000Y-73406000D03*
X159258000Y-70866000D03*
X159258000Y-73406000D03*
X156718000Y-70866000D03*
X156718000Y-73406000D03*
X154178000Y-70866000D03*
X154178000Y-73406000D03*
X151638000Y-70866000D03*
X151638000Y-73406000D03*
X149098000Y-70866000D03*
D18*
X149098000Y-73406000D03*
D15*
X154178000Y-119126000D03*
D16*
X156718000Y-119126000D03*
X159258000Y-119126000D03*
X161798000Y-119126000D03*
X164338000Y-119126000D03*
X166878000Y-119126000D03*
X169418000Y-119126000D03*
X171958000Y-119126000D03*
D11*
X131772660Y-82169000D03*
D12*
X131772660Y-84709000D03*
X131772660Y-87249000D03*
X131772660Y-89789000D03*
X131772660Y-92329000D03*
X131772660Y-94869000D03*
D18*
X122882660Y-88011000D03*
D14*
X125422660Y-88011000D03*
X122882660Y-90551000D03*
X125422660Y-90551000D03*
X122882660Y-93091000D03*
X125422660Y-93091000D03*
X122882660Y-95631000D03*
X125422660Y-95631000D03*
X122882660Y-98171000D03*
X125422660Y-98171000D03*
D19*
X109928660Y-82296000D03*
X109928660Y-84836000D03*
X107929680Y-84836000D03*
X107929680Y-82296000D03*
D20*
X105229660Y-77566520D03*
X105229660Y-89565480D03*
D21*
X108824200Y-93257100D03*
X108824200Y-98257100D03*
D22*
X106124200Y-92257100D03*
X106124200Y-99257100D03*
D23*
X106074660Y-101569000D03*
X106074660Y-107219000D03*
D24*
X108224660Y-102394000D03*
X108224660Y-106392980D03*
D25*
X111706660Y-106934000D03*
D26*
X106573320Y-113347500D03*
D27*
X112669320Y-113347500D03*
D26*
X108859320Y-118427500D03*
D28*
X162983066Y-99495766D03*
D29*
X162806155Y-99318855D02*
X163159977Y-99672677D01*
D28*
X162983066Y-101418234D03*
D29*
X163159977Y-101241323D02*
X162806155Y-101595145D01*
D30*
X144696884Y-104309490D03*
X149578764Y-104309490D03*
D11*
X202438000Y-70866000D03*
D12*
X202438000Y-73406000D03*
X202438000Y-75946000D03*
X202438000Y-78486000D03*
X202438000Y-81026000D03*
X202438000Y-83566000D03*
X202438000Y-86106000D03*
X202438000Y-88646000D03*
X202438000Y-91186000D03*
X202438000Y-93726000D03*
X202438000Y-96266000D03*
X202438000Y-98806000D03*
X202438000Y-101346000D03*
X202438000Y-103886000D03*
X202438000Y-106426000D03*
X202438000Y-108966000D03*
X202438000Y-111506000D03*
X202438000Y-114046000D03*
M02*
