G04 #@! TF.GenerationSoftware,KiCad,Pcbnew,5.1.5-52549c5~84~ubuntu18.04.1*
G04 #@! TF.CreationDate,2020-03-10T10:35:37+01:00*
G04 #@! TF.ProjectId,bm71_MODULE,626d3731-5f4d-44f4-9455-4c452e6b6963,rev?*
G04 #@! TF.SameCoordinates,Original*
G04 #@! TF.FileFunction,Legend,Top*
G04 #@! TF.FilePolarity,Positive*
%FSLAX46Y46*%
G04 Gerber Fmt 4.6, Leading zero omitted, Abs format (unit mm)*
G04 Created by KiCad (PCBNEW 5.1.5-52549c5~84~ubuntu18.04.1) date 2020-03-10 10:35:37*
%MOMM*%
%LPD*%
G04 APERTURE LIST*
%ADD10C,0.150000*%
%ADD11C,0.100000*%
G04 APERTURE END LIST*
D10*
X139914380Y-88082380D02*
X139581047Y-87606190D01*
X139342952Y-88082380D02*
X139342952Y-87082380D01*
X139723904Y-87082380D01*
X139819142Y-87130000D01*
X139866761Y-87177619D01*
X139914380Y-87272857D01*
X139914380Y-87415714D01*
X139866761Y-87510952D01*
X139819142Y-87558571D01*
X139723904Y-87606190D01*
X139342952Y-87606190D01*
X140295333Y-88034761D02*
X140438190Y-88082380D01*
X140676285Y-88082380D01*
X140771523Y-88034761D01*
X140819142Y-87987142D01*
X140866761Y-87891904D01*
X140866761Y-87796666D01*
X140819142Y-87701428D01*
X140771523Y-87653809D01*
X140676285Y-87606190D01*
X140485809Y-87558571D01*
X140390571Y-87510952D01*
X140342952Y-87463333D01*
X140295333Y-87368095D01*
X140295333Y-87272857D01*
X140342952Y-87177619D01*
X140390571Y-87130000D01*
X140485809Y-87082380D01*
X140723904Y-87082380D01*
X140866761Y-87130000D01*
X141152476Y-87082380D02*
X141723904Y-87082380D01*
X141438190Y-88082380D02*
X141438190Y-87082380D01*
X139120761Y-83764380D02*
X139120761Y-82764380D01*
X139501714Y-82764380D01*
X139596952Y-82812000D01*
X139644571Y-82859619D01*
X139692190Y-82954857D01*
X139692190Y-83097714D01*
X139644571Y-83192952D01*
X139596952Y-83240571D01*
X139501714Y-83288190D01*
X139120761Y-83288190D01*
X140311238Y-82764380D02*
X140406476Y-82764380D01*
X140501714Y-82812000D01*
X140549333Y-82859619D01*
X140596952Y-82954857D01*
X140644571Y-83145333D01*
X140644571Y-83383428D01*
X140596952Y-83573904D01*
X140549333Y-83669142D01*
X140501714Y-83716761D01*
X140406476Y-83764380D01*
X140311238Y-83764380D01*
X140216000Y-83716761D01*
X140168380Y-83669142D01*
X140120761Y-83573904D01*
X140073142Y-83383428D01*
X140073142Y-83145333D01*
X140120761Y-82954857D01*
X140168380Y-82859619D01*
X140216000Y-82812000D01*
X140311238Y-82764380D01*
X140835047Y-83859619D02*
X141596952Y-83859619D01*
X142025523Y-82764380D02*
X142120761Y-82764380D01*
X142216000Y-82812000D01*
X142263619Y-82859619D01*
X142311238Y-82954857D01*
X142358857Y-83145333D01*
X142358857Y-83383428D01*
X142311238Y-83573904D01*
X142263619Y-83669142D01*
X142216000Y-83716761D01*
X142120761Y-83764380D01*
X142025523Y-83764380D01*
X141930285Y-83716761D01*
X141882666Y-83669142D01*
X141835047Y-83573904D01*
X141787428Y-83383428D01*
X141787428Y-83145333D01*
X141835047Y-82954857D01*
X141882666Y-82859619D01*
X141930285Y-82812000D01*
X142025523Y-82764380D01*
X139120761Y-81732380D02*
X139120761Y-80732380D01*
X139501714Y-80732380D01*
X139596952Y-80780000D01*
X139644571Y-80827619D01*
X139692190Y-80922857D01*
X139692190Y-81065714D01*
X139644571Y-81160952D01*
X139596952Y-81208571D01*
X139501714Y-81256190D01*
X139120761Y-81256190D01*
X140311238Y-80732380D02*
X140406476Y-80732380D01*
X140501714Y-80780000D01*
X140549333Y-80827619D01*
X140596952Y-80922857D01*
X140644571Y-81113333D01*
X140644571Y-81351428D01*
X140596952Y-81541904D01*
X140549333Y-81637142D01*
X140501714Y-81684761D01*
X140406476Y-81732380D01*
X140311238Y-81732380D01*
X140216000Y-81684761D01*
X140168380Y-81637142D01*
X140120761Y-81541904D01*
X140073142Y-81351428D01*
X140073142Y-81113333D01*
X140120761Y-80922857D01*
X140168380Y-80827619D01*
X140216000Y-80780000D01*
X140311238Y-80732380D01*
X140835047Y-81827619D02*
X141596952Y-81827619D01*
X141787428Y-80827619D02*
X141835047Y-80780000D01*
X141930285Y-80732380D01*
X142168380Y-80732380D01*
X142263619Y-80780000D01*
X142311238Y-80827619D01*
X142358857Y-80922857D01*
X142358857Y-81018095D01*
X142311238Y-81160952D01*
X141739809Y-81732380D01*
X142358857Y-81732380D01*
X139700095Y-78240000D02*
X139604857Y-78192380D01*
X139462000Y-78192380D01*
X139319142Y-78240000D01*
X139223904Y-78335238D01*
X139176285Y-78430476D01*
X139128666Y-78620952D01*
X139128666Y-78763809D01*
X139176285Y-78954285D01*
X139223904Y-79049523D01*
X139319142Y-79144761D01*
X139462000Y-79192380D01*
X139557238Y-79192380D01*
X139700095Y-79144761D01*
X139747714Y-79097142D01*
X139747714Y-78763809D01*
X139557238Y-78763809D01*
X140176285Y-79192380D02*
X140176285Y-78192380D01*
X140747714Y-79192380D01*
X140747714Y-78192380D01*
X141223904Y-79192380D02*
X141223904Y-78192380D01*
X141462000Y-78192380D01*
X141604857Y-78240000D01*
X141700095Y-78335238D01*
X141747714Y-78430476D01*
X141795333Y-78620952D01*
X141795333Y-78763809D01*
X141747714Y-78954285D01*
X141700095Y-79049523D01*
X141604857Y-79144761D01*
X141462000Y-79192380D01*
X141223904Y-79192380D01*
X139763523Y-75652380D02*
X139287333Y-75652380D01*
X139239714Y-76128571D01*
X139287333Y-76080952D01*
X139382571Y-76033333D01*
X139620666Y-76033333D01*
X139715904Y-76080952D01*
X139763523Y-76128571D01*
X139811142Y-76223809D01*
X139811142Y-76461904D01*
X139763523Y-76557142D01*
X139715904Y-76604761D01*
X139620666Y-76652380D01*
X139382571Y-76652380D01*
X139287333Y-76604761D01*
X139239714Y-76557142D01*
X140096857Y-75652380D02*
X140430190Y-76652380D01*
X140763523Y-75652380D01*
X139120761Y-74366380D02*
X139120761Y-73366380D01*
X139501714Y-73366380D01*
X139596952Y-73414000D01*
X139644571Y-73461619D01*
X139692190Y-73556857D01*
X139692190Y-73699714D01*
X139644571Y-73794952D01*
X139596952Y-73842571D01*
X139501714Y-73890190D01*
X139120761Y-73890190D01*
X140073142Y-73461619D02*
X140120761Y-73414000D01*
X140216000Y-73366380D01*
X140454095Y-73366380D01*
X140549333Y-73414000D01*
X140596952Y-73461619D01*
X140644571Y-73556857D01*
X140644571Y-73652095D01*
X140596952Y-73794952D01*
X140025523Y-74366380D01*
X140644571Y-74366380D01*
X140835047Y-74461619D02*
X141596952Y-74461619D01*
X141739809Y-73366380D02*
X142406476Y-73366380D01*
X141977904Y-74366380D01*
X139120761Y-71826380D02*
X139120761Y-70826380D01*
X139501714Y-70826380D01*
X139596952Y-70874000D01*
X139644571Y-70921619D01*
X139692190Y-71016857D01*
X139692190Y-71159714D01*
X139644571Y-71254952D01*
X139596952Y-71302571D01*
X139501714Y-71350190D01*
X139120761Y-71350190D01*
X140073142Y-70921619D02*
X140120761Y-70874000D01*
X140216000Y-70826380D01*
X140454095Y-70826380D01*
X140549333Y-70874000D01*
X140596952Y-70921619D01*
X140644571Y-71016857D01*
X140644571Y-71112095D01*
X140596952Y-71254952D01*
X140025523Y-71826380D01*
X140644571Y-71826380D01*
X140835047Y-71921619D02*
X141596952Y-71921619D01*
X142025523Y-70826380D02*
X142120761Y-70826380D01*
X142216000Y-70874000D01*
X142263619Y-70921619D01*
X142311238Y-71016857D01*
X142358857Y-71207333D01*
X142358857Y-71445428D01*
X142311238Y-71635904D01*
X142263619Y-71731142D01*
X142216000Y-71778761D01*
X142120761Y-71826380D01*
X142025523Y-71826380D01*
X141930285Y-71778761D01*
X141882666Y-71731142D01*
X141835047Y-71635904D01*
X141787428Y-71445428D01*
X141787428Y-71207333D01*
X141835047Y-71016857D01*
X141882666Y-70921619D01*
X141930285Y-70874000D01*
X142025523Y-70826380D01*
D11*
X148329809Y-87737904D02*
X148329809Y-86937904D01*
X148634571Y-86937904D01*
X148710761Y-86976000D01*
X148748857Y-87014095D01*
X148786952Y-87090285D01*
X148786952Y-87204571D01*
X148748857Y-87280761D01*
X148710761Y-87318857D01*
X148634571Y-87356952D01*
X148329809Y-87356952D01*
X149053619Y-86937904D02*
X149548857Y-86937904D01*
X149282190Y-87242666D01*
X149396476Y-87242666D01*
X149472666Y-87280761D01*
X149510761Y-87318857D01*
X149548857Y-87395047D01*
X149548857Y-87585523D01*
X149510761Y-87661714D01*
X149472666Y-87699809D01*
X149396476Y-87737904D01*
X149167904Y-87737904D01*
X149091714Y-87699809D01*
X149053619Y-87661714D01*
X149701238Y-87814095D02*
X150310761Y-87814095D01*
X150844095Y-86937904D02*
X150691714Y-86937904D01*
X150615523Y-86976000D01*
X150577428Y-87014095D01*
X150501238Y-87128380D01*
X150463142Y-87280761D01*
X150463142Y-87585523D01*
X150501238Y-87661714D01*
X150539333Y-87699809D01*
X150615523Y-87737904D01*
X150767904Y-87737904D01*
X150844095Y-87699809D01*
X150882190Y-87661714D01*
X150920285Y-87585523D01*
X150920285Y-87395047D01*
X150882190Y-87318857D01*
X150844095Y-87280761D01*
X150767904Y-87242666D01*
X150615523Y-87242666D01*
X150539333Y-87280761D01*
X150501238Y-87318857D01*
X150463142Y-87395047D01*
D10*
X149352095Y-83272380D02*
X149923523Y-83272380D01*
X149637809Y-84272380D02*
X149637809Y-83272380D01*
X150161619Y-83272380D02*
X150828285Y-84272380D01*
X150828285Y-83272380D02*
X150161619Y-84272380D01*
X149947333Y-82240380D02*
X149614000Y-81764190D01*
X149375904Y-82240380D02*
X149375904Y-81240380D01*
X149756857Y-81240380D01*
X149852095Y-81288000D01*
X149899714Y-81335619D01*
X149947333Y-81430857D01*
X149947333Y-81573714D01*
X149899714Y-81668952D01*
X149852095Y-81716571D01*
X149756857Y-81764190D01*
X149375904Y-81764190D01*
X150280666Y-81240380D02*
X150947333Y-82240380D01*
X150947333Y-81240380D02*
X150280666Y-82240380D01*
X147502761Y-77922380D02*
X147502761Y-76922380D01*
X147883714Y-76922380D01*
X147978952Y-76970000D01*
X148026571Y-77017619D01*
X148074190Y-77112857D01*
X148074190Y-77255714D01*
X148026571Y-77350952D01*
X147978952Y-77398571D01*
X147883714Y-77446190D01*
X147502761Y-77446190D01*
X149026571Y-77922380D02*
X148455142Y-77922380D01*
X148740857Y-77922380D02*
X148740857Y-76922380D01*
X148645619Y-77065238D01*
X148550380Y-77160476D01*
X148455142Y-77208095D01*
X149217047Y-78017619D02*
X149978952Y-78017619D01*
X150645619Y-76922380D02*
X150455142Y-76922380D01*
X150359904Y-76970000D01*
X150312285Y-77017619D01*
X150217047Y-77160476D01*
X150169428Y-77350952D01*
X150169428Y-77731904D01*
X150217047Y-77827142D01*
X150264666Y-77874761D01*
X150359904Y-77922380D01*
X150550380Y-77922380D01*
X150645619Y-77874761D01*
X150693238Y-77827142D01*
X150740857Y-77731904D01*
X150740857Y-77493809D01*
X150693238Y-77398571D01*
X150645619Y-77350952D01*
X150550380Y-77303333D01*
X150359904Y-77303333D01*
X150264666Y-77350952D01*
X150217047Y-77398571D01*
X150169428Y-77493809D01*
X147502761Y-76652380D02*
X147502761Y-75652380D01*
X147883714Y-75652380D01*
X147978952Y-75700000D01*
X148026571Y-75747619D01*
X148074190Y-75842857D01*
X148074190Y-75985714D01*
X148026571Y-76080952D01*
X147978952Y-76128571D01*
X147883714Y-76176190D01*
X147502761Y-76176190D01*
X149026571Y-76652380D02*
X148455142Y-76652380D01*
X148740857Y-76652380D02*
X148740857Y-75652380D01*
X148645619Y-75795238D01*
X148550380Y-75890476D01*
X148455142Y-75938095D01*
X149217047Y-76747619D02*
X149978952Y-76747619D01*
X150121809Y-75652380D02*
X150788476Y-75652380D01*
X150359904Y-76652380D01*
X147502761Y-74112380D02*
X147502761Y-73112380D01*
X147883714Y-73112380D01*
X147978952Y-73160000D01*
X148026571Y-73207619D01*
X148074190Y-73302857D01*
X148074190Y-73445714D01*
X148026571Y-73540952D01*
X147978952Y-73588571D01*
X147883714Y-73636190D01*
X147502761Y-73636190D01*
X149026571Y-74112380D02*
X148455142Y-74112380D01*
X148740857Y-74112380D02*
X148740857Y-73112380D01*
X148645619Y-73255238D01*
X148550380Y-73350476D01*
X148455142Y-73398095D01*
X149217047Y-74207619D02*
X149978952Y-74207619D01*
X150121809Y-73112380D02*
X150740857Y-73112380D01*
X150407523Y-73493333D01*
X150550380Y-73493333D01*
X150645619Y-73540952D01*
X150693238Y-73588571D01*
X150740857Y-73683809D01*
X150740857Y-73921904D01*
X150693238Y-74017142D01*
X150645619Y-74064761D01*
X150550380Y-74112380D01*
X150264666Y-74112380D01*
X150169428Y-74064761D01*
X150121809Y-74017142D01*
X147502761Y-71572380D02*
X147502761Y-70572380D01*
X147883714Y-70572380D01*
X147978952Y-70620000D01*
X148026571Y-70667619D01*
X148074190Y-70762857D01*
X148074190Y-70905714D01*
X148026571Y-71000952D01*
X147978952Y-71048571D01*
X147883714Y-71096190D01*
X147502761Y-71096190D01*
X149026571Y-71572380D02*
X148455142Y-71572380D01*
X148740857Y-71572380D02*
X148740857Y-70572380D01*
X148645619Y-70715238D01*
X148550380Y-70810476D01*
X148455142Y-70858095D01*
X149217047Y-71667619D02*
X149978952Y-71667619D01*
X150169428Y-70667619D02*
X150217047Y-70620000D01*
X150312285Y-70572380D01*
X150550380Y-70572380D01*
X150645619Y-70620000D01*
X150693238Y-70667619D01*
X150740857Y-70762857D01*
X150740857Y-70858095D01*
X150693238Y-71000952D01*
X150121809Y-71572380D01*
X150740857Y-71572380D01*
X150876000Y-80899000D02*
X150876000Y-78359000D01*
X148336000Y-80899000D02*
X150876000Y-80899000D01*
X145516000Y-81179000D02*
X145516000Y-78079000D01*
X147066000Y-81179000D02*
X145516000Y-81179000D01*
X148336000Y-78359000D02*
X148336000Y-80899000D01*
X145516000Y-78079000D02*
X147066000Y-78079000D01*
X148336000Y-78359000D02*
X150876000Y-78359000D01*
X147730200Y-84002000D02*
X142357800Y-84002000D01*
X147680200Y-87702000D02*
X142307800Y-87702000D01*
X141957800Y-84402000D02*
G75*
G02X142357800Y-84002000I400000J0D01*
G01*
X147730200Y-84002000D02*
G75*
G02X148130200Y-84402000I0J-400000D01*
G01*
X148129644Y-87274372D02*
G75*
G02X147680200Y-87702000I-449444J22372D01*
G01*
X142307800Y-87702000D02*
G75*
G02X141957800Y-87352000I0J350000D01*
G01*
X147193000Y-85090000D02*
X147193000Y-86614000D01*
X142875000Y-85090000D02*
X147193000Y-85090000D01*
X142875000Y-86614000D02*
X142875000Y-85090000D01*
X147193000Y-86614000D02*
X142875000Y-86614000D01*
X141957800Y-84402000D02*
X141957800Y-87352000D01*
X148130200Y-87302000D02*
X148130200Y-84402000D01*
D11*
X145141904Y-81076619D02*
X144341904Y-81076619D01*
X144913333Y-80809952D01*
X144341904Y-80543285D01*
X145141904Y-80543285D01*
X144341904Y-80009952D02*
X144341904Y-79857571D01*
X144380000Y-79781380D01*
X144456190Y-79705190D01*
X144608571Y-79667095D01*
X144875238Y-79667095D01*
X145027619Y-79705190D01*
X145103809Y-79781380D01*
X145141904Y-79857571D01*
X145141904Y-80009952D01*
X145103809Y-80086142D01*
X145027619Y-80162333D01*
X144875238Y-80200428D01*
X144608571Y-80200428D01*
X144456190Y-80162333D01*
X144380000Y-80086142D01*
X144341904Y-80009952D01*
X145141904Y-79324238D02*
X144341904Y-79324238D01*
X144341904Y-79133761D01*
X144380000Y-79019476D01*
X144456190Y-78943285D01*
X144532380Y-78905190D01*
X144684761Y-78867095D01*
X144799047Y-78867095D01*
X144951428Y-78905190D01*
X145027619Y-78943285D01*
X145103809Y-79019476D01*
X145141904Y-79133761D01*
X145141904Y-79324238D01*
X144722857Y-78524238D02*
X144722857Y-78257571D01*
X145141904Y-78143285D02*
X145141904Y-78524238D01*
X144341904Y-78524238D01*
X144341904Y-78143285D01*
X143872095Y-83673904D02*
X143605428Y-83292952D01*
X143414952Y-83673904D02*
X143414952Y-82873904D01*
X143719714Y-82873904D01*
X143795904Y-82912000D01*
X143834000Y-82950095D01*
X143872095Y-83026285D01*
X143872095Y-83140571D01*
X143834000Y-83216761D01*
X143795904Y-83254857D01*
X143719714Y-83292952D01*
X143414952Y-83292952D01*
X144214952Y-83254857D02*
X144481619Y-83254857D01*
X144595904Y-83673904D02*
X144214952Y-83673904D01*
X144214952Y-82873904D01*
X144595904Y-82873904D01*
X144900666Y-83635809D02*
X145014952Y-83673904D01*
X145205428Y-83673904D01*
X145281619Y-83635809D01*
X145319714Y-83597714D01*
X145357809Y-83521523D01*
X145357809Y-83445333D01*
X145319714Y-83369142D01*
X145281619Y-83331047D01*
X145205428Y-83292952D01*
X145053047Y-83254857D01*
X144976857Y-83216761D01*
X144938761Y-83178666D01*
X144900666Y-83102476D01*
X144900666Y-83026285D01*
X144938761Y-82950095D01*
X144976857Y-82912000D01*
X145053047Y-82873904D01*
X145243523Y-82873904D01*
X145357809Y-82912000D01*
X145700666Y-83254857D02*
X145967333Y-83254857D01*
X146081619Y-83673904D02*
X145700666Y-83673904D01*
X145700666Y-82873904D01*
X146081619Y-82873904D01*
X146310190Y-82873904D02*
X146767333Y-82873904D01*
X146538761Y-83673904D02*
X146538761Y-82873904D01*
M02*
