G04 #@! TF.GenerationSoftware,KiCad,Pcbnew,5.1.5-52549c5~84~ubuntu18.04.1*
G04 #@! TF.CreationDate,2020-03-10T10:35:37+01:00*
G04 #@! TF.ProjectId,bm71_MODULE,626d3731-5f4d-44f4-9455-4c452e6b6963,rev?*
G04 #@! TF.SameCoordinates,Original*
G04 #@! TF.FileFunction,Copper,L2,Bot*
G04 #@! TF.FilePolarity,Positive*
%FSLAX46Y46*%
G04 Gerber Fmt 4.6, Leading zero omitted, Abs format (unit mm)*
G04 Created by KiCad (PCBNEW 5.1.5-52549c5~84~ubuntu18.04.1) date 2020-03-10 10:35:37*
%MOMM*%
%LPD*%
G04 APERTURE LIST*
%ADD10R,1.500000X0.700000*%
%ADD11R,0.700000X1.500000*%
%ADD12O,2.032000X2.032000*%
%ADD13R,2.032000X2.032000*%
%ADD14O,2.032000X1.727200*%
%ADD15R,2.032000X1.727200*%
%ADD16R,1.500000X1.300000*%
%ADD17R,2.200000X1.500000*%
%ADD18C,0.800000*%
%ADD19C,0.250000*%
%ADD20C,0.254000*%
G04 APERTURE END LIST*
D10*
X140602000Y-70008000D03*
X140602000Y-71208000D03*
X140602000Y-72408000D03*
X140602000Y-73608000D03*
X140602000Y-74808000D03*
D11*
X141852000Y-76458000D03*
X143052000Y-76458000D03*
X144252000Y-76458000D03*
X145452000Y-76458000D03*
X146652000Y-76458000D03*
X147852000Y-76458000D03*
D10*
X149102000Y-74808000D03*
X149102000Y-73608000D03*
X149102000Y-72408000D03*
X149102000Y-71208000D03*
X149102000Y-70008000D03*
D12*
X149606000Y-79629000D03*
D13*
X147066000Y-79629000D03*
D14*
X137160000Y-86360000D03*
X137160000Y-83820000D03*
X137160000Y-81280000D03*
X137160000Y-78740000D03*
X137160000Y-76200000D03*
X137160000Y-73660000D03*
D15*
X137160000Y-71120000D03*
D16*
X143924000Y-84582000D03*
X141224000Y-84582000D03*
X143924000Y-82296000D03*
X141224000Y-82296000D03*
X146398000Y-84582000D03*
X149098000Y-84582000D03*
X146304000Y-82296000D03*
X149004000Y-82296000D03*
D15*
X152400000Y-71120000D03*
D14*
X152400000Y-73660000D03*
X152400000Y-76200000D03*
X152400000Y-78740000D03*
X152400000Y-81280000D03*
X152400000Y-83820000D03*
X152400000Y-86360000D03*
D17*
X141224000Y-79883000D03*
X144124000Y-79883000D03*
D18*
X140716000Y-78740000D03*
X141986000Y-72517000D03*
X143002000Y-78740000D03*
X143764000Y-77978000D03*
X139192000Y-73660000D03*
X146812000Y-74676000D03*
X145288000Y-74676000D03*
X145288000Y-73533000D03*
X146685000Y-73533000D03*
X146685000Y-72517000D03*
X145288000Y-72517000D03*
X145288000Y-71247000D03*
X146685000Y-71247000D03*
X146685000Y-70231000D03*
X145288000Y-70231000D03*
X143891000Y-70231000D03*
X150622000Y-74803000D03*
X143129000Y-87376000D03*
X146685000Y-86360000D03*
X150622000Y-69799200D03*
X139009547Y-69896147D03*
X150596602Y-71196200D03*
X141986000Y-70104000D03*
X147574000Y-83820000D03*
X144824001Y-78466754D03*
D19*
X141081000Y-78740000D02*
X140716000Y-78740000D01*
X141224000Y-78883000D02*
X141081000Y-78740000D01*
X141224000Y-79883000D02*
X141224000Y-78883000D01*
X144124000Y-79883000D02*
X144124000Y-82096000D01*
X144124000Y-82096000D02*
X143924000Y-82296000D01*
X140461000Y-72517000D02*
X140352000Y-72408000D01*
X141986000Y-72517000D02*
X140461000Y-72517000D01*
X143401999Y-79139999D02*
X143002000Y-78740000D01*
X143616000Y-79883000D02*
X143616000Y-79354000D01*
X143616000Y-79354000D02*
X143401999Y-79139999D01*
X151010400Y-72408000D02*
X151180800Y-72237600D01*
X149352000Y-72408000D02*
X151010400Y-72408000D01*
X151180800Y-72237600D02*
X151282400Y-72237600D01*
X151282400Y-72237600D02*
X152400000Y-71120000D01*
X149404000Y-73660000D02*
X152400000Y-73660000D01*
X149352000Y-73608000D02*
X149404000Y-73660000D01*
X149733000Y-76200000D02*
X152400000Y-76200000D01*
X149352000Y-74808000D02*
X149352000Y-75819000D01*
X149352000Y-75819000D02*
X149733000Y-76200000D01*
X150368000Y-76708000D02*
X152400000Y-78740000D01*
X147852000Y-76708000D02*
X150368000Y-76708000D01*
X144252000Y-77490000D02*
X144163999Y-77578001D01*
X144163999Y-77578001D02*
X143764000Y-77978000D01*
X144252000Y-76708000D02*
X144252000Y-77490000D01*
X139468040Y-82296000D02*
X141224000Y-82296000D01*
X139457020Y-82307020D02*
X139468040Y-82296000D01*
X143052000Y-76943002D02*
X141980004Y-78014998D01*
X140160001Y-78014998D02*
X139457020Y-78717979D01*
X141980004Y-78014998D02*
X140160001Y-78014998D01*
X139457020Y-78717979D02*
X139457020Y-82307020D01*
X143052000Y-76708000D02*
X143052000Y-76943002D01*
X137160000Y-85979000D02*
X137160000Y-86360000D01*
X139457020Y-82307020D02*
X139457020Y-83681980D01*
X139457020Y-83681980D02*
X137160000Y-85979000D01*
X137210800Y-83820000D02*
X137160000Y-83820000D01*
X139007009Y-82023791D02*
X137210800Y-83820000D01*
X139007009Y-78531579D02*
X139007009Y-82023791D01*
X141852000Y-76708000D02*
X140830588Y-76708000D01*
X140830588Y-76708000D02*
X139007009Y-78531579D01*
X140352000Y-76310000D02*
X138557000Y-78105000D01*
X137312400Y-81280000D02*
X137160000Y-81280000D01*
X140352000Y-74808000D02*
X140352000Y-76310000D01*
X138557000Y-78105000D02*
X138557000Y-80035400D01*
X138557000Y-80035400D02*
X137312400Y-81280000D01*
X140352000Y-73608000D02*
X139244000Y-73608000D01*
X139244000Y-73608000D02*
X139192000Y-73660000D01*
X146812000Y-74676000D02*
X145288000Y-74676000D01*
X145288000Y-73533000D02*
X146685000Y-73533000D01*
X146685000Y-72517000D02*
X145288000Y-72517000D01*
X145288000Y-71247000D02*
X146685000Y-71247000D01*
X146685000Y-70231000D02*
X145288000Y-70231000D01*
X144145000Y-86360000D02*
X143129000Y-87376000D01*
X146685000Y-86360000D02*
X144145000Y-86360000D01*
X150622000Y-69799200D02*
X150622000Y-71170802D01*
X150622000Y-71170802D02*
X150596602Y-71196200D01*
X139764400Y-71208000D02*
X140352000Y-71208000D01*
X137312400Y-73660000D02*
X139764400Y-71208000D01*
X137160000Y-73660000D02*
X137312400Y-73660000D01*
X138811000Y-71120000D02*
X137160000Y-71120000D01*
X140352000Y-70008000D02*
X139923000Y-70008000D01*
X139923000Y-70008000D02*
X138811000Y-71120000D01*
X140448000Y-70104000D02*
X140352000Y-70008000D01*
X141986000Y-70104000D02*
X140448000Y-70104000D01*
X143924000Y-84576000D02*
X143924000Y-84582000D01*
X146304000Y-82296000D02*
X146204000Y-82296000D01*
X146204000Y-82296000D02*
X143924000Y-84576000D01*
X146652000Y-76943002D02*
X146652000Y-76708000D01*
X145643600Y-81711800D02*
X145643600Y-77951402D01*
X146304000Y-82296000D02*
X146227800Y-82296000D01*
X145643600Y-77951402D02*
X146652000Y-76943002D01*
X146227800Y-82296000D02*
X145643600Y-81711800D01*
X147574000Y-84406000D02*
X147574000Y-83820000D01*
X146398000Y-84582000D02*
X147398000Y-84582000D01*
X147398000Y-84582000D02*
X147574000Y-84406000D01*
X145452000Y-76708000D02*
X145452000Y-77273070D01*
X145452000Y-77273070D02*
X144824001Y-77901069D01*
X144824001Y-77901069D02*
X144824001Y-78466754D01*
X149098000Y-84582000D02*
X151638000Y-84582000D01*
X151638000Y-84582000D02*
X152400000Y-83820000D01*
X149606000Y-82296000D02*
X149004000Y-82296000D01*
X150622000Y-81280000D02*
X149606000Y-82296000D01*
X152400000Y-81280000D02*
X150622000Y-81280000D01*
D20*
G36*
X139997750Y-84455000D02*
G01*
X141097000Y-84455000D01*
X141097000Y-84435000D01*
X141351000Y-84435000D01*
X141351000Y-84455000D01*
X141371000Y-84455000D01*
X141371000Y-84709000D01*
X141351000Y-84709000D01*
X141351000Y-85708250D01*
X141509750Y-85867000D01*
X141974000Y-85870072D01*
X142098482Y-85857812D01*
X142218180Y-85821502D01*
X142328494Y-85762537D01*
X142425185Y-85683185D01*
X142504537Y-85586494D01*
X142563502Y-85476180D01*
X142574000Y-85441573D01*
X142584498Y-85476180D01*
X142643463Y-85586494D01*
X142722815Y-85683185D01*
X142819506Y-85762537D01*
X142929820Y-85821502D01*
X143049518Y-85857812D01*
X143174000Y-85870072D01*
X144674000Y-85870072D01*
X144798482Y-85857812D01*
X144918180Y-85821502D01*
X145028494Y-85762537D01*
X145125185Y-85683185D01*
X145161000Y-85639544D01*
X145196815Y-85683185D01*
X145293506Y-85762537D01*
X145403820Y-85821502D01*
X145523518Y-85857812D01*
X145648000Y-85870072D01*
X147148000Y-85870072D01*
X147272482Y-85857812D01*
X147392180Y-85821502D01*
X147502494Y-85762537D01*
X147599185Y-85683185D01*
X147678537Y-85586494D01*
X147737502Y-85476180D01*
X147748000Y-85441573D01*
X147758498Y-85476180D01*
X147817463Y-85586494D01*
X147896815Y-85683185D01*
X147993506Y-85762537D01*
X148103820Y-85821502D01*
X148223518Y-85857812D01*
X148348000Y-85870072D01*
X149848000Y-85870072D01*
X149972482Y-85857812D01*
X150092180Y-85821502D01*
X150202494Y-85762537D01*
X150299185Y-85683185D01*
X150378537Y-85586494D01*
X150437502Y-85476180D01*
X150473812Y-85356482D01*
X150475238Y-85342000D01*
X151144398Y-85342000D01*
X150995531Y-85523394D01*
X150856375Y-85783736D01*
X150770684Y-86066223D01*
X150741749Y-86360000D01*
X150770684Y-86653777D01*
X150856375Y-86936264D01*
X150995531Y-87196606D01*
X151182803Y-87424797D01*
X151376792Y-87584000D01*
X138183208Y-87584000D01*
X138377197Y-87424797D01*
X138564469Y-87196606D01*
X138703625Y-86936264D01*
X138789316Y-86653777D01*
X138818251Y-86360000D01*
X138789316Y-86066223D01*
X138703625Y-85783736D01*
X138608337Y-85605465D01*
X138981802Y-85232000D01*
X139835928Y-85232000D01*
X139848188Y-85356482D01*
X139884498Y-85476180D01*
X139943463Y-85586494D01*
X140022815Y-85683185D01*
X140119506Y-85762537D01*
X140229820Y-85821502D01*
X140349518Y-85857812D01*
X140474000Y-85870072D01*
X140938250Y-85867000D01*
X141097000Y-85708250D01*
X141097000Y-84709000D01*
X139997750Y-84709000D01*
X139839000Y-84867750D01*
X139835928Y-85232000D01*
X138981802Y-85232000D01*
X139878276Y-84335526D01*
X139997750Y-84455000D01*
G37*
X139997750Y-84455000D02*
X141097000Y-84455000D01*
X141097000Y-84435000D01*
X141351000Y-84435000D01*
X141351000Y-84455000D01*
X141371000Y-84455000D01*
X141371000Y-84709000D01*
X141351000Y-84709000D01*
X141351000Y-85708250D01*
X141509750Y-85867000D01*
X141974000Y-85870072D01*
X142098482Y-85857812D01*
X142218180Y-85821502D01*
X142328494Y-85762537D01*
X142425185Y-85683185D01*
X142504537Y-85586494D01*
X142563502Y-85476180D01*
X142574000Y-85441573D01*
X142584498Y-85476180D01*
X142643463Y-85586494D01*
X142722815Y-85683185D01*
X142819506Y-85762537D01*
X142929820Y-85821502D01*
X143049518Y-85857812D01*
X143174000Y-85870072D01*
X144674000Y-85870072D01*
X144798482Y-85857812D01*
X144918180Y-85821502D01*
X145028494Y-85762537D01*
X145125185Y-85683185D01*
X145161000Y-85639544D01*
X145196815Y-85683185D01*
X145293506Y-85762537D01*
X145403820Y-85821502D01*
X145523518Y-85857812D01*
X145648000Y-85870072D01*
X147148000Y-85870072D01*
X147272482Y-85857812D01*
X147392180Y-85821502D01*
X147502494Y-85762537D01*
X147599185Y-85683185D01*
X147678537Y-85586494D01*
X147737502Y-85476180D01*
X147748000Y-85441573D01*
X147758498Y-85476180D01*
X147817463Y-85586494D01*
X147896815Y-85683185D01*
X147993506Y-85762537D01*
X148103820Y-85821502D01*
X148223518Y-85857812D01*
X148348000Y-85870072D01*
X149848000Y-85870072D01*
X149972482Y-85857812D01*
X150092180Y-85821502D01*
X150202494Y-85762537D01*
X150299185Y-85683185D01*
X150378537Y-85586494D01*
X150437502Y-85476180D01*
X150473812Y-85356482D01*
X150475238Y-85342000D01*
X151144398Y-85342000D01*
X150995531Y-85523394D01*
X150856375Y-85783736D01*
X150770684Y-86066223D01*
X150741749Y-86360000D01*
X150770684Y-86653777D01*
X150856375Y-86936264D01*
X150995531Y-87196606D01*
X151182803Y-87424797D01*
X151376792Y-87584000D01*
X138183208Y-87584000D01*
X138377197Y-87424797D01*
X138564469Y-87196606D01*
X138703625Y-86936264D01*
X138789316Y-86653777D01*
X138818251Y-86360000D01*
X138789316Y-86066223D01*
X138703625Y-85783736D01*
X138608337Y-85605465D01*
X138981802Y-85232000D01*
X139835928Y-85232000D01*
X139848188Y-85356482D01*
X139884498Y-85476180D01*
X139943463Y-85586494D01*
X140022815Y-85683185D01*
X140119506Y-85762537D01*
X140229820Y-85821502D01*
X140349518Y-85857812D01*
X140474000Y-85870072D01*
X140938250Y-85867000D01*
X141097000Y-85708250D01*
X141097000Y-84709000D01*
X139997750Y-84709000D01*
X139839000Y-84867750D01*
X139835928Y-85232000D01*
X138981802Y-85232000D01*
X139878276Y-84335526D01*
X139997750Y-84455000D01*
G36*
X150831369Y-78246170D02*
G01*
X150770684Y-78446223D01*
X150768940Y-78463930D01*
X150728569Y-78418358D01*
X150470815Y-78222618D01*
X150179826Y-78080924D01*
X149988944Y-78023025D01*
X149733000Y-78142164D01*
X149733000Y-79502000D01*
X149753000Y-79502000D01*
X149753000Y-79756000D01*
X149733000Y-79756000D01*
X149733000Y-79776000D01*
X149479000Y-79776000D01*
X149479000Y-79756000D01*
X149459000Y-79756000D01*
X149459000Y-79502000D01*
X149479000Y-79502000D01*
X149479000Y-78142164D01*
X149223056Y-78023025D01*
X149032174Y-78080924D01*
X148741185Y-78222618D01*
X148636036Y-78302469D01*
X148612537Y-78258506D01*
X148533185Y-78161815D01*
X148436494Y-78082463D01*
X148326180Y-78023498D01*
X148206482Y-77987188D01*
X148082000Y-77974928D01*
X146694876Y-77974928D01*
X146823732Y-77846072D01*
X147002000Y-77846072D01*
X147126482Y-77833812D01*
X147246180Y-77797502D01*
X147252000Y-77794391D01*
X147257820Y-77797502D01*
X147377518Y-77833812D01*
X147502000Y-77846072D01*
X148202000Y-77846072D01*
X148326482Y-77833812D01*
X148446180Y-77797502D01*
X148556494Y-77738537D01*
X148653185Y-77659185D01*
X148732537Y-77562494D01*
X148783046Y-77468000D01*
X150053199Y-77468000D01*
X150831369Y-78246170D01*
G37*
X150831369Y-78246170D02*
X150770684Y-78446223D01*
X150768940Y-78463930D01*
X150728569Y-78418358D01*
X150470815Y-78222618D01*
X150179826Y-78080924D01*
X149988944Y-78023025D01*
X149733000Y-78142164D01*
X149733000Y-79502000D01*
X149753000Y-79502000D01*
X149753000Y-79756000D01*
X149733000Y-79756000D01*
X149733000Y-79776000D01*
X149479000Y-79776000D01*
X149479000Y-79756000D01*
X149459000Y-79756000D01*
X149459000Y-79502000D01*
X149479000Y-79502000D01*
X149479000Y-78142164D01*
X149223056Y-78023025D01*
X149032174Y-78080924D01*
X148741185Y-78222618D01*
X148636036Y-78302469D01*
X148612537Y-78258506D01*
X148533185Y-78161815D01*
X148436494Y-78082463D01*
X148326180Y-78023498D01*
X148206482Y-77987188D01*
X148082000Y-77974928D01*
X146694876Y-77974928D01*
X146823732Y-77846072D01*
X147002000Y-77846072D01*
X147126482Y-77833812D01*
X147246180Y-77797502D01*
X147252000Y-77794391D01*
X147257820Y-77797502D01*
X147377518Y-77833812D01*
X147502000Y-77846072D01*
X148202000Y-77846072D01*
X148326482Y-77833812D01*
X148446180Y-77797502D01*
X148556494Y-77738537D01*
X148653185Y-77659185D01*
X148732537Y-77562494D01*
X148783046Y-77468000D01*
X150053199Y-77468000D01*
X150831369Y-78246170D01*
G36*
X137287000Y-78613000D02*
G01*
X137307000Y-78613000D01*
X137307000Y-78867000D01*
X137287000Y-78867000D01*
X137287000Y-78887000D01*
X137033000Y-78887000D01*
X137033000Y-78867000D01*
X137013000Y-78867000D01*
X137013000Y-78613000D01*
X137033000Y-78613000D01*
X137033000Y-78593000D01*
X137287000Y-78593000D01*
X137287000Y-78613000D01*
G37*
X137287000Y-78613000D02*
X137307000Y-78613000D01*
X137307000Y-78867000D01*
X137287000Y-78867000D01*
X137287000Y-78887000D01*
X137033000Y-78887000D01*
X137033000Y-78867000D01*
X137013000Y-78867000D01*
X137013000Y-78613000D01*
X137033000Y-78613000D01*
X137033000Y-78593000D01*
X137287000Y-78593000D01*
X137287000Y-78613000D01*
G36*
X147726188Y-69533518D02*
G01*
X147713928Y-69658000D01*
X147713928Y-70358000D01*
X147726188Y-70482482D01*
X147762498Y-70602180D01*
X147765609Y-70608000D01*
X147762498Y-70613820D01*
X147726188Y-70733518D01*
X147713928Y-70858000D01*
X147717000Y-70922250D01*
X147875750Y-71081000D01*
X148975000Y-71081000D01*
X148975000Y-71061000D01*
X149229000Y-71061000D01*
X149229000Y-71081000D01*
X150328250Y-71081000D01*
X150487000Y-70922250D01*
X150490072Y-70858000D01*
X150477812Y-70733518D01*
X150441502Y-70613820D01*
X150438391Y-70608000D01*
X150441502Y-70602180D01*
X150477812Y-70482482D01*
X150490072Y-70358000D01*
X150490072Y-69658000D01*
X150477812Y-69533518D01*
X150472195Y-69515000D01*
X153624001Y-69515000D01*
X153624001Y-69655923D01*
X153540482Y-69630588D01*
X153416000Y-69618328D01*
X151384000Y-69618328D01*
X151259518Y-69630588D01*
X151139820Y-69666898D01*
X151029506Y-69725863D01*
X150932815Y-69805215D01*
X150853463Y-69901906D01*
X150794498Y-70012220D01*
X150758188Y-70131918D01*
X150745928Y-70256400D01*
X150745928Y-71648000D01*
X150481208Y-71648000D01*
X150490072Y-71558000D01*
X150487000Y-71493750D01*
X150328250Y-71335000D01*
X149229000Y-71335000D01*
X149229000Y-71355000D01*
X148975000Y-71355000D01*
X148975000Y-71335000D01*
X147875750Y-71335000D01*
X147717000Y-71493750D01*
X147713928Y-71558000D01*
X147726188Y-71682482D01*
X147762498Y-71802180D01*
X147765609Y-71808000D01*
X147762498Y-71813820D01*
X147726188Y-71933518D01*
X147713928Y-72058000D01*
X147713928Y-72758000D01*
X147726188Y-72882482D01*
X147762498Y-73002180D01*
X147765609Y-73008000D01*
X147762498Y-73013820D01*
X147726188Y-73133518D01*
X147713928Y-73258000D01*
X147713928Y-73958000D01*
X147726188Y-74082482D01*
X147762498Y-74202180D01*
X147765609Y-74208000D01*
X147762498Y-74213820D01*
X147726188Y-74333518D01*
X147713928Y-74458000D01*
X147713928Y-75069928D01*
X147502000Y-75069928D01*
X147377518Y-75082188D01*
X147257820Y-75118498D01*
X147252000Y-75121609D01*
X147246180Y-75118498D01*
X147126482Y-75082188D01*
X147002000Y-75069928D01*
X146302000Y-75069928D01*
X146177518Y-75082188D01*
X146057820Y-75118498D01*
X146052000Y-75121609D01*
X146046180Y-75118498D01*
X145926482Y-75082188D01*
X145802000Y-75069928D01*
X145102000Y-75069928D01*
X144977518Y-75082188D01*
X144857820Y-75118498D01*
X144852000Y-75121609D01*
X144846180Y-75118498D01*
X144726482Y-75082188D01*
X144602000Y-75069928D01*
X143902000Y-75069928D01*
X143777518Y-75082188D01*
X143657820Y-75118498D01*
X143652000Y-75121609D01*
X143646180Y-75118498D01*
X143526482Y-75082188D01*
X143402000Y-75069928D01*
X142702000Y-75069928D01*
X142577518Y-75082188D01*
X142457820Y-75118498D01*
X142452000Y-75121609D01*
X142446180Y-75118498D01*
X142326482Y-75082188D01*
X142202000Y-75069928D01*
X141990072Y-75069928D01*
X141990072Y-74458000D01*
X141977812Y-74333518D01*
X141941502Y-74213820D01*
X141938391Y-74208000D01*
X141941502Y-74202180D01*
X141977812Y-74082482D01*
X141990072Y-73958000D01*
X141987000Y-73893750D01*
X141828250Y-73735000D01*
X140729000Y-73735000D01*
X140729000Y-73755000D01*
X140475000Y-73755000D01*
X140475000Y-73735000D01*
X139375750Y-73735000D01*
X139217000Y-73893750D01*
X139213928Y-73958000D01*
X139226188Y-74082482D01*
X139262498Y-74202180D01*
X139265609Y-74208000D01*
X139262498Y-74213820D01*
X139226188Y-74333518D01*
X139213928Y-74458000D01*
X139213928Y-75158000D01*
X139226188Y-75282482D01*
X139262498Y-75402180D01*
X139321463Y-75512494D01*
X139400815Y-75609185D01*
X139497506Y-75688537D01*
X139592001Y-75739046D01*
X139592001Y-75995197D01*
X138580403Y-77006796D01*
X138703625Y-76776264D01*
X138789316Y-76493777D01*
X138818251Y-76200000D01*
X138789316Y-75906223D01*
X138703625Y-75623736D01*
X138564469Y-75363394D01*
X138377197Y-75135203D01*
X138149006Y-74947931D01*
X138115460Y-74930000D01*
X138149006Y-74912069D01*
X138377197Y-74724797D01*
X138564469Y-74496606D01*
X138703625Y-74236264D01*
X138789316Y-73953777D01*
X138818251Y-73660000D01*
X138789316Y-73366223D01*
X138764101Y-73283100D01*
X139220677Y-72826525D01*
X139226188Y-72882482D01*
X139262498Y-73002180D01*
X139265609Y-73008000D01*
X139262498Y-73013820D01*
X139226188Y-73133518D01*
X139213928Y-73258000D01*
X139217000Y-73322250D01*
X139375750Y-73481000D01*
X140475000Y-73481000D01*
X140475000Y-73461000D01*
X140729000Y-73461000D01*
X140729000Y-73481000D01*
X141608716Y-73481000D01*
X141684102Y-73512226D01*
X141884061Y-73552000D01*
X142087939Y-73552000D01*
X142287898Y-73512226D01*
X142476256Y-73434205D01*
X142645774Y-73320937D01*
X142789937Y-73176774D01*
X142903205Y-73007256D01*
X142981226Y-72818898D01*
X143021000Y-72618939D01*
X143021000Y-72415061D01*
X142981226Y-72215102D01*
X142903205Y-72026744D01*
X142789937Y-71857226D01*
X142645774Y-71713063D01*
X142476256Y-71599795D01*
X142287898Y-71521774D01*
X142087939Y-71482000D01*
X141990072Y-71482000D01*
X141990072Y-71139000D01*
X142087939Y-71139000D01*
X142287898Y-71099226D01*
X142476256Y-71021205D01*
X142645774Y-70907937D01*
X142789937Y-70763774D01*
X142903205Y-70594256D01*
X142981226Y-70405898D01*
X143021000Y-70205939D01*
X143021000Y-70002061D01*
X142981226Y-69802102D01*
X142903205Y-69613744D01*
X142837227Y-69515000D01*
X147731805Y-69515000D01*
X147726188Y-69533518D01*
G37*
X147726188Y-69533518D02*
X147713928Y-69658000D01*
X147713928Y-70358000D01*
X147726188Y-70482482D01*
X147762498Y-70602180D01*
X147765609Y-70608000D01*
X147762498Y-70613820D01*
X147726188Y-70733518D01*
X147713928Y-70858000D01*
X147717000Y-70922250D01*
X147875750Y-71081000D01*
X148975000Y-71081000D01*
X148975000Y-71061000D01*
X149229000Y-71061000D01*
X149229000Y-71081000D01*
X150328250Y-71081000D01*
X150487000Y-70922250D01*
X150490072Y-70858000D01*
X150477812Y-70733518D01*
X150441502Y-70613820D01*
X150438391Y-70608000D01*
X150441502Y-70602180D01*
X150477812Y-70482482D01*
X150490072Y-70358000D01*
X150490072Y-69658000D01*
X150477812Y-69533518D01*
X150472195Y-69515000D01*
X153624001Y-69515000D01*
X153624001Y-69655923D01*
X153540482Y-69630588D01*
X153416000Y-69618328D01*
X151384000Y-69618328D01*
X151259518Y-69630588D01*
X151139820Y-69666898D01*
X151029506Y-69725863D01*
X150932815Y-69805215D01*
X150853463Y-69901906D01*
X150794498Y-70012220D01*
X150758188Y-70131918D01*
X150745928Y-70256400D01*
X150745928Y-71648000D01*
X150481208Y-71648000D01*
X150490072Y-71558000D01*
X150487000Y-71493750D01*
X150328250Y-71335000D01*
X149229000Y-71335000D01*
X149229000Y-71355000D01*
X148975000Y-71355000D01*
X148975000Y-71335000D01*
X147875750Y-71335000D01*
X147717000Y-71493750D01*
X147713928Y-71558000D01*
X147726188Y-71682482D01*
X147762498Y-71802180D01*
X147765609Y-71808000D01*
X147762498Y-71813820D01*
X147726188Y-71933518D01*
X147713928Y-72058000D01*
X147713928Y-72758000D01*
X147726188Y-72882482D01*
X147762498Y-73002180D01*
X147765609Y-73008000D01*
X147762498Y-73013820D01*
X147726188Y-73133518D01*
X147713928Y-73258000D01*
X147713928Y-73958000D01*
X147726188Y-74082482D01*
X147762498Y-74202180D01*
X147765609Y-74208000D01*
X147762498Y-74213820D01*
X147726188Y-74333518D01*
X147713928Y-74458000D01*
X147713928Y-75069928D01*
X147502000Y-75069928D01*
X147377518Y-75082188D01*
X147257820Y-75118498D01*
X147252000Y-75121609D01*
X147246180Y-75118498D01*
X147126482Y-75082188D01*
X147002000Y-75069928D01*
X146302000Y-75069928D01*
X146177518Y-75082188D01*
X146057820Y-75118498D01*
X146052000Y-75121609D01*
X146046180Y-75118498D01*
X145926482Y-75082188D01*
X145802000Y-75069928D01*
X145102000Y-75069928D01*
X144977518Y-75082188D01*
X144857820Y-75118498D01*
X144852000Y-75121609D01*
X144846180Y-75118498D01*
X144726482Y-75082188D01*
X144602000Y-75069928D01*
X143902000Y-75069928D01*
X143777518Y-75082188D01*
X143657820Y-75118498D01*
X143652000Y-75121609D01*
X143646180Y-75118498D01*
X143526482Y-75082188D01*
X143402000Y-75069928D01*
X142702000Y-75069928D01*
X142577518Y-75082188D01*
X142457820Y-75118498D01*
X142452000Y-75121609D01*
X142446180Y-75118498D01*
X142326482Y-75082188D01*
X142202000Y-75069928D01*
X141990072Y-75069928D01*
X141990072Y-74458000D01*
X141977812Y-74333518D01*
X141941502Y-74213820D01*
X141938391Y-74208000D01*
X141941502Y-74202180D01*
X141977812Y-74082482D01*
X141990072Y-73958000D01*
X141987000Y-73893750D01*
X141828250Y-73735000D01*
X140729000Y-73735000D01*
X140729000Y-73755000D01*
X140475000Y-73755000D01*
X140475000Y-73735000D01*
X139375750Y-73735000D01*
X139217000Y-73893750D01*
X139213928Y-73958000D01*
X139226188Y-74082482D01*
X139262498Y-74202180D01*
X139265609Y-74208000D01*
X139262498Y-74213820D01*
X139226188Y-74333518D01*
X139213928Y-74458000D01*
X139213928Y-75158000D01*
X139226188Y-75282482D01*
X139262498Y-75402180D01*
X139321463Y-75512494D01*
X139400815Y-75609185D01*
X139497506Y-75688537D01*
X139592001Y-75739046D01*
X139592001Y-75995197D01*
X138580403Y-77006796D01*
X138703625Y-76776264D01*
X138789316Y-76493777D01*
X138818251Y-76200000D01*
X138789316Y-75906223D01*
X138703625Y-75623736D01*
X138564469Y-75363394D01*
X138377197Y-75135203D01*
X138149006Y-74947931D01*
X138115460Y-74930000D01*
X138149006Y-74912069D01*
X138377197Y-74724797D01*
X138564469Y-74496606D01*
X138703625Y-74236264D01*
X138789316Y-73953777D01*
X138818251Y-73660000D01*
X138789316Y-73366223D01*
X138764101Y-73283100D01*
X139220677Y-72826525D01*
X139226188Y-72882482D01*
X139262498Y-73002180D01*
X139265609Y-73008000D01*
X139262498Y-73013820D01*
X139226188Y-73133518D01*
X139213928Y-73258000D01*
X139217000Y-73322250D01*
X139375750Y-73481000D01*
X140475000Y-73481000D01*
X140475000Y-73461000D01*
X140729000Y-73461000D01*
X140729000Y-73481000D01*
X141608716Y-73481000D01*
X141684102Y-73512226D01*
X141884061Y-73552000D01*
X142087939Y-73552000D01*
X142287898Y-73512226D01*
X142476256Y-73434205D01*
X142645774Y-73320937D01*
X142789937Y-73176774D01*
X142903205Y-73007256D01*
X142981226Y-72818898D01*
X143021000Y-72618939D01*
X143021000Y-72415061D01*
X142981226Y-72215102D01*
X142903205Y-72026744D01*
X142789937Y-71857226D01*
X142645774Y-71713063D01*
X142476256Y-71599795D01*
X142287898Y-71521774D01*
X142087939Y-71482000D01*
X141990072Y-71482000D01*
X141990072Y-71139000D01*
X142087939Y-71139000D01*
X142287898Y-71099226D01*
X142476256Y-71021205D01*
X142645774Y-70907937D01*
X142789937Y-70763774D01*
X142903205Y-70594256D01*
X142981226Y-70405898D01*
X143021000Y-70205939D01*
X143021000Y-70002061D01*
X142981226Y-69802102D01*
X142903205Y-69613744D01*
X142837227Y-69515000D01*
X147731805Y-69515000D01*
X147726188Y-69533518D01*
G36*
X150995531Y-74496606D02*
G01*
X151182803Y-74724797D01*
X151410994Y-74912069D01*
X151444540Y-74930000D01*
X151410994Y-74947931D01*
X151182803Y-75135203D01*
X150995531Y-75363394D01*
X150954584Y-75440000D01*
X150421286Y-75440000D01*
X150441502Y-75402180D01*
X150477812Y-75282482D01*
X150490072Y-75158000D01*
X150490072Y-74458000D01*
X150486329Y-74420000D01*
X150954584Y-74420000D01*
X150995531Y-74496606D01*
G37*
X150995531Y-74496606D02*
X151182803Y-74724797D01*
X151410994Y-74912069D01*
X151444540Y-74930000D01*
X151410994Y-74947931D01*
X151182803Y-75135203D01*
X150995531Y-75363394D01*
X150954584Y-75440000D01*
X150421286Y-75440000D01*
X150441502Y-75402180D01*
X150477812Y-75282482D01*
X150490072Y-75158000D01*
X150490072Y-74458000D01*
X150486329Y-74420000D01*
X150954584Y-74420000D01*
X150995531Y-74496606D01*
G36*
X139226188Y-69533518D02*
G01*
X139215647Y-69640551D01*
X138783767Y-70072431D01*
X138765502Y-70012220D01*
X138706537Y-69901906D01*
X138627185Y-69805215D01*
X138530494Y-69725863D01*
X138420180Y-69666898D01*
X138300482Y-69630588D01*
X138176000Y-69618328D01*
X136144000Y-69618328D01*
X136019518Y-69630588D01*
X135936000Y-69655923D01*
X135936000Y-69515000D01*
X139231805Y-69515000D01*
X139226188Y-69533518D01*
G37*
X139226188Y-69533518D02*
X139215647Y-69640551D01*
X138783767Y-70072431D01*
X138765502Y-70012220D01*
X138706537Y-69901906D01*
X138627185Y-69805215D01*
X138530494Y-69725863D01*
X138420180Y-69666898D01*
X138300482Y-69630588D01*
X138176000Y-69618328D01*
X136144000Y-69618328D01*
X136019518Y-69630588D01*
X135936000Y-69655923D01*
X135936000Y-69515000D01*
X139231805Y-69515000D01*
X139226188Y-69533518D01*
M02*
