G04 #@! TF.GenerationSoftware,KiCad,Pcbnew,5.1.5-52549c5~84~ubuntu18.04.1*
G04 #@! TF.CreationDate,2020-03-10T10:35:37+01:00*
G04 #@! TF.ProjectId,bm71_MODULE,626d3731-5f4d-44f4-9455-4c452e6b6963,rev?*
G04 #@! TF.SameCoordinates,Original*
G04 #@! TF.FileFunction,Soldermask,Bot*
G04 #@! TF.FilePolarity,Negative*
%FSLAX46Y46*%
G04 Gerber Fmt 4.6, Leading zero omitted, Abs format (unit mm)*
G04 Created by KiCad (PCBNEW 5.1.5-52549c5~84~ubuntu18.04.1) date 2020-03-10 10:35:37*
%MOMM*%
%LPD*%
G04 APERTURE LIST*
%ADD10C,0.050000*%
G04 APERTURE END LIST*
D10*
G36*
X152731694Y-85458633D02*
G01*
X152904095Y-85510931D01*
X153062983Y-85595858D01*
X153202249Y-85710151D01*
X153316542Y-85849417D01*
X153401469Y-86008305D01*
X153453767Y-86180706D01*
X153471425Y-86360000D01*
X153453767Y-86539294D01*
X153401469Y-86711695D01*
X153316542Y-86870583D01*
X153202249Y-87009849D01*
X153062983Y-87124142D01*
X152904095Y-87209069D01*
X152731694Y-87261367D01*
X152597331Y-87274600D01*
X152202669Y-87274600D01*
X152068306Y-87261367D01*
X151895905Y-87209069D01*
X151737017Y-87124142D01*
X151597751Y-87009849D01*
X151483458Y-86870583D01*
X151398531Y-86711695D01*
X151346233Y-86539294D01*
X151328575Y-86360000D01*
X151346233Y-86180706D01*
X151398531Y-86008305D01*
X151483458Y-85849417D01*
X151597751Y-85710151D01*
X151737017Y-85595858D01*
X151895905Y-85510931D01*
X152068306Y-85458633D01*
X152202669Y-85445400D01*
X152597331Y-85445400D01*
X152731694Y-85458633D01*
G37*
G36*
X137491694Y-85458633D02*
G01*
X137664095Y-85510931D01*
X137822983Y-85595858D01*
X137962249Y-85710151D01*
X138076542Y-85849417D01*
X138161469Y-86008305D01*
X138213767Y-86180706D01*
X138231425Y-86360000D01*
X138213767Y-86539294D01*
X138161469Y-86711695D01*
X138076542Y-86870583D01*
X137962249Y-87009849D01*
X137822983Y-87124142D01*
X137664095Y-87209069D01*
X137491694Y-87261367D01*
X137357331Y-87274600D01*
X136962669Y-87274600D01*
X136828306Y-87261367D01*
X136655905Y-87209069D01*
X136497017Y-87124142D01*
X136357751Y-87009849D01*
X136243458Y-86870583D01*
X136158531Y-86711695D01*
X136106233Y-86539294D01*
X136088575Y-86360000D01*
X136106233Y-86180706D01*
X136158531Y-86008305D01*
X136243458Y-85849417D01*
X136357751Y-85710151D01*
X136497017Y-85595858D01*
X136655905Y-85510931D01*
X136828306Y-85458633D01*
X136962669Y-85445400D01*
X137357331Y-85445400D01*
X137491694Y-85458633D01*
G37*
G36*
X142025000Y-85283000D02*
G01*
X140423000Y-85283000D01*
X140423000Y-83881000D01*
X142025000Y-83881000D01*
X142025000Y-85283000D01*
G37*
G36*
X144725000Y-85283000D02*
G01*
X143123000Y-85283000D01*
X143123000Y-83881000D01*
X144725000Y-83881000D01*
X144725000Y-85283000D01*
G37*
G36*
X147199000Y-85283000D02*
G01*
X145597000Y-85283000D01*
X145597000Y-83881000D01*
X147199000Y-83881000D01*
X147199000Y-85283000D01*
G37*
G36*
X149899000Y-85283000D02*
G01*
X148297000Y-85283000D01*
X148297000Y-83881000D01*
X149899000Y-83881000D01*
X149899000Y-85283000D01*
G37*
G36*
X137491694Y-82918633D02*
G01*
X137664095Y-82970931D01*
X137822983Y-83055858D01*
X137962249Y-83170151D01*
X138076542Y-83309417D01*
X138161469Y-83468305D01*
X138213767Y-83640706D01*
X138231425Y-83820000D01*
X138213767Y-83999294D01*
X138161469Y-84171695D01*
X138076542Y-84330583D01*
X137962249Y-84469849D01*
X137822983Y-84584142D01*
X137664095Y-84669069D01*
X137491694Y-84721367D01*
X137357331Y-84734600D01*
X136962669Y-84734600D01*
X136828306Y-84721367D01*
X136655905Y-84669069D01*
X136497017Y-84584142D01*
X136357751Y-84469849D01*
X136243458Y-84330583D01*
X136158531Y-84171695D01*
X136106233Y-83999294D01*
X136088575Y-83820000D01*
X136106233Y-83640706D01*
X136158531Y-83468305D01*
X136243458Y-83309417D01*
X136357751Y-83170151D01*
X136497017Y-83055858D01*
X136655905Y-82970931D01*
X136828306Y-82918633D01*
X136962669Y-82905400D01*
X137357331Y-82905400D01*
X137491694Y-82918633D01*
G37*
G36*
X152731694Y-82918633D02*
G01*
X152904095Y-82970931D01*
X153062983Y-83055858D01*
X153202249Y-83170151D01*
X153316542Y-83309417D01*
X153401469Y-83468305D01*
X153453767Y-83640706D01*
X153471425Y-83820000D01*
X153453767Y-83999294D01*
X153401469Y-84171695D01*
X153316542Y-84330583D01*
X153202249Y-84469849D01*
X153062983Y-84584142D01*
X152904095Y-84669069D01*
X152731694Y-84721367D01*
X152597331Y-84734600D01*
X152202669Y-84734600D01*
X152068306Y-84721367D01*
X151895905Y-84669069D01*
X151737017Y-84584142D01*
X151597751Y-84469849D01*
X151483458Y-84330583D01*
X151398531Y-84171695D01*
X151346233Y-83999294D01*
X151328575Y-83820000D01*
X151346233Y-83640706D01*
X151398531Y-83468305D01*
X151483458Y-83309417D01*
X151597751Y-83170151D01*
X151737017Y-83055858D01*
X151895905Y-82970931D01*
X152068306Y-82918633D01*
X152202669Y-82905400D01*
X152597331Y-82905400D01*
X152731694Y-82918633D01*
G37*
G36*
X147105000Y-82997000D02*
G01*
X145503000Y-82997000D01*
X145503000Y-81595000D01*
X147105000Y-81595000D01*
X147105000Y-82997000D01*
G37*
G36*
X149805000Y-82997000D02*
G01*
X148203000Y-82997000D01*
X148203000Y-81595000D01*
X149805000Y-81595000D01*
X149805000Y-82997000D01*
G37*
G36*
X144725000Y-82997000D02*
G01*
X143123000Y-82997000D01*
X143123000Y-81595000D01*
X144725000Y-81595000D01*
X144725000Y-82997000D01*
G37*
G36*
X142025000Y-82997000D02*
G01*
X140423000Y-82997000D01*
X140423000Y-81595000D01*
X142025000Y-81595000D01*
X142025000Y-82997000D01*
G37*
G36*
X137491694Y-80378633D02*
G01*
X137664095Y-80430931D01*
X137822983Y-80515858D01*
X137962249Y-80630151D01*
X138076542Y-80769417D01*
X138161469Y-80928305D01*
X138213767Y-81100706D01*
X138231425Y-81280000D01*
X138213767Y-81459294D01*
X138161469Y-81631695D01*
X138076542Y-81790583D01*
X137962249Y-81929849D01*
X137822983Y-82044142D01*
X137664095Y-82129069D01*
X137491694Y-82181367D01*
X137357331Y-82194600D01*
X136962669Y-82194600D01*
X136828306Y-82181367D01*
X136655905Y-82129069D01*
X136497017Y-82044142D01*
X136357751Y-81929849D01*
X136243458Y-81790583D01*
X136158531Y-81631695D01*
X136106233Y-81459294D01*
X136088575Y-81280000D01*
X136106233Y-81100706D01*
X136158531Y-80928305D01*
X136243458Y-80769417D01*
X136357751Y-80630151D01*
X136497017Y-80515858D01*
X136655905Y-80430931D01*
X136828306Y-80378633D01*
X136962669Y-80365400D01*
X137357331Y-80365400D01*
X137491694Y-80378633D01*
G37*
G36*
X152731694Y-80378633D02*
G01*
X152904095Y-80430931D01*
X153062983Y-80515858D01*
X153202249Y-80630151D01*
X153316542Y-80769417D01*
X153401469Y-80928305D01*
X153453767Y-81100706D01*
X153471425Y-81280000D01*
X153453767Y-81459294D01*
X153401469Y-81631695D01*
X153316542Y-81790583D01*
X153202249Y-81929849D01*
X153062983Y-82044142D01*
X152904095Y-82129069D01*
X152731694Y-82181367D01*
X152597331Y-82194600D01*
X152202669Y-82194600D01*
X152068306Y-82181367D01*
X151895905Y-82129069D01*
X151737017Y-82044142D01*
X151597751Y-81929849D01*
X151483458Y-81790583D01*
X151398531Y-81631695D01*
X151346233Y-81459294D01*
X151328575Y-81280000D01*
X151346233Y-81100706D01*
X151398531Y-80928305D01*
X151483458Y-80769417D01*
X151597751Y-80630151D01*
X151737017Y-80515858D01*
X151895905Y-80430931D01*
X152068306Y-80378633D01*
X152202669Y-80365400D01*
X152597331Y-80365400D01*
X152731694Y-80378633D01*
G37*
G36*
X148133000Y-80696000D02*
G01*
X145999000Y-80696000D01*
X145999000Y-78562000D01*
X148133000Y-78562000D01*
X148133000Y-80696000D01*
G37*
G36*
X149917231Y-78603003D02*
G01*
X150111412Y-78683436D01*
X150111414Y-78683437D01*
X150286173Y-78800207D01*
X150434793Y-78948827D01*
X150551563Y-79123586D01*
X150551564Y-79123588D01*
X150631997Y-79317769D01*
X150673000Y-79523908D01*
X150673000Y-79734092D01*
X150631997Y-79940231D01*
X150551564Y-80134412D01*
X150551563Y-80134414D01*
X150434793Y-80309173D01*
X150286173Y-80457793D01*
X150111414Y-80574563D01*
X150111413Y-80574564D01*
X150111412Y-80574564D01*
X149917231Y-80654997D01*
X149711092Y-80696000D01*
X149500908Y-80696000D01*
X149294769Y-80654997D01*
X149100588Y-80574564D01*
X149100587Y-80574564D01*
X149100586Y-80574563D01*
X148925827Y-80457793D01*
X148777207Y-80309173D01*
X148660437Y-80134414D01*
X148660436Y-80134412D01*
X148580003Y-79940231D01*
X148539000Y-79734092D01*
X148539000Y-79523908D01*
X148580003Y-79317769D01*
X148660436Y-79123588D01*
X148660437Y-79123586D01*
X148777207Y-78948827D01*
X148925827Y-78800207D01*
X149100586Y-78683437D01*
X149100588Y-78683436D01*
X149294769Y-78603003D01*
X149500908Y-78562000D01*
X149711092Y-78562000D01*
X149917231Y-78603003D01*
G37*
G36*
X142375000Y-80684000D02*
G01*
X140073000Y-80684000D01*
X140073000Y-79082000D01*
X142375000Y-79082000D01*
X142375000Y-80684000D01*
G37*
G36*
X145275000Y-80684000D02*
G01*
X142973000Y-80684000D01*
X142973000Y-79082000D01*
X145275000Y-79082000D01*
X145275000Y-80684000D01*
G37*
G36*
X152731694Y-77838633D02*
G01*
X152904095Y-77890931D01*
X153062983Y-77975858D01*
X153202249Y-78090151D01*
X153316542Y-78229417D01*
X153401469Y-78388305D01*
X153453767Y-78560706D01*
X153471425Y-78740000D01*
X153453767Y-78919294D01*
X153401469Y-79091695D01*
X153316542Y-79250583D01*
X153202249Y-79389849D01*
X153062983Y-79504142D01*
X152904095Y-79589069D01*
X152731694Y-79641367D01*
X152597331Y-79654600D01*
X152202669Y-79654600D01*
X152068306Y-79641367D01*
X151895905Y-79589069D01*
X151737017Y-79504142D01*
X151597751Y-79389849D01*
X151483458Y-79250583D01*
X151398531Y-79091695D01*
X151346233Y-78919294D01*
X151328575Y-78740000D01*
X151346233Y-78560706D01*
X151398531Y-78388305D01*
X151483458Y-78229417D01*
X151597751Y-78090151D01*
X151737017Y-77975858D01*
X151895905Y-77890931D01*
X152068306Y-77838633D01*
X152202669Y-77825400D01*
X152597331Y-77825400D01*
X152731694Y-77838633D01*
G37*
G36*
X137491694Y-77838633D02*
G01*
X137664095Y-77890931D01*
X137822983Y-77975858D01*
X137962249Y-78090151D01*
X138076542Y-78229417D01*
X138161469Y-78388305D01*
X138213767Y-78560706D01*
X138231425Y-78740000D01*
X138213767Y-78919294D01*
X138161469Y-79091695D01*
X138076542Y-79250583D01*
X137962249Y-79389849D01*
X137822983Y-79504142D01*
X137664095Y-79589069D01*
X137491694Y-79641367D01*
X137357331Y-79654600D01*
X136962669Y-79654600D01*
X136828306Y-79641367D01*
X136655905Y-79589069D01*
X136497017Y-79504142D01*
X136357751Y-79389849D01*
X136243458Y-79250583D01*
X136158531Y-79091695D01*
X136106233Y-78919294D01*
X136088575Y-78740000D01*
X136106233Y-78560706D01*
X136158531Y-78388305D01*
X136243458Y-78229417D01*
X136357751Y-78090151D01*
X136497017Y-77975858D01*
X136655905Y-77890931D01*
X136828306Y-77838633D01*
X136962669Y-77825400D01*
X137357331Y-77825400D01*
X137491694Y-77838633D01*
G37*
G36*
X142253000Y-77259000D02*
G01*
X141451000Y-77259000D01*
X141451000Y-75657000D01*
X142253000Y-75657000D01*
X142253000Y-77259000D01*
G37*
G36*
X145853000Y-77259000D02*
G01*
X145051000Y-77259000D01*
X145051000Y-75657000D01*
X145853000Y-75657000D01*
X145853000Y-77259000D01*
G37*
G36*
X147053000Y-77259000D02*
G01*
X146251000Y-77259000D01*
X146251000Y-75657000D01*
X147053000Y-75657000D01*
X147053000Y-77259000D01*
G37*
G36*
X143453000Y-77259000D02*
G01*
X142651000Y-77259000D01*
X142651000Y-75657000D01*
X143453000Y-75657000D01*
X143453000Y-77259000D01*
G37*
G36*
X144653000Y-77259000D02*
G01*
X143851000Y-77259000D01*
X143851000Y-75657000D01*
X144653000Y-75657000D01*
X144653000Y-77259000D01*
G37*
G36*
X148253000Y-77259000D02*
G01*
X147451000Y-77259000D01*
X147451000Y-75657000D01*
X148253000Y-75657000D01*
X148253000Y-77259000D01*
G37*
G36*
X152731694Y-75298633D02*
G01*
X152904095Y-75350931D01*
X153062983Y-75435858D01*
X153202249Y-75550151D01*
X153316542Y-75689417D01*
X153401469Y-75848305D01*
X153453767Y-76020706D01*
X153471425Y-76200000D01*
X153453767Y-76379294D01*
X153401469Y-76551695D01*
X153316542Y-76710583D01*
X153202249Y-76849849D01*
X153062983Y-76964142D01*
X152904095Y-77049069D01*
X152731694Y-77101367D01*
X152597331Y-77114600D01*
X152202669Y-77114600D01*
X152068306Y-77101367D01*
X151895905Y-77049069D01*
X151737017Y-76964142D01*
X151597751Y-76849849D01*
X151483458Y-76710583D01*
X151398531Y-76551695D01*
X151346233Y-76379294D01*
X151328575Y-76200000D01*
X151346233Y-76020706D01*
X151398531Y-75848305D01*
X151483458Y-75689417D01*
X151597751Y-75550151D01*
X151737017Y-75435858D01*
X151895905Y-75350931D01*
X152068306Y-75298633D01*
X152202669Y-75285400D01*
X152597331Y-75285400D01*
X152731694Y-75298633D01*
G37*
G36*
X137491694Y-75298633D02*
G01*
X137664095Y-75350931D01*
X137822983Y-75435858D01*
X137962249Y-75550151D01*
X138076542Y-75689417D01*
X138161469Y-75848305D01*
X138213767Y-76020706D01*
X138231425Y-76200000D01*
X138213767Y-76379294D01*
X138161469Y-76551695D01*
X138076542Y-76710583D01*
X137962249Y-76849849D01*
X137822983Y-76964142D01*
X137664095Y-77049069D01*
X137491694Y-77101367D01*
X137357331Y-77114600D01*
X136962669Y-77114600D01*
X136828306Y-77101367D01*
X136655905Y-77049069D01*
X136497017Y-76964142D01*
X136357751Y-76849849D01*
X136243458Y-76710583D01*
X136158531Y-76551695D01*
X136106233Y-76379294D01*
X136088575Y-76200000D01*
X136106233Y-76020706D01*
X136158531Y-75848305D01*
X136243458Y-75689417D01*
X136357751Y-75550151D01*
X136497017Y-75435858D01*
X136655905Y-75350931D01*
X136828306Y-75298633D01*
X136962669Y-75285400D01*
X137357331Y-75285400D01*
X137491694Y-75298633D01*
G37*
G36*
X149903000Y-75209000D02*
G01*
X148301000Y-75209000D01*
X148301000Y-74407000D01*
X149903000Y-74407000D01*
X149903000Y-75209000D01*
G37*
G36*
X141403000Y-75209000D02*
G01*
X139801000Y-75209000D01*
X139801000Y-74407000D01*
X141403000Y-74407000D01*
X141403000Y-75209000D01*
G37*
G36*
X152731694Y-72758633D02*
G01*
X152904095Y-72810931D01*
X153062983Y-72895858D01*
X153202249Y-73010151D01*
X153316542Y-73149417D01*
X153401469Y-73308305D01*
X153453767Y-73480706D01*
X153471425Y-73660000D01*
X153453767Y-73839294D01*
X153401469Y-74011695D01*
X153316542Y-74170583D01*
X153202249Y-74309849D01*
X153062983Y-74424142D01*
X152904095Y-74509069D01*
X152731694Y-74561367D01*
X152597331Y-74574600D01*
X152202669Y-74574600D01*
X152068306Y-74561367D01*
X151895905Y-74509069D01*
X151737017Y-74424142D01*
X151597751Y-74309849D01*
X151483458Y-74170583D01*
X151398531Y-74011695D01*
X151346233Y-73839294D01*
X151328575Y-73660000D01*
X151346233Y-73480706D01*
X151398531Y-73308305D01*
X151483458Y-73149417D01*
X151597751Y-73010151D01*
X151737017Y-72895858D01*
X151895905Y-72810931D01*
X152068306Y-72758633D01*
X152202669Y-72745400D01*
X152597331Y-72745400D01*
X152731694Y-72758633D01*
G37*
G36*
X137491694Y-72758633D02*
G01*
X137664095Y-72810931D01*
X137822983Y-72895858D01*
X137962249Y-73010151D01*
X138076542Y-73149417D01*
X138161469Y-73308305D01*
X138213767Y-73480706D01*
X138231425Y-73660000D01*
X138213767Y-73839294D01*
X138161469Y-74011695D01*
X138076542Y-74170583D01*
X137962249Y-74309849D01*
X137822983Y-74424142D01*
X137664095Y-74509069D01*
X137491694Y-74561367D01*
X137357331Y-74574600D01*
X136962669Y-74574600D01*
X136828306Y-74561367D01*
X136655905Y-74509069D01*
X136497017Y-74424142D01*
X136357751Y-74309849D01*
X136243458Y-74170583D01*
X136158531Y-74011695D01*
X136106233Y-73839294D01*
X136088575Y-73660000D01*
X136106233Y-73480706D01*
X136158531Y-73308305D01*
X136243458Y-73149417D01*
X136357751Y-73010151D01*
X136497017Y-72895858D01*
X136655905Y-72810931D01*
X136828306Y-72758633D01*
X136962669Y-72745400D01*
X137357331Y-72745400D01*
X137491694Y-72758633D01*
G37*
G36*
X149903000Y-74009000D02*
G01*
X148301000Y-74009000D01*
X148301000Y-73207000D01*
X149903000Y-73207000D01*
X149903000Y-74009000D01*
G37*
G36*
X141403000Y-74009000D02*
G01*
X139801000Y-74009000D01*
X139801000Y-73207000D01*
X141403000Y-73207000D01*
X141403000Y-74009000D01*
G37*
G36*
X149903000Y-72809000D02*
G01*
X148301000Y-72809000D01*
X148301000Y-72007000D01*
X149903000Y-72007000D01*
X149903000Y-72809000D01*
G37*
G36*
X141403000Y-72809000D02*
G01*
X139801000Y-72809000D01*
X139801000Y-72007000D01*
X141403000Y-72007000D01*
X141403000Y-72809000D01*
G37*
G36*
X138227000Y-72034600D02*
G01*
X136093000Y-72034600D01*
X136093000Y-70205400D01*
X138227000Y-70205400D01*
X138227000Y-72034600D01*
G37*
G36*
X153467000Y-72034600D02*
G01*
X151333000Y-72034600D01*
X151333000Y-70205400D01*
X153467000Y-70205400D01*
X153467000Y-72034600D01*
G37*
G36*
X141403000Y-71609000D02*
G01*
X139801000Y-71609000D01*
X139801000Y-70807000D01*
X141403000Y-70807000D01*
X141403000Y-71609000D01*
G37*
G36*
X149903000Y-71609000D02*
G01*
X148301000Y-71609000D01*
X148301000Y-70807000D01*
X149903000Y-70807000D01*
X149903000Y-71609000D01*
G37*
G36*
X141403000Y-70409000D02*
G01*
X139801000Y-70409000D01*
X139801000Y-69607000D01*
X141403000Y-69607000D01*
X141403000Y-70409000D01*
G37*
G36*
X149903000Y-70409000D02*
G01*
X148301000Y-70409000D01*
X148301000Y-69607000D01*
X149903000Y-69607000D01*
X149903000Y-70409000D01*
G37*
M02*
