M48
; DRILL file {KiCad 5.1.5-52549c5~84~ubuntu18.04.1} date Ut 10. marec 2020, 10:35:40 CET
; FORMAT={-:-/ absolute / metric / decimal}
; #@! TF.CreationDate,2020-03-10T10:35:40+01:00
; #@! TF.GenerationSoftware,Kicad,Pcbnew,5.1.5-52549c5~84~ubuntu18.04.1
FMAT,2
METRIC
T1C0.400
T2C1.016
%
G90
G05
T1
X139.01Y-69.896
X139.192Y-73.66
X140.716Y-78.74
X141.986Y-70.104
X141.986Y-72.517
X143.002Y-78.74
X143.129Y-87.376
X143.764Y-77.978
X143.891Y-70.231
X144.824Y-78.467
X145.288Y-70.231
X145.288Y-71.247
X145.288Y-72.517
X145.288Y-73.533
X145.288Y-74.676
X146.685Y-70.231
X146.685Y-71.247
X146.685Y-72.517
X146.685Y-73.533
X146.685Y-86.36
X146.812Y-74.676
X147.574Y-83.82
X150.597Y-71.196
X150.622Y-69.799
X150.622Y-74.803
T2
X152.4Y-71.12
X152.4Y-73.66
X152.4Y-76.2
X152.4Y-78.74
X152.4Y-81.28
X152.4Y-83.82
X152.4Y-86.36
X147.066Y-79.629
X149.606Y-79.629
X137.16Y-71.12
X137.16Y-73.66
X137.16Y-76.2
X137.16Y-78.74
X137.16Y-81.28
X137.16Y-83.82
X137.16Y-86.36
T0
M30
