G04 #@! TF.GenerationSoftware,KiCad,Pcbnew,5.0.0-rc2-dev-unknown-ce1bd4c~62~ubuntu16.04.1*
G04 #@! TF.CreationDate,2018-03-08T22:04:42+01:00*
G04 #@! TF.ProjectId,BM23_multi,424D32335F6D756C74692E6B69636164,rev?*
G04 #@! TF.SameCoordinates,Original*
G04 #@! TF.FileFunction,Paste,Bot*
G04 #@! TF.FilePolarity,Positive*
%FSLAX46Y46*%
G04 Gerber Fmt 4.6, Leading zero omitted, Abs format (unit mm)*
G04 Created by KiCad (PCBNEW 5.0.0-rc2-dev-unknown-ce1bd4c~62~ubuntu16.04.1) date Thu Mar  8 22:04:42 2018*
%MOMM*%
%LPD*%
G01*
G04 APERTURE LIST*
%ADD10C,0.850000*%
%ADD11C,0.050000*%
%ADD12C,0.760000*%
G04 APERTURE END LIST*
D10*
X218508000Y-154698000D03*
D11*
G36*
X218083000Y-155548000D02*
X218083000Y-153848000D01*
X218933000Y-153848000D01*
X218933000Y-155548000D01*
X218083000Y-155548000D01*
X218083000Y-155548000D01*
G37*
D10*
X219708000Y-154698000D03*
D11*
G36*
X219283000Y-155548000D02*
X219283000Y-153848000D01*
X220133000Y-153848000D01*
X220133000Y-155548000D01*
X219283000Y-155548000D01*
X219283000Y-155548000D01*
G37*
D10*
X220908000Y-154698000D03*
D11*
G36*
X220483000Y-155548000D02*
X220483000Y-153848000D01*
X221333000Y-153848000D01*
X221333000Y-155548000D01*
X220483000Y-155548000D01*
X220483000Y-155548000D01*
G37*
D10*
X222108000Y-154698000D03*
D11*
G36*
X221683000Y-155548000D02*
X221683000Y-153848000D01*
X222533000Y-153848000D01*
X222533000Y-155548000D01*
X221683000Y-155548000D01*
X221683000Y-155548000D01*
G37*
D10*
X223308000Y-154698000D03*
D11*
G36*
X222883000Y-155548000D02*
X222883000Y-153848000D01*
X223733000Y-153848000D01*
X223733000Y-155548000D01*
X222883000Y-155548000D01*
X222883000Y-155548000D01*
G37*
D10*
X224508000Y-154698000D03*
D11*
G36*
X224083000Y-155548000D02*
X224083000Y-153848000D01*
X224933000Y-153848000D01*
X224933000Y-155548000D01*
X224083000Y-155548000D01*
X224083000Y-155548000D01*
G37*
D10*
X225708000Y-154698000D03*
D11*
G36*
X225283000Y-155548000D02*
X225283000Y-153848000D01*
X226133000Y-153848000D01*
X226133000Y-155548000D01*
X225283000Y-155548000D01*
X225283000Y-155548000D01*
G37*
D10*
X226908000Y-154698000D03*
D11*
G36*
X226483000Y-155548000D02*
X226483000Y-153848000D01*
X227333000Y-153848000D01*
X227333000Y-155548000D01*
X226483000Y-155548000D01*
X226483000Y-155548000D01*
G37*
D10*
X228108000Y-154698000D03*
D11*
G36*
X227683000Y-155548000D02*
X227683000Y-153848000D01*
X228533000Y-153848000D01*
X228533000Y-155548000D01*
X227683000Y-155548000D01*
X227683000Y-155548000D01*
G37*
D12*
X231058000Y-171048000D03*
D11*
G36*
X230208000Y-170668000D02*
X231908000Y-170668000D01*
X231908000Y-171428000D01*
X230208000Y-171428000D01*
X230208000Y-170668000D01*
X230208000Y-170668000D01*
G37*
D12*
X231058000Y-169848000D03*
D11*
G36*
X230208000Y-169468000D02*
X231908000Y-169468000D01*
X231908000Y-170228000D01*
X230208000Y-170228000D01*
X230208000Y-169468000D01*
X230208000Y-169468000D01*
G37*
D12*
X231058000Y-156648000D03*
D11*
G36*
X230208000Y-156268000D02*
X231908000Y-156268000D01*
X231908000Y-157028000D01*
X230208000Y-157028000D01*
X230208000Y-156268000D01*
X230208000Y-156268000D01*
G37*
D12*
X231058000Y-155448000D03*
D11*
G36*
X230208000Y-155068000D02*
X231908000Y-155068000D01*
X231908000Y-155828000D01*
X230208000Y-155828000D01*
X230208000Y-155068000D01*
X230208000Y-155068000D01*
G37*
D12*
X231058000Y-161448000D03*
D11*
G36*
X230208000Y-161068000D02*
X231908000Y-161068000D01*
X231908000Y-161828000D01*
X230208000Y-161828000D01*
X230208000Y-161068000D01*
X230208000Y-161068000D01*
G37*
D12*
X231058000Y-159048000D03*
D11*
G36*
X230208000Y-158668000D02*
X231908000Y-158668000D01*
X231908000Y-159428000D01*
X230208000Y-159428000D01*
X230208000Y-158668000D01*
X230208000Y-158668000D01*
G37*
D12*
X231058000Y-160248000D03*
D11*
G36*
X230208000Y-159868000D02*
X231908000Y-159868000D01*
X231908000Y-160628000D01*
X230208000Y-160628000D01*
X230208000Y-159868000D01*
X230208000Y-159868000D01*
G37*
D12*
X231058000Y-157848000D03*
D11*
G36*
X230208000Y-157468000D02*
X231908000Y-157468000D01*
X231908000Y-158228000D01*
X230208000Y-158228000D01*
X230208000Y-157468000D01*
X230208000Y-157468000D01*
G37*
D12*
X231058000Y-168648000D03*
D11*
G36*
X230208000Y-168268000D02*
X231908000Y-168268000D01*
X231908000Y-169028000D01*
X230208000Y-169028000D01*
X230208000Y-168268000D01*
X230208000Y-168268000D01*
G37*
D12*
X231058000Y-166248000D03*
D11*
G36*
X230208000Y-165868000D02*
X231908000Y-165868000D01*
X231908000Y-166628000D01*
X230208000Y-166628000D01*
X230208000Y-165868000D01*
X230208000Y-165868000D01*
G37*
D12*
X231058000Y-167448000D03*
D11*
G36*
X230208000Y-167068000D02*
X231908000Y-167068000D01*
X231908000Y-167828000D01*
X230208000Y-167828000D01*
X230208000Y-167068000D01*
X230208000Y-167068000D01*
G37*
D12*
X231058000Y-163848000D03*
D11*
G36*
X230208000Y-163468000D02*
X231908000Y-163468000D01*
X231908000Y-164228000D01*
X230208000Y-164228000D01*
X230208000Y-163468000D01*
X230208000Y-163468000D01*
G37*
D12*
X231058000Y-165048000D03*
D11*
G36*
X230208000Y-164668000D02*
X231908000Y-164668000D01*
X231908000Y-165428000D01*
X230208000Y-165428000D01*
X230208000Y-164668000D01*
X230208000Y-164668000D01*
G37*
D12*
X231058000Y-162648000D03*
D11*
G36*
X230208000Y-162268000D02*
X231908000Y-162268000D01*
X231908000Y-163028000D01*
X230208000Y-163028000D01*
X230208000Y-162268000D01*
X230208000Y-162268000D01*
G37*
D12*
X216758000Y-163848000D03*
D11*
G36*
X215908000Y-163468000D02*
X217608000Y-163468000D01*
X217608000Y-164228000D01*
X215908000Y-164228000D01*
X215908000Y-163468000D01*
X215908000Y-163468000D01*
G37*
D12*
X216758000Y-172248000D03*
D11*
G36*
X215908000Y-171868000D02*
X217608000Y-171868000D01*
X217608000Y-172628000D01*
X215908000Y-172628000D01*
X215908000Y-171868000D01*
X215908000Y-171868000D01*
G37*
D12*
X216758000Y-167448000D03*
D11*
G36*
X215908000Y-167068000D02*
X217608000Y-167068000D01*
X217608000Y-167828000D01*
X215908000Y-167828000D01*
X215908000Y-167068000D01*
X215908000Y-167068000D01*
G37*
D12*
X216758000Y-161448000D03*
D11*
G36*
X215908000Y-161068000D02*
X217608000Y-161068000D01*
X217608000Y-161828000D01*
X215908000Y-161828000D01*
X215908000Y-161068000D01*
X215908000Y-161068000D01*
G37*
D12*
X216758000Y-168648000D03*
D11*
G36*
X215908000Y-168268000D02*
X217608000Y-168268000D01*
X217608000Y-169028000D01*
X215908000Y-169028000D01*
X215908000Y-168268000D01*
X215908000Y-168268000D01*
G37*
D12*
X216758000Y-162648000D03*
D11*
G36*
X215908000Y-162268000D02*
X217608000Y-162268000D01*
X217608000Y-163028000D01*
X215908000Y-163028000D01*
X215908000Y-162268000D01*
X215908000Y-162268000D01*
G37*
D12*
X216758000Y-159048000D03*
D11*
G36*
X215908000Y-158668000D02*
X217608000Y-158668000D01*
X217608000Y-159428000D01*
X215908000Y-159428000D01*
X215908000Y-158668000D01*
X215908000Y-158668000D01*
G37*
D12*
X216758000Y-169848000D03*
D11*
G36*
X215908000Y-169468000D02*
X217608000Y-169468000D01*
X217608000Y-170228000D01*
X215908000Y-170228000D01*
X215908000Y-169468000D01*
X215908000Y-169468000D01*
G37*
D12*
X216758000Y-165048000D03*
D11*
G36*
X215908000Y-164668000D02*
X217608000Y-164668000D01*
X217608000Y-165428000D01*
X215908000Y-165428000D01*
X215908000Y-164668000D01*
X215908000Y-164668000D01*
G37*
D12*
X216758000Y-160248000D03*
D11*
G36*
X215908000Y-159868000D02*
X217608000Y-159868000D01*
X217608000Y-160628000D01*
X215908000Y-160628000D01*
X215908000Y-159868000D01*
X215908000Y-159868000D01*
G37*
D12*
X216758000Y-157848000D03*
D11*
G36*
X215908000Y-157468000D02*
X217608000Y-157468000D01*
X217608000Y-158228000D01*
X215908000Y-158228000D01*
X215908000Y-157468000D01*
X215908000Y-157468000D01*
G37*
D12*
X216758000Y-171048000D03*
D11*
G36*
X215908000Y-170668000D02*
X217608000Y-170668000D01*
X217608000Y-171428000D01*
X215908000Y-171428000D01*
X215908000Y-170668000D01*
X215908000Y-170668000D01*
G37*
D12*
X216758000Y-166248000D03*
D11*
G36*
X215908000Y-165868000D02*
X217608000Y-165868000D01*
X217608000Y-166628000D01*
X215908000Y-166628000D01*
X215908000Y-165868000D01*
X215908000Y-165868000D01*
G37*
D12*
X216758000Y-155448000D03*
D11*
G36*
X215908000Y-155068000D02*
X217608000Y-155068000D01*
X217608000Y-155828000D01*
X215908000Y-155828000D01*
X215908000Y-155068000D01*
X215908000Y-155068000D01*
G37*
D12*
X216758000Y-156648000D03*
D11*
G36*
X215908000Y-156268000D02*
X217608000Y-156268000D01*
X217608000Y-157028000D01*
X215908000Y-157028000D01*
X215908000Y-156268000D01*
X215908000Y-156268000D01*
G37*
D10*
X229308000Y-154698000D03*
D11*
G36*
X228883000Y-155548000D02*
X228883000Y-153848000D01*
X229733000Y-153848000D01*
X229733000Y-155548000D01*
X228883000Y-155548000D01*
X228883000Y-155548000D01*
G37*
D12*
X231058000Y-172248000D03*
D11*
G36*
X230208000Y-171868000D02*
X231908000Y-171868000D01*
X231908000Y-172628000D01*
X230208000Y-172628000D01*
X230208000Y-171868000D01*
X230208000Y-171868000D01*
G37*
D10*
X189044000Y-154698000D03*
D11*
G36*
X188619000Y-155548000D02*
X188619000Y-153848000D01*
X189469000Y-153848000D01*
X189469000Y-155548000D01*
X188619000Y-155548000D01*
X188619000Y-155548000D01*
G37*
D10*
X190244000Y-154698000D03*
D11*
G36*
X189819000Y-155548000D02*
X189819000Y-153848000D01*
X190669000Y-153848000D01*
X190669000Y-155548000D01*
X189819000Y-155548000D01*
X189819000Y-155548000D01*
G37*
D10*
X191444000Y-154698000D03*
D11*
G36*
X191019000Y-155548000D02*
X191019000Y-153848000D01*
X191869000Y-153848000D01*
X191869000Y-155548000D01*
X191019000Y-155548000D01*
X191019000Y-155548000D01*
G37*
D10*
X192644000Y-154698000D03*
D11*
G36*
X192219000Y-155548000D02*
X192219000Y-153848000D01*
X193069000Y-153848000D01*
X193069000Y-155548000D01*
X192219000Y-155548000D01*
X192219000Y-155548000D01*
G37*
D10*
X193844000Y-154698000D03*
D11*
G36*
X193419000Y-155548000D02*
X193419000Y-153848000D01*
X194269000Y-153848000D01*
X194269000Y-155548000D01*
X193419000Y-155548000D01*
X193419000Y-155548000D01*
G37*
D10*
X195044000Y-154698000D03*
D11*
G36*
X194619000Y-155548000D02*
X194619000Y-153848000D01*
X195469000Y-153848000D01*
X195469000Y-155548000D01*
X194619000Y-155548000D01*
X194619000Y-155548000D01*
G37*
D10*
X196244000Y-154698000D03*
D11*
G36*
X195819000Y-155548000D02*
X195819000Y-153848000D01*
X196669000Y-153848000D01*
X196669000Y-155548000D01*
X195819000Y-155548000D01*
X195819000Y-155548000D01*
G37*
D10*
X197444000Y-154698000D03*
D11*
G36*
X197019000Y-155548000D02*
X197019000Y-153848000D01*
X197869000Y-153848000D01*
X197869000Y-155548000D01*
X197019000Y-155548000D01*
X197019000Y-155548000D01*
G37*
D10*
X198644000Y-154698000D03*
D11*
G36*
X198219000Y-155548000D02*
X198219000Y-153848000D01*
X199069000Y-153848000D01*
X199069000Y-155548000D01*
X198219000Y-155548000D01*
X198219000Y-155548000D01*
G37*
D12*
X201594000Y-171048000D03*
D11*
G36*
X200744000Y-170668000D02*
X202444000Y-170668000D01*
X202444000Y-171428000D01*
X200744000Y-171428000D01*
X200744000Y-170668000D01*
X200744000Y-170668000D01*
G37*
D12*
X201594000Y-169848000D03*
D11*
G36*
X200744000Y-169468000D02*
X202444000Y-169468000D01*
X202444000Y-170228000D01*
X200744000Y-170228000D01*
X200744000Y-169468000D01*
X200744000Y-169468000D01*
G37*
D12*
X201594000Y-156648000D03*
D11*
G36*
X200744000Y-156268000D02*
X202444000Y-156268000D01*
X202444000Y-157028000D01*
X200744000Y-157028000D01*
X200744000Y-156268000D01*
X200744000Y-156268000D01*
G37*
D12*
X201594000Y-155448000D03*
D11*
G36*
X200744000Y-155068000D02*
X202444000Y-155068000D01*
X202444000Y-155828000D01*
X200744000Y-155828000D01*
X200744000Y-155068000D01*
X200744000Y-155068000D01*
G37*
D12*
X201594000Y-161448000D03*
D11*
G36*
X200744000Y-161068000D02*
X202444000Y-161068000D01*
X202444000Y-161828000D01*
X200744000Y-161828000D01*
X200744000Y-161068000D01*
X200744000Y-161068000D01*
G37*
D12*
X201594000Y-159048000D03*
D11*
G36*
X200744000Y-158668000D02*
X202444000Y-158668000D01*
X202444000Y-159428000D01*
X200744000Y-159428000D01*
X200744000Y-158668000D01*
X200744000Y-158668000D01*
G37*
D12*
X201594000Y-160248000D03*
D11*
G36*
X200744000Y-159868000D02*
X202444000Y-159868000D01*
X202444000Y-160628000D01*
X200744000Y-160628000D01*
X200744000Y-159868000D01*
X200744000Y-159868000D01*
G37*
D12*
X201594000Y-157848000D03*
D11*
G36*
X200744000Y-157468000D02*
X202444000Y-157468000D01*
X202444000Y-158228000D01*
X200744000Y-158228000D01*
X200744000Y-157468000D01*
X200744000Y-157468000D01*
G37*
D12*
X201594000Y-168648000D03*
D11*
G36*
X200744000Y-168268000D02*
X202444000Y-168268000D01*
X202444000Y-169028000D01*
X200744000Y-169028000D01*
X200744000Y-168268000D01*
X200744000Y-168268000D01*
G37*
D12*
X201594000Y-166248000D03*
D11*
G36*
X200744000Y-165868000D02*
X202444000Y-165868000D01*
X202444000Y-166628000D01*
X200744000Y-166628000D01*
X200744000Y-165868000D01*
X200744000Y-165868000D01*
G37*
D12*
X201594000Y-167448000D03*
D11*
G36*
X200744000Y-167068000D02*
X202444000Y-167068000D01*
X202444000Y-167828000D01*
X200744000Y-167828000D01*
X200744000Y-167068000D01*
X200744000Y-167068000D01*
G37*
D12*
X201594000Y-163848000D03*
D11*
G36*
X200744000Y-163468000D02*
X202444000Y-163468000D01*
X202444000Y-164228000D01*
X200744000Y-164228000D01*
X200744000Y-163468000D01*
X200744000Y-163468000D01*
G37*
D12*
X201594000Y-165048000D03*
D11*
G36*
X200744000Y-164668000D02*
X202444000Y-164668000D01*
X202444000Y-165428000D01*
X200744000Y-165428000D01*
X200744000Y-164668000D01*
X200744000Y-164668000D01*
G37*
D12*
X201594000Y-162648000D03*
D11*
G36*
X200744000Y-162268000D02*
X202444000Y-162268000D01*
X202444000Y-163028000D01*
X200744000Y-163028000D01*
X200744000Y-162268000D01*
X200744000Y-162268000D01*
G37*
D12*
X187294000Y-163848000D03*
D11*
G36*
X186444000Y-163468000D02*
X188144000Y-163468000D01*
X188144000Y-164228000D01*
X186444000Y-164228000D01*
X186444000Y-163468000D01*
X186444000Y-163468000D01*
G37*
D12*
X187294000Y-172248000D03*
D11*
G36*
X186444000Y-171868000D02*
X188144000Y-171868000D01*
X188144000Y-172628000D01*
X186444000Y-172628000D01*
X186444000Y-171868000D01*
X186444000Y-171868000D01*
G37*
D12*
X187294000Y-167448000D03*
D11*
G36*
X186444000Y-167068000D02*
X188144000Y-167068000D01*
X188144000Y-167828000D01*
X186444000Y-167828000D01*
X186444000Y-167068000D01*
X186444000Y-167068000D01*
G37*
D12*
X187294000Y-161448000D03*
D11*
G36*
X186444000Y-161068000D02*
X188144000Y-161068000D01*
X188144000Y-161828000D01*
X186444000Y-161828000D01*
X186444000Y-161068000D01*
X186444000Y-161068000D01*
G37*
D12*
X187294000Y-168648000D03*
D11*
G36*
X186444000Y-168268000D02*
X188144000Y-168268000D01*
X188144000Y-169028000D01*
X186444000Y-169028000D01*
X186444000Y-168268000D01*
X186444000Y-168268000D01*
G37*
D12*
X187294000Y-162648000D03*
D11*
G36*
X186444000Y-162268000D02*
X188144000Y-162268000D01*
X188144000Y-163028000D01*
X186444000Y-163028000D01*
X186444000Y-162268000D01*
X186444000Y-162268000D01*
G37*
D12*
X187294000Y-159048000D03*
D11*
G36*
X186444000Y-158668000D02*
X188144000Y-158668000D01*
X188144000Y-159428000D01*
X186444000Y-159428000D01*
X186444000Y-158668000D01*
X186444000Y-158668000D01*
G37*
D12*
X187294000Y-169848000D03*
D11*
G36*
X186444000Y-169468000D02*
X188144000Y-169468000D01*
X188144000Y-170228000D01*
X186444000Y-170228000D01*
X186444000Y-169468000D01*
X186444000Y-169468000D01*
G37*
D12*
X187294000Y-165048000D03*
D11*
G36*
X186444000Y-164668000D02*
X188144000Y-164668000D01*
X188144000Y-165428000D01*
X186444000Y-165428000D01*
X186444000Y-164668000D01*
X186444000Y-164668000D01*
G37*
D12*
X187294000Y-160248000D03*
D11*
G36*
X186444000Y-159868000D02*
X188144000Y-159868000D01*
X188144000Y-160628000D01*
X186444000Y-160628000D01*
X186444000Y-159868000D01*
X186444000Y-159868000D01*
G37*
D12*
X187294000Y-157848000D03*
D11*
G36*
X186444000Y-157468000D02*
X188144000Y-157468000D01*
X188144000Y-158228000D01*
X186444000Y-158228000D01*
X186444000Y-157468000D01*
X186444000Y-157468000D01*
G37*
D12*
X187294000Y-171048000D03*
D11*
G36*
X186444000Y-170668000D02*
X188144000Y-170668000D01*
X188144000Y-171428000D01*
X186444000Y-171428000D01*
X186444000Y-170668000D01*
X186444000Y-170668000D01*
G37*
D12*
X187294000Y-166248000D03*
D11*
G36*
X186444000Y-165868000D02*
X188144000Y-165868000D01*
X188144000Y-166628000D01*
X186444000Y-166628000D01*
X186444000Y-165868000D01*
X186444000Y-165868000D01*
G37*
D12*
X187294000Y-155448000D03*
D11*
G36*
X186444000Y-155068000D02*
X188144000Y-155068000D01*
X188144000Y-155828000D01*
X186444000Y-155828000D01*
X186444000Y-155068000D01*
X186444000Y-155068000D01*
G37*
D12*
X187294000Y-156648000D03*
D11*
G36*
X186444000Y-156268000D02*
X188144000Y-156268000D01*
X188144000Y-157028000D01*
X186444000Y-157028000D01*
X186444000Y-156268000D01*
X186444000Y-156268000D01*
G37*
D10*
X199844000Y-154698000D03*
D11*
G36*
X199419000Y-155548000D02*
X199419000Y-153848000D01*
X200269000Y-153848000D01*
X200269000Y-155548000D01*
X199419000Y-155548000D01*
X199419000Y-155548000D01*
G37*
D12*
X201594000Y-172248000D03*
D11*
G36*
X200744000Y-171868000D02*
X202444000Y-171868000D01*
X202444000Y-172628000D01*
X200744000Y-172628000D01*
X200744000Y-171868000D01*
X200744000Y-171868000D01*
G37*
D10*
X159580000Y-154698000D03*
D11*
G36*
X159155000Y-155548000D02*
X159155000Y-153848000D01*
X160005000Y-153848000D01*
X160005000Y-155548000D01*
X159155000Y-155548000D01*
X159155000Y-155548000D01*
G37*
D10*
X160780000Y-154698000D03*
D11*
G36*
X160355000Y-155548000D02*
X160355000Y-153848000D01*
X161205000Y-153848000D01*
X161205000Y-155548000D01*
X160355000Y-155548000D01*
X160355000Y-155548000D01*
G37*
D10*
X161980000Y-154698000D03*
D11*
G36*
X161555000Y-155548000D02*
X161555000Y-153848000D01*
X162405000Y-153848000D01*
X162405000Y-155548000D01*
X161555000Y-155548000D01*
X161555000Y-155548000D01*
G37*
D10*
X163180000Y-154698000D03*
D11*
G36*
X162755000Y-155548000D02*
X162755000Y-153848000D01*
X163605000Y-153848000D01*
X163605000Y-155548000D01*
X162755000Y-155548000D01*
X162755000Y-155548000D01*
G37*
D10*
X164380000Y-154698000D03*
D11*
G36*
X163955000Y-155548000D02*
X163955000Y-153848000D01*
X164805000Y-153848000D01*
X164805000Y-155548000D01*
X163955000Y-155548000D01*
X163955000Y-155548000D01*
G37*
D10*
X165580000Y-154698000D03*
D11*
G36*
X165155000Y-155548000D02*
X165155000Y-153848000D01*
X166005000Y-153848000D01*
X166005000Y-155548000D01*
X165155000Y-155548000D01*
X165155000Y-155548000D01*
G37*
D10*
X166780000Y-154698000D03*
D11*
G36*
X166355000Y-155548000D02*
X166355000Y-153848000D01*
X167205000Y-153848000D01*
X167205000Y-155548000D01*
X166355000Y-155548000D01*
X166355000Y-155548000D01*
G37*
D10*
X167980000Y-154698000D03*
D11*
G36*
X167555000Y-155548000D02*
X167555000Y-153848000D01*
X168405000Y-153848000D01*
X168405000Y-155548000D01*
X167555000Y-155548000D01*
X167555000Y-155548000D01*
G37*
D10*
X169180000Y-154698000D03*
D11*
G36*
X168755000Y-155548000D02*
X168755000Y-153848000D01*
X169605000Y-153848000D01*
X169605000Y-155548000D01*
X168755000Y-155548000D01*
X168755000Y-155548000D01*
G37*
D12*
X172130000Y-171048000D03*
D11*
G36*
X171280000Y-170668000D02*
X172980000Y-170668000D01*
X172980000Y-171428000D01*
X171280000Y-171428000D01*
X171280000Y-170668000D01*
X171280000Y-170668000D01*
G37*
D12*
X172130000Y-169848000D03*
D11*
G36*
X171280000Y-169468000D02*
X172980000Y-169468000D01*
X172980000Y-170228000D01*
X171280000Y-170228000D01*
X171280000Y-169468000D01*
X171280000Y-169468000D01*
G37*
D12*
X172130000Y-156648000D03*
D11*
G36*
X171280000Y-156268000D02*
X172980000Y-156268000D01*
X172980000Y-157028000D01*
X171280000Y-157028000D01*
X171280000Y-156268000D01*
X171280000Y-156268000D01*
G37*
D12*
X172130000Y-155448000D03*
D11*
G36*
X171280000Y-155068000D02*
X172980000Y-155068000D01*
X172980000Y-155828000D01*
X171280000Y-155828000D01*
X171280000Y-155068000D01*
X171280000Y-155068000D01*
G37*
D12*
X172130000Y-161448000D03*
D11*
G36*
X171280000Y-161068000D02*
X172980000Y-161068000D01*
X172980000Y-161828000D01*
X171280000Y-161828000D01*
X171280000Y-161068000D01*
X171280000Y-161068000D01*
G37*
D12*
X172130000Y-159048000D03*
D11*
G36*
X171280000Y-158668000D02*
X172980000Y-158668000D01*
X172980000Y-159428000D01*
X171280000Y-159428000D01*
X171280000Y-158668000D01*
X171280000Y-158668000D01*
G37*
D12*
X172130000Y-160248000D03*
D11*
G36*
X171280000Y-159868000D02*
X172980000Y-159868000D01*
X172980000Y-160628000D01*
X171280000Y-160628000D01*
X171280000Y-159868000D01*
X171280000Y-159868000D01*
G37*
D12*
X172130000Y-157848000D03*
D11*
G36*
X171280000Y-157468000D02*
X172980000Y-157468000D01*
X172980000Y-158228000D01*
X171280000Y-158228000D01*
X171280000Y-157468000D01*
X171280000Y-157468000D01*
G37*
D12*
X172130000Y-168648000D03*
D11*
G36*
X171280000Y-168268000D02*
X172980000Y-168268000D01*
X172980000Y-169028000D01*
X171280000Y-169028000D01*
X171280000Y-168268000D01*
X171280000Y-168268000D01*
G37*
D12*
X172130000Y-166248000D03*
D11*
G36*
X171280000Y-165868000D02*
X172980000Y-165868000D01*
X172980000Y-166628000D01*
X171280000Y-166628000D01*
X171280000Y-165868000D01*
X171280000Y-165868000D01*
G37*
D12*
X172130000Y-167448000D03*
D11*
G36*
X171280000Y-167068000D02*
X172980000Y-167068000D01*
X172980000Y-167828000D01*
X171280000Y-167828000D01*
X171280000Y-167068000D01*
X171280000Y-167068000D01*
G37*
D12*
X172130000Y-163848000D03*
D11*
G36*
X171280000Y-163468000D02*
X172980000Y-163468000D01*
X172980000Y-164228000D01*
X171280000Y-164228000D01*
X171280000Y-163468000D01*
X171280000Y-163468000D01*
G37*
D12*
X172130000Y-165048000D03*
D11*
G36*
X171280000Y-164668000D02*
X172980000Y-164668000D01*
X172980000Y-165428000D01*
X171280000Y-165428000D01*
X171280000Y-164668000D01*
X171280000Y-164668000D01*
G37*
D12*
X172130000Y-162648000D03*
D11*
G36*
X171280000Y-162268000D02*
X172980000Y-162268000D01*
X172980000Y-163028000D01*
X171280000Y-163028000D01*
X171280000Y-162268000D01*
X171280000Y-162268000D01*
G37*
D12*
X157830000Y-163848000D03*
D11*
G36*
X156980000Y-163468000D02*
X158680000Y-163468000D01*
X158680000Y-164228000D01*
X156980000Y-164228000D01*
X156980000Y-163468000D01*
X156980000Y-163468000D01*
G37*
D12*
X157830000Y-172248000D03*
D11*
G36*
X156980000Y-171868000D02*
X158680000Y-171868000D01*
X158680000Y-172628000D01*
X156980000Y-172628000D01*
X156980000Y-171868000D01*
X156980000Y-171868000D01*
G37*
D12*
X157830000Y-167448000D03*
D11*
G36*
X156980000Y-167068000D02*
X158680000Y-167068000D01*
X158680000Y-167828000D01*
X156980000Y-167828000D01*
X156980000Y-167068000D01*
X156980000Y-167068000D01*
G37*
D12*
X157830000Y-161448000D03*
D11*
G36*
X156980000Y-161068000D02*
X158680000Y-161068000D01*
X158680000Y-161828000D01*
X156980000Y-161828000D01*
X156980000Y-161068000D01*
X156980000Y-161068000D01*
G37*
D12*
X157830000Y-168648000D03*
D11*
G36*
X156980000Y-168268000D02*
X158680000Y-168268000D01*
X158680000Y-169028000D01*
X156980000Y-169028000D01*
X156980000Y-168268000D01*
X156980000Y-168268000D01*
G37*
D12*
X157830000Y-162648000D03*
D11*
G36*
X156980000Y-162268000D02*
X158680000Y-162268000D01*
X158680000Y-163028000D01*
X156980000Y-163028000D01*
X156980000Y-162268000D01*
X156980000Y-162268000D01*
G37*
D12*
X157830000Y-159048000D03*
D11*
G36*
X156980000Y-158668000D02*
X158680000Y-158668000D01*
X158680000Y-159428000D01*
X156980000Y-159428000D01*
X156980000Y-158668000D01*
X156980000Y-158668000D01*
G37*
D12*
X157830000Y-169848000D03*
D11*
G36*
X156980000Y-169468000D02*
X158680000Y-169468000D01*
X158680000Y-170228000D01*
X156980000Y-170228000D01*
X156980000Y-169468000D01*
X156980000Y-169468000D01*
G37*
D12*
X157830000Y-165048000D03*
D11*
G36*
X156980000Y-164668000D02*
X158680000Y-164668000D01*
X158680000Y-165428000D01*
X156980000Y-165428000D01*
X156980000Y-164668000D01*
X156980000Y-164668000D01*
G37*
D12*
X157830000Y-160248000D03*
D11*
G36*
X156980000Y-159868000D02*
X158680000Y-159868000D01*
X158680000Y-160628000D01*
X156980000Y-160628000D01*
X156980000Y-159868000D01*
X156980000Y-159868000D01*
G37*
D12*
X157830000Y-157848000D03*
D11*
G36*
X156980000Y-157468000D02*
X158680000Y-157468000D01*
X158680000Y-158228000D01*
X156980000Y-158228000D01*
X156980000Y-157468000D01*
X156980000Y-157468000D01*
G37*
D12*
X157830000Y-171048000D03*
D11*
G36*
X156980000Y-170668000D02*
X158680000Y-170668000D01*
X158680000Y-171428000D01*
X156980000Y-171428000D01*
X156980000Y-170668000D01*
X156980000Y-170668000D01*
G37*
D12*
X157830000Y-166248000D03*
D11*
G36*
X156980000Y-165868000D02*
X158680000Y-165868000D01*
X158680000Y-166628000D01*
X156980000Y-166628000D01*
X156980000Y-165868000D01*
X156980000Y-165868000D01*
G37*
D12*
X157830000Y-155448000D03*
D11*
G36*
X156980000Y-155068000D02*
X158680000Y-155068000D01*
X158680000Y-155828000D01*
X156980000Y-155828000D01*
X156980000Y-155068000D01*
X156980000Y-155068000D01*
G37*
D12*
X157830000Y-156648000D03*
D11*
G36*
X156980000Y-156268000D02*
X158680000Y-156268000D01*
X158680000Y-157028000D01*
X156980000Y-157028000D01*
X156980000Y-156268000D01*
X156980000Y-156268000D01*
G37*
D10*
X170380000Y-154698000D03*
D11*
G36*
X169955000Y-155548000D02*
X169955000Y-153848000D01*
X170805000Y-153848000D01*
X170805000Y-155548000D01*
X169955000Y-155548000D01*
X169955000Y-155548000D01*
G37*
D12*
X172130000Y-172248000D03*
D11*
G36*
X171280000Y-171868000D02*
X172980000Y-171868000D01*
X172980000Y-172628000D01*
X171280000Y-172628000D01*
X171280000Y-171868000D01*
X171280000Y-171868000D01*
G37*
D10*
X218508000Y-104914000D03*
D11*
G36*
X218083000Y-105764000D02*
X218083000Y-104064000D01*
X218933000Y-104064000D01*
X218933000Y-105764000D01*
X218083000Y-105764000D01*
X218083000Y-105764000D01*
G37*
D10*
X219708000Y-104914000D03*
D11*
G36*
X219283000Y-105764000D02*
X219283000Y-104064000D01*
X220133000Y-104064000D01*
X220133000Y-105764000D01*
X219283000Y-105764000D01*
X219283000Y-105764000D01*
G37*
D10*
X220908000Y-104914000D03*
D11*
G36*
X220483000Y-105764000D02*
X220483000Y-104064000D01*
X221333000Y-104064000D01*
X221333000Y-105764000D01*
X220483000Y-105764000D01*
X220483000Y-105764000D01*
G37*
D10*
X222108000Y-104914000D03*
D11*
G36*
X221683000Y-105764000D02*
X221683000Y-104064000D01*
X222533000Y-104064000D01*
X222533000Y-105764000D01*
X221683000Y-105764000D01*
X221683000Y-105764000D01*
G37*
D10*
X223308000Y-104914000D03*
D11*
G36*
X222883000Y-105764000D02*
X222883000Y-104064000D01*
X223733000Y-104064000D01*
X223733000Y-105764000D01*
X222883000Y-105764000D01*
X222883000Y-105764000D01*
G37*
D10*
X224508000Y-104914000D03*
D11*
G36*
X224083000Y-105764000D02*
X224083000Y-104064000D01*
X224933000Y-104064000D01*
X224933000Y-105764000D01*
X224083000Y-105764000D01*
X224083000Y-105764000D01*
G37*
D10*
X225708000Y-104914000D03*
D11*
G36*
X225283000Y-105764000D02*
X225283000Y-104064000D01*
X226133000Y-104064000D01*
X226133000Y-105764000D01*
X225283000Y-105764000D01*
X225283000Y-105764000D01*
G37*
D10*
X226908000Y-104914000D03*
D11*
G36*
X226483000Y-105764000D02*
X226483000Y-104064000D01*
X227333000Y-104064000D01*
X227333000Y-105764000D01*
X226483000Y-105764000D01*
X226483000Y-105764000D01*
G37*
D10*
X228108000Y-104914000D03*
D11*
G36*
X227683000Y-105764000D02*
X227683000Y-104064000D01*
X228533000Y-104064000D01*
X228533000Y-105764000D01*
X227683000Y-105764000D01*
X227683000Y-105764000D01*
G37*
D12*
X231058000Y-121264000D03*
D11*
G36*
X230208000Y-120884000D02*
X231908000Y-120884000D01*
X231908000Y-121644000D01*
X230208000Y-121644000D01*
X230208000Y-120884000D01*
X230208000Y-120884000D01*
G37*
D12*
X231058000Y-120064000D03*
D11*
G36*
X230208000Y-119684000D02*
X231908000Y-119684000D01*
X231908000Y-120444000D01*
X230208000Y-120444000D01*
X230208000Y-119684000D01*
X230208000Y-119684000D01*
G37*
D12*
X231058000Y-106864000D03*
D11*
G36*
X230208000Y-106484000D02*
X231908000Y-106484000D01*
X231908000Y-107244000D01*
X230208000Y-107244000D01*
X230208000Y-106484000D01*
X230208000Y-106484000D01*
G37*
D12*
X231058000Y-105664000D03*
D11*
G36*
X230208000Y-105284000D02*
X231908000Y-105284000D01*
X231908000Y-106044000D01*
X230208000Y-106044000D01*
X230208000Y-105284000D01*
X230208000Y-105284000D01*
G37*
D12*
X231058000Y-111664000D03*
D11*
G36*
X230208000Y-111284000D02*
X231908000Y-111284000D01*
X231908000Y-112044000D01*
X230208000Y-112044000D01*
X230208000Y-111284000D01*
X230208000Y-111284000D01*
G37*
D12*
X231058000Y-109264000D03*
D11*
G36*
X230208000Y-108884000D02*
X231908000Y-108884000D01*
X231908000Y-109644000D01*
X230208000Y-109644000D01*
X230208000Y-108884000D01*
X230208000Y-108884000D01*
G37*
D12*
X231058000Y-110464000D03*
D11*
G36*
X230208000Y-110084000D02*
X231908000Y-110084000D01*
X231908000Y-110844000D01*
X230208000Y-110844000D01*
X230208000Y-110084000D01*
X230208000Y-110084000D01*
G37*
D12*
X231058000Y-108064000D03*
D11*
G36*
X230208000Y-107684000D02*
X231908000Y-107684000D01*
X231908000Y-108444000D01*
X230208000Y-108444000D01*
X230208000Y-107684000D01*
X230208000Y-107684000D01*
G37*
D12*
X231058000Y-118864000D03*
D11*
G36*
X230208000Y-118484000D02*
X231908000Y-118484000D01*
X231908000Y-119244000D01*
X230208000Y-119244000D01*
X230208000Y-118484000D01*
X230208000Y-118484000D01*
G37*
D12*
X231058000Y-116464000D03*
D11*
G36*
X230208000Y-116084000D02*
X231908000Y-116084000D01*
X231908000Y-116844000D01*
X230208000Y-116844000D01*
X230208000Y-116084000D01*
X230208000Y-116084000D01*
G37*
D12*
X231058000Y-117664000D03*
D11*
G36*
X230208000Y-117284000D02*
X231908000Y-117284000D01*
X231908000Y-118044000D01*
X230208000Y-118044000D01*
X230208000Y-117284000D01*
X230208000Y-117284000D01*
G37*
D12*
X231058000Y-114064000D03*
D11*
G36*
X230208000Y-113684000D02*
X231908000Y-113684000D01*
X231908000Y-114444000D01*
X230208000Y-114444000D01*
X230208000Y-113684000D01*
X230208000Y-113684000D01*
G37*
D12*
X231058000Y-115264000D03*
D11*
G36*
X230208000Y-114884000D02*
X231908000Y-114884000D01*
X231908000Y-115644000D01*
X230208000Y-115644000D01*
X230208000Y-114884000D01*
X230208000Y-114884000D01*
G37*
D12*
X231058000Y-112864000D03*
D11*
G36*
X230208000Y-112484000D02*
X231908000Y-112484000D01*
X231908000Y-113244000D01*
X230208000Y-113244000D01*
X230208000Y-112484000D01*
X230208000Y-112484000D01*
G37*
D12*
X216758000Y-114064000D03*
D11*
G36*
X215908000Y-113684000D02*
X217608000Y-113684000D01*
X217608000Y-114444000D01*
X215908000Y-114444000D01*
X215908000Y-113684000D01*
X215908000Y-113684000D01*
G37*
D12*
X216758000Y-122464000D03*
D11*
G36*
X215908000Y-122084000D02*
X217608000Y-122084000D01*
X217608000Y-122844000D01*
X215908000Y-122844000D01*
X215908000Y-122084000D01*
X215908000Y-122084000D01*
G37*
D12*
X216758000Y-117664000D03*
D11*
G36*
X215908000Y-117284000D02*
X217608000Y-117284000D01*
X217608000Y-118044000D01*
X215908000Y-118044000D01*
X215908000Y-117284000D01*
X215908000Y-117284000D01*
G37*
D12*
X216758000Y-111664000D03*
D11*
G36*
X215908000Y-111284000D02*
X217608000Y-111284000D01*
X217608000Y-112044000D01*
X215908000Y-112044000D01*
X215908000Y-111284000D01*
X215908000Y-111284000D01*
G37*
D12*
X216758000Y-118864000D03*
D11*
G36*
X215908000Y-118484000D02*
X217608000Y-118484000D01*
X217608000Y-119244000D01*
X215908000Y-119244000D01*
X215908000Y-118484000D01*
X215908000Y-118484000D01*
G37*
D12*
X216758000Y-112864000D03*
D11*
G36*
X215908000Y-112484000D02*
X217608000Y-112484000D01*
X217608000Y-113244000D01*
X215908000Y-113244000D01*
X215908000Y-112484000D01*
X215908000Y-112484000D01*
G37*
D12*
X216758000Y-109264000D03*
D11*
G36*
X215908000Y-108884000D02*
X217608000Y-108884000D01*
X217608000Y-109644000D01*
X215908000Y-109644000D01*
X215908000Y-108884000D01*
X215908000Y-108884000D01*
G37*
D12*
X216758000Y-120064000D03*
D11*
G36*
X215908000Y-119684000D02*
X217608000Y-119684000D01*
X217608000Y-120444000D01*
X215908000Y-120444000D01*
X215908000Y-119684000D01*
X215908000Y-119684000D01*
G37*
D12*
X216758000Y-115264000D03*
D11*
G36*
X215908000Y-114884000D02*
X217608000Y-114884000D01*
X217608000Y-115644000D01*
X215908000Y-115644000D01*
X215908000Y-114884000D01*
X215908000Y-114884000D01*
G37*
D12*
X216758000Y-110464000D03*
D11*
G36*
X215908000Y-110084000D02*
X217608000Y-110084000D01*
X217608000Y-110844000D01*
X215908000Y-110844000D01*
X215908000Y-110084000D01*
X215908000Y-110084000D01*
G37*
D12*
X216758000Y-108064000D03*
D11*
G36*
X215908000Y-107684000D02*
X217608000Y-107684000D01*
X217608000Y-108444000D01*
X215908000Y-108444000D01*
X215908000Y-107684000D01*
X215908000Y-107684000D01*
G37*
D12*
X216758000Y-121264000D03*
D11*
G36*
X215908000Y-120884000D02*
X217608000Y-120884000D01*
X217608000Y-121644000D01*
X215908000Y-121644000D01*
X215908000Y-120884000D01*
X215908000Y-120884000D01*
G37*
D12*
X216758000Y-116464000D03*
D11*
G36*
X215908000Y-116084000D02*
X217608000Y-116084000D01*
X217608000Y-116844000D01*
X215908000Y-116844000D01*
X215908000Y-116084000D01*
X215908000Y-116084000D01*
G37*
D12*
X216758000Y-105664000D03*
D11*
G36*
X215908000Y-105284000D02*
X217608000Y-105284000D01*
X217608000Y-106044000D01*
X215908000Y-106044000D01*
X215908000Y-105284000D01*
X215908000Y-105284000D01*
G37*
D12*
X216758000Y-106864000D03*
D11*
G36*
X215908000Y-106484000D02*
X217608000Y-106484000D01*
X217608000Y-107244000D01*
X215908000Y-107244000D01*
X215908000Y-106484000D01*
X215908000Y-106484000D01*
G37*
D10*
X229308000Y-104914000D03*
D11*
G36*
X228883000Y-105764000D02*
X228883000Y-104064000D01*
X229733000Y-104064000D01*
X229733000Y-105764000D01*
X228883000Y-105764000D01*
X228883000Y-105764000D01*
G37*
D12*
X231058000Y-122464000D03*
D11*
G36*
X230208000Y-122084000D02*
X231908000Y-122084000D01*
X231908000Y-122844000D01*
X230208000Y-122844000D01*
X230208000Y-122084000D01*
X230208000Y-122084000D01*
G37*
D10*
X189044000Y-104914000D03*
D11*
G36*
X188619000Y-105764000D02*
X188619000Y-104064000D01*
X189469000Y-104064000D01*
X189469000Y-105764000D01*
X188619000Y-105764000D01*
X188619000Y-105764000D01*
G37*
D10*
X190244000Y-104914000D03*
D11*
G36*
X189819000Y-105764000D02*
X189819000Y-104064000D01*
X190669000Y-104064000D01*
X190669000Y-105764000D01*
X189819000Y-105764000D01*
X189819000Y-105764000D01*
G37*
D10*
X191444000Y-104914000D03*
D11*
G36*
X191019000Y-105764000D02*
X191019000Y-104064000D01*
X191869000Y-104064000D01*
X191869000Y-105764000D01*
X191019000Y-105764000D01*
X191019000Y-105764000D01*
G37*
D10*
X192644000Y-104914000D03*
D11*
G36*
X192219000Y-105764000D02*
X192219000Y-104064000D01*
X193069000Y-104064000D01*
X193069000Y-105764000D01*
X192219000Y-105764000D01*
X192219000Y-105764000D01*
G37*
D10*
X193844000Y-104914000D03*
D11*
G36*
X193419000Y-105764000D02*
X193419000Y-104064000D01*
X194269000Y-104064000D01*
X194269000Y-105764000D01*
X193419000Y-105764000D01*
X193419000Y-105764000D01*
G37*
D10*
X195044000Y-104914000D03*
D11*
G36*
X194619000Y-105764000D02*
X194619000Y-104064000D01*
X195469000Y-104064000D01*
X195469000Y-105764000D01*
X194619000Y-105764000D01*
X194619000Y-105764000D01*
G37*
D10*
X196244000Y-104914000D03*
D11*
G36*
X195819000Y-105764000D02*
X195819000Y-104064000D01*
X196669000Y-104064000D01*
X196669000Y-105764000D01*
X195819000Y-105764000D01*
X195819000Y-105764000D01*
G37*
D10*
X197444000Y-104914000D03*
D11*
G36*
X197019000Y-105764000D02*
X197019000Y-104064000D01*
X197869000Y-104064000D01*
X197869000Y-105764000D01*
X197019000Y-105764000D01*
X197019000Y-105764000D01*
G37*
D10*
X198644000Y-104914000D03*
D11*
G36*
X198219000Y-105764000D02*
X198219000Y-104064000D01*
X199069000Y-104064000D01*
X199069000Y-105764000D01*
X198219000Y-105764000D01*
X198219000Y-105764000D01*
G37*
D12*
X201594000Y-121264000D03*
D11*
G36*
X200744000Y-120884000D02*
X202444000Y-120884000D01*
X202444000Y-121644000D01*
X200744000Y-121644000D01*
X200744000Y-120884000D01*
X200744000Y-120884000D01*
G37*
D12*
X201594000Y-120064000D03*
D11*
G36*
X200744000Y-119684000D02*
X202444000Y-119684000D01*
X202444000Y-120444000D01*
X200744000Y-120444000D01*
X200744000Y-119684000D01*
X200744000Y-119684000D01*
G37*
D12*
X201594000Y-106864000D03*
D11*
G36*
X200744000Y-106484000D02*
X202444000Y-106484000D01*
X202444000Y-107244000D01*
X200744000Y-107244000D01*
X200744000Y-106484000D01*
X200744000Y-106484000D01*
G37*
D12*
X201594000Y-105664000D03*
D11*
G36*
X200744000Y-105284000D02*
X202444000Y-105284000D01*
X202444000Y-106044000D01*
X200744000Y-106044000D01*
X200744000Y-105284000D01*
X200744000Y-105284000D01*
G37*
D12*
X201594000Y-111664000D03*
D11*
G36*
X200744000Y-111284000D02*
X202444000Y-111284000D01*
X202444000Y-112044000D01*
X200744000Y-112044000D01*
X200744000Y-111284000D01*
X200744000Y-111284000D01*
G37*
D12*
X201594000Y-109264000D03*
D11*
G36*
X200744000Y-108884000D02*
X202444000Y-108884000D01*
X202444000Y-109644000D01*
X200744000Y-109644000D01*
X200744000Y-108884000D01*
X200744000Y-108884000D01*
G37*
D12*
X201594000Y-110464000D03*
D11*
G36*
X200744000Y-110084000D02*
X202444000Y-110084000D01*
X202444000Y-110844000D01*
X200744000Y-110844000D01*
X200744000Y-110084000D01*
X200744000Y-110084000D01*
G37*
D12*
X201594000Y-108064000D03*
D11*
G36*
X200744000Y-107684000D02*
X202444000Y-107684000D01*
X202444000Y-108444000D01*
X200744000Y-108444000D01*
X200744000Y-107684000D01*
X200744000Y-107684000D01*
G37*
D12*
X201594000Y-118864000D03*
D11*
G36*
X200744000Y-118484000D02*
X202444000Y-118484000D01*
X202444000Y-119244000D01*
X200744000Y-119244000D01*
X200744000Y-118484000D01*
X200744000Y-118484000D01*
G37*
D12*
X201594000Y-116464000D03*
D11*
G36*
X200744000Y-116084000D02*
X202444000Y-116084000D01*
X202444000Y-116844000D01*
X200744000Y-116844000D01*
X200744000Y-116084000D01*
X200744000Y-116084000D01*
G37*
D12*
X201594000Y-117664000D03*
D11*
G36*
X200744000Y-117284000D02*
X202444000Y-117284000D01*
X202444000Y-118044000D01*
X200744000Y-118044000D01*
X200744000Y-117284000D01*
X200744000Y-117284000D01*
G37*
D12*
X201594000Y-114064000D03*
D11*
G36*
X200744000Y-113684000D02*
X202444000Y-113684000D01*
X202444000Y-114444000D01*
X200744000Y-114444000D01*
X200744000Y-113684000D01*
X200744000Y-113684000D01*
G37*
D12*
X201594000Y-115264000D03*
D11*
G36*
X200744000Y-114884000D02*
X202444000Y-114884000D01*
X202444000Y-115644000D01*
X200744000Y-115644000D01*
X200744000Y-114884000D01*
X200744000Y-114884000D01*
G37*
D12*
X201594000Y-112864000D03*
D11*
G36*
X200744000Y-112484000D02*
X202444000Y-112484000D01*
X202444000Y-113244000D01*
X200744000Y-113244000D01*
X200744000Y-112484000D01*
X200744000Y-112484000D01*
G37*
D12*
X187294000Y-114064000D03*
D11*
G36*
X186444000Y-113684000D02*
X188144000Y-113684000D01*
X188144000Y-114444000D01*
X186444000Y-114444000D01*
X186444000Y-113684000D01*
X186444000Y-113684000D01*
G37*
D12*
X187294000Y-122464000D03*
D11*
G36*
X186444000Y-122084000D02*
X188144000Y-122084000D01*
X188144000Y-122844000D01*
X186444000Y-122844000D01*
X186444000Y-122084000D01*
X186444000Y-122084000D01*
G37*
D12*
X187294000Y-117664000D03*
D11*
G36*
X186444000Y-117284000D02*
X188144000Y-117284000D01*
X188144000Y-118044000D01*
X186444000Y-118044000D01*
X186444000Y-117284000D01*
X186444000Y-117284000D01*
G37*
D12*
X187294000Y-111664000D03*
D11*
G36*
X186444000Y-111284000D02*
X188144000Y-111284000D01*
X188144000Y-112044000D01*
X186444000Y-112044000D01*
X186444000Y-111284000D01*
X186444000Y-111284000D01*
G37*
D12*
X187294000Y-118864000D03*
D11*
G36*
X186444000Y-118484000D02*
X188144000Y-118484000D01*
X188144000Y-119244000D01*
X186444000Y-119244000D01*
X186444000Y-118484000D01*
X186444000Y-118484000D01*
G37*
D12*
X187294000Y-112864000D03*
D11*
G36*
X186444000Y-112484000D02*
X188144000Y-112484000D01*
X188144000Y-113244000D01*
X186444000Y-113244000D01*
X186444000Y-112484000D01*
X186444000Y-112484000D01*
G37*
D12*
X187294000Y-109264000D03*
D11*
G36*
X186444000Y-108884000D02*
X188144000Y-108884000D01*
X188144000Y-109644000D01*
X186444000Y-109644000D01*
X186444000Y-108884000D01*
X186444000Y-108884000D01*
G37*
D12*
X187294000Y-120064000D03*
D11*
G36*
X186444000Y-119684000D02*
X188144000Y-119684000D01*
X188144000Y-120444000D01*
X186444000Y-120444000D01*
X186444000Y-119684000D01*
X186444000Y-119684000D01*
G37*
D12*
X187294000Y-115264000D03*
D11*
G36*
X186444000Y-114884000D02*
X188144000Y-114884000D01*
X188144000Y-115644000D01*
X186444000Y-115644000D01*
X186444000Y-114884000D01*
X186444000Y-114884000D01*
G37*
D12*
X187294000Y-110464000D03*
D11*
G36*
X186444000Y-110084000D02*
X188144000Y-110084000D01*
X188144000Y-110844000D01*
X186444000Y-110844000D01*
X186444000Y-110084000D01*
X186444000Y-110084000D01*
G37*
D12*
X187294000Y-108064000D03*
D11*
G36*
X186444000Y-107684000D02*
X188144000Y-107684000D01*
X188144000Y-108444000D01*
X186444000Y-108444000D01*
X186444000Y-107684000D01*
X186444000Y-107684000D01*
G37*
D12*
X187294000Y-121264000D03*
D11*
G36*
X186444000Y-120884000D02*
X188144000Y-120884000D01*
X188144000Y-121644000D01*
X186444000Y-121644000D01*
X186444000Y-120884000D01*
X186444000Y-120884000D01*
G37*
D12*
X187294000Y-116464000D03*
D11*
G36*
X186444000Y-116084000D02*
X188144000Y-116084000D01*
X188144000Y-116844000D01*
X186444000Y-116844000D01*
X186444000Y-116084000D01*
X186444000Y-116084000D01*
G37*
D12*
X187294000Y-105664000D03*
D11*
G36*
X186444000Y-105284000D02*
X188144000Y-105284000D01*
X188144000Y-106044000D01*
X186444000Y-106044000D01*
X186444000Y-105284000D01*
X186444000Y-105284000D01*
G37*
D12*
X187294000Y-106864000D03*
D11*
G36*
X186444000Y-106484000D02*
X188144000Y-106484000D01*
X188144000Y-107244000D01*
X186444000Y-107244000D01*
X186444000Y-106484000D01*
X186444000Y-106484000D01*
G37*
D10*
X199844000Y-104914000D03*
D11*
G36*
X199419000Y-105764000D02*
X199419000Y-104064000D01*
X200269000Y-104064000D01*
X200269000Y-105764000D01*
X199419000Y-105764000D01*
X199419000Y-105764000D01*
G37*
D12*
X201594000Y-122464000D03*
D11*
G36*
X200744000Y-122084000D02*
X202444000Y-122084000D01*
X202444000Y-122844000D01*
X200744000Y-122844000D01*
X200744000Y-122084000D01*
X200744000Y-122084000D01*
G37*
D12*
X172130000Y-122464000D03*
D11*
G36*
X171280000Y-122084000D02*
X172980000Y-122084000D01*
X172980000Y-122844000D01*
X171280000Y-122844000D01*
X171280000Y-122084000D01*
X171280000Y-122084000D01*
G37*
D10*
X170380000Y-104914000D03*
D11*
G36*
X169955000Y-105764000D02*
X169955000Y-104064000D01*
X170805000Y-104064000D01*
X170805000Y-105764000D01*
X169955000Y-105764000D01*
X169955000Y-105764000D01*
G37*
D12*
X157830000Y-106864000D03*
D11*
G36*
X156980000Y-106484000D02*
X158680000Y-106484000D01*
X158680000Y-107244000D01*
X156980000Y-107244000D01*
X156980000Y-106484000D01*
X156980000Y-106484000D01*
G37*
D12*
X157830000Y-105664000D03*
D11*
G36*
X156980000Y-105284000D02*
X158680000Y-105284000D01*
X158680000Y-106044000D01*
X156980000Y-106044000D01*
X156980000Y-105284000D01*
X156980000Y-105284000D01*
G37*
D12*
X157830000Y-116464000D03*
D11*
G36*
X156980000Y-116084000D02*
X158680000Y-116084000D01*
X158680000Y-116844000D01*
X156980000Y-116844000D01*
X156980000Y-116084000D01*
X156980000Y-116084000D01*
G37*
D12*
X157830000Y-121264000D03*
D11*
G36*
X156980000Y-120884000D02*
X158680000Y-120884000D01*
X158680000Y-121644000D01*
X156980000Y-121644000D01*
X156980000Y-120884000D01*
X156980000Y-120884000D01*
G37*
D12*
X157830000Y-108064000D03*
D11*
G36*
X156980000Y-107684000D02*
X158680000Y-107684000D01*
X158680000Y-108444000D01*
X156980000Y-108444000D01*
X156980000Y-107684000D01*
X156980000Y-107684000D01*
G37*
D12*
X157830000Y-110464000D03*
D11*
G36*
X156980000Y-110084000D02*
X158680000Y-110084000D01*
X158680000Y-110844000D01*
X156980000Y-110844000D01*
X156980000Y-110084000D01*
X156980000Y-110084000D01*
G37*
D12*
X157830000Y-115264000D03*
D11*
G36*
X156980000Y-114884000D02*
X158680000Y-114884000D01*
X158680000Y-115644000D01*
X156980000Y-115644000D01*
X156980000Y-114884000D01*
X156980000Y-114884000D01*
G37*
D12*
X157830000Y-120064000D03*
D11*
G36*
X156980000Y-119684000D02*
X158680000Y-119684000D01*
X158680000Y-120444000D01*
X156980000Y-120444000D01*
X156980000Y-119684000D01*
X156980000Y-119684000D01*
G37*
D12*
X157830000Y-109264000D03*
D11*
G36*
X156980000Y-108884000D02*
X158680000Y-108884000D01*
X158680000Y-109644000D01*
X156980000Y-109644000D01*
X156980000Y-108884000D01*
X156980000Y-108884000D01*
G37*
D12*
X157830000Y-112864000D03*
D11*
G36*
X156980000Y-112484000D02*
X158680000Y-112484000D01*
X158680000Y-113244000D01*
X156980000Y-113244000D01*
X156980000Y-112484000D01*
X156980000Y-112484000D01*
G37*
D12*
X157830000Y-118864000D03*
D11*
G36*
X156980000Y-118484000D02*
X158680000Y-118484000D01*
X158680000Y-119244000D01*
X156980000Y-119244000D01*
X156980000Y-118484000D01*
X156980000Y-118484000D01*
G37*
D12*
X157830000Y-111664000D03*
D11*
G36*
X156980000Y-111284000D02*
X158680000Y-111284000D01*
X158680000Y-112044000D01*
X156980000Y-112044000D01*
X156980000Y-111284000D01*
X156980000Y-111284000D01*
G37*
D12*
X157830000Y-117664000D03*
D11*
G36*
X156980000Y-117284000D02*
X158680000Y-117284000D01*
X158680000Y-118044000D01*
X156980000Y-118044000D01*
X156980000Y-117284000D01*
X156980000Y-117284000D01*
G37*
D12*
X157830000Y-122464000D03*
D11*
G36*
X156980000Y-122084000D02*
X158680000Y-122084000D01*
X158680000Y-122844000D01*
X156980000Y-122844000D01*
X156980000Y-122084000D01*
X156980000Y-122084000D01*
G37*
D12*
X157830000Y-114064000D03*
D11*
G36*
X156980000Y-113684000D02*
X158680000Y-113684000D01*
X158680000Y-114444000D01*
X156980000Y-114444000D01*
X156980000Y-113684000D01*
X156980000Y-113684000D01*
G37*
D12*
X172130000Y-112864000D03*
D11*
G36*
X171280000Y-112484000D02*
X172980000Y-112484000D01*
X172980000Y-113244000D01*
X171280000Y-113244000D01*
X171280000Y-112484000D01*
X171280000Y-112484000D01*
G37*
D12*
X172130000Y-115264000D03*
D11*
G36*
X171280000Y-114884000D02*
X172980000Y-114884000D01*
X172980000Y-115644000D01*
X171280000Y-115644000D01*
X171280000Y-114884000D01*
X171280000Y-114884000D01*
G37*
D12*
X172130000Y-114064000D03*
D11*
G36*
X171280000Y-113684000D02*
X172980000Y-113684000D01*
X172980000Y-114444000D01*
X171280000Y-114444000D01*
X171280000Y-113684000D01*
X171280000Y-113684000D01*
G37*
D12*
X172130000Y-117664000D03*
D11*
G36*
X171280000Y-117284000D02*
X172980000Y-117284000D01*
X172980000Y-118044000D01*
X171280000Y-118044000D01*
X171280000Y-117284000D01*
X171280000Y-117284000D01*
G37*
D12*
X172130000Y-116464000D03*
D11*
G36*
X171280000Y-116084000D02*
X172980000Y-116084000D01*
X172980000Y-116844000D01*
X171280000Y-116844000D01*
X171280000Y-116084000D01*
X171280000Y-116084000D01*
G37*
D12*
X172130000Y-118864000D03*
D11*
G36*
X171280000Y-118484000D02*
X172980000Y-118484000D01*
X172980000Y-119244000D01*
X171280000Y-119244000D01*
X171280000Y-118484000D01*
X171280000Y-118484000D01*
G37*
D12*
X172130000Y-108064000D03*
D11*
G36*
X171280000Y-107684000D02*
X172980000Y-107684000D01*
X172980000Y-108444000D01*
X171280000Y-108444000D01*
X171280000Y-107684000D01*
X171280000Y-107684000D01*
G37*
D12*
X172130000Y-110464000D03*
D11*
G36*
X171280000Y-110084000D02*
X172980000Y-110084000D01*
X172980000Y-110844000D01*
X171280000Y-110844000D01*
X171280000Y-110084000D01*
X171280000Y-110084000D01*
G37*
D12*
X172130000Y-109264000D03*
D11*
G36*
X171280000Y-108884000D02*
X172980000Y-108884000D01*
X172980000Y-109644000D01*
X171280000Y-109644000D01*
X171280000Y-108884000D01*
X171280000Y-108884000D01*
G37*
D12*
X172130000Y-111664000D03*
D11*
G36*
X171280000Y-111284000D02*
X172980000Y-111284000D01*
X172980000Y-112044000D01*
X171280000Y-112044000D01*
X171280000Y-111284000D01*
X171280000Y-111284000D01*
G37*
D12*
X172130000Y-105664000D03*
D11*
G36*
X171280000Y-105284000D02*
X172980000Y-105284000D01*
X172980000Y-106044000D01*
X171280000Y-106044000D01*
X171280000Y-105284000D01*
X171280000Y-105284000D01*
G37*
D12*
X172130000Y-106864000D03*
D11*
G36*
X171280000Y-106484000D02*
X172980000Y-106484000D01*
X172980000Y-107244000D01*
X171280000Y-107244000D01*
X171280000Y-106484000D01*
X171280000Y-106484000D01*
G37*
D12*
X172130000Y-120064000D03*
D11*
G36*
X171280000Y-119684000D02*
X172980000Y-119684000D01*
X172980000Y-120444000D01*
X171280000Y-120444000D01*
X171280000Y-119684000D01*
X171280000Y-119684000D01*
G37*
D12*
X172130000Y-121264000D03*
D11*
G36*
X171280000Y-120884000D02*
X172980000Y-120884000D01*
X172980000Y-121644000D01*
X171280000Y-121644000D01*
X171280000Y-120884000D01*
X171280000Y-120884000D01*
G37*
D10*
X169180000Y-104914000D03*
D11*
G36*
X168755000Y-105764000D02*
X168755000Y-104064000D01*
X169605000Y-104064000D01*
X169605000Y-105764000D01*
X168755000Y-105764000D01*
X168755000Y-105764000D01*
G37*
D10*
X167980000Y-104914000D03*
D11*
G36*
X167555000Y-105764000D02*
X167555000Y-104064000D01*
X168405000Y-104064000D01*
X168405000Y-105764000D01*
X167555000Y-105764000D01*
X167555000Y-105764000D01*
G37*
D10*
X166780000Y-104914000D03*
D11*
G36*
X166355000Y-105764000D02*
X166355000Y-104064000D01*
X167205000Y-104064000D01*
X167205000Y-105764000D01*
X166355000Y-105764000D01*
X166355000Y-105764000D01*
G37*
D10*
X165580000Y-104914000D03*
D11*
G36*
X165155000Y-105764000D02*
X165155000Y-104064000D01*
X166005000Y-104064000D01*
X166005000Y-105764000D01*
X165155000Y-105764000D01*
X165155000Y-105764000D01*
G37*
D10*
X164380000Y-104914000D03*
D11*
G36*
X163955000Y-105764000D02*
X163955000Y-104064000D01*
X164805000Y-104064000D01*
X164805000Y-105764000D01*
X163955000Y-105764000D01*
X163955000Y-105764000D01*
G37*
D10*
X163180000Y-104914000D03*
D11*
G36*
X162755000Y-105764000D02*
X162755000Y-104064000D01*
X163605000Y-104064000D01*
X163605000Y-105764000D01*
X162755000Y-105764000D01*
X162755000Y-105764000D01*
G37*
D10*
X161980000Y-104914000D03*
D11*
G36*
X161555000Y-105764000D02*
X161555000Y-104064000D01*
X162405000Y-104064000D01*
X162405000Y-105764000D01*
X161555000Y-105764000D01*
X161555000Y-105764000D01*
G37*
D10*
X160780000Y-104914000D03*
D11*
G36*
X160355000Y-105764000D02*
X160355000Y-104064000D01*
X161205000Y-104064000D01*
X161205000Y-105764000D01*
X160355000Y-105764000D01*
X160355000Y-105764000D01*
G37*
D10*
X159580000Y-104914000D03*
D11*
G36*
X159155000Y-105764000D02*
X159155000Y-104064000D01*
X160005000Y-104064000D01*
X160005000Y-105764000D01*
X159155000Y-105764000D01*
X159155000Y-105764000D01*
G37*
M02*
