G04 #@! TF.GenerationSoftware,KiCad,Pcbnew,5.0.0-rc2-dev-unknown-ce1bd4c~62~ubuntu16.04.1*
G04 #@! TF.CreationDate,2018-03-08T22:04:42+01:00*
G04 #@! TF.ProjectId,BM23_multi,424D32335F6D756C74692E6B69636164,rev?*
G04 #@! TF.SameCoordinates,Original*
G04 #@! TF.FileFunction,Paste,Top*
G04 #@! TF.FilePolarity,Positive*
%FSLAX46Y46*%
G04 Gerber Fmt 4.6, Leading zero omitted, Abs format (unit mm)*
G04 Created by KiCad (PCBNEW 5.0.0-rc2-dev-unknown-ce1bd4c~62~ubuntu16.04.1) date Thu Mar  8 22:04:42 2018*
%MOMM*%
%LPD*%
G01*
G04 APERTURE LIST*
%ADD10R,1.501140X2.999740*%
%ADD11R,1.600000X2.000000*%
%ADD12R,1.300000X1.500000*%
%ADD13R,3.500000X1.500000*%
%ADD14R,0.400000X1.350000*%
%ADD15R,1.597660X1.800860*%
G04 APERTURE END LIST*
D10*
X222250000Y-164625020D03*
X222250000Y-168622980D03*
D11*
X218998800Y-168547800D03*
X218998800Y-164547800D03*
X217449400Y-138347200D03*
X217449400Y-134347200D03*
X217728800Y-151072600D03*
X217728800Y-147072600D03*
X226060000Y-151098000D03*
X226060000Y-147098000D03*
D12*
X223951800Y-158855400D03*
X223951800Y-156155400D03*
D11*
X221742000Y-147098000D03*
X221742000Y-151098000D03*
D10*
X225806000Y-168622980D03*
X225806000Y-164625020D03*
D11*
X229108000Y-168751000D03*
X229108000Y-164751000D03*
X220878400Y-138474200D03*
X220878400Y-134474200D03*
D13*
X225104000Y-125730000D03*
X232604000Y-127730000D03*
X225104000Y-132730000D03*
D14*
X216886900Y-129324540D03*
X217536900Y-129324540D03*
X218186900Y-129324540D03*
X218836900Y-129324540D03*
X219486900Y-129324540D03*
D12*
X220268800Y-158906200D03*
X220268800Y-156206200D03*
D11*
X229743000Y-147231600D03*
X229743000Y-151231600D03*
D15*
X229915720Y-142748000D03*
X227076000Y-142748000D03*
D12*
X227380800Y-156104600D03*
X227380800Y-158804600D03*
D15*
X220472000Y-142748000D03*
X217632280Y-142748000D03*
D10*
X192786000Y-164625020D03*
X192786000Y-168622980D03*
D11*
X189534800Y-168547800D03*
X189534800Y-164547800D03*
X187985400Y-138347200D03*
X187985400Y-134347200D03*
X188264800Y-151072600D03*
X188264800Y-147072600D03*
X196596000Y-151098000D03*
X196596000Y-147098000D03*
D12*
X194487800Y-158855400D03*
X194487800Y-156155400D03*
D11*
X192278000Y-147098000D03*
X192278000Y-151098000D03*
D10*
X196342000Y-168622980D03*
X196342000Y-164625020D03*
D11*
X199644000Y-168751000D03*
X199644000Y-164751000D03*
X191414400Y-138474200D03*
X191414400Y-134474200D03*
D13*
X195640000Y-125730000D03*
X203140000Y-127730000D03*
X195640000Y-132730000D03*
D14*
X187422900Y-129324540D03*
X188072900Y-129324540D03*
X188722900Y-129324540D03*
X189372900Y-129324540D03*
X190022900Y-129324540D03*
D12*
X190804800Y-158906200D03*
X190804800Y-156206200D03*
D11*
X200279000Y-147231600D03*
X200279000Y-151231600D03*
D15*
X200451720Y-142748000D03*
X197612000Y-142748000D03*
D12*
X197916800Y-156104600D03*
X197916800Y-158804600D03*
D15*
X191008000Y-142748000D03*
X188168280Y-142748000D03*
D10*
X163322000Y-164625020D03*
X163322000Y-168622980D03*
D11*
X160070800Y-168547800D03*
X160070800Y-164547800D03*
X158521400Y-138347200D03*
X158521400Y-134347200D03*
X158800800Y-151072600D03*
X158800800Y-147072600D03*
X167132000Y-151098000D03*
X167132000Y-147098000D03*
D12*
X165023800Y-158855400D03*
X165023800Y-156155400D03*
D11*
X162814000Y-147098000D03*
X162814000Y-151098000D03*
D10*
X166878000Y-168622980D03*
X166878000Y-164625020D03*
D11*
X170180000Y-168751000D03*
X170180000Y-164751000D03*
X161950400Y-138474200D03*
X161950400Y-134474200D03*
D13*
X166176000Y-125730000D03*
X173676000Y-127730000D03*
X166176000Y-132730000D03*
D14*
X157958900Y-129324540D03*
X158608900Y-129324540D03*
X159258900Y-129324540D03*
X159908900Y-129324540D03*
X160558900Y-129324540D03*
D12*
X161340800Y-158906200D03*
X161340800Y-156206200D03*
D11*
X170815000Y-147231600D03*
X170815000Y-151231600D03*
D15*
X170987720Y-142748000D03*
X168148000Y-142748000D03*
D12*
X168452800Y-156104600D03*
X168452800Y-158804600D03*
D15*
X161544000Y-142748000D03*
X158704280Y-142748000D03*
D10*
X222250000Y-114841020D03*
X222250000Y-118838980D03*
D11*
X218998800Y-118763800D03*
X218998800Y-114763800D03*
X217449400Y-88563200D03*
X217449400Y-84563200D03*
X217728800Y-101288600D03*
X217728800Y-97288600D03*
X226060000Y-101314000D03*
X226060000Y-97314000D03*
D12*
X223951800Y-109071400D03*
X223951800Y-106371400D03*
D11*
X221742000Y-97314000D03*
X221742000Y-101314000D03*
D10*
X225806000Y-118838980D03*
X225806000Y-114841020D03*
D11*
X229108000Y-118967000D03*
X229108000Y-114967000D03*
X220878400Y-88690200D03*
X220878400Y-84690200D03*
D13*
X225104000Y-75946000D03*
X232604000Y-77946000D03*
X225104000Y-82946000D03*
D14*
X216886900Y-79540540D03*
X217536900Y-79540540D03*
X218186900Y-79540540D03*
X218836900Y-79540540D03*
X219486900Y-79540540D03*
D12*
X220268800Y-109122200D03*
X220268800Y-106422200D03*
D11*
X229743000Y-97447600D03*
X229743000Y-101447600D03*
D15*
X229915720Y-92964000D03*
X227076000Y-92964000D03*
D12*
X227380800Y-106320600D03*
X227380800Y-109020600D03*
D15*
X220472000Y-92964000D03*
X217632280Y-92964000D03*
D10*
X192786000Y-114841020D03*
X192786000Y-118838980D03*
D11*
X189534800Y-118763800D03*
X189534800Y-114763800D03*
X187985400Y-88563200D03*
X187985400Y-84563200D03*
X188264800Y-101288600D03*
X188264800Y-97288600D03*
X196596000Y-101314000D03*
X196596000Y-97314000D03*
D12*
X194487800Y-109071400D03*
X194487800Y-106371400D03*
D11*
X192278000Y-97314000D03*
X192278000Y-101314000D03*
D10*
X196342000Y-118838980D03*
X196342000Y-114841020D03*
D11*
X199644000Y-118967000D03*
X199644000Y-114967000D03*
X191414400Y-88690200D03*
X191414400Y-84690200D03*
D13*
X195640000Y-75946000D03*
X203140000Y-77946000D03*
X195640000Y-82946000D03*
D14*
X187422900Y-79540540D03*
X188072900Y-79540540D03*
X188722900Y-79540540D03*
X189372900Y-79540540D03*
X190022900Y-79540540D03*
D12*
X190804800Y-109122200D03*
X190804800Y-106422200D03*
D11*
X200279000Y-97447600D03*
X200279000Y-101447600D03*
D15*
X200451720Y-92964000D03*
X197612000Y-92964000D03*
D12*
X197916800Y-106320600D03*
X197916800Y-109020600D03*
D15*
X191008000Y-92964000D03*
X188168280Y-92964000D03*
D11*
X160070800Y-114763800D03*
X160070800Y-118763800D03*
D10*
X163322000Y-118838980D03*
X163322000Y-114841020D03*
D11*
X158521400Y-84563200D03*
X158521400Y-88563200D03*
X158800800Y-97288600D03*
X158800800Y-101288600D03*
X162814000Y-101314000D03*
X162814000Y-97314000D03*
X170180000Y-114967000D03*
X170180000Y-118967000D03*
D10*
X166878000Y-114841020D03*
X166878000Y-118838980D03*
D11*
X161950400Y-84690200D03*
X161950400Y-88690200D03*
X167132000Y-97314000D03*
X167132000Y-101314000D03*
X170815000Y-101447600D03*
X170815000Y-97447600D03*
D15*
X168148000Y-92964000D03*
X170987720Y-92964000D03*
X158704280Y-92964000D03*
X161544000Y-92964000D03*
D12*
X161340800Y-106422200D03*
X161340800Y-109122200D03*
X165023800Y-106371400D03*
X165023800Y-109071400D03*
X168452800Y-109020600D03*
X168452800Y-106320600D03*
D14*
X160558900Y-79540540D03*
X159908900Y-79540540D03*
X159258900Y-79540540D03*
X158608900Y-79540540D03*
X157958900Y-79540540D03*
D13*
X166176000Y-82946000D03*
X173676000Y-77946000D03*
X166176000Y-75946000D03*
M02*
