G04 #@! TF.GenerationSoftware,KiCad,Pcbnew,5.0.0-rc2-dev-unknown-ce1bd4c~62~ubuntu16.04.1*
G04 #@! TF.CreationDate,2018-03-08T22:04:42+01:00*
G04 #@! TF.ProjectId,BM23_multi,424D32335F6D756C74692E6B69636164,rev?*
G04 #@! TF.SameCoordinates,Original*
G04 #@! TF.FileFunction,Soldermask,Bot*
G04 #@! TF.FilePolarity,Negative*
%FSLAX46Y46*%
G04 Gerber Fmt 4.6, Leading zero omitted, Abs format (unit mm)*
G04 Created by KiCad (PCBNEW 5.0.0-rc2-dev-unknown-ce1bd4c~62~ubuntu16.04.1) date Thu Mar  8 22:04:42 2018*
%MOMM*%
%LPD*%
G01*
G04 APERTURE LIST*
%ADD10O,2.432000X2.127200*%
%ADD11R,2.432000X2.127200*%
%ADD12C,1.600000*%
%ADD13O,2.432000X2.432000*%
%ADD14R,2.432000X2.432000*%
%ADD15C,1.250000*%
%ADD16C,0.050000*%
%ADD17C,1.160000*%
%ADD18O,1.400000X1.950000*%
%ADD19O,1.650000X1.350000*%
G04 APERTURE END LIST*
D10*
X236728000Y-169164000D03*
X236728000Y-166624000D03*
X236728000Y-164084000D03*
X236728000Y-161544000D03*
X236728000Y-159004000D03*
X236728000Y-156464000D03*
X236728000Y-153924000D03*
X236728000Y-151384000D03*
X236728000Y-148844000D03*
X236728000Y-146304000D03*
X236728000Y-143764000D03*
X236728000Y-141224000D03*
X236728000Y-138684000D03*
X236728000Y-136144000D03*
X236728000Y-133604000D03*
X236728000Y-131064000D03*
X236728000Y-128524000D03*
D11*
X236728000Y-125984000D03*
D10*
X211328000Y-125984000D03*
X211328000Y-128524000D03*
X211328000Y-131064000D03*
X211328000Y-133604000D03*
X211328000Y-136144000D03*
X211328000Y-138684000D03*
X211328000Y-141224000D03*
X211328000Y-143764000D03*
X211328000Y-146304000D03*
X211328000Y-148844000D03*
X211328000Y-151384000D03*
X211328000Y-153924000D03*
X211328000Y-156464000D03*
X211328000Y-159004000D03*
X211328000Y-161544000D03*
X211328000Y-164084000D03*
X211328000Y-166624000D03*
X211328000Y-169164000D03*
D11*
X211328000Y-171704000D03*
D12*
X228854000Y-125730000D03*
X228854000Y-131730000D03*
D13*
X228854000Y-138430000D03*
D14*
X226314000Y-138430000D03*
D15*
X218508000Y-154698000D03*
D16*
G36*
X217883000Y-155748000D02*
X217883000Y-153648000D01*
X219133000Y-153648000D01*
X219133000Y-155748000D01*
X217883000Y-155748000D01*
X217883000Y-155748000D01*
G37*
D15*
X219708000Y-154698000D03*
D16*
G36*
X219083000Y-155748000D02*
X219083000Y-153648000D01*
X220333000Y-153648000D01*
X220333000Y-155748000D01*
X219083000Y-155748000D01*
X219083000Y-155748000D01*
G37*
D15*
X220908000Y-154698000D03*
D16*
G36*
X220283000Y-155748000D02*
X220283000Y-153648000D01*
X221533000Y-153648000D01*
X221533000Y-155748000D01*
X220283000Y-155748000D01*
X220283000Y-155748000D01*
G37*
D15*
X222108000Y-154698000D03*
D16*
G36*
X221483000Y-155748000D02*
X221483000Y-153648000D01*
X222733000Y-153648000D01*
X222733000Y-155748000D01*
X221483000Y-155748000D01*
X221483000Y-155748000D01*
G37*
D15*
X223308000Y-154698000D03*
D16*
G36*
X222683000Y-155748000D02*
X222683000Y-153648000D01*
X223933000Y-153648000D01*
X223933000Y-155748000D01*
X222683000Y-155748000D01*
X222683000Y-155748000D01*
G37*
D15*
X224508000Y-154698000D03*
D16*
G36*
X223883000Y-155748000D02*
X223883000Y-153648000D01*
X225133000Y-153648000D01*
X225133000Y-155748000D01*
X223883000Y-155748000D01*
X223883000Y-155748000D01*
G37*
D15*
X225708000Y-154698000D03*
D16*
G36*
X225083000Y-155748000D02*
X225083000Y-153648000D01*
X226333000Y-153648000D01*
X226333000Y-155748000D01*
X225083000Y-155748000D01*
X225083000Y-155748000D01*
G37*
D15*
X226908000Y-154698000D03*
D16*
G36*
X226283000Y-155748000D02*
X226283000Y-153648000D01*
X227533000Y-153648000D01*
X227533000Y-155748000D01*
X226283000Y-155748000D01*
X226283000Y-155748000D01*
G37*
D15*
X228108000Y-154698000D03*
D16*
G36*
X227483000Y-155748000D02*
X227483000Y-153648000D01*
X228733000Y-153648000D01*
X228733000Y-155748000D01*
X227483000Y-155748000D01*
X227483000Y-155748000D01*
G37*
D17*
X231058000Y-171048000D03*
D16*
G36*
X230008000Y-170468000D02*
X232108000Y-170468000D01*
X232108000Y-171628000D01*
X230008000Y-171628000D01*
X230008000Y-170468000D01*
X230008000Y-170468000D01*
G37*
D17*
X231058000Y-169848000D03*
D16*
G36*
X230008000Y-169268000D02*
X232108000Y-169268000D01*
X232108000Y-170428000D01*
X230008000Y-170428000D01*
X230008000Y-169268000D01*
X230008000Y-169268000D01*
G37*
D17*
X231058000Y-156648000D03*
D16*
G36*
X230008000Y-156068000D02*
X232108000Y-156068000D01*
X232108000Y-157228000D01*
X230008000Y-157228000D01*
X230008000Y-156068000D01*
X230008000Y-156068000D01*
G37*
D17*
X231058000Y-155448000D03*
D16*
G36*
X230008000Y-154868000D02*
X232108000Y-154868000D01*
X232108000Y-156028000D01*
X230008000Y-156028000D01*
X230008000Y-154868000D01*
X230008000Y-154868000D01*
G37*
D17*
X231058000Y-161448000D03*
D16*
G36*
X230008000Y-160868000D02*
X232108000Y-160868000D01*
X232108000Y-162028000D01*
X230008000Y-162028000D01*
X230008000Y-160868000D01*
X230008000Y-160868000D01*
G37*
D17*
X231058000Y-159048000D03*
D16*
G36*
X230008000Y-158468000D02*
X232108000Y-158468000D01*
X232108000Y-159628000D01*
X230008000Y-159628000D01*
X230008000Y-158468000D01*
X230008000Y-158468000D01*
G37*
D17*
X231058000Y-160248000D03*
D16*
G36*
X230008000Y-159668000D02*
X232108000Y-159668000D01*
X232108000Y-160828000D01*
X230008000Y-160828000D01*
X230008000Y-159668000D01*
X230008000Y-159668000D01*
G37*
D17*
X231058000Y-157848000D03*
D16*
G36*
X230008000Y-157268000D02*
X232108000Y-157268000D01*
X232108000Y-158428000D01*
X230008000Y-158428000D01*
X230008000Y-157268000D01*
X230008000Y-157268000D01*
G37*
D17*
X231058000Y-168648000D03*
D16*
G36*
X230008000Y-168068000D02*
X232108000Y-168068000D01*
X232108000Y-169228000D01*
X230008000Y-169228000D01*
X230008000Y-168068000D01*
X230008000Y-168068000D01*
G37*
D17*
X231058000Y-166248000D03*
D16*
G36*
X230008000Y-165668000D02*
X232108000Y-165668000D01*
X232108000Y-166828000D01*
X230008000Y-166828000D01*
X230008000Y-165668000D01*
X230008000Y-165668000D01*
G37*
D17*
X231058000Y-167448000D03*
D16*
G36*
X230008000Y-166868000D02*
X232108000Y-166868000D01*
X232108000Y-168028000D01*
X230008000Y-168028000D01*
X230008000Y-166868000D01*
X230008000Y-166868000D01*
G37*
D17*
X231058000Y-163848000D03*
D16*
G36*
X230008000Y-163268000D02*
X232108000Y-163268000D01*
X232108000Y-164428000D01*
X230008000Y-164428000D01*
X230008000Y-163268000D01*
X230008000Y-163268000D01*
G37*
D17*
X231058000Y-165048000D03*
D16*
G36*
X230008000Y-164468000D02*
X232108000Y-164468000D01*
X232108000Y-165628000D01*
X230008000Y-165628000D01*
X230008000Y-164468000D01*
X230008000Y-164468000D01*
G37*
D17*
X231058000Y-162648000D03*
D16*
G36*
X230008000Y-162068000D02*
X232108000Y-162068000D01*
X232108000Y-163228000D01*
X230008000Y-163228000D01*
X230008000Y-162068000D01*
X230008000Y-162068000D01*
G37*
D17*
X216758000Y-163848000D03*
D16*
G36*
X215708000Y-163268000D02*
X217808000Y-163268000D01*
X217808000Y-164428000D01*
X215708000Y-164428000D01*
X215708000Y-163268000D01*
X215708000Y-163268000D01*
G37*
D17*
X216758000Y-172248000D03*
D16*
G36*
X215708000Y-171668000D02*
X217808000Y-171668000D01*
X217808000Y-172828000D01*
X215708000Y-172828000D01*
X215708000Y-171668000D01*
X215708000Y-171668000D01*
G37*
D17*
X216758000Y-167448000D03*
D16*
G36*
X215708000Y-166868000D02*
X217808000Y-166868000D01*
X217808000Y-168028000D01*
X215708000Y-168028000D01*
X215708000Y-166868000D01*
X215708000Y-166868000D01*
G37*
D17*
X216758000Y-161448000D03*
D16*
G36*
X215708000Y-160868000D02*
X217808000Y-160868000D01*
X217808000Y-162028000D01*
X215708000Y-162028000D01*
X215708000Y-160868000D01*
X215708000Y-160868000D01*
G37*
D17*
X216758000Y-168648000D03*
D16*
G36*
X215708000Y-168068000D02*
X217808000Y-168068000D01*
X217808000Y-169228000D01*
X215708000Y-169228000D01*
X215708000Y-168068000D01*
X215708000Y-168068000D01*
G37*
D17*
X216758000Y-162648000D03*
D16*
G36*
X215708000Y-162068000D02*
X217808000Y-162068000D01*
X217808000Y-163228000D01*
X215708000Y-163228000D01*
X215708000Y-162068000D01*
X215708000Y-162068000D01*
G37*
D17*
X216758000Y-159048000D03*
D16*
G36*
X215708000Y-158468000D02*
X217808000Y-158468000D01*
X217808000Y-159628000D01*
X215708000Y-159628000D01*
X215708000Y-158468000D01*
X215708000Y-158468000D01*
G37*
D17*
X216758000Y-169848000D03*
D16*
G36*
X215708000Y-169268000D02*
X217808000Y-169268000D01*
X217808000Y-170428000D01*
X215708000Y-170428000D01*
X215708000Y-169268000D01*
X215708000Y-169268000D01*
G37*
D17*
X216758000Y-165048000D03*
D16*
G36*
X215708000Y-164468000D02*
X217808000Y-164468000D01*
X217808000Y-165628000D01*
X215708000Y-165628000D01*
X215708000Y-164468000D01*
X215708000Y-164468000D01*
G37*
D17*
X216758000Y-160248000D03*
D16*
G36*
X215708000Y-159668000D02*
X217808000Y-159668000D01*
X217808000Y-160828000D01*
X215708000Y-160828000D01*
X215708000Y-159668000D01*
X215708000Y-159668000D01*
G37*
D17*
X216758000Y-157848000D03*
D16*
G36*
X215708000Y-157268000D02*
X217808000Y-157268000D01*
X217808000Y-158428000D01*
X215708000Y-158428000D01*
X215708000Y-157268000D01*
X215708000Y-157268000D01*
G37*
D17*
X216758000Y-171048000D03*
D16*
G36*
X215708000Y-170468000D02*
X217808000Y-170468000D01*
X217808000Y-171628000D01*
X215708000Y-171628000D01*
X215708000Y-170468000D01*
X215708000Y-170468000D01*
G37*
D17*
X216758000Y-166248000D03*
D16*
G36*
X215708000Y-165668000D02*
X217808000Y-165668000D01*
X217808000Y-166828000D01*
X215708000Y-166828000D01*
X215708000Y-165668000D01*
X215708000Y-165668000D01*
G37*
D17*
X216758000Y-155448000D03*
D16*
G36*
X215708000Y-154868000D02*
X217808000Y-154868000D01*
X217808000Y-156028000D01*
X215708000Y-156028000D01*
X215708000Y-154868000D01*
X215708000Y-154868000D01*
G37*
D17*
X216758000Y-156648000D03*
D16*
G36*
X215708000Y-156068000D02*
X217808000Y-156068000D01*
X217808000Y-157228000D01*
X215708000Y-157228000D01*
X215708000Y-156068000D01*
X215708000Y-156068000D01*
G37*
D15*
X229308000Y-154698000D03*
D16*
G36*
X228683000Y-155748000D02*
X228683000Y-153648000D01*
X229933000Y-153648000D01*
X229933000Y-155748000D01*
X228683000Y-155748000D01*
X228683000Y-155748000D01*
G37*
D17*
X231058000Y-172248000D03*
D16*
G36*
X230008000Y-171668000D02*
X232108000Y-171668000D01*
X232108000Y-172828000D01*
X230008000Y-172828000D01*
X230008000Y-171668000D01*
X230008000Y-171668000D01*
G37*
D18*
X214686900Y-126624540D03*
X221686900Y-126624540D03*
D19*
X215686900Y-129324540D03*
X220686900Y-129324540D03*
D10*
X207264000Y-169164000D03*
X207264000Y-166624000D03*
X207264000Y-164084000D03*
X207264000Y-161544000D03*
X207264000Y-159004000D03*
X207264000Y-156464000D03*
X207264000Y-153924000D03*
X207264000Y-151384000D03*
X207264000Y-148844000D03*
X207264000Y-146304000D03*
X207264000Y-143764000D03*
X207264000Y-141224000D03*
X207264000Y-138684000D03*
X207264000Y-136144000D03*
X207264000Y-133604000D03*
X207264000Y-131064000D03*
X207264000Y-128524000D03*
D11*
X207264000Y-125984000D03*
D10*
X181864000Y-125984000D03*
X181864000Y-128524000D03*
X181864000Y-131064000D03*
X181864000Y-133604000D03*
X181864000Y-136144000D03*
X181864000Y-138684000D03*
X181864000Y-141224000D03*
X181864000Y-143764000D03*
X181864000Y-146304000D03*
X181864000Y-148844000D03*
X181864000Y-151384000D03*
X181864000Y-153924000D03*
X181864000Y-156464000D03*
X181864000Y-159004000D03*
X181864000Y-161544000D03*
X181864000Y-164084000D03*
X181864000Y-166624000D03*
X181864000Y-169164000D03*
D11*
X181864000Y-171704000D03*
D12*
X199390000Y-125730000D03*
X199390000Y-131730000D03*
D13*
X199390000Y-138430000D03*
D14*
X196850000Y-138430000D03*
D15*
X189044000Y-154698000D03*
D16*
G36*
X188419000Y-155748000D02*
X188419000Y-153648000D01*
X189669000Y-153648000D01*
X189669000Y-155748000D01*
X188419000Y-155748000D01*
X188419000Y-155748000D01*
G37*
D15*
X190244000Y-154698000D03*
D16*
G36*
X189619000Y-155748000D02*
X189619000Y-153648000D01*
X190869000Y-153648000D01*
X190869000Y-155748000D01*
X189619000Y-155748000D01*
X189619000Y-155748000D01*
G37*
D15*
X191444000Y-154698000D03*
D16*
G36*
X190819000Y-155748000D02*
X190819000Y-153648000D01*
X192069000Y-153648000D01*
X192069000Y-155748000D01*
X190819000Y-155748000D01*
X190819000Y-155748000D01*
G37*
D15*
X192644000Y-154698000D03*
D16*
G36*
X192019000Y-155748000D02*
X192019000Y-153648000D01*
X193269000Y-153648000D01*
X193269000Y-155748000D01*
X192019000Y-155748000D01*
X192019000Y-155748000D01*
G37*
D15*
X193844000Y-154698000D03*
D16*
G36*
X193219000Y-155748000D02*
X193219000Y-153648000D01*
X194469000Y-153648000D01*
X194469000Y-155748000D01*
X193219000Y-155748000D01*
X193219000Y-155748000D01*
G37*
D15*
X195044000Y-154698000D03*
D16*
G36*
X194419000Y-155748000D02*
X194419000Y-153648000D01*
X195669000Y-153648000D01*
X195669000Y-155748000D01*
X194419000Y-155748000D01*
X194419000Y-155748000D01*
G37*
D15*
X196244000Y-154698000D03*
D16*
G36*
X195619000Y-155748000D02*
X195619000Y-153648000D01*
X196869000Y-153648000D01*
X196869000Y-155748000D01*
X195619000Y-155748000D01*
X195619000Y-155748000D01*
G37*
D15*
X197444000Y-154698000D03*
D16*
G36*
X196819000Y-155748000D02*
X196819000Y-153648000D01*
X198069000Y-153648000D01*
X198069000Y-155748000D01*
X196819000Y-155748000D01*
X196819000Y-155748000D01*
G37*
D15*
X198644000Y-154698000D03*
D16*
G36*
X198019000Y-155748000D02*
X198019000Y-153648000D01*
X199269000Y-153648000D01*
X199269000Y-155748000D01*
X198019000Y-155748000D01*
X198019000Y-155748000D01*
G37*
D17*
X201594000Y-171048000D03*
D16*
G36*
X200544000Y-170468000D02*
X202644000Y-170468000D01*
X202644000Y-171628000D01*
X200544000Y-171628000D01*
X200544000Y-170468000D01*
X200544000Y-170468000D01*
G37*
D17*
X201594000Y-169848000D03*
D16*
G36*
X200544000Y-169268000D02*
X202644000Y-169268000D01*
X202644000Y-170428000D01*
X200544000Y-170428000D01*
X200544000Y-169268000D01*
X200544000Y-169268000D01*
G37*
D17*
X201594000Y-156648000D03*
D16*
G36*
X200544000Y-156068000D02*
X202644000Y-156068000D01*
X202644000Y-157228000D01*
X200544000Y-157228000D01*
X200544000Y-156068000D01*
X200544000Y-156068000D01*
G37*
D17*
X201594000Y-155448000D03*
D16*
G36*
X200544000Y-154868000D02*
X202644000Y-154868000D01*
X202644000Y-156028000D01*
X200544000Y-156028000D01*
X200544000Y-154868000D01*
X200544000Y-154868000D01*
G37*
D17*
X201594000Y-161448000D03*
D16*
G36*
X200544000Y-160868000D02*
X202644000Y-160868000D01*
X202644000Y-162028000D01*
X200544000Y-162028000D01*
X200544000Y-160868000D01*
X200544000Y-160868000D01*
G37*
D17*
X201594000Y-159048000D03*
D16*
G36*
X200544000Y-158468000D02*
X202644000Y-158468000D01*
X202644000Y-159628000D01*
X200544000Y-159628000D01*
X200544000Y-158468000D01*
X200544000Y-158468000D01*
G37*
D17*
X201594000Y-160248000D03*
D16*
G36*
X200544000Y-159668000D02*
X202644000Y-159668000D01*
X202644000Y-160828000D01*
X200544000Y-160828000D01*
X200544000Y-159668000D01*
X200544000Y-159668000D01*
G37*
D17*
X201594000Y-157848000D03*
D16*
G36*
X200544000Y-157268000D02*
X202644000Y-157268000D01*
X202644000Y-158428000D01*
X200544000Y-158428000D01*
X200544000Y-157268000D01*
X200544000Y-157268000D01*
G37*
D17*
X201594000Y-168648000D03*
D16*
G36*
X200544000Y-168068000D02*
X202644000Y-168068000D01*
X202644000Y-169228000D01*
X200544000Y-169228000D01*
X200544000Y-168068000D01*
X200544000Y-168068000D01*
G37*
D17*
X201594000Y-166248000D03*
D16*
G36*
X200544000Y-165668000D02*
X202644000Y-165668000D01*
X202644000Y-166828000D01*
X200544000Y-166828000D01*
X200544000Y-165668000D01*
X200544000Y-165668000D01*
G37*
D17*
X201594000Y-167448000D03*
D16*
G36*
X200544000Y-166868000D02*
X202644000Y-166868000D01*
X202644000Y-168028000D01*
X200544000Y-168028000D01*
X200544000Y-166868000D01*
X200544000Y-166868000D01*
G37*
D17*
X201594000Y-163848000D03*
D16*
G36*
X200544000Y-163268000D02*
X202644000Y-163268000D01*
X202644000Y-164428000D01*
X200544000Y-164428000D01*
X200544000Y-163268000D01*
X200544000Y-163268000D01*
G37*
D17*
X201594000Y-165048000D03*
D16*
G36*
X200544000Y-164468000D02*
X202644000Y-164468000D01*
X202644000Y-165628000D01*
X200544000Y-165628000D01*
X200544000Y-164468000D01*
X200544000Y-164468000D01*
G37*
D17*
X201594000Y-162648000D03*
D16*
G36*
X200544000Y-162068000D02*
X202644000Y-162068000D01*
X202644000Y-163228000D01*
X200544000Y-163228000D01*
X200544000Y-162068000D01*
X200544000Y-162068000D01*
G37*
D17*
X187294000Y-163848000D03*
D16*
G36*
X186244000Y-163268000D02*
X188344000Y-163268000D01*
X188344000Y-164428000D01*
X186244000Y-164428000D01*
X186244000Y-163268000D01*
X186244000Y-163268000D01*
G37*
D17*
X187294000Y-172248000D03*
D16*
G36*
X186244000Y-171668000D02*
X188344000Y-171668000D01*
X188344000Y-172828000D01*
X186244000Y-172828000D01*
X186244000Y-171668000D01*
X186244000Y-171668000D01*
G37*
D17*
X187294000Y-167448000D03*
D16*
G36*
X186244000Y-166868000D02*
X188344000Y-166868000D01*
X188344000Y-168028000D01*
X186244000Y-168028000D01*
X186244000Y-166868000D01*
X186244000Y-166868000D01*
G37*
D17*
X187294000Y-161448000D03*
D16*
G36*
X186244000Y-160868000D02*
X188344000Y-160868000D01*
X188344000Y-162028000D01*
X186244000Y-162028000D01*
X186244000Y-160868000D01*
X186244000Y-160868000D01*
G37*
D17*
X187294000Y-168648000D03*
D16*
G36*
X186244000Y-168068000D02*
X188344000Y-168068000D01*
X188344000Y-169228000D01*
X186244000Y-169228000D01*
X186244000Y-168068000D01*
X186244000Y-168068000D01*
G37*
D17*
X187294000Y-162648000D03*
D16*
G36*
X186244000Y-162068000D02*
X188344000Y-162068000D01*
X188344000Y-163228000D01*
X186244000Y-163228000D01*
X186244000Y-162068000D01*
X186244000Y-162068000D01*
G37*
D17*
X187294000Y-159048000D03*
D16*
G36*
X186244000Y-158468000D02*
X188344000Y-158468000D01*
X188344000Y-159628000D01*
X186244000Y-159628000D01*
X186244000Y-158468000D01*
X186244000Y-158468000D01*
G37*
D17*
X187294000Y-169848000D03*
D16*
G36*
X186244000Y-169268000D02*
X188344000Y-169268000D01*
X188344000Y-170428000D01*
X186244000Y-170428000D01*
X186244000Y-169268000D01*
X186244000Y-169268000D01*
G37*
D17*
X187294000Y-165048000D03*
D16*
G36*
X186244000Y-164468000D02*
X188344000Y-164468000D01*
X188344000Y-165628000D01*
X186244000Y-165628000D01*
X186244000Y-164468000D01*
X186244000Y-164468000D01*
G37*
D17*
X187294000Y-160248000D03*
D16*
G36*
X186244000Y-159668000D02*
X188344000Y-159668000D01*
X188344000Y-160828000D01*
X186244000Y-160828000D01*
X186244000Y-159668000D01*
X186244000Y-159668000D01*
G37*
D17*
X187294000Y-157848000D03*
D16*
G36*
X186244000Y-157268000D02*
X188344000Y-157268000D01*
X188344000Y-158428000D01*
X186244000Y-158428000D01*
X186244000Y-157268000D01*
X186244000Y-157268000D01*
G37*
D17*
X187294000Y-171048000D03*
D16*
G36*
X186244000Y-170468000D02*
X188344000Y-170468000D01*
X188344000Y-171628000D01*
X186244000Y-171628000D01*
X186244000Y-170468000D01*
X186244000Y-170468000D01*
G37*
D17*
X187294000Y-166248000D03*
D16*
G36*
X186244000Y-165668000D02*
X188344000Y-165668000D01*
X188344000Y-166828000D01*
X186244000Y-166828000D01*
X186244000Y-165668000D01*
X186244000Y-165668000D01*
G37*
D17*
X187294000Y-155448000D03*
D16*
G36*
X186244000Y-154868000D02*
X188344000Y-154868000D01*
X188344000Y-156028000D01*
X186244000Y-156028000D01*
X186244000Y-154868000D01*
X186244000Y-154868000D01*
G37*
D17*
X187294000Y-156648000D03*
D16*
G36*
X186244000Y-156068000D02*
X188344000Y-156068000D01*
X188344000Y-157228000D01*
X186244000Y-157228000D01*
X186244000Y-156068000D01*
X186244000Y-156068000D01*
G37*
D15*
X199844000Y-154698000D03*
D16*
G36*
X199219000Y-155748000D02*
X199219000Y-153648000D01*
X200469000Y-153648000D01*
X200469000Y-155748000D01*
X199219000Y-155748000D01*
X199219000Y-155748000D01*
G37*
D17*
X201594000Y-172248000D03*
D16*
G36*
X200544000Y-171668000D02*
X202644000Y-171668000D01*
X202644000Y-172828000D01*
X200544000Y-172828000D01*
X200544000Y-171668000D01*
X200544000Y-171668000D01*
G37*
D18*
X185222900Y-126624540D03*
X192222900Y-126624540D03*
D19*
X186222900Y-129324540D03*
X191222900Y-129324540D03*
D10*
X177800000Y-169164000D03*
X177800000Y-166624000D03*
X177800000Y-164084000D03*
X177800000Y-161544000D03*
X177800000Y-159004000D03*
X177800000Y-156464000D03*
X177800000Y-153924000D03*
X177800000Y-151384000D03*
X177800000Y-148844000D03*
X177800000Y-146304000D03*
X177800000Y-143764000D03*
X177800000Y-141224000D03*
X177800000Y-138684000D03*
X177800000Y-136144000D03*
X177800000Y-133604000D03*
X177800000Y-131064000D03*
X177800000Y-128524000D03*
D11*
X177800000Y-125984000D03*
D10*
X152400000Y-125984000D03*
X152400000Y-128524000D03*
X152400000Y-131064000D03*
X152400000Y-133604000D03*
X152400000Y-136144000D03*
X152400000Y-138684000D03*
X152400000Y-141224000D03*
X152400000Y-143764000D03*
X152400000Y-146304000D03*
X152400000Y-148844000D03*
X152400000Y-151384000D03*
X152400000Y-153924000D03*
X152400000Y-156464000D03*
X152400000Y-159004000D03*
X152400000Y-161544000D03*
X152400000Y-164084000D03*
X152400000Y-166624000D03*
X152400000Y-169164000D03*
D11*
X152400000Y-171704000D03*
D12*
X169926000Y-125730000D03*
X169926000Y-131730000D03*
D13*
X169926000Y-138430000D03*
D14*
X167386000Y-138430000D03*
D15*
X159580000Y-154698000D03*
D16*
G36*
X158955000Y-155748000D02*
X158955000Y-153648000D01*
X160205000Y-153648000D01*
X160205000Y-155748000D01*
X158955000Y-155748000D01*
X158955000Y-155748000D01*
G37*
D15*
X160780000Y-154698000D03*
D16*
G36*
X160155000Y-155748000D02*
X160155000Y-153648000D01*
X161405000Y-153648000D01*
X161405000Y-155748000D01*
X160155000Y-155748000D01*
X160155000Y-155748000D01*
G37*
D15*
X161980000Y-154698000D03*
D16*
G36*
X161355000Y-155748000D02*
X161355000Y-153648000D01*
X162605000Y-153648000D01*
X162605000Y-155748000D01*
X161355000Y-155748000D01*
X161355000Y-155748000D01*
G37*
D15*
X163180000Y-154698000D03*
D16*
G36*
X162555000Y-155748000D02*
X162555000Y-153648000D01*
X163805000Y-153648000D01*
X163805000Y-155748000D01*
X162555000Y-155748000D01*
X162555000Y-155748000D01*
G37*
D15*
X164380000Y-154698000D03*
D16*
G36*
X163755000Y-155748000D02*
X163755000Y-153648000D01*
X165005000Y-153648000D01*
X165005000Y-155748000D01*
X163755000Y-155748000D01*
X163755000Y-155748000D01*
G37*
D15*
X165580000Y-154698000D03*
D16*
G36*
X164955000Y-155748000D02*
X164955000Y-153648000D01*
X166205000Y-153648000D01*
X166205000Y-155748000D01*
X164955000Y-155748000D01*
X164955000Y-155748000D01*
G37*
D15*
X166780000Y-154698000D03*
D16*
G36*
X166155000Y-155748000D02*
X166155000Y-153648000D01*
X167405000Y-153648000D01*
X167405000Y-155748000D01*
X166155000Y-155748000D01*
X166155000Y-155748000D01*
G37*
D15*
X167980000Y-154698000D03*
D16*
G36*
X167355000Y-155748000D02*
X167355000Y-153648000D01*
X168605000Y-153648000D01*
X168605000Y-155748000D01*
X167355000Y-155748000D01*
X167355000Y-155748000D01*
G37*
D15*
X169180000Y-154698000D03*
D16*
G36*
X168555000Y-155748000D02*
X168555000Y-153648000D01*
X169805000Y-153648000D01*
X169805000Y-155748000D01*
X168555000Y-155748000D01*
X168555000Y-155748000D01*
G37*
D17*
X172130000Y-171048000D03*
D16*
G36*
X171080000Y-170468000D02*
X173180000Y-170468000D01*
X173180000Y-171628000D01*
X171080000Y-171628000D01*
X171080000Y-170468000D01*
X171080000Y-170468000D01*
G37*
D17*
X172130000Y-169848000D03*
D16*
G36*
X171080000Y-169268000D02*
X173180000Y-169268000D01*
X173180000Y-170428000D01*
X171080000Y-170428000D01*
X171080000Y-169268000D01*
X171080000Y-169268000D01*
G37*
D17*
X172130000Y-156648000D03*
D16*
G36*
X171080000Y-156068000D02*
X173180000Y-156068000D01*
X173180000Y-157228000D01*
X171080000Y-157228000D01*
X171080000Y-156068000D01*
X171080000Y-156068000D01*
G37*
D17*
X172130000Y-155448000D03*
D16*
G36*
X171080000Y-154868000D02*
X173180000Y-154868000D01*
X173180000Y-156028000D01*
X171080000Y-156028000D01*
X171080000Y-154868000D01*
X171080000Y-154868000D01*
G37*
D17*
X172130000Y-161448000D03*
D16*
G36*
X171080000Y-160868000D02*
X173180000Y-160868000D01*
X173180000Y-162028000D01*
X171080000Y-162028000D01*
X171080000Y-160868000D01*
X171080000Y-160868000D01*
G37*
D17*
X172130000Y-159048000D03*
D16*
G36*
X171080000Y-158468000D02*
X173180000Y-158468000D01*
X173180000Y-159628000D01*
X171080000Y-159628000D01*
X171080000Y-158468000D01*
X171080000Y-158468000D01*
G37*
D17*
X172130000Y-160248000D03*
D16*
G36*
X171080000Y-159668000D02*
X173180000Y-159668000D01*
X173180000Y-160828000D01*
X171080000Y-160828000D01*
X171080000Y-159668000D01*
X171080000Y-159668000D01*
G37*
D17*
X172130000Y-157848000D03*
D16*
G36*
X171080000Y-157268000D02*
X173180000Y-157268000D01*
X173180000Y-158428000D01*
X171080000Y-158428000D01*
X171080000Y-157268000D01*
X171080000Y-157268000D01*
G37*
D17*
X172130000Y-168648000D03*
D16*
G36*
X171080000Y-168068000D02*
X173180000Y-168068000D01*
X173180000Y-169228000D01*
X171080000Y-169228000D01*
X171080000Y-168068000D01*
X171080000Y-168068000D01*
G37*
D17*
X172130000Y-166248000D03*
D16*
G36*
X171080000Y-165668000D02*
X173180000Y-165668000D01*
X173180000Y-166828000D01*
X171080000Y-166828000D01*
X171080000Y-165668000D01*
X171080000Y-165668000D01*
G37*
D17*
X172130000Y-167448000D03*
D16*
G36*
X171080000Y-166868000D02*
X173180000Y-166868000D01*
X173180000Y-168028000D01*
X171080000Y-168028000D01*
X171080000Y-166868000D01*
X171080000Y-166868000D01*
G37*
D17*
X172130000Y-163848000D03*
D16*
G36*
X171080000Y-163268000D02*
X173180000Y-163268000D01*
X173180000Y-164428000D01*
X171080000Y-164428000D01*
X171080000Y-163268000D01*
X171080000Y-163268000D01*
G37*
D17*
X172130000Y-165048000D03*
D16*
G36*
X171080000Y-164468000D02*
X173180000Y-164468000D01*
X173180000Y-165628000D01*
X171080000Y-165628000D01*
X171080000Y-164468000D01*
X171080000Y-164468000D01*
G37*
D17*
X172130000Y-162648000D03*
D16*
G36*
X171080000Y-162068000D02*
X173180000Y-162068000D01*
X173180000Y-163228000D01*
X171080000Y-163228000D01*
X171080000Y-162068000D01*
X171080000Y-162068000D01*
G37*
D17*
X157830000Y-163848000D03*
D16*
G36*
X156780000Y-163268000D02*
X158880000Y-163268000D01*
X158880000Y-164428000D01*
X156780000Y-164428000D01*
X156780000Y-163268000D01*
X156780000Y-163268000D01*
G37*
D17*
X157830000Y-172248000D03*
D16*
G36*
X156780000Y-171668000D02*
X158880000Y-171668000D01*
X158880000Y-172828000D01*
X156780000Y-172828000D01*
X156780000Y-171668000D01*
X156780000Y-171668000D01*
G37*
D17*
X157830000Y-167448000D03*
D16*
G36*
X156780000Y-166868000D02*
X158880000Y-166868000D01*
X158880000Y-168028000D01*
X156780000Y-168028000D01*
X156780000Y-166868000D01*
X156780000Y-166868000D01*
G37*
D17*
X157830000Y-161448000D03*
D16*
G36*
X156780000Y-160868000D02*
X158880000Y-160868000D01*
X158880000Y-162028000D01*
X156780000Y-162028000D01*
X156780000Y-160868000D01*
X156780000Y-160868000D01*
G37*
D17*
X157830000Y-168648000D03*
D16*
G36*
X156780000Y-168068000D02*
X158880000Y-168068000D01*
X158880000Y-169228000D01*
X156780000Y-169228000D01*
X156780000Y-168068000D01*
X156780000Y-168068000D01*
G37*
D17*
X157830000Y-162648000D03*
D16*
G36*
X156780000Y-162068000D02*
X158880000Y-162068000D01*
X158880000Y-163228000D01*
X156780000Y-163228000D01*
X156780000Y-162068000D01*
X156780000Y-162068000D01*
G37*
D17*
X157830000Y-159048000D03*
D16*
G36*
X156780000Y-158468000D02*
X158880000Y-158468000D01*
X158880000Y-159628000D01*
X156780000Y-159628000D01*
X156780000Y-158468000D01*
X156780000Y-158468000D01*
G37*
D17*
X157830000Y-169848000D03*
D16*
G36*
X156780000Y-169268000D02*
X158880000Y-169268000D01*
X158880000Y-170428000D01*
X156780000Y-170428000D01*
X156780000Y-169268000D01*
X156780000Y-169268000D01*
G37*
D17*
X157830000Y-165048000D03*
D16*
G36*
X156780000Y-164468000D02*
X158880000Y-164468000D01*
X158880000Y-165628000D01*
X156780000Y-165628000D01*
X156780000Y-164468000D01*
X156780000Y-164468000D01*
G37*
D17*
X157830000Y-160248000D03*
D16*
G36*
X156780000Y-159668000D02*
X158880000Y-159668000D01*
X158880000Y-160828000D01*
X156780000Y-160828000D01*
X156780000Y-159668000D01*
X156780000Y-159668000D01*
G37*
D17*
X157830000Y-157848000D03*
D16*
G36*
X156780000Y-157268000D02*
X158880000Y-157268000D01*
X158880000Y-158428000D01*
X156780000Y-158428000D01*
X156780000Y-157268000D01*
X156780000Y-157268000D01*
G37*
D17*
X157830000Y-171048000D03*
D16*
G36*
X156780000Y-170468000D02*
X158880000Y-170468000D01*
X158880000Y-171628000D01*
X156780000Y-171628000D01*
X156780000Y-170468000D01*
X156780000Y-170468000D01*
G37*
D17*
X157830000Y-166248000D03*
D16*
G36*
X156780000Y-165668000D02*
X158880000Y-165668000D01*
X158880000Y-166828000D01*
X156780000Y-166828000D01*
X156780000Y-165668000D01*
X156780000Y-165668000D01*
G37*
D17*
X157830000Y-155448000D03*
D16*
G36*
X156780000Y-154868000D02*
X158880000Y-154868000D01*
X158880000Y-156028000D01*
X156780000Y-156028000D01*
X156780000Y-154868000D01*
X156780000Y-154868000D01*
G37*
D17*
X157830000Y-156648000D03*
D16*
G36*
X156780000Y-156068000D02*
X158880000Y-156068000D01*
X158880000Y-157228000D01*
X156780000Y-157228000D01*
X156780000Y-156068000D01*
X156780000Y-156068000D01*
G37*
D15*
X170380000Y-154698000D03*
D16*
G36*
X169755000Y-155748000D02*
X169755000Y-153648000D01*
X171005000Y-153648000D01*
X171005000Y-155748000D01*
X169755000Y-155748000D01*
X169755000Y-155748000D01*
G37*
D17*
X172130000Y-172248000D03*
D16*
G36*
X171080000Y-171668000D02*
X173180000Y-171668000D01*
X173180000Y-172828000D01*
X171080000Y-172828000D01*
X171080000Y-171668000D01*
X171080000Y-171668000D01*
G37*
D18*
X155758900Y-126624540D03*
X162758900Y-126624540D03*
D19*
X156758900Y-129324540D03*
X161758900Y-129324540D03*
D10*
X236728000Y-119380000D03*
X236728000Y-116840000D03*
X236728000Y-114300000D03*
X236728000Y-111760000D03*
X236728000Y-109220000D03*
X236728000Y-106680000D03*
X236728000Y-104140000D03*
X236728000Y-101600000D03*
X236728000Y-99060000D03*
X236728000Y-96520000D03*
X236728000Y-93980000D03*
X236728000Y-91440000D03*
X236728000Y-88900000D03*
X236728000Y-86360000D03*
X236728000Y-83820000D03*
X236728000Y-81280000D03*
X236728000Y-78740000D03*
D11*
X236728000Y-76200000D03*
D10*
X211328000Y-76200000D03*
X211328000Y-78740000D03*
X211328000Y-81280000D03*
X211328000Y-83820000D03*
X211328000Y-86360000D03*
X211328000Y-88900000D03*
X211328000Y-91440000D03*
X211328000Y-93980000D03*
X211328000Y-96520000D03*
X211328000Y-99060000D03*
X211328000Y-101600000D03*
X211328000Y-104140000D03*
X211328000Y-106680000D03*
X211328000Y-109220000D03*
X211328000Y-111760000D03*
X211328000Y-114300000D03*
X211328000Y-116840000D03*
X211328000Y-119380000D03*
D11*
X211328000Y-121920000D03*
D12*
X228854000Y-75946000D03*
X228854000Y-81946000D03*
D13*
X228854000Y-88646000D03*
D14*
X226314000Y-88646000D03*
D15*
X218508000Y-104914000D03*
D16*
G36*
X217883000Y-105964000D02*
X217883000Y-103864000D01*
X219133000Y-103864000D01*
X219133000Y-105964000D01*
X217883000Y-105964000D01*
X217883000Y-105964000D01*
G37*
D15*
X219708000Y-104914000D03*
D16*
G36*
X219083000Y-105964000D02*
X219083000Y-103864000D01*
X220333000Y-103864000D01*
X220333000Y-105964000D01*
X219083000Y-105964000D01*
X219083000Y-105964000D01*
G37*
D15*
X220908000Y-104914000D03*
D16*
G36*
X220283000Y-105964000D02*
X220283000Y-103864000D01*
X221533000Y-103864000D01*
X221533000Y-105964000D01*
X220283000Y-105964000D01*
X220283000Y-105964000D01*
G37*
D15*
X222108000Y-104914000D03*
D16*
G36*
X221483000Y-105964000D02*
X221483000Y-103864000D01*
X222733000Y-103864000D01*
X222733000Y-105964000D01*
X221483000Y-105964000D01*
X221483000Y-105964000D01*
G37*
D15*
X223308000Y-104914000D03*
D16*
G36*
X222683000Y-105964000D02*
X222683000Y-103864000D01*
X223933000Y-103864000D01*
X223933000Y-105964000D01*
X222683000Y-105964000D01*
X222683000Y-105964000D01*
G37*
D15*
X224508000Y-104914000D03*
D16*
G36*
X223883000Y-105964000D02*
X223883000Y-103864000D01*
X225133000Y-103864000D01*
X225133000Y-105964000D01*
X223883000Y-105964000D01*
X223883000Y-105964000D01*
G37*
D15*
X225708000Y-104914000D03*
D16*
G36*
X225083000Y-105964000D02*
X225083000Y-103864000D01*
X226333000Y-103864000D01*
X226333000Y-105964000D01*
X225083000Y-105964000D01*
X225083000Y-105964000D01*
G37*
D15*
X226908000Y-104914000D03*
D16*
G36*
X226283000Y-105964000D02*
X226283000Y-103864000D01*
X227533000Y-103864000D01*
X227533000Y-105964000D01*
X226283000Y-105964000D01*
X226283000Y-105964000D01*
G37*
D15*
X228108000Y-104914000D03*
D16*
G36*
X227483000Y-105964000D02*
X227483000Y-103864000D01*
X228733000Y-103864000D01*
X228733000Y-105964000D01*
X227483000Y-105964000D01*
X227483000Y-105964000D01*
G37*
D17*
X231058000Y-121264000D03*
D16*
G36*
X230008000Y-120684000D02*
X232108000Y-120684000D01*
X232108000Y-121844000D01*
X230008000Y-121844000D01*
X230008000Y-120684000D01*
X230008000Y-120684000D01*
G37*
D17*
X231058000Y-120064000D03*
D16*
G36*
X230008000Y-119484000D02*
X232108000Y-119484000D01*
X232108000Y-120644000D01*
X230008000Y-120644000D01*
X230008000Y-119484000D01*
X230008000Y-119484000D01*
G37*
D17*
X231058000Y-106864000D03*
D16*
G36*
X230008000Y-106284000D02*
X232108000Y-106284000D01*
X232108000Y-107444000D01*
X230008000Y-107444000D01*
X230008000Y-106284000D01*
X230008000Y-106284000D01*
G37*
D17*
X231058000Y-105664000D03*
D16*
G36*
X230008000Y-105084000D02*
X232108000Y-105084000D01*
X232108000Y-106244000D01*
X230008000Y-106244000D01*
X230008000Y-105084000D01*
X230008000Y-105084000D01*
G37*
D17*
X231058000Y-111664000D03*
D16*
G36*
X230008000Y-111084000D02*
X232108000Y-111084000D01*
X232108000Y-112244000D01*
X230008000Y-112244000D01*
X230008000Y-111084000D01*
X230008000Y-111084000D01*
G37*
D17*
X231058000Y-109264000D03*
D16*
G36*
X230008000Y-108684000D02*
X232108000Y-108684000D01*
X232108000Y-109844000D01*
X230008000Y-109844000D01*
X230008000Y-108684000D01*
X230008000Y-108684000D01*
G37*
D17*
X231058000Y-110464000D03*
D16*
G36*
X230008000Y-109884000D02*
X232108000Y-109884000D01*
X232108000Y-111044000D01*
X230008000Y-111044000D01*
X230008000Y-109884000D01*
X230008000Y-109884000D01*
G37*
D17*
X231058000Y-108064000D03*
D16*
G36*
X230008000Y-107484000D02*
X232108000Y-107484000D01*
X232108000Y-108644000D01*
X230008000Y-108644000D01*
X230008000Y-107484000D01*
X230008000Y-107484000D01*
G37*
D17*
X231058000Y-118864000D03*
D16*
G36*
X230008000Y-118284000D02*
X232108000Y-118284000D01*
X232108000Y-119444000D01*
X230008000Y-119444000D01*
X230008000Y-118284000D01*
X230008000Y-118284000D01*
G37*
D17*
X231058000Y-116464000D03*
D16*
G36*
X230008000Y-115884000D02*
X232108000Y-115884000D01*
X232108000Y-117044000D01*
X230008000Y-117044000D01*
X230008000Y-115884000D01*
X230008000Y-115884000D01*
G37*
D17*
X231058000Y-117664000D03*
D16*
G36*
X230008000Y-117084000D02*
X232108000Y-117084000D01*
X232108000Y-118244000D01*
X230008000Y-118244000D01*
X230008000Y-117084000D01*
X230008000Y-117084000D01*
G37*
D17*
X231058000Y-114064000D03*
D16*
G36*
X230008000Y-113484000D02*
X232108000Y-113484000D01*
X232108000Y-114644000D01*
X230008000Y-114644000D01*
X230008000Y-113484000D01*
X230008000Y-113484000D01*
G37*
D17*
X231058000Y-115264000D03*
D16*
G36*
X230008000Y-114684000D02*
X232108000Y-114684000D01*
X232108000Y-115844000D01*
X230008000Y-115844000D01*
X230008000Y-114684000D01*
X230008000Y-114684000D01*
G37*
D17*
X231058000Y-112864000D03*
D16*
G36*
X230008000Y-112284000D02*
X232108000Y-112284000D01*
X232108000Y-113444000D01*
X230008000Y-113444000D01*
X230008000Y-112284000D01*
X230008000Y-112284000D01*
G37*
D17*
X216758000Y-114064000D03*
D16*
G36*
X215708000Y-113484000D02*
X217808000Y-113484000D01*
X217808000Y-114644000D01*
X215708000Y-114644000D01*
X215708000Y-113484000D01*
X215708000Y-113484000D01*
G37*
D17*
X216758000Y-122464000D03*
D16*
G36*
X215708000Y-121884000D02*
X217808000Y-121884000D01*
X217808000Y-123044000D01*
X215708000Y-123044000D01*
X215708000Y-121884000D01*
X215708000Y-121884000D01*
G37*
D17*
X216758000Y-117664000D03*
D16*
G36*
X215708000Y-117084000D02*
X217808000Y-117084000D01*
X217808000Y-118244000D01*
X215708000Y-118244000D01*
X215708000Y-117084000D01*
X215708000Y-117084000D01*
G37*
D17*
X216758000Y-111664000D03*
D16*
G36*
X215708000Y-111084000D02*
X217808000Y-111084000D01*
X217808000Y-112244000D01*
X215708000Y-112244000D01*
X215708000Y-111084000D01*
X215708000Y-111084000D01*
G37*
D17*
X216758000Y-118864000D03*
D16*
G36*
X215708000Y-118284000D02*
X217808000Y-118284000D01*
X217808000Y-119444000D01*
X215708000Y-119444000D01*
X215708000Y-118284000D01*
X215708000Y-118284000D01*
G37*
D17*
X216758000Y-112864000D03*
D16*
G36*
X215708000Y-112284000D02*
X217808000Y-112284000D01*
X217808000Y-113444000D01*
X215708000Y-113444000D01*
X215708000Y-112284000D01*
X215708000Y-112284000D01*
G37*
D17*
X216758000Y-109264000D03*
D16*
G36*
X215708000Y-108684000D02*
X217808000Y-108684000D01*
X217808000Y-109844000D01*
X215708000Y-109844000D01*
X215708000Y-108684000D01*
X215708000Y-108684000D01*
G37*
D17*
X216758000Y-120064000D03*
D16*
G36*
X215708000Y-119484000D02*
X217808000Y-119484000D01*
X217808000Y-120644000D01*
X215708000Y-120644000D01*
X215708000Y-119484000D01*
X215708000Y-119484000D01*
G37*
D17*
X216758000Y-115264000D03*
D16*
G36*
X215708000Y-114684000D02*
X217808000Y-114684000D01*
X217808000Y-115844000D01*
X215708000Y-115844000D01*
X215708000Y-114684000D01*
X215708000Y-114684000D01*
G37*
D17*
X216758000Y-110464000D03*
D16*
G36*
X215708000Y-109884000D02*
X217808000Y-109884000D01*
X217808000Y-111044000D01*
X215708000Y-111044000D01*
X215708000Y-109884000D01*
X215708000Y-109884000D01*
G37*
D17*
X216758000Y-108064000D03*
D16*
G36*
X215708000Y-107484000D02*
X217808000Y-107484000D01*
X217808000Y-108644000D01*
X215708000Y-108644000D01*
X215708000Y-107484000D01*
X215708000Y-107484000D01*
G37*
D17*
X216758000Y-121264000D03*
D16*
G36*
X215708000Y-120684000D02*
X217808000Y-120684000D01*
X217808000Y-121844000D01*
X215708000Y-121844000D01*
X215708000Y-120684000D01*
X215708000Y-120684000D01*
G37*
D17*
X216758000Y-116464000D03*
D16*
G36*
X215708000Y-115884000D02*
X217808000Y-115884000D01*
X217808000Y-117044000D01*
X215708000Y-117044000D01*
X215708000Y-115884000D01*
X215708000Y-115884000D01*
G37*
D17*
X216758000Y-105664000D03*
D16*
G36*
X215708000Y-105084000D02*
X217808000Y-105084000D01*
X217808000Y-106244000D01*
X215708000Y-106244000D01*
X215708000Y-105084000D01*
X215708000Y-105084000D01*
G37*
D17*
X216758000Y-106864000D03*
D16*
G36*
X215708000Y-106284000D02*
X217808000Y-106284000D01*
X217808000Y-107444000D01*
X215708000Y-107444000D01*
X215708000Y-106284000D01*
X215708000Y-106284000D01*
G37*
D15*
X229308000Y-104914000D03*
D16*
G36*
X228683000Y-105964000D02*
X228683000Y-103864000D01*
X229933000Y-103864000D01*
X229933000Y-105964000D01*
X228683000Y-105964000D01*
X228683000Y-105964000D01*
G37*
D17*
X231058000Y-122464000D03*
D16*
G36*
X230008000Y-121884000D02*
X232108000Y-121884000D01*
X232108000Y-123044000D01*
X230008000Y-123044000D01*
X230008000Y-121884000D01*
X230008000Y-121884000D01*
G37*
D18*
X214686900Y-76840540D03*
X221686900Y-76840540D03*
D19*
X215686900Y-79540540D03*
X220686900Y-79540540D03*
D10*
X207264000Y-119380000D03*
X207264000Y-116840000D03*
X207264000Y-114300000D03*
X207264000Y-111760000D03*
X207264000Y-109220000D03*
X207264000Y-106680000D03*
X207264000Y-104140000D03*
X207264000Y-101600000D03*
X207264000Y-99060000D03*
X207264000Y-96520000D03*
X207264000Y-93980000D03*
X207264000Y-91440000D03*
X207264000Y-88900000D03*
X207264000Y-86360000D03*
X207264000Y-83820000D03*
X207264000Y-81280000D03*
X207264000Y-78740000D03*
D11*
X207264000Y-76200000D03*
D10*
X181864000Y-76200000D03*
X181864000Y-78740000D03*
X181864000Y-81280000D03*
X181864000Y-83820000D03*
X181864000Y-86360000D03*
X181864000Y-88900000D03*
X181864000Y-91440000D03*
X181864000Y-93980000D03*
X181864000Y-96520000D03*
X181864000Y-99060000D03*
X181864000Y-101600000D03*
X181864000Y-104140000D03*
X181864000Y-106680000D03*
X181864000Y-109220000D03*
X181864000Y-111760000D03*
X181864000Y-114300000D03*
X181864000Y-116840000D03*
X181864000Y-119380000D03*
D11*
X181864000Y-121920000D03*
D12*
X199390000Y-75946000D03*
X199390000Y-81946000D03*
D13*
X199390000Y-88646000D03*
D14*
X196850000Y-88646000D03*
D15*
X189044000Y-104914000D03*
D16*
G36*
X188419000Y-105964000D02*
X188419000Y-103864000D01*
X189669000Y-103864000D01*
X189669000Y-105964000D01*
X188419000Y-105964000D01*
X188419000Y-105964000D01*
G37*
D15*
X190244000Y-104914000D03*
D16*
G36*
X189619000Y-105964000D02*
X189619000Y-103864000D01*
X190869000Y-103864000D01*
X190869000Y-105964000D01*
X189619000Y-105964000D01*
X189619000Y-105964000D01*
G37*
D15*
X191444000Y-104914000D03*
D16*
G36*
X190819000Y-105964000D02*
X190819000Y-103864000D01*
X192069000Y-103864000D01*
X192069000Y-105964000D01*
X190819000Y-105964000D01*
X190819000Y-105964000D01*
G37*
D15*
X192644000Y-104914000D03*
D16*
G36*
X192019000Y-105964000D02*
X192019000Y-103864000D01*
X193269000Y-103864000D01*
X193269000Y-105964000D01*
X192019000Y-105964000D01*
X192019000Y-105964000D01*
G37*
D15*
X193844000Y-104914000D03*
D16*
G36*
X193219000Y-105964000D02*
X193219000Y-103864000D01*
X194469000Y-103864000D01*
X194469000Y-105964000D01*
X193219000Y-105964000D01*
X193219000Y-105964000D01*
G37*
D15*
X195044000Y-104914000D03*
D16*
G36*
X194419000Y-105964000D02*
X194419000Y-103864000D01*
X195669000Y-103864000D01*
X195669000Y-105964000D01*
X194419000Y-105964000D01*
X194419000Y-105964000D01*
G37*
D15*
X196244000Y-104914000D03*
D16*
G36*
X195619000Y-105964000D02*
X195619000Y-103864000D01*
X196869000Y-103864000D01*
X196869000Y-105964000D01*
X195619000Y-105964000D01*
X195619000Y-105964000D01*
G37*
D15*
X197444000Y-104914000D03*
D16*
G36*
X196819000Y-105964000D02*
X196819000Y-103864000D01*
X198069000Y-103864000D01*
X198069000Y-105964000D01*
X196819000Y-105964000D01*
X196819000Y-105964000D01*
G37*
D15*
X198644000Y-104914000D03*
D16*
G36*
X198019000Y-105964000D02*
X198019000Y-103864000D01*
X199269000Y-103864000D01*
X199269000Y-105964000D01*
X198019000Y-105964000D01*
X198019000Y-105964000D01*
G37*
D17*
X201594000Y-121264000D03*
D16*
G36*
X200544000Y-120684000D02*
X202644000Y-120684000D01*
X202644000Y-121844000D01*
X200544000Y-121844000D01*
X200544000Y-120684000D01*
X200544000Y-120684000D01*
G37*
D17*
X201594000Y-120064000D03*
D16*
G36*
X200544000Y-119484000D02*
X202644000Y-119484000D01*
X202644000Y-120644000D01*
X200544000Y-120644000D01*
X200544000Y-119484000D01*
X200544000Y-119484000D01*
G37*
D17*
X201594000Y-106864000D03*
D16*
G36*
X200544000Y-106284000D02*
X202644000Y-106284000D01*
X202644000Y-107444000D01*
X200544000Y-107444000D01*
X200544000Y-106284000D01*
X200544000Y-106284000D01*
G37*
D17*
X201594000Y-105664000D03*
D16*
G36*
X200544000Y-105084000D02*
X202644000Y-105084000D01*
X202644000Y-106244000D01*
X200544000Y-106244000D01*
X200544000Y-105084000D01*
X200544000Y-105084000D01*
G37*
D17*
X201594000Y-111664000D03*
D16*
G36*
X200544000Y-111084000D02*
X202644000Y-111084000D01*
X202644000Y-112244000D01*
X200544000Y-112244000D01*
X200544000Y-111084000D01*
X200544000Y-111084000D01*
G37*
D17*
X201594000Y-109264000D03*
D16*
G36*
X200544000Y-108684000D02*
X202644000Y-108684000D01*
X202644000Y-109844000D01*
X200544000Y-109844000D01*
X200544000Y-108684000D01*
X200544000Y-108684000D01*
G37*
D17*
X201594000Y-110464000D03*
D16*
G36*
X200544000Y-109884000D02*
X202644000Y-109884000D01*
X202644000Y-111044000D01*
X200544000Y-111044000D01*
X200544000Y-109884000D01*
X200544000Y-109884000D01*
G37*
D17*
X201594000Y-108064000D03*
D16*
G36*
X200544000Y-107484000D02*
X202644000Y-107484000D01*
X202644000Y-108644000D01*
X200544000Y-108644000D01*
X200544000Y-107484000D01*
X200544000Y-107484000D01*
G37*
D17*
X201594000Y-118864000D03*
D16*
G36*
X200544000Y-118284000D02*
X202644000Y-118284000D01*
X202644000Y-119444000D01*
X200544000Y-119444000D01*
X200544000Y-118284000D01*
X200544000Y-118284000D01*
G37*
D17*
X201594000Y-116464000D03*
D16*
G36*
X200544000Y-115884000D02*
X202644000Y-115884000D01*
X202644000Y-117044000D01*
X200544000Y-117044000D01*
X200544000Y-115884000D01*
X200544000Y-115884000D01*
G37*
D17*
X201594000Y-117664000D03*
D16*
G36*
X200544000Y-117084000D02*
X202644000Y-117084000D01*
X202644000Y-118244000D01*
X200544000Y-118244000D01*
X200544000Y-117084000D01*
X200544000Y-117084000D01*
G37*
D17*
X201594000Y-114064000D03*
D16*
G36*
X200544000Y-113484000D02*
X202644000Y-113484000D01*
X202644000Y-114644000D01*
X200544000Y-114644000D01*
X200544000Y-113484000D01*
X200544000Y-113484000D01*
G37*
D17*
X201594000Y-115264000D03*
D16*
G36*
X200544000Y-114684000D02*
X202644000Y-114684000D01*
X202644000Y-115844000D01*
X200544000Y-115844000D01*
X200544000Y-114684000D01*
X200544000Y-114684000D01*
G37*
D17*
X201594000Y-112864000D03*
D16*
G36*
X200544000Y-112284000D02*
X202644000Y-112284000D01*
X202644000Y-113444000D01*
X200544000Y-113444000D01*
X200544000Y-112284000D01*
X200544000Y-112284000D01*
G37*
D17*
X187294000Y-114064000D03*
D16*
G36*
X186244000Y-113484000D02*
X188344000Y-113484000D01*
X188344000Y-114644000D01*
X186244000Y-114644000D01*
X186244000Y-113484000D01*
X186244000Y-113484000D01*
G37*
D17*
X187294000Y-122464000D03*
D16*
G36*
X186244000Y-121884000D02*
X188344000Y-121884000D01*
X188344000Y-123044000D01*
X186244000Y-123044000D01*
X186244000Y-121884000D01*
X186244000Y-121884000D01*
G37*
D17*
X187294000Y-117664000D03*
D16*
G36*
X186244000Y-117084000D02*
X188344000Y-117084000D01*
X188344000Y-118244000D01*
X186244000Y-118244000D01*
X186244000Y-117084000D01*
X186244000Y-117084000D01*
G37*
D17*
X187294000Y-111664000D03*
D16*
G36*
X186244000Y-111084000D02*
X188344000Y-111084000D01*
X188344000Y-112244000D01*
X186244000Y-112244000D01*
X186244000Y-111084000D01*
X186244000Y-111084000D01*
G37*
D17*
X187294000Y-118864000D03*
D16*
G36*
X186244000Y-118284000D02*
X188344000Y-118284000D01*
X188344000Y-119444000D01*
X186244000Y-119444000D01*
X186244000Y-118284000D01*
X186244000Y-118284000D01*
G37*
D17*
X187294000Y-112864000D03*
D16*
G36*
X186244000Y-112284000D02*
X188344000Y-112284000D01*
X188344000Y-113444000D01*
X186244000Y-113444000D01*
X186244000Y-112284000D01*
X186244000Y-112284000D01*
G37*
D17*
X187294000Y-109264000D03*
D16*
G36*
X186244000Y-108684000D02*
X188344000Y-108684000D01*
X188344000Y-109844000D01*
X186244000Y-109844000D01*
X186244000Y-108684000D01*
X186244000Y-108684000D01*
G37*
D17*
X187294000Y-120064000D03*
D16*
G36*
X186244000Y-119484000D02*
X188344000Y-119484000D01*
X188344000Y-120644000D01*
X186244000Y-120644000D01*
X186244000Y-119484000D01*
X186244000Y-119484000D01*
G37*
D17*
X187294000Y-115264000D03*
D16*
G36*
X186244000Y-114684000D02*
X188344000Y-114684000D01*
X188344000Y-115844000D01*
X186244000Y-115844000D01*
X186244000Y-114684000D01*
X186244000Y-114684000D01*
G37*
D17*
X187294000Y-110464000D03*
D16*
G36*
X186244000Y-109884000D02*
X188344000Y-109884000D01*
X188344000Y-111044000D01*
X186244000Y-111044000D01*
X186244000Y-109884000D01*
X186244000Y-109884000D01*
G37*
D17*
X187294000Y-108064000D03*
D16*
G36*
X186244000Y-107484000D02*
X188344000Y-107484000D01*
X188344000Y-108644000D01*
X186244000Y-108644000D01*
X186244000Y-107484000D01*
X186244000Y-107484000D01*
G37*
D17*
X187294000Y-121264000D03*
D16*
G36*
X186244000Y-120684000D02*
X188344000Y-120684000D01*
X188344000Y-121844000D01*
X186244000Y-121844000D01*
X186244000Y-120684000D01*
X186244000Y-120684000D01*
G37*
D17*
X187294000Y-116464000D03*
D16*
G36*
X186244000Y-115884000D02*
X188344000Y-115884000D01*
X188344000Y-117044000D01*
X186244000Y-117044000D01*
X186244000Y-115884000D01*
X186244000Y-115884000D01*
G37*
D17*
X187294000Y-105664000D03*
D16*
G36*
X186244000Y-105084000D02*
X188344000Y-105084000D01*
X188344000Y-106244000D01*
X186244000Y-106244000D01*
X186244000Y-105084000D01*
X186244000Y-105084000D01*
G37*
D17*
X187294000Y-106864000D03*
D16*
G36*
X186244000Y-106284000D02*
X188344000Y-106284000D01*
X188344000Y-107444000D01*
X186244000Y-107444000D01*
X186244000Y-106284000D01*
X186244000Y-106284000D01*
G37*
D15*
X199844000Y-104914000D03*
D16*
G36*
X199219000Y-105964000D02*
X199219000Y-103864000D01*
X200469000Y-103864000D01*
X200469000Y-105964000D01*
X199219000Y-105964000D01*
X199219000Y-105964000D01*
G37*
D17*
X201594000Y-122464000D03*
D16*
G36*
X200544000Y-121884000D02*
X202644000Y-121884000D01*
X202644000Y-123044000D01*
X200544000Y-123044000D01*
X200544000Y-121884000D01*
X200544000Y-121884000D01*
G37*
D18*
X185222900Y-76840540D03*
X192222900Y-76840540D03*
D19*
X186222900Y-79540540D03*
X191222900Y-79540540D03*
D17*
X172130000Y-122464000D03*
D16*
G36*
X171080000Y-121884000D02*
X173180000Y-121884000D01*
X173180000Y-123044000D01*
X171080000Y-123044000D01*
X171080000Y-121884000D01*
X171080000Y-121884000D01*
G37*
D15*
X170380000Y-104914000D03*
D16*
G36*
X169755000Y-105964000D02*
X169755000Y-103864000D01*
X171005000Y-103864000D01*
X171005000Y-105964000D01*
X169755000Y-105964000D01*
X169755000Y-105964000D01*
G37*
D17*
X157830000Y-106864000D03*
D16*
G36*
X156780000Y-106284000D02*
X158880000Y-106284000D01*
X158880000Y-107444000D01*
X156780000Y-107444000D01*
X156780000Y-106284000D01*
X156780000Y-106284000D01*
G37*
D17*
X157830000Y-105664000D03*
D16*
G36*
X156780000Y-105084000D02*
X158880000Y-105084000D01*
X158880000Y-106244000D01*
X156780000Y-106244000D01*
X156780000Y-105084000D01*
X156780000Y-105084000D01*
G37*
D17*
X157830000Y-116464000D03*
D16*
G36*
X156780000Y-115884000D02*
X158880000Y-115884000D01*
X158880000Y-117044000D01*
X156780000Y-117044000D01*
X156780000Y-115884000D01*
X156780000Y-115884000D01*
G37*
D17*
X157830000Y-121264000D03*
D16*
G36*
X156780000Y-120684000D02*
X158880000Y-120684000D01*
X158880000Y-121844000D01*
X156780000Y-121844000D01*
X156780000Y-120684000D01*
X156780000Y-120684000D01*
G37*
D17*
X157830000Y-108064000D03*
D16*
G36*
X156780000Y-107484000D02*
X158880000Y-107484000D01*
X158880000Y-108644000D01*
X156780000Y-108644000D01*
X156780000Y-107484000D01*
X156780000Y-107484000D01*
G37*
D17*
X157830000Y-110464000D03*
D16*
G36*
X156780000Y-109884000D02*
X158880000Y-109884000D01*
X158880000Y-111044000D01*
X156780000Y-111044000D01*
X156780000Y-109884000D01*
X156780000Y-109884000D01*
G37*
D17*
X157830000Y-115264000D03*
D16*
G36*
X156780000Y-114684000D02*
X158880000Y-114684000D01*
X158880000Y-115844000D01*
X156780000Y-115844000D01*
X156780000Y-114684000D01*
X156780000Y-114684000D01*
G37*
D17*
X157830000Y-120064000D03*
D16*
G36*
X156780000Y-119484000D02*
X158880000Y-119484000D01*
X158880000Y-120644000D01*
X156780000Y-120644000D01*
X156780000Y-119484000D01*
X156780000Y-119484000D01*
G37*
D17*
X157830000Y-109264000D03*
D16*
G36*
X156780000Y-108684000D02*
X158880000Y-108684000D01*
X158880000Y-109844000D01*
X156780000Y-109844000D01*
X156780000Y-108684000D01*
X156780000Y-108684000D01*
G37*
D17*
X157830000Y-112864000D03*
D16*
G36*
X156780000Y-112284000D02*
X158880000Y-112284000D01*
X158880000Y-113444000D01*
X156780000Y-113444000D01*
X156780000Y-112284000D01*
X156780000Y-112284000D01*
G37*
D17*
X157830000Y-118864000D03*
D16*
G36*
X156780000Y-118284000D02*
X158880000Y-118284000D01*
X158880000Y-119444000D01*
X156780000Y-119444000D01*
X156780000Y-118284000D01*
X156780000Y-118284000D01*
G37*
D17*
X157830000Y-111664000D03*
D16*
G36*
X156780000Y-111084000D02*
X158880000Y-111084000D01*
X158880000Y-112244000D01*
X156780000Y-112244000D01*
X156780000Y-111084000D01*
X156780000Y-111084000D01*
G37*
D17*
X157830000Y-117664000D03*
D16*
G36*
X156780000Y-117084000D02*
X158880000Y-117084000D01*
X158880000Y-118244000D01*
X156780000Y-118244000D01*
X156780000Y-117084000D01*
X156780000Y-117084000D01*
G37*
D17*
X157830000Y-122464000D03*
D16*
G36*
X156780000Y-121884000D02*
X158880000Y-121884000D01*
X158880000Y-123044000D01*
X156780000Y-123044000D01*
X156780000Y-121884000D01*
X156780000Y-121884000D01*
G37*
D17*
X157830000Y-114064000D03*
D16*
G36*
X156780000Y-113484000D02*
X158880000Y-113484000D01*
X158880000Y-114644000D01*
X156780000Y-114644000D01*
X156780000Y-113484000D01*
X156780000Y-113484000D01*
G37*
D17*
X172130000Y-112864000D03*
D16*
G36*
X171080000Y-112284000D02*
X173180000Y-112284000D01*
X173180000Y-113444000D01*
X171080000Y-113444000D01*
X171080000Y-112284000D01*
X171080000Y-112284000D01*
G37*
D17*
X172130000Y-115264000D03*
D16*
G36*
X171080000Y-114684000D02*
X173180000Y-114684000D01*
X173180000Y-115844000D01*
X171080000Y-115844000D01*
X171080000Y-114684000D01*
X171080000Y-114684000D01*
G37*
D17*
X172130000Y-114064000D03*
D16*
G36*
X171080000Y-113484000D02*
X173180000Y-113484000D01*
X173180000Y-114644000D01*
X171080000Y-114644000D01*
X171080000Y-113484000D01*
X171080000Y-113484000D01*
G37*
D17*
X172130000Y-117664000D03*
D16*
G36*
X171080000Y-117084000D02*
X173180000Y-117084000D01*
X173180000Y-118244000D01*
X171080000Y-118244000D01*
X171080000Y-117084000D01*
X171080000Y-117084000D01*
G37*
D17*
X172130000Y-116464000D03*
D16*
G36*
X171080000Y-115884000D02*
X173180000Y-115884000D01*
X173180000Y-117044000D01*
X171080000Y-117044000D01*
X171080000Y-115884000D01*
X171080000Y-115884000D01*
G37*
D17*
X172130000Y-118864000D03*
D16*
G36*
X171080000Y-118284000D02*
X173180000Y-118284000D01*
X173180000Y-119444000D01*
X171080000Y-119444000D01*
X171080000Y-118284000D01*
X171080000Y-118284000D01*
G37*
D17*
X172130000Y-108064000D03*
D16*
G36*
X171080000Y-107484000D02*
X173180000Y-107484000D01*
X173180000Y-108644000D01*
X171080000Y-108644000D01*
X171080000Y-107484000D01*
X171080000Y-107484000D01*
G37*
D17*
X172130000Y-110464000D03*
D16*
G36*
X171080000Y-109884000D02*
X173180000Y-109884000D01*
X173180000Y-111044000D01*
X171080000Y-111044000D01*
X171080000Y-109884000D01*
X171080000Y-109884000D01*
G37*
D17*
X172130000Y-109264000D03*
D16*
G36*
X171080000Y-108684000D02*
X173180000Y-108684000D01*
X173180000Y-109844000D01*
X171080000Y-109844000D01*
X171080000Y-108684000D01*
X171080000Y-108684000D01*
G37*
D17*
X172130000Y-111664000D03*
D16*
G36*
X171080000Y-111084000D02*
X173180000Y-111084000D01*
X173180000Y-112244000D01*
X171080000Y-112244000D01*
X171080000Y-111084000D01*
X171080000Y-111084000D01*
G37*
D17*
X172130000Y-105664000D03*
D16*
G36*
X171080000Y-105084000D02*
X173180000Y-105084000D01*
X173180000Y-106244000D01*
X171080000Y-106244000D01*
X171080000Y-105084000D01*
X171080000Y-105084000D01*
G37*
D17*
X172130000Y-106864000D03*
D16*
G36*
X171080000Y-106284000D02*
X173180000Y-106284000D01*
X173180000Y-107444000D01*
X171080000Y-107444000D01*
X171080000Y-106284000D01*
X171080000Y-106284000D01*
G37*
D17*
X172130000Y-120064000D03*
D16*
G36*
X171080000Y-119484000D02*
X173180000Y-119484000D01*
X173180000Y-120644000D01*
X171080000Y-120644000D01*
X171080000Y-119484000D01*
X171080000Y-119484000D01*
G37*
D17*
X172130000Y-121264000D03*
D16*
G36*
X171080000Y-120684000D02*
X173180000Y-120684000D01*
X173180000Y-121844000D01*
X171080000Y-121844000D01*
X171080000Y-120684000D01*
X171080000Y-120684000D01*
G37*
D15*
X169180000Y-104914000D03*
D16*
G36*
X168555000Y-105964000D02*
X168555000Y-103864000D01*
X169805000Y-103864000D01*
X169805000Y-105964000D01*
X168555000Y-105964000D01*
X168555000Y-105964000D01*
G37*
D15*
X167980000Y-104914000D03*
D16*
G36*
X167355000Y-105964000D02*
X167355000Y-103864000D01*
X168605000Y-103864000D01*
X168605000Y-105964000D01*
X167355000Y-105964000D01*
X167355000Y-105964000D01*
G37*
D15*
X166780000Y-104914000D03*
D16*
G36*
X166155000Y-105964000D02*
X166155000Y-103864000D01*
X167405000Y-103864000D01*
X167405000Y-105964000D01*
X166155000Y-105964000D01*
X166155000Y-105964000D01*
G37*
D15*
X165580000Y-104914000D03*
D16*
G36*
X164955000Y-105964000D02*
X164955000Y-103864000D01*
X166205000Y-103864000D01*
X166205000Y-105964000D01*
X164955000Y-105964000D01*
X164955000Y-105964000D01*
G37*
D15*
X164380000Y-104914000D03*
D16*
G36*
X163755000Y-105964000D02*
X163755000Y-103864000D01*
X165005000Y-103864000D01*
X165005000Y-105964000D01*
X163755000Y-105964000D01*
X163755000Y-105964000D01*
G37*
D15*
X163180000Y-104914000D03*
D16*
G36*
X162555000Y-105964000D02*
X162555000Y-103864000D01*
X163805000Y-103864000D01*
X163805000Y-105964000D01*
X162555000Y-105964000D01*
X162555000Y-105964000D01*
G37*
D15*
X161980000Y-104914000D03*
D16*
G36*
X161355000Y-105964000D02*
X161355000Y-103864000D01*
X162605000Y-103864000D01*
X162605000Y-105964000D01*
X161355000Y-105964000D01*
X161355000Y-105964000D01*
G37*
D15*
X160780000Y-104914000D03*
D16*
G36*
X160155000Y-105964000D02*
X160155000Y-103864000D01*
X161405000Y-103864000D01*
X161405000Y-105964000D01*
X160155000Y-105964000D01*
X160155000Y-105964000D01*
G37*
D15*
X159580000Y-104914000D03*
D16*
G36*
X158955000Y-105964000D02*
X158955000Y-103864000D01*
X160205000Y-103864000D01*
X160205000Y-105964000D01*
X158955000Y-105964000D01*
X158955000Y-105964000D01*
G37*
D11*
X152400000Y-121920000D03*
D10*
X152400000Y-119380000D03*
X152400000Y-116840000D03*
X152400000Y-114300000D03*
X152400000Y-111760000D03*
X152400000Y-109220000D03*
X152400000Y-106680000D03*
X152400000Y-104140000D03*
X152400000Y-101600000D03*
X152400000Y-99060000D03*
X152400000Y-96520000D03*
X152400000Y-93980000D03*
X152400000Y-91440000D03*
X152400000Y-88900000D03*
X152400000Y-86360000D03*
X152400000Y-83820000D03*
X152400000Y-81280000D03*
X152400000Y-78740000D03*
X152400000Y-76200000D03*
D11*
X177800000Y-76200000D03*
D10*
X177800000Y-78740000D03*
X177800000Y-81280000D03*
X177800000Y-83820000D03*
X177800000Y-86360000D03*
X177800000Y-88900000D03*
X177800000Y-91440000D03*
X177800000Y-93980000D03*
X177800000Y-96520000D03*
X177800000Y-99060000D03*
X177800000Y-101600000D03*
X177800000Y-104140000D03*
X177800000Y-106680000D03*
X177800000Y-109220000D03*
X177800000Y-111760000D03*
X177800000Y-114300000D03*
X177800000Y-116840000D03*
X177800000Y-119380000D03*
D14*
X167386000Y-88646000D03*
D13*
X169926000Y-88646000D03*
D19*
X161758900Y-79540540D03*
X156758900Y-79540540D03*
D18*
X162758900Y-76840540D03*
X155758900Y-76840540D03*
D12*
X169926000Y-81946000D03*
X169926000Y-75946000D03*
M02*
