M48
;DRILL file {KiCad 5.0.0-rc2-dev-unknown-ce1bd4c~62~ubuntu16.04.1} date Thu Mar  8 22:04:43 2018
;FORMAT={-:-/ absolute / metric / decimal}
FMAT,2
METRIC,TZ
T1C0.400
T2C0.500
T3C0.550
T4C1.016
T5C1.200
%
G90
G05
M71
T1
X159.41Y-110.211
X159.41Y-159.995
X159.69Y-112.751
X159.69Y-162.535
X160.02Y-95.25
X160.02Y-145.034
X161.214Y-82.423
X161.214Y-132.207
X163.322Y-92.964
X163.322Y-142.748
X163.982Y-85.42
X163.982Y-135.204
X164.084Y-88.9
X164.084Y-138.684
X164.655Y-112.611
X164.655Y-162.395
X166.624Y-112.014
X166.624Y-161.798
X166.627Y-92.961
X166.627Y-142.745
X167.894Y-112.014
X167.894Y-161.798
X170.586Y-95.58
X170.586Y-145.364
X173.126Y-85.877
X173.126Y-135.661
X174.346Y-85.954
X174.346Y-135.738
X175.412Y-90.78
X175.412Y-140.564
X175.438Y-93.37
X175.438Y-143.154
X188.874Y-110.211
X188.874Y-159.995
X189.154Y-112.751
X189.154Y-162.535
X189.484Y-95.25
X189.484Y-145.034
X190.678Y-82.423
X190.678Y-132.207
X192.786Y-92.964
X192.786Y-142.748
X193.446Y-85.42
X193.446Y-135.204
X193.548Y-88.9
X193.548Y-138.684
X194.119Y-112.611
X194.119Y-162.395
X196.088Y-112.014
X196.088Y-161.798
X196.091Y-92.961
X196.091Y-142.745
X197.358Y-112.014
X197.358Y-161.798
X200.05Y-95.58
X200.05Y-145.364
X202.59Y-85.877
X202.59Y-135.661
X203.81Y-85.954
X203.81Y-135.738
X204.876Y-90.78
X204.876Y-140.564
X204.902Y-93.37
X204.902Y-143.154
X218.338Y-110.211
X218.338Y-159.995
X218.618Y-112.751
X218.618Y-162.535
X218.948Y-95.25
X218.948Y-145.034
X220.142Y-82.423
X220.142Y-132.207
X222.25Y-92.964
X222.25Y-142.748
X222.91Y-85.42
X222.91Y-135.204
X223.012Y-88.9
X223.012Y-138.684
X223.583Y-112.611
X223.583Y-162.395
X225.552Y-112.014
X225.552Y-161.798
X225.555Y-92.961
X225.555Y-142.745
X226.822Y-112.014
X226.822Y-161.798
X229.514Y-95.58
X229.514Y-145.364
X232.054Y-85.877
X232.054Y-135.661
X233.274Y-85.954
X233.274Y-135.738
X234.34Y-90.78
X234.34Y-140.564
X234.366Y-93.37
X234.366Y-143.154
T4
X236.728Y-125.984
X236.728Y-128.524
X236.728Y-131.064
X236.728Y-133.604
X236.728Y-136.144
X236.728Y-138.684
X236.728Y-141.224
X236.728Y-143.764
X236.728Y-146.304
X236.728Y-148.844
X236.728Y-151.384
X236.728Y-153.924
X236.728Y-156.464
X236.728Y-159.004
X236.728Y-161.544
X236.728Y-164.084
X236.728Y-166.624
X236.728Y-169.164
X152.4Y-125.984
X152.4Y-128.524
X152.4Y-131.064
X152.4Y-133.604
X152.4Y-136.144
X152.4Y-138.684
X152.4Y-141.224
X152.4Y-143.764
X152.4Y-146.304
X152.4Y-148.844
X152.4Y-151.384
X152.4Y-153.924
X152.4Y-156.464
X152.4Y-159.004
X152.4Y-161.544
X152.4Y-164.084
X152.4Y-166.624
X152.4Y-169.164
X152.4Y-171.704
X181.864Y-125.984
X181.864Y-128.524
X181.864Y-131.064
X181.864Y-133.604
X181.864Y-136.144
X181.864Y-138.684
X181.864Y-141.224
X181.864Y-143.764
X181.864Y-146.304
X181.864Y-148.844
X181.864Y-151.384
X181.864Y-153.924
X181.864Y-156.464
X181.864Y-159.004
X181.864Y-161.544
X181.864Y-164.084
X181.864Y-166.624
X181.864Y-169.164
X181.864Y-171.704
X177.8Y-76.2
X177.8Y-78.74
X177.8Y-81.28
X177.8Y-83.82
X177.8Y-86.36
X177.8Y-88.9
X177.8Y-91.44
X177.8Y-93.98
X177.8Y-96.52
X177.8Y-99.06
X177.8Y-101.6
X177.8Y-104.14
X177.8Y-106.68
X177.8Y-109.22
X177.8Y-111.76
X177.8Y-114.3
X177.8Y-116.84
X177.8Y-119.38
X207.264Y-125.984
X207.264Y-128.524
X207.264Y-131.064
X207.264Y-133.604
X207.264Y-136.144
X207.264Y-138.684
X207.264Y-141.224
X207.264Y-143.764
X207.264Y-146.304
X207.264Y-148.844
X207.264Y-151.384
X207.264Y-153.924
X207.264Y-156.464
X207.264Y-159.004
X207.264Y-161.544
X207.264Y-164.084
X207.264Y-166.624
X207.264Y-169.164
X226.314Y-88.646
X228.854Y-88.646
X207.264Y-76.2
X207.264Y-78.74
X207.264Y-81.28
X207.264Y-83.82
X207.264Y-86.36
X207.264Y-88.9
X207.264Y-91.44
X207.264Y-93.98
X207.264Y-96.52
X207.264Y-99.06
X207.264Y-101.6
X207.264Y-104.14
X207.264Y-106.68
X207.264Y-109.22
X207.264Y-111.76
X207.264Y-114.3
X207.264Y-116.84
X207.264Y-119.38
X167.386Y-88.646
X169.926Y-88.646
X236.728Y-76.2
X236.728Y-78.74
X236.728Y-81.28
X236.728Y-83.82
X236.728Y-86.36
X236.728Y-88.9
X236.728Y-91.44
X236.728Y-93.98
X236.728Y-96.52
X236.728Y-99.06
X236.728Y-101.6
X236.728Y-104.14
X236.728Y-106.68
X236.728Y-109.22
X236.728Y-111.76
X236.728Y-114.3
X236.728Y-116.84
X236.728Y-119.38
X152.4Y-76.2
X152.4Y-78.74
X152.4Y-81.28
X152.4Y-83.82
X152.4Y-86.36
X152.4Y-88.9
X152.4Y-91.44
X152.4Y-93.98
X152.4Y-96.52
X152.4Y-99.06
X152.4Y-101.6
X152.4Y-104.14
X152.4Y-106.68
X152.4Y-109.22
X152.4Y-111.76
X152.4Y-114.3
X152.4Y-116.84
X152.4Y-119.38
X152.4Y-121.92
X211.328Y-125.984
X211.328Y-128.524
X211.328Y-131.064
X211.328Y-133.604
X211.328Y-136.144
X211.328Y-138.684
X211.328Y-141.224
X211.328Y-143.764
X211.328Y-146.304
X211.328Y-148.844
X211.328Y-151.384
X211.328Y-153.924
X211.328Y-156.464
X211.328Y-159.004
X211.328Y-161.544
X211.328Y-164.084
X211.328Y-166.624
X211.328Y-169.164
X211.328Y-171.704
X226.314Y-138.43
X228.854Y-138.43
X196.85Y-138.43
X199.39Y-138.43
X196.85Y-88.646
X199.39Y-88.646
X181.864Y-76.2
X181.864Y-78.74
X181.864Y-81.28
X181.864Y-83.82
X181.864Y-86.36
X181.864Y-88.9
X181.864Y-91.44
X181.864Y-93.98
X181.864Y-96.52
X181.864Y-99.06
X181.864Y-101.6
X181.864Y-104.14
X181.864Y-106.68
X181.864Y-109.22
X181.864Y-111.76
X181.864Y-114.3
X181.864Y-116.84
X181.864Y-119.38
X181.864Y-121.92
X177.8Y-125.984
X177.8Y-128.524
X177.8Y-131.064
X177.8Y-133.604
X177.8Y-136.144
X177.8Y-138.684
X177.8Y-141.224
X177.8Y-143.764
X177.8Y-146.304
X177.8Y-148.844
X177.8Y-151.384
X177.8Y-153.924
X177.8Y-156.464
X177.8Y-159.004
X177.8Y-161.544
X177.8Y-164.084
X177.8Y-166.624
X177.8Y-169.164
X211.328Y-76.2
X211.328Y-78.74
X211.328Y-81.28
X211.328Y-83.82
X211.328Y-86.36
X211.328Y-88.9
X211.328Y-91.44
X211.328Y-93.98
X211.328Y-96.52
X211.328Y-99.06
X211.328Y-101.6
X211.328Y-104.14
X211.328Y-106.68
X211.328Y-109.22
X211.328Y-111.76
X211.328Y-114.3
X211.328Y-116.84
X211.328Y-119.38
X211.328Y-121.92
X167.386Y-138.43
X169.926Y-138.43
T5
X228.854Y-75.946
X228.854Y-81.946
X199.39Y-75.946
X199.39Y-81.946
X228.854Y-125.73
X228.854Y-131.73
X169.926Y-125.73
X169.926Y-131.73
X199.39Y-125.73
X199.39Y-131.73
X169.926Y-75.946
X169.926Y-81.946
T2
X155.759Y-126.3G85X155.759Y-126.95
G05
X162.759Y-126.3G85X162.759Y-126.95
G05
X155.759Y-76.516G85X155.759Y-77.166
G05
X162.759Y-76.516G85X162.759Y-77.166
G05
X214.687Y-126.3G85X214.687Y-126.95
G05
X221.687Y-126.3G85X221.687Y-126.95
G05
X185.223Y-126.3G85X185.223Y-126.95
G05
X192.223Y-126.3G85X192.223Y-126.95
G05
X214.687Y-76.516G85X214.687Y-77.166
G05
X221.687Y-76.516G85X221.687Y-77.166
G05
X185.223Y-76.516G85X185.223Y-77.166
G05
X192.223Y-76.516G85X192.223Y-77.166
G05
T3
X186.373Y-79.541G85X186.073Y-79.541
G05
X191.373Y-79.541G85X191.073Y-79.541
G05
X156.909Y-129.325G85X156.609Y-129.325
G05
X161.909Y-129.325G85X161.609Y-129.325
G05
X156.909Y-79.541G85X156.609Y-79.541
G05
X161.909Y-79.541G85X161.609Y-79.541
G05
X215.837Y-129.325G85X215.537Y-129.325
G05
X220.837Y-129.325G85X220.537Y-129.325
G05
X186.373Y-129.325G85X186.073Y-129.325
G05
X191.373Y-129.325G85X191.073Y-129.325
G05
X215.837Y-79.541G85X215.537Y-79.541
G05
X220.837Y-79.541G85X220.537Y-79.541
G05
T0
M30
