<?xml version="1.0" encoding="UTF-8"?>
<svg xmlns="http://www.w3.org/2000/svg" xmlns:xlink="http://www.w3.org/1999/xlink" width="303pt" height="160pt" viewBox="0 0 303 160" version="1.1">
<g id="surface10469">
<path style=" stroke:none;fill-rule:evenodd;fill:rgb(100%,100%,100%);fill-opacity:1;" d="M 23.382812 80.367188 C 23.382812 79.613281 22.25 79.613281 22.25 80.367188 C 22.25 81.125 23.382812 81.125 23.382812 80.367188 "/>
<path style=" stroke:none;fill-rule:evenodd;fill:rgb(100%,100%,100%);fill-opacity:1;" d="M 23.667969 101.234375 C 23.667969 100.476562 22.535156 100.476562 22.535156 101.234375 C 22.535156 101.988281 23.667969 101.988281 23.667969 101.234375 "/>
<path style=" stroke:none;fill-rule:evenodd;fill:rgb(100%,100%,100%);fill-opacity:1;" d="M 23.746094 104.128906 C 23.746094 103.371094 22.609375 103.371094 22.609375 104.128906 C 22.609375 104.882812 23.746094 104.882812 23.746094 104.128906 "/>
<path style=" stroke:none;fill-rule:evenodd;fill:rgb(100%,100%,100%);fill-opacity:1;" d="M 25.15625 86.128906 C 25.15625 85.371094 24.023438 85.371094 24.023438 86.128906 C 24.023438 86.882812 25.15625 86.882812 25.15625 86.128906 "/>
<path style=" stroke:none;fill-rule:evenodd;fill:rgb(100%,100%,100%);fill-opacity:1;" d="M 27.230469 96.605469 C 27.230469 95.847656 26.09375 95.847656 26.09375 96.605469 C 26.09375 97.359375 27.230469 97.359375 27.230469 96.605469 "/>
<path style=" stroke:none;fill-rule:evenodd;fill:rgb(100%,100%,100%);fill-opacity:1;" d="M 32.023438 86.128906 C 32.023438 85.371094 30.890625 85.371094 30.890625 86.128906 C 30.890625 86.882812 32.023438 86.882812 32.023438 86.128906 "/>
<path style=" stroke:none;fill-rule:evenodd;fill:rgb(100%,100%,100%);fill-opacity:1;" d="M 32.613281 107.140625 C 32.613281 106.386719 31.476562 106.386719 31.476562 107.140625 C 31.476562 107.898438 32.613281 107.898438 32.613281 107.140625 "/>
<path style=" stroke:none;fill-rule:evenodd;fill:rgb(100%,100%,100%);fill-opacity:1;" d="M 33.898438 84.613281 C 33.898438 83.855469 32.765625 83.855469 32.765625 84.613281 C 32.765625 85.367188 33.898438 85.367188 33.898438 84.613281 "/>
<path style=" stroke:none;fill-rule:evenodd;fill:rgb(100%,100%,100%);fill-opacity:1;" d="M 34.316406 105.433594 C 34.316406 104.679688 33.179688 104.679688 33.179688 105.433594 C 33.179688 106.191406 34.316406 106.191406 34.316406 105.433594 "/>
<path style=" stroke:none;fill-rule:evenodd;fill:rgb(100%,100%,100%);fill-opacity:1;" d="M 35.265625 47.96875 C 35.265625 47.210938 34.132812 47.210938 34.132812 47.96875 C 34.132812 48.722656 35.265625 48.722656 35.265625 47.96875 "/>
<path style=" stroke:none;fill-rule:evenodd;fill:rgb(100%,100%,100%);fill-opacity:1;" d="M 35.601562 82.90625 C 35.601562 82.152344 34.46875 82.152344 34.46875 82.90625 C 34.46875 83.664062 35.601562 83.664062 35.601562 82.90625 "/>
<path style=" stroke:none;fill-rule:evenodd;fill:rgb(100%,100%,100%);fill-opacity:1;" d="M 38.964844 76.226562 C 38.964844 75.46875 37.832031 75.46875 37.832031 76.226562 C 37.832031 76.984375 38.964844 76.984375 38.964844 76.226562 "/>
<path style=" stroke:none;fill-rule:evenodd;fill:rgb(100%,100%,100%);fill-opacity:1;" d="M 39.398438 96.746094 C 39.398438 95.992188 38.265625 95.992188 38.265625 96.746094 C 38.265625 97.503906 39.398438 97.503906 39.398438 96.746094 "/>
<path style=" stroke:none;fill-rule:evenodd;fill:rgb(100%,100%,100%);fill-opacity:1;" d="M 39.46875 57.867188 C 39.46875 57.109375 38.335938 57.109375 38.335938 57.867188 C 38.335938 58.621094 39.46875 58.621094 39.46875 57.867188 "/>
<path style=" stroke:none;fill-rule:evenodd;fill:rgb(100%,100%,100%);fill-opacity:1;" d="M 40.042969 107.40625 C 40.042969 106.648438 38.910156 106.648438 38.910156 107.40625 C 38.910156 108.160156 40.042969 108.160156 40.042969 107.40625 "/>
<path style=" stroke:none;fill-rule:evenodd;fill:rgb(100%,100%,100%);fill-opacity:1;" d="M 46.890625 44.964844 C 46.890625 44.207031 45.753906 44.207031 45.753906 44.964844 C 45.753906 45.71875 46.890625 45.71875 46.890625 44.964844 "/>
<path style=" stroke:none;fill-rule:evenodd;fill:rgb(100%,100%,100%);fill-opacity:1;" d="M 46.890625 47.371094 C 46.890625 46.617188 45.753906 46.617188 45.753906 47.371094 C 45.753906 48.128906 46.890625 48.128906 46.890625 47.371094 "/>
<path style=" stroke:none;fill-rule:evenodd;fill:rgb(100%,100%,100%);fill-opacity:1;" d="M 52.542969 96.207031 C 52.542969 95.453125 51.410156 95.453125 51.410156 96.207031 C 51.410156 96.964844 52.542969 96.964844 52.542969 96.207031 "/>
<path style=" stroke:none;fill-rule:evenodd;fill:rgb(100%,100%,100%);fill-opacity:1;" d="M 53.261719 73.167969 C 53.261719 72.410156 52.128906 72.410156 52.128906 73.167969 C 52.128906 73.925781 53.261719 73.925781 53.261719 73.167969 "/>
<path style=" stroke:none;fill-rule:evenodd;fill:rgb(100%,100%,100%);fill-opacity:1;" d="M 58.304688 99.808594 C 58.304688 99.050781 57.171875 99.050781 57.171875 99.808594 C 57.171875 100.5625 58.304688 100.5625 58.304688 99.808594 "/>
<path style=" stroke:none;fill-rule:evenodd;fill:rgb(100%,100%,100%);fill-opacity:1;" d="M 59.746094 77.488281 C 59.746094 76.730469 58.613281 76.730469 58.613281 77.488281 C 58.613281 78.242188 59.746094 78.242188 59.746094 77.488281 "/>
<path style=" stroke:none;fill-rule:evenodd;fill:rgb(100%,100%,100%);fill-opacity:1;" d="M 62.054688 42.929688 C 62.054688 42.171875 60.921875 42.171875 60.921875 42.929688 C 60.921875 43.683594 62.054688 43.683594 62.054688 42.929688 "/>
<path style=" stroke:none;fill-rule:evenodd;fill:rgb(100%,100%,100%);fill-opacity:1;" d="M 63.136719 54.808594 C 63.136719 54.050781 62 54.050781 62 54.808594 C 62 55.5625 63.136719 55.5625 63.136719 54.808594 "/>
<path style=" stroke:none;fill-rule:evenodd;fill:rgb(100%,100%,100%);fill-opacity:1;" d="M 63.34375 39.328125 C 63.34375 38.570312 62.210938 38.570312 62.210938 39.328125 C 62.210938 40.082031 63.34375 40.082031 63.34375 39.328125 "/>
<path style=" stroke:none;fill-rule:evenodd;fill:rgb(100%,100%,100%);fill-opacity:1;" d="M 65.296875 31.40625 C 65.296875 30.652344 64.160156 30.652344 64.160156 31.40625 C 64.160156 32.164062 65.296875 32.164062 65.296875 31.40625 "/>
<path style=" stroke:none;fill-rule:evenodd;fill:rgb(100%,100%,100%);fill-opacity:1;" d="M 65.667969 39.164062 C 65.667969 38.40625 64.53125 38.40625 64.53125 39.164062 C 64.53125 39.917969 65.667969 39.917969 65.667969 39.164062 "/>
<path style=" stroke:none;fill-rule:evenodd;fill:rgb(100%,100%,100%);fill-opacity:1;" d="M 69.421875 44.324219 C 69.421875 43.570312 68.289062 43.570312 68.289062 44.324219 C 68.289062 45.082031 69.421875 45.082031 69.421875 44.324219 "/>
<path style=" stroke:none;fill-rule:evenodd;fill:rgb(100%,100%,100%);fill-opacity:1;" d="M 69.421875 48.011719 C 69.421875 47.253906 68.289062 47.253906 68.289062 48.011719 C 68.289062 48.765625 69.421875 48.765625 69.421875 48.011719 "/>
<path style=" stroke:none;fill-rule:evenodd;fill:rgb(100%,100%,100%);fill-opacity:1;" d="M 70.542969 37.5 C 70.542969 36.742188 69.410156 36.742188 69.410156 37.5 C 69.410156 38.253906 70.542969 38.253906 70.542969 37.5 "/>
<path style=" stroke:none;fill-rule:evenodd;fill:rgb(100%,100%,100%);fill-opacity:1;" d="M 72.136719 123.566406 C 72.136719 122.8125 71 122.8125 71 123.566406 C 71 124.324219 72.136719 124.324219 72.136719 123.566406 "/>
<path style=" stroke:none;fill-rule:evenodd;fill:rgb(100%,100%,100%);fill-opacity:1;" d="M 73.105469 44.324219 C 73.105469 43.570312 71.972656 43.570312 71.972656 44.324219 C 71.972656 45.082031 73.105469 45.082031 73.105469 44.324219 "/>
<path style=" stroke:none;fill-rule:evenodd;fill:rgb(100%,100%,100%);fill-opacity:1;" d="M 73.105469 48.011719 C 73.105469 47.253906 71.972656 47.253906 71.972656 48.011719 C 71.972656 48.765625 73.105469 48.765625 73.105469 48.011719 "/>
<path style=" stroke:none;fill-rule:evenodd;fill:rgb(100%,100%,100%);fill-opacity:1;" d="M 76.253906 122.542969 C 76.253906 121.789062 75.121094 121.789062 75.121094 122.542969 C 75.121094 123.300781 76.253906 123.300781 76.253906 122.542969 "/>
<path style=" stroke:none;fill-rule:evenodd;fill:rgb(100%,100%,100%);fill-opacity:1;" d="M 76.691406 55.886719 C 76.691406 55.132812 75.558594 55.132812 75.558594 55.886719 C 75.558594 56.644531 76.691406 56.644531 76.691406 55.886719 "/>
<path style=" stroke:none;fill-rule:evenodd;fill:rgb(100%,100%,100%);fill-opacity:1;" d="M 77.023438 53.007812 C 77.023438 52.253906 75.890625 52.253906 75.890625 53.007812 C 75.890625 53.765625 77.023438 53.765625 77.023438 53.007812 "/>
<path style=" stroke:none;fill-rule:evenodd;fill:rgb(100%,100%,100%);fill-opacity:1;" d="M 77.636719 40.394531 C 77.636719 39.636719 76.503906 39.636719 76.503906 40.394531 C 76.503906 41.148438 77.636719 41.148438 77.636719 40.394531 "/>
<path style=" stroke:none;fill-rule:evenodd;fill:rgb(100%,100%,100%);fill-opacity:1;" d="M 80.054688 96.207031 C 80.054688 95.453125 78.921875 95.453125 78.921875 96.207031 C 78.921875 96.964844 80.054688 96.964844 80.054688 96.207031 "/>
<path style=" stroke:none;fill-rule:evenodd;fill:rgb(100%,100%,100%);fill-opacity:1;" d="M 80.285156 45.613281 C 80.285156 44.855469 79.152344 44.855469 79.152344 45.613281 C 79.152344 46.367188 80.285156 46.367188 80.285156 45.613281 "/>
<path style=" stroke:none;fill-rule:evenodd;fill:rgb(100%,100%,100%);fill-opacity:1;" d="M 87.253906 22.40625 C 87.253906 21.652344 86.121094 21.652344 86.121094 22.40625 C 86.121094 23.164062 87.253906 23.164062 87.253906 22.40625 "/>
<path style=" stroke:none;fill-rule:evenodd;fill:rgb(100%,100%,100%);fill-opacity:1;" d="M 87.824219 59.488281 C 87.824219 58.730469 86.691406 58.730469 86.691406 59.488281 C 86.691406 60.242188 87.824219 60.242188 87.824219 59.488281 "/>
<path style=" stroke:none;fill-rule:evenodd;fill:rgb(100%,100%,100%);fill-opacity:1;" d="M 87.976562 63.449219 C 87.976562 62.691406 86.839844 62.691406 86.839844 63.449219 C 86.839844 64.203125 87.976562 64.203125 87.976562 63.449219 "/>
<path style=" stroke:none;fill-rule:evenodd;fill:rgb(100%,100%,100%);fill-opacity:1;" d="M 88.953125 107.863281 C 88.953125 107.109375 87.820312 107.109375 87.820312 107.863281 C 87.820312 108.621094 88.953125 108.621094 88.953125 107.863281 "/>
<path style=" stroke:none;fill-rule:evenodd;fill:rgb(100%,100%,100%);fill-opacity:1;" d="M 94.09375 28.886719 C 94.09375 28.132812 92.960938 28.132812 92.960938 28.886719 C 92.960938 29.644531 94.09375 29.644531 94.09375 28.886719 "/>
<path style=" stroke:none;fill-rule:evenodd;fill:rgb(100%,100%,100%);fill-opacity:1;" d="M 103.273438 108.007812 C 103.273438 107.253906 102.140625 107.253906 102.140625 108.007812 C 102.140625 108.765625 103.273438 108.765625 103.273438 108.007812 "/>
<path style=" stroke:none;fill-rule:evenodd;fill:rgb(100%,100%,100%);fill-opacity:1;" d="M 103.9375 135.152344 C 103.9375 134.398438 102.804688 134.398438 102.804688 135.152344 C 102.804688 135.910156 103.9375 135.910156 103.9375 135.152344 "/>
<path style=" stroke:none;fill-rule:evenodd;fill:rgb(100%,100%,100%);fill-opacity:1;" d="M 107.054688 38.96875 C 107.054688 38.210938 105.921875 38.210938 105.921875 38.96875 C 105.921875 39.722656 107.054688 39.722656 107.054688 38.96875 "/>
<path style=" stroke:none;fill-rule:evenodd;fill:rgb(100%,100%,100%);fill-opacity:1;" d="M 107.414062 51.207031 C 107.414062 50.453125 106.28125 50.453125 106.28125 51.207031 C 106.28125 51.964844 107.414062 51.964844 107.414062 51.207031 "/>
<path style=" stroke:none;fill-rule:evenodd;fill:rgb(100%,100%,100%);fill-opacity:1;" d="M 107.414062 74.609375 C 107.414062 73.851562 106.28125 73.851562 106.28125 74.609375 C 106.28125 75.363281 107.414062 75.363281 107.414062 74.609375 "/>
<path style=" stroke:none;fill-rule:evenodd;fill:rgb(100%,100%,100%);fill-opacity:1;" d="M 107.773438 81.449219 C 107.773438 80.691406 106.640625 80.691406 106.640625 81.449219 C 106.640625 82.203125 107.773438 82.203125 107.773438 81.449219 "/>
<path style=" stroke:none;fill-rule:evenodd;fill:rgb(100%,100%,100%);fill-opacity:1;" d="M 107.773438 86.488281 C 107.773438 85.730469 106.640625 85.730469 106.640625 86.488281 C 106.640625 87.242188 107.773438 87.242188 107.773438 86.488281 "/>
<path style=" stroke:none;fill-rule:evenodd;fill:rgb(100%,100%,100%);fill-opacity:1;" d="M 109.933594 96.929688 C 109.933594 96.171875 108.800781 96.171875 108.800781 96.929688 C 108.800781 97.683594 109.933594 97.683594 109.933594 96.929688 "/>
<path style=" stroke:none;fill-rule:evenodd;fill:rgb(100%,100%,100%);fill-opacity:1;" d="M 113.175781 59.128906 C 113.175781 58.371094 112.042969 58.371094 112.042969 59.128906 C 112.042969 59.882812 113.175781 59.882812 113.175781 59.128906 "/>
<path style=" stroke:none;fill-rule:evenodd;fill:rgb(100%,100%,100%);fill-opacity:1;" d="M 114.976562 68.847656 C 114.976562 68.09375 113.839844 68.09375 113.839844 68.847656 C 113.839844 69.605469 114.976562 69.605469 114.976562 68.847656 "/>
<path style=" stroke:none;fill-rule:evenodd;fill:rgb(100%,100%,100%);fill-opacity:1;" d="M 115.765625 86.851562 C 115.765625 86.09375 114.632812 86.09375 114.632812 86.851562 C 114.632812 87.605469 115.765625 87.605469 115.765625 86.851562 "/>
<path style=" stroke:none;fill-rule:evenodd;fill:rgb(100%,100%,100%);fill-opacity:1;" d="M 116.414062 93.6875 C 116.414062 92.933594 115.28125 92.933594 115.28125 93.6875 C 115.28125 94.445312 116.414062 94.445312 116.414062 93.6875 "/>
<path style=" stroke:none;fill-rule:evenodd;fill:rgb(100%,100%,100%);fill-opacity:1;" d="M 118.171875 111.871094 C 118.171875 111.113281 117.039062 111.113281 117.039062 111.871094 C 117.039062 112.625 118.171875 112.625 118.171875 111.871094 "/>
<path style=" stroke:none;fill-rule:evenodd;fill:rgb(100%,100%,100%);fill-opacity:1;" d="M 120.015625 80.007812 C 120.015625 79.253906 118.882812 79.253906 118.882812 80.007812 C 118.882812 80.765625 120.015625 80.765625 120.015625 80.007812 "/>
<path style=" stroke:none;fill-rule:evenodd;fill:rgb(100%,100%,100%);fill-opacity:1;" d="M 121.117188 68.824219 C 121.117188 68.070312 119.984375 68.070312 119.984375 68.824219 C 119.984375 69.582031 121.117188 69.582031 121.117188 68.824219 "/>
<path style=" stroke:none;fill-rule:evenodd;fill:rgb(100%,100%,100%);fill-opacity:1;" d="M 125.855469 62.289062 C 125.855469 61.53125 124.71875 61.53125 124.71875 62.289062 C 124.71875 63.042969 125.855469 63.042969 125.855469 62.289062 "/>
<path style=" stroke:none;fill-rule:evenodd;fill:rgb(100%,100%,100%);fill-opacity:1;" d="M 126.777344 59.058594 C 126.777344 58.300781 125.640625 58.300781 125.640625 59.058594 C 125.640625 59.8125 126.777344 59.8125 126.777344 59.058594 "/>
<path style=" stroke:none;fill-rule:evenodd;fill:rgb(100%,100%,100%);fill-opacity:1;" d="M 126.855469 30.945312 C 126.855469 30.191406 125.722656 30.191406 125.722656 30.945312 C 125.722656 31.703125 126.855469 31.703125 126.855469 30.945312 "/>
<path style=" stroke:none;fill-rule:evenodd;fill:rgb(100%,100%,100%);fill-opacity:1;" d="M 128.09375 41.597656 C 128.09375 40.839844 126.960938 40.839844 126.960938 41.597656 C 126.960938 42.351562 128.09375 42.351562 128.09375 41.597656 "/>
<path style=" stroke:none;fill-rule:evenodd;fill:rgb(100%,100%,100%);fill-opacity:1;" d="M 128.453125 84.726562 C 128.453125 83.96875 127.320312 83.96875 127.320312 84.726562 C 127.320312 85.480469 128.453125 85.480469 128.453125 84.726562 "/>
<path style=" stroke:none;fill-rule:evenodd;fill:rgb(100%,100%,100%);fill-opacity:1;" d="M 128.617188 43.792969 C 128.617188 43.035156 127.484375 43.035156 127.484375 43.792969 C 127.484375 44.546875 128.617188 44.546875 128.617188 43.792969 "/>
<path style=" stroke:none;fill-rule:evenodd;fill:rgb(100%,100%,100%);fill-opacity:1;" d="M 132.515625 86.851562 C 132.515625 86.09375 131.382812 86.09375 131.382812 86.851562 C 131.382812 87.605469 132.515625 87.605469 132.515625 86.851562 "/>
<path style=" stroke:none;fill-rule:evenodd;fill:rgb(100%,100%,100%);fill-opacity:1;" d="M 132.679688 84.726562 C 132.679688 83.96875 131.546875 83.96875 131.546875 84.726562 C 131.546875 85.480469 132.679688 85.480469 132.679688 84.726562 "/>
<path style=" stroke:none;fill-rule:evenodd;fill:rgb(100%,100%,100%);fill-opacity:1;" d="M 132.976562 44.007812 C 132.976562 43.253906 131.839844 43.253906 131.839844 44.007812 C 131.839844 44.765625 132.976562 44.765625 132.976562 44.007812 "/>
<path style=" stroke:none;fill-rule:evenodd;fill:rgb(100%,100%,100%);fill-opacity:1;" d="M 135.992188 89.527344 C 135.992188 88.769531 134.855469 88.769531 134.855469 89.527344 C 134.855469 90.28125 135.992188 90.28125 135.992188 89.527344 "/>
<path style=" stroke:none;fill-rule:evenodd;fill:rgb(100%,100%,100%);fill-opacity:1;" d="M 136.277344 50.925781 C 136.277344 50.167969 135.144531 50.167969 135.144531 50.925781 C 135.144531 51.679688 136.277344 51.679688 136.277344 50.925781 "/>
<path style=" stroke:none;fill-rule:evenodd;fill:rgb(100%,100%,100%);fill-opacity:1;" d="M 136.800781 72.941406 C 136.800781 72.183594 135.664062 72.183594 135.664062 72.941406 C 135.664062 73.695312 136.800781 73.695312 136.800781 72.941406 "/>
<path style=" stroke:none;fill-rule:evenodd;fill:rgb(100%,100%,100%);fill-opacity:1;" d="M 137.441406 49.144531 C 137.441406 48.386719 136.304688 48.386719 136.304688 49.144531 C 136.304688 49.898438 137.441406 49.898438 137.441406 49.144531 "/>
<path style=" stroke:none;fill-rule:evenodd;fill:rgb(100%,100%,100%);fill-opacity:1;" d="M 137.675781 74.878906 C 137.675781 74.121094 136.542969 74.121094 136.542969 74.878906 C 136.542969 75.632812 137.675781 75.632812 137.675781 74.878906 "/>
<path style=" stroke:none;fill-rule:evenodd;fill:rgb(100%,100%,100%);fill-opacity:1;" d="M 138.015625 91.839844 C 138.015625 91.082031 136.882812 91.082031 136.882812 91.839844 C 136.882812 92.597656 138.015625 92.597656 138.015625 91.839844 "/>
<path style=" stroke:none;fill-rule:evenodd;fill:rgb(100%,100%,100%);fill-opacity:1;" d="M 138.058594 37.625 C 138.058594 36.867188 136.921875 36.867188 136.921875 37.625 C 136.921875 38.378906 138.058594 38.378906 138.058594 37.625 "/>
<path style=" stroke:none;fill-rule:evenodd;fill:rgb(100%,100%,100%);fill-opacity:1;" d="M 139.164062 47.734375 C 139.164062 46.976562 138.03125 46.976562 138.03125 47.734375 C 138.03125 48.488281 139.164062 48.488281 139.164062 47.734375 "/>
<path style=" stroke:none;fill-rule:evenodd;fill:rgb(100%,100%,100%);fill-opacity:1;" d="M 139.453125 33.566406 C 139.453125 32.8125 138.320312 32.8125 138.320312 33.566406 C 138.320312 34.324219 139.453125 34.324219 139.453125 33.566406 "/>
<path style=" stroke:none;fill-rule:evenodd;fill:rgb(100%,100%,100%);fill-opacity:1;" d="M 139.625 67.0625 C 139.625 66.304688 138.492188 66.304688 138.492188 67.0625 C 138.492188 67.816406 139.625 67.816406 139.625 67.0625 "/>
<path style=" stroke:none;fill-rule:evenodd;fill:rgb(100%,100%,100%);fill-opacity:1;" d="M 139.683594 75.582031 C 139.683594 74.828125 138.546875 74.828125 138.546875 75.582031 C 138.546875 76.339844 139.683594 76.339844 139.683594 75.582031 "/>
<path style=" stroke:none;fill-rule:evenodd;fill:rgb(100%,100%,100%);fill-opacity:1;" d="M 139.816406 69.238281 C 139.816406 68.480469 138.679688 68.480469 138.679688 69.238281 C 138.679688 69.992188 139.816406 69.992188 139.816406 69.238281 "/>
<path style=" stroke:none;fill-rule:evenodd;fill:rgb(100%,100%,100%);fill-opacity:1;" d="M 139.816406 115.648438 C 139.816406 114.890625 138.679688 114.890625 138.679688 115.648438 C 138.679688 116.402344 139.816406 116.402344 139.816406 115.648438 "/>
<path style=" stroke:none;fill-rule:evenodd;fill:rgb(100%,100%,100%);fill-opacity:1;" d="M 141.378906 49.828125 C 141.378906 49.070312 140.246094 49.070312 140.246094 49.828125 C 140.246094 50.582031 141.378906 50.582031 141.378906 49.828125 "/>
<path style=" stroke:none;fill-rule:evenodd;fill:rgb(100%,100%,100%);fill-opacity:1;" d="M 141.613281 96.566406 C 141.613281 95.8125 140.480469 95.8125 140.480469 96.566406 C 140.480469 97.324219 141.613281 97.324219 141.613281 96.566406 "/>
<path style=" stroke:none;fill-rule:evenodd;fill:rgb(100%,100%,100%);fill-opacity:1;" d="M 142.25 47.835938 C 142.25 47.082031 141.117188 47.082031 141.117188 47.835938 C 141.117188 48.59375 142.25 48.59375 142.25 47.835938 "/>
<path style=" stroke:none;fill-rule:evenodd;fill:rgb(100%,100%,100%);fill-opacity:1;" d="M 144.847656 54.089844 C 144.847656 53.332031 143.710938 53.332031 143.710938 54.089844 C 143.710938 54.84375 144.847656 54.84375 144.847656 54.089844 "/>
<path style=" stroke:none;fill-rule:evenodd;fill:rgb(100%,100%,100%);fill-opacity:1;" d="M 145.164062 49.089844 C 145.164062 48.335938 144.03125 48.335938 144.03125 49.089844 C 144.03125 49.847656 145.164062 49.847656 145.164062 49.089844 "/>
<path style=" stroke:none;fill-rule:evenodd;fill:rgb(100%,100%,100%);fill-opacity:1;" d="M 145.214844 112.40625 C 145.214844 111.652344 144.082031 111.652344 144.082031 112.40625 C 144.082031 113.164062 145.214844 113.164062 145.214844 112.40625 "/>
<path style=" stroke:none;fill-rule:evenodd;fill:rgb(100%,100%,100%);fill-opacity:1;" d="M 146.199219 46.203125 C 146.199219 45.449219 145.066406 45.449219 145.066406 46.203125 C 145.066406 46.960938 146.199219 46.960938 146.199219 46.203125 "/>
<path style=" stroke:none;fill-rule:evenodd;fill:rgb(100%,100%,100%);fill-opacity:1;" d="M 147.1875 55.097656 C 147.1875 54.339844 146.054688 54.339844 146.054688 55.097656 C 146.054688 55.851562 147.1875 55.851562 147.1875 55.097656 "/>
<path style=" stroke:none;fill-rule:evenodd;fill:rgb(100%,100%,100%);fill-opacity:1;" d="M 148.292969 52.074219 C 148.292969 51.316406 147.160156 51.316406 147.160156 52.074219 C 147.160156 52.828125 148.292969 52.828125 148.292969 52.074219 "/>
<path style=" stroke:none;fill-rule:evenodd;fill:rgb(100%,100%,100%);fill-opacity:1;" d="M 150.0625 49.316406 C 150.0625 48.558594 148.929688 48.558594 148.929688 49.316406 C 148.929688 50.070312 150.0625 50.070312 150.0625 49.316406 "/>
<path style=" stroke:none;fill-rule:evenodd;fill:rgb(100%,100%,100%);fill-opacity:1;" d="M 150.6875 123.144531 C 150.6875 122.386719 149.554688 122.386719 149.554688 123.144531 C 149.554688 123.898438 150.6875 123.898438 150.6875 123.144531 "/>
<path style=" stroke:none;fill-rule:evenodd;fill:rgb(100%,100%,100%);fill-opacity:1;" d="M 150.691406 125.457031 C 150.691406 124.703125 149.558594 124.703125 149.558594 125.457031 C 149.558594 126.214844 150.691406 126.214844 150.691406 125.457031 "/>
<path style=" stroke:none;fill-rule:evenodd;fill:rgb(100%,100%,100%);fill-opacity:1;" d="M 150.773438 127.6875 C 150.773438 126.929688 149.640625 126.929688 149.640625 127.6875 C 149.640625 128.441406 150.773438 128.441406 150.773438 127.6875 "/>
<path style=" stroke:none;fill-rule:evenodd;fill:rgb(100%,100%,100%);fill-opacity:1;" d="M 153.371094 48.523438 C 153.371094 47.769531 152.238281 47.769531 152.238281 48.523438 C 152.238281 49.28125 153.371094 49.28125 153.371094 48.523438 "/>
<path style=" stroke:none;fill-rule:evenodd;fill:rgb(100%,100%,100%);fill-opacity:1;" d="M 153.398438 46.398438 C 153.398438 45.640625 152.265625 45.640625 152.265625 46.398438 C 152.265625 47.152344 153.398438 47.152344 153.398438 46.398438 "/>
<path style=" stroke:none;fill-rule:evenodd;fill:rgb(100%,100%,100%);fill-opacity:1;" d="M 154.214844 29.082031 C 154.214844 28.328125 153.082031 28.328125 153.082031 29.082031 C 153.082031 29.839844 154.214844 29.839844 154.214844 29.082031 "/>
<path style=" stroke:none;fill-rule:evenodd;fill:rgb(100%,100%,100%);fill-opacity:1;" d="M 155.546875 69.175781 C 155.546875 68.417969 154.414062 68.417969 154.414062 69.175781 C 154.414062 69.929688 155.546875 69.929688 155.546875 69.175781 "/>
<path style=" stroke:none;fill-rule:evenodd;fill:rgb(100%,100%,100%);fill-opacity:1;" d="M 155.648438 48.472656 C 155.648438 47.714844 154.511719 47.714844 154.511719 48.472656 C 154.511719 49.226562 155.648438 49.226562 155.648438 48.472656 "/>
<path style=" stroke:none;fill-rule:evenodd;fill:rgb(100%,100%,100%);fill-opacity:1;" d="M 156.226562 55.527344 C 156.226562 54.773438 155.089844 54.773438 155.089844 55.527344 C 155.089844 56.285156 156.226562 56.285156 156.226562 55.527344 "/>
<path style=" stroke:none;fill-rule:evenodd;fill:rgb(100%,100%,100%);fill-opacity:1;" d="M 156.226562 60.207031 C 156.226562 59.449219 155.089844 59.449219 155.089844 60.207031 C 155.089844 60.960938 156.226562 60.960938 156.226562 60.207031 "/>
<path style=" stroke:none;fill-rule:evenodd;fill:rgb(100%,100%,100%);fill-opacity:1;" d="M 156.484375 79.054688 C 156.484375 78.300781 155.351562 78.300781 155.351562 79.054688 C 155.351562 79.8125 156.484375 79.8125 156.484375 79.054688 "/>
<path style=" stroke:none;fill-rule:evenodd;fill:rgb(100%,100%,100%);fill-opacity:1;" d="M 157.050781 74.246094 C 157.050781 73.492188 155.917969 73.492188 155.917969 74.246094 C 155.917969 75.003906 157.050781 75.003906 157.050781 74.246094 "/>
<path style=" stroke:none;fill-rule:evenodd;fill:rgb(100%,100%,100%);fill-opacity:1;" d="M 157.09375 27.519531 C 157.09375 26.761719 155.960938 26.761719 155.960938 27.519531 C 155.960938 28.273438 157.09375 28.273438 157.09375 27.519531 "/>
<path style=" stroke:none;fill-rule:evenodd;fill:rgb(100%,100%,100%);fill-opacity:1;" d="M 157.558594 76.769531 C 157.558594 76.011719 156.421875 76.011719 156.421875 76.769531 C 156.421875 77.523438 157.558594 77.523438 157.558594 76.769531 "/>
<path style=" stroke:none;fill-rule:evenodd;fill:rgb(100%,100%,100%);fill-opacity:1;" d="M 157.753906 71.273438 C 157.753906 70.515625 156.621094 70.515625 156.621094 71.273438 C 156.621094 72.027344 157.753906 72.027344 157.753906 71.273438 "/>
<path style=" stroke:none;fill-rule:evenodd;fill:rgb(100%,100%,100%);fill-opacity:1;" d="M 158.023438 48.398438 C 158.023438 47.644531 156.890625 47.644531 156.890625 48.398438 C 156.890625 49.15625 158.023438 49.15625 158.023438 48.398438 "/>
<path style=" stroke:none;fill-rule:evenodd;fill:rgb(100%,100%,100%);fill-opacity:1;" d="M 158.175781 37.527344 C 158.175781 36.773438 157.042969 36.773438 157.042969 37.527344 C 157.042969 38.285156 158.175781 38.285156 158.175781 37.527344 "/>
<path style=" stroke:none;fill-rule:evenodd;fill:rgb(100%,100%,100%);fill-opacity:1;" d="M 158.359375 51.308594 C 158.359375 50.554688 157.226562 50.554688 157.226562 51.308594 C 157.226562 52.066406 158.359375 52.066406 158.359375 51.308594 "/>
<path style=" stroke:none;fill-rule:evenodd;fill:rgb(100%,100%,100%);fill-opacity:1;" d="M 158.996094 73.308594 C 158.996094 72.550781 157.859375 72.550781 157.859375 73.308594 C 157.859375 74.0625 158.996094 74.0625 158.996094 73.308594 "/>
<path style=" stroke:none;fill-rule:evenodd;fill:rgb(100%,100%,100%);fill-opacity:1;" d="M 159.085938 80.761719 C 159.085938 80.007812 157.949219 80.007812 157.949219 80.761719 C 157.949219 81.519531 159.085938 81.519531 159.085938 80.761719 "/>
<path style=" stroke:none;fill-rule:evenodd;fill:rgb(100%,100%,100%);fill-opacity:1;" d="M 159.234375 68.449219 C 159.234375 67.695312 158.101562 67.695312 158.101562 68.449219 C 158.101562 69.207031 159.234375 69.207031 159.234375 68.449219 "/>
<path style=" stroke:none;fill-rule:evenodd;fill:rgb(100%,100%,100%);fill-opacity:1;" d="M 160.578125 78.53125 C 160.578125 77.773438 159.445312 77.773438 159.445312 78.53125 C 159.445312 79.285156 160.578125 79.285156 160.578125 78.53125 "/>
<path style=" stroke:none;fill-rule:evenodd;fill:rgb(100%,100%,100%);fill-opacity:1;" d="M 160.859375 67.078125 C 160.859375 66.324219 159.726562 66.324219 159.726562 67.078125 C 159.726562 67.835938 160.859375 67.835938 160.859375 67.078125 "/>
<path style=" stroke:none;fill-rule:evenodd;fill:rgb(100%,100%,100%);fill-opacity:1;" d="M 161.082031 64.277344 C 161.082031 63.519531 159.945312 63.519531 159.945312 64.277344 C 159.945312 65.03125 161.082031 65.03125 161.082031 64.277344 "/>
<path style=" stroke:none;fill-rule:evenodd;fill:rgb(100%,100%,100%);fill-opacity:1;" d="M 162.597656 65.832031 C 162.597656 65.074219 161.464844 65.074219 161.464844 65.832031 C 161.464844 66.585938 162.597656 66.585938 162.597656 65.832031 "/>
<path style=" stroke:none;fill-rule:evenodd;fill:rgb(100%,100%,100%);fill-opacity:1;" d="M 163.144531 63.769531 C 163.144531 63.011719 162.011719 63.011719 162.011719 63.769531 C 162.011719 64.523438 163.144531 64.523438 163.144531 63.769531 "/>
<path style=" stroke:none;fill-rule:evenodd;fill:rgb(100%,100%,100%);fill-opacity:1;" d="M 163.28125 59.742188 C 163.28125 58.984375 162.144531 58.984375 162.144531 59.742188 C 162.144531 60.496094 163.28125 60.496094 163.28125 59.742188 "/>
<path style=" stroke:none;fill-rule:evenodd;fill:rgb(100%,100%,100%);fill-opacity:1;" d="M 163.457031 57.363281 C 163.457031 56.609375 162.324219 56.609375 162.324219 57.363281 C 162.324219 58.121094 163.457031 58.121094 163.457031 57.363281 "/>
<path style=" stroke:none;fill-rule:evenodd;fill:rgb(100%,100%,100%);fill-opacity:1;" d="M 164.828125 65.066406 C 164.828125 64.3125 163.695312 64.3125 163.695312 65.066406 C 163.695312 65.824219 164.828125 65.824219 164.828125 65.066406 "/>
<path style=" stroke:none;fill-rule:evenodd;fill:rgb(100%,100%,100%);fill-opacity:1;" d="M 167.175781 76.046875 C 167.175781 75.292969 166.042969 75.292969 166.042969 76.046875 C 166.042969 76.804688 167.175781 76.804688 167.175781 76.046875 "/>
<path style=" stroke:none;fill-rule:evenodd;fill:rgb(100%,100%,100%);fill-opacity:1;" d="M 167.46875 45.46875 C 167.46875 44.710938 166.332031 44.710938 166.332031 45.46875 C 166.332031 46.222656 167.46875 46.222656 167.46875 45.46875 "/>
<path style=" stroke:none;fill-rule:evenodd;fill:rgb(100%,100%,100%);fill-opacity:1;" d="M 167.851562 52.136719 C 167.851562 51.382812 166.71875 51.382812 166.71875 52.136719 C 166.71875 52.894531 167.851562 52.894531 167.851562 52.136719 "/>
<path style=" stroke:none;fill-rule:evenodd;fill:rgb(100%,100%,100%);fill-opacity:1;" d="M 167.902344 79.0625 C 167.902344 78.304688 166.769531 78.304688 166.769531 79.0625 C 166.769531 79.816406 167.902344 79.816406 167.902344 79.0625 "/>
<path style=" stroke:none;fill-rule:evenodd;fill:rgb(100%,100%,100%);fill-opacity:1;" d="M 168.71875 81.023438 C 168.71875 80.265625 167.585938 80.265625 167.585938 81.023438 C 167.585938 81.777344 168.71875 81.777344 168.71875 81.023438 "/>
<path style=" stroke:none;fill-rule:evenodd;fill:rgb(100%,100%,100%);fill-opacity:1;" d="M 169.292969 48.101562 C 169.292969 47.34375 168.160156 47.34375 168.160156 48.101562 C 168.160156 48.855469 169.292969 48.855469 169.292969 48.101562 "/>
<path style=" stroke:none;fill-rule:evenodd;fill:rgb(100%,100%,100%);fill-opacity:1;" d="M 169.566406 45.148438 C 169.566406 44.390625 168.433594 44.390625 168.433594 45.148438 C 168.433594 45.902344 169.566406 45.902344 169.566406 45.148438 "/>
<path style=" stroke:none;fill-rule:evenodd;fill:rgb(100%,100%,100%);fill-opacity:1;" d="M 169.695312 67.40625 C 169.695312 66.652344 168.5625 66.652344 168.5625 67.40625 C 168.5625 68.164062 169.695312 68.164062 169.695312 67.40625 "/>
<path style=" stroke:none;fill-rule:evenodd;fill:rgb(100%,100%,100%);fill-opacity:1;" d="M 169.84375 31.925781 C 169.84375 31.167969 168.707031 31.167969 168.707031 31.925781 C 168.707031 32.679688 169.84375 32.679688 169.84375 31.925781 "/>
<path style=" stroke:none;fill-rule:evenodd;fill:rgb(100%,100%,100%);fill-opacity:1;" d="M 169.929688 52.589844 C 169.929688 51.835938 168.796875 51.835938 168.796875 52.589844 C 168.796875 53.347656 169.929688 53.347656 169.929688 52.589844 "/>
<path style=" stroke:none;fill-rule:evenodd;fill:rgb(100%,100%,100%);fill-opacity:1;" d="M 170.054688 79.289062 C 170.054688 78.53125 168.921875 78.53125 168.921875 79.289062 C 168.921875 80.042969 170.054688 80.042969 170.054688 79.289062 "/>
<path style=" stroke:none;fill-rule:evenodd;fill:rgb(100%,100%,100%);fill-opacity:1;" d="M 172.214844 38.246094 C 172.214844 37.492188 171.082031 37.492188 171.082031 38.246094 C 171.082031 39.003906 172.214844 39.003906 172.214844 38.246094 "/>
<path style=" stroke:none;fill-rule:evenodd;fill:rgb(100%,100%,100%);fill-opacity:1;" d="M 175.09375 90.449219 C 175.09375 89.691406 173.960938 89.691406 173.960938 90.449219 C 173.960938 91.203125 175.09375 91.203125 175.09375 90.449219 "/>
<path style=" stroke:none;fill-rule:evenodd;fill:rgb(100%,100%,100%);fill-opacity:1;" d="M 175.816406 41.847656 C 175.816406 41.09375 174.679688 41.09375 174.679688 41.847656 C 174.679688 42.605469 175.816406 42.605469 175.816406 41.847656 "/>
<path style=" stroke:none;fill-rule:evenodd;fill:rgb(100%,100%,100%);fill-opacity:1;" d="M 178.796875 68.421875 C 178.796875 67.664062 177.664062 67.664062 177.664062 68.421875 C 177.664062 69.175781 178.796875 69.175781 178.796875 68.421875 "/>
<path style=" stroke:none;fill-rule:evenodd;fill:rgb(100%,100%,100%);fill-opacity:1;" d="M 181.457031 52.578125 C 181.457031 51.820312 180.324219 51.820312 180.324219 52.578125 C 180.324219 53.332031 181.457031 53.332031 181.457031 52.578125 "/>
<path style=" stroke:none;fill-rule:evenodd;fill:rgb(100%,100%,100%);fill-opacity:1;" d="M 181.675781 54.738281 C 181.675781 53.980469 180.542969 53.980469 180.542969 54.738281 C 180.542969 55.492188 181.675781 55.492188 181.675781 54.738281 "/>
<path style=" stroke:none;fill-rule:evenodd;fill:rgb(100%,100%,100%);fill-opacity:1;" d="M 183.519531 57.625 C 183.519531 56.871094 182.386719 56.871094 182.386719 57.625 C 182.386719 58.382812 183.519531 58.382812 183.519531 57.625 "/>
<path style=" stroke:none;fill-rule:evenodd;fill:rgb(100%,100%,100%);fill-opacity:1;" d="M 183.726562 59.917969 C 183.726562 59.164062 182.59375 59.164062 182.59375 59.917969 C 182.59375 60.675781 183.726562 60.675781 183.726562 59.917969 "/>
<path style=" stroke:none;fill-rule:evenodd;fill:rgb(100%,100%,100%);fill-opacity:1;" d="M 184.195312 54.84375 C 184.195312 54.089844 183.0625 54.089844 183.0625 54.84375 C 183.0625 55.601562 184.195312 55.601562 184.195312 54.84375 "/>
<path style=" stroke:none;fill-rule:evenodd;fill:rgb(100%,100%,100%);fill-opacity:1;" d="M 185.175781 69.929688 C 185.175781 69.171875 184.042969 69.171875 184.042969 69.929688 C 184.042969 70.683594 185.175781 70.683594 185.175781 69.929688 "/>
<path style=" stroke:none;fill-rule:evenodd;fill:rgb(100%,100%,100%);fill-opacity:1;" d="M 185.535156 44.726562 C 185.535156 43.972656 184.402344 43.972656 184.402344 44.726562 C 184.402344 45.484375 185.535156 45.484375 185.535156 44.726562 "/>
<path style=" stroke:none;fill-rule:evenodd;fill:rgb(100%,100%,100%);fill-opacity:1;" d="M 206.054688 63.449219 C 206.054688 62.691406 204.921875 62.691406 204.921875 63.449219 C 204.921875 64.203125 206.054688 64.203125 206.054688 63.449219 "/>
<path style=" stroke:none;fill-rule:evenodd;fill:rgb(100%,100%,100%);fill-opacity:1;" d="M 206.414062 69.929688 C 206.414062 69.171875 205.28125 69.171875 205.28125 69.929688 C 205.28125 70.683594 206.414062 70.683594 206.414062 69.929688 "/>
<path style=" stroke:none;fill-rule:evenodd;fill:rgb(100%,100%,100%);fill-opacity:1;" d="M 218.585938 88.433594 C 218.585938 87.675781 217.449219 87.675781 217.449219 88.433594 C 217.449219 89.1875 218.585938 89.1875 218.585938 88.433594 "/>
<path style=" stroke:none;fill-rule:evenodd;fill:rgb(100%,100%,100%);fill-opacity:1;" d="M 228.375 65.609375 C 228.375 64.851562 227.242188 64.851562 227.242188 65.609375 C 227.242188 66.363281 228.375 66.363281 228.375 65.609375 "/>
<path style=" stroke:none;fill-rule:evenodd;fill:rgb(100%,100%,100%);fill-opacity:1;" d="M 230.894531 89.726562 C 230.894531 88.972656 229.761719 88.972656 229.761719 89.726562 C 229.761719 90.484375 230.894531 90.484375 230.894531 89.726562 "/>
<path style=" stroke:none;fill-rule:evenodd;fill:rgb(100%,100%,100%);fill-opacity:1;" d="M 231.738281 32.402344 C 231.738281 31.648438 230.601562 31.648438 230.601562 32.402344 C 230.601562 33.160156 231.738281 33.160156 231.738281 32.402344 "/>
<path style=" stroke:none;fill-rule:evenodd;fill:rgb(100%,100%,100%);fill-opacity:1;" d="M 244.214844 32.554688 C 244.214844 31.800781 243.082031 31.800781 243.082031 32.554688 C 243.082031 33.3125 244.214844 33.3125 244.214844 32.554688 "/>
<path style=" stroke:none;fill-rule:evenodd;fill:rgb(100%,100%,100%);fill-opacity:1;" d="M 245.296875 43.289062 C 245.296875 42.53125 244.160156 42.53125 244.160156 43.289062 C 244.160156 44.042969 245.296875 44.042969 245.296875 43.289062 "/>
<path style=" stroke:none;fill-rule:evenodd;fill:rgb(100%,100%,100%);fill-opacity:1;" d="M 245.296875 112.40625 C 245.296875 111.652344 244.160156 111.652344 244.160156 112.40625 C 244.160156 113.164062 245.296875 113.164062 245.296875 112.40625 "/>
<path style=" stroke:none;fill-rule:evenodd;fill:rgb(100%,100%,100%);fill-opacity:1;" d="M 256.09375 32.128906 C 256.09375 31.371094 254.960938 31.371094 254.960938 32.128906 C 254.960938 32.882812 256.09375 32.882812 256.09375 32.128906 "/>
<path style=" stroke:none;fill-rule:evenodd;fill:rgb(100%,100%,100%);fill-opacity:1;" d="M 260.414062 95.417969 C 260.414062 94.660156 259.28125 94.660156 259.28125 95.417969 C 259.28125 96.171875 260.414062 96.171875 260.414062 95.417969 "/>
<path style=" stroke:none;fill-rule:evenodd;fill:rgb(100%,100%,100%);fill-opacity:1;" d="M 260.4375 44.34375 C 260.4375 43.589844 259.304688 43.589844 259.304688 44.34375 C 259.304688 45.101562 260.4375 45.101562 260.4375 44.34375 "/>
<path style=" stroke:none;fill-rule:evenodd;fill:rgb(100%,100%,100%);fill-opacity:1;" d="M 26.328125 100.980469 C 26.328125 99.9375 24.769531 99.9375 24.769531 100.980469 C 24.769531 102.019531 26.328125 102.019531 26.328125 100.980469 "/>
<path style=" stroke:none;fill-rule:evenodd;fill:rgb(100%,100%,100%);fill-opacity:1;" d="M 26.328125 112.316406 C 26.328125 111.273438 24.769531 111.273438 24.769531 112.316406 C 24.769531 113.355469 26.328125 113.355469 26.328125 112.316406 "/>
<path style=" stroke:none;fill-rule:evenodd;fill:rgb(100%,100%,100%);fill-opacity:1;" d="M 182.21875 93.363281 C 182.21875 92.234375 180.519531 92.234375 180.519531 93.363281 C 180.519531 94.496094 182.21875 94.496094 182.21875 93.363281 "/>
<path style=" stroke:none;fill-rule:evenodd;fill:rgb(100%,100%,100%);fill-opacity:1;" d="M 182.21875 97.609375 C 182.21875 96.480469 180.519531 96.480469 180.519531 97.609375 C 180.519531 98.742188 182.21875 98.742188 182.21875 97.609375 "/>
<path style=" stroke:none;fill-rule:evenodd;fill:rgb(100%,100%,100%);fill-opacity:1;" d="M 130.066406 106.40625 C 130.066406 104.894531 127.800781 104.894531 127.800781 106.40625 C 127.800781 107.917969 130.066406 107.917969 130.066406 106.40625 "/>
<path style=" stroke:none;fill-rule:evenodd;fill:rgb(100%,100%,100%);fill-opacity:1;" d="M 143.90625 106.40625 C 143.90625 104.894531 141.636719 104.894531 141.636719 106.40625 C 141.636719 107.917969 143.90625 107.917969 143.90625 106.40625 "/>
<path style=" stroke:none;fill-rule:evenodd;fill:rgb(100%,100%,100%);fill-opacity:1;" d="M 25.863281 44.007812 C 25.863281 42.472656 23.558594 42.472656 23.558594 44.007812 C 23.558594 45.542969 25.863281 45.542969 25.863281 44.007812 "/>
<path style=" stroke:none;fill-rule:evenodd;fill:rgb(100%,100%,100%);fill-opacity:1;" d="M 25.863281 51.207031 C 25.863281 49.671875 23.558594 49.671875 23.558594 51.207031 C 23.558594 52.746094 25.863281 52.746094 25.863281 51.207031 "/>
<path style=" stroke:none;fill-rule:evenodd;fill:rgb(100%,100%,100%);fill-opacity:1;" d="M 31.53125 44.007812 C 31.53125 42.472656 29.226562 42.472656 29.226562 44.007812 C 29.226562 45.542969 31.53125 45.542969 31.53125 44.007812 "/>
<path style=" stroke:none;fill-rule:evenodd;fill:rgb(100%,100%,100%);fill-opacity:1;" d="M 31.53125 51.207031 C 31.53125 49.671875 29.226562 49.671875 29.226562 51.207031 C 29.226562 52.746094 31.53125 52.746094 31.53125 51.207031 "/>
<path style=" stroke:none;fill-rule:evenodd;fill:rgb(100%,100%,100%);fill-opacity:1;" d="M 20.871094 98.640625 C 20.871094 96.75 18.035156 96.75 18.035156 98.640625 C 18.035156 100.53125 20.871094 100.53125 20.871094 98.640625 "/>
<path style=" stroke:none;fill-rule:evenodd;fill:rgb(100%,100%,100%);fill-opacity:1;" d="M 20.871094 114.65625 C 20.871094 112.765625 18.035156 112.765625 18.035156 114.65625 C 18.035156 116.546875 20.871094 116.546875 20.871094 114.65625 "/>
<path style=" stroke:none;fill-rule:evenodd;fill:rgb(100%,100%,100%);fill-opacity:1;" d="M 222.046875 141.207031 C 222.046875 139.289062 219.167969 139.289062 219.167969 141.207031 C 219.167969 143.128906 222.046875 143.128906 222.046875 141.207031 "/>
<path style=" stroke:none;fill-rule:evenodd;fill:rgb(100%,100%,100%);fill-opacity:1;" d="M 222.046875 148.40625 C 222.046875 146.488281 219.167969 146.488281 219.167969 148.40625 C 219.167969 150.328125 222.046875 150.328125 222.046875 148.40625 "/>
<path style=" stroke:none;fill-rule:evenodd;fill:rgb(100%,100%,100%);fill-opacity:1;" d="M 229.25 141.207031 C 229.25 139.289062 226.367188 139.289062 226.367188 141.207031 C 226.367188 143.128906 229.25 143.128906 229.25 141.207031 "/>
<path style=" stroke:none;fill-rule:evenodd;fill:rgb(100%,100%,100%);fill-opacity:1;" d="M 229.25 148.40625 C 229.25 146.488281 226.367188 146.488281 226.367188 148.40625 C 226.367188 150.328125 229.25 150.328125 229.25 148.40625 "/>
<path style=" stroke:none;fill-rule:evenodd;fill:rgb(100%,100%,100%);fill-opacity:1;" d="M 236.449219 141.207031 C 236.449219 139.289062 233.566406 139.289062 233.566406 141.207031 C 233.566406 143.128906 236.449219 143.128906 236.449219 141.207031 "/>
<path style=" stroke:none;fill-rule:evenodd;fill:rgb(100%,100%,100%);fill-opacity:1;" d="M 236.449219 148.40625 C 236.449219 146.488281 233.566406 146.488281 233.566406 148.40625 C 233.566406 150.328125 236.449219 150.328125 236.449219 148.40625 "/>
<path style=" stroke:none;fill-rule:evenodd;fill:rgb(100%,100%,100%);fill-opacity:1;" d="M 243.648438 141.207031 C 243.648438 139.289062 240.769531 139.289062 240.769531 141.207031 C 240.769531 143.128906 243.648438 143.128906 243.648438 141.207031 "/>
<path style=" stroke:none;fill-rule:evenodd;fill:rgb(100%,100%,100%);fill-opacity:1;" d="M 243.648438 148.40625 C 243.648438 146.488281 240.769531 146.488281 240.769531 148.40625 C 240.769531 150.328125 243.648438 150.328125 243.648438 148.40625 "/>
<path style=" stroke:none;fill-rule:evenodd;fill:rgb(100%,100%,100%);fill-opacity:1;" d="M 250.847656 141.207031 C 250.847656 139.289062 247.96875 139.289062 247.96875 141.207031 C 247.96875 143.128906 250.847656 143.128906 250.847656 141.207031 "/>
<path style=" stroke:none;fill-rule:evenodd;fill:rgb(100%,100%,100%);fill-opacity:1;" d="M 250.847656 148.40625 C 250.847656 146.488281 247.96875 146.488281 247.96875 148.40625 C 247.96875 150.328125 250.847656 150.328125 250.847656 148.40625 "/>
<path style=" stroke:none;fill-rule:evenodd;fill:rgb(100%,100%,100%);fill-opacity:1;" d="M 258.046875 141.207031 C 258.046875 139.289062 255.167969 139.289062 255.167969 141.207031 C 255.167969 143.128906 258.046875 143.128906 258.046875 141.207031 "/>
<path style=" stroke:none;fill-rule:evenodd;fill:rgb(100%,100%,100%);fill-opacity:1;" d="M 258.046875 148.40625 C 258.046875 146.488281 255.167969 146.488281 255.167969 148.40625 C 255.167969 150.328125 258.046875 150.328125 258.046875 148.40625 "/>
<path style=" stroke:none;fill-rule:evenodd;fill:rgb(100%,100%,100%);fill-opacity:1;" d="M 265.25 141.207031 C 265.25 139.289062 262.367188 139.289062 262.367188 141.207031 C 262.367188 143.128906 265.25 143.128906 265.25 141.207031 "/>
<path style=" stroke:none;fill-rule:evenodd;fill:rgb(100%,100%,100%);fill-opacity:1;" d="M 265.25 148.40625 C 265.25 146.488281 262.367188 146.488281 262.367188 148.40625 C 262.367188 150.328125 265.25 150.328125 265.25 148.40625 "/>
<path style=" stroke:none;fill-rule:evenodd;fill:rgb(100%,100%,100%);fill-opacity:1;" d="M 272.449219 141.207031 C 272.449219 139.289062 269.566406 139.289062 269.566406 141.207031 C 269.566406 143.128906 272.449219 143.128906 272.449219 141.207031 "/>
<path style=" stroke:none;fill-rule:evenodd;fill:rgb(100%,100%,100%);fill-opacity:1;" d="M 272.449219 148.40625 C 272.449219 146.488281 269.566406 146.488281 269.566406 148.40625 C 269.566406 150.328125 272.449219 150.328125 272.449219 148.40625 "/>
<path style=" stroke:none;fill-rule:evenodd;fill:rgb(100%,100%,100%);fill-opacity:1;" d="M 265.25 26.007812 C 265.25 24.089844 262.367188 24.089844 262.367188 26.007812 C 262.367188 27.929688 265.25 27.929688 265.25 26.007812 "/>
<path style=" stroke:none;fill-rule:evenodd;fill:rgb(100%,100%,100%);fill-opacity:1;" d="M 265.25 33.207031 C 265.25 31.289062 262.367188 31.289062 262.367188 33.207031 C 262.367188 35.128906 265.25 35.128906 265.25 33.207031 "/>
<path style=" stroke:none;fill-rule:evenodd;fill:rgb(100%,100%,100%);fill-opacity:1;" d="M 265.25 40.40625 C 265.25 38.488281 262.367188 38.488281 262.367188 40.40625 C 262.367188 42.328125 265.25 42.328125 265.25 40.40625 "/>
<path style=" stroke:none;fill-rule:evenodd;fill:rgb(100%,100%,100%);fill-opacity:1;" d="M 265.25 47.609375 C 265.25 45.6875 262.367188 45.6875 262.367188 47.609375 C 262.367188 49.527344 265.25 49.527344 265.25 47.609375 "/>
<path style=" stroke:none;fill-rule:evenodd;fill:rgb(100%,100%,100%);fill-opacity:1;" d="M 265.25 54.808594 C 265.25 52.886719 262.367188 52.886719 262.367188 54.808594 C 262.367188 56.726562 265.25 56.726562 265.25 54.808594 "/>
<path style=" stroke:none;fill-rule:evenodd;fill:rgb(100%,100%,100%);fill-opacity:1;" d="M 265.25 62.007812 C 265.25 60.089844 262.367188 60.089844 262.367188 62.007812 C 262.367188 63.929688 265.25 63.929688 265.25 62.007812 "/>
<path style=" stroke:none;fill-rule:evenodd;fill:rgb(100%,100%,100%);fill-opacity:1;" d="M 265.25 69.207031 C 265.25 67.289062 262.367188 67.289062 262.367188 69.207031 C 262.367188 71.128906 265.25 71.128906 265.25 69.207031 "/>
<path style=" stroke:none;fill-rule:evenodd;fill:rgb(100%,100%,100%);fill-opacity:1;" d="M 265.25 76.40625 C 265.25 74.488281 262.367188 74.488281 262.367188 76.40625 C 262.367188 78.328125 265.25 78.328125 265.25 76.40625 "/>
<path style=" stroke:none;fill-rule:evenodd;fill:rgb(100%,100%,100%);fill-opacity:1;" d="M 265.25 83.609375 C 265.25 81.6875 262.367188 81.6875 262.367188 83.609375 C 262.367188 85.527344 265.25 85.527344 265.25 83.609375 "/>
<path style=" stroke:none;fill-rule:evenodd;fill:rgb(100%,100%,100%);fill-opacity:1;" d="M 265.25 90.808594 C 265.25 88.886719 262.367188 88.886719 262.367188 90.808594 C 262.367188 92.726562 265.25 92.726562 265.25 90.808594 "/>
<path style=" stroke:none;fill-rule:evenodd;fill:rgb(100%,100%,100%);fill-opacity:1;" d="M 265.25 98.007812 C 265.25 96.089844 262.367188 96.089844 262.367188 98.007812 C 262.367188 99.929688 265.25 99.929688 265.25 98.007812 "/>
<path style=" stroke:none;fill-rule:evenodd;fill:rgb(100%,100%,100%);fill-opacity:1;" d="M 265.25 105.207031 C 265.25 103.289062 262.367188 103.289062 262.367188 105.207031 C 262.367188 107.128906 265.25 107.128906 265.25 105.207031 "/>
<path style=" stroke:none;fill-rule:evenodd;fill:rgb(100%,100%,100%);fill-opacity:1;" d="M 265.25 112.40625 C 265.25 110.488281 262.367188 110.488281 262.367188 112.40625 C 262.367188 114.328125 265.25 114.328125 265.25 112.40625 "/>
<path style=" stroke:none;fill-rule:evenodd;fill:rgb(100%,100%,100%);fill-opacity:1;" d="M 265.25 119.609375 C 265.25 117.6875 262.367188 117.6875 262.367188 119.609375 C 262.367188 121.527344 265.25 121.527344 265.25 119.609375 "/>
<path style=" stroke:none;fill-rule:evenodd;fill:rgb(100%,100%,100%);fill-opacity:1;" d="M 265.25 126.808594 C 265.25 124.886719 262.367188 124.886719 262.367188 126.808594 C 262.367188 128.726562 265.25 128.726562 265.25 126.808594 "/>
<path style=" stroke:none;fill-rule:evenodd;fill:rgb(100%,100%,100%);fill-opacity:1;" d="M 265.25 134.007812 C 265.25 132.089844 262.367188 132.089844 262.367188 134.007812 C 262.367188 135.929688 265.25 135.929688 265.25 134.007812 "/>
<path style=" stroke:none;fill-rule:evenodd;fill:rgb(100%,100%,100%);fill-opacity:1;" d="M 272.449219 26.007812 C 272.449219 24.089844 269.566406 24.089844 269.566406 26.007812 C 269.566406 27.929688 272.449219 27.929688 272.449219 26.007812 "/>
<path style=" stroke:none;fill-rule:evenodd;fill:rgb(100%,100%,100%);fill-opacity:1;" d="M 272.449219 33.207031 C 272.449219 31.289062 269.566406 31.289062 269.566406 33.207031 C 269.566406 35.128906 272.449219 35.128906 272.449219 33.207031 "/>
<path style=" stroke:none;fill-rule:evenodd;fill:rgb(100%,100%,100%);fill-opacity:1;" d="M 272.449219 40.40625 C 272.449219 38.488281 269.566406 38.488281 269.566406 40.40625 C 269.566406 42.328125 272.449219 42.328125 272.449219 40.40625 "/>
<path style=" stroke:none;fill-rule:evenodd;fill:rgb(100%,100%,100%);fill-opacity:1;" d="M 272.449219 47.609375 C 272.449219 45.6875 269.566406 45.6875 269.566406 47.609375 C 269.566406 49.527344 272.449219 49.527344 272.449219 47.609375 "/>
<path style=" stroke:none;fill-rule:evenodd;fill:rgb(100%,100%,100%);fill-opacity:1;" d="M 272.449219 54.808594 C 272.449219 52.886719 269.566406 52.886719 269.566406 54.808594 C 269.566406 56.726562 272.449219 56.726562 272.449219 54.808594 "/>
<path style=" stroke:none;fill-rule:evenodd;fill:rgb(100%,100%,100%);fill-opacity:1;" d="M 272.449219 62.007812 C 272.449219 60.089844 269.566406 60.089844 269.566406 62.007812 C 269.566406 63.929688 272.449219 63.929688 272.449219 62.007812 "/>
<path style=" stroke:none;fill-rule:evenodd;fill:rgb(100%,100%,100%);fill-opacity:1;" d="M 272.449219 69.207031 C 272.449219 67.289062 269.566406 67.289062 269.566406 69.207031 C 269.566406 71.128906 272.449219 71.128906 272.449219 69.207031 "/>
<path style=" stroke:none;fill-rule:evenodd;fill:rgb(100%,100%,100%);fill-opacity:1;" d="M 272.449219 76.40625 C 272.449219 74.488281 269.566406 74.488281 269.566406 76.40625 C 269.566406 78.328125 272.449219 78.328125 272.449219 76.40625 "/>
<path style=" stroke:none;fill-rule:evenodd;fill:rgb(100%,100%,100%);fill-opacity:1;" d="M 272.449219 83.609375 C 272.449219 81.6875 269.566406 81.6875 269.566406 83.609375 C 269.566406 85.527344 272.449219 85.527344 272.449219 83.609375 "/>
<path style=" stroke:none;fill-rule:evenodd;fill:rgb(100%,100%,100%);fill-opacity:1;" d="M 272.449219 90.808594 C 272.449219 88.886719 269.566406 88.886719 269.566406 90.808594 C 269.566406 92.726562 272.449219 92.726562 272.449219 90.808594 "/>
<path style=" stroke:none;fill-rule:evenodd;fill:rgb(100%,100%,100%);fill-opacity:1;" d="M 272.449219 98.007812 C 272.449219 96.089844 269.566406 96.089844 269.566406 98.007812 C 269.566406 99.929688 272.449219 99.929688 272.449219 98.007812 "/>
<path style=" stroke:none;fill-rule:evenodd;fill:rgb(100%,100%,100%);fill-opacity:1;" d="M 272.449219 105.207031 C 272.449219 103.289062 269.566406 103.289062 269.566406 105.207031 C 269.566406 107.128906 272.449219 107.128906 272.449219 105.207031 "/>
<path style=" stroke:none;fill-rule:evenodd;fill:rgb(100%,100%,100%);fill-opacity:1;" d="M 272.449219 112.40625 C 272.449219 110.488281 269.566406 110.488281 269.566406 112.40625 C 269.566406 114.328125 272.449219 114.328125 272.449219 112.40625 "/>
<path style=" stroke:none;fill-rule:evenodd;fill:rgb(100%,100%,100%);fill-opacity:1;" d="M 272.449219 119.609375 C 272.449219 117.6875 269.566406 117.6875 269.566406 119.609375 C 269.566406 121.527344 272.449219 121.527344 272.449219 119.609375 "/>
<path style=" stroke:none;fill-rule:evenodd;fill:rgb(100%,100%,100%);fill-opacity:1;" d="M 272.449219 126.808594 C 272.449219 124.886719 269.566406 124.886719 269.566406 126.808594 C 269.566406 128.726562 272.449219 128.726562 272.449219 126.808594 "/>
<path style=" stroke:none;fill-rule:evenodd;fill:rgb(100%,100%,100%);fill-opacity:1;" d="M 272.449219 134.007812 C 272.449219 132.089844 269.566406 132.089844 269.566406 134.007812 C 269.566406 135.929688 272.449219 135.929688 272.449219 134.007812 "/>
<path style=" stroke:none;fill-rule:evenodd;fill:rgb(100%,100%,100%);fill-opacity:1;" d="M 92.449219 140.488281 C 92.449219 138.566406 89.566406 138.566406 89.566406 140.488281 C 89.566406 142.40625 92.449219 142.40625 92.449219 140.488281 "/>
<path style=" stroke:none;fill-rule:evenodd;fill:rgb(100%,100%,100%);fill-opacity:1;" d="M 92.449219 147.6875 C 92.449219 145.769531 89.566406 145.769531 89.566406 147.6875 C 89.566406 149.609375 92.449219 149.609375 92.449219 147.6875 "/>
<path style=" stroke:none;fill-rule:evenodd;fill:rgb(100%,100%,100%);fill-opacity:1;" d="M 99.648438 140.488281 C 99.648438 138.566406 96.769531 138.566406 96.769531 140.488281 C 96.769531 142.40625 99.648438 142.40625 99.648438 140.488281 "/>
<path style=" stroke:none;fill-rule:evenodd;fill:rgb(100%,100%,100%);fill-opacity:1;" d="M 99.648438 147.6875 C 99.648438 145.769531 96.769531 145.769531 96.769531 147.6875 C 96.769531 149.609375 99.648438 149.609375 99.648438 147.6875 "/>
<path style=" stroke:none;fill-rule:evenodd;fill:rgb(100%,100%,100%);fill-opacity:1;" d="M 106.847656 140.488281 C 106.847656 138.566406 103.96875 138.566406 103.96875 140.488281 C 103.96875 142.40625 106.847656 142.40625 106.847656 140.488281 "/>
<path style=" stroke:none;fill-rule:evenodd;fill:rgb(100%,100%,100%);fill-opacity:1;" d="M 106.847656 147.6875 C 106.847656 145.769531 103.96875 145.769531 103.96875 147.6875 C 103.96875 149.609375 106.847656 149.609375 106.847656 147.6875 "/>
<path style=" stroke:none;fill-rule:evenodd;fill:rgb(100%,100%,100%);fill-opacity:1;" d="M 114.046875 140.488281 C 114.046875 138.566406 111.167969 138.566406 111.167969 140.488281 C 111.167969 142.40625 114.046875 142.40625 114.046875 140.488281 "/>
<path style=" stroke:none;fill-rule:evenodd;fill:rgb(100%,100%,100%);fill-opacity:1;" d="M 114.046875 147.6875 C 114.046875 145.769531 111.167969 145.769531 111.167969 147.6875 C 111.167969 149.609375 114.046875 149.609375 114.046875 147.6875 "/>
<path style=" stroke:none;fill-rule:evenodd;fill:rgb(100%,100%,100%);fill-opacity:1;" d="M 121.25 140.488281 C 121.25 138.566406 118.367188 138.566406 118.367188 140.488281 C 118.367188 142.40625 121.25 142.40625 121.25 140.488281 "/>
<path style=" stroke:none;fill-rule:evenodd;fill:rgb(100%,100%,100%);fill-opacity:1;" d="M 121.25 147.6875 C 121.25 145.769531 118.367188 145.769531 118.367188 147.6875 C 118.367188 149.609375 121.25 149.609375 121.25 147.6875 "/>
<path style=" stroke:none;fill-rule:evenodd;fill:rgb(100%,100%,100%);fill-opacity:1;" d="M 128.449219 140.488281 C 128.449219 138.566406 125.566406 138.566406 125.566406 140.488281 C 125.566406 142.40625 128.449219 142.40625 128.449219 140.488281 "/>
<path style=" stroke:none;fill-rule:evenodd;fill:rgb(100%,100%,100%);fill-opacity:1;" d="M 128.449219 147.6875 C 128.449219 145.769531 125.566406 145.769531 125.566406 147.6875 C 125.566406 149.609375 128.449219 149.609375 128.449219 147.6875 "/>
<path style=" stroke:none;fill-rule:evenodd;fill:rgb(100%,100%,100%);fill-opacity:1;" d="M 135.648438 140.488281 C 135.648438 138.566406 132.769531 138.566406 132.769531 140.488281 C 132.769531 142.40625 135.648438 142.40625 135.648438 140.488281 "/>
<path style=" stroke:none;fill-rule:evenodd;fill:rgb(100%,100%,100%);fill-opacity:1;" d="M 135.648438 147.6875 C 135.648438 145.769531 132.769531 145.769531 132.769531 147.6875 C 132.769531 149.609375 135.648438 149.609375 135.648438 147.6875 "/>
<path style=" stroke:none;fill-rule:evenodd;fill:rgb(100%,100%,100%);fill-opacity:1;" d="M 142.847656 140.488281 C 142.847656 138.566406 139.96875 138.566406 139.96875 140.488281 C 139.96875 142.40625 142.847656 142.40625 142.847656 140.488281 "/>
<path style=" stroke:none;fill-rule:evenodd;fill:rgb(100%,100%,100%);fill-opacity:1;" d="M 142.847656 147.6875 C 142.847656 145.769531 139.96875 145.769531 139.96875 147.6875 C 139.96875 149.609375 142.847656 149.609375 142.847656 147.6875 "/>
<path style=" stroke:none;fill-rule:evenodd;fill:rgb(100%,100%,100%);fill-opacity:1;" d="M 279.648438 11.609375 C 279.648438 9.6875 276.769531 9.6875 276.769531 11.609375 C 276.769531 13.527344 279.648438 13.527344 279.648438 11.609375 "/>
<path style=" stroke:none;fill-rule:evenodd;fill:rgb(100%,100%,100%);fill-opacity:1;" d="M 279.648438 18.808594 C 279.648438 16.886719 276.769531 16.886719 276.769531 18.808594 C 276.769531 20.726562 279.648438 20.726562 279.648438 18.808594 "/>
<path style=" stroke:none;fill-rule:evenodd;fill:rgb(100%,100%,100%);fill-opacity:1;" d="M 279.648438 26.007812 C 279.648438 24.089844 276.769531 24.089844 276.769531 26.007812 C 276.769531 27.929688 279.648438 27.929688 279.648438 26.007812 "/>
<path style=" stroke:none;fill-rule:evenodd;fill:rgb(100%,100%,100%);fill-opacity:1;" d="M 279.648438 33.207031 C 279.648438 31.289062 276.769531 31.289062 276.769531 33.207031 C 276.769531 35.128906 279.648438 35.128906 279.648438 33.207031 "/>
<path style=" stroke:none;fill-rule:evenodd;fill:rgb(100%,100%,100%);fill-opacity:1;" d="M 279.648438 40.40625 C 279.648438 38.488281 276.769531 38.488281 276.769531 40.40625 C 276.769531 42.328125 279.648438 42.328125 279.648438 40.40625 "/>
<path style=" stroke:none;fill-rule:evenodd;fill:rgb(100%,100%,100%);fill-opacity:1;" d="M 279.648438 47.609375 C 279.648438 45.6875 276.769531 45.6875 276.769531 47.609375 C 276.769531 49.527344 279.648438 49.527344 279.648438 47.609375 "/>
<path style=" stroke:none;fill-rule:evenodd;fill:rgb(100%,100%,100%);fill-opacity:1;" d="M 279.648438 54.808594 C 279.648438 52.886719 276.769531 52.886719 276.769531 54.808594 C 276.769531 56.726562 279.648438 56.726562 279.648438 54.808594 "/>
<path style=" stroke:none;fill-rule:evenodd;fill:rgb(100%,100%,100%);fill-opacity:1;" d="M 279.648438 62.007812 C 279.648438 60.089844 276.769531 60.089844 276.769531 62.007812 C 276.769531 63.929688 279.648438 63.929688 279.648438 62.007812 "/>
<path style=" stroke:none;fill-rule:evenodd;fill:rgb(100%,100%,100%);fill-opacity:1;" d="M 279.648438 69.207031 C 279.648438 67.289062 276.769531 67.289062 276.769531 69.207031 C 276.769531 71.128906 279.648438 71.128906 279.648438 69.207031 "/>
<path style=" stroke:none;fill-rule:evenodd;fill:rgb(100%,100%,100%);fill-opacity:1;" d="M 279.648438 76.40625 C 279.648438 74.488281 276.769531 74.488281 276.769531 76.40625 C 276.769531 78.328125 279.648438 78.328125 279.648438 76.40625 "/>
<path style=" stroke:none;fill-rule:evenodd;fill:rgb(100%,100%,100%);fill-opacity:1;" d="M 279.648438 83.609375 C 279.648438 81.6875 276.769531 81.6875 276.769531 83.609375 C 276.769531 85.527344 279.648438 85.527344 279.648438 83.609375 "/>
<path style=" stroke:none;fill-rule:evenodd;fill:rgb(100%,100%,100%);fill-opacity:1;" d="M 279.648438 90.808594 C 279.648438 88.886719 276.769531 88.886719 276.769531 90.808594 C 276.769531 92.726562 279.648438 92.726562 279.648438 90.808594 "/>
<path style=" stroke:none;fill-rule:evenodd;fill:rgb(100%,100%,100%);fill-opacity:1;" d="M 279.648438 98.007812 C 279.648438 96.089844 276.769531 96.089844 276.769531 98.007812 C 276.769531 99.929688 279.648438 99.929688 279.648438 98.007812 "/>
<path style=" stroke:none;fill-rule:evenodd;fill:rgb(100%,100%,100%);fill-opacity:1;" d="M 279.648438 105.207031 C 279.648438 103.289062 276.769531 103.289062 276.769531 105.207031 C 276.769531 107.128906 279.648438 107.128906 279.648438 105.207031 "/>
<path style=" stroke:none;fill-rule:evenodd;fill:rgb(100%,100%,100%);fill-opacity:1;" d="M 279.648438 112.40625 C 279.648438 110.488281 276.769531 110.488281 276.769531 112.40625 C 276.769531 114.328125 279.648438 114.328125 279.648438 112.40625 "/>
<path style=" stroke:none;fill-rule:evenodd;fill:rgb(100%,100%,100%);fill-opacity:1;" d="M 279.648438 119.609375 C 279.648438 117.6875 276.769531 117.6875 276.769531 119.609375 C 276.769531 121.527344 279.648438 121.527344 279.648438 119.609375 "/>
<path style=" stroke:none;fill-rule:evenodd;fill:rgb(100%,100%,100%);fill-opacity:1;" d="M 279.648438 126.808594 C 279.648438 124.886719 276.769531 124.886719 276.769531 126.808594 C 276.769531 128.726562 279.648438 128.726562 279.648438 126.808594 "/>
<path style=" stroke:none;fill-rule:evenodd;fill:rgb(100%,100%,100%);fill-opacity:1;" d="M 279.648438 134.007812 C 279.648438 132.089844 276.769531 132.089844 276.769531 134.007812 C 276.769531 135.929688 279.648438 135.929688 279.648438 134.007812 "/>
<path style=" stroke:none;fill-rule:evenodd;fill:rgb(100%,100%,100%);fill-opacity:1;" d="M 286.847656 11.609375 C 286.847656 9.6875 283.96875 9.6875 283.96875 11.609375 C 283.96875 13.527344 286.847656 13.527344 286.847656 11.609375 "/>
<path style=" stroke:none;fill-rule:evenodd;fill:rgb(100%,100%,100%);fill-opacity:1;" d="M 286.847656 18.808594 C 286.847656 16.886719 283.96875 16.886719 283.96875 18.808594 C 283.96875 20.726562 286.847656 20.726562 286.847656 18.808594 "/>
<path style=" stroke:none;fill-rule:evenodd;fill:rgb(100%,100%,100%);fill-opacity:1;" d="M 286.847656 26.007812 C 286.847656 24.089844 283.96875 24.089844 283.96875 26.007812 C 283.96875 27.929688 286.847656 27.929688 286.847656 26.007812 "/>
<path style=" stroke:none;fill-rule:evenodd;fill:rgb(100%,100%,100%);fill-opacity:1;" d="M 286.847656 33.207031 C 286.847656 31.289062 283.96875 31.289062 283.96875 33.207031 C 283.96875 35.128906 286.847656 35.128906 286.847656 33.207031 "/>
<path style=" stroke:none;fill-rule:evenodd;fill:rgb(100%,100%,100%);fill-opacity:1;" d="M 286.847656 40.40625 C 286.847656 38.488281 283.96875 38.488281 283.96875 40.40625 C 283.96875 42.328125 286.847656 42.328125 286.847656 40.40625 "/>
<path style=" stroke:none;fill-rule:evenodd;fill:rgb(100%,100%,100%);fill-opacity:1;" d="M 286.847656 47.609375 C 286.847656 45.6875 283.96875 45.6875 283.96875 47.609375 C 283.96875 49.527344 286.847656 49.527344 286.847656 47.609375 "/>
<path style=" stroke:none;fill-rule:evenodd;fill:rgb(100%,100%,100%);fill-opacity:1;" d="M 286.847656 54.808594 C 286.847656 52.886719 283.96875 52.886719 283.96875 54.808594 C 283.96875 56.726562 286.847656 56.726562 286.847656 54.808594 "/>
<path style=" stroke:none;fill-rule:evenodd;fill:rgb(100%,100%,100%);fill-opacity:1;" d="M 286.847656 62.007812 C 286.847656 60.089844 283.96875 60.089844 283.96875 62.007812 C 283.96875 63.929688 286.847656 63.929688 286.847656 62.007812 "/>
<path style=" stroke:none;fill-rule:evenodd;fill:rgb(100%,100%,100%);fill-opacity:1;" d="M 286.847656 69.207031 C 286.847656 67.289062 283.96875 67.289062 283.96875 69.207031 C 283.96875 71.128906 286.847656 71.128906 286.847656 69.207031 "/>
<path style=" stroke:none;fill-rule:evenodd;fill:rgb(100%,100%,100%);fill-opacity:1;" d="M 286.847656 76.40625 C 286.847656 74.488281 283.96875 74.488281 283.96875 76.40625 C 283.96875 78.328125 286.847656 78.328125 286.847656 76.40625 "/>
<path style=" stroke:none;fill-rule:evenodd;fill:rgb(100%,100%,100%);fill-opacity:1;" d="M 286.847656 83.609375 C 286.847656 81.6875 283.96875 81.6875 283.96875 83.609375 C 283.96875 85.527344 286.847656 85.527344 286.847656 83.609375 "/>
<path style=" stroke:none;fill-rule:evenodd;fill:rgb(100%,100%,100%);fill-opacity:1;" d="M 286.847656 90.808594 C 286.847656 88.886719 283.96875 88.886719 283.96875 90.808594 C 283.96875 92.726562 286.847656 92.726562 286.847656 90.808594 "/>
<path style=" stroke:none;fill-rule:evenodd;fill:rgb(100%,100%,100%);fill-opacity:1;" d="M 286.847656 98.007812 C 286.847656 96.089844 283.96875 96.089844 283.96875 98.007812 C 283.96875 99.929688 286.847656 99.929688 286.847656 98.007812 "/>
<path style=" stroke:none;fill-rule:evenodd;fill:rgb(100%,100%,100%);fill-opacity:1;" d="M 286.847656 105.207031 C 286.847656 103.289062 283.96875 103.289062 283.96875 105.207031 C 283.96875 107.128906 286.847656 107.128906 286.847656 105.207031 "/>
<path style=" stroke:none;fill-rule:evenodd;fill:rgb(100%,100%,100%);fill-opacity:1;" d="M 286.847656 112.40625 C 286.847656 110.488281 283.96875 110.488281 283.96875 112.40625 C 283.96875 114.328125 286.847656 114.328125 286.847656 112.40625 "/>
<path style=" stroke:none;fill-rule:evenodd;fill:rgb(100%,100%,100%);fill-opacity:1;" d="M 286.847656 119.609375 C 286.847656 117.6875 283.96875 117.6875 283.96875 119.609375 C 283.96875 121.527344 286.847656 121.527344 286.847656 119.609375 "/>
<path style=" stroke:none;fill-rule:evenodd;fill:rgb(100%,100%,100%);fill-opacity:1;" d="M 286.847656 126.808594 C 286.847656 124.886719 283.96875 124.886719 283.96875 126.808594 C 283.96875 128.726562 286.847656 128.726562 286.847656 126.808594 "/>
<path style=" stroke:none;fill-rule:evenodd;fill:rgb(100%,100%,100%);fill-opacity:1;" d="M 286.847656 134.007812 C 286.847656 132.089844 283.96875 132.089844 283.96875 134.007812 C 283.96875 135.929688 286.847656 135.929688 286.847656 134.007812 "/>
<path style=" stroke:none;fill-rule:evenodd;fill:rgb(100%,100%,100%);fill-opacity:1;" d="M 250.8125 47.644531 C 250.8125 45.726562 247.929688 45.726562 247.929688 47.644531 C 247.929688 49.566406 250.8125 49.566406 250.8125 47.644531 "/>
<path style=" stroke:none;fill-rule:evenodd;fill:rgb(100%,100%,100%);fill-opacity:1;" d="M 250.8125 54.84375 C 250.8125 52.925781 247.929688 52.925781 247.929688 54.84375 C 247.929688 56.765625 250.8125 56.765625 250.8125 54.84375 "/>
<path style=" stroke:none;fill-rule:evenodd;fill:rgb(100%,100%,100%);fill-opacity:1;" d="M 250.8125 62.042969 C 250.8125 60.125 247.929688 60.125 247.929688 62.042969 C 247.929688 63.964844 250.8125 63.964844 250.8125 62.042969 "/>
<path style=" stroke:none;fill-rule:evenodd;fill:rgb(100%,100%,100%);fill-opacity:1;" d="M 250.8125 69.246094 C 250.8125 67.324219 247.929688 67.324219 247.929688 69.246094 C 247.929688 71.164062 250.8125 71.164062 250.8125 69.246094 "/>
<path style=" stroke:none;fill-rule:evenodd;fill:rgb(100%,100%,100%);fill-opacity:1;" d="M 250.8125 76.445312 C 250.8125 74.523438 247.929688 74.523438 247.929688 76.445312 C 247.929688 78.363281 250.8125 78.363281 250.8125 76.445312 "/>
<path style=" stroke:none;fill-rule:evenodd;fill:rgb(100%,100%,100%);fill-opacity:1;" d="M 250.8125 83.644531 C 250.8125 81.726562 247.929688 81.726562 247.929688 83.644531 C 247.929688 85.566406 250.8125 85.566406 250.8125 83.644531 "/>
<path style=" stroke:none;fill-rule:evenodd;fill:rgb(100%,100%,100%);fill-opacity:1;" d="M 250.8125 90.84375 C 250.8125 88.925781 247.929688 88.925781 247.929688 90.84375 C 247.929688 92.765625 250.8125 92.765625 250.8125 90.84375 "/>
<path style=" stroke:none;fill-rule:evenodd;fill:rgb(100%,100%,100%);fill-opacity:1;" d="M 250.8125 98.042969 C 250.8125 96.125 247.929688 96.125 247.929688 98.042969 C 247.929688 99.964844 250.8125 99.964844 250.8125 98.042969 "/>
<path style=" stroke:none;fill-rule:evenodd;fill:rgb(100%,100%,100%);fill-opacity:1;" d="M 258.011719 47.644531 C 258.011719 45.726562 255.132812 45.726562 255.132812 47.644531 C 255.132812 49.566406 258.011719 49.566406 258.011719 47.644531 "/>
<path style=" stroke:none;fill-rule:evenodd;fill:rgb(100%,100%,100%);fill-opacity:1;" d="M 258.011719 54.84375 C 258.011719 52.925781 255.132812 52.925781 255.132812 54.84375 C 255.132812 56.765625 258.011719 56.765625 258.011719 54.84375 "/>
<path style=" stroke:none;fill-rule:evenodd;fill:rgb(100%,100%,100%);fill-opacity:1;" d="M 258.011719 62.042969 C 258.011719 60.125 255.132812 60.125 255.132812 62.042969 C 255.132812 63.964844 258.011719 63.964844 258.011719 62.042969 "/>
<path style=" stroke:none;fill-rule:evenodd;fill:rgb(100%,100%,100%);fill-opacity:1;" d="M 258.011719 69.246094 C 258.011719 67.324219 255.132812 67.324219 255.132812 69.246094 C 255.132812 71.164062 258.011719 71.164062 258.011719 69.246094 "/>
<path style=" stroke:none;fill-rule:evenodd;fill:rgb(100%,100%,100%);fill-opacity:1;" d="M 258.011719 76.445312 C 258.011719 74.523438 255.132812 74.523438 255.132812 76.445312 C 255.132812 78.363281 258.011719 78.363281 258.011719 76.445312 "/>
<path style=" stroke:none;fill-rule:evenodd;fill:rgb(100%,100%,100%);fill-opacity:1;" d="M 258.011719 83.644531 C 258.011719 81.726562 255.132812 81.726562 255.132812 83.644531 C 255.132812 85.566406 258.011719 85.566406 258.011719 83.644531 "/>
<path style=" stroke:none;fill-rule:evenodd;fill:rgb(100%,100%,100%);fill-opacity:1;" d="M 258.011719 90.84375 C 258.011719 88.925781 255.132812 88.925781 255.132812 90.84375 C 255.132812 92.765625 258.011719 92.765625 258.011719 90.84375 "/>
<path style=" stroke:none;fill-rule:evenodd;fill:rgb(100%,100%,100%);fill-opacity:1;" d="M 258.011719 98.042969 C 258.011719 96.125 255.132812 96.125 255.132812 98.042969 C 255.132812 99.964844 258.011719 99.964844 258.011719 98.042969 "/>
<path style=" stroke:none;fill-rule:evenodd;fill:rgb(100%,100%,100%);fill-opacity:1;" d="M 68.539062 60.207031 C 68.539062 58.289062 65.65625 58.289062 65.65625 60.207031 C 65.65625 62.128906 68.539062 62.128906 68.539062 60.207031 "/>
<path style=" stroke:none;fill-rule:evenodd;fill:rgb(100%,100%,100%);fill-opacity:1;" d="M 68.539062 67.40625 C 68.539062 65.488281 65.65625 65.488281 65.65625 67.40625 C 65.65625 69.328125 68.539062 69.328125 68.539062 67.40625 "/>
<path style=" stroke:none;fill-rule:evenodd;fill:rgb(100%,100%,100%);fill-opacity:1;" d="M 68.539062 74.609375 C 68.539062 72.6875 65.65625 72.6875 65.65625 74.609375 C 65.65625 76.527344 68.539062 76.527344 68.539062 74.609375 "/>
<path style=" stroke:none;fill-rule:evenodd;fill:rgb(100%,100%,100%);fill-opacity:1;" d="M 68.539062 81.808594 C 68.539062 79.886719 65.65625 79.886719 65.65625 81.808594 C 65.65625 83.726562 68.539062 83.726562 68.539062 81.808594 "/>
<path style=" stroke:none;fill-rule:evenodd;fill:rgb(100%,100%,100%);fill-opacity:1;" d="M 68.539062 89.007812 C 68.539062 87.089844 65.65625 87.089844 65.65625 89.007812 C 65.65625 90.929688 68.539062 90.929688 68.539062 89.007812 "/>
<path style=" stroke:none;fill-rule:evenodd;fill:rgb(100%,100%,100%);fill-opacity:1;" d="M 75.738281 60.207031 C 75.738281 58.289062 72.859375 58.289062 72.859375 60.207031 C 72.859375 62.128906 75.738281 62.128906 75.738281 60.207031 "/>
<path style=" stroke:none;fill-rule:evenodd;fill:rgb(100%,100%,100%);fill-opacity:1;" d="M 75.738281 67.40625 C 75.738281 65.488281 72.859375 65.488281 72.859375 67.40625 C 72.859375 69.328125 75.738281 69.328125 75.738281 67.40625 "/>
<path style=" stroke:none;fill-rule:evenodd;fill:rgb(100%,100%,100%);fill-opacity:1;" d="M 75.738281 74.609375 C 75.738281 72.6875 72.859375 72.6875 72.859375 74.609375 C 72.859375 76.527344 75.738281 76.527344 75.738281 74.609375 "/>
<path style=" stroke:none;fill-rule:evenodd;fill:rgb(100%,100%,100%);fill-opacity:1;" d="M 75.738281 81.808594 C 75.738281 79.886719 72.859375 79.886719 72.859375 81.808594 C 72.859375 83.726562 75.738281 83.726562 75.738281 81.808594 "/>
<path style=" stroke:none;fill-rule:evenodd;fill:rgb(100%,100%,100%);fill-opacity:1;" d="M 75.738281 89.007812 C 75.738281 87.089844 72.859375 87.089844 72.859375 89.007812 C 72.859375 90.929688 75.738281 90.929688 75.738281 89.007812 "/>
<path style=" stroke:none;fill-rule:evenodd;fill:rgb(100%,100%,100%);fill-opacity:1;" d="M 142.847656 11.609375 C 142.847656 9.6875 139.96875 9.6875 139.96875 11.609375 C 139.96875 13.527344 142.847656 13.527344 142.847656 11.609375 "/>
<path style=" stroke:none;fill-rule:evenodd;fill:rgb(100%,100%,100%);fill-opacity:1;" d="M 142.847656 18.808594 C 142.847656 16.886719 139.96875 16.886719 139.96875 18.808594 C 139.96875 20.726562 142.847656 20.726562 142.847656 18.808594 "/>
<path style=" stroke:none;fill-rule:evenodd;fill:rgb(100%,100%,100%);fill-opacity:1;" d="M 150.046875 11.609375 C 150.046875 9.6875 147.167969 9.6875 147.167969 11.609375 C 147.167969 13.527344 150.046875 13.527344 150.046875 11.609375 "/>
<path style=" stroke:none;fill-rule:evenodd;fill:rgb(100%,100%,100%);fill-opacity:1;" d="M 150.046875 18.808594 C 150.046875 16.886719 147.167969 16.886719 147.167969 18.808594 C 147.167969 20.726562 150.046875 20.726562 150.046875 18.808594 "/>
<path style=" stroke:none;fill-rule:evenodd;fill:rgb(100%,100%,100%);fill-opacity:1;" d="M 157.25 11.609375 C 157.25 9.6875 154.367188 9.6875 154.367188 11.609375 C 154.367188 13.527344 157.25 13.527344 157.25 11.609375 "/>
<path style=" stroke:none;fill-rule:evenodd;fill:rgb(100%,100%,100%);fill-opacity:1;" d="M 157.25 18.808594 C 157.25 16.886719 154.367188 16.886719 154.367188 18.808594 C 154.367188 20.726562 157.25 20.726562 157.25 18.808594 "/>
<path style=" stroke:none;fill-rule:evenodd;fill:rgb(100%,100%,100%);fill-opacity:1;" d="M 164.449219 11.609375 C 164.449219 9.6875 161.566406 9.6875 161.566406 11.609375 C 161.566406 13.527344 164.449219 13.527344 164.449219 11.609375 "/>
<path style=" stroke:none;fill-rule:evenodd;fill:rgb(100%,100%,100%);fill-opacity:1;" d="M 164.449219 18.808594 C 164.449219 16.886719 161.566406 16.886719 161.566406 18.808594 C 161.566406 20.726562 164.449219 20.726562 164.449219 18.808594 "/>
<path style=" stroke:none;fill-rule:evenodd;fill:rgb(100%,100%,100%);fill-opacity:1;" d="M 171.648438 11.609375 C 171.648438 9.6875 168.769531 9.6875 168.769531 11.609375 C 168.769531 13.527344 171.648438 13.527344 171.648438 11.609375 "/>
<path style=" stroke:none;fill-rule:evenodd;fill:rgb(100%,100%,100%);fill-opacity:1;" d="M 171.648438 18.808594 C 171.648438 16.886719 168.769531 16.886719 168.769531 18.808594 C 168.769531 20.726562 171.648438 20.726562 171.648438 18.808594 "/>
<path style=" stroke:none;fill-rule:evenodd;fill:rgb(100%,100%,100%);fill-opacity:1;" d="M 178.847656 11.609375 C 178.847656 9.6875 175.96875 9.6875 175.96875 11.609375 C 175.96875 13.527344 178.847656 13.527344 178.847656 11.609375 "/>
<path style=" stroke:none;fill-rule:evenodd;fill:rgb(100%,100%,100%);fill-opacity:1;" d="M 178.847656 18.808594 C 178.847656 16.886719 175.96875 16.886719 175.96875 18.808594 C 175.96875 20.726562 178.847656 20.726562 178.847656 18.808594 "/>
<path style=" stroke:none;fill-rule:evenodd;fill:rgb(100%,100%,100%);fill-opacity:1;" d="M 186.046875 11.609375 C 186.046875 9.6875 183.167969 9.6875 183.167969 11.609375 C 183.167969 13.527344 186.046875 13.527344 186.046875 11.609375 "/>
<path style=" stroke:none;fill-rule:evenodd;fill:rgb(100%,100%,100%);fill-opacity:1;" d="M 186.046875 18.808594 C 186.046875 16.886719 183.167969 16.886719 183.167969 18.808594 C 183.167969 20.726562 186.046875 20.726562 186.046875 18.808594 "/>
<path style=" stroke:none;fill-rule:evenodd;fill:rgb(100%,100%,100%);fill-opacity:1;" d="M 193.25 11.609375 C 193.25 9.6875 190.367188 9.6875 190.367188 11.609375 C 190.367188 13.527344 193.25 13.527344 193.25 11.609375 "/>
<path style=" stroke:none;fill-rule:evenodd;fill:rgb(100%,100%,100%);fill-opacity:1;" d="M 193.25 18.808594 C 193.25 16.886719 190.367188 16.886719 190.367188 18.808594 C 190.367188 20.726562 193.25 20.726562 193.25 18.808594 "/>
<path style=" stroke:none;fill-rule:evenodd;fill:rgb(100%,100%,100%);fill-opacity:1;" d="M 93.738281 43.648438 C 93.738281 41.726562 90.859375 41.726562 90.859375 43.648438 C 90.859375 45.566406 93.738281 45.566406 93.738281 43.648438 "/>
<path style=" stroke:none;fill-rule:evenodd;fill:rgb(100%,100%,100%);fill-opacity:1;" d="M 93.738281 50.847656 C 93.738281 48.929688 90.859375 48.929688 90.859375 50.847656 C 90.859375 52.769531 93.738281 52.769531 93.738281 50.847656 "/>
<path style=" stroke:none;fill-rule:evenodd;fill:rgb(100%,100%,100%);fill-opacity:1;" d="M 93.738281 58.046875 C 93.738281 56.128906 90.859375 56.128906 90.859375 58.046875 C 90.859375 59.96875 93.738281 59.96875 93.738281 58.046875 "/>
<path style=" stroke:none;fill-rule:evenodd;fill:rgb(100%,100%,100%);fill-opacity:1;" d="M 93.738281 65.246094 C 93.738281 63.328125 90.859375 63.328125 90.859375 65.246094 C 90.859375 67.167969 93.738281 67.167969 93.738281 65.246094 "/>
<path style=" stroke:none;fill-rule:evenodd;fill:rgb(100%,100%,100%);fill-opacity:1;" d="M 93.738281 72.449219 C 93.738281 70.527344 90.859375 70.527344 90.859375 72.449219 C 90.859375 74.367188 93.738281 74.367188 93.738281 72.449219 "/>
<path style=" stroke:none;fill-rule:evenodd;fill:rgb(100%,100%,100%);fill-opacity:1;" d="M 93.738281 79.648438 C 93.738281 77.726562 90.859375 77.726562 90.859375 79.648438 C 90.859375 81.566406 93.738281 81.566406 93.738281 79.648438 "/>
<path style=" stroke:none;fill-rule:evenodd;fill:rgb(100%,100%,100%);fill-opacity:1;" d="M 193.609375 69.207031 C 193.609375 67.289062 190.726562 67.289062 190.726562 69.207031 C 190.726562 71.128906 193.609375 71.128906 193.609375 69.207031 "/>
<path style=" stroke:none;fill-rule:evenodd;fill:rgb(100%,100%,100%);fill-opacity:1;" d="M 193.609375 76.40625 C 193.609375 74.488281 190.726562 74.488281 190.726562 76.40625 C 190.726562 78.328125 193.609375 78.328125 193.609375 76.40625 "/>
<path style=" stroke:none;fill-rule:evenodd;fill:rgb(100%,100%,100%);fill-opacity:1;" d="M 193.609375 83.609375 C 193.609375 81.6875 190.726562 81.6875 190.726562 83.609375 C 190.726562 85.527344 193.609375 85.527344 193.609375 83.609375 "/>
<path style=" stroke:none;fill-rule:evenodd;fill:rgb(100%,100%,100%);fill-opacity:1;" d="M 200.808594 69.207031 C 200.808594 67.289062 197.929688 67.289062 197.929688 69.207031 C 197.929688 71.128906 200.808594 71.128906 200.808594 69.207031 "/>
<path style=" stroke:none;fill-rule:evenodd;fill:rgb(100%,100%,100%);fill-opacity:1;" d="M 200.808594 76.40625 C 200.808594 74.488281 197.929688 74.488281 197.929688 76.40625 C 197.929688 78.328125 200.808594 78.328125 200.808594 76.40625 "/>
<path style=" stroke:none;fill-rule:evenodd;fill:rgb(100%,100%,100%);fill-opacity:1;" d="M 200.808594 83.609375 C 200.808594 81.6875 197.929688 81.6875 197.929688 83.609375 C 197.929688 85.527344 200.808594 85.527344 200.808594 83.609375 "/>
<path style=" stroke:none;fill-rule:evenodd;fill:rgb(100%,100%,100%);fill-opacity:1;" d="M 207.648438 11.609375 C 207.648438 9.6875 204.769531 9.6875 204.769531 11.609375 C 204.769531 13.527344 207.648438 13.527344 207.648438 11.609375 "/>
<path style=" stroke:none;fill-rule:evenodd;fill:rgb(100%,100%,100%);fill-opacity:1;" d="M 207.648438 18.808594 C 207.648438 16.886719 204.769531 16.886719 204.769531 18.808594 C 204.769531 20.726562 207.648438 20.726562 207.648438 18.808594 "/>
<path style=" stroke:none;fill-rule:evenodd;fill:rgb(100%,100%,100%);fill-opacity:1;" d="M 214.847656 11.609375 C 214.847656 9.6875 211.96875 9.6875 211.96875 11.609375 C 211.96875 13.527344 214.847656 13.527344 214.847656 11.609375 "/>
<path style=" stroke:none;fill-rule:evenodd;fill:rgb(100%,100%,100%);fill-opacity:1;" d="M 214.847656 18.808594 C 214.847656 16.886719 211.96875 16.886719 211.96875 18.808594 C 211.96875 20.726562 214.847656 20.726562 214.847656 18.808594 "/>
<path style=" stroke:none;fill-rule:evenodd;fill:rgb(100%,100%,100%);fill-opacity:1;" d="M 222.046875 11.609375 C 222.046875 9.6875 219.167969 9.6875 219.167969 11.609375 C 219.167969 13.527344 222.046875 13.527344 222.046875 11.609375 "/>
<path style=" stroke:none;fill-rule:evenodd;fill:rgb(100%,100%,100%);fill-opacity:1;" d="M 222.046875 18.808594 C 222.046875 16.886719 219.167969 16.886719 219.167969 18.808594 C 219.167969 20.726562 222.046875 20.726562 222.046875 18.808594 "/>
<path style=" stroke:none;fill-rule:evenodd;fill:rgb(100%,100%,100%);fill-opacity:1;" d="M 229.25 11.609375 C 229.25 9.6875 226.367188 9.6875 226.367188 11.609375 C 226.367188 13.527344 229.25 13.527344 229.25 11.609375 "/>
<path style=" stroke:none;fill-rule:evenodd;fill:rgb(100%,100%,100%);fill-opacity:1;" d="M 229.25 18.808594 C 229.25 16.886719 226.367188 16.886719 226.367188 18.808594 C 226.367188 20.726562 229.25 20.726562 229.25 18.808594 "/>
<path style=" stroke:none;fill-rule:evenodd;fill:rgb(100%,100%,100%);fill-opacity:1;" d="M 236.449219 11.609375 C 236.449219 9.6875 233.566406 9.6875 233.566406 11.609375 C 233.566406 13.527344 236.449219 13.527344 236.449219 11.609375 "/>
<path style=" stroke:none;fill-rule:evenodd;fill:rgb(100%,100%,100%);fill-opacity:1;" d="M 236.449219 18.808594 C 236.449219 16.886719 233.566406 16.886719 233.566406 18.808594 C 233.566406 20.726562 236.449219 20.726562 236.449219 18.808594 "/>
<path style=" stroke:none;fill-rule:evenodd;fill:rgb(100%,100%,100%);fill-opacity:1;" d="M 243.648438 11.609375 C 243.648438 9.6875 240.769531 9.6875 240.769531 11.609375 C 240.769531 13.527344 243.648438 13.527344 243.648438 11.609375 "/>
<path style=" stroke:none;fill-rule:evenodd;fill:rgb(100%,100%,100%);fill-opacity:1;" d="M 243.648438 18.808594 C 243.648438 16.886719 240.769531 16.886719 240.769531 18.808594 C 240.769531 20.726562 243.648438 20.726562 243.648438 18.808594 "/>
<path style=" stroke:none;fill-rule:evenodd;fill:rgb(100%,100%,100%);fill-opacity:1;" d="M 250.847656 11.609375 C 250.847656 9.6875 247.96875 9.6875 247.96875 11.609375 C 247.96875 13.527344 250.847656 13.527344 250.847656 11.609375 "/>
<path style=" stroke:none;fill-rule:evenodd;fill:rgb(100%,100%,100%);fill-opacity:1;" d="M 250.847656 18.808594 C 250.847656 16.886719 247.96875 16.886719 247.96875 18.808594 C 247.96875 20.726562 250.847656 20.726562 250.847656 18.808594 "/>
<path style=" stroke:none;fill-rule:evenodd;fill:rgb(100%,100%,100%);fill-opacity:1;" d="M 258.046875 11.609375 C 258.046875 9.6875 255.167969 9.6875 255.167969 11.609375 C 255.167969 13.527344 258.046875 13.527344 258.046875 11.609375 "/>
<path style=" stroke:none;fill-rule:evenodd;fill:rgb(100%,100%,100%);fill-opacity:1;" d="M 258.046875 18.808594 C 258.046875 16.886719 255.167969 16.886719 255.167969 18.808594 C 255.167969 20.726562 258.046875 20.726562 258.046875 18.808594 "/>
<path style=" stroke:none;fill-rule:evenodd;fill:rgb(100%,100%,100%);fill-opacity:1;" d="M 157.25 119.609375 C 157.25 117.6875 154.367188 117.6875 154.367188 119.609375 C 154.367188 121.527344 157.25 121.527344 157.25 119.609375 "/>
<path style=" stroke:none;fill-rule:evenodd;fill:rgb(100%,100%,100%);fill-opacity:1;" d="M 164.449219 119.609375 C 164.449219 117.6875 161.566406 117.6875 161.566406 119.609375 C 161.566406 121.527344 164.449219 121.527344 164.449219 119.609375 "/>
<path style=" stroke:none;fill-rule:evenodd;fill:rgb(100%,100%,100%);fill-opacity:1;" d="M 171.648438 119.609375 C 171.648438 117.6875 168.769531 117.6875 168.769531 119.609375 C 168.769531 121.527344 171.648438 121.527344 171.648438 119.609375 "/>
<path style=" stroke:none;fill-rule:evenodd;fill:rgb(100%,100%,100%);fill-opacity:1;" d="M 178.847656 119.609375 C 178.847656 117.6875 175.96875 117.6875 175.96875 119.609375 C 175.96875 121.527344 178.847656 121.527344 178.847656 119.609375 "/>
<path style=" stroke:none;fill-rule:evenodd;fill:rgb(100%,100%,100%);fill-opacity:1;" d="M 186.046875 119.609375 C 186.046875 117.6875 183.167969 117.6875 183.167969 119.609375 C 183.167969 121.527344 186.046875 121.527344 186.046875 119.609375 "/>
<path style=" stroke:none;fill-rule:evenodd;fill:rgb(100%,100%,100%);fill-opacity:1;" d="M 193.25 119.609375 C 193.25 117.6875 190.367188 117.6875 190.367188 119.609375 C 190.367188 121.527344 193.25 121.527344 193.25 119.609375 "/>
<path style=" stroke:none;fill-rule:evenodd;fill:rgb(100%,100%,100%);fill-opacity:1;" d="M 200.449219 119.609375 C 200.449219 117.6875 197.566406 117.6875 197.566406 119.609375 C 197.566406 121.527344 200.449219 121.527344 200.449219 119.609375 "/>
<path style=" stroke:none;fill-rule:evenodd;fill:rgb(100%,100%,100%);fill-opacity:1;" d="M 207.648438 119.609375 C 207.648438 117.6875 204.769531 117.6875 204.769531 119.609375 C 204.769531 121.527344 207.648438 121.527344 207.648438 119.609375 "/>
<path style=" stroke:none;fill-rule:evenodd;fill:rgb(100%,100%,100%);fill-opacity:1;" d="M 157.25 148.40625 C 157.25 146.488281 154.367188 146.488281 154.367188 148.40625 C 154.367188 150.328125 157.25 150.328125 157.25 148.40625 "/>
<path style=" stroke:none;fill-rule:evenodd;fill:rgb(100%,100%,100%);fill-opacity:1;" d="M 164.449219 148.40625 C 164.449219 146.488281 161.566406 146.488281 161.566406 148.40625 C 161.566406 150.328125 164.449219 150.328125 164.449219 148.40625 "/>
<path style=" stroke:none;fill-rule:evenodd;fill:rgb(100%,100%,100%);fill-opacity:1;" d="M 171.648438 148.40625 C 171.648438 146.488281 168.769531 146.488281 168.769531 148.40625 C 168.769531 150.328125 171.648438 150.328125 171.648438 148.40625 "/>
<path style=" stroke:none;fill-rule:evenodd;fill:rgb(100%,100%,100%);fill-opacity:1;" d="M 178.847656 148.40625 C 178.847656 146.488281 175.96875 146.488281 175.96875 148.40625 C 175.96875 150.328125 178.847656 150.328125 178.847656 148.40625 "/>
<path style=" stroke:none;fill-rule:evenodd;fill:rgb(100%,100%,100%);fill-opacity:1;" d="M 186.046875 148.40625 C 186.046875 146.488281 183.167969 146.488281 183.167969 148.40625 C 183.167969 150.328125 186.046875 150.328125 186.046875 148.40625 "/>
<path style=" stroke:none;fill-rule:evenodd;fill:rgb(100%,100%,100%);fill-opacity:1;" d="M 193.25 148.40625 C 193.25 146.488281 190.367188 146.488281 190.367188 148.40625 C 190.367188 150.328125 193.25 150.328125 193.25 148.40625 "/>
<path style=" stroke:none;fill-rule:evenodd;fill:rgb(100%,100%,100%);fill-opacity:1;" d="M 200.449219 148.40625 C 200.449219 146.488281 197.566406 146.488281 197.566406 148.40625 C 197.566406 150.328125 200.449219 150.328125 200.449219 148.40625 "/>
<path style=" stroke:none;fill-rule:evenodd;fill:rgb(100%,100%,100%);fill-opacity:1;" d="M 207.648438 148.40625 C 207.648438 146.488281 204.769531 146.488281 204.769531 148.40625 C 204.769531 150.328125 207.648438 150.328125 207.648438 148.40625 "/>
<path style=" stroke:none;fill-rule:evenodd;fill:rgb(100%,100%,100%);fill-opacity:1;" d="M 36.859375 113.847656 C 36.859375 111.929688 33.976562 111.929688 33.976562 113.847656 C 33.976562 115.769531 36.859375 115.769531 36.859375 113.847656 "/>
<path style=" stroke:none;fill-rule:evenodd;fill:rgb(100%,100%,100%);fill-opacity:1;" d="M 66.527344 11.609375 C 66.527344 9.6875 63.648438 9.6875 63.648438 11.609375 C 63.648438 13.527344 66.527344 13.527344 66.527344 11.609375 "/>
<path style=" stroke:none;fill-rule:evenodd;fill:rgb(100%,100%,100%);fill-opacity:1;" d="M 66.527344 18.808594 C 66.527344 16.886719 63.648438 16.886719 63.648438 18.808594 C 63.648438 20.726562 66.527344 20.726562 66.527344 18.808594 "/>
<path style=" stroke:none;fill-rule:evenodd;fill:rgb(100%,100%,100%);fill-opacity:1;" d="M 73.726562 11.609375 C 73.726562 9.6875 70.847656 9.6875 70.847656 11.609375 C 70.847656 13.527344 73.726562 13.527344 73.726562 11.609375 "/>
<path style=" stroke:none;fill-rule:evenodd;fill:rgb(100%,100%,100%);fill-opacity:1;" d="M 73.726562 18.808594 C 73.726562 16.886719 70.847656 16.886719 70.847656 18.808594 C 70.847656 20.726562 73.726562 20.726562 73.726562 18.808594 "/>
<path style=" stroke:none;fill-rule:evenodd;fill:rgb(100%,100%,100%);fill-opacity:1;" d="M 80.929688 11.609375 C 80.929688 9.6875 78.046875 9.6875 78.046875 11.609375 C 78.046875 13.527344 80.929688 13.527344 80.929688 11.609375 "/>
<path style=" stroke:none;fill-rule:evenodd;fill:rgb(100%,100%,100%);fill-opacity:1;" d="M 80.929688 18.808594 C 80.929688 16.886719 78.046875 16.886719 78.046875 18.808594 C 78.046875 20.726562 80.929688 20.726562 80.929688 18.808594 "/>
<path style=" stroke:none;fill-rule:evenodd;fill:rgb(100%,100%,100%);fill-opacity:1;" d="M 88.128906 11.609375 C 88.128906 9.6875 85.25 9.6875 85.25 11.609375 C 85.25 13.527344 88.128906 13.527344 88.128906 11.609375 "/>
<path style=" stroke:none;fill-rule:evenodd;fill:rgb(100%,100%,100%);fill-opacity:1;" d="M 88.128906 18.808594 C 88.128906 16.886719 85.25 16.886719 85.25 18.808594 C 85.25 20.726562 88.128906 20.726562 88.128906 18.808594 "/>
<path style=" stroke:none;fill-rule:evenodd;fill:rgb(100%,100%,100%);fill-opacity:1;" d="M 95.328125 11.609375 C 95.328125 9.6875 92.449219 9.6875 92.449219 11.609375 C 92.449219 13.527344 95.328125 13.527344 95.328125 11.609375 "/>
<path style=" stroke:none;fill-rule:evenodd;fill:rgb(100%,100%,100%);fill-opacity:1;" d="M 95.328125 18.808594 C 95.328125 16.886719 92.449219 16.886719 92.449219 18.808594 C 92.449219 20.726562 95.328125 20.726562 95.328125 18.808594 "/>
<path style=" stroke:none;fill-rule:evenodd;fill:rgb(100%,100%,100%);fill-opacity:1;" d="M 102.527344 11.609375 C 102.527344 9.6875 99.648438 9.6875 99.648438 11.609375 C 99.648438 13.527344 102.527344 13.527344 102.527344 11.609375 "/>
<path style=" stroke:none;fill-rule:evenodd;fill:rgb(100%,100%,100%);fill-opacity:1;" d="M 102.527344 18.808594 C 102.527344 16.886719 99.648438 16.886719 99.648438 18.808594 C 99.648438 20.726562 102.527344 20.726562 102.527344 18.808594 "/>
<path style=" stroke:none;fill-rule:evenodd;fill:rgb(100%,100%,100%);fill-opacity:1;" d="M 109.726562 11.609375 C 109.726562 9.6875 106.847656 9.6875 106.847656 11.609375 C 106.847656 13.527344 109.726562 13.527344 109.726562 11.609375 "/>
<path style=" stroke:none;fill-rule:evenodd;fill:rgb(100%,100%,100%);fill-opacity:1;" d="M 109.726562 18.808594 C 109.726562 16.886719 106.847656 16.886719 106.847656 18.808594 C 106.847656 20.726562 109.726562 20.726562 109.726562 18.808594 "/>
<path style=" stroke:none;fill-rule:evenodd;fill:rgb(100%,100%,100%);fill-opacity:1;" d="M 116.929688 11.609375 C 116.929688 9.6875 114.046875 9.6875 114.046875 11.609375 C 114.046875 13.527344 116.929688 13.527344 116.929688 11.609375 "/>
<path style=" stroke:none;fill-rule:evenodd;fill:rgb(100%,100%,100%);fill-opacity:1;" d="M 116.929688 18.808594 C 116.929688 16.886719 114.046875 16.886719 114.046875 18.808594 C 114.046875 20.726562 116.929688 20.726562 116.929688 18.808594 "/>
<path style=" stroke:none;fill-rule:evenodd;fill:rgb(100%,100%,100%);fill-opacity:1;" d="M 124.128906 11.609375 C 124.128906 9.6875 121.25 9.6875 121.25 11.609375 C 121.25 13.527344 124.128906 13.527344 124.128906 11.609375 "/>
<path style=" stroke:none;fill-rule:evenodd;fill:rgb(100%,100%,100%);fill-opacity:1;" d="M 124.128906 18.808594 C 124.128906 16.886719 121.25 16.886719 121.25 18.808594 C 121.25 20.726562 124.128906 20.726562 124.128906 18.808594 "/>
<path style=" stroke:none;fill-rule:evenodd;fill:rgb(100%,100%,100%);fill-opacity:1;" d="M 131.328125 11.609375 C 131.328125 9.6875 128.449219 9.6875 128.449219 11.609375 C 128.449219 13.527344 131.328125 13.527344 131.328125 11.609375 "/>
<path style=" stroke:none;fill-rule:evenodd;fill:rgb(100%,100%,100%);fill-opacity:1;" d="M 131.328125 18.808594 C 131.328125 16.886719 128.449219 16.886719 128.449219 18.808594 C 128.449219 20.726562 131.328125 20.726562 131.328125 18.808594 "/>
<path style=" stroke:none;fill-rule:evenodd;fill:rgb(100%,100%,100%);fill-opacity:1;" d="M 20.320312 30.601562 C 20.320312 26.253906 13.796875 26.253906 13.796875 30.601562 C 13.796875 34.953125 20.320312 34.953125 20.320312 30.601562 "/>
<path style=" stroke:none;fill-rule:evenodd;fill:rgb(100%,100%,100%);fill-opacity:1;" d="M 20.320312 64.613281 C 20.320312 60.265625 13.796875 60.265625 13.796875 64.613281 C 13.796875 68.960938 20.320312 68.960938 20.320312 64.613281 "/>
<path style=" stroke:none;fill-rule:evenodd;fill:rgb(100%,100%,100%);fill-opacity:1;" d="M 271.726562 11.609375 C 271.726562 5.847656 263.089844 5.847656 263.089844 11.609375 C 263.089844 17.367188 271.726562 17.367188 271.726562 11.609375 "/>
<path style=" stroke:none;fill-rule:evenodd;fill:rgb(100%,100%,100%);fill-opacity:1;" d="M 203.328125 54.808594 C 203.328125 49.046875 194.6875 49.046875 194.6875 54.808594 C 194.6875 60.566406 203.328125 60.566406 203.328125 54.808594 "/>
<path style=" stroke:none;fill-rule:evenodd;fill:rgb(100%,100%,100%);fill-opacity:1;" d="M 55.726562 148.40625 C 55.726562 142.648438 47.089844 142.648438 47.089844 148.40625 C 47.089844 154.167969 55.726562 154.167969 55.726562 148.40625 "/>
<path style=" stroke:none;fill-rule:evenodd;fill:rgb(100%,100%,100%);fill-opacity:1;" d="M 289.726562 148.40625 C 289.726562 142.648438 281.089844 142.648438 281.089844 148.40625 C 281.089844 154.167969 289.726562 154.167969 289.726562 148.40625 "/>
<path style=" stroke:none;fill-rule:evenodd;fill:rgb(100%,100%,100%);fill-opacity:1;" d="M 59.328125 11.609375 C 59.328125 5.847656 50.6875 5.847656 50.6875 11.609375 C 50.6875 17.367188 59.328125 17.367188 59.328125 11.609375 "/>
<path style=" stroke:none;fill-rule:evenodd;fill:rgb(100%,100%,100%);fill-opacity:1;" d="M 203.328125 134.007812 C 203.328125 128.246094 194.6875 128.246094 194.6875 134.007812 C 194.6875 139.769531 203.328125 139.769531 203.328125 134.007812 "/>
<path style=" stroke:none;fill-rule:evenodd;fill:rgb(100%,100%,100%);fill-opacity:1;" d="M 19.378906 72.242188 C 19.378906 71.300781 17.960938 71.300781 17.960938 72.242188 C 17.960938 73.1875 19.378906 73.1875 19.378906 72.242188 "/>
<path style=" stroke:none;fill-rule:evenodd;fill:rgb(100%,100%,100%);fill-opacity:1;" d="M 19.378906 92.085938 C 19.378906 91.140625 17.960938 91.140625 17.960938 92.085938 C 17.960938 93.03125 19.378906 93.03125 19.378906 92.085938 "/>
<path style=" stroke:none;fill-rule:evenodd;fill:rgb(100%,100%,100%);fill-opacity:1;" d="M 28.023438 74.652344 C 28.023438 73.613281 26.464844 73.613281 26.464844 74.652344 C 26.464844 75.691406 28.023438 75.691406 28.023438 74.652344 "/>
<path style=" stroke:none;fill-rule:evenodd;fill:rgb(100%,100%,100%);fill-opacity:1;" d="M 28.023438 88.828125 C 28.023438 87.789062 26.464844 87.789062 26.464844 88.828125 C 26.464844 89.867188 28.023438 89.867188 28.023438 88.828125 "/>
<path style=" stroke:none;fill-rule:evenodd;fill:rgb(100%,100%,100%);fill-opacity:1;" d="M 22.304688 129.867188 C 22.304688 127.945312 19.425781 127.945312 19.425781 129.867188 C 19.425781 131.785156 22.304688 131.785156 22.304688 129.867188 "/>
<path style=" stroke:none;fill-rule:evenodd;fill:rgb(100%,100%,100%);fill-opacity:1;" d="M 26.625 146.425781 C 26.625 144.507812 23.746094 144.507812 23.746094 146.425781 C 23.746094 148.347656 26.625 148.347656 26.625 146.425781 "/>
<path style=" stroke:none;fill-rule:evenodd;fill:rgb(100%,100%,100%);fill-opacity:1;" d="M 39.585938 129.867188 C 39.585938 127.945312 36.703125 127.945312 36.703125 129.867188 C 36.703125 131.785156 39.585938 131.785156 39.585938 129.867188 "/>
</g>
</svg>
