G04 #@! TF.GenerationSoftware,KiCad,Pcbnew,5.0.0-rc2-dev-unknown-ce1bd4c~62~ubuntu16.04.1*
G04 #@! TF.CreationDate,2018-03-08T22:00:34+01:00*
G04 #@! TF.ProjectId,BM20_multi,424D32305F6D756C74692E6B69636164,rev?*
G04 #@! TF.SameCoordinates,Original*
G04 #@! TF.FileFunction,Paste,Top*
G04 #@! TF.FilePolarity,Positive*
%FSLAX46Y46*%
G04 Gerber Fmt 4.6, Leading zero omitted, Abs format (unit mm)*
G04 Created by KiCad (PCBNEW 5.0.0-rc2-dev-unknown-ce1bd4c~62~ubuntu16.04.1) date Thu Mar  8 22:00:34 2018*
%MOMM*%
%LPD*%
G01*
G04 APERTURE LIST*
%ADD10R,1.597660X1.800860*%
%ADD11R,2.180000X1.600000*%
%ADD12R,3.500000X1.500000*%
%ADD13R,1.500000X1.300000*%
%ADD14R,1.501140X2.999740*%
G04 APERTURE END LIST*
D10*
X108625640Y-127038100D03*
X111465360Y-127038100D03*
D11*
X110662770Y-113027680D03*
X119867630Y-113032320D03*
D12*
X113833600Y-141986000D03*
X106333600Y-139986000D03*
X113833600Y-134986000D03*
X124247600Y-134986000D03*
X116747600Y-139986000D03*
X124247600Y-141986000D03*
D13*
X116666000Y-117703600D03*
X113966000Y-117703600D03*
D14*
X121716800Y-104602280D03*
X121716800Y-100604320D03*
X109410500Y-104741980D03*
X109410500Y-100744020D03*
D10*
X119115840Y-127063500D03*
X121955560Y-127063500D03*
D14*
X117322600Y-100642420D03*
X117322600Y-104640380D03*
D11*
X110815170Y-123441680D03*
X120020030Y-123446320D03*
D14*
X113550700Y-104741980D03*
X113550700Y-100744020D03*
D10*
X138089640Y-127038100D03*
X140929360Y-127038100D03*
D11*
X140126770Y-113027680D03*
X149331630Y-113032320D03*
D12*
X143297600Y-141986000D03*
X135797600Y-139986000D03*
X143297600Y-134986000D03*
X153711600Y-134986000D03*
X146211600Y-139986000D03*
X153711600Y-141986000D03*
D13*
X146130000Y-117703600D03*
X143430000Y-117703600D03*
D14*
X151180800Y-104602280D03*
X151180800Y-100604320D03*
X138874500Y-104741980D03*
X138874500Y-100744020D03*
D10*
X148579840Y-127063500D03*
X151419560Y-127063500D03*
D14*
X146786600Y-100642420D03*
X146786600Y-104640380D03*
D11*
X140279170Y-123441680D03*
X149484030Y-123446320D03*
D14*
X143014700Y-104741980D03*
X143014700Y-100744020D03*
D10*
X138089640Y-79794100D03*
X140929360Y-79794100D03*
D11*
X140126770Y-65783680D03*
X149331630Y-65788320D03*
D12*
X143297600Y-94742000D03*
X135797600Y-92742000D03*
X143297600Y-87742000D03*
X153711600Y-87742000D03*
X146211600Y-92742000D03*
X153711600Y-94742000D03*
D13*
X146130000Y-70459600D03*
X143430000Y-70459600D03*
D14*
X151180800Y-57358280D03*
X151180800Y-53360320D03*
X138874500Y-57497980D03*
X138874500Y-53500020D03*
D10*
X148579840Y-79819500D03*
X151419560Y-79819500D03*
D14*
X146786600Y-53398420D03*
X146786600Y-57396380D03*
D11*
X140279170Y-76197680D03*
X149484030Y-76202320D03*
D14*
X143014700Y-57497980D03*
X143014700Y-53500020D03*
D12*
X124247600Y-94742000D03*
X116747600Y-92742000D03*
X124247600Y-87742000D03*
D10*
X111465360Y-79794100D03*
X108625640Y-79794100D03*
X121955560Y-79819500D03*
X119115840Y-79819500D03*
D13*
X113966000Y-70459600D03*
X116666000Y-70459600D03*
D11*
X120020030Y-76202320D03*
X110815170Y-76197680D03*
X119867630Y-65788320D03*
X110662770Y-65783680D03*
D14*
X121716800Y-53360320D03*
X121716800Y-57358280D03*
X117322600Y-57396380D03*
X117322600Y-53398420D03*
X113550700Y-53500020D03*
X113550700Y-57497980D03*
D12*
X113833600Y-87742000D03*
X106333600Y-92742000D03*
X113833600Y-94742000D03*
D14*
X109410500Y-53500020D03*
X109410500Y-57497980D03*
M02*
