G04 #@! TF.GenerationSoftware,KiCad,Pcbnew,5.0.0-rc2-dev-unknown-ce1bd4c~62~ubuntu16.04.1*
G04 #@! TF.CreationDate,2018-03-08T22:00:34+01:00*
G04 #@! TF.ProjectId,BM20_multi,424D32305F6D756C74692E6B69636164,rev?*
G04 #@! TF.SameCoordinates,Original*
G04 #@! TF.FileFunction,Legend,Top*
G04 #@! TF.FilePolarity,Positive*
%FSLAX46Y46*%
G04 Gerber Fmt 4.6, Leading zero omitted, Abs format (unit mm)*
G04 Created by KiCad (PCBNEW 5.0.0-rc2-dev-unknown-ce1bd4c~62~ubuntu16.04.1) date Thu Mar  8 22:00:34 2018*
%MOMM*%
%LPD*%
G01*
G04 APERTURE LIST*
%ADD10C,0.250000*%
%ADD11C,0.150000*%
%ADD12C,0.050800*%
G04 APERTURE END LIST*
D10*
X121915371Y-124452771D02*
X121915371Y-122952771D01*
X122248704Y-124024200D01*
X122582038Y-122952771D01*
X122582038Y-124452771D01*
X123058228Y-124452771D02*
X123058228Y-122952771D01*
X124105847Y-124309914D02*
X124058228Y-124381342D01*
X123915371Y-124452771D01*
X123820133Y-124452771D01*
X123677276Y-124381342D01*
X123582038Y-124238485D01*
X123534419Y-124095628D01*
X123486800Y-123809914D01*
X123486800Y-123595628D01*
X123534419Y-123309914D01*
X123582038Y-123167057D01*
X123677276Y-123024200D01*
X123820133Y-122952771D01*
X123915371Y-122952771D01*
X124058228Y-123024200D01*
X124105847Y-123095628D01*
X151379371Y-124478171D02*
X151379371Y-122978171D01*
X151712704Y-124049600D01*
X152046038Y-122978171D01*
X152046038Y-124478171D01*
X152522228Y-124478171D02*
X152522228Y-122978171D01*
X153569847Y-124335314D02*
X153522228Y-124406742D01*
X153379371Y-124478171D01*
X153284133Y-124478171D01*
X153141276Y-124406742D01*
X153046038Y-124263885D01*
X152998419Y-124121028D01*
X152950800Y-123835314D01*
X152950800Y-123621028D01*
X152998419Y-123335314D01*
X153046038Y-123192457D01*
X153141276Y-123049600D01*
X153284133Y-122978171D01*
X153379371Y-122978171D01*
X153522228Y-123049600D01*
X153569847Y-123121028D01*
X151353971Y-77208771D02*
X151353971Y-75708771D01*
X151687304Y-76780200D01*
X152020638Y-75708771D01*
X152020638Y-77208771D01*
X152496828Y-77208771D02*
X152496828Y-75708771D01*
X153544447Y-77065914D02*
X153496828Y-77137342D01*
X153353971Y-77208771D01*
X153258733Y-77208771D01*
X153115876Y-77137342D01*
X153020638Y-76994485D01*
X152973019Y-76851628D01*
X152925400Y-76565914D01*
X152925400Y-76351628D01*
X152973019Y-76065914D01*
X153020638Y-75923057D01*
X153115876Y-75780200D01*
X153258733Y-75708771D01*
X153353971Y-75708771D01*
X153496828Y-75780200D01*
X153544447Y-75851628D01*
X121889971Y-77208771D02*
X121889971Y-75708771D01*
X122223304Y-76780200D01*
X122556638Y-75708771D01*
X122556638Y-77208771D01*
X123032828Y-77208771D02*
X123032828Y-75708771D01*
X124080447Y-77065914D02*
X124032828Y-77137342D01*
X123889971Y-77208771D01*
X123794733Y-77208771D01*
X123651876Y-77137342D01*
X123556638Y-76994485D01*
X123509019Y-76851628D01*
X123461400Y-76565914D01*
X123461400Y-76351628D01*
X123509019Y-76065914D01*
X123556638Y-75923057D01*
X123651876Y-75780200D01*
X123794733Y-75708771D01*
X123889971Y-75708771D01*
X124032828Y-75780200D01*
X124080447Y-75851628D01*
X104632628Y-135819871D02*
X104775485Y-135867490D01*
X104823104Y-135915109D01*
X104870723Y-136010347D01*
X104870723Y-136153204D01*
X104823104Y-136248442D01*
X104775485Y-136296061D01*
X104680247Y-136343680D01*
X104299295Y-136343680D01*
X104299295Y-135343680D01*
X104632628Y-135343680D01*
X104727866Y-135391300D01*
X104775485Y-135438919D01*
X104823104Y-135534157D01*
X104823104Y-135629395D01*
X104775485Y-135724633D01*
X104727866Y-135772252D01*
X104632628Y-135819871D01*
X104299295Y-135819871D01*
X105251676Y-136057966D02*
X105727866Y-136057966D01*
X105156438Y-136343680D02*
X105489771Y-135343680D01*
X105823104Y-136343680D01*
X106013580Y-135343680D02*
X106585009Y-135343680D01*
X106299295Y-136343680D02*
X106299295Y-135343680D01*
X104251676Y-137807966D02*
X104727866Y-137807966D01*
X104156438Y-138093680D02*
X104489771Y-137093680D01*
X104823104Y-138093680D01*
X105156438Y-138093680D02*
X105156438Y-137093680D01*
X105394533Y-137093680D01*
X105537390Y-137141300D01*
X105632628Y-137236538D01*
X105680247Y-137331776D01*
X105727866Y-137522252D01*
X105727866Y-137665109D01*
X105680247Y-137855585D01*
X105632628Y-137950823D01*
X105537390Y-138046061D01*
X105394533Y-138093680D01*
X105156438Y-138093680D01*
X106108819Y-137807966D02*
X106585009Y-137807966D01*
X106013580Y-138093680D02*
X106346914Y-137093680D01*
X106680247Y-138093680D01*
X107013580Y-138093680D02*
X107013580Y-137093680D01*
X107394533Y-137093680D01*
X107489771Y-137141300D01*
X107537390Y-137188919D01*
X107585009Y-137284157D01*
X107585009Y-137427014D01*
X107537390Y-137522252D01*
X107489771Y-137569871D01*
X107394533Y-137617490D01*
X107013580Y-137617490D01*
X124831138Y-137106980D02*
X124497804Y-136630790D01*
X124259709Y-137106980D02*
X124259709Y-136106980D01*
X124640661Y-136106980D01*
X124735900Y-136154600D01*
X124783519Y-136202219D01*
X124831138Y-136297457D01*
X124831138Y-136440314D01*
X124783519Y-136535552D01*
X124735900Y-136583171D01*
X124640661Y-136630790D01*
X124259709Y-136630790D01*
X125212090Y-137059361D02*
X125354947Y-137106980D01*
X125593042Y-137106980D01*
X125688280Y-137059361D01*
X125735900Y-137011742D01*
X125783519Y-136916504D01*
X125783519Y-136821266D01*
X125735900Y-136726028D01*
X125688280Y-136678409D01*
X125593042Y-136630790D01*
X125402566Y-136583171D01*
X125307328Y-136535552D01*
X125259709Y-136487933D01*
X125212090Y-136392695D01*
X125212090Y-136297457D01*
X125259709Y-136202219D01*
X125307328Y-136154600D01*
X125402566Y-136106980D01*
X125640661Y-136106980D01*
X125783519Y-136154600D01*
X126069233Y-136106980D02*
X126640661Y-136106980D01*
X126354947Y-137106980D02*
X126354947Y-136106980D01*
X124116852Y-137856980D02*
X124450185Y-138856980D01*
X124783519Y-137856980D01*
X125688280Y-138856980D02*
X125354947Y-138380790D01*
X125116852Y-138856980D02*
X125116852Y-137856980D01*
X125497804Y-137856980D01*
X125593042Y-137904600D01*
X125640661Y-137952219D01*
X125688280Y-138047457D01*
X125688280Y-138190314D01*
X125640661Y-138285552D01*
X125593042Y-138333171D01*
X125497804Y-138380790D01*
X125116852Y-138380790D01*
X126450185Y-138333171D02*
X126116852Y-138333171D01*
X126116852Y-138856980D02*
X126116852Y-137856980D01*
X126593042Y-137856980D01*
X123307328Y-140606980D02*
X123307328Y-139606980D01*
X123688280Y-139606980D01*
X123783519Y-139654600D01*
X123831138Y-139702219D01*
X123878757Y-139797457D01*
X123878757Y-139940314D01*
X123831138Y-140035552D01*
X123783519Y-140083171D01*
X123688280Y-140130790D01*
X123307328Y-140130790D01*
X124497804Y-139606980D02*
X124593042Y-139606980D01*
X124688280Y-139654600D01*
X124735900Y-139702219D01*
X124783519Y-139797457D01*
X124831138Y-139987933D01*
X124831138Y-140226028D01*
X124783519Y-140416504D01*
X124735900Y-140511742D01*
X124688280Y-140559361D01*
X124593042Y-140606980D01*
X124497804Y-140606980D01*
X124402566Y-140559361D01*
X124354947Y-140511742D01*
X124307328Y-140416504D01*
X124259709Y-140226028D01*
X124259709Y-139987933D01*
X124307328Y-139797457D01*
X124354947Y-139702219D01*
X124402566Y-139654600D01*
X124497804Y-139606980D01*
X125021614Y-140702219D02*
X125783519Y-140702219D01*
X126545423Y-140606980D02*
X125973995Y-140606980D01*
X126259709Y-140606980D02*
X126259709Y-139606980D01*
X126164471Y-139749838D01*
X126069233Y-139845076D01*
X125973995Y-139892695D01*
X104775119Y-142501880D02*
X104775119Y-141501880D01*
X105441785Y-141501880D02*
X105632261Y-141501880D01*
X105727500Y-141549500D01*
X105822738Y-141644738D01*
X105870357Y-141835214D01*
X105870357Y-142168547D01*
X105822738Y-142359023D01*
X105727500Y-142454261D01*
X105632261Y-142501880D01*
X105441785Y-142501880D01*
X105346547Y-142454261D01*
X105251309Y-142359023D01*
X105203690Y-142168547D01*
X105203690Y-141835214D01*
X105251309Y-141644738D01*
X105346547Y-141549500D01*
X105441785Y-141501880D01*
X106156071Y-141501880D02*
X106489404Y-142501880D01*
X106822738Y-141501880D01*
X113914419Y-120820571D02*
X113581085Y-120106285D01*
X113342990Y-120820571D02*
X113342990Y-119320571D01*
X113723942Y-119320571D01*
X113819180Y-119392000D01*
X113866800Y-119463428D01*
X113914419Y-119606285D01*
X113914419Y-119820571D01*
X113866800Y-119963428D01*
X113819180Y-120034857D01*
X113723942Y-120106285D01*
X113342990Y-120106285D01*
X114342990Y-120034857D02*
X114676323Y-120034857D01*
X114819180Y-120820571D02*
X114342990Y-120820571D01*
X114342990Y-119320571D01*
X114819180Y-119320571D01*
X115200133Y-120749142D02*
X115342990Y-120820571D01*
X115581085Y-120820571D01*
X115676323Y-120749142D01*
X115723942Y-120677714D01*
X115771561Y-120534857D01*
X115771561Y-120392000D01*
X115723942Y-120249142D01*
X115676323Y-120177714D01*
X115581085Y-120106285D01*
X115390609Y-120034857D01*
X115295371Y-119963428D01*
X115247752Y-119892000D01*
X115200133Y-119749142D01*
X115200133Y-119606285D01*
X115247752Y-119463428D01*
X115295371Y-119392000D01*
X115390609Y-119320571D01*
X115628704Y-119320571D01*
X115771561Y-119392000D01*
X116200133Y-120034857D02*
X116533466Y-120034857D01*
X116676323Y-120820571D02*
X116200133Y-120820571D01*
X116200133Y-119320571D01*
X116676323Y-119320571D01*
X116962038Y-119320571D02*
X117533466Y-119320571D01*
X117247752Y-120820571D02*
X117247752Y-119320571D01*
X114054095Y-110152571D02*
X114054095Y-108652571D01*
X114387428Y-109724000D01*
X114720761Y-108652571D01*
X114720761Y-110152571D01*
X115530285Y-109366857D02*
X115196952Y-109366857D01*
X115196952Y-110152571D02*
X115196952Y-108652571D01*
X115673142Y-108652571D01*
X116387428Y-109366857D02*
X116530285Y-109438285D01*
X116577904Y-109509714D01*
X116625523Y-109652571D01*
X116625523Y-109866857D01*
X116577904Y-110009714D01*
X116530285Y-110081142D01*
X116435047Y-110152571D01*
X116054095Y-110152571D01*
X116054095Y-108652571D01*
X116387428Y-108652571D01*
X116482666Y-108724000D01*
X116530285Y-108795428D01*
X116577904Y-108938285D01*
X116577904Y-109081142D01*
X116530285Y-109224000D01*
X116482666Y-109295428D01*
X116387428Y-109366857D01*
X116054095Y-109366857D01*
X122862828Y-98982571D02*
X122862828Y-97482571D01*
X123243780Y-97482571D01*
X123339019Y-97554000D01*
X123386638Y-97625428D01*
X123434257Y-97768285D01*
X123434257Y-97982571D01*
X123386638Y-98125428D01*
X123339019Y-98196857D01*
X123243780Y-98268285D01*
X122862828Y-98268285D01*
X124053304Y-97482571D02*
X124148542Y-97482571D01*
X124243780Y-97554000D01*
X124291400Y-97625428D01*
X124339019Y-97768285D01*
X124386638Y-98054000D01*
X124386638Y-98411142D01*
X124339019Y-98696857D01*
X124291400Y-98839714D01*
X124243780Y-98911142D01*
X124148542Y-98982571D01*
X124053304Y-98982571D01*
X123958066Y-98911142D01*
X123910447Y-98839714D01*
X123862828Y-98696857D01*
X123815209Y-98411142D01*
X123815209Y-98054000D01*
X123862828Y-97768285D01*
X123910447Y-97625428D01*
X123958066Y-97554000D01*
X124053304Y-97482571D01*
X124577114Y-99125428D02*
X125339019Y-99125428D01*
X125767590Y-97482571D02*
X125862828Y-97482571D01*
X125958066Y-97554000D01*
X126005685Y-97625428D01*
X126053304Y-97768285D01*
X126100923Y-98054000D01*
X126100923Y-98411142D01*
X126053304Y-98696857D01*
X126005685Y-98839714D01*
X125958066Y-98911142D01*
X125862828Y-98982571D01*
X125767590Y-98982571D01*
X125672352Y-98911142D01*
X125624733Y-98839714D01*
X125577114Y-98696857D01*
X125529495Y-98411142D01*
X125529495Y-98054000D01*
X125577114Y-97768285D01*
X125624733Y-97625428D01*
X125672352Y-97554000D01*
X125767590Y-97482571D01*
X123719971Y-100696857D02*
X124053304Y-100696857D01*
X124196161Y-101482571D02*
X123719971Y-101482571D01*
X123719971Y-99982571D01*
X124196161Y-99982571D01*
X124577114Y-101054000D02*
X125053304Y-101054000D01*
X124481876Y-101482571D02*
X124815209Y-99982571D01*
X125148542Y-101482571D01*
X125481876Y-101482571D02*
X125481876Y-99982571D01*
X126053304Y-101482571D01*
X126053304Y-99982571D01*
X122862828Y-103982571D02*
X122862828Y-102482571D01*
X123243780Y-102482571D01*
X123339019Y-102554000D01*
X123386638Y-102625428D01*
X123434257Y-102768285D01*
X123434257Y-102982571D01*
X123386638Y-103125428D01*
X123339019Y-103196857D01*
X123243780Y-103268285D01*
X122862828Y-103268285D01*
X123767590Y-102482571D02*
X124386638Y-102482571D01*
X124053304Y-103054000D01*
X124196161Y-103054000D01*
X124291400Y-103125428D01*
X124339019Y-103196857D01*
X124386638Y-103339714D01*
X124386638Y-103696857D01*
X124339019Y-103839714D01*
X124291400Y-103911142D01*
X124196161Y-103982571D01*
X123910447Y-103982571D01*
X123815209Y-103911142D01*
X123767590Y-103839714D01*
X124577114Y-104125428D02*
X125339019Y-104125428D01*
X125767590Y-102482571D02*
X125862828Y-102482571D01*
X125958066Y-102554000D01*
X126005685Y-102625428D01*
X126053304Y-102768285D01*
X126100923Y-103054000D01*
X126100923Y-103411142D01*
X126053304Y-103696857D01*
X126005685Y-103839714D01*
X125958066Y-103911142D01*
X125862828Y-103982571D01*
X125767590Y-103982571D01*
X125672352Y-103911142D01*
X125624733Y-103839714D01*
X125577114Y-103696857D01*
X125529495Y-103411142D01*
X125529495Y-103054000D01*
X125577114Y-102768285D01*
X125624733Y-102625428D01*
X125672352Y-102554000D01*
X125767590Y-102482571D01*
X122862828Y-106482571D02*
X122862828Y-104982571D01*
X123243780Y-104982571D01*
X123339019Y-105054000D01*
X123386638Y-105125428D01*
X123434257Y-105268285D01*
X123434257Y-105482571D01*
X123386638Y-105625428D01*
X123339019Y-105696857D01*
X123243780Y-105768285D01*
X122862828Y-105768285D01*
X123815209Y-105125428D02*
X123862828Y-105054000D01*
X123958066Y-104982571D01*
X124196161Y-104982571D01*
X124291400Y-105054000D01*
X124339019Y-105125428D01*
X124386638Y-105268285D01*
X124386638Y-105411142D01*
X124339019Y-105625428D01*
X123767590Y-106482571D01*
X124386638Y-106482571D01*
X124577114Y-106625428D02*
X125339019Y-106625428D01*
X125767590Y-104982571D02*
X125862828Y-104982571D01*
X125958066Y-105054000D01*
X126005685Y-105125428D01*
X126053304Y-105268285D01*
X126100923Y-105554000D01*
X126100923Y-105911142D01*
X126053304Y-106196857D01*
X126005685Y-106339714D01*
X125958066Y-106411142D01*
X125862828Y-106482571D01*
X125767590Y-106482571D01*
X125672352Y-106411142D01*
X125624733Y-106339714D01*
X125577114Y-106196857D01*
X125529495Y-105911142D01*
X125529495Y-105554000D01*
X125577114Y-105268285D01*
X125624733Y-105125428D01*
X125672352Y-105054000D01*
X125767590Y-104982571D01*
X122862828Y-108982571D02*
X122862828Y-107482571D01*
X123243780Y-107482571D01*
X123339019Y-107554000D01*
X123386638Y-107625428D01*
X123434257Y-107768285D01*
X123434257Y-107982571D01*
X123386638Y-108125428D01*
X123339019Y-108196857D01*
X123243780Y-108268285D01*
X122862828Y-108268285D01*
X124386638Y-108982571D02*
X123815209Y-108982571D01*
X124100923Y-108982571D02*
X124100923Y-107482571D01*
X124005685Y-107696857D01*
X123910447Y-107839714D01*
X123815209Y-107911142D01*
X124577114Y-109125428D02*
X125339019Y-109125428D01*
X126053304Y-107482571D02*
X125577114Y-107482571D01*
X125529495Y-108196857D01*
X125577114Y-108125428D01*
X125672352Y-108054000D01*
X125910447Y-108054000D01*
X126005685Y-108125428D01*
X126053304Y-108196857D01*
X126100923Y-108339714D01*
X126100923Y-108696857D01*
X126053304Y-108839714D01*
X126005685Y-108911142D01*
X125910447Y-108982571D01*
X125672352Y-108982571D01*
X125577114Y-108911142D01*
X125529495Y-108839714D01*
X122862828Y-111482571D02*
X122862828Y-109982571D01*
X123243780Y-109982571D01*
X123339019Y-110054000D01*
X123386638Y-110125428D01*
X123434257Y-110268285D01*
X123434257Y-110482571D01*
X123386638Y-110625428D01*
X123339019Y-110696857D01*
X123243780Y-110768285D01*
X122862828Y-110768285D01*
X124053304Y-109982571D02*
X124148542Y-109982571D01*
X124243780Y-110054000D01*
X124291400Y-110125428D01*
X124339019Y-110268285D01*
X124386638Y-110554000D01*
X124386638Y-110911142D01*
X124339019Y-111196857D01*
X124291400Y-111339714D01*
X124243780Y-111411142D01*
X124148542Y-111482571D01*
X124053304Y-111482571D01*
X123958066Y-111411142D01*
X123910447Y-111339714D01*
X123862828Y-111196857D01*
X123815209Y-110911142D01*
X123815209Y-110554000D01*
X123862828Y-110268285D01*
X123910447Y-110125428D01*
X123958066Y-110054000D01*
X124053304Y-109982571D01*
X124577114Y-111625428D02*
X125339019Y-111625428D01*
X126005685Y-110482571D02*
X126005685Y-111482571D01*
X125767590Y-109911142D02*
X125529495Y-110982571D01*
X126148542Y-110982571D01*
X122529495Y-113911142D02*
X122672352Y-113982571D01*
X122910447Y-113982571D01*
X123005685Y-113911142D01*
X123053304Y-113839714D01*
X123100923Y-113696857D01*
X123100923Y-113554000D01*
X123053304Y-113411142D01*
X123005685Y-113339714D01*
X122910447Y-113268285D01*
X122719971Y-113196857D01*
X122624733Y-113125428D01*
X122577114Y-113054000D01*
X122529495Y-112911142D01*
X122529495Y-112768285D01*
X122577114Y-112625428D01*
X122624733Y-112554000D01*
X122719971Y-112482571D01*
X122958066Y-112482571D01*
X123100923Y-112554000D01*
X123529495Y-113982571D02*
X123529495Y-112482571D01*
X123910447Y-112482571D01*
X124005685Y-112554000D01*
X124053304Y-112625428D01*
X124100923Y-112768285D01*
X124100923Y-112982571D01*
X124053304Y-113125428D01*
X124005685Y-113196857D01*
X123910447Y-113268285D01*
X123529495Y-113268285D01*
X124529495Y-113982571D02*
X124529495Y-112482571D01*
X125100923Y-113982571D02*
X124672352Y-113125428D01*
X125100923Y-112482571D02*
X124529495Y-113339714D01*
X126100923Y-113982571D02*
X125767590Y-113268285D01*
X125529495Y-113982571D02*
X125529495Y-112482571D01*
X125910447Y-112482571D01*
X126005685Y-112554000D01*
X126053304Y-112625428D01*
X126100923Y-112768285D01*
X126100923Y-112982571D01*
X126053304Y-113125428D01*
X126005685Y-113196857D01*
X125910447Y-113268285D01*
X125529495Y-113268285D01*
X121386638Y-116054000D02*
X121862828Y-116054000D01*
X121291400Y-116482571D02*
X121624733Y-114982571D01*
X121958066Y-116482571D01*
X122481876Y-114982571D02*
X122672352Y-114982571D01*
X122767590Y-115054000D01*
X122862828Y-115196857D01*
X122910447Y-115482571D01*
X122910447Y-115982571D01*
X122862828Y-116268285D01*
X122767590Y-116411142D01*
X122672352Y-116482571D01*
X122481876Y-116482571D01*
X122386638Y-116411142D01*
X122291400Y-116268285D01*
X122243780Y-115982571D01*
X122243780Y-115482571D01*
X122291400Y-115196857D01*
X122386638Y-115054000D01*
X122481876Y-114982571D01*
X123339019Y-116482571D02*
X123339019Y-114982571D01*
X123339019Y-115696857D02*
X123910447Y-115696857D01*
X123910447Y-116482571D02*
X123910447Y-114982571D01*
X124386638Y-116482571D02*
X124386638Y-114982571D01*
X124767590Y-114982571D01*
X124862828Y-115054000D01*
X124910447Y-115125428D01*
X124958066Y-115268285D01*
X124958066Y-115482571D01*
X124910447Y-115625428D01*
X124862828Y-115696857D01*
X124767590Y-115768285D01*
X124386638Y-115768285D01*
X125386638Y-116482571D02*
X125386638Y-114982571D01*
X125719971Y-116054000D01*
X126053304Y-114982571D01*
X126053304Y-116482571D01*
X122719971Y-118911142D02*
X122862828Y-118982571D01*
X123100923Y-118982571D01*
X123196161Y-118911142D01*
X123243780Y-118839714D01*
X123291400Y-118696857D01*
X123291400Y-118554000D01*
X123243780Y-118411142D01*
X123196161Y-118339714D01*
X123100923Y-118268285D01*
X122910447Y-118196857D01*
X122815209Y-118125428D01*
X122767590Y-118054000D01*
X122719971Y-117911142D01*
X122719971Y-117768285D01*
X122767590Y-117625428D01*
X122815209Y-117554000D01*
X122910447Y-117482571D01*
X123148542Y-117482571D01*
X123291400Y-117554000D01*
X123719971Y-118982571D02*
X123719971Y-117482571D01*
X124100923Y-117482571D01*
X124196161Y-117554000D01*
X124243780Y-117625428D01*
X124291400Y-117768285D01*
X124291400Y-117982571D01*
X124243780Y-118125428D01*
X124196161Y-118196857D01*
X124100923Y-118268285D01*
X123719971Y-118268285D01*
X124719971Y-118982571D02*
X124719971Y-117482571D01*
X125291400Y-118982571D02*
X124862828Y-118125428D01*
X125291400Y-117482571D02*
X124719971Y-118339714D01*
X126196161Y-118982571D02*
X125719971Y-118982571D01*
X125719971Y-117482571D01*
X122672352Y-119982571D02*
X123005685Y-121482571D01*
X123339019Y-119982571D01*
X123672352Y-121482571D02*
X123672352Y-119982571D01*
X123910447Y-119982571D01*
X124053304Y-120054000D01*
X124148542Y-120196857D01*
X124196161Y-120339714D01*
X124243780Y-120625428D01*
X124243780Y-120839714D01*
X124196161Y-121125428D01*
X124148542Y-121268285D01*
X124053304Y-121411142D01*
X123910447Y-121482571D01*
X123672352Y-121482571D01*
X124672352Y-121482571D02*
X124672352Y-119982571D01*
X124910447Y-119982571D01*
X125053304Y-120054000D01*
X125148542Y-120196857D01*
X125196161Y-120339714D01*
X125243780Y-120625428D01*
X125243780Y-120839714D01*
X125196161Y-121125428D01*
X125148542Y-121268285D01*
X125053304Y-121411142D01*
X124910447Y-121482571D01*
X124672352Y-121482571D01*
X125624733Y-121054000D02*
X126100923Y-121054000D01*
X125529495Y-121482571D02*
X125862828Y-119982571D01*
X126196161Y-121482571D01*
X125529495Y-123982571D02*
X125529495Y-122482571D01*
X125910447Y-122482571D01*
X126005685Y-122554000D01*
X126053304Y-122625428D01*
X126100923Y-122768285D01*
X126100923Y-122982571D01*
X126053304Y-123125428D01*
X126005685Y-123196857D01*
X125910447Y-123268285D01*
X125529495Y-123268285D01*
X125481876Y-126482571D02*
X125481876Y-124982571D01*
X126053304Y-126482571D01*
X126053304Y-124982571D01*
X123577114Y-128196857D02*
X123719971Y-128268285D01*
X123767590Y-128339714D01*
X123815209Y-128482571D01*
X123815209Y-128696857D01*
X123767590Y-128839714D01*
X123719971Y-128911142D01*
X123624733Y-128982571D01*
X123243780Y-128982571D01*
X123243780Y-127482571D01*
X123577114Y-127482571D01*
X123672352Y-127554000D01*
X123719971Y-127625428D01*
X123767590Y-127768285D01*
X123767590Y-127911142D01*
X123719971Y-128054000D01*
X123672352Y-128125428D01*
X123577114Y-128196857D01*
X123243780Y-128196857D01*
X124243780Y-128982571D02*
X124243780Y-127482571D01*
X124672352Y-128554000D02*
X125148542Y-128554000D01*
X124577114Y-128982571D02*
X124910447Y-127482571D01*
X125243780Y-128982571D01*
X125529495Y-128911142D02*
X125672352Y-128982571D01*
X125910447Y-128982571D01*
X126005685Y-128911142D01*
X126053304Y-128839714D01*
X126100923Y-128696857D01*
X126100923Y-128554000D01*
X126053304Y-128411142D01*
X126005685Y-128339714D01*
X125910447Y-128268285D01*
X125719971Y-128196857D01*
X125624733Y-128125428D01*
X125577114Y-128054000D01*
X125529495Y-127911142D01*
X125529495Y-127768285D01*
X125577114Y-127625428D01*
X125624733Y-127554000D01*
X125719971Y-127482571D01*
X125958066Y-127482571D01*
X126100923Y-127554000D01*
X124148542Y-131054000D02*
X124624733Y-131054000D01*
X124053304Y-131482571D02*
X124386638Y-129982571D01*
X124719971Y-131482571D01*
X125053304Y-131482571D02*
X125053304Y-129982571D01*
X126100923Y-131482571D02*
X125767590Y-130768285D01*
X125529495Y-131482571D02*
X125529495Y-129982571D01*
X125910447Y-129982571D01*
X126005685Y-130054000D01*
X126053304Y-130125428D01*
X126100923Y-130268285D01*
X126100923Y-130482571D01*
X126053304Y-130625428D01*
X126005685Y-130696857D01*
X125910447Y-130768285D01*
X125529495Y-130768285D01*
X104835804Y-97231100D02*
X104740566Y-97159671D01*
X104597709Y-97159671D01*
X104454852Y-97231100D01*
X104359614Y-97373957D01*
X104311995Y-97516814D01*
X104264376Y-97802528D01*
X104264376Y-98016814D01*
X104311995Y-98302528D01*
X104359614Y-98445385D01*
X104454852Y-98588242D01*
X104597709Y-98659671D01*
X104692947Y-98659671D01*
X104835804Y-98588242D01*
X104883423Y-98516814D01*
X104883423Y-98016814D01*
X104692947Y-98016814D01*
X105311995Y-98659671D02*
X105311995Y-97159671D01*
X105883423Y-98659671D01*
X105883423Y-97159671D01*
X106359614Y-98659671D02*
X106359614Y-97159671D01*
X106597709Y-97159671D01*
X106740566Y-97231100D01*
X106835804Y-97373957D01*
X106883423Y-97516814D01*
X106931042Y-97802528D01*
X106931042Y-98016814D01*
X106883423Y-98302528D01*
X106835804Y-98445385D01*
X106740566Y-98588242D01*
X106597709Y-98659671D01*
X106359614Y-98659671D01*
X104311995Y-101159671D02*
X104311995Y-99659671D01*
X104692947Y-99659671D01*
X104788185Y-99731100D01*
X104835804Y-99802528D01*
X104883423Y-99945385D01*
X104883423Y-100159671D01*
X104835804Y-100302528D01*
X104788185Y-100373957D01*
X104692947Y-100445385D01*
X104311995Y-100445385D01*
X105264376Y-99802528D02*
X105311995Y-99731100D01*
X105407233Y-99659671D01*
X105645328Y-99659671D01*
X105740566Y-99731100D01*
X105788185Y-99802528D01*
X105835804Y-99945385D01*
X105835804Y-100088242D01*
X105788185Y-100302528D01*
X105216757Y-101159671D01*
X105835804Y-101159671D01*
X106026280Y-101302528D02*
X106788185Y-101302528D01*
X107454852Y-100159671D02*
X107454852Y-101159671D01*
X107216757Y-99588242D02*
X106978661Y-100659671D01*
X107597709Y-100659671D01*
X104311995Y-103659671D02*
X104311995Y-102159671D01*
X104692947Y-102159671D01*
X104788185Y-102231100D01*
X104835804Y-102302528D01*
X104883423Y-102445385D01*
X104883423Y-102659671D01*
X104835804Y-102802528D01*
X104788185Y-102873957D01*
X104692947Y-102945385D01*
X104311995Y-102945385D01*
X105264376Y-102302528D02*
X105311995Y-102231100D01*
X105407233Y-102159671D01*
X105645328Y-102159671D01*
X105740566Y-102231100D01*
X105788185Y-102302528D01*
X105835804Y-102445385D01*
X105835804Y-102588242D01*
X105788185Y-102802528D01*
X105216757Y-103659671D01*
X105835804Y-103659671D01*
X106026280Y-103802528D02*
X106788185Y-103802528D01*
X106931042Y-102159671D02*
X107597709Y-102159671D01*
X107169138Y-103659671D01*
X104311995Y-106159671D02*
X104311995Y-104659671D01*
X104692947Y-104659671D01*
X104788185Y-104731100D01*
X104835804Y-104802528D01*
X104883423Y-104945385D01*
X104883423Y-105159671D01*
X104835804Y-105302528D01*
X104788185Y-105373957D01*
X104692947Y-105445385D01*
X104311995Y-105445385D01*
X105502471Y-104659671D02*
X105597709Y-104659671D01*
X105692947Y-104731100D01*
X105740566Y-104802528D01*
X105788185Y-104945385D01*
X105835804Y-105231100D01*
X105835804Y-105588242D01*
X105788185Y-105873957D01*
X105740566Y-106016814D01*
X105692947Y-106088242D01*
X105597709Y-106159671D01*
X105502471Y-106159671D01*
X105407233Y-106088242D01*
X105359614Y-106016814D01*
X105311995Y-105873957D01*
X105264376Y-105588242D01*
X105264376Y-105231100D01*
X105311995Y-104945385D01*
X105359614Y-104802528D01*
X105407233Y-104731100D01*
X105502471Y-104659671D01*
X106026280Y-106302528D02*
X106788185Y-106302528D01*
X107502471Y-104659671D02*
X107026280Y-104659671D01*
X106978661Y-105373957D01*
X107026280Y-105302528D01*
X107121519Y-105231100D01*
X107359614Y-105231100D01*
X107454852Y-105302528D01*
X107502471Y-105373957D01*
X107550090Y-105516814D01*
X107550090Y-105873957D01*
X107502471Y-106016814D01*
X107454852Y-106088242D01*
X107359614Y-106159671D01*
X107121519Y-106159671D01*
X107026280Y-106088242D01*
X106978661Y-106016814D01*
X104883423Y-108659671D02*
X104550090Y-107945385D01*
X104311995Y-108659671D02*
X104311995Y-107159671D01*
X104692947Y-107159671D01*
X104788185Y-107231100D01*
X104835804Y-107302528D01*
X104883423Y-107445385D01*
X104883423Y-107659671D01*
X104835804Y-107802528D01*
X104788185Y-107873957D01*
X104692947Y-107945385D01*
X104311995Y-107945385D01*
X105216757Y-107159671D02*
X105883423Y-108659671D01*
X105883423Y-107159671D02*
X105216757Y-108659671D01*
X106264376Y-108659671D02*
X106264376Y-107159671D01*
X106502471Y-107159671D01*
X106645328Y-107231100D01*
X106740566Y-107373957D01*
X106788185Y-107516814D01*
X106835804Y-107802528D01*
X106835804Y-108016814D01*
X106788185Y-108302528D01*
X106740566Y-108445385D01*
X106645328Y-108588242D01*
X106502471Y-108659671D01*
X106264376Y-108659671D01*
X104169138Y-109659671D02*
X104740566Y-109659671D01*
X104454852Y-111159671D02*
X104454852Y-109659671D01*
X104978661Y-109659671D02*
X105645328Y-111159671D01*
X105645328Y-109659671D02*
X104978661Y-111159671D01*
X106026280Y-111159671D02*
X106026280Y-109659671D01*
X106264376Y-109659671D01*
X106407233Y-109731100D01*
X106502471Y-109873957D01*
X106550090Y-110016814D01*
X106597709Y-110302528D01*
X106597709Y-110516814D01*
X106550090Y-110802528D01*
X106502471Y-110945385D01*
X106407233Y-111088242D01*
X106264376Y-111159671D01*
X106026280Y-111159671D01*
X104311995Y-113659671D02*
X104311995Y-112159671D01*
X104692947Y-112159671D01*
X104788185Y-112231100D01*
X104835804Y-112302528D01*
X104883423Y-112445385D01*
X104883423Y-112659671D01*
X104835804Y-112802528D01*
X104788185Y-112873957D01*
X104692947Y-112945385D01*
X104311995Y-112945385D01*
X105502471Y-112159671D02*
X105597709Y-112159671D01*
X105692947Y-112231100D01*
X105740566Y-112302528D01*
X105788185Y-112445385D01*
X105835804Y-112731100D01*
X105835804Y-113088242D01*
X105788185Y-113373957D01*
X105740566Y-113516814D01*
X105692947Y-113588242D01*
X105597709Y-113659671D01*
X105502471Y-113659671D01*
X105407233Y-113588242D01*
X105359614Y-113516814D01*
X105311995Y-113373957D01*
X105264376Y-113088242D01*
X105264376Y-112731100D01*
X105311995Y-112445385D01*
X105359614Y-112302528D01*
X105407233Y-112231100D01*
X105502471Y-112159671D01*
X106026280Y-113802528D02*
X106788185Y-113802528D01*
X106931042Y-112159671D02*
X107550090Y-112159671D01*
X107216757Y-112731100D01*
X107359614Y-112731100D01*
X107454852Y-112802528D01*
X107502471Y-112873957D01*
X107550090Y-113016814D01*
X107550090Y-113373957D01*
X107502471Y-113516814D01*
X107454852Y-113588242D01*
X107359614Y-113659671D01*
X107073900Y-113659671D01*
X106978661Y-113588242D01*
X106931042Y-113516814D01*
X104311995Y-116159671D02*
X104311995Y-114659671D01*
X104692947Y-114659671D01*
X104788185Y-114731100D01*
X104835804Y-114802528D01*
X104883423Y-114945385D01*
X104883423Y-115159671D01*
X104835804Y-115302528D01*
X104788185Y-115373957D01*
X104692947Y-115445385D01*
X104311995Y-115445385D01*
X105502471Y-114659671D02*
X105597709Y-114659671D01*
X105692947Y-114731100D01*
X105740566Y-114802528D01*
X105788185Y-114945385D01*
X105835804Y-115231100D01*
X105835804Y-115588242D01*
X105788185Y-115873957D01*
X105740566Y-116016814D01*
X105692947Y-116088242D01*
X105597709Y-116159671D01*
X105502471Y-116159671D01*
X105407233Y-116088242D01*
X105359614Y-116016814D01*
X105311995Y-115873957D01*
X105264376Y-115588242D01*
X105264376Y-115231100D01*
X105311995Y-114945385D01*
X105359614Y-114802528D01*
X105407233Y-114731100D01*
X105502471Y-114659671D01*
X106026280Y-116302528D02*
X106788185Y-116302528D01*
X106978661Y-114802528D02*
X107026280Y-114731100D01*
X107121519Y-114659671D01*
X107359614Y-114659671D01*
X107454852Y-114731100D01*
X107502471Y-114802528D01*
X107550090Y-114945385D01*
X107550090Y-115088242D01*
X107502471Y-115302528D01*
X106931042Y-116159671D01*
X107550090Y-116159671D01*
X104311995Y-118659671D02*
X104311995Y-117159671D01*
X104692947Y-117159671D01*
X104788185Y-117231100D01*
X104835804Y-117302528D01*
X104883423Y-117445385D01*
X104883423Y-117659671D01*
X104835804Y-117802528D01*
X104788185Y-117873957D01*
X104692947Y-117945385D01*
X104311995Y-117945385D01*
X105264376Y-117302528D02*
X105311995Y-117231100D01*
X105407233Y-117159671D01*
X105645328Y-117159671D01*
X105740566Y-117231100D01*
X105788185Y-117302528D01*
X105835804Y-117445385D01*
X105835804Y-117588242D01*
X105788185Y-117802528D01*
X105216757Y-118659671D01*
X105835804Y-118659671D01*
X106026280Y-118802528D02*
X106788185Y-118802528D01*
X107454852Y-117659671D02*
X107454852Y-118659671D01*
X107216757Y-117088242D02*
X106978661Y-118159671D01*
X107597709Y-118159671D01*
X104788185Y-121159671D02*
X104311995Y-121159671D01*
X104311995Y-119659671D01*
X105121519Y-120373957D02*
X105454852Y-120373957D01*
X105597709Y-121159671D02*
X105121519Y-121159671D01*
X105121519Y-119659671D01*
X105597709Y-119659671D01*
X106026280Y-121159671D02*
X106026280Y-119659671D01*
X106264376Y-119659671D01*
X106407233Y-119731100D01*
X106502471Y-119873957D01*
X106550090Y-120016814D01*
X106597709Y-120302528D01*
X106597709Y-120516814D01*
X106550090Y-120802528D01*
X106502471Y-120945385D01*
X106407233Y-121088242D01*
X106264376Y-121159671D01*
X106026280Y-121159671D01*
X106978661Y-119802528D02*
X107026280Y-119731100D01*
X107121519Y-119659671D01*
X107359614Y-119659671D01*
X107454852Y-119731100D01*
X107502471Y-119802528D01*
X107550090Y-119945385D01*
X107550090Y-120088242D01*
X107502471Y-120302528D01*
X106931042Y-121159671D01*
X107550090Y-121159671D01*
X104788185Y-123659671D02*
X104311995Y-123659671D01*
X104311995Y-122159671D01*
X105121519Y-122873957D02*
X105454852Y-122873957D01*
X105597709Y-123659671D02*
X105121519Y-123659671D01*
X105121519Y-122159671D01*
X105597709Y-122159671D01*
X106026280Y-123659671D02*
X106026280Y-122159671D01*
X106264376Y-122159671D01*
X106407233Y-122231100D01*
X106502471Y-122373957D01*
X106550090Y-122516814D01*
X106597709Y-122802528D01*
X106597709Y-123016814D01*
X106550090Y-123302528D01*
X106502471Y-123445385D01*
X106407233Y-123588242D01*
X106264376Y-123659671D01*
X106026280Y-123659671D01*
X107550090Y-123659671D02*
X106978661Y-123659671D01*
X107264376Y-123659671D02*
X107264376Y-122159671D01*
X107169138Y-122373957D01*
X107073900Y-122516814D01*
X106978661Y-122588242D01*
X104311995Y-126159671D02*
X104311995Y-124659671D01*
X104645328Y-125731100D01*
X104978661Y-124659671D01*
X104978661Y-126159671D01*
X105788185Y-125373957D02*
X105454852Y-125373957D01*
X105454852Y-126159671D02*
X105454852Y-124659671D01*
X105931042Y-124659671D01*
X106645328Y-125373957D02*
X106788185Y-125445385D01*
X106835804Y-125516814D01*
X106883423Y-125659671D01*
X106883423Y-125873957D01*
X106835804Y-126016814D01*
X106788185Y-126088242D01*
X106692947Y-126159671D01*
X106311995Y-126159671D01*
X106311995Y-124659671D01*
X106645328Y-124659671D01*
X106740566Y-124731100D01*
X106788185Y-124802528D01*
X106835804Y-124945385D01*
X106835804Y-125088242D01*
X106788185Y-125231100D01*
X106740566Y-125302528D01*
X106645328Y-125373957D01*
X106311995Y-125373957D01*
X104835804Y-128659671D02*
X104264376Y-128659671D01*
X104550090Y-128659671D02*
X104550090Y-127159671D01*
X104454852Y-127373957D01*
X104359614Y-127516814D01*
X104264376Y-127588242D01*
X105264376Y-128516814D02*
X105311995Y-128588242D01*
X105264376Y-128659671D01*
X105216757Y-128588242D01*
X105264376Y-128516814D01*
X105264376Y-128659671D01*
X105883423Y-127802528D02*
X105788185Y-127731100D01*
X105740566Y-127659671D01*
X105692947Y-127516814D01*
X105692947Y-127445385D01*
X105740566Y-127302528D01*
X105788185Y-127231100D01*
X105883423Y-127159671D01*
X106073900Y-127159671D01*
X106169138Y-127231100D01*
X106216757Y-127302528D01*
X106264376Y-127445385D01*
X106264376Y-127516814D01*
X106216757Y-127659671D01*
X106169138Y-127731100D01*
X106073900Y-127802528D01*
X105883423Y-127802528D01*
X105788185Y-127873957D01*
X105740566Y-127945385D01*
X105692947Y-128088242D01*
X105692947Y-128373957D01*
X105740566Y-128516814D01*
X105788185Y-128588242D01*
X105883423Y-128659671D01*
X106073900Y-128659671D01*
X106169138Y-128588242D01*
X106216757Y-128516814D01*
X106264376Y-128373957D01*
X106264376Y-128088242D01*
X106216757Y-127945385D01*
X106169138Y-127873957D01*
X106073900Y-127802528D01*
X106550090Y-127159671D02*
X106883423Y-128659671D01*
X107216757Y-127159671D01*
X104264376Y-131088242D02*
X104407233Y-131159671D01*
X104645328Y-131159671D01*
X104740566Y-131088242D01*
X104788185Y-131016814D01*
X104835804Y-130873957D01*
X104835804Y-130731100D01*
X104788185Y-130588242D01*
X104740566Y-130516814D01*
X104645328Y-130445385D01*
X104454852Y-130373957D01*
X104359614Y-130302528D01*
X104311995Y-130231100D01*
X104264376Y-130088242D01*
X104264376Y-129945385D01*
X104311995Y-129802528D01*
X104359614Y-129731100D01*
X104454852Y-129659671D01*
X104692947Y-129659671D01*
X104835804Y-129731100D01*
X105264376Y-131159671D02*
X105264376Y-129659671D01*
X105645328Y-129659671D01*
X105740566Y-129731100D01*
X105788185Y-129802528D01*
X105835804Y-129945385D01*
X105835804Y-130159671D01*
X105788185Y-130302528D01*
X105740566Y-130373957D01*
X105645328Y-130445385D01*
X105264376Y-130445385D01*
X106169138Y-129659671D02*
X106407233Y-131159671D01*
X106597709Y-130088242D01*
X106788185Y-131159671D01*
X107026280Y-129659671D01*
X104835804Y-132231100D02*
X104740566Y-132159671D01*
X104597709Y-132159671D01*
X104454852Y-132231100D01*
X104359614Y-132373957D01*
X104311995Y-132516814D01*
X104264376Y-132802528D01*
X104264376Y-133016814D01*
X104311995Y-133302528D01*
X104359614Y-133445385D01*
X104454852Y-133588242D01*
X104597709Y-133659671D01*
X104692947Y-133659671D01*
X104835804Y-133588242D01*
X104883423Y-133516814D01*
X104883423Y-133016814D01*
X104692947Y-133016814D01*
X105311995Y-133659671D02*
X105311995Y-132159671D01*
X105883423Y-133659671D01*
X105883423Y-132159671D01*
X106359614Y-133659671D02*
X106359614Y-132159671D01*
X106597709Y-132159671D01*
X106740566Y-132231100D01*
X106835804Y-132373957D01*
X106883423Y-132516814D01*
X106931042Y-132802528D01*
X106931042Y-133016814D01*
X106883423Y-133302528D01*
X106835804Y-133445385D01*
X106740566Y-133588242D01*
X106597709Y-133659671D01*
X106359614Y-133659671D01*
X124328347Y-133110266D02*
X124804538Y-133110266D01*
X124233109Y-133395980D02*
X124566442Y-132395980D01*
X124899776Y-133395980D01*
X125233109Y-133395980D02*
X125233109Y-132395980D01*
X126185490Y-133395980D02*
X125709300Y-133395980D01*
X125709300Y-132395980D01*
X134096628Y-135819871D02*
X134239485Y-135867490D01*
X134287104Y-135915109D01*
X134334723Y-136010347D01*
X134334723Y-136153204D01*
X134287104Y-136248442D01*
X134239485Y-136296061D01*
X134144247Y-136343680D01*
X133763295Y-136343680D01*
X133763295Y-135343680D01*
X134096628Y-135343680D01*
X134191866Y-135391300D01*
X134239485Y-135438919D01*
X134287104Y-135534157D01*
X134287104Y-135629395D01*
X134239485Y-135724633D01*
X134191866Y-135772252D01*
X134096628Y-135819871D01*
X133763295Y-135819871D01*
X134715676Y-136057966D02*
X135191866Y-136057966D01*
X134620438Y-136343680D02*
X134953771Y-135343680D01*
X135287104Y-136343680D01*
X135477580Y-135343680D02*
X136049009Y-135343680D01*
X135763295Y-136343680D02*
X135763295Y-135343680D01*
X133715676Y-137807966D02*
X134191866Y-137807966D01*
X133620438Y-138093680D02*
X133953771Y-137093680D01*
X134287104Y-138093680D01*
X134620438Y-138093680D02*
X134620438Y-137093680D01*
X134858533Y-137093680D01*
X135001390Y-137141300D01*
X135096628Y-137236538D01*
X135144247Y-137331776D01*
X135191866Y-137522252D01*
X135191866Y-137665109D01*
X135144247Y-137855585D01*
X135096628Y-137950823D01*
X135001390Y-138046061D01*
X134858533Y-138093680D01*
X134620438Y-138093680D01*
X135572819Y-137807966D02*
X136049009Y-137807966D01*
X135477580Y-138093680D02*
X135810914Y-137093680D01*
X136144247Y-138093680D01*
X136477580Y-138093680D02*
X136477580Y-137093680D01*
X136858533Y-137093680D01*
X136953771Y-137141300D01*
X137001390Y-137188919D01*
X137049009Y-137284157D01*
X137049009Y-137427014D01*
X137001390Y-137522252D01*
X136953771Y-137569871D01*
X136858533Y-137617490D01*
X136477580Y-137617490D01*
X154295138Y-137106980D02*
X153961804Y-136630790D01*
X153723709Y-137106980D02*
X153723709Y-136106980D01*
X154104661Y-136106980D01*
X154199900Y-136154600D01*
X154247519Y-136202219D01*
X154295138Y-136297457D01*
X154295138Y-136440314D01*
X154247519Y-136535552D01*
X154199900Y-136583171D01*
X154104661Y-136630790D01*
X153723709Y-136630790D01*
X154676090Y-137059361D02*
X154818947Y-137106980D01*
X155057042Y-137106980D01*
X155152280Y-137059361D01*
X155199900Y-137011742D01*
X155247519Y-136916504D01*
X155247519Y-136821266D01*
X155199900Y-136726028D01*
X155152280Y-136678409D01*
X155057042Y-136630790D01*
X154866566Y-136583171D01*
X154771328Y-136535552D01*
X154723709Y-136487933D01*
X154676090Y-136392695D01*
X154676090Y-136297457D01*
X154723709Y-136202219D01*
X154771328Y-136154600D01*
X154866566Y-136106980D01*
X155104661Y-136106980D01*
X155247519Y-136154600D01*
X155533233Y-136106980D02*
X156104661Y-136106980D01*
X155818947Y-137106980D02*
X155818947Y-136106980D01*
X153580852Y-137856980D02*
X153914185Y-138856980D01*
X154247519Y-137856980D01*
X155152280Y-138856980D02*
X154818947Y-138380790D01*
X154580852Y-138856980D02*
X154580852Y-137856980D01*
X154961804Y-137856980D01*
X155057042Y-137904600D01*
X155104661Y-137952219D01*
X155152280Y-138047457D01*
X155152280Y-138190314D01*
X155104661Y-138285552D01*
X155057042Y-138333171D01*
X154961804Y-138380790D01*
X154580852Y-138380790D01*
X155914185Y-138333171D02*
X155580852Y-138333171D01*
X155580852Y-138856980D02*
X155580852Y-137856980D01*
X156057042Y-137856980D01*
X152771328Y-140606980D02*
X152771328Y-139606980D01*
X153152280Y-139606980D01*
X153247519Y-139654600D01*
X153295138Y-139702219D01*
X153342757Y-139797457D01*
X153342757Y-139940314D01*
X153295138Y-140035552D01*
X153247519Y-140083171D01*
X153152280Y-140130790D01*
X152771328Y-140130790D01*
X153961804Y-139606980D02*
X154057042Y-139606980D01*
X154152280Y-139654600D01*
X154199900Y-139702219D01*
X154247519Y-139797457D01*
X154295138Y-139987933D01*
X154295138Y-140226028D01*
X154247519Y-140416504D01*
X154199900Y-140511742D01*
X154152280Y-140559361D01*
X154057042Y-140606980D01*
X153961804Y-140606980D01*
X153866566Y-140559361D01*
X153818947Y-140511742D01*
X153771328Y-140416504D01*
X153723709Y-140226028D01*
X153723709Y-139987933D01*
X153771328Y-139797457D01*
X153818947Y-139702219D01*
X153866566Y-139654600D01*
X153961804Y-139606980D01*
X154485614Y-140702219D02*
X155247519Y-140702219D01*
X156009423Y-140606980D02*
X155437995Y-140606980D01*
X155723709Y-140606980D02*
X155723709Y-139606980D01*
X155628471Y-139749838D01*
X155533233Y-139845076D01*
X155437995Y-139892695D01*
X134239119Y-142501880D02*
X134239119Y-141501880D01*
X134905785Y-141501880D02*
X135096261Y-141501880D01*
X135191500Y-141549500D01*
X135286738Y-141644738D01*
X135334357Y-141835214D01*
X135334357Y-142168547D01*
X135286738Y-142359023D01*
X135191500Y-142454261D01*
X135096261Y-142501880D01*
X134905785Y-142501880D01*
X134810547Y-142454261D01*
X134715309Y-142359023D01*
X134667690Y-142168547D01*
X134667690Y-141835214D01*
X134715309Y-141644738D01*
X134810547Y-141549500D01*
X134905785Y-141501880D01*
X135620071Y-141501880D02*
X135953404Y-142501880D01*
X136286738Y-141501880D01*
X143378419Y-120820571D02*
X143045085Y-120106285D01*
X142806990Y-120820571D02*
X142806990Y-119320571D01*
X143187942Y-119320571D01*
X143283180Y-119392000D01*
X143330800Y-119463428D01*
X143378419Y-119606285D01*
X143378419Y-119820571D01*
X143330800Y-119963428D01*
X143283180Y-120034857D01*
X143187942Y-120106285D01*
X142806990Y-120106285D01*
X143806990Y-120034857D02*
X144140323Y-120034857D01*
X144283180Y-120820571D02*
X143806990Y-120820571D01*
X143806990Y-119320571D01*
X144283180Y-119320571D01*
X144664133Y-120749142D02*
X144806990Y-120820571D01*
X145045085Y-120820571D01*
X145140323Y-120749142D01*
X145187942Y-120677714D01*
X145235561Y-120534857D01*
X145235561Y-120392000D01*
X145187942Y-120249142D01*
X145140323Y-120177714D01*
X145045085Y-120106285D01*
X144854609Y-120034857D01*
X144759371Y-119963428D01*
X144711752Y-119892000D01*
X144664133Y-119749142D01*
X144664133Y-119606285D01*
X144711752Y-119463428D01*
X144759371Y-119392000D01*
X144854609Y-119320571D01*
X145092704Y-119320571D01*
X145235561Y-119392000D01*
X145664133Y-120034857D02*
X145997466Y-120034857D01*
X146140323Y-120820571D02*
X145664133Y-120820571D01*
X145664133Y-119320571D01*
X146140323Y-119320571D01*
X146426038Y-119320571D02*
X146997466Y-119320571D01*
X146711752Y-120820571D02*
X146711752Y-119320571D01*
X143518095Y-110152571D02*
X143518095Y-108652571D01*
X143851428Y-109724000D01*
X144184761Y-108652571D01*
X144184761Y-110152571D01*
X144994285Y-109366857D02*
X144660952Y-109366857D01*
X144660952Y-110152571D02*
X144660952Y-108652571D01*
X145137142Y-108652571D01*
X145851428Y-109366857D02*
X145994285Y-109438285D01*
X146041904Y-109509714D01*
X146089523Y-109652571D01*
X146089523Y-109866857D01*
X146041904Y-110009714D01*
X145994285Y-110081142D01*
X145899047Y-110152571D01*
X145518095Y-110152571D01*
X145518095Y-108652571D01*
X145851428Y-108652571D01*
X145946666Y-108724000D01*
X145994285Y-108795428D01*
X146041904Y-108938285D01*
X146041904Y-109081142D01*
X145994285Y-109224000D01*
X145946666Y-109295428D01*
X145851428Y-109366857D01*
X145518095Y-109366857D01*
X152326828Y-98982571D02*
X152326828Y-97482571D01*
X152707780Y-97482571D01*
X152803019Y-97554000D01*
X152850638Y-97625428D01*
X152898257Y-97768285D01*
X152898257Y-97982571D01*
X152850638Y-98125428D01*
X152803019Y-98196857D01*
X152707780Y-98268285D01*
X152326828Y-98268285D01*
X153517304Y-97482571D02*
X153612542Y-97482571D01*
X153707780Y-97554000D01*
X153755400Y-97625428D01*
X153803019Y-97768285D01*
X153850638Y-98054000D01*
X153850638Y-98411142D01*
X153803019Y-98696857D01*
X153755400Y-98839714D01*
X153707780Y-98911142D01*
X153612542Y-98982571D01*
X153517304Y-98982571D01*
X153422066Y-98911142D01*
X153374447Y-98839714D01*
X153326828Y-98696857D01*
X153279209Y-98411142D01*
X153279209Y-98054000D01*
X153326828Y-97768285D01*
X153374447Y-97625428D01*
X153422066Y-97554000D01*
X153517304Y-97482571D01*
X154041114Y-99125428D02*
X154803019Y-99125428D01*
X155231590Y-97482571D02*
X155326828Y-97482571D01*
X155422066Y-97554000D01*
X155469685Y-97625428D01*
X155517304Y-97768285D01*
X155564923Y-98054000D01*
X155564923Y-98411142D01*
X155517304Y-98696857D01*
X155469685Y-98839714D01*
X155422066Y-98911142D01*
X155326828Y-98982571D01*
X155231590Y-98982571D01*
X155136352Y-98911142D01*
X155088733Y-98839714D01*
X155041114Y-98696857D01*
X154993495Y-98411142D01*
X154993495Y-98054000D01*
X155041114Y-97768285D01*
X155088733Y-97625428D01*
X155136352Y-97554000D01*
X155231590Y-97482571D01*
X153183971Y-100696857D02*
X153517304Y-100696857D01*
X153660161Y-101482571D02*
X153183971Y-101482571D01*
X153183971Y-99982571D01*
X153660161Y-99982571D01*
X154041114Y-101054000D02*
X154517304Y-101054000D01*
X153945876Y-101482571D02*
X154279209Y-99982571D01*
X154612542Y-101482571D01*
X154945876Y-101482571D02*
X154945876Y-99982571D01*
X155517304Y-101482571D01*
X155517304Y-99982571D01*
X152326828Y-103982571D02*
X152326828Y-102482571D01*
X152707780Y-102482571D01*
X152803019Y-102554000D01*
X152850638Y-102625428D01*
X152898257Y-102768285D01*
X152898257Y-102982571D01*
X152850638Y-103125428D01*
X152803019Y-103196857D01*
X152707780Y-103268285D01*
X152326828Y-103268285D01*
X153231590Y-102482571D02*
X153850638Y-102482571D01*
X153517304Y-103054000D01*
X153660161Y-103054000D01*
X153755400Y-103125428D01*
X153803019Y-103196857D01*
X153850638Y-103339714D01*
X153850638Y-103696857D01*
X153803019Y-103839714D01*
X153755400Y-103911142D01*
X153660161Y-103982571D01*
X153374447Y-103982571D01*
X153279209Y-103911142D01*
X153231590Y-103839714D01*
X154041114Y-104125428D02*
X154803019Y-104125428D01*
X155231590Y-102482571D02*
X155326828Y-102482571D01*
X155422066Y-102554000D01*
X155469685Y-102625428D01*
X155517304Y-102768285D01*
X155564923Y-103054000D01*
X155564923Y-103411142D01*
X155517304Y-103696857D01*
X155469685Y-103839714D01*
X155422066Y-103911142D01*
X155326828Y-103982571D01*
X155231590Y-103982571D01*
X155136352Y-103911142D01*
X155088733Y-103839714D01*
X155041114Y-103696857D01*
X154993495Y-103411142D01*
X154993495Y-103054000D01*
X155041114Y-102768285D01*
X155088733Y-102625428D01*
X155136352Y-102554000D01*
X155231590Y-102482571D01*
X152326828Y-106482571D02*
X152326828Y-104982571D01*
X152707780Y-104982571D01*
X152803019Y-105054000D01*
X152850638Y-105125428D01*
X152898257Y-105268285D01*
X152898257Y-105482571D01*
X152850638Y-105625428D01*
X152803019Y-105696857D01*
X152707780Y-105768285D01*
X152326828Y-105768285D01*
X153279209Y-105125428D02*
X153326828Y-105054000D01*
X153422066Y-104982571D01*
X153660161Y-104982571D01*
X153755400Y-105054000D01*
X153803019Y-105125428D01*
X153850638Y-105268285D01*
X153850638Y-105411142D01*
X153803019Y-105625428D01*
X153231590Y-106482571D01*
X153850638Y-106482571D01*
X154041114Y-106625428D02*
X154803019Y-106625428D01*
X155231590Y-104982571D02*
X155326828Y-104982571D01*
X155422066Y-105054000D01*
X155469685Y-105125428D01*
X155517304Y-105268285D01*
X155564923Y-105554000D01*
X155564923Y-105911142D01*
X155517304Y-106196857D01*
X155469685Y-106339714D01*
X155422066Y-106411142D01*
X155326828Y-106482571D01*
X155231590Y-106482571D01*
X155136352Y-106411142D01*
X155088733Y-106339714D01*
X155041114Y-106196857D01*
X154993495Y-105911142D01*
X154993495Y-105554000D01*
X155041114Y-105268285D01*
X155088733Y-105125428D01*
X155136352Y-105054000D01*
X155231590Y-104982571D01*
X152326828Y-108982571D02*
X152326828Y-107482571D01*
X152707780Y-107482571D01*
X152803019Y-107554000D01*
X152850638Y-107625428D01*
X152898257Y-107768285D01*
X152898257Y-107982571D01*
X152850638Y-108125428D01*
X152803019Y-108196857D01*
X152707780Y-108268285D01*
X152326828Y-108268285D01*
X153850638Y-108982571D02*
X153279209Y-108982571D01*
X153564923Y-108982571D02*
X153564923Y-107482571D01*
X153469685Y-107696857D01*
X153374447Y-107839714D01*
X153279209Y-107911142D01*
X154041114Y-109125428D02*
X154803019Y-109125428D01*
X155517304Y-107482571D02*
X155041114Y-107482571D01*
X154993495Y-108196857D01*
X155041114Y-108125428D01*
X155136352Y-108054000D01*
X155374447Y-108054000D01*
X155469685Y-108125428D01*
X155517304Y-108196857D01*
X155564923Y-108339714D01*
X155564923Y-108696857D01*
X155517304Y-108839714D01*
X155469685Y-108911142D01*
X155374447Y-108982571D01*
X155136352Y-108982571D01*
X155041114Y-108911142D01*
X154993495Y-108839714D01*
X152326828Y-111482571D02*
X152326828Y-109982571D01*
X152707780Y-109982571D01*
X152803019Y-110054000D01*
X152850638Y-110125428D01*
X152898257Y-110268285D01*
X152898257Y-110482571D01*
X152850638Y-110625428D01*
X152803019Y-110696857D01*
X152707780Y-110768285D01*
X152326828Y-110768285D01*
X153517304Y-109982571D02*
X153612542Y-109982571D01*
X153707780Y-110054000D01*
X153755400Y-110125428D01*
X153803019Y-110268285D01*
X153850638Y-110554000D01*
X153850638Y-110911142D01*
X153803019Y-111196857D01*
X153755400Y-111339714D01*
X153707780Y-111411142D01*
X153612542Y-111482571D01*
X153517304Y-111482571D01*
X153422066Y-111411142D01*
X153374447Y-111339714D01*
X153326828Y-111196857D01*
X153279209Y-110911142D01*
X153279209Y-110554000D01*
X153326828Y-110268285D01*
X153374447Y-110125428D01*
X153422066Y-110054000D01*
X153517304Y-109982571D01*
X154041114Y-111625428D02*
X154803019Y-111625428D01*
X155469685Y-110482571D02*
X155469685Y-111482571D01*
X155231590Y-109911142D02*
X154993495Y-110982571D01*
X155612542Y-110982571D01*
X151993495Y-113911142D02*
X152136352Y-113982571D01*
X152374447Y-113982571D01*
X152469685Y-113911142D01*
X152517304Y-113839714D01*
X152564923Y-113696857D01*
X152564923Y-113554000D01*
X152517304Y-113411142D01*
X152469685Y-113339714D01*
X152374447Y-113268285D01*
X152183971Y-113196857D01*
X152088733Y-113125428D01*
X152041114Y-113054000D01*
X151993495Y-112911142D01*
X151993495Y-112768285D01*
X152041114Y-112625428D01*
X152088733Y-112554000D01*
X152183971Y-112482571D01*
X152422066Y-112482571D01*
X152564923Y-112554000D01*
X152993495Y-113982571D02*
X152993495Y-112482571D01*
X153374447Y-112482571D01*
X153469685Y-112554000D01*
X153517304Y-112625428D01*
X153564923Y-112768285D01*
X153564923Y-112982571D01*
X153517304Y-113125428D01*
X153469685Y-113196857D01*
X153374447Y-113268285D01*
X152993495Y-113268285D01*
X153993495Y-113982571D02*
X153993495Y-112482571D01*
X154564923Y-113982571D02*
X154136352Y-113125428D01*
X154564923Y-112482571D02*
X153993495Y-113339714D01*
X155564923Y-113982571D02*
X155231590Y-113268285D01*
X154993495Y-113982571D02*
X154993495Y-112482571D01*
X155374447Y-112482571D01*
X155469685Y-112554000D01*
X155517304Y-112625428D01*
X155564923Y-112768285D01*
X155564923Y-112982571D01*
X155517304Y-113125428D01*
X155469685Y-113196857D01*
X155374447Y-113268285D01*
X154993495Y-113268285D01*
X150850638Y-116054000D02*
X151326828Y-116054000D01*
X150755400Y-116482571D02*
X151088733Y-114982571D01*
X151422066Y-116482571D01*
X151945876Y-114982571D02*
X152136352Y-114982571D01*
X152231590Y-115054000D01*
X152326828Y-115196857D01*
X152374447Y-115482571D01*
X152374447Y-115982571D01*
X152326828Y-116268285D01*
X152231590Y-116411142D01*
X152136352Y-116482571D01*
X151945876Y-116482571D01*
X151850638Y-116411142D01*
X151755400Y-116268285D01*
X151707780Y-115982571D01*
X151707780Y-115482571D01*
X151755400Y-115196857D01*
X151850638Y-115054000D01*
X151945876Y-114982571D01*
X152803019Y-116482571D02*
X152803019Y-114982571D01*
X152803019Y-115696857D02*
X153374447Y-115696857D01*
X153374447Y-116482571D02*
X153374447Y-114982571D01*
X153850638Y-116482571D02*
X153850638Y-114982571D01*
X154231590Y-114982571D01*
X154326828Y-115054000D01*
X154374447Y-115125428D01*
X154422066Y-115268285D01*
X154422066Y-115482571D01*
X154374447Y-115625428D01*
X154326828Y-115696857D01*
X154231590Y-115768285D01*
X153850638Y-115768285D01*
X154850638Y-116482571D02*
X154850638Y-114982571D01*
X155183971Y-116054000D01*
X155517304Y-114982571D01*
X155517304Y-116482571D01*
X152183971Y-118911142D02*
X152326828Y-118982571D01*
X152564923Y-118982571D01*
X152660161Y-118911142D01*
X152707780Y-118839714D01*
X152755400Y-118696857D01*
X152755400Y-118554000D01*
X152707780Y-118411142D01*
X152660161Y-118339714D01*
X152564923Y-118268285D01*
X152374447Y-118196857D01*
X152279209Y-118125428D01*
X152231590Y-118054000D01*
X152183971Y-117911142D01*
X152183971Y-117768285D01*
X152231590Y-117625428D01*
X152279209Y-117554000D01*
X152374447Y-117482571D01*
X152612542Y-117482571D01*
X152755400Y-117554000D01*
X153183971Y-118982571D02*
X153183971Y-117482571D01*
X153564923Y-117482571D01*
X153660161Y-117554000D01*
X153707780Y-117625428D01*
X153755400Y-117768285D01*
X153755400Y-117982571D01*
X153707780Y-118125428D01*
X153660161Y-118196857D01*
X153564923Y-118268285D01*
X153183971Y-118268285D01*
X154183971Y-118982571D02*
X154183971Y-117482571D01*
X154755400Y-118982571D02*
X154326828Y-118125428D01*
X154755400Y-117482571D02*
X154183971Y-118339714D01*
X155660161Y-118982571D02*
X155183971Y-118982571D01*
X155183971Y-117482571D01*
X152136352Y-119982571D02*
X152469685Y-121482571D01*
X152803019Y-119982571D01*
X153136352Y-121482571D02*
X153136352Y-119982571D01*
X153374447Y-119982571D01*
X153517304Y-120054000D01*
X153612542Y-120196857D01*
X153660161Y-120339714D01*
X153707780Y-120625428D01*
X153707780Y-120839714D01*
X153660161Y-121125428D01*
X153612542Y-121268285D01*
X153517304Y-121411142D01*
X153374447Y-121482571D01*
X153136352Y-121482571D01*
X154136352Y-121482571D02*
X154136352Y-119982571D01*
X154374447Y-119982571D01*
X154517304Y-120054000D01*
X154612542Y-120196857D01*
X154660161Y-120339714D01*
X154707780Y-120625428D01*
X154707780Y-120839714D01*
X154660161Y-121125428D01*
X154612542Y-121268285D01*
X154517304Y-121411142D01*
X154374447Y-121482571D01*
X154136352Y-121482571D01*
X155088733Y-121054000D02*
X155564923Y-121054000D01*
X154993495Y-121482571D02*
X155326828Y-119982571D01*
X155660161Y-121482571D01*
X154993495Y-123982571D02*
X154993495Y-122482571D01*
X155374447Y-122482571D01*
X155469685Y-122554000D01*
X155517304Y-122625428D01*
X155564923Y-122768285D01*
X155564923Y-122982571D01*
X155517304Y-123125428D01*
X155469685Y-123196857D01*
X155374447Y-123268285D01*
X154993495Y-123268285D01*
X154945876Y-126482571D02*
X154945876Y-124982571D01*
X155517304Y-126482571D01*
X155517304Y-124982571D01*
X153041114Y-128196857D02*
X153183971Y-128268285D01*
X153231590Y-128339714D01*
X153279209Y-128482571D01*
X153279209Y-128696857D01*
X153231590Y-128839714D01*
X153183971Y-128911142D01*
X153088733Y-128982571D01*
X152707780Y-128982571D01*
X152707780Y-127482571D01*
X153041114Y-127482571D01*
X153136352Y-127554000D01*
X153183971Y-127625428D01*
X153231590Y-127768285D01*
X153231590Y-127911142D01*
X153183971Y-128054000D01*
X153136352Y-128125428D01*
X153041114Y-128196857D01*
X152707780Y-128196857D01*
X153707780Y-128982571D02*
X153707780Y-127482571D01*
X154136352Y-128554000D02*
X154612542Y-128554000D01*
X154041114Y-128982571D02*
X154374447Y-127482571D01*
X154707780Y-128982571D01*
X154993495Y-128911142D02*
X155136352Y-128982571D01*
X155374447Y-128982571D01*
X155469685Y-128911142D01*
X155517304Y-128839714D01*
X155564923Y-128696857D01*
X155564923Y-128554000D01*
X155517304Y-128411142D01*
X155469685Y-128339714D01*
X155374447Y-128268285D01*
X155183971Y-128196857D01*
X155088733Y-128125428D01*
X155041114Y-128054000D01*
X154993495Y-127911142D01*
X154993495Y-127768285D01*
X155041114Y-127625428D01*
X155088733Y-127554000D01*
X155183971Y-127482571D01*
X155422066Y-127482571D01*
X155564923Y-127554000D01*
X153612542Y-131054000D02*
X154088733Y-131054000D01*
X153517304Y-131482571D02*
X153850638Y-129982571D01*
X154183971Y-131482571D01*
X154517304Y-131482571D02*
X154517304Y-129982571D01*
X155564923Y-131482571D02*
X155231590Y-130768285D01*
X154993495Y-131482571D02*
X154993495Y-129982571D01*
X155374447Y-129982571D01*
X155469685Y-130054000D01*
X155517304Y-130125428D01*
X155564923Y-130268285D01*
X155564923Y-130482571D01*
X155517304Y-130625428D01*
X155469685Y-130696857D01*
X155374447Y-130768285D01*
X154993495Y-130768285D01*
X134299804Y-97231100D02*
X134204566Y-97159671D01*
X134061709Y-97159671D01*
X133918852Y-97231100D01*
X133823614Y-97373957D01*
X133775995Y-97516814D01*
X133728376Y-97802528D01*
X133728376Y-98016814D01*
X133775995Y-98302528D01*
X133823614Y-98445385D01*
X133918852Y-98588242D01*
X134061709Y-98659671D01*
X134156947Y-98659671D01*
X134299804Y-98588242D01*
X134347423Y-98516814D01*
X134347423Y-98016814D01*
X134156947Y-98016814D01*
X134775995Y-98659671D02*
X134775995Y-97159671D01*
X135347423Y-98659671D01*
X135347423Y-97159671D01*
X135823614Y-98659671D02*
X135823614Y-97159671D01*
X136061709Y-97159671D01*
X136204566Y-97231100D01*
X136299804Y-97373957D01*
X136347423Y-97516814D01*
X136395042Y-97802528D01*
X136395042Y-98016814D01*
X136347423Y-98302528D01*
X136299804Y-98445385D01*
X136204566Y-98588242D01*
X136061709Y-98659671D01*
X135823614Y-98659671D01*
X133775995Y-101159671D02*
X133775995Y-99659671D01*
X134156947Y-99659671D01*
X134252185Y-99731100D01*
X134299804Y-99802528D01*
X134347423Y-99945385D01*
X134347423Y-100159671D01*
X134299804Y-100302528D01*
X134252185Y-100373957D01*
X134156947Y-100445385D01*
X133775995Y-100445385D01*
X134728376Y-99802528D02*
X134775995Y-99731100D01*
X134871233Y-99659671D01*
X135109328Y-99659671D01*
X135204566Y-99731100D01*
X135252185Y-99802528D01*
X135299804Y-99945385D01*
X135299804Y-100088242D01*
X135252185Y-100302528D01*
X134680757Y-101159671D01*
X135299804Y-101159671D01*
X135490280Y-101302528D02*
X136252185Y-101302528D01*
X136918852Y-100159671D02*
X136918852Y-101159671D01*
X136680757Y-99588242D02*
X136442661Y-100659671D01*
X137061709Y-100659671D01*
X133775995Y-103659671D02*
X133775995Y-102159671D01*
X134156947Y-102159671D01*
X134252185Y-102231100D01*
X134299804Y-102302528D01*
X134347423Y-102445385D01*
X134347423Y-102659671D01*
X134299804Y-102802528D01*
X134252185Y-102873957D01*
X134156947Y-102945385D01*
X133775995Y-102945385D01*
X134728376Y-102302528D02*
X134775995Y-102231100D01*
X134871233Y-102159671D01*
X135109328Y-102159671D01*
X135204566Y-102231100D01*
X135252185Y-102302528D01*
X135299804Y-102445385D01*
X135299804Y-102588242D01*
X135252185Y-102802528D01*
X134680757Y-103659671D01*
X135299804Y-103659671D01*
X135490280Y-103802528D02*
X136252185Y-103802528D01*
X136395042Y-102159671D02*
X137061709Y-102159671D01*
X136633138Y-103659671D01*
X133775995Y-106159671D02*
X133775995Y-104659671D01*
X134156947Y-104659671D01*
X134252185Y-104731100D01*
X134299804Y-104802528D01*
X134347423Y-104945385D01*
X134347423Y-105159671D01*
X134299804Y-105302528D01*
X134252185Y-105373957D01*
X134156947Y-105445385D01*
X133775995Y-105445385D01*
X134966471Y-104659671D02*
X135061709Y-104659671D01*
X135156947Y-104731100D01*
X135204566Y-104802528D01*
X135252185Y-104945385D01*
X135299804Y-105231100D01*
X135299804Y-105588242D01*
X135252185Y-105873957D01*
X135204566Y-106016814D01*
X135156947Y-106088242D01*
X135061709Y-106159671D01*
X134966471Y-106159671D01*
X134871233Y-106088242D01*
X134823614Y-106016814D01*
X134775995Y-105873957D01*
X134728376Y-105588242D01*
X134728376Y-105231100D01*
X134775995Y-104945385D01*
X134823614Y-104802528D01*
X134871233Y-104731100D01*
X134966471Y-104659671D01*
X135490280Y-106302528D02*
X136252185Y-106302528D01*
X136966471Y-104659671D02*
X136490280Y-104659671D01*
X136442661Y-105373957D01*
X136490280Y-105302528D01*
X136585519Y-105231100D01*
X136823614Y-105231100D01*
X136918852Y-105302528D01*
X136966471Y-105373957D01*
X137014090Y-105516814D01*
X137014090Y-105873957D01*
X136966471Y-106016814D01*
X136918852Y-106088242D01*
X136823614Y-106159671D01*
X136585519Y-106159671D01*
X136490280Y-106088242D01*
X136442661Y-106016814D01*
X134347423Y-108659671D02*
X134014090Y-107945385D01*
X133775995Y-108659671D02*
X133775995Y-107159671D01*
X134156947Y-107159671D01*
X134252185Y-107231100D01*
X134299804Y-107302528D01*
X134347423Y-107445385D01*
X134347423Y-107659671D01*
X134299804Y-107802528D01*
X134252185Y-107873957D01*
X134156947Y-107945385D01*
X133775995Y-107945385D01*
X134680757Y-107159671D02*
X135347423Y-108659671D01*
X135347423Y-107159671D02*
X134680757Y-108659671D01*
X135728376Y-108659671D02*
X135728376Y-107159671D01*
X135966471Y-107159671D01*
X136109328Y-107231100D01*
X136204566Y-107373957D01*
X136252185Y-107516814D01*
X136299804Y-107802528D01*
X136299804Y-108016814D01*
X136252185Y-108302528D01*
X136204566Y-108445385D01*
X136109328Y-108588242D01*
X135966471Y-108659671D01*
X135728376Y-108659671D01*
X133633138Y-109659671D02*
X134204566Y-109659671D01*
X133918852Y-111159671D02*
X133918852Y-109659671D01*
X134442661Y-109659671D02*
X135109328Y-111159671D01*
X135109328Y-109659671D02*
X134442661Y-111159671D01*
X135490280Y-111159671D02*
X135490280Y-109659671D01*
X135728376Y-109659671D01*
X135871233Y-109731100D01*
X135966471Y-109873957D01*
X136014090Y-110016814D01*
X136061709Y-110302528D01*
X136061709Y-110516814D01*
X136014090Y-110802528D01*
X135966471Y-110945385D01*
X135871233Y-111088242D01*
X135728376Y-111159671D01*
X135490280Y-111159671D01*
X133775995Y-113659671D02*
X133775995Y-112159671D01*
X134156947Y-112159671D01*
X134252185Y-112231100D01*
X134299804Y-112302528D01*
X134347423Y-112445385D01*
X134347423Y-112659671D01*
X134299804Y-112802528D01*
X134252185Y-112873957D01*
X134156947Y-112945385D01*
X133775995Y-112945385D01*
X134966471Y-112159671D02*
X135061709Y-112159671D01*
X135156947Y-112231100D01*
X135204566Y-112302528D01*
X135252185Y-112445385D01*
X135299804Y-112731100D01*
X135299804Y-113088242D01*
X135252185Y-113373957D01*
X135204566Y-113516814D01*
X135156947Y-113588242D01*
X135061709Y-113659671D01*
X134966471Y-113659671D01*
X134871233Y-113588242D01*
X134823614Y-113516814D01*
X134775995Y-113373957D01*
X134728376Y-113088242D01*
X134728376Y-112731100D01*
X134775995Y-112445385D01*
X134823614Y-112302528D01*
X134871233Y-112231100D01*
X134966471Y-112159671D01*
X135490280Y-113802528D02*
X136252185Y-113802528D01*
X136395042Y-112159671D02*
X137014090Y-112159671D01*
X136680757Y-112731100D01*
X136823614Y-112731100D01*
X136918852Y-112802528D01*
X136966471Y-112873957D01*
X137014090Y-113016814D01*
X137014090Y-113373957D01*
X136966471Y-113516814D01*
X136918852Y-113588242D01*
X136823614Y-113659671D01*
X136537900Y-113659671D01*
X136442661Y-113588242D01*
X136395042Y-113516814D01*
X133775995Y-116159671D02*
X133775995Y-114659671D01*
X134156947Y-114659671D01*
X134252185Y-114731100D01*
X134299804Y-114802528D01*
X134347423Y-114945385D01*
X134347423Y-115159671D01*
X134299804Y-115302528D01*
X134252185Y-115373957D01*
X134156947Y-115445385D01*
X133775995Y-115445385D01*
X134966471Y-114659671D02*
X135061709Y-114659671D01*
X135156947Y-114731100D01*
X135204566Y-114802528D01*
X135252185Y-114945385D01*
X135299804Y-115231100D01*
X135299804Y-115588242D01*
X135252185Y-115873957D01*
X135204566Y-116016814D01*
X135156947Y-116088242D01*
X135061709Y-116159671D01*
X134966471Y-116159671D01*
X134871233Y-116088242D01*
X134823614Y-116016814D01*
X134775995Y-115873957D01*
X134728376Y-115588242D01*
X134728376Y-115231100D01*
X134775995Y-114945385D01*
X134823614Y-114802528D01*
X134871233Y-114731100D01*
X134966471Y-114659671D01*
X135490280Y-116302528D02*
X136252185Y-116302528D01*
X136442661Y-114802528D02*
X136490280Y-114731100D01*
X136585519Y-114659671D01*
X136823614Y-114659671D01*
X136918852Y-114731100D01*
X136966471Y-114802528D01*
X137014090Y-114945385D01*
X137014090Y-115088242D01*
X136966471Y-115302528D01*
X136395042Y-116159671D01*
X137014090Y-116159671D01*
X133775995Y-118659671D02*
X133775995Y-117159671D01*
X134156947Y-117159671D01*
X134252185Y-117231100D01*
X134299804Y-117302528D01*
X134347423Y-117445385D01*
X134347423Y-117659671D01*
X134299804Y-117802528D01*
X134252185Y-117873957D01*
X134156947Y-117945385D01*
X133775995Y-117945385D01*
X134728376Y-117302528D02*
X134775995Y-117231100D01*
X134871233Y-117159671D01*
X135109328Y-117159671D01*
X135204566Y-117231100D01*
X135252185Y-117302528D01*
X135299804Y-117445385D01*
X135299804Y-117588242D01*
X135252185Y-117802528D01*
X134680757Y-118659671D01*
X135299804Y-118659671D01*
X135490280Y-118802528D02*
X136252185Y-118802528D01*
X136918852Y-117659671D02*
X136918852Y-118659671D01*
X136680757Y-117088242D02*
X136442661Y-118159671D01*
X137061709Y-118159671D01*
X134252185Y-121159671D02*
X133775995Y-121159671D01*
X133775995Y-119659671D01*
X134585519Y-120373957D02*
X134918852Y-120373957D01*
X135061709Y-121159671D02*
X134585519Y-121159671D01*
X134585519Y-119659671D01*
X135061709Y-119659671D01*
X135490280Y-121159671D02*
X135490280Y-119659671D01*
X135728376Y-119659671D01*
X135871233Y-119731100D01*
X135966471Y-119873957D01*
X136014090Y-120016814D01*
X136061709Y-120302528D01*
X136061709Y-120516814D01*
X136014090Y-120802528D01*
X135966471Y-120945385D01*
X135871233Y-121088242D01*
X135728376Y-121159671D01*
X135490280Y-121159671D01*
X136442661Y-119802528D02*
X136490280Y-119731100D01*
X136585519Y-119659671D01*
X136823614Y-119659671D01*
X136918852Y-119731100D01*
X136966471Y-119802528D01*
X137014090Y-119945385D01*
X137014090Y-120088242D01*
X136966471Y-120302528D01*
X136395042Y-121159671D01*
X137014090Y-121159671D01*
X134252185Y-123659671D02*
X133775995Y-123659671D01*
X133775995Y-122159671D01*
X134585519Y-122873957D02*
X134918852Y-122873957D01*
X135061709Y-123659671D02*
X134585519Y-123659671D01*
X134585519Y-122159671D01*
X135061709Y-122159671D01*
X135490280Y-123659671D02*
X135490280Y-122159671D01*
X135728376Y-122159671D01*
X135871233Y-122231100D01*
X135966471Y-122373957D01*
X136014090Y-122516814D01*
X136061709Y-122802528D01*
X136061709Y-123016814D01*
X136014090Y-123302528D01*
X135966471Y-123445385D01*
X135871233Y-123588242D01*
X135728376Y-123659671D01*
X135490280Y-123659671D01*
X137014090Y-123659671D02*
X136442661Y-123659671D01*
X136728376Y-123659671D02*
X136728376Y-122159671D01*
X136633138Y-122373957D01*
X136537900Y-122516814D01*
X136442661Y-122588242D01*
X133775995Y-126159671D02*
X133775995Y-124659671D01*
X134109328Y-125731100D01*
X134442661Y-124659671D01*
X134442661Y-126159671D01*
X135252185Y-125373957D02*
X134918852Y-125373957D01*
X134918852Y-126159671D02*
X134918852Y-124659671D01*
X135395042Y-124659671D01*
X136109328Y-125373957D02*
X136252185Y-125445385D01*
X136299804Y-125516814D01*
X136347423Y-125659671D01*
X136347423Y-125873957D01*
X136299804Y-126016814D01*
X136252185Y-126088242D01*
X136156947Y-126159671D01*
X135775995Y-126159671D01*
X135775995Y-124659671D01*
X136109328Y-124659671D01*
X136204566Y-124731100D01*
X136252185Y-124802528D01*
X136299804Y-124945385D01*
X136299804Y-125088242D01*
X136252185Y-125231100D01*
X136204566Y-125302528D01*
X136109328Y-125373957D01*
X135775995Y-125373957D01*
X134299804Y-128659671D02*
X133728376Y-128659671D01*
X134014090Y-128659671D02*
X134014090Y-127159671D01*
X133918852Y-127373957D01*
X133823614Y-127516814D01*
X133728376Y-127588242D01*
X134728376Y-128516814D02*
X134775995Y-128588242D01*
X134728376Y-128659671D01*
X134680757Y-128588242D01*
X134728376Y-128516814D01*
X134728376Y-128659671D01*
X135347423Y-127802528D02*
X135252185Y-127731100D01*
X135204566Y-127659671D01*
X135156947Y-127516814D01*
X135156947Y-127445385D01*
X135204566Y-127302528D01*
X135252185Y-127231100D01*
X135347423Y-127159671D01*
X135537900Y-127159671D01*
X135633138Y-127231100D01*
X135680757Y-127302528D01*
X135728376Y-127445385D01*
X135728376Y-127516814D01*
X135680757Y-127659671D01*
X135633138Y-127731100D01*
X135537900Y-127802528D01*
X135347423Y-127802528D01*
X135252185Y-127873957D01*
X135204566Y-127945385D01*
X135156947Y-128088242D01*
X135156947Y-128373957D01*
X135204566Y-128516814D01*
X135252185Y-128588242D01*
X135347423Y-128659671D01*
X135537900Y-128659671D01*
X135633138Y-128588242D01*
X135680757Y-128516814D01*
X135728376Y-128373957D01*
X135728376Y-128088242D01*
X135680757Y-127945385D01*
X135633138Y-127873957D01*
X135537900Y-127802528D01*
X136014090Y-127159671D02*
X136347423Y-128659671D01*
X136680757Y-127159671D01*
X133728376Y-131088242D02*
X133871233Y-131159671D01*
X134109328Y-131159671D01*
X134204566Y-131088242D01*
X134252185Y-131016814D01*
X134299804Y-130873957D01*
X134299804Y-130731100D01*
X134252185Y-130588242D01*
X134204566Y-130516814D01*
X134109328Y-130445385D01*
X133918852Y-130373957D01*
X133823614Y-130302528D01*
X133775995Y-130231100D01*
X133728376Y-130088242D01*
X133728376Y-129945385D01*
X133775995Y-129802528D01*
X133823614Y-129731100D01*
X133918852Y-129659671D01*
X134156947Y-129659671D01*
X134299804Y-129731100D01*
X134728376Y-131159671D02*
X134728376Y-129659671D01*
X135109328Y-129659671D01*
X135204566Y-129731100D01*
X135252185Y-129802528D01*
X135299804Y-129945385D01*
X135299804Y-130159671D01*
X135252185Y-130302528D01*
X135204566Y-130373957D01*
X135109328Y-130445385D01*
X134728376Y-130445385D01*
X135633138Y-129659671D02*
X135871233Y-131159671D01*
X136061709Y-130088242D01*
X136252185Y-131159671D01*
X136490280Y-129659671D01*
X134299804Y-132231100D02*
X134204566Y-132159671D01*
X134061709Y-132159671D01*
X133918852Y-132231100D01*
X133823614Y-132373957D01*
X133775995Y-132516814D01*
X133728376Y-132802528D01*
X133728376Y-133016814D01*
X133775995Y-133302528D01*
X133823614Y-133445385D01*
X133918852Y-133588242D01*
X134061709Y-133659671D01*
X134156947Y-133659671D01*
X134299804Y-133588242D01*
X134347423Y-133516814D01*
X134347423Y-133016814D01*
X134156947Y-133016814D01*
X134775995Y-133659671D02*
X134775995Y-132159671D01*
X135347423Y-133659671D01*
X135347423Y-132159671D01*
X135823614Y-133659671D02*
X135823614Y-132159671D01*
X136061709Y-132159671D01*
X136204566Y-132231100D01*
X136299804Y-132373957D01*
X136347423Y-132516814D01*
X136395042Y-132802528D01*
X136395042Y-133016814D01*
X136347423Y-133302528D01*
X136299804Y-133445385D01*
X136204566Y-133588242D01*
X136061709Y-133659671D01*
X135823614Y-133659671D01*
X153792347Y-133110266D02*
X154268538Y-133110266D01*
X153697109Y-133395980D02*
X154030442Y-132395980D01*
X154363776Y-133395980D01*
X154697109Y-133395980D02*
X154697109Y-132395980D01*
X155649490Y-133395980D02*
X155173300Y-133395980D01*
X155173300Y-132395980D01*
X134096628Y-88575871D02*
X134239485Y-88623490D01*
X134287104Y-88671109D01*
X134334723Y-88766347D01*
X134334723Y-88909204D01*
X134287104Y-89004442D01*
X134239485Y-89052061D01*
X134144247Y-89099680D01*
X133763295Y-89099680D01*
X133763295Y-88099680D01*
X134096628Y-88099680D01*
X134191866Y-88147300D01*
X134239485Y-88194919D01*
X134287104Y-88290157D01*
X134287104Y-88385395D01*
X134239485Y-88480633D01*
X134191866Y-88528252D01*
X134096628Y-88575871D01*
X133763295Y-88575871D01*
X134715676Y-88813966D02*
X135191866Y-88813966D01*
X134620438Y-89099680D02*
X134953771Y-88099680D01*
X135287104Y-89099680D01*
X135477580Y-88099680D02*
X136049009Y-88099680D01*
X135763295Y-89099680D02*
X135763295Y-88099680D01*
X133715676Y-90563966D02*
X134191866Y-90563966D01*
X133620438Y-90849680D02*
X133953771Y-89849680D01*
X134287104Y-90849680D01*
X134620438Y-90849680D02*
X134620438Y-89849680D01*
X134858533Y-89849680D01*
X135001390Y-89897300D01*
X135096628Y-89992538D01*
X135144247Y-90087776D01*
X135191866Y-90278252D01*
X135191866Y-90421109D01*
X135144247Y-90611585D01*
X135096628Y-90706823D01*
X135001390Y-90802061D01*
X134858533Y-90849680D01*
X134620438Y-90849680D01*
X135572819Y-90563966D02*
X136049009Y-90563966D01*
X135477580Y-90849680D02*
X135810914Y-89849680D01*
X136144247Y-90849680D01*
X136477580Y-90849680D02*
X136477580Y-89849680D01*
X136858533Y-89849680D01*
X136953771Y-89897300D01*
X137001390Y-89944919D01*
X137049009Y-90040157D01*
X137049009Y-90183014D01*
X137001390Y-90278252D01*
X136953771Y-90325871D01*
X136858533Y-90373490D01*
X136477580Y-90373490D01*
X154295138Y-89862980D02*
X153961804Y-89386790D01*
X153723709Y-89862980D02*
X153723709Y-88862980D01*
X154104661Y-88862980D01*
X154199900Y-88910600D01*
X154247519Y-88958219D01*
X154295138Y-89053457D01*
X154295138Y-89196314D01*
X154247519Y-89291552D01*
X154199900Y-89339171D01*
X154104661Y-89386790D01*
X153723709Y-89386790D01*
X154676090Y-89815361D02*
X154818947Y-89862980D01*
X155057042Y-89862980D01*
X155152280Y-89815361D01*
X155199900Y-89767742D01*
X155247519Y-89672504D01*
X155247519Y-89577266D01*
X155199900Y-89482028D01*
X155152280Y-89434409D01*
X155057042Y-89386790D01*
X154866566Y-89339171D01*
X154771328Y-89291552D01*
X154723709Y-89243933D01*
X154676090Y-89148695D01*
X154676090Y-89053457D01*
X154723709Y-88958219D01*
X154771328Y-88910600D01*
X154866566Y-88862980D01*
X155104661Y-88862980D01*
X155247519Y-88910600D01*
X155533233Y-88862980D02*
X156104661Y-88862980D01*
X155818947Y-89862980D02*
X155818947Y-88862980D01*
X153580852Y-90612980D02*
X153914185Y-91612980D01*
X154247519Y-90612980D01*
X155152280Y-91612980D02*
X154818947Y-91136790D01*
X154580852Y-91612980D02*
X154580852Y-90612980D01*
X154961804Y-90612980D01*
X155057042Y-90660600D01*
X155104661Y-90708219D01*
X155152280Y-90803457D01*
X155152280Y-90946314D01*
X155104661Y-91041552D01*
X155057042Y-91089171D01*
X154961804Y-91136790D01*
X154580852Y-91136790D01*
X155914185Y-91089171D02*
X155580852Y-91089171D01*
X155580852Y-91612980D02*
X155580852Y-90612980D01*
X156057042Y-90612980D01*
X152771328Y-93362980D02*
X152771328Y-92362980D01*
X153152280Y-92362980D01*
X153247519Y-92410600D01*
X153295138Y-92458219D01*
X153342757Y-92553457D01*
X153342757Y-92696314D01*
X153295138Y-92791552D01*
X153247519Y-92839171D01*
X153152280Y-92886790D01*
X152771328Y-92886790D01*
X153961804Y-92362980D02*
X154057042Y-92362980D01*
X154152280Y-92410600D01*
X154199900Y-92458219D01*
X154247519Y-92553457D01*
X154295138Y-92743933D01*
X154295138Y-92982028D01*
X154247519Y-93172504D01*
X154199900Y-93267742D01*
X154152280Y-93315361D01*
X154057042Y-93362980D01*
X153961804Y-93362980D01*
X153866566Y-93315361D01*
X153818947Y-93267742D01*
X153771328Y-93172504D01*
X153723709Y-92982028D01*
X153723709Y-92743933D01*
X153771328Y-92553457D01*
X153818947Y-92458219D01*
X153866566Y-92410600D01*
X153961804Y-92362980D01*
X154485614Y-93458219D02*
X155247519Y-93458219D01*
X156009423Y-93362980D02*
X155437995Y-93362980D01*
X155723709Y-93362980D02*
X155723709Y-92362980D01*
X155628471Y-92505838D01*
X155533233Y-92601076D01*
X155437995Y-92648695D01*
X134239119Y-95257880D02*
X134239119Y-94257880D01*
X134905785Y-94257880D02*
X135096261Y-94257880D01*
X135191500Y-94305500D01*
X135286738Y-94400738D01*
X135334357Y-94591214D01*
X135334357Y-94924547D01*
X135286738Y-95115023D01*
X135191500Y-95210261D01*
X135096261Y-95257880D01*
X134905785Y-95257880D01*
X134810547Y-95210261D01*
X134715309Y-95115023D01*
X134667690Y-94924547D01*
X134667690Y-94591214D01*
X134715309Y-94400738D01*
X134810547Y-94305500D01*
X134905785Y-94257880D01*
X135620071Y-94257880D02*
X135953404Y-95257880D01*
X136286738Y-94257880D01*
X143378419Y-73576571D02*
X143045085Y-72862285D01*
X142806990Y-73576571D02*
X142806990Y-72076571D01*
X143187942Y-72076571D01*
X143283180Y-72148000D01*
X143330800Y-72219428D01*
X143378419Y-72362285D01*
X143378419Y-72576571D01*
X143330800Y-72719428D01*
X143283180Y-72790857D01*
X143187942Y-72862285D01*
X142806990Y-72862285D01*
X143806990Y-72790857D02*
X144140323Y-72790857D01*
X144283180Y-73576571D02*
X143806990Y-73576571D01*
X143806990Y-72076571D01*
X144283180Y-72076571D01*
X144664133Y-73505142D02*
X144806990Y-73576571D01*
X145045085Y-73576571D01*
X145140323Y-73505142D01*
X145187942Y-73433714D01*
X145235561Y-73290857D01*
X145235561Y-73148000D01*
X145187942Y-73005142D01*
X145140323Y-72933714D01*
X145045085Y-72862285D01*
X144854609Y-72790857D01*
X144759371Y-72719428D01*
X144711752Y-72648000D01*
X144664133Y-72505142D01*
X144664133Y-72362285D01*
X144711752Y-72219428D01*
X144759371Y-72148000D01*
X144854609Y-72076571D01*
X145092704Y-72076571D01*
X145235561Y-72148000D01*
X145664133Y-72790857D02*
X145997466Y-72790857D01*
X146140323Y-73576571D02*
X145664133Y-73576571D01*
X145664133Y-72076571D01*
X146140323Y-72076571D01*
X146426038Y-72076571D02*
X146997466Y-72076571D01*
X146711752Y-73576571D02*
X146711752Y-72076571D01*
X143518095Y-62908571D02*
X143518095Y-61408571D01*
X143851428Y-62480000D01*
X144184761Y-61408571D01*
X144184761Y-62908571D01*
X144994285Y-62122857D02*
X144660952Y-62122857D01*
X144660952Y-62908571D02*
X144660952Y-61408571D01*
X145137142Y-61408571D01*
X145851428Y-62122857D02*
X145994285Y-62194285D01*
X146041904Y-62265714D01*
X146089523Y-62408571D01*
X146089523Y-62622857D01*
X146041904Y-62765714D01*
X145994285Y-62837142D01*
X145899047Y-62908571D01*
X145518095Y-62908571D01*
X145518095Y-61408571D01*
X145851428Y-61408571D01*
X145946666Y-61480000D01*
X145994285Y-61551428D01*
X146041904Y-61694285D01*
X146041904Y-61837142D01*
X145994285Y-61980000D01*
X145946666Y-62051428D01*
X145851428Y-62122857D01*
X145518095Y-62122857D01*
X152326828Y-51738571D02*
X152326828Y-50238571D01*
X152707780Y-50238571D01*
X152803019Y-50310000D01*
X152850638Y-50381428D01*
X152898257Y-50524285D01*
X152898257Y-50738571D01*
X152850638Y-50881428D01*
X152803019Y-50952857D01*
X152707780Y-51024285D01*
X152326828Y-51024285D01*
X153517304Y-50238571D02*
X153612542Y-50238571D01*
X153707780Y-50310000D01*
X153755400Y-50381428D01*
X153803019Y-50524285D01*
X153850638Y-50810000D01*
X153850638Y-51167142D01*
X153803019Y-51452857D01*
X153755400Y-51595714D01*
X153707780Y-51667142D01*
X153612542Y-51738571D01*
X153517304Y-51738571D01*
X153422066Y-51667142D01*
X153374447Y-51595714D01*
X153326828Y-51452857D01*
X153279209Y-51167142D01*
X153279209Y-50810000D01*
X153326828Y-50524285D01*
X153374447Y-50381428D01*
X153422066Y-50310000D01*
X153517304Y-50238571D01*
X154041114Y-51881428D02*
X154803019Y-51881428D01*
X155231590Y-50238571D02*
X155326828Y-50238571D01*
X155422066Y-50310000D01*
X155469685Y-50381428D01*
X155517304Y-50524285D01*
X155564923Y-50810000D01*
X155564923Y-51167142D01*
X155517304Y-51452857D01*
X155469685Y-51595714D01*
X155422066Y-51667142D01*
X155326828Y-51738571D01*
X155231590Y-51738571D01*
X155136352Y-51667142D01*
X155088733Y-51595714D01*
X155041114Y-51452857D01*
X154993495Y-51167142D01*
X154993495Y-50810000D01*
X155041114Y-50524285D01*
X155088733Y-50381428D01*
X155136352Y-50310000D01*
X155231590Y-50238571D01*
X153183971Y-53452857D02*
X153517304Y-53452857D01*
X153660161Y-54238571D02*
X153183971Y-54238571D01*
X153183971Y-52738571D01*
X153660161Y-52738571D01*
X154041114Y-53810000D02*
X154517304Y-53810000D01*
X153945876Y-54238571D02*
X154279209Y-52738571D01*
X154612542Y-54238571D01*
X154945876Y-54238571D02*
X154945876Y-52738571D01*
X155517304Y-54238571D01*
X155517304Y-52738571D01*
X152326828Y-56738571D02*
X152326828Y-55238571D01*
X152707780Y-55238571D01*
X152803019Y-55310000D01*
X152850638Y-55381428D01*
X152898257Y-55524285D01*
X152898257Y-55738571D01*
X152850638Y-55881428D01*
X152803019Y-55952857D01*
X152707780Y-56024285D01*
X152326828Y-56024285D01*
X153231590Y-55238571D02*
X153850638Y-55238571D01*
X153517304Y-55810000D01*
X153660161Y-55810000D01*
X153755400Y-55881428D01*
X153803019Y-55952857D01*
X153850638Y-56095714D01*
X153850638Y-56452857D01*
X153803019Y-56595714D01*
X153755400Y-56667142D01*
X153660161Y-56738571D01*
X153374447Y-56738571D01*
X153279209Y-56667142D01*
X153231590Y-56595714D01*
X154041114Y-56881428D02*
X154803019Y-56881428D01*
X155231590Y-55238571D02*
X155326828Y-55238571D01*
X155422066Y-55310000D01*
X155469685Y-55381428D01*
X155517304Y-55524285D01*
X155564923Y-55810000D01*
X155564923Y-56167142D01*
X155517304Y-56452857D01*
X155469685Y-56595714D01*
X155422066Y-56667142D01*
X155326828Y-56738571D01*
X155231590Y-56738571D01*
X155136352Y-56667142D01*
X155088733Y-56595714D01*
X155041114Y-56452857D01*
X154993495Y-56167142D01*
X154993495Y-55810000D01*
X155041114Y-55524285D01*
X155088733Y-55381428D01*
X155136352Y-55310000D01*
X155231590Y-55238571D01*
X152326828Y-59238571D02*
X152326828Y-57738571D01*
X152707780Y-57738571D01*
X152803019Y-57810000D01*
X152850638Y-57881428D01*
X152898257Y-58024285D01*
X152898257Y-58238571D01*
X152850638Y-58381428D01*
X152803019Y-58452857D01*
X152707780Y-58524285D01*
X152326828Y-58524285D01*
X153279209Y-57881428D02*
X153326828Y-57810000D01*
X153422066Y-57738571D01*
X153660161Y-57738571D01*
X153755400Y-57810000D01*
X153803019Y-57881428D01*
X153850638Y-58024285D01*
X153850638Y-58167142D01*
X153803019Y-58381428D01*
X153231590Y-59238571D01*
X153850638Y-59238571D01*
X154041114Y-59381428D02*
X154803019Y-59381428D01*
X155231590Y-57738571D02*
X155326828Y-57738571D01*
X155422066Y-57810000D01*
X155469685Y-57881428D01*
X155517304Y-58024285D01*
X155564923Y-58310000D01*
X155564923Y-58667142D01*
X155517304Y-58952857D01*
X155469685Y-59095714D01*
X155422066Y-59167142D01*
X155326828Y-59238571D01*
X155231590Y-59238571D01*
X155136352Y-59167142D01*
X155088733Y-59095714D01*
X155041114Y-58952857D01*
X154993495Y-58667142D01*
X154993495Y-58310000D01*
X155041114Y-58024285D01*
X155088733Y-57881428D01*
X155136352Y-57810000D01*
X155231590Y-57738571D01*
X152326828Y-61738571D02*
X152326828Y-60238571D01*
X152707780Y-60238571D01*
X152803019Y-60310000D01*
X152850638Y-60381428D01*
X152898257Y-60524285D01*
X152898257Y-60738571D01*
X152850638Y-60881428D01*
X152803019Y-60952857D01*
X152707780Y-61024285D01*
X152326828Y-61024285D01*
X153850638Y-61738571D02*
X153279209Y-61738571D01*
X153564923Y-61738571D02*
X153564923Y-60238571D01*
X153469685Y-60452857D01*
X153374447Y-60595714D01*
X153279209Y-60667142D01*
X154041114Y-61881428D02*
X154803019Y-61881428D01*
X155517304Y-60238571D02*
X155041114Y-60238571D01*
X154993495Y-60952857D01*
X155041114Y-60881428D01*
X155136352Y-60810000D01*
X155374447Y-60810000D01*
X155469685Y-60881428D01*
X155517304Y-60952857D01*
X155564923Y-61095714D01*
X155564923Y-61452857D01*
X155517304Y-61595714D01*
X155469685Y-61667142D01*
X155374447Y-61738571D01*
X155136352Y-61738571D01*
X155041114Y-61667142D01*
X154993495Y-61595714D01*
X152326828Y-64238571D02*
X152326828Y-62738571D01*
X152707780Y-62738571D01*
X152803019Y-62810000D01*
X152850638Y-62881428D01*
X152898257Y-63024285D01*
X152898257Y-63238571D01*
X152850638Y-63381428D01*
X152803019Y-63452857D01*
X152707780Y-63524285D01*
X152326828Y-63524285D01*
X153517304Y-62738571D02*
X153612542Y-62738571D01*
X153707780Y-62810000D01*
X153755400Y-62881428D01*
X153803019Y-63024285D01*
X153850638Y-63310000D01*
X153850638Y-63667142D01*
X153803019Y-63952857D01*
X153755400Y-64095714D01*
X153707780Y-64167142D01*
X153612542Y-64238571D01*
X153517304Y-64238571D01*
X153422066Y-64167142D01*
X153374447Y-64095714D01*
X153326828Y-63952857D01*
X153279209Y-63667142D01*
X153279209Y-63310000D01*
X153326828Y-63024285D01*
X153374447Y-62881428D01*
X153422066Y-62810000D01*
X153517304Y-62738571D01*
X154041114Y-64381428D02*
X154803019Y-64381428D01*
X155469685Y-63238571D02*
X155469685Y-64238571D01*
X155231590Y-62667142D02*
X154993495Y-63738571D01*
X155612542Y-63738571D01*
X151993495Y-66667142D02*
X152136352Y-66738571D01*
X152374447Y-66738571D01*
X152469685Y-66667142D01*
X152517304Y-66595714D01*
X152564923Y-66452857D01*
X152564923Y-66310000D01*
X152517304Y-66167142D01*
X152469685Y-66095714D01*
X152374447Y-66024285D01*
X152183971Y-65952857D01*
X152088733Y-65881428D01*
X152041114Y-65810000D01*
X151993495Y-65667142D01*
X151993495Y-65524285D01*
X152041114Y-65381428D01*
X152088733Y-65310000D01*
X152183971Y-65238571D01*
X152422066Y-65238571D01*
X152564923Y-65310000D01*
X152993495Y-66738571D02*
X152993495Y-65238571D01*
X153374447Y-65238571D01*
X153469685Y-65310000D01*
X153517304Y-65381428D01*
X153564923Y-65524285D01*
X153564923Y-65738571D01*
X153517304Y-65881428D01*
X153469685Y-65952857D01*
X153374447Y-66024285D01*
X152993495Y-66024285D01*
X153993495Y-66738571D02*
X153993495Y-65238571D01*
X154564923Y-66738571D02*
X154136352Y-65881428D01*
X154564923Y-65238571D02*
X153993495Y-66095714D01*
X155564923Y-66738571D02*
X155231590Y-66024285D01*
X154993495Y-66738571D02*
X154993495Y-65238571D01*
X155374447Y-65238571D01*
X155469685Y-65310000D01*
X155517304Y-65381428D01*
X155564923Y-65524285D01*
X155564923Y-65738571D01*
X155517304Y-65881428D01*
X155469685Y-65952857D01*
X155374447Y-66024285D01*
X154993495Y-66024285D01*
X150850638Y-68810000D02*
X151326828Y-68810000D01*
X150755400Y-69238571D02*
X151088733Y-67738571D01*
X151422066Y-69238571D01*
X151945876Y-67738571D02*
X152136352Y-67738571D01*
X152231590Y-67810000D01*
X152326828Y-67952857D01*
X152374447Y-68238571D01*
X152374447Y-68738571D01*
X152326828Y-69024285D01*
X152231590Y-69167142D01*
X152136352Y-69238571D01*
X151945876Y-69238571D01*
X151850638Y-69167142D01*
X151755400Y-69024285D01*
X151707780Y-68738571D01*
X151707780Y-68238571D01*
X151755400Y-67952857D01*
X151850638Y-67810000D01*
X151945876Y-67738571D01*
X152803019Y-69238571D02*
X152803019Y-67738571D01*
X152803019Y-68452857D02*
X153374447Y-68452857D01*
X153374447Y-69238571D02*
X153374447Y-67738571D01*
X153850638Y-69238571D02*
X153850638Y-67738571D01*
X154231590Y-67738571D01*
X154326828Y-67810000D01*
X154374447Y-67881428D01*
X154422066Y-68024285D01*
X154422066Y-68238571D01*
X154374447Y-68381428D01*
X154326828Y-68452857D01*
X154231590Y-68524285D01*
X153850638Y-68524285D01*
X154850638Y-69238571D02*
X154850638Y-67738571D01*
X155183971Y-68810000D01*
X155517304Y-67738571D01*
X155517304Y-69238571D01*
X152183971Y-71667142D02*
X152326828Y-71738571D01*
X152564923Y-71738571D01*
X152660161Y-71667142D01*
X152707780Y-71595714D01*
X152755400Y-71452857D01*
X152755400Y-71310000D01*
X152707780Y-71167142D01*
X152660161Y-71095714D01*
X152564923Y-71024285D01*
X152374447Y-70952857D01*
X152279209Y-70881428D01*
X152231590Y-70810000D01*
X152183971Y-70667142D01*
X152183971Y-70524285D01*
X152231590Y-70381428D01*
X152279209Y-70310000D01*
X152374447Y-70238571D01*
X152612542Y-70238571D01*
X152755400Y-70310000D01*
X153183971Y-71738571D02*
X153183971Y-70238571D01*
X153564923Y-70238571D01*
X153660161Y-70310000D01*
X153707780Y-70381428D01*
X153755400Y-70524285D01*
X153755400Y-70738571D01*
X153707780Y-70881428D01*
X153660161Y-70952857D01*
X153564923Y-71024285D01*
X153183971Y-71024285D01*
X154183971Y-71738571D02*
X154183971Y-70238571D01*
X154755400Y-71738571D02*
X154326828Y-70881428D01*
X154755400Y-70238571D02*
X154183971Y-71095714D01*
X155660161Y-71738571D02*
X155183971Y-71738571D01*
X155183971Y-70238571D01*
X152136352Y-72738571D02*
X152469685Y-74238571D01*
X152803019Y-72738571D01*
X153136352Y-74238571D02*
X153136352Y-72738571D01*
X153374447Y-72738571D01*
X153517304Y-72810000D01*
X153612542Y-72952857D01*
X153660161Y-73095714D01*
X153707780Y-73381428D01*
X153707780Y-73595714D01*
X153660161Y-73881428D01*
X153612542Y-74024285D01*
X153517304Y-74167142D01*
X153374447Y-74238571D01*
X153136352Y-74238571D01*
X154136352Y-74238571D02*
X154136352Y-72738571D01*
X154374447Y-72738571D01*
X154517304Y-72810000D01*
X154612542Y-72952857D01*
X154660161Y-73095714D01*
X154707780Y-73381428D01*
X154707780Y-73595714D01*
X154660161Y-73881428D01*
X154612542Y-74024285D01*
X154517304Y-74167142D01*
X154374447Y-74238571D01*
X154136352Y-74238571D01*
X155088733Y-73810000D02*
X155564923Y-73810000D01*
X154993495Y-74238571D02*
X155326828Y-72738571D01*
X155660161Y-74238571D01*
X154993495Y-76738571D02*
X154993495Y-75238571D01*
X155374447Y-75238571D01*
X155469685Y-75310000D01*
X155517304Y-75381428D01*
X155564923Y-75524285D01*
X155564923Y-75738571D01*
X155517304Y-75881428D01*
X155469685Y-75952857D01*
X155374447Y-76024285D01*
X154993495Y-76024285D01*
X154945876Y-79238571D02*
X154945876Y-77738571D01*
X155517304Y-79238571D01*
X155517304Y-77738571D01*
X153041114Y-80952857D02*
X153183971Y-81024285D01*
X153231590Y-81095714D01*
X153279209Y-81238571D01*
X153279209Y-81452857D01*
X153231590Y-81595714D01*
X153183971Y-81667142D01*
X153088733Y-81738571D01*
X152707780Y-81738571D01*
X152707780Y-80238571D01*
X153041114Y-80238571D01*
X153136352Y-80310000D01*
X153183971Y-80381428D01*
X153231590Y-80524285D01*
X153231590Y-80667142D01*
X153183971Y-80810000D01*
X153136352Y-80881428D01*
X153041114Y-80952857D01*
X152707780Y-80952857D01*
X153707780Y-81738571D02*
X153707780Y-80238571D01*
X154136352Y-81310000D02*
X154612542Y-81310000D01*
X154041114Y-81738571D02*
X154374447Y-80238571D01*
X154707780Y-81738571D01*
X154993495Y-81667142D02*
X155136352Y-81738571D01*
X155374447Y-81738571D01*
X155469685Y-81667142D01*
X155517304Y-81595714D01*
X155564923Y-81452857D01*
X155564923Y-81310000D01*
X155517304Y-81167142D01*
X155469685Y-81095714D01*
X155374447Y-81024285D01*
X155183971Y-80952857D01*
X155088733Y-80881428D01*
X155041114Y-80810000D01*
X154993495Y-80667142D01*
X154993495Y-80524285D01*
X155041114Y-80381428D01*
X155088733Y-80310000D01*
X155183971Y-80238571D01*
X155422066Y-80238571D01*
X155564923Y-80310000D01*
X153612542Y-83810000D02*
X154088733Y-83810000D01*
X153517304Y-84238571D02*
X153850638Y-82738571D01*
X154183971Y-84238571D01*
X154517304Y-84238571D02*
X154517304Y-82738571D01*
X155564923Y-84238571D02*
X155231590Y-83524285D01*
X154993495Y-84238571D02*
X154993495Y-82738571D01*
X155374447Y-82738571D01*
X155469685Y-82810000D01*
X155517304Y-82881428D01*
X155564923Y-83024285D01*
X155564923Y-83238571D01*
X155517304Y-83381428D01*
X155469685Y-83452857D01*
X155374447Y-83524285D01*
X154993495Y-83524285D01*
X134299804Y-49987100D02*
X134204566Y-49915671D01*
X134061709Y-49915671D01*
X133918852Y-49987100D01*
X133823614Y-50129957D01*
X133775995Y-50272814D01*
X133728376Y-50558528D01*
X133728376Y-50772814D01*
X133775995Y-51058528D01*
X133823614Y-51201385D01*
X133918852Y-51344242D01*
X134061709Y-51415671D01*
X134156947Y-51415671D01*
X134299804Y-51344242D01*
X134347423Y-51272814D01*
X134347423Y-50772814D01*
X134156947Y-50772814D01*
X134775995Y-51415671D02*
X134775995Y-49915671D01*
X135347423Y-51415671D01*
X135347423Y-49915671D01*
X135823614Y-51415671D02*
X135823614Y-49915671D01*
X136061709Y-49915671D01*
X136204566Y-49987100D01*
X136299804Y-50129957D01*
X136347423Y-50272814D01*
X136395042Y-50558528D01*
X136395042Y-50772814D01*
X136347423Y-51058528D01*
X136299804Y-51201385D01*
X136204566Y-51344242D01*
X136061709Y-51415671D01*
X135823614Y-51415671D01*
X133775995Y-53915671D02*
X133775995Y-52415671D01*
X134156947Y-52415671D01*
X134252185Y-52487100D01*
X134299804Y-52558528D01*
X134347423Y-52701385D01*
X134347423Y-52915671D01*
X134299804Y-53058528D01*
X134252185Y-53129957D01*
X134156947Y-53201385D01*
X133775995Y-53201385D01*
X134728376Y-52558528D02*
X134775995Y-52487100D01*
X134871233Y-52415671D01*
X135109328Y-52415671D01*
X135204566Y-52487100D01*
X135252185Y-52558528D01*
X135299804Y-52701385D01*
X135299804Y-52844242D01*
X135252185Y-53058528D01*
X134680757Y-53915671D01*
X135299804Y-53915671D01*
X135490280Y-54058528D02*
X136252185Y-54058528D01*
X136918852Y-52915671D02*
X136918852Y-53915671D01*
X136680757Y-52344242D02*
X136442661Y-53415671D01*
X137061709Y-53415671D01*
X133775995Y-56415671D02*
X133775995Y-54915671D01*
X134156947Y-54915671D01*
X134252185Y-54987100D01*
X134299804Y-55058528D01*
X134347423Y-55201385D01*
X134347423Y-55415671D01*
X134299804Y-55558528D01*
X134252185Y-55629957D01*
X134156947Y-55701385D01*
X133775995Y-55701385D01*
X134728376Y-55058528D02*
X134775995Y-54987100D01*
X134871233Y-54915671D01*
X135109328Y-54915671D01*
X135204566Y-54987100D01*
X135252185Y-55058528D01*
X135299804Y-55201385D01*
X135299804Y-55344242D01*
X135252185Y-55558528D01*
X134680757Y-56415671D01*
X135299804Y-56415671D01*
X135490280Y-56558528D02*
X136252185Y-56558528D01*
X136395042Y-54915671D02*
X137061709Y-54915671D01*
X136633138Y-56415671D01*
X133775995Y-58915671D02*
X133775995Y-57415671D01*
X134156947Y-57415671D01*
X134252185Y-57487100D01*
X134299804Y-57558528D01*
X134347423Y-57701385D01*
X134347423Y-57915671D01*
X134299804Y-58058528D01*
X134252185Y-58129957D01*
X134156947Y-58201385D01*
X133775995Y-58201385D01*
X134966471Y-57415671D02*
X135061709Y-57415671D01*
X135156947Y-57487100D01*
X135204566Y-57558528D01*
X135252185Y-57701385D01*
X135299804Y-57987100D01*
X135299804Y-58344242D01*
X135252185Y-58629957D01*
X135204566Y-58772814D01*
X135156947Y-58844242D01*
X135061709Y-58915671D01*
X134966471Y-58915671D01*
X134871233Y-58844242D01*
X134823614Y-58772814D01*
X134775995Y-58629957D01*
X134728376Y-58344242D01*
X134728376Y-57987100D01*
X134775995Y-57701385D01*
X134823614Y-57558528D01*
X134871233Y-57487100D01*
X134966471Y-57415671D01*
X135490280Y-59058528D02*
X136252185Y-59058528D01*
X136966471Y-57415671D02*
X136490280Y-57415671D01*
X136442661Y-58129957D01*
X136490280Y-58058528D01*
X136585519Y-57987100D01*
X136823614Y-57987100D01*
X136918852Y-58058528D01*
X136966471Y-58129957D01*
X137014090Y-58272814D01*
X137014090Y-58629957D01*
X136966471Y-58772814D01*
X136918852Y-58844242D01*
X136823614Y-58915671D01*
X136585519Y-58915671D01*
X136490280Y-58844242D01*
X136442661Y-58772814D01*
X134347423Y-61415671D02*
X134014090Y-60701385D01*
X133775995Y-61415671D02*
X133775995Y-59915671D01*
X134156947Y-59915671D01*
X134252185Y-59987100D01*
X134299804Y-60058528D01*
X134347423Y-60201385D01*
X134347423Y-60415671D01*
X134299804Y-60558528D01*
X134252185Y-60629957D01*
X134156947Y-60701385D01*
X133775995Y-60701385D01*
X134680757Y-59915671D02*
X135347423Y-61415671D01*
X135347423Y-59915671D02*
X134680757Y-61415671D01*
X135728376Y-61415671D02*
X135728376Y-59915671D01*
X135966471Y-59915671D01*
X136109328Y-59987100D01*
X136204566Y-60129957D01*
X136252185Y-60272814D01*
X136299804Y-60558528D01*
X136299804Y-60772814D01*
X136252185Y-61058528D01*
X136204566Y-61201385D01*
X136109328Y-61344242D01*
X135966471Y-61415671D01*
X135728376Y-61415671D01*
X133633138Y-62415671D02*
X134204566Y-62415671D01*
X133918852Y-63915671D02*
X133918852Y-62415671D01*
X134442661Y-62415671D02*
X135109328Y-63915671D01*
X135109328Y-62415671D02*
X134442661Y-63915671D01*
X135490280Y-63915671D02*
X135490280Y-62415671D01*
X135728376Y-62415671D01*
X135871233Y-62487100D01*
X135966471Y-62629957D01*
X136014090Y-62772814D01*
X136061709Y-63058528D01*
X136061709Y-63272814D01*
X136014090Y-63558528D01*
X135966471Y-63701385D01*
X135871233Y-63844242D01*
X135728376Y-63915671D01*
X135490280Y-63915671D01*
X133775995Y-66415671D02*
X133775995Y-64915671D01*
X134156947Y-64915671D01*
X134252185Y-64987100D01*
X134299804Y-65058528D01*
X134347423Y-65201385D01*
X134347423Y-65415671D01*
X134299804Y-65558528D01*
X134252185Y-65629957D01*
X134156947Y-65701385D01*
X133775995Y-65701385D01*
X134966471Y-64915671D02*
X135061709Y-64915671D01*
X135156947Y-64987100D01*
X135204566Y-65058528D01*
X135252185Y-65201385D01*
X135299804Y-65487100D01*
X135299804Y-65844242D01*
X135252185Y-66129957D01*
X135204566Y-66272814D01*
X135156947Y-66344242D01*
X135061709Y-66415671D01*
X134966471Y-66415671D01*
X134871233Y-66344242D01*
X134823614Y-66272814D01*
X134775995Y-66129957D01*
X134728376Y-65844242D01*
X134728376Y-65487100D01*
X134775995Y-65201385D01*
X134823614Y-65058528D01*
X134871233Y-64987100D01*
X134966471Y-64915671D01*
X135490280Y-66558528D02*
X136252185Y-66558528D01*
X136395042Y-64915671D02*
X137014090Y-64915671D01*
X136680757Y-65487100D01*
X136823614Y-65487100D01*
X136918852Y-65558528D01*
X136966471Y-65629957D01*
X137014090Y-65772814D01*
X137014090Y-66129957D01*
X136966471Y-66272814D01*
X136918852Y-66344242D01*
X136823614Y-66415671D01*
X136537900Y-66415671D01*
X136442661Y-66344242D01*
X136395042Y-66272814D01*
X133775995Y-68915671D02*
X133775995Y-67415671D01*
X134156947Y-67415671D01*
X134252185Y-67487100D01*
X134299804Y-67558528D01*
X134347423Y-67701385D01*
X134347423Y-67915671D01*
X134299804Y-68058528D01*
X134252185Y-68129957D01*
X134156947Y-68201385D01*
X133775995Y-68201385D01*
X134966471Y-67415671D02*
X135061709Y-67415671D01*
X135156947Y-67487100D01*
X135204566Y-67558528D01*
X135252185Y-67701385D01*
X135299804Y-67987100D01*
X135299804Y-68344242D01*
X135252185Y-68629957D01*
X135204566Y-68772814D01*
X135156947Y-68844242D01*
X135061709Y-68915671D01*
X134966471Y-68915671D01*
X134871233Y-68844242D01*
X134823614Y-68772814D01*
X134775995Y-68629957D01*
X134728376Y-68344242D01*
X134728376Y-67987100D01*
X134775995Y-67701385D01*
X134823614Y-67558528D01*
X134871233Y-67487100D01*
X134966471Y-67415671D01*
X135490280Y-69058528D02*
X136252185Y-69058528D01*
X136442661Y-67558528D02*
X136490280Y-67487100D01*
X136585519Y-67415671D01*
X136823614Y-67415671D01*
X136918852Y-67487100D01*
X136966471Y-67558528D01*
X137014090Y-67701385D01*
X137014090Y-67844242D01*
X136966471Y-68058528D01*
X136395042Y-68915671D01*
X137014090Y-68915671D01*
X133775995Y-71415671D02*
X133775995Y-69915671D01*
X134156947Y-69915671D01*
X134252185Y-69987100D01*
X134299804Y-70058528D01*
X134347423Y-70201385D01*
X134347423Y-70415671D01*
X134299804Y-70558528D01*
X134252185Y-70629957D01*
X134156947Y-70701385D01*
X133775995Y-70701385D01*
X134728376Y-70058528D02*
X134775995Y-69987100D01*
X134871233Y-69915671D01*
X135109328Y-69915671D01*
X135204566Y-69987100D01*
X135252185Y-70058528D01*
X135299804Y-70201385D01*
X135299804Y-70344242D01*
X135252185Y-70558528D01*
X134680757Y-71415671D01*
X135299804Y-71415671D01*
X135490280Y-71558528D02*
X136252185Y-71558528D01*
X136918852Y-70415671D02*
X136918852Y-71415671D01*
X136680757Y-69844242D02*
X136442661Y-70915671D01*
X137061709Y-70915671D01*
X134252185Y-73915671D02*
X133775995Y-73915671D01*
X133775995Y-72415671D01*
X134585519Y-73129957D02*
X134918852Y-73129957D01*
X135061709Y-73915671D02*
X134585519Y-73915671D01*
X134585519Y-72415671D01*
X135061709Y-72415671D01*
X135490280Y-73915671D02*
X135490280Y-72415671D01*
X135728376Y-72415671D01*
X135871233Y-72487100D01*
X135966471Y-72629957D01*
X136014090Y-72772814D01*
X136061709Y-73058528D01*
X136061709Y-73272814D01*
X136014090Y-73558528D01*
X135966471Y-73701385D01*
X135871233Y-73844242D01*
X135728376Y-73915671D01*
X135490280Y-73915671D01*
X136442661Y-72558528D02*
X136490280Y-72487100D01*
X136585519Y-72415671D01*
X136823614Y-72415671D01*
X136918852Y-72487100D01*
X136966471Y-72558528D01*
X137014090Y-72701385D01*
X137014090Y-72844242D01*
X136966471Y-73058528D01*
X136395042Y-73915671D01*
X137014090Y-73915671D01*
X134252185Y-76415671D02*
X133775995Y-76415671D01*
X133775995Y-74915671D01*
X134585519Y-75629957D02*
X134918852Y-75629957D01*
X135061709Y-76415671D02*
X134585519Y-76415671D01*
X134585519Y-74915671D01*
X135061709Y-74915671D01*
X135490280Y-76415671D02*
X135490280Y-74915671D01*
X135728376Y-74915671D01*
X135871233Y-74987100D01*
X135966471Y-75129957D01*
X136014090Y-75272814D01*
X136061709Y-75558528D01*
X136061709Y-75772814D01*
X136014090Y-76058528D01*
X135966471Y-76201385D01*
X135871233Y-76344242D01*
X135728376Y-76415671D01*
X135490280Y-76415671D01*
X137014090Y-76415671D02*
X136442661Y-76415671D01*
X136728376Y-76415671D02*
X136728376Y-74915671D01*
X136633138Y-75129957D01*
X136537900Y-75272814D01*
X136442661Y-75344242D01*
X133775995Y-78915671D02*
X133775995Y-77415671D01*
X134109328Y-78487100D01*
X134442661Y-77415671D01*
X134442661Y-78915671D01*
X135252185Y-78129957D02*
X134918852Y-78129957D01*
X134918852Y-78915671D02*
X134918852Y-77415671D01*
X135395042Y-77415671D01*
X136109328Y-78129957D02*
X136252185Y-78201385D01*
X136299804Y-78272814D01*
X136347423Y-78415671D01*
X136347423Y-78629957D01*
X136299804Y-78772814D01*
X136252185Y-78844242D01*
X136156947Y-78915671D01*
X135775995Y-78915671D01*
X135775995Y-77415671D01*
X136109328Y-77415671D01*
X136204566Y-77487100D01*
X136252185Y-77558528D01*
X136299804Y-77701385D01*
X136299804Y-77844242D01*
X136252185Y-77987100D01*
X136204566Y-78058528D01*
X136109328Y-78129957D01*
X135775995Y-78129957D01*
X134299804Y-81415671D02*
X133728376Y-81415671D01*
X134014090Y-81415671D02*
X134014090Y-79915671D01*
X133918852Y-80129957D01*
X133823614Y-80272814D01*
X133728376Y-80344242D01*
X134728376Y-81272814D02*
X134775995Y-81344242D01*
X134728376Y-81415671D01*
X134680757Y-81344242D01*
X134728376Y-81272814D01*
X134728376Y-81415671D01*
X135347423Y-80558528D02*
X135252185Y-80487100D01*
X135204566Y-80415671D01*
X135156947Y-80272814D01*
X135156947Y-80201385D01*
X135204566Y-80058528D01*
X135252185Y-79987100D01*
X135347423Y-79915671D01*
X135537900Y-79915671D01*
X135633138Y-79987100D01*
X135680757Y-80058528D01*
X135728376Y-80201385D01*
X135728376Y-80272814D01*
X135680757Y-80415671D01*
X135633138Y-80487100D01*
X135537900Y-80558528D01*
X135347423Y-80558528D01*
X135252185Y-80629957D01*
X135204566Y-80701385D01*
X135156947Y-80844242D01*
X135156947Y-81129957D01*
X135204566Y-81272814D01*
X135252185Y-81344242D01*
X135347423Y-81415671D01*
X135537900Y-81415671D01*
X135633138Y-81344242D01*
X135680757Y-81272814D01*
X135728376Y-81129957D01*
X135728376Y-80844242D01*
X135680757Y-80701385D01*
X135633138Y-80629957D01*
X135537900Y-80558528D01*
X136014090Y-79915671D02*
X136347423Y-81415671D01*
X136680757Y-79915671D01*
X133728376Y-83844242D02*
X133871233Y-83915671D01*
X134109328Y-83915671D01*
X134204566Y-83844242D01*
X134252185Y-83772814D01*
X134299804Y-83629957D01*
X134299804Y-83487100D01*
X134252185Y-83344242D01*
X134204566Y-83272814D01*
X134109328Y-83201385D01*
X133918852Y-83129957D01*
X133823614Y-83058528D01*
X133775995Y-82987100D01*
X133728376Y-82844242D01*
X133728376Y-82701385D01*
X133775995Y-82558528D01*
X133823614Y-82487100D01*
X133918852Y-82415671D01*
X134156947Y-82415671D01*
X134299804Y-82487100D01*
X134728376Y-83915671D02*
X134728376Y-82415671D01*
X135109328Y-82415671D01*
X135204566Y-82487100D01*
X135252185Y-82558528D01*
X135299804Y-82701385D01*
X135299804Y-82915671D01*
X135252185Y-83058528D01*
X135204566Y-83129957D01*
X135109328Y-83201385D01*
X134728376Y-83201385D01*
X135633138Y-82415671D02*
X135871233Y-83915671D01*
X136061709Y-82844242D01*
X136252185Y-83915671D01*
X136490280Y-82415671D01*
X134299804Y-84987100D02*
X134204566Y-84915671D01*
X134061709Y-84915671D01*
X133918852Y-84987100D01*
X133823614Y-85129957D01*
X133775995Y-85272814D01*
X133728376Y-85558528D01*
X133728376Y-85772814D01*
X133775995Y-86058528D01*
X133823614Y-86201385D01*
X133918852Y-86344242D01*
X134061709Y-86415671D01*
X134156947Y-86415671D01*
X134299804Y-86344242D01*
X134347423Y-86272814D01*
X134347423Y-85772814D01*
X134156947Y-85772814D01*
X134775995Y-86415671D02*
X134775995Y-84915671D01*
X135347423Y-86415671D01*
X135347423Y-84915671D01*
X135823614Y-86415671D02*
X135823614Y-84915671D01*
X136061709Y-84915671D01*
X136204566Y-84987100D01*
X136299804Y-85129957D01*
X136347423Y-85272814D01*
X136395042Y-85558528D01*
X136395042Y-85772814D01*
X136347423Y-86058528D01*
X136299804Y-86201385D01*
X136204566Y-86344242D01*
X136061709Y-86415671D01*
X135823614Y-86415671D01*
X153792347Y-85866266D02*
X154268538Y-85866266D01*
X153697109Y-86151980D02*
X154030442Y-85151980D01*
X154363776Y-86151980D01*
X154697109Y-86151980D02*
X154697109Y-85151980D01*
X155649490Y-86151980D02*
X155173300Y-86151980D01*
X155173300Y-85151980D01*
X124831138Y-89862980D02*
X124497804Y-89386790D01*
X124259709Y-89862980D02*
X124259709Y-88862980D01*
X124640661Y-88862980D01*
X124735900Y-88910600D01*
X124783519Y-88958219D01*
X124831138Y-89053457D01*
X124831138Y-89196314D01*
X124783519Y-89291552D01*
X124735900Y-89339171D01*
X124640661Y-89386790D01*
X124259709Y-89386790D01*
X125212090Y-89815361D02*
X125354947Y-89862980D01*
X125593042Y-89862980D01*
X125688280Y-89815361D01*
X125735900Y-89767742D01*
X125783519Y-89672504D01*
X125783519Y-89577266D01*
X125735900Y-89482028D01*
X125688280Y-89434409D01*
X125593042Y-89386790D01*
X125402566Y-89339171D01*
X125307328Y-89291552D01*
X125259709Y-89243933D01*
X125212090Y-89148695D01*
X125212090Y-89053457D01*
X125259709Y-88958219D01*
X125307328Y-88910600D01*
X125402566Y-88862980D01*
X125640661Y-88862980D01*
X125783519Y-88910600D01*
X126069233Y-88862980D02*
X126640661Y-88862980D01*
X126354947Y-89862980D02*
X126354947Y-88862980D01*
X124116852Y-90612980D02*
X124450185Y-91612980D01*
X124783519Y-90612980D01*
X125688280Y-91612980D02*
X125354947Y-91136790D01*
X125116852Y-91612980D02*
X125116852Y-90612980D01*
X125497804Y-90612980D01*
X125593042Y-90660600D01*
X125640661Y-90708219D01*
X125688280Y-90803457D01*
X125688280Y-90946314D01*
X125640661Y-91041552D01*
X125593042Y-91089171D01*
X125497804Y-91136790D01*
X125116852Y-91136790D01*
X126450185Y-91089171D02*
X126116852Y-91089171D01*
X126116852Y-91612980D02*
X126116852Y-90612980D01*
X126593042Y-90612980D01*
X123307328Y-93362980D02*
X123307328Y-92362980D01*
X123688280Y-92362980D01*
X123783519Y-92410600D01*
X123831138Y-92458219D01*
X123878757Y-92553457D01*
X123878757Y-92696314D01*
X123831138Y-92791552D01*
X123783519Y-92839171D01*
X123688280Y-92886790D01*
X123307328Y-92886790D01*
X124497804Y-92362980D02*
X124593042Y-92362980D01*
X124688280Y-92410600D01*
X124735900Y-92458219D01*
X124783519Y-92553457D01*
X124831138Y-92743933D01*
X124831138Y-92982028D01*
X124783519Y-93172504D01*
X124735900Y-93267742D01*
X124688280Y-93315361D01*
X124593042Y-93362980D01*
X124497804Y-93362980D01*
X124402566Y-93315361D01*
X124354947Y-93267742D01*
X124307328Y-93172504D01*
X124259709Y-92982028D01*
X124259709Y-92743933D01*
X124307328Y-92553457D01*
X124354947Y-92458219D01*
X124402566Y-92410600D01*
X124497804Y-92362980D01*
X125021614Y-93458219D02*
X125783519Y-93458219D01*
X126545423Y-93362980D02*
X125973995Y-93362980D01*
X126259709Y-93362980D02*
X126259709Y-92362980D01*
X126164471Y-92505838D01*
X126069233Y-92601076D01*
X125973995Y-92648695D01*
X124328347Y-85866266D02*
X124804538Y-85866266D01*
X124233109Y-86151980D02*
X124566442Y-85151980D01*
X124899776Y-86151980D01*
X125233109Y-86151980D02*
X125233109Y-85151980D01*
X126185490Y-86151980D02*
X125709300Y-86151980D01*
X125709300Y-85151980D01*
X104775119Y-95257880D02*
X104775119Y-94257880D01*
X105441785Y-94257880D02*
X105632261Y-94257880D01*
X105727500Y-94305500D01*
X105822738Y-94400738D01*
X105870357Y-94591214D01*
X105870357Y-94924547D01*
X105822738Y-95115023D01*
X105727500Y-95210261D01*
X105632261Y-95257880D01*
X105441785Y-95257880D01*
X105346547Y-95210261D01*
X105251309Y-95115023D01*
X105203690Y-94924547D01*
X105203690Y-94591214D01*
X105251309Y-94400738D01*
X105346547Y-94305500D01*
X105441785Y-94257880D01*
X106156071Y-94257880D02*
X106489404Y-95257880D01*
X106822738Y-94257880D01*
X114054095Y-62908571D02*
X114054095Y-61408571D01*
X114387428Y-62480000D01*
X114720761Y-61408571D01*
X114720761Y-62908571D01*
X115530285Y-62122857D02*
X115196952Y-62122857D01*
X115196952Y-62908571D02*
X115196952Y-61408571D01*
X115673142Y-61408571D01*
X116387428Y-62122857D02*
X116530285Y-62194285D01*
X116577904Y-62265714D01*
X116625523Y-62408571D01*
X116625523Y-62622857D01*
X116577904Y-62765714D01*
X116530285Y-62837142D01*
X116435047Y-62908571D01*
X116054095Y-62908571D01*
X116054095Y-61408571D01*
X116387428Y-61408571D01*
X116482666Y-61480000D01*
X116530285Y-61551428D01*
X116577904Y-61694285D01*
X116577904Y-61837142D01*
X116530285Y-61980000D01*
X116482666Y-62051428D01*
X116387428Y-62122857D01*
X116054095Y-62122857D01*
X113914419Y-73576571D02*
X113581085Y-72862285D01*
X113342990Y-73576571D02*
X113342990Y-72076571D01*
X113723942Y-72076571D01*
X113819180Y-72148000D01*
X113866800Y-72219428D01*
X113914419Y-72362285D01*
X113914419Y-72576571D01*
X113866800Y-72719428D01*
X113819180Y-72790857D01*
X113723942Y-72862285D01*
X113342990Y-72862285D01*
X114342990Y-72790857D02*
X114676323Y-72790857D01*
X114819180Y-73576571D02*
X114342990Y-73576571D01*
X114342990Y-72076571D01*
X114819180Y-72076571D01*
X115200133Y-73505142D02*
X115342990Y-73576571D01*
X115581085Y-73576571D01*
X115676323Y-73505142D01*
X115723942Y-73433714D01*
X115771561Y-73290857D01*
X115771561Y-73148000D01*
X115723942Y-73005142D01*
X115676323Y-72933714D01*
X115581085Y-72862285D01*
X115390609Y-72790857D01*
X115295371Y-72719428D01*
X115247752Y-72648000D01*
X115200133Y-72505142D01*
X115200133Y-72362285D01*
X115247752Y-72219428D01*
X115295371Y-72148000D01*
X115390609Y-72076571D01*
X115628704Y-72076571D01*
X115771561Y-72148000D01*
X116200133Y-72790857D02*
X116533466Y-72790857D01*
X116676323Y-73576571D02*
X116200133Y-73576571D01*
X116200133Y-72076571D01*
X116676323Y-72076571D01*
X116962038Y-72076571D02*
X117533466Y-72076571D01*
X117247752Y-73576571D02*
X117247752Y-72076571D01*
X122862828Y-51738571D02*
X122862828Y-50238571D01*
X123243780Y-50238571D01*
X123339019Y-50310000D01*
X123386638Y-50381428D01*
X123434257Y-50524285D01*
X123434257Y-50738571D01*
X123386638Y-50881428D01*
X123339019Y-50952857D01*
X123243780Y-51024285D01*
X122862828Y-51024285D01*
X124053304Y-50238571D02*
X124148542Y-50238571D01*
X124243780Y-50310000D01*
X124291400Y-50381428D01*
X124339019Y-50524285D01*
X124386638Y-50810000D01*
X124386638Y-51167142D01*
X124339019Y-51452857D01*
X124291400Y-51595714D01*
X124243780Y-51667142D01*
X124148542Y-51738571D01*
X124053304Y-51738571D01*
X123958066Y-51667142D01*
X123910447Y-51595714D01*
X123862828Y-51452857D01*
X123815209Y-51167142D01*
X123815209Y-50810000D01*
X123862828Y-50524285D01*
X123910447Y-50381428D01*
X123958066Y-50310000D01*
X124053304Y-50238571D01*
X124577114Y-51881428D02*
X125339019Y-51881428D01*
X125767590Y-50238571D02*
X125862828Y-50238571D01*
X125958066Y-50310000D01*
X126005685Y-50381428D01*
X126053304Y-50524285D01*
X126100923Y-50810000D01*
X126100923Y-51167142D01*
X126053304Y-51452857D01*
X126005685Y-51595714D01*
X125958066Y-51667142D01*
X125862828Y-51738571D01*
X125767590Y-51738571D01*
X125672352Y-51667142D01*
X125624733Y-51595714D01*
X125577114Y-51452857D01*
X125529495Y-51167142D01*
X125529495Y-50810000D01*
X125577114Y-50524285D01*
X125624733Y-50381428D01*
X125672352Y-50310000D01*
X125767590Y-50238571D01*
X123719971Y-53452857D02*
X124053304Y-53452857D01*
X124196161Y-54238571D02*
X123719971Y-54238571D01*
X123719971Y-52738571D01*
X124196161Y-52738571D01*
X124577114Y-53810000D02*
X125053304Y-53810000D01*
X124481876Y-54238571D02*
X124815209Y-52738571D01*
X125148542Y-54238571D01*
X125481876Y-54238571D02*
X125481876Y-52738571D01*
X126053304Y-54238571D01*
X126053304Y-52738571D01*
X122862828Y-56738571D02*
X122862828Y-55238571D01*
X123243780Y-55238571D01*
X123339019Y-55310000D01*
X123386638Y-55381428D01*
X123434257Y-55524285D01*
X123434257Y-55738571D01*
X123386638Y-55881428D01*
X123339019Y-55952857D01*
X123243780Y-56024285D01*
X122862828Y-56024285D01*
X123767590Y-55238571D02*
X124386638Y-55238571D01*
X124053304Y-55810000D01*
X124196161Y-55810000D01*
X124291400Y-55881428D01*
X124339019Y-55952857D01*
X124386638Y-56095714D01*
X124386638Y-56452857D01*
X124339019Y-56595714D01*
X124291400Y-56667142D01*
X124196161Y-56738571D01*
X123910447Y-56738571D01*
X123815209Y-56667142D01*
X123767590Y-56595714D01*
X124577114Y-56881428D02*
X125339019Y-56881428D01*
X125767590Y-55238571D02*
X125862828Y-55238571D01*
X125958066Y-55310000D01*
X126005685Y-55381428D01*
X126053304Y-55524285D01*
X126100923Y-55810000D01*
X126100923Y-56167142D01*
X126053304Y-56452857D01*
X126005685Y-56595714D01*
X125958066Y-56667142D01*
X125862828Y-56738571D01*
X125767590Y-56738571D01*
X125672352Y-56667142D01*
X125624733Y-56595714D01*
X125577114Y-56452857D01*
X125529495Y-56167142D01*
X125529495Y-55810000D01*
X125577114Y-55524285D01*
X125624733Y-55381428D01*
X125672352Y-55310000D01*
X125767590Y-55238571D01*
X122862828Y-59238571D02*
X122862828Y-57738571D01*
X123243780Y-57738571D01*
X123339019Y-57810000D01*
X123386638Y-57881428D01*
X123434257Y-58024285D01*
X123434257Y-58238571D01*
X123386638Y-58381428D01*
X123339019Y-58452857D01*
X123243780Y-58524285D01*
X122862828Y-58524285D01*
X123815209Y-57881428D02*
X123862828Y-57810000D01*
X123958066Y-57738571D01*
X124196161Y-57738571D01*
X124291400Y-57810000D01*
X124339019Y-57881428D01*
X124386638Y-58024285D01*
X124386638Y-58167142D01*
X124339019Y-58381428D01*
X123767590Y-59238571D01*
X124386638Y-59238571D01*
X124577114Y-59381428D02*
X125339019Y-59381428D01*
X125767590Y-57738571D02*
X125862828Y-57738571D01*
X125958066Y-57810000D01*
X126005685Y-57881428D01*
X126053304Y-58024285D01*
X126100923Y-58310000D01*
X126100923Y-58667142D01*
X126053304Y-58952857D01*
X126005685Y-59095714D01*
X125958066Y-59167142D01*
X125862828Y-59238571D01*
X125767590Y-59238571D01*
X125672352Y-59167142D01*
X125624733Y-59095714D01*
X125577114Y-58952857D01*
X125529495Y-58667142D01*
X125529495Y-58310000D01*
X125577114Y-58024285D01*
X125624733Y-57881428D01*
X125672352Y-57810000D01*
X125767590Y-57738571D01*
X122862828Y-61738571D02*
X122862828Y-60238571D01*
X123243780Y-60238571D01*
X123339019Y-60310000D01*
X123386638Y-60381428D01*
X123434257Y-60524285D01*
X123434257Y-60738571D01*
X123386638Y-60881428D01*
X123339019Y-60952857D01*
X123243780Y-61024285D01*
X122862828Y-61024285D01*
X124386638Y-61738571D02*
X123815209Y-61738571D01*
X124100923Y-61738571D02*
X124100923Y-60238571D01*
X124005685Y-60452857D01*
X123910447Y-60595714D01*
X123815209Y-60667142D01*
X124577114Y-61881428D02*
X125339019Y-61881428D01*
X126053304Y-60238571D02*
X125577114Y-60238571D01*
X125529495Y-60952857D01*
X125577114Y-60881428D01*
X125672352Y-60810000D01*
X125910447Y-60810000D01*
X126005685Y-60881428D01*
X126053304Y-60952857D01*
X126100923Y-61095714D01*
X126100923Y-61452857D01*
X126053304Y-61595714D01*
X126005685Y-61667142D01*
X125910447Y-61738571D01*
X125672352Y-61738571D01*
X125577114Y-61667142D01*
X125529495Y-61595714D01*
X122862828Y-64238571D02*
X122862828Y-62738571D01*
X123243780Y-62738571D01*
X123339019Y-62810000D01*
X123386638Y-62881428D01*
X123434257Y-63024285D01*
X123434257Y-63238571D01*
X123386638Y-63381428D01*
X123339019Y-63452857D01*
X123243780Y-63524285D01*
X122862828Y-63524285D01*
X124053304Y-62738571D02*
X124148542Y-62738571D01*
X124243780Y-62810000D01*
X124291400Y-62881428D01*
X124339019Y-63024285D01*
X124386638Y-63310000D01*
X124386638Y-63667142D01*
X124339019Y-63952857D01*
X124291400Y-64095714D01*
X124243780Y-64167142D01*
X124148542Y-64238571D01*
X124053304Y-64238571D01*
X123958066Y-64167142D01*
X123910447Y-64095714D01*
X123862828Y-63952857D01*
X123815209Y-63667142D01*
X123815209Y-63310000D01*
X123862828Y-63024285D01*
X123910447Y-62881428D01*
X123958066Y-62810000D01*
X124053304Y-62738571D01*
X124577114Y-64381428D02*
X125339019Y-64381428D01*
X126005685Y-63238571D02*
X126005685Y-64238571D01*
X125767590Y-62667142D02*
X125529495Y-63738571D01*
X126148542Y-63738571D01*
X122529495Y-66667142D02*
X122672352Y-66738571D01*
X122910447Y-66738571D01*
X123005685Y-66667142D01*
X123053304Y-66595714D01*
X123100923Y-66452857D01*
X123100923Y-66310000D01*
X123053304Y-66167142D01*
X123005685Y-66095714D01*
X122910447Y-66024285D01*
X122719971Y-65952857D01*
X122624733Y-65881428D01*
X122577114Y-65810000D01*
X122529495Y-65667142D01*
X122529495Y-65524285D01*
X122577114Y-65381428D01*
X122624733Y-65310000D01*
X122719971Y-65238571D01*
X122958066Y-65238571D01*
X123100923Y-65310000D01*
X123529495Y-66738571D02*
X123529495Y-65238571D01*
X123910447Y-65238571D01*
X124005685Y-65310000D01*
X124053304Y-65381428D01*
X124100923Y-65524285D01*
X124100923Y-65738571D01*
X124053304Y-65881428D01*
X124005685Y-65952857D01*
X123910447Y-66024285D01*
X123529495Y-66024285D01*
X124529495Y-66738571D02*
X124529495Y-65238571D01*
X125100923Y-66738571D02*
X124672352Y-65881428D01*
X125100923Y-65238571D02*
X124529495Y-66095714D01*
X126100923Y-66738571D02*
X125767590Y-66024285D01*
X125529495Y-66738571D02*
X125529495Y-65238571D01*
X125910447Y-65238571D01*
X126005685Y-65310000D01*
X126053304Y-65381428D01*
X126100923Y-65524285D01*
X126100923Y-65738571D01*
X126053304Y-65881428D01*
X126005685Y-65952857D01*
X125910447Y-66024285D01*
X125529495Y-66024285D01*
X121386638Y-68810000D02*
X121862828Y-68810000D01*
X121291400Y-69238571D02*
X121624733Y-67738571D01*
X121958066Y-69238571D01*
X122481876Y-67738571D02*
X122672352Y-67738571D01*
X122767590Y-67810000D01*
X122862828Y-67952857D01*
X122910447Y-68238571D01*
X122910447Y-68738571D01*
X122862828Y-69024285D01*
X122767590Y-69167142D01*
X122672352Y-69238571D01*
X122481876Y-69238571D01*
X122386638Y-69167142D01*
X122291400Y-69024285D01*
X122243780Y-68738571D01*
X122243780Y-68238571D01*
X122291400Y-67952857D01*
X122386638Y-67810000D01*
X122481876Y-67738571D01*
X123339019Y-69238571D02*
X123339019Y-67738571D01*
X123339019Y-68452857D02*
X123910447Y-68452857D01*
X123910447Y-69238571D02*
X123910447Y-67738571D01*
X124386638Y-69238571D02*
X124386638Y-67738571D01*
X124767590Y-67738571D01*
X124862828Y-67810000D01*
X124910447Y-67881428D01*
X124958066Y-68024285D01*
X124958066Y-68238571D01*
X124910447Y-68381428D01*
X124862828Y-68452857D01*
X124767590Y-68524285D01*
X124386638Y-68524285D01*
X125386638Y-69238571D02*
X125386638Y-67738571D01*
X125719971Y-68810000D01*
X126053304Y-67738571D01*
X126053304Y-69238571D01*
X122719971Y-71667142D02*
X122862828Y-71738571D01*
X123100923Y-71738571D01*
X123196161Y-71667142D01*
X123243780Y-71595714D01*
X123291400Y-71452857D01*
X123291400Y-71310000D01*
X123243780Y-71167142D01*
X123196161Y-71095714D01*
X123100923Y-71024285D01*
X122910447Y-70952857D01*
X122815209Y-70881428D01*
X122767590Y-70810000D01*
X122719971Y-70667142D01*
X122719971Y-70524285D01*
X122767590Y-70381428D01*
X122815209Y-70310000D01*
X122910447Y-70238571D01*
X123148542Y-70238571D01*
X123291400Y-70310000D01*
X123719971Y-71738571D02*
X123719971Y-70238571D01*
X124100923Y-70238571D01*
X124196161Y-70310000D01*
X124243780Y-70381428D01*
X124291400Y-70524285D01*
X124291400Y-70738571D01*
X124243780Y-70881428D01*
X124196161Y-70952857D01*
X124100923Y-71024285D01*
X123719971Y-71024285D01*
X124719971Y-71738571D02*
X124719971Y-70238571D01*
X125291400Y-71738571D02*
X124862828Y-70881428D01*
X125291400Y-70238571D02*
X124719971Y-71095714D01*
X126196161Y-71738571D02*
X125719971Y-71738571D01*
X125719971Y-70238571D01*
X122672352Y-72738571D02*
X123005685Y-74238571D01*
X123339019Y-72738571D01*
X123672352Y-74238571D02*
X123672352Y-72738571D01*
X123910447Y-72738571D01*
X124053304Y-72810000D01*
X124148542Y-72952857D01*
X124196161Y-73095714D01*
X124243780Y-73381428D01*
X124243780Y-73595714D01*
X124196161Y-73881428D01*
X124148542Y-74024285D01*
X124053304Y-74167142D01*
X123910447Y-74238571D01*
X123672352Y-74238571D01*
X124672352Y-74238571D02*
X124672352Y-72738571D01*
X124910447Y-72738571D01*
X125053304Y-72810000D01*
X125148542Y-72952857D01*
X125196161Y-73095714D01*
X125243780Y-73381428D01*
X125243780Y-73595714D01*
X125196161Y-73881428D01*
X125148542Y-74024285D01*
X125053304Y-74167142D01*
X124910447Y-74238571D01*
X124672352Y-74238571D01*
X125624733Y-73810000D02*
X126100923Y-73810000D01*
X125529495Y-74238571D02*
X125862828Y-72738571D01*
X126196161Y-74238571D01*
X125529495Y-76738571D02*
X125529495Y-75238571D01*
X125910447Y-75238571D01*
X126005685Y-75310000D01*
X126053304Y-75381428D01*
X126100923Y-75524285D01*
X126100923Y-75738571D01*
X126053304Y-75881428D01*
X126005685Y-75952857D01*
X125910447Y-76024285D01*
X125529495Y-76024285D01*
X125481876Y-79238571D02*
X125481876Y-77738571D01*
X126053304Y-79238571D01*
X126053304Y-77738571D01*
X123577114Y-80952857D02*
X123719971Y-81024285D01*
X123767590Y-81095714D01*
X123815209Y-81238571D01*
X123815209Y-81452857D01*
X123767590Y-81595714D01*
X123719971Y-81667142D01*
X123624733Y-81738571D01*
X123243780Y-81738571D01*
X123243780Y-80238571D01*
X123577114Y-80238571D01*
X123672352Y-80310000D01*
X123719971Y-80381428D01*
X123767590Y-80524285D01*
X123767590Y-80667142D01*
X123719971Y-80810000D01*
X123672352Y-80881428D01*
X123577114Y-80952857D01*
X123243780Y-80952857D01*
X124243780Y-81738571D02*
X124243780Y-80238571D01*
X124672352Y-81310000D02*
X125148542Y-81310000D01*
X124577114Y-81738571D02*
X124910447Y-80238571D01*
X125243780Y-81738571D01*
X125529495Y-81667142D02*
X125672352Y-81738571D01*
X125910447Y-81738571D01*
X126005685Y-81667142D01*
X126053304Y-81595714D01*
X126100923Y-81452857D01*
X126100923Y-81310000D01*
X126053304Y-81167142D01*
X126005685Y-81095714D01*
X125910447Y-81024285D01*
X125719971Y-80952857D01*
X125624733Y-80881428D01*
X125577114Y-80810000D01*
X125529495Y-80667142D01*
X125529495Y-80524285D01*
X125577114Y-80381428D01*
X125624733Y-80310000D01*
X125719971Y-80238571D01*
X125958066Y-80238571D01*
X126100923Y-80310000D01*
X124148542Y-83810000D02*
X124624733Y-83810000D01*
X124053304Y-84238571D02*
X124386638Y-82738571D01*
X124719971Y-84238571D01*
X125053304Y-84238571D02*
X125053304Y-82738571D01*
X126100923Y-84238571D02*
X125767590Y-83524285D01*
X125529495Y-84238571D02*
X125529495Y-82738571D01*
X125910447Y-82738571D01*
X126005685Y-82810000D01*
X126053304Y-82881428D01*
X126100923Y-83024285D01*
X126100923Y-83238571D01*
X126053304Y-83381428D01*
X126005685Y-83452857D01*
X125910447Y-83524285D01*
X125529495Y-83524285D01*
X104632628Y-88575871D02*
X104775485Y-88623490D01*
X104823104Y-88671109D01*
X104870723Y-88766347D01*
X104870723Y-88909204D01*
X104823104Y-89004442D01*
X104775485Y-89052061D01*
X104680247Y-89099680D01*
X104299295Y-89099680D01*
X104299295Y-88099680D01*
X104632628Y-88099680D01*
X104727866Y-88147300D01*
X104775485Y-88194919D01*
X104823104Y-88290157D01*
X104823104Y-88385395D01*
X104775485Y-88480633D01*
X104727866Y-88528252D01*
X104632628Y-88575871D01*
X104299295Y-88575871D01*
X105251676Y-88813966D02*
X105727866Y-88813966D01*
X105156438Y-89099680D02*
X105489771Y-88099680D01*
X105823104Y-89099680D01*
X106013580Y-88099680D02*
X106585009Y-88099680D01*
X106299295Y-89099680D02*
X106299295Y-88099680D01*
X104251676Y-90563966D02*
X104727866Y-90563966D01*
X104156438Y-90849680D02*
X104489771Y-89849680D01*
X104823104Y-90849680D01*
X105156438Y-90849680D02*
X105156438Y-89849680D01*
X105394533Y-89849680D01*
X105537390Y-89897300D01*
X105632628Y-89992538D01*
X105680247Y-90087776D01*
X105727866Y-90278252D01*
X105727866Y-90421109D01*
X105680247Y-90611585D01*
X105632628Y-90706823D01*
X105537390Y-90802061D01*
X105394533Y-90849680D01*
X105156438Y-90849680D01*
X106108819Y-90563966D02*
X106585009Y-90563966D01*
X106013580Y-90849680D02*
X106346914Y-89849680D01*
X106680247Y-90849680D01*
X107013580Y-90849680D02*
X107013580Y-89849680D01*
X107394533Y-89849680D01*
X107489771Y-89897300D01*
X107537390Y-89944919D01*
X107585009Y-90040157D01*
X107585009Y-90183014D01*
X107537390Y-90278252D01*
X107489771Y-90325871D01*
X107394533Y-90373490D01*
X107013580Y-90373490D01*
X104835804Y-49987100D02*
X104740566Y-49915671D01*
X104597709Y-49915671D01*
X104454852Y-49987100D01*
X104359614Y-50129957D01*
X104311995Y-50272814D01*
X104264376Y-50558528D01*
X104264376Y-50772814D01*
X104311995Y-51058528D01*
X104359614Y-51201385D01*
X104454852Y-51344242D01*
X104597709Y-51415671D01*
X104692947Y-51415671D01*
X104835804Y-51344242D01*
X104883423Y-51272814D01*
X104883423Y-50772814D01*
X104692947Y-50772814D01*
X105311995Y-51415671D02*
X105311995Y-49915671D01*
X105883423Y-51415671D01*
X105883423Y-49915671D01*
X106359614Y-51415671D02*
X106359614Y-49915671D01*
X106597709Y-49915671D01*
X106740566Y-49987100D01*
X106835804Y-50129957D01*
X106883423Y-50272814D01*
X106931042Y-50558528D01*
X106931042Y-50772814D01*
X106883423Y-51058528D01*
X106835804Y-51201385D01*
X106740566Y-51344242D01*
X106597709Y-51415671D01*
X106359614Y-51415671D01*
X104311995Y-53915671D02*
X104311995Y-52415671D01*
X104692947Y-52415671D01*
X104788185Y-52487100D01*
X104835804Y-52558528D01*
X104883423Y-52701385D01*
X104883423Y-52915671D01*
X104835804Y-53058528D01*
X104788185Y-53129957D01*
X104692947Y-53201385D01*
X104311995Y-53201385D01*
X105264376Y-52558528D02*
X105311995Y-52487100D01*
X105407233Y-52415671D01*
X105645328Y-52415671D01*
X105740566Y-52487100D01*
X105788185Y-52558528D01*
X105835804Y-52701385D01*
X105835804Y-52844242D01*
X105788185Y-53058528D01*
X105216757Y-53915671D01*
X105835804Y-53915671D01*
X106026280Y-54058528D02*
X106788185Y-54058528D01*
X107454852Y-52915671D02*
X107454852Y-53915671D01*
X107216757Y-52344242D02*
X106978661Y-53415671D01*
X107597709Y-53415671D01*
X104311995Y-56415671D02*
X104311995Y-54915671D01*
X104692947Y-54915671D01*
X104788185Y-54987100D01*
X104835804Y-55058528D01*
X104883423Y-55201385D01*
X104883423Y-55415671D01*
X104835804Y-55558528D01*
X104788185Y-55629957D01*
X104692947Y-55701385D01*
X104311995Y-55701385D01*
X105264376Y-55058528D02*
X105311995Y-54987100D01*
X105407233Y-54915671D01*
X105645328Y-54915671D01*
X105740566Y-54987100D01*
X105788185Y-55058528D01*
X105835804Y-55201385D01*
X105835804Y-55344242D01*
X105788185Y-55558528D01*
X105216757Y-56415671D01*
X105835804Y-56415671D01*
X106026280Y-56558528D02*
X106788185Y-56558528D01*
X106931042Y-54915671D02*
X107597709Y-54915671D01*
X107169138Y-56415671D01*
X104311995Y-58915671D02*
X104311995Y-57415671D01*
X104692947Y-57415671D01*
X104788185Y-57487100D01*
X104835804Y-57558528D01*
X104883423Y-57701385D01*
X104883423Y-57915671D01*
X104835804Y-58058528D01*
X104788185Y-58129957D01*
X104692947Y-58201385D01*
X104311995Y-58201385D01*
X105502471Y-57415671D02*
X105597709Y-57415671D01*
X105692947Y-57487100D01*
X105740566Y-57558528D01*
X105788185Y-57701385D01*
X105835804Y-57987100D01*
X105835804Y-58344242D01*
X105788185Y-58629957D01*
X105740566Y-58772814D01*
X105692947Y-58844242D01*
X105597709Y-58915671D01*
X105502471Y-58915671D01*
X105407233Y-58844242D01*
X105359614Y-58772814D01*
X105311995Y-58629957D01*
X105264376Y-58344242D01*
X105264376Y-57987100D01*
X105311995Y-57701385D01*
X105359614Y-57558528D01*
X105407233Y-57487100D01*
X105502471Y-57415671D01*
X106026280Y-59058528D02*
X106788185Y-59058528D01*
X107502471Y-57415671D02*
X107026280Y-57415671D01*
X106978661Y-58129957D01*
X107026280Y-58058528D01*
X107121519Y-57987100D01*
X107359614Y-57987100D01*
X107454852Y-58058528D01*
X107502471Y-58129957D01*
X107550090Y-58272814D01*
X107550090Y-58629957D01*
X107502471Y-58772814D01*
X107454852Y-58844242D01*
X107359614Y-58915671D01*
X107121519Y-58915671D01*
X107026280Y-58844242D01*
X106978661Y-58772814D01*
X104883423Y-61415671D02*
X104550090Y-60701385D01*
X104311995Y-61415671D02*
X104311995Y-59915671D01*
X104692947Y-59915671D01*
X104788185Y-59987100D01*
X104835804Y-60058528D01*
X104883423Y-60201385D01*
X104883423Y-60415671D01*
X104835804Y-60558528D01*
X104788185Y-60629957D01*
X104692947Y-60701385D01*
X104311995Y-60701385D01*
X105216757Y-59915671D02*
X105883423Y-61415671D01*
X105883423Y-59915671D02*
X105216757Y-61415671D01*
X106264376Y-61415671D02*
X106264376Y-59915671D01*
X106502471Y-59915671D01*
X106645328Y-59987100D01*
X106740566Y-60129957D01*
X106788185Y-60272814D01*
X106835804Y-60558528D01*
X106835804Y-60772814D01*
X106788185Y-61058528D01*
X106740566Y-61201385D01*
X106645328Y-61344242D01*
X106502471Y-61415671D01*
X106264376Y-61415671D01*
X104169138Y-62415671D02*
X104740566Y-62415671D01*
X104454852Y-63915671D02*
X104454852Y-62415671D01*
X104978661Y-62415671D02*
X105645328Y-63915671D01*
X105645328Y-62415671D02*
X104978661Y-63915671D01*
X106026280Y-63915671D02*
X106026280Y-62415671D01*
X106264376Y-62415671D01*
X106407233Y-62487100D01*
X106502471Y-62629957D01*
X106550090Y-62772814D01*
X106597709Y-63058528D01*
X106597709Y-63272814D01*
X106550090Y-63558528D01*
X106502471Y-63701385D01*
X106407233Y-63844242D01*
X106264376Y-63915671D01*
X106026280Y-63915671D01*
X104311995Y-66415671D02*
X104311995Y-64915671D01*
X104692947Y-64915671D01*
X104788185Y-64987100D01*
X104835804Y-65058528D01*
X104883423Y-65201385D01*
X104883423Y-65415671D01*
X104835804Y-65558528D01*
X104788185Y-65629957D01*
X104692947Y-65701385D01*
X104311995Y-65701385D01*
X105502471Y-64915671D02*
X105597709Y-64915671D01*
X105692947Y-64987100D01*
X105740566Y-65058528D01*
X105788185Y-65201385D01*
X105835804Y-65487100D01*
X105835804Y-65844242D01*
X105788185Y-66129957D01*
X105740566Y-66272814D01*
X105692947Y-66344242D01*
X105597709Y-66415671D01*
X105502471Y-66415671D01*
X105407233Y-66344242D01*
X105359614Y-66272814D01*
X105311995Y-66129957D01*
X105264376Y-65844242D01*
X105264376Y-65487100D01*
X105311995Y-65201385D01*
X105359614Y-65058528D01*
X105407233Y-64987100D01*
X105502471Y-64915671D01*
X106026280Y-66558528D02*
X106788185Y-66558528D01*
X106931042Y-64915671D02*
X107550090Y-64915671D01*
X107216757Y-65487100D01*
X107359614Y-65487100D01*
X107454852Y-65558528D01*
X107502471Y-65629957D01*
X107550090Y-65772814D01*
X107550090Y-66129957D01*
X107502471Y-66272814D01*
X107454852Y-66344242D01*
X107359614Y-66415671D01*
X107073900Y-66415671D01*
X106978661Y-66344242D01*
X106931042Y-66272814D01*
X104311995Y-68915671D02*
X104311995Y-67415671D01*
X104692947Y-67415671D01*
X104788185Y-67487100D01*
X104835804Y-67558528D01*
X104883423Y-67701385D01*
X104883423Y-67915671D01*
X104835804Y-68058528D01*
X104788185Y-68129957D01*
X104692947Y-68201385D01*
X104311995Y-68201385D01*
X105502471Y-67415671D02*
X105597709Y-67415671D01*
X105692947Y-67487100D01*
X105740566Y-67558528D01*
X105788185Y-67701385D01*
X105835804Y-67987100D01*
X105835804Y-68344242D01*
X105788185Y-68629957D01*
X105740566Y-68772814D01*
X105692947Y-68844242D01*
X105597709Y-68915671D01*
X105502471Y-68915671D01*
X105407233Y-68844242D01*
X105359614Y-68772814D01*
X105311995Y-68629957D01*
X105264376Y-68344242D01*
X105264376Y-67987100D01*
X105311995Y-67701385D01*
X105359614Y-67558528D01*
X105407233Y-67487100D01*
X105502471Y-67415671D01*
X106026280Y-69058528D02*
X106788185Y-69058528D01*
X106978661Y-67558528D02*
X107026280Y-67487100D01*
X107121519Y-67415671D01*
X107359614Y-67415671D01*
X107454852Y-67487100D01*
X107502471Y-67558528D01*
X107550090Y-67701385D01*
X107550090Y-67844242D01*
X107502471Y-68058528D01*
X106931042Y-68915671D01*
X107550090Y-68915671D01*
X104311995Y-71415671D02*
X104311995Y-69915671D01*
X104692947Y-69915671D01*
X104788185Y-69987100D01*
X104835804Y-70058528D01*
X104883423Y-70201385D01*
X104883423Y-70415671D01*
X104835804Y-70558528D01*
X104788185Y-70629957D01*
X104692947Y-70701385D01*
X104311995Y-70701385D01*
X105264376Y-70058528D02*
X105311995Y-69987100D01*
X105407233Y-69915671D01*
X105645328Y-69915671D01*
X105740566Y-69987100D01*
X105788185Y-70058528D01*
X105835804Y-70201385D01*
X105835804Y-70344242D01*
X105788185Y-70558528D01*
X105216757Y-71415671D01*
X105835804Y-71415671D01*
X106026280Y-71558528D02*
X106788185Y-71558528D01*
X107454852Y-70415671D02*
X107454852Y-71415671D01*
X107216757Y-69844242D02*
X106978661Y-70915671D01*
X107597709Y-70915671D01*
X104788185Y-73915671D02*
X104311995Y-73915671D01*
X104311995Y-72415671D01*
X105121519Y-73129957D02*
X105454852Y-73129957D01*
X105597709Y-73915671D02*
X105121519Y-73915671D01*
X105121519Y-72415671D01*
X105597709Y-72415671D01*
X106026280Y-73915671D02*
X106026280Y-72415671D01*
X106264376Y-72415671D01*
X106407233Y-72487100D01*
X106502471Y-72629957D01*
X106550090Y-72772814D01*
X106597709Y-73058528D01*
X106597709Y-73272814D01*
X106550090Y-73558528D01*
X106502471Y-73701385D01*
X106407233Y-73844242D01*
X106264376Y-73915671D01*
X106026280Y-73915671D01*
X106978661Y-72558528D02*
X107026280Y-72487100D01*
X107121519Y-72415671D01*
X107359614Y-72415671D01*
X107454852Y-72487100D01*
X107502471Y-72558528D01*
X107550090Y-72701385D01*
X107550090Y-72844242D01*
X107502471Y-73058528D01*
X106931042Y-73915671D01*
X107550090Y-73915671D01*
X104788185Y-76415671D02*
X104311995Y-76415671D01*
X104311995Y-74915671D01*
X105121519Y-75629957D02*
X105454852Y-75629957D01*
X105597709Y-76415671D02*
X105121519Y-76415671D01*
X105121519Y-74915671D01*
X105597709Y-74915671D01*
X106026280Y-76415671D02*
X106026280Y-74915671D01*
X106264376Y-74915671D01*
X106407233Y-74987100D01*
X106502471Y-75129957D01*
X106550090Y-75272814D01*
X106597709Y-75558528D01*
X106597709Y-75772814D01*
X106550090Y-76058528D01*
X106502471Y-76201385D01*
X106407233Y-76344242D01*
X106264376Y-76415671D01*
X106026280Y-76415671D01*
X107550090Y-76415671D02*
X106978661Y-76415671D01*
X107264376Y-76415671D02*
X107264376Y-74915671D01*
X107169138Y-75129957D01*
X107073900Y-75272814D01*
X106978661Y-75344242D01*
X104311995Y-78915671D02*
X104311995Y-77415671D01*
X104645328Y-78487100D01*
X104978661Y-77415671D01*
X104978661Y-78915671D01*
X105788185Y-78129957D02*
X105454852Y-78129957D01*
X105454852Y-78915671D02*
X105454852Y-77415671D01*
X105931042Y-77415671D01*
X106645328Y-78129957D02*
X106788185Y-78201385D01*
X106835804Y-78272814D01*
X106883423Y-78415671D01*
X106883423Y-78629957D01*
X106835804Y-78772814D01*
X106788185Y-78844242D01*
X106692947Y-78915671D01*
X106311995Y-78915671D01*
X106311995Y-77415671D01*
X106645328Y-77415671D01*
X106740566Y-77487100D01*
X106788185Y-77558528D01*
X106835804Y-77701385D01*
X106835804Y-77844242D01*
X106788185Y-77987100D01*
X106740566Y-78058528D01*
X106645328Y-78129957D01*
X106311995Y-78129957D01*
X104835804Y-81415671D02*
X104264376Y-81415671D01*
X104550090Y-81415671D02*
X104550090Y-79915671D01*
X104454852Y-80129957D01*
X104359614Y-80272814D01*
X104264376Y-80344242D01*
X105264376Y-81272814D02*
X105311995Y-81344242D01*
X105264376Y-81415671D01*
X105216757Y-81344242D01*
X105264376Y-81272814D01*
X105264376Y-81415671D01*
X105883423Y-80558528D02*
X105788185Y-80487100D01*
X105740566Y-80415671D01*
X105692947Y-80272814D01*
X105692947Y-80201385D01*
X105740566Y-80058528D01*
X105788185Y-79987100D01*
X105883423Y-79915671D01*
X106073900Y-79915671D01*
X106169138Y-79987100D01*
X106216757Y-80058528D01*
X106264376Y-80201385D01*
X106264376Y-80272814D01*
X106216757Y-80415671D01*
X106169138Y-80487100D01*
X106073900Y-80558528D01*
X105883423Y-80558528D01*
X105788185Y-80629957D01*
X105740566Y-80701385D01*
X105692947Y-80844242D01*
X105692947Y-81129957D01*
X105740566Y-81272814D01*
X105788185Y-81344242D01*
X105883423Y-81415671D01*
X106073900Y-81415671D01*
X106169138Y-81344242D01*
X106216757Y-81272814D01*
X106264376Y-81129957D01*
X106264376Y-80844242D01*
X106216757Y-80701385D01*
X106169138Y-80629957D01*
X106073900Y-80558528D01*
X106550090Y-79915671D02*
X106883423Y-81415671D01*
X107216757Y-79915671D01*
X104264376Y-83844242D02*
X104407233Y-83915671D01*
X104645328Y-83915671D01*
X104740566Y-83844242D01*
X104788185Y-83772814D01*
X104835804Y-83629957D01*
X104835804Y-83487100D01*
X104788185Y-83344242D01*
X104740566Y-83272814D01*
X104645328Y-83201385D01*
X104454852Y-83129957D01*
X104359614Y-83058528D01*
X104311995Y-82987100D01*
X104264376Y-82844242D01*
X104264376Y-82701385D01*
X104311995Y-82558528D01*
X104359614Y-82487100D01*
X104454852Y-82415671D01*
X104692947Y-82415671D01*
X104835804Y-82487100D01*
X105264376Y-83915671D02*
X105264376Y-82415671D01*
X105645328Y-82415671D01*
X105740566Y-82487100D01*
X105788185Y-82558528D01*
X105835804Y-82701385D01*
X105835804Y-82915671D01*
X105788185Y-83058528D01*
X105740566Y-83129957D01*
X105645328Y-83201385D01*
X105264376Y-83201385D01*
X106169138Y-82415671D02*
X106407233Y-83915671D01*
X106597709Y-82844242D01*
X106788185Y-83915671D01*
X107026280Y-82415671D01*
X104835804Y-84987100D02*
X104740566Y-84915671D01*
X104597709Y-84915671D01*
X104454852Y-84987100D01*
X104359614Y-85129957D01*
X104311995Y-85272814D01*
X104264376Y-85558528D01*
X104264376Y-85772814D01*
X104311995Y-86058528D01*
X104359614Y-86201385D01*
X104454852Y-86344242D01*
X104597709Y-86415671D01*
X104692947Y-86415671D01*
X104835804Y-86344242D01*
X104883423Y-86272814D01*
X104883423Y-85772814D01*
X104692947Y-85772814D01*
X105311995Y-86415671D02*
X105311995Y-84915671D01*
X105883423Y-86415671D01*
X105883423Y-84915671D01*
X106359614Y-86415671D02*
X106359614Y-84915671D01*
X106597709Y-84915671D01*
X106740566Y-84987100D01*
X106835804Y-85129957D01*
X106883423Y-85272814D01*
X106931042Y-85558528D01*
X106931042Y-85772814D01*
X106883423Y-86058528D01*
X106835804Y-86201385D01*
X106740566Y-86344242D01*
X106597709Y-86415671D01*
X106359614Y-86415671D01*
D11*
X110045500Y-127538100D02*
X109545500Y-127038100D01*
X110045500Y-126538100D02*
X110045500Y-127538100D01*
X109545500Y-127038100D02*
X110045500Y-126538100D01*
X110045500Y-127038100D02*
X110545500Y-127038100D01*
X109545500Y-126538100D02*
X109545500Y-127538100D01*
X109845500Y-127088100D02*
X109795500Y-127038100D01*
X109845500Y-126838100D02*
X109845500Y-127088100D01*
X109645500Y-127038100D02*
X109845500Y-126838100D01*
X109945500Y-127338100D02*
X109645500Y-127038100D01*
X109945500Y-126738100D02*
X109945500Y-127338100D01*
X107895500Y-125988100D02*
X111495500Y-125988100D01*
X107895500Y-128088100D02*
X111495500Y-128088100D01*
X114025310Y-112479780D02*
X116525310Y-112479780D01*
X116525310Y-112479780D02*
X116525310Y-113579780D01*
X116525310Y-113579780D02*
X114025310Y-113579780D01*
X114025310Y-113579780D02*
X114025310Y-112479780D01*
X113775310Y-113829780D02*
X116775310Y-113829780D01*
X113775310Y-112229780D02*
X116775310Y-112229780D01*
X116775310Y-112229780D02*
X116775310Y-113829780D01*
X113775310Y-112229780D02*
X113775310Y-113829780D01*
X112275310Y-114779780D02*
X118275310Y-114779780D01*
X112275310Y-111279780D02*
X118275310Y-111279780D01*
X112275310Y-111279780D02*
X112275310Y-114779780D01*
X118275310Y-111279780D02*
X118275310Y-114779780D01*
X113083600Y-140986000D02*
X113083600Y-135986000D01*
X113083600Y-132886000D02*
X113083600Y-133986000D01*
X107083600Y-132886000D02*
X113083600Y-132886000D01*
X107083600Y-138986000D02*
X107083600Y-132886000D01*
X117497600Y-138986000D02*
X117497600Y-132886000D01*
X117497600Y-132886000D02*
X123497600Y-132886000D01*
X123497600Y-132886000D02*
X123497600Y-133986000D01*
X123497600Y-140986000D02*
X123497600Y-135986000D01*
X114716000Y-116828600D02*
X115916000Y-116828600D01*
X115916000Y-118578600D02*
X114716000Y-118578600D01*
X120517920Y-106598720D02*
X122915680Y-106598720D01*
X119918480Y-107802680D02*
X119918480Y-106603800D01*
X119418100Y-107203240D02*
X120517920Y-107203240D01*
X120517920Y-100002340D02*
X120517920Y-105204260D01*
X122915680Y-105204260D02*
X122915680Y-100002340D01*
X108211620Y-106738420D02*
X110609380Y-106738420D01*
X107612180Y-107942380D02*
X107612180Y-106743500D01*
X107111800Y-107342940D02*
X108211620Y-107342940D01*
X108211620Y-100142040D02*
X108211620Y-105343960D01*
X110609380Y-105343960D02*
X110609380Y-100142040D01*
X126466000Y-96494000D02*
X129566000Y-96494000D01*
X126466000Y-98044000D02*
X126466000Y-96494000D01*
X129286000Y-99314000D02*
X126746000Y-99314000D01*
X129566000Y-96494000D02*
X129566000Y-98044000D01*
X126746000Y-142494000D02*
X126746000Y-99314000D01*
X129286000Y-142494000D02*
X126746000Y-142494000D01*
X129286000Y-99314000D02*
X129286000Y-142494000D01*
X122685700Y-126013500D02*
X119085700Y-126013500D01*
X122685700Y-128113500D02*
X119085700Y-128113500D01*
X120635700Y-127363500D02*
X120635700Y-126763500D01*
X120635700Y-126763500D02*
X120935700Y-127063500D01*
X120935700Y-127063500D02*
X120735700Y-127263500D01*
X120735700Y-127263500D02*
X120735700Y-127013500D01*
X120735700Y-127013500D02*
X120785700Y-127063500D01*
X121035700Y-127563500D02*
X121035700Y-126563500D01*
X120535700Y-127063500D02*
X120035700Y-127063500D01*
X121035700Y-127063500D02*
X120535700Y-127563500D01*
X120535700Y-127563500D02*
X120535700Y-126563500D01*
X120535700Y-126563500D02*
X121035700Y-127063500D01*
X118521480Y-105242360D02*
X118521480Y-100040440D01*
X116123720Y-100040440D02*
X116123720Y-105242360D01*
X115023900Y-107241340D02*
X116123720Y-107241340D01*
X115524280Y-107840780D02*
X115524280Y-106641900D01*
X116123720Y-106636820D02*
X118521480Y-106636820D01*
X112407490Y-125194220D02*
X112407490Y-121694220D01*
X118407490Y-125194220D02*
X118407490Y-121694220D01*
X118407490Y-125194220D02*
X112407490Y-125194220D01*
X118407490Y-121694220D02*
X112407490Y-121694220D01*
X116907490Y-124244220D02*
X116907490Y-122644220D01*
X113907490Y-124244220D02*
X113907490Y-122644220D01*
X116907490Y-124244220D02*
X113907490Y-124244220D01*
X116907490Y-122644220D02*
X113907490Y-122644220D01*
X116657490Y-122894220D02*
X116657490Y-123994220D01*
X114157490Y-122894220D02*
X116657490Y-122894220D01*
X114157490Y-123994220D02*
X114157490Y-122894220D01*
X116657490Y-123994220D02*
X114157490Y-123994220D01*
X117614700Y-131940300D02*
X117614700Y-129400300D01*
X115074700Y-131940300D02*
X117614700Y-131940300D01*
X112254700Y-132220300D02*
X112254700Y-129120300D01*
X113804700Y-132220300D02*
X112254700Y-132220300D01*
X115074700Y-129400300D02*
X115074700Y-131940300D01*
X112254700Y-129120300D02*
X113804700Y-129120300D01*
X115074700Y-129400300D02*
X117614700Y-129400300D01*
X112351820Y-106738420D02*
X114749580Y-106738420D01*
X111752380Y-107942380D02*
X111752380Y-106743500D01*
X111252000Y-107342940D02*
X112351820Y-107342940D01*
X112351820Y-100142040D02*
X112351820Y-105343960D01*
X114749580Y-105343960D02*
X114749580Y-100142040D01*
X101346000Y-139954000D02*
X101346000Y-96774000D01*
X101346000Y-96774000D02*
X103886000Y-96774000D01*
X103886000Y-96774000D02*
X103886000Y-139954000D01*
X101066000Y-142774000D02*
X101066000Y-141224000D01*
X101346000Y-139954000D02*
X103886000Y-139954000D01*
X104166000Y-141224000D02*
X104166000Y-142774000D01*
X104166000Y-142774000D02*
X101066000Y-142774000D01*
X139509500Y-127538100D02*
X139009500Y-127038100D01*
X139509500Y-126538100D02*
X139509500Y-127538100D01*
X139009500Y-127038100D02*
X139509500Y-126538100D01*
X139509500Y-127038100D02*
X140009500Y-127038100D01*
X139009500Y-126538100D02*
X139009500Y-127538100D01*
X139309500Y-127088100D02*
X139259500Y-127038100D01*
X139309500Y-126838100D02*
X139309500Y-127088100D01*
X139109500Y-127038100D02*
X139309500Y-126838100D01*
X139409500Y-127338100D02*
X139109500Y-127038100D01*
X139409500Y-126738100D02*
X139409500Y-127338100D01*
X137359500Y-125988100D02*
X140959500Y-125988100D01*
X137359500Y-128088100D02*
X140959500Y-128088100D01*
X143489310Y-112479780D02*
X145989310Y-112479780D01*
X145989310Y-112479780D02*
X145989310Y-113579780D01*
X145989310Y-113579780D02*
X143489310Y-113579780D01*
X143489310Y-113579780D02*
X143489310Y-112479780D01*
X143239310Y-113829780D02*
X146239310Y-113829780D01*
X143239310Y-112229780D02*
X146239310Y-112229780D01*
X146239310Y-112229780D02*
X146239310Y-113829780D01*
X143239310Y-112229780D02*
X143239310Y-113829780D01*
X141739310Y-114779780D02*
X147739310Y-114779780D01*
X141739310Y-111279780D02*
X147739310Y-111279780D01*
X141739310Y-111279780D02*
X141739310Y-114779780D01*
X147739310Y-111279780D02*
X147739310Y-114779780D01*
X142547600Y-140986000D02*
X142547600Y-135986000D01*
X142547600Y-132886000D02*
X142547600Y-133986000D01*
X136547600Y-132886000D02*
X142547600Y-132886000D01*
X136547600Y-138986000D02*
X136547600Y-132886000D01*
X146961600Y-138986000D02*
X146961600Y-132886000D01*
X146961600Y-132886000D02*
X152961600Y-132886000D01*
X152961600Y-132886000D02*
X152961600Y-133986000D01*
X152961600Y-140986000D02*
X152961600Y-135986000D01*
X144180000Y-116828600D02*
X145380000Y-116828600D01*
X145380000Y-118578600D02*
X144180000Y-118578600D01*
X149981920Y-106598720D02*
X152379680Y-106598720D01*
X149382480Y-107802680D02*
X149382480Y-106603800D01*
X148882100Y-107203240D02*
X149981920Y-107203240D01*
X149981920Y-100002340D02*
X149981920Y-105204260D01*
X152379680Y-105204260D02*
X152379680Y-100002340D01*
X137675620Y-106738420D02*
X140073380Y-106738420D01*
X137076180Y-107942380D02*
X137076180Y-106743500D01*
X136575800Y-107342940D02*
X137675620Y-107342940D01*
X137675620Y-100142040D02*
X137675620Y-105343960D01*
X140073380Y-105343960D02*
X140073380Y-100142040D01*
X155930000Y-96494000D02*
X159030000Y-96494000D01*
X155930000Y-98044000D02*
X155930000Y-96494000D01*
X158750000Y-99314000D02*
X156210000Y-99314000D01*
X159030000Y-96494000D02*
X159030000Y-98044000D01*
X156210000Y-142494000D02*
X156210000Y-99314000D01*
X158750000Y-142494000D02*
X156210000Y-142494000D01*
X158750000Y-99314000D02*
X158750000Y-142494000D01*
X152149700Y-126013500D02*
X148549700Y-126013500D01*
X152149700Y-128113500D02*
X148549700Y-128113500D01*
X150099700Y-127363500D02*
X150099700Y-126763500D01*
X150099700Y-126763500D02*
X150399700Y-127063500D01*
X150399700Y-127063500D02*
X150199700Y-127263500D01*
X150199700Y-127263500D02*
X150199700Y-127013500D01*
X150199700Y-127013500D02*
X150249700Y-127063500D01*
X150499700Y-127563500D02*
X150499700Y-126563500D01*
X149999700Y-127063500D02*
X149499700Y-127063500D01*
X150499700Y-127063500D02*
X149999700Y-127563500D01*
X149999700Y-127563500D02*
X149999700Y-126563500D01*
X149999700Y-126563500D02*
X150499700Y-127063500D01*
X147985480Y-105242360D02*
X147985480Y-100040440D01*
X145587720Y-100040440D02*
X145587720Y-105242360D01*
X144487900Y-107241340D02*
X145587720Y-107241340D01*
X144988280Y-107840780D02*
X144988280Y-106641900D01*
X145587720Y-106636820D02*
X147985480Y-106636820D01*
X141871490Y-125194220D02*
X141871490Y-121694220D01*
X147871490Y-125194220D02*
X147871490Y-121694220D01*
X147871490Y-125194220D02*
X141871490Y-125194220D01*
X147871490Y-121694220D02*
X141871490Y-121694220D01*
X146371490Y-124244220D02*
X146371490Y-122644220D01*
X143371490Y-124244220D02*
X143371490Y-122644220D01*
X146371490Y-124244220D02*
X143371490Y-124244220D01*
X146371490Y-122644220D02*
X143371490Y-122644220D01*
X146121490Y-122894220D02*
X146121490Y-123994220D01*
X143621490Y-122894220D02*
X146121490Y-122894220D01*
X143621490Y-123994220D02*
X143621490Y-122894220D01*
X146121490Y-123994220D02*
X143621490Y-123994220D01*
X147078700Y-131940300D02*
X147078700Y-129400300D01*
X144538700Y-131940300D02*
X147078700Y-131940300D01*
X141718700Y-132220300D02*
X141718700Y-129120300D01*
X143268700Y-132220300D02*
X141718700Y-132220300D01*
X144538700Y-129400300D02*
X144538700Y-131940300D01*
X141718700Y-129120300D02*
X143268700Y-129120300D01*
X144538700Y-129400300D02*
X147078700Y-129400300D01*
X141815820Y-106738420D02*
X144213580Y-106738420D01*
X141216380Y-107942380D02*
X141216380Y-106743500D01*
X140716000Y-107342940D02*
X141815820Y-107342940D01*
X141815820Y-100142040D02*
X141815820Y-105343960D01*
X144213580Y-105343960D02*
X144213580Y-100142040D01*
X130810000Y-139954000D02*
X130810000Y-96774000D01*
X130810000Y-96774000D02*
X133350000Y-96774000D01*
X133350000Y-96774000D02*
X133350000Y-139954000D01*
X130530000Y-142774000D02*
X130530000Y-141224000D01*
X130810000Y-139954000D02*
X133350000Y-139954000D01*
X133630000Y-141224000D02*
X133630000Y-142774000D01*
X133630000Y-142774000D02*
X130530000Y-142774000D01*
X139509500Y-80294100D02*
X139009500Y-79794100D01*
X139509500Y-79294100D02*
X139509500Y-80294100D01*
X139009500Y-79794100D02*
X139509500Y-79294100D01*
X139509500Y-79794100D02*
X140009500Y-79794100D01*
X139009500Y-79294100D02*
X139009500Y-80294100D01*
X139309500Y-79844100D02*
X139259500Y-79794100D01*
X139309500Y-79594100D02*
X139309500Y-79844100D01*
X139109500Y-79794100D02*
X139309500Y-79594100D01*
X139409500Y-80094100D02*
X139109500Y-79794100D01*
X139409500Y-79494100D02*
X139409500Y-80094100D01*
X137359500Y-78744100D02*
X140959500Y-78744100D01*
X137359500Y-80844100D02*
X140959500Y-80844100D01*
X143489310Y-65235780D02*
X145989310Y-65235780D01*
X145989310Y-65235780D02*
X145989310Y-66335780D01*
X145989310Y-66335780D02*
X143489310Y-66335780D01*
X143489310Y-66335780D02*
X143489310Y-65235780D01*
X143239310Y-66585780D02*
X146239310Y-66585780D01*
X143239310Y-64985780D02*
X146239310Y-64985780D01*
X146239310Y-64985780D02*
X146239310Y-66585780D01*
X143239310Y-64985780D02*
X143239310Y-66585780D01*
X141739310Y-67535780D02*
X147739310Y-67535780D01*
X141739310Y-64035780D02*
X147739310Y-64035780D01*
X141739310Y-64035780D02*
X141739310Y-67535780D01*
X147739310Y-64035780D02*
X147739310Y-67535780D01*
X142547600Y-93742000D02*
X142547600Y-88742000D01*
X142547600Y-85642000D02*
X142547600Y-86742000D01*
X136547600Y-85642000D02*
X142547600Y-85642000D01*
X136547600Y-91742000D02*
X136547600Y-85642000D01*
X146961600Y-91742000D02*
X146961600Y-85642000D01*
X146961600Y-85642000D02*
X152961600Y-85642000D01*
X152961600Y-85642000D02*
X152961600Y-86742000D01*
X152961600Y-93742000D02*
X152961600Y-88742000D01*
X144180000Y-69584600D02*
X145380000Y-69584600D01*
X145380000Y-71334600D02*
X144180000Y-71334600D01*
X149981920Y-59354720D02*
X152379680Y-59354720D01*
X149382480Y-60558680D02*
X149382480Y-59359800D01*
X148882100Y-59959240D02*
X149981920Y-59959240D01*
X149981920Y-52758340D02*
X149981920Y-57960260D01*
X152379680Y-57960260D02*
X152379680Y-52758340D01*
X137675620Y-59494420D02*
X140073380Y-59494420D01*
X137076180Y-60698380D02*
X137076180Y-59499500D01*
X136575800Y-60098940D02*
X137675620Y-60098940D01*
X137675620Y-52898040D02*
X137675620Y-58099960D01*
X140073380Y-58099960D02*
X140073380Y-52898040D01*
X155930000Y-49250000D02*
X159030000Y-49250000D01*
X155930000Y-50800000D02*
X155930000Y-49250000D01*
X158750000Y-52070000D02*
X156210000Y-52070000D01*
X159030000Y-49250000D02*
X159030000Y-50800000D01*
X156210000Y-95250000D02*
X156210000Y-52070000D01*
X158750000Y-95250000D02*
X156210000Y-95250000D01*
X158750000Y-52070000D02*
X158750000Y-95250000D01*
X152149700Y-78769500D02*
X148549700Y-78769500D01*
X152149700Y-80869500D02*
X148549700Y-80869500D01*
X150099700Y-80119500D02*
X150099700Y-79519500D01*
X150099700Y-79519500D02*
X150399700Y-79819500D01*
X150399700Y-79819500D02*
X150199700Y-80019500D01*
X150199700Y-80019500D02*
X150199700Y-79769500D01*
X150199700Y-79769500D02*
X150249700Y-79819500D01*
X150499700Y-80319500D02*
X150499700Y-79319500D01*
X149999700Y-79819500D02*
X149499700Y-79819500D01*
X150499700Y-79819500D02*
X149999700Y-80319500D01*
X149999700Y-80319500D02*
X149999700Y-79319500D01*
X149999700Y-79319500D02*
X150499700Y-79819500D01*
X147985480Y-57998360D02*
X147985480Y-52796440D01*
X145587720Y-52796440D02*
X145587720Y-57998360D01*
X144487900Y-59997340D02*
X145587720Y-59997340D01*
X144988280Y-60596780D02*
X144988280Y-59397900D01*
X145587720Y-59392820D02*
X147985480Y-59392820D01*
X141871490Y-77950220D02*
X141871490Y-74450220D01*
X147871490Y-77950220D02*
X147871490Y-74450220D01*
X147871490Y-77950220D02*
X141871490Y-77950220D01*
X147871490Y-74450220D02*
X141871490Y-74450220D01*
X146371490Y-77000220D02*
X146371490Y-75400220D01*
X143371490Y-77000220D02*
X143371490Y-75400220D01*
X146371490Y-77000220D02*
X143371490Y-77000220D01*
X146371490Y-75400220D02*
X143371490Y-75400220D01*
X146121490Y-75650220D02*
X146121490Y-76750220D01*
X143621490Y-75650220D02*
X146121490Y-75650220D01*
X143621490Y-76750220D02*
X143621490Y-75650220D01*
X146121490Y-76750220D02*
X143621490Y-76750220D01*
X147078700Y-84696300D02*
X147078700Y-82156300D01*
X144538700Y-84696300D02*
X147078700Y-84696300D01*
X141718700Y-84976300D02*
X141718700Y-81876300D01*
X143268700Y-84976300D02*
X141718700Y-84976300D01*
X144538700Y-82156300D02*
X144538700Y-84696300D01*
X141718700Y-81876300D02*
X143268700Y-81876300D01*
X144538700Y-82156300D02*
X147078700Y-82156300D01*
X141815820Y-59494420D02*
X144213580Y-59494420D01*
X141216380Y-60698380D02*
X141216380Y-59499500D01*
X140716000Y-60098940D02*
X141815820Y-60098940D01*
X141815820Y-52898040D02*
X141815820Y-58099960D01*
X144213580Y-58099960D02*
X144213580Y-52898040D01*
X130810000Y-92710000D02*
X130810000Y-49530000D01*
X130810000Y-49530000D02*
X133350000Y-49530000D01*
X133350000Y-49530000D02*
X133350000Y-92710000D01*
X130530000Y-95530000D02*
X130530000Y-93980000D01*
X130810000Y-92710000D02*
X133350000Y-92710000D01*
X133630000Y-93980000D02*
X133630000Y-95530000D01*
X133630000Y-95530000D02*
X130530000Y-95530000D01*
X123497600Y-93742000D02*
X123497600Y-88742000D01*
X123497600Y-85642000D02*
X123497600Y-86742000D01*
X117497600Y-85642000D02*
X123497600Y-85642000D01*
X117497600Y-91742000D02*
X117497600Y-85642000D01*
X129286000Y-52070000D02*
X129286000Y-95250000D01*
X129286000Y-95250000D02*
X126746000Y-95250000D01*
X126746000Y-95250000D02*
X126746000Y-52070000D01*
X129566000Y-49250000D02*
X129566000Y-50800000D01*
X129286000Y-52070000D02*
X126746000Y-52070000D01*
X126466000Y-50800000D02*
X126466000Y-49250000D01*
X126466000Y-49250000D02*
X129566000Y-49250000D01*
X104166000Y-95530000D02*
X101066000Y-95530000D01*
X104166000Y-93980000D02*
X104166000Y-95530000D01*
X101346000Y-92710000D02*
X103886000Y-92710000D01*
X101066000Y-95530000D02*
X101066000Y-93980000D01*
X103886000Y-49530000D02*
X103886000Y-92710000D01*
X101346000Y-49530000D02*
X103886000Y-49530000D01*
X101346000Y-92710000D02*
X101346000Y-49530000D01*
X107895500Y-80844100D02*
X111495500Y-80844100D01*
X107895500Y-78744100D02*
X111495500Y-78744100D01*
X109945500Y-79494100D02*
X109945500Y-80094100D01*
X109945500Y-80094100D02*
X109645500Y-79794100D01*
X109645500Y-79794100D02*
X109845500Y-79594100D01*
X109845500Y-79594100D02*
X109845500Y-79844100D01*
X109845500Y-79844100D02*
X109795500Y-79794100D01*
X109545500Y-79294100D02*
X109545500Y-80294100D01*
X110045500Y-79794100D02*
X110545500Y-79794100D01*
X109545500Y-79794100D02*
X110045500Y-79294100D01*
X110045500Y-79294100D02*
X110045500Y-80294100D01*
X110045500Y-80294100D02*
X109545500Y-79794100D01*
X120535700Y-79319500D02*
X121035700Y-79819500D01*
X120535700Y-80319500D02*
X120535700Y-79319500D01*
X121035700Y-79819500D02*
X120535700Y-80319500D01*
X120535700Y-79819500D02*
X120035700Y-79819500D01*
X121035700Y-80319500D02*
X121035700Y-79319500D01*
X120735700Y-79769500D02*
X120785700Y-79819500D01*
X120735700Y-80019500D02*
X120735700Y-79769500D01*
X120935700Y-79819500D02*
X120735700Y-80019500D01*
X120635700Y-79519500D02*
X120935700Y-79819500D01*
X120635700Y-80119500D02*
X120635700Y-79519500D01*
X122685700Y-80869500D02*
X119085700Y-80869500D01*
X122685700Y-78769500D02*
X119085700Y-78769500D01*
X115916000Y-71334600D02*
X114716000Y-71334600D01*
X114716000Y-69584600D02*
X115916000Y-69584600D01*
X116657490Y-76750220D02*
X114157490Y-76750220D01*
X114157490Y-76750220D02*
X114157490Y-75650220D01*
X114157490Y-75650220D02*
X116657490Y-75650220D01*
X116657490Y-75650220D02*
X116657490Y-76750220D01*
X116907490Y-75400220D02*
X113907490Y-75400220D01*
X116907490Y-77000220D02*
X113907490Y-77000220D01*
X113907490Y-77000220D02*
X113907490Y-75400220D01*
X116907490Y-77000220D02*
X116907490Y-75400220D01*
X118407490Y-74450220D02*
X112407490Y-74450220D01*
X118407490Y-77950220D02*
X112407490Y-77950220D01*
X118407490Y-77950220D02*
X118407490Y-74450220D01*
X112407490Y-77950220D02*
X112407490Y-74450220D01*
X118275310Y-64035780D02*
X118275310Y-67535780D01*
X112275310Y-64035780D02*
X112275310Y-67535780D01*
X112275310Y-64035780D02*
X118275310Y-64035780D01*
X112275310Y-67535780D02*
X118275310Y-67535780D01*
X113775310Y-64985780D02*
X113775310Y-66585780D01*
X116775310Y-64985780D02*
X116775310Y-66585780D01*
X113775310Y-64985780D02*
X116775310Y-64985780D01*
X113775310Y-66585780D02*
X116775310Y-66585780D01*
X114025310Y-66335780D02*
X114025310Y-65235780D01*
X116525310Y-66335780D02*
X114025310Y-66335780D01*
X116525310Y-65235780D02*
X116525310Y-66335780D01*
X114025310Y-65235780D02*
X116525310Y-65235780D01*
X122915680Y-57960260D02*
X122915680Y-52758340D01*
X120517920Y-52758340D02*
X120517920Y-57960260D01*
X119418100Y-59959240D02*
X120517920Y-59959240D01*
X119918480Y-60558680D02*
X119918480Y-59359800D01*
X120517920Y-59354720D02*
X122915680Y-59354720D01*
X116123720Y-59392820D02*
X118521480Y-59392820D01*
X115524280Y-60596780D02*
X115524280Y-59397900D01*
X115023900Y-59997340D02*
X116123720Y-59997340D01*
X116123720Y-52796440D02*
X116123720Y-57998360D01*
X118521480Y-57998360D02*
X118521480Y-52796440D01*
X114749580Y-58099960D02*
X114749580Y-52898040D01*
X112351820Y-52898040D02*
X112351820Y-58099960D01*
X111252000Y-60098940D02*
X112351820Y-60098940D01*
X111752380Y-60698380D02*
X111752380Y-59499500D01*
X112351820Y-59494420D02*
X114749580Y-59494420D01*
X115074700Y-82156300D02*
X117614700Y-82156300D01*
X112254700Y-81876300D02*
X113804700Y-81876300D01*
X115074700Y-82156300D02*
X115074700Y-84696300D01*
X113804700Y-84976300D02*
X112254700Y-84976300D01*
X112254700Y-84976300D02*
X112254700Y-81876300D01*
X115074700Y-84696300D02*
X117614700Y-84696300D01*
X117614700Y-84696300D02*
X117614700Y-82156300D01*
X107083600Y-91742000D02*
X107083600Y-85642000D01*
X107083600Y-85642000D02*
X113083600Y-85642000D01*
X113083600Y-85642000D02*
X113083600Y-86742000D01*
X113083600Y-93742000D02*
X113083600Y-88742000D01*
X110609380Y-58099960D02*
X110609380Y-52898040D01*
X108211620Y-52898040D02*
X108211620Y-58099960D01*
X107111800Y-60098940D02*
X108211620Y-60098940D01*
X107612180Y-60698380D02*
X107612180Y-59499500D01*
X108211620Y-59494420D02*
X110609380Y-59494420D01*
X107950261Y-129490480D02*
X107474071Y-129490480D01*
X107474071Y-128490480D01*
X108283595Y-128966671D02*
X108616928Y-128966671D01*
X108759785Y-129490480D02*
X108283595Y-129490480D01*
X108283595Y-128490480D01*
X108759785Y-128490480D01*
X109188357Y-129490480D02*
X109188357Y-128490480D01*
X109426452Y-128490480D01*
X109569309Y-128538100D01*
X109664547Y-128633338D01*
X109712166Y-128728576D01*
X109759785Y-128919052D01*
X109759785Y-129061909D01*
X109712166Y-129252385D01*
X109664547Y-129347623D01*
X109569309Y-129442861D01*
X109426452Y-129490480D01*
X109188357Y-129490480D01*
X110759785Y-129490480D02*
X110426452Y-129014290D01*
X110188357Y-129490480D02*
X110188357Y-128490480D01*
X110569309Y-128490480D01*
X110664547Y-128538100D01*
X110712166Y-128585719D01*
X110759785Y-128680957D01*
X110759785Y-128823814D01*
X110712166Y-128919052D01*
X110664547Y-128966671D01*
X110569309Y-129014290D01*
X110188357Y-129014290D01*
X111188357Y-128966671D02*
X111521690Y-128966671D01*
X111664547Y-129490480D02*
X111188357Y-129490480D01*
X111188357Y-128490480D01*
X111664547Y-128490480D01*
X112093119Y-129490480D02*
X112093119Y-128490480D01*
X112331214Y-128490480D01*
X112474071Y-128538100D01*
X112569309Y-128633338D01*
X112616928Y-128728576D01*
X112664547Y-128919052D01*
X112664547Y-129061909D01*
X112616928Y-129252385D01*
X112569309Y-129347623D01*
X112474071Y-129442861D01*
X112331214Y-129490480D01*
X112093119Y-129490480D01*
D12*
X108160673Y-137977620D02*
X108160673Y-138262463D01*
X108141683Y-138319431D01*
X108103704Y-138357410D01*
X108046736Y-138376400D01*
X108008757Y-138376400D01*
X108331579Y-138015599D02*
X108350568Y-137996610D01*
X108388547Y-137977620D01*
X108483495Y-137977620D01*
X108521474Y-137996610D01*
X108540463Y-138015599D01*
X108559453Y-138053578D01*
X108559453Y-138091557D01*
X108540463Y-138148526D01*
X108312589Y-138376400D01*
X108559453Y-138376400D01*
X118574673Y-137977620D02*
X118574673Y-138262463D01*
X118555683Y-138319431D01*
X118517704Y-138357410D01*
X118460736Y-138376400D01*
X118422757Y-138376400D01*
X118973453Y-138376400D02*
X118745579Y-138376400D01*
X118859516Y-138376400D02*
X118859516Y-137977620D01*
X118821537Y-138034589D01*
X118783558Y-138072568D01*
X118745579Y-138091557D01*
D11*
X119162533Y-118105180D02*
X118829200Y-117628990D01*
X118591104Y-118105180D02*
X118591104Y-117105180D01*
X118972057Y-117105180D01*
X119067295Y-117152800D01*
X119114914Y-117200419D01*
X119162533Y-117295657D01*
X119162533Y-117438514D01*
X119114914Y-117533752D01*
X119067295Y-117581371D01*
X118972057Y-117628990D01*
X118591104Y-117628990D01*
X120114914Y-118105180D02*
X119543485Y-118105180D01*
X119829200Y-118105180D02*
X119829200Y-117105180D01*
X119733961Y-117248038D01*
X119638723Y-117343276D01*
X119543485Y-117390895D01*
X121997742Y-97804266D02*
X122045361Y-97851885D01*
X122092980Y-97994742D01*
X122092980Y-98089980D01*
X122045361Y-98232838D01*
X121950123Y-98328076D01*
X121854885Y-98375695D01*
X121664409Y-98423314D01*
X121521552Y-98423314D01*
X121331076Y-98375695D01*
X121235838Y-98328076D01*
X121140600Y-98232838D01*
X121092980Y-98089980D01*
X121092980Y-97994742D01*
X121140600Y-97851885D01*
X121188219Y-97804266D01*
X122092980Y-96851885D02*
X122092980Y-97423314D01*
X122092980Y-97137600D02*
X121092980Y-97137600D01*
X121235838Y-97232838D01*
X121331076Y-97328076D01*
X121378695Y-97423314D01*
X119987368Y-107584192D02*
X119987368Y-106822287D01*
X120368320Y-107203240D02*
X119606416Y-107203240D01*
X109691442Y-97893166D02*
X109739061Y-97940785D01*
X109786680Y-98083642D01*
X109786680Y-98178880D01*
X109739061Y-98321738D01*
X109643823Y-98416976D01*
X109548585Y-98464595D01*
X109358109Y-98512214D01*
X109215252Y-98512214D01*
X109024776Y-98464595D01*
X108929538Y-98416976D01*
X108834300Y-98321738D01*
X108786680Y-98178880D01*
X108786680Y-98083642D01*
X108834300Y-97940785D01*
X108881919Y-97893166D01*
X108786680Y-97559833D02*
X108786680Y-96893166D01*
X109786680Y-97321738D01*
X107681068Y-107723892D02*
X107681068Y-106961987D01*
X108062020Y-107342940D02*
X107300116Y-107342940D01*
X117314411Y-129547880D02*
X116838220Y-129547880D01*
X116838220Y-128547880D01*
X117647744Y-129024071D02*
X117981078Y-129024071D01*
X118123935Y-129547880D02*
X117647744Y-129547880D01*
X117647744Y-128547880D01*
X118123935Y-128547880D01*
X118552506Y-129547880D02*
X118552506Y-128547880D01*
X118790601Y-128547880D01*
X118933459Y-128595500D01*
X119028697Y-128690738D01*
X119076316Y-128785976D01*
X119123935Y-128976452D01*
X119123935Y-129119309D01*
X119076316Y-129309785D01*
X119028697Y-129405023D01*
X118933459Y-129500261D01*
X118790601Y-129547880D01*
X118552506Y-129547880D01*
X120076316Y-128595500D02*
X119981078Y-128547880D01*
X119838220Y-128547880D01*
X119695363Y-128595500D01*
X119600125Y-128690738D01*
X119552506Y-128785976D01*
X119504887Y-128976452D01*
X119504887Y-129119309D01*
X119552506Y-129309785D01*
X119600125Y-129405023D01*
X119695363Y-129500261D01*
X119838220Y-129547880D01*
X119933459Y-129547880D01*
X120076316Y-129500261D01*
X120123935Y-129452642D01*
X120123935Y-129119309D01*
X119933459Y-129119309D01*
X121123935Y-129547880D02*
X120790601Y-129071690D01*
X120552506Y-129547880D02*
X120552506Y-128547880D01*
X120933459Y-128547880D01*
X121028697Y-128595500D01*
X121076316Y-128643119D01*
X121123935Y-128738357D01*
X121123935Y-128881214D01*
X121076316Y-128976452D01*
X121028697Y-129024071D01*
X120933459Y-129071690D01*
X120552506Y-129071690D01*
X121552506Y-129024071D02*
X121885840Y-129024071D01*
X122028697Y-129547880D02*
X121552506Y-129547880D01*
X121552506Y-128547880D01*
X122028697Y-128547880D01*
X122457268Y-129024071D02*
X122790601Y-129024071D01*
X122933459Y-129547880D02*
X122457268Y-129547880D01*
X122457268Y-128547880D01*
X122933459Y-128547880D01*
X123362030Y-129547880D02*
X123362030Y-128547880D01*
X123933459Y-129547880D01*
X123933459Y-128547880D01*
X117870242Y-97766166D02*
X117917861Y-97813785D01*
X117965480Y-97956642D01*
X117965480Y-98051880D01*
X117917861Y-98194738D01*
X117822623Y-98289976D01*
X117727385Y-98337595D01*
X117536909Y-98385214D01*
X117394052Y-98385214D01*
X117203576Y-98337595D01*
X117108338Y-98289976D01*
X117013100Y-98194738D01*
X116965480Y-98051880D01*
X116965480Y-97956642D01*
X117013100Y-97813785D01*
X117060719Y-97766166D01*
X117060719Y-97385214D02*
X117013100Y-97337595D01*
X116965480Y-97242357D01*
X116965480Y-97004261D01*
X117013100Y-96909023D01*
X117060719Y-96861404D01*
X117155957Y-96813785D01*
X117251195Y-96813785D01*
X117394052Y-96861404D01*
X117965480Y-97432833D01*
X117965480Y-96813785D01*
X115593168Y-107622292D02*
X115593168Y-106860387D01*
X115974120Y-107241340D02*
X115212216Y-107241340D01*
X113869742Y-97994766D02*
X113917361Y-98042385D01*
X113964980Y-98185242D01*
X113964980Y-98280480D01*
X113917361Y-98423338D01*
X113822123Y-98518576D01*
X113726885Y-98566195D01*
X113536409Y-98613814D01*
X113393552Y-98613814D01*
X113203076Y-98566195D01*
X113107838Y-98518576D01*
X113012600Y-98423338D01*
X112964980Y-98280480D01*
X112964980Y-98185242D01*
X113012600Y-98042385D01*
X113060219Y-97994766D01*
X112964980Y-97137623D02*
X112964980Y-97328100D01*
X113012600Y-97423338D01*
X113060219Y-97470957D01*
X113203076Y-97566195D01*
X113393552Y-97613814D01*
X113774504Y-97613814D01*
X113869742Y-97566195D01*
X113917361Y-97518576D01*
X113964980Y-97423338D01*
X113964980Y-97232861D01*
X113917361Y-97137623D01*
X113869742Y-97090004D01*
X113774504Y-97042385D01*
X113536409Y-97042385D01*
X113441171Y-97090004D01*
X113393552Y-97137623D01*
X113345933Y-97232861D01*
X113345933Y-97423338D01*
X113393552Y-97518576D01*
X113441171Y-97566195D01*
X113536409Y-97613814D01*
X111821268Y-107723892D02*
X111821268Y-106961987D01*
X112202220Y-107342940D02*
X111440316Y-107342940D01*
X137414261Y-129490480D02*
X136938071Y-129490480D01*
X136938071Y-128490480D01*
X137747595Y-128966671D02*
X138080928Y-128966671D01*
X138223785Y-129490480D02*
X137747595Y-129490480D01*
X137747595Y-128490480D01*
X138223785Y-128490480D01*
X138652357Y-129490480D02*
X138652357Y-128490480D01*
X138890452Y-128490480D01*
X139033309Y-128538100D01*
X139128547Y-128633338D01*
X139176166Y-128728576D01*
X139223785Y-128919052D01*
X139223785Y-129061909D01*
X139176166Y-129252385D01*
X139128547Y-129347623D01*
X139033309Y-129442861D01*
X138890452Y-129490480D01*
X138652357Y-129490480D01*
X140223785Y-129490480D02*
X139890452Y-129014290D01*
X139652357Y-129490480D02*
X139652357Y-128490480D01*
X140033309Y-128490480D01*
X140128547Y-128538100D01*
X140176166Y-128585719D01*
X140223785Y-128680957D01*
X140223785Y-128823814D01*
X140176166Y-128919052D01*
X140128547Y-128966671D01*
X140033309Y-129014290D01*
X139652357Y-129014290D01*
X140652357Y-128966671D02*
X140985690Y-128966671D01*
X141128547Y-129490480D02*
X140652357Y-129490480D01*
X140652357Y-128490480D01*
X141128547Y-128490480D01*
X141557119Y-129490480D02*
X141557119Y-128490480D01*
X141795214Y-128490480D01*
X141938071Y-128538100D01*
X142033309Y-128633338D01*
X142080928Y-128728576D01*
X142128547Y-128919052D01*
X142128547Y-129061909D01*
X142080928Y-129252385D01*
X142033309Y-129347623D01*
X141938071Y-129442861D01*
X141795214Y-129490480D01*
X141557119Y-129490480D01*
D12*
X137624673Y-137977620D02*
X137624673Y-138262463D01*
X137605683Y-138319431D01*
X137567704Y-138357410D01*
X137510736Y-138376400D01*
X137472757Y-138376400D01*
X137795579Y-138015599D02*
X137814568Y-137996610D01*
X137852547Y-137977620D01*
X137947495Y-137977620D01*
X137985474Y-137996610D01*
X138004463Y-138015599D01*
X138023453Y-138053578D01*
X138023453Y-138091557D01*
X138004463Y-138148526D01*
X137776589Y-138376400D01*
X138023453Y-138376400D01*
X148038673Y-137977620D02*
X148038673Y-138262463D01*
X148019683Y-138319431D01*
X147981704Y-138357410D01*
X147924736Y-138376400D01*
X147886757Y-138376400D01*
X148437453Y-138376400D02*
X148209579Y-138376400D01*
X148323516Y-138376400D02*
X148323516Y-137977620D01*
X148285537Y-138034589D01*
X148247558Y-138072568D01*
X148209579Y-138091557D01*
D11*
X148626533Y-118105180D02*
X148293200Y-117628990D01*
X148055104Y-118105180D02*
X148055104Y-117105180D01*
X148436057Y-117105180D01*
X148531295Y-117152800D01*
X148578914Y-117200419D01*
X148626533Y-117295657D01*
X148626533Y-117438514D01*
X148578914Y-117533752D01*
X148531295Y-117581371D01*
X148436057Y-117628990D01*
X148055104Y-117628990D01*
X149578914Y-118105180D02*
X149007485Y-118105180D01*
X149293200Y-118105180D02*
X149293200Y-117105180D01*
X149197961Y-117248038D01*
X149102723Y-117343276D01*
X149007485Y-117390895D01*
X151461742Y-97804266D02*
X151509361Y-97851885D01*
X151556980Y-97994742D01*
X151556980Y-98089980D01*
X151509361Y-98232838D01*
X151414123Y-98328076D01*
X151318885Y-98375695D01*
X151128409Y-98423314D01*
X150985552Y-98423314D01*
X150795076Y-98375695D01*
X150699838Y-98328076D01*
X150604600Y-98232838D01*
X150556980Y-98089980D01*
X150556980Y-97994742D01*
X150604600Y-97851885D01*
X150652219Y-97804266D01*
X151556980Y-96851885D02*
X151556980Y-97423314D01*
X151556980Y-97137600D02*
X150556980Y-97137600D01*
X150699838Y-97232838D01*
X150795076Y-97328076D01*
X150842695Y-97423314D01*
X149451368Y-107584192D02*
X149451368Y-106822287D01*
X149832320Y-107203240D02*
X149070416Y-107203240D01*
X139155442Y-97893166D02*
X139203061Y-97940785D01*
X139250680Y-98083642D01*
X139250680Y-98178880D01*
X139203061Y-98321738D01*
X139107823Y-98416976D01*
X139012585Y-98464595D01*
X138822109Y-98512214D01*
X138679252Y-98512214D01*
X138488776Y-98464595D01*
X138393538Y-98416976D01*
X138298300Y-98321738D01*
X138250680Y-98178880D01*
X138250680Y-98083642D01*
X138298300Y-97940785D01*
X138345919Y-97893166D01*
X138250680Y-97559833D02*
X138250680Y-96893166D01*
X139250680Y-97321738D01*
X137145068Y-107723892D02*
X137145068Y-106961987D01*
X137526020Y-107342940D02*
X136764116Y-107342940D01*
X146778411Y-129547880D02*
X146302220Y-129547880D01*
X146302220Y-128547880D01*
X147111744Y-129024071D02*
X147445078Y-129024071D01*
X147587935Y-129547880D02*
X147111744Y-129547880D01*
X147111744Y-128547880D01*
X147587935Y-128547880D01*
X148016506Y-129547880D02*
X148016506Y-128547880D01*
X148254601Y-128547880D01*
X148397459Y-128595500D01*
X148492697Y-128690738D01*
X148540316Y-128785976D01*
X148587935Y-128976452D01*
X148587935Y-129119309D01*
X148540316Y-129309785D01*
X148492697Y-129405023D01*
X148397459Y-129500261D01*
X148254601Y-129547880D01*
X148016506Y-129547880D01*
X149540316Y-128595500D02*
X149445078Y-128547880D01*
X149302220Y-128547880D01*
X149159363Y-128595500D01*
X149064125Y-128690738D01*
X149016506Y-128785976D01*
X148968887Y-128976452D01*
X148968887Y-129119309D01*
X149016506Y-129309785D01*
X149064125Y-129405023D01*
X149159363Y-129500261D01*
X149302220Y-129547880D01*
X149397459Y-129547880D01*
X149540316Y-129500261D01*
X149587935Y-129452642D01*
X149587935Y-129119309D01*
X149397459Y-129119309D01*
X150587935Y-129547880D02*
X150254601Y-129071690D01*
X150016506Y-129547880D02*
X150016506Y-128547880D01*
X150397459Y-128547880D01*
X150492697Y-128595500D01*
X150540316Y-128643119D01*
X150587935Y-128738357D01*
X150587935Y-128881214D01*
X150540316Y-128976452D01*
X150492697Y-129024071D01*
X150397459Y-129071690D01*
X150016506Y-129071690D01*
X151016506Y-129024071D02*
X151349840Y-129024071D01*
X151492697Y-129547880D02*
X151016506Y-129547880D01*
X151016506Y-128547880D01*
X151492697Y-128547880D01*
X151921268Y-129024071D02*
X152254601Y-129024071D01*
X152397459Y-129547880D02*
X151921268Y-129547880D01*
X151921268Y-128547880D01*
X152397459Y-128547880D01*
X152826030Y-129547880D02*
X152826030Y-128547880D01*
X153397459Y-129547880D01*
X153397459Y-128547880D01*
X147334242Y-97766166D02*
X147381861Y-97813785D01*
X147429480Y-97956642D01*
X147429480Y-98051880D01*
X147381861Y-98194738D01*
X147286623Y-98289976D01*
X147191385Y-98337595D01*
X147000909Y-98385214D01*
X146858052Y-98385214D01*
X146667576Y-98337595D01*
X146572338Y-98289976D01*
X146477100Y-98194738D01*
X146429480Y-98051880D01*
X146429480Y-97956642D01*
X146477100Y-97813785D01*
X146524719Y-97766166D01*
X146524719Y-97385214D02*
X146477100Y-97337595D01*
X146429480Y-97242357D01*
X146429480Y-97004261D01*
X146477100Y-96909023D01*
X146524719Y-96861404D01*
X146619957Y-96813785D01*
X146715195Y-96813785D01*
X146858052Y-96861404D01*
X147429480Y-97432833D01*
X147429480Y-96813785D01*
X145057168Y-107622292D02*
X145057168Y-106860387D01*
X145438120Y-107241340D02*
X144676216Y-107241340D01*
X143333742Y-97994766D02*
X143381361Y-98042385D01*
X143428980Y-98185242D01*
X143428980Y-98280480D01*
X143381361Y-98423338D01*
X143286123Y-98518576D01*
X143190885Y-98566195D01*
X143000409Y-98613814D01*
X142857552Y-98613814D01*
X142667076Y-98566195D01*
X142571838Y-98518576D01*
X142476600Y-98423338D01*
X142428980Y-98280480D01*
X142428980Y-98185242D01*
X142476600Y-98042385D01*
X142524219Y-97994766D01*
X142428980Y-97137623D02*
X142428980Y-97328100D01*
X142476600Y-97423338D01*
X142524219Y-97470957D01*
X142667076Y-97566195D01*
X142857552Y-97613814D01*
X143238504Y-97613814D01*
X143333742Y-97566195D01*
X143381361Y-97518576D01*
X143428980Y-97423338D01*
X143428980Y-97232861D01*
X143381361Y-97137623D01*
X143333742Y-97090004D01*
X143238504Y-97042385D01*
X143000409Y-97042385D01*
X142905171Y-97090004D01*
X142857552Y-97137623D01*
X142809933Y-97232861D01*
X142809933Y-97423338D01*
X142857552Y-97518576D01*
X142905171Y-97566195D01*
X143000409Y-97613814D01*
X141285268Y-107723892D02*
X141285268Y-106961987D01*
X141666220Y-107342940D02*
X140904316Y-107342940D01*
X137414261Y-82246480D02*
X136938071Y-82246480D01*
X136938071Y-81246480D01*
X137747595Y-81722671D02*
X138080928Y-81722671D01*
X138223785Y-82246480D02*
X137747595Y-82246480D01*
X137747595Y-81246480D01*
X138223785Y-81246480D01*
X138652357Y-82246480D02*
X138652357Y-81246480D01*
X138890452Y-81246480D01*
X139033309Y-81294100D01*
X139128547Y-81389338D01*
X139176166Y-81484576D01*
X139223785Y-81675052D01*
X139223785Y-81817909D01*
X139176166Y-82008385D01*
X139128547Y-82103623D01*
X139033309Y-82198861D01*
X138890452Y-82246480D01*
X138652357Y-82246480D01*
X140223785Y-82246480D02*
X139890452Y-81770290D01*
X139652357Y-82246480D02*
X139652357Y-81246480D01*
X140033309Y-81246480D01*
X140128547Y-81294100D01*
X140176166Y-81341719D01*
X140223785Y-81436957D01*
X140223785Y-81579814D01*
X140176166Y-81675052D01*
X140128547Y-81722671D01*
X140033309Y-81770290D01*
X139652357Y-81770290D01*
X140652357Y-81722671D02*
X140985690Y-81722671D01*
X141128547Y-82246480D02*
X140652357Y-82246480D01*
X140652357Y-81246480D01*
X141128547Y-81246480D01*
X141557119Y-82246480D02*
X141557119Y-81246480D01*
X141795214Y-81246480D01*
X141938071Y-81294100D01*
X142033309Y-81389338D01*
X142080928Y-81484576D01*
X142128547Y-81675052D01*
X142128547Y-81817909D01*
X142080928Y-82008385D01*
X142033309Y-82103623D01*
X141938071Y-82198861D01*
X141795214Y-82246480D01*
X141557119Y-82246480D01*
D12*
X137624673Y-90733620D02*
X137624673Y-91018463D01*
X137605683Y-91075431D01*
X137567704Y-91113410D01*
X137510736Y-91132400D01*
X137472757Y-91132400D01*
X137795579Y-90771599D02*
X137814568Y-90752610D01*
X137852547Y-90733620D01*
X137947495Y-90733620D01*
X137985474Y-90752610D01*
X138004463Y-90771599D01*
X138023453Y-90809578D01*
X138023453Y-90847557D01*
X138004463Y-90904526D01*
X137776589Y-91132400D01*
X138023453Y-91132400D01*
X148038673Y-90733620D02*
X148038673Y-91018463D01*
X148019683Y-91075431D01*
X147981704Y-91113410D01*
X147924736Y-91132400D01*
X147886757Y-91132400D01*
X148437453Y-91132400D02*
X148209579Y-91132400D01*
X148323516Y-91132400D02*
X148323516Y-90733620D01*
X148285537Y-90790589D01*
X148247558Y-90828568D01*
X148209579Y-90847557D01*
D11*
X148626533Y-70861180D02*
X148293200Y-70384990D01*
X148055104Y-70861180D02*
X148055104Y-69861180D01*
X148436057Y-69861180D01*
X148531295Y-69908800D01*
X148578914Y-69956419D01*
X148626533Y-70051657D01*
X148626533Y-70194514D01*
X148578914Y-70289752D01*
X148531295Y-70337371D01*
X148436057Y-70384990D01*
X148055104Y-70384990D01*
X149578914Y-70861180D02*
X149007485Y-70861180D01*
X149293200Y-70861180D02*
X149293200Y-69861180D01*
X149197961Y-70004038D01*
X149102723Y-70099276D01*
X149007485Y-70146895D01*
X151461742Y-50560266D02*
X151509361Y-50607885D01*
X151556980Y-50750742D01*
X151556980Y-50845980D01*
X151509361Y-50988838D01*
X151414123Y-51084076D01*
X151318885Y-51131695D01*
X151128409Y-51179314D01*
X150985552Y-51179314D01*
X150795076Y-51131695D01*
X150699838Y-51084076D01*
X150604600Y-50988838D01*
X150556980Y-50845980D01*
X150556980Y-50750742D01*
X150604600Y-50607885D01*
X150652219Y-50560266D01*
X151556980Y-49607885D02*
X151556980Y-50179314D01*
X151556980Y-49893600D02*
X150556980Y-49893600D01*
X150699838Y-49988838D01*
X150795076Y-50084076D01*
X150842695Y-50179314D01*
X149451368Y-60340192D02*
X149451368Y-59578287D01*
X149832320Y-59959240D02*
X149070416Y-59959240D01*
X139155442Y-50649166D02*
X139203061Y-50696785D01*
X139250680Y-50839642D01*
X139250680Y-50934880D01*
X139203061Y-51077738D01*
X139107823Y-51172976D01*
X139012585Y-51220595D01*
X138822109Y-51268214D01*
X138679252Y-51268214D01*
X138488776Y-51220595D01*
X138393538Y-51172976D01*
X138298300Y-51077738D01*
X138250680Y-50934880D01*
X138250680Y-50839642D01*
X138298300Y-50696785D01*
X138345919Y-50649166D01*
X138250680Y-50315833D02*
X138250680Y-49649166D01*
X139250680Y-50077738D01*
X137145068Y-60479892D02*
X137145068Y-59717987D01*
X137526020Y-60098940D02*
X136764116Y-60098940D01*
X146778411Y-82303880D02*
X146302220Y-82303880D01*
X146302220Y-81303880D01*
X147111744Y-81780071D02*
X147445078Y-81780071D01*
X147587935Y-82303880D02*
X147111744Y-82303880D01*
X147111744Y-81303880D01*
X147587935Y-81303880D01*
X148016506Y-82303880D02*
X148016506Y-81303880D01*
X148254601Y-81303880D01*
X148397459Y-81351500D01*
X148492697Y-81446738D01*
X148540316Y-81541976D01*
X148587935Y-81732452D01*
X148587935Y-81875309D01*
X148540316Y-82065785D01*
X148492697Y-82161023D01*
X148397459Y-82256261D01*
X148254601Y-82303880D01*
X148016506Y-82303880D01*
X149540316Y-81351500D02*
X149445078Y-81303880D01*
X149302220Y-81303880D01*
X149159363Y-81351500D01*
X149064125Y-81446738D01*
X149016506Y-81541976D01*
X148968887Y-81732452D01*
X148968887Y-81875309D01*
X149016506Y-82065785D01*
X149064125Y-82161023D01*
X149159363Y-82256261D01*
X149302220Y-82303880D01*
X149397459Y-82303880D01*
X149540316Y-82256261D01*
X149587935Y-82208642D01*
X149587935Y-81875309D01*
X149397459Y-81875309D01*
X150587935Y-82303880D02*
X150254601Y-81827690D01*
X150016506Y-82303880D02*
X150016506Y-81303880D01*
X150397459Y-81303880D01*
X150492697Y-81351500D01*
X150540316Y-81399119D01*
X150587935Y-81494357D01*
X150587935Y-81637214D01*
X150540316Y-81732452D01*
X150492697Y-81780071D01*
X150397459Y-81827690D01*
X150016506Y-81827690D01*
X151016506Y-81780071D02*
X151349840Y-81780071D01*
X151492697Y-82303880D02*
X151016506Y-82303880D01*
X151016506Y-81303880D01*
X151492697Y-81303880D01*
X151921268Y-81780071D02*
X152254601Y-81780071D01*
X152397459Y-82303880D02*
X151921268Y-82303880D01*
X151921268Y-81303880D01*
X152397459Y-81303880D01*
X152826030Y-82303880D02*
X152826030Y-81303880D01*
X153397459Y-82303880D01*
X153397459Y-81303880D01*
X147334242Y-50522166D02*
X147381861Y-50569785D01*
X147429480Y-50712642D01*
X147429480Y-50807880D01*
X147381861Y-50950738D01*
X147286623Y-51045976D01*
X147191385Y-51093595D01*
X147000909Y-51141214D01*
X146858052Y-51141214D01*
X146667576Y-51093595D01*
X146572338Y-51045976D01*
X146477100Y-50950738D01*
X146429480Y-50807880D01*
X146429480Y-50712642D01*
X146477100Y-50569785D01*
X146524719Y-50522166D01*
X146524719Y-50141214D02*
X146477100Y-50093595D01*
X146429480Y-49998357D01*
X146429480Y-49760261D01*
X146477100Y-49665023D01*
X146524719Y-49617404D01*
X146619957Y-49569785D01*
X146715195Y-49569785D01*
X146858052Y-49617404D01*
X147429480Y-50188833D01*
X147429480Y-49569785D01*
X145057168Y-60378292D02*
X145057168Y-59616387D01*
X145438120Y-59997340D02*
X144676216Y-59997340D01*
X143333742Y-50750766D02*
X143381361Y-50798385D01*
X143428980Y-50941242D01*
X143428980Y-51036480D01*
X143381361Y-51179338D01*
X143286123Y-51274576D01*
X143190885Y-51322195D01*
X143000409Y-51369814D01*
X142857552Y-51369814D01*
X142667076Y-51322195D01*
X142571838Y-51274576D01*
X142476600Y-51179338D01*
X142428980Y-51036480D01*
X142428980Y-50941242D01*
X142476600Y-50798385D01*
X142524219Y-50750766D01*
X142428980Y-49893623D02*
X142428980Y-50084100D01*
X142476600Y-50179338D01*
X142524219Y-50226957D01*
X142667076Y-50322195D01*
X142857552Y-50369814D01*
X143238504Y-50369814D01*
X143333742Y-50322195D01*
X143381361Y-50274576D01*
X143428980Y-50179338D01*
X143428980Y-49988861D01*
X143381361Y-49893623D01*
X143333742Y-49846004D01*
X143238504Y-49798385D01*
X143000409Y-49798385D01*
X142905171Y-49846004D01*
X142857552Y-49893623D01*
X142809933Y-49988861D01*
X142809933Y-50179338D01*
X142857552Y-50274576D01*
X142905171Y-50322195D01*
X143000409Y-50369814D01*
X141285268Y-60479892D02*
X141285268Y-59717987D01*
X141666220Y-60098940D02*
X140904316Y-60098940D01*
D12*
X118574673Y-90733620D02*
X118574673Y-91018463D01*
X118555683Y-91075431D01*
X118517704Y-91113410D01*
X118460736Y-91132400D01*
X118422757Y-91132400D01*
X118973453Y-91132400D02*
X118745579Y-91132400D01*
X118859516Y-91132400D02*
X118859516Y-90733620D01*
X118821537Y-90790589D01*
X118783558Y-90828568D01*
X118745579Y-90847557D01*
D11*
X107950261Y-82246480D02*
X107474071Y-82246480D01*
X107474071Y-81246480D01*
X108283595Y-81722671D02*
X108616928Y-81722671D01*
X108759785Y-82246480D02*
X108283595Y-82246480D01*
X108283595Y-81246480D01*
X108759785Y-81246480D01*
X109188357Y-82246480D02*
X109188357Y-81246480D01*
X109426452Y-81246480D01*
X109569309Y-81294100D01*
X109664547Y-81389338D01*
X109712166Y-81484576D01*
X109759785Y-81675052D01*
X109759785Y-81817909D01*
X109712166Y-82008385D01*
X109664547Y-82103623D01*
X109569309Y-82198861D01*
X109426452Y-82246480D01*
X109188357Y-82246480D01*
X110759785Y-82246480D02*
X110426452Y-81770290D01*
X110188357Y-82246480D02*
X110188357Y-81246480D01*
X110569309Y-81246480D01*
X110664547Y-81294100D01*
X110712166Y-81341719D01*
X110759785Y-81436957D01*
X110759785Y-81579814D01*
X110712166Y-81675052D01*
X110664547Y-81722671D01*
X110569309Y-81770290D01*
X110188357Y-81770290D01*
X111188357Y-81722671D02*
X111521690Y-81722671D01*
X111664547Y-82246480D02*
X111188357Y-82246480D01*
X111188357Y-81246480D01*
X111664547Y-81246480D01*
X112093119Y-82246480D02*
X112093119Y-81246480D01*
X112331214Y-81246480D01*
X112474071Y-81294100D01*
X112569309Y-81389338D01*
X112616928Y-81484576D01*
X112664547Y-81675052D01*
X112664547Y-81817909D01*
X112616928Y-82008385D01*
X112569309Y-82103623D01*
X112474071Y-82198861D01*
X112331214Y-82246480D01*
X112093119Y-82246480D01*
X117314411Y-82303880D02*
X116838220Y-82303880D01*
X116838220Y-81303880D01*
X117647744Y-81780071D02*
X117981078Y-81780071D01*
X118123935Y-82303880D02*
X117647744Y-82303880D01*
X117647744Y-81303880D01*
X118123935Y-81303880D01*
X118552506Y-82303880D02*
X118552506Y-81303880D01*
X118790601Y-81303880D01*
X118933459Y-81351500D01*
X119028697Y-81446738D01*
X119076316Y-81541976D01*
X119123935Y-81732452D01*
X119123935Y-81875309D01*
X119076316Y-82065785D01*
X119028697Y-82161023D01*
X118933459Y-82256261D01*
X118790601Y-82303880D01*
X118552506Y-82303880D01*
X120076316Y-81351500D02*
X119981078Y-81303880D01*
X119838220Y-81303880D01*
X119695363Y-81351500D01*
X119600125Y-81446738D01*
X119552506Y-81541976D01*
X119504887Y-81732452D01*
X119504887Y-81875309D01*
X119552506Y-82065785D01*
X119600125Y-82161023D01*
X119695363Y-82256261D01*
X119838220Y-82303880D01*
X119933459Y-82303880D01*
X120076316Y-82256261D01*
X120123935Y-82208642D01*
X120123935Y-81875309D01*
X119933459Y-81875309D01*
X121123935Y-82303880D02*
X120790601Y-81827690D01*
X120552506Y-82303880D02*
X120552506Y-81303880D01*
X120933459Y-81303880D01*
X121028697Y-81351500D01*
X121076316Y-81399119D01*
X121123935Y-81494357D01*
X121123935Y-81637214D01*
X121076316Y-81732452D01*
X121028697Y-81780071D01*
X120933459Y-81827690D01*
X120552506Y-81827690D01*
X121552506Y-81780071D02*
X121885840Y-81780071D01*
X122028697Y-82303880D02*
X121552506Y-82303880D01*
X121552506Y-81303880D01*
X122028697Y-81303880D01*
X122457268Y-81780071D02*
X122790601Y-81780071D01*
X122933459Y-82303880D02*
X122457268Y-82303880D01*
X122457268Y-81303880D01*
X122933459Y-81303880D01*
X123362030Y-82303880D02*
X123362030Y-81303880D01*
X123933459Y-82303880D01*
X123933459Y-81303880D01*
X119162533Y-70861180D02*
X118829200Y-70384990D01*
X118591104Y-70861180D02*
X118591104Y-69861180D01*
X118972057Y-69861180D01*
X119067295Y-69908800D01*
X119114914Y-69956419D01*
X119162533Y-70051657D01*
X119162533Y-70194514D01*
X119114914Y-70289752D01*
X119067295Y-70337371D01*
X118972057Y-70384990D01*
X118591104Y-70384990D01*
X120114914Y-70861180D02*
X119543485Y-70861180D01*
X119829200Y-70861180D02*
X119829200Y-69861180D01*
X119733961Y-70004038D01*
X119638723Y-70099276D01*
X119543485Y-70146895D01*
X121997742Y-50560266D02*
X122045361Y-50607885D01*
X122092980Y-50750742D01*
X122092980Y-50845980D01*
X122045361Y-50988838D01*
X121950123Y-51084076D01*
X121854885Y-51131695D01*
X121664409Y-51179314D01*
X121521552Y-51179314D01*
X121331076Y-51131695D01*
X121235838Y-51084076D01*
X121140600Y-50988838D01*
X121092980Y-50845980D01*
X121092980Y-50750742D01*
X121140600Y-50607885D01*
X121188219Y-50560266D01*
X122092980Y-49607885D02*
X122092980Y-50179314D01*
X122092980Y-49893600D02*
X121092980Y-49893600D01*
X121235838Y-49988838D01*
X121331076Y-50084076D01*
X121378695Y-50179314D01*
X119987368Y-60340192D02*
X119987368Y-59578287D01*
X120368320Y-59959240D02*
X119606416Y-59959240D01*
X117870242Y-50522166D02*
X117917861Y-50569785D01*
X117965480Y-50712642D01*
X117965480Y-50807880D01*
X117917861Y-50950738D01*
X117822623Y-51045976D01*
X117727385Y-51093595D01*
X117536909Y-51141214D01*
X117394052Y-51141214D01*
X117203576Y-51093595D01*
X117108338Y-51045976D01*
X117013100Y-50950738D01*
X116965480Y-50807880D01*
X116965480Y-50712642D01*
X117013100Y-50569785D01*
X117060719Y-50522166D01*
X117060719Y-50141214D02*
X117013100Y-50093595D01*
X116965480Y-49998357D01*
X116965480Y-49760261D01*
X117013100Y-49665023D01*
X117060719Y-49617404D01*
X117155957Y-49569785D01*
X117251195Y-49569785D01*
X117394052Y-49617404D01*
X117965480Y-50188833D01*
X117965480Y-49569785D01*
X115593168Y-60378292D02*
X115593168Y-59616387D01*
X115974120Y-59997340D02*
X115212216Y-59997340D01*
X113869742Y-50750766D02*
X113917361Y-50798385D01*
X113964980Y-50941242D01*
X113964980Y-51036480D01*
X113917361Y-51179338D01*
X113822123Y-51274576D01*
X113726885Y-51322195D01*
X113536409Y-51369814D01*
X113393552Y-51369814D01*
X113203076Y-51322195D01*
X113107838Y-51274576D01*
X113012600Y-51179338D01*
X112964980Y-51036480D01*
X112964980Y-50941242D01*
X113012600Y-50798385D01*
X113060219Y-50750766D01*
X112964980Y-49893623D02*
X112964980Y-50084100D01*
X113012600Y-50179338D01*
X113060219Y-50226957D01*
X113203076Y-50322195D01*
X113393552Y-50369814D01*
X113774504Y-50369814D01*
X113869742Y-50322195D01*
X113917361Y-50274576D01*
X113964980Y-50179338D01*
X113964980Y-49988861D01*
X113917361Y-49893623D01*
X113869742Y-49846004D01*
X113774504Y-49798385D01*
X113536409Y-49798385D01*
X113441171Y-49846004D01*
X113393552Y-49893623D01*
X113345933Y-49988861D01*
X113345933Y-50179338D01*
X113393552Y-50274576D01*
X113441171Y-50322195D01*
X113536409Y-50369814D01*
X111821268Y-60479892D02*
X111821268Y-59717987D01*
X112202220Y-60098940D02*
X111440316Y-60098940D01*
D12*
X108160673Y-90733620D02*
X108160673Y-91018463D01*
X108141683Y-91075431D01*
X108103704Y-91113410D01*
X108046736Y-91132400D01*
X108008757Y-91132400D01*
X108331579Y-90771599D02*
X108350568Y-90752610D01*
X108388547Y-90733620D01*
X108483495Y-90733620D01*
X108521474Y-90752610D01*
X108540463Y-90771599D01*
X108559453Y-90809578D01*
X108559453Y-90847557D01*
X108540463Y-90904526D01*
X108312589Y-91132400D01*
X108559453Y-91132400D01*
D11*
X109691442Y-50649166D02*
X109739061Y-50696785D01*
X109786680Y-50839642D01*
X109786680Y-50934880D01*
X109739061Y-51077738D01*
X109643823Y-51172976D01*
X109548585Y-51220595D01*
X109358109Y-51268214D01*
X109215252Y-51268214D01*
X109024776Y-51220595D01*
X108929538Y-51172976D01*
X108834300Y-51077738D01*
X108786680Y-50934880D01*
X108786680Y-50839642D01*
X108834300Y-50696785D01*
X108881919Y-50649166D01*
X108786680Y-50315833D02*
X108786680Y-49649166D01*
X109786680Y-50077738D01*
X107681068Y-60479892D02*
X107681068Y-59717987D01*
X108062020Y-60098940D02*
X107300116Y-60098940D01*
M02*
