G04 #@! TF.GenerationSoftware,KiCad,Pcbnew,5.0.0-rc2-dev-unknown-ce1bd4c~62~ubuntu16.04.1*
G04 #@! TF.CreationDate,2018-03-08T22:00:34+01:00*
G04 #@! TF.ProjectId,BM20_multi,424D32305F6D756C74692E6B69636164,rev?*
G04 #@! TF.SameCoordinates,Original*
G04 #@! TF.FileFunction,Soldermask,Bot*
G04 #@! TF.FilePolarity,Negative*
%FSLAX46Y46*%
G04 Gerber Fmt 4.6, Leading zero omitted, Abs format (unit mm)*
G04 Created by KiCad (PCBNEW 5.0.0-rc2-dev-unknown-ce1bd4c~62~ubuntu16.04.1) date Thu Mar  8 22:00:34 2018*
%MOMM*%
%LPD*%
G01*
G04 APERTURE LIST*
%ADD10C,1.600000*%
%ADD11O,2.432000X2.127200*%
%ADD12R,2.432000X2.127200*%
%ADD13R,2.000000X2.400000*%
%ADD14R,1.700000X1.900000*%
%ADD15R,1.650000X1.900000*%
%ADD16O,2.432000X2.432000*%
%ADD17R,2.432000X2.432000*%
%ADD18O,1.400000X1.950000*%
%ADD19O,1.650000X1.350000*%
%ADD20R,0.800000X1.750000*%
%ADD21C,1.160000*%
%ADD22C,0.050000*%
%ADD23C,1.250000*%
G04 APERTURE END LIST*
D10*
X110083600Y-141986000D03*
X110083600Y-135986000D03*
X120497600Y-135986000D03*
X120497600Y-141986000D03*
D11*
X128016000Y-141224000D03*
X128016000Y-138684000D03*
X128016000Y-136144000D03*
X128016000Y-133604000D03*
X128016000Y-131064000D03*
X128016000Y-128524000D03*
X128016000Y-125984000D03*
X128016000Y-123444000D03*
X128016000Y-120904000D03*
X128016000Y-118364000D03*
X128016000Y-115824000D03*
X128016000Y-113284000D03*
X128016000Y-110744000D03*
X128016000Y-108204000D03*
X128016000Y-105664000D03*
X128016000Y-103124000D03*
X128016000Y-100584000D03*
D12*
X128016000Y-98044000D03*
D13*
X110070900Y-123907300D03*
X110070900Y-119907300D03*
D14*
X113665000Y-123219200D03*
X113665000Y-120519200D03*
D15*
X107734100Y-134817800D03*
X107734100Y-137317800D03*
D14*
X116217700Y-123257300D03*
X116217700Y-120557300D03*
D13*
X119265700Y-119989600D03*
X119265700Y-123989600D03*
D14*
X119786400Y-128063000D03*
X119786400Y-130763000D03*
D16*
X116344700Y-130670300D03*
D17*
X113804700Y-130670300D03*
D18*
X112553500Y-139796060D03*
X119553500Y-139796060D03*
D19*
X113553500Y-137096060D03*
X118553500Y-137096060D03*
D20*
X114753500Y-137096060D03*
X115403500Y-137096060D03*
X116053500Y-137096060D03*
X116703500Y-137096060D03*
X117353500Y-137096060D03*
D12*
X102616000Y-141224000D03*
D11*
X102616000Y-138684000D03*
X102616000Y-136144000D03*
X102616000Y-133604000D03*
X102616000Y-131064000D03*
X102616000Y-128524000D03*
X102616000Y-125984000D03*
X102616000Y-123444000D03*
X102616000Y-120904000D03*
X102616000Y-118364000D03*
X102616000Y-115824000D03*
X102616000Y-113284000D03*
X102616000Y-110744000D03*
X102616000Y-108204000D03*
X102616000Y-105664000D03*
X102616000Y-103124000D03*
X102616000Y-100584000D03*
X102616000Y-98044000D03*
D21*
X122332000Y-105062000D03*
D22*
G36*
X123382000Y-105642000D02*
X121282000Y-105642000D01*
X121282000Y-104482000D01*
X123382000Y-104482000D01*
X123382000Y-105642000D01*
X123382000Y-105642000D01*
G37*
D21*
X122332000Y-100262000D03*
D22*
G36*
X123382000Y-100842000D02*
X121282000Y-100842000D01*
X121282000Y-99682000D01*
X123382000Y-99682000D01*
X123382000Y-100842000D01*
X123382000Y-100842000D01*
G37*
D21*
X122332000Y-113462000D03*
D22*
G36*
X123382000Y-114042000D02*
X121282000Y-114042000D01*
X121282000Y-112882000D01*
X123382000Y-112882000D01*
X123382000Y-114042000D01*
X123382000Y-114042000D01*
G37*
D21*
X122332000Y-111062000D03*
D22*
G36*
X123382000Y-111642000D02*
X121282000Y-111642000D01*
X121282000Y-110482000D01*
X123382000Y-110482000D01*
X123382000Y-111642000D01*
X123382000Y-111642000D01*
G37*
D21*
X122332000Y-106262000D03*
D22*
G36*
X123382000Y-106842000D02*
X121282000Y-106842000D01*
X121282000Y-105682000D01*
X123382000Y-105682000D01*
X123382000Y-106842000D01*
X123382000Y-106842000D01*
G37*
D21*
X122332000Y-97862000D03*
D22*
G36*
X123382000Y-98442000D02*
X121282000Y-98442000D01*
X121282000Y-97282000D01*
X123382000Y-97282000D01*
X123382000Y-98442000D01*
X123382000Y-98442000D01*
G37*
D21*
X122332000Y-101462000D03*
D22*
G36*
X123382000Y-102042000D02*
X121282000Y-102042000D01*
X121282000Y-100882000D01*
X123382000Y-100882000D01*
X123382000Y-102042000D01*
X123382000Y-102042000D01*
G37*
D21*
X122332000Y-112262000D03*
D22*
G36*
X123382000Y-112842000D02*
X121282000Y-112842000D01*
X121282000Y-111682000D01*
X123382000Y-111682000D01*
X123382000Y-112842000D01*
X123382000Y-112842000D01*
G37*
D21*
X122332000Y-108662000D03*
D22*
G36*
X123382000Y-109242000D02*
X121282000Y-109242000D01*
X121282000Y-108082000D01*
X123382000Y-108082000D01*
X123382000Y-109242000D01*
X123382000Y-109242000D01*
G37*
D21*
X122332000Y-102662000D03*
D22*
G36*
X123382000Y-103242000D02*
X121282000Y-103242000D01*
X121282000Y-102082000D01*
X123382000Y-102082000D01*
X123382000Y-103242000D01*
X123382000Y-103242000D01*
G37*
D21*
X122332000Y-109862000D03*
D22*
G36*
X123382000Y-110442000D02*
X121282000Y-110442000D01*
X121282000Y-109282000D01*
X123382000Y-109282000D01*
X123382000Y-110442000D01*
X123382000Y-110442000D01*
G37*
D21*
X122332000Y-103862000D03*
D22*
G36*
X123382000Y-104442000D02*
X121282000Y-104442000D01*
X121282000Y-103282000D01*
X123382000Y-103282000D01*
X123382000Y-104442000D01*
X123382000Y-104442000D01*
G37*
D21*
X122332000Y-99062000D03*
D22*
G36*
X123382000Y-99642000D02*
X121282000Y-99642000D01*
X121282000Y-98482000D01*
X123382000Y-98482000D01*
X123382000Y-99642000D01*
X123382000Y-99642000D01*
G37*
D21*
X122332000Y-107462000D03*
D22*
G36*
X123382000Y-108042000D02*
X121282000Y-108042000D01*
X121282000Y-106882000D01*
X123382000Y-106882000D01*
X123382000Y-108042000D01*
X123382000Y-108042000D01*
G37*
D21*
X108032000Y-103862000D03*
D22*
G36*
X109082000Y-104442000D02*
X106982000Y-104442000D01*
X106982000Y-103282000D01*
X109082000Y-103282000D01*
X109082000Y-104442000D01*
X109082000Y-104442000D01*
G37*
D21*
X108032000Y-101462000D03*
D22*
G36*
X109082000Y-102042000D02*
X106982000Y-102042000D01*
X106982000Y-100882000D01*
X109082000Y-100882000D01*
X109082000Y-102042000D01*
X109082000Y-102042000D01*
G37*
D21*
X108032000Y-102662000D03*
D22*
G36*
X109082000Y-103242000D02*
X106982000Y-103242000D01*
X106982000Y-102082000D01*
X109082000Y-102082000D01*
X109082000Y-103242000D01*
X109082000Y-103242000D01*
G37*
D21*
X108032000Y-99062000D03*
D22*
G36*
X109082000Y-99642000D02*
X106982000Y-99642000D01*
X106982000Y-98482000D01*
X109082000Y-98482000D01*
X109082000Y-99642000D01*
X109082000Y-99642000D01*
G37*
D21*
X108032000Y-100262000D03*
D22*
G36*
X109082000Y-100842000D02*
X106982000Y-100842000D01*
X106982000Y-99682000D01*
X109082000Y-99682000D01*
X109082000Y-100842000D01*
X109082000Y-100842000D01*
G37*
D21*
X108032000Y-97862000D03*
D22*
G36*
X109082000Y-98442000D02*
X106982000Y-98442000D01*
X106982000Y-97282000D01*
X109082000Y-97282000D01*
X109082000Y-98442000D01*
X109082000Y-98442000D01*
G37*
D21*
X108032000Y-108662000D03*
D22*
G36*
X109082000Y-109242000D02*
X106982000Y-109242000D01*
X106982000Y-108082000D01*
X109082000Y-108082000D01*
X109082000Y-109242000D01*
X109082000Y-109242000D01*
G37*
D21*
X108032000Y-106262000D03*
D22*
G36*
X109082000Y-106842000D02*
X106982000Y-106842000D01*
X106982000Y-105682000D01*
X109082000Y-105682000D01*
X109082000Y-106842000D01*
X109082000Y-106842000D01*
G37*
D21*
X108032000Y-107462000D03*
D22*
G36*
X109082000Y-108042000D02*
X106982000Y-108042000D01*
X106982000Y-106882000D01*
X109082000Y-106882000D01*
X109082000Y-108042000D01*
X109082000Y-108042000D01*
G37*
D21*
X108032000Y-105062000D03*
D22*
G36*
X109082000Y-105642000D02*
X106982000Y-105642000D01*
X106982000Y-104482000D01*
X109082000Y-104482000D01*
X109082000Y-105642000D01*
X109082000Y-105642000D01*
G37*
D21*
X108032000Y-111062000D03*
D22*
G36*
X109082000Y-111642000D02*
X106982000Y-111642000D01*
X106982000Y-110482000D01*
X109082000Y-110482000D01*
X109082000Y-111642000D01*
X109082000Y-111642000D01*
G37*
D21*
X108032000Y-109862000D03*
D22*
G36*
X109082000Y-110442000D02*
X106982000Y-110442000D01*
X106982000Y-109282000D01*
X109082000Y-109282000D01*
X109082000Y-110442000D01*
X109082000Y-110442000D01*
G37*
D21*
X108032000Y-112262000D03*
D22*
G36*
X109082000Y-112842000D02*
X106982000Y-112842000D01*
X106982000Y-111682000D01*
X109082000Y-111682000D01*
X109082000Y-112842000D01*
X109082000Y-112842000D01*
G37*
D21*
X108032000Y-113462000D03*
D22*
G36*
X109082000Y-114042000D02*
X106982000Y-114042000D01*
X106982000Y-112882000D01*
X109082000Y-112882000D01*
X109082000Y-114042000D01*
X109082000Y-114042000D01*
G37*
D23*
X109982000Y-114712000D03*
D22*
G36*
X110607000Y-113662000D02*
X110607000Y-115762000D01*
X109357000Y-115762000D01*
X109357000Y-113662000D01*
X110607000Y-113662000D01*
X110607000Y-113662000D01*
G37*
D23*
X111252000Y-114712000D03*
D22*
G36*
X111877000Y-113662000D02*
X111877000Y-115762000D01*
X110627000Y-115762000D01*
X110627000Y-113662000D01*
X111877000Y-113662000D01*
X111877000Y-113662000D01*
G37*
D23*
X112522000Y-114712000D03*
D22*
G36*
X113147000Y-113662000D02*
X113147000Y-115762000D01*
X111897000Y-115762000D01*
X111897000Y-113662000D01*
X113147000Y-113662000D01*
X113147000Y-113662000D01*
G37*
D23*
X113792000Y-114712000D03*
D22*
G36*
X114417000Y-113662000D02*
X114417000Y-115762000D01*
X113167000Y-115762000D01*
X113167000Y-113662000D01*
X114417000Y-113662000D01*
X114417000Y-113662000D01*
G37*
D23*
X115062000Y-114712000D03*
D22*
G36*
X115687000Y-113662000D02*
X115687000Y-115762000D01*
X114437000Y-115762000D01*
X114437000Y-113662000D01*
X115687000Y-113662000D01*
X115687000Y-113662000D01*
G37*
D23*
X116332000Y-114712000D03*
D22*
G36*
X116957000Y-113662000D02*
X116957000Y-115762000D01*
X115707000Y-115762000D01*
X115707000Y-113662000D01*
X116957000Y-113662000D01*
X116957000Y-113662000D01*
G37*
D23*
X117602000Y-114712000D03*
D22*
G36*
X118227000Y-113662000D02*
X118227000Y-115762000D01*
X116977000Y-115762000D01*
X116977000Y-113662000D01*
X118227000Y-113662000D01*
X118227000Y-113662000D01*
G37*
D23*
X118872000Y-114712000D03*
D22*
G36*
X119497000Y-113662000D02*
X119497000Y-115762000D01*
X118247000Y-115762000D01*
X118247000Y-113662000D01*
X119497000Y-113662000D01*
X119497000Y-113662000D01*
G37*
D23*
X120142000Y-114712000D03*
D22*
G36*
X120767000Y-113662000D02*
X120767000Y-115762000D01*
X119517000Y-115762000D01*
X119517000Y-113662000D01*
X120767000Y-113662000D01*
X120767000Y-113662000D01*
G37*
D10*
X139547600Y-141986000D03*
X139547600Y-135986000D03*
X149961600Y-135986000D03*
X149961600Y-141986000D03*
D11*
X157480000Y-141224000D03*
X157480000Y-138684000D03*
X157480000Y-136144000D03*
X157480000Y-133604000D03*
X157480000Y-131064000D03*
X157480000Y-128524000D03*
X157480000Y-125984000D03*
X157480000Y-123444000D03*
X157480000Y-120904000D03*
X157480000Y-118364000D03*
X157480000Y-115824000D03*
X157480000Y-113284000D03*
X157480000Y-110744000D03*
X157480000Y-108204000D03*
X157480000Y-105664000D03*
X157480000Y-103124000D03*
X157480000Y-100584000D03*
D12*
X157480000Y-98044000D03*
D13*
X139534900Y-123907300D03*
X139534900Y-119907300D03*
D14*
X143129000Y-123219200D03*
X143129000Y-120519200D03*
D15*
X137198100Y-134817800D03*
X137198100Y-137317800D03*
D14*
X145681700Y-123257300D03*
X145681700Y-120557300D03*
D13*
X148729700Y-119989600D03*
X148729700Y-123989600D03*
D14*
X149250400Y-128063000D03*
X149250400Y-130763000D03*
D16*
X145808700Y-130670300D03*
D17*
X143268700Y-130670300D03*
D18*
X142017500Y-139796060D03*
X149017500Y-139796060D03*
D19*
X143017500Y-137096060D03*
X148017500Y-137096060D03*
D20*
X144217500Y-137096060D03*
X144867500Y-137096060D03*
X145517500Y-137096060D03*
X146167500Y-137096060D03*
X146817500Y-137096060D03*
D12*
X132080000Y-141224000D03*
D11*
X132080000Y-138684000D03*
X132080000Y-136144000D03*
X132080000Y-133604000D03*
X132080000Y-131064000D03*
X132080000Y-128524000D03*
X132080000Y-125984000D03*
X132080000Y-123444000D03*
X132080000Y-120904000D03*
X132080000Y-118364000D03*
X132080000Y-115824000D03*
X132080000Y-113284000D03*
X132080000Y-110744000D03*
X132080000Y-108204000D03*
X132080000Y-105664000D03*
X132080000Y-103124000D03*
X132080000Y-100584000D03*
X132080000Y-98044000D03*
D21*
X151796000Y-105062000D03*
D22*
G36*
X152846000Y-105642000D02*
X150746000Y-105642000D01*
X150746000Y-104482000D01*
X152846000Y-104482000D01*
X152846000Y-105642000D01*
X152846000Y-105642000D01*
G37*
D21*
X151796000Y-100262000D03*
D22*
G36*
X152846000Y-100842000D02*
X150746000Y-100842000D01*
X150746000Y-99682000D01*
X152846000Y-99682000D01*
X152846000Y-100842000D01*
X152846000Y-100842000D01*
G37*
D21*
X151796000Y-113462000D03*
D22*
G36*
X152846000Y-114042000D02*
X150746000Y-114042000D01*
X150746000Y-112882000D01*
X152846000Y-112882000D01*
X152846000Y-114042000D01*
X152846000Y-114042000D01*
G37*
D21*
X151796000Y-111062000D03*
D22*
G36*
X152846000Y-111642000D02*
X150746000Y-111642000D01*
X150746000Y-110482000D01*
X152846000Y-110482000D01*
X152846000Y-111642000D01*
X152846000Y-111642000D01*
G37*
D21*
X151796000Y-106262000D03*
D22*
G36*
X152846000Y-106842000D02*
X150746000Y-106842000D01*
X150746000Y-105682000D01*
X152846000Y-105682000D01*
X152846000Y-106842000D01*
X152846000Y-106842000D01*
G37*
D21*
X151796000Y-97862000D03*
D22*
G36*
X152846000Y-98442000D02*
X150746000Y-98442000D01*
X150746000Y-97282000D01*
X152846000Y-97282000D01*
X152846000Y-98442000D01*
X152846000Y-98442000D01*
G37*
D21*
X151796000Y-101462000D03*
D22*
G36*
X152846000Y-102042000D02*
X150746000Y-102042000D01*
X150746000Y-100882000D01*
X152846000Y-100882000D01*
X152846000Y-102042000D01*
X152846000Y-102042000D01*
G37*
D21*
X151796000Y-112262000D03*
D22*
G36*
X152846000Y-112842000D02*
X150746000Y-112842000D01*
X150746000Y-111682000D01*
X152846000Y-111682000D01*
X152846000Y-112842000D01*
X152846000Y-112842000D01*
G37*
D21*
X151796000Y-108662000D03*
D22*
G36*
X152846000Y-109242000D02*
X150746000Y-109242000D01*
X150746000Y-108082000D01*
X152846000Y-108082000D01*
X152846000Y-109242000D01*
X152846000Y-109242000D01*
G37*
D21*
X151796000Y-102662000D03*
D22*
G36*
X152846000Y-103242000D02*
X150746000Y-103242000D01*
X150746000Y-102082000D01*
X152846000Y-102082000D01*
X152846000Y-103242000D01*
X152846000Y-103242000D01*
G37*
D21*
X151796000Y-109862000D03*
D22*
G36*
X152846000Y-110442000D02*
X150746000Y-110442000D01*
X150746000Y-109282000D01*
X152846000Y-109282000D01*
X152846000Y-110442000D01*
X152846000Y-110442000D01*
G37*
D21*
X151796000Y-103862000D03*
D22*
G36*
X152846000Y-104442000D02*
X150746000Y-104442000D01*
X150746000Y-103282000D01*
X152846000Y-103282000D01*
X152846000Y-104442000D01*
X152846000Y-104442000D01*
G37*
D21*
X151796000Y-99062000D03*
D22*
G36*
X152846000Y-99642000D02*
X150746000Y-99642000D01*
X150746000Y-98482000D01*
X152846000Y-98482000D01*
X152846000Y-99642000D01*
X152846000Y-99642000D01*
G37*
D21*
X151796000Y-107462000D03*
D22*
G36*
X152846000Y-108042000D02*
X150746000Y-108042000D01*
X150746000Y-106882000D01*
X152846000Y-106882000D01*
X152846000Y-108042000D01*
X152846000Y-108042000D01*
G37*
D21*
X137496000Y-103862000D03*
D22*
G36*
X138546000Y-104442000D02*
X136446000Y-104442000D01*
X136446000Y-103282000D01*
X138546000Y-103282000D01*
X138546000Y-104442000D01*
X138546000Y-104442000D01*
G37*
D21*
X137496000Y-101462000D03*
D22*
G36*
X138546000Y-102042000D02*
X136446000Y-102042000D01*
X136446000Y-100882000D01*
X138546000Y-100882000D01*
X138546000Y-102042000D01*
X138546000Y-102042000D01*
G37*
D21*
X137496000Y-102662000D03*
D22*
G36*
X138546000Y-103242000D02*
X136446000Y-103242000D01*
X136446000Y-102082000D01*
X138546000Y-102082000D01*
X138546000Y-103242000D01*
X138546000Y-103242000D01*
G37*
D21*
X137496000Y-99062000D03*
D22*
G36*
X138546000Y-99642000D02*
X136446000Y-99642000D01*
X136446000Y-98482000D01*
X138546000Y-98482000D01*
X138546000Y-99642000D01*
X138546000Y-99642000D01*
G37*
D21*
X137496000Y-100262000D03*
D22*
G36*
X138546000Y-100842000D02*
X136446000Y-100842000D01*
X136446000Y-99682000D01*
X138546000Y-99682000D01*
X138546000Y-100842000D01*
X138546000Y-100842000D01*
G37*
D21*
X137496000Y-97862000D03*
D22*
G36*
X138546000Y-98442000D02*
X136446000Y-98442000D01*
X136446000Y-97282000D01*
X138546000Y-97282000D01*
X138546000Y-98442000D01*
X138546000Y-98442000D01*
G37*
D21*
X137496000Y-108662000D03*
D22*
G36*
X138546000Y-109242000D02*
X136446000Y-109242000D01*
X136446000Y-108082000D01*
X138546000Y-108082000D01*
X138546000Y-109242000D01*
X138546000Y-109242000D01*
G37*
D21*
X137496000Y-106262000D03*
D22*
G36*
X138546000Y-106842000D02*
X136446000Y-106842000D01*
X136446000Y-105682000D01*
X138546000Y-105682000D01*
X138546000Y-106842000D01*
X138546000Y-106842000D01*
G37*
D21*
X137496000Y-107462000D03*
D22*
G36*
X138546000Y-108042000D02*
X136446000Y-108042000D01*
X136446000Y-106882000D01*
X138546000Y-106882000D01*
X138546000Y-108042000D01*
X138546000Y-108042000D01*
G37*
D21*
X137496000Y-105062000D03*
D22*
G36*
X138546000Y-105642000D02*
X136446000Y-105642000D01*
X136446000Y-104482000D01*
X138546000Y-104482000D01*
X138546000Y-105642000D01*
X138546000Y-105642000D01*
G37*
D21*
X137496000Y-111062000D03*
D22*
G36*
X138546000Y-111642000D02*
X136446000Y-111642000D01*
X136446000Y-110482000D01*
X138546000Y-110482000D01*
X138546000Y-111642000D01*
X138546000Y-111642000D01*
G37*
D21*
X137496000Y-109862000D03*
D22*
G36*
X138546000Y-110442000D02*
X136446000Y-110442000D01*
X136446000Y-109282000D01*
X138546000Y-109282000D01*
X138546000Y-110442000D01*
X138546000Y-110442000D01*
G37*
D21*
X137496000Y-112262000D03*
D22*
G36*
X138546000Y-112842000D02*
X136446000Y-112842000D01*
X136446000Y-111682000D01*
X138546000Y-111682000D01*
X138546000Y-112842000D01*
X138546000Y-112842000D01*
G37*
D21*
X137496000Y-113462000D03*
D22*
G36*
X138546000Y-114042000D02*
X136446000Y-114042000D01*
X136446000Y-112882000D01*
X138546000Y-112882000D01*
X138546000Y-114042000D01*
X138546000Y-114042000D01*
G37*
D23*
X139446000Y-114712000D03*
D22*
G36*
X140071000Y-113662000D02*
X140071000Y-115762000D01*
X138821000Y-115762000D01*
X138821000Y-113662000D01*
X140071000Y-113662000D01*
X140071000Y-113662000D01*
G37*
D23*
X140716000Y-114712000D03*
D22*
G36*
X141341000Y-113662000D02*
X141341000Y-115762000D01*
X140091000Y-115762000D01*
X140091000Y-113662000D01*
X141341000Y-113662000D01*
X141341000Y-113662000D01*
G37*
D23*
X141986000Y-114712000D03*
D22*
G36*
X142611000Y-113662000D02*
X142611000Y-115762000D01*
X141361000Y-115762000D01*
X141361000Y-113662000D01*
X142611000Y-113662000D01*
X142611000Y-113662000D01*
G37*
D23*
X143256000Y-114712000D03*
D22*
G36*
X143881000Y-113662000D02*
X143881000Y-115762000D01*
X142631000Y-115762000D01*
X142631000Y-113662000D01*
X143881000Y-113662000D01*
X143881000Y-113662000D01*
G37*
D23*
X144526000Y-114712000D03*
D22*
G36*
X145151000Y-113662000D02*
X145151000Y-115762000D01*
X143901000Y-115762000D01*
X143901000Y-113662000D01*
X145151000Y-113662000D01*
X145151000Y-113662000D01*
G37*
D23*
X145796000Y-114712000D03*
D22*
G36*
X146421000Y-113662000D02*
X146421000Y-115762000D01*
X145171000Y-115762000D01*
X145171000Y-113662000D01*
X146421000Y-113662000D01*
X146421000Y-113662000D01*
G37*
D23*
X147066000Y-114712000D03*
D22*
G36*
X147691000Y-113662000D02*
X147691000Y-115762000D01*
X146441000Y-115762000D01*
X146441000Y-113662000D01*
X147691000Y-113662000D01*
X147691000Y-113662000D01*
G37*
D23*
X148336000Y-114712000D03*
D22*
G36*
X148961000Y-113662000D02*
X148961000Y-115762000D01*
X147711000Y-115762000D01*
X147711000Y-113662000D01*
X148961000Y-113662000D01*
X148961000Y-113662000D01*
G37*
D23*
X149606000Y-114712000D03*
D22*
G36*
X150231000Y-113662000D02*
X150231000Y-115762000D01*
X148981000Y-115762000D01*
X148981000Y-113662000D01*
X150231000Y-113662000D01*
X150231000Y-113662000D01*
G37*
D10*
X139547600Y-94742000D03*
X139547600Y-88742000D03*
X149961600Y-88742000D03*
X149961600Y-94742000D03*
D11*
X157480000Y-93980000D03*
X157480000Y-91440000D03*
X157480000Y-88900000D03*
X157480000Y-86360000D03*
X157480000Y-83820000D03*
X157480000Y-81280000D03*
X157480000Y-78740000D03*
X157480000Y-76200000D03*
X157480000Y-73660000D03*
X157480000Y-71120000D03*
X157480000Y-68580000D03*
X157480000Y-66040000D03*
X157480000Y-63500000D03*
X157480000Y-60960000D03*
X157480000Y-58420000D03*
X157480000Y-55880000D03*
X157480000Y-53340000D03*
D12*
X157480000Y-50800000D03*
D13*
X139534900Y-76663300D03*
X139534900Y-72663300D03*
D14*
X143129000Y-75975200D03*
X143129000Y-73275200D03*
D15*
X137198100Y-87573800D03*
X137198100Y-90073800D03*
D14*
X145681700Y-76013300D03*
X145681700Y-73313300D03*
D13*
X148729700Y-72745600D03*
X148729700Y-76745600D03*
D14*
X149250400Y-80819000D03*
X149250400Y-83519000D03*
D16*
X145808700Y-83426300D03*
D17*
X143268700Y-83426300D03*
D18*
X142017500Y-92552060D03*
X149017500Y-92552060D03*
D19*
X143017500Y-89852060D03*
X148017500Y-89852060D03*
D20*
X144217500Y-89852060D03*
X144867500Y-89852060D03*
X145517500Y-89852060D03*
X146167500Y-89852060D03*
X146817500Y-89852060D03*
D12*
X132080000Y-93980000D03*
D11*
X132080000Y-91440000D03*
X132080000Y-88900000D03*
X132080000Y-86360000D03*
X132080000Y-83820000D03*
X132080000Y-81280000D03*
X132080000Y-78740000D03*
X132080000Y-76200000D03*
X132080000Y-73660000D03*
X132080000Y-71120000D03*
X132080000Y-68580000D03*
X132080000Y-66040000D03*
X132080000Y-63500000D03*
X132080000Y-60960000D03*
X132080000Y-58420000D03*
X132080000Y-55880000D03*
X132080000Y-53340000D03*
X132080000Y-50800000D03*
D21*
X151796000Y-57818000D03*
D22*
G36*
X152846000Y-58398000D02*
X150746000Y-58398000D01*
X150746000Y-57238000D01*
X152846000Y-57238000D01*
X152846000Y-58398000D01*
X152846000Y-58398000D01*
G37*
D21*
X151796000Y-53018000D03*
D22*
G36*
X152846000Y-53598000D02*
X150746000Y-53598000D01*
X150746000Y-52438000D01*
X152846000Y-52438000D01*
X152846000Y-53598000D01*
X152846000Y-53598000D01*
G37*
D21*
X151796000Y-66218000D03*
D22*
G36*
X152846000Y-66798000D02*
X150746000Y-66798000D01*
X150746000Y-65638000D01*
X152846000Y-65638000D01*
X152846000Y-66798000D01*
X152846000Y-66798000D01*
G37*
D21*
X151796000Y-63818000D03*
D22*
G36*
X152846000Y-64398000D02*
X150746000Y-64398000D01*
X150746000Y-63238000D01*
X152846000Y-63238000D01*
X152846000Y-64398000D01*
X152846000Y-64398000D01*
G37*
D21*
X151796000Y-59018000D03*
D22*
G36*
X152846000Y-59598000D02*
X150746000Y-59598000D01*
X150746000Y-58438000D01*
X152846000Y-58438000D01*
X152846000Y-59598000D01*
X152846000Y-59598000D01*
G37*
D21*
X151796000Y-50618000D03*
D22*
G36*
X152846000Y-51198000D02*
X150746000Y-51198000D01*
X150746000Y-50038000D01*
X152846000Y-50038000D01*
X152846000Y-51198000D01*
X152846000Y-51198000D01*
G37*
D21*
X151796000Y-54218000D03*
D22*
G36*
X152846000Y-54798000D02*
X150746000Y-54798000D01*
X150746000Y-53638000D01*
X152846000Y-53638000D01*
X152846000Y-54798000D01*
X152846000Y-54798000D01*
G37*
D21*
X151796000Y-65018000D03*
D22*
G36*
X152846000Y-65598000D02*
X150746000Y-65598000D01*
X150746000Y-64438000D01*
X152846000Y-64438000D01*
X152846000Y-65598000D01*
X152846000Y-65598000D01*
G37*
D21*
X151796000Y-61418000D03*
D22*
G36*
X152846000Y-61998000D02*
X150746000Y-61998000D01*
X150746000Y-60838000D01*
X152846000Y-60838000D01*
X152846000Y-61998000D01*
X152846000Y-61998000D01*
G37*
D21*
X151796000Y-55418000D03*
D22*
G36*
X152846000Y-55998000D02*
X150746000Y-55998000D01*
X150746000Y-54838000D01*
X152846000Y-54838000D01*
X152846000Y-55998000D01*
X152846000Y-55998000D01*
G37*
D21*
X151796000Y-62618000D03*
D22*
G36*
X152846000Y-63198000D02*
X150746000Y-63198000D01*
X150746000Y-62038000D01*
X152846000Y-62038000D01*
X152846000Y-63198000D01*
X152846000Y-63198000D01*
G37*
D21*
X151796000Y-56618000D03*
D22*
G36*
X152846000Y-57198000D02*
X150746000Y-57198000D01*
X150746000Y-56038000D01*
X152846000Y-56038000D01*
X152846000Y-57198000D01*
X152846000Y-57198000D01*
G37*
D21*
X151796000Y-51818000D03*
D22*
G36*
X152846000Y-52398000D02*
X150746000Y-52398000D01*
X150746000Y-51238000D01*
X152846000Y-51238000D01*
X152846000Y-52398000D01*
X152846000Y-52398000D01*
G37*
D21*
X151796000Y-60218000D03*
D22*
G36*
X152846000Y-60798000D02*
X150746000Y-60798000D01*
X150746000Y-59638000D01*
X152846000Y-59638000D01*
X152846000Y-60798000D01*
X152846000Y-60798000D01*
G37*
D21*
X137496000Y-56618000D03*
D22*
G36*
X138546000Y-57198000D02*
X136446000Y-57198000D01*
X136446000Y-56038000D01*
X138546000Y-56038000D01*
X138546000Y-57198000D01*
X138546000Y-57198000D01*
G37*
D21*
X137496000Y-54218000D03*
D22*
G36*
X138546000Y-54798000D02*
X136446000Y-54798000D01*
X136446000Y-53638000D01*
X138546000Y-53638000D01*
X138546000Y-54798000D01*
X138546000Y-54798000D01*
G37*
D21*
X137496000Y-55418000D03*
D22*
G36*
X138546000Y-55998000D02*
X136446000Y-55998000D01*
X136446000Y-54838000D01*
X138546000Y-54838000D01*
X138546000Y-55998000D01*
X138546000Y-55998000D01*
G37*
D21*
X137496000Y-51818000D03*
D22*
G36*
X138546000Y-52398000D02*
X136446000Y-52398000D01*
X136446000Y-51238000D01*
X138546000Y-51238000D01*
X138546000Y-52398000D01*
X138546000Y-52398000D01*
G37*
D21*
X137496000Y-53018000D03*
D22*
G36*
X138546000Y-53598000D02*
X136446000Y-53598000D01*
X136446000Y-52438000D01*
X138546000Y-52438000D01*
X138546000Y-53598000D01*
X138546000Y-53598000D01*
G37*
D21*
X137496000Y-50618000D03*
D22*
G36*
X138546000Y-51198000D02*
X136446000Y-51198000D01*
X136446000Y-50038000D01*
X138546000Y-50038000D01*
X138546000Y-51198000D01*
X138546000Y-51198000D01*
G37*
D21*
X137496000Y-61418000D03*
D22*
G36*
X138546000Y-61998000D02*
X136446000Y-61998000D01*
X136446000Y-60838000D01*
X138546000Y-60838000D01*
X138546000Y-61998000D01*
X138546000Y-61998000D01*
G37*
D21*
X137496000Y-59018000D03*
D22*
G36*
X138546000Y-59598000D02*
X136446000Y-59598000D01*
X136446000Y-58438000D01*
X138546000Y-58438000D01*
X138546000Y-59598000D01*
X138546000Y-59598000D01*
G37*
D21*
X137496000Y-60218000D03*
D22*
G36*
X138546000Y-60798000D02*
X136446000Y-60798000D01*
X136446000Y-59638000D01*
X138546000Y-59638000D01*
X138546000Y-60798000D01*
X138546000Y-60798000D01*
G37*
D21*
X137496000Y-57818000D03*
D22*
G36*
X138546000Y-58398000D02*
X136446000Y-58398000D01*
X136446000Y-57238000D01*
X138546000Y-57238000D01*
X138546000Y-58398000D01*
X138546000Y-58398000D01*
G37*
D21*
X137496000Y-63818000D03*
D22*
G36*
X138546000Y-64398000D02*
X136446000Y-64398000D01*
X136446000Y-63238000D01*
X138546000Y-63238000D01*
X138546000Y-64398000D01*
X138546000Y-64398000D01*
G37*
D21*
X137496000Y-62618000D03*
D22*
G36*
X138546000Y-63198000D02*
X136446000Y-63198000D01*
X136446000Y-62038000D01*
X138546000Y-62038000D01*
X138546000Y-63198000D01*
X138546000Y-63198000D01*
G37*
D21*
X137496000Y-65018000D03*
D22*
G36*
X138546000Y-65598000D02*
X136446000Y-65598000D01*
X136446000Y-64438000D01*
X138546000Y-64438000D01*
X138546000Y-65598000D01*
X138546000Y-65598000D01*
G37*
D21*
X137496000Y-66218000D03*
D22*
G36*
X138546000Y-66798000D02*
X136446000Y-66798000D01*
X136446000Y-65638000D01*
X138546000Y-65638000D01*
X138546000Y-66798000D01*
X138546000Y-66798000D01*
G37*
D23*
X139446000Y-67468000D03*
D22*
G36*
X140071000Y-66418000D02*
X140071000Y-68518000D01*
X138821000Y-68518000D01*
X138821000Y-66418000D01*
X140071000Y-66418000D01*
X140071000Y-66418000D01*
G37*
D23*
X140716000Y-67468000D03*
D22*
G36*
X141341000Y-66418000D02*
X141341000Y-68518000D01*
X140091000Y-68518000D01*
X140091000Y-66418000D01*
X141341000Y-66418000D01*
X141341000Y-66418000D01*
G37*
D23*
X141986000Y-67468000D03*
D22*
G36*
X142611000Y-66418000D02*
X142611000Y-68518000D01*
X141361000Y-68518000D01*
X141361000Y-66418000D01*
X142611000Y-66418000D01*
X142611000Y-66418000D01*
G37*
D23*
X143256000Y-67468000D03*
D22*
G36*
X143881000Y-66418000D02*
X143881000Y-68518000D01*
X142631000Y-68518000D01*
X142631000Y-66418000D01*
X143881000Y-66418000D01*
X143881000Y-66418000D01*
G37*
D23*
X144526000Y-67468000D03*
D22*
G36*
X145151000Y-66418000D02*
X145151000Y-68518000D01*
X143901000Y-68518000D01*
X143901000Y-66418000D01*
X145151000Y-66418000D01*
X145151000Y-66418000D01*
G37*
D23*
X145796000Y-67468000D03*
D22*
G36*
X146421000Y-66418000D02*
X146421000Y-68518000D01*
X145171000Y-68518000D01*
X145171000Y-66418000D01*
X146421000Y-66418000D01*
X146421000Y-66418000D01*
G37*
D23*
X147066000Y-67468000D03*
D22*
G36*
X147691000Y-66418000D02*
X147691000Y-68518000D01*
X146441000Y-68518000D01*
X146441000Y-66418000D01*
X147691000Y-66418000D01*
X147691000Y-66418000D01*
G37*
D23*
X148336000Y-67468000D03*
D22*
G36*
X148961000Y-66418000D02*
X148961000Y-68518000D01*
X147711000Y-68518000D01*
X147711000Y-66418000D01*
X148961000Y-66418000D01*
X148961000Y-66418000D01*
G37*
D23*
X149606000Y-67468000D03*
D22*
G36*
X150231000Y-66418000D02*
X150231000Y-68518000D01*
X148981000Y-68518000D01*
X148981000Y-66418000D01*
X150231000Y-66418000D01*
X150231000Y-66418000D01*
G37*
D23*
X120142000Y-67468000D03*
D22*
G36*
X120767000Y-66418000D02*
X120767000Y-68518000D01*
X119517000Y-68518000D01*
X119517000Y-66418000D01*
X120767000Y-66418000D01*
X120767000Y-66418000D01*
G37*
D23*
X118872000Y-67468000D03*
D22*
G36*
X119497000Y-66418000D02*
X119497000Y-68518000D01*
X118247000Y-68518000D01*
X118247000Y-66418000D01*
X119497000Y-66418000D01*
X119497000Y-66418000D01*
G37*
D23*
X117602000Y-67468000D03*
D22*
G36*
X118227000Y-66418000D02*
X118227000Y-68518000D01*
X116977000Y-68518000D01*
X116977000Y-66418000D01*
X118227000Y-66418000D01*
X118227000Y-66418000D01*
G37*
D23*
X116332000Y-67468000D03*
D22*
G36*
X116957000Y-66418000D02*
X116957000Y-68518000D01*
X115707000Y-68518000D01*
X115707000Y-66418000D01*
X116957000Y-66418000D01*
X116957000Y-66418000D01*
G37*
D23*
X115062000Y-67468000D03*
D22*
G36*
X115687000Y-66418000D02*
X115687000Y-68518000D01*
X114437000Y-68518000D01*
X114437000Y-66418000D01*
X115687000Y-66418000D01*
X115687000Y-66418000D01*
G37*
D23*
X113792000Y-67468000D03*
D22*
G36*
X114417000Y-66418000D02*
X114417000Y-68518000D01*
X113167000Y-68518000D01*
X113167000Y-66418000D01*
X114417000Y-66418000D01*
X114417000Y-66418000D01*
G37*
D23*
X112522000Y-67468000D03*
D22*
G36*
X113147000Y-66418000D02*
X113147000Y-68518000D01*
X111897000Y-68518000D01*
X111897000Y-66418000D01*
X113147000Y-66418000D01*
X113147000Y-66418000D01*
G37*
D23*
X111252000Y-67468000D03*
D22*
G36*
X111877000Y-66418000D02*
X111877000Y-68518000D01*
X110627000Y-68518000D01*
X110627000Y-66418000D01*
X111877000Y-66418000D01*
X111877000Y-66418000D01*
G37*
D23*
X109982000Y-67468000D03*
D22*
G36*
X110607000Y-66418000D02*
X110607000Y-68518000D01*
X109357000Y-68518000D01*
X109357000Y-66418000D01*
X110607000Y-66418000D01*
X110607000Y-66418000D01*
G37*
D21*
X108032000Y-66218000D03*
D22*
G36*
X109082000Y-66798000D02*
X106982000Y-66798000D01*
X106982000Y-65638000D01*
X109082000Y-65638000D01*
X109082000Y-66798000D01*
X109082000Y-66798000D01*
G37*
D21*
X108032000Y-65018000D03*
D22*
G36*
X109082000Y-65598000D02*
X106982000Y-65598000D01*
X106982000Y-64438000D01*
X109082000Y-64438000D01*
X109082000Y-65598000D01*
X109082000Y-65598000D01*
G37*
D21*
X108032000Y-62618000D03*
D22*
G36*
X109082000Y-63198000D02*
X106982000Y-63198000D01*
X106982000Y-62038000D01*
X109082000Y-62038000D01*
X109082000Y-63198000D01*
X109082000Y-63198000D01*
G37*
D21*
X108032000Y-63818000D03*
D22*
G36*
X109082000Y-64398000D02*
X106982000Y-64398000D01*
X106982000Y-63238000D01*
X109082000Y-63238000D01*
X109082000Y-64398000D01*
X109082000Y-64398000D01*
G37*
D21*
X108032000Y-57818000D03*
D22*
G36*
X109082000Y-58398000D02*
X106982000Y-58398000D01*
X106982000Y-57238000D01*
X109082000Y-57238000D01*
X109082000Y-58398000D01*
X109082000Y-58398000D01*
G37*
D21*
X108032000Y-60218000D03*
D22*
G36*
X109082000Y-60798000D02*
X106982000Y-60798000D01*
X106982000Y-59638000D01*
X109082000Y-59638000D01*
X109082000Y-60798000D01*
X109082000Y-60798000D01*
G37*
D21*
X108032000Y-59018000D03*
D22*
G36*
X109082000Y-59598000D02*
X106982000Y-59598000D01*
X106982000Y-58438000D01*
X109082000Y-58438000D01*
X109082000Y-59598000D01*
X109082000Y-59598000D01*
G37*
D21*
X108032000Y-61418000D03*
D22*
G36*
X109082000Y-61998000D02*
X106982000Y-61998000D01*
X106982000Y-60838000D01*
X109082000Y-60838000D01*
X109082000Y-61998000D01*
X109082000Y-61998000D01*
G37*
D21*
X108032000Y-50618000D03*
D22*
G36*
X109082000Y-51198000D02*
X106982000Y-51198000D01*
X106982000Y-50038000D01*
X109082000Y-50038000D01*
X109082000Y-51198000D01*
X109082000Y-51198000D01*
G37*
D21*
X108032000Y-53018000D03*
D22*
G36*
X109082000Y-53598000D02*
X106982000Y-53598000D01*
X106982000Y-52438000D01*
X109082000Y-52438000D01*
X109082000Y-53598000D01*
X109082000Y-53598000D01*
G37*
D21*
X108032000Y-51818000D03*
D22*
G36*
X109082000Y-52398000D02*
X106982000Y-52398000D01*
X106982000Y-51238000D01*
X109082000Y-51238000D01*
X109082000Y-52398000D01*
X109082000Y-52398000D01*
G37*
D21*
X108032000Y-55418000D03*
D22*
G36*
X109082000Y-55998000D02*
X106982000Y-55998000D01*
X106982000Y-54838000D01*
X109082000Y-54838000D01*
X109082000Y-55998000D01*
X109082000Y-55998000D01*
G37*
D21*
X108032000Y-54218000D03*
D22*
G36*
X109082000Y-54798000D02*
X106982000Y-54798000D01*
X106982000Y-53638000D01*
X109082000Y-53638000D01*
X109082000Y-54798000D01*
X109082000Y-54798000D01*
G37*
D21*
X108032000Y-56618000D03*
D22*
G36*
X109082000Y-57198000D02*
X106982000Y-57198000D01*
X106982000Y-56038000D01*
X109082000Y-56038000D01*
X109082000Y-57198000D01*
X109082000Y-57198000D01*
G37*
D21*
X122332000Y-60218000D03*
D22*
G36*
X123382000Y-60798000D02*
X121282000Y-60798000D01*
X121282000Y-59638000D01*
X123382000Y-59638000D01*
X123382000Y-60798000D01*
X123382000Y-60798000D01*
G37*
D21*
X122332000Y-51818000D03*
D22*
G36*
X123382000Y-52398000D02*
X121282000Y-52398000D01*
X121282000Y-51238000D01*
X123382000Y-51238000D01*
X123382000Y-52398000D01*
X123382000Y-52398000D01*
G37*
D21*
X122332000Y-56618000D03*
D22*
G36*
X123382000Y-57198000D02*
X121282000Y-57198000D01*
X121282000Y-56038000D01*
X123382000Y-56038000D01*
X123382000Y-57198000D01*
X123382000Y-57198000D01*
G37*
D21*
X122332000Y-62618000D03*
D22*
G36*
X123382000Y-63198000D02*
X121282000Y-63198000D01*
X121282000Y-62038000D01*
X123382000Y-62038000D01*
X123382000Y-63198000D01*
X123382000Y-63198000D01*
G37*
D21*
X122332000Y-55418000D03*
D22*
G36*
X123382000Y-55998000D02*
X121282000Y-55998000D01*
X121282000Y-54838000D01*
X123382000Y-54838000D01*
X123382000Y-55998000D01*
X123382000Y-55998000D01*
G37*
D21*
X122332000Y-61418000D03*
D22*
G36*
X123382000Y-61998000D02*
X121282000Y-61998000D01*
X121282000Y-60838000D01*
X123382000Y-60838000D01*
X123382000Y-61998000D01*
X123382000Y-61998000D01*
G37*
D21*
X122332000Y-65018000D03*
D22*
G36*
X123382000Y-65598000D02*
X121282000Y-65598000D01*
X121282000Y-64438000D01*
X123382000Y-64438000D01*
X123382000Y-65598000D01*
X123382000Y-65598000D01*
G37*
D21*
X122332000Y-54218000D03*
D22*
G36*
X123382000Y-54798000D02*
X121282000Y-54798000D01*
X121282000Y-53638000D01*
X123382000Y-53638000D01*
X123382000Y-54798000D01*
X123382000Y-54798000D01*
G37*
D21*
X122332000Y-50618000D03*
D22*
G36*
X123382000Y-51198000D02*
X121282000Y-51198000D01*
X121282000Y-50038000D01*
X123382000Y-50038000D01*
X123382000Y-51198000D01*
X123382000Y-51198000D01*
G37*
D21*
X122332000Y-59018000D03*
D22*
G36*
X123382000Y-59598000D02*
X121282000Y-59598000D01*
X121282000Y-58438000D01*
X123382000Y-58438000D01*
X123382000Y-59598000D01*
X123382000Y-59598000D01*
G37*
D21*
X122332000Y-63818000D03*
D22*
G36*
X123382000Y-64398000D02*
X121282000Y-64398000D01*
X121282000Y-63238000D01*
X123382000Y-63238000D01*
X123382000Y-64398000D01*
X123382000Y-64398000D01*
G37*
D21*
X122332000Y-66218000D03*
D22*
G36*
X123382000Y-66798000D02*
X121282000Y-66798000D01*
X121282000Y-65638000D01*
X123382000Y-65638000D01*
X123382000Y-66798000D01*
X123382000Y-66798000D01*
G37*
D21*
X122332000Y-53018000D03*
D22*
G36*
X123382000Y-53598000D02*
X121282000Y-53598000D01*
X121282000Y-52438000D01*
X123382000Y-52438000D01*
X123382000Y-53598000D01*
X123382000Y-53598000D01*
G37*
D21*
X122332000Y-57818000D03*
D22*
G36*
X123382000Y-58398000D02*
X121282000Y-58398000D01*
X121282000Y-57238000D01*
X123382000Y-57238000D01*
X123382000Y-58398000D01*
X123382000Y-58398000D01*
G37*
D10*
X120497600Y-94742000D03*
X120497600Y-88742000D03*
D12*
X128016000Y-50800000D03*
D11*
X128016000Y-53340000D03*
X128016000Y-55880000D03*
X128016000Y-58420000D03*
X128016000Y-60960000D03*
X128016000Y-63500000D03*
X128016000Y-66040000D03*
X128016000Y-68580000D03*
X128016000Y-71120000D03*
X128016000Y-73660000D03*
X128016000Y-76200000D03*
X128016000Y-78740000D03*
X128016000Y-81280000D03*
X128016000Y-83820000D03*
X128016000Y-86360000D03*
X128016000Y-88900000D03*
X128016000Y-91440000D03*
X128016000Y-93980000D03*
X102616000Y-50800000D03*
X102616000Y-53340000D03*
X102616000Y-55880000D03*
X102616000Y-58420000D03*
X102616000Y-60960000D03*
X102616000Y-63500000D03*
X102616000Y-66040000D03*
X102616000Y-68580000D03*
X102616000Y-71120000D03*
X102616000Y-73660000D03*
X102616000Y-76200000D03*
X102616000Y-78740000D03*
X102616000Y-81280000D03*
X102616000Y-83820000D03*
X102616000Y-86360000D03*
X102616000Y-88900000D03*
X102616000Y-91440000D03*
D12*
X102616000Y-93980000D03*
D13*
X110070900Y-72663300D03*
X110070900Y-76663300D03*
X119265700Y-76745600D03*
X119265700Y-72745600D03*
D15*
X107734100Y-90073800D03*
X107734100Y-87573800D03*
D17*
X113804700Y-83426300D03*
D16*
X116344700Y-83426300D03*
D10*
X110083600Y-88742000D03*
X110083600Y-94742000D03*
D14*
X116217700Y-73313300D03*
X116217700Y-76013300D03*
X113665000Y-73275200D03*
X113665000Y-75975200D03*
X119786400Y-83519000D03*
X119786400Y-80819000D03*
D20*
X117353500Y-89852060D03*
X116703500Y-89852060D03*
X116053500Y-89852060D03*
X115403500Y-89852060D03*
X114753500Y-89852060D03*
D19*
X118553500Y-89852060D03*
X113553500Y-89852060D03*
D18*
X119553500Y-92552060D03*
X112553500Y-92552060D03*
M02*
