M48
;DRILL file {KiCad 5.0.0-rc2-dev-unknown-ce1bd4c~62~ubuntu16.04.1} date Thu Mar  8 22:00:36 2018
;FORMAT={-:-/ absolute / metric / decimal}
FMAT,2
METRIC,TZ
T1C0.400
T2C0.500
T3C0.550
T4C1.016
T5C1.200
%
G90
G05
M71
T1
X105.029Y-81.902
X105.029Y-129.146
X105.093Y-74.435
X105.093Y-121.679
X106.286Y-91.262
X106.286Y-138.506
X107.175Y-84.48
X107.175Y-131.724
X108.115Y-67.793
X108.115Y-115.037
X109.601Y-63.83
X109.601Y-111.074
X111.239Y-62.89
X111.239Y-110.134
X111.506Y-58.941
X111.506Y-106.185
X112.966Y-65.596
X112.966Y-112.84
X113.678Y-85.598
X113.678Y-132.842
X114.516Y-65.761
X114.516Y-113.005
X114.846Y-60.731
X114.846Y-107.975
X114.96Y-77.686
X114.96Y-124.93
X115.138Y-80.797
X115.138Y-128.041
X115.762Y-69.098
X115.762Y-116.342
X116.713Y-94.64
X116.713Y-141.884
X117.526Y-65.684
X117.526Y-112.928
X117.538Y-77.66
X117.538Y-124.904
X119.126Y-61.277
X119.126Y-108.521
X119.825Y-85.623
X119.825Y-132.867
X120.331Y-72.847
X120.331Y-74.549
X120.331Y-120.091
X120.331Y-121.793
X120.587Y-63.792
X120.587Y-111.036
X122.239Y-77.61
X122.239Y-124.854
X124.193Y-75.324
X124.193Y-122.568
X124.65Y-79.121
X124.65Y-126.365
X124.892Y-77.279
X124.892Y-124.523
X134.493Y-81.902
X134.493Y-129.146
X134.556Y-74.435
X134.556Y-121.679
X135.75Y-91.262
X135.75Y-138.506
X136.639Y-84.48
X136.639Y-131.724
X137.579Y-67.793
X137.579Y-115.037
X139.065Y-63.83
X139.065Y-111.074
X140.703Y-62.89
X140.703Y-110.134
X140.97Y-58.941
X140.97Y-106.185
X142.43Y-65.596
X142.43Y-112.84
X143.142Y-85.598
X143.142Y-132.842
X143.98Y-65.761
X143.98Y-113.005
X144.31Y-60.731
X144.31Y-107.975
X144.424Y-77.686
X144.424Y-124.93
X144.602Y-80.797
X144.602Y-128.041
X145.226Y-69.098
X145.226Y-116.342
X146.177Y-94.64
X146.177Y-141.884
X146.99Y-65.684
X146.99Y-112.928
X147.002Y-77.66
X147.002Y-124.904
X148.59Y-61.277
X148.59Y-108.521
X149.288Y-85.623
X149.288Y-132.867
X149.795Y-72.847
X149.795Y-74.549
X149.795Y-120.091
X149.795Y-121.793
X150.05Y-63.792
X150.05Y-111.036
X151.703Y-77.61
X151.703Y-124.854
X153.657Y-75.324
X153.657Y-122.568
X154.114Y-79.121
X154.114Y-126.365
X154.356Y-77.279
X154.356Y-124.523
T4
X102.616Y-98.044
X102.616Y-100.584
X102.616Y-103.124
X102.616Y-105.664
X102.616Y-108.204
X102.616Y-110.744
X102.616Y-113.284
X102.616Y-115.824
X102.616Y-118.364
X102.616Y-120.904
X102.616Y-123.444
X102.616Y-125.984
X102.616Y-128.524
X102.616Y-131.064
X102.616Y-133.604
X102.616Y-136.144
X102.616Y-138.684
X102.616Y-141.224
X157.48Y-98.044
X157.48Y-100.584
X157.48Y-103.124
X157.48Y-105.664
X157.48Y-108.204
X157.48Y-110.744
X157.48Y-113.284
X157.48Y-115.824
X157.48Y-118.364
X157.48Y-120.904
X157.48Y-123.444
X157.48Y-125.984
X157.48Y-128.524
X157.48Y-131.064
X157.48Y-133.604
X157.48Y-136.144
X157.48Y-138.684
X157.48Y-141.224
X157.48Y-50.8
X157.48Y-53.34
X157.48Y-55.88
X157.48Y-58.42
X157.48Y-60.96
X157.48Y-63.5
X157.48Y-66.04
X157.48Y-68.58
X157.48Y-71.12
X157.48Y-73.66
X157.48Y-76.2
X157.48Y-78.74
X157.48Y-81.28
X157.48Y-83.82
X157.48Y-86.36
X157.48Y-88.9
X157.48Y-91.44
X157.48Y-93.98
X113.805Y-130.67
X116.345Y-130.67
X143.269Y-130.67
X145.809Y-130.67
X113.805Y-83.426
X116.345Y-83.426
X132.08Y-98.044
X132.08Y-100.584
X132.08Y-103.124
X132.08Y-105.664
X132.08Y-108.204
X132.08Y-110.744
X132.08Y-113.284
X132.08Y-115.824
X132.08Y-118.364
X132.08Y-120.904
X132.08Y-123.444
X132.08Y-125.984
X132.08Y-128.524
X132.08Y-131.064
X132.08Y-133.604
X132.08Y-136.144
X132.08Y-138.684
X132.08Y-141.224
X128.016Y-50.8
X128.016Y-53.34
X128.016Y-55.88
X128.016Y-58.42
X128.016Y-60.96
X128.016Y-63.5
X128.016Y-66.04
X128.016Y-68.58
X128.016Y-71.12
X128.016Y-73.66
X128.016Y-76.2
X128.016Y-78.74
X128.016Y-81.28
X128.016Y-83.82
X128.016Y-86.36
X128.016Y-88.9
X128.016Y-91.44
X128.016Y-93.98
X102.616Y-50.8
X102.616Y-53.34
X102.616Y-55.88
X102.616Y-58.42
X102.616Y-60.96
X102.616Y-63.5
X102.616Y-66.04
X102.616Y-68.58
X102.616Y-71.12
X102.616Y-73.66
X102.616Y-76.2
X102.616Y-78.74
X102.616Y-81.28
X102.616Y-83.82
X102.616Y-86.36
X102.616Y-88.9
X102.616Y-91.44
X102.616Y-93.98
X143.269Y-83.426
X145.809Y-83.426
X128.016Y-98.044
X128.016Y-100.584
X128.016Y-103.124
X128.016Y-105.664
X128.016Y-108.204
X128.016Y-110.744
X128.016Y-113.284
X128.016Y-115.824
X128.016Y-118.364
X128.016Y-120.904
X128.016Y-123.444
X128.016Y-125.984
X128.016Y-128.524
X128.016Y-131.064
X128.016Y-133.604
X128.016Y-136.144
X128.016Y-138.684
X128.016Y-141.224
X132.08Y-50.8
X132.08Y-53.34
X132.08Y-55.88
X132.08Y-58.42
X132.08Y-60.96
X132.08Y-63.5
X132.08Y-66.04
X132.08Y-68.58
X132.08Y-71.12
X132.08Y-73.66
X132.08Y-76.2
X132.08Y-78.74
X132.08Y-81.28
X132.08Y-83.82
X132.08Y-86.36
X132.08Y-88.9
X132.08Y-91.44
X132.08Y-93.98
T5
X120.498Y-88.742
X120.498Y-94.742
X110.084Y-88.742
X110.084Y-94.742
X110.084Y-135.986
X110.084Y-141.986
X149.962Y-135.986
X149.962Y-141.986
X139.548Y-88.742
X139.548Y-94.742
X149.962Y-88.742
X149.962Y-94.742
X120.498Y-135.986
X120.498Y-141.986
X139.548Y-135.986
X139.548Y-141.986
T2
X142.017Y-140.121G85X142.017Y-139.471
G05
X149.017Y-140.121G85X149.017Y-139.471
G05
X112.553Y-92.877G85X112.553Y-92.227
G05
X119.553Y-92.877G85X119.553Y-92.227
G05
X112.553Y-140.121G85X112.553Y-139.471
G05
X119.553Y-140.121G85X119.553Y-139.471
G05
X142.017Y-92.877G85X142.017Y-92.227
G05
X149.017Y-92.877G85X149.017Y-92.227
G05
T3
X113.403Y-89.852G85X113.703Y-89.852
G05
X118.403Y-89.852G85X118.703Y-89.852
G05
X113.403Y-137.096G85X113.703Y-137.096
G05
X118.403Y-137.096G85X118.703Y-137.096
G05
X142.868Y-89.852G85X143.167Y-89.852
G05
X147.868Y-89.852G85X148.167Y-89.852
G05
X142.868Y-137.096G85X143.167Y-137.096
G05
X147.868Y-137.096G85X148.167Y-137.096
G05
T0
M30
