M48
; DRILL file {KiCad 6.0.0-rc1-unknown-9cac0a3~66~ubuntu16.04.1} date Ut 22. január 2019, 10:57:59 CET
; FORMAT={-:-/ absolute / metric / decimal}
; #@! TF.CreationDate,2019-01-22T10:57:59+01:00
; #@! TF.GenerationSoftware,Kicad,Pcbnew,6.0.0-rc1-unknown-9cac0a3~66~ubuntu16.04.1
FMAT,2
METRIC
T1C0.400
T2C0.500
T3C0.550
T4C0.599
T5C0.800
T6C0.813
T7C1.000
T8C1.016
T9C2.301
T10C3.048
%
G90
G05
T1
X107.262Y-95.123
X107.362Y-102.484
X107.389Y-103.505
X107.887Y-97.155
X108.618Y-100.851
X110.31Y-97.155
X110.517Y-104.568
X110.971Y-96.62
X111.118Y-103.966
X111.453Y-83.693
X111.572Y-96.019
X112.758Y-93.662
X112.911Y-100.901
X112.936Y-87.185
X113.139Y-104.661
X115.554Y-82.633
X115.554Y-83.483
X117.549Y-100.711
X117.802Y-92.583
X119.581Y-101.981
X120.09Y-94.107
X120.904Y-81.915
X121.285Y-86.106
X121.359Y-80.645
X122.047Y-77.851
X122.178Y-80.587
X123.503Y-82.408
X123.503Y-83.708
X123.899Y-80.0
X124.46Y-110.363
X124.803Y-82.408
X124.803Y-83.708
X125.913Y-110.002
X126.068Y-86.487
X126.185Y-85.471
X126.401Y-81.021
X127.254Y-100.711
X127.335Y-82.862
X129.794Y-74.676
X129.995Y-87.757
X130.048Y-89.154
X130.393Y-104.823
X132.207Y-76.962
X135.445Y-104.874
X135.679Y-114.45
X136.779Y-80.518
X136.906Y-84.836
X136.906Y-93.091
X137.033Y-95.504
X137.033Y-97.282
X137.795Y-100.965
X138.938Y-87.63
X139.573Y-91.059
X139.852Y-97.41
X140.081Y-99.822
X140.701Y-106.236
X141.351Y-94.996
X141.74Y-91.051
X143.411Y-88.745
X143.736Y-87.605
X143.764Y-77.688
X144.201Y-81.445
X144.328Y-96.66
X144.386Y-82.22
X145.761Y-97.41
X145.819Y-96.66
X145.923Y-82.296
X146.987Y-98.354
X147.088Y-84.736
X147.272Y-92.503
X147.498Y-84.108
X147.582Y-93.186
X147.701Y-99.17
X147.716Y-80.044
X148.107Y-83.61
X148.209Y-78.613
X148.269Y-90.429
X148.289Y-93.435
X148.336Y-91.196
X148.336Y-107.569
X148.888Y-84.349
X148.971Y-100.838
X149.195Y-83.647
X150.111Y-85.852
X150.223Y-84.089
X150.241Y-106.426
X150.588Y-83.071
X150.937Y-86.208
X151.327Y-85.141
X151.951Y-84.168
X152.172Y-110.213
X152.173Y-111.03
X152.202Y-111.816
X153.118Y-83.889
X153.128Y-83.139
X153.416Y-77.031
X153.886Y-91.174
X153.921Y-83.871
X154.125Y-86.36
X154.125Y-88.01
X154.217Y-94.66
X154.417Y-92.964
X154.432Y-76.479
X154.595Y-93.853
X154.665Y-91.914
X154.76Y-83.845
X154.813Y-80.01
X154.878Y-84.872
X155.102Y-92.632
X155.134Y-95.262
X155.187Y-90.919
X155.661Y-94.475
X155.76Y-90.435
X155.838Y-89.446
X156.373Y-89.995
X156.566Y-89.267
X156.614Y-87.846
X156.677Y-87.008
X157.16Y-89.725
X157.988Y-93.599
X158.091Y-82.811
X158.227Y-85.164
X158.245Y-94.662
X158.533Y-95.354
X158.735Y-83.74
X158.832Y-82.698
X158.877Y-90.551
X158.929Y-78.033
X158.96Y-85.324
X159.004Y-94.742
X159.766Y-80.264
X160.782Y-98.679
X161.036Y-81.534
X162.088Y-90.908
X163.027Y-85.319
X163.104Y-86.081
X163.754Y-87.1
X163.827Y-87.909
X163.993Y-86.119
X164.338Y-91.44
X164.465Y-82.55
X171.704Y-89.154
X171.831Y-91.44
X176.124Y-97.968
X179.578Y-89.916
X180.467Y-98.425
X180.764Y-78.202
X185.166Y-78.256
X185.547Y-82.042
X185.547Y-106.426
X189.357Y-78.105
X190.881Y-100.432
X190.889Y-82.415
T3
X108.225Y-102.394
X108.225Y-106.393
T4
X163.195Y-99.708
X163.195Y-101.206
T5
X144.697Y-104.309
X149.579Y-104.309
T6
X107.93Y-82.296
X107.93Y-84.836
X109.929Y-82.296
X109.929Y-84.836
T7
X106.075Y-101.569
X106.075Y-107.219
T8
X177.038Y-116.586
X177.038Y-119.126
X179.578Y-116.586
X179.578Y-119.126
X182.118Y-116.586
X182.118Y-119.126
X184.658Y-116.586
X184.658Y-119.126
X187.198Y-116.586
X187.198Y-119.126
X189.738Y-116.586
X189.738Y-119.126
X192.278Y-116.586
X192.278Y-119.126
X194.818Y-116.586
X194.818Y-119.126
X192.278Y-75.946
X192.278Y-78.486
X192.278Y-81.026
X192.278Y-83.566
X192.278Y-86.106
X192.278Y-88.646
X192.278Y-91.186
X192.278Y-93.726
X192.278Y-96.266
X192.278Y-98.806
X192.278Y-101.346
X192.278Y-103.886
X192.278Y-106.426
X192.278Y-108.966
X192.278Y-111.506
X192.278Y-114.046
X194.818Y-75.946
X194.818Y-78.486
X194.818Y-81.026
X194.818Y-83.566
X194.818Y-86.106
X194.818Y-88.646
X194.818Y-91.186
X194.818Y-93.726
X194.818Y-96.266
X194.818Y-98.806
X194.818Y-101.346
X194.818Y-103.886
X194.818Y-106.426
X194.818Y-108.966
X194.818Y-111.506
X194.818Y-114.046
X131.318Y-116.332
X131.318Y-118.872
X133.858Y-116.332
X133.858Y-118.872
X136.398Y-116.332
X136.398Y-118.872
X138.938Y-116.332
X138.938Y-118.872
X141.478Y-116.332
X141.478Y-118.872
X144.018Y-116.332
X144.018Y-118.872
X146.558Y-116.332
X146.558Y-118.872
X149.098Y-116.332
X149.098Y-118.872
X197.358Y-70.866
X197.358Y-73.406
X197.358Y-75.946
X197.358Y-78.486
X197.358Y-81.026
X197.358Y-83.566
X197.358Y-86.106
X197.358Y-88.646
X197.358Y-91.186
X197.358Y-93.726
X197.358Y-96.266
X197.358Y-98.806
X197.358Y-101.346
X197.358Y-103.886
X197.358Y-106.426
X197.358Y-108.966
X197.358Y-111.506
X197.358Y-114.046
X199.898Y-70.866
X199.898Y-73.406
X199.898Y-75.946
X199.898Y-78.486
X199.898Y-81.026
X199.898Y-83.566
X199.898Y-86.106
X199.898Y-88.646
X199.898Y-91.186
X199.898Y-93.726
X199.898Y-96.266
X199.898Y-98.806
X199.898Y-101.346
X199.898Y-103.886
X199.898Y-106.426
X199.898Y-108.966
X199.898Y-111.506
X199.898Y-114.046
X187.185Y-83.579
X187.185Y-86.119
X187.185Y-88.659
X187.185Y-91.199
X187.185Y-93.739
X187.185Y-96.279
X187.185Y-98.819
X187.185Y-101.359
X189.725Y-83.579
X189.725Y-86.119
X189.725Y-88.659
X189.725Y-91.199
X189.725Y-93.739
X189.725Y-96.279
X189.725Y-98.819
X189.725Y-101.359
X122.883Y-88.011
X122.883Y-90.551
X122.883Y-93.091
X122.883Y-95.631
X122.883Y-98.171
X125.423Y-88.011
X125.423Y-90.551
X125.423Y-93.091
X125.423Y-95.631
X125.423Y-98.171
X149.098Y-70.866
X149.098Y-73.406
X151.638Y-70.866
X151.638Y-73.406
X154.178Y-70.866
X154.178Y-73.406
X156.718Y-70.866
X156.718Y-73.406
X159.258Y-70.866
X159.258Y-73.406
X161.798Y-70.866
X161.798Y-73.406
X164.338Y-70.866
X164.338Y-73.406
X166.878Y-70.866
X166.878Y-73.406
X131.773Y-82.169
X131.773Y-84.709
X131.773Y-87.249
X131.773Y-89.789
X131.773Y-92.329
X131.773Y-94.869
X167.005Y-91.186
X167.005Y-93.726
X167.005Y-96.266
X169.545Y-91.186
X169.545Y-93.726
X169.545Y-96.266
X171.958Y-70.866
X171.958Y-73.406
X174.498Y-70.866
X174.498Y-73.406
X177.038Y-70.866
X177.038Y-73.406
X179.578Y-70.866
X179.578Y-73.406
X182.118Y-70.866
X182.118Y-73.406
X184.658Y-70.866
X184.658Y-73.406
X187.198Y-70.866
X187.198Y-73.406
X189.738Y-70.866
X189.738Y-73.406
X154.178Y-108.966
X156.718Y-108.966
X159.258Y-108.966
X161.798Y-108.966
X164.338Y-108.966
X166.878Y-108.966
X169.418Y-108.966
X171.958Y-108.966
X154.178Y-119.126
X156.718Y-119.126
X159.258Y-119.126
X161.798Y-119.126
X164.338Y-119.126
X166.878Y-119.126
X169.418Y-119.126
X171.958Y-119.126
X111.707Y-106.934
X122.174Y-70.866
X122.174Y-73.406
X124.714Y-70.866
X124.714Y-73.406
X127.254Y-70.866
X127.254Y-73.406
X129.794Y-70.866
X129.794Y-73.406
X132.334Y-70.866
X132.334Y-73.406
X134.874Y-70.866
X134.874Y-73.406
X137.414Y-70.866
X137.414Y-73.406
X139.954Y-70.866
X139.954Y-73.406
X142.494Y-70.866
X142.494Y-73.406
X145.034Y-70.866
X145.034Y-73.406
T9
X105.23Y-77.567
X105.23Y-89.565
T10
X193.548Y-70.866
X169.418Y-86.106
X117.348Y-119.126
X199.898Y-119.126
X118.618Y-70.866
X169.418Y-114.046
T2
G00X105.799Y-92.257
M15
G01X106.449Y-92.257
M16
G05
G00X105.799Y-99.257
M15
G01X106.449Y-99.257
M16
G05
T3
G00X108.824Y-93.107
M15
G01X108.824Y-93.407
M16
G05
G00X108.824Y-98.107
M15
G01X108.824Y-98.407
M16
G05
T8
G00X106.573Y-112.585
M15
G01X106.573Y-114.109
M16
G05
G00X108.097Y-118.427
M15
G01X109.621Y-118.427
M16
G05
G00X112.669Y-112.585
M15
G01X112.669Y-114.109
M16
G05
T0
M30
