G04 #@! TF.GenerationSoftware,KiCad,Pcbnew,6.0.0-rc1-unknown-9cac0a3~66~ubuntu16.04.1*
G04 #@! TF.CreationDate,2019-01-22T10:57:24+01:00
G04 #@! TF.ProjectId,arduino_mega_all_pins,61726475-696e-46f5-9f6d-6567615f616c,rev?*
G04 #@! TF.SameCoordinates,Original*
G04 #@! TF.FileFunction,Legend,Top*
G04 #@! TF.FilePolarity,Positive*
%FSLAX46Y46*%
G04 Gerber Fmt 4.6, Leading zero omitted, Abs format (unit mm)*
G04 Created by KiCad (PCBNEW 6.0.0-rc1-unknown-9cac0a3~66~ubuntu16.04.1) date Ut 22. január 2019, 10:57:24 CET*
%MOMM*%
%LPD*%
G04 APERTURE LIST*
%ADD10C,0.150000*%
%ADD11C,0.100000*%
%ADD12C,0.120000*%
%ADD13C,0.127000*%
%ADD14C,0.050800*%
%ADD15C,0.099060*%
%ADD16C,0.001000*%
%ADD17C,0.076200*%
%ADD18C,0.050000*%
G04 APERTURE END LIST*
D10*
X199898000Y-68326000D02*
X202438000Y-70866000D01*
X202438000Y-70866000D02*
X202438000Y-81026000D01*
X202438000Y-81026000D02*
X204978000Y-83566000D01*
X204978000Y-83566000D02*
X204978000Y-117856000D01*
X204978000Y-117856000D02*
X202438000Y-120396000D01*
X202438000Y-120396000D02*
X202438000Y-121666000D01*
X128823815Y-89317580D02*
X129395243Y-89317580D01*
X129109529Y-90317580D02*
X129109529Y-89317580D01*
X129633339Y-89317580D02*
X130300005Y-90317580D01*
X130300005Y-89317580D02*
X129633339Y-90317580D01*
X131770380Y-116300285D02*
X131770380Y-116871714D01*
X131770380Y-116586000D02*
X130770380Y-116586000D01*
X130913238Y-116681238D01*
X131008476Y-116776476D01*
X131056095Y-116871714D01*
X202438000Y-121666000D02*
X103378000Y-121666000D01*
X103378000Y-68326000D02*
X199898000Y-68326000D01*
X103378000Y-121666000D02*
X103378000Y-68326000D01*
X119233157Y-75833314D02*
X119614109Y-75833314D01*
X119376014Y-76499980D02*
X119376014Y-75642838D01*
X119423633Y-75547600D01*
X119518871Y-75499980D01*
X119614109Y-75499980D01*
X120376014Y-75833314D02*
X120376014Y-76499980D01*
X119947442Y-75833314D02*
X119947442Y-76357123D01*
X119995061Y-76452361D01*
X120090300Y-76499980D01*
X120233157Y-76499980D01*
X120328395Y-76452361D01*
X120376014Y-76404742D01*
X120995061Y-76499980D02*
X120899823Y-76452361D01*
X120852204Y-76357123D01*
X120852204Y-75499980D01*
X121518871Y-76499980D02*
X121423633Y-76452361D01*
X121376014Y-76357123D01*
X121376014Y-75499980D01*
X121899823Y-76499980D02*
X121899823Y-75499980D01*
X122233157Y-76214266D01*
X122566490Y-75499980D01*
X122566490Y-76499980D01*
X123423633Y-76452361D02*
X123328395Y-76499980D01*
X123137919Y-76499980D01*
X123042680Y-76452361D01*
X122995061Y-76357123D01*
X122995061Y-75976171D01*
X123042680Y-75880933D01*
X123137919Y-75833314D01*
X123328395Y-75833314D01*
X123423633Y-75880933D01*
X123471252Y-75976171D01*
X123471252Y-76071409D01*
X122995061Y-76166647D01*
X124328395Y-75833314D02*
X124328395Y-76642838D01*
X124280776Y-76738076D01*
X124233157Y-76785695D01*
X124137919Y-76833314D01*
X123995061Y-76833314D01*
X123899823Y-76785695D01*
X124328395Y-76452361D02*
X124233157Y-76499980D01*
X124042680Y-76499980D01*
X123947442Y-76452361D01*
X123899823Y-76404742D01*
X123852204Y-76309504D01*
X123852204Y-76023790D01*
X123899823Y-75928552D01*
X123947442Y-75880933D01*
X124042680Y-75833314D01*
X124233157Y-75833314D01*
X124328395Y-75880933D01*
X125233157Y-76499980D02*
X125233157Y-75976171D01*
X125185538Y-75880933D01*
X125090300Y-75833314D01*
X124899823Y-75833314D01*
X124804585Y-75880933D01*
X125233157Y-76452361D02*
X125137919Y-76499980D01*
X124899823Y-76499980D01*
X124804585Y-76452361D01*
X124756966Y-76357123D01*
X124756966Y-76261885D01*
X124804585Y-76166647D01*
X124899823Y-76119028D01*
X125137919Y-76119028D01*
X125233157Y-76071409D01*
X126471252Y-76499980D02*
X126471252Y-75499980D01*
X126471252Y-75880933D02*
X126566490Y-75833314D01*
X126756966Y-75833314D01*
X126852204Y-75880933D01*
X126899823Y-75928552D01*
X126947442Y-76023790D01*
X126947442Y-76309504D01*
X126899823Y-76404742D01*
X126852204Y-76452361D01*
X126756966Y-76499980D01*
X126566490Y-76499980D01*
X126471252Y-76452361D01*
X127280776Y-75833314D02*
X127518871Y-76499980D01*
X127756966Y-75833314D02*
X127518871Y-76499980D01*
X127423633Y-76738076D01*
X127376014Y-76785695D01*
X127280776Y-76833314D01*
X128899823Y-76499980D02*
X128899823Y-75499980D01*
X128995061Y-76119028D02*
X129280776Y-76499980D01*
X129280776Y-75833314D02*
X128899823Y-76214266D01*
X129852204Y-76499980D02*
X129756966Y-76452361D01*
X129709347Y-76404742D01*
X129661728Y-76309504D01*
X129661728Y-76023790D01*
X129709347Y-75928552D01*
X129756966Y-75880933D01*
X129852204Y-75833314D01*
X129995061Y-75833314D01*
X130090300Y-75880933D01*
X130137919Y-75928552D01*
X130185538Y-76023790D01*
X130185538Y-76309504D01*
X130137919Y-76404742D01*
X130090300Y-76452361D01*
X129995061Y-76499980D01*
X129852204Y-76499980D01*
X130518871Y-75833314D02*
X130756966Y-76499980D01*
X130995061Y-75833314D01*
X131518871Y-76499980D02*
X131423633Y-76452361D01*
X131376014Y-76404742D01*
X131328395Y-76309504D01*
X131328395Y-76023790D01*
X131376014Y-75928552D01*
X131423633Y-75880933D01*
X131518871Y-75833314D01*
X131661728Y-75833314D01*
X131756966Y-75880933D01*
X131804585Y-75928552D01*
X131852204Y-76023790D01*
X131852204Y-76309504D01*
X131804585Y-76404742D01*
X131756966Y-76452361D01*
X131661728Y-76499980D01*
X131518871Y-76499980D01*
D11*
X126956920Y-88436404D02*
X126956920Y-87636404D01*
X127490253Y-87636404D02*
X127642634Y-87636404D01*
X127718824Y-87674500D01*
X127795015Y-87750690D01*
X127833110Y-87903071D01*
X127833110Y-88169738D01*
X127795015Y-88322119D01*
X127718824Y-88398309D01*
X127642634Y-88436404D01*
X127490253Y-88436404D01*
X127414062Y-88398309D01*
X127337872Y-88322119D01*
X127299777Y-88169738D01*
X127299777Y-87903071D01*
X127337872Y-87750690D01*
X127414062Y-87674500D01*
X127490253Y-87636404D01*
X128137872Y-87712595D02*
X128175967Y-87674500D01*
X128252158Y-87636404D01*
X128442634Y-87636404D01*
X128518824Y-87674500D01*
X128556920Y-87712595D01*
X128595015Y-87788785D01*
X128595015Y-87864976D01*
X128556920Y-87979261D01*
X128099777Y-88436404D01*
X128595015Y-88436404D01*
X126899848Y-90887571D02*
X127471277Y-90887571D01*
X127128420Y-90544714D02*
X126899848Y-91573285D01*
X127395086Y-91230428D02*
X126823658Y-91230428D01*
X127166515Y-91573285D02*
X127395086Y-90544714D01*
X127699848Y-91382809D02*
X127814134Y-91420904D01*
X128004610Y-91420904D01*
X128080800Y-91382809D01*
X128118896Y-91344714D01*
X128156991Y-91268523D01*
X128156991Y-91192333D01*
X128118896Y-91116142D01*
X128080800Y-91078047D01*
X128004610Y-91039952D01*
X127852229Y-91001857D01*
X127776039Y-90963761D01*
X127737943Y-90925666D01*
X127699848Y-90849476D01*
X127699848Y-90773285D01*
X127737943Y-90697095D01*
X127776039Y-90659000D01*
X127852229Y-90620904D01*
X128042705Y-90620904D01*
X128156991Y-90659000D01*
X128499848Y-90620904D02*
X128499848Y-91268523D01*
X128537943Y-91344714D01*
X128576039Y-91382809D01*
X128652229Y-91420904D01*
X128804610Y-91420904D01*
X128880800Y-91382809D01*
X128918896Y-91344714D01*
X128956991Y-91268523D01*
X128956991Y-90620904D01*
X129299848Y-91382809D02*
X129414134Y-91420904D01*
X129604610Y-91420904D01*
X129680800Y-91382809D01*
X129718896Y-91344714D01*
X129756991Y-91268523D01*
X129756991Y-91192333D01*
X129718896Y-91116142D01*
X129680800Y-91078047D01*
X129604610Y-91039952D01*
X129452229Y-91001857D01*
X129376039Y-90963761D01*
X129337943Y-90925666D01*
X129299848Y-90849476D01*
X129299848Y-90773285D01*
X129337943Y-90697095D01*
X129376039Y-90659000D01*
X129452229Y-90620904D01*
X129642705Y-90620904D01*
X129756991Y-90659000D01*
X126956948Y-93948209D02*
X127071234Y-93986304D01*
X127261710Y-93986304D01*
X127337900Y-93948209D01*
X127375996Y-93910114D01*
X127414091Y-93833923D01*
X127414091Y-93757733D01*
X127375996Y-93681542D01*
X127337900Y-93643447D01*
X127261710Y-93605352D01*
X127109329Y-93567257D01*
X127033139Y-93529161D01*
X126995043Y-93491066D01*
X126956948Y-93414876D01*
X126956948Y-93338685D01*
X126995043Y-93262495D01*
X127033139Y-93224400D01*
X127109329Y-93186304D01*
X127299805Y-93186304D01*
X127414091Y-93224400D01*
X127756948Y-93186304D02*
X127756948Y-93833923D01*
X127795043Y-93910114D01*
X127833139Y-93948209D01*
X127909329Y-93986304D01*
X128061710Y-93986304D01*
X128137900Y-93948209D01*
X128175996Y-93910114D01*
X128214091Y-93833923D01*
X128214091Y-93186304D01*
X128556948Y-93948209D02*
X128671234Y-93986304D01*
X128861710Y-93986304D01*
X128937900Y-93948209D01*
X128975996Y-93910114D01*
X129014091Y-93833923D01*
X129014091Y-93757733D01*
X128975996Y-93681542D01*
X128937900Y-93643447D01*
X128861710Y-93605352D01*
X128709329Y-93567257D01*
X128633139Y-93529161D01*
X128595043Y-93491066D01*
X128556948Y-93414876D01*
X128556948Y-93338685D01*
X128595043Y-93262495D01*
X128633139Y-93224400D01*
X128709329Y-93186304D01*
X128899805Y-93186304D01*
X129014091Y-93224400D01*
X127382324Y-96424714D02*
X127344229Y-96462809D01*
X127229943Y-96500904D01*
X127153753Y-96500904D01*
X127039467Y-96462809D01*
X126963277Y-96386619D01*
X126925181Y-96310428D01*
X126887086Y-96158047D01*
X126887086Y-96043761D01*
X126925181Y-95891380D01*
X126963277Y-95815190D01*
X127039467Y-95739000D01*
X127153753Y-95700904D01*
X127229943Y-95700904D01*
X127344229Y-95739000D01*
X127382324Y-95777095D01*
X127610896Y-95700904D02*
X128068039Y-95700904D01*
X127839467Y-96500904D02*
X127839467Y-95700904D01*
X128296610Y-96462809D02*
X128410896Y-96500904D01*
X128601372Y-96500904D01*
X128677562Y-96462809D01*
X128715658Y-96424714D01*
X128753753Y-96348523D01*
X128753753Y-96272333D01*
X128715658Y-96196142D01*
X128677562Y-96158047D01*
X128601372Y-96119952D01*
X128448991Y-96081857D01*
X128372800Y-96043761D01*
X128334705Y-96005666D01*
X128296610Y-95929476D01*
X128296610Y-95853285D01*
X128334705Y-95777095D01*
X128372800Y-95739000D01*
X128448991Y-95700904D01*
X128639467Y-95700904D01*
X128753753Y-95739000D01*
X127382324Y-98672604D02*
X127115658Y-98291652D01*
X126925181Y-98672604D02*
X126925181Y-97872604D01*
X127229943Y-97872604D01*
X127306134Y-97910700D01*
X127344229Y-97948795D01*
X127382324Y-98024985D01*
X127382324Y-98139271D01*
X127344229Y-98215461D01*
X127306134Y-98253557D01*
X127229943Y-98291652D01*
X126925181Y-98291652D01*
X127610896Y-97872604D02*
X128068039Y-97872604D01*
X127839467Y-98672604D02*
X127839467Y-97872604D01*
X128296610Y-98634509D02*
X128410896Y-98672604D01*
X128601372Y-98672604D01*
X128677562Y-98634509D01*
X128715658Y-98596414D01*
X128753753Y-98520223D01*
X128753753Y-98444033D01*
X128715658Y-98367842D01*
X128677562Y-98329747D01*
X128601372Y-98291652D01*
X128448991Y-98253557D01*
X128372800Y-98215461D01*
X128334705Y-98177366D01*
X128296610Y-98101176D01*
X128296610Y-98024985D01*
X128334705Y-97948795D01*
X128372800Y-97910700D01*
X128448991Y-97872604D01*
X128639467Y-97872604D01*
X128753753Y-97910700D01*
X121329404Y-99224976D02*
X120529404Y-99224976D01*
X120529404Y-99034500D01*
X120567500Y-98920214D01*
X120643690Y-98844023D01*
X120719880Y-98805928D01*
X120872261Y-98767833D01*
X120986547Y-98767833D01*
X121138928Y-98805928D01*
X121215119Y-98844023D01*
X121291309Y-98920214D01*
X121329404Y-99034500D01*
X121329404Y-99224976D01*
X121291309Y-98463071D02*
X121329404Y-98348785D01*
X121329404Y-98158309D01*
X121291309Y-98082119D01*
X121253214Y-98044023D01*
X121177023Y-98005928D01*
X121100833Y-98005928D01*
X121024642Y-98044023D01*
X120986547Y-98082119D01*
X120948452Y-98158309D01*
X120910357Y-98310690D01*
X120872261Y-98386880D01*
X120834166Y-98424976D01*
X120757976Y-98463071D01*
X120681785Y-98463071D01*
X120605595Y-98424976D01*
X120567500Y-98386880D01*
X120529404Y-98310690D01*
X120529404Y-98120214D01*
X120567500Y-98005928D01*
X121329404Y-97205928D02*
X120948452Y-97472595D01*
X121329404Y-97663071D02*
X120529404Y-97663071D01*
X120529404Y-97358309D01*
X120567500Y-97282119D01*
X120605595Y-97244023D01*
X120681785Y-97205928D01*
X120796071Y-97205928D01*
X120872261Y-97244023D01*
X120910357Y-97282119D01*
X120948452Y-97358309D01*
X120948452Y-97663071D01*
X121329404Y-96450023D02*
X120529404Y-96450023D01*
X120529404Y-96259547D01*
X120567500Y-96145261D01*
X120643690Y-96069071D01*
X120719880Y-96030976D01*
X120872261Y-95992880D01*
X120986547Y-95992880D01*
X121138928Y-96030976D01*
X121215119Y-96069071D01*
X121291309Y-96145261D01*
X121329404Y-96259547D01*
X121329404Y-96450023D01*
X121253214Y-95192880D02*
X121291309Y-95230976D01*
X121329404Y-95345261D01*
X121329404Y-95421452D01*
X121291309Y-95535738D01*
X121215119Y-95611928D01*
X121138928Y-95650023D01*
X120986547Y-95688119D01*
X120872261Y-95688119D01*
X120719880Y-95650023D01*
X120643690Y-95611928D01*
X120567500Y-95535738D01*
X120529404Y-95421452D01*
X120529404Y-95345261D01*
X120567500Y-95230976D01*
X120605595Y-95192880D01*
X121329404Y-94850023D02*
X120529404Y-94850023D01*
X120529404Y-94659547D01*
X120567500Y-94545261D01*
X120643690Y-94469071D01*
X120719880Y-94430976D01*
X120872261Y-94392880D01*
X120986547Y-94392880D01*
X121138928Y-94430976D01*
X121215119Y-94469071D01*
X121291309Y-94545261D01*
X121329404Y-94659547D01*
X121329404Y-94850023D01*
X121329404Y-92932257D02*
X120948452Y-93198923D01*
X121329404Y-93389400D02*
X120529404Y-93389400D01*
X120529404Y-93084638D01*
X120567500Y-93008447D01*
X120605595Y-92970352D01*
X120681785Y-92932257D01*
X120796071Y-92932257D01*
X120872261Y-92970352D01*
X120910357Y-93008447D01*
X120948452Y-93084638D01*
X120948452Y-93389400D01*
X121329404Y-92589400D02*
X120529404Y-92589400D01*
X121298924Y-91224000D02*
X120498924Y-91224000D01*
X120498924Y-90690666D02*
X120498924Y-90538285D01*
X120537020Y-90462095D01*
X120613210Y-90385904D01*
X120765591Y-90347809D01*
X121032258Y-90347809D01*
X121184639Y-90385904D01*
X121260829Y-90462095D01*
X121298924Y-90538285D01*
X121298924Y-90690666D01*
X121260829Y-90766857D01*
X121184639Y-90843047D01*
X121032258Y-90881142D01*
X120765591Y-90881142D01*
X120613210Y-90843047D01*
X120537020Y-90766857D01*
X120498924Y-90690666D01*
X120498924Y-90081142D02*
X120498924Y-89585904D01*
X120803686Y-89852571D01*
X120803686Y-89738285D01*
X120841781Y-89662095D01*
X120879877Y-89624000D01*
X120956067Y-89585904D01*
X121146543Y-89585904D01*
X121222734Y-89624000D01*
X121260829Y-89662095D01*
X121298924Y-89738285D01*
X121298924Y-89966857D01*
X121260829Y-90043047D01*
X121222734Y-90081142D01*
X120542071Y-88582333D02*
X120542071Y-88010904D01*
X120199214Y-88353761D02*
X121227785Y-88582333D01*
X120884928Y-88087095D02*
X120884928Y-88658523D01*
X121227785Y-88315666D02*
X120199214Y-88087095D01*
X121075404Y-87287095D02*
X120694452Y-87553761D01*
X121075404Y-87744238D02*
X120275404Y-87744238D01*
X120275404Y-87439476D01*
X120313500Y-87363285D01*
X120351595Y-87325190D01*
X120427785Y-87287095D01*
X120542071Y-87287095D01*
X120618261Y-87325190D01*
X120656357Y-87363285D01*
X120694452Y-87439476D01*
X120694452Y-87744238D01*
X120275404Y-87058523D02*
X120275404Y-86601380D01*
X121075404Y-86829952D02*
X120275404Y-86829952D01*
X121037309Y-86372809D02*
X121075404Y-86258523D01*
X121075404Y-86068047D01*
X121037309Y-85991857D01*
X120999214Y-85953761D01*
X120923023Y-85915666D01*
X120846833Y-85915666D01*
X120770642Y-85953761D01*
X120732547Y-85991857D01*
X120694452Y-86068047D01*
X120656357Y-86220428D01*
X120618261Y-86296619D01*
X120580166Y-86334714D01*
X120503976Y-86372809D01*
X120427785Y-86372809D01*
X120351595Y-86334714D01*
X120313500Y-86296619D01*
X120275404Y-86220428D01*
X120275404Y-86029952D01*
X120313500Y-85915666D01*
D10*
X127896762Y-95359480D02*
X127896762Y-94359480D01*
X128134858Y-94359480D01*
X128277715Y-94407100D01*
X128372953Y-94502338D01*
X128420572Y-94597576D01*
X128468191Y-94788052D01*
X128468191Y-94930909D01*
X128420572Y-95121385D01*
X128372953Y-95216623D01*
X128277715Y-95311861D01*
X128134858Y-95359480D01*
X127896762Y-95359480D01*
X128753905Y-94359480D02*
X129325334Y-94359480D01*
X129039620Y-95359480D02*
X129039620Y-94359480D01*
X130230096Y-95359480D02*
X129896762Y-94883290D01*
X129658667Y-95359480D02*
X129658667Y-94359480D01*
X130039620Y-94359480D01*
X130134858Y-94407100D01*
X130182477Y-94454719D01*
X130230096Y-94549957D01*
X130230096Y-94692814D01*
X130182477Y-94788052D01*
X130134858Y-94835671D01*
X130039620Y-94883290D01*
X129658667Y-94883290D01*
X129228553Y-92959180D02*
X128895220Y-92482990D01*
X128657124Y-92959180D02*
X128657124Y-91959180D01*
X129038077Y-91959180D01*
X129133315Y-92006800D01*
X129180934Y-92054419D01*
X129228553Y-92149657D01*
X129228553Y-92292514D01*
X129180934Y-92387752D01*
X129133315Y-92435371D01*
X129038077Y-92482990D01*
X128657124Y-92482990D01*
X129561886Y-91959180D02*
X130228553Y-92959180D01*
X130228553Y-91959180D02*
X129561886Y-92959180D01*
X129293643Y-86421980D02*
X128817453Y-86421980D01*
X128769834Y-86898171D01*
X128817453Y-86850552D01*
X128912691Y-86802933D01*
X129150786Y-86802933D01*
X129246024Y-86850552D01*
X129293643Y-86898171D01*
X129341262Y-86993409D01*
X129341262Y-87231504D01*
X129293643Y-87326742D01*
X129246024Y-87374361D01*
X129150786Y-87421980D01*
X128912691Y-87421980D01*
X128817453Y-87374361D01*
X128769834Y-87326742D01*
X129626977Y-86421980D02*
X129960310Y-87421980D01*
X130293643Y-86421980D01*
X127972915Y-84221700D02*
X127877677Y-84174080D01*
X127734820Y-84174080D01*
X127591962Y-84221700D01*
X127496724Y-84316938D01*
X127449105Y-84412176D01*
X127401486Y-84602652D01*
X127401486Y-84745509D01*
X127449105Y-84935985D01*
X127496724Y-85031223D01*
X127591962Y-85126461D01*
X127734820Y-85174080D01*
X127830058Y-85174080D01*
X127972915Y-85126461D01*
X128020534Y-85078842D01*
X128020534Y-84745509D01*
X127830058Y-84745509D01*
X128449105Y-85174080D02*
X128449105Y-84174080D01*
X129020534Y-85174080D01*
X129020534Y-84174080D01*
X129496724Y-85174080D02*
X129496724Y-84174080D01*
X129734820Y-84174080D01*
X129877677Y-84221700D01*
X129972915Y-84316938D01*
X130020534Y-84412176D01*
X130068153Y-84602652D01*
X130068153Y-84745509D01*
X130020534Y-84935985D01*
X129972915Y-85031223D01*
X129877677Y-85126461D01*
X129734820Y-85174080D01*
X129496724Y-85174080D01*
X143611980Y-113774124D02*
X143564360Y-113869362D01*
X143564360Y-114012220D01*
X143611980Y-114155077D01*
X143707218Y-114250315D01*
X143802456Y-114297934D01*
X143992932Y-114345553D01*
X144135789Y-114345553D01*
X144326265Y-114297934D01*
X144421503Y-114250315D01*
X144516741Y-114155077D01*
X144564360Y-114012220D01*
X144564360Y-113916981D01*
X144516741Y-113774124D01*
X144469122Y-113726505D01*
X144135789Y-113726505D01*
X144135789Y-113916981D01*
X144564360Y-113297934D02*
X143564360Y-113297934D01*
X144564360Y-112726505D01*
X143564360Y-112726505D01*
X144564360Y-112250315D02*
X143564360Y-112250315D01*
X143564360Y-112012220D01*
X143611980Y-111869362D01*
X143707218Y-111774124D01*
X143802456Y-111726505D01*
X143992932Y-111678886D01*
X144135789Y-111678886D01*
X144326265Y-111726505D01*
X144421503Y-111774124D01*
X144516741Y-111869362D01*
X144564360Y-112012220D01*
X144564360Y-112250315D01*
X133343400Y-113004576D02*
X133343400Y-113480766D01*
X133819591Y-113528385D01*
X133771972Y-113480766D01*
X133724353Y-113385528D01*
X133724353Y-113147433D01*
X133771972Y-113052195D01*
X133819591Y-113004576D01*
X133914829Y-112956957D01*
X134152924Y-112956957D01*
X134248162Y-113004576D01*
X134295781Y-113052195D01*
X134343400Y-113147433D01*
X134343400Y-113385528D01*
X134295781Y-113480766D01*
X134248162Y-113528385D01*
X133343400Y-112671242D02*
X134343400Y-112337909D01*
X133343400Y-112004576D01*
X136781800Y-113082319D02*
X136305610Y-113415652D01*
X136781800Y-113653747D02*
X135781800Y-113653747D01*
X135781800Y-113272795D01*
X135829420Y-113177557D01*
X135877039Y-113129938D01*
X135972277Y-113082319D01*
X136115134Y-113082319D01*
X136210372Y-113129938D01*
X136257991Y-113177557D01*
X136305610Y-113272795D01*
X136305610Y-113653747D01*
X136734181Y-112701366D02*
X136781800Y-112558509D01*
X136781800Y-112320414D01*
X136734181Y-112225176D01*
X136686562Y-112177557D01*
X136591324Y-112129938D01*
X136496086Y-112129938D01*
X136400848Y-112177557D01*
X136353229Y-112225176D01*
X136305610Y-112320414D01*
X136257991Y-112510890D01*
X136210372Y-112606128D01*
X136162753Y-112653747D01*
X136067515Y-112701366D01*
X135972277Y-112701366D01*
X135877039Y-112653747D01*
X135829420Y-112606128D01*
X135781800Y-112510890D01*
X135781800Y-112272795D01*
X135829420Y-112129938D01*
X135781800Y-111844223D02*
X135781800Y-111272795D01*
X136781800Y-111558509D02*
X135781800Y-111558509D01*
X138527540Y-114318895D02*
X138527540Y-113699847D01*
X138908493Y-114033180D01*
X138908493Y-113890323D01*
X138956112Y-113795085D01*
X139003731Y-113747466D01*
X139098969Y-113699847D01*
X139337064Y-113699847D01*
X139432302Y-113747466D01*
X139479921Y-113795085D01*
X139527540Y-113890323D01*
X139527540Y-114176038D01*
X139479921Y-114271276D01*
X139432302Y-114318895D01*
X138527540Y-113414133D02*
X139527540Y-113080800D01*
X138527540Y-112747466D01*
X138527540Y-112509371D02*
X138527540Y-111890323D01*
X138908493Y-112223657D01*
X138908493Y-112080800D01*
X138956112Y-111985561D01*
X139003731Y-111937942D01*
X139098969Y-111890323D01*
X139337064Y-111890323D01*
X139432302Y-111937942D01*
X139479921Y-111985561D01*
X139527540Y-112080800D01*
X139527540Y-112366514D01*
X139479921Y-112461752D01*
X139432302Y-112509371D01*
X141039600Y-113764036D02*
X141039600Y-114240226D01*
X141515791Y-114287845D01*
X141468172Y-114240226D01*
X141420553Y-114144988D01*
X141420553Y-113906893D01*
X141468172Y-113811655D01*
X141515791Y-113764036D01*
X141611029Y-113716417D01*
X141849124Y-113716417D01*
X141944362Y-113764036D01*
X141991981Y-113811655D01*
X142039600Y-113906893D01*
X142039600Y-114144988D01*
X141991981Y-114240226D01*
X141944362Y-114287845D01*
X141039600Y-113430702D02*
X142039600Y-113097369D01*
X141039600Y-112764036D01*
X146108800Y-113827464D02*
X146061180Y-113922702D01*
X146061180Y-114065560D01*
X146108800Y-114208417D01*
X146204038Y-114303655D01*
X146299276Y-114351274D01*
X146489752Y-114398893D01*
X146632609Y-114398893D01*
X146823085Y-114351274D01*
X146918323Y-114303655D01*
X147013561Y-114208417D01*
X147061180Y-114065560D01*
X147061180Y-113970321D01*
X147013561Y-113827464D01*
X146965942Y-113779845D01*
X146632609Y-113779845D01*
X146632609Y-113970321D01*
X147061180Y-113351274D02*
X146061180Y-113351274D01*
X147061180Y-112779845D01*
X146061180Y-112779845D01*
X147061180Y-112303655D02*
X146061180Y-112303655D01*
X146061180Y-112065560D01*
X146108800Y-111922702D01*
X146204038Y-111827464D01*
X146299276Y-111779845D01*
X146489752Y-111732226D01*
X146632609Y-111732226D01*
X146823085Y-111779845D01*
X146918323Y-111827464D01*
X147013561Y-111922702D01*
X147061180Y-112065560D01*
X147061180Y-112303655D01*
X148763740Y-114673569D02*
X149763740Y-114340236D01*
X148763740Y-114006902D01*
X149763740Y-113673569D02*
X149097074Y-113673569D01*
X148763740Y-113673569D02*
X148811360Y-113721188D01*
X148858979Y-113673569D01*
X148811360Y-113625950D01*
X148763740Y-113673569D01*
X148858979Y-113673569D01*
X149097074Y-113197379D02*
X149763740Y-113197379D01*
X149192312Y-113197379D02*
X149144693Y-113149760D01*
X149097074Y-113054521D01*
X149097074Y-112911664D01*
X149144693Y-112816426D01*
X149239931Y-112768807D01*
X149763740Y-112768807D01*
D12*
X130726940Y-99264240D02*
G75*
G02X131426940Y-98564240I700000J0D01*
G01*
X132026940Y-98564240D02*
G75*
G02X132726940Y-99264240I0J-700000D01*
G01*
X132726940Y-100664240D02*
G75*
G02X132026940Y-101364240I-700000J0D01*
G01*
X131426940Y-101364240D02*
G75*
G02X130726940Y-100664240I0J700000D01*
G01*
X132026940Y-101364240D02*
X131426940Y-101364240D01*
X132726940Y-99264240D02*
X132726940Y-100664240D01*
X131426940Y-98564240D02*
X132026940Y-98564240D01*
X130726940Y-100664240D02*
X130726940Y-99264240D01*
D10*
X148828700Y-77633460D02*
X147828700Y-77633460D01*
X147828700Y-79333460D02*
X148828700Y-79333460D01*
X155448000Y-107696000D02*
X173228000Y-107696000D01*
X173228000Y-107696000D02*
X173228000Y-110236000D01*
X173228000Y-110236000D02*
X155448000Y-110236000D01*
X152628000Y-107416000D02*
X154178000Y-107416000D01*
X155448000Y-107696000D02*
X155448000Y-110236000D01*
X154178000Y-110516000D02*
X152628000Y-110516000D01*
X152628000Y-110516000D02*
X152628000Y-107416000D01*
X145501860Y-82779000D02*
X144226860Y-82779000D01*
X159851860Y-81979000D02*
X159051860Y-81979000D01*
X159851860Y-96329000D02*
X159051860Y-96329000D01*
X145501860Y-96329000D02*
X146301860Y-96329000D01*
X145501860Y-81979000D02*
X146301860Y-81979000D01*
X145501860Y-96329000D02*
X145501860Y-95529000D01*
X159851860Y-96329000D02*
X159851860Y-95529000D01*
X159851860Y-81979000D02*
X159851860Y-82779000D01*
X145501860Y-81979000D02*
X145501860Y-82779000D01*
X137428860Y-85713200D02*
X136428860Y-85713200D01*
X136428860Y-87413200D02*
X137428860Y-87413200D01*
D13*
X122525720Y-107170160D02*
X122525720Y-103670160D01*
X129025720Y-103670160D02*
X129025720Y-107170160D01*
X123625720Y-106370160D02*
G75*
G03X123625720Y-106370160I-300000J0D01*
G01*
D10*
X119634000Y-119126000D02*
G75*
G03X119634000Y-119126000I-2286000J0D01*
G01*
X201168000Y-115316000D02*
X201168000Y-69596000D01*
X196088000Y-69596000D02*
X196088000Y-112776000D01*
X201168000Y-69596000D02*
X196088000Y-69596000D01*
X201168000Y-115316000D02*
X198628000Y-115316000D01*
X195808000Y-114046000D02*
X195808000Y-115596000D01*
X198628000Y-115316000D02*
X198628000Y-112776000D01*
X198628000Y-112776000D02*
X196088000Y-112776000D01*
X195808000Y-115596000D02*
X197358000Y-115596000D01*
X171704000Y-114046000D02*
G75*
G03X171704000Y-114046000I-2286000J0D01*
G01*
X202184000Y-119126000D02*
G75*
G03X202184000Y-119126000I-2286000J0D01*
G01*
X120904000Y-70866000D02*
G75*
G03X120904000Y-70866000I-2286000J0D01*
G01*
X171704000Y-86106000D02*
G75*
G03X171704000Y-86106000I-2286000J0D01*
G01*
X195834000Y-70866000D02*
G75*
G03X195834000Y-70866000I-2286000J0D01*
G01*
X129768000Y-120422000D02*
X131318000Y-120422000D01*
X132588000Y-117602000D02*
X132588000Y-120142000D01*
X130048000Y-117602000D02*
X132588000Y-117602000D01*
X129768000Y-118872000D02*
X129768000Y-120422000D01*
X130048000Y-115062000D02*
X130048000Y-117602000D01*
X150368000Y-115062000D02*
X150368000Y-120142000D01*
X132588000Y-120142000D02*
X150368000Y-120142000D01*
X150368000Y-115062000D02*
X130048000Y-115062000D01*
X196088000Y-115316000D02*
X175768000Y-115316000D01*
X178308000Y-120396000D02*
X196088000Y-120396000D01*
X196088000Y-115316000D02*
X196088000Y-120396000D01*
X175768000Y-115316000D02*
X175768000Y-117856000D01*
X175488000Y-119126000D02*
X175488000Y-120676000D01*
X175768000Y-117856000D02*
X178308000Y-117856000D01*
X178308000Y-117856000D02*
X178308000Y-120396000D01*
X175488000Y-120676000D02*
X177038000Y-120676000D01*
X146304000Y-69596000D02*
X120904000Y-69596000D01*
X123444000Y-74676000D02*
X146304000Y-74676000D01*
X146304000Y-69596000D02*
X146304000Y-74676000D01*
X120904000Y-69596000D02*
X120904000Y-72136000D01*
X120624000Y-73406000D02*
X120624000Y-74956000D01*
X120904000Y-72136000D02*
X123444000Y-72136000D01*
X123444000Y-72136000D02*
X123444000Y-74676000D01*
X120624000Y-74956000D02*
X122174000Y-74956000D01*
X170408000Y-74956000D02*
X171958000Y-74956000D01*
X173228000Y-72136000D02*
X173228000Y-74676000D01*
X170688000Y-72136000D02*
X173228000Y-72136000D01*
X170408000Y-73406000D02*
X170408000Y-74956000D01*
X170688000Y-69596000D02*
X170688000Y-72136000D01*
X191008000Y-69596000D02*
X191008000Y-74676000D01*
X173228000Y-74676000D02*
X191008000Y-74676000D01*
X191008000Y-69596000D02*
X170688000Y-69596000D01*
X165735000Y-92456000D02*
X165735000Y-97536000D01*
X165455000Y-89636000D02*
X167005000Y-89636000D01*
X168275000Y-89916000D02*
X168275000Y-92456000D01*
X168275000Y-92456000D02*
X165735000Y-92456000D01*
X165735000Y-97536000D02*
X170815000Y-97536000D01*
X170815000Y-97536000D02*
X170815000Y-92456000D01*
X165455000Y-89636000D02*
X165455000Y-91186000D01*
X170815000Y-89916000D02*
X168275000Y-89916000D01*
X170815000Y-92456000D02*
X170815000Y-89916000D01*
X190995300Y-102628700D02*
X190995300Y-82308700D01*
X185915300Y-84848700D02*
X185915300Y-102628700D01*
X190995300Y-102628700D02*
X185915300Y-102628700D01*
X190995300Y-82308700D02*
X188455300Y-82308700D01*
X187185300Y-82028700D02*
X185635300Y-82028700D01*
X188455300Y-82308700D02*
X188455300Y-84848700D01*
X188455300Y-84848700D02*
X185915300Y-84848700D01*
X185635300Y-82028700D02*
X185635300Y-83578700D01*
X147548000Y-74956000D02*
X149098000Y-74956000D01*
X150368000Y-72136000D02*
X150368000Y-74676000D01*
X147828000Y-72136000D02*
X150368000Y-72136000D01*
X147548000Y-73406000D02*
X147548000Y-74956000D01*
X147828000Y-69596000D02*
X147828000Y-72136000D01*
X168148000Y-69596000D02*
X168148000Y-74676000D01*
X150368000Y-74676000D02*
X168148000Y-74676000D01*
X168148000Y-69596000D02*
X147828000Y-69596000D01*
X155448000Y-117856000D02*
X173228000Y-117856000D01*
X173228000Y-117856000D02*
X173228000Y-120396000D01*
X173228000Y-120396000D02*
X155448000Y-120396000D01*
X152628000Y-117576000D02*
X154178000Y-117576000D01*
X155448000Y-117856000D02*
X155448000Y-120396000D01*
X154178000Y-120676000D02*
X152628000Y-120676000D01*
X152628000Y-120676000D02*
X152628000Y-117576000D01*
X129674620Y-109649260D02*
X129674620Y-110848140D01*
X130175000Y-110248700D02*
X129075180Y-110248700D01*
X129072640Y-120705880D02*
X129072640Y-111704120D01*
X124673360Y-111704120D02*
X124673360Y-120705880D01*
X129072640Y-110804960D02*
X124673360Y-110804960D01*
X124246640Y-110804960D02*
X119847360Y-110804960D01*
X119847360Y-111704120D02*
X119847360Y-120705880D01*
X124246640Y-120705880D02*
X124246640Y-111704120D01*
X125349000Y-110248700D02*
X124249180Y-110248700D01*
X124848620Y-109649260D02*
X124848620Y-110848140D01*
X136992360Y-78659100D02*
X137492360Y-79159100D01*
X136992360Y-79659100D02*
X136992360Y-78659100D01*
X137492360Y-79159100D02*
X136992360Y-79659100D01*
X136992360Y-79159100D02*
X136492360Y-79159100D01*
X137492360Y-79659100D02*
X137492360Y-78659100D01*
X137192360Y-79109100D02*
X137242360Y-79159100D01*
X137192360Y-79359100D02*
X137192360Y-79109100D01*
X137392360Y-79159100D02*
X137192360Y-79359100D01*
X137092360Y-78859100D02*
X137392360Y-79159100D01*
X137092360Y-79459100D02*
X137092360Y-78859100D01*
X139142360Y-80209100D02*
X135542360Y-80209100D01*
X139142360Y-78109100D02*
X135542360Y-78109100D01*
X126302660Y-80908000D02*
X126302660Y-81433000D01*
X122002660Y-85208000D02*
X122002660Y-84683000D01*
X126302660Y-85208000D02*
X126302660Y-84683000D01*
X122002660Y-80908000D02*
X122527660Y-80908000D01*
X122002660Y-85208000D02*
X122527660Y-85208000D01*
X126302660Y-85208000D02*
X125777660Y-85208000D01*
X126302660Y-80908000D02*
X125777660Y-80908000D01*
X133042660Y-83439000D02*
X133042660Y-96139000D01*
X133042660Y-96139000D02*
X130502660Y-96139000D01*
X130502660Y-96139000D02*
X130502660Y-83439000D01*
X133322660Y-80619000D02*
X133322660Y-82169000D01*
X133042660Y-83439000D02*
X130502660Y-83439000D01*
X130222660Y-82169000D02*
X130222660Y-80619000D01*
X130222660Y-80619000D02*
X133322660Y-80619000D01*
X126692660Y-86741000D02*
X126692660Y-99441000D01*
X126692660Y-99441000D02*
X121612660Y-99441000D01*
X121612660Y-99441000D02*
X121612660Y-89281000D01*
X126692660Y-86741000D02*
X124152660Y-86741000D01*
X122882660Y-86461000D02*
X121332660Y-86461000D01*
X124152660Y-86741000D02*
X124152660Y-89281000D01*
X124152660Y-89281000D02*
X121612660Y-89281000D01*
X121332660Y-86461000D02*
X121332660Y-88011000D01*
X114449860Y-89908380D02*
X119651780Y-89908380D01*
X119651780Y-87510620D02*
X114449860Y-87510620D01*
X113451640Y-86410800D02*
X113451640Y-87510620D01*
X112852200Y-86911180D02*
X114051080Y-86911180D01*
X113954560Y-87510620D02*
X113954560Y-89908380D01*
X134315200Y-83050380D02*
X139517120Y-83050380D01*
X139517120Y-80652620D02*
X134315200Y-80652620D01*
X133316980Y-79552800D02*
X133316980Y-80652620D01*
X132717540Y-80053180D02*
X133916420Y-80053180D01*
X133819900Y-80652620D02*
X133819900Y-83050380D01*
X119721520Y-106011000D02*
X116121520Y-106011000D01*
X119721520Y-108111000D02*
X116121520Y-108111000D01*
X117671520Y-107361000D02*
X117671520Y-106761000D01*
X117671520Y-106761000D02*
X117971520Y-107061000D01*
X117971520Y-107061000D02*
X117771520Y-107261000D01*
X117771520Y-107261000D02*
X117771520Y-107011000D01*
X117771520Y-107011000D02*
X117821520Y-107061000D01*
X118071520Y-107561000D02*
X118071520Y-106561000D01*
X117571520Y-107061000D02*
X117071520Y-107061000D01*
X118071520Y-107061000D02*
X117571520Y-107561000D01*
X117571520Y-107561000D02*
X117571520Y-106561000D01*
X117571520Y-106561000D02*
X118071520Y-107061000D01*
X117292120Y-98953700D02*
X117792120Y-99453700D01*
X117292120Y-99953700D02*
X117292120Y-98953700D01*
X117792120Y-99453700D02*
X117292120Y-99953700D01*
X117292120Y-99453700D02*
X116792120Y-99453700D01*
X117792120Y-99953700D02*
X117792120Y-98953700D01*
X117492120Y-99403700D02*
X117542120Y-99453700D01*
X117492120Y-99653700D02*
X117492120Y-99403700D01*
X117692120Y-99453700D02*
X117492120Y-99653700D01*
X117392120Y-99153700D02*
X117692120Y-99453700D01*
X117392120Y-99753700D02*
X117392120Y-99153700D01*
X119442120Y-100503700D02*
X115842120Y-100503700D01*
X119442120Y-98403700D02*
X115842120Y-98403700D01*
X117330220Y-96147000D02*
X117830220Y-96647000D01*
X117330220Y-97147000D02*
X117330220Y-96147000D01*
X117830220Y-96647000D02*
X117330220Y-97147000D01*
X117330220Y-96647000D02*
X116830220Y-96647000D01*
X117830220Y-97147000D02*
X117830220Y-96147000D01*
X117530220Y-96597000D02*
X117580220Y-96647000D01*
X117530220Y-96847000D02*
X117530220Y-96597000D01*
X117730220Y-96647000D02*
X117530220Y-96847000D01*
X117430220Y-96347000D02*
X117730220Y-96647000D01*
X117430220Y-96947000D02*
X117430220Y-96347000D01*
X119480220Y-97697000D02*
X115880220Y-97697000D01*
X119480220Y-95597000D02*
X115880220Y-95597000D01*
X139012680Y-98588400D02*
X135472680Y-98588400D01*
X139012680Y-96788400D02*
X135472680Y-96788400D01*
X137330180Y-98196400D02*
X137330180Y-97180400D01*
X136695180Y-97307400D02*
X137330180Y-97688400D01*
X136695180Y-98069400D02*
X136695180Y-97307400D01*
X137330180Y-97688400D02*
X136695180Y-98069400D01*
X137711180Y-97688400D02*
X137330180Y-97688400D01*
X136695180Y-97688400D02*
X136314180Y-97688400D01*
X136624060Y-84264500D02*
X136243060Y-84264500D01*
X137640060Y-84264500D02*
X137259060Y-84264500D01*
X137259060Y-84264500D02*
X136624060Y-84645500D01*
X136624060Y-84645500D02*
X136624060Y-83883500D01*
X136624060Y-83883500D02*
X137259060Y-84264500D01*
X137259060Y-84772500D02*
X137259060Y-83756500D01*
X138941560Y-83364500D02*
X135401560Y-83364500D01*
X138941560Y-85164500D02*
X135401560Y-85164500D01*
X103578660Y-77470000D02*
X94942660Y-77470000D01*
X111960660Y-77470000D02*
X106880660Y-77470000D01*
X103578660Y-89662000D02*
X94942660Y-89662000D01*
X111960660Y-89662000D02*
X106880660Y-89662000D01*
X94942660Y-89662000D02*
X94942660Y-77470000D01*
X111960660Y-77470000D02*
X111960660Y-89662000D01*
X103444200Y-91407100D02*
X103444200Y-100107100D01*
X109849200Y-91407100D02*
X109849200Y-100107100D01*
X109849200Y-100107100D02*
X103444200Y-100107100D01*
X104674200Y-100107100D02*
X104674200Y-91407100D01*
X103444200Y-91407100D02*
X109849200Y-91407100D01*
D14*
X105523480Y-107195620D02*
G75*
G03X105825740Y-106893360I0J302260D01*
G01*
X105823200Y-106893360D02*
G75*
G03X105523480Y-106593640I-299720J0D01*
G01*
X105523480Y-102196900D02*
G75*
G03X105825740Y-101894640I0J302260D01*
G01*
X105823200Y-101894640D02*
G75*
G03X105523480Y-101594920I-299720J0D01*
G01*
X104474460Y-107193080D02*
X105523480Y-107193080D01*
X104474460Y-106593640D02*
X105523480Y-106593640D01*
X104474460Y-102194360D02*
X105523480Y-102194360D01*
X104474460Y-101594920D02*
X105523480Y-101594920D01*
X104974840Y-106593640D02*
X104974840Y-107193080D01*
X104974840Y-101594920D02*
X104974840Y-102194360D01*
X104875780Y-106593640D02*
X104875780Y-107193080D01*
X104875780Y-101594920D02*
X104875780Y-102194360D01*
X104474460Y-106593640D02*
X104474460Y-107193080D01*
X104474460Y-101594920D02*
X104474460Y-102194360D01*
X103224780Y-108493560D02*
X103374640Y-108643420D01*
X103224780Y-108493560D02*
X103674360Y-108043980D01*
X103674360Y-108043980D02*
X103824220Y-108043980D01*
X103374640Y-100144580D02*
X103224780Y-100294440D01*
X103224780Y-100294440D02*
X103674360Y-100744020D01*
X103674360Y-100744020D02*
X103824220Y-100744020D01*
X103824220Y-108193840D02*
X103374640Y-108643420D01*
X103824220Y-100594160D02*
X103374640Y-100144580D01*
X103824220Y-106392980D02*
X103824220Y-108193840D01*
X103824220Y-103393240D02*
X103824220Y-105394760D01*
X103824220Y-100594160D02*
X103824220Y-102395020D01*
X103524500Y-100944680D02*
G75*
G03X103275580Y-101193600I0J-248920D01*
G01*
X103275580Y-107594400D02*
G75*
G03X103524500Y-107843320I248920J0D01*
G01*
X103275580Y-106392980D02*
X103275580Y-107594400D01*
X103275580Y-103393240D02*
X103275580Y-105394760D01*
X103275580Y-101193600D02*
X103275580Y-102395020D01*
X104624320Y-107843320D02*
X103524500Y-107843320D01*
X104624320Y-100944680D02*
X103524500Y-100944680D01*
X108525760Y-100594160D02*
X103824220Y-100594160D01*
X108525760Y-108193840D02*
X103824220Y-108193840D01*
X108876280Y-100944680D02*
G75*
G03X108525760Y-100594160I-350520J0D01*
G01*
X108525760Y-108191300D02*
G75*
G03X108873740Y-107843320I0J347980D01*
G01*
D15*
X108873740Y-100944680D02*
X108873740Y-102494080D01*
X108873740Y-107843320D02*
X108873740Y-106293920D01*
X104624320Y-100944680D02*
X108873740Y-100944680D01*
X104624320Y-107843320D02*
X108873740Y-107843320D01*
X104624320Y-100944680D02*
X104624320Y-107843320D01*
D14*
X107024620Y-103444040D02*
X107024620Y-105343960D01*
X107024620Y-105343960D02*
X105124700Y-105343960D01*
X105124700Y-105343960D02*
X105124700Y-103444040D01*
X105124700Y-103444040D02*
X107024620Y-103444040D01*
D10*
X113256660Y-105384000D02*
X113256660Y-106934000D01*
X110156660Y-106934000D02*
X110156660Y-105384000D01*
X110156660Y-105384000D02*
X113256660Y-105384000D01*
X110436660Y-108204000D02*
X112976660Y-108204000D01*
X176045200Y-96847600D02*
X178945200Y-96847600D01*
X178945200Y-90675200D02*
X175995200Y-90675200D01*
X176733200Y-95910400D02*
X176733200Y-91592400D01*
X176733200Y-91592400D02*
X178257200Y-91592400D01*
X178257200Y-91592400D02*
X178257200Y-95910400D01*
X178257200Y-95910400D02*
X176733200Y-95910400D01*
X175645200Y-91025200D02*
G75*
G02X175995200Y-90675200I350000J0D01*
G01*
X176072828Y-96847044D02*
G75*
G02X175645200Y-96397600I22372J449444D01*
G01*
X179345200Y-96447600D02*
G75*
G02X178945200Y-96847600I-400000J0D01*
G01*
X178945200Y-90675200D02*
G75*
G02X179345200Y-91075200I0J-400000D01*
G01*
X175645200Y-96397600D02*
X175645200Y-91025200D01*
X179345200Y-96447600D02*
X179345200Y-91075200D01*
D13*
X132769720Y-106586060D02*
G75*
G03X132769720Y-106586060I-300000J0D01*
G01*
X138169720Y-103886060D02*
X138169720Y-107386060D01*
X131669720Y-107386060D02*
X131669720Y-103886060D01*
D10*
X117231160Y-104394000D02*
X116850160Y-104394000D01*
X118247160Y-104394000D02*
X117866160Y-104394000D01*
X117866160Y-104394000D02*
X117231160Y-104775000D01*
X117231160Y-104775000D02*
X117231160Y-104013000D01*
X117231160Y-104013000D02*
X117866160Y-104394000D01*
X117866160Y-104902000D02*
X117866160Y-103886000D01*
X119548660Y-103494000D02*
X116008660Y-103494000D01*
X119548660Y-105294000D02*
X116008660Y-105294000D01*
X118302660Y-86908000D02*
X117302660Y-86908000D01*
X117302660Y-85558000D02*
X118302660Y-85558000D01*
X118302660Y-80431000D02*
X117302660Y-80431000D01*
X117302660Y-79081000D02*
X118302660Y-79081000D01*
X118353840Y-76923900D02*
X117302280Y-76923900D01*
X117251480Y-78524100D02*
X118303040Y-78524100D01*
D12*
X117936520Y-92383000D02*
X115936520Y-92383000D01*
X115936520Y-90243000D02*
X117936520Y-90243000D01*
D10*
X116948660Y-108726000D02*
X118148660Y-108726000D01*
X118148660Y-110476000D02*
X116948660Y-110476000D01*
X137566960Y-89609900D02*
X136366960Y-89609900D01*
X136366960Y-87859900D02*
X137566960Y-87859900D01*
X136341560Y-75820300D02*
X137541560Y-75820300D01*
X137541560Y-77570300D02*
X136341560Y-77570300D01*
X116948660Y-101106000D02*
X118148660Y-101106000D01*
X118148660Y-102856000D02*
X116948660Y-102856000D01*
X117981020Y-94893100D02*
X116781020Y-94893100D01*
X116781020Y-93143100D02*
X117981020Y-93143100D01*
X118402660Y-85076000D02*
X117202660Y-85076000D01*
X117202660Y-83326000D02*
X118402660Y-83326000D01*
X117202660Y-81040000D02*
X118402660Y-81040000D01*
X118402660Y-82790000D02*
X117202660Y-82790000D01*
X136466960Y-91693100D02*
X137466960Y-91693100D01*
X137466960Y-89993100D02*
X136466960Y-89993100D01*
X138585840Y-106883580D02*
X138585840Y-107883580D01*
X140285840Y-107883580D02*
X140285840Y-106883580D01*
X136479660Y-93941000D02*
X137479660Y-93941000D01*
X137479660Y-92241000D02*
X136479660Y-92241000D01*
X129535820Y-107096940D02*
X129535820Y-108096940D01*
X131235820Y-108096940D02*
X131235820Y-107096940D01*
X120422300Y-106776900D02*
X120422300Y-107776900D01*
X122122300Y-107776900D02*
X122122300Y-106776900D01*
X99461320Y-109029500D02*
X98699320Y-109029500D01*
X98699320Y-109029500D02*
X98699320Y-117665500D01*
X98699320Y-117665500D02*
X99461320Y-117665500D01*
X102509320Y-109029500D02*
X102509320Y-117665500D01*
X112161320Y-109029500D02*
X112161320Y-117665500D01*
X99461320Y-117665500D02*
X112161320Y-117665500D01*
X99461320Y-109029500D02*
X112161320Y-109029500D01*
X137538080Y-94544780D02*
X136538080Y-94544780D01*
X136538080Y-96244780D02*
X137538080Y-96244780D01*
X149416400Y-108859700D02*
X149416400Y-109859700D01*
X151116400Y-109859700D02*
X151116400Y-108859700D01*
X143991700Y-109613320D02*
X143991700Y-108613320D01*
X142291700Y-108613320D02*
X142291700Y-109613320D01*
X155514040Y-77734160D02*
X154462480Y-77734160D01*
X154411680Y-79334360D02*
X155463240Y-79334360D01*
X157234860Y-102544320D02*
X157234860Y-103744320D01*
X155484860Y-103744320D02*
X155484860Y-102544320D01*
X147585400Y-108716520D02*
X147585400Y-109916520D01*
X145835400Y-109916520D02*
X145835400Y-108716520D01*
X164444680Y-102057200D02*
X173045120Y-102057200D01*
X173045120Y-102057200D02*
X173045120Y-98856800D01*
X173045120Y-98856800D02*
X164444680Y-98856800D01*
X164444680Y-99606100D02*
X164444680Y-98856800D01*
X164444680Y-101356160D02*
X164444680Y-102057200D01*
X164444680Y-100157280D02*
X164144960Y-100058220D01*
X164444680Y-100756720D02*
X164144960Y-100855780D01*
X164444680Y-101356160D02*
X164444680Y-99557840D01*
X150338224Y-106638670D02*
X143886624Y-106638670D01*
X143467524Y-102018410D02*
X142977304Y-102188590D01*
X143886624Y-101980310D02*
X143467524Y-102018410D01*
X150338224Y-101980310D02*
X143886624Y-101980310D01*
X143406564Y-106570090D02*
X143848524Y-106638670D01*
X142977304Y-106430390D02*
X143406564Y-106570090D01*
X142588684Y-106199250D02*
X142977304Y-106430390D01*
X142238164Y-105879210D02*
X142588684Y-106199250D01*
X141877484Y-105409310D02*
X142238164Y-105879210D01*
X141686984Y-104959730D02*
X141877484Y-105409310D01*
X141598084Y-104499990D02*
X141686984Y-104959730D01*
X141618404Y-104040250D02*
X141598084Y-104499990D01*
X141727624Y-103570350D02*
X141618404Y-104040250D01*
X142027344Y-103019170D02*
X141727624Y-103570350D01*
X142278804Y-102688970D02*
X142027344Y-103019170D01*
X142598844Y-102409570D02*
X142278804Y-102688970D01*
X142977304Y-102188590D02*
X142598844Y-102409570D01*
X150757324Y-102000630D02*
X150317904Y-101970150D01*
X151206904Y-102160650D02*
X150757324Y-102000630D01*
X151628544Y-102368930D02*
X151206904Y-102160650D01*
X152088284Y-102739770D02*
X151628544Y-102368930D01*
X152487064Y-103329050D02*
X152088284Y-102739770D01*
X152657244Y-104030090D02*
X152487064Y-103329050D01*
X152657244Y-104540630D02*
X152657244Y-104030090D01*
X152527704Y-105140070D02*
X152657244Y-104540630D01*
X152238144Y-105678550D02*
X152527704Y-105140070D01*
X151907944Y-106029070D02*
X152238144Y-105678550D01*
X151618384Y-106260210D02*
X151907944Y-106029070D01*
X151186584Y-106478650D02*
X151618384Y-106260210D01*
X150787804Y-106590410D02*
X151186584Y-106478650D01*
X150328064Y-106638670D02*
X150787804Y-106590410D01*
X142837604Y-105709030D02*
X142337224Y-105208650D01*
X143337984Y-106008750D02*
X142837604Y-105709030D01*
X143736764Y-106110350D02*
X143337984Y-106008750D01*
X150338224Y-106110350D02*
X143736764Y-106110350D01*
X150937664Y-106008750D02*
X150437284Y-106110350D01*
X151438044Y-105709030D02*
X150937664Y-106008750D01*
X151938424Y-105109590D02*
X151438044Y-105709030D01*
X152139084Y-104609210D02*
X151938424Y-105109590D01*
X152139084Y-104108830D02*
X152139084Y-104609210D01*
X151938424Y-103509390D02*
X152139084Y-104108830D01*
X151537104Y-103009010D02*
X151938424Y-103509390D01*
X151138324Y-102709290D02*
X151537104Y-103009010D01*
X150437284Y-102508630D02*
X151138324Y-102709290D01*
X143838364Y-102508630D02*
X150437284Y-102508630D01*
X143238924Y-102709290D02*
X143838364Y-102508630D01*
X142636944Y-103110610D02*
X143238924Y-102709290D01*
X142238164Y-103809110D02*
X142636944Y-103110610D01*
X142136564Y-104309490D02*
X142238164Y-103809110D01*
X142238164Y-104908930D02*
X142136564Y-104309490D01*
X142438824Y-105310250D02*
X142238164Y-104908930D01*
X152890924Y-104906390D02*
X141460924Y-104906390D01*
X141460924Y-99826390D02*
X152890924Y-99826390D01*
X151493924Y-104652390D02*
X152128924Y-104017390D01*
X142857924Y-104652390D02*
X151493924Y-104652390D01*
X142222924Y-104017390D02*
X142857924Y-104652390D01*
X142857924Y-100080390D02*
X142222924Y-100715390D01*
X151493924Y-100080390D02*
X142857924Y-100080390D01*
X152128924Y-100715390D02*
X151493924Y-100080390D01*
X152890924Y-104906390D02*
X152890924Y-103636390D01*
X152890924Y-99826390D02*
X152890924Y-101096390D01*
X141460924Y-99826390D02*
X141460924Y-101096390D01*
X141460924Y-104906390D02*
X141460924Y-103636390D01*
X142222924Y-104017390D02*
X142222924Y-103636390D01*
X142222924Y-100715390D02*
X142222924Y-101096390D01*
X152128924Y-100715390D02*
X152128924Y-101096390D01*
X152128924Y-104017390D02*
X152128924Y-103636390D01*
X145397224Y-104702490D02*
X145397224Y-106202490D01*
X148797224Y-104702490D02*
X145397224Y-104702490D01*
X148797224Y-106202490D02*
X148797224Y-104702490D01*
X145397224Y-106202490D02*
X148797224Y-106202490D01*
D16*
X148489104Y-103704970D02*
X145888144Y-103704970D01*
X148489104Y-100504570D02*
X148489104Y-103704970D01*
X145888144Y-100504570D02*
X148489104Y-100504570D01*
X145888144Y-103704970D02*
X145888144Y-100504570D01*
X147696624Y-102676270D02*
X148458624Y-102676270D01*
X147696624Y-103692270D02*
X147696624Y-102676270D01*
D10*
X129111760Y-100858533D02*
X129826046Y-100858533D01*
X129968903Y-100906152D01*
X130064141Y-101001390D01*
X130111760Y-101144247D01*
X130111760Y-101239485D01*
X130111760Y-100382342D02*
X129111760Y-100382342D01*
X129111760Y-100001390D01*
X129159380Y-99906152D01*
X129206999Y-99858533D01*
X129302237Y-99810914D01*
X129445094Y-99810914D01*
X129540332Y-99858533D01*
X129587951Y-99906152D01*
X129635570Y-100001390D01*
X129635570Y-100382342D01*
X130111760Y-98858533D02*
X130111760Y-99429961D01*
X130111760Y-99144247D02*
X129111760Y-99144247D01*
X129254618Y-99239485D01*
X129349856Y-99334723D01*
X129397475Y-99429961D01*
X147685842Y-76740602D02*
X147638223Y-76788221D01*
X147495366Y-76835840D01*
X147400128Y-76835840D01*
X147257271Y-76788221D01*
X147162033Y-76692983D01*
X147114414Y-76597745D01*
X147066795Y-76407269D01*
X147066795Y-76264412D01*
X147114414Y-76073936D01*
X147162033Y-75978698D01*
X147257271Y-75883460D01*
X147400128Y-75835840D01*
X147495366Y-75835840D01*
X147638223Y-75883460D01*
X147685842Y-75931079D01*
X148638223Y-76835840D02*
X148066795Y-76835840D01*
X148352509Y-76835840D02*
X148352509Y-75835840D01*
X148257271Y-75978698D01*
X148162033Y-76073936D01*
X148066795Y-76121555D01*
X149495366Y-76169174D02*
X149495366Y-76835840D01*
X149257271Y-75788221D02*
X149019176Y-76502507D01*
X149638223Y-76502507D01*
X161759995Y-80280260D02*
X161759995Y-81089784D01*
X161807614Y-81185022D01*
X161855233Y-81232641D01*
X161950471Y-81280260D01*
X162140947Y-81280260D01*
X162236185Y-81232641D01*
X162283804Y-81185022D01*
X162331423Y-81089784D01*
X162331423Y-80280260D01*
X162759995Y-80375499D02*
X162807614Y-80327880D01*
X162902852Y-80280260D01*
X163140947Y-80280260D01*
X163236185Y-80327880D01*
X163283804Y-80375499D01*
X163331423Y-80470737D01*
X163331423Y-80565975D01*
X163283804Y-80708832D01*
X162712376Y-81280260D01*
X163331423Y-81280260D01*
X140216593Y-87009242D02*
X140168974Y-87056861D01*
X140026117Y-87104480D01*
X139930879Y-87104480D01*
X139788021Y-87056861D01*
X139692783Y-86961623D01*
X139645164Y-86866385D01*
X139597545Y-86675909D01*
X139597545Y-86533052D01*
X139645164Y-86342576D01*
X139692783Y-86247338D01*
X139788021Y-86152100D01*
X139930879Y-86104480D01*
X140026117Y-86104480D01*
X140168974Y-86152100D01*
X140216593Y-86199719D01*
X141168974Y-87104480D02*
X140597545Y-87104480D01*
X140883260Y-87104480D02*
X140883260Y-86104480D01*
X140788021Y-86247338D01*
X140692783Y-86342576D01*
X140597545Y-86390195D01*
D17*
X122892215Y-105709236D02*
X123550196Y-105709236D01*
X123627605Y-105670531D01*
X123666310Y-105631826D01*
X123705015Y-105554417D01*
X123705015Y-105399598D01*
X123666310Y-105322188D01*
X123627605Y-105283483D01*
X123550196Y-105244779D01*
X122892215Y-105244779D01*
X123163148Y-104509388D02*
X123705015Y-104509388D01*
X122853510Y-104702912D02*
X123434081Y-104896436D01*
X123434081Y-104393274D01*
X128517226Y-106628111D02*
X128517226Y-106241063D01*
X128749455Y-106705520D02*
X127936655Y-106434587D01*
X128749455Y-106163654D01*
X128749455Y-105892720D02*
X127936655Y-105892720D01*
X127936655Y-105583082D01*
X127975360Y-105505673D01*
X128014064Y-105466968D01*
X128091474Y-105428263D01*
X128207588Y-105428263D01*
X128284998Y-105466968D01*
X128323702Y-105505673D01*
X128362407Y-105583082D01*
X128362407Y-105892720D01*
X128749455Y-104654168D02*
X128749455Y-105118625D01*
X128749455Y-104886397D02*
X127936655Y-104886397D01*
X128052769Y-104963806D01*
X128130179Y-105041216D01*
X128168883Y-105118625D01*
X128749455Y-103880073D02*
X128749455Y-104344530D01*
X128749455Y-104112301D02*
X127936655Y-104112301D01*
X128052769Y-104189711D01*
X128130179Y-104267120D01*
X128168883Y-104344530D01*
X128749455Y-103105978D02*
X128749455Y-103570435D01*
X128749455Y-103338206D02*
X127936655Y-103338206D01*
X128052769Y-103415616D01*
X128130179Y-103493025D01*
X128168883Y-103570435D01*
X127936655Y-102835044D02*
X127936655Y-102293178D01*
X128749455Y-102641520D01*
X128439817Y-101983540D02*
X128439817Y-101364263D01*
X127936655Y-100590168D02*
X127936655Y-100977216D01*
X128323702Y-101015920D01*
X128284998Y-100977216D01*
X128246293Y-100899806D01*
X128246293Y-100706282D01*
X128284998Y-100628873D01*
X128323702Y-100590168D01*
X128401112Y-100551463D01*
X128594636Y-100551463D01*
X128672045Y-100590168D01*
X128710750Y-100628873D01*
X128749455Y-100706282D01*
X128749455Y-100899806D01*
X128710750Y-100977216D01*
X128672045Y-101015920D01*
X127936655Y-100048301D02*
X127936655Y-99970892D01*
X127975360Y-99893482D01*
X128014064Y-99854778D01*
X128091474Y-99816073D01*
X128246293Y-99777368D01*
X128439817Y-99777368D01*
X128594636Y-99816073D01*
X128672045Y-99854778D01*
X128710750Y-99893482D01*
X128749455Y-99970892D01*
X128749455Y-100048301D01*
X128710750Y-100125711D01*
X128672045Y-100164416D01*
X128594636Y-100203120D01*
X128439817Y-100241825D01*
X128246293Y-100241825D01*
X128091474Y-100203120D01*
X128014064Y-100164416D01*
X127975360Y-100125711D01*
X127936655Y-100048301D01*
D10*
X195016380Y-93194095D02*
X194016380Y-93194095D01*
X194016380Y-92813142D01*
X194064000Y-92717904D01*
X194111619Y-92670285D01*
X194206857Y-92622666D01*
X194349714Y-92622666D01*
X194444952Y-92670285D01*
X194492571Y-92717904D01*
X194540190Y-92813142D01*
X194540190Y-93194095D01*
X195016380Y-91670285D02*
X195016380Y-92241714D01*
X195016380Y-91956000D02*
X194016380Y-91956000D01*
X194159238Y-92051238D01*
X194254476Y-92146476D01*
X194302095Y-92241714D01*
X126670380Y-119610095D02*
X125670380Y-119610095D01*
X125670380Y-119229142D01*
X125718000Y-119133904D01*
X125765619Y-119086285D01*
X125860857Y-119038666D01*
X126003714Y-119038666D01*
X126098952Y-119086285D01*
X126146571Y-119133904D01*
X126194190Y-119229142D01*
X126194190Y-119610095D01*
X125765619Y-118657714D02*
X125718000Y-118610095D01*
X125670380Y-118514857D01*
X125670380Y-118276761D01*
X125718000Y-118181523D01*
X125765619Y-118133904D01*
X125860857Y-118086285D01*
X125956095Y-118086285D01*
X126098952Y-118133904D01*
X126670380Y-118705333D01*
X126670380Y-118086285D01*
X172390380Y-119864095D02*
X171390380Y-119864095D01*
X171390380Y-119483142D01*
X171438000Y-119387904D01*
X171485619Y-119340285D01*
X171580857Y-119292666D01*
X171723714Y-119292666D01*
X171818952Y-119340285D01*
X171866571Y-119387904D01*
X171914190Y-119483142D01*
X171914190Y-119864095D01*
X171723714Y-118435523D02*
X172390380Y-118435523D01*
X171342761Y-118673619D02*
X172057047Y-118911714D01*
X172057047Y-118292666D01*
X117526380Y-74144095D02*
X116526380Y-74144095D01*
X116526380Y-73763142D01*
X116574000Y-73667904D01*
X116621619Y-73620285D01*
X116716857Y-73572666D01*
X116859714Y-73572666D01*
X116954952Y-73620285D01*
X117002571Y-73667904D01*
X117050190Y-73763142D01*
X117050190Y-74144095D01*
X116526380Y-72667904D02*
X116526380Y-73144095D01*
X117002571Y-73191714D01*
X116954952Y-73144095D01*
X116907333Y-73048857D01*
X116907333Y-72810761D01*
X116954952Y-72715523D01*
X117002571Y-72667904D01*
X117097809Y-72620285D01*
X117335904Y-72620285D01*
X117431142Y-72667904D01*
X117478761Y-72715523D01*
X117526380Y-72810761D01*
X117526380Y-73048857D01*
X117478761Y-73144095D01*
X117431142Y-73191714D01*
X167310380Y-74144095D02*
X166310380Y-74144095D01*
X166310380Y-73763142D01*
X166358000Y-73667904D01*
X166405619Y-73620285D01*
X166500857Y-73572666D01*
X166643714Y-73572666D01*
X166738952Y-73620285D01*
X166786571Y-73667904D01*
X166834190Y-73763142D01*
X166834190Y-74144095D01*
X166310380Y-73239333D02*
X166310380Y-72572666D01*
X167310380Y-73001238D01*
X165790714Y-86538380D02*
X165790714Y-85538380D01*
X166171666Y-85538380D01*
X166266904Y-85586000D01*
X166314523Y-85633619D01*
X166362142Y-85728857D01*
X166362142Y-85871714D01*
X166314523Y-85966952D01*
X166266904Y-86014571D01*
X166171666Y-86062190D01*
X165790714Y-86062190D01*
X167314523Y-86538380D02*
X166743095Y-86538380D01*
X167028809Y-86538380D02*
X167028809Y-85538380D01*
X166933571Y-85681238D01*
X166838333Y-85776476D01*
X166743095Y-85824095D01*
X168171666Y-85538380D02*
X167981190Y-85538380D01*
X167885952Y-85586000D01*
X167838333Y-85633619D01*
X167743095Y-85776476D01*
X167695476Y-85966952D01*
X167695476Y-86347904D01*
X167743095Y-86443142D01*
X167790714Y-86490761D01*
X167885952Y-86538380D01*
X168076428Y-86538380D01*
X168171666Y-86490761D01*
X168219285Y-86443142D01*
X168266904Y-86347904D01*
X168266904Y-86109809D01*
X168219285Y-86014571D01*
X168171666Y-85966952D01*
X168076428Y-85919333D01*
X167885952Y-85919333D01*
X167790714Y-85966952D01*
X167743095Y-86014571D01*
X167695476Y-86109809D01*
X144450380Y-74144095D02*
X143450380Y-74144095D01*
X143450380Y-73763142D01*
X143498000Y-73667904D01*
X143545619Y-73620285D01*
X143640857Y-73572666D01*
X143783714Y-73572666D01*
X143878952Y-73620285D01*
X143926571Y-73667904D01*
X143974190Y-73763142D01*
X143974190Y-74144095D01*
X143450380Y-72715523D02*
X143450380Y-72906000D01*
X143498000Y-73001238D01*
X143545619Y-73048857D01*
X143688476Y-73144095D01*
X143878952Y-73191714D01*
X144259904Y-73191714D01*
X144355142Y-73144095D01*
X144402761Y-73096476D01*
X144450380Y-73001238D01*
X144450380Y-72810761D01*
X144402761Y-72715523D01*
X144355142Y-72667904D01*
X144259904Y-72620285D01*
X144021809Y-72620285D01*
X143926571Y-72667904D01*
X143878952Y-72715523D01*
X143831333Y-72810761D01*
X143831333Y-73001238D01*
X143878952Y-73096476D01*
X143926571Y-73144095D01*
X144021809Y-73191714D01*
X149530380Y-119864095D02*
X148530380Y-119864095D01*
X148530380Y-119483142D01*
X148578000Y-119387904D01*
X148625619Y-119340285D01*
X148720857Y-119292666D01*
X148863714Y-119292666D01*
X148958952Y-119340285D01*
X149006571Y-119387904D01*
X149054190Y-119483142D01*
X149054190Y-119864095D01*
X148530380Y-118959333D02*
X148530380Y-118340285D01*
X148911333Y-118673619D01*
X148911333Y-118530761D01*
X148958952Y-118435523D01*
X149006571Y-118387904D01*
X149101809Y-118340285D01*
X149339904Y-118340285D01*
X149435142Y-118387904D01*
X149482761Y-118435523D01*
X149530380Y-118530761D01*
X149530380Y-118816476D01*
X149482761Y-118911714D01*
X149435142Y-118959333D01*
X130036273Y-114123742D02*
X129988654Y-114171361D01*
X129845797Y-114218980D01*
X129750559Y-114218980D01*
X129607701Y-114171361D01*
X129512463Y-114076123D01*
X129464844Y-113980885D01*
X129417225Y-113790409D01*
X129417225Y-113647552D01*
X129464844Y-113457076D01*
X129512463Y-113361838D01*
X129607701Y-113266600D01*
X129750559Y-113218980D01*
X129845797Y-113218980D01*
X129988654Y-113266600D01*
X130036273Y-113314219D01*
X130512463Y-114218980D02*
X130702940Y-114218980D01*
X130798178Y-114171361D01*
X130845797Y-114123742D01*
X130941035Y-113980885D01*
X130988654Y-113790409D01*
X130988654Y-113409457D01*
X130941035Y-113314219D01*
X130893416Y-113266600D01*
X130798178Y-113218980D01*
X130607701Y-113218980D01*
X130512463Y-113266600D01*
X130464844Y-113314219D01*
X130417225Y-113409457D01*
X130417225Y-113647552D01*
X130464844Y-113742790D01*
X130512463Y-113790409D01*
X130607701Y-113838028D01*
X130798178Y-113838028D01*
X130893416Y-113790409D01*
X130941035Y-113742790D01*
X130988654Y-113647552D01*
X129743508Y-110632192D02*
X129743508Y-109870287D01*
X130124460Y-110251240D02*
X129362556Y-110251240D01*
X119241842Y-113329957D02*
X119289461Y-113377576D01*
X119337080Y-113520433D01*
X119337080Y-113615671D01*
X119289461Y-113758528D01*
X119194223Y-113853766D01*
X119098985Y-113901385D01*
X118908509Y-113949004D01*
X118765652Y-113949004D01*
X118575176Y-113901385D01*
X118479938Y-113853766D01*
X118384700Y-113758528D01*
X118337080Y-113615671D01*
X118337080Y-113520433D01*
X118384700Y-113377576D01*
X118432319Y-113329957D01*
X119337080Y-112377576D02*
X119337080Y-112949004D01*
X119337080Y-112663290D02*
X118337080Y-112663290D01*
X118479938Y-112758528D01*
X118575176Y-112853766D01*
X118622795Y-112949004D01*
X118337080Y-111758528D02*
X118337080Y-111663290D01*
X118384700Y-111568052D01*
X118432319Y-111520433D01*
X118527557Y-111472814D01*
X118718033Y-111425195D01*
X118956128Y-111425195D01*
X119146604Y-111472814D01*
X119241842Y-111520433D01*
X119289461Y-111568052D01*
X119337080Y-111663290D01*
X119337080Y-111758528D01*
X119289461Y-111853766D01*
X119241842Y-111901385D01*
X119146604Y-111949004D01*
X118956128Y-111996623D01*
X118718033Y-111996623D01*
X118527557Y-111949004D01*
X118432319Y-111901385D01*
X118384700Y-111853766D01*
X118337080Y-111758528D01*
X124917508Y-110632192D02*
X124917508Y-109870287D01*
X125298460Y-110251240D02*
X124536556Y-110251240D01*
X139899164Y-79674980D02*
X139899164Y-78674980D01*
X140137260Y-78674980D01*
X140280117Y-78722600D01*
X140375355Y-78817838D01*
X140422974Y-78913076D01*
X140470593Y-79103552D01*
X140470593Y-79246409D01*
X140422974Y-79436885D01*
X140375355Y-79532123D01*
X140280117Y-79627361D01*
X140137260Y-79674980D01*
X139899164Y-79674980D01*
X140803926Y-78674980D02*
X141422974Y-78674980D01*
X141089640Y-79055933D01*
X141232498Y-79055933D01*
X141327736Y-79103552D01*
X141375355Y-79151171D01*
X141422974Y-79246409D01*
X141422974Y-79484504D01*
X141375355Y-79579742D01*
X141327736Y-79627361D01*
X141232498Y-79674980D01*
X140946783Y-79674980D01*
X140851545Y-79627361D01*
X140803926Y-79579742D01*
X125686915Y-79652880D02*
X125686915Y-80462404D01*
X125734534Y-80557642D01*
X125782153Y-80605261D01*
X125877391Y-80652880D01*
X126067867Y-80652880D01*
X126163105Y-80605261D01*
X126210724Y-80557642D01*
X126258343Y-80462404D01*
X126258343Y-79652880D01*
X127258343Y-80652880D02*
X126686915Y-80652880D01*
X126972629Y-80652880D02*
X126972629Y-79652880D01*
X126877391Y-79795738D01*
X126782153Y-79890976D01*
X126686915Y-79938595D01*
X121243362Y-84911938D02*
X121290981Y-84959557D01*
X121338600Y-85102414D01*
X121338600Y-85197652D01*
X121290981Y-85340509D01*
X121195743Y-85435747D01*
X121100505Y-85483366D01*
X120910029Y-85530985D01*
X120767172Y-85530985D01*
X120576696Y-85483366D01*
X120481458Y-85435747D01*
X120386220Y-85340509D01*
X120338600Y-85197652D01*
X120338600Y-85102414D01*
X120386220Y-84959557D01*
X120433839Y-84911938D01*
X121338600Y-84483366D02*
X120338600Y-84483366D01*
X120338600Y-84102414D01*
X120386220Y-84007176D01*
X120433839Y-83959557D01*
X120529077Y-83911938D01*
X120671934Y-83911938D01*
X120767172Y-83959557D01*
X120814791Y-84007176D01*
X120862410Y-84102414D01*
X120862410Y-84483366D01*
X120433839Y-83530985D02*
X120386220Y-83483366D01*
X120338600Y-83388128D01*
X120338600Y-83150033D01*
X120386220Y-83054795D01*
X120433839Y-83007176D01*
X120529077Y-82959557D01*
X120624315Y-82959557D01*
X120767172Y-83007176D01*
X121338600Y-83578604D01*
X121338600Y-82959557D01*
X121338600Y-82007176D02*
X121338600Y-82578604D01*
X121338600Y-82292890D02*
X120338600Y-82292890D01*
X120481458Y-82388128D01*
X120576696Y-82483366D01*
X120624315Y-82578604D01*
X120338600Y-81388128D02*
X120338600Y-81292890D01*
X120386220Y-81197652D01*
X120433839Y-81150033D01*
X120529077Y-81102414D01*
X120719553Y-81054795D01*
X120957648Y-81054795D01*
X121148124Y-81102414D01*
X121243362Y-81150033D01*
X121290981Y-81197652D01*
X121338600Y-81292890D01*
X121338600Y-81388128D01*
X121290981Y-81483366D01*
X121243362Y-81530985D01*
X121148124Y-81578604D01*
X120957648Y-81626223D01*
X120719553Y-81626223D01*
X120529077Y-81578604D01*
X120433839Y-81530985D01*
X120386220Y-81483366D01*
X120338600Y-81388128D01*
X120671934Y-80197652D02*
X121338600Y-80197652D01*
X120290981Y-80435747D02*
X121005267Y-80673842D01*
X121005267Y-80054795D01*
X113577642Y-89066666D02*
X113625261Y-89114285D01*
X113672880Y-89257142D01*
X113672880Y-89352380D01*
X113625261Y-89495238D01*
X113530023Y-89590476D01*
X113434785Y-89638095D01*
X113244309Y-89685714D01*
X113101452Y-89685714D01*
X112910976Y-89638095D01*
X112815738Y-89590476D01*
X112720500Y-89495238D01*
X112672880Y-89352380D01*
X112672880Y-89257142D01*
X112720500Y-89114285D01*
X112768119Y-89066666D01*
X112672880Y-88733333D02*
X112672880Y-88114285D01*
X113053833Y-88447619D01*
X113053833Y-88304761D01*
X113101452Y-88209523D01*
X113149071Y-88161904D01*
X113244309Y-88114285D01*
X113482404Y-88114285D01*
X113577642Y-88161904D01*
X113625261Y-88209523D01*
X113672880Y-88304761D01*
X113672880Y-88590476D01*
X113625261Y-88685714D01*
X113577642Y-88733333D01*
X113070687Y-86980068D02*
X113832592Y-86980068D01*
X113451640Y-87361020D02*
X113451640Y-86599116D01*
X140559493Y-82335642D02*
X140511874Y-82383261D01*
X140369017Y-82430880D01*
X140273779Y-82430880D01*
X140130921Y-82383261D01*
X140035683Y-82288023D01*
X139988064Y-82192785D01*
X139940445Y-82002309D01*
X139940445Y-81859452D01*
X139988064Y-81668976D01*
X140035683Y-81573738D01*
X140130921Y-81478500D01*
X140273779Y-81430880D01*
X140369017Y-81430880D01*
X140511874Y-81478500D01*
X140559493Y-81526119D01*
X141416636Y-81764214D02*
X141416636Y-82430880D01*
X141178540Y-81383261D02*
X140940445Y-82097547D01*
X141559493Y-82097547D01*
X132936027Y-80122068D02*
X133697932Y-80122068D01*
X133316980Y-80503020D02*
X133316980Y-79741116D01*
X113406964Y-107462580D02*
X113406964Y-106462580D01*
X113645060Y-106462580D01*
X113787917Y-106510200D01*
X113883155Y-106605438D01*
X113930774Y-106700676D01*
X113978393Y-106891152D01*
X113978393Y-107034009D01*
X113930774Y-107224485D01*
X113883155Y-107319723D01*
X113787917Y-107414961D01*
X113645060Y-107462580D01*
X113406964Y-107462580D01*
X114359345Y-106557819D02*
X114406964Y-106510200D01*
X114502202Y-106462580D01*
X114740298Y-106462580D01*
X114835536Y-106510200D01*
X114883155Y-106557819D01*
X114930774Y-106653057D01*
X114930774Y-106748295D01*
X114883155Y-106891152D01*
X114311726Y-107462580D01*
X114930774Y-107462580D01*
X113099624Y-99906080D02*
X113099624Y-98906080D01*
X113337720Y-98906080D01*
X113480577Y-98953700D01*
X113575815Y-99048938D01*
X113623434Y-99144176D01*
X113671053Y-99334652D01*
X113671053Y-99477509D01*
X113623434Y-99667985D01*
X113575815Y-99763223D01*
X113480577Y-99858461D01*
X113337720Y-99906080D01*
X113099624Y-99906080D01*
X114528196Y-99239414D02*
X114528196Y-99906080D01*
X114290100Y-98858461D02*
X114052005Y-99572747D01*
X114671053Y-99572747D01*
X112962464Y-96946980D02*
X112962464Y-95946980D01*
X113200560Y-95946980D01*
X113343417Y-95994600D01*
X113438655Y-96089838D01*
X113486274Y-96185076D01*
X113533893Y-96375552D01*
X113533893Y-96518409D01*
X113486274Y-96708885D01*
X113438655Y-96804123D01*
X113343417Y-96899361D01*
X113200560Y-96946980D01*
X112962464Y-96946980D01*
X114438655Y-95946980D02*
X113962464Y-95946980D01*
X113914845Y-96423171D01*
X113962464Y-96375552D01*
X114057702Y-96327933D01*
X114295798Y-96327933D01*
X114391036Y-96375552D01*
X114438655Y-96423171D01*
X114486274Y-96518409D01*
X114486274Y-96756504D01*
X114438655Y-96851742D01*
X114391036Y-96899361D01*
X114295798Y-96946980D01*
X114057702Y-96946980D01*
X113962464Y-96899361D01*
X113914845Y-96851742D01*
X139894084Y-98128080D02*
X139894084Y-97128080D01*
X140132180Y-97128080D01*
X140275037Y-97175700D01*
X140370275Y-97270938D01*
X140417894Y-97366176D01*
X140465513Y-97556652D01*
X140465513Y-97699509D01*
X140417894Y-97889985D01*
X140370275Y-97985223D01*
X140275037Y-98080461D01*
X140132180Y-98128080D01*
X139894084Y-98128080D01*
X140798846Y-97128080D02*
X141465513Y-97128080D01*
X141036941Y-98128080D01*
X139695964Y-84831180D02*
X139695964Y-83831180D01*
X139934060Y-83831180D01*
X140076917Y-83878800D01*
X140172155Y-83974038D01*
X140219774Y-84069276D01*
X140267393Y-84259752D01*
X140267393Y-84402609D01*
X140219774Y-84593085D01*
X140172155Y-84688323D01*
X140076917Y-84783561D01*
X139934060Y-84831180D01*
X139695964Y-84831180D01*
X141219774Y-84831180D02*
X140648345Y-84831180D01*
X140934060Y-84831180D02*
X140934060Y-83831180D01*
X140838821Y-83974038D01*
X140743583Y-84069276D01*
X140648345Y-84116895D01*
X105073200Y-84191433D02*
X105787486Y-84191433D01*
X105930343Y-84239052D01*
X106025581Y-84334290D01*
X106073200Y-84477147D01*
X106073200Y-84572385D01*
X106073200Y-83191433D02*
X106073200Y-83762861D01*
X106073200Y-83477147D02*
X105073200Y-83477147D01*
X105216058Y-83572385D01*
X105311296Y-83667623D01*
X105358915Y-83762861D01*
X105454200Y-96205633D02*
X106168486Y-96205633D01*
X106311343Y-96253252D01*
X106406581Y-96348490D01*
X106454200Y-96491347D01*
X106454200Y-96586585D01*
X105549439Y-95777061D02*
X105501820Y-95729442D01*
X105454200Y-95634204D01*
X105454200Y-95396109D01*
X105501820Y-95300871D01*
X105549439Y-95253252D01*
X105644677Y-95205633D01*
X105739915Y-95205633D01*
X105882772Y-95253252D01*
X106454200Y-95824680D01*
X106454200Y-95205633D01*
D17*
X105683715Y-104626833D02*
X106264286Y-104626833D01*
X106380400Y-104665538D01*
X106457810Y-104742947D01*
X106496515Y-104859061D01*
X106496515Y-104936471D01*
X105954648Y-103891442D02*
X106496515Y-103891442D01*
X105645010Y-104084966D02*
X106225581Y-104278490D01*
X106225581Y-103775328D01*
X103899667Y-108558995D02*
X103899667Y-109216976D01*
X103938372Y-109294385D01*
X103977077Y-109333090D01*
X104054486Y-109371795D01*
X104209305Y-109371795D01*
X104286715Y-109333090D01*
X104325420Y-109294385D01*
X104364124Y-109216976D01*
X104364124Y-108558995D01*
X104712467Y-109333090D02*
X104828581Y-109371795D01*
X105022105Y-109371795D01*
X105099515Y-109333090D01*
X105138220Y-109294385D01*
X105176924Y-109216976D01*
X105176924Y-109139566D01*
X105138220Y-109062157D01*
X105099515Y-109023452D01*
X105022105Y-108984747D01*
X104867286Y-108946042D01*
X104789877Y-108907338D01*
X104751172Y-108868633D01*
X104712467Y-108791223D01*
X104712467Y-108713814D01*
X104751172Y-108636404D01*
X104789877Y-108597700D01*
X104867286Y-108558995D01*
X105060810Y-108558995D01*
X105176924Y-108597700D01*
X105796200Y-108946042D02*
X105912315Y-108984747D01*
X105951020Y-109023452D01*
X105989724Y-109100861D01*
X105989724Y-109216976D01*
X105951020Y-109294385D01*
X105912315Y-109333090D01*
X105834905Y-109371795D01*
X105525267Y-109371795D01*
X105525267Y-108558995D01*
X105796200Y-108558995D01*
X105873610Y-108597700D01*
X105912315Y-108636404D01*
X105951020Y-108713814D01*
X105951020Y-108791223D01*
X105912315Y-108868633D01*
X105873610Y-108907338D01*
X105796200Y-108946042D01*
X105525267Y-108946042D01*
X106144543Y-109449204D02*
X106763820Y-109449204D01*
X107228277Y-108946042D02*
X107344391Y-108984747D01*
X107383096Y-109023452D01*
X107421800Y-109100861D01*
X107421800Y-109216976D01*
X107383096Y-109294385D01*
X107344391Y-109333090D01*
X107266981Y-109371795D01*
X106957343Y-109371795D01*
X106957343Y-108558995D01*
X107228277Y-108558995D01*
X107305686Y-108597700D01*
X107344391Y-108636404D01*
X107383096Y-108713814D01*
X107383096Y-108791223D01*
X107344391Y-108868633D01*
X107305686Y-108907338D01*
X107228277Y-108946042D01*
X106957343Y-108946042D01*
X107576620Y-109449204D02*
X108195896Y-109449204D01*
X108389420Y-109371795D02*
X108389420Y-108558995D01*
X108660353Y-109139566D01*
X108931286Y-108558995D01*
X108931286Y-109371795D01*
X109318334Y-109371795D02*
X109318334Y-108829928D01*
X109318334Y-108558995D02*
X109279629Y-108597700D01*
X109318334Y-108636404D01*
X109357039Y-108597700D01*
X109318334Y-108558995D01*
X109318334Y-108636404D01*
X110053724Y-109333090D02*
X109976315Y-109371795D01*
X109821496Y-109371795D01*
X109744086Y-109333090D01*
X109705381Y-109294385D01*
X109666677Y-109216976D01*
X109666677Y-108984747D01*
X109705381Y-108907338D01*
X109744086Y-108868633D01*
X109821496Y-108829928D01*
X109976315Y-108829928D01*
X110053724Y-108868633D01*
X110402067Y-109371795D02*
X110402067Y-108829928D01*
X110402067Y-108984747D02*
X110440772Y-108907338D01*
X110479477Y-108868633D01*
X110556886Y-108829928D01*
X110634296Y-108829928D01*
X111021343Y-109371795D02*
X110943934Y-109333090D01*
X110905229Y-109294385D01*
X110866524Y-109216976D01*
X110866524Y-108984747D01*
X110905229Y-108907338D01*
X110943934Y-108868633D01*
X111021343Y-108829928D01*
X111137458Y-108829928D01*
X111214867Y-108868633D01*
X111253572Y-108907338D01*
X111292277Y-108984747D01*
X111292277Y-109216976D01*
X111253572Y-109294385D01*
X111214867Y-109333090D01*
X111137458Y-109371795D01*
X111021343Y-109371795D01*
X132036215Y-105925136D02*
X132694196Y-105925136D01*
X132771605Y-105886431D01*
X132810310Y-105847726D01*
X132849015Y-105770317D01*
X132849015Y-105615498D01*
X132810310Y-105538088D01*
X132771605Y-105499383D01*
X132694196Y-105460679D01*
X132036215Y-105460679D01*
X132036215Y-105151040D02*
X132036215Y-104647879D01*
X132345853Y-104918812D01*
X132345853Y-104802698D01*
X132384558Y-104725288D01*
X132423262Y-104686583D01*
X132500672Y-104647879D01*
X132694196Y-104647879D01*
X132771605Y-104686583D01*
X132810310Y-104725288D01*
X132849015Y-104802698D01*
X132849015Y-105034926D01*
X132810310Y-105112336D01*
X132771605Y-105151040D01*
X137661226Y-106894811D02*
X137661226Y-106507763D01*
X137893455Y-106972220D02*
X137080655Y-106701287D01*
X137893455Y-106430354D01*
X137893455Y-106159420D02*
X137080655Y-106159420D01*
X137080655Y-105849782D01*
X137119360Y-105772373D01*
X137158064Y-105733668D01*
X137235474Y-105694963D01*
X137351588Y-105694963D01*
X137428998Y-105733668D01*
X137467702Y-105772373D01*
X137506407Y-105849782D01*
X137506407Y-106159420D01*
X137893455Y-104920868D02*
X137893455Y-105385325D01*
X137893455Y-105153097D02*
X137080655Y-105153097D01*
X137196769Y-105230506D01*
X137274179Y-105307916D01*
X137312883Y-105385325D01*
X137893455Y-104146773D02*
X137893455Y-104611230D01*
X137893455Y-104379001D02*
X137080655Y-104379001D01*
X137196769Y-104456411D01*
X137274179Y-104533820D01*
X137312883Y-104611230D01*
X137893455Y-103372678D02*
X137893455Y-103837135D01*
X137893455Y-103604906D02*
X137080655Y-103604906D01*
X137196769Y-103682316D01*
X137274179Y-103759725D01*
X137312883Y-103837135D01*
X137080655Y-103101744D02*
X137080655Y-102559878D01*
X137893455Y-102908220D01*
X137583817Y-102250240D02*
X137583817Y-101630963D01*
X137080655Y-100856868D02*
X137080655Y-101243916D01*
X137467702Y-101282620D01*
X137428998Y-101243916D01*
X137390293Y-101166506D01*
X137390293Y-100972982D01*
X137428998Y-100895573D01*
X137467702Y-100856868D01*
X137545112Y-100818163D01*
X137738636Y-100818163D01*
X137816045Y-100856868D01*
X137854750Y-100895573D01*
X137893455Y-100972982D01*
X137893455Y-101166506D01*
X137854750Y-101243916D01*
X137816045Y-101282620D01*
X137080655Y-100315001D02*
X137080655Y-100237592D01*
X137119360Y-100160182D01*
X137158064Y-100121478D01*
X137235474Y-100082773D01*
X137390293Y-100044068D01*
X137583817Y-100044068D01*
X137738636Y-100082773D01*
X137816045Y-100121478D01*
X137854750Y-100160182D01*
X137893455Y-100237592D01*
X137893455Y-100315001D01*
X137854750Y-100392411D01*
X137816045Y-100431116D01*
X137738636Y-100469820D01*
X137583817Y-100508525D01*
X137390293Y-100508525D01*
X137235474Y-100469820D01*
X137158064Y-100431116D01*
X137119360Y-100392411D01*
X137080655Y-100315001D01*
D10*
X113381564Y-105100380D02*
X113381564Y-104100380D01*
X113619660Y-104100380D01*
X113762517Y-104148000D01*
X113857755Y-104243238D01*
X113905374Y-104338476D01*
X113952993Y-104528952D01*
X113952993Y-104671809D01*
X113905374Y-104862285D01*
X113857755Y-104957523D01*
X113762517Y-105052761D01*
X113619660Y-105100380D01*
X113381564Y-105100380D01*
X114810136Y-104100380D02*
X114619660Y-104100380D01*
X114524421Y-104148000D01*
X114476802Y-104195619D01*
X114381564Y-104338476D01*
X114333945Y-104528952D01*
X114333945Y-104909904D01*
X114381564Y-105005142D01*
X114429183Y-105052761D01*
X114524421Y-105100380D01*
X114714898Y-105100380D01*
X114810136Y-105052761D01*
X114857755Y-105005142D01*
X114905374Y-104909904D01*
X114905374Y-104671809D01*
X114857755Y-104576571D01*
X114810136Y-104528952D01*
X114714898Y-104481333D01*
X114524421Y-104481333D01*
X114429183Y-104528952D01*
X114381564Y-104576571D01*
X114333945Y-104671809D01*
X112767905Y-85545680D02*
X113339334Y-85545680D01*
X113053620Y-86545680D02*
X113053620Y-85545680D01*
X113672667Y-86545680D02*
X113672667Y-85545680D01*
X113672667Y-86021871D02*
X114244096Y-86021871D01*
X114244096Y-86545680D02*
X114244096Y-85545680D01*
X115244096Y-86545680D02*
X114672667Y-86545680D01*
X114958381Y-86545680D02*
X114958381Y-85545680D01*
X114863143Y-85688538D01*
X114767905Y-85783776D01*
X114672667Y-85831395D01*
X113113345Y-79335380D02*
X113684774Y-79335380D01*
X113399060Y-80335380D02*
X113399060Y-79335380D01*
X114018107Y-80335380D02*
X114018107Y-79335380D01*
X114018107Y-79811571D02*
X114589536Y-79811571D01*
X114589536Y-80335380D02*
X114589536Y-79335380D01*
X115018107Y-79430619D02*
X115065726Y-79383000D01*
X115160964Y-79335380D01*
X115399060Y-79335380D01*
X115494298Y-79383000D01*
X115541917Y-79430619D01*
X115589536Y-79525857D01*
X115589536Y-79621095D01*
X115541917Y-79763952D01*
X114970488Y-80335380D01*
X115589536Y-80335380D01*
X113952993Y-77795380D02*
X113476802Y-77795380D01*
X113476802Y-76795380D01*
X114238707Y-76890619D02*
X114286326Y-76843000D01*
X114381564Y-76795380D01*
X114619660Y-76795380D01*
X114714898Y-76843000D01*
X114762517Y-76890619D01*
X114810136Y-76985857D01*
X114810136Y-77081095D01*
X114762517Y-77223952D01*
X114191088Y-77795380D01*
X114810136Y-77795380D01*
X112691586Y-91241571D02*
X112358253Y-91241571D01*
X112358253Y-91765380D02*
X112358253Y-90765380D01*
X112834443Y-90765380D01*
X113739205Y-91765380D02*
X113167777Y-91765380D01*
X113453491Y-91765380D02*
X113453491Y-90765380D01*
X113358253Y-90908238D01*
X113263015Y-91003476D01*
X113167777Y-91051095D01*
X114013953Y-110040680D02*
X113680620Y-109564490D01*
X113442524Y-110040680D02*
X113442524Y-109040680D01*
X113823477Y-109040680D01*
X113918715Y-109088300D01*
X113966334Y-109135919D01*
X114013953Y-109231157D01*
X114013953Y-109374014D01*
X113966334Y-109469252D01*
X113918715Y-109516871D01*
X113823477Y-109564490D01*
X113442524Y-109564490D01*
X114347286Y-109040680D02*
X114966334Y-109040680D01*
X114633000Y-109421633D01*
X114775858Y-109421633D01*
X114871096Y-109469252D01*
X114918715Y-109516871D01*
X114966334Y-109612109D01*
X114966334Y-109850204D01*
X114918715Y-109945442D01*
X114871096Y-109993061D01*
X114775858Y-110040680D01*
X114490143Y-110040680D01*
X114394905Y-109993061D01*
X114347286Y-109945442D01*
X140254693Y-89301580D02*
X139921360Y-88825390D01*
X139683264Y-89301580D02*
X139683264Y-88301580D01*
X140064217Y-88301580D01*
X140159455Y-88349200D01*
X140207074Y-88396819D01*
X140254693Y-88492057D01*
X140254693Y-88634914D01*
X140207074Y-88730152D01*
X140159455Y-88777771D01*
X140064217Y-88825390D01*
X139683264Y-88825390D01*
X140588026Y-88301580D02*
X141254693Y-88301580D01*
X140826121Y-89301580D01*
X140432493Y-77249280D02*
X140099160Y-76773090D01*
X139861064Y-77249280D02*
X139861064Y-76249280D01*
X140242017Y-76249280D01*
X140337255Y-76296900D01*
X140384874Y-76344519D01*
X140432493Y-76439757D01*
X140432493Y-76582614D01*
X140384874Y-76677852D01*
X140337255Y-76725471D01*
X140242017Y-76773090D01*
X139861064Y-76773090D01*
X141289636Y-76582614D02*
X141289636Y-77249280D01*
X141051540Y-76201661D02*
X140813445Y-76915947D01*
X141432493Y-76915947D01*
X113988553Y-102420680D02*
X113655220Y-101944490D01*
X113417124Y-102420680D02*
X113417124Y-101420680D01*
X113798077Y-101420680D01*
X113893315Y-101468300D01*
X113940934Y-101515919D01*
X113988553Y-101611157D01*
X113988553Y-101754014D01*
X113940934Y-101849252D01*
X113893315Y-101896871D01*
X113798077Y-101944490D01*
X113417124Y-101944490D01*
X114893315Y-101420680D02*
X114417124Y-101420680D01*
X114369505Y-101896871D01*
X114417124Y-101849252D01*
X114512362Y-101801633D01*
X114750458Y-101801633D01*
X114845696Y-101849252D01*
X114893315Y-101896871D01*
X114940934Y-101992109D01*
X114940934Y-102230204D01*
X114893315Y-102325442D01*
X114845696Y-102373061D01*
X114750458Y-102420680D01*
X114512362Y-102420680D01*
X114417124Y-102373061D01*
X114369505Y-102325442D01*
X113683713Y-94483180D02*
X113350380Y-94006990D01*
X113112284Y-94483180D02*
X113112284Y-93483180D01*
X113493237Y-93483180D01*
X113588475Y-93530800D01*
X113636094Y-93578419D01*
X113683713Y-93673657D01*
X113683713Y-93816514D01*
X113636094Y-93911752D01*
X113588475Y-93959371D01*
X113493237Y-94006990D01*
X113112284Y-94006990D01*
X114540856Y-93483180D02*
X114350380Y-93483180D01*
X114255141Y-93530800D01*
X114207522Y-93578419D01*
X114112284Y-93721276D01*
X114064665Y-93911752D01*
X114064665Y-94292704D01*
X114112284Y-94387942D01*
X114159903Y-94435561D01*
X114255141Y-94483180D01*
X114445618Y-94483180D01*
X114540856Y-94435561D01*
X114588475Y-94387942D01*
X114636094Y-94292704D01*
X114636094Y-94054609D01*
X114588475Y-93959371D01*
X114540856Y-93911752D01*
X114445618Y-93864133D01*
X114255141Y-93864133D01*
X114159903Y-93911752D01*
X114112284Y-93959371D01*
X114064665Y-94054609D01*
X114140953Y-84793080D02*
X113807620Y-84316890D01*
X113569524Y-84793080D02*
X113569524Y-83793080D01*
X113950477Y-83793080D01*
X114045715Y-83840700D01*
X114093334Y-83888319D01*
X114140953Y-83983557D01*
X114140953Y-84126414D01*
X114093334Y-84221652D01*
X114045715Y-84269271D01*
X113950477Y-84316890D01*
X113569524Y-84316890D01*
X115093334Y-84793080D02*
X114521905Y-84793080D01*
X114807620Y-84793080D02*
X114807620Y-83793080D01*
X114712381Y-83935938D01*
X114617143Y-84031176D01*
X114521905Y-84078795D01*
X114064753Y-82507080D02*
X113731420Y-82030890D01*
X113493324Y-82507080D02*
X113493324Y-81507080D01*
X113874277Y-81507080D01*
X113969515Y-81554700D01*
X114017134Y-81602319D01*
X114064753Y-81697557D01*
X114064753Y-81840414D01*
X114017134Y-81935652D01*
X113969515Y-81983271D01*
X113874277Y-82030890D01*
X113493324Y-82030890D01*
X114445705Y-81602319D02*
X114493324Y-81554700D01*
X114588562Y-81507080D01*
X114826658Y-81507080D01*
X114921896Y-81554700D01*
X114969515Y-81602319D01*
X115017134Y-81697557D01*
X115017134Y-81792795D01*
X114969515Y-81935652D01*
X114398086Y-82507080D01*
X115017134Y-82507080D01*
X140280093Y-91162142D02*
X140232474Y-91209761D01*
X140089617Y-91257380D01*
X139994379Y-91257380D01*
X139851521Y-91209761D01*
X139756283Y-91114523D01*
X139708664Y-91019285D01*
X139661045Y-90828809D01*
X139661045Y-90685952D01*
X139708664Y-90495476D01*
X139756283Y-90400238D01*
X139851521Y-90305000D01*
X139994379Y-90257380D01*
X140089617Y-90257380D01*
X140232474Y-90305000D01*
X140280093Y-90352619D01*
X141137236Y-90257380D02*
X140946760Y-90257380D01*
X140851521Y-90305000D01*
X140803902Y-90352619D01*
X140708664Y-90495476D01*
X140661045Y-90685952D01*
X140661045Y-91066904D01*
X140708664Y-91162142D01*
X140756283Y-91209761D01*
X140851521Y-91257380D01*
X141041998Y-91257380D01*
X141137236Y-91209761D01*
X141184855Y-91162142D01*
X141232474Y-91066904D01*
X141232474Y-90828809D01*
X141184855Y-90733571D01*
X141137236Y-90685952D01*
X141041998Y-90638333D01*
X140851521Y-90638333D01*
X140756283Y-90685952D01*
X140708664Y-90733571D01*
X140661045Y-90828809D01*
X139319973Y-104697802D02*
X139272354Y-104745421D01*
X139129497Y-104793040D01*
X139034259Y-104793040D01*
X138891401Y-104745421D01*
X138796163Y-104650183D01*
X138748544Y-104554945D01*
X138700925Y-104364469D01*
X138700925Y-104221612D01*
X138748544Y-104031136D01*
X138796163Y-103935898D01*
X138891401Y-103840660D01*
X139034259Y-103793040D01*
X139129497Y-103793040D01*
X139272354Y-103840660D01*
X139319973Y-103888279D01*
X140224735Y-103793040D02*
X139748544Y-103793040D01*
X139700925Y-104269231D01*
X139748544Y-104221612D01*
X139843782Y-104173993D01*
X140081878Y-104173993D01*
X140177116Y-104221612D01*
X140224735Y-104269231D01*
X140272354Y-104364469D01*
X140272354Y-104602564D01*
X140224735Y-104697802D01*
X140177116Y-104745421D01*
X140081878Y-104793040D01*
X139843782Y-104793040D01*
X139748544Y-104745421D01*
X139700925Y-104697802D01*
X140280093Y-93486242D02*
X140232474Y-93533861D01*
X140089617Y-93581480D01*
X139994379Y-93581480D01*
X139851521Y-93533861D01*
X139756283Y-93438623D01*
X139708664Y-93343385D01*
X139661045Y-93152909D01*
X139661045Y-93010052D01*
X139708664Y-92819576D01*
X139756283Y-92724338D01*
X139851521Y-92629100D01*
X139994379Y-92581480D01*
X140089617Y-92581480D01*
X140232474Y-92629100D01*
X140280093Y-92676719D01*
X140613426Y-92581480D02*
X141280093Y-92581480D01*
X140851521Y-93581480D01*
X130142953Y-104928942D02*
X130095334Y-104976561D01*
X129952477Y-105024180D01*
X129857239Y-105024180D01*
X129714381Y-104976561D01*
X129619143Y-104881323D01*
X129571524Y-104786085D01*
X129523905Y-104595609D01*
X129523905Y-104452752D01*
X129571524Y-104262276D01*
X129619143Y-104167038D01*
X129714381Y-104071800D01*
X129857239Y-104024180D01*
X129952477Y-104024180D01*
X130095334Y-104071800D01*
X130142953Y-104119419D01*
X130714381Y-104452752D02*
X130619143Y-104405133D01*
X130571524Y-104357514D01*
X130523905Y-104262276D01*
X130523905Y-104214657D01*
X130571524Y-104119419D01*
X130619143Y-104071800D01*
X130714381Y-104024180D01*
X130904858Y-104024180D01*
X131000096Y-104071800D01*
X131047715Y-104119419D01*
X131095334Y-104214657D01*
X131095334Y-104262276D01*
X131047715Y-104357514D01*
X131000096Y-104405133D01*
X130904858Y-104452752D01*
X130714381Y-104452752D01*
X130619143Y-104500371D01*
X130571524Y-104547990D01*
X130523905Y-104643228D01*
X130523905Y-104833704D01*
X130571524Y-104928942D01*
X130619143Y-104976561D01*
X130714381Y-105024180D01*
X130904858Y-105024180D01*
X131000096Y-104976561D01*
X131047715Y-104928942D01*
X131095334Y-104833704D01*
X131095334Y-104643228D01*
X131047715Y-104547990D01*
X131000096Y-104500371D01*
X130904858Y-104452752D01*
X121718342Y-104069117D02*
X121765961Y-104116736D01*
X121813580Y-104259593D01*
X121813580Y-104354831D01*
X121765961Y-104497688D01*
X121670723Y-104592926D01*
X121575485Y-104640545D01*
X121385009Y-104688164D01*
X121242152Y-104688164D01*
X121051676Y-104640545D01*
X120956438Y-104592926D01*
X120861200Y-104497688D01*
X120813580Y-104354831D01*
X120813580Y-104259593D01*
X120861200Y-104116736D01*
X120908819Y-104069117D01*
X121813580Y-103116736D02*
X121813580Y-103688164D01*
X121813580Y-103402450D02*
X120813580Y-103402450D01*
X120956438Y-103497688D01*
X121051676Y-103592926D01*
X121099295Y-103688164D01*
X121813580Y-102164355D02*
X121813580Y-102735783D01*
X121813580Y-102450069D02*
X120813580Y-102450069D01*
X120956438Y-102545307D01*
X121051676Y-102640545D01*
X121099295Y-102735783D01*
X106493986Y-107211880D02*
X106493986Y-107926166D01*
X106446367Y-108069023D01*
X106351129Y-108164261D01*
X106208272Y-108211880D01*
X106113034Y-108211880D01*
X106874939Y-107211880D02*
X107493986Y-107211880D01*
X107160653Y-107592833D01*
X107303510Y-107592833D01*
X107398748Y-107640452D01*
X107446367Y-107688071D01*
X107493986Y-107783309D01*
X107493986Y-108021404D01*
X107446367Y-108116642D01*
X107398748Y-108164261D01*
X107303510Y-108211880D01*
X107017796Y-108211880D01*
X106922558Y-108164261D01*
X106874939Y-108116642D01*
X140351213Y-95751922D02*
X140303594Y-95799541D01*
X140160737Y-95847160D01*
X140065499Y-95847160D01*
X139922641Y-95799541D01*
X139827403Y-95704303D01*
X139779784Y-95609065D01*
X139732165Y-95418589D01*
X139732165Y-95275732D01*
X139779784Y-95085256D01*
X139827403Y-94990018D01*
X139922641Y-94894780D01*
X140065499Y-94847160D01*
X140160737Y-94847160D01*
X140303594Y-94894780D01*
X140351213Y-94942399D01*
X140732165Y-94942399D02*
X140779784Y-94894780D01*
X140875022Y-94847160D01*
X141113118Y-94847160D01*
X141208356Y-94894780D01*
X141255975Y-94942399D01*
X141303594Y-95037637D01*
X141303594Y-95132875D01*
X141255975Y-95275732D01*
X140684546Y-95847160D01*
X141303594Y-95847160D01*
X148906502Y-110002557D02*
X148954121Y-110050176D01*
X149001740Y-110193033D01*
X149001740Y-110288271D01*
X148954121Y-110431128D01*
X148858883Y-110526366D01*
X148763645Y-110573985D01*
X148573169Y-110621604D01*
X148430312Y-110621604D01*
X148239836Y-110573985D01*
X148144598Y-110526366D01*
X148049360Y-110431128D01*
X148001740Y-110288271D01*
X148001740Y-110193033D01*
X148049360Y-110050176D01*
X148096979Y-110002557D01*
X149001740Y-109050176D02*
X149001740Y-109621604D01*
X149001740Y-109335890D02*
X148001740Y-109335890D01*
X148144598Y-109431128D01*
X148239836Y-109526366D01*
X148287455Y-109621604D01*
X148096979Y-108669223D02*
X148049360Y-108621604D01*
X148001740Y-108526366D01*
X148001740Y-108288271D01*
X148049360Y-108193033D01*
X148096979Y-108145414D01*
X148192217Y-108097795D01*
X148287455Y-108097795D01*
X148430312Y-108145414D01*
X149001740Y-108716842D01*
X149001740Y-108097795D01*
X141776722Y-109705377D02*
X141824341Y-109752996D01*
X141871960Y-109895853D01*
X141871960Y-109991091D01*
X141824341Y-110133948D01*
X141729103Y-110229186D01*
X141633865Y-110276805D01*
X141443389Y-110324424D01*
X141300532Y-110324424D01*
X141110056Y-110276805D01*
X141014818Y-110229186D01*
X140919580Y-110133948D01*
X140871960Y-109991091D01*
X140871960Y-109895853D01*
X140919580Y-109752996D01*
X140967199Y-109705377D01*
X141871960Y-108752996D02*
X141871960Y-109324424D01*
X141871960Y-109038710D02*
X140871960Y-109038710D01*
X141014818Y-109133948D01*
X141110056Y-109229186D01*
X141157675Y-109324424D01*
X140871960Y-108419662D02*
X140871960Y-107800615D01*
X141252913Y-108133948D01*
X141252913Y-107991091D01*
X141300532Y-107895853D01*
X141348151Y-107848234D01*
X141443389Y-107800615D01*
X141681484Y-107800615D01*
X141776722Y-107848234D01*
X141824341Y-107895853D01*
X141871960Y-107991091D01*
X141871960Y-108276805D01*
X141824341Y-108372043D01*
X141776722Y-108419662D01*
X154981613Y-77355960D02*
X154505422Y-77355960D01*
X154505422Y-76355960D01*
X155838756Y-77355960D02*
X155267327Y-77355960D01*
X155553041Y-77355960D02*
X155553041Y-76355960D01*
X155457803Y-76498818D01*
X155362565Y-76594056D01*
X155267327Y-76641675D01*
X154712240Y-103310986D02*
X154236050Y-103644320D01*
X154712240Y-103882415D02*
X153712240Y-103882415D01*
X153712240Y-103501462D01*
X153759860Y-103406224D01*
X153807479Y-103358605D01*
X153902717Y-103310986D01*
X154045574Y-103310986D01*
X154140812Y-103358605D01*
X154188431Y-103406224D01*
X154236050Y-103501462D01*
X154236050Y-103882415D01*
X154140812Y-102739558D02*
X154093193Y-102834796D01*
X154045574Y-102882415D01*
X153950336Y-102930034D01*
X153902717Y-102930034D01*
X153807479Y-102882415D01*
X153759860Y-102834796D01*
X153712240Y-102739558D01*
X153712240Y-102549081D01*
X153759860Y-102453843D01*
X153807479Y-102406224D01*
X153902717Y-102358605D01*
X153950336Y-102358605D01*
X154045574Y-102406224D01*
X154093193Y-102453843D01*
X154140812Y-102549081D01*
X154140812Y-102739558D01*
X154188431Y-102834796D01*
X154236050Y-102882415D01*
X154331288Y-102930034D01*
X154521764Y-102930034D01*
X154617002Y-102882415D01*
X154664621Y-102834796D01*
X154712240Y-102739558D01*
X154712240Y-102549081D01*
X154664621Y-102453843D01*
X154617002Y-102406224D01*
X154521764Y-102358605D01*
X154331288Y-102358605D01*
X154236050Y-102406224D01*
X154188431Y-102453843D01*
X154140812Y-102549081D01*
X145506700Y-109406986D02*
X145030510Y-109740320D01*
X145506700Y-109978415D02*
X144506700Y-109978415D01*
X144506700Y-109597462D01*
X144554320Y-109502224D01*
X144601939Y-109454605D01*
X144697177Y-109406986D01*
X144840034Y-109406986D01*
X144935272Y-109454605D01*
X144982891Y-109502224D01*
X145030510Y-109597462D01*
X145030510Y-109978415D01*
X145506700Y-108930796D02*
X145506700Y-108740320D01*
X145459081Y-108645081D01*
X145411462Y-108597462D01*
X145268605Y-108502224D01*
X145078129Y-108454605D01*
X144697177Y-108454605D01*
X144601939Y-108502224D01*
X144554320Y-108549843D01*
X144506700Y-108645081D01*
X144506700Y-108835558D01*
X144554320Y-108930796D01*
X144601939Y-108978415D01*
X144697177Y-109026034D01*
X144935272Y-109026034D01*
X145030510Y-108978415D01*
X145078129Y-108930796D01*
X145125748Y-108835558D01*
X145125748Y-108645081D01*
X145078129Y-108549843D01*
X145030510Y-108502224D01*
X144935272Y-108454605D01*
X174496480Y-101515443D02*
X175496480Y-100848777D01*
X174496480Y-100848777D02*
X175496480Y-101515443D01*
X175496480Y-99944015D02*
X175496480Y-100515443D01*
X175496480Y-100229729D02*
X174496480Y-100229729D01*
X174639338Y-100324967D01*
X174734576Y-100420205D01*
X174782195Y-100515443D01*
X149909700Y-100142370D02*
X150576366Y-101142370D01*
X150576366Y-100142370D02*
X149909700Y-101142370D01*
X150862081Y-100142370D02*
X151481128Y-100142370D01*
X151147795Y-100523323D01*
X151290652Y-100523323D01*
X151385890Y-100570942D01*
X151433509Y-100618561D01*
X151481128Y-100713799D01*
X151481128Y-100951894D01*
X151433509Y-101047132D01*
X151385890Y-101094751D01*
X151290652Y-101142370D01*
X151004938Y-101142370D01*
X150909700Y-101094751D01*
X150862081Y-101047132D01*
X143404071Y-100759842D02*
X143404071Y-101140794D01*
X143137404Y-100340794D02*
X143404071Y-100759842D01*
X143670738Y-100340794D01*
X144356452Y-101140794D02*
X143899309Y-101140794D01*
X144127881Y-101140794D02*
X144127881Y-100340794D01*
X144051690Y-100455080D01*
X143975500Y-100531270D01*
X143899309Y-100569366D01*
D18*
X146583862Y-102300008D02*
X146679100Y-102300008D01*
X146479100Y-102366674D02*
X146583862Y-102300008D01*
X146479100Y-102233341D01*
X146498147Y-102176198D02*
X146488624Y-102166674D01*
X146479100Y-102147627D01*
X146479100Y-102100008D01*
X146488624Y-102080960D01*
X146498147Y-102071436D01*
X146517195Y-102061912D01*
X146536243Y-102061912D01*
X146564814Y-102071436D01*
X146679100Y-102185722D01*
X146679100Y-102061912D01*
X147260052Y-103600008D02*
X147269576Y-103609531D01*
X147279100Y-103638103D01*
X147279100Y-103657150D01*
X147269576Y-103685722D01*
X147250528Y-103704770D01*
X147231481Y-103714293D01*
X147193385Y-103723817D01*
X147164814Y-103723817D01*
X147126719Y-103714293D01*
X147107671Y-103704770D01*
X147088624Y-103685722D01*
X147079100Y-103657150D01*
X147079100Y-103638103D01*
X147088624Y-103609531D01*
X147098147Y-103600008D01*
X147279100Y-103514293D02*
X147145766Y-103514293D01*
X147183862Y-103514293D02*
X147164814Y-103504770D01*
X147155290Y-103495246D01*
X147145766Y-103476198D01*
X147145766Y-103457150D01*
X147145766Y-103409531D02*
X147279100Y-103361912D01*
X147145766Y-103314293D02*
X147279100Y-103361912D01*
X147326719Y-103380960D01*
X147336243Y-103390484D01*
X147345766Y-103409531D01*
X147269576Y-103247627D02*
X147279100Y-103228579D01*
X147279100Y-103190484D01*
X147269576Y-103171436D01*
X147250528Y-103161912D01*
X147241004Y-103161912D01*
X147221957Y-103171436D01*
X147212433Y-103190484D01*
X147212433Y-103219055D01*
X147202909Y-103238103D01*
X147183862Y-103247627D01*
X147174338Y-103247627D01*
X147155290Y-103238103D01*
X147145766Y-103219055D01*
X147145766Y-103190484D01*
X147155290Y-103171436D01*
X147145766Y-103104770D02*
X147145766Y-103028579D01*
X147079100Y-103076198D02*
X147250528Y-103076198D01*
X147269576Y-103066674D01*
X147279100Y-103047627D01*
X147279100Y-103028579D01*
X147279100Y-102876198D02*
X147174338Y-102876198D01*
X147155290Y-102885722D01*
X147145766Y-102904770D01*
X147145766Y-102942865D01*
X147155290Y-102961912D01*
X147269576Y-102876198D02*
X147279100Y-102895246D01*
X147279100Y-102942865D01*
X147269576Y-102961912D01*
X147250528Y-102971436D01*
X147231481Y-102971436D01*
X147212433Y-102961912D01*
X147202909Y-102942865D01*
X147202909Y-102895246D01*
X147193385Y-102876198D01*
X147279100Y-102752389D02*
X147269576Y-102771436D01*
X147250528Y-102780960D01*
X147079100Y-102780960D01*
X147298147Y-102723817D02*
X147298147Y-102571436D01*
X147088624Y-102419055D02*
X147079100Y-102438103D01*
X147079100Y-102466674D01*
X147088624Y-102495246D01*
X147107671Y-102514293D01*
X147126719Y-102523817D01*
X147164814Y-102533341D01*
X147193385Y-102533341D01*
X147231481Y-102523817D01*
X147250528Y-102514293D01*
X147269576Y-102495246D01*
X147279100Y-102466674D01*
X147279100Y-102447627D01*
X147269576Y-102419055D01*
X147260052Y-102409531D01*
X147193385Y-102409531D01*
X147193385Y-102447627D01*
X147279100Y-102323817D02*
X147079100Y-102323817D01*
X147279100Y-102209531D01*
X147079100Y-102209531D01*
X147279100Y-102114293D02*
X147079100Y-102114293D01*
X147079100Y-102066674D01*
X147088624Y-102038103D01*
X147107671Y-102019055D01*
X147126719Y-102009531D01*
X147164814Y-102000008D01*
X147193385Y-102000008D01*
X147231481Y-102009531D01*
X147250528Y-102019055D01*
X147269576Y-102038103D01*
X147279100Y-102066674D01*
X147279100Y-102114293D01*
X147098147Y-101923817D02*
X147088624Y-101914293D01*
X147079100Y-101895246D01*
X147079100Y-101847627D01*
X147088624Y-101828579D01*
X147098147Y-101819055D01*
X147117195Y-101809531D01*
X147136243Y-101809531D01*
X147164814Y-101819055D01*
X147279100Y-101933341D01*
X147279100Y-101809531D01*
X147079100Y-101742865D02*
X147079100Y-101619055D01*
X147155290Y-101685722D01*
X147155290Y-101657150D01*
X147164814Y-101638103D01*
X147174338Y-101628579D01*
X147193385Y-101619055D01*
X147241004Y-101619055D01*
X147260052Y-101628579D01*
X147269576Y-101638103D01*
X147279100Y-101657150D01*
X147279100Y-101714293D01*
X147269576Y-101733341D01*
X147260052Y-101742865D01*
X147279100Y-101276198D02*
X147279100Y-101390484D01*
X147279100Y-101333341D02*
X147079100Y-101333341D01*
X147107671Y-101352389D01*
X147126719Y-101371436D01*
X147136243Y-101390484D01*
X147079100Y-101104770D02*
X147079100Y-101142865D01*
X147088624Y-101161912D01*
X147098147Y-101171436D01*
X147126719Y-101190484D01*
X147164814Y-101200008D01*
X147241004Y-101200008D01*
X147260052Y-101190484D01*
X147269576Y-101180960D01*
X147279100Y-101161912D01*
X147279100Y-101123817D01*
X147269576Y-101104770D01*
X147260052Y-101095246D01*
X147241004Y-101085722D01*
X147193385Y-101085722D01*
X147174338Y-101095246D01*
X147164814Y-101104770D01*
X147155290Y-101123817D01*
X147155290Y-101161912D01*
X147164814Y-101180960D01*
X147174338Y-101190484D01*
X147193385Y-101200008D01*
X147279100Y-101000008D02*
X147079100Y-101000008D01*
X147221957Y-100933341D01*
X147079100Y-100866674D01*
X147279100Y-100866674D01*
X147279100Y-100771436D02*
X147079100Y-100771436D01*
X147174338Y-100771436D02*
X147174338Y-100657150D01*
X147279100Y-100657150D02*
X147079100Y-100657150D01*
X147145766Y-100580960D02*
X147145766Y-100476198D01*
X147279100Y-100580960D01*
X147279100Y-100476198D01*
M02*
