M48
; DRILL file {KiCad 6.0.0-rc1-unknown-9cac0a3~66~ubuntu16.04.1} date St 23. január 2019, 08:05:10 CET
; FORMAT={-:-/ absolute / metric / decimal}
; #@! TF.CreationDate,2019-01-23T08:05:10+01:00
; #@! TF.GenerationSoftware,Kicad,Pcbnew,6.0.0-rc1-unknown-9cac0a3~66~ubuntu16.04.1
FMAT,2
METRIC
T1C0.400
T2C0.500
T3C0.550
T4C0.599
T5C1.016
T6C1.778
%
G90
G05
T1
X112.262Y-64.014
X113.538Y-64.516
X114.3Y-99.822
X114.808Y-84.074
X115.316Y-82.042
X115.729Y-91.826
X115.951Y-96.266
X115.964Y-64.732
X116.078Y-92.456
X116.207Y-91.268
X116.223Y-86.251
X116.497Y-89.288
X116.544Y-93.123
X116.586Y-91.948
X116.858Y-85.616
X116.969Y-88.771
X117.135Y-93.499
X117.372Y-83.206
X117.602Y-88.138
X117.685Y-84.328
X118.083Y-87.349
X118.618Y-92.202
X118.618Y-94.996
X118.872Y-89.408
X119.228Y-107.64
X119.282Y-81.026
X119.38Y-92.964
X119.38Y-95.631
X119.888Y-88.646
X119.888Y-86.614
X120.142Y-63.754
X120.142Y-93.472
X120.172Y-107.295
X120.421Y-104.838
X120.478Y-89.58
X120.596Y-86.56
X120.81Y-67.056
X120.904Y-100.076
X120.955Y-110.414
X121.006Y-112.814
X121.158Y-81.026
X121.158Y-88.138
X121.173Y-89.664
X121.399Y-75.476
X121.721Y-104.838
X121.92Y-93.726
X121.92Y-95.25
X122.083Y-107.295
X122.174Y-67.818
X122.199Y-99.289
X122.682Y-92.202
X122.936Y-95.377
X122.95Y-99.249
X123.19Y-93.726
X123.19Y-64.516
X124.013Y-106.736
X124.079Y-97.409
X124.079Y-99.093
X124.714Y-88.392
X124.714Y-92.71
X125.984Y-78.74
X126.238Y-70.358
X126.873Y-94.615
X127.508Y-62.484
X127.508Y-64.262
X127.508Y-66.802
X127.508Y-68.834
X127.602Y-94.081
X127.9Y-93.448
X128.143Y-91.694
X128.524Y-88.9
X128.651Y-87.884
X136.646Y-64.014
X137.922Y-64.516
X138.684Y-99.822
X139.192Y-84.074
X139.7Y-82.042
X140.113Y-91.826
X140.335Y-96.266
X140.348Y-64.732
X140.462Y-92.456
X140.591Y-91.268
X140.607Y-86.251
X140.881Y-89.288
X140.928Y-93.123
X140.97Y-91.948
X141.242Y-85.616
X141.353Y-88.771
X141.519Y-93.499
X141.756Y-83.206
X141.986Y-88.138
X142.069Y-84.328
X142.467Y-87.349
X143.002Y-92.202
X143.002Y-94.996
X143.256Y-89.408
X143.612Y-107.64
X143.666Y-81.026
X143.764Y-92.964
X143.764Y-95.631
X144.272Y-88.646
X144.272Y-86.614
X144.526Y-63.754
X144.526Y-93.472
X144.556Y-107.295
X144.805Y-104.838
X144.862Y-89.58
X144.98Y-86.56
X145.194Y-67.056
X145.288Y-100.076
X145.339Y-110.414
X145.39Y-112.814
X145.542Y-81.026
X145.542Y-88.138
X145.557Y-89.664
X145.783Y-75.476
X146.105Y-104.838
X146.304Y-93.726
X146.304Y-95.25
X146.467Y-107.295
X146.558Y-67.818
X146.583Y-99.289
X147.066Y-92.202
X147.32Y-95.377
X147.334Y-99.249
X147.574Y-93.726
X147.574Y-64.516
X148.397Y-106.736
X148.463Y-97.409
X148.463Y-99.093
X149.098Y-88.392
X149.098Y-92.71
X150.368Y-78.74
X150.622Y-70.358
X151.257Y-94.615
X151.892Y-62.484
X151.892Y-64.262
X151.892Y-66.802
X151.892Y-68.834
X151.986Y-94.081
X152.284Y-93.448
X152.527Y-91.694
X152.908Y-88.9
X153.035Y-87.884
X161.03Y-64.014
X162.306Y-64.516
X163.068Y-99.822
X163.576Y-84.074
X164.084Y-82.042
X164.497Y-91.826
X164.719Y-96.266
X164.732Y-64.732
X164.846Y-92.456
X164.975Y-91.268
X164.991Y-86.251
X165.265Y-89.288
X165.312Y-93.123
X165.354Y-91.948
X165.626Y-85.616
X165.737Y-88.771
X165.903Y-93.499
X166.14Y-83.206
X166.37Y-88.138
X166.453Y-84.328
X166.851Y-87.349
X167.386Y-92.202
X167.386Y-94.996
X167.64Y-89.408
X167.996Y-107.64
X168.05Y-81.026
X168.148Y-92.964
X168.148Y-95.631
X168.656Y-88.646
X168.656Y-86.614
X168.91Y-63.754
X168.91Y-93.472
X168.94Y-107.295
X169.189Y-104.838
X169.246Y-89.58
X169.364Y-86.56
X169.578Y-67.056
X169.672Y-100.076
X169.723Y-110.414
X169.774Y-112.814
X169.926Y-81.026
X169.926Y-88.138
X169.941Y-89.664
X170.167Y-75.476
X170.489Y-104.838
X170.688Y-93.726
X170.688Y-95.25
X170.851Y-107.295
X170.942Y-67.818
X170.967Y-99.289
X171.45Y-92.202
X171.704Y-95.377
X171.718Y-99.249
X171.958Y-93.726
X171.958Y-64.516
X172.781Y-106.736
X172.847Y-97.409
X172.847Y-99.093
X173.482Y-88.392
X173.482Y-92.71
X174.752Y-78.74
X175.006Y-70.358
X175.641Y-94.615
X176.276Y-62.484
X176.276Y-64.262
X176.276Y-66.802
X176.276Y-68.834
X176.37Y-94.081
X176.668Y-93.448
X176.911Y-91.694
X177.292Y-88.9
X177.419Y-87.884
X185.414Y-64.014
X186.69Y-64.516
X187.452Y-99.822
X187.96Y-84.074
X188.468Y-82.042
X188.881Y-91.826
X189.103Y-96.266
X189.116Y-64.732
X189.23Y-92.456
X189.359Y-91.268
X189.375Y-86.251
X189.649Y-89.288
X189.696Y-93.123
X189.738Y-91.948
X190.01Y-85.616
X190.121Y-88.771
X190.287Y-93.499
X190.524Y-83.206
X190.754Y-88.138
X190.837Y-84.328
X191.235Y-87.349
X191.77Y-92.202
X191.77Y-94.996
X192.024Y-89.408
X192.38Y-107.64
X192.434Y-81.026
X192.532Y-92.964
X192.532Y-95.631
X193.04Y-88.646
X193.04Y-86.614
X193.294Y-63.754
X193.294Y-93.472
X193.324Y-107.295
X193.573Y-104.838
X193.63Y-89.58
X193.748Y-86.56
X193.962Y-67.056
X194.056Y-100.076
X194.107Y-110.414
X194.158Y-112.814
X194.31Y-81.026
X194.31Y-88.138
X194.325Y-89.664
X194.551Y-75.476
X194.873Y-104.838
X195.072Y-93.726
X195.072Y-95.25
X195.235Y-107.295
X195.326Y-67.818
X195.351Y-99.289
X195.834Y-92.202
X196.088Y-95.377
X196.102Y-99.249
X196.342Y-93.726
X196.342Y-64.516
X197.165Y-106.736
X197.231Y-97.409
X197.231Y-99.093
X197.866Y-88.392
X197.866Y-92.71
X199.136Y-78.74
X199.39Y-70.358
X200.025Y-94.615
X200.66Y-62.484
X200.66Y-64.262
X200.66Y-66.802
X200.66Y-68.834
X200.754Y-94.081
X201.052Y-93.448
X201.295Y-91.694
X201.676Y-88.9
X201.803Y-87.884
T4
X175.006Y-101.613
X175.006Y-103.111
X126.238Y-101.613
X126.238Y-103.111
X199.39Y-101.613
X199.39Y-103.111
X150.622Y-101.613
X150.622Y-103.111
T5
X135.128Y-61.976
X135.128Y-64.516
X135.128Y-67.056
X135.128Y-69.596
X135.128Y-72.136
X135.128Y-74.676
X135.128Y-77.216
X135.128Y-79.756
X135.128Y-82.296
X135.128Y-84.836
X135.128Y-87.376
X135.128Y-89.916
X135.128Y-92.456
X135.128Y-94.996
X135.128Y-97.536
X135.128Y-100.076
X135.128Y-102.616
X135.128Y-105.156
X135.128Y-107.696
X135.128Y-110.236
X167.132Y-59.436
X167.132Y-61.976
X169.672Y-59.436
X169.672Y-61.976
X172.212Y-59.436
X172.212Y-61.976
X183.896Y-61.976
X183.896Y-64.516
X183.896Y-67.056
X183.896Y-69.596
X183.896Y-72.136
X183.896Y-74.676
X183.896Y-77.216
X183.896Y-79.756
X183.896Y-82.296
X183.896Y-84.836
X183.896Y-87.376
X183.896Y-89.916
X183.896Y-92.456
X183.896Y-94.996
X183.896Y-97.536
X183.896Y-100.076
X183.896Y-102.616
X183.896Y-105.156
X183.896Y-107.696
X183.896Y-110.236
X131.064Y-61.976
X131.064Y-64.516
X131.064Y-67.056
X131.064Y-69.596
X131.064Y-72.136
X131.064Y-74.676
X131.064Y-77.216
X131.064Y-79.756
X131.064Y-82.296
X131.064Y-84.836
X131.064Y-87.376
X131.064Y-89.916
X131.064Y-92.456
X131.064Y-94.996
X131.064Y-97.536
X131.064Y-100.076
X131.064Y-102.616
X131.064Y-105.156
X131.064Y-107.696
X131.064Y-110.236
X110.744Y-61.976
X110.744Y-64.516
X110.744Y-67.056
X110.744Y-69.596
X110.744Y-72.136
X110.744Y-74.676
X110.744Y-77.216
X110.744Y-79.756
X110.744Y-82.296
X110.744Y-84.836
X110.744Y-87.376
X110.744Y-89.916
X110.744Y-92.456
X110.744Y-94.996
X110.744Y-97.536
X110.744Y-100.076
X110.744Y-102.616
X110.744Y-105.156
X110.744Y-107.696
X110.744Y-110.236
X155.448Y-61.976
X155.448Y-64.516
X155.448Y-67.056
X155.448Y-69.596
X155.448Y-72.136
X155.448Y-74.676
X155.448Y-77.216
X155.448Y-79.756
X155.448Y-82.296
X155.448Y-84.836
X155.448Y-87.376
X155.448Y-89.916
X155.448Y-92.456
X155.448Y-94.996
X155.448Y-97.536
X155.448Y-100.076
X155.448Y-102.616
X155.448Y-105.156
X155.448Y-107.696
X155.448Y-110.236
X179.832Y-61.976
X179.832Y-64.516
X179.832Y-67.056
X179.832Y-69.596
X179.832Y-72.136
X179.832Y-74.676
X179.832Y-77.216
X179.832Y-79.756
X179.832Y-82.296
X179.832Y-84.836
X179.832Y-87.376
X179.832Y-89.916
X179.832Y-92.456
X179.832Y-94.996
X179.832Y-97.536
X179.832Y-100.076
X179.832Y-102.616
X179.832Y-105.156
X179.832Y-107.696
X179.832Y-110.236
X191.516Y-59.436
X191.516Y-61.976
X194.056Y-59.436
X194.056Y-61.976
X196.596Y-59.436
X196.596Y-61.976
X142.748Y-59.436
X142.748Y-61.976
X145.288Y-59.436
X145.288Y-61.976
X147.828Y-59.436
X147.828Y-61.976
X118.364Y-59.436
X118.364Y-61.976
X120.904Y-59.436
X120.904Y-61.976
X123.444Y-59.436
X123.444Y-61.976
X204.216Y-61.976
X204.216Y-64.516
X204.216Y-67.056
X204.216Y-69.596
X204.216Y-72.136
X204.216Y-74.676
X204.216Y-77.216
X204.216Y-79.756
X204.216Y-82.296
X204.216Y-84.836
X204.216Y-87.376
X204.216Y-89.916
X204.216Y-92.456
X204.216Y-94.996
X204.216Y-97.536
X204.216Y-100.076
X204.216Y-102.616
X204.216Y-105.156
X204.216Y-107.696
X204.216Y-110.236
X159.512Y-61.976
X159.512Y-64.516
X159.512Y-67.056
X159.512Y-69.596
X159.512Y-72.136
X159.512Y-74.676
X159.512Y-77.216
X159.512Y-79.756
X159.512Y-82.296
X159.512Y-84.836
X159.512Y-87.376
X159.512Y-89.916
X159.512Y-92.456
X159.512Y-94.996
X159.512Y-97.536
X159.512Y-100.076
X159.512Y-102.616
X159.512Y-105.156
X159.512Y-107.696
X159.512Y-110.236
T6
X179.832Y-59.436
X183.896Y-59.436
X159.512Y-59.436
X110.744Y-59.436
X204.216Y-112.776
X110.744Y-112.776
X204.216Y-59.436
X155.448Y-59.436
X135.128Y-59.436
X135.128Y-112.776
X159.512Y-112.776
X131.064Y-112.776
X155.448Y-112.776
X183.896Y-112.776
X131.064Y-59.436
X179.832Y-112.776
T2
G00X166.359Y-111.624
M15
G01X166.359Y-110.974
M16
G05
G00X173.359Y-111.624
M15
G01X173.359Y-110.974
M16
G05
G00X117.591Y-111.624
M15
G01X117.591Y-110.974
M16
G05
G00X124.591Y-111.624
M15
G01X124.591Y-110.974
M16
G05
G00X141.975Y-111.624
M15
G01X141.975Y-110.974
M16
G05
G00X148.975Y-111.624
M15
G01X148.975Y-110.974
M16
G05
G00X190.743Y-111.624
M15
G01X190.743Y-110.974
M16
G05
G00X197.743Y-111.624
M15
G01X197.743Y-110.974
M16
G05
T3
G00X167.209Y-108.599
M15
G01X167.509Y-108.599
M16
G05
G00X172.209Y-108.599
M15
G01X172.509Y-108.599
M16
G05
G00X118.441Y-108.599
M15
G01X118.741Y-108.599
M16
G05
G00X123.441Y-108.599
M15
G01X123.741Y-108.599
M16
G05
G00X142.825Y-108.599
M15
G01X143.125Y-108.599
M16
G05
G00X147.825Y-108.599
M15
G01X148.125Y-108.599
M16
G05
G00X191.593Y-108.599
M15
G01X191.893Y-108.599
M16
G05
G00X196.593Y-108.599
M15
G01X196.893Y-108.599
M16
G05
T0
M30
