G04 #@! TF.GenerationSoftware,KiCad,Pcbnew,6.0.0-rc1-unknown-9cac0a3~66~ubuntu16.04.1*
G04 #@! TF.CreationDate,2019-01-23T08:05:13+01:00
G04 #@! TF.ProjectId,nano324,6e616e6f-3332-4342-9e6b-696361645f70,rev?*
G04 #@! TF.SameCoordinates,Original*
G04 #@! TF.FileFunction,Legend,Top*
G04 #@! TF.FilePolarity,Positive*
%FSLAX46Y46*%
G04 Gerber Fmt 4.6, Leading zero omitted, Abs format (unit mm)*
G04 Created by KiCad (PCBNEW 6.0.0-rc1-unknown-9cac0a3~66~ubuntu16.04.1) date St 23. január 2019, 08:05:13 CET*
%MOMM*%
%LPD*%
G04 APERTURE LIST*
%ADD10C,0.600000*%
%ADD11C,0.150000*%
G04 APERTURE END LIST*
D10*
X181864000Y-114300000D02*
X181864000Y-131445000D01*
X157480000Y-114300000D02*
X157480000Y-131445000D01*
X133096000Y-114300000D02*
X133096000Y-131445000D01*
X206248000Y-131445000D02*
X206248000Y-124968000D01*
X108712000Y-131445000D02*
X206248000Y-131445000D01*
X206248000Y-114300000D02*
X206248000Y-124968000D01*
X108712000Y-114300000D02*
X108712000Y-131445000D01*
X206248000Y-114300000D02*
X181864000Y-114300000D01*
X181864000Y-114300000D02*
X181864000Y-57912000D01*
X181864000Y-57912000D02*
X206248000Y-57912000D01*
X206248000Y-57912000D02*
X206248000Y-114300000D01*
D11*
X196531202Y-82436156D02*
X196059798Y-82907561D01*
X196463859Y-82503500D02*
X196531202Y-82503500D01*
X196632217Y-82537172D01*
X196733233Y-82638187D01*
X196766904Y-82739202D01*
X196733233Y-82840217D01*
X196362843Y-83210607D01*
X197002607Y-83850370D02*
X197372996Y-83479981D01*
X197406668Y-83378965D01*
X197372996Y-83277950D01*
X197238309Y-83143263D01*
X197137294Y-83109591D01*
X197036278Y-83816698D02*
X196935263Y-83783026D01*
X196766904Y-83614668D01*
X196733233Y-83513652D01*
X196766904Y-83412637D01*
X196834248Y-83345294D01*
X196935263Y-83311622D01*
X197036278Y-83345294D01*
X197204637Y-83513652D01*
X197305652Y-83547324D01*
X197810729Y-83715683D02*
X197339324Y-84187087D01*
X197743385Y-83783026D02*
X197810729Y-83783026D01*
X197911744Y-83816698D01*
X198012759Y-83917713D01*
X198046431Y-84018729D01*
X198012759Y-84119744D01*
X197642370Y-84490133D01*
X198080103Y-84927866D02*
X198046431Y-84826851D01*
X198046431Y-84759507D01*
X198080103Y-84658492D01*
X198282133Y-84456461D01*
X198383148Y-84422790D01*
X198450492Y-84422790D01*
X198551507Y-84456461D01*
X198652522Y-84557477D01*
X198686194Y-84658492D01*
X198686194Y-84725835D01*
X198652522Y-84826851D01*
X198450492Y-85028881D01*
X198349477Y-85062553D01*
X198282133Y-85062553D01*
X198181118Y-85028881D01*
X198080103Y-84927866D01*
X199258614Y-84692164D02*
X199696347Y-85129896D01*
X199191270Y-85163568D01*
X199292286Y-85264583D01*
X199325957Y-85365599D01*
X199325957Y-85432942D01*
X199292286Y-85533957D01*
X199123927Y-85702316D01*
X199022912Y-85735988D01*
X198955568Y-85735988D01*
X198854553Y-85702316D01*
X198652522Y-85500286D01*
X198618851Y-85399270D01*
X198618851Y-85331927D01*
X199898377Y-85466614D02*
X199965721Y-85466614D01*
X200066736Y-85500286D01*
X200235095Y-85668644D01*
X200268766Y-85769660D01*
X200268766Y-85837003D01*
X200235095Y-85938018D01*
X200167751Y-86005362D01*
X200033064Y-86072705D01*
X199224942Y-86072705D01*
X199662675Y-86510438D01*
X200740171Y-86645125D02*
X200268766Y-87116530D01*
X200841186Y-86207392D02*
X200167751Y-86544110D01*
X200605484Y-86981843D01*
X187405500Y-95462263D02*
X188112607Y-94755156D01*
X187843233Y-95024530D02*
X187944248Y-95058202D01*
X188078935Y-95192889D01*
X188112607Y-95293904D01*
X188112607Y-95361248D01*
X188078935Y-95462263D01*
X187876904Y-95664294D01*
X187775889Y-95697965D01*
X187708546Y-95697965D01*
X187607530Y-95664294D01*
X187472843Y-95529607D01*
X187439172Y-95428591D01*
X188449324Y-95563278D02*
X188146278Y-96203042D01*
X188786042Y-95899996D02*
X188146278Y-96203042D01*
X187910576Y-96304057D01*
X187843233Y-96304057D01*
X187742217Y-96270385D01*
X189122759Y-97179522D02*
X189829866Y-96472416D01*
X189459477Y-96977492D02*
X189392133Y-97448896D01*
X189863538Y-96977492D02*
X189324790Y-96977492D01*
X189796194Y-97852957D02*
X189762522Y-97751942D01*
X189762522Y-97684599D01*
X189796194Y-97583583D01*
X189998225Y-97381553D01*
X190099240Y-97347881D01*
X190166583Y-97347881D01*
X190267599Y-97381553D01*
X190368614Y-97482568D01*
X190402286Y-97583583D01*
X190402286Y-97650927D01*
X190368614Y-97751942D01*
X190166583Y-97953973D01*
X190065568Y-97987644D01*
X189998225Y-97987644D01*
X189897209Y-97953973D01*
X189796194Y-97852957D01*
X190739003Y-97852957D02*
X190435957Y-98492721D01*
X191075721Y-98189675D01*
X190974705Y-99031469D02*
X190941034Y-98930453D01*
X190941034Y-98863110D01*
X190974705Y-98762095D01*
X191176736Y-98560064D01*
X191277751Y-98526392D01*
X191345095Y-98526392D01*
X191446110Y-98560064D01*
X191547125Y-98661079D01*
X191580797Y-98762095D01*
X191580797Y-98829438D01*
X191547125Y-98930453D01*
X191345095Y-99132484D01*
X191244079Y-99166156D01*
X191176736Y-99166156D01*
X191075721Y-99132484D01*
X190974705Y-99031469D01*
D10*
X181864000Y-114300000D02*
X157480000Y-114300000D01*
X157480000Y-114300000D02*
X157480000Y-57912000D01*
X157480000Y-57912000D02*
X181864000Y-57912000D01*
X181864000Y-57912000D02*
X181864000Y-114300000D01*
D11*
X172147202Y-82436156D02*
X171675798Y-82907561D01*
X172079859Y-82503500D02*
X172147202Y-82503500D01*
X172248217Y-82537172D01*
X172349233Y-82638187D01*
X172382904Y-82739202D01*
X172349233Y-82840217D01*
X171978843Y-83210607D01*
X172618607Y-83850370D02*
X172988996Y-83479981D01*
X173022668Y-83378965D01*
X172988996Y-83277950D01*
X172854309Y-83143263D01*
X172753294Y-83109591D01*
X172652278Y-83816698D02*
X172551263Y-83783026D01*
X172382904Y-83614668D01*
X172349233Y-83513652D01*
X172382904Y-83412637D01*
X172450248Y-83345294D01*
X172551263Y-83311622D01*
X172652278Y-83345294D01*
X172820637Y-83513652D01*
X172921652Y-83547324D01*
X173426729Y-83715683D02*
X172955324Y-84187087D01*
X173359385Y-83783026D02*
X173426729Y-83783026D01*
X173527744Y-83816698D01*
X173628759Y-83917713D01*
X173662431Y-84018729D01*
X173628759Y-84119744D01*
X173258370Y-84490133D01*
X173696103Y-84927866D02*
X173662431Y-84826851D01*
X173662431Y-84759507D01*
X173696103Y-84658492D01*
X173898133Y-84456461D01*
X173999148Y-84422790D01*
X174066492Y-84422790D01*
X174167507Y-84456461D01*
X174268522Y-84557477D01*
X174302194Y-84658492D01*
X174302194Y-84725835D01*
X174268522Y-84826851D01*
X174066492Y-85028881D01*
X173965477Y-85062553D01*
X173898133Y-85062553D01*
X173797118Y-85028881D01*
X173696103Y-84927866D01*
X174874614Y-84692164D02*
X175312347Y-85129896D01*
X174807270Y-85163568D01*
X174908286Y-85264583D01*
X174941957Y-85365599D01*
X174941957Y-85432942D01*
X174908286Y-85533957D01*
X174739927Y-85702316D01*
X174638912Y-85735988D01*
X174571568Y-85735988D01*
X174470553Y-85702316D01*
X174268522Y-85500286D01*
X174234851Y-85399270D01*
X174234851Y-85331927D01*
X175514377Y-85466614D02*
X175581721Y-85466614D01*
X175682736Y-85500286D01*
X175851095Y-85668644D01*
X175884766Y-85769660D01*
X175884766Y-85837003D01*
X175851095Y-85938018D01*
X175783751Y-86005362D01*
X175649064Y-86072705D01*
X174840942Y-86072705D01*
X175278675Y-86510438D01*
X176356171Y-86645125D02*
X175884766Y-87116530D01*
X176457186Y-86207392D02*
X175783751Y-86544110D01*
X176221484Y-86981843D01*
X163021500Y-95462263D02*
X163728607Y-94755156D01*
X163459233Y-95024530D02*
X163560248Y-95058202D01*
X163694935Y-95192889D01*
X163728607Y-95293904D01*
X163728607Y-95361248D01*
X163694935Y-95462263D01*
X163492904Y-95664294D01*
X163391889Y-95697965D01*
X163324546Y-95697965D01*
X163223530Y-95664294D01*
X163088843Y-95529607D01*
X163055172Y-95428591D01*
X164065324Y-95563278D02*
X163762278Y-96203042D01*
X164402042Y-95899996D02*
X163762278Y-96203042D01*
X163526576Y-96304057D01*
X163459233Y-96304057D01*
X163358217Y-96270385D01*
X164738759Y-97179522D02*
X165445866Y-96472416D01*
X165075477Y-96977492D02*
X165008133Y-97448896D01*
X165479538Y-96977492D02*
X164940790Y-96977492D01*
X165412194Y-97852957D02*
X165378522Y-97751942D01*
X165378522Y-97684599D01*
X165412194Y-97583583D01*
X165614225Y-97381553D01*
X165715240Y-97347881D01*
X165782583Y-97347881D01*
X165883599Y-97381553D01*
X165984614Y-97482568D01*
X166018286Y-97583583D01*
X166018286Y-97650927D01*
X165984614Y-97751942D01*
X165782583Y-97953973D01*
X165681568Y-97987644D01*
X165614225Y-97987644D01*
X165513209Y-97953973D01*
X165412194Y-97852957D01*
X166355003Y-97852957D02*
X166051957Y-98492721D01*
X166691721Y-98189675D01*
X166590705Y-99031469D02*
X166557034Y-98930453D01*
X166557034Y-98863110D01*
X166590705Y-98762095D01*
X166792736Y-98560064D01*
X166893751Y-98526392D01*
X166961095Y-98526392D01*
X167062110Y-98560064D01*
X167163125Y-98661079D01*
X167196797Y-98762095D01*
X167196797Y-98829438D01*
X167163125Y-98930453D01*
X166961095Y-99132484D01*
X166860079Y-99166156D01*
X166792736Y-99166156D01*
X166691721Y-99132484D01*
X166590705Y-99031469D01*
D10*
X157480000Y-114300000D02*
X133096000Y-114300000D01*
X133096000Y-114300000D02*
X133096000Y-57912000D01*
X133096000Y-57912000D02*
X157480000Y-57912000D01*
X157480000Y-57912000D02*
X157480000Y-114300000D01*
D11*
X147763202Y-82436156D02*
X147291798Y-82907561D01*
X147695859Y-82503500D02*
X147763202Y-82503500D01*
X147864217Y-82537172D01*
X147965233Y-82638187D01*
X147998904Y-82739202D01*
X147965233Y-82840217D01*
X147594843Y-83210607D01*
X148234607Y-83850370D02*
X148604996Y-83479981D01*
X148638668Y-83378965D01*
X148604996Y-83277950D01*
X148470309Y-83143263D01*
X148369294Y-83109591D01*
X148268278Y-83816698D02*
X148167263Y-83783026D01*
X147998904Y-83614668D01*
X147965233Y-83513652D01*
X147998904Y-83412637D01*
X148066248Y-83345294D01*
X148167263Y-83311622D01*
X148268278Y-83345294D01*
X148436637Y-83513652D01*
X148537652Y-83547324D01*
X149042729Y-83715683D02*
X148571324Y-84187087D01*
X148975385Y-83783026D02*
X149042729Y-83783026D01*
X149143744Y-83816698D01*
X149244759Y-83917713D01*
X149278431Y-84018729D01*
X149244759Y-84119744D01*
X148874370Y-84490133D01*
X149312103Y-84927866D02*
X149278431Y-84826851D01*
X149278431Y-84759507D01*
X149312103Y-84658492D01*
X149514133Y-84456461D01*
X149615148Y-84422790D01*
X149682492Y-84422790D01*
X149783507Y-84456461D01*
X149884522Y-84557477D01*
X149918194Y-84658492D01*
X149918194Y-84725835D01*
X149884522Y-84826851D01*
X149682492Y-85028881D01*
X149581477Y-85062553D01*
X149514133Y-85062553D01*
X149413118Y-85028881D01*
X149312103Y-84927866D01*
X150490614Y-84692164D02*
X150928347Y-85129896D01*
X150423270Y-85163568D01*
X150524286Y-85264583D01*
X150557957Y-85365599D01*
X150557957Y-85432942D01*
X150524286Y-85533957D01*
X150355927Y-85702316D01*
X150254912Y-85735988D01*
X150187568Y-85735988D01*
X150086553Y-85702316D01*
X149884522Y-85500286D01*
X149850851Y-85399270D01*
X149850851Y-85331927D01*
X151130377Y-85466614D02*
X151197721Y-85466614D01*
X151298736Y-85500286D01*
X151467095Y-85668644D01*
X151500766Y-85769660D01*
X151500766Y-85837003D01*
X151467095Y-85938018D01*
X151399751Y-86005362D01*
X151265064Y-86072705D01*
X150456942Y-86072705D01*
X150894675Y-86510438D01*
X151972171Y-86645125D02*
X151500766Y-87116530D01*
X152073186Y-86207392D02*
X151399751Y-86544110D01*
X151837484Y-86981843D01*
X138637500Y-95462263D02*
X139344607Y-94755156D01*
X139075233Y-95024530D02*
X139176248Y-95058202D01*
X139310935Y-95192889D01*
X139344607Y-95293904D01*
X139344607Y-95361248D01*
X139310935Y-95462263D01*
X139108904Y-95664294D01*
X139007889Y-95697965D01*
X138940546Y-95697965D01*
X138839530Y-95664294D01*
X138704843Y-95529607D01*
X138671172Y-95428591D01*
X139681324Y-95563278D02*
X139378278Y-96203042D01*
X140018042Y-95899996D02*
X139378278Y-96203042D01*
X139142576Y-96304057D01*
X139075233Y-96304057D01*
X138974217Y-96270385D01*
X140354759Y-97179522D02*
X141061866Y-96472416D01*
X140691477Y-96977492D02*
X140624133Y-97448896D01*
X141095538Y-96977492D02*
X140556790Y-96977492D01*
X141028194Y-97852957D02*
X140994522Y-97751942D01*
X140994522Y-97684599D01*
X141028194Y-97583583D01*
X141230225Y-97381553D01*
X141331240Y-97347881D01*
X141398583Y-97347881D01*
X141499599Y-97381553D01*
X141600614Y-97482568D01*
X141634286Y-97583583D01*
X141634286Y-97650927D01*
X141600614Y-97751942D01*
X141398583Y-97953973D01*
X141297568Y-97987644D01*
X141230225Y-97987644D01*
X141129209Y-97953973D01*
X141028194Y-97852957D01*
X141971003Y-97852957D02*
X141667957Y-98492721D01*
X142307721Y-98189675D01*
X142206705Y-99031469D02*
X142173034Y-98930453D01*
X142173034Y-98863110D01*
X142206705Y-98762095D01*
X142408736Y-98560064D01*
X142509751Y-98526392D01*
X142577095Y-98526392D01*
X142678110Y-98560064D01*
X142779125Y-98661079D01*
X142812797Y-98762095D01*
X142812797Y-98829438D01*
X142779125Y-98930453D01*
X142577095Y-99132484D01*
X142476079Y-99166156D01*
X142408736Y-99166156D01*
X142307721Y-99132484D01*
X142206705Y-99031469D01*
X114253500Y-95462263D02*
X114960607Y-94755156D01*
X114691233Y-95024530D02*
X114792248Y-95058202D01*
X114926935Y-95192889D01*
X114960607Y-95293904D01*
X114960607Y-95361248D01*
X114926935Y-95462263D01*
X114724904Y-95664294D01*
X114623889Y-95697965D01*
X114556546Y-95697965D01*
X114455530Y-95664294D01*
X114320843Y-95529607D01*
X114287172Y-95428591D01*
X115297324Y-95563278D02*
X114994278Y-96203042D01*
X115634042Y-95899996D02*
X114994278Y-96203042D01*
X114758576Y-96304057D01*
X114691233Y-96304057D01*
X114590217Y-96270385D01*
X115970759Y-97179522D02*
X116677866Y-96472416D01*
X116307477Y-96977492D02*
X116240133Y-97448896D01*
X116711538Y-96977492D02*
X116172790Y-96977492D01*
X116644194Y-97852957D02*
X116610522Y-97751942D01*
X116610522Y-97684599D01*
X116644194Y-97583583D01*
X116846225Y-97381553D01*
X116947240Y-97347881D01*
X117014583Y-97347881D01*
X117115599Y-97381553D01*
X117216614Y-97482568D01*
X117250286Y-97583583D01*
X117250286Y-97650927D01*
X117216614Y-97751942D01*
X117014583Y-97953973D01*
X116913568Y-97987644D01*
X116846225Y-97987644D01*
X116745209Y-97953973D01*
X116644194Y-97852957D01*
X117587003Y-97852957D02*
X117283957Y-98492721D01*
X117923721Y-98189675D01*
X117822705Y-99031469D02*
X117789034Y-98930453D01*
X117789034Y-98863110D01*
X117822705Y-98762095D01*
X118024736Y-98560064D01*
X118125751Y-98526392D01*
X118193095Y-98526392D01*
X118294110Y-98560064D01*
X118395125Y-98661079D01*
X118428797Y-98762095D01*
X118428797Y-98829438D01*
X118395125Y-98930453D01*
X118193095Y-99132484D01*
X118092079Y-99166156D01*
X118024736Y-99166156D01*
X117923721Y-99132484D01*
X117822705Y-99031469D01*
X123379202Y-82436156D02*
X122907798Y-82907561D01*
X123311859Y-82503500D02*
X123379202Y-82503500D01*
X123480217Y-82537172D01*
X123581233Y-82638187D01*
X123614904Y-82739202D01*
X123581233Y-82840217D01*
X123210843Y-83210607D01*
X123850607Y-83850370D02*
X124220996Y-83479981D01*
X124254668Y-83378965D01*
X124220996Y-83277950D01*
X124086309Y-83143263D01*
X123985294Y-83109591D01*
X123884278Y-83816698D02*
X123783263Y-83783026D01*
X123614904Y-83614668D01*
X123581233Y-83513652D01*
X123614904Y-83412637D01*
X123682248Y-83345294D01*
X123783263Y-83311622D01*
X123884278Y-83345294D01*
X124052637Y-83513652D01*
X124153652Y-83547324D01*
X124658729Y-83715683D02*
X124187324Y-84187087D01*
X124591385Y-83783026D02*
X124658729Y-83783026D01*
X124759744Y-83816698D01*
X124860759Y-83917713D01*
X124894431Y-84018729D01*
X124860759Y-84119744D01*
X124490370Y-84490133D01*
X124928103Y-84927866D02*
X124894431Y-84826851D01*
X124894431Y-84759507D01*
X124928103Y-84658492D01*
X125130133Y-84456461D01*
X125231148Y-84422790D01*
X125298492Y-84422790D01*
X125399507Y-84456461D01*
X125500522Y-84557477D01*
X125534194Y-84658492D01*
X125534194Y-84725835D01*
X125500522Y-84826851D01*
X125298492Y-85028881D01*
X125197477Y-85062553D01*
X125130133Y-85062553D01*
X125029118Y-85028881D01*
X124928103Y-84927866D01*
X126106614Y-84692164D02*
X126544347Y-85129896D01*
X126039270Y-85163568D01*
X126140286Y-85264583D01*
X126173957Y-85365599D01*
X126173957Y-85432942D01*
X126140286Y-85533957D01*
X125971927Y-85702316D01*
X125870912Y-85735988D01*
X125803568Y-85735988D01*
X125702553Y-85702316D01*
X125500522Y-85500286D01*
X125466851Y-85399270D01*
X125466851Y-85331927D01*
X126746377Y-85466614D02*
X126813721Y-85466614D01*
X126914736Y-85500286D01*
X127083095Y-85668644D01*
X127116766Y-85769660D01*
X127116766Y-85837003D01*
X127083095Y-85938018D01*
X127015751Y-86005362D01*
X126881064Y-86072705D01*
X126072942Y-86072705D01*
X126510675Y-86510438D01*
X127588171Y-86645125D02*
X127116766Y-87116530D01*
X127689186Y-86207392D02*
X127015751Y-86544110D01*
X127453484Y-86981843D01*
D10*
X133096000Y-57912000D02*
X133096000Y-114300000D01*
X108712000Y-57912000D02*
X133096000Y-57912000D01*
X108712000Y-114300000D02*
X108712000Y-57912000D01*
X133096000Y-114300000D02*
X108712000Y-114300000D01*
D11*
X198140320Y-101462840D02*
X198140320Y-103261160D01*
X198140320Y-102062280D02*
X198440040Y-101963220D01*
X198140320Y-102661720D02*
X198440040Y-102760780D01*
X198140320Y-101462840D02*
X198140320Y-100761800D01*
X198140320Y-103212900D02*
X198140320Y-103962200D01*
X189539880Y-103962200D02*
X198140320Y-103962200D01*
X189539880Y-100761800D02*
X189539880Y-103962200D01*
X198140320Y-100761800D02*
X189539880Y-100761800D01*
X202666000Y-60426000D02*
X205766000Y-60426000D01*
X202666000Y-61976000D02*
X202666000Y-60426000D01*
X205486000Y-63246000D02*
X202946000Y-63246000D01*
X205766000Y-60426000D02*
X205766000Y-61976000D01*
X202946000Y-111506000D02*
X202946000Y-63246000D01*
X205486000Y-111506000D02*
X202946000Y-111506000D01*
X205486000Y-63246000D02*
X205486000Y-111506000D01*
X185166000Y-63246000D02*
X185166000Y-111506000D01*
X185166000Y-111506000D02*
X182626000Y-111506000D01*
X182626000Y-111506000D02*
X182626000Y-63246000D01*
X185446000Y-60426000D02*
X185446000Y-61976000D01*
X185166000Y-63246000D02*
X182626000Y-63246000D01*
X182346000Y-61976000D02*
X182346000Y-60426000D01*
X182346000Y-60426000D02*
X185446000Y-60426000D01*
X193578703Y-84090742D02*
X192677142Y-83189181D01*
X201374555Y-90932000D02*
X200897258Y-90454703D01*
X194056000Y-98250555D02*
X193578703Y-97773258D01*
X186737445Y-90932000D02*
X187214742Y-91409297D01*
X194056000Y-83613445D02*
X194533297Y-84090742D01*
X186737445Y-90932000D02*
X187214742Y-90454703D01*
X194056000Y-98250555D02*
X194533297Y-97773258D01*
X201374555Y-90932000D02*
X200897258Y-91409297D01*
X194056000Y-83613445D02*
X193578703Y-84090742D01*
X190417660Y-84074000D02*
X189357000Y-83013340D01*
X188013497Y-86478163D02*
X190417660Y-84074000D01*
X186952837Y-85417503D02*
X188013497Y-86478163D01*
X189357000Y-83013340D02*
X186952837Y-85417503D01*
X200190100Y-107116880D02*
X200190100Y-104719120D01*
X201292460Y-107716320D02*
X200093580Y-107716320D01*
X200693020Y-108216700D02*
X200693020Y-107116880D01*
X194492880Y-107116880D02*
X199694800Y-107116880D01*
X199694800Y-104719120D02*
X194492880Y-104719120D01*
X198984840Y-72115120D02*
X198984840Y-73315120D01*
X197234840Y-73315120D02*
X197234840Y-72115120D01*
X195167280Y-73308760D02*
X195167280Y-72108760D01*
X196917280Y-72108760D02*
X196917280Y-73308760D01*
X191609000Y-65576560D02*
X191609000Y-69176560D01*
X193709000Y-65576560D02*
X193709000Y-69176560D01*
X192959000Y-67626560D02*
X192359000Y-67626560D01*
X192359000Y-67626560D02*
X192659000Y-67326560D01*
X192659000Y-67326560D02*
X192859000Y-67526560D01*
X192859000Y-67526560D02*
X192609000Y-67526560D01*
X192609000Y-67526560D02*
X192659000Y-67476560D01*
X193159000Y-67226560D02*
X192159000Y-67226560D01*
X192659000Y-67726560D02*
X192659000Y-68226560D01*
X192659000Y-67226560D02*
X193159000Y-67726560D01*
X193159000Y-67726560D02*
X192159000Y-67726560D01*
X192159000Y-67726560D02*
X192659000Y-67226560D01*
X189893100Y-113979460D02*
X189893100Y-107574460D01*
X198593100Y-112749460D02*
X189893100Y-112749460D01*
X198593100Y-107574460D02*
X198593100Y-113979460D01*
X189893100Y-107574460D02*
X198593100Y-107574460D01*
X189893100Y-113979460D02*
X198593100Y-113979460D01*
X188892180Y-107142280D02*
X194094100Y-107142280D01*
X194094100Y-104744520D02*
X188892180Y-104744520D01*
X187893960Y-103644700D02*
X187893960Y-104744520D01*
X187294520Y-104145080D02*
X188493400Y-104145080D01*
X188396880Y-104744520D02*
X188396880Y-107142280D01*
X197051200Y-75760000D02*
X191678800Y-75760000D01*
X197001200Y-79460000D02*
X191628800Y-79460000D01*
X191278800Y-76160000D02*
G75*
G02X191678800Y-75760000I400000J0D01*
G01*
X197051200Y-75760000D02*
G75*
G02X197451200Y-76160000I0J-400000D01*
G01*
X197450644Y-79032372D02*
G75*
G02X197001200Y-79460000I-449444J22372D01*
G01*
X191628800Y-79460000D02*
G75*
G02X191278800Y-79110000I0J350000D01*
G01*
X196514000Y-76848000D02*
X196514000Y-78372000D01*
X192196000Y-76848000D02*
X196514000Y-76848000D01*
X192196000Y-78372000D02*
X192196000Y-76848000D01*
X196514000Y-78372000D02*
X192196000Y-78372000D01*
X191278800Y-76160000D02*
X191278800Y-79110000D01*
X197451200Y-79060000D02*
X197451200Y-76160000D01*
X192772000Y-72113840D02*
X192772000Y-73313840D01*
X191022000Y-73313840D02*
X191022000Y-72113840D01*
X193094640Y-73308760D02*
X193094640Y-72108760D01*
X194844640Y-72108760D02*
X194844640Y-73308760D01*
X190684120Y-72124000D02*
X190684120Y-73324000D01*
X188934120Y-73324000D02*
X188934120Y-72124000D01*
X195326000Y-63246000D02*
X197866000Y-63246000D01*
X197866000Y-63246000D02*
X197866000Y-60706000D01*
X198146000Y-57886000D02*
X196596000Y-57886000D01*
X190246000Y-63246000D02*
X195326000Y-63246000D01*
X190246000Y-58166000D02*
X190246000Y-63246000D01*
X195326000Y-60706000D02*
X195326000Y-58166000D01*
X197866000Y-60706000D02*
X195326000Y-60706000D01*
X198146000Y-57886000D02*
X198146000Y-59436000D01*
X195326000Y-58166000D02*
X190246000Y-58166000D01*
X189568200Y-67726560D02*
X190068200Y-67226560D01*
X190568200Y-67726560D02*
X189568200Y-67726560D01*
X190068200Y-67226560D02*
X190568200Y-67726560D01*
X190068200Y-67726560D02*
X190068200Y-68226560D01*
X190568200Y-67226560D02*
X189568200Y-67226560D01*
X190018200Y-67526560D02*
X190068200Y-67476560D01*
X190268200Y-67526560D02*
X190018200Y-67526560D01*
X190068200Y-67326560D02*
X190268200Y-67526560D01*
X189768200Y-67626560D02*
X190068200Y-67326560D01*
X190368200Y-67626560D02*
X189768200Y-67626560D01*
X191118200Y-65576560D02*
X191118200Y-69176560D01*
X189018200Y-65576560D02*
X189018200Y-69176560D01*
X196777900Y-65589260D02*
X196777900Y-69189260D01*
X198877900Y-65589260D02*
X198877900Y-69189260D01*
X198127900Y-67639260D02*
X197527900Y-67639260D01*
X197527900Y-67639260D02*
X197827900Y-67339260D01*
X197827900Y-67339260D02*
X198027900Y-67539260D01*
X198027900Y-67539260D02*
X197777900Y-67539260D01*
X197777900Y-67539260D02*
X197827900Y-67489260D01*
X198327900Y-67239260D02*
X197327900Y-67239260D01*
X197827900Y-67739260D02*
X197827900Y-68239260D01*
X197827900Y-67239260D02*
X198327900Y-67739260D01*
X198327900Y-67739260D02*
X197327900Y-67739260D01*
X197327900Y-67739260D02*
X197827900Y-67239260D01*
X194762500Y-67739260D02*
X195262500Y-67239260D01*
X195762500Y-67739260D02*
X194762500Y-67739260D01*
X195262500Y-67239260D02*
X195762500Y-67739260D01*
X195262500Y-67739260D02*
X195262500Y-68239260D01*
X195762500Y-67239260D02*
X194762500Y-67239260D01*
X195212500Y-67539260D02*
X195262500Y-67489260D01*
X195462500Y-67539260D02*
X195212500Y-67539260D01*
X195262500Y-67339260D02*
X195462500Y-67539260D01*
X194962500Y-67639260D02*
X195262500Y-67339260D01*
X195562500Y-67639260D02*
X194962500Y-67639260D01*
X196312500Y-65589260D02*
X196312500Y-69189260D01*
X194212500Y-65589260D02*
X194212500Y-69189260D01*
X173756320Y-101462840D02*
X173756320Y-103261160D01*
X173756320Y-102062280D02*
X174056040Y-101963220D01*
X173756320Y-102661720D02*
X174056040Y-102760780D01*
X173756320Y-101462840D02*
X173756320Y-100761800D01*
X173756320Y-103212900D02*
X173756320Y-103962200D01*
X165155880Y-103962200D02*
X173756320Y-103962200D01*
X165155880Y-100761800D02*
X165155880Y-103962200D01*
X173756320Y-100761800D02*
X165155880Y-100761800D01*
X178282000Y-60426000D02*
X181382000Y-60426000D01*
X178282000Y-61976000D02*
X178282000Y-60426000D01*
X181102000Y-63246000D02*
X178562000Y-63246000D01*
X181382000Y-60426000D02*
X181382000Y-61976000D01*
X178562000Y-111506000D02*
X178562000Y-63246000D01*
X181102000Y-111506000D02*
X178562000Y-111506000D01*
X181102000Y-63246000D02*
X181102000Y-111506000D01*
X160782000Y-63246000D02*
X160782000Y-111506000D01*
X160782000Y-111506000D02*
X158242000Y-111506000D01*
X158242000Y-111506000D02*
X158242000Y-63246000D01*
X161062000Y-60426000D02*
X161062000Y-61976000D01*
X160782000Y-63246000D02*
X158242000Y-63246000D01*
X157962000Y-61976000D02*
X157962000Y-60426000D01*
X157962000Y-60426000D02*
X161062000Y-60426000D01*
X169194703Y-84090742D02*
X168293142Y-83189181D01*
X176990555Y-90932000D02*
X176513258Y-90454703D01*
X169672000Y-98250555D02*
X169194703Y-97773258D01*
X162353445Y-90932000D02*
X162830742Y-91409297D01*
X169672000Y-83613445D02*
X170149297Y-84090742D01*
X162353445Y-90932000D02*
X162830742Y-90454703D01*
X169672000Y-98250555D02*
X170149297Y-97773258D01*
X176990555Y-90932000D02*
X176513258Y-91409297D01*
X169672000Y-83613445D02*
X169194703Y-84090742D01*
X166033660Y-84074000D02*
X164973000Y-83013340D01*
X163629497Y-86478163D02*
X166033660Y-84074000D01*
X162568837Y-85417503D02*
X163629497Y-86478163D01*
X164973000Y-83013340D02*
X162568837Y-85417503D01*
X175806100Y-107116880D02*
X175806100Y-104719120D01*
X176908460Y-107716320D02*
X175709580Y-107716320D01*
X176309020Y-108216700D02*
X176309020Y-107116880D01*
X170108880Y-107116880D02*
X175310800Y-107116880D01*
X175310800Y-104719120D02*
X170108880Y-104719120D01*
X174600840Y-72115120D02*
X174600840Y-73315120D01*
X172850840Y-73315120D02*
X172850840Y-72115120D01*
X170783280Y-73308760D02*
X170783280Y-72108760D01*
X172533280Y-72108760D02*
X172533280Y-73308760D01*
X167225000Y-65576560D02*
X167225000Y-69176560D01*
X169325000Y-65576560D02*
X169325000Y-69176560D01*
X168575000Y-67626560D02*
X167975000Y-67626560D01*
X167975000Y-67626560D02*
X168275000Y-67326560D01*
X168275000Y-67326560D02*
X168475000Y-67526560D01*
X168475000Y-67526560D02*
X168225000Y-67526560D01*
X168225000Y-67526560D02*
X168275000Y-67476560D01*
X168775000Y-67226560D02*
X167775000Y-67226560D01*
X168275000Y-67726560D02*
X168275000Y-68226560D01*
X168275000Y-67226560D02*
X168775000Y-67726560D01*
X168775000Y-67726560D02*
X167775000Y-67726560D01*
X167775000Y-67726560D02*
X168275000Y-67226560D01*
X165509100Y-113979460D02*
X165509100Y-107574460D01*
X174209100Y-112749460D02*
X165509100Y-112749460D01*
X174209100Y-107574460D02*
X174209100Y-113979460D01*
X165509100Y-107574460D02*
X174209100Y-107574460D01*
X165509100Y-113979460D02*
X174209100Y-113979460D01*
X164508180Y-107142280D02*
X169710100Y-107142280D01*
X169710100Y-104744520D02*
X164508180Y-104744520D01*
X163509960Y-103644700D02*
X163509960Y-104744520D01*
X162910520Y-104145080D02*
X164109400Y-104145080D01*
X164012880Y-104744520D02*
X164012880Y-107142280D01*
X172667200Y-75760000D02*
X167294800Y-75760000D01*
X172617200Y-79460000D02*
X167244800Y-79460000D01*
X166894800Y-76160000D02*
G75*
G02X167294800Y-75760000I400000J0D01*
G01*
X172667200Y-75760000D02*
G75*
G02X173067200Y-76160000I0J-400000D01*
G01*
X173066644Y-79032372D02*
G75*
G02X172617200Y-79460000I-449444J22372D01*
G01*
X167244800Y-79460000D02*
G75*
G02X166894800Y-79110000I0J350000D01*
G01*
X172130000Y-76848000D02*
X172130000Y-78372000D01*
X167812000Y-76848000D02*
X172130000Y-76848000D01*
X167812000Y-78372000D02*
X167812000Y-76848000D01*
X172130000Y-78372000D02*
X167812000Y-78372000D01*
X166894800Y-76160000D02*
X166894800Y-79110000D01*
X173067200Y-79060000D02*
X173067200Y-76160000D01*
X168388000Y-72113840D02*
X168388000Y-73313840D01*
X166638000Y-73313840D02*
X166638000Y-72113840D01*
X168710640Y-73308760D02*
X168710640Y-72108760D01*
X170460640Y-72108760D02*
X170460640Y-73308760D01*
X166300120Y-72124000D02*
X166300120Y-73324000D01*
X164550120Y-73324000D02*
X164550120Y-72124000D01*
X170942000Y-63246000D02*
X173482000Y-63246000D01*
X173482000Y-63246000D02*
X173482000Y-60706000D01*
X173762000Y-57886000D02*
X172212000Y-57886000D01*
X165862000Y-63246000D02*
X170942000Y-63246000D01*
X165862000Y-58166000D02*
X165862000Y-63246000D01*
X170942000Y-60706000D02*
X170942000Y-58166000D01*
X173482000Y-60706000D02*
X170942000Y-60706000D01*
X173762000Y-57886000D02*
X173762000Y-59436000D01*
X170942000Y-58166000D02*
X165862000Y-58166000D01*
X165184200Y-67726560D02*
X165684200Y-67226560D01*
X166184200Y-67726560D02*
X165184200Y-67726560D01*
X165684200Y-67226560D02*
X166184200Y-67726560D01*
X165684200Y-67726560D02*
X165684200Y-68226560D01*
X166184200Y-67226560D02*
X165184200Y-67226560D01*
X165634200Y-67526560D02*
X165684200Y-67476560D01*
X165884200Y-67526560D02*
X165634200Y-67526560D01*
X165684200Y-67326560D02*
X165884200Y-67526560D01*
X165384200Y-67626560D02*
X165684200Y-67326560D01*
X165984200Y-67626560D02*
X165384200Y-67626560D01*
X166734200Y-65576560D02*
X166734200Y-69176560D01*
X164634200Y-65576560D02*
X164634200Y-69176560D01*
X172393900Y-65589260D02*
X172393900Y-69189260D01*
X174493900Y-65589260D02*
X174493900Y-69189260D01*
X173743900Y-67639260D02*
X173143900Y-67639260D01*
X173143900Y-67639260D02*
X173443900Y-67339260D01*
X173443900Y-67339260D02*
X173643900Y-67539260D01*
X173643900Y-67539260D02*
X173393900Y-67539260D01*
X173393900Y-67539260D02*
X173443900Y-67489260D01*
X173943900Y-67239260D02*
X172943900Y-67239260D01*
X173443900Y-67739260D02*
X173443900Y-68239260D01*
X173443900Y-67239260D02*
X173943900Y-67739260D01*
X173943900Y-67739260D02*
X172943900Y-67739260D01*
X172943900Y-67739260D02*
X173443900Y-67239260D01*
X170378500Y-67739260D02*
X170878500Y-67239260D01*
X171378500Y-67739260D02*
X170378500Y-67739260D01*
X170878500Y-67239260D02*
X171378500Y-67739260D01*
X170878500Y-67739260D02*
X170878500Y-68239260D01*
X171378500Y-67239260D02*
X170378500Y-67239260D01*
X170828500Y-67539260D02*
X170878500Y-67489260D01*
X171078500Y-67539260D02*
X170828500Y-67539260D01*
X170878500Y-67339260D02*
X171078500Y-67539260D01*
X170578500Y-67639260D02*
X170878500Y-67339260D01*
X171178500Y-67639260D02*
X170578500Y-67639260D01*
X171928500Y-65589260D02*
X171928500Y-69189260D01*
X169828500Y-65589260D02*
X169828500Y-69189260D01*
X149372320Y-101462840D02*
X149372320Y-103261160D01*
X149372320Y-102062280D02*
X149672040Y-101963220D01*
X149372320Y-102661720D02*
X149672040Y-102760780D01*
X149372320Y-101462840D02*
X149372320Y-100761800D01*
X149372320Y-103212900D02*
X149372320Y-103962200D01*
X140771880Y-103962200D02*
X149372320Y-103962200D01*
X140771880Y-100761800D02*
X140771880Y-103962200D01*
X149372320Y-100761800D02*
X140771880Y-100761800D01*
X153898000Y-60426000D02*
X156998000Y-60426000D01*
X153898000Y-61976000D02*
X153898000Y-60426000D01*
X156718000Y-63246000D02*
X154178000Y-63246000D01*
X156998000Y-60426000D02*
X156998000Y-61976000D01*
X154178000Y-111506000D02*
X154178000Y-63246000D01*
X156718000Y-111506000D02*
X154178000Y-111506000D01*
X156718000Y-63246000D02*
X156718000Y-111506000D01*
X136398000Y-63246000D02*
X136398000Y-111506000D01*
X136398000Y-111506000D02*
X133858000Y-111506000D01*
X133858000Y-111506000D02*
X133858000Y-63246000D01*
X136678000Y-60426000D02*
X136678000Y-61976000D01*
X136398000Y-63246000D02*
X133858000Y-63246000D01*
X133578000Y-61976000D02*
X133578000Y-60426000D01*
X133578000Y-60426000D02*
X136678000Y-60426000D01*
X144810703Y-84090742D02*
X143909142Y-83189181D01*
X152606555Y-90932000D02*
X152129258Y-90454703D01*
X145288000Y-98250555D02*
X144810703Y-97773258D01*
X137969445Y-90932000D02*
X138446742Y-91409297D01*
X145288000Y-83613445D02*
X145765297Y-84090742D01*
X137969445Y-90932000D02*
X138446742Y-90454703D01*
X145288000Y-98250555D02*
X145765297Y-97773258D01*
X152606555Y-90932000D02*
X152129258Y-91409297D01*
X145288000Y-83613445D02*
X144810703Y-84090742D01*
X141649660Y-84074000D02*
X140589000Y-83013340D01*
X139245497Y-86478163D02*
X141649660Y-84074000D01*
X138184837Y-85417503D02*
X139245497Y-86478163D01*
X140589000Y-83013340D02*
X138184837Y-85417503D01*
X151422100Y-107116880D02*
X151422100Y-104719120D01*
X152524460Y-107716320D02*
X151325580Y-107716320D01*
X151925020Y-108216700D02*
X151925020Y-107116880D01*
X145724880Y-107116880D02*
X150926800Y-107116880D01*
X150926800Y-104719120D02*
X145724880Y-104719120D01*
X150216840Y-72115120D02*
X150216840Y-73315120D01*
X148466840Y-73315120D02*
X148466840Y-72115120D01*
X146399280Y-73308760D02*
X146399280Y-72108760D01*
X148149280Y-72108760D02*
X148149280Y-73308760D01*
X142841000Y-65576560D02*
X142841000Y-69176560D01*
X144941000Y-65576560D02*
X144941000Y-69176560D01*
X144191000Y-67626560D02*
X143591000Y-67626560D01*
X143591000Y-67626560D02*
X143891000Y-67326560D01*
X143891000Y-67326560D02*
X144091000Y-67526560D01*
X144091000Y-67526560D02*
X143841000Y-67526560D01*
X143841000Y-67526560D02*
X143891000Y-67476560D01*
X144391000Y-67226560D02*
X143391000Y-67226560D01*
X143891000Y-67726560D02*
X143891000Y-68226560D01*
X143891000Y-67226560D02*
X144391000Y-67726560D01*
X144391000Y-67726560D02*
X143391000Y-67726560D01*
X143391000Y-67726560D02*
X143891000Y-67226560D01*
X141125100Y-113979460D02*
X141125100Y-107574460D01*
X149825100Y-112749460D02*
X141125100Y-112749460D01*
X149825100Y-107574460D02*
X149825100Y-113979460D01*
X141125100Y-107574460D02*
X149825100Y-107574460D01*
X141125100Y-113979460D02*
X149825100Y-113979460D01*
X140124180Y-107142280D02*
X145326100Y-107142280D01*
X145326100Y-104744520D02*
X140124180Y-104744520D01*
X139125960Y-103644700D02*
X139125960Y-104744520D01*
X138526520Y-104145080D02*
X139725400Y-104145080D01*
X139628880Y-104744520D02*
X139628880Y-107142280D01*
X148283200Y-75760000D02*
X142910800Y-75760000D01*
X148233200Y-79460000D02*
X142860800Y-79460000D01*
X142510800Y-76160000D02*
G75*
G02X142910800Y-75760000I400000J0D01*
G01*
X148283200Y-75760000D02*
G75*
G02X148683200Y-76160000I0J-400000D01*
G01*
X148682644Y-79032372D02*
G75*
G02X148233200Y-79460000I-449444J22372D01*
G01*
X142860800Y-79460000D02*
G75*
G02X142510800Y-79110000I0J350000D01*
G01*
X147746000Y-76848000D02*
X147746000Y-78372000D01*
X143428000Y-76848000D02*
X147746000Y-76848000D01*
X143428000Y-78372000D02*
X143428000Y-76848000D01*
X147746000Y-78372000D02*
X143428000Y-78372000D01*
X142510800Y-76160000D02*
X142510800Y-79110000D01*
X148683200Y-79060000D02*
X148683200Y-76160000D01*
X144004000Y-72113840D02*
X144004000Y-73313840D01*
X142254000Y-73313840D02*
X142254000Y-72113840D01*
X144326640Y-73308760D02*
X144326640Y-72108760D01*
X146076640Y-72108760D02*
X146076640Y-73308760D01*
X141916120Y-72124000D02*
X141916120Y-73324000D01*
X140166120Y-73324000D02*
X140166120Y-72124000D01*
X146558000Y-63246000D02*
X149098000Y-63246000D01*
X149098000Y-63246000D02*
X149098000Y-60706000D01*
X149378000Y-57886000D02*
X147828000Y-57886000D01*
X141478000Y-63246000D02*
X146558000Y-63246000D01*
X141478000Y-58166000D02*
X141478000Y-63246000D01*
X146558000Y-60706000D02*
X146558000Y-58166000D01*
X149098000Y-60706000D02*
X146558000Y-60706000D01*
X149378000Y-57886000D02*
X149378000Y-59436000D01*
X146558000Y-58166000D02*
X141478000Y-58166000D01*
X140800200Y-67726560D02*
X141300200Y-67226560D01*
X141800200Y-67726560D02*
X140800200Y-67726560D01*
X141300200Y-67226560D02*
X141800200Y-67726560D01*
X141300200Y-67726560D02*
X141300200Y-68226560D01*
X141800200Y-67226560D02*
X140800200Y-67226560D01*
X141250200Y-67526560D02*
X141300200Y-67476560D01*
X141500200Y-67526560D02*
X141250200Y-67526560D01*
X141300200Y-67326560D02*
X141500200Y-67526560D01*
X141000200Y-67626560D02*
X141300200Y-67326560D01*
X141600200Y-67626560D02*
X141000200Y-67626560D01*
X142350200Y-65576560D02*
X142350200Y-69176560D01*
X140250200Y-65576560D02*
X140250200Y-69176560D01*
X148009900Y-65589260D02*
X148009900Y-69189260D01*
X150109900Y-65589260D02*
X150109900Y-69189260D01*
X149359900Y-67639260D02*
X148759900Y-67639260D01*
X148759900Y-67639260D02*
X149059900Y-67339260D01*
X149059900Y-67339260D02*
X149259900Y-67539260D01*
X149259900Y-67539260D02*
X149009900Y-67539260D01*
X149009900Y-67539260D02*
X149059900Y-67489260D01*
X149559900Y-67239260D02*
X148559900Y-67239260D01*
X149059900Y-67739260D02*
X149059900Y-68239260D01*
X149059900Y-67239260D02*
X149559900Y-67739260D01*
X149559900Y-67739260D02*
X148559900Y-67739260D01*
X148559900Y-67739260D02*
X149059900Y-67239260D01*
X145994500Y-67739260D02*
X146494500Y-67239260D01*
X146994500Y-67739260D02*
X145994500Y-67739260D01*
X146494500Y-67239260D02*
X146994500Y-67739260D01*
X146494500Y-67739260D02*
X146494500Y-68239260D01*
X146994500Y-67239260D02*
X145994500Y-67239260D01*
X146444500Y-67539260D02*
X146494500Y-67489260D01*
X146694500Y-67539260D02*
X146444500Y-67539260D01*
X146494500Y-67339260D02*
X146694500Y-67539260D01*
X146194500Y-67639260D02*
X146494500Y-67339260D01*
X146794500Y-67639260D02*
X146194500Y-67639260D01*
X147544500Y-65589260D02*
X147544500Y-69189260D01*
X145444500Y-65589260D02*
X145444500Y-69189260D01*
X121060500Y-65589260D02*
X121060500Y-69189260D01*
X123160500Y-65589260D02*
X123160500Y-69189260D01*
X122410500Y-67639260D02*
X121810500Y-67639260D01*
X121810500Y-67639260D02*
X122110500Y-67339260D01*
X122110500Y-67339260D02*
X122310500Y-67539260D01*
X122310500Y-67539260D02*
X122060500Y-67539260D01*
X122060500Y-67539260D02*
X122110500Y-67489260D01*
X122610500Y-67239260D02*
X121610500Y-67239260D01*
X122110500Y-67739260D02*
X122110500Y-68239260D01*
X122110500Y-67239260D02*
X122610500Y-67739260D01*
X122610500Y-67739260D02*
X121610500Y-67739260D01*
X121610500Y-67739260D02*
X122110500Y-67239260D01*
X126542800Y-104719120D02*
X121340880Y-104719120D01*
X121340880Y-107116880D02*
X126542800Y-107116880D01*
X127541020Y-108216700D02*
X127541020Y-107116880D01*
X128140460Y-107716320D02*
X126941580Y-107716320D01*
X127038100Y-107116880D02*
X127038100Y-104719120D01*
X115244880Y-104744520D02*
X115244880Y-107142280D01*
X114142520Y-104145080D02*
X115341400Y-104145080D01*
X114741960Y-103644700D02*
X114741960Y-104744520D01*
X120942100Y-104744520D02*
X115740180Y-104744520D01*
X115740180Y-107142280D02*
X120942100Y-107142280D01*
X124175900Y-67739260D02*
X124675900Y-67239260D01*
X125175900Y-67739260D02*
X124175900Y-67739260D01*
X124675900Y-67239260D02*
X125175900Y-67739260D01*
X124675900Y-67739260D02*
X124675900Y-68239260D01*
X125175900Y-67239260D02*
X124175900Y-67239260D01*
X124625900Y-67539260D02*
X124675900Y-67489260D01*
X124875900Y-67539260D02*
X124625900Y-67539260D01*
X124675900Y-67339260D02*
X124875900Y-67539260D01*
X124375900Y-67639260D02*
X124675900Y-67339260D01*
X124975900Y-67639260D02*
X124375900Y-67639260D01*
X125725900Y-65589260D02*
X125725900Y-69189260D01*
X123625900Y-65589260D02*
X123625900Y-69189260D01*
X115866200Y-65576560D02*
X115866200Y-69176560D01*
X117966200Y-65576560D02*
X117966200Y-69176560D01*
X117216200Y-67626560D02*
X116616200Y-67626560D01*
X116616200Y-67626560D02*
X116916200Y-67326560D01*
X116916200Y-67326560D02*
X117116200Y-67526560D01*
X117116200Y-67526560D02*
X116866200Y-67526560D01*
X116866200Y-67526560D02*
X116916200Y-67476560D01*
X117416200Y-67226560D02*
X116416200Y-67226560D01*
X116916200Y-67726560D02*
X116916200Y-68226560D01*
X116916200Y-67226560D02*
X117416200Y-67726560D01*
X117416200Y-67726560D02*
X116416200Y-67726560D01*
X116416200Y-67726560D02*
X116916200Y-67226560D01*
X119007000Y-67726560D02*
X119507000Y-67226560D01*
X120007000Y-67726560D02*
X119007000Y-67726560D01*
X119507000Y-67226560D02*
X120007000Y-67726560D01*
X119507000Y-67726560D02*
X119507000Y-68226560D01*
X120007000Y-67226560D02*
X119007000Y-67226560D01*
X119457000Y-67526560D02*
X119507000Y-67476560D01*
X119707000Y-67526560D02*
X119457000Y-67526560D01*
X119507000Y-67326560D02*
X119707000Y-67526560D01*
X119207000Y-67626560D02*
X119507000Y-67326560D01*
X119807000Y-67626560D02*
X119207000Y-67626560D01*
X120557000Y-65576560D02*
X120557000Y-69176560D01*
X118457000Y-65576560D02*
X118457000Y-69176560D01*
X116741100Y-113979460D02*
X125441100Y-113979460D01*
X116741100Y-107574460D02*
X125441100Y-107574460D01*
X125441100Y-107574460D02*
X125441100Y-113979460D01*
X125441100Y-112749460D02*
X116741100Y-112749460D01*
X116741100Y-113979460D02*
X116741100Y-107574460D01*
X122174000Y-58166000D02*
X117094000Y-58166000D01*
X124994000Y-57886000D02*
X124994000Y-59436000D01*
X124714000Y-60706000D02*
X122174000Y-60706000D01*
X122174000Y-60706000D02*
X122174000Y-58166000D01*
X117094000Y-58166000D02*
X117094000Y-63246000D01*
X117094000Y-63246000D02*
X122174000Y-63246000D01*
X124994000Y-57886000D02*
X123444000Y-57886000D01*
X124714000Y-63246000D02*
X124714000Y-60706000D01*
X122174000Y-63246000D02*
X124714000Y-63246000D01*
X123765280Y-72108760D02*
X123765280Y-73308760D01*
X122015280Y-73308760D02*
X122015280Y-72108760D01*
X124082840Y-73315120D02*
X124082840Y-72115120D01*
X125832840Y-72115120D02*
X125832840Y-73315120D01*
X115782120Y-73324000D02*
X115782120Y-72124000D01*
X117532120Y-72124000D02*
X117532120Y-73324000D01*
X121692640Y-72108760D02*
X121692640Y-73308760D01*
X119942640Y-73308760D02*
X119942640Y-72108760D01*
X117870000Y-73313840D02*
X117870000Y-72113840D01*
X119620000Y-72113840D02*
X119620000Y-73313840D01*
X124299200Y-79060000D02*
X124299200Y-76160000D01*
X118126800Y-76160000D02*
X118126800Y-79110000D01*
X123362000Y-78372000D02*
X119044000Y-78372000D01*
X119044000Y-78372000D02*
X119044000Y-76848000D01*
X119044000Y-76848000D02*
X123362000Y-76848000D01*
X123362000Y-76848000D02*
X123362000Y-78372000D01*
X118476800Y-79460000D02*
G75*
G02X118126800Y-79110000I0J350000D01*
G01*
X124298644Y-79032372D02*
G75*
G02X123849200Y-79460000I-449444J22372D01*
G01*
X123899200Y-75760000D02*
G75*
G02X124299200Y-76160000I0J-400000D01*
G01*
X118126800Y-76160000D02*
G75*
G02X118526800Y-75760000I400000J0D01*
G01*
X123849200Y-79460000D02*
X118476800Y-79460000D01*
X123899200Y-75760000D02*
X118526800Y-75760000D01*
X116205000Y-83013340D02*
X113800837Y-85417503D01*
X113800837Y-85417503D02*
X114861497Y-86478163D01*
X114861497Y-86478163D02*
X117265660Y-84074000D01*
X117265660Y-84074000D02*
X116205000Y-83013340D01*
X120904000Y-83613445D02*
X120426703Y-84090742D01*
X128222555Y-90932000D02*
X127745258Y-91409297D01*
X120904000Y-98250555D02*
X121381297Y-97773258D01*
X113585445Y-90932000D02*
X114062742Y-90454703D01*
X120904000Y-83613445D02*
X121381297Y-84090742D01*
X113585445Y-90932000D02*
X114062742Y-91409297D01*
X120904000Y-98250555D02*
X120426703Y-97773258D01*
X128222555Y-90932000D02*
X127745258Y-90454703D01*
X120426703Y-84090742D02*
X119525142Y-83189181D01*
X109194000Y-60426000D02*
X112294000Y-60426000D01*
X109194000Y-61976000D02*
X109194000Y-60426000D01*
X112014000Y-63246000D02*
X109474000Y-63246000D01*
X112294000Y-60426000D02*
X112294000Y-61976000D01*
X109474000Y-111506000D02*
X109474000Y-63246000D01*
X112014000Y-111506000D02*
X109474000Y-111506000D01*
X112014000Y-63246000D02*
X112014000Y-111506000D01*
X132334000Y-63246000D02*
X132334000Y-111506000D01*
X132334000Y-111506000D02*
X129794000Y-111506000D01*
X129794000Y-111506000D02*
X129794000Y-63246000D01*
X132614000Y-60426000D02*
X132614000Y-61976000D01*
X132334000Y-63246000D02*
X129794000Y-63246000D01*
X129514000Y-61976000D02*
X129514000Y-60426000D01*
X129514000Y-60426000D02*
X132614000Y-60426000D01*
X124988320Y-100761800D02*
X116387880Y-100761800D01*
X116387880Y-100761800D02*
X116387880Y-103962200D01*
X116387880Y-103962200D02*
X124988320Y-103962200D01*
X124988320Y-103212900D02*
X124988320Y-103962200D01*
X124988320Y-101462840D02*
X124988320Y-100761800D01*
X124988320Y-102661720D02*
X125288040Y-102760780D01*
X124988320Y-102062280D02*
X125288040Y-101963220D01*
X124988320Y-101462840D02*
X124988320Y-103261160D01*
X196556380Y-103171523D02*
X197556380Y-102504857D01*
X196556380Y-102504857D02*
X197556380Y-103171523D01*
X197556380Y-101600095D02*
X197556380Y-102171523D01*
X197556380Y-101885809D02*
X196556380Y-101885809D01*
X196699238Y-101981047D01*
X196794476Y-102076285D01*
X196842095Y-102171523D01*
X187419527Y-83905641D02*
X187688901Y-84175015D01*
X186934654Y-83797891D02*
X187419527Y-83905641D01*
X187311777Y-83420768D01*
X188362336Y-83501580D02*
X188039087Y-83824829D01*
X188200711Y-83663204D02*
X187635026Y-83097519D01*
X187661963Y-83232206D01*
X187661963Y-83339955D01*
X187635026Y-83420768D01*
X201398142Y-106084666D02*
X201445761Y-106132285D01*
X201493380Y-106275142D01*
X201493380Y-106370380D01*
X201445761Y-106513238D01*
X201350523Y-106608476D01*
X201255285Y-106656095D01*
X201064809Y-106703714D01*
X200921952Y-106703714D01*
X200731476Y-106656095D01*
X200636238Y-106608476D01*
X200541000Y-106513238D01*
X200493380Y-106370380D01*
X200493380Y-106275142D01*
X200541000Y-106132285D01*
X200588619Y-106084666D01*
X200493380Y-105751333D02*
X200493380Y-105132285D01*
X200874333Y-105465619D01*
X200874333Y-105322761D01*
X200921952Y-105227523D01*
X200969571Y-105179904D01*
X201064809Y-105132285D01*
X201302904Y-105132285D01*
X201398142Y-105179904D01*
X201445761Y-105227523D01*
X201493380Y-105322761D01*
X201493380Y-105608476D01*
X201445761Y-105703714D01*
X201398142Y-105751333D01*
X200312067Y-107790288D02*
X201073972Y-107790288D01*
X200693020Y-108171240D02*
X200693020Y-107409336D01*
X197973653Y-73218300D02*
X197640320Y-72742110D01*
X197402224Y-73218300D02*
X197402224Y-72218300D01*
X197783177Y-72218300D01*
X197878415Y-72265920D01*
X197926034Y-72313539D01*
X197973653Y-72408777D01*
X197973653Y-72551634D01*
X197926034Y-72646872D01*
X197878415Y-72694491D01*
X197783177Y-72742110D01*
X197402224Y-72742110D01*
X198830796Y-72551634D02*
X198830796Y-73218300D01*
X198592700Y-72170681D02*
X198354605Y-72884967D01*
X198973653Y-72884967D01*
X195880693Y-73218300D02*
X195547360Y-72742110D01*
X195309264Y-73218300D02*
X195309264Y-72218300D01*
X195690217Y-72218300D01*
X195785455Y-72265920D01*
X195833074Y-72313539D01*
X195880693Y-72408777D01*
X195880693Y-72551634D01*
X195833074Y-72646872D01*
X195785455Y-72694491D01*
X195690217Y-72742110D01*
X195309264Y-72742110D01*
X196214026Y-72218300D02*
X196833074Y-72218300D01*
X196499740Y-72599253D01*
X196642598Y-72599253D01*
X196737836Y-72646872D01*
X196785455Y-72694491D01*
X196833074Y-72789729D01*
X196833074Y-73027824D01*
X196785455Y-73123062D01*
X196737836Y-73170681D01*
X196642598Y-73218300D01*
X196356883Y-73218300D01*
X196261645Y-73170681D01*
X196214026Y-73123062D01*
X191832004Y-65133480D02*
X191832004Y-64133480D01*
X192070100Y-64133480D01*
X192212957Y-64181100D01*
X192308195Y-64276338D01*
X192355814Y-64371576D01*
X192403433Y-64562052D01*
X192403433Y-64704909D01*
X192355814Y-64895385D01*
X192308195Y-64990623D01*
X192212957Y-65085861D01*
X192070100Y-65133480D01*
X191832004Y-65133480D01*
X193260576Y-64466814D02*
X193260576Y-65133480D01*
X193022480Y-64085861D02*
X192784385Y-64800147D01*
X193403433Y-64800147D01*
X195500666Y-111085380D02*
X195500666Y-111799666D01*
X195453047Y-111942523D01*
X195357809Y-112037761D01*
X195214952Y-112085380D01*
X195119714Y-112085380D01*
X196500666Y-112085380D02*
X195929238Y-112085380D01*
X196214952Y-112085380D02*
X196214952Y-111085380D01*
X196119714Y-111228238D01*
X196024476Y-111323476D01*
X195929238Y-111371095D01*
X187936142Y-106084666D02*
X187983761Y-106132285D01*
X188031380Y-106275142D01*
X188031380Y-106370380D01*
X187983761Y-106513238D01*
X187888523Y-106608476D01*
X187793285Y-106656095D01*
X187602809Y-106703714D01*
X187459952Y-106703714D01*
X187269476Y-106656095D01*
X187174238Y-106608476D01*
X187079000Y-106513238D01*
X187031380Y-106370380D01*
X187031380Y-106275142D01*
X187079000Y-106132285D01*
X187126619Y-106084666D01*
X187364714Y-105227523D02*
X188031380Y-105227523D01*
X186983761Y-105465619D02*
X187698047Y-105703714D01*
X187698047Y-105084666D01*
X187513007Y-104213968D02*
X188274912Y-104213968D01*
X187893960Y-104594920D02*
X187893960Y-103833016D01*
X191755733Y-73204320D02*
X191422400Y-72728130D01*
X191184304Y-73204320D02*
X191184304Y-72204320D01*
X191565257Y-72204320D01*
X191660495Y-72251940D01*
X191708114Y-72299559D01*
X191755733Y-72394797D01*
X191755733Y-72537654D01*
X191708114Y-72632892D01*
X191660495Y-72680511D01*
X191565257Y-72728130D01*
X191184304Y-72728130D01*
X192089066Y-72204320D02*
X192755733Y-72204320D01*
X192327161Y-73204320D01*
X193797893Y-73208140D02*
X193464560Y-72731950D01*
X193226464Y-73208140D02*
X193226464Y-72208140D01*
X193607417Y-72208140D01*
X193702655Y-72255760D01*
X193750274Y-72303379D01*
X193797893Y-72398617D01*
X193797893Y-72541474D01*
X193750274Y-72636712D01*
X193702655Y-72684331D01*
X193607417Y-72731950D01*
X193226464Y-72731950D01*
X194655036Y-72208140D02*
X194464560Y-72208140D01*
X194369321Y-72255760D01*
X194321702Y-72303379D01*
X194226464Y-72446236D01*
X194178845Y-72636712D01*
X194178845Y-73017664D01*
X194226464Y-73112902D01*
X194274083Y-73160521D01*
X194369321Y-73208140D01*
X194559798Y-73208140D01*
X194655036Y-73160521D01*
X194702655Y-73112902D01*
X194750274Y-73017664D01*
X194750274Y-72779569D01*
X194702655Y-72684331D01*
X194655036Y-72636712D01*
X194559798Y-72589093D01*
X194369321Y-72589093D01*
X194274083Y-72636712D01*
X194226464Y-72684331D01*
X194178845Y-72779569D01*
X189591653Y-73277980D02*
X189258320Y-72801790D01*
X189020224Y-73277980D02*
X189020224Y-72277980D01*
X189401177Y-72277980D01*
X189496415Y-72325600D01*
X189544034Y-72373219D01*
X189591653Y-72468457D01*
X189591653Y-72611314D01*
X189544034Y-72706552D01*
X189496415Y-72754171D01*
X189401177Y-72801790D01*
X189020224Y-72801790D01*
X190496415Y-72277980D02*
X190020224Y-72277980D01*
X189972605Y-72754171D01*
X190020224Y-72706552D01*
X190115462Y-72658933D01*
X190353558Y-72658933D01*
X190448796Y-72706552D01*
X190496415Y-72754171D01*
X190544034Y-72849409D01*
X190544034Y-73087504D01*
X190496415Y-73182742D01*
X190448796Y-73230361D01*
X190353558Y-73277980D01*
X190115462Y-73277980D01*
X190020224Y-73230361D01*
X189972605Y-73182742D01*
X189393604Y-65158880D02*
X189393604Y-64158880D01*
X189631700Y-64158880D01*
X189774557Y-64206500D01*
X189869795Y-64301738D01*
X189917414Y-64396976D01*
X189965033Y-64587452D01*
X189965033Y-64730309D01*
X189917414Y-64920785D01*
X189869795Y-65016023D01*
X189774557Y-65111261D01*
X189631700Y-65158880D01*
X189393604Y-65158880D01*
X190345985Y-64254119D02*
X190393604Y-64206500D01*
X190488842Y-64158880D01*
X190726938Y-64158880D01*
X190822176Y-64206500D01*
X190869795Y-64254119D01*
X190917414Y-64349357D01*
X190917414Y-64444595D01*
X190869795Y-64587452D01*
X190298366Y-65158880D01*
X190917414Y-65158880D01*
X197077104Y-65133480D02*
X197077104Y-64133480D01*
X197315200Y-64133480D01*
X197458057Y-64181100D01*
X197553295Y-64276338D01*
X197600914Y-64371576D01*
X197648533Y-64562052D01*
X197648533Y-64704909D01*
X197600914Y-64895385D01*
X197553295Y-64990623D01*
X197458057Y-65085861D01*
X197315200Y-65133480D01*
X197077104Y-65133480D01*
X198600914Y-65133480D02*
X198029485Y-65133480D01*
X198315200Y-65133480D02*
X198315200Y-64133480D01*
X198219961Y-64276338D01*
X198124723Y-64371576D01*
X198029485Y-64419195D01*
X194448204Y-65133480D02*
X194448204Y-64133480D01*
X194686300Y-64133480D01*
X194829157Y-64181100D01*
X194924395Y-64276338D01*
X194972014Y-64371576D01*
X195019633Y-64562052D01*
X195019633Y-64704909D01*
X194972014Y-64895385D01*
X194924395Y-64990623D01*
X194829157Y-65085861D01*
X194686300Y-65133480D01*
X194448204Y-65133480D01*
X195352966Y-64133480D02*
X195972014Y-64133480D01*
X195638680Y-64514433D01*
X195781538Y-64514433D01*
X195876776Y-64562052D01*
X195924395Y-64609671D01*
X195972014Y-64704909D01*
X195972014Y-64943004D01*
X195924395Y-65038242D01*
X195876776Y-65085861D01*
X195781538Y-65133480D01*
X195495823Y-65133480D01*
X195400585Y-65085861D01*
X195352966Y-65038242D01*
X172172380Y-103171523D02*
X173172380Y-102504857D01*
X172172380Y-102504857D02*
X173172380Y-103171523D01*
X173172380Y-101600095D02*
X173172380Y-102171523D01*
X173172380Y-101885809D02*
X172172380Y-101885809D01*
X172315238Y-101981047D01*
X172410476Y-102076285D01*
X172458095Y-102171523D01*
X163035527Y-83905641D02*
X163304901Y-84175015D01*
X162550654Y-83797891D02*
X163035527Y-83905641D01*
X162927777Y-83420768D01*
X163978336Y-83501580D02*
X163655087Y-83824829D01*
X163816711Y-83663204D02*
X163251026Y-83097519D01*
X163277963Y-83232206D01*
X163277963Y-83339955D01*
X163251026Y-83420768D01*
X177014142Y-106084666D02*
X177061761Y-106132285D01*
X177109380Y-106275142D01*
X177109380Y-106370380D01*
X177061761Y-106513238D01*
X176966523Y-106608476D01*
X176871285Y-106656095D01*
X176680809Y-106703714D01*
X176537952Y-106703714D01*
X176347476Y-106656095D01*
X176252238Y-106608476D01*
X176157000Y-106513238D01*
X176109380Y-106370380D01*
X176109380Y-106275142D01*
X176157000Y-106132285D01*
X176204619Y-106084666D01*
X176109380Y-105751333D02*
X176109380Y-105132285D01*
X176490333Y-105465619D01*
X176490333Y-105322761D01*
X176537952Y-105227523D01*
X176585571Y-105179904D01*
X176680809Y-105132285D01*
X176918904Y-105132285D01*
X177014142Y-105179904D01*
X177061761Y-105227523D01*
X177109380Y-105322761D01*
X177109380Y-105608476D01*
X177061761Y-105703714D01*
X177014142Y-105751333D01*
X175928067Y-107790288D02*
X176689972Y-107790288D01*
X176309020Y-108171240D02*
X176309020Y-107409336D01*
X173589653Y-73218300D02*
X173256320Y-72742110D01*
X173018224Y-73218300D02*
X173018224Y-72218300D01*
X173399177Y-72218300D01*
X173494415Y-72265920D01*
X173542034Y-72313539D01*
X173589653Y-72408777D01*
X173589653Y-72551634D01*
X173542034Y-72646872D01*
X173494415Y-72694491D01*
X173399177Y-72742110D01*
X173018224Y-72742110D01*
X174446796Y-72551634D02*
X174446796Y-73218300D01*
X174208700Y-72170681D02*
X173970605Y-72884967D01*
X174589653Y-72884967D01*
X171496693Y-73218300D02*
X171163360Y-72742110D01*
X170925264Y-73218300D02*
X170925264Y-72218300D01*
X171306217Y-72218300D01*
X171401455Y-72265920D01*
X171449074Y-72313539D01*
X171496693Y-72408777D01*
X171496693Y-72551634D01*
X171449074Y-72646872D01*
X171401455Y-72694491D01*
X171306217Y-72742110D01*
X170925264Y-72742110D01*
X171830026Y-72218300D02*
X172449074Y-72218300D01*
X172115740Y-72599253D01*
X172258598Y-72599253D01*
X172353836Y-72646872D01*
X172401455Y-72694491D01*
X172449074Y-72789729D01*
X172449074Y-73027824D01*
X172401455Y-73123062D01*
X172353836Y-73170681D01*
X172258598Y-73218300D01*
X171972883Y-73218300D01*
X171877645Y-73170681D01*
X171830026Y-73123062D01*
X167448004Y-65133480D02*
X167448004Y-64133480D01*
X167686100Y-64133480D01*
X167828957Y-64181100D01*
X167924195Y-64276338D01*
X167971814Y-64371576D01*
X168019433Y-64562052D01*
X168019433Y-64704909D01*
X167971814Y-64895385D01*
X167924195Y-64990623D01*
X167828957Y-65085861D01*
X167686100Y-65133480D01*
X167448004Y-65133480D01*
X168876576Y-64466814D02*
X168876576Y-65133480D01*
X168638480Y-64085861D02*
X168400385Y-64800147D01*
X169019433Y-64800147D01*
X171116666Y-111085380D02*
X171116666Y-111799666D01*
X171069047Y-111942523D01*
X170973809Y-112037761D01*
X170830952Y-112085380D01*
X170735714Y-112085380D01*
X172116666Y-112085380D02*
X171545238Y-112085380D01*
X171830952Y-112085380D02*
X171830952Y-111085380D01*
X171735714Y-111228238D01*
X171640476Y-111323476D01*
X171545238Y-111371095D01*
X163552142Y-106084666D02*
X163599761Y-106132285D01*
X163647380Y-106275142D01*
X163647380Y-106370380D01*
X163599761Y-106513238D01*
X163504523Y-106608476D01*
X163409285Y-106656095D01*
X163218809Y-106703714D01*
X163075952Y-106703714D01*
X162885476Y-106656095D01*
X162790238Y-106608476D01*
X162695000Y-106513238D01*
X162647380Y-106370380D01*
X162647380Y-106275142D01*
X162695000Y-106132285D01*
X162742619Y-106084666D01*
X162980714Y-105227523D02*
X163647380Y-105227523D01*
X162599761Y-105465619D02*
X163314047Y-105703714D01*
X163314047Y-105084666D01*
X163129007Y-104213968D02*
X163890912Y-104213968D01*
X163509960Y-104594920D02*
X163509960Y-103833016D01*
X167371733Y-73204320D02*
X167038400Y-72728130D01*
X166800304Y-73204320D02*
X166800304Y-72204320D01*
X167181257Y-72204320D01*
X167276495Y-72251940D01*
X167324114Y-72299559D01*
X167371733Y-72394797D01*
X167371733Y-72537654D01*
X167324114Y-72632892D01*
X167276495Y-72680511D01*
X167181257Y-72728130D01*
X166800304Y-72728130D01*
X167705066Y-72204320D02*
X168371733Y-72204320D01*
X167943161Y-73204320D01*
X169413893Y-73208140D02*
X169080560Y-72731950D01*
X168842464Y-73208140D02*
X168842464Y-72208140D01*
X169223417Y-72208140D01*
X169318655Y-72255760D01*
X169366274Y-72303379D01*
X169413893Y-72398617D01*
X169413893Y-72541474D01*
X169366274Y-72636712D01*
X169318655Y-72684331D01*
X169223417Y-72731950D01*
X168842464Y-72731950D01*
X170271036Y-72208140D02*
X170080560Y-72208140D01*
X169985321Y-72255760D01*
X169937702Y-72303379D01*
X169842464Y-72446236D01*
X169794845Y-72636712D01*
X169794845Y-73017664D01*
X169842464Y-73112902D01*
X169890083Y-73160521D01*
X169985321Y-73208140D01*
X170175798Y-73208140D01*
X170271036Y-73160521D01*
X170318655Y-73112902D01*
X170366274Y-73017664D01*
X170366274Y-72779569D01*
X170318655Y-72684331D01*
X170271036Y-72636712D01*
X170175798Y-72589093D01*
X169985321Y-72589093D01*
X169890083Y-72636712D01*
X169842464Y-72684331D01*
X169794845Y-72779569D01*
X165207653Y-73277980D02*
X164874320Y-72801790D01*
X164636224Y-73277980D02*
X164636224Y-72277980D01*
X165017177Y-72277980D01*
X165112415Y-72325600D01*
X165160034Y-72373219D01*
X165207653Y-72468457D01*
X165207653Y-72611314D01*
X165160034Y-72706552D01*
X165112415Y-72754171D01*
X165017177Y-72801790D01*
X164636224Y-72801790D01*
X166112415Y-72277980D02*
X165636224Y-72277980D01*
X165588605Y-72754171D01*
X165636224Y-72706552D01*
X165731462Y-72658933D01*
X165969558Y-72658933D01*
X166064796Y-72706552D01*
X166112415Y-72754171D01*
X166160034Y-72849409D01*
X166160034Y-73087504D01*
X166112415Y-73182742D01*
X166064796Y-73230361D01*
X165969558Y-73277980D01*
X165731462Y-73277980D01*
X165636224Y-73230361D01*
X165588605Y-73182742D01*
X165009604Y-65158880D02*
X165009604Y-64158880D01*
X165247700Y-64158880D01*
X165390557Y-64206500D01*
X165485795Y-64301738D01*
X165533414Y-64396976D01*
X165581033Y-64587452D01*
X165581033Y-64730309D01*
X165533414Y-64920785D01*
X165485795Y-65016023D01*
X165390557Y-65111261D01*
X165247700Y-65158880D01*
X165009604Y-65158880D01*
X165961985Y-64254119D02*
X166009604Y-64206500D01*
X166104842Y-64158880D01*
X166342938Y-64158880D01*
X166438176Y-64206500D01*
X166485795Y-64254119D01*
X166533414Y-64349357D01*
X166533414Y-64444595D01*
X166485795Y-64587452D01*
X165914366Y-65158880D01*
X166533414Y-65158880D01*
X172693104Y-65133480D02*
X172693104Y-64133480D01*
X172931200Y-64133480D01*
X173074057Y-64181100D01*
X173169295Y-64276338D01*
X173216914Y-64371576D01*
X173264533Y-64562052D01*
X173264533Y-64704909D01*
X173216914Y-64895385D01*
X173169295Y-64990623D01*
X173074057Y-65085861D01*
X172931200Y-65133480D01*
X172693104Y-65133480D01*
X174216914Y-65133480D02*
X173645485Y-65133480D01*
X173931200Y-65133480D02*
X173931200Y-64133480D01*
X173835961Y-64276338D01*
X173740723Y-64371576D01*
X173645485Y-64419195D01*
X170064204Y-65133480D02*
X170064204Y-64133480D01*
X170302300Y-64133480D01*
X170445157Y-64181100D01*
X170540395Y-64276338D01*
X170588014Y-64371576D01*
X170635633Y-64562052D01*
X170635633Y-64704909D01*
X170588014Y-64895385D01*
X170540395Y-64990623D01*
X170445157Y-65085861D01*
X170302300Y-65133480D01*
X170064204Y-65133480D01*
X170968966Y-64133480D02*
X171588014Y-64133480D01*
X171254680Y-64514433D01*
X171397538Y-64514433D01*
X171492776Y-64562052D01*
X171540395Y-64609671D01*
X171588014Y-64704909D01*
X171588014Y-64943004D01*
X171540395Y-65038242D01*
X171492776Y-65085861D01*
X171397538Y-65133480D01*
X171111823Y-65133480D01*
X171016585Y-65085861D01*
X170968966Y-65038242D01*
X147788380Y-103171523D02*
X148788380Y-102504857D01*
X147788380Y-102504857D02*
X148788380Y-103171523D01*
X148788380Y-101600095D02*
X148788380Y-102171523D01*
X148788380Y-101885809D02*
X147788380Y-101885809D01*
X147931238Y-101981047D01*
X148026476Y-102076285D01*
X148074095Y-102171523D01*
X138651527Y-83905641D02*
X138920901Y-84175015D01*
X138166654Y-83797891D02*
X138651527Y-83905641D01*
X138543777Y-83420768D01*
X139594336Y-83501580D02*
X139271087Y-83824829D01*
X139432711Y-83663204D02*
X138867026Y-83097519D01*
X138893963Y-83232206D01*
X138893963Y-83339955D01*
X138867026Y-83420768D01*
X152630142Y-106084666D02*
X152677761Y-106132285D01*
X152725380Y-106275142D01*
X152725380Y-106370380D01*
X152677761Y-106513238D01*
X152582523Y-106608476D01*
X152487285Y-106656095D01*
X152296809Y-106703714D01*
X152153952Y-106703714D01*
X151963476Y-106656095D01*
X151868238Y-106608476D01*
X151773000Y-106513238D01*
X151725380Y-106370380D01*
X151725380Y-106275142D01*
X151773000Y-106132285D01*
X151820619Y-106084666D01*
X151725380Y-105751333D02*
X151725380Y-105132285D01*
X152106333Y-105465619D01*
X152106333Y-105322761D01*
X152153952Y-105227523D01*
X152201571Y-105179904D01*
X152296809Y-105132285D01*
X152534904Y-105132285D01*
X152630142Y-105179904D01*
X152677761Y-105227523D01*
X152725380Y-105322761D01*
X152725380Y-105608476D01*
X152677761Y-105703714D01*
X152630142Y-105751333D01*
X151544067Y-107790288D02*
X152305972Y-107790288D01*
X151925020Y-108171240D02*
X151925020Y-107409336D01*
X149205653Y-73218300D02*
X148872320Y-72742110D01*
X148634224Y-73218300D02*
X148634224Y-72218300D01*
X149015177Y-72218300D01*
X149110415Y-72265920D01*
X149158034Y-72313539D01*
X149205653Y-72408777D01*
X149205653Y-72551634D01*
X149158034Y-72646872D01*
X149110415Y-72694491D01*
X149015177Y-72742110D01*
X148634224Y-72742110D01*
X150062796Y-72551634D02*
X150062796Y-73218300D01*
X149824700Y-72170681D02*
X149586605Y-72884967D01*
X150205653Y-72884967D01*
X147112693Y-73218300D02*
X146779360Y-72742110D01*
X146541264Y-73218300D02*
X146541264Y-72218300D01*
X146922217Y-72218300D01*
X147017455Y-72265920D01*
X147065074Y-72313539D01*
X147112693Y-72408777D01*
X147112693Y-72551634D01*
X147065074Y-72646872D01*
X147017455Y-72694491D01*
X146922217Y-72742110D01*
X146541264Y-72742110D01*
X147446026Y-72218300D02*
X148065074Y-72218300D01*
X147731740Y-72599253D01*
X147874598Y-72599253D01*
X147969836Y-72646872D01*
X148017455Y-72694491D01*
X148065074Y-72789729D01*
X148065074Y-73027824D01*
X148017455Y-73123062D01*
X147969836Y-73170681D01*
X147874598Y-73218300D01*
X147588883Y-73218300D01*
X147493645Y-73170681D01*
X147446026Y-73123062D01*
X143064004Y-65133480D02*
X143064004Y-64133480D01*
X143302100Y-64133480D01*
X143444957Y-64181100D01*
X143540195Y-64276338D01*
X143587814Y-64371576D01*
X143635433Y-64562052D01*
X143635433Y-64704909D01*
X143587814Y-64895385D01*
X143540195Y-64990623D01*
X143444957Y-65085861D01*
X143302100Y-65133480D01*
X143064004Y-65133480D01*
X144492576Y-64466814D02*
X144492576Y-65133480D01*
X144254480Y-64085861D02*
X144016385Y-64800147D01*
X144635433Y-64800147D01*
X146732666Y-111085380D02*
X146732666Y-111799666D01*
X146685047Y-111942523D01*
X146589809Y-112037761D01*
X146446952Y-112085380D01*
X146351714Y-112085380D01*
X147732666Y-112085380D02*
X147161238Y-112085380D01*
X147446952Y-112085380D02*
X147446952Y-111085380D01*
X147351714Y-111228238D01*
X147256476Y-111323476D01*
X147161238Y-111371095D01*
X139168142Y-106084666D02*
X139215761Y-106132285D01*
X139263380Y-106275142D01*
X139263380Y-106370380D01*
X139215761Y-106513238D01*
X139120523Y-106608476D01*
X139025285Y-106656095D01*
X138834809Y-106703714D01*
X138691952Y-106703714D01*
X138501476Y-106656095D01*
X138406238Y-106608476D01*
X138311000Y-106513238D01*
X138263380Y-106370380D01*
X138263380Y-106275142D01*
X138311000Y-106132285D01*
X138358619Y-106084666D01*
X138596714Y-105227523D02*
X139263380Y-105227523D01*
X138215761Y-105465619D02*
X138930047Y-105703714D01*
X138930047Y-105084666D01*
X138745007Y-104213968D02*
X139506912Y-104213968D01*
X139125960Y-104594920D02*
X139125960Y-103833016D01*
X142987733Y-73204320D02*
X142654400Y-72728130D01*
X142416304Y-73204320D02*
X142416304Y-72204320D01*
X142797257Y-72204320D01*
X142892495Y-72251940D01*
X142940114Y-72299559D01*
X142987733Y-72394797D01*
X142987733Y-72537654D01*
X142940114Y-72632892D01*
X142892495Y-72680511D01*
X142797257Y-72728130D01*
X142416304Y-72728130D01*
X143321066Y-72204320D02*
X143987733Y-72204320D01*
X143559161Y-73204320D01*
X145029893Y-73208140D02*
X144696560Y-72731950D01*
X144458464Y-73208140D02*
X144458464Y-72208140D01*
X144839417Y-72208140D01*
X144934655Y-72255760D01*
X144982274Y-72303379D01*
X145029893Y-72398617D01*
X145029893Y-72541474D01*
X144982274Y-72636712D01*
X144934655Y-72684331D01*
X144839417Y-72731950D01*
X144458464Y-72731950D01*
X145887036Y-72208140D02*
X145696560Y-72208140D01*
X145601321Y-72255760D01*
X145553702Y-72303379D01*
X145458464Y-72446236D01*
X145410845Y-72636712D01*
X145410845Y-73017664D01*
X145458464Y-73112902D01*
X145506083Y-73160521D01*
X145601321Y-73208140D01*
X145791798Y-73208140D01*
X145887036Y-73160521D01*
X145934655Y-73112902D01*
X145982274Y-73017664D01*
X145982274Y-72779569D01*
X145934655Y-72684331D01*
X145887036Y-72636712D01*
X145791798Y-72589093D01*
X145601321Y-72589093D01*
X145506083Y-72636712D01*
X145458464Y-72684331D01*
X145410845Y-72779569D01*
X140823653Y-73277980D02*
X140490320Y-72801790D01*
X140252224Y-73277980D02*
X140252224Y-72277980D01*
X140633177Y-72277980D01*
X140728415Y-72325600D01*
X140776034Y-72373219D01*
X140823653Y-72468457D01*
X140823653Y-72611314D01*
X140776034Y-72706552D01*
X140728415Y-72754171D01*
X140633177Y-72801790D01*
X140252224Y-72801790D01*
X141728415Y-72277980D02*
X141252224Y-72277980D01*
X141204605Y-72754171D01*
X141252224Y-72706552D01*
X141347462Y-72658933D01*
X141585558Y-72658933D01*
X141680796Y-72706552D01*
X141728415Y-72754171D01*
X141776034Y-72849409D01*
X141776034Y-73087504D01*
X141728415Y-73182742D01*
X141680796Y-73230361D01*
X141585558Y-73277980D01*
X141347462Y-73277980D01*
X141252224Y-73230361D01*
X141204605Y-73182742D01*
X140625604Y-65158880D02*
X140625604Y-64158880D01*
X140863700Y-64158880D01*
X141006557Y-64206500D01*
X141101795Y-64301738D01*
X141149414Y-64396976D01*
X141197033Y-64587452D01*
X141197033Y-64730309D01*
X141149414Y-64920785D01*
X141101795Y-65016023D01*
X141006557Y-65111261D01*
X140863700Y-65158880D01*
X140625604Y-65158880D01*
X141577985Y-64254119D02*
X141625604Y-64206500D01*
X141720842Y-64158880D01*
X141958938Y-64158880D01*
X142054176Y-64206500D01*
X142101795Y-64254119D01*
X142149414Y-64349357D01*
X142149414Y-64444595D01*
X142101795Y-64587452D01*
X141530366Y-65158880D01*
X142149414Y-65158880D01*
X148309104Y-65133480D02*
X148309104Y-64133480D01*
X148547200Y-64133480D01*
X148690057Y-64181100D01*
X148785295Y-64276338D01*
X148832914Y-64371576D01*
X148880533Y-64562052D01*
X148880533Y-64704909D01*
X148832914Y-64895385D01*
X148785295Y-64990623D01*
X148690057Y-65085861D01*
X148547200Y-65133480D01*
X148309104Y-65133480D01*
X149832914Y-65133480D02*
X149261485Y-65133480D01*
X149547200Y-65133480D02*
X149547200Y-64133480D01*
X149451961Y-64276338D01*
X149356723Y-64371576D01*
X149261485Y-64419195D01*
X145680204Y-65133480D02*
X145680204Y-64133480D01*
X145918300Y-64133480D01*
X146061157Y-64181100D01*
X146156395Y-64276338D01*
X146204014Y-64371576D01*
X146251633Y-64562052D01*
X146251633Y-64704909D01*
X146204014Y-64895385D01*
X146156395Y-64990623D01*
X146061157Y-65085861D01*
X145918300Y-65133480D01*
X145680204Y-65133480D01*
X146584966Y-64133480D02*
X147204014Y-64133480D01*
X146870680Y-64514433D01*
X147013538Y-64514433D01*
X147108776Y-64562052D01*
X147156395Y-64609671D01*
X147204014Y-64704909D01*
X147204014Y-64943004D01*
X147156395Y-65038242D01*
X147108776Y-65085861D01*
X147013538Y-65133480D01*
X146727823Y-65133480D01*
X146632585Y-65085861D01*
X146584966Y-65038242D01*
X121296204Y-65133480D02*
X121296204Y-64133480D01*
X121534300Y-64133480D01*
X121677157Y-64181100D01*
X121772395Y-64276338D01*
X121820014Y-64371576D01*
X121867633Y-64562052D01*
X121867633Y-64704909D01*
X121820014Y-64895385D01*
X121772395Y-64990623D01*
X121677157Y-65085861D01*
X121534300Y-65133480D01*
X121296204Y-65133480D01*
X122200966Y-64133480D02*
X122820014Y-64133480D01*
X122486680Y-64514433D01*
X122629538Y-64514433D01*
X122724776Y-64562052D01*
X122772395Y-64609671D01*
X122820014Y-64704909D01*
X122820014Y-64943004D01*
X122772395Y-65038242D01*
X122724776Y-65085861D01*
X122629538Y-65133480D01*
X122343823Y-65133480D01*
X122248585Y-65085861D01*
X122200966Y-65038242D01*
X128246142Y-106084666D02*
X128293761Y-106132285D01*
X128341380Y-106275142D01*
X128341380Y-106370380D01*
X128293761Y-106513238D01*
X128198523Y-106608476D01*
X128103285Y-106656095D01*
X127912809Y-106703714D01*
X127769952Y-106703714D01*
X127579476Y-106656095D01*
X127484238Y-106608476D01*
X127389000Y-106513238D01*
X127341380Y-106370380D01*
X127341380Y-106275142D01*
X127389000Y-106132285D01*
X127436619Y-106084666D01*
X127341380Y-105751333D02*
X127341380Y-105132285D01*
X127722333Y-105465619D01*
X127722333Y-105322761D01*
X127769952Y-105227523D01*
X127817571Y-105179904D01*
X127912809Y-105132285D01*
X128150904Y-105132285D01*
X128246142Y-105179904D01*
X128293761Y-105227523D01*
X128341380Y-105322761D01*
X128341380Y-105608476D01*
X128293761Y-105703714D01*
X128246142Y-105751333D01*
X127160067Y-107790288D02*
X127921972Y-107790288D01*
X127541020Y-108171240D02*
X127541020Y-107409336D01*
X114784142Y-106084666D02*
X114831761Y-106132285D01*
X114879380Y-106275142D01*
X114879380Y-106370380D01*
X114831761Y-106513238D01*
X114736523Y-106608476D01*
X114641285Y-106656095D01*
X114450809Y-106703714D01*
X114307952Y-106703714D01*
X114117476Y-106656095D01*
X114022238Y-106608476D01*
X113927000Y-106513238D01*
X113879380Y-106370380D01*
X113879380Y-106275142D01*
X113927000Y-106132285D01*
X113974619Y-106084666D01*
X114212714Y-105227523D02*
X114879380Y-105227523D01*
X113831761Y-105465619D02*
X114546047Y-105703714D01*
X114546047Y-105084666D01*
X114361007Y-104213968D02*
X115122912Y-104213968D01*
X114741960Y-104594920D02*
X114741960Y-103833016D01*
X123925104Y-65133480D02*
X123925104Y-64133480D01*
X124163200Y-64133480D01*
X124306057Y-64181100D01*
X124401295Y-64276338D01*
X124448914Y-64371576D01*
X124496533Y-64562052D01*
X124496533Y-64704909D01*
X124448914Y-64895385D01*
X124401295Y-64990623D01*
X124306057Y-65085861D01*
X124163200Y-65133480D01*
X123925104Y-65133480D01*
X125448914Y-65133480D02*
X124877485Y-65133480D01*
X125163200Y-65133480D02*
X125163200Y-64133480D01*
X125067961Y-64276338D01*
X124972723Y-64371576D01*
X124877485Y-64419195D01*
X116241604Y-65158880D02*
X116241604Y-64158880D01*
X116479700Y-64158880D01*
X116622557Y-64206500D01*
X116717795Y-64301738D01*
X116765414Y-64396976D01*
X116813033Y-64587452D01*
X116813033Y-64730309D01*
X116765414Y-64920785D01*
X116717795Y-65016023D01*
X116622557Y-65111261D01*
X116479700Y-65158880D01*
X116241604Y-65158880D01*
X117193985Y-64254119D02*
X117241604Y-64206500D01*
X117336842Y-64158880D01*
X117574938Y-64158880D01*
X117670176Y-64206500D01*
X117717795Y-64254119D01*
X117765414Y-64349357D01*
X117765414Y-64444595D01*
X117717795Y-64587452D01*
X117146366Y-65158880D01*
X117765414Y-65158880D01*
X118680004Y-65133480D02*
X118680004Y-64133480D01*
X118918100Y-64133480D01*
X119060957Y-64181100D01*
X119156195Y-64276338D01*
X119203814Y-64371576D01*
X119251433Y-64562052D01*
X119251433Y-64704909D01*
X119203814Y-64895385D01*
X119156195Y-64990623D01*
X119060957Y-65085861D01*
X118918100Y-65133480D01*
X118680004Y-65133480D01*
X120108576Y-64466814D02*
X120108576Y-65133480D01*
X119870480Y-64085861D02*
X119632385Y-64800147D01*
X120251433Y-64800147D01*
X122348666Y-111085380D02*
X122348666Y-111799666D01*
X122301047Y-111942523D01*
X122205809Y-112037761D01*
X122062952Y-112085380D01*
X121967714Y-112085380D01*
X123348666Y-112085380D02*
X122777238Y-112085380D01*
X123062952Y-112085380D02*
X123062952Y-111085380D01*
X122967714Y-111228238D01*
X122872476Y-111323476D01*
X122777238Y-111371095D01*
X122728693Y-73218300D02*
X122395360Y-72742110D01*
X122157264Y-73218300D02*
X122157264Y-72218300D01*
X122538217Y-72218300D01*
X122633455Y-72265920D01*
X122681074Y-72313539D01*
X122728693Y-72408777D01*
X122728693Y-72551634D01*
X122681074Y-72646872D01*
X122633455Y-72694491D01*
X122538217Y-72742110D01*
X122157264Y-72742110D01*
X123062026Y-72218300D02*
X123681074Y-72218300D01*
X123347740Y-72599253D01*
X123490598Y-72599253D01*
X123585836Y-72646872D01*
X123633455Y-72694491D01*
X123681074Y-72789729D01*
X123681074Y-73027824D01*
X123633455Y-73123062D01*
X123585836Y-73170681D01*
X123490598Y-73218300D01*
X123204883Y-73218300D01*
X123109645Y-73170681D01*
X123062026Y-73123062D01*
X124821653Y-73218300D02*
X124488320Y-72742110D01*
X124250224Y-73218300D02*
X124250224Y-72218300D01*
X124631177Y-72218300D01*
X124726415Y-72265920D01*
X124774034Y-72313539D01*
X124821653Y-72408777D01*
X124821653Y-72551634D01*
X124774034Y-72646872D01*
X124726415Y-72694491D01*
X124631177Y-72742110D01*
X124250224Y-72742110D01*
X125678796Y-72551634D02*
X125678796Y-73218300D01*
X125440700Y-72170681D02*
X125202605Y-72884967D01*
X125821653Y-72884967D01*
X116439653Y-73277980D02*
X116106320Y-72801790D01*
X115868224Y-73277980D02*
X115868224Y-72277980D01*
X116249177Y-72277980D01*
X116344415Y-72325600D01*
X116392034Y-72373219D01*
X116439653Y-72468457D01*
X116439653Y-72611314D01*
X116392034Y-72706552D01*
X116344415Y-72754171D01*
X116249177Y-72801790D01*
X115868224Y-72801790D01*
X117344415Y-72277980D02*
X116868224Y-72277980D01*
X116820605Y-72754171D01*
X116868224Y-72706552D01*
X116963462Y-72658933D01*
X117201558Y-72658933D01*
X117296796Y-72706552D01*
X117344415Y-72754171D01*
X117392034Y-72849409D01*
X117392034Y-73087504D01*
X117344415Y-73182742D01*
X117296796Y-73230361D01*
X117201558Y-73277980D01*
X116963462Y-73277980D01*
X116868224Y-73230361D01*
X116820605Y-73182742D01*
X120645893Y-73208140D02*
X120312560Y-72731950D01*
X120074464Y-73208140D02*
X120074464Y-72208140D01*
X120455417Y-72208140D01*
X120550655Y-72255760D01*
X120598274Y-72303379D01*
X120645893Y-72398617D01*
X120645893Y-72541474D01*
X120598274Y-72636712D01*
X120550655Y-72684331D01*
X120455417Y-72731950D01*
X120074464Y-72731950D01*
X121503036Y-72208140D02*
X121312560Y-72208140D01*
X121217321Y-72255760D01*
X121169702Y-72303379D01*
X121074464Y-72446236D01*
X121026845Y-72636712D01*
X121026845Y-73017664D01*
X121074464Y-73112902D01*
X121122083Y-73160521D01*
X121217321Y-73208140D01*
X121407798Y-73208140D01*
X121503036Y-73160521D01*
X121550655Y-73112902D01*
X121598274Y-73017664D01*
X121598274Y-72779569D01*
X121550655Y-72684331D01*
X121503036Y-72636712D01*
X121407798Y-72589093D01*
X121217321Y-72589093D01*
X121122083Y-72636712D01*
X121074464Y-72684331D01*
X121026845Y-72779569D01*
X118603733Y-73204320D02*
X118270400Y-72728130D01*
X118032304Y-73204320D02*
X118032304Y-72204320D01*
X118413257Y-72204320D01*
X118508495Y-72251940D01*
X118556114Y-72299559D01*
X118603733Y-72394797D01*
X118603733Y-72537654D01*
X118556114Y-72632892D01*
X118508495Y-72680511D01*
X118413257Y-72728130D01*
X118032304Y-72728130D01*
X118937066Y-72204320D02*
X119603733Y-72204320D01*
X119175161Y-73204320D01*
X114267527Y-83905641D02*
X114536901Y-84175015D01*
X113782654Y-83797891D02*
X114267527Y-83905641D01*
X114159777Y-83420768D01*
X115210336Y-83501580D02*
X114887087Y-83824829D01*
X115048711Y-83663204D02*
X114483026Y-83097519D01*
X114509963Y-83232206D01*
X114509963Y-83339955D01*
X114483026Y-83420768D01*
X123404380Y-103171523D02*
X124404380Y-102504857D01*
X123404380Y-102504857D02*
X124404380Y-103171523D01*
X124404380Y-101600095D02*
X124404380Y-102171523D01*
X124404380Y-101885809D02*
X123404380Y-101885809D01*
X123547238Y-101981047D01*
X123642476Y-102076285D01*
X123690095Y-102171523D01*
M02*
