G04 #@! TF.GenerationSoftware,KiCad,Pcbnew,6.0.0-rc1-unknown-9cac0a3~66~ubuntu16.04.1*
G04 #@! TF.CreationDate,2019-01-23T08:05:13+01:00
G04 #@! TF.ProjectId,nano324,6e616e6f-3332-4342-9e6b-696361645f70,rev?*
G04 #@! TF.SameCoordinates,Original*
G04 #@! TF.FileFunction,Legend,Bot*
G04 #@! TF.FilePolarity,Positive*
%FSLAX46Y46*%
G04 Gerber Fmt 4.6, Leading zero omitted, Abs format (unit mm)*
G04 Created by KiCad (PCBNEW 6.0.0-rc1-unknown-9cac0a3~66~ubuntu16.04.1) date St 23. január 2019, 08:05:13 CET*
%MOMM*%
%LPD*%
G04 APERTURE LIST*
%ADD10C,0.600000*%
%ADD11C,0.127000*%
%ADD12C,0.120000*%
%ADD13C,0.150000*%
%ADD14C,0.076200*%
G04 APERTURE END LIST*
D10*
X181864000Y-114300000D02*
X181864000Y-131445000D01*
X157480000Y-114300000D02*
X157480000Y-131445000D01*
X133096000Y-114300000D02*
X133096000Y-131445000D01*
X206248000Y-131445000D02*
X206248000Y-124968000D01*
X108712000Y-131445000D02*
X206248000Y-131445000D01*
X206248000Y-114300000D02*
X206248000Y-124968000D01*
X108712000Y-114300000D02*
X108712000Y-131445000D01*
X206248000Y-114300000D02*
X181864000Y-114300000D01*
X181864000Y-114300000D02*
X181864000Y-57912000D01*
X181864000Y-57912000D02*
X206248000Y-57912000D01*
X206248000Y-57912000D02*
X206248000Y-114300000D01*
X181864000Y-114300000D02*
X157480000Y-114300000D01*
X157480000Y-114300000D02*
X157480000Y-57912000D01*
X157480000Y-57912000D02*
X181864000Y-57912000D01*
X181864000Y-57912000D02*
X181864000Y-114300000D01*
X157480000Y-114300000D02*
X133096000Y-114300000D01*
X133096000Y-114300000D02*
X133096000Y-57912000D01*
X133096000Y-57912000D02*
X157480000Y-57912000D01*
X157480000Y-57912000D02*
X157480000Y-114300000D01*
X133096000Y-57912000D02*
X133096000Y-114300000D01*
X108712000Y-57912000D02*
X133096000Y-57912000D01*
X108712000Y-114300000D02*
X108712000Y-57912000D01*
X133096000Y-114300000D02*
X108712000Y-114300000D01*
D11*
X193304400Y-71449100D02*
G75*
G03X193304400Y-71449100I-300000J0D01*
G01*
X195704400Y-65749100D02*
X192204400Y-65749100D01*
X192204400Y-72249100D02*
X195704400Y-72249100D01*
D12*
X190808000Y-108157520D02*
X190808000Y-106157520D01*
X188668000Y-106157520D02*
X188668000Y-108157520D01*
D13*
X194550280Y-74311080D02*
X198090280Y-74311080D01*
X194550280Y-72511080D02*
X198090280Y-72511080D01*
X196232780Y-73919080D02*
X196232780Y-72903080D01*
X196867780Y-73030080D02*
X196232780Y-73411080D01*
X196867780Y-73792080D02*
X196867780Y-73030080D01*
X196232780Y-73411080D02*
X196867780Y-73792080D01*
X195851780Y-73411080D02*
X196232780Y-73411080D01*
X196867780Y-73411080D02*
X197248780Y-73411080D01*
X191072200Y-63859040D02*
X192072200Y-63859040D01*
X192072200Y-65559040D02*
X191072200Y-65559040D01*
X190322920Y-83028760D02*
X191522920Y-83028760D01*
X191522920Y-81278760D02*
X190322920Y-81278760D01*
X193710000Y-111365000D02*
X194910000Y-111365000D01*
X194910000Y-109615000D02*
X193710000Y-109615000D01*
X196373400Y-102038500D02*
X196373400Y-102563500D01*
X192073400Y-102038500D02*
X192073400Y-102563500D01*
X192073400Y-106338500D02*
X192073400Y-105813500D01*
X196373400Y-106338500D02*
X196373400Y-105813500D01*
X192073400Y-102038500D02*
X192598400Y-102038500D01*
X192073400Y-106338500D02*
X192598400Y-106338500D01*
X196373400Y-102038500D02*
X195848400Y-102038500D01*
X196533200Y-81364720D02*
X197533200Y-81364720D01*
X197533200Y-83064720D02*
X196533200Y-83064720D01*
X194910000Y-111824800D02*
X193710000Y-111824800D01*
X193710000Y-113574800D02*
X194910000Y-113574800D01*
D11*
X192229800Y-80986700D02*
X195729800Y-80986700D01*
X195729800Y-74486700D02*
X192229800Y-74486700D01*
X193329800Y-80186700D02*
G75*
G03X193329800Y-80186700I-300000J0D01*
G01*
D13*
X197543040Y-85203400D02*
X196543040Y-85203400D01*
X196543040Y-83503400D02*
X197543040Y-83503400D01*
X190381000Y-83478000D02*
X191381000Y-83478000D01*
X191381000Y-85178000D02*
X190381000Y-85178000D01*
X197604000Y-91782000D02*
X196604000Y-91782000D01*
X196604000Y-90082000D02*
X197604000Y-90082000D01*
X195684200Y-63803160D02*
X196684200Y-63803160D01*
X196684200Y-65503160D02*
X195684200Y-65503160D01*
X192275080Y-74250920D02*
X191275080Y-74250920D01*
X191275080Y-72550920D02*
X192275080Y-72550920D01*
X188838000Y-99854000D02*
X188838000Y-103394000D01*
X190638000Y-99854000D02*
X190638000Y-103394000D01*
X189230000Y-101536500D02*
X190246000Y-101536500D01*
X190119000Y-102171500D02*
X189738000Y-101536500D01*
X189357000Y-102171500D02*
X190119000Y-102171500D01*
X189738000Y-101536500D02*
X189357000Y-102171500D01*
X189738000Y-101155500D02*
X189738000Y-101536500D01*
X189738000Y-102171500D02*
X189738000Y-102552500D01*
D11*
X168920400Y-71449100D02*
G75*
G03X168920400Y-71449100I-300000J0D01*
G01*
X171320400Y-65749100D02*
X167820400Y-65749100D01*
X167820400Y-72249100D02*
X171320400Y-72249100D01*
D12*
X166424000Y-108157520D02*
X166424000Y-106157520D01*
X164284000Y-106157520D02*
X164284000Y-108157520D01*
D13*
X170166280Y-74311080D02*
X173706280Y-74311080D01*
X170166280Y-72511080D02*
X173706280Y-72511080D01*
X171848780Y-73919080D02*
X171848780Y-72903080D01*
X172483780Y-73030080D02*
X171848780Y-73411080D01*
X172483780Y-73792080D02*
X172483780Y-73030080D01*
X171848780Y-73411080D02*
X172483780Y-73792080D01*
X171467780Y-73411080D02*
X171848780Y-73411080D01*
X172483780Y-73411080D02*
X172864780Y-73411080D01*
X166688200Y-63859040D02*
X167688200Y-63859040D01*
X167688200Y-65559040D02*
X166688200Y-65559040D01*
X165938920Y-83028760D02*
X167138920Y-83028760D01*
X167138920Y-81278760D02*
X165938920Y-81278760D01*
X169326000Y-111365000D02*
X170526000Y-111365000D01*
X170526000Y-109615000D02*
X169326000Y-109615000D01*
X171989400Y-102038500D02*
X171989400Y-102563500D01*
X167689400Y-102038500D02*
X167689400Y-102563500D01*
X167689400Y-106338500D02*
X167689400Y-105813500D01*
X171989400Y-106338500D02*
X171989400Y-105813500D01*
X167689400Y-102038500D02*
X168214400Y-102038500D01*
X167689400Y-106338500D02*
X168214400Y-106338500D01*
X171989400Y-102038500D02*
X171464400Y-102038500D01*
X172149200Y-81364720D02*
X173149200Y-81364720D01*
X173149200Y-83064720D02*
X172149200Y-83064720D01*
X170526000Y-111824800D02*
X169326000Y-111824800D01*
X169326000Y-113574800D02*
X170526000Y-113574800D01*
D11*
X167845800Y-80986700D02*
X171345800Y-80986700D01*
X171345800Y-74486700D02*
X167845800Y-74486700D01*
X168945800Y-80186700D02*
G75*
G03X168945800Y-80186700I-300000J0D01*
G01*
D13*
X173159040Y-85203400D02*
X172159040Y-85203400D01*
X172159040Y-83503400D02*
X173159040Y-83503400D01*
X165997000Y-83478000D02*
X166997000Y-83478000D01*
X166997000Y-85178000D02*
X165997000Y-85178000D01*
X173220000Y-91782000D02*
X172220000Y-91782000D01*
X172220000Y-90082000D02*
X173220000Y-90082000D01*
X171300200Y-63803160D02*
X172300200Y-63803160D01*
X172300200Y-65503160D02*
X171300200Y-65503160D01*
X167891080Y-74250920D02*
X166891080Y-74250920D01*
X166891080Y-72550920D02*
X167891080Y-72550920D01*
X164454000Y-99854000D02*
X164454000Y-103394000D01*
X166254000Y-99854000D02*
X166254000Y-103394000D01*
X164846000Y-101536500D02*
X165862000Y-101536500D01*
X165735000Y-102171500D02*
X165354000Y-101536500D01*
X164973000Y-102171500D02*
X165735000Y-102171500D01*
X165354000Y-101536500D02*
X164973000Y-102171500D01*
X165354000Y-101155500D02*
X165354000Y-101536500D01*
X165354000Y-102171500D02*
X165354000Y-102552500D01*
D11*
X144536400Y-71449100D02*
G75*
G03X144536400Y-71449100I-300000J0D01*
G01*
X146936400Y-65749100D02*
X143436400Y-65749100D01*
X143436400Y-72249100D02*
X146936400Y-72249100D01*
D12*
X142040000Y-108157520D02*
X142040000Y-106157520D01*
X139900000Y-106157520D02*
X139900000Y-108157520D01*
D13*
X145782280Y-74311080D02*
X149322280Y-74311080D01*
X145782280Y-72511080D02*
X149322280Y-72511080D01*
X147464780Y-73919080D02*
X147464780Y-72903080D01*
X148099780Y-73030080D02*
X147464780Y-73411080D01*
X148099780Y-73792080D02*
X148099780Y-73030080D01*
X147464780Y-73411080D02*
X148099780Y-73792080D01*
X147083780Y-73411080D02*
X147464780Y-73411080D01*
X148099780Y-73411080D02*
X148480780Y-73411080D01*
X142304200Y-63859040D02*
X143304200Y-63859040D01*
X143304200Y-65559040D02*
X142304200Y-65559040D01*
X141554920Y-83028760D02*
X142754920Y-83028760D01*
X142754920Y-81278760D02*
X141554920Y-81278760D01*
X144942000Y-111365000D02*
X146142000Y-111365000D01*
X146142000Y-109615000D02*
X144942000Y-109615000D01*
X147605400Y-102038500D02*
X147605400Y-102563500D01*
X143305400Y-102038500D02*
X143305400Y-102563500D01*
X143305400Y-106338500D02*
X143305400Y-105813500D01*
X147605400Y-106338500D02*
X147605400Y-105813500D01*
X143305400Y-102038500D02*
X143830400Y-102038500D01*
X143305400Y-106338500D02*
X143830400Y-106338500D01*
X147605400Y-102038500D02*
X147080400Y-102038500D01*
X147765200Y-81364720D02*
X148765200Y-81364720D01*
X148765200Y-83064720D02*
X147765200Y-83064720D01*
X146142000Y-111824800D02*
X144942000Y-111824800D01*
X144942000Y-113574800D02*
X146142000Y-113574800D01*
D11*
X143461800Y-80986700D02*
X146961800Y-80986700D01*
X146961800Y-74486700D02*
X143461800Y-74486700D01*
X144561800Y-80186700D02*
G75*
G03X144561800Y-80186700I-300000J0D01*
G01*
D13*
X148775040Y-85203400D02*
X147775040Y-85203400D01*
X147775040Y-83503400D02*
X148775040Y-83503400D01*
X141613000Y-83478000D02*
X142613000Y-83478000D01*
X142613000Y-85178000D02*
X141613000Y-85178000D01*
X148836000Y-91782000D02*
X147836000Y-91782000D01*
X147836000Y-90082000D02*
X148836000Y-90082000D01*
X146916200Y-63803160D02*
X147916200Y-63803160D01*
X147916200Y-65503160D02*
X146916200Y-65503160D01*
X143507080Y-74250920D02*
X142507080Y-74250920D01*
X142507080Y-72550920D02*
X143507080Y-72550920D01*
X140070000Y-99854000D02*
X140070000Y-103394000D01*
X141870000Y-99854000D02*
X141870000Y-103394000D01*
X140462000Y-101536500D02*
X141478000Y-101536500D01*
X141351000Y-102171500D02*
X140970000Y-101536500D01*
X140589000Y-102171500D02*
X141351000Y-102171500D01*
X140970000Y-101536500D02*
X140589000Y-102171500D01*
X140970000Y-101155500D02*
X140970000Y-101536500D01*
X140970000Y-102171500D02*
X140970000Y-102552500D01*
D11*
X120177800Y-80186700D02*
G75*
G03X120177800Y-80186700I-300000J0D01*
G01*
X122577800Y-74486700D02*
X119077800Y-74486700D01*
X119077800Y-80986700D02*
X122577800Y-80986700D01*
D13*
X118229000Y-85178000D02*
X117229000Y-85178000D01*
X117229000Y-83478000D02*
X118229000Y-83478000D01*
X123452000Y-90082000D02*
X124452000Y-90082000D01*
X124452000Y-91782000D02*
X123452000Y-91782000D01*
X118123080Y-72550920D02*
X119123080Y-72550920D01*
X119123080Y-74250920D02*
X118123080Y-74250920D01*
X118920200Y-65559040D02*
X117920200Y-65559040D01*
X117920200Y-63859040D02*
X118920200Y-63859040D01*
X123391040Y-83503400D02*
X124391040Y-83503400D01*
X124391040Y-85203400D02*
X123391040Y-85203400D01*
X123532200Y-65503160D02*
X122532200Y-65503160D01*
X122532200Y-63803160D02*
X123532200Y-63803160D01*
X124381200Y-83064720D02*
X123381200Y-83064720D01*
X123381200Y-81364720D02*
X124381200Y-81364720D01*
X116586000Y-102171500D02*
X116586000Y-102552500D01*
X116586000Y-101155500D02*
X116586000Y-101536500D01*
X116586000Y-101536500D02*
X116205000Y-102171500D01*
X116205000Y-102171500D02*
X116967000Y-102171500D01*
X116967000Y-102171500D02*
X116586000Y-101536500D01*
X116078000Y-101536500D02*
X117094000Y-101536500D01*
X117486000Y-99854000D02*
X117486000Y-103394000D01*
X115686000Y-99854000D02*
X115686000Y-103394000D01*
X123715780Y-73411080D02*
X124096780Y-73411080D01*
X122699780Y-73411080D02*
X123080780Y-73411080D01*
X123080780Y-73411080D02*
X123715780Y-73792080D01*
X123715780Y-73792080D02*
X123715780Y-73030080D01*
X123715780Y-73030080D02*
X123080780Y-73411080D01*
X123080780Y-73919080D02*
X123080780Y-72903080D01*
X121398280Y-72511080D02*
X124938280Y-72511080D01*
X121398280Y-74311080D02*
X124938280Y-74311080D01*
D12*
X115516000Y-106157520D02*
X115516000Y-108157520D01*
X117656000Y-108157520D02*
X117656000Y-106157520D01*
D13*
X121758000Y-109615000D02*
X120558000Y-109615000D01*
X120558000Y-111365000D02*
X121758000Y-111365000D01*
X120558000Y-113574800D02*
X121758000Y-113574800D01*
X121758000Y-111824800D02*
X120558000Y-111824800D01*
X118370920Y-81278760D02*
X117170920Y-81278760D01*
X117170920Y-83028760D02*
X118370920Y-83028760D01*
X123221400Y-102038500D02*
X122696400Y-102038500D01*
X118921400Y-106338500D02*
X119446400Y-106338500D01*
X118921400Y-102038500D02*
X119446400Y-102038500D01*
X123221400Y-106338500D02*
X123221400Y-105813500D01*
X118921400Y-106338500D02*
X118921400Y-105813500D01*
X118921400Y-102038500D02*
X118921400Y-102563500D01*
X123221400Y-102038500D02*
X123221400Y-102563500D01*
D11*
X119052400Y-72249100D02*
X122552400Y-72249100D01*
X122552400Y-65749100D02*
X119052400Y-65749100D01*
X120152400Y-71449100D02*
G75*
G03X120152400Y-71449100I-300000J0D01*
G01*
D14*
X194903876Y-70992395D02*
X194903876Y-71650376D01*
X194865171Y-71727785D01*
X194826466Y-71766490D01*
X194749057Y-71805195D01*
X194594238Y-71805195D01*
X194516828Y-71766490D01*
X194478123Y-71727785D01*
X194439419Y-71650376D01*
X194439419Y-70992395D01*
X194129780Y-70992395D02*
X193626619Y-70992395D01*
X193897552Y-71302033D01*
X193781438Y-71302033D01*
X193704028Y-71340738D01*
X193665323Y-71379442D01*
X193626619Y-71456852D01*
X193626619Y-71650376D01*
X193665323Y-71727785D01*
X193704028Y-71766490D01*
X193781438Y-71805195D01*
X194013666Y-71805195D01*
X194091076Y-71766490D01*
X194129780Y-71727785D01*
X194687371Y-67953466D02*
X194300323Y-67953466D01*
X194764780Y-68185695D02*
X194493847Y-67372895D01*
X194222914Y-68185695D01*
X193951980Y-68185695D02*
X193951980Y-67372895D01*
X193642342Y-67372895D01*
X193564933Y-67411600D01*
X193526228Y-67450304D01*
X193487523Y-67527714D01*
X193487523Y-67643828D01*
X193526228Y-67721238D01*
X193564933Y-67759942D01*
X193642342Y-67798647D01*
X193951980Y-67798647D01*
X192713428Y-68185695D02*
X193177885Y-68185695D01*
X192945657Y-68185695D02*
X192945657Y-67372895D01*
X193023066Y-67489009D01*
X193100476Y-67566419D01*
X193177885Y-67605123D01*
X191939333Y-68185695D02*
X192403790Y-68185695D01*
X192171561Y-68185695D02*
X192171561Y-67372895D01*
X192248971Y-67489009D01*
X192326380Y-67566419D01*
X192403790Y-67605123D01*
X191165238Y-68185695D02*
X191629695Y-68185695D01*
X191397466Y-68185695D02*
X191397466Y-67372895D01*
X191474876Y-67489009D01*
X191552285Y-67566419D01*
X191629695Y-67605123D01*
X190894304Y-67372895D02*
X190352438Y-67372895D01*
X190700780Y-68185695D01*
X190042800Y-67876057D02*
X189423523Y-67876057D01*
X188649428Y-67372895D02*
X189036476Y-67372895D01*
X189075180Y-67759942D01*
X189036476Y-67721238D01*
X188959066Y-67682533D01*
X188765542Y-67682533D01*
X188688133Y-67721238D01*
X188649428Y-67759942D01*
X188610723Y-67837352D01*
X188610723Y-68030876D01*
X188649428Y-68108285D01*
X188688133Y-68146990D01*
X188765542Y-68185695D01*
X188959066Y-68185695D01*
X189036476Y-68146990D01*
X189075180Y-68108285D01*
X188107561Y-67372895D02*
X188030152Y-67372895D01*
X187952742Y-67411600D01*
X187914038Y-67450304D01*
X187875333Y-67527714D01*
X187836628Y-67682533D01*
X187836628Y-67876057D01*
X187875333Y-68030876D01*
X187914038Y-68108285D01*
X187952742Y-68146990D01*
X188030152Y-68185695D01*
X188107561Y-68185695D01*
X188184971Y-68146990D01*
X188223676Y-68108285D01*
X188262380Y-68030876D01*
X188301085Y-67876057D01*
X188301085Y-67682533D01*
X188262380Y-67527714D01*
X188223676Y-67450304D01*
X188184971Y-67411600D01*
X188107561Y-67372895D01*
D13*
X187466571Y-106774186D02*
X187466571Y-106440853D01*
X187990380Y-106440853D02*
X186990380Y-106440853D01*
X186990380Y-106917043D01*
X187990380Y-107821805D02*
X187990380Y-107250377D01*
X187990380Y-107536091D02*
X186990380Y-107536091D01*
X187133238Y-107440853D01*
X187228476Y-107345615D01*
X187276095Y-107250377D01*
X200096380Y-72794904D02*
X199096380Y-72794904D01*
X199096380Y-73033000D01*
X199144000Y-73175857D01*
X199239238Y-73271095D01*
X199334476Y-73318714D01*
X199524952Y-73366333D01*
X199667809Y-73366333D01*
X199858285Y-73318714D01*
X199953523Y-73271095D01*
X200048761Y-73175857D01*
X200096380Y-73033000D01*
X200096380Y-72794904D01*
X199096380Y-74223476D02*
X199096380Y-74033000D01*
X199144000Y-73937761D01*
X199191619Y-73890142D01*
X199334476Y-73794904D01*
X199524952Y-73747285D01*
X199905904Y-73747285D01*
X200001142Y-73794904D01*
X200048761Y-73842523D01*
X200096380Y-73937761D01*
X200096380Y-74128238D01*
X200048761Y-74223476D01*
X200001142Y-74271095D01*
X199905904Y-74318714D01*
X199667809Y-74318714D01*
X199572571Y-74271095D01*
X199524952Y-74223476D01*
X199477333Y-74128238D01*
X199477333Y-73937761D01*
X199524952Y-73842523D01*
X199572571Y-73794904D01*
X199667809Y-73747285D01*
X188698142Y-64476333D02*
X188745761Y-64428714D01*
X188793380Y-64285857D01*
X188793380Y-64190619D01*
X188745761Y-64047761D01*
X188650523Y-63952523D01*
X188555285Y-63904904D01*
X188364809Y-63857285D01*
X188221952Y-63857285D01*
X188031476Y-63904904D01*
X187936238Y-63952523D01*
X187841000Y-64047761D01*
X187793380Y-64190619D01*
X187793380Y-64285857D01*
X187841000Y-64428714D01*
X187888619Y-64476333D01*
X187793380Y-65333476D02*
X187793380Y-65143000D01*
X187841000Y-65047761D01*
X187888619Y-65000142D01*
X188031476Y-64904904D01*
X188221952Y-64857285D01*
X188602904Y-64857285D01*
X188698142Y-64904904D01*
X188745761Y-64952523D01*
X188793380Y-65047761D01*
X188793380Y-65238238D01*
X188745761Y-65333476D01*
X188698142Y-65381095D01*
X188602904Y-65428714D01*
X188364809Y-65428714D01*
X188269571Y-65381095D01*
X188221952Y-65333476D01*
X188174333Y-65238238D01*
X188174333Y-65047761D01*
X188221952Y-64952523D01*
X188269571Y-64904904D01*
X188364809Y-64857285D01*
X188158380Y-82129333D02*
X187682190Y-81796000D01*
X188158380Y-81557904D02*
X187158380Y-81557904D01*
X187158380Y-81938857D01*
X187206000Y-82034095D01*
X187253619Y-82081714D01*
X187348857Y-82129333D01*
X187491714Y-82129333D01*
X187586952Y-82081714D01*
X187634571Y-82034095D01*
X187682190Y-81938857D01*
X187682190Y-81557904D01*
X187586952Y-82700761D02*
X187539333Y-82605523D01*
X187491714Y-82557904D01*
X187396476Y-82510285D01*
X187348857Y-82510285D01*
X187253619Y-82557904D01*
X187206000Y-82605523D01*
X187158380Y-82700761D01*
X187158380Y-82891238D01*
X187206000Y-82986476D01*
X187253619Y-83034095D01*
X187348857Y-83081714D01*
X187396476Y-83081714D01*
X187491714Y-83034095D01*
X187539333Y-82986476D01*
X187586952Y-82891238D01*
X187586952Y-82700761D01*
X187634571Y-82605523D01*
X187682190Y-82557904D01*
X187777428Y-82510285D01*
X187967904Y-82510285D01*
X188063142Y-82557904D01*
X188110761Y-82605523D01*
X188158380Y-82700761D01*
X188158380Y-82891238D01*
X188110761Y-82986476D01*
X188063142Y-83034095D01*
X187967904Y-83081714D01*
X187777428Y-83081714D01*
X187682190Y-83034095D01*
X187634571Y-82986476D01*
X187586952Y-82891238D01*
X199969380Y-110323333D02*
X199493190Y-109990000D01*
X199969380Y-109751904D02*
X198969380Y-109751904D01*
X198969380Y-110132857D01*
X199017000Y-110228095D01*
X199064619Y-110275714D01*
X199159857Y-110323333D01*
X199302714Y-110323333D01*
X199397952Y-110275714D01*
X199445571Y-110228095D01*
X199493190Y-110132857D01*
X199493190Y-109751904D01*
X199969380Y-111275714D02*
X199969380Y-110704285D01*
X199969380Y-110990000D02*
X198969380Y-110990000D01*
X199112238Y-110894761D01*
X199207476Y-110799523D01*
X199255095Y-110704285D01*
X197191380Y-103378095D02*
X198000904Y-103378095D01*
X198096142Y-103425714D01*
X198143761Y-103473333D01*
X198191380Y-103568571D01*
X198191380Y-103759047D01*
X198143761Y-103854285D01*
X198096142Y-103901904D01*
X198000904Y-103949523D01*
X197191380Y-103949523D01*
X197286619Y-104378095D02*
X197239000Y-104425714D01*
X197191380Y-104520952D01*
X197191380Y-104759047D01*
X197239000Y-104854285D01*
X197286619Y-104901904D01*
X197381857Y-104949523D01*
X197477095Y-104949523D01*
X197619952Y-104901904D01*
X198191380Y-104330476D01*
X198191380Y-104949523D01*
X200509142Y-82002333D02*
X200556761Y-81954714D01*
X200604380Y-81811857D01*
X200604380Y-81716619D01*
X200556761Y-81573761D01*
X200461523Y-81478523D01*
X200366285Y-81430904D01*
X200175809Y-81383285D01*
X200032952Y-81383285D01*
X199842476Y-81430904D01*
X199747238Y-81478523D01*
X199652000Y-81573761D01*
X199604380Y-81716619D01*
X199604380Y-81811857D01*
X199652000Y-81954714D01*
X199699619Y-82002333D01*
X200604380Y-82478523D02*
X200604380Y-82669000D01*
X200556761Y-82764238D01*
X200509142Y-82811857D01*
X200366285Y-82907095D01*
X200175809Y-82954714D01*
X199794857Y-82954714D01*
X199699619Y-82907095D01*
X199652000Y-82859476D01*
X199604380Y-82764238D01*
X199604380Y-82573761D01*
X199652000Y-82478523D01*
X199699619Y-82430904D01*
X199794857Y-82383285D01*
X200032952Y-82383285D01*
X200128190Y-82430904D01*
X200175809Y-82478523D01*
X200223428Y-82573761D01*
X200223428Y-82764238D01*
X200175809Y-82859476D01*
X200128190Y-82907095D01*
X200032952Y-82954714D01*
X199969380Y-112482333D02*
X199493190Y-112149000D01*
X199969380Y-111910904D02*
X198969380Y-111910904D01*
X198969380Y-112291857D01*
X199017000Y-112387095D01*
X199064619Y-112434714D01*
X199159857Y-112482333D01*
X199302714Y-112482333D01*
X199397952Y-112434714D01*
X199445571Y-112387095D01*
X199493190Y-112291857D01*
X199493190Y-111910904D01*
X199064619Y-112863285D02*
X199017000Y-112910904D01*
X198969380Y-113006142D01*
X198969380Y-113244238D01*
X199017000Y-113339476D01*
X199064619Y-113387095D01*
X199159857Y-113434714D01*
X199255095Y-113434714D01*
X199397952Y-113387095D01*
X199969380Y-112815666D01*
X199969380Y-113434714D01*
D14*
X194929276Y-79729995D02*
X194929276Y-80387976D01*
X194890571Y-80465385D01*
X194851866Y-80504090D01*
X194774457Y-80542795D01*
X194619638Y-80542795D01*
X194542228Y-80504090D01*
X194503523Y-80465385D01*
X194464819Y-80387976D01*
X194464819Y-79729995D01*
X193729428Y-80000928D02*
X193729428Y-80542795D01*
X193922952Y-79691290D02*
X194116476Y-80271861D01*
X193613314Y-80271861D01*
X194687371Y-76716466D02*
X194300323Y-76716466D01*
X194764780Y-76948695D02*
X194493847Y-76135895D01*
X194222914Y-76948695D01*
X193951980Y-76948695D02*
X193951980Y-76135895D01*
X193642342Y-76135895D01*
X193564933Y-76174600D01*
X193526228Y-76213304D01*
X193487523Y-76290714D01*
X193487523Y-76406828D01*
X193526228Y-76484238D01*
X193564933Y-76522942D01*
X193642342Y-76561647D01*
X193951980Y-76561647D01*
X192713428Y-76948695D02*
X193177885Y-76948695D01*
X192945657Y-76948695D02*
X192945657Y-76135895D01*
X193023066Y-76252009D01*
X193100476Y-76329419D01*
X193177885Y-76368123D01*
X191939333Y-76948695D02*
X192403790Y-76948695D01*
X192171561Y-76948695D02*
X192171561Y-76135895D01*
X192248971Y-76252009D01*
X192326380Y-76329419D01*
X192403790Y-76368123D01*
X191165238Y-76948695D02*
X191629695Y-76948695D01*
X191397466Y-76948695D02*
X191397466Y-76135895D01*
X191474876Y-76252009D01*
X191552285Y-76329419D01*
X191629695Y-76368123D01*
X190894304Y-76135895D02*
X190352438Y-76135895D01*
X190700780Y-76948695D01*
X190042800Y-76639057D02*
X189423523Y-76639057D01*
X188649428Y-76135895D02*
X189036476Y-76135895D01*
X189075180Y-76522942D01*
X189036476Y-76484238D01*
X188959066Y-76445533D01*
X188765542Y-76445533D01*
X188688133Y-76484238D01*
X188649428Y-76522942D01*
X188610723Y-76600352D01*
X188610723Y-76793876D01*
X188649428Y-76871285D01*
X188688133Y-76909990D01*
X188765542Y-76948695D01*
X188959066Y-76948695D01*
X189036476Y-76909990D01*
X189075180Y-76871285D01*
X188107561Y-76135895D02*
X188030152Y-76135895D01*
X187952742Y-76174600D01*
X187914038Y-76213304D01*
X187875333Y-76290714D01*
X187836628Y-76445533D01*
X187836628Y-76639057D01*
X187875333Y-76793876D01*
X187914038Y-76871285D01*
X187952742Y-76909990D01*
X188030152Y-76948695D01*
X188107561Y-76948695D01*
X188184971Y-76909990D01*
X188223676Y-76871285D01*
X188262380Y-76793876D01*
X188301085Y-76639057D01*
X188301085Y-76445533D01*
X188262380Y-76290714D01*
X188223676Y-76213304D01*
X188184971Y-76174600D01*
X188107561Y-76135895D01*
D13*
X200509142Y-84161333D02*
X200556761Y-84113714D01*
X200604380Y-83970857D01*
X200604380Y-83875619D01*
X200556761Y-83732761D01*
X200461523Y-83637523D01*
X200366285Y-83589904D01*
X200175809Y-83542285D01*
X200032952Y-83542285D01*
X199842476Y-83589904D01*
X199747238Y-83637523D01*
X199652000Y-83732761D01*
X199604380Y-83875619D01*
X199604380Y-83970857D01*
X199652000Y-84113714D01*
X199699619Y-84161333D01*
X199604380Y-85066095D02*
X199604380Y-84589904D01*
X200080571Y-84542285D01*
X200032952Y-84589904D01*
X199985333Y-84685142D01*
X199985333Y-84923238D01*
X200032952Y-85018476D01*
X200080571Y-85066095D01*
X200175809Y-85113714D01*
X200413904Y-85113714D01*
X200509142Y-85066095D01*
X200556761Y-85018476D01*
X200604380Y-84923238D01*
X200604380Y-84685142D01*
X200556761Y-84589904D01*
X200509142Y-84542285D01*
X188007582Y-84141013D02*
X188055201Y-84093394D01*
X188102820Y-83950537D01*
X188102820Y-83855299D01*
X188055201Y-83712441D01*
X187959963Y-83617203D01*
X187864725Y-83569584D01*
X187674249Y-83521965D01*
X187531392Y-83521965D01*
X187340916Y-83569584D01*
X187245678Y-83617203D01*
X187150440Y-83712441D01*
X187102820Y-83855299D01*
X187102820Y-83950537D01*
X187150440Y-84093394D01*
X187198059Y-84141013D01*
X187531392Y-84712441D02*
X187483773Y-84617203D01*
X187436154Y-84569584D01*
X187340916Y-84521965D01*
X187293297Y-84521965D01*
X187198059Y-84569584D01*
X187150440Y-84617203D01*
X187102820Y-84712441D01*
X187102820Y-84902918D01*
X187150440Y-84998156D01*
X187198059Y-85045775D01*
X187293297Y-85093394D01*
X187340916Y-85093394D01*
X187436154Y-85045775D01*
X187483773Y-84998156D01*
X187531392Y-84902918D01*
X187531392Y-84712441D01*
X187579011Y-84617203D01*
X187626630Y-84569584D01*
X187721868Y-84521965D01*
X187912344Y-84521965D01*
X188007582Y-84569584D01*
X188055201Y-84617203D01*
X188102820Y-84712441D01*
X188102820Y-84902918D01*
X188055201Y-84998156D01*
X188007582Y-85045775D01*
X187912344Y-85093394D01*
X187721868Y-85093394D01*
X187626630Y-85045775D01*
X187579011Y-84998156D01*
X187531392Y-84902918D01*
X200636142Y-90765333D02*
X200683761Y-90717714D01*
X200731380Y-90574857D01*
X200731380Y-90479619D01*
X200683761Y-90336761D01*
X200588523Y-90241523D01*
X200493285Y-90193904D01*
X200302809Y-90146285D01*
X200159952Y-90146285D01*
X199969476Y-90193904D01*
X199874238Y-90241523D01*
X199779000Y-90336761D01*
X199731380Y-90479619D01*
X199731380Y-90574857D01*
X199779000Y-90717714D01*
X199826619Y-90765333D01*
X199826619Y-91146285D02*
X199779000Y-91193904D01*
X199731380Y-91289142D01*
X199731380Y-91527238D01*
X199779000Y-91622476D01*
X199826619Y-91670095D01*
X199921857Y-91717714D01*
X200017095Y-91717714D01*
X200159952Y-91670095D01*
X200731380Y-91098666D01*
X200731380Y-91717714D01*
X199874142Y-64349333D02*
X199921761Y-64301714D01*
X199969380Y-64158857D01*
X199969380Y-64063619D01*
X199921761Y-63920761D01*
X199826523Y-63825523D01*
X199731285Y-63777904D01*
X199540809Y-63730285D01*
X199397952Y-63730285D01*
X199207476Y-63777904D01*
X199112238Y-63825523D01*
X199017000Y-63920761D01*
X198969380Y-64063619D01*
X198969380Y-64158857D01*
X199017000Y-64301714D01*
X199064619Y-64349333D01*
X198969380Y-64682666D02*
X198969380Y-65349333D01*
X199969380Y-64920761D01*
X188825142Y-73366333D02*
X188872761Y-73318714D01*
X188920380Y-73175857D01*
X188920380Y-73080619D01*
X188872761Y-72937761D01*
X188777523Y-72842523D01*
X188682285Y-72794904D01*
X188491809Y-72747285D01*
X188348952Y-72747285D01*
X188158476Y-72794904D01*
X188063238Y-72842523D01*
X187968000Y-72937761D01*
X187920380Y-73080619D01*
X187920380Y-73175857D01*
X187968000Y-73318714D01*
X188015619Y-73366333D01*
X188920380Y-74318714D02*
X188920380Y-73747285D01*
X188920380Y-74033000D02*
X187920380Y-74033000D01*
X188063238Y-73937761D01*
X188158476Y-73842523D01*
X188206095Y-73747285D01*
X188031380Y-101115904D02*
X187031380Y-101115904D01*
X187031380Y-101354000D01*
X187079000Y-101496857D01*
X187174238Y-101592095D01*
X187269476Y-101639714D01*
X187459952Y-101687333D01*
X187602809Y-101687333D01*
X187793285Y-101639714D01*
X187888523Y-101592095D01*
X187983761Y-101496857D01*
X188031380Y-101354000D01*
X188031380Y-101115904D01*
X187031380Y-102592095D02*
X187031380Y-102115904D01*
X187507571Y-102068285D01*
X187459952Y-102115904D01*
X187412333Y-102211142D01*
X187412333Y-102449238D01*
X187459952Y-102544476D01*
X187507571Y-102592095D01*
X187602809Y-102639714D01*
X187840904Y-102639714D01*
X187936142Y-102592095D01*
X187983761Y-102544476D01*
X188031380Y-102449238D01*
X188031380Y-102211142D01*
X187983761Y-102115904D01*
X187936142Y-102068285D01*
D14*
X170519876Y-70992395D02*
X170519876Y-71650376D01*
X170481171Y-71727785D01*
X170442466Y-71766490D01*
X170365057Y-71805195D01*
X170210238Y-71805195D01*
X170132828Y-71766490D01*
X170094123Y-71727785D01*
X170055419Y-71650376D01*
X170055419Y-70992395D01*
X169745780Y-70992395D02*
X169242619Y-70992395D01*
X169513552Y-71302033D01*
X169397438Y-71302033D01*
X169320028Y-71340738D01*
X169281323Y-71379442D01*
X169242619Y-71456852D01*
X169242619Y-71650376D01*
X169281323Y-71727785D01*
X169320028Y-71766490D01*
X169397438Y-71805195D01*
X169629666Y-71805195D01*
X169707076Y-71766490D01*
X169745780Y-71727785D01*
X170303371Y-67953466D02*
X169916323Y-67953466D01*
X170380780Y-68185695D02*
X170109847Y-67372895D01*
X169838914Y-68185695D01*
X169567980Y-68185695D02*
X169567980Y-67372895D01*
X169258342Y-67372895D01*
X169180933Y-67411600D01*
X169142228Y-67450304D01*
X169103523Y-67527714D01*
X169103523Y-67643828D01*
X169142228Y-67721238D01*
X169180933Y-67759942D01*
X169258342Y-67798647D01*
X169567980Y-67798647D01*
X168329428Y-68185695D02*
X168793885Y-68185695D01*
X168561657Y-68185695D02*
X168561657Y-67372895D01*
X168639066Y-67489009D01*
X168716476Y-67566419D01*
X168793885Y-67605123D01*
X167555333Y-68185695D02*
X168019790Y-68185695D01*
X167787561Y-68185695D02*
X167787561Y-67372895D01*
X167864971Y-67489009D01*
X167942380Y-67566419D01*
X168019790Y-67605123D01*
X166781238Y-68185695D02*
X167245695Y-68185695D01*
X167013466Y-68185695D02*
X167013466Y-67372895D01*
X167090876Y-67489009D01*
X167168285Y-67566419D01*
X167245695Y-67605123D01*
X166510304Y-67372895D02*
X165968438Y-67372895D01*
X166316780Y-68185695D01*
X165658800Y-67876057D02*
X165039523Y-67876057D01*
X164265428Y-67372895D02*
X164652476Y-67372895D01*
X164691180Y-67759942D01*
X164652476Y-67721238D01*
X164575066Y-67682533D01*
X164381542Y-67682533D01*
X164304133Y-67721238D01*
X164265428Y-67759942D01*
X164226723Y-67837352D01*
X164226723Y-68030876D01*
X164265428Y-68108285D01*
X164304133Y-68146990D01*
X164381542Y-68185695D01*
X164575066Y-68185695D01*
X164652476Y-68146990D01*
X164691180Y-68108285D01*
X163723561Y-67372895D02*
X163646152Y-67372895D01*
X163568742Y-67411600D01*
X163530038Y-67450304D01*
X163491333Y-67527714D01*
X163452628Y-67682533D01*
X163452628Y-67876057D01*
X163491333Y-68030876D01*
X163530038Y-68108285D01*
X163568742Y-68146990D01*
X163646152Y-68185695D01*
X163723561Y-68185695D01*
X163800971Y-68146990D01*
X163839676Y-68108285D01*
X163878380Y-68030876D01*
X163917085Y-67876057D01*
X163917085Y-67682533D01*
X163878380Y-67527714D01*
X163839676Y-67450304D01*
X163800971Y-67411600D01*
X163723561Y-67372895D01*
D13*
X163082571Y-106774186D02*
X163082571Y-106440853D01*
X163606380Y-106440853D02*
X162606380Y-106440853D01*
X162606380Y-106917043D01*
X163606380Y-107821805D02*
X163606380Y-107250377D01*
X163606380Y-107536091D02*
X162606380Y-107536091D01*
X162749238Y-107440853D01*
X162844476Y-107345615D01*
X162892095Y-107250377D01*
X175712380Y-72794904D02*
X174712380Y-72794904D01*
X174712380Y-73033000D01*
X174760000Y-73175857D01*
X174855238Y-73271095D01*
X174950476Y-73318714D01*
X175140952Y-73366333D01*
X175283809Y-73366333D01*
X175474285Y-73318714D01*
X175569523Y-73271095D01*
X175664761Y-73175857D01*
X175712380Y-73033000D01*
X175712380Y-72794904D01*
X174712380Y-74223476D02*
X174712380Y-74033000D01*
X174760000Y-73937761D01*
X174807619Y-73890142D01*
X174950476Y-73794904D01*
X175140952Y-73747285D01*
X175521904Y-73747285D01*
X175617142Y-73794904D01*
X175664761Y-73842523D01*
X175712380Y-73937761D01*
X175712380Y-74128238D01*
X175664761Y-74223476D01*
X175617142Y-74271095D01*
X175521904Y-74318714D01*
X175283809Y-74318714D01*
X175188571Y-74271095D01*
X175140952Y-74223476D01*
X175093333Y-74128238D01*
X175093333Y-73937761D01*
X175140952Y-73842523D01*
X175188571Y-73794904D01*
X175283809Y-73747285D01*
X164314142Y-64476333D02*
X164361761Y-64428714D01*
X164409380Y-64285857D01*
X164409380Y-64190619D01*
X164361761Y-64047761D01*
X164266523Y-63952523D01*
X164171285Y-63904904D01*
X163980809Y-63857285D01*
X163837952Y-63857285D01*
X163647476Y-63904904D01*
X163552238Y-63952523D01*
X163457000Y-64047761D01*
X163409380Y-64190619D01*
X163409380Y-64285857D01*
X163457000Y-64428714D01*
X163504619Y-64476333D01*
X163409380Y-65333476D02*
X163409380Y-65143000D01*
X163457000Y-65047761D01*
X163504619Y-65000142D01*
X163647476Y-64904904D01*
X163837952Y-64857285D01*
X164218904Y-64857285D01*
X164314142Y-64904904D01*
X164361761Y-64952523D01*
X164409380Y-65047761D01*
X164409380Y-65238238D01*
X164361761Y-65333476D01*
X164314142Y-65381095D01*
X164218904Y-65428714D01*
X163980809Y-65428714D01*
X163885571Y-65381095D01*
X163837952Y-65333476D01*
X163790333Y-65238238D01*
X163790333Y-65047761D01*
X163837952Y-64952523D01*
X163885571Y-64904904D01*
X163980809Y-64857285D01*
X163774380Y-82129333D02*
X163298190Y-81796000D01*
X163774380Y-81557904D02*
X162774380Y-81557904D01*
X162774380Y-81938857D01*
X162822000Y-82034095D01*
X162869619Y-82081714D01*
X162964857Y-82129333D01*
X163107714Y-82129333D01*
X163202952Y-82081714D01*
X163250571Y-82034095D01*
X163298190Y-81938857D01*
X163298190Y-81557904D01*
X163202952Y-82700761D02*
X163155333Y-82605523D01*
X163107714Y-82557904D01*
X163012476Y-82510285D01*
X162964857Y-82510285D01*
X162869619Y-82557904D01*
X162822000Y-82605523D01*
X162774380Y-82700761D01*
X162774380Y-82891238D01*
X162822000Y-82986476D01*
X162869619Y-83034095D01*
X162964857Y-83081714D01*
X163012476Y-83081714D01*
X163107714Y-83034095D01*
X163155333Y-82986476D01*
X163202952Y-82891238D01*
X163202952Y-82700761D01*
X163250571Y-82605523D01*
X163298190Y-82557904D01*
X163393428Y-82510285D01*
X163583904Y-82510285D01*
X163679142Y-82557904D01*
X163726761Y-82605523D01*
X163774380Y-82700761D01*
X163774380Y-82891238D01*
X163726761Y-82986476D01*
X163679142Y-83034095D01*
X163583904Y-83081714D01*
X163393428Y-83081714D01*
X163298190Y-83034095D01*
X163250571Y-82986476D01*
X163202952Y-82891238D01*
X175585380Y-110323333D02*
X175109190Y-109990000D01*
X175585380Y-109751904D02*
X174585380Y-109751904D01*
X174585380Y-110132857D01*
X174633000Y-110228095D01*
X174680619Y-110275714D01*
X174775857Y-110323333D01*
X174918714Y-110323333D01*
X175013952Y-110275714D01*
X175061571Y-110228095D01*
X175109190Y-110132857D01*
X175109190Y-109751904D01*
X175585380Y-111275714D02*
X175585380Y-110704285D01*
X175585380Y-110990000D02*
X174585380Y-110990000D01*
X174728238Y-110894761D01*
X174823476Y-110799523D01*
X174871095Y-110704285D01*
X172807380Y-103378095D02*
X173616904Y-103378095D01*
X173712142Y-103425714D01*
X173759761Y-103473333D01*
X173807380Y-103568571D01*
X173807380Y-103759047D01*
X173759761Y-103854285D01*
X173712142Y-103901904D01*
X173616904Y-103949523D01*
X172807380Y-103949523D01*
X172902619Y-104378095D02*
X172855000Y-104425714D01*
X172807380Y-104520952D01*
X172807380Y-104759047D01*
X172855000Y-104854285D01*
X172902619Y-104901904D01*
X172997857Y-104949523D01*
X173093095Y-104949523D01*
X173235952Y-104901904D01*
X173807380Y-104330476D01*
X173807380Y-104949523D01*
X176125142Y-82002333D02*
X176172761Y-81954714D01*
X176220380Y-81811857D01*
X176220380Y-81716619D01*
X176172761Y-81573761D01*
X176077523Y-81478523D01*
X175982285Y-81430904D01*
X175791809Y-81383285D01*
X175648952Y-81383285D01*
X175458476Y-81430904D01*
X175363238Y-81478523D01*
X175268000Y-81573761D01*
X175220380Y-81716619D01*
X175220380Y-81811857D01*
X175268000Y-81954714D01*
X175315619Y-82002333D01*
X176220380Y-82478523D02*
X176220380Y-82669000D01*
X176172761Y-82764238D01*
X176125142Y-82811857D01*
X175982285Y-82907095D01*
X175791809Y-82954714D01*
X175410857Y-82954714D01*
X175315619Y-82907095D01*
X175268000Y-82859476D01*
X175220380Y-82764238D01*
X175220380Y-82573761D01*
X175268000Y-82478523D01*
X175315619Y-82430904D01*
X175410857Y-82383285D01*
X175648952Y-82383285D01*
X175744190Y-82430904D01*
X175791809Y-82478523D01*
X175839428Y-82573761D01*
X175839428Y-82764238D01*
X175791809Y-82859476D01*
X175744190Y-82907095D01*
X175648952Y-82954714D01*
X175585380Y-112482333D02*
X175109190Y-112149000D01*
X175585380Y-111910904D02*
X174585380Y-111910904D01*
X174585380Y-112291857D01*
X174633000Y-112387095D01*
X174680619Y-112434714D01*
X174775857Y-112482333D01*
X174918714Y-112482333D01*
X175013952Y-112434714D01*
X175061571Y-112387095D01*
X175109190Y-112291857D01*
X175109190Y-111910904D01*
X174680619Y-112863285D02*
X174633000Y-112910904D01*
X174585380Y-113006142D01*
X174585380Y-113244238D01*
X174633000Y-113339476D01*
X174680619Y-113387095D01*
X174775857Y-113434714D01*
X174871095Y-113434714D01*
X175013952Y-113387095D01*
X175585380Y-112815666D01*
X175585380Y-113434714D01*
D14*
X170545276Y-79729995D02*
X170545276Y-80387976D01*
X170506571Y-80465385D01*
X170467866Y-80504090D01*
X170390457Y-80542795D01*
X170235638Y-80542795D01*
X170158228Y-80504090D01*
X170119523Y-80465385D01*
X170080819Y-80387976D01*
X170080819Y-79729995D01*
X169345428Y-80000928D02*
X169345428Y-80542795D01*
X169538952Y-79691290D02*
X169732476Y-80271861D01*
X169229314Y-80271861D01*
X170303371Y-76716466D02*
X169916323Y-76716466D01*
X170380780Y-76948695D02*
X170109847Y-76135895D01*
X169838914Y-76948695D01*
X169567980Y-76948695D02*
X169567980Y-76135895D01*
X169258342Y-76135895D01*
X169180933Y-76174600D01*
X169142228Y-76213304D01*
X169103523Y-76290714D01*
X169103523Y-76406828D01*
X169142228Y-76484238D01*
X169180933Y-76522942D01*
X169258342Y-76561647D01*
X169567980Y-76561647D01*
X168329428Y-76948695D02*
X168793885Y-76948695D01*
X168561657Y-76948695D02*
X168561657Y-76135895D01*
X168639066Y-76252009D01*
X168716476Y-76329419D01*
X168793885Y-76368123D01*
X167555333Y-76948695D02*
X168019790Y-76948695D01*
X167787561Y-76948695D02*
X167787561Y-76135895D01*
X167864971Y-76252009D01*
X167942380Y-76329419D01*
X168019790Y-76368123D01*
X166781238Y-76948695D02*
X167245695Y-76948695D01*
X167013466Y-76948695D02*
X167013466Y-76135895D01*
X167090876Y-76252009D01*
X167168285Y-76329419D01*
X167245695Y-76368123D01*
X166510304Y-76135895D02*
X165968438Y-76135895D01*
X166316780Y-76948695D01*
X165658800Y-76639057D02*
X165039523Y-76639057D01*
X164265428Y-76135895D02*
X164652476Y-76135895D01*
X164691180Y-76522942D01*
X164652476Y-76484238D01*
X164575066Y-76445533D01*
X164381542Y-76445533D01*
X164304133Y-76484238D01*
X164265428Y-76522942D01*
X164226723Y-76600352D01*
X164226723Y-76793876D01*
X164265428Y-76871285D01*
X164304133Y-76909990D01*
X164381542Y-76948695D01*
X164575066Y-76948695D01*
X164652476Y-76909990D01*
X164691180Y-76871285D01*
X163723561Y-76135895D02*
X163646152Y-76135895D01*
X163568742Y-76174600D01*
X163530038Y-76213304D01*
X163491333Y-76290714D01*
X163452628Y-76445533D01*
X163452628Y-76639057D01*
X163491333Y-76793876D01*
X163530038Y-76871285D01*
X163568742Y-76909990D01*
X163646152Y-76948695D01*
X163723561Y-76948695D01*
X163800971Y-76909990D01*
X163839676Y-76871285D01*
X163878380Y-76793876D01*
X163917085Y-76639057D01*
X163917085Y-76445533D01*
X163878380Y-76290714D01*
X163839676Y-76213304D01*
X163800971Y-76174600D01*
X163723561Y-76135895D01*
D13*
X176125142Y-84161333D02*
X176172761Y-84113714D01*
X176220380Y-83970857D01*
X176220380Y-83875619D01*
X176172761Y-83732761D01*
X176077523Y-83637523D01*
X175982285Y-83589904D01*
X175791809Y-83542285D01*
X175648952Y-83542285D01*
X175458476Y-83589904D01*
X175363238Y-83637523D01*
X175268000Y-83732761D01*
X175220380Y-83875619D01*
X175220380Y-83970857D01*
X175268000Y-84113714D01*
X175315619Y-84161333D01*
X175220380Y-85066095D02*
X175220380Y-84589904D01*
X175696571Y-84542285D01*
X175648952Y-84589904D01*
X175601333Y-84685142D01*
X175601333Y-84923238D01*
X175648952Y-85018476D01*
X175696571Y-85066095D01*
X175791809Y-85113714D01*
X176029904Y-85113714D01*
X176125142Y-85066095D01*
X176172761Y-85018476D01*
X176220380Y-84923238D01*
X176220380Y-84685142D01*
X176172761Y-84589904D01*
X176125142Y-84542285D01*
X163623582Y-84141013D02*
X163671201Y-84093394D01*
X163718820Y-83950537D01*
X163718820Y-83855299D01*
X163671201Y-83712441D01*
X163575963Y-83617203D01*
X163480725Y-83569584D01*
X163290249Y-83521965D01*
X163147392Y-83521965D01*
X162956916Y-83569584D01*
X162861678Y-83617203D01*
X162766440Y-83712441D01*
X162718820Y-83855299D01*
X162718820Y-83950537D01*
X162766440Y-84093394D01*
X162814059Y-84141013D01*
X163147392Y-84712441D02*
X163099773Y-84617203D01*
X163052154Y-84569584D01*
X162956916Y-84521965D01*
X162909297Y-84521965D01*
X162814059Y-84569584D01*
X162766440Y-84617203D01*
X162718820Y-84712441D01*
X162718820Y-84902918D01*
X162766440Y-84998156D01*
X162814059Y-85045775D01*
X162909297Y-85093394D01*
X162956916Y-85093394D01*
X163052154Y-85045775D01*
X163099773Y-84998156D01*
X163147392Y-84902918D01*
X163147392Y-84712441D01*
X163195011Y-84617203D01*
X163242630Y-84569584D01*
X163337868Y-84521965D01*
X163528344Y-84521965D01*
X163623582Y-84569584D01*
X163671201Y-84617203D01*
X163718820Y-84712441D01*
X163718820Y-84902918D01*
X163671201Y-84998156D01*
X163623582Y-85045775D01*
X163528344Y-85093394D01*
X163337868Y-85093394D01*
X163242630Y-85045775D01*
X163195011Y-84998156D01*
X163147392Y-84902918D01*
X176252142Y-90765333D02*
X176299761Y-90717714D01*
X176347380Y-90574857D01*
X176347380Y-90479619D01*
X176299761Y-90336761D01*
X176204523Y-90241523D01*
X176109285Y-90193904D01*
X175918809Y-90146285D01*
X175775952Y-90146285D01*
X175585476Y-90193904D01*
X175490238Y-90241523D01*
X175395000Y-90336761D01*
X175347380Y-90479619D01*
X175347380Y-90574857D01*
X175395000Y-90717714D01*
X175442619Y-90765333D01*
X175442619Y-91146285D02*
X175395000Y-91193904D01*
X175347380Y-91289142D01*
X175347380Y-91527238D01*
X175395000Y-91622476D01*
X175442619Y-91670095D01*
X175537857Y-91717714D01*
X175633095Y-91717714D01*
X175775952Y-91670095D01*
X176347380Y-91098666D01*
X176347380Y-91717714D01*
X175490142Y-64349333D02*
X175537761Y-64301714D01*
X175585380Y-64158857D01*
X175585380Y-64063619D01*
X175537761Y-63920761D01*
X175442523Y-63825523D01*
X175347285Y-63777904D01*
X175156809Y-63730285D01*
X175013952Y-63730285D01*
X174823476Y-63777904D01*
X174728238Y-63825523D01*
X174633000Y-63920761D01*
X174585380Y-64063619D01*
X174585380Y-64158857D01*
X174633000Y-64301714D01*
X174680619Y-64349333D01*
X174585380Y-64682666D02*
X174585380Y-65349333D01*
X175585380Y-64920761D01*
X164441142Y-73366333D02*
X164488761Y-73318714D01*
X164536380Y-73175857D01*
X164536380Y-73080619D01*
X164488761Y-72937761D01*
X164393523Y-72842523D01*
X164298285Y-72794904D01*
X164107809Y-72747285D01*
X163964952Y-72747285D01*
X163774476Y-72794904D01*
X163679238Y-72842523D01*
X163584000Y-72937761D01*
X163536380Y-73080619D01*
X163536380Y-73175857D01*
X163584000Y-73318714D01*
X163631619Y-73366333D01*
X164536380Y-74318714D02*
X164536380Y-73747285D01*
X164536380Y-74033000D02*
X163536380Y-74033000D01*
X163679238Y-73937761D01*
X163774476Y-73842523D01*
X163822095Y-73747285D01*
X163647380Y-101115904D02*
X162647380Y-101115904D01*
X162647380Y-101354000D01*
X162695000Y-101496857D01*
X162790238Y-101592095D01*
X162885476Y-101639714D01*
X163075952Y-101687333D01*
X163218809Y-101687333D01*
X163409285Y-101639714D01*
X163504523Y-101592095D01*
X163599761Y-101496857D01*
X163647380Y-101354000D01*
X163647380Y-101115904D01*
X162647380Y-102592095D02*
X162647380Y-102115904D01*
X163123571Y-102068285D01*
X163075952Y-102115904D01*
X163028333Y-102211142D01*
X163028333Y-102449238D01*
X163075952Y-102544476D01*
X163123571Y-102592095D01*
X163218809Y-102639714D01*
X163456904Y-102639714D01*
X163552142Y-102592095D01*
X163599761Y-102544476D01*
X163647380Y-102449238D01*
X163647380Y-102211142D01*
X163599761Y-102115904D01*
X163552142Y-102068285D01*
D14*
X146135876Y-70992395D02*
X146135876Y-71650376D01*
X146097171Y-71727785D01*
X146058466Y-71766490D01*
X145981057Y-71805195D01*
X145826238Y-71805195D01*
X145748828Y-71766490D01*
X145710123Y-71727785D01*
X145671419Y-71650376D01*
X145671419Y-70992395D01*
X145361780Y-70992395D02*
X144858619Y-70992395D01*
X145129552Y-71302033D01*
X145013438Y-71302033D01*
X144936028Y-71340738D01*
X144897323Y-71379442D01*
X144858619Y-71456852D01*
X144858619Y-71650376D01*
X144897323Y-71727785D01*
X144936028Y-71766490D01*
X145013438Y-71805195D01*
X145245666Y-71805195D01*
X145323076Y-71766490D01*
X145361780Y-71727785D01*
X145919371Y-67953466D02*
X145532323Y-67953466D01*
X145996780Y-68185695D02*
X145725847Y-67372895D01*
X145454914Y-68185695D01*
X145183980Y-68185695D02*
X145183980Y-67372895D01*
X144874342Y-67372895D01*
X144796933Y-67411600D01*
X144758228Y-67450304D01*
X144719523Y-67527714D01*
X144719523Y-67643828D01*
X144758228Y-67721238D01*
X144796933Y-67759942D01*
X144874342Y-67798647D01*
X145183980Y-67798647D01*
X143945428Y-68185695D02*
X144409885Y-68185695D01*
X144177657Y-68185695D02*
X144177657Y-67372895D01*
X144255066Y-67489009D01*
X144332476Y-67566419D01*
X144409885Y-67605123D01*
X143171333Y-68185695D02*
X143635790Y-68185695D01*
X143403561Y-68185695D02*
X143403561Y-67372895D01*
X143480971Y-67489009D01*
X143558380Y-67566419D01*
X143635790Y-67605123D01*
X142397238Y-68185695D02*
X142861695Y-68185695D01*
X142629466Y-68185695D02*
X142629466Y-67372895D01*
X142706876Y-67489009D01*
X142784285Y-67566419D01*
X142861695Y-67605123D01*
X142126304Y-67372895D02*
X141584438Y-67372895D01*
X141932780Y-68185695D01*
X141274800Y-67876057D02*
X140655523Y-67876057D01*
X139881428Y-67372895D02*
X140268476Y-67372895D01*
X140307180Y-67759942D01*
X140268476Y-67721238D01*
X140191066Y-67682533D01*
X139997542Y-67682533D01*
X139920133Y-67721238D01*
X139881428Y-67759942D01*
X139842723Y-67837352D01*
X139842723Y-68030876D01*
X139881428Y-68108285D01*
X139920133Y-68146990D01*
X139997542Y-68185695D01*
X140191066Y-68185695D01*
X140268476Y-68146990D01*
X140307180Y-68108285D01*
X139339561Y-67372895D02*
X139262152Y-67372895D01*
X139184742Y-67411600D01*
X139146038Y-67450304D01*
X139107333Y-67527714D01*
X139068628Y-67682533D01*
X139068628Y-67876057D01*
X139107333Y-68030876D01*
X139146038Y-68108285D01*
X139184742Y-68146990D01*
X139262152Y-68185695D01*
X139339561Y-68185695D01*
X139416971Y-68146990D01*
X139455676Y-68108285D01*
X139494380Y-68030876D01*
X139533085Y-67876057D01*
X139533085Y-67682533D01*
X139494380Y-67527714D01*
X139455676Y-67450304D01*
X139416971Y-67411600D01*
X139339561Y-67372895D01*
D13*
X138698571Y-106774186D02*
X138698571Y-106440853D01*
X139222380Y-106440853D02*
X138222380Y-106440853D01*
X138222380Y-106917043D01*
X139222380Y-107821805D02*
X139222380Y-107250377D01*
X139222380Y-107536091D02*
X138222380Y-107536091D01*
X138365238Y-107440853D01*
X138460476Y-107345615D01*
X138508095Y-107250377D01*
X151328380Y-72794904D02*
X150328380Y-72794904D01*
X150328380Y-73033000D01*
X150376000Y-73175857D01*
X150471238Y-73271095D01*
X150566476Y-73318714D01*
X150756952Y-73366333D01*
X150899809Y-73366333D01*
X151090285Y-73318714D01*
X151185523Y-73271095D01*
X151280761Y-73175857D01*
X151328380Y-73033000D01*
X151328380Y-72794904D01*
X150328380Y-74223476D02*
X150328380Y-74033000D01*
X150376000Y-73937761D01*
X150423619Y-73890142D01*
X150566476Y-73794904D01*
X150756952Y-73747285D01*
X151137904Y-73747285D01*
X151233142Y-73794904D01*
X151280761Y-73842523D01*
X151328380Y-73937761D01*
X151328380Y-74128238D01*
X151280761Y-74223476D01*
X151233142Y-74271095D01*
X151137904Y-74318714D01*
X150899809Y-74318714D01*
X150804571Y-74271095D01*
X150756952Y-74223476D01*
X150709333Y-74128238D01*
X150709333Y-73937761D01*
X150756952Y-73842523D01*
X150804571Y-73794904D01*
X150899809Y-73747285D01*
X139930142Y-64476333D02*
X139977761Y-64428714D01*
X140025380Y-64285857D01*
X140025380Y-64190619D01*
X139977761Y-64047761D01*
X139882523Y-63952523D01*
X139787285Y-63904904D01*
X139596809Y-63857285D01*
X139453952Y-63857285D01*
X139263476Y-63904904D01*
X139168238Y-63952523D01*
X139073000Y-64047761D01*
X139025380Y-64190619D01*
X139025380Y-64285857D01*
X139073000Y-64428714D01*
X139120619Y-64476333D01*
X139025380Y-65333476D02*
X139025380Y-65143000D01*
X139073000Y-65047761D01*
X139120619Y-65000142D01*
X139263476Y-64904904D01*
X139453952Y-64857285D01*
X139834904Y-64857285D01*
X139930142Y-64904904D01*
X139977761Y-64952523D01*
X140025380Y-65047761D01*
X140025380Y-65238238D01*
X139977761Y-65333476D01*
X139930142Y-65381095D01*
X139834904Y-65428714D01*
X139596809Y-65428714D01*
X139501571Y-65381095D01*
X139453952Y-65333476D01*
X139406333Y-65238238D01*
X139406333Y-65047761D01*
X139453952Y-64952523D01*
X139501571Y-64904904D01*
X139596809Y-64857285D01*
X139390380Y-82129333D02*
X138914190Y-81796000D01*
X139390380Y-81557904D02*
X138390380Y-81557904D01*
X138390380Y-81938857D01*
X138438000Y-82034095D01*
X138485619Y-82081714D01*
X138580857Y-82129333D01*
X138723714Y-82129333D01*
X138818952Y-82081714D01*
X138866571Y-82034095D01*
X138914190Y-81938857D01*
X138914190Y-81557904D01*
X138818952Y-82700761D02*
X138771333Y-82605523D01*
X138723714Y-82557904D01*
X138628476Y-82510285D01*
X138580857Y-82510285D01*
X138485619Y-82557904D01*
X138438000Y-82605523D01*
X138390380Y-82700761D01*
X138390380Y-82891238D01*
X138438000Y-82986476D01*
X138485619Y-83034095D01*
X138580857Y-83081714D01*
X138628476Y-83081714D01*
X138723714Y-83034095D01*
X138771333Y-82986476D01*
X138818952Y-82891238D01*
X138818952Y-82700761D01*
X138866571Y-82605523D01*
X138914190Y-82557904D01*
X139009428Y-82510285D01*
X139199904Y-82510285D01*
X139295142Y-82557904D01*
X139342761Y-82605523D01*
X139390380Y-82700761D01*
X139390380Y-82891238D01*
X139342761Y-82986476D01*
X139295142Y-83034095D01*
X139199904Y-83081714D01*
X139009428Y-83081714D01*
X138914190Y-83034095D01*
X138866571Y-82986476D01*
X138818952Y-82891238D01*
X151201380Y-110323333D02*
X150725190Y-109990000D01*
X151201380Y-109751904D02*
X150201380Y-109751904D01*
X150201380Y-110132857D01*
X150249000Y-110228095D01*
X150296619Y-110275714D01*
X150391857Y-110323333D01*
X150534714Y-110323333D01*
X150629952Y-110275714D01*
X150677571Y-110228095D01*
X150725190Y-110132857D01*
X150725190Y-109751904D01*
X151201380Y-111275714D02*
X151201380Y-110704285D01*
X151201380Y-110990000D02*
X150201380Y-110990000D01*
X150344238Y-110894761D01*
X150439476Y-110799523D01*
X150487095Y-110704285D01*
X148423380Y-103378095D02*
X149232904Y-103378095D01*
X149328142Y-103425714D01*
X149375761Y-103473333D01*
X149423380Y-103568571D01*
X149423380Y-103759047D01*
X149375761Y-103854285D01*
X149328142Y-103901904D01*
X149232904Y-103949523D01*
X148423380Y-103949523D01*
X148518619Y-104378095D02*
X148471000Y-104425714D01*
X148423380Y-104520952D01*
X148423380Y-104759047D01*
X148471000Y-104854285D01*
X148518619Y-104901904D01*
X148613857Y-104949523D01*
X148709095Y-104949523D01*
X148851952Y-104901904D01*
X149423380Y-104330476D01*
X149423380Y-104949523D01*
X151741142Y-82002333D02*
X151788761Y-81954714D01*
X151836380Y-81811857D01*
X151836380Y-81716619D01*
X151788761Y-81573761D01*
X151693523Y-81478523D01*
X151598285Y-81430904D01*
X151407809Y-81383285D01*
X151264952Y-81383285D01*
X151074476Y-81430904D01*
X150979238Y-81478523D01*
X150884000Y-81573761D01*
X150836380Y-81716619D01*
X150836380Y-81811857D01*
X150884000Y-81954714D01*
X150931619Y-82002333D01*
X151836380Y-82478523D02*
X151836380Y-82669000D01*
X151788761Y-82764238D01*
X151741142Y-82811857D01*
X151598285Y-82907095D01*
X151407809Y-82954714D01*
X151026857Y-82954714D01*
X150931619Y-82907095D01*
X150884000Y-82859476D01*
X150836380Y-82764238D01*
X150836380Y-82573761D01*
X150884000Y-82478523D01*
X150931619Y-82430904D01*
X151026857Y-82383285D01*
X151264952Y-82383285D01*
X151360190Y-82430904D01*
X151407809Y-82478523D01*
X151455428Y-82573761D01*
X151455428Y-82764238D01*
X151407809Y-82859476D01*
X151360190Y-82907095D01*
X151264952Y-82954714D01*
X151201380Y-112482333D02*
X150725190Y-112149000D01*
X151201380Y-111910904D02*
X150201380Y-111910904D01*
X150201380Y-112291857D01*
X150249000Y-112387095D01*
X150296619Y-112434714D01*
X150391857Y-112482333D01*
X150534714Y-112482333D01*
X150629952Y-112434714D01*
X150677571Y-112387095D01*
X150725190Y-112291857D01*
X150725190Y-111910904D01*
X150296619Y-112863285D02*
X150249000Y-112910904D01*
X150201380Y-113006142D01*
X150201380Y-113244238D01*
X150249000Y-113339476D01*
X150296619Y-113387095D01*
X150391857Y-113434714D01*
X150487095Y-113434714D01*
X150629952Y-113387095D01*
X151201380Y-112815666D01*
X151201380Y-113434714D01*
D14*
X146161276Y-79729995D02*
X146161276Y-80387976D01*
X146122571Y-80465385D01*
X146083866Y-80504090D01*
X146006457Y-80542795D01*
X145851638Y-80542795D01*
X145774228Y-80504090D01*
X145735523Y-80465385D01*
X145696819Y-80387976D01*
X145696819Y-79729995D01*
X144961428Y-80000928D02*
X144961428Y-80542795D01*
X145154952Y-79691290D02*
X145348476Y-80271861D01*
X144845314Y-80271861D01*
X145919371Y-76716466D02*
X145532323Y-76716466D01*
X145996780Y-76948695D02*
X145725847Y-76135895D01*
X145454914Y-76948695D01*
X145183980Y-76948695D02*
X145183980Y-76135895D01*
X144874342Y-76135895D01*
X144796933Y-76174600D01*
X144758228Y-76213304D01*
X144719523Y-76290714D01*
X144719523Y-76406828D01*
X144758228Y-76484238D01*
X144796933Y-76522942D01*
X144874342Y-76561647D01*
X145183980Y-76561647D01*
X143945428Y-76948695D02*
X144409885Y-76948695D01*
X144177657Y-76948695D02*
X144177657Y-76135895D01*
X144255066Y-76252009D01*
X144332476Y-76329419D01*
X144409885Y-76368123D01*
X143171333Y-76948695D02*
X143635790Y-76948695D01*
X143403561Y-76948695D02*
X143403561Y-76135895D01*
X143480971Y-76252009D01*
X143558380Y-76329419D01*
X143635790Y-76368123D01*
X142397238Y-76948695D02*
X142861695Y-76948695D01*
X142629466Y-76948695D02*
X142629466Y-76135895D01*
X142706876Y-76252009D01*
X142784285Y-76329419D01*
X142861695Y-76368123D01*
X142126304Y-76135895D02*
X141584438Y-76135895D01*
X141932780Y-76948695D01*
X141274800Y-76639057D02*
X140655523Y-76639057D01*
X139881428Y-76135895D02*
X140268476Y-76135895D01*
X140307180Y-76522942D01*
X140268476Y-76484238D01*
X140191066Y-76445533D01*
X139997542Y-76445533D01*
X139920133Y-76484238D01*
X139881428Y-76522942D01*
X139842723Y-76600352D01*
X139842723Y-76793876D01*
X139881428Y-76871285D01*
X139920133Y-76909990D01*
X139997542Y-76948695D01*
X140191066Y-76948695D01*
X140268476Y-76909990D01*
X140307180Y-76871285D01*
X139339561Y-76135895D02*
X139262152Y-76135895D01*
X139184742Y-76174600D01*
X139146038Y-76213304D01*
X139107333Y-76290714D01*
X139068628Y-76445533D01*
X139068628Y-76639057D01*
X139107333Y-76793876D01*
X139146038Y-76871285D01*
X139184742Y-76909990D01*
X139262152Y-76948695D01*
X139339561Y-76948695D01*
X139416971Y-76909990D01*
X139455676Y-76871285D01*
X139494380Y-76793876D01*
X139533085Y-76639057D01*
X139533085Y-76445533D01*
X139494380Y-76290714D01*
X139455676Y-76213304D01*
X139416971Y-76174600D01*
X139339561Y-76135895D01*
D13*
X151741142Y-84161333D02*
X151788761Y-84113714D01*
X151836380Y-83970857D01*
X151836380Y-83875619D01*
X151788761Y-83732761D01*
X151693523Y-83637523D01*
X151598285Y-83589904D01*
X151407809Y-83542285D01*
X151264952Y-83542285D01*
X151074476Y-83589904D01*
X150979238Y-83637523D01*
X150884000Y-83732761D01*
X150836380Y-83875619D01*
X150836380Y-83970857D01*
X150884000Y-84113714D01*
X150931619Y-84161333D01*
X150836380Y-85066095D02*
X150836380Y-84589904D01*
X151312571Y-84542285D01*
X151264952Y-84589904D01*
X151217333Y-84685142D01*
X151217333Y-84923238D01*
X151264952Y-85018476D01*
X151312571Y-85066095D01*
X151407809Y-85113714D01*
X151645904Y-85113714D01*
X151741142Y-85066095D01*
X151788761Y-85018476D01*
X151836380Y-84923238D01*
X151836380Y-84685142D01*
X151788761Y-84589904D01*
X151741142Y-84542285D01*
X139239582Y-84141013D02*
X139287201Y-84093394D01*
X139334820Y-83950537D01*
X139334820Y-83855299D01*
X139287201Y-83712441D01*
X139191963Y-83617203D01*
X139096725Y-83569584D01*
X138906249Y-83521965D01*
X138763392Y-83521965D01*
X138572916Y-83569584D01*
X138477678Y-83617203D01*
X138382440Y-83712441D01*
X138334820Y-83855299D01*
X138334820Y-83950537D01*
X138382440Y-84093394D01*
X138430059Y-84141013D01*
X138763392Y-84712441D02*
X138715773Y-84617203D01*
X138668154Y-84569584D01*
X138572916Y-84521965D01*
X138525297Y-84521965D01*
X138430059Y-84569584D01*
X138382440Y-84617203D01*
X138334820Y-84712441D01*
X138334820Y-84902918D01*
X138382440Y-84998156D01*
X138430059Y-85045775D01*
X138525297Y-85093394D01*
X138572916Y-85093394D01*
X138668154Y-85045775D01*
X138715773Y-84998156D01*
X138763392Y-84902918D01*
X138763392Y-84712441D01*
X138811011Y-84617203D01*
X138858630Y-84569584D01*
X138953868Y-84521965D01*
X139144344Y-84521965D01*
X139239582Y-84569584D01*
X139287201Y-84617203D01*
X139334820Y-84712441D01*
X139334820Y-84902918D01*
X139287201Y-84998156D01*
X139239582Y-85045775D01*
X139144344Y-85093394D01*
X138953868Y-85093394D01*
X138858630Y-85045775D01*
X138811011Y-84998156D01*
X138763392Y-84902918D01*
X151868142Y-90765333D02*
X151915761Y-90717714D01*
X151963380Y-90574857D01*
X151963380Y-90479619D01*
X151915761Y-90336761D01*
X151820523Y-90241523D01*
X151725285Y-90193904D01*
X151534809Y-90146285D01*
X151391952Y-90146285D01*
X151201476Y-90193904D01*
X151106238Y-90241523D01*
X151011000Y-90336761D01*
X150963380Y-90479619D01*
X150963380Y-90574857D01*
X151011000Y-90717714D01*
X151058619Y-90765333D01*
X151058619Y-91146285D02*
X151011000Y-91193904D01*
X150963380Y-91289142D01*
X150963380Y-91527238D01*
X151011000Y-91622476D01*
X151058619Y-91670095D01*
X151153857Y-91717714D01*
X151249095Y-91717714D01*
X151391952Y-91670095D01*
X151963380Y-91098666D01*
X151963380Y-91717714D01*
X151106142Y-64349333D02*
X151153761Y-64301714D01*
X151201380Y-64158857D01*
X151201380Y-64063619D01*
X151153761Y-63920761D01*
X151058523Y-63825523D01*
X150963285Y-63777904D01*
X150772809Y-63730285D01*
X150629952Y-63730285D01*
X150439476Y-63777904D01*
X150344238Y-63825523D01*
X150249000Y-63920761D01*
X150201380Y-64063619D01*
X150201380Y-64158857D01*
X150249000Y-64301714D01*
X150296619Y-64349333D01*
X150201380Y-64682666D02*
X150201380Y-65349333D01*
X151201380Y-64920761D01*
X140057142Y-73366333D02*
X140104761Y-73318714D01*
X140152380Y-73175857D01*
X140152380Y-73080619D01*
X140104761Y-72937761D01*
X140009523Y-72842523D01*
X139914285Y-72794904D01*
X139723809Y-72747285D01*
X139580952Y-72747285D01*
X139390476Y-72794904D01*
X139295238Y-72842523D01*
X139200000Y-72937761D01*
X139152380Y-73080619D01*
X139152380Y-73175857D01*
X139200000Y-73318714D01*
X139247619Y-73366333D01*
X140152380Y-74318714D02*
X140152380Y-73747285D01*
X140152380Y-74033000D02*
X139152380Y-74033000D01*
X139295238Y-73937761D01*
X139390476Y-73842523D01*
X139438095Y-73747285D01*
X139263380Y-101115904D02*
X138263380Y-101115904D01*
X138263380Y-101354000D01*
X138311000Y-101496857D01*
X138406238Y-101592095D01*
X138501476Y-101639714D01*
X138691952Y-101687333D01*
X138834809Y-101687333D01*
X139025285Y-101639714D01*
X139120523Y-101592095D01*
X139215761Y-101496857D01*
X139263380Y-101354000D01*
X139263380Y-101115904D01*
X138263380Y-102592095D02*
X138263380Y-102115904D01*
X138739571Y-102068285D01*
X138691952Y-102115904D01*
X138644333Y-102211142D01*
X138644333Y-102449238D01*
X138691952Y-102544476D01*
X138739571Y-102592095D01*
X138834809Y-102639714D01*
X139072904Y-102639714D01*
X139168142Y-102592095D01*
X139215761Y-102544476D01*
X139263380Y-102449238D01*
X139263380Y-102211142D01*
X139215761Y-102115904D01*
X139168142Y-102068285D01*
D14*
X121777276Y-79729995D02*
X121777276Y-80387976D01*
X121738571Y-80465385D01*
X121699866Y-80504090D01*
X121622457Y-80542795D01*
X121467638Y-80542795D01*
X121390228Y-80504090D01*
X121351523Y-80465385D01*
X121312819Y-80387976D01*
X121312819Y-79729995D01*
X120577428Y-80000928D02*
X120577428Y-80542795D01*
X120770952Y-79691290D02*
X120964476Y-80271861D01*
X120461314Y-80271861D01*
X121535371Y-76716466D02*
X121148323Y-76716466D01*
X121612780Y-76948695D02*
X121341847Y-76135895D01*
X121070914Y-76948695D01*
X120799980Y-76948695D02*
X120799980Y-76135895D01*
X120490342Y-76135895D01*
X120412933Y-76174600D01*
X120374228Y-76213304D01*
X120335523Y-76290714D01*
X120335523Y-76406828D01*
X120374228Y-76484238D01*
X120412933Y-76522942D01*
X120490342Y-76561647D01*
X120799980Y-76561647D01*
X119561428Y-76948695D02*
X120025885Y-76948695D01*
X119793657Y-76948695D02*
X119793657Y-76135895D01*
X119871066Y-76252009D01*
X119948476Y-76329419D01*
X120025885Y-76368123D01*
X118787333Y-76948695D02*
X119251790Y-76948695D01*
X119019561Y-76948695D02*
X119019561Y-76135895D01*
X119096971Y-76252009D01*
X119174380Y-76329419D01*
X119251790Y-76368123D01*
X118013238Y-76948695D02*
X118477695Y-76948695D01*
X118245466Y-76948695D02*
X118245466Y-76135895D01*
X118322876Y-76252009D01*
X118400285Y-76329419D01*
X118477695Y-76368123D01*
X117742304Y-76135895D02*
X117200438Y-76135895D01*
X117548780Y-76948695D01*
X116890800Y-76639057D02*
X116271523Y-76639057D01*
X115497428Y-76135895D02*
X115884476Y-76135895D01*
X115923180Y-76522942D01*
X115884476Y-76484238D01*
X115807066Y-76445533D01*
X115613542Y-76445533D01*
X115536133Y-76484238D01*
X115497428Y-76522942D01*
X115458723Y-76600352D01*
X115458723Y-76793876D01*
X115497428Y-76871285D01*
X115536133Y-76909990D01*
X115613542Y-76948695D01*
X115807066Y-76948695D01*
X115884476Y-76909990D01*
X115923180Y-76871285D01*
X114955561Y-76135895D02*
X114878152Y-76135895D01*
X114800742Y-76174600D01*
X114762038Y-76213304D01*
X114723333Y-76290714D01*
X114684628Y-76445533D01*
X114684628Y-76639057D01*
X114723333Y-76793876D01*
X114762038Y-76871285D01*
X114800742Y-76909990D01*
X114878152Y-76948695D01*
X114955561Y-76948695D01*
X115032971Y-76909990D01*
X115071676Y-76871285D01*
X115110380Y-76793876D01*
X115149085Y-76639057D01*
X115149085Y-76445533D01*
X115110380Y-76290714D01*
X115071676Y-76213304D01*
X115032971Y-76174600D01*
X114955561Y-76135895D01*
D13*
X114855582Y-84141013D02*
X114903201Y-84093394D01*
X114950820Y-83950537D01*
X114950820Y-83855299D01*
X114903201Y-83712441D01*
X114807963Y-83617203D01*
X114712725Y-83569584D01*
X114522249Y-83521965D01*
X114379392Y-83521965D01*
X114188916Y-83569584D01*
X114093678Y-83617203D01*
X113998440Y-83712441D01*
X113950820Y-83855299D01*
X113950820Y-83950537D01*
X113998440Y-84093394D01*
X114046059Y-84141013D01*
X114379392Y-84712441D02*
X114331773Y-84617203D01*
X114284154Y-84569584D01*
X114188916Y-84521965D01*
X114141297Y-84521965D01*
X114046059Y-84569584D01*
X113998440Y-84617203D01*
X113950820Y-84712441D01*
X113950820Y-84902918D01*
X113998440Y-84998156D01*
X114046059Y-85045775D01*
X114141297Y-85093394D01*
X114188916Y-85093394D01*
X114284154Y-85045775D01*
X114331773Y-84998156D01*
X114379392Y-84902918D01*
X114379392Y-84712441D01*
X114427011Y-84617203D01*
X114474630Y-84569584D01*
X114569868Y-84521965D01*
X114760344Y-84521965D01*
X114855582Y-84569584D01*
X114903201Y-84617203D01*
X114950820Y-84712441D01*
X114950820Y-84902918D01*
X114903201Y-84998156D01*
X114855582Y-85045775D01*
X114760344Y-85093394D01*
X114569868Y-85093394D01*
X114474630Y-85045775D01*
X114427011Y-84998156D01*
X114379392Y-84902918D01*
X127484142Y-90765333D02*
X127531761Y-90717714D01*
X127579380Y-90574857D01*
X127579380Y-90479619D01*
X127531761Y-90336761D01*
X127436523Y-90241523D01*
X127341285Y-90193904D01*
X127150809Y-90146285D01*
X127007952Y-90146285D01*
X126817476Y-90193904D01*
X126722238Y-90241523D01*
X126627000Y-90336761D01*
X126579380Y-90479619D01*
X126579380Y-90574857D01*
X126627000Y-90717714D01*
X126674619Y-90765333D01*
X126674619Y-91146285D02*
X126627000Y-91193904D01*
X126579380Y-91289142D01*
X126579380Y-91527238D01*
X126627000Y-91622476D01*
X126674619Y-91670095D01*
X126769857Y-91717714D01*
X126865095Y-91717714D01*
X127007952Y-91670095D01*
X127579380Y-91098666D01*
X127579380Y-91717714D01*
X115673142Y-73366333D02*
X115720761Y-73318714D01*
X115768380Y-73175857D01*
X115768380Y-73080619D01*
X115720761Y-72937761D01*
X115625523Y-72842523D01*
X115530285Y-72794904D01*
X115339809Y-72747285D01*
X115196952Y-72747285D01*
X115006476Y-72794904D01*
X114911238Y-72842523D01*
X114816000Y-72937761D01*
X114768380Y-73080619D01*
X114768380Y-73175857D01*
X114816000Y-73318714D01*
X114863619Y-73366333D01*
X115768380Y-74318714D02*
X115768380Y-73747285D01*
X115768380Y-74033000D02*
X114768380Y-74033000D01*
X114911238Y-73937761D01*
X115006476Y-73842523D01*
X115054095Y-73747285D01*
X115546142Y-64476333D02*
X115593761Y-64428714D01*
X115641380Y-64285857D01*
X115641380Y-64190619D01*
X115593761Y-64047761D01*
X115498523Y-63952523D01*
X115403285Y-63904904D01*
X115212809Y-63857285D01*
X115069952Y-63857285D01*
X114879476Y-63904904D01*
X114784238Y-63952523D01*
X114689000Y-64047761D01*
X114641380Y-64190619D01*
X114641380Y-64285857D01*
X114689000Y-64428714D01*
X114736619Y-64476333D01*
X114641380Y-65333476D02*
X114641380Y-65143000D01*
X114689000Y-65047761D01*
X114736619Y-65000142D01*
X114879476Y-64904904D01*
X115069952Y-64857285D01*
X115450904Y-64857285D01*
X115546142Y-64904904D01*
X115593761Y-64952523D01*
X115641380Y-65047761D01*
X115641380Y-65238238D01*
X115593761Y-65333476D01*
X115546142Y-65381095D01*
X115450904Y-65428714D01*
X115212809Y-65428714D01*
X115117571Y-65381095D01*
X115069952Y-65333476D01*
X115022333Y-65238238D01*
X115022333Y-65047761D01*
X115069952Y-64952523D01*
X115117571Y-64904904D01*
X115212809Y-64857285D01*
X127357142Y-84161333D02*
X127404761Y-84113714D01*
X127452380Y-83970857D01*
X127452380Y-83875619D01*
X127404761Y-83732761D01*
X127309523Y-83637523D01*
X127214285Y-83589904D01*
X127023809Y-83542285D01*
X126880952Y-83542285D01*
X126690476Y-83589904D01*
X126595238Y-83637523D01*
X126500000Y-83732761D01*
X126452380Y-83875619D01*
X126452380Y-83970857D01*
X126500000Y-84113714D01*
X126547619Y-84161333D01*
X126452380Y-85066095D02*
X126452380Y-84589904D01*
X126928571Y-84542285D01*
X126880952Y-84589904D01*
X126833333Y-84685142D01*
X126833333Y-84923238D01*
X126880952Y-85018476D01*
X126928571Y-85066095D01*
X127023809Y-85113714D01*
X127261904Y-85113714D01*
X127357142Y-85066095D01*
X127404761Y-85018476D01*
X127452380Y-84923238D01*
X127452380Y-84685142D01*
X127404761Y-84589904D01*
X127357142Y-84542285D01*
X126722142Y-64349333D02*
X126769761Y-64301714D01*
X126817380Y-64158857D01*
X126817380Y-64063619D01*
X126769761Y-63920761D01*
X126674523Y-63825523D01*
X126579285Y-63777904D01*
X126388809Y-63730285D01*
X126245952Y-63730285D01*
X126055476Y-63777904D01*
X125960238Y-63825523D01*
X125865000Y-63920761D01*
X125817380Y-64063619D01*
X125817380Y-64158857D01*
X125865000Y-64301714D01*
X125912619Y-64349333D01*
X125817380Y-64682666D02*
X125817380Y-65349333D01*
X126817380Y-64920761D01*
X127357142Y-82002333D02*
X127404761Y-81954714D01*
X127452380Y-81811857D01*
X127452380Y-81716619D01*
X127404761Y-81573761D01*
X127309523Y-81478523D01*
X127214285Y-81430904D01*
X127023809Y-81383285D01*
X126880952Y-81383285D01*
X126690476Y-81430904D01*
X126595238Y-81478523D01*
X126500000Y-81573761D01*
X126452380Y-81716619D01*
X126452380Y-81811857D01*
X126500000Y-81954714D01*
X126547619Y-82002333D01*
X127452380Y-82478523D02*
X127452380Y-82669000D01*
X127404761Y-82764238D01*
X127357142Y-82811857D01*
X127214285Y-82907095D01*
X127023809Y-82954714D01*
X126642857Y-82954714D01*
X126547619Y-82907095D01*
X126500000Y-82859476D01*
X126452380Y-82764238D01*
X126452380Y-82573761D01*
X126500000Y-82478523D01*
X126547619Y-82430904D01*
X126642857Y-82383285D01*
X126880952Y-82383285D01*
X126976190Y-82430904D01*
X127023809Y-82478523D01*
X127071428Y-82573761D01*
X127071428Y-82764238D01*
X127023809Y-82859476D01*
X126976190Y-82907095D01*
X126880952Y-82954714D01*
X114879380Y-101115904D02*
X113879380Y-101115904D01*
X113879380Y-101354000D01*
X113927000Y-101496857D01*
X114022238Y-101592095D01*
X114117476Y-101639714D01*
X114307952Y-101687333D01*
X114450809Y-101687333D01*
X114641285Y-101639714D01*
X114736523Y-101592095D01*
X114831761Y-101496857D01*
X114879380Y-101354000D01*
X114879380Y-101115904D01*
X113879380Y-102592095D02*
X113879380Y-102115904D01*
X114355571Y-102068285D01*
X114307952Y-102115904D01*
X114260333Y-102211142D01*
X114260333Y-102449238D01*
X114307952Y-102544476D01*
X114355571Y-102592095D01*
X114450809Y-102639714D01*
X114688904Y-102639714D01*
X114784142Y-102592095D01*
X114831761Y-102544476D01*
X114879380Y-102449238D01*
X114879380Y-102211142D01*
X114831761Y-102115904D01*
X114784142Y-102068285D01*
X126944380Y-72794904D02*
X125944380Y-72794904D01*
X125944380Y-73033000D01*
X125992000Y-73175857D01*
X126087238Y-73271095D01*
X126182476Y-73318714D01*
X126372952Y-73366333D01*
X126515809Y-73366333D01*
X126706285Y-73318714D01*
X126801523Y-73271095D01*
X126896761Y-73175857D01*
X126944380Y-73033000D01*
X126944380Y-72794904D01*
X125944380Y-74223476D02*
X125944380Y-74033000D01*
X125992000Y-73937761D01*
X126039619Y-73890142D01*
X126182476Y-73794904D01*
X126372952Y-73747285D01*
X126753904Y-73747285D01*
X126849142Y-73794904D01*
X126896761Y-73842523D01*
X126944380Y-73937761D01*
X126944380Y-74128238D01*
X126896761Y-74223476D01*
X126849142Y-74271095D01*
X126753904Y-74318714D01*
X126515809Y-74318714D01*
X126420571Y-74271095D01*
X126372952Y-74223476D01*
X126325333Y-74128238D01*
X126325333Y-73937761D01*
X126372952Y-73842523D01*
X126420571Y-73794904D01*
X126515809Y-73747285D01*
X114314571Y-106774186D02*
X114314571Y-106440853D01*
X114838380Y-106440853D02*
X113838380Y-106440853D01*
X113838380Y-106917043D01*
X114838380Y-107821805D02*
X114838380Y-107250377D01*
X114838380Y-107536091D02*
X113838380Y-107536091D01*
X113981238Y-107440853D01*
X114076476Y-107345615D01*
X114124095Y-107250377D01*
X126817380Y-110323333D02*
X126341190Y-109990000D01*
X126817380Y-109751904D02*
X125817380Y-109751904D01*
X125817380Y-110132857D01*
X125865000Y-110228095D01*
X125912619Y-110275714D01*
X126007857Y-110323333D01*
X126150714Y-110323333D01*
X126245952Y-110275714D01*
X126293571Y-110228095D01*
X126341190Y-110132857D01*
X126341190Y-109751904D01*
X126817380Y-111275714D02*
X126817380Y-110704285D01*
X126817380Y-110990000D02*
X125817380Y-110990000D01*
X125960238Y-110894761D01*
X126055476Y-110799523D01*
X126103095Y-110704285D01*
X126817380Y-112482333D02*
X126341190Y-112149000D01*
X126817380Y-111910904D02*
X125817380Y-111910904D01*
X125817380Y-112291857D01*
X125865000Y-112387095D01*
X125912619Y-112434714D01*
X126007857Y-112482333D01*
X126150714Y-112482333D01*
X126245952Y-112434714D01*
X126293571Y-112387095D01*
X126341190Y-112291857D01*
X126341190Y-111910904D01*
X125912619Y-112863285D02*
X125865000Y-112910904D01*
X125817380Y-113006142D01*
X125817380Y-113244238D01*
X125865000Y-113339476D01*
X125912619Y-113387095D01*
X126007857Y-113434714D01*
X126103095Y-113434714D01*
X126245952Y-113387095D01*
X126817380Y-112815666D01*
X126817380Y-113434714D01*
X115006380Y-82129333D02*
X114530190Y-81796000D01*
X115006380Y-81557904D02*
X114006380Y-81557904D01*
X114006380Y-81938857D01*
X114054000Y-82034095D01*
X114101619Y-82081714D01*
X114196857Y-82129333D01*
X114339714Y-82129333D01*
X114434952Y-82081714D01*
X114482571Y-82034095D01*
X114530190Y-81938857D01*
X114530190Y-81557904D01*
X114434952Y-82700761D02*
X114387333Y-82605523D01*
X114339714Y-82557904D01*
X114244476Y-82510285D01*
X114196857Y-82510285D01*
X114101619Y-82557904D01*
X114054000Y-82605523D01*
X114006380Y-82700761D01*
X114006380Y-82891238D01*
X114054000Y-82986476D01*
X114101619Y-83034095D01*
X114196857Y-83081714D01*
X114244476Y-83081714D01*
X114339714Y-83034095D01*
X114387333Y-82986476D01*
X114434952Y-82891238D01*
X114434952Y-82700761D01*
X114482571Y-82605523D01*
X114530190Y-82557904D01*
X114625428Y-82510285D01*
X114815904Y-82510285D01*
X114911142Y-82557904D01*
X114958761Y-82605523D01*
X115006380Y-82700761D01*
X115006380Y-82891238D01*
X114958761Y-82986476D01*
X114911142Y-83034095D01*
X114815904Y-83081714D01*
X114625428Y-83081714D01*
X114530190Y-83034095D01*
X114482571Y-82986476D01*
X114434952Y-82891238D01*
X124039380Y-103378095D02*
X124848904Y-103378095D01*
X124944142Y-103425714D01*
X124991761Y-103473333D01*
X125039380Y-103568571D01*
X125039380Y-103759047D01*
X124991761Y-103854285D01*
X124944142Y-103901904D01*
X124848904Y-103949523D01*
X124039380Y-103949523D01*
X124134619Y-104378095D02*
X124087000Y-104425714D01*
X124039380Y-104520952D01*
X124039380Y-104759047D01*
X124087000Y-104854285D01*
X124134619Y-104901904D01*
X124229857Y-104949523D01*
X124325095Y-104949523D01*
X124467952Y-104901904D01*
X125039380Y-104330476D01*
X125039380Y-104949523D01*
D14*
X121751876Y-70992395D02*
X121751876Y-71650376D01*
X121713171Y-71727785D01*
X121674466Y-71766490D01*
X121597057Y-71805195D01*
X121442238Y-71805195D01*
X121364828Y-71766490D01*
X121326123Y-71727785D01*
X121287419Y-71650376D01*
X121287419Y-70992395D01*
X120977780Y-70992395D02*
X120474619Y-70992395D01*
X120745552Y-71302033D01*
X120629438Y-71302033D01*
X120552028Y-71340738D01*
X120513323Y-71379442D01*
X120474619Y-71456852D01*
X120474619Y-71650376D01*
X120513323Y-71727785D01*
X120552028Y-71766490D01*
X120629438Y-71805195D01*
X120861666Y-71805195D01*
X120939076Y-71766490D01*
X120977780Y-71727785D01*
X121535371Y-67953466D02*
X121148323Y-67953466D01*
X121612780Y-68185695D02*
X121341847Y-67372895D01*
X121070914Y-68185695D01*
X120799980Y-68185695D02*
X120799980Y-67372895D01*
X120490342Y-67372895D01*
X120412933Y-67411600D01*
X120374228Y-67450304D01*
X120335523Y-67527714D01*
X120335523Y-67643828D01*
X120374228Y-67721238D01*
X120412933Y-67759942D01*
X120490342Y-67798647D01*
X120799980Y-67798647D01*
X119561428Y-68185695D02*
X120025885Y-68185695D01*
X119793657Y-68185695D02*
X119793657Y-67372895D01*
X119871066Y-67489009D01*
X119948476Y-67566419D01*
X120025885Y-67605123D01*
X118787333Y-68185695D02*
X119251790Y-68185695D01*
X119019561Y-68185695D02*
X119019561Y-67372895D01*
X119096971Y-67489009D01*
X119174380Y-67566419D01*
X119251790Y-67605123D01*
X118013238Y-68185695D02*
X118477695Y-68185695D01*
X118245466Y-68185695D02*
X118245466Y-67372895D01*
X118322876Y-67489009D01*
X118400285Y-67566419D01*
X118477695Y-67605123D01*
X117742304Y-67372895D02*
X117200438Y-67372895D01*
X117548780Y-68185695D01*
X116890800Y-67876057D02*
X116271523Y-67876057D01*
X115497428Y-67372895D02*
X115884476Y-67372895D01*
X115923180Y-67759942D01*
X115884476Y-67721238D01*
X115807066Y-67682533D01*
X115613542Y-67682533D01*
X115536133Y-67721238D01*
X115497428Y-67759942D01*
X115458723Y-67837352D01*
X115458723Y-68030876D01*
X115497428Y-68108285D01*
X115536133Y-68146990D01*
X115613542Y-68185695D01*
X115807066Y-68185695D01*
X115884476Y-68146990D01*
X115923180Y-68108285D01*
X114955561Y-67372895D02*
X114878152Y-67372895D01*
X114800742Y-67411600D01*
X114762038Y-67450304D01*
X114723333Y-67527714D01*
X114684628Y-67682533D01*
X114684628Y-67876057D01*
X114723333Y-68030876D01*
X114762038Y-68108285D01*
X114800742Y-68146990D01*
X114878152Y-68185695D01*
X114955561Y-68185695D01*
X115032971Y-68146990D01*
X115071676Y-68108285D01*
X115110380Y-68030876D01*
X115149085Y-67876057D01*
X115149085Y-67682533D01*
X115110380Y-67527714D01*
X115071676Y-67450304D01*
X115032971Y-67411600D01*
X114955561Y-67372895D01*
M02*
