M48
; DRILL file {KiCad 5.1.0-rc1-unknown-6bb8fde~66~ubuntu16.04.1} date Ut 12. február 2019, 13:49:56 CET
; FORMAT={-:-/ absolute / metric / decimal}
; #@! TF.CreationDate,2019-02-12T13:49:56+01:00
; #@! TF.GenerationSoftware,Kicad,Pcbnew,5.1.0-rc1-unknown-6bb8fde~66~ubuntu16.04.1
FMAT,2
METRIC
T1C0.400
T2C0.500
T3C0.550
T4C1.016
T5C1.778
%
G90
G05
T1
X118.694Y-53.353
X118.694Y-99.581
X119.781Y-55.639
X119.781Y-101.867
X119.812Y-62.941
X119.812Y-109.169
X119.846Y-64.211
X119.846Y-110.439
X120.28Y-52.207
X120.28Y-98.435
X120.428Y-61.461
X120.428Y-107.689
X120.459Y-46.647
X120.459Y-92.875
X120.701Y-43.764
X120.701Y-89.992
X120.764Y-42.24
X120.764Y-88.468
X120.782Y-58.001
X120.782Y-104.229
X121.094Y-49.863
X121.094Y-96.091
X121.691Y-58.445
X121.691Y-104.673
X121.806Y-76.616
X121.806Y-122.844
X122.577Y-63.17
X122.577Y-109.398
X122.602Y-68.976
X122.602Y-115.204
X122.771Y-77.965
X122.771Y-124.193
X122.784Y-61.087
X122.784Y-107.315
X122.904Y-67.622
X122.904Y-113.85
X123.121Y-69.446
X123.121Y-115.674
X123.203Y-68.402
X123.203Y-114.63
X123.431Y-81.674
X123.431Y-83.896
X123.431Y-127.902
X123.431Y-130.124
X123.734Y-61.027
X123.734Y-107.255
X124.093Y-67.19
X124.093Y-113.418
X124.212Y-70.574
X124.212Y-116.802
X124.231Y-58.42
X124.231Y-104.648
X124.231Y-59.538
X124.231Y-105.766
X124.315Y-69.851
X124.315Y-116.079
X124.435Y-61.011
X124.435Y-107.239
X124.943Y-70.65
X124.943Y-116.878
X125.197Y-82.677
X125.197Y-128.905
X125.385Y-61.143
X125.385Y-107.371
X125.463Y-84.531
X125.463Y-130.759
X125.471Y-68.601
X125.471Y-114.829
X126.049Y-58.599
X126.049Y-104.827
X126.108Y-67.523
X126.108Y-113.751
X126.238Y-62.255
X126.238Y-108.483
X126.34Y-60.37
X126.34Y-106.598
X126.441Y-70.231
X126.441Y-116.459
X126.749Y-59.131
X126.749Y-105.359
X127.048Y-67.397
X127.048Y-113.625
X127.495Y-83.833
X127.495Y-130.061
X127.584Y-71.539
X127.584Y-117.767
X127.635Y-62.027
X127.635Y-108.255
X127.825Y-46.088
X127.825Y-92.316
X127.986Y-68.204
X127.986Y-114.432
X128.4Y-79.2
X128.4Y-125.428
X128.547Y-69.357
X128.547Y-115.585
X129.626Y-65.155
X129.626Y-111.383
X129.839Y-62.866
X129.839Y-109.094
X129.946Y-58.293
X129.946Y-104.521
X130.28Y-49.375
X130.28Y-95.603
X130.289Y-41.859
X130.289Y-88.087
X130.416Y-43.655
X130.416Y-89.883
X130.462Y-53.391
X130.462Y-99.619
X130.922Y-49.097
X130.922Y-95.325
X131.039Y-62.814
X131.039Y-109.042
X131.104Y-71.984
X131.104Y-118.212
X131.612Y-49.597
X131.612Y-95.825
X131.674Y-76.492
X131.674Y-122.72
X136.982Y-53.353
X136.982Y-99.581
X138.069Y-55.639
X138.069Y-101.867
X138.1Y-62.941
X138.1Y-109.169
X138.134Y-64.211
X138.134Y-110.439
X138.568Y-52.207
X138.568Y-98.435
X138.716Y-61.461
X138.716Y-107.689
X138.748Y-46.647
X138.748Y-92.875
X138.989Y-43.764
X138.989Y-89.992
X139.052Y-42.24
X139.052Y-88.468
X139.07Y-58.001
X139.07Y-104.229
X139.382Y-49.863
X139.382Y-96.091
X139.979Y-58.445
X139.979Y-104.673
X140.094Y-76.616
X140.094Y-122.844
X140.865Y-63.17
X140.865Y-109.398
X140.89Y-68.976
X140.89Y-115.204
X141.059Y-77.965
X141.059Y-124.193
X141.072Y-61.087
X141.072Y-107.315
X141.192Y-67.622
X141.192Y-113.85
X141.409Y-69.446
X141.409Y-115.674
X141.491Y-68.402
X141.491Y-114.63
X141.719Y-81.674
X141.719Y-83.896
X141.719Y-127.902
X141.719Y-130.124
X142.022Y-61.027
X142.022Y-107.255
X142.381Y-67.19
X142.381Y-113.418
X142.5Y-70.574
X142.5Y-116.802
X142.519Y-58.42
X142.519Y-104.648
X142.519Y-59.538
X142.519Y-105.766
X142.603Y-69.851
X142.603Y-116.079
X142.723Y-61.011
X142.723Y-107.239
X143.231Y-70.65
X143.231Y-116.878
X143.485Y-82.677
X143.485Y-128.905
X143.673Y-61.143
X143.673Y-107.371
X143.751Y-84.531
X143.751Y-130.759
X143.759Y-68.601
X143.759Y-114.829
X144.337Y-58.599
X144.337Y-104.827
X144.396Y-67.523
X144.396Y-113.751
X144.526Y-62.255
X144.526Y-108.483
X144.628Y-60.37
X144.628Y-106.598
X144.729Y-70.231
X144.729Y-116.459
X145.037Y-59.131
X145.037Y-105.359
X145.336Y-67.397
X145.336Y-113.625
X145.783Y-83.833
X145.783Y-130.061
X145.872Y-71.539
X145.872Y-117.767
X145.923Y-62.027
X145.923Y-108.255
X146.113Y-46.088
X146.113Y-92.316
X146.274Y-68.204
X146.274Y-114.432
X146.688Y-79.2
X146.688Y-125.428
X146.835Y-69.357
X146.835Y-115.585
X147.914Y-65.155
X147.914Y-111.383
X148.127Y-62.866
X148.127Y-109.094
X148.234Y-58.293
X148.234Y-104.521
X148.568Y-49.375
X148.568Y-95.603
X148.577Y-41.859
X148.577Y-88.087
X148.704Y-43.655
X148.704Y-89.883
X148.75Y-53.391
X148.75Y-99.619
X149.21Y-49.097
X149.21Y-95.325
X149.327Y-62.814
X149.327Y-109.042
X149.392Y-71.984
X149.392Y-118.212
X149.9Y-49.597
X149.9Y-95.825
X149.962Y-76.492
X149.962Y-122.72
X155.27Y-53.353
X155.27Y-99.581
X156.357Y-55.639
X156.357Y-101.867
X156.388Y-62.941
X156.388Y-109.169
X156.422Y-64.211
X156.422Y-110.439
X156.856Y-52.207
X156.856Y-98.435
X157.004Y-61.461
X157.004Y-107.689
X157.035Y-46.647
X157.035Y-92.875
X157.277Y-43.764
X157.277Y-89.992
X157.34Y-42.24
X157.34Y-88.468
X157.358Y-58.001
X157.358Y-104.229
X157.671Y-49.863
X157.671Y-96.091
X158.267Y-58.445
X158.267Y-104.673
X158.382Y-76.616
X158.382Y-122.844
X159.153Y-63.17
X159.153Y-109.398
X159.178Y-68.976
X159.178Y-115.204
X159.347Y-77.965
X159.347Y-124.193
X159.36Y-61.087
X159.36Y-107.315
X159.48Y-67.622
X159.48Y-113.85
X159.697Y-69.446
X159.697Y-115.674
X159.779Y-68.402
X159.779Y-114.63
X160.007Y-81.674
X160.007Y-83.896
X160.007Y-127.902
X160.007Y-130.124
X160.31Y-61.027
X160.31Y-107.255
X160.669Y-67.19
X160.669Y-113.418
X160.788Y-70.574
X160.788Y-116.802
X160.807Y-58.42
X160.807Y-104.648
X160.807Y-59.538
X160.807Y-105.766
X160.891Y-69.851
X160.891Y-116.079
X161.011Y-61.011
X161.011Y-107.239
X161.519Y-70.65
X161.519Y-116.878
X161.773Y-82.677
X161.773Y-128.905
X161.961Y-61.143
X161.961Y-107.371
X162.039Y-84.531
X162.039Y-130.759
X162.047Y-68.601
X162.047Y-114.829
X162.625Y-58.599
X162.625Y-104.827
X162.684Y-67.523
X162.684Y-113.751
X162.814Y-62.255
X162.814Y-108.483
X162.916Y-60.37
X162.916Y-106.598
X163.017Y-70.231
X163.017Y-116.459
X163.325Y-59.131
X163.325Y-105.359
X163.624Y-67.397
X163.624Y-113.625
X164.071Y-83.833
X164.071Y-130.061
X164.16Y-71.539
X164.16Y-117.767
X164.211Y-62.027
X164.211Y-108.255
X164.401Y-46.088
X164.401Y-92.316
X164.562Y-68.204
X164.562Y-114.432
X164.976Y-79.2
X164.976Y-125.428
X165.123Y-69.357
X165.123Y-115.585
X166.202Y-65.155
X166.202Y-111.383
X166.415Y-62.866
X166.415Y-109.094
X166.522Y-58.293
X166.522Y-104.521
X166.856Y-49.375
X166.856Y-95.603
X166.865Y-41.859
X166.865Y-88.087
X166.992Y-43.655
X166.992Y-89.883
X167.038Y-53.391
X167.038Y-99.619
X167.498Y-49.097
X167.498Y-95.325
X167.615Y-62.814
X167.615Y-109.042
X167.68Y-71.984
X167.68Y-118.212
X168.188Y-49.597
X168.188Y-95.825
X168.25Y-76.492
X168.25Y-122.72
X173.558Y-53.353
X173.558Y-99.581
X174.645Y-55.639
X174.645Y-101.867
X174.676Y-62.941
X174.676Y-109.169
X174.71Y-64.211
X174.71Y-110.439
X175.144Y-52.207
X175.144Y-98.435
X175.292Y-61.461
X175.292Y-107.689
X175.323Y-46.647
X175.323Y-92.875
X175.565Y-43.764
X175.565Y-89.992
X175.628Y-42.24
X175.628Y-88.468
X175.646Y-58.001
X175.646Y-104.229
X175.958Y-49.863
X175.958Y-96.091
X176.555Y-58.445
X176.555Y-104.673
X176.67Y-76.616
X176.67Y-122.844
X177.441Y-63.17
X177.441Y-109.398
X177.466Y-68.976
X177.466Y-115.204
X177.635Y-77.965
X177.635Y-124.193
X177.648Y-61.087
X177.648Y-107.315
X177.768Y-67.622
X177.768Y-113.85
X177.985Y-69.446
X177.985Y-115.674
X178.067Y-68.402
X178.067Y-114.63
X178.295Y-81.674
X178.295Y-83.896
X178.295Y-127.902
X178.295Y-130.124
X178.598Y-61.027
X178.598Y-107.255
X178.957Y-67.19
X178.957Y-113.418
X179.076Y-70.574
X179.076Y-116.802
X179.095Y-58.42
X179.095Y-104.648
X179.095Y-59.538
X179.095Y-105.766
X179.179Y-69.851
X179.179Y-116.079
X179.299Y-61.011
X179.299Y-107.239
X179.807Y-70.65
X179.807Y-116.878
X180.061Y-82.677
X180.061Y-128.905
X180.249Y-61.143
X180.249Y-107.371
X180.327Y-84.531
X180.327Y-130.759
X180.335Y-68.601
X180.335Y-114.829
X180.913Y-58.599
X180.913Y-104.827
X180.972Y-67.523
X180.972Y-113.751
X181.102Y-62.255
X181.102Y-108.483
X181.204Y-60.37
X181.204Y-106.598
X181.305Y-70.231
X181.305Y-116.459
X181.613Y-59.131
X181.613Y-105.359
X181.912Y-67.397
X181.912Y-113.625
X182.359Y-83.833
X182.359Y-130.061
X182.448Y-71.539
X182.448Y-117.767
X182.499Y-62.027
X182.499Y-108.255
X182.689Y-46.088
X182.689Y-92.316
X182.85Y-68.204
X182.85Y-114.432
X183.264Y-79.2
X183.264Y-125.428
X183.411Y-69.357
X183.411Y-115.585
X184.49Y-65.155
X184.49Y-111.383
X184.703Y-62.866
X184.703Y-109.094
X184.81Y-58.293
X184.81Y-104.521
X185.144Y-49.375
X185.144Y-95.603
X185.153Y-41.859
X185.153Y-88.087
X185.28Y-43.655
X185.28Y-89.883
X185.326Y-53.391
X185.326Y-99.619
X185.786Y-49.097
X185.786Y-95.325
X185.903Y-62.814
X185.903Y-109.042
X185.968Y-71.984
X185.968Y-118.212
X186.476Y-49.597
X186.476Y-95.825
X186.538Y-76.492
X186.538Y-122.72
X191.846Y-53.353
X191.846Y-99.581
X192.933Y-55.639
X192.933Y-101.867
X192.964Y-62.941
X192.964Y-109.169
X192.998Y-64.211
X192.998Y-110.439
X193.432Y-52.207
X193.432Y-98.435
X193.58Y-61.461
X193.58Y-107.689
X193.611Y-46.647
X193.611Y-92.875
X193.853Y-43.764
X193.853Y-89.992
X193.916Y-42.24
X193.916Y-88.468
X193.934Y-58.001
X193.934Y-104.229
X194.246Y-49.863
X194.246Y-96.091
X194.843Y-58.445
X194.843Y-104.673
X194.958Y-76.616
X194.958Y-122.844
X195.729Y-63.17
X195.729Y-109.398
X195.754Y-68.976
X195.754Y-115.204
X195.923Y-77.965
X195.923Y-124.193
X195.936Y-61.087
X195.936Y-107.315
X196.056Y-67.622
X196.056Y-113.85
X196.273Y-69.446
X196.273Y-115.674
X196.355Y-68.402
X196.355Y-114.63
X196.583Y-81.674
X196.583Y-83.896
X196.583Y-127.902
X196.583Y-130.124
X196.886Y-61.027
X196.886Y-107.255
X197.245Y-67.19
X197.245Y-113.418
X197.364Y-70.574
X197.364Y-116.802
X197.383Y-58.42
X197.383Y-104.648
X197.383Y-59.538
X197.383Y-105.766
X197.467Y-69.851
X197.467Y-116.079
X197.587Y-61.011
X197.587Y-107.239
X198.095Y-70.65
X198.095Y-116.878
X198.349Y-82.677
X198.349Y-128.905
X198.537Y-61.143
X198.537Y-107.371
X198.615Y-84.531
X198.615Y-130.759
X198.623Y-68.601
X198.623Y-114.829
X199.201Y-58.599
X199.201Y-104.827
X199.26Y-67.523
X199.26Y-113.751
X199.39Y-62.255
X199.39Y-108.483
X199.492Y-60.37
X199.492Y-106.598
X199.593Y-70.231
X199.593Y-116.459
X199.901Y-59.131
X199.901Y-105.359
X200.2Y-67.397
X200.2Y-113.625
X200.647Y-83.833
X200.647Y-130.061
X200.736Y-71.539
X200.736Y-117.767
X200.787Y-62.027
X200.787Y-108.255
X200.977Y-46.088
X200.977Y-92.316
X201.138Y-68.204
X201.138Y-114.432
X201.552Y-79.2
X201.552Y-125.428
X201.699Y-69.357
X201.699Y-115.585
X202.778Y-65.155
X202.778Y-111.383
X202.991Y-62.866
X202.991Y-109.094
X203.098Y-58.293
X203.098Y-104.521
X203.432Y-49.375
X203.432Y-95.603
X203.441Y-41.859
X203.441Y-88.087
X203.568Y-43.655
X203.568Y-89.883
X203.614Y-53.391
X203.614Y-99.619
X204.074Y-49.097
X204.074Y-95.325
X204.191Y-62.814
X204.191Y-109.042
X204.256Y-71.984
X204.256Y-118.212
X204.764Y-49.597
X204.764Y-95.825
X204.826Y-76.492
X204.826Y-122.72
T4
X151.308Y-90.5
X151.308Y-93.04
X151.308Y-95.58
X151.308Y-98.12
X151.308Y-100.66
X151.308Y-103.2
X151.308Y-105.74
X151.308Y-108.28
X151.308Y-110.82
X151.308Y-113.36
X151.308Y-115.9
X151.308Y-118.44
X151.308Y-120.98
X151.308Y-123.52
X151.308Y-126.06
X151.308Y-128.6
X141.142Y-41.725
X141.142Y-44.265
X143.682Y-41.725
X143.682Y-44.265
X146.222Y-41.725
X146.222Y-44.265
X117.78Y-44.272
X117.78Y-46.812
X117.78Y-49.352
X117.78Y-51.892
X117.78Y-54.432
X117.78Y-56.972
X117.78Y-59.512
X117.78Y-62.052
X117.78Y-64.592
X117.78Y-67.132
X117.78Y-69.672
X117.78Y-72.212
X117.78Y-74.752
X117.78Y-77.292
X117.78Y-79.832
X117.78Y-82.372
X187.884Y-44.272
X187.884Y-46.812
X187.884Y-49.352
X187.884Y-51.892
X187.884Y-54.432
X187.884Y-56.972
X187.884Y-59.512
X187.884Y-62.052
X187.884Y-64.592
X187.884Y-67.132
X187.884Y-69.672
X187.884Y-72.212
X187.884Y-74.752
X187.884Y-77.292
X187.884Y-79.832
X187.884Y-82.372
X169.596Y-90.5
X169.596Y-93.04
X169.596Y-95.58
X169.596Y-98.12
X169.596Y-100.66
X169.596Y-103.2
X169.596Y-105.74
X169.596Y-108.28
X169.596Y-110.82
X169.596Y-113.36
X169.596Y-115.9
X169.596Y-118.44
X169.596Y-120.98
X169.596Y-123.52
X169.596Y-126.06
X169.596Y-128.6
X169.596Y-44.272
X169.596Y-46.812
X169.596Y-49.352
X169.596Y-51.892
X169.596Y-54.432
X169.596Y-56.972
X169.596Y-59.512
X169.596Y-62.052
X169.596Y-64.592
X169.596Y-67.132
X169.596Y-69.672
X169.596Y-72.212
X169.596Y-74.752
X169.596Y-77.292
X169.596Y-79.832
X169.596Y-82.372
X190.932Y-44.272
X190.932Y-46.812
X190.932Y-49.352
X190.932Y-51.892
X190.932Y-54.432
X190.932Y-56.972
X190.932Y-59.512
X190.932Y-62.052
X190.932Y-64.592
X190.932Y-67.132
X190.932Y-69.672
X190.932Y-72.212
X190.932Y-74.752
X190.932Y-77.292
X190.932Y-79.832
X190.932Y-82.372
X141.142Y-87.953
X141.142Y-90.493
X143.682Y-87.953
X143.682Y-90.493
X146.222Y-87.953
X146.222Y-90.493
X196.006Y-41.725
X196.006Y-44.265
X198.546Y-41.725
X198.546Y-44.265
X201.086Y-41.725
X201.086Y-44.265
X122.854Y-41.725
X122.854Y-44.265
X125.394Y-41.725
X125.394Y-44.265
X127.934Y-41.725
X127.934Y-44.265
X117.78Y-90.5
X117.78Y-93.04
X117.78Y-95.58
X117.78Y-98.12
X117.78Y-100.66
X117.78Y-103.2
X117.78Y-105.74
X117.78Y-108.28
X117.78Y-110.82
X117.78Y-113.36
X117.78Y-115.9
X117.78Y-118.44
X117.78Y-120.98
X117.78Y-123.52
X117.78Y-126.06
X117.78Y-128.6
X136.068Y-44.272
X136.068Y-46.812
X136.068Y-49.352
X136.068Y-51.892
X136.068Y-54.432
X136.068Y-56.972
X136.068Y-59.512
X136.068Y-62.052
X136.068Y-64.592
X136.068Y-67.132
X136.068Y-69.672
X136.068Y-72.212
X136.068Y-74.752
X136.068Y-77.292
X136.068Y-79.832
X136.068Y-82.372
X172.644Y-44.272
X172.644Y-46.812
X172.644Y-49.352
X172.644Y-51.892
X172.644Y-54.432
X172.644Y-56.972
X172.644Y-59.512
X172.644Y-62.052
X172.644Y-64.592
X172.644Y-67.132
X172.644Y-69.672
X172.644Y-72.212
X172.644Y-74.752
X172.644Y-77.292
X172.644Y-79.832
X172.644Y-82.372
X172.644Y-90.5
X172.644Y-93.04
X172.644Y-95.58
X172.644Y-98.12
X172.644Y-100.66
X172.644Y-103.2
X172.644Y-105.74
X172.644Y-108.28
X172.644Y-110.82
X172.644Y-113.36
X172.644Y-115.9
X172.644Y-118.44
X172.644Y-120.98
X172.644Y-123.52
X172.644Y-126.06
X172.644Y-128.6
X187.884Y-90.5
X187.884Y-93.04
X187.884Y-95.58
X187.884Y-98.12
X187.884Y-100.66
X187.884Y-103.2
X187.884Y-105.74
X187.884Y-108.28
X187.884Y-110.82
X187.884Y-113.36
X187.884Y-115.9
X187.884Y-118.44
X187.884Y-120.98
X187.884Y-123.52
X187.884Y-126.06
X187.884Y-128.6
X133.02Y-44.272
X133.02Y-46.812
X133.02Y-49.352
X133.02Y-51.892
X133.02Y-54.432
X133.02Y-56.972
X133.02Y-59.512
X133.02Y-62.052
X133.02Y-64.592
X133.02Y-67.132
X133.02Y-69.672
X133.02Y-72.212
X133.02Y-74.752
X133.02Y-77.292
X133.02Y-79.832
X133.02Y-82.372
X122.854Y-87.953
X122.854Y-90.493
X125.394Y-87.953
X125.394Y-90.493
X127.934Y-87.953
X127.934Y-90.493
X177.718Y-41.725
X177.718Y-44.265
X180.258Y-41.725
X180.258Y-44.265
X182.798Y-41.725
X182.798Y-44.265
X196.006Y-87.953
X196.006Y-90.493
X198.546Y-87.953
X198.546Y-90.493
X201.086Y-87.953
X201.086Y-90.493
X136.068Y-90.5
X136.068Y-93.04
X136.068Y-95.58
X136.068Y-98.12
X136.068Y-100.66
X136.068Y-103.2
X136.068Y-105.74
X136.068Y-108.28
X136.068Y-110.82
X136.068Y-113.36
X136.068Y-115.9
X136.068Y-118.44
X136.068Y-120.98
X136.068Y-123.52
X136.068Y-126.06
X136.068Y-128.6
X133.02Y-90.5
X133.02Y-93.04
X133.02Y-95.58
X133.02Y-98.12
X133.02Y-100.66
X133.02Y-103.2
X133.02Y-105.74
X133.02Y-108.28
X133.02Y-110.82
X133.02Y-113.36
X133.02Y-115.9
X133.02Y-118.44
X133.02Y-120.98
X133.02Y-123.52
X133.02Y-126.06
X133.02Y-128.6
X151.308Y-44.272
X151.308Y-46.812
X151.308Y-49.352
X151.308Y-51.892
X151.308Y-54.432
X151.308Y-56.972
X151.308Y-59.512
X151.308Y-62.052
X151.308Y-64.592
X151.308Y-67.132
X151.308Y-69.672
X151.308Y-72.212
X151.308Y-74.752
X151.308Y-77.292
X151.308Y-79.832
X151.308Y-82.372
X154.356Y-44.272
X154.356Y-46.812
X154.356Y-49.352
X154.356Y-51.892
X154.356Y-54.432
X154.356Y-56.972
X154.356Y-59.512
X154.356Y-62.052
X154.356Y-64.592
X154.356Y-67.132
X154.356Y-69.672
X154.356Y-72.212
X154.356Y-74.752
X154.356Y-77.292
X154.356Y-79.832
X154.356Y-82.372
X206.172Y-44.272
X206.172Y-46.812
X206.172Y-49.352
X206.172Y-51.892
X206.172Y-54.432
X206.172Y-56.972
X206.172Y-59.512
X206.172Y-62.052
X206.172Y-64.592
X206.172Y-67.132
X206.172Y-69.672
X206.172Y-72.212
X206.172Y-74.752
X206.172Y-77.292
X206.172Y-79.832
X206.172Y-82.372
X159.43Y-41.725
X159.43Y-44.265
X161.97Y-41.725
X161.97Y-44.265
X164.51Y-41.725
X164.51Y-44.265
X190.932Y-90.5
X190.932Y-93.04
X190.932Y-95.58
X190.932Y-98.12
X190.932Y-100.66
X190.932Y-103.2
X190.932Y-105.74
X190.932Y-108.28
X190.932Y-110.82
X190.932Y-113.36
X190.932Y-115.9
X190.932Y-118.44
X190.932Y-120.98
X190.932Y-123.52
X190.932Y-126.06
X190.932Y-128.6
X154.356Y-90.5
X154.356Y-93.04
X154.356Y-95.58
X154.356Y-98.12
X154.356Y-100.66
X154.356Y-103.2
X154.356Y-105.74
X154.356Y-108.28
X154.356Y-110.82
X154.356Y-113.36
X154.356Y-115.9
X154.356Y-118.44
X154.356Y-120.98
X154.356Y-123.52
X154.356Y-126.06
X154.356Y-128.6
X206.172Y-90.5
X206.172Y-93.04
X206.172Y-95.58
X206.172Y-98.12
X206.172Y-100.66
X206.172Y-103.2
X206.172Y-105.74
X206.172Y-108.28
X206.172Y-110.82
X206.172Y-113.36
X206.172Y-115.9
X206.172Y-118.44
X206.172Y-120.98
X206.172Y-123.52
X206.172Y-126.06
X206.172Y-128.6
X159.43Y-87.953
X159.43Y-90.493
X161.97Y-87.953
X161.97Y-90.493
X164.51Y-87.953
X164.51Y-90.493
X177.718Y-87.953
X177.718Y-90.493
X180.258Y-87.953
X180.258Y-90.493
X182.798Y-87.953
X182.798Y-90.493
T5
X154.31Y-85.125
X133.034Y-85.125
X206.172Y-87.96
X187.898Y-85.125
X172.644Y-41.732
X154.356Y-87.96
X133.02Y-41.732
X169.596Y-87.96
X136.022Y-85.125
X133.034Y-131.353
X172.644Y-87.96
X151.308Y-87.96
X206.186Y-131.353
X136.068Y-41.732
X136.068Y-87.96
X187.898Y-131.353
X154.356Y-41.732
X133.02Y-87.96
X117.734Y-85.125
X117.78Y-41.732
X190.886Y-85.125
X117.78Y-87.96
X190.886Y-131.353
X190.932Y-87.96
X206.172Y-41.732
X151.308Y-41.732
X187.884Y-87.96
X172.598Y-131.353
X154.31Y-131.353
X172.598Y-85.125
X169.596Y-41.732
X117.734Y-131.353
X206.186Y-85.125
X190.932Y-41.732
X151.322Y-131.353
X187.884Y-41.732
X151.322Y-85.125
X136.022Y-131.353
X169.61Y-85.125
X169.61Y-131.353
T2
G00X194.985Y-83.888
M15
G01X194.985Y-83.238
M16
G05
G00X201.985Y-83.888
M15
G01X201.985Y-83.238
M16
G05
G00X158.409Y-130.116
M15
G01X158.409Y-129.466
M16
G05
G00X165.409Y-130.116
M15
G01X165.409Y-129.466
M16
G05
G00X140.121Y-130.116
M15
G01X140.121Y-129.466
M16
G05
G00X147.121Y-130.116
M15
G01X147.121Y-129.466
M16
G05
G00X176.697Y-83.888
M15
G01X176.697Y-83.238
M16
G05
G00X183.697Y-83.888
M15
G01X183.697Y-83.238
M16
G05
G00X121.833Y-130.116
M15
G01X121.833Y-129.466
M16
G05
G00X128.833Y-130.116
M15
G01X128.833Y-129.466
M16
G05
G00X140.121Y-83.888
M15
G01X140.121Y-83.238
M16
G05
G00X147.121Y-83.888
M15
G01X147.121Y-83.238
M16
G05
G00X158.409Y-83.888
M15
G01X158.409Y-83.238
M16
G05
G00X165.409Y-83.888
M15
G01X165.409Y-83.238
M16
G05
G00X121.833Y-83.888
M15
G01X121.833Y-83.238
M16
G05
G00X128.833Y-83.888
M15
G01X128.833Y-83.238
M16
G05
G00X176.697Y-130.116
M15
G01X176.697Y-129.466
M16
G05
G00X183.697Y-130.116
M15
G01X183.697Y-129.466
M16
G05
G00X194.985Y-130.116
M15
G01X194.985Y-129.466
M16
G05
G00X201.985Y-130.116
M15
G01X201.985Y-129.466
M16
G05
T3
G00X140.971Y-127.091
M15
G01X141.271Y-127.091
M16
G05
G00X145.971Y-127.091
M15
G01X146.271Y-127.091
M16
G05
G00X177.547Y-80.863
M15
G01X177.847Y-80.863
M16
G05
G00X182.547Y-80.863
M15
G01X182.847Y-80.863
M16
G05
G00X122.683Y-127.091
M15
G01X122.983Y-127.091
M16
G05
G00X127.683Y-127.091
M15
G01X127.983Y-127.091
M16
G05
G00X140.971Y-80.863
M15
G01X141.271Y-80.863
M16
G05
G00X145.971Y-80.863
M15
G01X146.271Y-80.863
M16
G05
G00X159.259Y-80.863
M15
G01X159.559Y-80.863
M16
G05
G00X164.259Y-80.863
M15
G01X164.559Y-80.863
M16
G05
G00X122.683Y-80.863
M15
G01X122.983Y-80.863
M16
G05
G00X127.683Y-80.863
M15
G01X127.983Y-80.863
M16
G05
G00X177.547Y-127.091
M15
G01X177.847Y-127.091
M16
G05
G00X182.547Y-127.091
M15
G01X182.847Y-127.091
M16
G05
G00X195.835Y-127.091
M15
G01X196.135Y-127.091
M16
G05
G00X200.835Y-127.091
M15
G01X201.135Y-127.091
M16
G05
G00X195.835Y-80.863
M15
G01X196.135Y-80.863
M16
G05
G00X200.835Y-80.863
M15
G01X201.135Y-80.863
M16
G05
G00X159.259Y-127.091
M15
G01X159.559Y-127.091
M16
G05
G00X164.259Y-127.091
M15
G01X164.559Y-127.091
M16
G05
T0
M30
