G04 #@! TF.GenerationSoftware,KiCad,Pcbnew,6.0.0-unknown-16cf1a4~86~ubuntu16.04.1*
G04 #@! TF.CreationDate,2019-07-03T13:53:05+02:00*
G04 #@! TF.ProjectId,nano324,6e616e6f-3332-4342-9e6b-696361645f70,rev?*
G04 #@! TF.SameCoordinates,Original*
G04 #@! TF.FileFunction,Legend,Bot*
G04 #@! TF.FilePolarity,Positive*
%FSLAX46Y46*%
G04 Gerber Fmt 4.6, Leading zero omitted, Abs format (unit mm)*
G04 Created by KiCad (PCBNEW 6.0.0-unknown-16cf1a4~86~ubuntu16.04.1) date 2019-07-03 13:53:05*
%MOMM*%
%LPD*%
G04 APERTURE LIST*
%ADD10C,0.500000*%
%ADD11C,0.100000*%
%ADD12C,0.150000*%
%ADD13C,0.120000*%
%ADD14C,0.127000*%
%ADD15C,0.076200*%
G04 APERTURE END LIST*
D10*
X147929600Y-59893200D02*
X147929600Y-45008800D01*
X123545600Y-59893200D02*
X123545600Y-45008800D01*
X99161600Y-59893200D02*
X99161600Y-45008800D01*
X74777600Y-59893200D02*
X74777600Y-45008800D01*
X172313600Y-45008800D02*
X74777600Y-45008800D01*
X172316140Y-59893200D02*
X172313600Y-45008800D01*
D11*
X167850429Y-95650004D02*
X167850429Y-94850004D01*
X167317096Y-94850004D02*
X167164715Y-94850004D01*
X167088524Y-94888100D01*
X167012334Y-94964290D01*
X166974239Y-95116671D01*
X166974239Y-95383338D01*
X167012334Y-95535719D01*
X167088524Y-95611909D01*
X167164715Y-95650004D01*
X167317096Y-95650004D01*
X167393286Y-95611909D01*
X167469477Y-95535719D01*
X167507572Y-95383338D01*
X167507572Y-95116671D01*
X167469477Y-94964290D01*
X167393286Y-94888100D01*
X167317096Y-94850004D01*
X166631381Y-95573814D02*
X166593286Y-95611909D01*
X166631381Y-95650004D01*
X166669477Y-95611909D01*
X166631381Y-95573814D01*
X166631381Y-95650004D01*
X166631381Y-95154766D02*
X166593286Y-95192861D01*
X166631381Y-95230957D01*
X166669477Y-95192861D01*
X166631381Y-95154766D01*
X166631381Y-95230957D01*
X165717096Y-94850004D02*
X165221858Y-94850004D01*
X165488524Y-95154766D01*
X165374239Y-95154766D01*
X165298048Y-95192861D01*
X165259953Y-95230957D01*
X165221858Y-95307147D01*
X165221858Y-95497623D01*
X165259953Y-95573814D01*
X165298048Y-95611909D01*
X165374239Y-95650004D01*
X165602810Y-95650004D01*
X165679000Y-95611909D01*
X165717096Y-95573814D01*
X164993286Y-94850004D02*
X164726620Y-95650004D01*
X164459953Y-94850004D01*
X164269477Y-94850004D02*
X163774239Y-94850004D01*
X164040905Y-95154766D01*
X163926620Y-95154766D01*
X163850429Y-95192861D01*
X163812334Y-95230957D01*
X163774239Y-95307147D01*
X163774239Y-95497623D01*
X163812334Y-95573814D01*
X163850429Y-95611909D01*
X163926620Y-95650004D01*
X164155191Y-95650004D01*
X164231381Y-95611909D01*
X164269477Y-95573814D01*
X163240905Y-95916671D02*
X163240905Y-94773814D01*
X162288524Y-94850004D02*
X162669477Y-94850004D01*
X162707572Y-95230957D01*
X162669477Y-95192861D01*
X162593286Y-95154766D01*
X162402810Y-95154766D01*
X162326620Y-95192861D01*
X162288524Y-95230957D01*
X162250429Y-95307147D01*
X162250429Y-95497623D01*
X162288524Y-95573814D01*
X162326620Y-95611909D01*
X162402810Y-95650004D01*
X162593286Y-95650004D01*
X162669477Y-95611909D01*
X162707572Y-95573814D01*
X162021858Y-94850004D02*
X161755191Y-95650004D01*
X161488524Y-94850004D01*
X154324095Y-88461633D02*
X155124095Y-88461633D01*
X155124095Y-88156871D01*
X155086000Y-88080680D01*
X155047904Y-88042585D01*
X154971714Y-88004490D01*
X154857428Y-88004490D01*
X154781238Y-88042585D01*
X154743142Y-88080680D01*
X154705047Y-88156871D01*
X154705047Y-88461633D01*
X154743142Y-87394966D02*
X154705047Y-87280680D01*
X154666952Y-87242585D01*
X154590761Y-87204490D01*
X154476476Y-87204490D01*
X154400285Y-87242585D01*
X154362190Y-87280680D01*
X154324095Y-87356871D01*
X154324095Y-87661633D01*
X155124095Y-87661633D01*
X155124095Y-87394966D01*
X155086000Y-87318776D01*
X155047904Y-87280680D01*
X154971714Y-87242585D01*
X154895523Y-87242585D01*
X154819333Y-87280680D01*
X154781238Y-87318776D01*
X154743142Y-87394966D01*
X154743142Y-87661633D01*
X154057428Y-86671157D02*
X155200285Y-86671157D01*
X154324095Y-86099728D02*
X155124095Y-86099728D01*
X155124095Y-85794966D01*
X155086000Y-85718776D01*
X155047904Y-85680680D01*
X154971714Y-85642585D01*
X154857428Y-85642585D01*
X154781238Y-85680680D01*
X154743142Y-85718776D01*
X154705047Y-85794966D01*
X154705047Y-86099728D01*
X154552666Y-85337823D02*
X154552666Y-84956871D01*
X154324095Y-85414014D02*
X155124095Y-85147347D01*
X154324095Y-84880680D01*
D10*
X147929600Y-59893200D02*
X172313600Y-59893200D01*
D11*
X158200135Y-88520053D02*
X159000135Y-88520053D01*
X159000135Y-88215291D01*
X158962040Y-88139100D01*
X158923944Y-88101005D01*
X158847754Y-88062910D01*
X158733468Y-88062910D01*
X158657278Y-88101005D01*
X158619182Y-88139100D01*
X158581087Y-88215291D01*
X158581087Y-88520053D01*
X158619182Y-87453386D02*
X158581087Y-87339100D01*
X158542992Y-87301005D01*
X158466801Y-87262910D01*
X158352516Y-87262910D01*
X158276325Y-87301005D01*
X158238230Y-87339100D01*
X158200135Y-87415291D01*
X158200135Y-87720053D01*
X159000135Y-87720053D01*
X159000135Y-87453386D01*
X158962040Y-87377196D01*
X158923944Y-87339100D01*
X158847754Y-87301005D01*
X158771563Y-87301005D01*
X158695373Y-87339100D01*
X158657278Y-87377196D01*
X158619182Y-87453386D01*
X158619182Y-87720053D01*
X157933468Y-86729577D02*
X159076325Y-86729577D01*
X158200135Y-86158148D02*
X159000135Y-86158148D01*
X159000135Y-85853386D01*
X158962040Y-85777196D01*
X158923944Y-85739100D01*
X158847754Y-85701005D01*
X158733468Y-85701005D01*
X158657278Y-85739100D01*
X158619182Y-85777196D01*
X158581087Y-85853386D01*
X158581087Y-86158148D01*
X158428706Y-85396243D02*
X158428706Y-85015291D01*
X158200135Y-85472434D02*
X159000135Y-85205767D01*
X158200135Y-84939100D01*
X162094970Y-110361694D02*
X162133065Y-110399789D01*
X162247351Y-110437884D01*
X162323541Y-110437884D01*
X162437827Y-110399789D01*
X162514018Y-110323599D01*
X162552113Y-110247408D01*
X162590208Y-110095027D01*
X162590208Y-109980741D01*
X162552113Y-109828360D01*
X162514018Y-109752170D01*
X162437827Y-109675980D01*
X162323541Y-109637884D01*
X162247351Y-109637884D01*
X162133065Y-109675980D01*
X162094970Y-109714075D01*
X161752113Y-110437884D02*
X161752113Y-109637884D01*
X161447351Y-109637884D01*
X161371160Y-109675980D01*
X161333065Y-109714075D01*
X161294970Y-109790265D01*
X161294970Y-109904551D01*
X161333065Y-109980741D01*
X161371160Y-110018837D01*
X161447351Y-110056932D01*
X161752113Y-110056932D01*
X160990208Y-109714075D02*
X160952113Y-109675980D01*
X160875922Y-109637884D01*
X160685446Y-109637884D01*
X160609256Y-109675980D01*
X160571160Y-109714075D01*
X160533065Y-109790265D01*
X160533065Y-109866456D01*
X160571160Y-109980741D01*
X161028303Y-110437884D01*
X160533065Y-110437884D01*
X159771160Y-110437884D02*
X160228303Y-110437884D01*
X159999732Y-110437884D02*
X159999732Y-109637884D01*
X160075922Y-109752170D01*
X160152113Y-109828360D01*
X160228303Y-109866456D01*
X159275922Y-109637884D02*
X159199732Y-109637884D01*
X159123541Y-109675980D01*
X159085446Y-109714075D01*
X159047351Y-109790265D01*
X159009256Y-109942646D01*
X159009256Y-110133122D01*
X159047351Y-110285503D01*
X159085446Y-110361694D01*
X159123541Y-110399789D01*
X159199732Y-110437884D01*
X159275922Y-110437884D01*
X159352113Y-110399789D01*
X159390208Y-110361694D01*
X159428303Y-110285503D01*
X159466399Y-110133122D01*
X159466399Y-109942646D01*
X159428303Y-109790265D01*
X159390208Y-109714075D01*
X159352113Y-109675980D01*
X159275922Y-109637884D01*
X158704494Y-109714075D02*
X158666399Y-109675980D01*
X158590208Y-109637884D01*
X158399732Y-109637884D01*
X158323541Y-109675980D01*
X158285446Y-109714075D01*
X158247351Y-109790265D01*
X158247351Y-109866456D01*
X158285446Y-109980741D01*
X158742589Y-110437884D01*
X158247351Y-110437884D01*
X159556404Y-105943514D02*
X158756404Y-105943514D01*
X158756404Y-106133990D01*
X158794500Y-106248276D01*
X158870690Y-106324466D01*
X158946880Y-106362561D01*
X159099261Y-106400657D01*
X159213547Y-106400657D01*
X159365928Y-106362561D01*
X159442119Y-106324466D01*
X159518309Y-106248276D01*
X159556404Y-106133990D01*
X159556404Y-105943514D01*
X158756404Y-106629228D02*
X158756404Y-107086371D01*
X159556404Y-106857800D02*
X158756404Y-106857800D01*
X159556404Y-107810180D02*
X159175452Y-107543514D01*
X159556404Y-107353038D02*
X158756404Y-107353038D01*
X158756404Y-107657800D01*
X158794500Y-107733990D01*
X158832595Y-107772085D01*
X158908785Y-107810180D01*
X159023071Y-107810180D01*
X159099261Y-107772085D01*
X159137357Y-107733990D01*
X159175452Y-107657800D01*
X159175452Y-107353038D01*
X167379433Y-110034024D02*
X167379433Y-109234024D01*
X167074671Y-109234024D01*
X166998480Y-109272120D01*
X166960385Y-109310215D01*
X166922290Y-109386405D01*
X166922290Y-109500691D01*
X166960385Y-109576881D01*
X166998480Y-109614977D01*
X167074671Y-109653072D01*
X167379433Y-109653072D01*
X166312766Y-109614977D02*
X166198480Y-109653072D01*
X166160385Y-109691167D01*
X166122290Y-109767358D01*
X166122290Y-109881643D01*
X166160385Y-109957834D01*
X166198480Y-109995929D01*
X166274671Y-110034024D01*
X166579433Y-110034024D01*
X166579433Y-109234024D01*
X166312766Y-109234024D01*
X166236576Y-109272120D01*
X166198480Y-109310215D01*
X166160385Y-109386405D01*
X166160385Y-109462596D01*
X166198480Y-109538786D01*
X166236576Y-109576881D01*
X166312766Y-109614977D01*
X166579433Y-109614977D01*
X165588957Y-110300691D02*
X165588957Y-109157834D01*
X165017528Y-110034024D02*
X165017528Y-109234024D01*
X164712766Y-109234024D01*
X164636576Y-109272120D01*
X164598480Y-109310215D01*
X164560385Y-109386405D01*
X164560385Y-109500691D01*
X164598480Y-109576881D01*
X164636576Y-109614977D01*
X164712766Y-109653072D01*
X165017528Y-109653072D01*
X164255623Y-109805453D02*
X163874671Y-109805453D01*
X164331814Y-110034024D02*
X164065147Y-109234024D01*
X163798480Y-110034024D01*
X152253995Y-104067393D02*
X153053995Y-104067393D01*
X153053995Y-103762631D01*
X153015900Y-103686440D01*
X152977804Y-103648345D01*
X152901614Y-103610250D01*
X152787328Y-103610250D01*
X152711138Y-103648345D01*
X152673042Y-103686440D01*
X152634947Y-103762631D01*
X152634947Y-104067393D01*
X152673042Y-103000726D02*
X152634947Y-102886440D01*
X152596852Y-102848345D01*
X152520661Y-102810250D01*
X152406376Y-102810250D01*
X152330185Y-102848345D01*
X152292090Y-102886440D01*
X152253995Y-102962631D01*
X152253995Y-103267393D01*
X153053995Y-103267393D01*
X153053995Y-103000726D01*
X153015900Y-102924536D01*
X152977804Y-102886440D01*
X152901614Y-102848345D01*
X152825423Y-102848345D01*
X152749233Y-102886440D01*
X152711138Y-102924536D01*
X152673042Y-103000726D01*
X152673042Y-103267393D01*
X151987328Y-102276917D02*
X153130185Y-102276917D01*
X152253995Y-101705488D02*
X153053995Y-101705488D01*
X153053995Y-101400726D01*
X153015900Y-101324536D01*
X152977804Y-101286440D01*
X152901614Y-101248345D01*
X152787328Y-101248345D01*
X152711138Y-101286440D01*
X152673042Y-101324536D01*
X152634947Y-101400726D01*
X152634947Y-101705488D01*
X152482566Y-100943583D02*
X152482566Y-100562631D01*
X152253995Y-101019774D02*
X153053995Y-100753107D01*
X152253995Y-100486440D01*
D10*
X147929600Y-124409200D02*
X147929600Y-59893200D01*
X172316140Y-59893200D02*
X172313600Y-124409200D01*
D11*
X165065493Y-87052104D02*
X165065493Y-86252104D01*
X164760731Y-86252104D01*
X164684540Y-86290200D01*
X164646445Y-86328295D01*
X164608350Y-86404485D01*
X164608350Y-86518771D01*
X164646445Y-86594961D01*
X164684540Y-86633057D01*
X164760731Y-86671152D01*
X165065493Y-86671152D01*
X163998826Y-86633057D02*
X163884540Y-86671152D01*
X163846445Y-86709247D01*
X163808350Y-86785438D01*
X163808350Y-86899723D01*
X163846445Y-86975914D01*
X163884540Y-87014009D01*
X163960731Y-87052104D01*
X164265493Y-87052104D01*
X164265493Y-86252104D01*
X163998826Y-86252104D01*
X163922636Y-86290200D01*
X163884540Y-86328295D01*
X163846445Y-86404485D01*
X163846445Y-86480676D01*
X163884540Y-86556866D01*
X163922636Y-86594961D01*
X163998826Y-86633057D01*
X164265493Y-86633057D01*
X163275017Y-87318771D02*
X163275017Y-86175914D01*
X162703588Y-87052104D02*
X162703588Y-86252104D01*
X162398826Y-86252104D01*
X162322636Y-86290200D01*
X162284540Y-86328295D01*
X162246445Y-86404485D01*
X162246445Y-86518771D01*
X162284540Y-86594961D01*
X162322636Y-86633057D01*
X162398826Y-86671152D01*
X162703588Y-86671152D01*
X161941683Y-86823533D02*
X161560731Y-86823533D01*
X162017874Y-87052104D02*
X161751207Y-86252104D01*
X161484540Y-87052104D01*
D10*
X172313600Y-124409200D02*
X147929600Y-124409200D01*
D11*
X168042635Y-118941633D02*
X168842635Y-118941633D01*
X168842635Y-118636871D01*
X168804540Y-118560680D01*
X168766444Y-118522585D01*
X168690254Y-118484490D01*
X168575968Y-118484490D01*
X168499778Y-118522585D01*
X168461682Y-118560680D01*
X168423587Y-118636871D01*
X168423587Y-118941633D01*
X168461682Y-117874966D02*
X168423587Y-117760680D01*
X168385492Y-117722585D01*
X168309301Y-117684490D01*
X168195016Y-117684490D01*
X168118825Y-117722585D01*
X168080730Y-117760680D01*
X168042635Y-117836871D01*
X168042635Y-118141633D01*
X168842635Y-118141633D01*
X168842635Y-117874966D01*
X168804540Y-117798776D01*
X168766444Y-117760680D01*
X168690254Y-117722585D01*
X168614063Y-117722585D01*
X168537873Y-117760680D01*
X168499778Y-117798776D01*
X168461682Y-117874966D01*
X168461682Y-118141633D01*
X167775968Y-117151157D02*
X168918825Y-117151157D01*
X168042635Y-116579728D02*
X168842635Y-116579728D01*
X168842635Y-116274966D01*
X168804540Y-116198776D01*
X168766444Y-116160680D01*
X168690254Y-116122585D01*
X168575968Y-116122585D01*
X168499778Y-116160680D01*
X168461682Y-116198776D01*
X168423587Y-116274966D01*
X168423587Y-116579728D01*
X168271206Y-115817823D02*
X168271206Y-115436871D01*
X168042635Y-115894014D02*
X168842635Y-115627347D01*
X168042635Y-115360680D01*
X143466429Y-95650004D02*
X143466429Y-94850004D01*
X142933096Y-94850004D02*
X142780715Y-94850004D01*
X142704524Y-94888100D01*
X142628334Y-94964290D01*
X142590239Y-95116671D01*
X142590239Y-95383338D01*
X142628334Y-95535719D01*
X142704524Y-95611909D01*
X142780715Y-95650004D01*
X142933096Y-95650004D01*
X143009286Y-95611909D01*
X143085477Y-95535719D01*
X143123572Y-95383338D01*
X143123572Y-95116671D01*
X143085477Y-94964290D01*
X143009286Y-94888100D01*
X142933096Y-94850004D01*
X142247381Y-95573814D02*
X142209286Y-95611909D01*
X142247381Y-95650004D01*
X142285477Y-95611909D01*
X142247381Y-95573814D01*
X142247381Y-95650004D01*
X142247381Y-95154766D02*
X142209286Y-95192861D01*
X142247381Y-95230957D01*
X142285477Y-95192861D01*
X142247381Y-95154766D01*
X142247381Y-95230957D01*
X141333096Y-94850004D02*
X140837858Y-94850004D01*
X141104524Y-95154766D01*
X140990239Y-95154766D01*
X140914048Y-95192861D01*
X140875953Y-95230957D01*
X140837858Y-95307147D01*
X140837858Y-95497623D01*
X140875953Y-95573814D01*
X140914048Y-95611909D01*
X140990239Y-95650004D01*
X141218810Y-95650004D01*
X141295000Y-95611909D01*
X141333096Y-95573814D01*
X140609286Y-94850004D02*
X140342620Y-95650004D01*
X140075953Y-94850004D01*
X139885477Y-94850004D02*
X139390239Y-94850004D01*
X139656905Y-95154766D01*
X139542620Y-95154766D01*
X139466429Y-95192861D01*
X139428334Y-95230957D01*
X139390239Y-95307147D01*
X139390239Y-95497623D01*
X139428334Y-95573814D01*
X139466429Y-95611909D01*
X139542620Y-95650004D01*
X139771191Y-95650004D01*
X139847381Y-95611909D01*
X139885477Y-95573814D01*
X138856905Y-95916671D02*
X138856905Y-94773814D01*
X137904524Y-94850004D02*
X138285477Y-94850004D01*
X138323572Y-95230957D01*
X138285477Y-95192861D01*
X138209286Y-95154766D01*
X138018810Y-95154766D01*
X137942620Y-95192861D01*
X137904524Y-95230957D01*
X137866429Y-95307147D01*
X137866429Y-95497623D01*
X137904524Y-95573814D01*
X137942620Y-95611909D01*
X138018810Y-95650004D01*
X138209286Y-95650004D01*
X138285477Y-95611909D01*
X138323572Y-95573814D01*
X137637858Y-94850004D02*
X137371191Y-95650004D01*
X137104524Y-94850004D01*
X129940095Y-88461633D02*
X130740095Y-88461633D01*
X130740095Y-88156871D01*
X130702000Y-88080680D01*
X130663904Y-88042585D01*
X130587714Y-88004490D01*
X130473428Y-88004490D01*
X130397238Y-88042585D01*
X130359142Y-88080680D01*
X130321047Y-88156871D01*
X130321047Y-88461633D01*
X130359142Y-87394966D02*
X130321047Y-87280680D01*
X130282952Y-87242585D01*
X130206761Y-87204490D01*
X130092476Y-87204490D01*
X130016285Y-87242585D01*
X129978190Y-87280680D01*
X129940095Y-87356871D01*
X129940095Y-87661633D01*
X130740095Y-87661633D01*
X130740095Y-87394966D01*
X130702000Y-87318776D01*
X130663904Y-87280680D01*
X130587714Y-87242585D01*
X130511523Y-87242585D01*
X130435333Y-87280680D01*
X130397238Y-87318776D01*
X130359142Y-87394966D01*
X130359142Y-87661633D01*
X129673428Y-86671157D02*
X130816285Y-86671157D01*
X129940095Y-86099728D02*
X130740095Y-86099728D01*
X130740095Y-85794966D01*
X130702000Y-85718776D01*
X130663904Y-85680680D01*
X130587714Y-85642585D01*
X130473428Y-85642585D01*
X130397238Y-85680680D01*
X130359142Y-85718776D01*
X130321047Y-85794966D01*
X130321047Y-86099728D01*
X130168666Y-85337823D02*
X130168666Y-84956871D01*
X129940095Y-85414014D02*
X130740095Y-85147347D01*
X129940095Y-84880680D01*
D10*
X123545600Y-59893200D02*
X147929600Y-59893200D01*
D11*
X133816135Y-88520053D02*
X134616135Y-88520053D01*
X134616135Y-88215291D01*
X134578040Y-88139100D01*
X134539944Y-88101005D01*
X134463754Y-88062910D01*
X134349468Y-88062910D01*
X134273278Y-88101005D01*
X134235182Y-88139100D01*
X134197087Y-88215291D01*
X134197087Y-88520053D01*
X134235182Y-87453386D02*
X134197087Y-87339100D01*
X134158992Y-87301005D01*
X134082801Y-87262910D01*
X133968516Y-87262910D01*
X133892325Y-87301005D01*
X133854230Y-87339100D01*
X133816135Y-87415291D01*
X133816135Y-87720053D01*
X134616135Y-87720053D01*
X134616135Y-87453386D01*
X134578040Y-87377196D01*
X134539944Y-87339100D01*
X134463754Y-87301005D01*
X134387563Y-87301005D01*
X134311373Y-87339100D01*
X134273278Y-87377196D01*
X134235182Y-87453386D01*
X134235182Y-87720053D01*
X133549468Y-86729577D02*
X134692325Y-86729577D01*
X133816135Y-86158148D02*
X134616135Y-86158148D01*
X134616135Y-85853386D01*
X134578040Y-85777196D01*
X134539944Y-85739100D01*
X134463754Y-85701005D01*
X134349468Y-85701005D01*
X134273278Y-85739100D01*
X134235182Y-85777196D01*
X134197087Y-85853386D01*
X134197087Y-86158148D01*
X134044706Y-85396243D02*
X134044706Y-85015291D01*
X133816135Y-85472434D02*
X134616135Y-85205767D01*
X133816135Y-84939100D01*
X137710970Y-110361694D02*
X137749065Y-110399789D01*
X137863351Y-110437884D01*
X137939541Y-110437884D01*
X138053827Y-110399789D01*
X138130018Y-110323599D01*
X138168113Y-110247408D01*
X138206208Y-110095027D01*
X138206208Y-109980741D01*
X138168113Y-109828360D01*
X138130018Y-109752170D01*
X138053827Y-109675980D01*
X137939541Y-109637884D01*
X137863351Y-109637884D01*
X137749065Y-109675980D01*
X137710970Y-109714075D01*
X137368113Y-110437884D02*
X137368113Y-109637884D01*
X137063351Y-109637884D01*
X136987160Y-109675980D01*
X136949065Y-109714075D01*
X136910970Y-109790265D01*
X136910970Y-109904551D01*
X136949065Y-109980741D01*
X136987160Y-110018837D01*
X137063351Y-110056932D01*
X137368113Y-110056932D01*
X136606208Y-109714075D02*
X136568113Y-109675980D01*
X136491922Y-109637884D01*
X136301446Y-109637884D01*
X136225256Y-109675980D01*
X136187160Y-109714075D01*
X136149065Y-109790265D01*
X136149065Y-109866456D01*
X136187160Y-109980741D01*
X136644303Y-110437884D01*
X136149065Y-110437884D01*
X135387160Y-110437884D02*
X135844303Y-110437884D01*
X135615732Y-110437884D02*
X135615732Y-109637884D01*
X135691922Y-109752170D01*
X135768113Y-109828360D01*
X135844303Y-109866456D01*
X134891922Y-109637884D02*
X134815732Y-109637884D01*
X134739541Y-109675980D01*
X134701446Y-109714075D01*
X134663351Y-109790265D01*
X134625256Y-109942646D01*
X134625256Y-110133122D01*
X134663351Y-110285503D01*
X134701446Y-110361694D01*
X134739541Y-110399789D01*
X134815732Y-110437884D01*
X134891922Y-110437884D01*
X134968113Y-110399789D01*
X135006208Y-110361694D01*
X135044303Y-110285503D01*
X135082399Y-110133122D01*
X135082399Y-109942646D01*
X135044303Y-109790265D01*
X135006208Y-109714075D01*
X134968113Y-109675980D01*
X134891922Y-109637884D01*
X134320494Y-109714075D02*
X134282399Y-109675980D01*
X134206208Y-109637884D01*
X134015732Y-109637884D01*
X133939541Y-109675980D01*
X133901446Y-109714075D01*
X133863351Y-109790265D01*
X133863351Y-109866456D01*
X133901446Y-109980741D01*
X134358589Y-110437884D01*
X133863351Y-110437884D01*
X135172404Y-105943514D02*
X134372404Y-105943514D01*
X134372404Y-106133990D01*
X134410500Y-106248276D01*
X134486690Y-106324466D01*
X134562880Y-106362561D01*
X134715261Y-106400657D01*
X134829547Y-106400657D01*
X134981928Y-106362561D01*
X135058119Y-106324466D01*
X135134309Y-106248276D01*
X135172404Y-106133990D01*
X135172404Y-105943514D01*
X134372404Y-106629228D02*
X134372404Y-107086371D01*
X135172404Y-106857800D02*
X134372404Y-106857800D01*
X135172404Y-107810180D02*
X134791452Y-107543514D01*
X135172404Y-107353038D02*
X134372404Y-107353038D01*
X134372404Y-107657800D01*
X134410500Y-107733990D01*
X134448595Y-107772085D01*
X134524785Y-107810180D01*
X134639071Y-107810180D01*
X134715261Y-107772085D01*
X134753357Y-107733990D01*
X134791452Y-107657800D01*
X134791452Y-107353038D01*
X142995433Y-110034024D02*
X142995433Y-109234024D01*
X142690671Y-109234024D01*
X142614480Y-109272120D01*
X142576385Y-109310215D01*
X142538290Y-109386405D01*
X142538290Y-109500691D01*
X142576385Y-109576881D01*
X142614480Y-109614977D01*
X142690671Y-109653072D01*
X142995433Y-109653072D01*
X141928766Y-109614977D02*
X141814480Y-109653072D01*
X141776385Y-109691167D01*
X141738290Y-109767358D01*
X141738290Y-109881643D01*
X141776385Y-109957834D01*
X141814480Y-109995929D01*
X141890671Y-110034024D01*
X142195433Y-110034024D01*
X142195433Y-109234024D01*
X141928766Y-109234024D01*
X141852576Y-109272120D01*
X141814480Y-109310215D01*
X141776385Y-109386405D01*
X141776385Y-109462596D01*
X141814480Y-109538786D01*
X141852576Y-109576881D01*
X141928766Y-109614977D01*
X142195433Y-109614977D01*
X141204957Y-110300691D02*
X141204957Y-109157834D01*
X140633528Y-110034024D02*
X140633528Y-109234024D01*
X140328766Y-109234024D01*
X140252576Y-109272120D01*
X140214480Y-109310215D01*
X140176385Y-109386405D01*
X140176385Y-109500691D01*
X140214480Y-109576881D01*
X140252576Y-109614977D01*
X140328766Y-109653072D01*
X140633528Y-109653072D01*
X139871623Y-109805453D02*
X139490671Y-109805453D01*
X139947814Y-110034024D02*
X139681147Y-109234024D01*
X139414480Y-110034024D01*
X127869995Y-104067393D02*
X128669995Y-104067393D01*
X128669995Y-103762631D01*
X128631900Y-103686440D01*
X128593804Y-103648345D01*
X128517614Y-103610250D01*
X128403328Y-103610250D01*
X128327138Y-103648345D01*
X128289042Y-103686440D01*
X128250947Y-103762631D01*
X128250947Y-104067393D01*
X128289042Y-103000726D02*
X128250947Y-102886440D01*
X128212852Y-102848345D01*
X128136661Y-102810250D01*
X128022376Y-102810250D01*
X127946185Y-102848345D01*
X127908090Y-102886440D01*
X127869995Y-102962631D01*
X127869995Y-103267393D01*
X128669995Y-103267393D01*
X128669995Y-103000726D01*
X128631900Y-102924536D01*
X128593804Y-102886440D01*
X128517614Y-102848345D01*
X128441423Y-102848345D01*
X128365233Y-102886440D01*
X128327138Y-102924536D01*
X128289042Y-103000726D01*
X128289042Y-103267393D01*
X127603328Y-102276917D02*
X128746185Y-102276917D01*
X127869995Y-101705488D02*
X128669995Y-101705488D01*
X128669995Y-101400726D01*
X128631900Y-101324536D01*
X128593804Y-101286440D01*
X128517614Y-101248345D01*
X128403328Y-101248345D01*
X128327138Y-101286440D01*
X128289042Y-101324536D01*
X128250947Y-101400726D01*
X128250947Y-101705488D01*
X128098566Y-100943583D02*
X128098566Y-100562631D01*
X127869995Y-101019774D02*
X128669995Y-100753107D01*
X127869995Y-100486440D01*
D10*
X123545600Y-124409200D02*
X123545600Y-59893200D01*
X147932140Y-59893200D02*
X147929600Y-124409200D01*
D11*
X140681493Y-87052104D02*
X140681493Y-86252104D01*
X140376731Y-86252104D01*
X140300540Y-86290200D01*
X140262445Y-86328295D01*
X140224350Y-86404485D01*
X140224350Y-86518771D01*
X140262445Y-86594961D01*
X140300540Y-86633057D01*
X140376731Y-86671152D01*
X140681493Y-86671152D01*
X139614826Y-86633057D02*
X139500540Y-86671152D01*
X139462445Y-86709247D01*
X139424350Y-86785438D01*
X139424350Y-86899723D01*
X139462445Y-86975914D01*
X139500540Y-87014009D01*
X139576731Y-87052104D01*
X139881493Y-87052104D01*
X139881493Y-86252104D01*
X139614826Y-86252104D01*
X139538636Y-86290200D01*
X139500540Y-86328295D01*
X139462445Y-86404485D01*
X139462445Y-86480676D01*
X139500540Y-86556866D01*
X139538636Y-86594961D01*
X139614826Y-86633057D01*
X139881493Y-86633057D01*
X138891017Y-87318771D02*
X138891017Y-86175914D01*
X138319588Y-87052104D02*
X138319588Y-86252104D01*
X138014826Y-86252104D01*
X137938636Y-86290200D01*
X137900540Y-86328295D01*
X137862445Y-86404485D01*
X137862445Y-86518771D01*
X137900540Y-86594961D01*
X137938636Y-86633057D01*
X138014826Y-86671152D01*
X138319588Y-86671152D01*
X137557683Y-86823533D02*
X137176731Y-86823533D01*
X137633874Y-87052104D02*
X137367207Y-86252104D01*
X137100540Y-87052104D01*
D10*
X147929600Y-124409200D02*
X123545600Y-124409200D01*
D11*
X143658635Y-118941633D02*
X144458635Y-118941633D01*
X144458635Y-118636871D01*
X144420540Y-118560680D01*
X144382444Y-118522585D01*
X144306254Y-118484490D01*
X144191968Y-118484490D01*
X144115778Y-118522585D01*
X144077682Y-118560680D01*
X144039587Y-118636871D01*
X144039587Y-118941633D01*
X144077682Y-117874966D02*
X144039587Y-117760680D01*
X144001492Y-117722585D01*
X143925301Y-117684490D01*
X143811016Y-117684490D01*
X143734825Y-117722585D01*
X143696730Y-117760680D01*
X143658635Y-117836871D01*
X143658635Y-118141633D01*
X144458635Y-118141633D01*
X144458635Y-117874966D01*
X144420540Y-117798776D01*
X144382444Y-117760680D01*
X144306254Y-117722585D01*
X144230063Y-117722585D01*
X144153873Y-117760680D01*
X144115778Y-117798776D01*
X144077682Y-117874966D01*
X144077682Y-118141633D01*
X143391968Y-117151157D02*
X144534825Y-117151157D01*
X143658635Y-116579728D02*
X144458635Y-116579728D01*
X144458635Y-116274966D01*
X144420540Y-116198776D01*
X144382444Y-116160680D01*
X144306254Y-116122585D01*
X144191968Y-116122585D01*
X144115778Y-116160680D01*
X144077682Y-116198776D01*
X144039587Y-116274966D01*
X144039587Y-116579728D01*
X143887206Y-115817823D02*
X143887206Y-115436871D01*
X143658635Y-115894014D02*
X144458635Y-115627347D01*
X143658635Y-115360680D01*
X119082429Y-95650004D02*
X119082429Y-94850004D01*
X118549096Y-94850004D02*
X118396715Y-94850004D01*
X118320524Y-94888100D01*
X118244334Y-94964290D01*
X118206239Y-95116671D01*
X118206239Y-95383338D01*
X118244334Y-95535719D01*
X118320524Y-95611909D01*
X118396715Y-95650004D01*
X118549096Y-95650004D01*
X118625286Y-95611909D01*
X118701477Y-95535719D01*
X118739572Y-95383338D01*
X118739572Y-95116671D01*
X118701477Y-94964290D01*
X118625286Y-94888100D01*
X118549096Y-94850004D01*
X117863381Y-95573814D02*
X117825286Y-95611909D01*
X117863381Y-95650004D01*
X117901477Y-95611909D01*
X117863381Y-95573814D01*
X117863381Y-95650004D01*
X117863381Y-95154766D02*
X117825286Y-95192861D01*
X117863381Y-95230957D01*
X117901477Y-95192861D01*
X117863381Y-95154766D01*
X117863381Y-95230957D01*
X116949096Y-94850004D02*
X116453858Y-94850004D01*
X116720524Y-95154766D01*
X116606239Y-95154766D01*
X116530048Y-95192861D01*
X116491953Y-95230957D01*
X116453858Y-95307147D01*
X116453858Y-95497623D01*
X116491953Y-95573814D01*
X116530048Y-95611909D01*
X116606239Y-95650004D01*
X116834810Y-95650004D01*
X116911000Y-95611909D01*
X116949096Y-95573814D01*
X116225286Y-94850004D02*
X115958620Y-95650004D01*
X115691953Y-94850004D01*
X115501477Y-94850004D02*
X115006239Y-94850004D01*
X115272905Y-95154766D01*
X115158620Y-95154766D01*
X115082429Y-95192861D01*
X115044334Y-95230957D01*
X115006239Y-95307147D01*
X115006239Y-95497623D01*
X115044334Y-95573814D01*
X115082429Y-95611909D01*
X115158620Y-95650004D01*
X115387191Y-95650004D01*
X115463381Y-95611909D01*
X115501477Y-95573814D01*
X114472905Y-95916671D02*
X114472905Y-94773814D01*
X113520524Y-94850004D02*
X113901477Y-94850004D01*
X113939572Y-95230957D01*
X113901477Y-95192861D01*
X113825286Y-95154766D01*
X113634810Y-95154766D01*
X113558620Y-95192861D01*
X113520524Y-95230957D01*
X113482429Y-95307147D01*
X113482429Y-95497623D01*
X113520524Y-95573814D01*
X113558620Y-95611909D01*
X113634810Y-95650004D01*
X113825286Y-95650004D01*
X113901477Y-95611909D01*
X113939572Y-95573814D01*
X113253858Y-94850004D02*
X112987191Y-95650004D01*
X112720524Y-94850004D01*
X105556095Y-88461633D02*
X106356095Y-88461633D01*
X106356095Y-88156871D01*
X106318000Y-88080680D01*
X106279904Y-88042585D01*
X106203714Y-88004490D01*
X106089428Y-88004490D01*
X106013238Y-88042585D01*
X105975142Y-88080680D01*
X105937047Y-88156871D01*
X105937047Y-88461633D01*
X105975142Y-87394966D02*
X105937047Y-87280680D01*
X105898952Y-87242585D01*
X105822761Y-87204490D01*
X105708476Y-87204490D01*
X105632285Y-87242585D01*
X105594190Y-87280680D01*
X105556095Y-87356871D01*
X105556095Y-87661633D01*
X106356095Y-87661633D01*
X106356095Y-87394966D01*
X106318000Y-87318776D01*
X106279904Y-87280680D01*
X106203714Y-87242585D01*
X106127523Y-87242585D01*
X106051333Y-87280680D01*
X106013238Y-87318776D01*
X105975142Y-87394966D01*
X105975142Y-87661633D01*
X105289428Y-86671157D02*
X106432285Y-86671157D01*
X105556095Y-86099728D02*
X106356095Y-86099728D01*
X106356095Y-85794966D01*
X106318000Y-85718776D01*
X106279904Y-85680680D01*
X106203714Y-85642585D01*
X106089428Y-85642585D01*
X106013238Y-85680680D01*
X105975142Y-85718776D01*
X105937047Y-85794966D01*
X105937047Y-86099728D01*
X105784666Y-85337823D02*
X105784666Y-84956871D01*
X105556095Y-85414014D02*
X106356095Y-85147347D01*
X105556095Y-84880680D01*
D10*
X99161600Y-59893200D02*
X123545600Y-59893200D01*
D11*
X109432135Y-88520053D02*
X110232135Y-88520053D01*
X110232135Y-88215291D01*
X110194040Y-88139100D01*
X110155944Y-88101005D01*
X110079754Y-88062910D01*
X109965468Y-88062910D01*
X109889278Y-88101005D01*
X109851182Y-88139100D01*
X109813087Y-88215291D01*
X109813087Y-88520053D01*
X109851182Y-87453386D02*
X109813087Y-87339100D01*
X109774992Y-87301005D01*
X109698801Y-87262910D01*
X109584516Y-87262910D01*
X109508325Y-87301005D01*
X109470230Y-87339100D01*
X109432135Y-87415291D01*
X109432135Y-87720053D01*
X110232135Y-87720053D01*
X110232135Y-87453386D01*
X110194040Y-87377196D01*
X110155944Y-87339100D01*
X110079754Y-87301005D01*
X110003563Y-87301005D01*
X109927373Y-87339100D01*
X109889278Y-87377196D01*
X109851182Y-87453386D01*
X109851182Y-87720053D01*
X109165468Y-86729577D02*
X110308325Y-86729577D01*
X109432135Y-86158148D02*
X110232135Y-86158148D01*
X110232135Y-85853386D01*
X110194040Y-85777196D01*
X110155944Y-85739100D01*
X110079754Y-85701005D01*
X109965468Y-85701005D01*
X109889278Y-85739100D01*
X109851182Y-85777196D01*
X109813087Y-85853386D01*
X109813087Y-86158148D01*
X109660706Y-85396243D02*
X109660706Y-85015291D01*
X109432135Y-85472434D02*
X110232135Y-85205767D01*
X109432135Y-84939100D01*
X113326970Y-110361694D02*
X113365065Y-110399789D01*
X113479351Y-110437884D01*
X113555541Y-110437884D01*
X113669827Y-110399789D01*
X113746018Y-110323599D01*
X113784113Y-110247408D01*
X113822208Y-110095027D01*
X113822208Y-109980741D01*
X113784113Y-109828360D01*
X113746018Y-109752170D01*
X113669827Y-109675980D01*
X113555541Y-109637884D01*
X113479351Y-109637884D01*
X113365065Y-109675980D01*
X113326970Y-109714075D01*
X112984113Y-110437884D02*
X112984113Y-109637884D01*
X112679351Y-109637884D01*
X112603160Y-109675980D01*
X112565065Y-109714075D01*
X112526970Y-109790265D01*
X112526970Y-109904551D01*
X112565065Y-109980741D01*
X112603160Y-110018837D01*
X112679351Y-110056932D01*
X112984113Y-110056932D01*
X112222208Y-109714075D02*
X112184113Y-109675980D01*
X112107922Y-109637884D01*
X111917446Y-109637884D01*
X111841256Y-109675980D01*
X111803160Y-109714075D01*
X111765065Y-109790265D01*
X111765065Y-109866456D01*
X111803160Y-109980741D01*
X112260303Y-110437884D01*
X111765065Y-110437884D01*
X111003160Y-110437884D02*
X111460303Y-110437884D01*
X111231732Y-110437884D02*
X111231732Y-109637884D01*
X111307922Y-109752170D01*
X111384113Y-109828360D01*
X111460303Y-109866456D01*
X110507922Y-109637884D02*
X110431732Y-109637884D01*
X110355541Y-109675980D01*
X110317446Y-109714075D01*
X110279351Y-109790265D01*
X110241256Y-109942646D01*
X110241256Y-110133122D01*
X110279351Y-110285503D01*
X110317446Y-110361694D01*
X110355541Y-110399789D01*
X110431732Y-110437884D01*
X110507922Y-110437884D01*
X110584113Y-110399789D01*
X110622208Y-110361694D01*
X110660303Y-110285503D01*
X110698399Y-110133122D01*
X110698399Y-109942646D01*
X110660303Y-109790265D01*
X110622208Y-109714075D01*
X110584113Y-109675980D01*
X110507922Y-109637884D01*
X109936494Y-109714075D02*
X109898399Y-109675980D01*
X109822208Y-109637884D01*
X109631732Y-109637884D01*
X109555541Y-109675980D01*
X109517446Y-109714075D01*
X109479351Y-109790265D01*
X109479351Y-109866456D01*
X109517446Y-109980741D01*
X109974589Y-110437884D01*
X109479351Y-110437884D01*
X110788404Y-105943514D02*
X109988404Y-105943514D01*
X109988404Y-106133990D01*
X110026500Y-106248276D01*
X110102690Y-106324466D01*
X110178880Y-106362561D01*
X110331261Y-106400657D01*
X110445547Y-106400657D01*
X110597928Y-106362561D01*
X110674119Y-106324466D01*
X110750309Y-106248276D01*
X110788404Y-106133990D01*
X110788404Y-105943514D01*
X109988404Y-106629228D02*
X109988404Y-107086371D01*
X110788404Y-106857800D02*
X109988404Y-106857800D01*
X110788404Y-107810180D02*
X110407452Y-107543514D01*
X110788404Y-107353038D02*
X109988404Y-107353038D01*
X109988404Y-107657800D01*
X110026500Y-107733990D01*
X110064595Y-107772085D01*
X110140785Y-107810180D01*
X110255071Y-107810180D01*
X110331261Y-107772085D01*
X110369357Y-107733990D01*
X110407452Y-107657800D01*
X110407452Y-107353038D01*
X118611433Y-110034024D02*
X118611433Y-109234024D01*
X118306671Y-109234024D01*
X118230480Y-109272120D01*
X118192385Y-109310215D01*
X118154290Y-109386405D01*
X118154290Y-109500691D01*
X118192385Y-109576881D01*
X118230480Y-109614977D01*
X118306671Y-109653072D01*
X118611433Y-109653072D01*
X117544766Y-109614977D02*
X117430480Y-109653072D01*
X117392385Y-109691167D01*
X117354290Y-109767358D01*
X117354290Y-109881643D01*
X117392385Y-109957834D01*
X117430480Y-109995929D01*
X117506671Y-110034024D01*
X117811433Y-110034024D01*
X117811433Y-109234024D01*
X117544766Y-109234024D01*
X117468576Y-109272120D01*
X117430480Y-109310215D01*
X117392385Y-109386405D01*
X117392385Y-109462596D01*
X117430480Y-109538786D01*
X117468576Y-109576881D01*
X117544766Y-109614977D01*
X117811433Y-109614977D01*
X116820957Y-110300691D02*
X116820957Y-109157834D01*
X116249528Y-110034024D02*
X116249528Y-109234024D01*
X115944766Y-109234024D01*
X115868576Y-109272120D01*
X115830480Y-109310215D01*
X115792385Y-109386405D01*
X115792385Y-109500691D01*
X115830480Y-109576881D01*
X115868576Y-109614977D01*
X115944766Y-109653072D01*
X116249528Y-109653072D01*
X115487623Y-109805453D02*
X115106671Y-109805453D01*
X115563814Y-110034024D02*
X115297147Y-109234024D01*
X115030480Y-110034024D01*
X103485995Y-104067393D02*
X104285995Y-104067393D01*
X104285995Y-103762631D01*
X104247900Y-103686440D01*
X104209804Y-103648345D01*
X104133614Y-103610250D01*
X104019328Y-103610250D01*
X103943138Y-103648345D01*
X103905042Y-103686440D01*
X103866947Y-103762631D01*
X103866947Y-104067393D01*
X103905042Y-103000726D02*
X103866947Y-102886440D01*
X103828852Y-102848345D01*
X103752661Y-102810250D01*
X103638376Y-102810250D01*
X103562185Y-102848345D01*
X103524090Y-102886440D01*
X103485995Y-102962631D01*
X103485995Y-103267393D01*
X104285995Y-103267393D01*
X104285995Y-103000726D01*
X104247900Y-102924536D01*
X104209804Y-102886440D01*
X104133614Y-102848345D01*
X104057423Y-102848345D01*
X103981233Y-102886440D01*
X103943138Y-102924536D01*
X103905042Y-103000726D01*
X103905042Y-103267393D01*
X103219328Y-102276917D02*
X104362185Y-102276917D01*
X103485995Y-101705488D02*
X104285995Y-101705488D01*
X104285995Y-101400726D01*
X104247900Y-101324536D01*
X104209804Y-101286440D01*
X104133614Y-101248345D01*
X104019328Y-101248345D01*
X103943138Y-101286440D01*
X103905042Y-101324536D01*
X103866947Y-101400726D01*
X103866947Y-101705488D01*
X103714566Y-100943583D02*
X103714566Y-100562631D01*
X103485995Y-101019774D02*
X104285995Y-100753107D01*
X103485995Y-100486440D01*
D10*
X99161600Y-124409200D02*
X99161600Y-59893200D01*
X123548140Y-59893200D02*
X123545600Y-124409200D01*
D11*
X116297493Y-87052104D02*
X116297493Y-86252104D01*
X115992731Y-86252104D01*
X115916540Y-86290200D01*
X115878445Y-86328295D01*
X115840350Y-86404485D01*
X115840350Y-86518771D01*
X115878445Y-86594961D01*
X115916540Y-86633057D01*
X115992731Y-86671152D01*
X116297493Y-86671152D01*
X115230826Y-86633057D02*
X115116540Y-86671152D01*
X115078445Y-86709247D01*
X115040350Y-86785438D01*
X115040350Y-86899723D01*
X115078445Y-86975914D01*
X115116540Y-87014009D01*
X115192731Y-87052104D01*
X115497493Y-87052104D01*
X115497493Y-86252104D01*
X115230826Y-86252104D01*
X115154636Y-86290200D01*
X115116540Y-86328295D01*
X115078445Y-86404485D01*
X115078445Y-86480676D01*
X115116540Y-86556866D01*
X115154636Y-86594961D01*
X115230826Y-86633057D01*
X115497493Y-86633057D01*
X114507017Y-87318771D02*
X114507017Y-86175914D01*
X113935588Y-87052104D02*
X113935588Y-86252104D01*
X113630826Y-86252104D01*
X113554636Y-86290200D01*
X113516540Y-86328295D01*
X113478445Y-86404485D01*
X113478445Y-86518771D01*
X113516540Y-86594961D01*
X113554636Y-86633057D01*
X113630826Y-86671152D01*
X113935588Y-86671152D01*
X113173683Y-86823533D02*
X112792731Y-86823533D01*
X113249874Y-87052104D02*
X112983207Y-86252104D01*
X112716540Y-87052104D01*
D10*
X123545600Y-124409200D02*
X99161600Y-124409200D01*
D11*
X119274635Y-118941633D02*
X120074635Y-118941633D01*
X120074635Y-118636871D01*
X120036540Y-118560680D01*
X119998444Y-118522585D01*
X119922254Y-118484490D01*
X119807968Y-118484490D01*
X119731778Y-118522585D01*
X119693682Y-118560680D01*
X119655587Y-118636871D01*
X119655587Y-118941633D01*
X119693682Y-117874966D02*
X119655587Y-117760680D01*
X119617492Y-117722585D01*
X119541301Y-117684490D01*
X119427016Y-117684490D01*
X119350825Y-117722585D01*
X119312730Y-117760680D01*
X119274635Y-117836871D01*
X119274635Y-118141633D01*
X120074635Y-118141633D01*
X120074635Y-117874966D01*
X120036540Y-117798776D01*
X119998444Y-117760680D01*
X119922254Y-117722585D01*
X119846063Y-117722585D01*
X119769873Y-117760680D01*
X119731778Y-117798776D01*
X119693682Y-117874966D01*
X119693682Y-118141633D01*
X119007968Y-117151157D02*
X120150825Y-117151157D01*
X119274635Y-116579728D02*
X120074635Y-116579728D01*
X120074635Y-116274966D01*
X120036540Y-116198776D01*
X119998444Y-116160680D01*
X119922254Y-116122585D01*
X119807968Y-116122585D01*
X119731778Y-116160680D01*
X119693682Y-116198776D01*
X119655587Y-116274966D01*
X119655587Y-116579728D01*
X119503206Y-115817823D02*
X119503206Y-115436871D01*
X119274635Y-115894014D02*
X120074635Y-115627347D01*
X119274635Y-115360680D01*
D10*
X99164140Y-59893200D02*
X99161600Y-124409200D01*
X74777600Y-124409200D02*
X74777600Y-59893200D01*
D11*
X94698429Y-95650004D02*
X94698429Y-94850004D01*
X94165096Y-94850004D02*
X94012715Y-94850004D01*
X93936524Y-94888100D01*
X93860334Y-94964290D01*
X93822239Y-95116671D01*
X93822239Y-95383338D01*
X93860334Y-95535719D01*
X93936524Y-95611909D01*
X94012715Y-95650004D01*
X94165096Y-95650004D01*
X94241286Y-95611909D01*
X94317477Y-95535719D01*
X94355572Y-95383338D01*
X94355572Y-95116671D01*
X94317477Y-94964290D01*
X94241286Y-94888100D01*
X94165096Y-94850004D01*
X93479381Y-95573814D02*
X93441286Y-95611909D01*
X93479381Y-95650004D01*
X93517477Y-95611909D01*
X93479381Y-95573814D01*
X93479381Y-95650004D01*
X93479381Y-95154766D02*
X93441286Y-95192861D01*
X93479381Y-95230957D01*
X93517477Y-95192861D01*
X93479381Y-95154766D01*
X93479381Y-95230957D01*
X92565096Y-94850004D02*
X92069858Y-94850004D01*
X92336524Y-95154766D01*
X92222239Y-95154766D01*
X92146048Y-95192861D01*
X92107953Y-95230957D01*
X92069858Y-95307147D01*
X92069858Y-95497623D01*
X92107953Y-95573814D01*
X92146048Y-95611909D01*
X92222239Y-95650004D01*
X92450810Y-95650004D01*
X92527000Y-95611909D01*
X92565096Y-95573814D01*
X91841286Y-94850004D02*
X91574620Y-95650004D01*
X91307953Y-94850004D01*
X91117477Y-94850004D02*
X90622239Y-94850004D01*
X90888905Y-95154766D01*
X90774620Y-95154766D01*
X90698429Y-95192861D01*
X90660334Y-95230957D01*
X90622239Y-95307147D01*
X90622239Y-95497623D01*
X90660334Y-95573814D01*
X90698429Y-95611909D01*
X90774620Y-95650004D01*
X91003191Y-95650004D01*
X91079381Y-95611909D01*
X91117477Y-95573814D01*
X90088905Y-95916671D02*
X90088905Y-94773814D01*
X89136524Y-94850004D02*
X89517477Y-94850004D01*
X89555572Y-95230957D01*
X89517477Y-95192861D01*
X89441286Y-95154766D01*
X89250810Y-95154766D01*
X89174620Y-95192861D01*
X89136524Y-95230957D01*
X89098429Y-95307147D01*
X89098429Y-95497623D01*
X89136524Y-95573814D01*
X89174620Y-95611909D01*
X89250810Y-95650004D01*
X89441286Y-95650004D01*
X89517477Y-95611909D01*
X89555572Y-95573814D01*
X88869858Y-94850004D02*
X88603191Y-95650004D01*
X88336524Y-94850004D01*
X81172095Y-88461633D02*
X81972095Y-88461633D01*
X81972095Y-88156871D01*
X81934000Y-88080680D01*
X81895904Y-88042585D01*
X81819714Y-88004490D01*
X81705428Y-88004490D01*
X81629238Y-88042585D01*
X81591142Y-88080680D01*
X81553047Y-88156871D01*
X81553047Y-88461633D01*
X81591142Y-87394966D02*
X81553047Y-87280680D01*
X81514952Y-87242585D01*
X81438761Y-87204490D01*
X81324476Y-87204490D01*
X81248285Y-87242585D01*
X81210190Y-87280680D01*
X81172095Y-87356871D01*
X81172095Y-87661633D01*
X81972095Y-87661633D01*
X81972095Y-87394966D01*
X81934000Y-87318776D01*
X81895904Y-87280680D01*
X81819714Y-87242585D01*
X81743523Y-87242585D01*
X81667333Y-87280680D01*
X81629238Y-87318776D01*
X81591142Y-87394966D01*
X81591142Y-87661633D01*
X80905428Y-86671157D02*
X82048285Y-86671157D01*
X81172095Y-86099728D02*
X81972095Y-86099728D01*
X81972095Y-85794966D01*
X81934000Y-85718776D01*
X81895904Y-85680680D01*
X81819714Y-85642585D01*
X81705428Y-85642585D01*
X81629238Y-85680680D01*
X81591142Y-85718776D01*
X81553047Y-85794966D01*
X81553047Y-86099728D01*
X81400666Y-85337823D02*
X81400666Y-84956871D01*
X81172095Y-85414014D02*
X81972095Y-85147347D01*
X81172095Y-84880680D01*
X85048135Y-88520053D02*
X85848135Y-88520053D01*
X85848135Y-88215291D01*
X85810040Y-88139100D01*
X85771944Y-88101005D01*
X85695754Y-88062910D01*
X85581468Y-88062910D01*
X85505278Y-88101005D01*
X85467182Y-88139100D01*
X85429087Y-88215291D01*
X85429087Y-88520053D01*
X85467182Y-87453386D02*
X85429087Y-87339100D01*
X85390992Y-87301005D01*
X85314801Y-87262910D01*
X85200516Y-87262910D01*
X85124325Y-87301005D01*
X85086230Y-87339100D01*
X85048135Y-87415291D01*
X85048135Y-87720053D01*
X85848135Y-87720053D01*
X85848135Y-87453386D01*
X85810040Y-87377196D01*
X85771944Y-87339100D01*
X85695754Y-87301005D01*
X85619563Y-87301005D01*
X85543373Y-87339100D01*
X85505278Y-87377196D01*
X85467182Y-87453386D01*
X85467182Y-87720053D01*
X84781468Y-86729577D02*
X85924325Y-86729577D01*
X85048135Y-86158148D02*
X85848135Y-86158148D01*
X85848135Y-85853386D01*
X85810040Y-85777196D01*
X85771944Y-85739100D01*
X85695754Y-85701005D01*
X85581468Y-85701005D01*
X85505278Y-85739100D01*
X85467182Y-85777196D01*
X85429087Y-85853386D01*
X85429087Y-86158148D01*
X85276706Y-85396243D02*
X85276706Y-85015291D01*
X85048135Y-85472434D02*
X85848135Y-85205767D01*
X85048135Y-84939100D01*
X88942970Y-110361694D02*
X88981065Y-110399789D01*
X89095351Y-110437884D01*
X89171541Y-110437884D01*
X89285827Y-110399789D01*
X89362018Y-110323599D01*
X89400113Y-110247408D01*
X89438208Y-110095027D01*
X89438208Y-109980741D01*
X89400113Y-109828360D01*
X89362018Y-109752170D01*
X89285827Y-109675980D01*
X89171541Y-109637884D01*
X89095351Y-109637884D01*
X88981065Y-109675980D01*
X88942970Y-109714075D01*
X88600113Y-110437884D02*
X88600113Y-109637884D01*
X88295351Y-109637884D01*
X88219160Y-109675980D01*
X88181065Y-109714075D01*
X88142970Y-109790265D01*
X88142970Y-109904551D01*
X88181065Y-109980741D01*
X88219160Y-110018837D01*
X88295351Y-110056932D01*
X88600113Y-110056932D01*
X87838208Y-109714075D02*
X87800113Y-109675980D01*
X87723922Y-109637884D01*
X87533446Y-109637884D01*
X87457256Y-109675980D01*
X87419160Y-109714075D01*
X87381065Y-109790265D01*
X87381065Y-109866456D01*
X87419160Y-109980741D01*
X87876303Y-110437884D01*
X87381065Y-110437884D01*
X86619160Y-110437884D02*
X87076303Y-110437884D01*
X86847732Y-110437884D02*
X86847732Y-109637884D01*
X86923922Y-109752170D01*
X87000113Y-109828360D01*
X87076303Y-109866456D01*
X86123922Y-109637884D02*
X86047732Y-109637884D01*
X85971541Y-109675980D01*
X85933446Y-109714075D01*
X85895351Y-109790265D01*
X85857256Y-109942646D01*
X85857256Y-110133122D01*
X85895351Y-110285503D01*
X85933446Y-110361694D01*
X85971541Y-110399789D01*
X86047732Y-110437884D01*
X86123922Y-110437884D01*
X86200113Y-110399789D01*
X86238208Y-110361694D01*
X86276303Y-110285503D01*
X86314399Y-110133122D01*
X86314399Y-109942646D01*
X86276303Y-109790265D01*
X86238208Y-109714075D01*
X86200113Y-109675980D01*
X86123922Y-109637884D01*
X85552494Y-109714075D02*
X85514399Y-109675980D01*
X85438208Y-109637884D01*
X85247732Y-109637884D01*
X85171541Y-109675980D01*
X85133446Y-109714075D01*
X85095351Y-109790265D01*
X85095351Y-109866456D01*
X85133446Y-109980741D01*
X85590589Y-110437884D01*
X85095351Y-110437884D01*
X86404404Y-105943514D02*
X85604404Y-105943514D01*
X85604404Y-106133990D01*
X85642500Y-106248276D01*
X85718690Y-106324466D01*
X85794880Y-106362561D01*
X85947261Y-106400657D01*
X86061547Y-106400657D01*
X86213928Y-106362561D01*
X86290119Y-106324466D01*
X86366309Y-106248276D01*
X86404404Y-106133990D01*
X86404404Y-105943514D01*
X85604404Y-106629228D02*
X85604404Y-107086371D01*
X86404404Y-106857800D02*
X85604404Y-106857800D01*
X86404404Y-107810180D02*
X86023452Y-107543514D01*
X86404404Y-107353038D02*
X85604404Y-107353038D01*
X85604404Y-107657800D01*
X85642500Y-107733990D01*
X85680595Y-107772085D01*
X85756785Y-107810180D01*
X85871071Y-107810180D01*
X85947261Y-107772085D01*
X85985357Y-107733990D01*
X86023452Y-107657800D01*
X86023452Y-107353038D01*
X79101995Y-104067393D02*
X79901995Y-104067393D01*
X79901995Y-103762631D01*
X79863900Y-103686440D01*
X79825804Y-103648345D01*
X79749614Y-103610250D01*
X79635328Y-103610250D01*
X79559138Y-103648345D01*
X79521042Y-103686440D01*
X79482947Y-103762631D01*
X79482947Y-104067393D01*
X79521042Y-103000726D02*
X79482947Y-102886440D01*
X79444852Y-102848345D01*
X79368661Y-102810250D01*
X79254376Y-102810250D01*
X79178185Y-102848345D01*
X79140090Y-102886440D01*
X79101995Y-102962631D01*
X79101995Y-103267393D01*
X79901995Y-103267393D01*
X79901995Y-103000726D01*
X79863900Y-102924536D01*
X79825804Y-102886440D01*
X79749614Y-102848345D01*
X79673423Y-102848345D01*
X79597233Y-102886440D01*
X79559138Y-102924536D01*
X79521042Y-103000726D01*
X79521042Y-103267393D01*
X78835328Y-102276917D02*
X79978185Y-102276917D01*
X79101995Y-101705488D02*
X79901995Y-101705488D01*
X79901995Y-101400726D01*
X79863900Y-101324536D01*
X79825804Y-101286440D01*
X79749614Y-101248345D01*
X79635328Y-101248345D01*
X79559138Y-101286440D01*
X79521042Y-101324536D01*
X79482947Y-101400726D01*
X79482947Y-101705488D01*
X79330566Y-100943583D02*
X79330566Y-100562631D01*
X79101995Y-101019774D02*
X79901995Y-100753107D01*
X79101995Y-100486440D01*
X94227433Y-110034024D02*
X94227433Y-109234024D01*
X93922671Y-109234024D01*
X93846480Y-109272120D01*
X93808385Y-109310215D01*
X93770290Y-109386405D01*
X93770290Y-109500691D01*
X93808385Y-109576881D01*
X93846480Y-109614977D01*
X93922671Y-109653072D01*
X94227433Y-109653072D01*
X93160766Y-109614977D02*
X93046480Y-109653072D01*
X93008385Y-109691167D01*
X92970290Y-109767358D01*
X92970290Y-109881643D01*
X93008385Y-109957834D01*
X93046480Y-109995929D01*
X93122671Y-110034024D01*
X93427433Y-110034024D01*
X93427433Y-109234024D01*
X93160766Y-109234024D01*
X93084576Y-109272120D01*
X93046480Y-109310215D01*
X93008385Y-109386405D01*
X93008385Y-109462596D01*
X93046480Y-109538786D01*
X93084576Y-109576881D01*
X93160766Y-109614977D01*
X93427433Y-109614977D01*
X92436957Y-110300691D02*
X92436957Y-109157834D01*
X91865528Y-110034024D02*
X91865528Y-109234024D01*
X91560766Y-109234024D01*
X91484576Y-109272120D01*
X91446480Y-109310215D01*
X91408385Y-109386405D01*
X91408385Y-109500691D01*
X91446480Y-109576881D01*
X91484576Y-109614977D01*
X91560766Y-109653072D01*
X91865528Y-109653072D01*
X91103623Y-109805453D02*
X90722671Y-109805453D01*
X91179814Y-110034024D02*
X90913147Y-109234024D01*
X90646480Y-110034024D01*
X94890635Y-118941633D02*
X95690635Y-118941633D01*
X95690635Y-118636871D01*
X95652540Y-118560680D01*
X95614444Y-118522585D01*
X95538254Y-118484490D01*
X95423968Y-118484490D01*
X95347778Y-118522585D01*
X95309682Y-118560680D01*
X95271587Y-118636871D01*
X95271587Y-118941633D01*
X95309682Y-117874966D02*
X95271587Y-117760680D01*
X95233492Y-117722585D01*
X95157301Y-117684490D01*
X95043016Y-117684490D01*
X94966825Y-117722585D01*
X94928730Y-117760680D01*
X94890635Y-117836871D01*
X94890635Y-118141633D01*
X95690635Y-118141633D01*
X95690635Y-117874966D01*
X95652540Y-117798776D01*
X95614444Y-117760680D01*
X95538254Y-117722585D01*
X95462063Y-117722585D01*
X95385873Y-117760680D01*
X95347778Y-117798776D01*
X95309682Y-117874966D01*
X95309682Y-118141633D01*
X94623968Y-117151157D02*
X95766825Y-117151157D01*
X94890635Y-116579728D02*
X95690635Y-116579728D01*
X95690635Y-116274966D01*
X95652540Y-116198776D01*
X95614444Y-116160680D01*
X95538254Y-116122585D01*
X95423968Y-116122585D01*
X95347778Y-116160680D01*
X95309682Y-116198776D01*
X95271587Y-116274966D01*
X95271587Y-116579728D01*
X95119206Y-115817823D02*
X95119206Y-115436871D01*
X94890635Y-115894014D02*
X95690635Y-115627347D01*
X94890635Y-115360680D01*
X91913493Y-87052104D02*
X91913493Y-86252104D01*
X91608731Y-86252104D01*
X91532540Y-86290200D01*
X91494445Y-86328295D01*
X91456350Y-86404485D01*
X91456350Y-86518771D01*
X91494445Y-86594961D01*
X91532540Y-86633057D01*
X91608731Y-86671152D01*
X91913493Y-86671152D01*
X90846826Y-86633057D02*
X90732540Y-86671152D01*
X90694445Y-86709247D01*
X90656350Y-86785438D01*
X90656350Y-86899723D01*
X90694445Y-86975914D01*
X90732540Y-87014009D01*
X90808731Y-87052104D01*
X91113493Y-87052104D01*
X91113493Y-86252104D01*
X90846826Y-86252104D01*
X90770636Y-86290200D01*
X90732540Y-86328295D01*
X90694445Y-86404485D01*
X90694445Y-86480676D01*
X90732540Y-86556866D01*
X90770636Y-86594961D01*
X90846826Y-86633057D01*
X91113493Y-86633057D01*
X90123017Y-87318771D02*
X90123017Y-86175914D01*
X89551588Y-87052104D02*
X89551588Y-86252104D01*
X89246826Y-86252104D01*
X89170636Y-86290200D01*
X89132540Y-86328295D01*
X89094445Y-86404485D01*
X89094445Y-86518771D01*
X89132540Y-86594961D01*
X89170636Y-86633057D01*
X89246826Y-86671152D01*
X89551588Y-86671152D01*
X88789683Y-86823533D02*
X88408731Y-86823533D01*
X88865874Y-87052104D02*
X88599207Y-86252104D01*
X88332540Y-87052104D01*
D10*
X74777600Y-59893200D02*
X99161600Y-59893200D01*
X99161600Y-124409200D02*
X74777600Y-124409200D01*
D12*
X154747340Y-89754340D02*
X155747340Y-89754340D01*
X155747340Y-91454340D02*
X154747340Y-91454340D01*
X158137800Y-67794240D02*
X157137800Y-67794240D01*
X157137800Y-66094240D02*
X158137800Y-66094240D01*
X162749800Y-67728200D02*
X161749800Y-67728200D01*
X161749800Y-66028200D02*
X162749800Y-66028200D01*
X154541220Y-116898420D02*
X154541220Y-117279420D01*
X154541220Y-115882420D02*
X154541220Y-116263420D01*
X154541220Y-116263420D02*
X154160220Y-116898420D01*
X154160220Y-116898420D02*
X154922220Y-116898420D01*
X154922220Y-116898420D02*
X154541220Y-116263420D01*
X154033220Y-116263420D02*
X155049220Y-116263420D01*
X155441220Y-114580920D02*
X155441220Y-118120920D01*
X153641220Y-114580920D02*
X153641220Y-118120920D01*
D13*
X164577880Y-93887140D02*
X164277880Y-94187140D01*
X164877880Y-94187140D02*
X164277880Y-94187140D01*
X164577880Y-93887140D02*
X164877880Y-94187140D01*
X165427880Y-92987140D02*
X165427880Y-92387140D01*
X161977880Y-93687140D02*
X164777880Y-93687140D01*
X161327880Y-92387140D02*
X161327880Y-92987140D01*
X164777880Y-91687140D02*
X161977880Y-91687140D01*
X162027880Y-91687140D02*
G75*
G03X161327880Y-92387140I0J-700000D01*
G01*
X161327880Y-92987140D02*
G75*
G03X162027880Y-93687140I700000J0D01*
G01*
X164727880Y-93687140D02*
G75*
G03X165427880Y-92987140I0J700000D01*
G01*
X165427880Y-92387140D02*
G75*
G03X164727880Y-91687140I-700000J0D01*
G01*
X161898840Y-105452480D02*
X159898840Y-105452480D01*
X161898840Y-108252480D02*
X161898840Y-105452480D01*
X159898840Y-108252480D02*
X161898840Y-108252480D01*
X159898840Y-105452480D02*
X159898840Y-108252480D01*
X153818440Y-85584180D02*
X154118440Y-85884180D01*
X154118440Y-85284180D02*
X154118440Y-85884180D01*
X153818440Y-85584180D02*
X154118440Y-85284180D01*
X152918440Y-84734180D02*
X152318440Y-84734180D01*
X153618440Y-88184180D02*
X153618440Y-85384180D01*
X152318440Y-88834180D02*
X152918440Y-88834180D01*
X151618440Y-85384180D02*
X151618440Y-88184180D01*
X151618440Y-88134180D02*
G75*
G03X152318440Y-88834180I700000J0D01*
G01*
X152918440Y-88834180D02*
G75*
G03X153618440Y-88134180I0J700000D01*
G01*
X153618440Y-85434180D02*
G75*
G03X152918440Y-84734180I-700000J0D01*
G01*
X152318440Y-84734180D02*
G75*
G03X151618440Y-85434180I0J-700000D01*
G01*
D12*
X163827080Y-85274520D02*
X162827080Y-85274520D01*
X162827080Y-83574520D02*
X163827080Y-83574520D01*
X159750200Y-121448800D02*
X160950200Y-121448800D01*
X160950200Y-119698800D02*
X159750200Y-119698800D01*
X164546660Y-98149040D02*
X165546660Y-98149040D01*
X165546660Y-99849040D02*
X164546660Y-99849040D01*
D13*
X156047160Y-84696080D02*
G75*
G03X155347160Y-85396080I0J-700000D01*
G01*
X157347160Y-85396080D02*
G75*
G03X156647160Y-84696080I-700000J0D01*
G01*
X156647160Y-88796080D02*
G75*
G03X157347160Y-88096080I0J700000D01*
G01*
X155347160Y-88096080D02*
G75*
G03X156047160Y-88796080I700000J0D01*
G01*
X155347160Y-85346080D02*
X155347160Y-88146080D01*
X156047160Y-88796080D02*
X156647160Y-88796080D01*
X157347160Y-88146080D02*
X157347160Y-85346080D01*
X156647160Y-84696080D02*
X156047160Y-84696080D01*
X157547160Y-85546080D02*
X157847160Y-85246080D01*
X157847160Y-85246080D02*
X157847160Y-85846080D01*
X157547160Y-85546080D02*
X157847160Y-85846080D01*
D14*
X158270000Y-74484300D02*
X161770000Y-74484300D01*
X161770000Y-67984300D02*
X158270000Y-67984300D01*
X159370000Y-73684300D02*
G75*
G03X159370000Y-73684300I-300000J0D01*
G01*
X159319200Y-82409200D02*
G75*
G03X159319200Y-82409200I-300000J0D01*
G01*
X161719200Y-76709200D02*
X158219200Y-76709200D01*
X158219200Y-83209200D02*
X161719200Y-83209200D01*
D12*
X154070020Y-82372760D02*
X154070020Y-81172760D01*
X152320020Y-81172760D02*
X152320020Y-82372760D01*
D13*
X161360900Y-89128880D02*
G75*
G03X162060900Y-89828880I700000J0D01*
G01*
X162060900Y-87828880D02*
G75*
G03X161360900Y-88528880I0J-700000D01*
G01*
X165460900Y-88528880D02*
G75*
G03X164760900Y-87828880I-700000J0D01*
G01*
X164760900Y-89828880D02*
G75*
G03X165460900Y-89128880I0J700000D01*
G01*
X162010900Y-89828880D02*
X164810900Y-89828880D01*
X165460900Y-89128880D02*
X165460900Y-88528880D01*
X164810900Y-87828880D02*
X162010900Y-87828880D01*
X161360900Y-88528880D02*
X161360900Y-89128880D01*
X162210900Y-87628880D02*
X161910900Y-87328880D01*
X161910900Y-87328880D02*
X162510900Y-87328880D01*
X162210900Y-87628880D02*
X162510900Y-87328880D01*
D12*
X166994200Y-122039000D02*
X166994200Y-121039000D01*
X165644200Y-121039000D02*
X165644200Y-122039000D01*
D13*
X155558340Y-101202640D02*
X155858340Y-101502640D01*
X155858340Y-100902640D02*
X155858340Y-101502640D01*
X155558340Y-101202640D02*
X155858340Y-100902640D01*
X154658340Y-100352640D02*
X154058340Y-100352640D01*
X155358340Y-103802640D02*
X155358340Y-101002640D01*
X154058340Y-104452640D02*
X154658340Y-104452640D01*
X153358340Y-101002640D02*
X153358340Y-103802640D01*
X153358340Y-103752640D02*
G75*
G03X154058340Y-104452640I700000J0D01*
G01*
X154658340Y-104452640D02*
G75*
G03X155358340Y-103752640I0J700000D01*
G01*
X155358340Y-101052640D02*
G75*
G03X154658340Y-100352640I-700000J0D01*
G01*
X154058340Y-100352640D02*
G75*
G03X153358340Y-101052640I0J-700000D01*
G01*
D12*
X159733880Y-103004560D02*
X159733880Y-102004560D01*
X161433880Y-102004560D02*
X161433880Y-103004560D01*
X162960560Y-75592940D02*
X163341560Y-75592940D01*
X161944560Y-75592940D02*
X162325560Y-75592940D01*
X162325560Y-75592940D02*
X162960560Y-75973940D01*
X162960560Y-75973940D02*
X162960560Y-75211940D01*
X162960560Y-75211940D02*
X162325560Y-75592940D01*
X162325560Y-76100940D02*
X162325560Y-75084940D01*
X160643060Y-74692940D02*
X164183060Y-74692940D01*
X160643060Y-76492940D02*
X164183060Y-76492940D01*
D13*
X163738340Y-108404940D02*
G75*
G03X164438340Y-109104940I700000J0D01*
G01*
X164438340Y-107104940D02*
G75*
G03X163738340Y-107804940I0J-700000D01*
G01*
X167838340Y-107804940D02*
G75*
G03X167138340Y-107104940I-700000J0D01*
G01*
X167138340Y-109104940D02*
G75*
G03X167838340Y-108404940I0J700000D01*
G01*
X164388340Y-109104940D02*
X167188340Y-109104940D01*
X167838340Y-108404940D02*
X167838340Y-107804940D01*
X167188340Y-107104940D02*
X164388340Y-107104940D01*
X163738340Y-107804940D02*
X163738340Y-108404940D01*
X164588340Y-106904940D02*
X164288340Y-106604940D01*
X164288340Y-106604940D02*
X164888340Y-106604940D01*
X164588340Y-106904940D02*
X164888340Y-106604940D01*
D12*
X155361000Y-122191400D02*
X155361000Y-121191400D01*
X154011000Y-121191400D02*
X154011000Y-122191400D01*
D13*
X167539520Y-115820340D02*
X167839520Y-116120340D01*
X167839520Y-115520340D02*
X167839520Y-116120340D01*
X167539520Y-115820340D02*
X167839520Y-115520340D01*
X166639520Y-114970340D02*
X166039520Y-114970340D01*
X167339520Y-118420340D02*
X167339520Y-115620340D01*
X166039520Y-119070340D02*
X166639520Y-119070340D01*
X165339520Y-115620340D02*
X165339520Y-118420340D01*
X165339520Y-118370340D02*
G75*
G03X166039520Y-119070340I700000J0D01*
G01*
X166639520Y-119070340D02*
G75*
G03X167339520Y-118370340I0J700000D01*
G01*
X167339520Y-115670340D02*
G75*
G03X166639520Y-114970340I-700000J0D01*
G01*
X166039520Y-114970340D02*
G75*
G03X165339520Y-115670340I0J-700000D01*
G01*
D12*
X160975600Y-122061000D02*
X159775600Y-122061000D01*
X159775600Y-123811000D02*
X160975600Y-123811000D01*
X157256540Y-74811520D02*
X158256540Y-74811520D01*
X158256540Y-76511520D02*
X157256540Y-76511520D01*
X163076800Y-111192400D02*
X162326800Y-111192400D01*
X157826800Y-116442400D02*
X158576800Y-116442400D01*
X157826800Y-111192400D02*
X158576800Y-111192400D01*
X163076800Y-116442400D02*
X163076800Y-115692400D01*
X157826800Y-116442400D02*
X157826800Y-115692400D01*
X157826800Y-111192400D02*
X157826800Y-111942400D01*
X163076800Y-111192400D02*
X163076800Y-111942400D01*
X130363340Y-89754340D02*
X131363340Y-89754340D01*
X131363340Y-91454340D02*
X130363340Y-91454340D01*
X133753800Y-67794240D02*
X132753800Y-67794240D01*
X132753800Y-66094240D02*
X133753800Y-66094240D01*
X138365800Y-67728200D02*
X137365800Y-67728200D01*
X137365800Y-66028200D02*
X138365800Y-66028200D01*
X130157220Y-116898420D02*
X130157220Y-117279420D01*
X130157220Y-115882420D02*
X130157220Y-116263420D01*
X130157220Y-116263420D02*
X129776220Y-116898420D01*
X129776220Y-116898420D02*
X130538220Y-116898420D01*
X130538220Y-116898420D02*
X130157220Y-116263420D01*
X129649220Y-116263420D02*
X130665220Y-116263420D01*
X131057220Y-114580920D02*
X131057220Y-118120920D01*
X129257220Y-114580920D02*
X129257220Y-118120920D01*
D13*
X140193880Y-93887140D02*
X139893880Y-94187140D01*
X140493880Y-94187140D02*
X139893880Y-94187140D01*
X140193880Y-93887140D02*
X140493880Y-94187140D01*
X141043880Y-92987140D02*
X141043880Y-92387140D01*
X137593880Y-93687140D02*
X140393880Y-93687140D01*
X136943880Y-92387140D02*
X136943880Y-92987140D01*
X140393880Y-91687140D02*
X137593880Y-91687140D01*
X137643880Y-91687140D02*
G75*
G03X136943880Y-92387140I0J-700000D01*
G01*
X136943880Y-92987140D02*
G75*
G03X137643880Y-93687140I700000J0D01*
G01*
X140343880Y-93687140D02*
G75*
G03X141043880Y-92987140I0J700000D01*
G01*
X141043880Y-92387140D02*
G75*
G03X140343880Y-91687140I-700000J0D01*
G01*
X137514840Y-105452480D02*
X135514840Y-105452480D01*
X137514840Y-108252480D02*
X137514840Y-105452480D01*
X135514840Y-108252480D02*
X137514840Y-108252480D01*
X135514840Y-105452480D02*
X135514840Y-108252480D01*
X129434440Y-85584180D02*
X129734440Y-85884180D01*
X129734440Y-85284180D02*
X129734440Y-85884180D01*
X129434440Y-85584180D02*
X129734440Y-85284180D01*
X128534440Y-84734180D02*
X127934440Y-84734180D01*
X129234440Y-88184180D02*
X129234440Y-85384180D01*
X127934440Y-88834180D02*
X128534440Y-88834180D01*
X127234440Y-85384180D02*
X127234440Y-88184180D01*
X127234440Y-88134180D02*
G75*
G03X127934440Y-88834180I700000J0D01*
G01*
X128534440Y-88834180D02*
G75*
G03X129234440Y-88134180I0J700000D01*
G01*
X129234440Y-85434180D02*
G75*
G03X128534440Y-84734180I-700000J0D01*
G01*
X127934440Y-84734180D02*
G75*
G03X127234440Y-85434180I0J-700000D01*
G01*
D12*
X139443080Y-85274520D02*
X138443080Y-85274520D01*
X138443080Y-83574520D02*
X139443080Y-83574520D01*
X135366200Y-121448800D02*
X136566200Y-121448800D01*
X136566200Y-119698800D02*
X135366200Y-119698800D01*
X140162660Y-98149040D02*
X141162660Y-98149040D01*
X141162660Y-99849040D02*
X140162660Y-99849040D01*
D13*
X131663160Y-84696080D02*
G75*
G03X130963160Y-85396080I0J-700000D01*
G01*
X132963160Y-85396080D02*
G75*
G03X132263160Y-84696080I-700000J0D01*
G01*
X132263160Y-88796080D02*
G75*
G03X132963160Y-88096080I0J700000D01*
G01*
X130963160Y-88096080D02*
G75*
G03X131663160Y-88796080I700000J0D01*
G01*
X130963160Y-85346080D02*
X130963160Y-88146080D01*
X131663160Y-88796080D02*
X132263160Y-88796080D01*
X132963160Y-88146080D02*
X132963160Y-85346080D01*
X132263160Y-84696080D02*
X131663160Y-84696080D01*
X133163160Y-85546080D02*
X133463160Y-85246080D01*
X133463160Y-85246080D02*
X133463160Y-85846080D01*
X133163160Y-85546080D02*
X133463160Y-85846080D01*
D14*
X133886000Y-74484300D02*
X137386000Y-74484300D01*
X137386000Y-67984300D02*
X133886000Y-67984300D01*
X134986000Y-73684300D02*
G75*
G03X134986000Y-73684300I-300000J0D01*
G01*
X134935200Y-82409200D02*
G75*
G03X134935200Y-82409200I-300000J0D01*
G01*
X137335200Y-76709200D02*
X133835200Y-76709200D01*
X133835200Y-83209200D02*
X137335200Y-83209200D01*
D12*
X129686020Y-82372760D02*
X129686020Y-81172760D01*
X127936020Y-81172760D02*
X127936020Y-82372760D01*
D13*
X136976900Y-89128880D02*
G75*
G03X137676900Y-89828880I700000J0D01*
G01*
X137676900Y-87828880D02*
G75*
G03X136976900Y-88528880I0J-700000D01*
G01*
X141076900Y-88528880D02*
G75*
G03X140376900Y-87828880I-700000J0D01*
G01*
X140376900Y-89828880D02*
G75*
G03X141076900Y-89128880I0J700000D01*
G01*
X137626900Y-89828880D02*
X140426900Y-89828880D01*
X141076900Y-89128880D02*
X141076900Y-88528880D01*
X140426900Y-87828880D02*
X137626900Y-87828880D01*
X136976900Y-88528880D02*
X136976900Y-89128880D01*
X137826900Y-87628880D02*
X137526900Y-87328880D01*
X137526900Y-87328880D02*
X138126900Y-87328880D01*
X137826900Y-87628880D02*
X138126900Y-87328880D01*
D12*
X142610200Y-122039000D02*
X142610200Y-121039000D01*
X141260200Y-121039000D02*
X141260200Y-122039000D01*
D13*
X131174340Y-101202640D02*
X131474340Y-101502640D01*
X131474340Y-100902640D02*
X131474340Y-101502640D01*
X131174340Y-101202640D02*
X131474340Y-100902640D01*
X130274340Y-100352640D02*
X129674340Y-100352640D01*
X130974340Y-103802640D02*
X130974340Y-101002640D01*
X129674340Y-104452640D02*
X130274340Y-104452640D01*
X128974340Y-101002640D02*
X128974340Y-103802640D01*
X128974340Y-103752640D02*
G75*
G03X129674340Y-104452640I700000J0D01*
G01*
X130274340Y-104452640D02*
G75*
G03X130974340Y-103752640I0J700000D01*
G01*
X130974340Y-101052640D02*
G75*
G03X130274340Y-100352640I-700000J0D01*
G01*
X129674340Y-100352640D02*
G75*
G03X128974340Y-101052640I0J-700000D01*
G01*
D12*
X135349880Y-103004560D02*
X135349880Y-102004560D01*
X137049880Y-102004560D02*
X137049880Y-103004560D01*
X138576560Y-75592940D02*
X138957560Y-75592940D01*
X137560560Y-75592940D02*
X137941560Y-75592940D01*
X137941560Y-75592940D02*
X138576560Y-75973940D01*
X138576560Y-75973940D02*
X138576560Y-75211940D01*
X138576560Y-75211940D02*
X137941560Y-75592940D01*
X137941560Y-76100940D02*
X137941560Y-75084940D01*
X136259060Y-74692940D02*
X139799060Y-74692940D01*
X136259060Y-76492940D02*
X139799060Y-76492940D01*
D13*
X139354340Y-108404940D02*
G75*
G03X140054340Y-109104940I700000J0D01*
G01*
X140054340Y-107104940D02*
G75*
G03X139354340Y-107804940I0J-700000D01*
G01*
X143454340Y-107804940D02*
G75*
G03X142754340Y-107104940I-700000J0D01*
G01*
X142754340Y-109104940D02*
G75*
G03X143454340Y-108404940I0J700000D01*
G01*
X140004340Y-109104940D02*
X142804340Y-109104940D01*
X143454340Y-108404940D02*
X143454340Y-107804940D01*
X142804340Y-107104940D02*
X140004340Y-107104940D01*
X139354340Y-107804940D02*
X139354340Y-108404940D01*
X140204340Y-106904940D02*
X139904340Y-106604940D01*
X139904340Y-106604940D02*
X140504340Y-106604940D01*
X140204340Y-106904940D02*
X140504340Y-106604940D01*
D12*
X130977000Y-122191400D02*
X130977000Y-121191400D01*
X129627000Y-121191400D02*
X129627000Y-122191400D01*
D13*
X143155520Y-115820340D02*
X143455520Y-116120340D01*
X143455520Y-115520340D02*
X143455520Y-116120340D01*
X143155520Y-115820340D02*
X143455520Y-115520340D01*
X142255520Y-114970340D02*
X141655520Y-114970340D01*
X142955520Y-118420340D02*
X142955520Y-115620340D01*
X141655520Y-119070340D02*
X142255520Y-119070340D01*
X140955520Y-115620340D02*
X140955520Y-118420340D01*
X140955520Y-118370340D02*
G75*
G03X141655520Y-119070340I700000J0D01*
G01*
X142255520Y-119070340D02*
G75*
G03X142955520Y-118370340I0J700000D01*
G01*
X142955520Y-115670340D02*
G75*
G03X142255520Y-114970340I-700000J0D01*
G01*
X141655520Y-114970340D02*
G75*
G03X140955520Y-115670340I0J-700000D01*
G01*
D12*
X136591600Y-122061000D02*
X135391600Y-122061000D01*
X135391600Y-123811000D02*
X136591600Y-123811000D01*
X132872540Y-74811520D02*
X133872540Y-74811520D01*
X133872540Y-76511520D02*
X132872540Y-76511520D01*
X138692800Y-111192400D02*
X137942800Y-111192400D01*
X133442800Y-116442400D02*
X134192800Y-116442400D01*
X133442800Y-111192400D02*
X134192800Y-111192400D01*
X138692800Y-116442400D02*
X138692800Y-115692400D01*
X133442800Y-116442400D02*
X133442800Y-115692400D01*
X133442800Y-111192400D02*
X133442800Y-111942400D01*
X138692800Y-111192400D02*
X138692800Y-111942400D01*
X105979340Y-89754340D02*
X106979340Y-89754340D01*
X106979340Y-91454340D02*
X105979340Y-91454340D01*
X109369800Y-67794240D02*
X108369800Y-67794240D01*
X108369800Y-66094240D02*
X109369800Y-66094240D01*
X113981800Y-67728200D02*
X112981800Y-67728200D01*
X112981800Y-66028200D02*
X113981800Y-66028200D01*
X105773220Y-116898420D02*
X105773220Y-117279420D01*
X105773220Y-115882420D02*
X105773220Y-116263420D01*
X105773220Y-116263420D02*
X105392220Y-116898420D01*
X105392220Y-116898420D02*
X106154220Y-116898420D01*
X106154220Y-116898420D02*
X105773220Y-116263420D01*
X105265220Y-116263420D02*
X106281220Y-116263420D01*
X106673220Y-114580920D02*
X106673220Y-118120920D01*
X104873220Y-114580920D02*
X104873220Y-118120920D01*
D13*
X115809880Y-93887140D02*
X115509880Y-94187140D01*
X116109880Y-94187140D02*
X115509880Y-94187140D01*
X115809880Y-93887140D02*
X116109880Y-94187140D01*
X116659880Y-92987140D02*
X116659880Y-92387140D01*
X113209880Y-93687140D02*
X116009880Y-93687140D01*
X112559880Y-92387140D02*
X112559880Y-92987140D01*
X116009880Y-91687140D02*
X113209880Y-91687140D01*
X113259880Y-91687140D02*
G75*
G03X112559880Y-92387140I0J-700000D01*
G01*
X112559880Y-92987140D02*
G75*
G03X113259880Y-93687140I700000J0D01*
G01*
X115959880Y-93687140D02*
G75*
G03X116659880Y-92987140I0J700000D01*
G01*
X116659880Y-92387140D02*
G75*
G03X115959880Y-91687140I-700000J0D01*
G01*
X113130840Y-105452480D02*
X111130840Y-105452480D01*
X113130840Y-108252480D02*
X113130840Y-105452480D01*
X111130840Y-108252480D02*
X113130840Y-108252480D01*
X111130840Y-105452480D02*
X111130840Y-108252480D01*
X105050440Y-85584180D02*
X105350440Y-85884180D01*
X105350440Y-85284180D02*
X105350440Y-85884180D01*
X105050440Y-85584180D02*
X105350440Y-85284180D01*
X104150440Y-84734180D02*
X103550440Y-84734180D01*
X104850440Y-88184180D02*
X104850440Y-85384180D01*
X103550440Y-88834180D02*
X104150440Y-88834180D01*
X102850440Y-85384180D02*
X102850440Y-88184180D01*
X102850440Y-88134180D02*
G75*
G03X103550440Y-88834180I700000J0D01*
G01*
X104150440Y-88834180D02*
G75*
G03X104850440Y-88134180I0J700000D01*
G01*
X104850440Y-85434180D02*
G75*
G03X104150440Y-84734180I-700000J0D01*
G01*
X103550440Y-84734180D02*
G75*
G03X102850440Y-85434180I0J-700000D01*
G01*
D12*
X115059080Y-85274520D02*
X114059080Y-85274520D01*
X114059080Y-83574520D02*
X115059080Y-83574520D01*
X110982200Y-121448800D02*
X112182200Y-121448800D01*
X112182200Y-119698800D02*
X110982200Y-119698800D01*
X115778660Y-98149040D02*
X116778660Y-98149040D01*
X116778660Y-99849040D02*
X115778660Y-99849040D01*
D13*
X107279160Y-84696080D02*
G75*
G03X106579160Y-85396080I0J-700000D01*
G01*
X108579160Y-85396080D02*
G75*
G03X107879160Y-84696080I-700000J0D01*
G01*
X107879160Y-88796080D02*
G75*
G03X108579160Y-88096080I0J700000D01*
G01*
X106579160Y-88096080D02*
G75*
G03X107279160Y-88796080I700000J0D01*
G01*
X106579160Y-85346080D02*
X106579160Y-88146080D01*
X107279160Y-88796080D02*
X107879160Y-88796080D01*
X108579160Y-88146080D02*
X108579160Y-85346080D01*
X107879160Y-84696080D02*
X107279160Y-84696080D01*
X108779160Y-85546080D02*
X109079160Y-85246080D01*
X109079160Y-85246080D02*
X109079160Y-85846080D01*
X108779160Y-85546080D02*
X109079160Y-85846080D01*
D14*
X109502000Y-74484300D02*
X113002000Y-74484300D01*
X113002000Y-67984300D02*
X109502000Y-67984300D01*
X110602000Y-73684300D02*
G75*
G03X110602000Y-73684300I-300000J0D01*
G01*
X110551200Y-82409200D02*
G75*
G03X110551200Y-82409200I-300000J0D01*
G01*
X112951200Y-76709200D02*
X109451200Y-76709200D01*
X109451200Y-83209200D02*
X112951200Y-83209200D01*
D12*
X105302020Y-82372760D02*
X105302020Y-81172760D01*
X103552020Y-81172760D02*
X103552020Y-82372760D01*
D13*
X112592900Y-89128880D02*
G75*
G03X113292900Y-89828880I700000J0D01*
G01*
X113292900Y-87828880D02*
G75*
G03X112592900Y-88528880I0J-700000D01*
G01*
X116692900Y-88528880D02*
G75*
G03X115992900Y-87828880I-700000J0D01*
G01*
X115992900Y-89828880D02*
G75*
G03X116692900Y-89128880I0J700000D01*
G01*
X113242900Y-89828880D02*
X116042900Y-89828880D01*
X116692900Y-89128880D02*
X116692900Y-88528880D01*
X116042900Y-87828880D02*
X113242900Y-87828880D01*
X112592900Y-88528880D02*
X112592900Y-89128880D01*
X113442900Y-87628880D02*
X113142900Y-87328880D01*
X113142900Y-87328880D02*
X113742900Y-87328880D01*
X113442900Y-87628880D02*
X113742900Y-87328880D01*
D12*
X118226200Y-122039000D02*
X118226200Y-121039000D01*
X116876200Y-121039000D02*
X116876200Y-122039000D01*
D13*
X106790340Y-101202640D02*
X107090340Y-101502640D01*
X107090340Y-100902640D02*
X107090340Y-101502640D01*
X106790340Y-101202640D02*
X107090340Y-100902640D01*
X105890340Y-100352640D02*
X105290340Y-100352640D01*
X106590340Y-103802640D02*
X106590340Y-101002640D01*
X105290340Y-104452640D02*
X105890340Y-104452640D01*
X104590340Y-101002640D02*
X104590340Y-103802640D01*
X104590340Y-103752640D02*
G75*
G03X105290340Y-104452640I700000J0D01*
G01*
X105890340Y-104452640D02*
G75*
G03X106590340Y-103752640I0J700000D01*
G01*
X106590340Y-101052640D02*
G75*
G03X105890340Y-100352640I-700000J0D01*
G01*
X105290340Y-100352640D02*
G75*
G03X104590340Y-101052640I0J-700000D01*
G01*
D12*
X110965880Y-103004560D02*
X110965880Y-102004560D01*
X112665880Y-102004560D02*
X112665880Y-103004560D01*
X114192560Y-75592940D02*
X114573560Y-75592940D01*
X113176560Y-75592940D02*
X113557560Y-75592940D01*
X113557560Y-75592940D02*
X114192560Y-75973940D01*
X114192560Y-75973940D02*
X114192560Y-75211940D01*
X114192560Y-75211940D02*
X113557560Y-75592940D01*
X113557560Y-76100940D02*
X113557560Y-75084940D01*
X111875060Y-74692940D02*
X115415060Y-74692940D01*
X111875060Y-76492940D02*
X115415060Y-76492940D01*
D13*
X114970340Y-108404940D02*
G75*
G03X115670340Y-109104940I700000J0D01*
G01*
X115670340Y-107104940D02*
G75*
G03X114970340Y-107804940I0J-700000D01*
G01*
X119070340Y-107804940D02*
G75*
G03X118370340Y-107104940I-700000J0D01*
G01*
X118370340Y-109104940D02*
G75*
G03X119070340Y-108404940I0J700000D01*
G01*
X115620340Y-109104940D02*
X118420340Y-109104940D01*
X119070340Y-108404940D02*
X119070340Y-107804940D01*
X118420340Y-107104940D02*
X115620340Y-107104940D01*
X114970340Y-107804940D02*
X114970340Y-108404940D01*
X115820340Y-106904940D02*
X115520340Y-106604940D01*
X115520340Y-106604940D02*
X116120340Y-106604940D01*
X115820340Y-106904940D02*
X116120340Y-106604940D01*
D12*
X106593000Y-122191400D02*
X106593000Y-121191400D01*
X105243000Y-121191400D02*
X105243000Y-122191400D01*
D13*
X118771520Y-115820340D02*
X119071520Y-116120340D01*
X119071520Y-115520340D02*
X119071520Y-116120340D01*
X118771520Y-115820340D02*
X119071520Y-115520340D01*
X117871520Y-114970340D02*
X117271520Y-114970340D01*
X118571520Y-118420340D02*
X118571520Y-115620340D01*
X117271520Y-119070340D02*
X117871520Y-119070340D01*
X116571520Y-115620340D02*
X116571520Y-118420340D01*
X116571520Y-118370340D02*
G75*
G03X117271520Y-119070340I700000J0D01*
G01*
X117871520Y-119070340D02*
G75*
G03X118571520Y-118370340I0J700000D01*
G01*
X118571520Y-115670340D02*
G75*
G03X117871520Y-114970340I-700000J0D01*
G01*
X117271520Y-114970340D02*
G75*
G03X116571520Y-115670340I0J-700000D01*
G01*
D12*
X112207600Y-122061000D02*
X111007600Y-122061000D01*
X111007600Y-123811000D02*
X112207600Y-123811000D01*
X108488540Y-74811520D02*
X109488540Y-74811520D01*
X109488540Y-76511520D02*
X108488540Y-76511520D01*
X114308800Y-111192400D02*
X113558800Y-111192400D01*
X109058800Y-116442400D02*
X109808800Y-116442400D01*
X109058800Y-111192400D02*
X109808800Y-111192400D01*
X114308800Y-116442400D02*
X114308800Y-115692400D01*
X109058800Y-116442400D02*
X109058800Y-115692400D01*
X109058800Y-111192400D02*
X109058800Y-111942400D01*
X114308800Y-111192400D02*
X114308800Y-111942400D01*
X89924800Y-111192400D02*
X89174800Y-111192400D01*
X84674800Y-116442400D02*
X85424800Y-116442400D01*
X84674800Y-111192400D02*
X85424800Y-111192400D01*
X89924800Y-116442400D02*
X89924800Y-115692400D01*
X84674800Y-116442400D02*
X84674800Y-115692400D01*
X84674800Y-111192400D02*
X84674800Y-111942400D01*
X89924800Y-111192400D02*
X89924800Y-111942400D01*
X81595340Y-89754340D02*
X82595340Y-89754340D01*
X82595340Y-91454340D02*
X81595340Y-91454340D01*
X84985800Y-67794240D02*
X83985800Y-67794240D01*
X83985800Y-66094240D02*
X84985800Y-66094240D01*
X89597800Y-67728200D02*
X88597800Y-67728200D01*
X88597800Y-66028200D02*
X89597800Y-66028200D01*
X81389220Y-116898420D02*
X81389220Y-117279420D01*
X81389220Y-115882420D02*
X81389220Y-116263420D01*
X81389220Y-116263420D02*
X81008220Y-116898420D01*
X81008220Y-116898420D02*
X81770220Y-116898420D01*
X81770220Y-116898420D02*
X81389220Y-116263420D01*
X80881220Y-116263420D02*
X81897220Y-116263420D01*
X82289220Y-114580920D02*
X82289220Y-118120920D01*
X80489220Y-114580920D02*
X80489220Y-118120920D01*
D14*
X85118000Y-74484300D02*
X88618000Y-74484300D01*
X88618000Y-67984300D02*
X85118000Y-67984300D01*
X86218000Y-73684300D02*
G75*
G03X86218000Y-73684300I-300000J0D01*
G01*
D12*
X91394660Y-98149040D02*
X92394660Y-98149040D01*
X92394660Y-99849040D02*
X91394660Y-99849040D01*
X86581880Y-103004560D02*
X86581880Y-102004560D01*
X88281880Y-102004560D02*
X88281880Y-103004560D01*
X84104540Y-74811520D02*
X85104540Y-74811520D01*
X85104540Y-76511520D02*
X84104540Y-76511520D01*
X90675080Y-85274520D02*
X89675080Y-85274520D01*
X89675080Y-83574520D02*
X90675080Y-83574520D01*
X89808560Y-75592940D02*
X90189560Y-75592940D01*
X88792560Y-75592940D02*
X89173560Y-75592940D01*
X89173560Y-75592940D02*
X89808560Y-75973940D01*
X89808560Y-75973940D02*
X89808560Y-75211940D01*
X89808560Y-75211940D02*
X89173560Y-75592940D01*
X89173560Y-76100940D02*
X89173560Y-75084940D01*
X87491060Y-74692940D02*
X91031060Y-74692940D01*
X87491060Y-76492940D02*
X91031060Y-76492940D01*
D13*
X80666440Y-85584180D02*
X80966440Y-85884180D01*
X80966440Y-85284180D02*
X80966440Y-85884180D01*
X80666440Y-85584180D02*
X80966440Y-85284180D01*
X79766440Y-84734180D02*
X79166440Y-84734180D01*
X80466440Y-88184180D02*
X80466440Y-85384180D01*
X79166440Y-88834180D02*
X79766440Y-88834180D01*
X78466440Y-85384180D02*
X78466440Y-88184180D01*
X78466440Y-88134180D02*
G75*
G03X79166440Y-88834180I700000J0D01*
G01*
X79766440Y-88834180D02*
G75*
G03X80466440Y-88134180I0J700000D01*
G01*
X80466440Y-85434180D02*
G75*
G03X79766440Y-84734180I-700000J0D01*
G01*
X79166440Y-84734180D02*
G75*
G03X78466440Y-85434180I0J-700000D01*
G01*
X82895160Y-84696080D02*
G75*
G03X82195160Y-85396080I0J-700000D01*
G01*
X84195160Y-85396080D02*
G75*
G03X83495160Y-84696080I-700000J0D01*
G01*
X83495160Y-88796080D02*
G75*
G03X84195160Y-88096080I0J700000D01*
G01*
X82195160Y-88096080D02*
G75*
G03X82895160Y-88796080I700000J0D01*
G01*
X82195160Y-85346080D02*
X82195160Y-88146080D01*
X82895160Y-88796080D02*
X83495160Y-88796080D01*
X84195160Y-88146080D02*
X84195160Y-85346080D01*
X83495160Y-84696080D02*
X82895160Y-84696080D01*
X84395160Y-85546080D02*
X84695160Y-85246080D01*
X84695160Y-85246080D02*
X84695160Y-85846080D01*
X84395160Y-85546080D02*
X84695160Y-85846080D01*
X82406340Y-101202640D02*
X82706340Y-101502640D01*
X82706340Y-100902640D02*
X82706340Y-101502640D01*
X82406340Y-101202640D02*
X82706340Y-100902640D01*
X81506340Y-100352640D02*
X80906340Y-100352640D01*
X82206340Y-103802640D02*
X82206340Y-101002640D01*
X80906340Y-104452640D02*
X81506340Y-104452640D01*
X80206340Y-101002640D02*
X80206340Y-103802640D01*
X80206340Y-103752640D02*
G75*
G03X80906340Y-104452640I700000J0D01*
G01*
X81506340Y-104452640D02*
G75*
G03X82206340Y-103752640I0J700000D01*
G01*
X82206340Y-101052640D02*
G75*
G03X81506340Y-100352640I-700000J0D01*
G01*
X80906340Y-100352640D02*
G75*
G03X80206340Y-101052640I0J-700000D01*
G01*
X90586340Y-108404940D02*
G75*
G03X91286340Y-109104940I700000J0D01*
G01*
X91286340Y-107104940D02*
G75*
G03X90586340Y-107804940I0J-700000D01*
G01*
X94686340Y-107804940D02*
G75*
G03X93986340Y-107104940I-700000J0D01*
G01*
X93986340Y-109104940D02*
G75*
G03X94686340Y-108404940I0J700000D01*
G01*
X91236340Y-109104940D02*
X94036340Y-109104940D01*
X94686340Y-108404940D02*
X94686340Y-107804940D01*
X94036340Y-107104940D02*
X91236340Y-107104940D01*
X90586340Y-107804940D02*
X90586340Y-108404940D01*
X91436340Y-106904940D02*
X91136340Y-106604940D01*
X91136340Y-106604940D02*
X91736340Y-106604940D01*
X91436340Y-106904940D02*
X91736340Y-106604940D01*
X88208900Y-89128880D02*
G75*
G03X88908900Y-89828880I700000J0D01*
G01*
X88908900Y-87828880D02*
G75*
G03X88208900Y-88528880I0J-700000D01*
G01*
X92308900Y-88528880D02*
G75*
G03X91608900Y-87828880I-700000J0D01*
G01*
X91608900Y-89828880D02*
G75*
G03X92308900Y-89128880I0J700000D01*
G01*
X88858900Y-89828880D02*
X91658900Y-89828880D01*
X92308900Y-89128880D02*
X92308900Y-88528880D01*
X91658900Y-87828880D02*
X88858900Y-87828880D01*
X88208900Y-88528880D02*
X88208900Y-89128880D01*
X89058900Y-87628880D02*
X88758900Y-87328880D01*
X88758900Y-87328880D02*
X89358900Y-87328880D01*
X89058900Y-87628880D02*
X89358900Y-87328880D01*
X94387520Y-115820340D02*
X94687520Y-116120340D01*
X94687520Y-115520340D02*
X94687520Y-116120340D01*
X94387520Y-115820340D02*
X94687520Y-115520340D01*
X93487520Y-114970340D02*
X92887520Y-114970340D01*
X94187520Y-118420340D02*
X94187520Y-115620340D01*
X92887520Y-119070340D02*
X93487520Y-119070340D01*
X92187520Y-115620340D02*
X92187520Y-118420340D01*
X92187520Y-118370340D02*
G75*
G03X92887520Y-119070340I700000J0D01*
G01*
X93487520Y-119070340D02*
G75*
G03X94187520Y-118370340I0J700000D01*
G01*
X94187520Y-115670340D02*
G75*
G03X93487520Y-114970340I-700000J0D01*
G01*
X92887520Y-114970340D02*
G75*
G03X92187520Y-115670340I0J-700000D01*
G01*
D12*
X86598200Y-121448800D02*
X87798200Y-121448800D01*
X87798200Y-119698800D02*
X86598200Y-119698800D01*
X87823600Y-122061000D02*
X86623600Y-122061000D01*
X86623600Y-123811000D02*
X87823600Y-123811000D01*
X80918020Y-82372760D02*
X80918020Y-81172760D01*
X79168020Y-81172760D02*
X79168020Y-82372760D01*
X82209000Y-122191400D02*
X82209000Y-121191400D01*
X80859000Y-121191400D02*
X80859000Y-122191400D01*
X93842200Y-122039000D02*
X93842200Y-121039000D01*
X92492200Y-121039000D02*
X92492200Y-122039000D01*
D14*
X86167200Y-82409200D02*
G75*
G03X86167200Y-82409200I-300000J0D01*
G01*
X88567200Y-76709200D02*
X85067200Y-76709200D01*
X85067200Y-83209200D02*
X88567200Y-83209200D01*
D13*
X88746840Y-105452480D02*
X86746840Y-105452480D01*
X88746840Y-108252480D02*
X88746840Y-105452480D01*
X86746840Y-108252480D02*
X88746840Y-108252480D01*
X86746840Y-105452480D02*
X86746840Y-108252480D01*
X91425880Y-93887140D02*
X91125880Y-94187140D01*
X91725880Y-94187140D02*
X91125880Y-94187140D01*
X91425880Y-93887140D02*
X91725880Y-94187140D01*
X92275880Y-92987140D02*
X92275880Y-92387140D01*
X88825880Y-93687140D02*
X91625880Y-93687140D01*
X88175880Y-92387140D02*
X88175880Y-92987140D01*
X91625880Y-91687140D02*
X88825880Y-91687140D01*
X88875880Y-91687140D02*
G75*
G03X88175880Y-92387140I0J-700000D01*
G01*
X88175880Y-92987140D02*
G75*
G03X88875880Y-93687140I700000J0D01*
G01*
X91575880Y-93687140D02*
G75*
G03X92275880Y-92987140I0J700000D01*
G01*
X92275880Y-92387140D02*
G75*
G03X91575880Y-91687140I-700000J0D01*
G01*
D12*
X152787622Y-90369093D02*
X152835241Y-90321474D01*
X152882860Y-90178617D01*
X152882860Y-90083379D01*
X152835241Y-89940521D01*
X152740003Y-89845283D01*
X152644765Y-89797664D01*
X152454289Y-89750045D01*
X152311432Y-89750045D01*
X152120956Y-89797664D01*
X152025718Y-89845283D01*
X151930480Y-89940521D01*
X151882860Y-90083379D01*
X151882860Y-90178617D01*
X151930480Y-90321474D01*
X151978099Y-90369093D01*
X152882860Y-91321474D02*
X152882860Y-90750045D01*
X152882860Y-91035760D02*
X151882860Y-91035760D01*
X152025718Y-90940521D01*
X152120956Y-90845283D01*
X152168575Y-90750045D01*
X154763742Y-66711533D02*
X154811361Y-66663914D01*
X154858980Y-66521057D01*
X154858980Y-66425819D01*
X154811361Y-66282961D01*
X154716123Y-66187723D01*
X154620885Y-66140104D01*
X154430409Y-66092485D01*
X154287552Y-66092485D01*
X154097076Y-66140104D01*
X154001838Y-66187723D01*
X153906600Y-66282961D01*
X153858980Y-66425819D01*
X153858980Y-66521057D01*
X153906600Y-66663914D01*
X153954219Y-66711533D01*
X153858980Y-67568676D02*
X153858980Y-67378200D01*
X153906600Y-67282961D01*
X153954219Y-67235342D01*
X154097076Y-67140104D01*
X154287552Y-67092485D01*
X154668504Y-67092485D01*
X154763742Y-67140104D01*
X154811361Y-67187723D01*
X154858980Y-67282961D01*
X154858980Y-67473438D01*
X154811361Y-67568676D01*
X154763742Y-67616295D01*
X154668504Y-67663914D01*
X154430409Y-67663914D01*
X154335171Y-67616295D01*
X154287552Y-67568676D01*
X154239933Y-67473438D01*
X154239933Y-67282961D01*
X154287552Y-67187723D01*
X154335171Y-67140104D01*
X154430409Y-67092485D01*
X165939742Y-66574373D02*
X165987361Y-66526754D01*
X166034980Y-66383897D01*
X166034980Y-66288659D01*
X165987361Y-66145801D01*
X165892123Y-66050563D01*
X165796885Y-66002944D01*
X165606409Y-65955325D01*
X165463552Y-65955325D01*
X165273076Y-66002944D01*
X165177838Y-66050563D01*
X165082600Y-66145801D01*
X165034980Y-66288659D01*
X165034980Y-66383897D01*
X165082600Y-66526754D01*
X165130219Y-66574373D01*
X165034980Y-66907706D02*
X165034980Y-67574373D01*
X166034980Y-67145801D01*
X152834600Y-115842824D02*
X151834600Y-115842824D01*
X151834600Y-116080920D01*
X151882220Y-116223777D01*
X151977458Y-116319015D01*
X152072696Y-116366634D01*
X152263172Y-116414253D01*
X152406029Y-116414253D01*
X152596505Y-116366634D01*
X152691743Y-116319015D01*
X152786981Y-116223777D01*
X152834600Y-116080920D01*
X152834600Y-115842824D01*
X151834600Y-117319015D02*
X151834600Y-116842824D01*
X152310791Y-116795205D01*
X152263172Y-116842824D01*
X152215553Y-116938062D01*
X152215553Y-117176158D01*
X152263172Y-117271396D01*
X152310791Y-117319015D01*
X152406029Y-117366634D01*
X152644124Y-117366634D01*
X152739362Y-117319015D01*
X152786981Y-117271396D01*
X152834600Y-117176158D01*
X152834600Y-116938062D01*
X152786981Y-116842824D01*
X152739362Y-116795205D01*
X160377166Y-84644502D02*
X160424785Y-84692121D01*
X160567642Y-84739740D01*
X160662880Y-84739740D01*
X160805738Y-84692121D01*
X160900976Y-84596883D01*
X160948595Y-84501645D01*
X160996214Y-84311169D01*
X160996214Y-84168312D01*
X160948595Y-83977836D01*
X160900976Y-83882598D01*
X160805738Y-83787360D01*
X160662880Y-83739740D01*
X160567642Y-83739740D01*
X160424785Y-83787360D01*
X160377166Y-83834979D01*
X159900976Y-84739740D02*
X159710500Y-84739740D01*
X159615261Y-84692121D01*
X159567642Y-84644502D01*
X159472404Y-84501645D01*
X159424785Y-84311169D01*
X159424785Y-83930217D01*
X159472404Y-83834979D01*
X159520023Y-83787360D01*
X159615261Y-83739740D01*
X159805738Y-83739740D01*
X159900976Y-83787360D01*
X159948595Y-83834979D01*
X159996214Y-83930217D01*
X159996214Y-84168312D01*
X159948595Y-84263550D01*
X159900976Y-84311169D01*
X159805738Y-84358788D01*
X159615261Y-84358788D01*
X159520023Y-84311169D01*
X159472404Y-84263550D01*
X159424785Y-84168312D01*
X157265666Y-120330220D02*
X157599000Y-119854030D01*
X157837095Y-120330220D02*
X157837095Y-119330220D01*
X157456142Y-119330220D01*
X157360904Y-119377840D01*
X157313285Y-119425459D01*
X157265666Y-119520697D01*
X157265666Y-119663554D01*
X157313285Y-119758792D01*
X157360904Y-119806411D01*
X157456142Y-119854030D01*
X157837095Y-119854030D01*
X156313285Y-120330220D02*
X156884714Y-120330220D01*
X156599000Y-120330220D02*
X156599000Y-119330220D01*
X156694238Y-119473078D01*
X156789476Y-119568316D01*
X156884714Y-119615935D01*
X165213326Y-97256182D02*
X165260945Y-97303801D01*
X165403802Y-97351420D01*
X165499040Y-97351420D01*
X165641898Y-97303801D01*
X165737136Y-97208563D01*
X165784755Y-97113325D01*
X165832374Y-96922849D01*
X165832374Y-96779992D01*
X165784755Y-96589516D01*
X165737136Y-96494278D01*
X165641898Y-96399040D01*
X165499040Y-96351420D01*
X165403802Y-96351420D01*
X165260945Y-96399040D01*
X165213326Y-96446659D01*
X164832374Y-96446659D02*
X164784755Y-96399040D01*
X164689517Y-96351420D01*
X164451421Y-96351420D01*
X164356183Y-96399040D01*
X164308564Y-96446659D01*
X164260945Y-96541897D01*
X164260945Y-96637135D01*
X164308564Y-96779992D01*
X164879993Y-97351420D01*
X164260945Y-97351420D01*
D15*
X160969476Y-73227595D02*
X160969476Y-73885576D01*
X160930771Y-73962985D01*
X160892066Y-74001690D01*
X160814657Y-74040395D01*
X160659838Y-74040395D01*
X160582428Y-74001690D01*
X160543723Y-73962985D01*
X160505019Y-73885576D01*
X160505019Y-73227595D01*
X160195380Y-73227595D02*
X159692219Y-73227595D01*
X159963152Y-73537233D01*
X159847038Y-73537233D01*
X159769628Y-73575938D01*
X159730923Y-73614642D01*
X159692219Y-73692052D01*
X159692219Y-73885576D01*
X159730923Y-73962985D01*
X159769628Y-74001690D01*
X159847038Y-74040395D01*
X160079266Y-74040395D01*
X160156676Y-74001690D01*
X160195380Y-73962985D01*
X160752971Y-70188666D02*
X160365923Y-70188666D01*
X160830380Y-70420895D02*
X160559447Y-69608095D01*
X160288514Y-70420895D01*
X160017580Y-70420895D02*
X160017580Y-69608095D01*
X159707942Y-69608095D01*
X159630533Y-69646800D01*
X159591828Y-69685504D01*
X159553123Y-69762914D01*
X159553123Y-69879028D01*
X159591828Y-69956438D01*
X159630533Y-69995142D01*
X159707942Y-70033847D01*
X160017580Y-70033847D01*
X158779028Y-70420895D02*
X159243485Y-70420895D01*
X159011257Y-70420895D02*
X159011257Y-69608095D01*
X159088666Y-69724209D01*
X159166076Y-69801619D01*
X159243485Y-69840323D01*
X158004933Y-70420895D02*
X158469390Y-70420895D01*
X158237161Y-70420895D02*
X158237161Y-69608095D01*
X158314571Y-69724209D01*
X158391980Y-69801619D01*
X158469390Y-69840323D01*
X157230838Y-70420895D02*
X157695295Y-70420895D01*
X157463066Y-70420895D02*
X157463066Y-69608095D01*
X157540476Y-69724209D01*
X157617885Y-69801619D01*
X157695295Y-69840323D01*
X156959904Y-69608095D02*
X156418038Y-69608095D01*
X156766380Y-70420895D01*
X156108400Y-70111257D02*
X155489123Y-70111257D01*
X154715028Y-69608095D02*
X155102076Y-69608095D01*
X155140780Y-69995142D01*
X155102076Y-69956438D01*
X155024666Y-69917733D01*
X154831142Y-69917733D01*
X154753733Y-69956438D01*
X154715028Y-69995142D01*
X154676323Y-70072552D01*
X154676323Y-70266076D01*
X154715028Y-70343485D01*
X154753733Y-70382190D01*
X154831142Y-70420895D01*
X155024666Y-70420895D01*
X155102076Y-70382190D01*
X155140780Y-70343485D01*
X154173161Y-69608095D02*
X154095752Y-69608095D01*
X154018342Y-69646800D01*
X153979638Y-69685504D01*
X153940933Y-69762914D01*
X153902228Y-69917733D01*
X153902228Y-70111257D01*
X153940933Y-70266076D01*
X153979638Y-70343485D01*
X154018342Y-70382190D01*
X154095752Y-70420895D01*
X154173161Y-70420895D01*
X154250571Y-70382190D01*
X154289276Y-70343485D01*
X154327980Y-70266076D01*
X154366685Y-70111257D01*
X154366685Y-69917733D01*
X154327980Y-69762914D01*
X154289276Y-69685504D01*
X154250571Y-69646800D01*
X154173161Y-69608095D01*
X160918676Y-81952495D02*
X160918676Y-82610476D01*
X160879971Y-82687885D01*
X160841266Y-82726590D01*
X160763857Y-82765295D01*
X160609038Y-82765295D01*
X160531628Y-82726590D01*
X160492923Y-82687885D01*
X160454219Y-82610476D01*
X160454219Y-81952495D01*
X159718828Y-82223428D02*
X159718828Y-82765295D01*
X159912352Y-81913790D02*
X160105876Y-82494361D01*
X159602714Y-82494361D01*
X165396091Y-77950906D02*
X165009043Y-77950906D01*
X165473500Y-78183135D02*
X165202567Y-77370335D01*
X164931634Y-78183135D01*
X164660700Y-78183135D02*
X164660700Y-77370335D01*
X164351062Y-77370335D01*
X164273653Y-77409040D01*
X164234948Y-77447744D01*
X164196243Y-77525154D01*
X164196243Y-77641268D01*
X164234948Y-77718678D01*
X164273653Y-77757382D01*
X164351062Y-77796087D01*
X164660700Y-77796087D01*
X163422148Y-78183135D02*
X163886605Y-78183135D01*
X163654377Y-78183135D02*
X163654377Y-77370335D01*
X163731786Y-77486449D01*
X163809196Y-77563859D01*
X163886605Y-77602563D01*
X162648053Y-78183135D02*
X163112510Y-78183135D01*
X162880281Y-78183135D02*
X162880281Y-77370335D01*
X162957691Y-77486449D01*
X163035100Y-77563859D01*
X163112510Y-77602563D01*
X161873958Y-78183135D02*
X162338415Y-78183135D01*
X162106186Y-78183135D02*
X162106186Y-77370335D01*
X162183596Y-77486449D01*
X162261005Y-77563859D01*
X162338415Y-77602563D01*
X161603024Y-77370335D02*
X161061158Y-77370335D01*
X161409500Y-78183135D01*
X160751520Y-77873497D02*
X160132243Y-77873497D01*
X159822605Y-77370335D02*
X159319443Y-77370335D01*
X159590377Y-77679973D01*
X159474262Y-77679973D01*
X159396853Y-77718678D01*
X159358148Y-77757382D01*
X159319443Y-77834792D01*
X159319443Y-78028316D01*
X159358148Y-78105725D01*
X159396853Y-78144430D01*
X159474262Y-78183135D01*
X159706491Y-78183135D01*
X159783900Y-78144430D01*
X159822605Y-78105725D01*
X159048510Y-77370335D02*
X158545348Y-77370335D01*
X158816281Y-77679973D01*
X158700167Y-77679973D01*
X158622758Y-77718678D01*
X158584053Y-77757382D01*
X158545348Y-77834792D01*
X158545348Y-78028316D01*
X158584053Y-78105725D01*
X158622758Y-78144430D01*
X158700167Y-78183135D01*
X158932396Y-78183135D01*
X159009805Y-78144430D01*
X159048510Y-78105725D01*
D12*
X153698200Y-78245673D02*
X153222010Y-77912340D01*
X153698200Y-77674244D02*
X152698200Y-77674244D01*
X152698200Y-78055197D01*
X152745820Y-78150435D01*
X152793439Y-78198054D01*
X152888677Y-78245673D01*
X153031534Y-78245673D01*
X153126772Y-78198054D01*
X153174391Y-78150435D01*
X153222010Y-78055197D01*
X153222010Y-77674244D01*
X153126772Y-78817101D02*
X153079153Y-78721863D01*
X153031534Y-78674244D01*
X152936296Y-78626625D01*
X152888677Y-78626625D01*
X152793439Y-78674244D01*
X152745820Y-78721863D01*
X152698200Y-78817101D01*
X152698200Y-79007578D01*
X152745820Y-79102816D01*
X152793439Y-79150435D01*
X152888677Y-79198054D01*
X152936296Y-79198054D01*
X153031534Y-79150435D01*
X153079153Y-79102816D01*
X153126772Y-79007578D01*
X153126772Y-78817101D01*
X153174391Y-78721863D01*
X153222010Y-78674244D01*
X153317248Y-78626625D01*
X153507724Y-78626625D01*
X153602962Y-78674244D01*
X153650581Y-78721863D01*
X153698200Y-78817101D01*
X153698200Y-79007578D01*
X153650581Y-79102816D01*
X153602962Y-79150435D01*
X153507724Y-79198054D01*
X153317248Y-79198054D01*
X153222010Y-79150435D01*
X153174391Y-79102816D01*
X153126772Y-79007578D01*
X167671580Y-120253285D02*
X167671580Y-120824714D01*
X168671580Y-120539000D02*
X167671580Y-120539000D01*
X168671580Y-121158047D02*
X167671580Y-121158047D01*
X168147771Y-121158047D02*
X168147771Y-121729476D01*
X168671580Y-121729476D02*
X167671580Y-121729476D01*
X167766819Y-122158047D02*
X167719200Y-122205666D01*
X167671580Y-122300904D01*
X167671580Y-122539000D01*
X167719200Y-122634238D01*
X167766819Y-122681857D01*
X167862057Y-122729476D01*
X167957295Y-122729476D01*
X168100152Y-122681857D01*
X168671580Y-122110428D01*
X168671580Y-122729476D01*
X158841022Y-102337893D02*
X158888641Y-102290274D01*
X158936260Y-102147417D01*
X158936260Y-102052179D01*
X158888641Y-101909321D01*
X158793403Y-101814083D01*
X158698165Y-101766464D01*
X158507689Y-101718845D01*
X158364832Y-101718845D01*
X158174356Y-101766464D01*
X158079118Y-101814083D01*
X157983880Y-101909321D01*
X157936260Y-102052179D01*
X157936260Y-102147417D01*
X157983880Y-102290274D01*
X158031499Y-102337893D01*
X157936260Y-103242655D02*
X157936260Y-102766464D01*
X158412451Y-102718845D01*
X158364832Y-102766464D01*
X158317213Y-102861702D01*
X158317213Y-103099798D01*
X158364832Y-103195036D01*
X158412451Y-103242655D01*
X158507689Y-103290274D01*
X158745784Y-103290274D01*
X158841022Y-103242655D01*
X158888641Y-103195036D01*
X158936260Y-103099798D01*
X158936260Y-102861702D01*
X158888641Y-102766464D01*
X158841022Y-102718845D01*
X166202620Y-74923424D02*
X165202620Y-74923424D01*
X165202620Y-75161520D01*
X165250240Y-75304377D01*
X165345478Y-75399615D01*
X165440716Y-75447234D01*
X165631192Y-75494853D01*
X165774049Y-75494853D01*
X165964525Y-75447234D01*
X166059763Y-75399615D01*
X166155001Y-75304377D01*
X166202620Y-75161520D01*
X166202620Y-74923424D01*
X165202620Y-76351996D02*
X165202620Y-76161520D01*
X165250240Y-76066281D01*
X165297859Y-76018662D01*
X165440716Y-75923424D01*
X165631192Y-75875805D01*
X166012144Y-75875805D01*
X166107382Y-75923424D01*
X166155001Y-75971043D01*
X166202620Y-76066281D01*
X166202620Y-76256758D01*
X166155001Y-76351996D01*
X166107382Y-76399615D01*
X166012144Y-76447234D01*
X165774049Y-76447234D01*
X165678811Y-76399615D01*
X165631192Y-76351996D01*
X165583573Y-76256758D01*
X165583573Y-76066281D01*
X165631192Y-75971043D01*
X165678811Y-75923424D01*
X165774049Y-75875805D01*
X152238380Y-120405685D02*
X152238380Y-120977114D01*
X153238380Y-120691400D02*
X152238380Y-120691400D01*
X153238380Y-121310447D02*
X152238380Y-121310447D01*
X152714571Y-121310447D02*
X152714571Y-121881876D01*
X153238380Y-121881876D02*
X152238380Y-121881876D01*
X153238380Y-122881876D02*
X153238380Y-122310447D01*
X153238380Y-122596161D02*
X152238380Y-122596161D01*
X152381238Y-122500923D01*
X152476476Y-122405685D01*
X152524095Y-122310447D01*
X157176766Y-123695720D02*
X157510100Y-123219530D01*
X157748195Y-123695720D02*
X157748195Y-122695720D01*
X157367242Y-122695720D01*
X157272004Y-122743340D01*
X157224385Y-122790959D01*
X157176766Y-122886197D01*
X157176766Y-123029054D01*
X157224385Y-123124292D01*
X157272004Y-123171911D01*
X157367242Y-123219530D01*
X157748195Y-123219530D01*
X156795814Y-122790959D02*
X156748195Y-122743340D01*
X156652957Y-122695720D01*
X156414861Y-122695720D01*
X156319623Y-122743340D01*
X156272004Y-122790959D01*
X156224385Y-122886197D01*
X156224385Y-122981435D01*
X156272004Y-123124292D01*
X156843433Y-123695720D01*
X156224385Y-123695720D01*
X155419062Y-75444053D02*
X155466681Y-75396434D01*
X155514300Y-75253577D01*
X155514300Y-75158339D01*
X155466681Y-75015481D01*
X155371443Y-74920243D01*
X155276205Y-74872624D01*
X155085729Y-74825005D01*
X154942872Y-74825005D01*
X154752396Y-74872624D01*
X154657158Y-74920243D01*
X154561920Y-75015481D01*
X154514300Y-75158339D01*
X154514300Y-75253577D01*
X154561920Y-75396434D01*
X154609539Y-75444053D01*
X154942872Y-76015481D02*
X154895253Y-75920243D01*
X154847634Y-75872624D01*
X154752396Y-75825005D01*
X154704777Y-75825005D01*
X154609539Y-75872624D01*
X154561920Y-75920243D01*
X154514300Y-76015481D01*
X154514300Y-76205958D01*
X154561920Y-76301196D01*
X154609539Y-76348815D01*
X154704777Y-76396434D01*
X154752396Y-76396434D01*
X154847634Y-76348815D01*
X154895253Y-76301196D01*
X154942872Y-76205958D01*
X154942872Y-76015481D01*
X154990491Y-75920243D01*
X155038110Y-75872624D01*
X155133348Y-75825005D01*
X155323824Y-75825005D01*
X155419062Y-75872624D01*
X155466681Y-75920243D01*
X155514300Y-76015481D01*
X155514300Y-76205958D01*
X155466681Y-76301196D01*
X155419062Y-76348815D01*
X155323824Y-76396434D01*
X155133348Y-76396434D01*
X155038110Y-76348815D01*
X154990491Y-76301196D01*
X154942872Y-76205958D01*
X163779180Y-113055495D02*
X164588704Y-113055495D01*
X164683942Y-113103114D01*
X164731561Y-113150733D01*
X164779180Y-113245971D01*
X164779180Y-113436447D01*
X164731561Y-113531685D01*
X164683942Y-113579304D01*
X164588704Y-113626923D01*
X163779180Y-113626923D01*
X163874419Y-114055495D02*
X163826800Y-114103114D01*
X163779180Y-114198352D01*
X163779180Y-114436447D01*
X163826800Y-114531685D01*
X163874419Y-114579304D01*
X163969657Y-114626923D01*
X164064895Y-114626923D01*
X164207752Y-114579304D01*
X164779180Y-114007876D01*
X164779180Y-114626923D01*
X128403622Y-90369093D02*
X128451241Y-90321474D01*
X128498860Y-90178617D01*
X128498860Y-90083379D01*
X128451241Y-89940521D01*
X128356003Y-89845283D01*
X128260765Y-89797664D01*
X128070289Y-89750045D01*
X127927432Y-89750045D01*
X127736956Y-89797664D01*
X127641718Y-89845283D01*
X127546480Y-89940521D01*
X127498860Y-90083379D01*
X127498860Y-90178617D01*
X127546480Y-90321474D01*
X127594099Y-90369093D01*
X128498860Y-91321474D02*
X128498860Y-90750045D01*
X128498860Y-91035760D02*
X127498860Y-91035760D01*
X127641718Y-90940521D01*
X127736956Y-90845283D01*
X127784575Y-90750045D01*
X130379742Y-66711533D02*
X130427361Y-66663914D01*
X130474980Y-66521057D01*
X130474980Y-66425819D01*
X130427361Y-66282961D01*
X130332123Y-66187723D01*
X130236885Y-66140104D01*
X130046409Y-66092485D01*
X129903552Y-66092485D01*
X129713076Y-66140104D01*
X129617838Y-66187723D01*
X129522600Y-66282961D01*
X129474980Y-66425819D01*
X129474980Y-66521057D01*
X129522600Y-66663914D01*
X129570219Y-66711533D01*
X129474980Y-67568676D02*
X129474980Y-67378200D01*
X129522600Y-67282961D01*
X129570219Y-67235342D01*
X129713076Y-67140104D01*
X129903552Y-67092485D01*
X130284504Y-67092485D01*
X130379742Y-67140104D01*
X130427361Y-67187723D01*
X130474980Y-67282961D01*
X130474980Y-67473438D01*
X130427361Y-67568676D01*
X130379742Y-67616295D01*
X130284504Y-67663914D01*
X130046409Y-67663914D01*
X129951171Y-67616295D01*
X129903552Y-67568676D01*
X129855933Y-67473438D01*
X129855933Y-67282961D01*
X129903552Y-67187723D01*
X129951171Y-67140104D01*
X130046409Y-67092485D01*
X141555742Y-66574373D02*
X141603361Y-66526754D01*
X141650980Y-66383897D01*
X141650980Y-66288659D01*
X141603361Y-66145801D01*
X141508123Y-66050563D01*
X141412885Y-66002944D01*
X141222409Y-65955325D01*
X141079552Y-65955325D01*
X140889076Y-66002944D01*
X140793838Y-66050563D01*
X140698600Y-66145801D01*
X140650980Y-66288659D01*
X140650980Y-66383897D01*
X140698600Y-66526754D01*
X140746219Y-66574373D01*
X140650980Y-66907706D02*
X140650980Y-67574373D01*
X141650980Y-67145801D01*
X128450600Y-115842824D02*
X127450600Y-115842824D01*
X127450600Y-116080920D01*
X127498220Y-116223777D01*
X127593458Y-116319015D01*
X127688696Y-116366634D01*
X127879172Y-116414253D01*
X128022029Y-116414253D01*
X128212505Y-116366634D01*
X128307743Y-116319015D01*
X128402981Y-116223777D01*
X128450600Y-116080920D01*
X128450600Y-115842824D01*
X127450600Y-117319015D02*
X127450600Y-116842824D01*
X127926791Y-116795205D01*
X127879172Y-116842824D01*
X127831553Y-116938062D01*
X127831553Y-117176158D01*
X127879172Y-117271396D01*
X127926791Y-117319015D01*
X128022029Y-117366634D01*
X128260124Y-117366634D01*
X128355362Y-117319015D01*
X128402981Y-117271396D01*
X128450600Y-117176158D01*
X128450600Y-116938062D01*
X128402981Y-116842824D01*
X128355362Y-116795205D01*
X135993166Y-84644502D02*
X136040785Y-84692121D01*
X136183642Y-84739740D01*
X136278880Y-84739740D01*
X136421738Y-84692121D01*
X136516976Y-84596883D01*
X136564595Y-84501645D01*
X136612214Y-84311169D01*
X136612214Y-84168312D01*
X136564595Y-83977836D01*
X136516976Y-83882598D01*
X136421738Y-83787360D01*
X136278880Y-83739740D01*
X136183642Y-83739740D01*
X136040785Y-83787360D01*
X135993166Y-83834979D01*
X135516976Y-84739740D02*
X135326500Y-84739740D01*
X135231261Y-84692121D01*
X135183642Y-84644502D01*
X135088404Y-84501645D01*
X135040785Y-84311169D01*
X135040785Y-83930217D01*
X135088404Y-83834979D01*
X135136023Y-83787360D01*
X135231261Y-83739740D01*
X135421738Y-83739740D01*
X135516976Y-83787360D01*
X135564595Y-83834979D01*
X135612214Y-83930217D01*
X135612214Y-84168312D01*
X135564595Y-84263550D01*
X135516976Y-84311169D01*
X135421738Y-84358788D01*
X135231261Y-84358788D01*
X135136023Y-84311169D01*
X135088404Y-84263550D01*
X135040785Y-84168312D01*
X132881666Y-120330220D02*
X133215000Y-119854030D01*
X133453095Y-120330220D02*
X133453095Y-119330220D01*
X133072142Y-119330220D01*
X132976904Y-119377840D01*
X132929285Y-119425459D01*
X132881666Y-119520697D01*
X132881666Y-119663554D01*
X132929285Y-119758792D01*
X132976904Y-119806411D01*
X133072142Y-119854030D01*
X133453095Y-119854030D01*
X131929285Y-120330220D02*
X132500714Y-120330220D01*
X132215000Y-120330220D02*
X132215000Y-119330220D01*
X132310238Y-119473078D01*
X132405476Y-119568316D01*
X132500714Y-119615935D01*
X140829326Y-97256182D02*
X140876945Y-97303801D01*
X141019802Y-97351420D01*
X141115040Y-97351420D01*
X141257898Y-97303801D01*
X141353136Y-97208563D01*
X141400755Y-97113325D01*
X141448374Y-96922849D01*
X141448374Y-96779992D01*
X141400755Y-96589516D01*
X141353136Y-96494278D01*
X141257898Y-96399040D01*
X141115040Y-96351420D01*
X141019802Y-96351420D01*
X140876945Y-96399040D01*
X140829326Y-96446659D01*
X140448374Y-96446659D02*
X140400755Y-96399040D01*
X140305517Y-96351420D01*
X140067421Y-96351420D01*
X139972183Y-96399040D01*
X139924564Y-96446659D01*
X139876945Y-96541897D01*
X139876945Y-96637135D01*
X139924564Y-96779992D01*
X140495993Y-97351420D01*
X139876945Y-97351420D01*
D15*
X136585476Y-73227595D02*
X136585476Y-73885576D01*
X136546771Y-73962985D01*
X136508066Y-74001690D01*
X136430657Y-74040395D01*
X136275838Y-74040395D01*
X136198428Y-74001690D01*
X136159723Y-73962985D01*
X136121019Y-73885576D01*
X136121019Y-73227595D01*
X135811380Y-73227595D02*
X135308219Y-73227595D01*
X135579152Y-73537233D01*
X135463038Y-73537233D01*
X135385628Y-73575938D01*
X135346923Y-73614642D01*
X135308219Y-73692052D01*
X135308219Y-73885576D01*
X135346923Y-73962985D01*
X135385628Y-74001690D01*
X135463038Y-74040395D01*
X135695266Y-74040395D01*
X135772676Y-74001690D01*
X135811380Y-73962985D01*
X136368971Y-70188666D02*
X135981923Y-70188666D01*
X136446380Y-70420895D02*
X136175447Y-69608095D01*
X135904514Y-70420895D01*
X135633580Y-70420895D02*
X135633580Y-69608095D01*
X135323942Y-69608095D01*
X135246533Y-69646800D01*
X135207828Y-69685504D01*
X135169123Y-69762914D01*
X135169123Y-69879028D01*
X135207828Y-69956438D01*
X135246533Y-69995142D01*
X135323942Y-70033847D01*
X135633580Y-70033847D01*
X134395028Y-70420895D02*
X134859485Y-70420895D01*
X134627257Y-70420895D02*
X134627257Y-69608095D01*
X134704666Y-69724209D01*
X134782076Y-69801619D01*
X134859485Y-69840323D01*
X133620933Y-70420895D02*
X134085390Y-70420895D01*
X133853161Y-70420895D02*
X133853161Y-69608095D01*
X133930571Y-69724209D01*
X134007980Y-69801619D01*
X134085390Y-69840323D01*
X132846838Y-70420895D02*
X133311295Y-70420895D01*
X133079066Y-70420895D02*
X133079066Y-69608095D01*
X133156476Y-69724209D01*
X133233885Y-69801619D01*
X133311295Y-69840323D01*
X132575904Y-69608095D02*
X132034038Y-69608095D01*
X132382380Y-70420895D01*
X131724400Y-70111257D02*
X131105123Y-70111257D01*
X130331028Y-69608095D02*
X130718076Y-69608095D01*
X130756780Y-69995142D01*
X130718076Y-69956438D01*
X130640666Y-69917733D01*
X130447142Y-69917733D01*
X130369733Y-69956438D01*
X130331028Y-69995142D01*
X130292323Y-70072552D01*
X130292323Y-70266076D01*
X130331028Y-70343485D01*
X130369733Y-70382190D01*
X130447142Y-70420895D01*
X130640666Y-70420895D01*
X130718076Y-70382190D01*
X130756780Y-70343485D01*
X129789161Y-69608095D02*
X129711752Y-69608095D01*
X129634342Y-69646800D01*
X129595638Y-69685504D01*
X129556933Y-69762914D01*
X129518228Y-69917733D01*
X129518228Y-70111257D01*
X129556933Y-70266076D01*
X129595638Y-70343485D01*
X129634342Y-70382190D01*
X129711752Y-70420895D01*
X129789161Y-70420895D01*
X129866571Y-70382190D01*
X129905276Y-70343485D01*
X129943980Y-70266076D01*
X129982685Y-70111257D01*
X129982685Y-69917733D01*
X129943980Y-69762914D01*
X129905276Y-69685504D01*
X129866571Y-69646800D01*
X129789161Y-69608095D01*
X136534676Y-81952495D02*
X136534676Y-82610476D01*
X136495971Y-82687885D01*
X136457266Y-82726590D01*
X136379857Y-82765295D01*
X136225038Y-82765295D01*
X136147628Y-82726590D01*
X136108923Y-82687885D01*
X136070219Y-82610476D01*
X136070219Y-81952495D01*
X135334828Y-82223428D02*
X135334828Y-82765295D01*
X135528352Y-81913790D02*
X135721876Y-82494361D01*
X135218714Y-82494361D01*
X141012091Y-77950906D02*
X140625043Y-77950906D01*
X141089500Y-78183135D02*
X140818567Y-77370335D01*
X140547634Y-78183135D01*
X140276700Y-78183135D02*
X140276700Y-77370335D01*
X139967062Y-77370335D01*
X139889653Y-77409040D01*
X139850948Y-77447744D01*
X139812243Y-77525154D01*
X139812243Y-77641268D01*
X139850948Y-77718678D01*
X139889653Y-77757382D01*
X139967062Y-77796087D01*
X140276700Y-77796087D01*
X139038148Y-78183135D02*
X139502605Y-78183135D01*
X139270377Y-78183135D02*
X139270377Y-77370335D01*
X139347786Y-77486449D01*
X139425196Y-77563859D01*
X139502605Y-77602563D01*
X138264053Y-78183135D02*
X138728510Y-78183135D01*
X138496281Y-78183135D02*
X138496281Y-77370335D01*
X138573691Y-77486449D01*
X138651100Y-77563859D01*
X138728510Y-77602563D01*
X137489958Y-78183135D02*
X137954415Y-78183135D01*
X137722186Y-78183135D02*
X137722186Y-77370335D01*
X137799596Y-77486449D01*
X137877005Y-77563859D01*
X137954415Y-77602563D01*
X137219024Y-77370335D02*
X136677158Y-77370335D01*
X137025500Y-78183135D01*
X136367520Y-77873497D02*
X135748243Y-77873497D01*
X135438605Y-77370335D02*
X134935443Y-77370335D01*
X135206377Y-77679973D01*
X135090262Y-77679973D01*
X135012853Y-77718678D01*
X134974148Y-77757382D01*
X134935443Y-77834792D01*
X134935443Y-78028316D01*
X134974148Y-78105725D01*
X135012853Y-78144430D01*
X135090262Y-78183135D01*
X135322491Y-78183135D01*
X135399900Y-78144430D01*
X135438605Y-78105725D01*
X134664510Y-77370335D02*
X134161348Y-77370335D01*
X134432281Y-77679973D01*
X134316167Y-77679973D01*
X134238758Y-77718678D01*
X134200053Y-77757382D01*
X134161348Y-77834792D01*
X134161348Y-78028316D01*
X134200053Y-78105725D01*
X134238758Y-78144430D01*
X134316167Y-78183135D01*
X134548396Y-78183135D01*
X134625805Y-78144430D01*
X134664510Y-78105725D01*
D12*
X129314200Y-78245673D02*
X128838010Y-77912340D01*
X129314200Y-77674244D02*
X128314200Y-77674244D01*
X128314200Y-78055197D01*
X128361820Y-78150435D01*
X128409439Y-78198054D01*
X128504677Y-78245673D01*
X128647534Y-78245673D01*
X128742772Y-78198054D01*
X128790391Y-78150435D01*
X128838010Y-78055197D01*
X128838010Y-77674244D01*
X128742772Y-78817101D02*
X128695153Y-78721863D01*
X128647534Y-78674244D01*
X128552296Y-78626625D01*
X128504677Y-78626625D01*
X128409439Y-78674244D01*
X128361820Y-78721863D01*
X128314200Y-78817101D01*
X128314200Y-79007578D01*
X128361820Y-79102816D01*
X128409439Y-79150435D01*
X128504677Y-79198054D01*
X128552296Y-79198054D01*
X128647534Y-79150435D01*
X128695153Y-79102816D01*
X128742772Y-79007578D01*
X128742772Y-78817101D01*
X128790391Y-78721863D01*
X128838010Y-78674244D01*
X128933248Y-78626625D01*
X129123724Y-78626625D01*
X129218962Y-78674244D01*
X129266581Y-78721863D01*
X129314200Y-78817101D01*
X129314200Y-79007578D01*
X129266581Y-79102816D01*
X129218962Y-79150435D01*
X129123724Y-79198054D01*
X128933248Y-79198054D01*
X128838010Y-79150435D01*
X128790391Y-79102816D01*
X128742772Y-79007578D01*
X143287580Y-120253285D02*
X143287580Y-120824714D01*
X144287580Y-120539000D02*
X143287580Y-120539000D01*
X144287580Y-121158047D02*
X143287580Y-121158047D01*
X143763771Y-121158047D02*
X143763771Y-121729476D01*
X144287580Y-121729476D02*
X143287580Y-121729476D01*
X143382819Y-122158047D02*
X143335200Y-122205666D01*
X143287580Y-122300904D01*
X143287580Y-122539000D01*
X143335200Y-122634238D01*
X143382819Y-122681857D01*
X143478057Y-122729476D01*
X143573295Y-122729476D01*
X143716152Y-122681857D01*
X144287580Y-122110428D01*
X144287580Y-122729476D01*
X134457022Y-102337893D02*
X134504641Y-102290274D01*
X134552260Y-102147417D01*
X134552260Y-102052179D01*
X134504641Y-101909321D01*
X134409403Y-101814083D01*
X134314165Y-101766464D01*
X134123689Y-101718845D01*
X133980832Y-101718845D01*
X133790356Y-101766464D01*
X133695118Y-101814083D01*
X133599880Y-101909321D01*
X133552260Y-102052179D01*
X133552260Y-102147417D01*
X133599880Y-102290274D01*
X133647499Y-102337893D01*
X133552260Y-103242655D02*
X133552260Y-102766464D01*
X134028451Y-102718845D01*
X133980832Y-102766464D01*
X133933213Y-102861702D01*
X133933213Y-103099798D01*
X133980832Y-103195036D01*
X134028451Y-103242655D01*
X134123689Y-103290274D01*
X134361784Y-103290274D01*
X134457022Y-103242655D01*
X134504641Y-103195036D01*
X134552260Y-103099798D01*
X134552260Y-102861702D01*
X134504641Y-102766464D01*
X134457022Y-102718845D01*
X141818620Y-74923424D02*
X140818620Y-74923424D01*
X140818620Y-75161520D01*
X140866240Y-75304377D01*
X140961478Y-75399615D01*
X141056716Y-75447234D01*
X141247192Y-75494853D01*
X141390049Y-75494853D01*
X141580525Y-75447234D01*
X141675763Y-75399615D01*
X141771001Y-75304377D01*
X141818620Y-75161520D01*
X141818620Y-74923424D01*
X140818620Y-76351996D02*
X140818620Y-76161520D01*
X140866240Y-76066281D01*
X140913859Y-76018662D01*
X141056716Y-75923424D01*
X141247192Y-75875805D01*
X141628144Y-75875805D01*
X141723382Y-75923424D01*
X141771001Y-75971043D01*
X141818620Y-76066281D01*
X141818620Y-76256758D01*
X141771001Y-76351996D01*
X141723382Y-76399615D01*
X141628144Y-76447234D01*
X141390049Y-76447234D01*
X141294811Y-76399615D01*
X141247192Y-76351996D01*
X141199573Y-76256758D01*
X141199573Y-76066281D01*
X141247192Y-75971043D01*
X141294811Y-75923424D01*
X141390049Y-75875805D01*
X127854380Y-120405685D02*
X127854380Y-120977114D01*
X128854380Y-120691400D02*
X127854380Y-120691400D01*
X128854380Y-121310447D02*
X127854380Y-121310447D01*
X128330571Y-121310447D02*
X128330571Y-121881876D01*
X128854380Y-121881876D02*
X127854380Y-121881876D01*
X128854380Y-122881876D02*
X128854380Y-122310447D01*
X128854380Y-122596161D02*
X127854380Y-122596161D01*
X127997238Y-122500923D01*
X128092476Y-122405685D01*
X128140095Y-122310447D01*
X132792766Y-123695720D02*
X133126100Y-123219530D01*
X133364195Y-123695720D02*
X133364195Y-122695720D01*
X132983242Y-122695720D01*
X132888004Y-122743340D01*
X132840385Y-122790959D01*
X132792766Y-122886197D01*
X132792766Y-123029054D01*
X132840385Y-123124292D01*
X132888004Y-123171911D01*
X132983242Y-123219530D01*
X133364195Y-123219530D01*
X132411814Y-122790959D02*
X132364195Y-122743340D01*
X132268957Y-122695720D01*
X132030861Y-122695720D01*
X131935623Y-122743340D01*
X131888004Y-122790959D01*
X131840385Y-122886197D01*
X131840385Y-122981435D01*
X131888004Y-123124292D01*
X132459433Y-123695720D01*
X131840385Y-123695720D01*
X131035062Y-75444053D02*
X131082681Y-75396434D01*
X131130300Y-75253577D01*
X131130300Y-75158339D01*
X131082681Y-75015481D01*
X130987443Y-74920243D01*
X130892205Y-74872624D01*
X130701729Y-74825005D01*
X130558872Y-74825005D01*
X130368396Y-74872624D01*
X130273158Y-74920243D01*
X130177920Y-75015481D01*
X130130300Y-75158339D01*
X130130300Y-75253577D01*
X130177920Y-75396434D01*
X130225539Y-75444053D01*
X130558872Y-76015481D02*
X130511253Y-75920243D01*
X130463634Y-75872624D01*
X130368396Y-75825005D01*
X130320777Y-75825005D01*
X130225539Y-75872624D01*
X130177920Y-75920243D01*
X130130300Y-76015481D01*
X130130300Y-76205958D01*
X130177920Y-76301196D01*
X130225539Y-76348815D01*
X130320777Y-76396434D01*
X130368396Y-76396434D01*
X130463634Y-76348815D01*
X130511253Y-76301196D01*
X130558872Y-76205958D01*
X130558872Y-76015481D01*
X130606491Y-75920243D01*
X130654110Y-75872624D01*
X130749348Y-75825005D01*
X130939824Y-75825005D01*
X131035062Y-75872624D01*
X131082681Y-75920243D01*
X131130300Y-76015481D01*
X131130300Y-76205958D01*
X131082681Y-76301196D01*
X131035062Y-76348815D01*
X130939824Y-76396434D01*
X130749348Y-76396434D01*
X130654110Y-76348815D01*
X130606491Y-76301196D01*
X130558872Y-76205958D01*
X139395180Y-113055495D02*
X140204704Y-113055495D01*
X140299942Y-113103114D01*
X140347561Y-113150733D01*
X140395180Y-113245971D01*
X140395180Y-113436447D01*
X140347561Y-113531685D01*
X140299942Y-113579304D01*
X140204704Y-113626923D01*
X139395180Y-113626923D01*
X139490419Y-114055495D02*
X139442800Y-114103114D01*
X139395180Y-114198352D01*
X139395180Y-114436447D01*
X139442800Y-114531685D01*
X139490419Y-114579304D01*
X139585657Y-114626923D01*
X139680895Y-114626923D01*
X139823752Y-114579304D01*
X140395180Y-114007876D01*
X140395180Y-114626923D01*
X104019622Y-90369093D02*
X104067241Y-90321474D01*
X104114860Y-90178617D01*
X104114860Y-90083379D01*
X104067241Y-89940521D01*
X103972003Y-89845283D01*
X103876765Y-89797664D01*
X103686289Y-89750045D01*
X103543432Y-89750045D01*
X103352956Y-89797664D01*
X103257718Y-89845283D01*
X103162480Y-89940521D01*
X103114860Y-90083379D01*
X103114860Y-90178617D01*
X103162480Y-90321474D01*
X103210099Y-90369093D01*
X104114860Y-91321474D02*
X104114860Y-90750045D01*
X104114860Y-91035760D02*
X103114860Y-91035760D01*
X103257718Y-90940521D01*
X103352956Y-90845283D01*
X103400575Y-90750045D01*
X105995742Y-66711533D02*
X106043361Y-66663914D01*
X106090980Y-66521057D01*
X106090980Y-66425819D01*
X106043361Y-66282961D01*
X105948123Y-66187723D01*
X105852885Y-66140104D01*
X105662409Y-66092485D01*
X105519552Y-66092485D01*
X105329076Y-66140104D01*
X105233838Y-66187723D01*
X105138600Y-66282961D01*
X105090980Y-66425819D01*
X105090980Y-66521057D01*
X105138600Y-66663914D01*
X105186219Y-66711533D01*
X105090980Y-67568676D02*
X105090980Y-67378200D01*
X105138600Y-67282961D01*
X105186219Y-67235342D01*
X105329076Y-67140104D01*
X105519552Y-67092485D01*
X105900504Y-67092485D01*
X105995742Y-67140104D01*
X106043361Y-67187723D01*
X106090980Y-67282961D01*
X106090980Y-67473438D01*
X106043361Y-67568676D01*
X105995742Y-67616295D01*
X105900504Y-67663914D01*
X105662409Y-67663914D01*
X105567171Y-67616295D01*
X105519552Y-67568676D01*
X105471933Y-67473438D01*
X105471933Y-67282961D01*
X105519552Y-67187723D01*
X105567171Y-67140104D01*
X105662409Y-67092485D01*
X117171742Y-66574373D02*
X117219361Y-66526754D01*
X117266980Y-66383897D01*
X117266980Y-66288659D01*
X117219361Y-66145801D01*
X117124123Y-66050563D01*
X117028885Y-66002944D01*
X116838409Y-65955325D01*
X116695552Y-65955325D01*
X116505076Y-66002944D01*
X116409838Y-66050563D01*
X116314600Y-66145801D01*
X116266980Y-66288659D01*
X116266980Y-66383897D01*
X116314600Y-66526754D01*
X116362219Y-66574373D01*
X116266980Y-66907706D02*
X116266980Y-67574373D01*
X117266980Y-67145801D01*
X104066600Y-115842824D02*
X103066600Y-115842824D01*
X103066600Y-116080920D01*
X103114220Y-116223777D01*
X103209458Y-116319015D01*
X103304696Y-116366634D01*
X103495172Y-116414253D01*
X103638029Y-116414253D01*
X103828505Y-116366634D01*
X103923743Y-116319015D01*
X104018981Y-116223777D01*
X104066600Y-116080920D01*
X104066600Y-115842824D01*
X103066600Y-117319015D02*
X103066600Y-116842824D01*
X103542791Y-116795205D01*
X103495172Y-116842824D01*
X103447553Y-116938062D01*
X103447553Y-117176158D01*
X103495172Y-117271396D01*
X103542791Y-117319015D01*
X103638029Y-117366634D01*
X103876124Y-117366634D01*
X103971362Y-117319015D01*
X104018981Y-117271396D01*
X104066600Y-117176158D01*
X104066600Y-116938062D01*
X104018981Y-116842824D01*
X103971362Y-116795205D01*
X111609166Y-84644502D02*
X111656785Y-84692121D01*
X111799642Y-84739740D01*
X111894880Y-84739740D01*
X112037738Y-84692121D01*
X112132976Y-84596883D01*
X112180595Y-84501645D01*
X112228214Y-84311169D01*
X112228214Y-84168312D01*
X112180595Y-83977836D01*
X112132976Y-83882598D01*
X112037738Y-83787360D01*
X111894880Y-83739740D01*
X111799642Y-83739740D01*
X111656785Y-83787360D01*
X111609166Y-83834979D01*
X111132976Y-84739740D02*
X110942500Y-84739740D01*
X110847261Y-84692121D01*
X110799642Y-84644502D01*
X110704404Y-84501645D01*
X110656785Y-84311169D01*
X110656785Y-83930217D01*
X110704404Y-83834979D01*
X110752023Y-83787360D01*
X110847261Y-83739740D01*
X111037738Y-83739740D01*
X111132976Y-83787360D01*
X111180595Y-83834979D01*
X111228214Y-83930217D01*
X111228214Y-84168312D01*
X111180595Y-84263550D01*
X111132976Y-84311169D01*
X111037738Y-84358788D01*
X110847261Y-84358788D01*
X110752023Y-84311169D01*
X110704404Y-84263550D01*
X110656785Y-84168312D01*
X108497666Y-120330220D02*
X108831000Y-119854030D01*
X109069095Y-120330220D02*
X109069095Y-119330220D01*
X108688142Y-119330220D01*
X108592904Y-119377840D01*
X108545285Y-119425459D01*
X108497666Y-119520697D01*
X108497666Y-119663554D01*
X108545285Y-119758792D01*
X108592904Y-119806411D01*
X108688142Y-119854030D01*
X109069095Y-119854030D01*
X107545285Y-120330220D02*
X108116714Y-120330220D01*
X107831000Y-120330220D02*
X107831000Y-119330220D01*
X107926238Y-119473078D01*
X108021476Y-119568316D01*
X108116714Y-119615935D01*
X116445326Y-97256182D02*
X116492945Y-97303801D01*
X116635802Y-97351420D01*
X116731040Y-97351420D01*
X116873898Y-97303801D01*
X116969136Y-97208563D01*
X117016755Y-97113325D01*
X117064374Y-96922849D01*
X117064374Y-96779992D01*
X117016755Y-96589516D01*
X116969136Y-96494278D01*
X116873898Y-96399040D01*
X116731040Y-96351420D01*
X116635802Y-96351420D01*
X116492945Y-96399040D01*
X116445326Y-96446659D01*
X116064374Y-96446659D02*
X116016755Y-96399040D01*
X115921517Y-96351420D01*
X115683421Y-96351420D01*
X115588183Y-96399040D01*
X115540564Y-96446659D01*
X115492945Y-96541897D01*
X115492945Y-96637135D01*
X115540564Y-96779992D01*
X116111993Y-97351420D01*
X115492945Y-97351420D01*
D15*
X112201476Y-73227595D02*
X112201476Y-73885576D01*
X112162771Y-73962985D01*
X112124066Y-74001690D01*
X112046657Y-74040395D01*
X111891838Y-74040395D01*
X111814428Y-74001690D01*
X111775723Y-73962985D01*
X111737019Y-73885576D01*
X111737019Y-73227595D01*
X111427380Y-73227595D02*
X110924219Y-73227595D01*
X111195152Y-73537233D01*
X111079038Y-73537233D01*
X111001628Y-73575938D01*
X110962923Y-73614642D01*
X110924219Y-73692052D01*
X110924219Y-73885576D01*
X110962923Y-73962985D01*
X111001628Y-74001690D01*
X111079038Y-74040395D01*
X111311266Y-74040395D01*
X111388676Y-74001690D01*
X111427380Y-73962985D01*
X111984971Y-70188666D02*
X111597923Y-70188666D01*
X112062380Y-70420895D02*
X111791447Y-69608095D01*
X111520514Y-70420895D01*
X111249580Y-70420895D02*
X111249580Y-69608095D01*
X110939942Y-69608095D01*
X110862533Y-69646800D01*
X110823828Y-69685504D01*
X110785123Y-69762914D01*
X110785123Y-69879028D01*
X110823828Y-69956438D01*
X110862533Y-69995142D01*
X110939942Y-70033847D01*
X111249580Y-70033847D01*
X110011028Y-70420895D02*
X110475485Y-70420895D01*
X110243257Y-70420895D02*
X110243257Y-69608095D01*
X110320666Y-69724209D01*
X110398076Y-69801619D01*
X110475485Y-69840323D01*
X109236933Y-70420895D02*
X109701390Y-70420895D01*
X109469161Y-70420895D02*
X109469161Y-69608095D01*
X109546571Y-69724209D01*
X109623980Y-69801619D01*
X109701390Y-69840323D01*
X108462838Y-70420895D02*
X108927295Y-70420895D01*
X108695066Y-70420895D02*
X108695066Y-69608095D01*
X108772476Y-69724209D01*
X108849885Y-69801619D01*
X108927295Y-69840323D01*
X108191904Y-69608095D02*
X107650038Y-69608095D01*
X107998380Y-70420895D01*
X107340400Y-70111257D02*
X106721123Y-70111257D01*
X105947028Y-69608095D02*
X106334076Y-69608095D01*
X106372780Y-69995142D01*
X106334076Y-69956438D01*
X106256666Y-69917733D01*
X106063142Y-69917733D01*
X105985733Y-69956438D01*
X105947028Y-69995142D01*
X105908323Y-70072552D01*
X105908323Y-70266076D01*
X105947028Y-70343485D01*
X105985733Y-70382190D01*
X106063142Y-70420895D01*
X106256666Y-70420895D01*
X106334076Y-70382190D01*
X106372780Y-70343485D01*
X105405161Y-69608095D02*
X105327752Y-69608095D01*
X105250342Y-69646800D01*
X105211638Y-69685504D01*
X105172933Y-69762914D01*
X105134228Y-69917733D01*
X105134228Y-70111257D01*
X105172933Y-70266076D01*
X105211638Y-70343485D01*
X105250342Y-70382190D01*
X105327752Y-70420895D01*
X105405161Y-70420895D01*
X105482571Y-70382190D01*
X105521276Y-70343485D01*
X105559980Y-70266076D01*
X105598685Y-70111257D01*
X105598685Y-69917733D01*
X105559980Y-69762914D01*
X105521276Y-69685504D01*
X105482571Y-69646800D01*
X105405161Y-69608095D01*
X112150676Y-81952495D02*
X112150676Y-82610476D01*
X112111971Y-82687885D01*
X112073266Y-82726590D01*
X111995857Y-82765295D01*
X111841038Y-82765295D01*
X111763628Y-82726590D01*
X111724923Y-82687885D01*
X111686219Y-82610476D01*
X111686219Y-81952495D01*
X110950828Y-82223428D02*
X110950828Y-82765295D01*
X111144352Y-81913790D02*
X111337876Y-82494361D01*
X110834714Y-82494361D01*
X116628091Y-77950906D02*
X116241043Y-77950906D01*
X116705500Y-78183135D02*
X116434567Y-77370335D01*
X116163634Y-78183135D01*
X115892700Y-78183135D02*
X115892700Y-77370335D01*
X115583062Y-77370335D01*
X115505653Y-77409040D01*
X115466948Y-77447744D01*
X115428243Y-77525154D01*
X115428243Y-77641268D01*
X115466948Y-77718678D01*
X115505653Y-77757382D01*
X115583062Y-77796087D01*
X115892700Y-77796087D01*
X114654148Y-78183135D02*
X115118605Y-78183135D01*
X114886377Y-78183135D02*
X114886377Y-77370335D01*
X114963786Y-77486449D01*
X115041196Y-77563859D01*
X115118605Y-77602563D01*
X113880053Y-78183135D02*
X114344510Y-78183135D01*
X114112281Y-78183135D02*
X114112281Y-77370335D01*
X114189691Y-77486449D01*
X114267100Y-77563859D01*
X114344510Y-77602563D01*
X113105958Y-78183135D02*
X113570415Y-78183135D01*
X113338186Y-78183135D02*
X113338186Y-77370335D01*
X113415596Y-77486449D01*
X113493005Y-77563859D01*
X113570415Y-77602563D01*
X112835024Y-77370335D02*
X112293158Y-77370335D01*
X112641500Y-78183135D01*
X111983520Y-77873497D02*
X111364243Y-77873497D01*
X111054605Y-77370335D02*
X110551443Y-77370335D01*
X110822377Y-77679973D01*
X110706262Y-77679973D01*
X110628853Y-77718678D01*
X110590148Y-77757382D01*
X110551443Y-77834792D01*
X110551443Y-78028316D01*
X110590148Y-78105725D01*
X110628853Y-78144430D01*
X110706262Y-78183135D01*
X110938491Y-78183135D01*
X111015900Y-78144430D01*
X111054605Y-78105725D01*
X110280510Y-77370335D02*
X109777348Y-77370335D01*
X110048281Y-77679973D01*
X109932167Y-77679973D01*
X109854758Y-77718678D01*
X109816053Y-77757382D01*
X109777348Y-77834792D01*
X109777348Y-78028316D01*
X109816053Y-78105725D01*
X109854758Y-78144430D01*
X109932167Y-78183135D01*
X110164396Y-78183135D01*
X110241805Y-78144430D01*
X110280510Y-78105725D01*
D12*
X104930200Y-78245673D02*
X104454010Y-77912340D01*
X104930200Y-77674244D02*
X103930200Y-77674244D01*
X103930200Y-78055197D01*
X103977820Y-78150435D01*
X104025439Y-78198054D01*
X104120677Y-78245673D01*
X104263534Y-78245673D01*
X104358772Y-78198054D01*
X104406391Y-78150435D01*
X104454010Y-78055197D01*
X104454010Y-77674244D01*
X104358772Y-78817101D02*
X104311153Y-78721863D01*
X104263534Y-78674244D01*
X104168296Y-78626625D01*
X104120677Y-78626625D01*
X104025439Y-78674244D01*
X103977820Y-78721863D01*
X103930200Y-78817101D01*
X103930200Y-79007578D01*
X103977820Y-79102816D01*
X104025439Y-79150435D01*
X104120677Y-79198054D01*
X104168296Y-79198054D01*
X104263534Y-79150435D01*
X104311153Y-79102816D01*
X104358772Y-79007578D01*
X104358772Y-78817101D01*
X104406391Y-78721863D01*
X104454010Y-78674244D01*
X104549248Y-78626625D01*
X104739724Y-78626625D01*
X104834962Y-78674244D01*
X104882581Y-78721863D01*
X104930200Y-78817101D01*
X104930200Y-79007578D01*
X104882581Y-79102816D01*
X104834962Y-79150435D01*
X104739724Y-79198054D01*
X104549248Y-79198054D01*
X104454010Y-79150435D01*
X104406391Y-79102816D01*
X104358772Y-79007578D01*
X118903580Y-120253285D02*
X118903580Y-120824714D01*
X119903580Y-120539000D02*
X118903580Y-120539000D01*
X119903580Y-121158047D02*
X118903580Y-121158047D01*
X119379771Y-121158047D02*
X119379771Y-121729476D01*
X119903580Y-121729476D02*
X118903580Y-121729476D01*
X118998819Y-122158047D02*
X118951200Y-122205666D01*
X118903580Y-122300904D01*
X118903580Y-122539000D01*
X118951200Y-122634238D01*
X118998819Y-122681857D01*
X119094057Y-122729476D01*
X119189295Y-122729476D01*
X119332152Y-122681857D01*
X119903580Y-122110428D01*
X119903580Y-122729476D01*
X110073022Y-102337893D02*
X110120641Y-102290274D01*
X110168260Y-102147417D01*
X110168260Y-102052179D01*
X110120641Y-101909321D01*
X110025403Y-101814083D01*
X109930165Y-101766464D01*
X109739689Y-101718845D01*
X109596832Y-101718845D01*
X109406356Y-101766464D01*
X109311118Y-101814083D01*
X109215880Y-101909321D01*
X109168260Y-102052179D01*
X109168260Y-102147417D01*
X109215880Y-102290274D01*
X109263499Y-102337893D01*
X109168260Y-103242655D02*
X109168260Y-102766464D01*
X109644451Y-102718845D01*
X109596832Y-102766464D01*
X109549213Y-102861702D01*
X109549213Y-103099798D01*
X109596832Y-103195036D01*
X109644451Y-103242655D01*
X109739689Y-103290274D01*
X109977784Y-103290274D01*
X110073022Y-103242655D01*
X110120641Y-103195036D01*
X110168260Y-103099798D01*
X110168260Y-102861702D01*
X110120641Y-102766464D01*
X110073022Y-102718845D01*
X117434620Y-74923424D02*
X116434620Y-74923424D01*
X116434620Y-75161520D01*
X116482240Y-75304377D01*
X116577478Y-75399615D01*
X116672716Y-75447234D01*
X116863192Y-75494853D01*
X117006049Y-75494853D01*
X117196525Y-75447234D01*
X117291763Y-75399615D01*
X117387001Y-75304377D01*
X117434620Y-75161520D01*
X117434620Y-74923424D01*
X116434620Y-76351996D02*
X116434620Y-76161520D01*
X116482240Y-76066281D01*
X116529859Y-76018662D01*
X116672716Y-75923424D01*
X116863192Y-75875805D01*
X117244144Y-75875805D01*
X117339382Y-75923424D01*
X117387001Y-75971043D01*
X117434620Y-76066281D01*
X117434620Y-76256758D01*
X117387001Y-76351996D01*
X117339382Y-76399615D01*
X117244144Y-76447234D01*
X117006049Y-76447234D01*
X116910811Y-76399615D01*
X116863192Y-76351996D01*
X116815573Y-76256758D01*
X116815573Y-76066281D01*
X116863192Y-75971043D01*
X116910811Y-75923424D01*
X117006049Y-75875805D01*
X103470380Y-120405685D02*
X103470380Y-120977114D01*
X104470380Y-120691400D02*
X103470380Y-120691400D01*
X104470380Y-121310447D02*
X103470380Y-121310447D01*
X103946571Y-121310447D02*
X103946571Y-121881876D01*
X104470380Y-121881876D02*
X103470380Y-121881876D01*
X104470380Y-122881876D02*
X104470380Y-122310447D01*
X104470380Y-122596161D02*
X103470380Y-122596161D01*
X103613238Y-122500923D01*
X103708476Y-122405685D01*
X103756095Y-122310447D01*
X108408766Y-123695720D02*
X108742100Y-123219530D01*
X108980195Y-123695720D02*
X108980195Y-122695720D01*
X108599242Y-122695720D01*
X108504004Y-122743340D01*
X108456385Y-122790959D01*
X108408766Y-122886197D01*
X108408766Y-123029054D01*
X108456385Y-123124292D01*
X108504004Y-123171911D01*
X108599242Y-123219530D01*
X108980195Y-123219530D01*
X108027814Y-122790959D02*
X107980195Y-122743340D01*
X107884957Y-122695720D01*
X107646861Y-122695720D01*
X107551623Y-122743340D01*
X107504004Y-122790959D01*
X107456385Y-122886197D01*
X107456385Y-122981435D01*
X107504004Y-123124292D01*
X108075433Y-123695720D01*
X107456385Y-123695720D01*
X106651062Y-75444053D02*
X106698681Y-75396434D01*
X106746300Y-75253577D01*
X106746300Y-75158339D01*
X106698681Y-75015481D01*
X106603443Y-74920243D01*
X106508205Y-74872624D01*
X106317729Y-74825005D01*
X106174872Y-74825005D01*
X105984396Y-74872624D01*
X105889158Y-74920243D01*
X105793920Y-75015481D01*
X105746300Y-75158339D01*
X105746300Y-75253577D01*
X105793920Y-75396434D01*
X105841539Y-75444053D01*
X106174872Y-76015481D02*
X106127253Y-75920243D01*
X106079634Y-75872624D01*
X105984396Y-75825005D01*
X105936777Y-75825005D01*
X105841539Y-75872624D01*
X105793920Y-75920243D01*
X105746300Y-76015481D01*
X105746300Y-76205958D01*
X105793920Y-76301196D01*
X105841539Y-76348815D01*
X105936777Y-76396434D01*
X105984396Y-76396434D01*
X106079634Y-76348815D01*
X106127253Y-76301196D01*
X106174872Y-76205958D01*
X106174872Y-76015481D01*
X106222491Y-75920243D01*
X106270110Y-75872624D01*
X106365348Y-75825005D01*
X106555824Y-75825005D01*
X106651062Y-75872624D01*
X106698681Y-75920243D01*
X106746300Y-76015481D01*
X106746300Y-76205958D01*
X106698681Y-76301196D01*
X106651062Y-76348815D01*
X106555824Y-76396434D01*
X106365348Y-76396434D01*
X106270110Y-76348815D01*
X106222491Y-76301196D01*
X106174872Y-76205958D01*
X115011180Y-113055495D02*
X115820704Y-113055495D01*
X115915942Y-113103114D01*
X115963561Y-113150733D01*
X116011180Y-113245971D01*
X116011180Y-113436447D01*
X115963561Y-113531685D01*
X115915942Y-113579304D01*
X115820704Y-113626923D01*
X115011180Y-113626923D01*
X115106419Y-114055495D02*
X115058800Y-114103114D01*
X115011180Y-114198352D01*
X115011180Y-114436447D01*
X115058800Y-114531685D01*
X115106419Y-114579304D01*
X115201657Y-114626923D01*
X115296895Y-114626923D01*
X115439752Y-114579304D01*
X116011180Y-114007876D01*
X116011180Y-114626923D01*
X90627180Y-113055495D02*
X91436704Y-113055495D01*
X91531942Y-113103114D01*
X91579561Y-113150733D01*
X91627180Y-113245971D01*
X91627180Y-113436447D01*
X91579561Y-113531685D01*
X91531942Y-113579304D01*
X91436704Y-113626923D01*
X90627180Y-113626923D01*
X90722419Y-114055495D02*
X90674800Y-114103114D01*
X90627180Y-114198352D01*
X90627180Y-114436447D01*
X90674800Y-114531685D01*
X90722419Y-114579304D01*
X90817657Y-114626923D01*
X90912895Y-114626923D01*
X91055752Y-114579304D01*
X91627180Y-114007876D01*
X91627180Y-114626923D01*
X79635622Y-90369093D02*
X79683241Y-90321474D01*
X79730860Y-90178617D01*
X79730860Y-90083379D01*
X79683241Y-89940521D01*
X79588003Y-89845283D01*
X79492765Y-89797664D01*
X79302289Y-89750045D01*
X79159432Y-89750045D01*
X78968956Y-89797664D01*
X78873718Y-89845283D01*
X78778480Y-89940521D01*
X78730860Y-90083379D01*
X78730860Y-90178617D01*
X78778480Y-90321474D01*
X78826099Y-90369093D01*
X79730860Y-91321474D02*
X79730860Y-90750045D01*
X79730860Y-91035760D02*
X78730860Y-91035760D01*
X78873718Y-90940521D01*
X78968956Y-90845283D01*
X79016575Y-90750045D01*
X81611742Y-66711533D02*
X81659361Y-66663914D01*
X81706980Y-66521057D01*
X81706980Y-66425819D01*
X81659361Y-66282961D01*
X81564123Y-66187723D01*
X81468885Y-66140104D01*
X81278409Y-66092485D01*
X81135552Y-66092485D01*
X80945076Y-66140104D01*
X80849838Y-66187723D01*
X80754600Y-66282961D01*
X80706980Y-66425819D01*
X80706980Y-66521057D01*
X80754600Y-66663914D01*
X80802219Y-66711533D01*
X80706980Y-67568676D02*
X80706980Y-67378200D01*
X80754600Y-67282961D01*
X80802219Y-67235342D01*
X80945076Y-67140104D01*
X81135552Y-67092485D01*
X81516504Y-67092485D01*
X81611742Y-67140104D01*
X81659361Y-67187723D01*
X81706980Y-67282961D01*
X81706980Y-67473438D01*
X81659361Y-67568676D01*
X81611742Y-67616295D01*
X81516504Y-67663914D01*
X81278409Y-67663914D01*
X81183171Y-67616295D01*
X81135552Y-67568676D01*
X81087933Y-67473438D01*
X81087933Y-67282961D01*
X81135552Y-67187723D01*
X81183171Y-67140104D01*
X81278409Y-67092485D01*
X92787742Y-66574373D02*
X92835361Y-66526754D01*
X92882980Y-66383897D01*
X92882980Y-66288659D01*
X92835361Y-66145801D01*
X92740123Y-66050563D01*
X92644885Y-66002944D01*
X92454409Y-65955325D01*
X92311552Y-65955325D01*
X92121076Y-66002944D01*
X92025838Y-66050563D01*
X91930600Y-66145801D01*
X91882980Y-66288659D01*
X91882980Y-66383897D01*
X91930600Y-66526754D01*
X91978219Y-66574373D01*
X91882980Y-66907706D02*
X91882980Y-67574373D01*
X92882980Y-67145801D01*
X79682600Y-115842824D02*
X78682600Y-115842824D01*
X78682600Y-116080920D01*
X78730220Y-116223777D01*
X78825458Y-116319015D01*
X78920696Y-116366634D01*
X79111172Y-116414253D01*
X79254029Y-116414253D01*
X79444505Y-116366634D01*
X79539743Y-116319015D01*
X79634981Y-116223777D01*
X79682600Y-116080920D01*
X79682600Y-115842824D01*
X78682600Y-117319015D02*
X78682600Y-116842824D01*
X79158791Y-116795205D01*
X79111172Y-116842824D01*
X79063553Y-116938062D01*
X79063553Y-117176158D01*
X79111172Y-117271396D01*
X79158791Y-117319015D01*
X79254029Y-117366634D01*
X79492124Y-117366634D01*
X79587362Y-117319015D01*
X79634981Y-117271396D01*
X79682600Y-117176158D01*
X79682600Y-116938062D01*
X79634981Y-116842824D01*
X79587362Y-116795205D01*
D15*
X87817476Y-73227595D02*
X87817476Y-73885576D01*
X87778771Y-73962985D01*
X87740066Y-74001690D01*
X87662657Y-74040395D01*
X87507838Y-74040395D01*
X87430428Y-74001690D01*
X87391723Y-73962985D01*
X87353019Y-73885576D01*
X87353019Y-73227595D01*
X87043380Y-73227595D02*
X86540219Y-73227595D01*
X86811152Y-73537233D01*
X86695038Y-73537233D01*
X86617628Y-73575938D01*
X86578923Y-73614642D01*
X86540219Y-73692052D01*
X86540219Y-73885576D01*
X86578923Y-73962985D01*
X86617628Y-74001690D01*
X86695038Y-74040395D01*
X86927266Y-74040395D01*
X87004676Y-74001690D01*
X87043380Y-73962985D01*
X87600971Y-70188666D02*
X87213923Y-70188666D01*
X87678380Y-70420895D02*
X87407447Y-69608095D01*
X87136514Y-70420895D01*
X86865580Y-70420895D02*
X86865580Y-69608095D01*
X86555942Y-69608095D01*
X86478533Y-69646800D01*
X86439828Y-69685504D01*
X86401123Y-69762914D01*
X86401123Y-69879028D01*
X86439828Y-69956438D01*
X86478533Y-69995142D01*
X86555942Y-70033847D01*
X86865580Y-70033847D01*
X85627028Y-70420895D02*
X86091485Y-70420895D01*
X85859257Y-70420895D02*
X85859257Y-69608095D01*
X85936666Y-69724209D01*
X86014076Y-69801619D01*
X86091485Y-69840323D01*
X84852933Y-70420895D02*
X85317390Y-70420895D01*
X85085161Y-70420895D02*
X85085161Y-69608095D01*
X85162571Y-69724209D01*
X85239980Y-69801619D01*
X85317390Y-69840323D01*
X84078838Y-70420895D02*
X84543295Y-70420895D01*
X84311066Y-70420895D02*
X84311066Y-69608095D01*
X84388476Y-69724209D01*
X84465885Y-69801619D01*
X84543295Y-69840323D01*
X83807904Y-69608095D02*
X83266038Y-69608095D01*
X83614380Y-70420895D01*
X82956400Y-70111257D02*
X82337123Y-70111257D01*
X81563028Y-69608095D02*
X81950076Y-69608095D01*
X81988780Y-69995142D01*
X81950076Y-69956438D01*
X81872666Y-69917733D01*
X81679142Y-69917733D01*
X81601733Y-69956438D01*
X81563028Y-69995142D01*
X81524323Y-70072552D01*
X81524323Y-70266076D01*
X81563028Y-70343485D01*
X81601733Y-70382190D01*
X81679142Y-70420895D01*
X81872666Y-70420895D01*
X81950076Y-70382190D01*
X81988780Y-70343485D01*
X81021161Y-69608095D02*
X80943752Y-69608095D01*
X80866342Y-69646800D01*
X80827638Y-69685504D01*
X80788933Y-69762914D01*
X80750228Y-69917733D01*
X80750228Y-70111257D01*
X80788933Y-70266076D01*
X80827638Y-70343485D01*
X80866342Y-70382190D01*
X80943752Y-70420895D01*
X81021161Y-70420895D01*
X81098571Y-70382190D01*
X81137276Y-70343485D01*
X81175980Y-70266076D01*
X81214685Y-70111257D01*
X81214685Y-69917733D01*
X81175980Y-69762914D01*
X81137276Y-69685504D01*
X81098571Y-69646800D01*
X81021161Y-69608095D01*
D12*
X92061326Y-97256182D02*
X92108945Y-97303801D01*
X92251802Y-97351420D01*
X92347040Y-97351420D01*
X92489898Y-97303801D01*
X92585136Y-97208563D01*
X92632755Y-97113325D01*
X92680374Y-96922849D01*
X92680374Y-96779992D01*
X92632755Y-96589516D01*
X92585136Y-96494278D01*
X92489898Y-96399040D01*
X92347040Y-96351420D01*
X92251802Y-96351420D01*
X92108945Y-96399040D01*
X92061326Y-96446659D01*
X91680374Y-96446659D02*
X91632755Y-96399040D01*
X91537517Y-96351420D01*
X91299421Y-96351420D01*
X91204183Y-96399040D01*
X91156564Y-96446659D01*
X91108945Y-96541897D01*
X91108945Y-96637135D01*
X91156564Y-96779992D01*
X91727993Y-97351420D01*
X91108945Y-97351420D01*
X85689022Y-102337893D02*
X85736641Y-102290274D01*
X85784260Y-102147417D01*
X85784260Y-102052179D01*
X85736641Y-101909321D01*
X85641403Y-101814083D01*
X85546165Y-101766464D01*
X85355689Y-101718845D01*
X85212832Y-101718845D01*
X85022356Y-101766464D01*
X84927118Y-101814083D01*
X84831880Y-101909321D01*
X84784260Y-102052179D01*
X84784260Y-102147417D01*
X84831880Y-102290274D01*
X84879499Y-102337893D01*
X84784260Y-103242655D02*
X84784260Y-102766464D01*
X85260451Y-102718845D01*
X85212832Y-102766464D01*
X85165213Y-102861702D01*
X85165213Y-103099798D01*
X85212832Y-103195036D01*
X85260451Y-103242655D01*
X85355689Y-103290274D01*
X85593784Y-103290274D01*
X85689022Y-103242655D01*
X85736641Y-103195036D01*
X85784260Y-103099798D01*
X85784260Y-102861702D01*
X85736641Y-102766464D01*
X85689022Y-102718845D01*
X82267062Y-75444053D02*
X82314681Y-75396434D01*
X82362300Y-75253577D01*
X82362300Y-75158339D01*
X82314681Y-75015481D01*
X82219443Y-74920243D01*
X82124205Y-74872624D01*
X81933729Y-74825005D01*
X81790872Y-74825005D01*
X81600396Y-74872624D01*
X81505158Y-74920243D01*
X81409920Y-75015481D01*
X81362300Y-75158339D01*
X81362300Y-75253577D01*
X81409920Y-75396434D01*
X81457539Y-75444053D01*
X81790872Y-76015481D02*
X81743253Y-75920243D01*
X81695634Y-75872624D01*
X81600396Y-75825005D01*
X81552777Y-75825005D01*
X81457539Y-75872624D01*
X81409920Y-75920243D01*
X81362300Y-76015481D01*
X81362300Y-76205958D01*
X81409920Y-76301196D01*
X81457539Y-76348815D01*
X81552777Y-76396434D01*
X81600396Y-76396434D01*
X81695634Y-76348815D01*
X81743253Y-76301196D01*
X81790872Y-76205958D01*
X81790872Y-76015481D01*
X81838491Y-75920243D01*
X81886110Y-75872624D01*
X81981348Y-75825005D01*
X82171824Y-75825005D01*
X82267062Y-75872624D01*
X82314681Y-75920243D01*
X82362300Y-76015481D01*
X82362300Y-76205958D01*
X82314681Y-76301196D01*
X82267062Y-76348815D01*
X82171824Y-76396434D01*
X81981348Y-76396434D01*
X81886110Y-76348815D01*
X81838491Y-76301196D01*
X81790872Y-76205958D01*
X87225166Y-84644502D02*
X87272785Y-84692121D01*
X87415642Y-84739740D01*
X87510880Y-84739740D01*
X87653738Y-84692121D01*
X87748976Y-84596883D01*
X87796595Y-84501645D01*
X87844214Y-84311169D01*
X87844214Y-84168312D01*
X87796595Y-83977836D01*
X87748976Y-83882598D01*
X87653738Y-83787360D01*
X87510880Y-83739740D01*
X87415642Y-83739740D01*
X87272785Y-83787360D01*
X87225166Y-83834979D01*
X86748976Y-84739740D02*
X86558500Y-84739740D01*
X86463261Y-84692121D01*
X86415642Y-84644502D01*
X86320404Y-84501645D01*
X86272785Y-84311169D01*
X86272785Y-83930217D01*
X86320404Y-83834979D01*
X86368023Y-83787360D01*
X86463261Y-83739740D01*
X86653738Y-83739740D01*
X86748976Y-83787360D01*
X86796595Y-83834979D01*
X86844214Y-83930217D01*
X86844214Y-84168312D01*
X86796595Y-84263550D01*
X86748976Y-84311169D01*
X86653738Y-84358788D01*
X86463261Y-84358788D01*
X86368023Y-84311169D01*
X86320404Y-84263550D01*
X86272785Y-84168312D01*
X93050620Y-74923424D02*
X92050620Y-74923424D01*
X92050620Y-75161520D01*
X92098240Y-75304377D01*
X92193478Y-75399615D01*
X92288716Y-75447234D01*
X92479192Y-75494853D01*
X92622049Y-75494853D01*
X92812525Y-75447234D01*
X92907763Y-75399615D01*
X93003001Y-75304377D01*
X93050620Y-75161520D01*
X93050620Y-74923424D01*
X92050620Y-76351996D02*
X92050620Y-76161520D01*
X92098240Y-76066281D01*
X92145859Y-76018662D01*
X92288716Y-75923424D01*
X92479192Y-75875805D01*
X92860144Y-75875805D01*
X92955382Y-75923424D01*
X93003001Y-75971043D01*
X93050620Y-76066281D01*
X93050620Y-76256758D01*
X93003001Y-76351996D01*
X92955382Y-76399615D01*
X92860144Y-76447234D01*
X92622049Y-76447234D01*
X92526811Y-76399615D01*
X92479192Y-76351996D01*
X92431573Y-76256758D01*
X92431573Y-76066281D01*
X92479192Y-75971043D01*
X92526811Y-75923424D01*
X92622049Y-75875805D01*
X84113666Y-120330220D02*
X84447000Y-119854030D01*
X84685095Y-120330220D02*
X84685095Y-119330220D01*
X84304142Y-119330220D01*
X84208904Y-119377840D01*
X84161285Y-119425459D01*
X84113666Y-119520697D01*
X84113666Y-119663554D01*
X84161285Y-119758792D01*
X84208904Y-119806411D01*
X84304142Y-119854030D01*
X84685095Y-119854030D01*
X83161285Y-120330220D02*
X83732714Y-120330220D01*
X83447000Y-120330220D02*
X83447000Y-119330220D01*
X83542238Y-119473078D01*
X83637476Y-119568316D01*
X83732714Y-119615935D01*
X84024766Y-123695720D02*
X84358100Y-123219530D01*
X84596195Y-123695720D02*
X84596195Y-122695720D01*
X84215242Y-122695720D01*
X84120004Y-122743340D01*
X84072385Y-122790959D01*
X84024766Y-122886197D01*
X84024766Y-123029054D01*
X84072385Y-123124292D01*
X84120004Y-123171911D01*
X84215242Y-123219530D01*
X84596195Y-123219530D01*
X83643814Y-122790959D02*
X83596195Y-122743340D01*
X83500957Y-122695720D01*
X83262861Y-122695720D01*
X83167623Y-122743340D01*
X83120004Y-122790959D01*
X83072385Y-122886197D01*
X83072385Y-122981435D01*
X83120004Y-123124292D01*
X83691433Y-123695720D01*
X83072385Y-123695720D01*
X80546200Y-78245673D02*
X80070010Y-77912340D01*
X80546200Y-77674244D02*
X79546200Y-77674244D01*
X79546200Y-78055197D01*
X79593820Y-78150435D01*
X79641439Y-78198054D01*
X79736677Y-78245673D01*
X79879534Y-78245673D01*
X79974772Y-78198054D01*
X80022391Y-78150435D01*
X80070010Y-78055197D01*
X80070010Y-77674244D01*
X79974772Y-78817101D02*
X79927153Y-78721863D01*
X79879534Y-78674244D01*
X79784296Y-78626625D01*
X79736677Y-78626625D01*
X79641439Y-78674244D01*
X79593820Y-78721863D01*
X79546200Y-78817101D01*
X79546200Y-79007578D01*
X79593820Y-79102816D01*
X79641439Y-79150435D01*
X79736677Y-79198054D01*
X79784296Y-79198054D01*
X79879534Y-79150435D01*
X79927153Y-79102816D01*
X79974772Y-79007578D01*
X79974772Y-78817101D01*
X80022391Y-78721863D01*
X80070010Y-78674244D01*
X80165248Y-78626625D01*
X80355724Y-78626625D01*
X80450962Y-78674244D01*
X80498581Y-78721863D01*
X80546200Y-78817101D01*
X80546200Y-79007578D01*
X80498581Y-79102816D01*
X80450962Y-79150435D01*
X80355724Y-79198054D01*
X80165248Y-79198054D01*
X80070010Y-79150435D01*
X80022391Y-79102816D01*
X79974772Y-79007578D01*
X79086380Y-120405685D02*
X79086380Y-120977114D01*
X80086380Y-120691400D02*
X79086380Y-120691400D01*
X80086380Y-121310447D02*
X79086380Y-121310447D01*
X79562571Y-121310447D02*
X79562571Y-121881876D01*
X80086380Y-121881876D02*
X79086380Y-121881876D01*
X80086380Y-122881876D02*
X80086380Y-122310447D01*
X80086380Y-122596161D02*
X79086380Y-122596161D01*
X79229238Y-122500923D01*
X79324476Y-122405685D01*
X79372095Y-122310447D01*
X94519580Y-120253285D02*
X94519580Y-120824714D01*
X95519580Y-120539000D02*
X94519580Y-120539000D01*
X95519580Y-121158047D02*
X94519580Y-121158047D01*
X94995771Y-121158047D02*
X94995771Y-121729476D01*
X95519580Y-121729476D02*
X94519580Y-121729476D01*
X94614819Y-122158047D02*
X94567200Y-122205666D01*
X94519580Y-122300904D01*
X94519580Y-122539000D01*
X94567200Y-122634238D01*
X94614819Y-122681857D01*
X94710057Y-122729476D01*
X94805295Y-122729476D01*
X94948152Y-122681857D01*
X95519580Y-122110428D01*
X95519580Y-122729476D01*
D15*
X87766676Y-81952495D02*
X87766676Y-82610476D01*
X87727971Y-82687885D01*
X87689266Y-82726590D01*
X87611857Y-82765295D01*
X87457038Y-82765295D01*
X87379628Y-82726590D01*
X87340923Y-82687885D01*
X87302219Y-82610476D01*
X87302219Y-81952495D01*
X86566828Y-82223428D02*
X86566828Y-82765295D01*
X86760352Y-81913790D02*
X86953876Y-82494361D01*
X86450714Y-82494361D01*
X92244091Y-77950906D02*
X91857043Y-77950906D01*
X92321500Y-78183135D02*
X92050567Y-77370335D01*
X91779634Y-78183135D01*
X91508700Y-78183135D02*
X91508700Y-77370335D01*
X91199062Y-77370335D01*
X91121653Y-77409040D01*
X91082948Y-77447744D01*
X91044243Y-77525154D01*
X91044243Y-77641268D01*
X91082948Y-77718678D01*
X91121653Y-77757382D01*
X91199062Y-77796087D01*
X91508700Y-77796087D01*
X90270148Y-78183135D02*
X90734605Y-78183135D01*
X90502377Y-78183135D02*
X90502377Y-77370335D01*
X90579786Y-77486449D01*
X90657196Y-77563859D01*
X90734605Y-77602563D01*
X89496053Y-78183135D02*
X89960510Y-78183135D01*
X89728281Y-78183135D02*
X89728281Y-77370335D01*
X89805691Y-77486449D01*
X89883100Y-77563859D01*
X89960510Y-77602563D01*
X88721958Y-78183135D02*
X89186415Y-78183135D01*
X88954186Y-78183135D02*
X88954186Y-77370335D01*
X89031596Y-77486449D01*
X89109005Y-77563859D01*
X89186415Y-77602563D01*
X88451024Y-77370335D02*
X87909158Y-77370335D01*
X88257500Y-78183135D01*
X87599520Y-77873497D02*
X86980243Y-77873497D01*
X86670605Y-77370335D02*
X86167443Y-77370335D01*
X86438377Y-77679973D01*
X86322262Y-77679973D01*
X86244853Y-77718678D01*
X86206148Y-77757382D01*
X86167443Y-77834792D01*
X86167443Y-78028316D01*
X86206148Y-78105725D01*
X86244853Y-78144430D01*
X86322262Y-78183135D01*
X86554491Y-78183135D01*
X86631900Y-78144430D01*
X86670605Y-78105725D01*
X85896510Y-77370335D02*
X85393348Y-77370335D01*
X85664281Y-77679973D01*
X85548167Y-77679973D01*
X85470758Y-77718678D01*
X85432053Y-77757382D01*
X85393348Y-77834792D01*
X85393348Y-78028316D01*
X85432053Y-78105725D01*
X85470758Y-78144430D01*
X85548167Y-78183135D01*
X85780396Y-78183135D01*
X85857805Y-78144430D01*
X85896510Y-78105725D01*
M02*
