G04 #@! TF.GenerationSoftware,KiCad,Pcbnew,6.0.0-unknown-16cf1a4~86~ubuntu16.04.1*
G04 #@! TF.CreationDate,2019-07-03T13:53:05+02:00*
G04 #@! TF.ProjectId,nano324,6e616e6f-3332-4342-9e6b-696361645f70,rev?*
G04 #@! TF.SameCoordinates,Original*
G04 #@! TF.FileFunction,Other,Fab,Bot*
%FSLAX46Y46*%
G04 Gerber Fmt 4.6, Leading zero omitted, Abs format (unit mm)*
G04 Created by KiCad (PCBNEW 6.0.0-unknown-16cf1a4~86~ubuntu16.04.1) date 2019-07-03 13:53:05*
%MOMM*%
%LPD*%
G04 APERTURE LIST*
%ADD10C,0.500000*%
%ADD11C,0.150000*%
G04 APERTURE END LIST*
D10*
X147929600Y-59893200D02*
X147929600Y-45008800D01*
X123545600Y-59893200D02*
X123545600Y-45008800D01*
X99161600Y-59893200D02*
X99161600Y-45008800D01*
X74777600Y-59893200D02*
X74777600Y-45008800D01*
X172313600Y-45008800D02*
X74777600Y-45008800D01*
X172316140Y-59893200D02*
X172313600Y-45008800D01*
X147929600Y-59893200D02*
X172313600Y-59893200D01*
X147929600Y-124409200D02*
X147929600Y-59893200D01*
X172316140Y-59893200D02*
X172313600Y-124409200D01*
X172313600Y-124409200D02*
X147929600Y-124409200D01*
X123545600Y-59893200D02*
X147929600Y-59893200D01*
X123545600Y-124409200D02*
X123545600Y-59893200D01*
X147932140Y-59893200D02*
X147929600Y-124409200D01*
X147929600Y-124409200D02*
X123545600Y-124409200D01*
X99161600Y-59893200D02*
X123545600Y-59893200D01*
X99161600Y-124409200D02*
X99161600Y-59893200D01*
X123548140Y-59893200D02*
X123545600Y-124409200D01*
X123545600Y-124409200D02*
X99161600Y-124409200D01*
X99164140Y-59893200D02*
X99161600Y-124409200D01*
X74777600Y-124409200D02*
X74777600Y-59893200D01*
X74777600Y-59893200D02*
X99161600Y-59893200D01*
X99161600Y-124409200D02*
X74777600Y-124409200D01*
D11*
X156536211Y-90112600D02*
X156440973Y-90112600D01*
X156345735Y-90160220D01*
X156298116Y-90207839D01*
X156250497Y-90303077D01*
X156202878Y-90493553D01*
X156202878Y-90731648D01*
X156250497Y-90922124D01*
X156298116Y-91017362D01*
X156345735Y-91064981D01*
X156440973Y-91112600D01*
X156536211Y-91112600D01*
X156631449Y-91064981D01*
X156679068Y-91017362D01*
X156726687Y-90922124D01*
X156774306Y-90731648D01*
X156774306Y-90493553D01*
X156726687Y-90303077D01*
X156679068Y-90207839D01*
X156631449Y-90160220D01*
X156536211Y-90112600D01*
X155774306Y-91017362D02*
X155726687Y-91064981D01*
X155774306Y-91112600D01*
X155821925Y-91064981D01*
X155774306Y-91017362D01*
X155774306Y-91112600D01*
X154774306Y-91112600D02*
X155345735Y-91112600D01*
X155060020Y-91112600D02*
X155060020Y-90112600D01*
X155155259Y-90255458D01*
X155250497Y-90350696D01*
X155345735Y-90398315D01*
X154345735Y-91112600D02*
X154345735Y-90445934D01*
X154345735Y-90541172D02*
X154298116Y-90493553D01*
X154202878Y-90445934D01*
X154060020Y-90445934D01*
X153964782Y-90493553D01*
X153917163Y-90588791D01*
X153917163Y-91112600D01*
X153917163Y-90588791D02*
X153869544Y-90493553D01*
X153774306Y-90445934D01*
X153631449Y-90445934D01*
X153536211Y-90493553D01*
X153488592Y-90588791D01*
X153488592Y-91112600D01*
X159066371Y-68496620D02*
X158971133Y-68496620D01*
X158875895Y-68544240D01*
X158828276Y-68591859D01*
X158780657Y-68687097D01*
X158733038Y-68877573D01*
X158733038Y-69115668D01*
X158780657Y-69306144D01*
X158828276Y-69401382D01*
X158875895Y-69449001D01*
X158971133Y-69496620D01*
X159066371Y-69496620D01*
X159161609Y-69449001D01*
X159209228Y-69401382D01*
X159256847Y-69306144D01*
X159304466Y-69115668D01*
X159304466Y-68877573D01*
X159256847Y-68687097D01*
X159209228Y-68591859D01*
X159161609Y-68544240D01*
X159066371Y-68496620D01*
X158304466Y-69401382D02*
X158256847Y-69449001D01*
X158304466Y-69496620D01*
X158352085Y-69449001D01*
X158304466Y-69401382D01*
X158304466Y-69496620D01*
X157304466Y-69496620D02*
X157875895Y-69496620D01*
X157590180Y-69496620D02*
X157590180Y-68496620D01*
X157685419Y-68639478D01*
X157780657Y-68734716D01*
X157875895Y-68782335D01*
X156875895Y-69496620D02*
X156875895Y-68829954D01*
X156875895Y-68925192D02*
X156828276Y-68877573D01*
X156733038Y-68829954D01*
X156590180Y-68829954D01*
X156494942Y-68877573D01*
X156447323Y-68972811D01*
X156447323Y-69496620D01*
X156447323Y-68972811D02*
X156399704Y-68877573D01*
X156304466Y-68829954D01*
X156161609Y-68829954D01*
X156066371Y-68877573D01*
X156018752Y-68972811D01*
X156018752Y-69496620D01*
X163678371Y-64230580D02*
X163583133Y-64230580D01*
X163487895Y-64278200D01*
X163440276Y-64325819D01*
X163392657Y-64421057D01*
X163345038Y-64611533D01*
X163345038Y-64849628D01*
X163392657Y-65040104D01*
X163440276Y-65135342D01*
X163487895Y-65182961D01*
X163583133Y-65230580D01*
X163678371Y-65230580D01*
X163773609Y-65182961D01*
X163821228Y-65135342D01*
X163868847Y-65040104D01*
X163916466Y-64849628D01*
X163916466Y-64611533D01*
X163868847Y-64421057D01*
X163821228Y-64325819D01*
X163773609Y-64278200D01*
X163678371Y-64230580D01*
X162916466Y-65135342D02*
X162868847Y-65182961D01*
X162916466Y-65230580D01*
X162964085Y-65182961D01*
X162916466Y-65135342D01*
X162916466Y-65230580D01*
X161916466Y-65230580D02*
X162487895Y-65230580D01*
X162202180Y-65230580D02*
X162202180Y-64230580D01*
X162297419Y-64373438D01*
X162392657Y-64468676D01*
X162487895Y-64516295D01*
X161487895Y-65230580D02*
X161487895Y-64563914D01*
X161487895Y-64659152D02*
X161440276Y-64611533D01*
X161345038Y-64563914D01*
X161202180Y-64563914D01*
X161106942Y-64611533D01*
X161059323Y-64706771D01*
X161059323Y-65230580D01*
X161059323Y-64706771D02*
X161011704Y-64611533D01*
X160916466Y-64563914D01*
X160773609Y-64563914D01*
X160678371Y-64611533D01*
X160630752Y-64706771D01*
X160630752Y-65230580D01*
X155097740Y-113882515D02*
X154097740Y-113882515D01*
X154812026Y-114215848D01*
X154097740Y-114549181D01*
X155097740Y-114549181D01*
X154573931Y-115358705D02*
X154621550Y-115501562D01*
X154669169Y-115549181D01*
X154764407Y-115596800D01*
X154907264Y-115596800D01*
X155002502Y-115549181D01*
X155050121Y-115501562D01*
X155097740Y-115406324D01*
X155097740Y-115025372D01*
X154097740Y-115025372D01*
X154097740Y-115358705D01*
X154145360Y-115453943D01*
X154192979Y-115501562D01*
X154288217Y-115549181D01*
X154383455Y-115549181D01*
X154478693Y-115501562D01*
X154526312Y-115453943D01*
X154573931Y-115358705D01*
X154573931Y-115025372D01*
X155097740Y-116596800D02*
X154621550Y-116263467D01*
X155097740Y-116025372D02*
X154097740Y-116025372D01*
X154097740Y-116406324D01*
X154145360Y-116501562D01*
X154192979Y-116549181D01*
X154288217Y-116596800D01*
X154431074Y-116596800D01*
X154526312Y-116549181D01*
X154573931Y-116501562D01*
X154621550Y-116406324D01*
X154621550Y-116025372D01*
X155097740Y-117549181D02*
X155097740Y-116977753D01*
X155097740Y-117263467D02*
X154097740Y-117263467D01*
X154240598Y-117168229D01*
X154335836Y-117072991D01*
X154383455Y-116977753D01*
X154192979Y-117930134D02*
X154145360Y-117977753D01*
X154097740Y-118072991D01*
X154097740Y-118311086D01*
X154145360Y-118406324D01*
X154192979Y-118453943D01*
X154288217Y-118501562D01*
X154383455Y-118501562D01*
X154526312Y-118453943D01*
X155097740Y-117882515D01*
X155097740Y-118501562D01*
X154097740Y-119120610D02*
X154097740Y-119215848D01*
X154145360Y-119311086D01*
X154192979Y-119358705D01*
X154288217Y-119406324D01*
X154478693Y-119453943D01*
X154716788Y-119453943D01*
X154907264Y-119406324D01*
X155002502Y-119358705D01*
X155050121Y-119311086D01*
X155097740Y-119215848D01*
X155097740Y-119120610D01*
X155050121Y-119025372D01*
X155002502Y-118977753D01*
X154907264Y-118930134D01*
X154716788Y-118882515D01*
X154478693Y-118882515D01*
X154288217Y-118930134D01*
X154192979Y-118977753D01*
X154145360Y-119025372D01*
X154097740Y-119120610D01*
X164473118Y-94039520D02*
X164139784Y-95039520D01*
X163806451Y-94039520D01*
X163473118Y-95039520D02*
X163473118Y-94039520D01*
X162806451Y-94039520D02*
X162615975Y-94039520D01*
X162520737Y-94087140D01*
X162425499Y-94182378D01*
X162377880Y-94372854D01*
X162377880Y-94706187D01*
X162425499Y-94896663D01*
X162520737Y-94991901D01*
X162615975Y-95039520D01*
X162806451Y-95039520D01*
X162901689Y-94991901D01*
X162996927Y-94896663D01*
X163044546Y-94706187D01*
X163044546Y-94372854D01*
X162996927Y-94182378D01*
X162901689Y-94087140D01*
X162806451Y-94039520D01*
X162251220Y-104685813D02*
X162965506Y-104685813D01*
X163108363Y-104638194D01*
X163203601Y-104542956D01*
X163251220Y-104400099D01*
X163251220Y-104304860D01*
X162584554Y-105590575D02*
X163251220Y-105590575D01*
X162584554Y-105162003D02*
X163108363Y-105162003D01*
X163203601Y-105209622D01*
X163251220Y-105304860D01*
X163251220Y-105447718D01*
X163203601Y-105542956D01*
X163155982Y-105590575D01*
X163251220Y-106066765D02*
X162584554Y-106066765D01*
X162679792Y-106066765D02*
X162632173Y-106114384D01*
X162584554Y-106209622D01*
X162584554Y-106352480D01*
X162632173Y-106447718D01*
X162727411Y-106495337D01*
X163251220Y-106495337D01*
X162727411Y-106495337D02*
X162632173Y-106542956D01*
X162584554Y-106638194D01*
X162584554Y-106781051D01*
X162632173Y-106876289D01*
X162727411Y-106923908D01*
X163251220Y-106923908D01*
X162584554Y-107400099D02*
X163584554Y-107400099D01*
X162632173Y-107400099D02*
X162584554Y-107495337D01*
X162584554Y-107685813D01*
X162632173Y-107781051D01*
X162679792Y-107828670D01*
X162775030Y-107876289D01*
X163060744Y-107876289D01*
X163155982Y-107828670D01*
X163203601Y-107781051D01*
X163251220Y-107685813D01*
X163251220Y-107495337D01*
X163203601Y-107400099D01*
X163203601Y-108685813D02*
X163251220Y-108590575D01*
X163251220Y-108400099D01*
X163203601Y-108304860D01*
X163108363Y-108257241D01*
X162727411Y-108257241D01*
X162632173Y-108304860D01*
X162584554Y-108400099D01*
X162584554Y-108590575D01*
X162632173Y-108685813D01*
X162727411Y-108733432D01*
X162822649Y-108733432D01*
X162917887Y-108257241D01*
X163251220Y-109162003D02*
X162584554Y-109162003D01*
X162775030Y-109162003D02*
X162679792Y-109209622D01*
X162632173Y-109257241D01*
X162584554Y-109352480D01*
X162584554Y-109447718D01*
X164781051Y-83902300D02*
X164685813Y-83902300D01*
X164590575Y-83949920D01*
X164542956Y-83997539D01*
X164495337Y-84092777D01*
X164447718Y-84283253D01*
X164447718Y-84521348D01*
X164495337Y-84711824D01*
X164542956Y-84807062D01*
X164590575Y-84854681D01*
X164685813Y-84902300D01*
X164781051Y-84902300D01*
X164876289Y-84854681D01*
X164923908Y-84807062D01*
X164971527Y-84711824D01*
X165019146Y-84521348D01*
X165019146Y-84283253D01*
X164971527Y-84092777D01*
X164923908Y-83997539D01*
X164876289Y-83949920D01*
X164781051Y-83902300D01*
X164019146Y-84807062D02*
X163971527Y-84854681D01*
X164019146Y-84902300D01*
X164066765Y-84854681D01*
X164019146Y-84807062D01*
X164019146Y-84902300D01*
X163019146Y-84902300D02*
X163590575Y-84902300D01*
X163304860Y-84902300D02*
X163304860Y-83902300D01*
X163400099Y-84045158D01*
X163495337Y-84140396D01*
X163590575Y-84188015D01*
X162590575Y-84902300D02*
X162590575Y-84235634D01*
X162590575Y-84330872D02*
X162542956Y-84283253D01*
X162447718Y-84235634D01*
X162304860Y-84235634D01*
X162209622Y-84283253D01*
X162162003Y-84378491D01*
X162162003Y-84902300D01*
X162162003Y-84378491D02*
X162114384Y-84283253D01*
X162019146Y-84235634D01*
X161876289Y-84235634D01*
X161781051Y-84283253D01*
X161733432Y-84378491D01*
X161733432Y-84902300D01*
X161112104Y-122221419D02*
X161064485Y-122173800D01*
X160969247Y-122126180D01*
X160731152Y-122126180D01*
X160635914Y-122173800D01*
X160588295Y-122221419D01*
X160540676Y-122316657D01*
X160540676Y-122411895D01*
X160588295Y-122554752D01*
X161159723Y-123126180D01*
X160540676Y-123126180D01*
X160159723Y-122221419D02*
X160112104Y-122173800D01*
X160016866Y-122126180D01*
X159778771Y-122126180D01*
X159683533Y-122173800D01*
X159635914Y-122221419D01*
X159588295Y-122316657D01*
X159588295Y-122411895D01*
X159635914Y-122554752D01*
X160207342Y-123126180D01*
X159588295Y-123126180D01*
X166421891Y-98479360D02*
X166326653Y-98479360D01*
X166231415Y-98526980D01*
X166183796Y-98574599D01*
X166136177Y-98669837D01*
X166088558Y-98860313D01*
X166088558Y-99098408D01*
X166136177Y-99288884D01*
X166183796Y-99384122D01*
X166231415Y-99431741D01*
X166326653Y-99479360D01*
X166421891Y-99479360D01*
X166517129Y-99431741D01*
X166564748Y-99384122D01*
X166612367Y-99288884D01*
X166659986Y-99098408D01*
X166659986Y-98860313D01*
X166612367Y-98669837D01*
X166564748Y-98574599D01*
X166517129Y-98526980D01*
X166421891Y-98479360D01*
X165659986Y-99384122D02*
X165612367Y-99431741D01*
X165659986Y-99479360D01*
X165707605Y-99431741D01*
X165659986Y-99384122D01*
X165659986Y-99479360D01*
X164659986Y-99479360D02*
X165231415Y-99479360D01*
X164945700Y-99479360D02*
X164945700Y-98479360D01*
X165040939Y-98622218D01*
X165136177Y-98717456D01*
X165231415Y-98765075D01*
X164231415Y-99479360D02*
X164231415Y-98812694D01*
X164231415Y-98907932D02*
X164183796Y-98860313D01*
X164088558Y-98812694D01*
X163945700Y-98812694D01*
X163850462Y-98860313D01*
X163802843Y-98955551D01*
X163802843Y-99479360D01*
X163802843Y-98955551D02*
X163755224Y-98860313D01*
X163659986Y-98812694D01*
X163517129Y-98812694D01*
X163421891Y-98860313D01*
X163374272Y-98955551D01*
X163374272Y-99479360D01*
X153571200Y-81465465D02*
X153571200Y-80894037D01*
X153571200Y-81179751D02*
X152571200Y-81179751D01*
X152714058Y-81084513D01*
X152809296Y-80989275D01*
X152856915Y-80894037D01*
X153571200Y-81894037D02*
X152571200Y-81894037D01*
X153285486Y-82227370D01*
X152571200Y-82560703D01*
X153571200Y-82560703D01*
X164871580Y-118277095D02*
X163871580Y-118277095D01*
X164585866Y-118610428D01*
X163871580Y-118943761D01*
X164871580Y-118943761D01*
X164871580Y-119896142D02*
X164871580Y-119419952D01*
X163871580Y-119419952D01*
X164776342Y-120800904D02*
X164823961Y-120753285D01*
X164871580Y-120610428D01*
X164871580Y-120515190D01*
X164823961Y-120372333D01*
X164728723Y-120277095D01*
X164633485Y-120229476D01*
X164443009Y-120181857D01*
X164300152Y-120181857D01*
X164109676Y-120229476D01*
X164014438Y-120277095D01*
X163919200Y-120372333D01*
X163871580Y-120515190D01*
X163871580Y-120610428D01*
X163919200Y-120753285D01*
X163966819Y-120800904D01*
X164490628Y-121229476D02*
X164490628Y-121991380D01*
X163871580Y-122658047D02*
X163871580Y-122753285D01*
X163919200Y-122848523D01*
X163966819Y-122896142D01*
X164062057Y-122943761D01*
X164252533Y-122991380D01*
X164490628Y-122991380D01*
X164681104Y-122943761D01*
X164776342Y-122896142D01*
X164823961Y-122848523D01*
X164871580Y-122753285D01*
X164871580Y-122658047D01*
X164823961Y-122562809D01*
X164776342Y-122515190D01*
X164681104Y-122467571D01*
X164490628Y-122419952D01*
X164252533Y-122419952D01*
X164062057Y-122467571D01*
X163966819Y-122515190D01*
X163919200Y-122562809D01*
X163871580Y-122658047D01*
X163871580Y-123896142D02*
X163871580Y-123419952D01*
X164347771Y-123372333D01*
X164300152Y-123419952D01*
X164252533Y-123515190D01*
X164252533Y-123753285D01*
X164300152Y-123848523D01*
X164347771Y-123896142D01*
X164443009Y-123943761D01*
X164681104Y-123943761D01*
X164776342Y-123896142D01*
X164823961Y-123848523D01*
X164871580Y-123753285D01*
X164871580Y-123515190D01*
X164823961Y-123419952D01*
X164776342Y-123372333D01*
X164347771Y-124372333D02*
X164347771Y-124705666D01*
X164871580Y-124848523D02*
X164871580Y-124372333D01*
X163871580Y-124372333D01*
X163871580Y-124848523D01*
X159954980Y-101050588D02*
X159954980Y-101145826D01*
X160002600Y-101241064D01*
X160050219Y-101288683D01*
X160145457Y-101336302D01*
X160335933Y-101383921D01*
X160574028Y-101383921D01*
X160764504Y-101336302D01*
X160859742Y-101288683D01*
X160907361Y-101241064D01*
X160954980Y-101145826D01*
X160954980Y-101050588D01*
X160907361Y-100955350D01*
X160859742Y-100907731D01*
X160764504Y-100860112D01*
X160574028Y-100812493D01*
X160335933Y-100812493D01*
X160145457Y-100860112D01*
X160050219Y-100907731D01*
X160002600Y-100955350D01*
X159954980Y-101050588D01*
X160859742Y-101812493D02*
X160907361Y-101860112D01*
X160954980Y-101812493D01*
X160907361Y-101764874D01*
X160859742Y-101812493D01*
X160954980Y-101812493D01*
X160954980Y-102812493D02*
X160954980Y-102241064D01*
X160954980Y-102526779D02*
X159954980Y-102526779D01*
X160097838Y-102431540D01*
X160193076Y-102336302D01*
X160240695Y-102241064D01*
X160954980Y-103241064D02*
X160288314Y-103241064D01*
X160383552Y-103241064D02*
X160335933Y-103288683D01*
X160288314Y-103383921D01*
X160288314Y-103526779D01*
X160335933Y-103622017D01*
X160431171Y-103669636D01*
X160954980Y-103669636D01*
X160431171Y-103669636D02*
X160335933Y-103717255D01*
X160288314Y-103812493D01*
X160288314Y-103955350D01*
X160335933Y-104050588D01*
X160431171Y-104098207D01*
X160954980Y-104098207D01*
X165432904Y-75964040D02*
X165432904Y-74964040D01*
X165099571Y-75678326D01*
X164766238Y-74964040D01*
X164766238Y-75964040D01*
X163956714Y-75440231D02*
X163813857Y-75487850D01*
X163766238Y-75535469D01*
X163718619Y-75630707D01*
X163718619Y-75773564D01*
X163766238Y-75868802D01*
X163813857Y-75916421D01*
X163909095Y-75964040D01*
X164290047Y-75964040D01*
X164290047Y-74964040D01*
X163956714Y-74964040D01*
X163861476Y-75011660D01*
X163813857Y-75059279D01*
X163766238Y-75154517D01*
X163766238Y-75249755D01*
X163813857Y-75344993D01*
X163861476Y-75392612D01*
X163956714Y-75440231D01*
X164290047Y-75440231D01*
X162718619Y-75964040D02*
X163051952Y-75487850D01*
X163290047Y-75964040D02*
X163290047Y-74964040D01*
X162909095Y-74964040D01*
X162813857Y-75011660D01*
X162766238Y-75059279D01*
X162718619Y-75154517D01*
X162718619Y-75297374D01*
X162766238Y-75392612D01*
X162813857Y-75440231D01*
X162909095Y-75487850D01*
X163290047Y-75487850D01*
X161766238Y-75964040D02*
X162337666Y-75964040D01*
X162051952Y-75964040D02*
X162051952Y-74964040D01*
X162147190Y-75106898D01*
X162242428Y-75202136D01*
X162337666Y-75249755D01*
X161385285Y-75059279D02*
X161337666Y-75011660D01*
X161242428Y-74964040D01*
X161004333Y-74964040D01*
X160909095Y-75011660D01*
X160861476Y-75059279D01*
X160813857Y-75154517D01*
X160813857Y-75249755D01*
X160861476Y-75392612D01*
X161432904Y-75964040D01*
X160813857Y-75964040D01*
X160194809Y-74964040D02*
X160099571Y-74964040D01*
X160004333Y-75011660D01*
X159956714Y-75059279D01*
X159909095Y-75154517D01*
X159861476Y-75344993D01*
X159861476Y-75583088D01*
X159909095Y-75773564D01*
X159956714Y-75868802D01*
X160004333Y-75916421D01*
X160099571Y-75964040D01*
X160194809Y-75964040D01*
X160290047Y-75916421D01*
X160337666Y-75868802D01*
X160385285Y-75773564D01*
X160432904Y-75583088D01*
X160432904Y-75344993D01*
X160385285Y-75154517D01*
X160337666Y-75059279D01*
X160290047Y-75011660D01*
X160194809Y-74964040D01*
X155417780Y-118531095D02*
X154417780Y-118531095D01*
X155132066Y-118864428D01*
X154417780Y-119197761D01*
X155417780Y-119197761D01*
X155417780Y-120150142D02*
X155417780Y-119673952D01*
X154417780Y-119673952D01*
X155322542Y-121054904D02*
X155370161Y-121007285D01*
X155417780Y-120864428D01*
X155417780Y-120769190D01*
X155370161Y-120626333D01*
X155274923Y-120531095D01*
X155179685Y-120483476D01*
X154989209Y-120435857D01*
X154846352Y-120435857D01*
X154655876Y-120483476D01*
X154560638Y-120531095D01*
X154465400Y-120626333D01*
X154417780Y-120769190D01*
X154417780Y-120864428D01*
X154465400Y-121007285D01*
X154513019Y-121054904D01*
X155036828Y-121483476D02*
X155036828Y-122245380D01*
X154417780Y-122912047D02*
X154417780Y-123007285D01*
X154465400Y-123102523D01*
X154513019Y-123150142D01*
X154608257Y-123197761D01*
X154798733Y-123245380D01*
X155036828Y-123245380D01*
X155227304Y-123197761D01*
X155322542Y-123150142D01*
X155370161Y-123102523D01*
X155417780Y-123007285D01*
X155417780Y-122912047D01*
X155370161Y-122816809D01*
X155322542Y-122769190D01*
X155227304Y-122721571D01*
X155036828Y-122673952D01*
X154798733Y-122673952D01*
X154608257Y-122721571D01*
X154513019Y-122769190D01*
X154465400Y-122816809D01*
X154417780Y-122912047D01*
X154417780Y-124150142D02*
X154417780Y-123673952D01*
X154893971Y-123626333D01*
X154846352Y-123673952D01*
X154798733Y-123769190D01*
X154798733Y-124007285D01*
X154846352Y-124102523D01*
X154893971Y-124150142D01*
X154989209Y-124197761D01*
X155227304Y-124197761D01*
X155322542Y-124150142D01*
X155370161Y-124102523D01*
X155417780Y-124007285D01*
X155417780Y-123769190D01*
X155370161Y-123673952D01*
X155322542Y-123626333D01*
X154893971Y-124626333D02*
X154893971Y-124959666D01*
X155417780Y-125102523D02*
X155417780Y-124626333D01*
X154417780Y-124626333D01*
X154417780Y-125102523D01*
X161137504Y-124583619D02*
X161089885Y-124536000D01*
X160994647Y-124488380D01*
X160756552Y-124488380D01*
X160661314Y-124536000D01*
X160613695Y-124583619D01*
X160566076Y-124678857D01*
X160566076Y-124774095D01*
X160613695Y-124916952D01*
X161185123Y-125488380D01*
X160566076Y-125488380D01*
X160185123Y-124583619D02*
X160137504Y-124536000D01*
X160042266Y-124488380D01*
X159804171Y-124488380D01*
X159708933Y-124536000D01*
X159661314Y-124583619D01*
X159613695Y-124678857D01*
X159613695Y-124774095D01*
X159661314Y-124916952D01*
X160232742Y-125488380D01*
X159613695Y-125488380D01*
X159144712Y-75203959D02*
X159049474Y-75203959D01*
X158954236Y-75251579D01*
X158906617Y-75299198D01*
X158858998Y-75394436D01*
X158811379Y-75584912D01*
X158811379Y-75823007D01*
X158858998Y-76013483D01*
X158906617Y-76108721D01*
X158954236Y-76156340D01*
X159049474Y-76203959D01*
X159144712Y-76203959D01*
X159239950Y-76156340D01*
X159287569Y-76108721D01*
X159335188Y-76013483D01*
X159382807Y-75823007D01*
X159382807Y-75584912D01*
X159335188Y-75394436D01*
X159287569Y-75299198D01*
X159239950Y-75251579D01*
X159144712Y-75203959D01*
X158382807Y-76108721D02*
X158335188Y-76156340D01*
X158382807Y-76203959D01*
X158430426Y-76156340D01*
X158382807Y-76108721D01*
X158382807Y-76203959D01*
X157382807Y-76203959D02*
X157954236Y-76203959D01*
X157668521Y-76203959D02*
X157668521Y-75203959D01*
X157763760Y-75346817D01*
X157858998Y-75442055D01*
X157954236Y-75489674D01*
X156954236Y-76203959D02*
X156954236Y-75537293D01*
X156954236Y-75632531D02*
X156906617Y-75584912D01*
X156811379Y-75537293D01*
X156668521Y-75537293D01*
X156573283Y-75584912D01*
X156525664Y-75680150D01*
X156525664Y-76203959D01*
X156525664Y-75680150D02*
X156478045Y-75584912D01*
X156382807Y-75537293D01*
X156239950Y-75537293D01*
X156144712Y-75584912D01*
X156097093Y-75680150D01*
X156097093Y-76203959D01*
X168313666Y-112924862D02*
X168361285Y-112972481D01*
X168504142Y-113020100D01*
X168599380Y-113020100D01*
X168742238Y-112972481D01*
X168837476Y-112877243D01*
X168885095Y-112782005D01*
X168932714Y-112591529D01*
X168932714Y-112448672D01*
X168885095Y-112258196D01*
X168837476Y-112162958D01*
X168742238Y-112067720D01*
X168599380Y-112020100D01*
X168504142Y-112020100D01*
X168361285Y-112067720D01*
X168313666Y-112115339D01*
X167885095Y-113020100D02*
X167885095Y-112020100D01*
X167504142Y-112020100D01*
X167408904Y-112067720D01*
X167361285Y-112115339D01*
X167313666Y-112210577D01*
X167313666Y-112353434D01*
X167361285Y-112448672D01*
X167408904Y-112496291D01*
X167504142Y-112543910D01*
X167885095Y-112543910D01*
X166932714Y-112115339D02*
X166885095Y-112067720D01*
X166789857Y-112020100D01*
X166551761Y-112020100D01*
X166456523Y-112067720D01*
X166408904Y-112115339D01*
X166361285Y-112210577D01*
X166361285Y-112305815D01*
X166408904Y-112448672D01*
X166980333Y-113020100D01*
X166361285Y-113020100D01*
X165408904Y-113020100D02*
X165980333Y-113020100D01*
X165694619Y-113020100D02*
X165694619Y-112020100D01*
X165789857Y-112162958D01*
X165885095Y-112258196D01*
X165980333Y-112305815D01*
X164789857Y-112020100D02*
X164694619Y-112020100D01*
X164599380Y-112067720D01*
X164551761Y-112115339D01*
X164504142Y-112210577D01*
X164456523Y-112401053D01*
X164456523Y-112639148D01*
X164504142Y-112829624D01*
X164551761Y-112924862D01*
X164599380Y-112972481D01*
X164694619Y-113020100D01*
X164789857Y-113020100D01*
X164885095Y-112972481D01*
X164932714Y-112924862D01*
X164980333Y-112829624D01*
X165027952Y-112639148D01*
X165027952Y-112401053D01*
X164980333Y-112210577D01*
X164932714Y-112115339D01*
X164885095Y-112067720D01*
X164789857Y-112020100D01*
X164075571Y-112115339D02*
X164027952Y-112067720D01*
X163932714Y-112020100D01*
X163694619Y-112020100D01*
X163599380Y-112067720D01*
X163551761Y-112115339D01*
X163504142Y-112210577D01*
X163504142Y-112305815D01*
X163551761Y-112448672D01*
X164123190Y-113020100D01*
X163504142Y-113020100D01*
X163075571Y-113020100D02*
X163075571Y-112020100D01*
X162504142Y-113020100D01*
X162504142Y-112020100D01*
X162027952Y-112639148D02*
X161266047Y-112639148D01*
X160837476Y-112734386D02*
X160361285Y-112734386D01*
X160932714Y-113020100D02*
X160599380Y-112020100D01*
X160266047Y-113020100D01*
X159742238Y-112020100D02*
X159647000Y-112020100D01*
X159551761Y-112067720D01*
X159504142Y-112115339D01*
X159456523Y-112210577D01*
X159408904Y-112401053D01*
X159408904Y-112639148D01*
X159456523Y-112829624D01*
X159504142Y-112924862D01*
X159551761Y-112972481D01*
X159647000Y-113020100D01*
X159742238Y-113020100D01*
X159837476Y-112972481D01*
X159885095Y-112924862D01*
X159932714Y-112829624D01*
X159980333Y-112639148D01*
X159980333Y-112401053D01*
X159932714Y-112210577D01*
X159885095Y-112115339D01*
X159837476Y-112067720D01*
X159742238Y-112020100D01*
X158456523Y-113020100D02*
X159027952Y-113020100D01*
X158742238Y-113020100D02*
X158742238Y-112020100D01*
X158837476Y-112162958D01*
X158932714Y-112258196D01*
X159027952Y-112305815D01*
X158027952Y-112639148D02*
X157266047Y-112639148D01*
X156266047Y-112067720D02*
X156361285Y-112020100D01*
X156504142Y-112020100D01*
X156647000Y-112067720D01*
X156742238Y-112162958D01*
X156789857Y-112258196D01*
X156837476Y-112448672D01*
X156837476Y-112591529D01*
X156789857Y-112782005D01*
X156742238Y-112877243D01*
X156647000Y-112972481D01*
X156504142Y-113020100D01*
X156408904Y-113020100D01*
X156266047Y-112972481D01*
X156218428Y-112924862D01*
X156218428Y-112591529D01*
X156408904Y-112591529D01*
X155123190Y-113115339D02*
X155218428Y-113067720D01*
X155313666Y-112972481D01*
X155456523Y-112829624D01*
X155551761Y-112782005D01*
X155647000Y-112782005D01*
X155599380Y-113020100D02*
X155694619Y-112972481D01*
X155789857Y-112877243D01*
X155837476Y-112686767D01*
X155837476Y-112353434D01*
X155789857Y-112162958D01*
X155694619Y-112067720D01*
X155599380Y-112020100D01*
X155408904Y-112020100D01*
X155313666Y-112067720D01*
X155218428Y-112162958D01*
X155170809Y-112353434D01*
X155170809Y-112686767D01*
X155218428Y-112877243D01*
X155313666Y-112972481D01*
X155408904Y-113020100D01*
X155599380Y-113020100D01*
X154408904Y-112496291D02*
X154742238Y-112496291D01*
X154742238Y-113020100D02*
X154742238Y-112020100D01*
X154266047Y-112020100D01*
X153885095Y-113020100D02*
X153885095Y-112020100D01*
X153313666Y-113020100D01*
X153313666Y-112020100D01*
X152885095Y-112115339D02*
X152837476Y-112067720D01*
X152742238Y-112020100D01*
X152504142Y-112020100D01*
X152408904Y-112067720D01*
X152361285Y-112115339D01*
X152313666Y-112210577D01*
X152313666Y-112305815D01*
X152361285Y-112448672D01*
X152932714Y-113020100D01*
X152313666Y-113020100D01*
X151742238Y-112448672D02*
X151837476Y-112401053D01*
X151885095Y-112353434D01*
X151932714Y-112258196D01*
X151932714Y-112210577D01*
X151885095Y-112115339D01*
X151837476Y-112067720D01*
X151742238Y-112020100D01*
X151551761Y-112020100D01*
X151456523Y-112067720D01*
X151408904Y-112115339D01*
X151361285Y-112210577D01*
X151361285Y-112258196D01*
X151408904Y-112353434D01*
X151456523Y-112401053D01*
X151551761Y-112448672D01*
X151742238Y-112448672D01*
X151837476Y-112496291D01*
X151885095Y-112543910D01*
X151932714Y-112639148D01*
X151932714Y-112829624D01*
X151885095Y-112924862D01*
X151837476Y-112972481D01*
X151742238Y-113020100D01*
X151551761Y-113020100D01*
X151456523Y-112972481D01*
X151408904Y-112924862D01*
X151361285Y-112829624D01*
X151361285Y-112639148D01*
X151408904Y-112543910D01*
X151456523Y-112496291D01*
X151551761Y-112448672D01*
X132152211Y-90112600D02*
X132056973Y-90112600D01*
X131961735Y-90160220D01*
X131914116Y-90207839D01*
X131866497Y-90303077D01*
X131818878Y-90493553D01*
X131818878Y-90731648D01*
X131866497Y-90922124D01*
X131914116Y-91017362D01*
X131961735Y-91064981D01*
X132056973Y-91112600D01*
X132152211Y-91112600D01*
X132247449Y-91064981D01*
X132295068Y-91017362D01*
X132342687Y-90922124D01*
X132390306Y-90731648D01*
X132390306Y-90493553D01*
X132342687Y-90303077D01*
X132295068Y-90207839D01*
X132247449Y-90160220D01*
X132152211Y-90112600D01*
X131390306Y-91017362D02*
X131342687Y-91064981D01*
X131390306Y-91112600D01*
X131437925Y-91064981D01*
X131390306Y-91017362D01*
X131390306Y-91112600D01*
X130390306Y-91112600D02*
X130961735Y-91112600D01*
X130676020Y-91112600D02*
X130676020Y-90112600D01*
X130771259Y-90255458D01*
X130866497Y-90350696D01*
X130961735Y-90398315D01*
X129961735Y-91112600D02*
X129961735Y-90445934D01*
X129961735Y-90541172D02*
X129914116Y-90493553D01*
X129818878Y-90445934D01*
X129676020Y-90445934D01*
X129580782Y-90493553D01*
X129533163Y-90588791D01*
X129533163Y-91112600D01*
X129533163Y-90588791D02*
X129485544Y-90493553D01*
X129390306Y-90445934D01*
X129247449Y-90445934D01*
X129152211Y-90493553D01*
X129104592Y-90588791D01*
X129104592Y-91112600D01*
X134682371Y-68496620D02*
X134587133Y-68496620D01*
X134491895Y-68544240D01*
X134444276Y-68591859D01*
X134396657Y-68687097D01*
X134349038Y-68877573D01*
X134349038Y-69115668D01*
X134396657Y-69306144D01*
X134444276Y-69401382D01*
X134491895Y-69449001D01*
X134587133Y-69496620D01*
X134682371Y-69496620D01*
X134777609Y-69449001D01*
X134825228Y-69401382D01*
X134872847Y-69306144D01*
X134920466Y-69115668D01*
X134920466Y-68877573D01*
X134872847Y-68687097D01*
X134825228Y-68591859D01*
X134777609Y-68544240D01*
X134682371Y-68496620D01*
X133920466Y-69401382D02*
X133872847Y-69449001D01*
X133920466Y-69496620D01*
X133968085Y-69449001D01*
X133920466Y-69401382D01*
X133920466Y-69496620D01*
X132920466Y-69496620D02*
X133491895Y-69496620D01*
X133206180Y-69496620D02*
X133206180Y-68496620D01*
X133301419Y-68639478D01*
X133396657Y-68734716D01*
X133491895Y-68782335D01*
X132491895Y-69496620D02*
X132491895Y-68829954D01*
X132491895Y-68925192D02*
X132444276Y-68877573D01*
X132349038Y-68829954D01*
X132206180Y-68829954D01*
X132110942Y-68877573D01*
X132063323Y-68972811D01*
X132063323Y-69496620D01*
X132063323Y-68972811D02*
X132015704Y-68877573D01*
X131920466Y-68829954D01*
X131777609Y-68829954D01*
X131682371Y-68877573D01*
X131634752Y-68972811D01*
X131634752Y-69496620D01*
X139294371Y-64230580D02*
X139199133Y-64230580D01*
X139103895Y-64278200D01*
X139056276Y-64325819D01*
X139008657Y-64421057D01*
X138961038Y-64611533D01*
X138961038Y-64849628D01*
X139008657Y-65040104D01*
X139056276Y-65135342D01*
X139103895Y-65182961D01*
X139199133Y-65230580D01*
X139294371Y-65230580D01*
X139389609Y-65182961D01*
X139437228Y-65135342D01*
X139484847Y-65040104D01*
X139532466Y-64849628D01*
X139532466Y-64611533D01*
X139484847Y-64421057D01*
X139437228Y-64325819D01*
X139389609Y-64278200D01*
X139294371Y-64230580D01*
X138532466Y-65135342D02*
X138484847Y-65182961D01*
X138532466Y-65230580D01*
X138580085Y-65182961D01*
X138532466Y-65135342D01*
X138532466Y-65230580D01*
X137532466Y-65230580D02*
X138103895Y-65230580D01*
X137818180Y-65230580D02*
X137818180Y-64230580D01*
X137913419Y-64373438D01*
X138008657Y-64468676D01*
X138103895Y-64516295D01*
X137103895Y-65230580D02*
X137103895Y-64563914D01*
X137103895Y-64659152D02*
X137056276Y-64611533D01*
X136961038Y-64563914D01*
X136818180Y-64563914D01*
X136722942Y-64611533D01*
X136675323Y-64706771D01*
X136675323Y-65230580D01*
X136675323Y-64706771D02*
X136627704Y-64611533D01*
X136532466Y-64563914D01*
X136389609Y-64563914D01*
X136294371Y-64611533D01*
X136246752Y-64706771D01*
X136246752Y-65230580D01*
X130713740Y-113882515D02*
X129713740Y-113882515D01*
X130428026Y-114215848D01*
X129713740Y-114549181D01*
X130713740Y-114549181D01*
X130189931Y-115358705D02*
X130237550Y-115501562D01*
X130285169Y-115549181D01*
X130380407Y-115596800D01*
X130523264Y-115596800D01*
X130618502Y-115549181D01*
X130666121Y-115501562D01*
X130713740Y-115406324D01*
X130713740Y-115025372D01*
X129713740Y-115025372D01*
X129713740Y-115358705D01*
X129761360Y-115453943D01*
X129808979Y-115501562D01*
X129904217Y-115549181D01*
X129999455Y-115549181D01*
X130094693Y-115501562D01*
X130142312Y-115453943D01*
X130189931Y-115358705D01*
X130189931Y-115025372D01*
X130713740Y-116596800D02*
X130237550Y-116263467D01*
X130713740Y-116025372D02*
X129713740Y-116025372D01*
X129713740Y-116406324D01*
X129761360Y-116501562D01*
X129808979Y-116549181D01*
X129904217Y-116596800D01*
X130047074Y-116596800D01*
X130142312Y-116549181D01*
X130189931Y-116501562D01*
X130237550Y-116406324D01*
X130237550Y-116025372D01*
X130713740Y-117549181D02*
X130713740Y-116977753D01*
X130713740Y-117263467D02*
X129713740Y-117263467D01*
X129856598Y-117168229D01*
X129951836Y-117072991D01*
X129999455Y-116977753D01*
X129808979Y-117930134D02*
X129761360Y-117977753D01*
X129713740Y-118072991D01*
X129713740Y-118311086D01*
X129761360Y-118406324D01*
X129808979Y-118453943D01*
X129904217Y-118501562D01*
X129999455Y-118501562D01*
X130142312Y-118453943D01*
X130713740Y-117882515D01*
X130713740Y-118501562D01*
X129713740Y-119120610D02*
X129713740Y-119215848D01*
X129761360Y-119311086D01*
X129808979Y-119358705D01*
X129904217Y-119406324D01*
X130094693Y-119453943D01*
X130332788Y-119453943D01*
X130523264Y-119406324D01*
X130618502Y-119358705D01*
X130666121Y-119311086D01*
X130713740Y-119215848D01*
X130713740Y-119120610D01*
X130666121Y-119025372D01*
X130618502Y-118977753D01*
X130523264Y-118930134D01*
X130332788Y-118882515D01*
X130094693Y-118882515D01*
X129904217Y-118930134D01*
X129808979Y-118977753D01*
X129761360Y-119025372D01*
X129713740Y-119120610D01*
X140089118Y-94039520D02*
X139755784Y-95039520D01*
X139422451Y-94039520D01*
X139089118Y-95039520D02*
X139089118Y-94039520D01*
X138422451Y-94039520D02*
X138231975Y-94039520D01*
X138136737Y-94087140D01*
X138041499Y-94182378D01*
X137993880Y-94372854D01*
X137993880Y-94706187D01*
X138041499Y-94896663D01*
X138136737Y-94991901D01*
X138231975Y-95039520D01*
X138422451Y-95039520D01*
X138517689Y-94991901D01*
X138612927Y-94896663D01*
X138660546Y-94706187D01*
X138660546Y-94372854D01*
X138612927Y-94182378D01*
X138517689Y-94087140D01*
X138422451Y-94039520D01*
X137867220Y-104685813D02*
X138581506Y-104685813D01*
X138724363Y-104638194D01*
X138819601Y-104542956D01*
X138867220Y-104400099D01*
X138867220Y-104304860D01*
X138200554Y-105590575D02*
X138867220Y-105590575D01*
X138200554Y-105162003D02*
X138724363Y-105162003D01*
X138819601Y-105209622D01*
X138867220Y-105304860D01*
X138867220Y-105447718D01*
X138819601Y-105542956D01*
X138771982Y-105590575D01*
X138867220Y-106066765D02*
X138200554Y-106066765D01*
X138295792Y-106066765D02*
X138248173Y-106114384D01*
X138200554Y-106209622D01*
X138200554Y-106352480D01*
X138248173Y-106447718D01*
X138343411Y-106495337D01*
X138867220Y-106495337D01*
X138343411Y-106495337D02*
X138248173Y-106542956D01*
X138200554Y-106638194D01*
X138200554Y-106781051D01*
X138248173Y-106876289D01*
X138343411Y-106923908D01*
X138867220Y-106923908D01*
X138200554Y-107400099D02*
X139200554Y-107400099D01*
X138248173Y-107400099D02*
X138200554Y-107495337D01*
X138200554Y-107685813D01*
X138248173Y-107781051D01*
X138295792Y-107828670D01*
X138391030Y-107876289D01*
X138676744Y-107876289D01*
X138771982Y-107828670D01*
X138819601Y-107781051D01*
X138867220Y-107685813D01*
X138867220Y-107495337D01*
X138819601Y-107400099D01*
X138819601Y-108685813D02*
X138867220Y-108590575D01*
X138867220Y-108400099D01*
X138819601Y-108304860D01*
X138724363Y-108257241D01*
X138343411Y-108257241D01*
X138248173Y-108304860D01*
X138200554Y-108400099D01*
X138200554Y-108590575D01*
X138248173Y-108685813D01*
X138343411Y-108733432D01*
X138438649Y-108733432D01*
X138533887Y-108257241D01*
X138867220Y-109162003D02*
X138200554Y-109162003D01*
X138391030Y-109162003D02*
X138295792Y-109209622D01*
X138248173Y-109257241D01*
X138200554Y-109352480D01*
X138200554Y-109447718D01*
X140397051Y-83902300D02*
X140301813Y-83902300D01*
X140206575Y-83949920D01*
X140158956Y-83997539D01*
X140111337Y-84092777D01*
X140063718Y-84283253D01*
X140063718Y-84521348D01*
X140111337Y-84711824D01*
X140158956Y-84807062D01*
X140206575Y-84854681D01*
X140301813Y-84902300D01*
X140397051Y-84902300D01*
X140492289Y-84854681D01*
X140539908Y-84807062D01*
X140587527Y-84711824D01*
X140635146Y-84521348D01*
X140635146Y-84283253D01*
X140587527Y-84092777D01*
X140539908Y-83997539D01*
X140492289Y-83949920D01*
X140397051Y-83902300D01*
X139635146Y-84807062D02*
X139587527Y-84854681D01*
X139635146Y-84902300D01*
X139682765Y-84854681D01*
X139635146Y-84807062D01*
X139635146Y-84902300D01*
X138635146Y-84902300D02*
X139206575Y-84902300D01*
X138920860Y-84902300D02*
X138920860Y-83902300D01*
X139016099Y-84045158D01*
X139111337Y-84140396D01*
X139206575Y-84188015D01*
X138206575Y-84902300D02*
X138206575Y-84235634D01*
X138206575Y-84330872D02*
X138158956Y-84283253D01*
X138063718Y-84235634D01*
X137920860Y-84235634D01*
X137825622Y-84283253D01*
X137778003Y-84378491D01*
X137778003Y-84902300D01*
X137778003Y-84378491D02*
X137730384Y-84283253D01*
X137635146Y-84235634D01*
X137492289Y-84235634D01*
X137397051Y-84283253D01*
X137349432Y-84378491D01*
X137349432Y-84902300D01*
X136728104Y-122221419D02*
X136680485Y-122173800D01*
X136585247Y-122126180D01*
X136347152Y-122126180D01*
X136251914Y-122173800D01*
X136204295Y-122221419D01*
X136156676Y-122316657D01*
X136156676Y-122411895D01*
X136204295Y-122554752D01*
X136775723Y-123126180D01*
X136156676Y-123126180D01*
X135775723Y-122221419D02*
X135728104Y-122173800D01*
X135632866Y-122126180D01*
X135394771Y-122126180D01*
X135299533Y-122173800D01*
X135251914Y-122221419D01*
X135204295Y-122316657D01*
X135204295Y-122411895D01*
X135251914Y-122554752D01*
X135823342Y-123126180D01*
X135204295Y-123126180D01*
X142037891Y-98479360D02*
X141942653Y-98479360D01*
X141847415Y-98526980D01*
X141799796Y-98574599D01*
X141752177Y-98669837D01*
X141704558Y-98860313D01*
X141704558Y-99098408D01*
X141752177Y-99288884D01*
X141799796Y-99384122D01*
X141847415Y-99431741D01*
X141942653Y-99479360D01*
X142037891Y-99479360D01*
X142133129Y-99431741D01*
X142180748Y-99384122D01*
X142228367Y-99288884D01*
X142275986Y-99098408D01*
X142275986Y-98860313D01*
X142228367Y-98669837D01*
X142180748Y-98574599D01*
X142133129Y-98526980D01*
X142037891Y-98479360D01*
X141275986Y-99384122D02*
X141228367Y-99431741D01*
X141275986Y-99479360D01*
X141323605Y-99431741D01*
X141275986Y-99384122D01*
X141275986Y-99479360D01*
X140275986Y-99479360D02*
X140847415Y-99479360D01*
X140561700Y-99479360D02*
X140561700Y-98479360D01*
X140656939Y-98622218D01*
X140752177Y-98717456D01*
X140847415Y-98765075D01*
X139847415Y-99479360D02*
X139847415Y-98812694D01*
X139847415Y-98907932D02*
X139799796Y-98860313D01*
X139704558Y-98812694D01*
X139561700Y-98812694D01*
X139466462Y-98860313D01*
X139418843Y-98955551D01*
X139418843Y-99479360D01*
X139418843Y-98955551D02*
X139371224Y-98860313D01*
X139275986Y-98812694D01*
X139133129Y-98812694D01*
X139037891Y-98860313D01*
X138990272Y-98955551D01*
X138990272Y-99479360D01*
X129187200Y-81465465D02*
X129187200Y-80894037D01*
X129187200Y-81179751D02*
X128187200Y-81179751D01*
X128330058Y-81084513D01*
X128425296Y-80989275D01*
X128472915Y-80894037D01*
X129187200Y-81894037D02*
X128187200Y-81894037D01*
X128901486Y-82227370D01*
X128187200Y-82560703D01*
X129187200Y-82560703D01*
X140487580Y-118277095D02*
X139487580Y-118277095D01*
X140201866Y-118610428D01*
X139487580Y-118943761D01*
X140487580Y-118943761D01*
X140487580Y-119896142D02*
X140487580Y-119419952D01*
X139487580Y-119419952D01*
X140392342Y-120800904D02*
X140439961Y-120753285D01*
X140487580Y-120610428D01*
X140487580Y-120515190D01*
X140439961Y-120372333D01*
X140344723Y-120277095D01*
X140249485Y-120229476D01*
X140059009Y-120181857D01*
X139916152Y-120181857D01*
X139725676Y-120229476D01*
X139630438Y-120277095D01*
X139535200Y-120372333D01*
X139487580Y-120515190D01*
X139487580Y-120610428D01*
X139535200Y-120753285D01*
X139582819Y-120800904D01*
X140106628Y-121229476D02*
X140106628Y-121991380D01*
X139487580Y-122658047D02*
X139487580Y-122753285D01*
X139535200Y-122848523D01*
X139582819Y-122896142D01*
X139678057Y-122943761D01*
X139868533Y-122991380D01*
X140106628Y-122991380D01*
X140297104Y-122943761D01*
X140392342Y-122896142D01*
X140439961Y-122848523D01*
X140487580Y-122753285D01*
X140487580Y-122658047D01*
X140439961Y-122562809D01*
X140392342Y-122515190D01*
X140297104Y-122467571D01*
X140106628Y-122419952D01*
X139868533Y-122419952D01*
X139678057Y-122467571D01*
X139582819Y-122515190D01*
X139535200Y-122562809D01*
X139487580Y-122658047D01*
X139487580Y-123896142D02*
X139487580Y-123419952D01*
X139963771Y-123372333D01*
X139916152Y-123419952D01*
X139868533Y-123515190D01*
X139868533Y-123753285D01*
X139916152Y-123848523D01*
X139963771Y-123896142D01*
X140059009Y-123943761D01*
X140297104Y-123943761D01*
X140392342Y-123896142D01*
X140439961Y-123848523D01*
X140487580Y-123753285D01*
X140487580Y-123515190D01*
X140439961Y-123419952D01*
X140392342Y-123372333D01*
X139963771Y-124372333D02*
X139963771Y-124705666D01*
X140487580Y-124848523D02*
X140487580Y-124372333D01*
X139487580Y-124372333D01*
X139487580Y-124848523D01*
X135570980Y-101050588D02*
X135570980Y-101145826D01*
X135618600Y-101241064D01*
X135666219Y-101288683D01*
X135761457Y-101336302D01*
X135951933Y-101383921D01*
X136190028Y-101383921D01*
X136380504Y-101336302D01*
X136475742Y-101288683D01*
X136523361Y-101241064D01*
X136570980Y-101145826D01*
X136570980Y-101050588D01*
X136523361Y-100955350D01*
X136475742Y-100907731D01*
X136380504Y-100860112D01*
X136190028Y-100812493D01*
X135951933Y-100812493D01*
X135761457Y-100860112D01*
X135666219Y-100907731D01*
X135618600Y-100955350D01*
X135570980Y-101050588D01*
X136475742Y-101812493D02*
X136523361Y-101860112D01*
X136570980Y-101812493D01*
X136523361Y-101764874D01*
X136475742Y-101812493D01*
X136570980Y-101812493D01*
X136570980Y-102812493D02*
X136570980Y-102241064D01*
X136570980Y-102526779D02*
X135570980Y-102526779D01*
X135713838Y-102431540D01*
X135809076Y-102336302D01*
X135856695Y-102241064D01*
X136570980Y-103241064D02*
X135904314Y-103241064D01*
X135999552Y-103241064D02*
X135951933Y-103288683D01*
X135904314Y-103383921D01*
X135904314Y-103526779D01*
X135951933Y-103622017D01*
X136047171Y-103669636D01*
X136570980Y-103669636D01*
X136047171Y-103669636D02*
X135951933Y-103717255D01*
X135904314Y-103812493D01*
X135904314Y-103955350D01*
X135951933Y-104050588D01*
X136047171Y-104098207D01*
X136570980Y-104098207D01*
X141048904Y-75964040D02*
X141048904Y-74964040D01*
X140715571Y-75678326D01*
X140382238Y-74964040D01*
X140382238Y-75964040D01*
X139572714Y-75440231D02*
X139429857Y-75487850D01*
X139382238Y-75535469D01*
X139334619Y-75630707D01*
X139334619Y-75773564D01*
X139382238Y-75868802D01*
X139429857Y-75916421D01*
X139525095Y-75964040D01*
X139906047Y-75964040D01*
X139906047Y-74964040D01*
X139572714Y-74964040D01*
X139477476Y-75011660D01*
X139429857Y-75059279D01*
X139382238Y-75154517D01*
X139382238Y-75249755D01*
X139429857Y-75344993D01*
X139477476Y-75392612D01*
X139572714Y-75440231D01*
X139906047Y-75440231D01*
X138334619Y-75964040D02*
X138667952Y-75487850D01*
X138906047Y-75964040D02*
X138906047Y-74964040D01*
X138525095Y-74964040D01*
X138429857Y-75011660D01*
X138382238Y-75059279D01*
X138334619Y-75154517D01*
X138334619Y-75297374D01*
X138382238Y-75392612D01*
X138429857Y-75440231D01*
X138525095Y-75487850D01*
X138906047Y-75487850D01*
X137382238Y-75964040D02*
X137953666Y-75964040D01*
X137667952Y-75964040D02*
X137667952Y-74964040D01*
X137763190Y-75106898D01*
X137858428Y-75202136D01*
X137953666Y-75249755D01*
X137001285Y-75059279D02*
X136953666Y-75011660D01*
X136858428Y-74964040D01*
X136620333Y-74964040D01*
X136525095Y-75011660D01*
X136477476Y-75059279D01*
X136429857Y-75154517D01*
X136429857Y-75249755D01*
X136477476Y-75392612D01*
X137048904Y-75964040D01*
X136429857Y-75964040D01*
X135810809Y-74964040D02*
X135715571Y-74964040D01*
X135620333Y-75011660D01*
X135572714Y-75059279D01*
X135525095Y-75154517D01*
X135477476Y-75344993D01*
X135477476Y-75583088D01*
X135525095Y-75773564D01*
X135572714Y-75868802D01*
X135620333Y-75916421D01*
X135715571Y-75964040D01*
X135810809Y-75964040D01*
X135906047Y-75916421D01*
X135953666Y-75868802D01*
X136001285Y-75773564D01*
X136048904Y-75583088D01*
X136048904Y-75344993D01*
X136001285Y-75154517D01*
X135953666Y-75059279D01*
X135906047Y-75011660D01*
X135810809Y-74964040D01*
X131033780Y-118531095D02*
X130033780Y-118531095D01*
X130748066Y-118864428D01*
X130033780Y-119197761D01*
X131033780Y-119197761D01*
X131033780Y-120150142D02*
X131033780Y-119673952D01*
X130033780Y-119673952D01*
X130938542Y-121054904D02*
X130986161Y-121007285D01*
X131033780Y-120864428D01*
X131033780Y-120769190D01*
X130986161Y-120626333D01*
X130890923Y-120531095D01*
X130795685Y-120483476D01*
X130605209Y-120435857D01*
X130462352Y-120435857D01*
X130271876Y-120483476D01*
X130176638Y-120531095D01*
X130081400Y-120626333D01*
X130033780Y-120769190D01*
X130033780Y-120864428D01*
X130081400Y-121007285D01*
X130129019Y-121054904D01*
X130652828Y-121483476D02*
X130652828Y-122245380D01*
X130033780Y-122912047D02*
X130033780Y-123007285D01*
X130081400Y-123102523D01*
X130129019Y-123150142D01*
X130224257Y-123197761D01*
X130414733Y-123245380D01*
X130652828Y-123245380D01*
X130843304Y-123197761D01*
X130938542Y-123150142D01*
X130986161Y-123102523D01*
X131033780Y-123007285D01*
X131033780Y-122912047D01*
X130986161Y-122816809D01*
X130938542Y-122769190D01*
X130843304Y-122721571D01*
X130652828Y-122673952D01*
X130414733Y-122673952D01*
X130224257Y-122721571D01*
X130129019Y-122769190D01*
X130081400Y-122816809D01*
X130033780Y-122912047D01*
X130033780Y-124150142D02*
X130033780Y-123673952D01*
X130509971Y-123626333D01*
X130462352Y-123673952D01*
X130414733Y-123769190D01*
X130414733Y-124007285D01*
X130462352Y-124102523D01*
X130509971Y-124150142D01*
X130605209Y-124197761D01*
X130843304Y-124197761D01*
X130938542Y-124150142D01*
X130986161Y-124102523D01*
X131033780Y-124007285D01*
X131033780Y-123769190D01*
X130986161Y-123673952D01*
X130938542Y-123626333D01*
X130509971Y-124626333D02*
X130509971Y-124959666D01*
X131033780Y-125102523D02*
X131033780Y-124626333D01*
X130033780Y-124626333D01*
X130033780Y-125102523D01*
X136753504Y-124583619D02*
X136705885Y-124536000D01*
X136610647Y-124488380D01*
X136372552Y-124488380D01*
X136277314Y-124536000D01*
X136229695Y-124583619D01*
X136182076Y-124678857D01*
X136182076Y-124774095D01*
X136229695Y-124916952D01*
X136801123Y-125488380D01*
X136182076Y-125488380D01*
X135801123Y-124583619D02*
X135753504Y-124536000D01*
X135658266Y-124488380D01*
X135420171Y-124488380D01*
X135324933Y-124536000D01*
X135277314Y-124583619D01*
X135229695Y-124678857D01*
X135229695Y-124774095D01*
X135277314Y-124916952D01*
X135848742Y-125488380D01*
X135229695Y-125488380D01*
X134760712Y-75203959D02*
X134665474Y-75203959D01*
X134570236Y-75251579D01*
X134522617Y-75299198D01*
X134474998Y-75394436D01*
X134427379Y-75584912D01*
X134427379Y-75823007D01*
X134474998Y-76013483D01*
X134522617Y-76108721D01*
X134570236Y-76156340D01*
X134665474Y-76203959D01*
X134760712Y-76203959D01*
X134855950Y-76156340D01*
X134903569Y-76108721D01*
X134951188Y-76013483D01*
X134998807Y-75823007D01*
X134998807Y-75584912D01*
X134951188Y-75394436D01*
X134903569Y-75299198D01*
X134855950Y-75251579D01*
X134760712Y-75203959D01*
X133998807Y-76108721D02*
X133951188Y-76156340D01*
X133998807Y-76203959D01*
X134046426Y-76156340D01*
X133998807Y-76108721D01*
X133998807Y-76203959D01*
X132998807Y-76203959D02*
X133570236Y-76203959D01*
X133284521Y-76203959D02*
X133284521Y-75203959D01*
X133379760Y-75346817D01*
X133474998Y-75442055D01*
X133570236Y-75489674D01*
X132570236Y-76203959D02*
X132570236Y-75537293D01*
X132570236Y-75632531D02*
X132522617Y-75584912D01*
X132427379Y-75537293D01*
X132284521Y-75537293D01*
X132189283Y-75584912D01*
X132141664Y-75680150D01*
X132141664Y-76203959D01*
X132141664Y-75680150D02*
X132094045Y-75584912D01*
X131998807Y-75537293D01*
X131855950Y-75537293D01*
X131760712Y-75584912D01*
X131713093Y-75680150D01*
X131713093Y-76203959D01*
X143929666Y-112924862D02*
X143977285Y-112972481D01*
X144120142Y-113020100D01*
X144215380Y-113020100D01*
X144358238Y-112972481D01*
X144453476Y-112877243D01*
X144501095Y-112782005D01*
X144548714Y-112591529D01*
X144548714Y-112448672D01*
X144501095Y-112258196D01*
X144453476Y-112162958D01*
X144358238Y-112067720D01*
X144215380Y-112020100D01*
X144120142Y-112020100D01*
X143977285Y-112067720D01*
X143929666Y-112115339D01*
X143501095Y-113020100D02*
X143501095Y-112020100D01*
X143120142Y-112020100D01*
X143024904Y-112067720D01*
X142977285Y-112115339D01*
X142929666Y-112210577D01*
X142929666Y-112353434D01*
X142977285Y-112448672D01*
X143024904Y-112496291D01*
X143120142Y-112543910D01*
X143501095Y-112543910D01*
X142548714Y-112115339D02*
X142501095Y-112067720D01*
X142405857Y-112020100D01*
X142167761Y-112020100D01*
X142072523Y-112067720D01*
X142024904Y-112115339D01*
X141977285Y-112210577D01*
X141977285Y-112305815D01*
X142024904Y-112448672D01*
X142596333Y-113020100D01*
X141977285Y-113020100D01*
X141024904Y-113020100D02*
X141596333Y-113020100D01*
X141310619Y-113020100D02*
X141310619Y-112020100D01*
X141405857Y-112162958D01*
X141501095Y-112258196D01*
X141596333Y-112305815D01*
X140405857Y-112020100D02*
X140310619Y-112020100D01*
X140215380Y-112067720D01*
X140167761Y-112115339D01*
X140120142Y-112210577D01*
X140072523Y-112401053D01*
X140072523Y-112639148D01*
X140120142Y-112829624D01*
X140167761Y-112924862D01*
X140215380Y-112972481D01*
X140310619Y-113020100D01*
X140405857Y-113020100D01*
X140501095Y-112972481D01*
X140548714Y-112924862D01*
X140596333Y-112829624D01*
X140643952Y-112639148D01*
X140643952Y-112401053D01*
X140596333Y-112210577D01*
X140548714Y-112115339D01*
X140501095Y-112067720D01*
X140405857Y-112020100D01*
X139691571Y-112115339D02*
X139643952Y-112067720D01*
X139548714Y-112020100D01*
X139310619Y-112020100D01*
X139215380Y-112067720D01*
X139167761Y-112115339D01*
X139120142Y-112210577D01*
X139120142Y-112305815D01*
X139167761Y-112448672D01*
X139739190Y-113020100D01*
X139120142Y-113020100D01*
X138691571Y-113020100D02*
X138691571Y-112020100D01*
X138120142Y-113020100D01*
X138120142Y-112020100D01*
X137643952Y-112639148D02*
X136882047Y-112639148D01*
X136453476Y-112734386D02*
X135977285Y-112734386D01*
X136548714Y-113020100D02*
X136215380Y-112020100D01*
X135882047Y-113020100D01*
X135358238Y-112020100D02*
X135263000Y-112020100D01*
X135167761Y-112067720D01*
X135120142Y-112115339D01*
X135072523Y-112210577D01*
X135024904Y-112401053D01*
X135024904Y-112639148D01*
X135072523Y-112829624D01*
X135120142Y-112924862D01*
X135167761Y-112972481D01*
X135263000Y-113020100D01*
X135358238Y-113020100D01*
X135453476Y-112972481D01*
X135501095Y-112924862D01*
X135548714Y-112829624D01*
X135596333Y-112639148D01*
X135596333Y-112401053D01*
X135548714Y-112210577D01*
X135501095Y-112115339D01*
X135453476Y-112067720D01*
X135358238Y-112020100D01*
X134072523Y-113020100D02*
X134643952Y-113020100D01*
X134358238Y-113020100D02*
X134358238Y-112020100D01*
X134453476Y-112162958D01*
X134548714Y-112258196D01*
X134643952Y-112305815D01*
X133643952Y-112639148D02*
X132882047Y-112639148D01*
X131882047Y-112067720D02*
X131977285Y-112020100D01*
X132120142Y-112020100D01*
X132263000Y-112067720D01*
X132358238Y-112162958D01*
X132405857Y-112258196D01*
X132453476Y-112448672D01*
X132453476Y-112591529D01*
X132405857Y-112782005D01*
X132358238Y-112877243D01*
X132263000Y-112972481D01*
X132120142Y-113020100D01*
X132024904Y-113020100D01*
X131882047Y-112972481D01*
X131834428Y-112924862D01*
X131834428Y-112591529D01*
X132024904Y-112591529D01*
X130739190Y-113115339D02*
X130834428Y-113067720D01*
X130929666Y-112972481D01*
X131072523Y-112829624D01*
X131167761Y-112782005D01*
X131263000Y-112782005D01*
X131215380Y-113020100D02*
X131310619Y-112972481D01*
X131405857Y-112877243D01*
X131453476Y-112686767D01*
X131453476Y-112353434D01*
X131405857Y-112162958D01*
X131310619Y-112067720D01*
X131215380Y-112020100D01*
X131024904Y-112020100D01*
X130929666Y-112067720D01*
X130834428Y-112162958D01*
X130786809Y-112353434D01*
X130786809Y-112686767D01*
X130834428Y-112877243D01*
X130929666Y-112972481D01*
X131024904Y-113020100D01*
X131215380Y-113020100D01*
X130024904Y-112496291D02*
X130358238Y-112496291D01*
X130358238Y-113020100D02*
X130358238Y-112020100D01*
X129882047Y-112020100D01*
X129501095Y-113020100D02*
X129501095Y-112020100D01*
X128929666Y-113020100D01*
X128929666Y-112020100D01*
X128501095Y-112115339D02*
X128453476Y-112067720D01*
X128358238Y-112020100D01*
X128120142Y-112020100D01*
X128024904Y-112067720D01*
X127977285Y-112115339D01*
X127929666Y-112210577D01*
X127929666Y-112305815D01*
X127977285Y-112448672D01*
X128548714Y-113020100D01*
X127929666Y-113020100D01*
X127358238Y-112448672D02*
X127453476Y-112401053D01*
X127501095Y-112353434D01*
X127548714Y-112258196D01*
X127548714Y-112210577D01*
X127501095Y-112115339D01*
X127453476Y-112067720D01*
X127358238Y-112020100D01*
X127167761Y-112020100D01*
X127072523Y-112067720D01*
X127024904Y-112115339D01*
X126977285Y-112210577D01*
X126977285Y-112258196D01*
X127024904Y-112353434D01*
X127072523Y-112401053D01*
X127167761Y-112448672D01*
X127358238Y-112448672D01*
X127453476Y-112496291D01*
X127501095Y-112543910D01*
X127548714Y-112639148D01*
X127548714Y-112829624D01*
X127501095Y-112924862D01*
X127453476Y-112972481D01*
X127358238Y-113020100D01*
X127167761Y-113020100D01*
X127072523Y-112972481D01*
X127024904Y-112924862D01*
X126977285Y-112829624D01*
X126977285Y-112639148D01*
X127024904Y-112543910D01*
X127072523Y-112496291D01*
X127167761Y-112448672D01*
X107768211Y-90112600D02*
X107672973Y-90112600D01*
X107577735Y-90160220D01*
X107530116Y-90207839D01*
X107482497Y-90303077D01*
X107434878Y-90493553D01*
X107434878Y-90731648D01*
X107482497Y-90922124D01*
X107530116Y-91017362D01*
X107577735Y-91064981D01*
X107672973Y-91112600D01*
X107768211Y-91112600D01*
X107863449Y-91064981D01*
X107911068Y-91017362D01*
X107958687Y-90922124D01*
X108006306Y-90731648D01*
X108006306Y-90493553D01*
X107958687Y-90303077D01*
X107911068Y-90207839D01*
X107863449Y-90160220D01*
X107768211Y-90112600D01*
X107006306Y-91017362D02*
X106958687Y-91064981D01*
X107006306Y-91112600D01*
X107053925Y-91064981D01*
X107006306Y-91017362D01*
X107006306Y-91112600D01*
X106006306Y-91112600D02*
X106577735Y-91112600D01*
X106292020Y-91112600D02*
X106292020Y-90112600D01*
X106387259Y-90255458D01*
X106482497Y-90350696D01*
X106577735Y-90398315D01*
X105577735Y-91112600D02*
X105577735Y-90445934D01*
X105577735Y-90541172D02*
X105530116Y-90493553D01*
X105434878Y-90445934D01*
X105292020Y-90445934D01*
X105196782Y-90493553D01*
X105149163Y-90588791D01*
X105149163Y-91112600D01*
X105149163Y-90588791D02*
X105101544Y-90493553D01*
X105006306Y-90445934D01*
X104863449Y-90445934D01*
X104768211Y-90493553D01*
X104720592Y-90588791D01*
X104720592Y-91112600D01*
X110298371Y-68496620D02*
X110203133Y-68496620D01*
X110107895Y-68544240D01*
X110060276Y-68591859D01*
X110012657Y-68687097D01*
X109965038Y-68877573D01*
X109965038Y-69115668D01*
X110012657Y-69306144D01*
X110060276Y-69401382D01*
X110107895Y-69449001D01*
X110203133Y-69496620D01*
X110298371Y-69496620D01*
X110393609Y-69449001D01*
X110441228Y-69401382D01*
X110488847Y-69306144D01*
X110536466Y-69115668D01*
X110536466Y-68877573D01*
X110488847Y-68687097D01*
X110441228Y-68591859D01*
X110393609Y-68544240D01*
X110298371Y-68496620D01*
X109536466Y-69401382D02*
X109488847Y-69449001D01*
X109536466Y-69496620D01*
X109584085Y-69449001D01*
X109536466Y-69401382D01*
X109536466Y-69496620D01*
X108536466Y-69496620D02*
X109107895Y-69496620D01*
X108822180Y-69496620D02*
X108822180Y-68496620D01*
X108917419Y-68639478D01*
X109012657Y-68734716D01*
X109107895Y-68782335D01*
X108107895Y-69496620D02*
X108107895Y-68829954D01*
X108107895Y-68925192D02*
X108060276Y-68877573D01*
X107965038Y-68829954D01*
X107822180Y-68829954D01*
X107726942Y-68877573D01*
X107679323Y-68972811D01*
X107679323Y-69496620D01*
X107679323Y-68972811D02*
X107631704Y-68877573D01*
X107536466Y-68829954D01*
X107393609Y-68829954D01*
X107298371Y-68877573D01*
X107250752Y-68972811D01*
X107250752Y-69496620D01*
X114910371Y-64230580D02*
X114815133Y-64230580D01*
X114719895Y-64278200D01*
X114672276Y-64325819D01*
X114624657Y-64421057D01*
X114577038Y-64611533D01*
X114577038Y-64849628D01*
X114624657Y-65040104D01*
X114672276Y-65135342D01*
X114719895Y-65182961D01*
X114815133Y-65230580D01*
X114910371Y-65230580D01*
X115005609Y-65182961D01*
X115053228Y-65135342D01*
X115100847Y-65040104D01*
X115148466Y-64849628D01*
X115148466Y-64611533D01*
X115100847Y-64421057D01*
X115053228Y-64325819D01*
X115005609Y-64278200D01*
X114910371Y-64230580D01*
X114148466Y-65135342D02*
X114100847Y-65182961D01*
X114148466Y-65230580D01*
X114196085Y-65182961D01*
X114148466Y-65135342D01*
X114148466Y-65230580D01*
X113148466Y-65230580D02*
X113719895Y-65230580D01*
X113434180Y-65230580D02*
X113434180Y-64230580D01*
X113529419Y-64373438D01*
X113624657Y-64468676D01*
X113719895Y-64516295D01*
X112719895Y-65230580D02*
X112719895Y-64563914D01*
X112719895Y-64659152D02*
X112672276Y-64611533D01*
X112577038Y-64563914D01*
X112434180Y-64563914D01*
X112338942Y-64611533D01*
X112291323Y-64706771D01*
X112291323Y-65230580D01*
X112291323Y-64706771D02*
X112243704Y-64611533D01*
X112148466Y-64563914D01*
X112005609Y-64563914D01*
X111910371Y-64611533D01*
X111862752Y-64706771D01*
X111862752Y-65230580D01*
X106329740Y-113882515D02*
X105329740Y-113882515D01*
X106044026Y-114215848D01*
X105329740Y-114549181D01*
X106329740Y-114549181D01*
X105805931Y-115358705D02*
X105853550Y-115501562D01*
X105901169Y-115549181D01*
X105996407Y-115596800D01*
X106139264Y-115596800D01*
X106234502Y-115549181D01*
X106282121Y-115501562D01*
X106329740Y-115406324D01*
X106329740Y-115025372D01*
X105329740Y-115025372D01*
X105329740Y-115358705D01*
X105377360Y-115453943D01*
X105424979Y-115501562D01*
X105520217Y-115549181D01*
X105615455Y-115549181D01*
X105710693Y-115501562D01*
X105758312Y-115453943D01*
X105805931Y-115358705D01*
X105805931Y-115025372D01*
X106329740Y-116596800D02*
X105853550Y-116263467D01*
X106329740Y-116025372D02*
X105329740Y-116025372D01*
X105329740Y-116406324D01*
X105377360Y-116501562D01*
X105424979Y-116549181D01*
X105520217Y-116596800D01*
X105663074Y-116596800D01*
X105758312Y-116549181D01*
X105805931Y-116501562D01*
X105853550Y-116406324D01*
X105853550Y-116025372D01*
X106329740Y-117549181D02*
X106329740Y-116977753D01*
X106329740Y-117263467D02*
X105329740Y-117263467D01*
X105472598Y-117168229D01*
X105567836Y-117072991D01*
X105615455Y-116977753D01*
X105424979Y-117930134D02*
X105377360Y-117977753D01*
X105329740Y-118072991D01*
X105329740Y-118311086D01*
X105377360Y-118406324D01*
X105424979Y-118453943D01*
X105520217Y-118501562D01*
X105615455Y-118501562D01*
X105758312Y-118453943D01*
X106329740Y-117882515D01*
X106329740Y-118501562D01*
X105329740Y-119120610D02*
X105329740Y-119215848D01*
X105377360Y-119311086D01*
X105424979Y-119358705D01*
X105520217Y-119406324D01*
X105710693Y-119453943D01*
X105948788Y-119453943D01*
X106139264Y-119406324D01*
X106234502Y-119358705D01*
X106282121Y-119311086D01*
X106329740Y-119215848D01*
X106329740Y-119120610D01*
X106282121Y-119025372D01*
X106234502Y-118977753D01*
X106139264Y-118930134D01*
X105948788Y-118882515D01*
X105710693Y-118882515D01*
X105520217Y-118930134D01*
X105424979Y-118977753D01*
X105377360Y-119025372D01*
X105329740Y-119120610D01*
X115705118Y-94039520D02*
X115371784Y-95039520D01*
X115038451Y-94039520D01*
X114705118Y-95039520D02*
X114705118Y-94039520D01*
X114038451Y-94039520D02*
X113847975Y-94039520D01*
X113752737Y-94087140D01*
X113657499Y-94182378D01*
X113609880Y-94372854D01*
X113609880Y-94706187D01*
X113657499Y-94896663D01*
X113752737Y-94991901D01*
X113847975Y-95039520D01*
X114038451Y-95039520D01*
X114133689Y-94991901D01*
X114228927Y-94896663D01*
X114276546Y-94706187D01*
X114276546Y-94372854D01*
X114228927Y-94182378D01*
X114133689Y-94087140D01*
X114038451Y-94039520D01*
X113483220Y-104685813D02*
X114197506Y-104685813D01*
X114340363Y-104638194D01*
X114435601Y-104542956D01*
X114483220Y-104400099D01*
X114483220Y-104304860D01*
X113816554Y-105590575D02*
X114483220Y-105590575D01*
X113816554Y-105162003D02*
X114340363Y-105162003D01*
X114435601Y-105209622D01*
X114483220Y-105304860D01*
X114483220Y-105447718D01*
X114435601Y-105542956D01*
X114387982Y-105590575D01*
X114483220Y-106066765D02*
X113816554Y-106066765D01*
X113911792Y-106066765D02*
X113864173Y-106114384D01*
X113816554Y-106209622D01*
X113816554Y-106352480D01*
X113864173Y-106447718D01*
X113959411Y-106495337D01*
X114483220Y-106495337D01*
X113959411Y-106495337D02*
X113864173Y-106542956D01*
X113816554Y-106638194D01*
X113816554Y-106781051D01*
X113864173Y-106876289D01*
X113959411Y-106923908D01*
X114483220Y-106923908D01*
X113816554Y-107400099D02*
X114816554Y-107400099D01*
X113864173Y-107400099D02*
X113816554Y-107495337D01*
X113816554Y-107685813D01*
X113864173Y-107781051D01*
X113911792Y-107828670D01*
X114007030Y-107876289D01*
X114292744Y-107876289D01*
X114387982Y-107828670D01*
X114435601Y-107781051D01*
X114483220Y-107685813D01*
X114483220Y-107495337D01*
X114435601Y-107400099D01*
X114435601Y-108685813D02*
X114483220Y-108590575D01*
X114483220Y-108400099D01*
X114435601Y-108304860D01*
X114340363Y-108257241D01*
X113959411Y-108257241D01*
X113864173Y-108304860D01*
X113816554Y-108400099D01*
X113816554Y-108590575D01*
X113864173Y-108685813D01*
X113959411Y-108733432D01*
X114054649Y-108733432D01*
X114149887Y-108257241D01*
X114483220Y-109162003D02*
X113816554Y-109162003D01*
X114007030Y-109162003D02*
X113911792Y-109209622D01*
X113864173Y-109257241D01*
X113816554Y-109352480D01*
X113816554Y-109447718D01*
X116013051Y-83902300D02*
X115917813Y-83902300D01*
X115822575Y-83949920D01*
X115774956Y-83997539D01*
X115727337Y-84092777D01*
X115679718Y-84283253D01*
X115679718Y-84521348D01*
X115727337Y-84711824D01*
X115774956Y-84807062D01*
X115822575Y-84854681D01*
X115917813Y-84902300D01*
X116013051Y-84902300D01*
X116108289Y-84854681D01*
X116155908Y-84807062D01*
X116203527Y-84711824D01*
X116251146Y-84521348D01*
X116251146Y-84283253D01*
X116203527Y-84092777D01*
X116155908Y-83997539D01*
X116108289Y-83949920D01*
X116013051Y-83902300D01*
X115251146Y-84807062D02*
X115203527Y-84854681D01*
X115251146Y-84902300D01*
X115298765Y-84854681D01*
X115251146Y-84807062D01*
X115251146Y-84902300D01*
X114251146Y-84902300D02*
X114822575Y-84902300D01*
X114536860Y-84902300D02*
X114536860Y-83902300D01*
X114632099Y-84045158D01*
X114727337Y-84140396D01*
X114822575Y-84188015D01*
X113822575Y-84902300D02*
X113822575Y-84235634D01*
X113822575Y-84330872D02*
X113774956Y-84283253D01*
X113679718Y-84235634D01*
X113536860Y-84235634D01*
X113441622Y-84283253D01*
X113394003Y-84378491D01*
X113394003Y-84902300D01*
X113394003Y-84378491D02*
X113346384Y-84283253D01*
X113251146Y-84235634D01*
X113108289Y-84235634D01*
X113013051Y-84283253D01*
X112965432Y-84378491D01*
X112965432Y-84902300D01*
X112344104Y-122221419D02*
X112296485Y-122173800D01*
X112201247Y-122126180D01*
X111963152Y-122126180D01*
X111867914Y-122173800D01*
X111820295Y-122221419D01*
X111772676Y-122316657D01*
X111772676Y-122411895D01*
X111820295Y-122554752D01*
X112391723Y-123126180D01*
X111772676Y-123126180D01*
X111391723Y-122221419D02*
X111344104Y-122173800D01*
X111248866Y-122126180D01*
X111010771Y-122126180D01*
X110915533Y-122173800D01*
X110867914Y-122221419D01*
X110820295Y-122316657D01*
X110820295Y-122411895D01*
X110867914Y-122554752D01*
X111439342Y-123126180D01*
X110820295Y-123126180D01*
X117653891Y-98479360D02*
X117558653Y-98479360D01*
X117463415Y-98526980D01*
X117415796Y-98574599D01*
X117368177Y-98669837D01*
X117320558Y-98860313D01*
X117320558Y-99098408D01*
X117368177Y-99288884D01*
X117415796Y-99384122D01*
X117463415Y-99431741D01*
X117558653Y-99479360D01*
X117653891Y-99479360D01*
X117749129Y-99431741D01*
X117796748Y-99384122D01*
X117844367Y-99288884D01*
X117891986Y-99098408D01*
X117891986Y-98860313D01*
X117844367Y-98669837D01*
X117796748Y-98574599D01*
X117749129Y-98526980D01*
X117653891Y-98479360D01*
X116891986Y-99384122D02*
X116844367Y-99431741D01*
X116891986Y-99479360D01*
X116939605Y-99431741D01*
X116891986Y-99384122D01*
X116891986Y-99479360D01*
X115891986Y-99479360D02*
X116463415Y-99479360D01*
X116177700Y-99479360D02*
X116177700Y-98479360D01*
X116272939Y-98622218D01*
X116368177Y-98717456D01*
X116463415Y-98765075D01*
X115463415Y-99479360D02*
X115463415Y-98812694D01*
X115463415Y-98907932D02*
X115415796Y-98860313D01*
X115320558Y-98812694D01*
X115177700Y-98812694D01*
X115082462Y-98860313D01*
X115034843Y-98955551D01*
X115034843Y-99479360D01*
X115034843Y-98955551D02*
X114987224Y-98860313D01*
X114891986Y-98812694D01*
X114749129Y-98812694D01*
X114653891Y-98860313D01*
X114606272Y-98955551D01*
X114606272Y-99479360D01*
X104803200Y-81465465D02*
X104803200Y-80894037D01*
X104803200Y-81179751D02*
X103803200Y-81179751D01*
X103946058Y-81084513D01*
X104041296Y-80989275D01*
X104088915Y-80894037D01*
X104803200Y-81894037D02*
X103803200Y-81894037D01*
X104517486Y-82227370D01*
X103803200Y-82560703D01*
X104803200Y-82560703D01*
X116103580Y-118277095D02*
X115103580Y-118277095D01*
X115817866Y-118610428D01*
X115103580Y-118943761D01*
X116103580Y-118943761D01*
X116103580Y-119896142D02*
X116103580Y-119419952D01*
X115103580Y-119419952D01*
X116008342Y-120800904D02*
X116055961Y-120753285D01*
X116103580Y-120610428D01*
X116103580Y-120515190D01*
X116055961Y-120372333D01*
X115960723Y-120277095D01*
X115865485Y-120229476D01*
X115675009Y-120181857D01*
X115532152Y-120181857D01*
X115341676Y-120229476D01*
X115246438Y-120277095D01*
X115151200Y-120372333D01*
X115103580Y-120515190D01*
X115103580Y-120610428D01*
X115151200Y-120753285D01*
X115198819Y-120800904D01*
X115722628Y-121229476D02*
X115722628Y-121991380D01*
X115103580Y-122658047D02*
X115103580Y-122753285D01*
X115151200Y-122848523D01*
X115198819Y-122896142D01*
X115294057Y-122943761D01*
X115484533Y-122991380D01*
X115722628Y-122991380D01*
X115913104Y-122943761D01*
X116008342Y-122896142D01*
X116055961Y-122848523D01*
X116103580Y-122753285D01*
X116103580Y-122658047D01*
X116055961Y-122562809D01*
X116008342Y-122515190D01*
X115913104Y-122467571D01*
X115722628Y-122419952D01*
X115484533Y-122419952D01*
X115294057Y-122467571D01*
X115198819Y-122515190D01*
X115151200Y-122562809D01*
X115103580Y-122658047D01*
X115103580Y-123896142D02*
X115103580Y-123419952D01*
X115579771Y-123372333D01*
X115532152Y-123419952D01*
X115484533Y-123515190D01*
X115484533Y-123753285D01*
X115532152Y-123848523D01*
X115579771Y-123896142D01*
X115675009Y-123943761D01*
X115913104Y-123943761D01*
X116008342Y-123896142D01*
X116055961Y-123848523D01*
X116103580Y-123753285D01*
X116103580Y-123515190D01*
X116055961Y-123419952D01*
X116008342Y-123372333D01*
X115579771Y-124372333D02*
X115579771Y-124705666D01*
X116103580Y-124848523D02*
X116103580Y-124372333D01*
X115103580Y-124372333D01*
X115103580Y-124848523D01*
X111186980Y-101050588D02*
X111186980Y-101145826D01*
X111234600Y-101241064D01*
X111282219Y-101288683D01*
X111377457Y-101336302D01*
X111567933Y-101383921D01*
X111806028Y-101383921D01*
X111996504Y-101336302D01*
X112091742Y-101288683D01*
X112139361Y-101241064D01*
X112186980Y-101145826D01*
X112186980Y-101050588D01*
X112139361Y-100955350D01*
X112091742Y-100907731D01*
X111996504Y-100860112D01*
X111806028Y-100812493D01*
X111567933Y-100812493D01*
X111377457Y-100860112D01*
X111282219Y-100907731D01*
X111234600Y-100955350D01*
X111186980Y-101050588D01*
X112091742Y-101812493D02*
X112139361Y-101860112D01*
X112186980Y-101812493D01*
X112139361Y-101764874D01*
X112091742Y-101812493D01*
X112186980Y-101812493D01*
X112186980Y-102812493D02*
X112186980Y-102241064D01*
X112186980Y-102526779D02*
X111186980Y-102526779D01*
X111329838Y-102431540D01*
X111425076Y-102336302D01*
X111472695Y-102241064D01*
X112186980Y-103241064D02*
X111520314Y-103241064D01*
X111615552Y-103241064D02*
X111567933Y-103288683D01*
X111520314Y-103383921D01*
X111520314Y-103526779D01*
X111567933Y-103622017D01*
X111663171Y-103669636D01*
X112186980Y-103669636D01*
X111663171Y-103669636D02*
X111567933Y-103717255D01*
X111520314Y-103812493D01*
X111520314Y-103955350D01*
X111567933Y-104050588D01*
X111663171Y-104098207D01*
X112186980Y-104098207D01*
X116664904Y-75964040D02*
X116664904Y-74964040D01*
X116331571Y-75678326D01*
X115998238Y-74964040D01*
X115998238Y-75964040D01*
X115188714Y-75440231D02*
X115045857Y-75487850D01*
X114998238Y-75535469D01*
X114950619Y-75630707D01*
X114950619Y-75773564D01*
X114998238Y-75868802D01*
X115045857Y-75916421D01*
X115141095Y-75964040D01*
X115522047Y-75964040D01*
X115522047Y-74964040D01*
X115188714Y-74964040D01*
X115093476Y-75011660D01*
X115045857Y-75059279D01*
X114998238Y-75154517D01*
X114998238Y-75249755D01*
X115045857Y-75344993D01*
X115093476Y-75392612D01*
X115188714Y-75440231D01*
X115522047Y-75440231D01*
X113950619Y-75964040D02*
X114283952Y-75487850D01*
X114522047Y-75964040D02*
X114522047Y-74964040D01*
X114141095Y-74964040D01*
X114045857Y-75011660D01*
X113998238Y-75059279D01*
X113950619Y-75154517D01*
X113950619Y-75297374D01*
X113998238Y-75392612D01*
X114045857Y-75440231D01*
X114141095Y-75487850D01*
X114522047Y-75487850D01*
X112998238Y-75964040D02*
X113569666Y-75964040D01*
X113283952Y-75964040D02*
X113283952Y-74964040D01*
X113379190Y-75106898D01*
X113474428Y-75202136D01*
X113569666Y-75249755D01*
X112617285Y-75059279D02*
X112569666Y-75011660D01*
X112474428Y-74964040D01*
X112236333Y-74964040D01*
X112141095Y-75011660D01*
X112093476Y-75059279D01*
X112045857Y-75154517D01*
X112045857Y-75249755D01*
X112093476Y-75392612D01*
X112664904Y-75964040D01*
X112045857Y-75964040D01*
X111426809Y-74964040D02*
X111331571Y-74964040D01*
X111236333Y-75011660D01*
X111188714Y-75059279D01*
X111141095Y-75154517D01*
X111093476Y-75344993D01*
X111093476Y-75583088D01*
X111141095Y-75773564D01*
X111188714Y-75868802D01*
X111236333Y-75916421D01*
X111331571Y-75964040D01*
X111426809Y-75964040D01*
X111522047Y-75916421D01*
X111569666Y-75868802D01*
X111617285Y-75773564D01*
X111664904Y-75583088D01*
X111664904Y-75344993D01*
X111617285Y-75154517D01*
X111569666Y-75059279D01*
X111522047Y-75011660D01*
X111426809Y-74964040D01*
X106649780Y-118531095D02*
X105649780Y-118531095D01*
X106364066Y-118864428D01*
X105649780Y-119197761D01*
X106649780Y-119197761D01*
X106649780Y-120150142D02*
X106649780Y-119673952D01*
X105649780Y-119673952D01*
X106554542Y-121054904D02*
X106602161Y-121007285D01*
X106649780Y-120864428D01*
X106649780Y-120769190D01*
X106602161Y-120626333D01*
X106506923Y-120531095D01*
X106411685Y-120483476D01*
X106221209Y-120435857D01*
X106078352Y-120435857D01*
X105887876Y-120483476D01*
X105792638Y-120531095D01*
X105697400Y-120626333D01*
X105649780Y-120769190D01*
X105649780Y-120864428D01*
X105697400Y-121007285D01*
X105745019Y-121054904D01*
X106268828Y-121483476D02*
X106268828Y-122245380D01*
X105649780Y-122912047D02*
X105649780Y-123007285D01*
X105697400Y-123102523D01*
X105745019Y-123150142D01*
X105840257Y-123197761D01*
X106030733Y-123245380D01*
X106268828Y-123245380D01*
X106459304Y-123197761D01*
X106554542Y-123150142D01*
X106602161Y-123102523D01*
X106649780Y-123007285D01*
X106649780Y-122912047D01*
X106602161Y-122816809D01*
X106554542Y-122769190D01*
X106459304Y-122721571D01*
X106268828Y-122673952D01*
X106030733Y-122673952D01*
X105840257Y-122721571D01*
X105745019Y-122769190D01*
X105697400Y-122816809D01*
X105649780Y-122912047D01*
X105649780Y-124150142D02*
X105649780Y-123673952D01*
X106125971Y-123626333D01*
X106078352Y-123673952D01*
X106030733Y-123769190D01*
X106030733Y-124007285D01*
X106078352Y-124102523D01*
X106125971Y-124150142D01*
X106221209Y-124197761D01*
X106459304Y-124197761D01*
X106554542Y-124150142D01*
X106602161Y-124102523D01*
X106649780Y-124007285D01*
X106649780Y-123769190D01*
X106602161Y-123673952D01*
X106554542Y-123626333D01*
X106125971Y-124626333D02*
X106125971Y-124959666D01*
X106649780Y-125102523D02*
X106649780Y-124626333D01*
X105649780Y-124626333D01*
X105649780Y-125102523D01*
X112369504Y-124583619D02*
X112321885Y-124536000D01*
X112226647Y-124488380D01*
X111988552Y-124488380D01*
X111893314Y-124536000D01*
X111845695Y-124583619D01*
X111798076Y-124678857D01*
X111798076Y-124774095D01*
X111845695Y-124916952D01*
X112417123Y-125488380D01*
X111798076Y-125488380D01*
X111417123Y-124583619D02*
X111369504Y-124536000D01*
X111274266Y-124488380D01*
X111036171Y-124488380D01*
X110940933Y-124536000D01*
X110893314Y-124583619D01*
X110845695Y-124678857D01*
X110845695Y-124774095D01*
X110893314Y-124916952D01*
X111464742Y-125488380D01*
X110845695Y-125488380D01*
X110376712Y-75203959D02*
X110281474Y-75203959D01*
X110186236Y-75251579D01*
X110138617Y-75299198D01*
X110090998Y-75394436D01*
X110043379Y-75584912D01*
X110043379Y-75823007D01*
X110090998Y-76013483D01*
X110138617Y-76108721D01*
X110186236Y-76156340D01*
X110281474Y-76203959D01*
X110376712Y-76203959D01*
X110471950Y-76156340D01*
X110519569Y-76108721D01*
X110567188Y-76013483D01*
X110614807Y-75823007D01*
X110614807Y-75584912D01*
X110567188Y-75394436D01*
X110519569Y-75299198D01*
X110471950Y-75251579D01*
X110376712Y-75203959D01*
X109614807Y-76108721D02*
X109567188Y-76156340D01*
X109614807Y-76203959D01*
X109662426Y-76156340D01*
X109614807Y-76108721D01*
X109614807Y-76203959D01*
X108614807Y-76203959D02*
X109186236Y-76203959D01*
X108900521Y-76203959D02*
X108900521Y-75203959D01*
X108995760Y-75346817D01*
X109090998Y-75442055D01*
X109186236Y-75489674D01*
X108186236Y-76203959D02*
X108186236Y-75537293D01*
X108186236Y-75632531D02*
X108138617Y-75584912D01*
X108043379Y-75537293D01*
X107900521Y-75537293D01*
X107805283Y-75584912D01*
X107757664Y-75680150D01*
X107757664Y-76203959D01*
X107757664Y-75680150D02*
X107710045Y-75584912D01*
X107614807Y-75537293D01*
X107471950Y-75537293D01*
X107376712Y-75584912D01*
X107329093Y-75680150D01*
X107329093Y-76203959D01*
X119545666Y-112924862D02*
X119593285Y-112972481D01*
X119736142Y-113020100D01*
X119831380Y-113020100D01*
X119974238Y-112972481D01*
X120069476Y-112877243D01*
X120117095Y-112782005D01*
X120164714Y-112591529D01*
X120164714Y-112448672D01*
X120117095Y-112258196D01*
X120069476Y-112162958D01*
X119974238Y-112067720D01*
X119831380Y-112020100D01*
X119736142Y-112020100D01*
X119593285Y-112067720D01*
X119545666Y-112115339D01*
X119117095Y-113020100D02*
X119117095Y-112020100D01*
X118736142Y-112020100D01*
X118640904Y-112067720D01*
X118593285Y-112115339D01*
X118545666Y-112210577D01*
X118545666Y-112353434D01*
X118593285Y-112448672D01*
X118640904Y-112496291D01*
X118736142Y-112543910D01*
X119117095Y-112543910D01*
X118164714Y-112115339D02*
X118117095Y-112067720D01*
X118021857Y-112020100D01*
X117783761Y-112020100D01*
X117688523Y-112067720D01*
X117640904Y-112115339D01*
X117593285Y-112210577D01*
X117593285Y-112305815D01*
X117640904Y-112448672D01*
X118212333Y-113020100D01*
X117593285Y-113020100D01*
X116640904Y-113020100D02*
X117212333Y-113020100D01*
X116926619Y-113020100D02*
X116926619Y-112020100D01*
X117021857Y-112162958D01*
X117117095Y-112258196D01*
X117212333Y-112305815D01*
X116021857Y-112020100D02*
X115926619Y-112020100D01*
X115831380Y-112067720D01*
X115783761Y-112115339D01*
X115736142Y-112210577D01*
X115688523Y-112401053D01*
X115688523Y-112639148D01*
X115736142Y-112829624D01*
X115783761Y-112924862D01*
X115831380Y-112972481D01*
X115926619Y-113020100D01*
X116021857Y-113020100D01*
X116117095Y-112972481D01*
X116164714Y-112924862D01*
X116212333Y-112829624D01*
X116259952Y-112639148D01*
X116259952Y-112401053D01*
X116212333Y-112210577D01*
X116164714Y-112115339D01*
X116117095Y-112067720D01*
X116021857Y-112020100D01*
X115307571Y-112115339D02*
X115259952Y-112067720D01*
X115164714Y-112020100D01*
X114926619Y-112020100D01*
X114831380Y-112067720D01*
X114783761Y-112115339D01*
X114736142Y-112210577D01*
X114736142Y-112305815D01*
X114783761Y-112448672D01*
X115355190Y-113020100D01*
X114736142Y-113020100D01*
X114307571Y-113020100D02*
X114307571Y-112020100D01*
X113736142Y-113020100D01*
X113736142Y-112020100D01*
X113259952Y-112639148D02*
X112498047Y-112639148D01*
X112069476Y-112734386D02*
X111593285Y-112734386D01*
X112164714Y-113020100D02*
X111831380Y-112020100D01*
X111498047Y-113020100D01*
X110974238Y-112020100D02*
X110879000Y-112020100D01*
X110783761Y-112067720D01*
X110736142Y-112115339D01*
X110688523Y-112210577D01*
X110640904Y-112401053D01*
X110640904Y-112639148D01*
X110688523Y-112829624D01*
X110736142Y-112924862D01*
X110783761Y-112972481D01*
X110879000Y-113020100D01*
X110974238Y-113020100D01*
X111069476Y-112972481D01*
X111117095Y-112924862D01*
X111164714Y-112829624D01*
X111212333Y-112639148D01*
X111212333Y-112401053D01*
X111164714Y-112210577D01*
X111117095Y-112115339D01*
X111069476Y-112067720D01*
X110974238Y-112020100D01*
X109688523Y-113020100D02*
X110259952Y-113020100D01*
X109974238Y-113020100D02*
X109974238Y-112020100D01*
X110069476Y-112162958D01*
X110164714Y-112258196D01*
X110259952Y-112305815D01*
X109259952Y-112639148D02*
X108498047Y-112639148D01*
X107498047Y-112067720D02*
X107593285Y-112020100D01*
X107736142Y-112020100D01*
X107879000Y-112067720D01*
X107974238Y-112162958D01*
X108021857Y-112258196D01*
X108069476Y-112448672D01*
X108069476Y-112591529D01*
X108021857Y-112782005D01*
X107974238Y-112877243D01*
X107879000Y-112972481D01*
X107736142Y-113020100D01*
X107640904Y-113020100D01*
X107498047Y-112972481D01*
X107450428Y-112924862D01*
X107450428Y-112591529D01*
X107640904Y-112591529D01*
X106355190Y-113115339D02*
X106450428Y-113067720D01*
X106545666Y-112972481D01*
X106688523Y-112829624D01*
X106783761Y-112782005D01*
X106879000Y-112782005D01*
X106831380Y-113020100D02*
X106926619Y-112972481D01*
X107021857Y-112877243D01*
X107069476Y-112686767D01*
X107069476Y-112353434D01*
X107021857Y-112162958D01*
X106926619Y-112067720D01*
X106831380Y-112020100D01*
X106640904Y-112020100D01*
X106545666Y-112067720D01*
X106450428Y-112162958D01*
X106402809Y-112353434D01*
X106402809Y-112686767D01*
X106450428Y-112877243D01*
X106545666Y-112972481D01*
X106640904Y-113020100D01*
X106831380Y-113020100D01*
X105640904Y-112496291D02*
X105974238Y-112496291D01*
X105974238Y-113020100D02*
X105974238Y-112020100D01*
X105498047Y-112020100D01*
X105117095Y-113020100D02*
X105117095Y-112020100D01*
X104545666Y-113020100D01*
X104545666Y-112020100D01*
X104117095Y-112115339D02*
X104069476Y-112067720D01*
X103974238Y-112020100D01*
X103736142Y-112020100D01*
X103640904Y-112067720D01*
X103593285Y-112115339D01*
X103545666Y-112210577D01*
X103545666Y-112305815D01*
X103593285Y-112448672D01*
X104164714Y-113020100D01*
X103545666Y-113020100D01*
X102974238Y-112448672D02*
X103069476Y-112401053D01*
X103117095Y-112353434D01*
X103164714Y-112258196D01*
X103164714Y-112210577D01*
X103117095Y-112115339D01*
X103069476Y-112067720D01*
X102974238Y-112020100D01*
X102783761Y-112020100D01*
X102688523Y-112067720D01*
X102640904Y-112115339D01*
X102593285Y-112210577D01*
X102593285Y-112258196D01*
X102640904Y-112353434D01*
X102688523Y-112401053D01*
X102783761Y-112448672D01*
X102974238Y-112448672D01*
X103069476Y-112496291D01*
X103117095Y-112543910D01*
X103164714Y-112639148D01*
X103164714Y-112829624D01*
X103117095Y-112924862D01*
X103069476Y-112972481D01*
X102974238Y-113020100D01*
X102783761Y-113020100D01*
X102688523Y-112972481D01*
X102640904Y-112924862D01*
X102593285Y-112829624D01*
X102593285Y-112639148D01*
X102640904Y-112543910D01*
X102688523Y-112496291D01*
X102783761Y-112448672D01*
X95161666Y-112924862D02*
X95209285Y-112972481D01*
X95352142Y-113020100D01*
X95447380Y-113020100D01*
X95590238Y-112972481D01*
X95685476Y-112877243D01*
X95733095Y-112782005D01*
X95780714Y-112591529D01*
X95780714Y-112448672D01*
X95733095Y-112258196D01*
X95685476Y-112162958D01*
X95590238Y-112067720D01*
X95447380Y-112020100D01*
X95352142Y-112020100D01*
X95209285Y-112067720D01*
X95161666Y-112115339D01*
X94733095Y-113020100D02*
X94733095Y-112020100D01*
X94352142Y-112020100D01*
X94256904Y-112067720D01*
X94209285Y-112115339D01*
X94161666Y-112210577D01*
X94161666Y-112353434D01*
X94209285Y-112448672D01*
X94256904Y-112496291D01*
X94352142Y-112543910D01*
X94733095Y-112543910D01*
X93780714Y-112115339D02*
X93733095Y-112067720D01*
X93637857Y-112020100D01*
X93399761Y-112020100D01*
X93304523Y-112067720D01*
X93256904Y-112115339D01*
X93209285Y-112210577D01*
X93209285Y-112305815D01*
X93256904Y-112448672D01*
X93828333Y-113020100D01*
X93209285Y-113020100D01*
X92256904Y-113020100D02*
X92828333Y-113020100D01*
X92542619Y-113020100D02*
X92542619Y-112020100D01*
X92637857Y-112162958D01*
X92733095Y-112258196D01*
X92828333Y-112305815D01*
X91637857Y-112020100D02*
X91542619Y-112020100D01*
X91447380Y-112067720D01*
X91399761Y-112115339D01*
X91352142Y-112210577D01*
X91304523Y-112401053D01*
X91304523Y-112639148D01*
X91352142Y-112829624D01*
X91399761Y-112924862D01*
X91447380Y-112972481D01*
X91542619Y-113020100D01*
X91637857Y-113020100D01*
X91733095Y-112972481D01*
X91780714Y-112924862D01*
X91828333Y-112829624D01*
X91875952Y-112639148D01*
X91875952Y-112401053D01*
X91828333Y-112210577D01*
X91780714Y-112115339D01*
X91733095Y-112067720D01*
X91637857Y-112020100D01*
X90923571Y-112115339D02*
X90875952Y-112067720D01*
X90780714Y-112020100D01*
X90542619Y-112020100D01*
X90447380Y-112067720D01*
X90399761Y-112115339D01*
X90352142Y-112210577D01*
X90352142Y-112305815D01*
X90399761Y-112448672D01*
X90971190Y-113020100D01*
X90352142Y-113020100D01*
X89923571Y-113020100D02*
X89923571Y-112020100D01*
X89352142Y-113020100D01*
X89352142Y-112020100D01*
X88875952Y-112639148D02*
X88114047Y-112639148D01*
X87685476Y-112734386D02*
X87209285Y-112734386D01*
X87780714Y-113020100D02*
X87447380Y-112020100D01*
X87114047Y-113020100D01*
X86590238Y-112020100D02*
X86495000Y-112020100D01*
X86399761Y-112067720D01*
X86352142Y-112115339D01*
X86304523Y-112210577D01*
X86256904Y-112401053D01*
X86256904Y-112639148D01*
X86304523Y-112829624D01*
X86352142Y-112924862D01*
X86399761Y-112972481D01*
X86495000Y-113020100D01*
X86590238Y-113020100D01*
X86685476Y-112972481D01*
X86733095Y-112924862D01*
X86780714Y-112829624D01*
X86828333Y-112639148D01*
X86828333Y-112401053D01*
X86780714Y-112210577D01*
X86733095Y-112115339D01*
X86685476Y-112067720D01*
X86590238Y-112020100D01*
X85304523Y-113020100D02*
X85875952Y-113020100D01*
X85590238Y-113020100D02*
X85590238Y-112020100D01*
X85685476Y-112162958D01*
X85780714Y-112258196D01*
X85875952Y-112305815D01*
X84875952Y-112639148D02*
X84114047Y-112639148D01*
X83114047Y-112067720D02*
X83209285Y-112020100D01*
X83352142Y-112020100D01*
X83495000Y-112067720D01*
X83590238Y-112162958D01*
X83637857Y-112258196D01*
X83685476Y-112448672D01*
X83685476Y-112591529D01*
X83637857Y-112782005D01*
X83590238Y-112877243D01*
X83495000Y-112972481D01*
X83352142Y-113020100D01*
X83256904Y-113020100D01*
X83114047Y-112972481D01*
X83066428Y-112924862D01*
X83066428Y-112591529D01*
X83256904Y-112591529D01*
X81971190Y-113115339D02*
X82066428Y-113067720D01*
X82161666Y-112972481D01*
X82304523Y-112829624D01*
X82399761Y-112782005D01*
X82495000Y-112782005D01*
X82447380Y-113020100D02*
X82542619Y-112972481D01*
X82637857Y-112877243D01*
X82685476Y-112686767D01*
X82685476Y-112353434D01*
X82637857Y-112162958D01*
X82542619Y-112067720D01*
X82447380Y-112020100D01*
X82256904Y-112020100D01*
X82161666Y-112067720D01*
X82066428Y-112162958D01*
X82018809Y-112353434D01*
X82018809Y-112686767D01*
X82066428Y-112877243D01*
X82161666Y-112972481D01*
X82256904Y-113020100D01*
X82447380Y-113020100D01*
X81256904Y-112496291D02*
X81590238Y-112496291D01*
X81590238Y-113020100D02*
X81590238Y-112020100D01*
X81114047Y-112020100D01*
X80733095Y-113020100D02*
X80733095Y-112020100D01*
X80161666Y-113020100D01*
X80161666Y-112020100D01*
X79733095Y-112115339D02*
X79685476Y-112067720D01*
X79590238Y-112020100D01*
X79352142Y-112020100D01*
X79256904Y-112067720D01*
X79209285Y-112115339D01*
X79161666Y-112210577D01*
X79161666Y-112305815D01*
X79209285Y-112448672D01*
X79780714Y-113020100D01*
X79161666Y-113020100D01*
X78590238Y-112448672D02*
X78685476Y-112401053D01*
X78733095Y-112353434D01*
X78780714Y-112258196D01*
X78780714Y-112210577D01*
X78733095Y-112115339D01*
X78685476Y-112067720D01*
X78590238Y-112020100D01*
X78399761Y-112020100D01*
X78304523Y-112067720D01*
X78256904Y-112115339D01*
X78209285Y-112210577D01*
X78209285Y-112258196D01*
X78256904Y-112353434D01*
X78304523Y-112401053D01*
X78399761Y-112448672D01*
X78590238Y-112448672D01*
X78685476Y-112496291D01*
X78733095Y-112543910D01*
X78780714Y-112639148D01*
X78780714Y-112829624D01*
X78733095Y-112924862D01*
X78685476Y-112972481D01*
X78590238Y-113020100D01*
X78399761Y-113020100D01*
X78304523Y-112972481D01*
X78256904Y-112924862D01*
X78209285Y-112829624D01*
X78209285Y-112639148D01*
X78256904Y-112543910D01*
X78304523Y-112496291D01*
X78399761Y-112448672D01*
X83384211Y-90112600D02*
X83288973Y-90112600D01*
X83193735Y-90160220D01*
X83146116Y-90207839D01*
X83098497Y-90303077D01*
X83050878Y-90493553D01*
X83050878Y-90731648D01*
X83098497Y-90922124D01*
X83146116Y-91017362D01*
X83193735Y-91064981D01*
X83288973Y-91112600D01*
X83384211Y-91112600D01*
X83479449Y-91064981D01*
X83527068Y-91017362D01*
X83574687Y-90922124D01*
X83622306Y-90731648D01*
X83622306Y-90493553D01*
X83574687Y-90303077D01*
X83527068Y-90207839D01*
X83479449Y-90160220D01*
X83384211Y-90112600D01*
X82622306Y-91017362D02*
X82574687Y-91064981D01*
X82622306Y-91112600D01*
X82669925Y-91064981D01*
X82622306Y-91017362D01*
X82622306Y-91112600D01*
X81622306Y-91112600D02*
X82193735Y-91112600D01*
X81908020Y-91112600D02*
X81908020Y-90112600D01*
X82003259Y-90255458D01*
X82098497Y-90350696D01*
X82193735Y-90398315D01*
X81193735Y-91112600D02*
X81193735Y-90445934D01*
X81193735Y-90541172D02*
X81146116Y-90493553D01*
X81050878Y-90445934D01*
X80908020Y-90445934D01*
X80812782Y-90493553D01*
X80765163Y-90588791D01*
X80765163Y-91112600D01*
X80765163Y-90588791D02*
X80717544Y-90493553D01*
X80622306Y-90445934D01*
X80479449Y-90445934D01*
X80384211Y-90493553D01*
X80336592Y-90588791D01*
X80336592Y-91112600D01*
X85914371Y-68496620D02*
X85819133Y-68496620D01*
X85723895Y-68544240D01*
X85676276Y-68591859D01*
X85628657Y-68687097D01*
X85581038Y-68877573D01*
X85581038Y-69115668D01*
X85628657Y-69306144D01*
X85676276Y-69401382D01*
X85723895Y-69449001D01*
X85819133Y-69496620D01*
X85914371Y-69496620D01*
X86009609Y-69449001D01*
X86057228Y-69401382D01*
X86104847Y-69306144D01*
X86152466Y-69115668D01*
X86152466Y-68877573D01*
X86104847Y-68687097D01*
X86057228Y-68591859D01*
X86009609Y-68544240D01*
X85914371Y-68496620D01*
X85152466Y-69401382D02*
X85104847Y-69449001D01*
X85152466Y-69496620D01*
X85200085Y-69449001D01*
X85152466Y-69401382D01*
X85152466Y-69496620D01*
X84152466Y-69496620D02*
X84723895Y-69496620D01*
X84438180Y-69496620D02*
X84438180Y-68496620D01*
X84533419Y-68639478D01*
X84628657Y-68734716D01*
X84723895Y-68782335D01*
X83723895Y-69496620D02*
X83723895Y-68829954D01*
X83723895Y-68925192D02*
X83676276Y-68877573D01*
X83581038Y-68829954D01*
X83438180Y-68829954D01*
X83342942Y-68877573D01*
X83295323Y-68972811D01*
X83295323Y-69496620D01*
X83295323Y-68972811D02*
X83247704Y-68877573D01*
X83152466Y-68829954D01*
X83009609Y-68829954D01*
X82914371Y-68877573D01*
X82866752Y-68972811D01*
X82866752Y-69496620D01*
X90526371Y-64230580D02*
X90431133Y-64230580D01*
X90335895Y-64278200D01*
X90288276Y-64325819D01*
X90240657Y-64421057D01*
X90193038Y-64611533D01*
X90193038Y-64849628D01*
X90240657Y-65040104D01*
X90288276Y-65135342D01*
X90335895Y-65182961D01*
X90431133Y-65230580D01*
X90526371Y-65230580D01*
X90621609Y-65182961D01*
X90669228Y-65135342D01*
X90716847Y-65040104D01*
X90764466Y-64849628D01*
X90764466Y-64611533D01*
X90716847Y-64421057D01*
X90669228Y-64325819D01*
X90621609Y-64278200D01*
X90526371Y-64230580D01*
X89764466Y-65135342D02*
X89716847Y-65182961D01*
X89764466Y-65230580D01*
X89812085Y-65182961D01*
X89764466Y-65135342D01*
X89764466Y-65230580D01*
X88764466Y-65230580D02*
X89335895Y-65230580D01*
X89050180Y-65230580D02*
X89050180Y-64230580D01*
X89145419Y-64373438D01*
X89240657Y-64468676D01*
X89335895Y-64516295D01*
X88335895Y-65230580D02*
X88335895Y-64563914D01*
X88335895Y-64659152D02*
X88288276Y-64611533D01*
X88193038Y-64563914D01*
X88050180Y-64563914D01*
X87954942Y-64611533D01*
X87907323Y-64706771D01*
X87907323Y-65230580D01*
X87907323Y-64706771D02*
X87859704Y-64611533D01*
X87764466Y-64563914D01*
X87621609Y-64563914D01*
X87526371Y-64611533D01*
X87478752Y-64706771D01*
X87478752Y-65230580D01*
X81945740Y-113882515D02*
X80945740Y-113882515D01*
X81660026Y-114215848D01*
X80945740Y-114549181D01*
X81945740Y-114549181D01*
X81421931Y-115358705D02*
X81469550Y-115501562D01*
X81517169Y-115549181D01*
X81612407Y-115596800D01*
X81755264Y-115596800D01*
X81850502Y-115549181D01*
X81898121Y-115501562D01*
X81945740Y-115406324D01*
X81945740Y-115025372D01*
X80945740Y-115025372D01*
X80945740Y-115358705D01*
X80993360Y-115453943D01*
X81040979Y-115501562D01*
X81136217Y-115549181D01*
X81231455Y-115549181D01*
X81326693Y-115501562D01*
X81374312Y-115453943D01*
X81421931Y-115358705D01*
X81421931Y-115025372D01*
X81945740Y-116596800D02*
X81469550Y-116263467D01*
X81945740Y-116025372D02*
X80945740Y-116025372D01*
X80945740Y-116406324D01*
X80993360Y-116501562D01*
X81040979Y-116549181D01*
X81136217Y-116596800D01*
X81279074Y-116596800D01*
X81374312Y-116549181D01*
X81421931Y-116501562D01*
X81469550Y-116406324D01*
X81469550Y-116025372D01*
X81945740Y-117549181D02*
X81945740Y-116977753D01*
X81945740Y-117263467D02*
X80945740Y-117263467D01*
X81088598Y-117168229D01*
X81183836Y-117072991D01*
X81231455Y-116977753D01*
X81040979Y-117930134D02*
X80993360Y-117977753D01*
X80945740Y-118072991D01*
X80945740Y-118311086D01*
X80993360Y-118406324D01*
X81040979Y-118453943D01*
X81136217Y-118501562D01*
X81231455Y-118501562D01*
X81374312Y-118453943D01*
X81945740Y-117882515D01*
X81945740Y-118501562D01*
X80945740Y-119120610D02*
X80945740Y-119215848D01*
X80993360Y-119311086D01*
X81040979Y-119358705D01*
X81136217Y-119406324D01*
X81326693Y-119453943D01*
X81564788Y-119453943D01*
X81755264Y-119406324D01*
X81850502Y-119358705D01*
X81898121Y-119311086D01*
X81945740Y-119215848D01*
X81945740Y-119120610D01*
X81898121Y-119025372D01*
X81850502Y-118977753D01*
X81755264Y-118930134D01*
X81564788Y-118882515D01*
X81326693Y-118882515D01*
X81136217Y-118930134D01*
X81040979Y-118977753D01*
X80993360Y-119025372D01*
X80945740Y-119120610D01*
X93269891Y-98479360D02*
X93174653Y-98479360D01*
X93079415Y-98526980D01*
X93031796Y-98574599D01*
X92984177Y-98669837D01*
X92936558Y-98860313D01*
X92936558Y-99098408D01*
X92984177Y-99288884D01*
X93031796Y-99384122D01*
X93079415Y-99431741D01*
X93174653Y-99479360D01*
X93269891Y-99479360D01*
X93365129Y-99431741D01*
X93412748Y-99384122D01*
X93460367Y-99288884D01*
X93507986Y-99098408D01*
X93507986Y-98860313D01*
X93460367Y-98669837D01*
X93412748Y-98574599D01*
X93365129Y-98526980D01*
X93269891Y-98479360D01*
X92507986Y-99384122D02*
X92460367Y-99431741D01*
X92507986Y-99479360D01*
X92555605Y-99431741D01*
X92507986Y-99384122D01*
X92507986Y-99479360D01*
X91507986Y-99479360D02*
X92079415Y-99479360D01*
X91793700Y-99479360D02*
X91793700Y-98479360D01*
X91888939Y-98622218D01*
X91984177Y-98717456D01*
X92079415Y-98765075D01*
X91079415Y-99479360D02*
X91079415Y-98812694D01*
X91079415Y-98907932D02*
X91031796Y-98860313D01*
X90936558Y-98812694D01*
X90793700Y-98812694D01*
X90698462Y-98860313D01*
X90650843Y-98955551D01*
X90650843Y-99479360D01*
X90650843Y-98955551D02*
X90603224Y-98860313D01*
X90507986Y-98812694D01*
X90365129Y-98812694D01*
X90269891Y-98860313D01*
X90222272Y-98955551D01*
X90222272Y-99479360D01*
X86802980Y-101050588D02*
X86802980Y-101145826D01*
X86850600Y-101241064D01*
X86898219Y-101288683D01*
X86993457Y-101336302D01*
X87183933Y-101383921D01*
X87422028Y-101383921D01*
X87612504Y-101336302D01*
X87707742Y-101288683D01*
X87755361Y-101241064D01*
X87802980Y-101145826D01*
X87802980Y-101050588D01*
X87755361Y-100955350D01*
X87707742Y-100907731D01*
X87612504Y-100860112D01*
X87422028Y-100812493D01*
X87183933Y-100812493D01*
X86993457Y-100860112D01*
X86898219Y-100907731D01*
X86850600Y-100955350D01*
X86802980Y-101050588D01*
X87707742Y-101812493D02*
X87755361Y-101860112D01*
X87802980Y-101812493D01*
X87755361Y-101764874D01*
X87707742Y-101812493D01*
X87802980Y-101812493D01*
X87802980Y-102812493D02*
X87802980Y-102241064D01*
X87802980Y-102526779D02*
X86802980Y-102526779D01*
X86945838Y-102431540D01*
X87041076Y-102336302D01*
X87088695Y-102241064D01*
X87802980Y-103241064D02*
X87136314Y-103241064D01*
X87231552Y-103241064D02*
X87183933Y-103288683D01*
X87136314Y-103383921D01*
X87136314Y-103526779D01*
X87183933Y-103622017D01*
X87279171Y-103669636D01*
X87802980Y-103669636D01*
X87279171Y-103669636D02*
X87183933Y-103717255D01*
X87136314Y-103812493D01*
X87136314Y-103955350D01*
X87183933Y-104050588D01*
X87279171Y-104098207D01*
X87802980Y-104098207D01*
X85992712Y-75203959D02*
X85897474Y-75203959D01*
X85802236Y-75251579D01*
X85754617Y-75299198D01*
X85706998Y-75394436D01*
X85659379Y-75584912D01*
X85659379Y-75823007D01*
X85706998Y-76013483D01*
X85754617Y-76108721D01*
X85802236Y-76156340D01*
X85897474Y-76203959D01*
X85992712Y-76203959D01*
X86087950Y-76156340D01*
X86135569Y-76108721D01*
X86183188Y-76013483D01*
X86230807Y-75823007D01*
X86230807Y-75584912D01*
X86183188Y-75394436D01*
X86135569Y-75299198D01*
X86087950Y-75251579D01*
X85992712Y-75203959D01*
X85230807Y-76108721D02*
X85183188Y-76156340D01*
X85230807Y-76203959D01*
X85278426Y-76156340D01*
X85230807Y-76108721D01*
X85230807Y-76203959D01*
X84230807Y-76203959D02*
X84802236Y-76203959D01*
X84516521Y-76203959D02*
X84516521Y-75203959D01*
X84611760Y-75346817D01*
X84706998Y-75442055D01*
X84802236Y-75489674D01*
X83802236Y-76203959D02*
X83802236Y-75537293D01*
X83802236Y-75632531D02*
X83754617Y-75584912D01*
X83659379Y-75537293D01*
X83516521Y-75537293D01*
X83421283Y-75584912D01*
X83373664Y-75680150D01*
X83373664Y-76203959D01*
X83373664Y-75680150D02*
X83326045Y-75584912D01*
X83230807Y-75537293D01*
X83087950Y-75537293D01*
X82992712Y-75584912D01*
X82945093Y-75680150D01*
X82945093Y-76203959D01*
X91629051Y-83902300D02*
X91533813Y-83902300D01*
X91438575Y-83949920D01*
X91390956Y-83997539D01*
X91343337Y-84092777D01*
X91295718Y-84283253D01*
X91295718Y-84521348D01*
X91343337Y-84711824D01*
X91390956Y-84807062D01*
X91438575Y-84854681D01*
X91533813Y-84902300D01*
X91629051Y-84902300D01*
X91724289Y-84854681D01*
X91771908Y-84807062D01*
X91819527Y-84711824D01*
X91867146Y-84521348D01*
X91867146Y-84283253D01*
X91819527Y-84092777D01*
X91771908Y-83997539D01*
X91724289Y-83949920D01*
X91629051Y-83902300D01*
X90867146Y-84807062D02*
X90819527Y-84854681D01*
X90867146Y-84902300D01*
X90914765Y-84854681D01*
X90867146Y-84807062D01*
X90867146Y-84902300D01*
X89867146Y-84902300D02*
X90438575Y-84902300D01*
X90152860Y-84902300D02*
X90152860Y-83902300D01*
X90248099Y-84045158D01*
X90343337Y-84140396D01*
X90438575Y-84188015D01*
X89438575Y-84902300D02*
X89438575Y-84235634D01*
X89438575Y-84330872D02*
X89390956Y-84283253D01*
X89295718Y-84235634D01*
X89152860Y-84235634D01*
X89057622Y-84283253D01*
X89010003Y-84378491D01*
X89010003Y-84902300D01*
X89010003Y-84378491D02*
X88962384Y-84283253D01*
X88867146Y-84235634D01*
X88724289Y-84235634D01*
X88629051Y-84283253D01*
X88581432Y-84378491D01*
X88581432Y-84902300D01*
X92280904Y-75964040D02*
X92280904Y-74964040D01*
X91947571Y-75678326D01*
X91614238Y-74964040D01*
X91614238Y-75964040D01*
X90804714Y-75440231D02*
X90661857Y-75487850D01*
X90614238Y-75535469D01*
X90566619Y-75630707D01*
X90566619Y-75773564D01*
X90614238Y-75868802D01*
X90661857Y-75916421D01*
X90757095Y-75964040D01*
X91138047Y-75964040D01*
X91138047Y-74964040D01*
X90804714Y-74964040D01*
X90709476Y-75011660D01*
X90661857Y-75059279D01*
X90614238Y-75154517D01*
X90614238Y-75249755D01*
X90661857Y-75344993D01*
X90709476Y-75392612D01*
X90804714Y-75440231D01*
X91138047Y-75440231D01*
X89566619Y-75964040D02*
X89899952Y-75487850D01*
X90138047Y-75964040D02*
X90138047Y-74964040D01*
X89757095Y-74964040D01*
X89661857Y-75011660D01*
X89614238Y-75059279D01*
X89566619Y-75154517D01*
X89566619Y-75297374D01*
X89614238Y-75392612D01*
X89661857Y-75440231D01*
X89757095Y-75487850D01*
X90138047Y-75487850D01*
X88614238Y-75964040D02*
X89185666Y-75964040D01*
X88899952Y-75964040D02*
X88899952Y-74964040D01*
X88995190Y-75106898D01*
X89090428Y-75202136D01*
X89185666Y-75249755D01*
X88233285Y-75059279D02*
X88185666Y-75011660D01*
X88090428Y-74964040D01*
X87852333Y-74964040D01*
X87757095Y-75011660D01*
X87709476Y-75059279D01*
X87661857Y-75154517D01*
X87661857Y-75249755D01*
X87709476Y-75392612D01*
X88280904Y-75964040D01*
X87661857Y-75964040D01*
X87042809Y-74964040D02*
X86947571Y-74964040D01*
X86852333Y-75011660D01*
X86804714Y-75059279D01*
X86757095Y-75154517D01*
X86709476Y-75344993D01*
X86709476Y-75583088D01*
X86757095Y-75773564D01*
X86804714Y-75868802D01*
X86852333Y-75916421D01*
X86947571Y-75964040D01*
X87042809Y-75964040D01*
X87138047Y-75916421D01*
X87185666Y-75868802D01*
X87233285Y-75773564D01*
X87280904Y-75583088D01*
X87280904Y-75344993D01*
X87233285Y-75154517D01*
X87185666Y-75059279D01*
X87138047Y-75011660D01*
X87042809Y-74964040D01*
X87960104Y-122221419D02*
X87912485Y-122173800D01*
X87817247Y-122126180D01*
X87579152Y-122126180D01*
X87483914Y-122173800D01*
X87436295Y-122221419D01*
X87388676Y-122316657D01*
X87388676Y-122411895D01*
X87436295Y-122554752D01*
X88007723Y-123126180D01*
X87388676Y-123126180D01*
X87007723Y-122221419D02*
X86960104Y-122173800D01*
X86864866Y-122126180D01*
X86626771Y-122126180D01*
X86531533Y-122173800D01*
X86483914Y-122221419D01*
X86436295Y-122316657D01*
X86436295Y-122411895D01*
X86483914Y-122554752D01*
X87055342Y-123126180D01*
X86436295Y-123126180D01*
X87985504Y-124583619D02*
X87937885Y-124536000D01*
X87842647Y-124488380D01*
X87604552Y-124488380D01*
X87509314Y-124536000D01*
X87461695Y-124583619D01*
X87414076Y-124678857D01*
X87414076Y-124774095D01*
X87461695Y-124916952D01*
X88033123Y-125488380D01*
X87414076Y-125488380D01*
X87033123Y-124583619D02*
X86985504Y-124536000D01*
X86890266Y-124488380D01*
X86652171Y-124488380D01*
X86556933Y-124536000D01*
X86509314Y-124583619D01*
X86461695Y-124678857D01*
X86461695Y-124774095D01*
X86509314Y-124916952D01*
X87080742Y-125488380D01*
X86461695Y-125488380D01*
X80419200Y-81465465D02*
X80419200Y-80894037D01*
X80419200Y-81179751D02*
X79419200Y-81179751D01*
X79562058Y-81084513D01*
X79657296Y-80989275D01*
X79704915Y-80894037D01*
X80419200Y-81894037D02*
X79419200Y-81894037D01*
X80133486Y-82227370D01*
X79419200Y-82560703D01*
X80419200Y-82560703D01*
X82265780Y-118531095D02*
X81265780Y-118531095D01*
X81980066Y-118864428D01*
X81265780Y-119197761D01*
X82265780Y-119197761D01*
X82265780Y-120150142D02*
X82265780Y-119673952D01*
X81265780Y-119673952D01*
X82170542Y-121054904D02*
X82218161Y-121007285D01*
X82265780Y-120864428D01*
X82265780Y-120769190D01*
X82218161Y-120626333D01*
X82122923Y-120531095D01*
X82027685Y-120483476D01*
X81837209Y-120435857D01*
X81694352Y-120435857D01*
X81503876Y-120483476D01*
X81408638Y-120531095D01*
X81313400Y-120626333D01*
X81265780Y-120769190D01*
X81265780Y-120864428D01*
X81313400Y-121007285D01*
X81361019Y-121054904D01*
X81884828Y-121483476D02*
X81884828Y-122245380D01*
X81265780Y-122912047D02*
X81265780Y-123007285D01*
X81313400Y-123102523D01*
X81361019Y-123150142D01*
X81456257Y-123197761D01*
X81646733Y-123245380D01*
X81884828Y-123245380D01*
X82075304Y-123197761D01*
X82170542Y-123150142D01*
X82218161Y-123102523D01*
X82265780Y-123007285D01*
X82265780Y-122912047D01*
X82218161Y-122816809D01*
X82170542Y-122769190D01*
X82075304Y-122721571D01*
X81884828Y-122673952D01*
X81646733Y-122673952D01*
X81456257Y-122721571D01*
X81361019Y-122769190D01*
X81313400Y-122816809D01*
X81265780Y-122912047D01*
X81265780Y-124150142D02*
X81265780Y-123673952D01*
X81741971Y-123626333D01*
X81694352Y-123673952D01*
X81646733Y-123769190D01*
X81646733Y-124007285D01*
X81694352Y-124102523D01*
X81741971Y-124150142D01*
X81837209Y-124197761D01*
X82075304Y-124197761D01*
X82170542Y-124150142D01*
X82218161Y-124102523D01*
X82265780Y-124007285D01*
X82265780Y-123769190D01*
X82218161Y-123673952D01*
X82170542Y-123626333D01*
X81741971Y-124626333D02*
X81741971Y-124959666D01*
X82265780Y-125102523D02*
X82265780Y-124626333D01*
X81265780Y-124626333D01*
X81265780Y-125102523D01*
X91719580Y-118277095D02*
X90719580Y-118277095D01*
X91433866Y-118610428D01*
X90719580Y-118943761D01*
X91719580Y-118943761D01*
X91719580Y-119896142D02*
X91719580Y-119419952D01*
X90719580Y-119419952D01*
X91624342Y-120800904D02*
X91671961Y-120753285D01*
X91719580Y-120610428D01*
X91719580Y-120515190D01*
X91671961Y-120372333D01*
X91576723Y-120277095D01*
X91481485Y-120229476D01*
X91291009Y-120181857D01*
X91148152Y-120181857D01*
X90957676Y-120229476D01*
X90862438Y-120277095D01*
X90767200Y-120372333D01*
X90719580Y-120515190D01*
X90719580Y-120610428D01*
X90767200Y-120753285D01*
X90814819Y-120800904D01*
X91338628Y-121229476D02*
X91338628Y-121991380D01*
X90719580Y-122658047D02*
X90719580Y-122753285D01*
X90767200Y-122848523D01*
X90814819Y-122896142D01*
X90910057Y-122943761D01*
X91100533Y-122991380D01*
X91338628Y-122991380D01*
X91529104Y-122943761D01*
X91624342Y-122896142D01*
X91671961Y-122848523D01*
X91719580Y-122753285D01*
X91719580Y-122658047D01*
X91671961Y-122562809D01*
X91624342Y-122515190D01*
X91529104Y-122467571D01*
X91338628Y-122419952D01*
X91100533Y-122419952D01*
X90910057Y-122467571D01*
X90814819Y-122515190D01*
X90767200Y-122562809D01*
X90719580Y-122658047D01*
X90719580Y-123896142D02*
X90719580Y-123419952D01*
X91195771Y-123372333D01*
X91148152Y-123419952D01*
X91100533Y-123515190D01*
X91100533Y-123753285D01*
X91148152Y-123848523D01*
X91195771Y-123896142D01*
X91291009Y-123943761D01*
X91529104Y-123943761D01*
X91624342Y-123896142D01*
X91671961Y-123848523D01*
X91719580Y-123753285D01*
X91719580Y-123515190D01*
X91671961Y-123419952D01*
X91624342Y-123372333D01*
X91195771Y-124372333D02*
X91195771Y-124705666D01*
X91719580Y-124848523D02*
X91719580Y-124372333D01*
X90719580Y-124372333D01*
X90719580Y-124848523D01*
X89099220Y-104685813D02*
X89813506Y-104685813D01*
X89956363Y-104638194D01*
X90051601Y-104542956D01*
X90099220Y-104400099D01*
X90099220Y-104304860D01*
X89432554Y-105590575D02*
X90099220Y-105590575D01*
X89432554Y-105162003D02*
X89956363Y-105162003D01*
X90051601Y-105209622D01*
X90099220Y-105304860D01*
X90099220Y-105447718D01*
X90051601Y-105542956D01*
X90003982Y-105590575D01*
X90099220Y-106066765D02*
X89432554Y-106066765D01*
X89527792Y-106066765D02*
X89480173Y-106114384D01*
X89432554Y-106209622D01*
X89432554Y-106352480D01*
X89480173Y-106447718D01*
X89575411Y-106495337D01*
X90099220Y-106495337D01*
X89575411Y-106495337D02*
X89480173Y-106542956D01*
X89432554Y-106638194D01*
X89432554Y-106781051D01*
X89480173Y-106876289D01*
X89575411Y-106923908D01*
X90099220Y-106923908D01*
X89432554Y-107400099D02*
X90432554Y-107400099D01*
X89480173Y-107400099D02*
X89432554Y-107495337D01*
X89432554Y-107685813D01*
X89480173Y-107781051D01*
X89527792Y-107828670D01*
X89623030Y-107876289D01*
X89908744Y-107876289D01*
X90003982Y-107828670D01*
X90051601Y-107781051D01*
X90099220Y-107685813D01*
X90099220Y-107495337D01*
X90051601Y-107400099D01*
X90051601Y-108685813D02*
X90099220Y-108590575D01*
X90099220Y-108400099D01*
X90051601Y-108304860D01*
X89956363Y-108257241D01*
X89575411Y-108257241D01*
X89480173Y-108304860D01*
X89432554Y-108400099D01*
X89432554Y-108590575D01*
X89480173Y-108685813D01*
X89575411Y-108733432D01*
X89670649Y-108733432D01*
X89765887Y-108257241D01*
X90099220Y-109162003D02*
X89432554Y-109162003D01*
X89623030Y-109162003D02*
X89527792Y-109209622D01*
X89480173Y-109257241D01*
X89432554Y-109352480D01*
X89432554Y-109447718D01*
X91321118Y-94039520D02*
X90987784Y-95039520D01*
X90654451Y-94039520D01*
X90321118Y-95039520D02*
X90321118Y-94039520D01*
X89654451Y-94039520D02*
X89463975Y-94039520D01*
X89368737Y-94087140D01*
X89273499Y-94182378D01*
X89225880Y-94372854D01*
X89225880Y-94706187D01*
X89273499Y-94896663D01*
X89368737Y-94991901D01*
X89463975Y-95039520D01*
X89654451Y-95039520D01*
X89749689Y-94991901D01*
X89844927Y-94896663D01*
X89892546Y-94706187D01*
X89892546Y-94372854D01*
X89844927Y-94182378D01*
X89749689Y-94087140D01*
X89654451Y-94039520D01*
M02*
