M48
; DRILL file {KiCad 6.0.0-unknown-16cf1a4~86~ubuntu16.04.1} date St  3. júl 2019, 13:53:11 CEST
; FORMAT={-:-/ absolute / metric / decimal}
; #@! TF.CreationDate,2019-07-03T13:53:11+02:00
; #@! TF.GenerationSoftware,Kicad,Pcbnew,6.0.0-unknown-16cf1a4~86~ubuntu16.04.1
FMAT,2
METRIC
T1C0.400
T2C0.500
T3C0.550
T4C0.599
T5C1.016
T6C1.778
%
G90
G05
T1
X78.328Y-66.249
X78.842Y-103.835
X79.604Y-66.751
X80.579Y-84.539
X80.691Y-96.904
X80.962Y-89.08
X81.11Y-81.702
X81.239Y-83.584
X81.331Y-117.236
X81.552Y-99.553
X81.687Y-93.891
X81.707Y-88.199
X81.958Y-86.746
X82.029Y-66.967
X82.04Y-94.496
X82.323Y-93.592
X82.391Y-95.202
X82.413Y-108.516
X83.088Y-95.144
X83.147Y-99.372
X83.427Y-84.147
X83.436Y-110.993
X83.633Y-94.704
X83.645Y-92.25
X83.784Y-114.511
X83.975Y-103.188
X84.287Y-96.451
X84.366Y-89.449
X84.485Y-108.76
X84.498Y-91.036
X84.512Y-92.153
X84.598Y-95.56
X84.874Y-94.082
X85.11Y-91.377
X85.28Y-96.154
X85.293Y-117.749
X85.522Y-93.127
X85.54Y-82.212
X85.652Y-84.53
X85.659Y-94.107
X86.208Y-65.989
X86.302Y-117.318
X86.721Y-95.689
X86.898Y-109.518
X87.02Y-120.523
X87.071Y-122.923
X87.081Y-92.573
X87.122Y-97.333
X87.195Y-86.074
X87.221Y-89.141
X87.244Y-90.127
X87.381Y-98.839
X87.643Y-91.564
X88.1Y-90.642
X88.137Y-114.655
X88.176Y-96.906
X88.24Y-70.053
X88.537Y-104.036
X88.555Y-95.616
X88.643Y-97.47
X88.925Y-77.025
X88.936Y-121.742
X89.037Y-94.595
X89.065Y-67.414
X89.477Y-102.994
X89.743Y-83.294
X89.774Y-108.052
X89.799Y-116.464
X89.878Y-94.595
X89.897Y-101.744
X90.434Y-103.165
X90.47Y-90.47
X90.775Y-99.931
X90.841Y-91.11
X91.153Y-94.681
X91.42Y-103.099
X91.47Y-87.582
X91.986Y-98.049
X92.304Y-72.593
X93.198Y-100.711
X93.439Y-96.463
X93.495Y-104.102
X93.574Y-64.719
X93.574Y-69.037
X93.574Y-71.069
X93.952Y-95.979
X94.209Y-93.929
X94.336Y-103.053
X94.468Y-95.43
X94.673Y-90.929
X94.719Y-92.291
X95.045Y-96.264
X95.141Y-109.761
X95.22Y-113.553
X95.241Y-88.184
X95.331Y-116.055
X95.464Y-108.925
X95.73Y-88.849
X95.822Y-95.913
X102.712Y-66.249
X103.226Y-103.835
X103.988Y-66.751
X104.963Y-84.539
X105.075Y-96.904
X105.346Y-89.08
X105.494Y-81.702
X105.623Y-83.584
X105.715Y-117.236
X105.936Y-99.553
X106.071Y-93.891
X106.091Y-88.199
X106.342Y-86.746
X106.413Y-66.967
X106.424Y-94.496
X106.707Y-93.592
X106.775Y-95.202
X106.797Y-108.516
X107.472Y-95.144
X107.531Y-99.372
X107.811Y-84.147
X107.82Y-110.993
X108.017Y-94.704
X108.029Y-92.25
X108.168Y-114.511
X108.359Y-103.188
X108.671Y-96.451
X108.75Y-89.449
X108.869Y-108.76
X108.882Y-91.036
X108.896Y-92.153
X108.982Y-95.56
X109.258Y-94.082
X109.494Y-91.377
X109.664Y-96.154
X109.677Y-117.749
X109.906Y-93.127
X109.924Y-82.212
X110.036Y-84.53
X110.043Y-94.107
X110.592Y-65.989
X110.686Y-117.318
X111.105Y-95.689
X111.282Y-109.518
X111.404Y-120.523
X111.455Y-122.923
X111.465Y-92.573
X111.506Y-97.333
X111.579Y-86.074
X111.605Y-89.141
X111.628Y-90.127
X111.765Y-98.839
X112.027Y-91.564
X112.484Y-90.642
X112.521Y-114.655
X112.56Y-96.906
X112.624Y-70.053
X112.921Y-104.036
X112.939Y-95.616
X113.027Y-97.47
X113.309Y-77.025
X113.32Y-121.742
X113.421Y-94.595
X113.449Y-67.414
X113.861Y-102.994
X114.127Y-83.294
X114.158Y-108.052
X114.183Y-116.464
X114.262Y-94.595
X114.281Y-101.744
X114.818Y-103.165
X114.854Y-90.47
X115.159Y-99.931
X115.225Y-91.11
X115.537Y-94.681
X115.804Y-103.099
X115.854Y-87.582
X116.37Y-98.049
X116.688Y-72.593
X117.582Y-100.711
X117.823Y-96.463
X117.879Y-104.102
X117.958Y-64.719
X117.958Y-69.037
X117.958Y-71.069
X118.336Y-95.979
X118.593Y-93.929
X118.72Y-103.053
X118.852Y-95.43
X119.057Y-90.929
X119.103Y-92.291
X119.429Y-96.264
X119.525Y-109.761
X119.604Y-113.553
X119.625Y-88.184
X119.715Y-116.055
X119.848Y-108.925
X120.114Y-88.849
X120.206Y-95.913
X127.096Y-66.249
X127.61Y-103.835
X128.372Y-66.751
X129.347Y-84.539
X129.459Y-96.904
X129.731Y-89.08
X129.878Y-81.702
X130.007Y-83.584
X130.099Y-117.236
X130.32Y-99.553
X130.455Y-93.891
X130.475Y-88.199
X130.726Y-86.746
X130.797Y-66.967
X130.808Y-94.496
X131.091Y-93.592
X131.159Y-95.202
X131.181Y-108.516
X131.856Y-95.144
X131.915Y-99.372
X132.195Y-84.147
X132.204Y-110.993
X132.401Y-94.704
X132.413Y-92.25
X132.552Y-114.511
X132.743Y-103.188
X133.055Y-96.451
X133.134Y-89.449
X133.253Y-108.76
X133.266Y-91.036
X133.28Y-92.153
X133.366Y-95.56
X133.642Y-94.082
X133.878Y-91.377
X134.048Y-96.154
X134.061Y-117.749
X134.29Y-93.127
X134.308Y-82.212
X134.42Y-84.53
X134.427Y-94.107
X134.976Y-65.989
X135.07Y-117.318
X135.489Y-95.689
X135.666Y-109.518
X135.788Y-120.523
X135.839Y-122.923
X135.849Y-92.573
X135.89Y-97.333
X135.963Y-86.074
X135.989Y-89.141
X136.012Y-90.127
X136.149Y-98.839
X136.411Y-91.564
X136.868Y-90.642
X136.905Y-114.655
X136.944Y-96.906
X137.008Y-70.053
X137.305Y-104.036
X137.323Y-95.616
X137.411Y-97.47
X137.693Y-77.025
X137.704Y-121.742
X137.805Y-94.595
X137.833Y-67.414
X138.245Y-102.994
X138.511Y-83.294
X138.542Y-108.052
X138.567Y-116.464
X138.646Y-94.595
X138.665Y-101.744
X139.202Y-103.165
X139.238Y-90.47
X139.543Y-99.931
X139.609Y-91.11
X139.921Y-94.681
X140.188Y-103.099
X140.238Y-87.582
X140.754Y-98.049
X141.072Y-72.593
X141.966Y-100.711
X142.207Y-96.463
X142.263Y-104.102
X142.342Y-64.719
X142.342Y-69.037
X142.342Y-71.069
X142.72Y-95.979
X142.977Y-93.929
X143.104Y-103.053
X143.236Y-95.43
X143.441Y-90.929
X143.487Y-92.291
X143.813Y-96.264
X143.909Y-109.761
X143.988Y-113.553
X144.009Y-88.184
X144.099Y-116.055
X144.232Y-108.925
X144.498Y-88.849
X144.589Y-95.913
X151.48Y-66.249
X151.994Y-103.835
X152.756Y-66.751
X153.731Y-84.539
X153.843Y-96.904
X154.114Y-89.08
X154.262Y-81.702
X154.391Y-83.584
X154.483Y-117.236
X154.704Y-99.553
X154.839Y-93.891
X154.859Y-88.199
X155.11Y-86.746
X155.181Y-66.967
X155.192Y-94.496
X155.475Y-93.592
X155.543Y-95.202
X155.565Y-108.516
X156.24Y-95.144
X156.299Y-99.372
X156.579Y-84.147
X156.588Y-110.993
X156.785Y-94.704
X156.797Y-92.25
X156.936Y-114.511
X157.127Y-103.188
X157.439Y-96.451
X157.518Y-89.449
X157.637Y-108.76
X157.65Y-91.036
X157.664Y-92.153
X157.75Y-95.56
X158.026Y-94.082
X158.262Y-91.377
X158.433Y-96.154
X158.445Y-117.749
X158.674Y-93.127
X158.692Y-82.212
X158.804Y-84.53
X158.811Y-94.107
X159.36Y-65.989
X159.454Y-117.318
X159.873Y-95.689
X160.05Y-109.518
X160.172Y-120.523
X160.223Y-122.923
X160.233Y-92.573
X160.274Y-97.333
X160.347Y-86.074
X160.373Y-89.141
X160.396Y-90.127
X160.533Y-98.839
X160.795Y-91.564
X161.252Y-90.642
X161.289Y-114.655
X161.328Y-96.906
X161.392Y-70.053
X161.689Y-104.036
X161.707Y-95.616
X161.795Y-97.47
X162.077Y-77.025
X162.088Y-121.742
X162.189Y-94.595
X162.217Y-67.414
X162.629Y-102.994
X162.895Y-83.294
X162.926Y-108.052
X162.951Y-116.464
X163.03Y-94.595
X163.049Y-101.744
X163.586Y-103.165
X163.622Y-90.47
X163.927Y-99.931
X163.993Y-91.11
X164.305Y-94.681
X164.572Y-103.099
X164.622Y-87.582
X165.138Y-98.049
X165.456Y-72.593
X166.35Y-100.711
X166.591Y-96.463
X166.647Y-104.102
X166.726Y-64.719
X166.726Y-69.037
X166.726Y-71.069
X167.104Y-95.979
X167.361Y-93.929
X167.488Y-103.053
X167.62Y-95.43
X167.825Y-90.929
X167.871Y-92.291
X168.197Y-96.264
X168.293Y-109.761
X168.372Y-113.553
X168.393Y-88.184
X168.483Y-116.055
X168.616Y-108.925
X168.882Y-88.849
X168.974Y-95.913
T4
X92.304Y-103.848
X92.304Y-105.346
X141.072Y-103.848
X141.072Y-105.346
X116.688Y-103.848
X116.688Y-105.346
X165.456Y-103.848
X165.456Y-105.346
T5
X108.814Y-61.671
X149.962Y-64.211
X149.962Y-66.751
X149.962Y-69.291
X149.962Y-71.831
X149.962Y-74.371
X149.962Y-76.911
X149.962Y-79.451
X149.962Y-81.991
X149.962Y-84.531
X149.962Y-87.071
X149.962Y-89.611
X149.962Y-92.151
X149.962Y-94.691
X149.962Y-97.231
X149.962Y-99.771
X149.962Y-102.311
X149.962Y-104.851
X149.962Y-107.391
X149.962Y-109.931
X149.962Y-112.471
X149.962Y-115.011
X149.962Y-117.551
X149.962Y-120.091
X133.198Y-61.671
X133.198Y-64.211
X135.738Y-61.671
X135.738Y-64.211
X138.278Y-61.671
X138.278Y-64.211
X162.662Y-61.671
X162.662Y-64.211
X97.13Y-64.211
X97.13Y-66.751
X97.13Y-69.291
X97.13Y-71.831
X97.13Y-74.371
X97.13Y-76.911
X97.13Y-79.451
X97.13Y-81.991
X97.13Y-84.531
X97.13Y-87.071
X97.13Y-89.611
X97.13Y-92.151
X97.13Y-94.691
X97.13Y-97.231
X97.13Y-99.771
X97.13Y-102.311
X97.13Y-104.851
X97.13Y-107.391
X97.13Y-109.931
X97.13Y-112.471
X97.13Y-115.011
X97.13Y-117.551
X97.13Y-120.091
X108.814Y-64.211
X111.354Y-61.671
X111.354Y-64.211
X113.894Y-61.671
X113.894Y-64.211
X121.514Y-64.211
X145.898Y-64.211
X145.898Y-66.751
X145.898Y-69.291
X145.898Y-71.831
X145.898Y-74.371
X145.898Y-76.911
X121.514Y-66.751
X121.514Y-69.291
X121.514Y-71.831
X121.514Y-74.371
X121.514Y-76.911
X121.514Y-79.451
X121.514Y-81.991
X121.514Y-84.531
X121.514Y-87.071
X121.514Y-89.611
X121.514Y-92.151
X121.514Y-94.691
X121.514Y-97.231
X121.514Y-99.771
X121.514Y-102.311
X121.514Y-104.851
X121.514Y-107.391
X121.514Y-109.931
X121.514Y-112.471
X121.514Y-115.011
X121.514Y-117.551
X121.514Y-120.091
X170.282Y-64.211
X170.282Y-66.751
X170.282Y-69.291
X170.282Y-71.831
X170.282Y-74.371
X170.282Y-76.911
X170.282Y-79.451
X170.282Y-81.991
X170.282Y-84.531
X170.282Y-87.071
X170.282Y-89.611
X170.282Y-92.151
X170.282Y-94.691
X170.282Y-97.231
X170.282Y-99.771
X170.282Y-102.311
X170.282Y-104.851
X170.282Y-107.391
X170.282Y-109.931
X170.282Y-112.471
X170.282Y-115.011
X170.282Y-117.551
X170.282Y-120.091
X76.81Y-64.211
X76.81Y-66.751
X76.81Y-69.291
X76.81Y-71.831
X76.81Y-74.371
X76.81Y-76.911
X76.81Y-79.451
X76.81Y-81.991
X76.81Y-84.531
X145.898Y-79.451
X145.898Y-115.011
X145.898Y-117.551
X145.898Y-120.091
X76.81Y-87.071
X76.81Y-89.611
X76.81Y-92.151
X76.81Y-94.691
X76.81Y-97.231
X76.81Y-99.771
X145.898Y-81.991
X145.898Y-84.531
X145.898Y-87.071
X145.898Y-89.611
X145.898Y-92.151
X145.898Y-94.691
X145.898Y-97.231
X145.898Y-99.771
X145.898Y-102.311
X145.898Y-104.851
X145.898Y-107.391
X145.898Y-109.931
X145.898Y-112.471
X76.81Y-102.311
X76.81Y-104.851
X76.81Y-107.391
X76.81Y-109.931
X76.81Y-112.471
X76.81Y-115.011
X76.81Y-117.551
X76.81Y-120.091
X101.194Y-64.211
X101.194Y-66.751
X101.194Y-69.291
X101.194Y-71.831
X101.194Y-74.371
X101.194Y-76.911
X101.194Y-79.451
X101.194Y-81.991
X101.194Y-84.531
X101.194Y-87.071
X101.194Y-89.611
X101.194Y-92.151
X101.194Y-94.691
X101.194Y-97.231
X101.194Y-99.771
X101.194Y-102.311
X101.194Y-104.851
X101.194Y-107.391
X101.194Y-109.931
X101.194Y-112.471
X101.194Y-115.011
X101.194Y-117.551
X101.194Y-120.091
X125.578Y-64.211
X125.578Y-66.751
X125.578Y-69.291
X125.578Y-71.831
X125.578Y-74.371
X125.578Y-76.911
X125.578Y-79.451
X125.578Y-81.991
X125.578Y-84.531
X125.578Y-87.071
X125.578Y-89.611
X125.578Y-92.151
X125.578Y-94.691
X125.578Y-97.231
X125.578Y-99.771
X125.578Y-102.311
X125.578Y-104.851
X125.578Y-107.391
X125.578Y-109.931
X125.578Y-112.471
X125.578Y-115.011
X84.43Y-61.671
X84.43Y-64.211
X86.97Y-61.671
X86.97Y-64.211
X89.51Y-61.671
X89.51Y-64.211
X125.578Y-117.551
X125.578Y-120.091
X157.582Y-61.671
X157.582Y-64.211
X160.122Y-61.671
X160.122Y-64.211
T6
X101.194Y-122.631
X121.514Y-61.671
X101.194Y-61.671
X145.898Y-122.631
X125.578Y-61.671
X121.514Y-122.631
X125.578Y-122.631
X145.898Y-61.671
X76.81Y-122.631
X76.81Y-61.671
X97.13Y-122.631
X170.282Y-61.671
X170.282Y-122.631
X149.962Y-122.631
X97.13Y-61.671
X149.962Y-61.671
T2
G00X156.773Y-121.757
M15
G01X156.773Y-121.107
M16
G05
G00X163.773Y-121.757
M15
G01X163.773Y-121.107
M16
G05
G00X132.389Y-121.757
M15
G01X132.389Y-121.107
M16
G05
G00X139.389Y-121.757
M15
G01X139.389Y-121.107
M16
G05
G00X108.005Y-121.757
M15
G01X108.005Y-121.107
M16
G05
G00X115.005Y-121.757
M15
G01X115.005Y-121.107
M16
G05
G00X83.621Y-121.757
M15
G01X83.621Y-121.107
M16
G05
G00X90.621Y-121.757
M15
G01X90.621Y-121.107
M16
G05
T3
G00X157.623Y-118.732
M15
G01X157.923Y-118.732
M16
G05
G00X162.623Y-118.732
M15
G01X162.923Y-118.732
M16
G05
G00X133.239Y-118.732
M15
G01X133.539Y-118.732
M16
G05
G00X138.239Y-118.732
M15
G01X138.539Y-118.732
M16
G05
G00X108.855Y-118.732
M15
G01X109.155Y-118.732
M16
G05
G00X113.855Y-118.732
M15
G01X114.155Y-118.732
M16
G05
G00X84.471Y-118.732
M15
G01X84.771Y-118.732
M16
G05
G00X89.471Y-118.732
M15
G01X89.771Y-118.732
M16
G05
T0
M30
