G04 #@! TF.GenerationSoftware,KiCad,Pcbnew,5.1.0-rc1-unknown-6bb8fde~66~ubuntu16.04.1*
G04 #@! TF.CreationDate,2019-02-10T19:19:22+01:00
G04 #@! TF.ProjectId,arduino_unoPB,61726475-696e-46f5-9f75-6e6f50422e6b,rev?*
G04 #@! TF.SameCoordinates,Original*
G04 #@! TF.FileFunction,Copper,L2,Bot*
G04 #@! TF.FilePolarity,Positive*
%FSLAX46Y46*%
G04 Gerber Fmt 4.6, Leading zero omitted, Abs format (unit mm)*
G04 Created by KiCad (PCBNEW 5.1.0-rc1-unknown-6bb8fde~66~ubuntu16.04.1) date 2019-02-10 19:19:22*
%MOMM*%
%LPD*%
G04 APERTURE LIST*
%ADD10C,0.400000*%
%ADD11R,1.727200X2.032000*%
%ADD12O,1.727200X2.032000*%
%ADD13C,4.064000*%
%ADD14R,2.032000X1.727200*%
%ADD15O,2.032000X1.727200*%
%ADD16R,1.727200X1.727200*%
%ADD17O,1.727200X1.727200*%
%ADD18C,1.524000*%
%ADD19C,2.700020*%
%ADD20O,0.950000X1.250000*%
%ADD21O,1.550000X1.000000*%
%ADD22C,1.700000*%
%ADD23C,0.550000*%
%ADD24R,2.235200X2.235200*%
%ADD25C,1.501140*%
%ADD26C,4.800600*%
%ADD27R,4.800600X4.800600*%
%ADD28C,0.600000*%
%ADD29C,0.250000*%
%ADD30C,0.200000*%
%ADD31C,0.254000*%
G04 APERTURE END LIST*
D10*
X175831500Y-66294000D02*
X111315500Y-66294000D01*
X181493160Y-83248500D02*
X177355500Y-79248000D01*
X177355500Y-79248000D02*
X177355500Y-67818000D01*
X177355500Y-67818000D02*
X175831500Y-66294000D01*
X181493160Y-83248500D02*
X181493160Y-119634000D01*
X111315500Y-119634000D02*
X181493160Y-119634000D01*
X111315500Y-66294000D02*
X111315500Y-119634000D01*
D11*
X152971500Y-68834000D03*
D12*
X150431500Y-68834000D03*
X147891500Y-68834000D03*
X145351500Y-68834000D03*
X142811500Y-68834000D03*
X140271500Y-68834000D03*
X137731500Y-68834000D03*
X135191500Y-68834000D03*
X132651500Y-68834000D03*
X130111500Y-68834000D03*
X157045660Y-117094000D03*
X154505660Y-117094000D03*
X151965660Y-117094000D03*
X149425660Y-117094000D03*
X146885660Y-117094000D03*
X144345660Y-117094000D03*
X141805660Y-117094000D03*
D11*
X139265660Y-117094000D03*
D13*
X126555500Y-68834000D03*
X177355500Y-84074000D03*
D14*
X139773660Y-80137000D03*
D15*
X139773660Y-82677000D03*
X139773660Y-85217000D03*
X139773660Y-87757000D03*
X139773660Y-90297000D03*
X139773660Y-92837000D03*
D16*
X130883660Y-85979000D03*
D17*
X133423660Y-85979000D03*
X130883660Y-88519000D03*
X133423660Y-88519000D03*
X130883660Y-91059000D03*
X133423660Y-91059000D03*
X130883660Y-93599000D03*
X133423660Y-93599000D03*
X130883660Y-96139000D03*
X133423660Y-96139000D03*
D18*
X117929660Y-80264000D03*
X117929660Y-82804000D03*
X115930680Y-82804000D03*
X115930680Y-80264000D03*
D19*
X113230660Y-75534520D03*
X113230660Y-87533480D03*
D20*
X116825200Y-91225100D03*
X116825200Y-96225100D03*
D21*
X114125200Y-90225100D03*
X114125200Y-97225100D03*
D22*
X114075660Y-99537000D03*
X114075660Y-105187000D03*
D23*
X116225660Y-100362000D03*
X116225660Y-104360980D03*
D16*
X174952660Y-89154000D03*
D17*
X177492660Y-89154000D03*
X174952660Y-91694000D03*
X177492660Y-91694000D03*
X174952660Y-94234000D03*
X177492660Y-94234000D03*
D24*
X119707660Y-104902000D03*
D25*
X170337480Y-94162880D03*
X170337480Y-89281000D03*
D26*
X114574320Y-111315500D03*
D27*
X120670320Y-111315500D03*
D26*
X116860320Y-116395500D03*
D12*
X179778660Y-107505500D03*
X177238660Y-107505500D03*
X174698660Y-107505500D03*
X172158660Y-107505500D03*
X169618660Y-107505500D03*
X167078660Y-107505500D03*
X164538660Y-107505500D03*
D11*
X161998660Y-107505500D03*
D12*
X152981660Y-72517000D03*
X150441660Y-72517000D03*
X147901660Y-72517000D03*
X145361660Y-72517000D03*
X142821660Y-72517000D03*
X140281660Y-72517000D03*
X137741660Y-72517000D03*
X135201660Y-72517000D03*
X132661660Y-72517000D03*
D11*
X130121660Y-72517000D03*
X157045660Y-72517000D03*
D12*
X159585660Y-72517000D03*
X162125660Y-72517000D03*
X164665660Y-72517000D03*
X167205660Y-72517000D03*
X169745660Y-72517000D03*
X172285660Y-72517000D03*
X174825660Y-72517000D03*
D13*
X125295660Y-117094000D03*
X177365660Y-112014000D03*
X125295660Y-117094000D03*
X126565660Y-68834000D03*
D11*
X157045660Y-113474500D03*
D12*
X154505660Y-113474500D03*
X151965660Y-113474500D03*
X149425660Y-113474500D03*
X146885660Y-113474500D03*
X144345660Y-113474500D03*
X141805660Y-113474500D03*
X139265660Y-113474500D03*
X179895500Y-117094000D03*
X177355500Y-117094000D03*
X174815500Y-117094000D03*
X172275500Y-117094000D03*
X169735500Y-117094000D03*
X167195500Y-117094000D03*
X164655500Y-117094000D03*
D11*
X162115500Y-117094000D03*
X174825660Y-68834000D03*
D12*
X172285660Y-68834000D03*
X169745660Y-68834000D03*
X167205660Y-68834000D03*
X164665660Y-68834000D03*
X162125660Y-68834000D03*
X159585660Y-68834000D03*
X157045660Y-68834000D03*
D28*
X163984940Y-92745560D03*
X157739080Y-90081100D03*
X157781774Y-92811786D03*
X131503660Y-80376000D03*
X132803660Y-81676000D03*
X132803660Y-80376000D03*
X136090660Y-93345000D03*
X149171660Y-93599000D03*
X140129260Y-95326200D03*
X131503660Y-81676000D03*
X143492998Y-92411977D03*
X166494460Y-94500870D03*
X171165520Y-96426020D03*
X166403020Y-88704420D03*
X171411900Y-87012780D03*
X125539500Y-112522000D03*
X125412500Y-110236000D03*
X127381000Y-109283500D03*
X128778000Y-105600500D03*
X134810500Y-107823000D03*
X135445500Y-114300000D03*
X136842500Y-113855500D03*
X132524500Y-117030500D03*
X129730500Y-114300000D03*
X140335000Y-110426500D03*
X147447000Y-109982000D03*
X151892000Y-110109000D03*
X149733000Y-102552500D03*
X143129000Y-105537000D03*
X145542000Y-101282500D03*
X145542000Y-101282500D03*
X158813500Y-111379000D03*
X163512500Y-111506000D03*
X165925500Y-111506000D03*
X168529000Y-111632992D03*
X171069000Y-111696500D03*
X173482000Y-111696500D03*
X161163000Y-104902000D03*
X161099500Y-102171500D03*
X145669000Y-78318799D03*
X149479000Y-78740000D03*
X146812000Y-75565000D03*
X161734500Y-75120500D03*
X173609000Y-76263500D03*
X173037500Y-83566000D03*
X177355500Y-99504500D03*
X157099000Y-80835500D03*
X150050500Y-82931000D03*
X165163500Y-98488500D03*
X171259500Y-98869500D03*
X149859994Y-99250500D03*
X150625063Y-99016601D03*
X151423569Y-99065674D03*
X152273000Y-99123500D03*
X148765260Y-92267598D03*
X154086649Y-98766006D03*
X155882072Y-92001072D03*
X157316942Y-85976989D03*
X154886660Y-98315995D03*
X156161654Y-92750629D03*
X158496000Y-86677500D03*
X149230080Y-98399600D03*
X162025628Y-97429535D03*
X156149420Y-99216017D03*
X122809004Y-70104000D03*
X141922500Y-100393500D03*
X119572978Y-93986863D03*
X123555179Y-81451000D03*
X119119181Y-101934479D03*
X115262660Y-93091000D03*
X115362557Y-100451839D03*
X123555179Y-80601000D03*
X118971936Y-94587905D03*
X118518139Y-102535521D03*
X158506160Y-77035490D03*
X143662400Y-75514200D03*
X160030160Y-76980100D03*
X159741888Y-78334888D03*
X142900400Y-76123800D03*
X138938000Y-86487000D03*
X158559500Y-84518500D03*
X162687000Y-84518500D03*
X151790400Y-84404200D03*
X158559500Y-83629500D03*
X152458056Y-83502498D03*
X163195000Y-83629500D03*
X158559500Y-82829487D03*
X153083057Y-82617033D03*
X162877500Y-82804000D03*
X157504519Y-93562218D03*
X156728160Y-93916500D03*
X157744160Y-95504000D03*
X143888460Y-89913458D03*
X159331660Y-96774000D03*
X156474160Y-94869000D03*
X143814800Y-90728800D03*
X160284160Y-96964500D03*
X156292336Y-95802595D03*
X137995660Y-87012442D03*
X134402008Y-78988660D03*
X131906924Y-77952070D03*
X130179354Y-78555306D03*
X129359660Y-78613000D03*
X134185662Y-83439000D03*
X127581660Y-99949000D03*
X134068650Y-84455000D03*
X128090712Y-92074994D03*
X119453660Y-81661000D03*
X115887660Y-95123000D03*
X120937020Y-85153500D03*
X120759220Y-91630500D03*
X120911620Y-98869500D03*
X121140220Y-102628700D03*
X116619020Y-98818700D03*
X152473660Y-92583000D03*
X153035000Y-95504000D03*
X161272220Y-92364560D03*
X171178220Y-79006700D03*
X160609278Y-93910000D03*
X164726620Y-78803500D03*
X135709660Y-81153000D03*
X138049000Y-78994000D03*
X165140640Y-92029280D03*
X168746464Y-93272505D03*
X125549660Y-98679000D03*
X125802628Y-90551000D03*
X118310660Y-95123000D03*
X115389661Y-101473000D03*
D29*
X177900391Y-93045399D02*
X178788060Y-92157730D01*
X170545879Y-93045399D02*
X177900391Y-93045399D01*
X165020818Y-91224100D02*
X168724580Y-91224100D01*
X178788060Y-92157730D02*
X178788060Y-90449400D01*
X164284939Y-92445561D02*
X164284939Y-91959979D01*
X178788060Y-90449400D02*
X177492660Y-89154000D01*
X168724580Y-91224100D02*
X170545879Y-93045399D01*
X164284939Y-91959979D02*
X165020818Y-91224100D01*
X163984940Y-92745560D02*
X164284939Y-92445561D01*
X157739080Y-90081100D02*
X157739080Y-92769092D01*
X157739080Y-92769092D02*
X157781774Y-92811786D01*
X141805660Y-115828000D02*
X141805660Y-113474500D01*
X141805660Y-117094000D02*
X141805660Y-115828000D01*
X149425660Y-114740500D02*
X149425660Y-117094000D01*
X149425660Y-113474500D02*
X149425660Y-114740500D01*
X136090660Y-93345000D02*
X138148060Y-93345000D01*
X139829261Y-95026201D02*
X140129260Y-95326200D01*
X138148060Y-93345000D02*
X139829261Y-95026201D01*
X144680021Y-93599000D02*
X143792997Y-92711976D01*
X149171660Y-93599000D02*
X144680021Y-93599000D01*
X143792997Y-92711976D02*
X143492998Y-92411977D01*
X136090660Y-85344000D02*
X136090660Y-93345000D01*
X139773660Y-82677000D02*
X137944860Y-82677000D01*
X136979660Y-83642200D02*
X136979660Y-84455000D01*
X136979660Y-84455000D02*
X136090660Y-85344000D01*
X137944860Y-82677000D02*
X136979660Y-83642200D01*
X166494460Y-94500870D02*
X168196430Y-94500870D01*
X170121580Y-96426020D02*
X171165520Y-96426020D01*
X168196430Y-94500870D02*
X170121580Y-96426020D01*
X166703019Y-88404421D02*
X167973019Y-88404421D01*
X166403020Y-88704420D02*
X166703019Y-88404421D01*
X169364660Y-87012780D02*
X171411900Y-87012780D01*
X167973019Y-88404421D02*
X169364660Y-87012780D01*
X137741660Y-68844160D02*
X137731500Y-68834000D01*
X137741660Y-72517000D02*
X137741660Y-68844160D01*
X125539500Y-110363000D02*
X125412500Y-110236000D01*
X125539500Y-112522000D02*
X125539500Y-110363000D01*
X128778000Y-107886500D02*
X128778000Y-105600500D01*
X127381000Y-109283500D02*
X128778000Y-107886500D01*
X135445500Y-108458000D02*
X135445500Y-114300000D01*
X134810500Y-107823000D02*
X135445500Y-108458000D01*
X136842500Y-114279764D02*
X134556500Y-116565764D01*
X136842500Y-113855500D02*
X136842500Y-114279764D01*
X132989236Y-116565764D02*
X132524500Y-117030500D01*
X134556500Y-116565764D02*
X132989236Y-116565764D01*
X151765000Y-109982000D02*
X151892000Y-110109000D01*
X147447000Y-109982000D02*
X151765000Y-109982000D01*
X151892000Y-104711500D02*
X149733000Y-102552500D01*
X151892000Y-110109000D02*
X151892000Y-104711500D01*
X143129000Y-105961264D02*
X143129000Y-105537000D01*
X143129000Y-107632500D02*
X143129000Y-105961264D01*
X140335000Y-110426500D02*
X143129000Y-107632500D01*
X177492660Y-95455314D02*
X177673000Y-95635654D01*
X177492660Y-94234000D02*
X177492660Y-95455314D01*
X161163000Y-102235000D02*
X161099500Y-102171500D01*
X161163000Y-104902000D02*
X161163000Y-102235000D01*
X145968999Y-78618798D02*
X147758702Y-78618798D01*
X145669000Y-78318799D02*
X145968999Y-78618798D01*
X145669000Y-78318799D02*
X145669000Y-78994000D01*
X145923000Y-78740000D02*
X149479000Y-78740000D01*
X145669000Y-78994000D02*
X145923000Y-78740000D01*
X147256500Y-75120500D02*
X161734500Y-75120500D01*
X146812000Y-75565000D02*
X147256500Y-75120500D01*
X173609000Y-76263500D02*
X173609000Y-82867500D01*
X173037500Y-83439000D02*
X173037500Y-83566000D01*
X173609000Y-82867500D02*
X173037500Y-83439000D01*
X150350499Y-82631001D02*
X150050500Y-82931000D01*
X157099000Y-80835500D02*
X152146000Y-80835500D01*
X152146000Y-80835500D02*
X150350499Y-82631001D01*
X177492660Y-94234000D02*
X177492660Y-98478340D01*
X171259500Y-98869500D02*
X165544500Y-98869500D01*
X165544500Y-98869500D02*
X165163500Y-98488500D01*
X177492660Y-98478340D02*
X177101500Y-98869500D01*
X177101500Y-98869500D02*
X171259500Y-98869500D01*
X157045660Y-113563400D02*
X157045660Y-113411000D01*
X157045660Y-115828000D02*
X157045660Y-113474500D01*
X157045660Y-117094000D02*
X157045660Y-115828000D01*
X161998660Y-116977160D02*
X162115500Y-117094000D01*
X161998660Y-107505500D02*
X161998660Y-116977160D01*
X149859994Y-99674764D02*
X149859994Y-99250500D01*
X161998660Y-107505500D02*
X157690730Y-107505500D01*
X157690730Y-107505500D02*
X149859994Y-99674764D01*
X164665660Y-107416600D02*
X164665660Y-107569000D01*
X155934120Y-100741049D02*
X155949360Y-100756289D01*
X155204160Y-100741049D02*
X155934120Y-100741049D01*
X155204160Y-100741049D02*
X155237610Y-100774499D01*
X164538660Y-106239500D02*
X164538660Y-107505500D01*
X155237610Y-100774499D02*
X161301570Y-100774499D01*
X161301570Y-100774499D02*
X164538660Y-104011589D01*
X164538660Y-104011589D02*
X164538660Y-106239500D01*
X164655500Y-107622340D02*
X164538660Y-107505500D01*
X164655500Y-117094000D02*
X164655500Y-107622340D01*
X155204160Y-100741049D02*
X151925247Y-100741049D01*
X150625063Y-99440865D02*
X150625063Y-99016601D01*
X151925247Y-100741049D02*
X150625063Y-99440865D01*
X167078660Y-116977160D02*
X167195500Y-117094000D01*
X167078660Y-107505500D02*
X167078660Y-116977160D01*
X152224669Y-100291038D02*
X151423569Y-99489938D01*
X161592260Y-100304600D02*
X156875910Y-100304600D01*
X167205660Y-107569000D02*
X167205660Y-105918000D01*
X156875910Y-100304600D02*
X156862348Y-100291038D01*
X167205660Y-105918000D02*
X161592260Y-100304600D01*
X151423569Y-99489938D02*
X151423569Y-99065674D01*
X156862348Y-100291038D02*
X152224669Y-100291038D01*
X169735500Y-107622340D02*
X169618660Y-107505500D01*
X169735500Y-117094000D02*
X169735500Y-107622340D01*
X157062309Y-99854589D02*
X157048747Y-99841027D01*
X157048747Y-99841027D02*
X152990527Y-99841027D01*
X152572999Y-99423499D02*
X152273000Y-99123500D01*
X152990527Y-99841027D02*
X152572999Y-99423499D01*
X162031249Y-99854589D02*
X157062309Y-99854589D01*
X169745660Y-107569000D02*
X162031249Y-99854589D01*
X135191500Y-72506840D02*
X135201660Y-72517000D01*
X135191500Y-68834000D02*
X135191500Y-72506840D01*
X142915802Y-91684002D02*
X148181664Y-91684002D01*
X142087600Y-90855800D02*
X142915802Y-91684002D01*
X148465261Y-91967599D02*
X148765260Y-92267598D01*
X135201660Y-72517000D02*
X135201660Y-72669400D01*
X135201660Y-72669400D02*
X136747228Y-74214968D01*
X148181664Y-91684002D02*
X148465261Y-91967599D01*
X136747228Y-74214968D02*
X140815179Y-74214968D01*
X142087600Y-75487389D02*
X142087600Y-90855800D01*
X140815179Y-74214968D02*
X142087600Y-75487389D01*
X155882072Y-87411859D02*
X157016943Y-86276988D01*
X155882072Y-92001072D02*
X155882072Y-87411859D01*
X157016943Y-86276988D02*
X157316942Y-85976989D01*
X172158660Y-116977160D02*
X172275500Y-117094000D01*
X172158660Y-107505500D02*
X172158660Y-116977160D01*
X170152060Y-105283000D02*
X172285660Y-107416600D01*
X168248471Y-105283000D02*
X170152060Y-105283000D01*
X162370049Y-99404578D02*
X168248471Y-105283000D01*
X172285660Y-107416600D02*
X172285660Y-107569000D01*
X157248708Y-99404578D02*
X162370049Y-99404578D01*
X156435145Y-98591015D02*
X157248708Y-99404578D01*
X154086649Y-98766006D02*
X154261648Y-98941005D01*
X155874408Y-98591015D02*
X156435145Y-98591015D01*
X154261648Y-98941005D02*
X155524418Y-98941005D01*
X155524418Y-98941005D02*
X155874408Y-98591015D01*
X158496000Y-86677500D02*
X158559500Y-86677500D01*
X156585490Y-88588010D02*
X158496000Y-86677500D01*
X156585490Y-92326793D02*
X156585490Y-88588010D01*
X156161654Y-92750629D02*
X156585490Y-92326793D01*
X174815500Y-115828000D02*
X174815500Y-117094000D01*
X174558650Y-115571150D02*
X174815500Y-115828000D01*
X174558650Y-108911510D02*
X174558650Y-115571150D01*
X174698660Y-108771500D02*
X174558650Y-108911510D01*
X174698660Y-107505500D02*
X174698660Y-108771500D01*
X168382393Y-104780511D02*
X162556449Y-98954567D01*
X157448227Y-98954567D02*
X156474160Y-97980500D01*
X172189571Y-104780511D02*
X168382393Y-104780511D01*
X155186659Y-98015996D02*
X154886660Y-98315995D01*
X156474160Y-97980500D02*
X155222155Y-97980500D01*
X174825660Y-107416600D02*
X172189571Y-104780511D01*
X174825660Y-107569000D02*
X174825660Y-107416600D01*
X155222155Y-97980500D02*
X155186659Y-98015996D01*
X162556449Y-98954567D02*
X157448227Y-98954567D01*
X145775680Y-98397060D02*
X145778220Y-98399600D01*
X145778220Y-98399600D02*
X148805816Y-98399600D01*
X148805816Y-98399600D02*
X149230080Y-98399600D01*
X171757125Y-97429535D02*
X162449892Y-97429535D01*
X174952660Y-94234000D02*
X171757125Y-97429535D01*
X162449892Y-97429535D02*
X162025628Y-97429535D01*
X144345660Y-113474500D02*
X144345660Y-117094000D01*
X144345660Y-112145000D02*
X144345660Y-113411000D01*
X144345660Y-98478340D02*
X144345660Y-112145000D01*
X144426940Y-98397060D02*
X144345660Y-98478340D01*
X145775680Y-98397060D02*
X144426940Y-98397060D01*
X153520956Y-99391016D02*
X155974421Y-99391016D01*
X149530079Y-98099601D02*
X152229541Y-98099601D01*
X149230080Y-98399600D02*
X149530079Y-98099601D01*
X155974421Y-99391016D02*
X156149420Y-99216017D01*
X152229541Y-98099601D02*
X153520956Y-99391016D01*
X125476000Y-71374000D02*
X124505999Y-70403999D01*
X141608787Y-75644987D02*
X140665200Y-74701400D01*
X128778000Y-73812400D02*
X128778000Y-72517000D01*
X140665200Y-74701400D02*
X136169400Y-74701400D01*
X127635000Y-71374000D02*
X125476000Y-71374000D01*
X141608787Y-94230167D02*
X141608787Y-75644987D01*
X123109003Y-70403999D02*
X122809004Y-70104000D01*
X145775680Y-98397060D02*
X141608787Y-94230167D01*
X136169400Y-74701400D02*
X135534400Y-74066400D01*
X128778000Y-72517000D02*
X127635000Y-71374000D01*
X124505999Y-70403999D02*
X123109003Y-70403999D01*
X135534400Y-74066400D02*
X129032000Y-74066400D01*
X129032000Y-74066400D02*
X128778000Y-73812400D01*
X139773660Y-80137000D02*
X139926060Y-80137000D01*
X139926060Y-80137000D02*
X141125219Y-81336159D01*
X146885660Y-117094000D02*
X146885660Y-113474500D01*
X141125219Y-81336159D02*
X141125219Y-99060000D01*
X141125219Y-99060000D02*
X141125219Y-99596219D01*
X141125219Y-99596219D02*
X141922500Y-100393500D01*
D30*
X119290135Y-93986863D02*
X119043660Y-93740388D01*
X119572978Y-93986863D02*
X119290135Y-93986863D01*
X119043660Y-93740388D02*
X119043660Y-84929200D01*
X119043660Y-84929200D02*
X122721860Y-81251000D01*
X123355179Y-81251000D02*
X122721860Y-81251000D01*
X123555179Y-81451000D02*
X123355179Y-81251000D01*
X119572978Y-96210882D02*
X118662660Y-97121200D01*
X119572978Y-93986863D02*
X119572978Y-96210882D01*
X118836338Y-101934479D02*
X119119181Y-101934479D01*
X118662660Y-101760801D02*
X118836338Y-101934479D01*
X118662660Y-97121200D02*
X118662660Y-101760801D01*
D29*
X115262660Y-93091000D02*
X115262660Y-100351942D01*
X115262660Y-100351942D02*
X115362557Y-100451839D01*
D30*
X118971936Y-94305062D02*
X118593660Y-93926786D01*
X118593660Y-93926786D02*
X118593660Y-84742800D01*
X123555179Y-80601000D02*
X123355179Y-80801000D01*
X118971936Y-94587905D02*
X118971936Y-94305062D01*
X123355179Y-80801000D02*
X122535460Y-80801000D01*
X118593660Y-84742800D02*
X122535460Y-80801000D01*
X119122978Y-94738947D02*
X119122978Y-96024482D01*
X118971936Y-94587905D02*
X119122978Y-94738947D01*
X119122978Y-96024482D02*
X118212660Y-96934800D01*
X118518139Y-102252678D02*
X118518139Y-102535521D01*
X118212660Y-96934800D02*
X118212660Y-101947199D01*
X118212660Y-101947199D02*
X118518139Y-102252678D01*
D29*
X132661660Y-68844160D02*
X132651500Y-68834000D01*
X132661660Y-72517000D02*
X132661660Y-68844160D01*
X158506160Y-77035490D02*
X145183690Y-77035490D01*
X145183690Y-77035490D02*
X143962399Y-75814199D01*
X143962399Y-75814199D02*
X143662400Y-75514200D01*
X160030160Y-78046616D02*
X159741888Y-78334888D01*
X160030160Y-76980100D02*
X160030160Y-78046616D01*
X130111500Y-72506840D02*
X130121660Y-72517000D01*
X130111500Y-68834000D02*
X130111500Y-72506840D01*
X143200399Y-76423799D02*
X142900400Y-76123800D01*
X144470399Y-77693799D02*
X143200399Y-76423799D01*
X160030160Y-76980100D02*
X159316461Y-77693799D01*
X159316461Y-77693799D02*
X144470399Y-77693799D01*
X137233660Y-86751076D02*
X137797735Y-86187001D01*
X138638001Y-86187001D02*
X138938000Y-86487000D01*
X137797735Y-86187001D02*
X138638001Y-86187001D01*
X137233660Y-90449400D02*
X137233660Y-86751076D01*
X139621260Y-92837000D02*
X137233660Y-90449400D01*
X139773660Y-92837000D02*
X139621260Y-92837000D01*
X173301660Y-90043000D02*
X174952660Y-91694000D01*
X170063160Y-84518500D02*
X173301660Y-87757000D01*
X173301660Y-87757000D02*
X173301660Y-90043000D01*
X162687000Y-84518500D02*
X170063160Y-84518500D01*
X140271500Y-72506840D02*
X140281660Y-72517000D01*
X140271500Y-68834000D02*
X140271500Y-72506840D01*
X151904700Y-84518500D02*
X151790400Y-84404200D01*
X158559500Y-84518500D02*
X151904700Y-84518500D01*
X174952660Y-89154000D02*
X174952660Y-88138000D01*
X152585058Y-83629500D02*
X152458056Y-83502498D01*
X158559500Y-83629500D02*
X152585058Y-83629500D01*
X163619264Y-83629500D02*
X163195000Y-83629500D01*
X170444160Y-83629500D02*
X171958000Y-85143340D01*
X166370000Y-83629500D02*
X170444160Y-83629500D01*
X166370000Y-83629500D02*
X163619264Y-83629500D01*
X174952660Y-88138000D02*
X171958000Y-85143340D01*
X142821660Y-68844160D02*
X142811500Y-68834000D01*
X142821660Y-72517000D02*
X142821660Y-68844160D01*
X153295511Y-82829487D02*
X153083057Y-82617033D01*
X158559500Y-82829487D02*
X153295511Y-82829487D01*
X163301764Y-82804000D02*
X162877500Y-82804000D01*
X176304059Y-88219399D02*
X170888660Y-82804000D01*
X170888660Y-82804000D02*
X163301764Y-82804000D01*
X176304059Y-90505399D02*
X176304059Y-88219399D01*
X177492660Y-91694000D02*
X176304059Y-90505399D01*
X145351500Y-72506840D02*
X145361660Y-72517000D01*
X145351500Y-68834000D02*
X145351500Y-72506840D01*
X147891500Y-72506840D02*
X147901660Y-72517000D01*
X147891500Y-68834000D02*
X147891500Y-72506840D01*
X150431500Y-72506840D02*
X150441660Y-72517000D01*
X150431500Y-68834000D02*
X150431500Y-72506840D01*
X152981660Y-68844160D02*
X152971500Y-68834000D01*
X152981660Y-72517000D02*
X152981660Y-68844160D01*
X157045660Y-70100000D02*
X157045660Y-72517000D01*
X157045660Y-68834000D02*
X157045660Y-70100000D01*
X159585660Y-72517000D02*
X159585660Y-68834000D01*
X162125660Y-70100000D02*
X162125660Y-72517000D01*
X162125660Y-68834000D02*
X162125660Y-70100000D01*
X164665660Y-74295000D02*
X159194662Y-79765998D01*
X159248002Y-83456498D02*
X159248002Y-84056502D01*
X157035500Y-89816940D02*
X157035500Y-93093199D01*
X159194662Y-79765998D02*
X159194662Y-83403158D01*
X159194662Y-87657778D02*
X157035500Y-89816940D01*
X159194662Y-84109842D02*
X159194662Y-87657778D01*
X159194662Y-83403158D02*
X159248002Y-83456498D01*
X159248002Y-84056502D02*
X159194662Y-84109842D01*
X157035500Y-93093199D02*
X157204520Y-93262219D01*
X157204520Y-93262219D02*
X157504519Y-93562218D01*
X164665660Y-72517000D02*
X164665660Y-74295000D01*
X164665660Y-70100000D02*
X164665660Y-72517000D01*
X164665660Y-68834000D02*
X164665660Y-70100000D01*
X159644673Y-89912867D02*
X158534262Y-91023278D01*
X158534262Y-93487162D02*
X157804925Y-94216499D01*
X159698013Y-84242902D02*
X159644673Y-84296242D01*
X157804925Y-94216499D02*
X157028159Y-94216499D01*
X167205660Y-72517000D02*
X167205660Y-72669400D01*
X158534262Y-91023278D02*
X158534262Y-93487162D01*
X159644673Y-80230387D02*
X159644673Y-83216758D01*
X159644673Y-83216758D02*
X159698013Y-83270098D01*
X159698013Y-83270098D02*
X159698013Y-84242902D01*
X157028159Y-94216499D02*
X156728160Y-93916500D01*
X159644673Y-84296242D02*
X159644673Y-89912867D01*
X167205660Y-72669400D02*
X159644673Y-80230387D01*
X167205660Y-71251000D02*
X167205660Y-68834000D01*
X167205660Y-72517000D02*
X167205660Y-71251000D01*
X158984273Y-94263887D02*
X158044159Y-95204001D01*
X166653460Y-73858010D02*
X160148024Y-80363446D01*
X160094684Y-90250256D02*
X158984273Y-91360667D01*
X169745660Y-72669400D02*
X168557050Y-73858010D01*
X169745660Y-72517000D02*
X169745660Y-72669400D01*
X160148024Y-80363446D02*
X160148024Y-84429302D01*
X160094684Y-84482642D02*
X160094684Y-90250256D01*
X158984273Y-91360667D02*
X158984273Y-94263887D01*
X160148024Y-84429302D02*
X160094684Y-84482642D01*
X158044159Y-95204001D02*
X157744160Y-95504000D01*
X168557050Y-73858010D02*
X166653460Y-73858010D01*
X169745660Y-68834000D02*
X169745660Y-72517000D01*
X160601660Y-80767767D02*
X160601660Y-90506766D01*
X160601660Y-90506766D02*
X159504659Y-91603767D01*
X159504659Y-91603767D02*
X159504659Y-96176737D01*
X159504659Y-96176737D02*
X159331660Y-96349736D01*
X159331660Y-96349736D02*
X159331660Y-96774000D01*
X172285660Y-72669400D02*
X170393360Y-74561700D01*
X172285660Y-72517000D02*
X172285660Y-72669400D01*
X170393360Y-74561700D02*
X166807727Y-74561700D01*
X166807727Y-74561700D02*
X160601660Y-80767767D01*
X156474160Y-94651004D02*
X156474160Y-94869000D01*
X151736614Y-89913458D02*
X156474160Y-94651004D01*
X143888460Y-89913458D02*
X151736614Y-89913458D01*
X172285660Y-72517000D02*
X172285660Y-68834000D01*
X159984161Y-96664501D02*
X160284160Y-96964500D01*
X161051671Y-90693165D02*
X159984161Y-91760675D01*
X161051671Y-80954167D02*
X161051671Y-90693165D01*
X166910738Y-75095100D02*
X161051671Y-80954167D01*
X159984161Y-91760675D02*
X159984161Y-96664501D01*
X172399960Y-75095100D02*
X166910738Y-75095100D01*
X174825660Y-72669400D02*
X172399960Y-75095100D01*
X174825660Y-72517000D02*
X174825660Y-72669400D01*
X144256844Y-90711020D02*
X151747427Y-90711020D01*
X155785658Y-94749251D02*
X155785658Y-95295917D01*
X155785658Y-95295917D02*
X155992337Y-95502596D01*
X151747427Y-90711020D02*
X155785658Y-94749251D01*
X155992337Y-95502596D02*
X156292336Y-95802595D01*
X144239064Y-90728800D02*
X144256844Y-90711020D01*
X143814800Y-90728800D02*
X144239064Y-90728800D01*
X174825660Y-70100000D02*
X174825660Y-72517000D01*
X174825660Y-68834000D02*
X174825660Y-70100000D01*
X137995660Y-88671400D02*
X137995660Y-87436706D01*
X137995660Y-87436706D02*
X137995660Y-87012442D01*
X139773660Y-90297000D02*
X139621260Y-90297000D01*
X139621260Y-90297000D02*
X137995660Y-88671400D01*
X133626321Y-78688661D02*
X134102009Y-78688661D01*
X132025636Y-77087976D02*
X133626321Y-78688661D01*
X128561269Y-77087976D02*
X132025636Y-77087976D01*
X126427638Y-79221607D02*
X128561269Y-77087976D01*
X133423660Y-96139000D02*
X132235059Y-97327601D01*
X127754261Y-97327601D02*
X126427638Y-96000978D01*
X126427638Y-96000978D02*
X126427638Y-79221607D01*
X134102009Y-78688661D02*
X134402008Y-78988660D01*
X132235059Y-97327601D02*
X127754261Y-97327601D01*
X130883660Y-96139000D02*
X129662346Y-96139000D01*
X131469637Y-77537987D02*
X131899660Y-77968010D01*
X129662346Y-96139000D02*
X126877649Y-93354303D01*
X128873258Y-77537987D02*
X131469637Y-77537987D01*
X131899660Y-77968010D02*
X131899660Y-77959334D01*
X126877649Y-79533596D02*
X128873258Y-77537987D01*
X126877649Y-93354303D02*
X126877649Y-79533596D01*
X131899660Y-77959334D02*
X131906924Y-77952070D01*
X129059658Y-77987998D02*
X130036310Y-77987998D01*
X127327660Y-79719996D02*
X129059658Y-77987998D01*
X130883660Y-93599000D02*
X128688656Y-93599000D01*
X127327660Y-92238004D02*
X127327660Y-79719996D01*
X130036310Y-77987998D02*
X130179354Y-78131042D01*
X130179354Y-78131042D02*
X130179354Y-78555306D01*
X128688656Y-93599000D02*
X127327660Y-92238004D01*
X129662346Y-91059000D02*
X127835660Y-89232314D01*
X130883660Y-91059000D02*
X129662346Y-91059000D01*
X127835660Y-80137000D02*
X129359660Y-78613000D01*
X127835660Y-89232314D02*
X127835660Y-80137000D01*
X132016662Y-99949000D02*
X128005924Y-99949000D01*
X134693660Y-97272002D02*
X132016662Y-99949000D01*
X134693660Y-83946998D02*
X134693660Y-97272002D01*
X128005924Y-99949000D02*
X127581660Y-99949000D01*
X134185662Y-83439000D02*
X134693660Y-83946998D01*
X134068650Y-84455000D02*
X133188530Y-84455000D01*
X133188530Y-84455000D02*
X132072261Y-85571269D01*
X128390711Y-92374993D02*
X128090712Y-92074994D01*
X131345667Y-92374993D02*
X128390711Y-92374993D01*
X132072261Y-91648399D02*
X131345667Y-92374993D01*
X132072261Y-85571269D02*
X132072261Y-91648399D01*
X116187659Y-94823001D02*
X116451659Y-94823001D01*
X115887660Y-95123000D02*
X116187659Y-94823001D01*
X116451659Y-94823001D02*
X116497658Y-94869000D01*
X116497658Y-94869000D02*
X116659660Y-94869000D01*
X116659660Y-94869000D02*
X116913660Y-95123000D01*
X116825200Y-95211460D02*
X116825200Y-96225100D01*
X116913660Y-95123000D02*
X116825200Y-95211460D01*
X120937020Y-91452700D02*
X120759220Y-91630500D01*
X120937020Y-85153500D02*
X120937020Y-91452700D01*
X120911620Y-102400100D02*
X121140220Y-102628700D01*
X120911620Y-98869500D02*
X120911620Y-102400100D01*
X121140220Y-102628700D02*
X120124220Y-102628700D01*
X120124220Y-102628700D02*
X119489220Y-103263700D01*
X119489220Y-103263700D02*
X115628420Y-103263700D01*
X115628420Y-103263700D02*
X115171220Y-103720900D01*
X115171220Y-104091440D02*
X114075660Y-105187000D01*
X115171220Y-103720900D02*
X115171220Y-104091440D01*
X177355500Y-116941600D02*
X177355500Y-117094000D01*
X175008659Y-114594759D02*
X177355500Y-116941600D01*
X175008659Y-111001501D02*
X175008659Y-114594759D01*
X177238660Y-108771500D02*
X175008659Y-111001501D01*
X177238660Y-107505500D02*
X177238660Y-108771500D01*
X174279560Y-104330500D02*
X177365660Y-107416600D01*
X168568793Y-104330500D02*
X174279560Y-104330500D01*
X157635786Y-98504556D02*
X162742849Y-98504556D01*
X156008837Y-96877607D02*
X157635786Y-98504556D01*
X153456107Y-96877607D02*
X156008837Y-96877607D01*
X152173661Y-95595161D02*
X153456107Y-96877607D01*
X162742849Y-98504556D02*
X168568793Y-104330500D01*
X152173661Y-92882999D02*
X152173661Y-95595161D01*
X152473660Y-92583000D02*
X152173661Y-92882999D01*
X179895500Y-107622340D02*
X179778660Y-107505500D01*
X179895500Y-117094000D02*
X179895500Y-107622340D01*
X176184560Y-103695500D02*
X179905660Y-107416600D01*
X168846500Y-103695500D02*
X176184560Y-103695500D01*
X163205536Y-98054536D02*
X168846500Y-103695500D01*
X153035000Y-95504000D02*
X153958596Y-96427596D01*
X157822176Y-98054536D02*
X163205536Y-98054536D01*
X153958596Y-96427596D02*
X156195236Y-96427596D01*
X156195236Y-96427596D02*
X157822176Y-98054536D01*
X163570759Y-79707901D02*
X170477019Y-79707901D01*
X170878221Y-79306699D02*
X171178220Y-79006700D01*
X161998498Y-81280162D02*
X163570759Y-79707901D01*
X170477019Y-79707901D02*
X170878221Y-79306699D01*
X161272220Y-92364560D02*
X161998498Y-91638282D01*
X161998498Y-91638282D02*
X161998498Y-81280162D01*
X160609278Y-93910000D02*
X160609278Y-91771968D01*
X164302356Y-78803500D02*
X164726620Y-78803500D01*
X160609278Y-91771968D02*
X161510701Y-90870545D01*
X163838749Y-78803500D02*
X164302356Y-78803500D01*
X163838750Y-78803500D02*
X161510701Y-81131549D01*
X161510701Y-81131549D02*
X161510701Y-90870545D01*
X164726620Y-78803500D02*
X163838750Y-78803500D01*
X137868660Y-78994000D02*
X138049000Y-78994000D01*
X135709660Y-81153000D02*
X137868660Y-78994000D01*
X165132621Y-92029280D02*
X167495220Y-92029280D01*
X168446465Y-92972506D02*
X168746464Y-93272505D01*
X167503239Y-92029280D02*
X168446465Y-92972506D01*
X125549660Y-90803968D02*
X125802628Y-90551000D01*
X125549660Y-98679000D02*
X125549660Y-90803968D01*
X118310660Y-95123000D02*
X117787650Y-95646010D01*
X117787650Y-99753274D02*
X116067924Y-101473000D01*
X117787650Y-95646010D02*
X117787650Y-99753274D01*
X116067924Y-101473000D02*
X115813925Y-101473000D01*
X115813925Y-101473000D02*
X115389661Y-101473000D01*
X139265660Y-113474500D02*
X139265660Y-117094000D01*
D31*
G36*
X125222000Y-89814448D02*
G01*
X125206600Y-89824738D01*
X125076366Y-89954972D01*
X124974042Y-90108111D01*
X124903560Y-90278271D01*
X124867628Y-90458911D01*
X124867628Y-90467731D01*
X124844114Y-90511722D01*
X124843408Y-90514051D01*
X124800658Y-90654982D01*
X124795039Y-90712034D01*
X124785984Y-90803968D01*
X124789661Y-90841300D01*
X124789660Y-98133464D01*
X124721074Y-98236111D01*
X124650592Y-98406271D01*
X124614660Y-98586911D01*
X124614660Y-98771089D01*
X124650592Y-98951729D01*
X124721074Y-99121889D01*
X124823398Y-99275028D01*
X124953632Y-99405262D01*
X125106771Y-99507586D01*
X125222000Y-99555315D01*
X125222000Y-106426000D01*
X121313199Y-106426000D01*
X121355797Y-106374094D01*
X121414762Y-106263780D01*
X121451072Y-106144082D01*
X121463332Y-106019600D01*
X121463332Y-103784400D01*
X121451072Y-103659918D01*
X121414762Y-103540220D01*
X121355797Y-103429906D01*
X121276445Y-103333215D01*
X121179754Y-103253863D01*
X121069440Y-103194898D01*
X120949742Y-103158588D01*
X120825260Y-103146328D01*
X119229622Y-103146328D01*
X119244401Y-103131549D01*
X119346725Y-102978410D01*
X119409798Y-102826138D01*
X119562070Y-102763065D01*
X119715209Y-102660741D01*
X119845443Y-102530507D01*
X119947767Y-102377368D01*
X120018249Y-102207208D01*
X120054181Y-102026568D01*
X120054181Y-101842390D01*
X120018249Y-101661750D01*
X119947767Y-101491590D01*
X119845443Y-101338451D01*
X119715209Y-101208217D01*
X119562070Y-101105893D01*
X119397660Y-101037793D01*
X119397660Y-97425646D01*
X120067171Y-96756136D01*
X120095216Y-96733120D01*
X120187065Y-96621202D01*
X120255315Y-96493515D01*
X120297343Y-96354967D01*
X120307978Y-96246987D01*
X120311534Y-96210883D01*
X120307978Y-96174778D01*
X120307978Y-94569814D01*
X120401564Y-94429752D01*
X120472046Y-94259592D01*
X120507978Y-94078952D01*
X120507978Y-93894774D01*
X120472046Y-93714134D01*
X120401564Y-93543974D01*
X120299240Y-93390835D01*
X120169006Y-93260601D01*
X120015867Y-93158277D01*
X119845707Y-93087795D01*
X119778660Y-93074458D01*
X119778660Y-85233646D01*
X122897098Y-82115209D01*
X122959151Y-82177262D01*
X123112290Y-82279586D01*
X123282450Y-82350068D01*
X123463090Y-82386000D01*
X123647268Y-82386000D01*
X123827908Y-82350068D01*
X123998068Y-82279586D01*
X124151207Y-82177262D01*
X124281441Y-82047028D01*
X124383765Y-81893889D01*
X124454247Y-81723729D01*
X124490179Y-81543089D01*
X124490179Y-81358911D01*
X124454247Y-81178271D01*
X124391175Y-81026000D01*
X124454247Y-80873729D01*
X124490179Y-80693089D01*
X124490179Y-80508911D01*
X124454247Y-80328271D01*
X124383765Y-80158111D01*
X124281441Y-80004972D01*
X124151207Y-79874738D01*
X123998068Y-79772414D01*
X123827908Y-79701932D01*
X123647268Y-79666000D01*
X123463090Y-79666000D01*
X123282450Y-79701932D01*
X123112290Y-79772414D01*
X122959151Y-79874738D01*
X122828917Y-80004972D01*
X122788139Y-80066000D01*
X122571564Y-80066000D01*
X122535459Y-80062444D01*
X122391374Y-80076635D01*
X122349346Y-80089384D01*
X122252827Y-80118663D01*
X122125140Y-80186913D01*
X122013222Y-80278762D01*
X121990206Y-80306807D01*
X119319518Y-82977495D01*
X119326660Y-82941592D01*
X119326660Y-82666408D01*
X119272974Y-82396510D01*
X119167665Y-82142273D01*
X119014780Y-81913465D01*
X118820195Y-81718880D01*
X118591387Y-81565995D01*
X118514145Y-81534000D01*
X118591387Y-81502005D01*
X118820195Y-81349120D01*
X119014780Y-81154535D01*
X119167665Y-80925727D01*
X119272974Y-80671490D01*
X119326660Y-80401592D01*
X119326660Y-80126408D01*
X119272974Y-79856510D01*
X119167665Y-79602273D01*
X119014780Y-79373465D01*
X118820195Y-79178880D01*
X118591387Y-79025995D01*
X118337150Y-78920686D01*
X118067252Y-78867000D01*
X117792068Y-78867000D01*
X117522170Y-78920686D01*
X117267933Y-79025995D01*
X117039125Y-79178880D01*
X116930170Y-79287835D01*
X116821215Y-79178880D01*
X116592407Y-79025995D01*
X116338170Y-78920686D01*
X116068272Y-78867000D01*
X115793088Y-78867000D01*
X115523190Y-78920686D01*
X115268953Y-79025995D01*
X115040145Y-79178880D01*
X114845560Y-79373465D01*
X114692675Y-79602273D01*
X114587366Y-79856510D01*
X114533680Y-80126408D01*
X114533680Y-80401592D01*
X114587366Y-80671490D01*
X114692675Y-80925727D01*
X114845560Y-81154535D01*
X115040145Y-81349120D01*
X115268953Y-81502005D01*
X115340623Y-81531692D01*
X115327657Y-81536364D01*
X115211700Y-81598344D01*
X115144720Y-81838435D01*
X115930680Y-82624395D01*
X116716640Y-81838435D01*
X116649660Y-81598344D01*
X116513920Y-81534515D01*
X116592407Y-81502005D01*
X116821215Y-81349120D01*
X116930170Y-81240165D01*
X117039125Y-81349120D01*
X117267933Y-81502005D01*
X117345175Y-81534000D01*
X117267933Y-81565995D01*
X117039125Y-81718880D01*
X116844540Y-81913465D01*
X116691655Y-82142273D01*
X116634833Y-82279452D01*
X116110285Y-82804000D01*
X116634833Y-83328548D01*
X116691655Y-83465727D01*
X116844540Y-83694535D01*
X117039125Y-83889120D01*
X117267933Y-84042005D01*
X117522170Y-84147314D01*
X117792068Y-84201000D01*
X118067252Y-84201000D01*
X118103156Y-84193858D01*
X118099468Y-84197546D01*
X118071423Y-84220562D01*
X117979574Y-84332480D01*
X117939763Y-84406962D01*
X117911324Y-84460167D01*
X117869295Y-84598715D01*
X117855104Y-84742800D01*
X117858661Y-84778915D01*
X117858660Y-90674782D01*
X117784769Y-90514051D01*
X117656876Y-90337629D01*
X117497022Y-90189547D01*
X117311350Y-90075497D01*
X117123138Y-90005832D01*
X116952200Y-90132366D01*
X116952200Y-91098100D01*
X116972200Y-91098100D01*
X116972200Y-91352100D01*
X116952200Y-91352100D01*
X116952200Y-92317834D01*
X117123138Y-92444368D01*
X117311350Y-92374703D01*
X117497022Y-92260653D01*
X117656876Y-92112571D01*
X117784769Y-91936149D01*
X117858660Y-91775418D01*
X117858660Y-93890681D01*
X117855104Y-93926786D01*
X117869295Y-94070871D01*
X117882044Y-94112899D01*
X117911323Y-94209418D01*
X117940624Y-94264237D01*
X117867771Y-94294414D01*
X117714632Y-94396738D01*
X117584398Y-94526972D01*
X117482074Y-94680111D01*
X117411592Y-94850271D01*
X117387507Y-94971351D01*
X117290923Y-95067936D01*
X117123138Y-95005832D01*
X116952200Y-95132366D01*
X116952200Y-96098100D01*
X116972200Y-96098100D01*
X116972200Y-96352100D01*
X116952200Y-96352100D01*
X116952200Y-97317834D01*
X117027650Y-97373685D01*
X117027651Y-99438471D01*
X116808358Y-99657764D01*
X116805751Y-99655157D01*
X116656707Y-99555569D01*
X116491097Y-99486971D01*
X116315287Y-99452000D01*
X116136033Y-99452000D01*
X116022660Y-99474551D01*
X116022660Y-97139561D01*
X116153378Y-97260653D01*
X116339050Y-97374703D01*
X116527262Y-97444368D01*
X116698200Y-97317834D01*
X116698200Y-96352100D01*
X116678200Y-96352100D01*
X116678200Y-96098100D01*
X116698200Y-96098100D01*
X116698200Y-95132366D01*
X116527262Y-95005832D01*
X116339050Y-95075497D01*
X116153378Y-95189547D01*
X116022660Y-95310639D01*
X116022660Y-93636535D01*
X116091246Y-93533889D01*
X116161728Y-93363729D01*
X116197660Y-93183089D01*
X116197660Y-92998911D01*
X116161728Y-92818271D01*
X116091246Y-92648111D01*
X115988922Y-92494972D01*
X115858688Y-92364738D01*
X115705549Y-92262414D01*
X115535389Y-92191932D01*
X115354749Y-92156000D01*
X115170571Y-92156000D01*
X114989931Y-92191932D01*
X114819771Y-92262414D01*
X114666632Y-92364738D01*
X114536398Y-92494972D01*
X114434074Y-92648111D01*
X114363592Y-92818271D01*
X114327660Y-92998911D01*
X114327660Y-93183089D01*
X114363592Y-93363729D01*
X114434074Y-93533889D01*
X114502660Y-93636536D01*
X114502660Y-96090100D01*
X114252200Y-96090100D01*
X114252200Y-97098100D01*
X114272200Y-97098100D01*
X114272200Y-97352100D01*
X114252200Y-97352100D01*
X114252200Y-97372100D01*
X113998200Y-97372100D01*
X113998200Y-97352100D01*
X112882246Y-97352100D01*
X112756081Y-97526974D01*
X112835924Y-97750076D01*
X112957831Y-97937864D01*
X113114031Y-98098261D01*
X113298522Y-98225103D01*
X113337535Y-98241872D01*
X113304503Y-98259528D01*
X113226868Y-98508603D01*
X114075660Y-99357395D01*
X114089803Y-99343253D01*
X114269408Y-99522858D01*
X114255265Y-99537000D01*
X114269408Y-99551143D01*
X114089803Y-99730748D01*
X114075660Y-99716605D01*
X113226868Y-100565397D01*
X113304503Y-100814472D01*
X113568543Y-100940371D01*
X113852071Y-101012339D01*
X114144191Y-101027611D01*
X114433679Y-100985599D01*
X114563871Y-100939477D01*
X114592753Y-100982702D01*
X114561075Y-101030111D01*
X114490593Y-101200271D01*
X114454661Y-101380911D01*
X114454661Y-101565089D01*
X114490593Y-101745729D01*
X114561075Y-101915889D01*
X114663399Y-102069028D01*
X114793633Y-102199262D01*
X114946772Y-102301586D01*
X115116932Y-102372068D01*
X115297572Y-102408000D01*
X115481750Y-102408000D01*
X115662390Y-102372068D01*
X115832550Y-102301586D01*
X115935196Y-102233000D01*
X116030602Y-102233000D01*
X116067924Y-102236676D01*
X116105246Y-102233000D01*
X116105257Y-102233000D01*
X116216910Y-102222003D01*
X116360171Y-102178546D01*
X116492200Y-102107974D01*
X116607925Y-102013001D01*
X116631728Y-101983997D01*
X117477661Y-101138065D01*
X117477661Y-101911084D01*
X117474104Y-101947199D01*
X117488295Y-102091284D01*
X117523461Y-102207208D01*
X117530324Y-102229832D01*
X117598574Y-102357519D01*
X117599906Y-102359142D01*
X117583139Y-102443432D01*
X117583139Y-102627610D01*
X117619071Y-102808250D01*
X117689553Y-102978410D01*
X117791877Y-103131549D01*
X117922111Y-103261783D01*
X118075250Y-103364107D01*
X118103813Y-103375938D01*
X118059523Y-103429906D01*
X118000558Y-103540220D01*
X117964248Y-103659918D01*
X117951988Y-103784400D01*
X117951988Y-106019600D01*
X117964248Y-106144082D01*
X118000558Y-106263780D01*
X118059523Y-106374094D01*
X118102121Y-106426000D01*
X114858808Y-106426000D01*
X114924452Y-106215397D01*
X114075660Y-105366605D01*
X113226868Y-106215397D01*
X113292512Y-106426000D01*
X112150500Y-106426000D01*
X112150500Y-105255531D01*
X112585049Y-105255531D01*
X112627061Y-105545019D01*
X112724741Y-105820747D01*
X112798188Y-105958157D01*
X113047263Y-106035792D01*
X113896055Y-105187000D01*
X114255265Y-105187000D01*
X115104057Y-106035792D01*
X115353132Y-105958157D01*
X115479031Y-105694117D01*
X115550999Y-105410589D01*
X115566271Y-105118469D01*
X115544211Y-104966465D01*
X115645569Y-105067823D01*
X115794613Y-105167411D01*
X115960223Y-105236009D01*
X116136033Y-105270980D01*
X116315287Y-105270980D01*
X116491097Y-105236009D01*
X116656707Y-105167411D01*
X116805751Y-105067823D01*
X116932503Y-104941071D01*
X117032091Y-104792027D01*
X117100689Y-104626417D01*
X117135660Y-104450607D01*
X117135660Y-104271353D01*
X117100689Y-104095543D01*
X117032091Y-103929933D01*
X116932503Y-103780889D01*
X116805751Y-103654137D01*
X116656707Y-103554549D01*
X116491097Y-103485951D01*
X116315287Y-103450980D01*
X116136033Y-103450980D01*
X115960223Y-103485951D01*
X115794613Y-103554549D01*
X115645569Y-103654137D01*
X115518817Y-103780889D01*
X115419229Y-103929933D01*
X115350631Y-104095543D01*
X115315660Y-104271353D01*
X115315660Y-104404163D01*
X115104057Y-104338208D01*
X114255265Y-105187000D01*
X113896055Y-105187000D01*
X113047263Y-104338208D01*
X112798188Y-104415843D01*
X112672289Y-104679883D01*
X112600321Y-104963411D01*
X112585049Y-105255531D01*
X112150500Y-105255531D01*
X112150500Y-104158603D01*
X113226868Y-104158603D01*
X114075660Y-105007395D01*
X114924452Y-104158603D01*
X114846817Y-103909528D01*
X114582777Y-103783629D01*
X114299249Y-103711661D01*
X114007129Y-103696389D01*
X113717641Y-103738401D01*
X113441913Y-103836081D01*
X113304503Y-103909528D01*
X113226868Y-104158603D01*
X112150500Y-104158603D01*
X112150500Y-99605531D01*
X112585049Y-99605531D01*
X112627061Y-99895019D01*
X112724741Y-100170747D01*
X112798188Y-100308157D01*
X113047263Y-100385792D01*
X113896055Y-99537000D01*
X113047263Y-98688208D01*
X112798188Y-98765843D01*
X112672289Y-99029883D01*
X112600321Y-99313411D01*
X112585049Y-99605531D01*
X112150500Y-99605531D01*
X112150500Y-96923226D01*
X112756081Y-96923226D01*
X112882246Y-97098100D01*
X113998200Y-97098100D01*
X113998200Y-96090100D01*
X113723200Y-96090100D01*
X113504213Y-96136685D01*
X113298522Y-96225097D01*
X113114031Y-96351939D01*
X112957831Y-96512336D01*
X112835924Y-96700124D01*
X112756081Y-96923226D01*
X112150500Y-96923226D01*
X112150500Y-91526231D01*
X115723970Y-91526231D01*
X115774614Y-91738166D01*
X115865631Y-91936149D01*
X115993524Y-92112571D01*
X116153378Y-92260653D01*
X116339050Y-92374703D01*
X116527262Y-92444368D01*
X116698200Y-92317834D01*
X116698200Y-91352100D01*
X115872636Y-91352100D01*
X115723970Y-91526231D01*
X112150500Y-91526231D01*
X112150500Y-90526974D01*
X112756081Y-90526974D01*
X112835924Y-90750076D01*
X112957831Y-90937864D01*
X113114031Y-91098261D01*
X113298522Y-91225103D01*
X113504213Y-91313515D01*
X113723200Y-91360100D01*
X113998200Y-91360100D01*
X113998200Y-90352100D01*
X114252200Y-90352100D01*
X114252200Y-91360100D01*
X114527200Y-91360100D01*
X114746187Y-91313515D01*
X114951878Y-91225103D01*
X115136369Y-91098261D01*
X115292569Y-90937864D01*
X115301589Y-90923969D01*
X115723970Y-90923969D01*
X115872636Y-91098100D01*
X116698200Y-91098100D01*
X116698200Y-90132366D01*
X116527262Y-90005832D01*
X116339050Y-90075497D01*
X116153378Y-90189547D01*
X115993524Y-90337629D01*
X115865631Y-90514051D01*
X115774614Y-90712034D01*
X115723970Y-90923969D01*
X115301589Y-90923969D01*
X115414476Y-90750076D01*
X115494319Y-90526974D01*
X115368154Y-90352100D01*
X114252200Y-90352100D01*
X113998200Y-90352100D01*
X112882246Y-90352100D01*
X112756081Y-90526974D01*
X112150500Y-90526974D01*
X112150500Y-89190509D01*
X112163378Y-89218532D01*
X112512623Y-89394371D01*
X112889462Y-89498696D01*
X112965635Y-89504322D01*
X112957831Y-89512336D01*
X112835924Y-89700124D01*
X112756081Y-89923226D01*
X112882246Y-90098100D01*
X113998200Y-90098100D01*
X113998200Y-90078100D01*
X114252200Y-90078100D01*
X114252200Y-90098100D01*
X115368154Y-90098100D01*
X115494319Y-89923226D01*
X115414476Y-89700124D01*
X115292569Y-89512336D01*
X115136369Y-89351939D01*
X114951878Y-89225097D01*
X114746187Y-89136685D01*
X114527200Y-89090100D01*
X114356962Y-89090100D01*
X114435900Y-88918325D01*
X113230660Y-87713085D01*
X113216518Y-87727228D01*
X113036913Y-87547623D01*
X113051055Y-87533480D01*
X113410265Y-87533480D01*
X114615505Y-88738720D01*
X114915712Y-88600762D01*
X115091551Y-88251517D01*
X115195876Y-87874678D01*
X115224679Y-87484727D01*
X115176853Y-87096650D01*
X115054236Y-86725360D01*
X114915712Y-86466198D01*
X114615505Y-86328240D01*
X113410265Y-87533480D01*
X113051055Y-87533480D01*
X113036913Y-87519338D01*
X113216518Y-87339733D01*
X113230660Y-87353875D01*
X114435900Y-86148635D01*
X114297942Y-85848428D01*
X113948697Y-85672589D01*
X113571858Y-85568264D01*
X113181907Y-85539461D01*
X112793830Y-85587287D01*
X112422540Y-85709904D01*
X112163378Y-85848428D01*
X112150500Y-85876451D01*
X112150500Y-83769565D01*
X115144720Y-83769565D01*
X115211700Y-84009656D01*
X115460728Y-84126756D01*
X115727815Y-84193023D01*
X116002697Y-84205910D01*
X116274813Y-84164922D01*
X116533703Y-84071636D01*
X116649660Y-84009656D01*
X116716640Y-83769565D01*
X115930680Y-82983605D01*
X115144720Y-83769565D01*
X112150500Y-83769565D01*
X112150500Y-82876017D01*
X114528770Y-82876017D01*
X114569758Y-83148133D01*
X114663044Y-83407023D01*
X114725024Y-83522980D01*
X114965115Y-83589960D01*
X115751075Y-82804000D01*
X114965115Y-82018040D01*
X114725024Y-82085020D01*
X114607924Y-82334048D01*
X114541657Y-82601135D01*
X114528770Y-82876017D01*
X112150500Y-82876017D01*
X112150500Y-77191549D01*
X112163378Y-77219572D01*
X112512623Y-77395411D01*
X112889462Y-77499736D01*
X113279413Y-77528539D01*
X113667490Y-77480713D01*
X114038780Y-77358096D01*
X114297942Y-77219572D01*
X114435900Y-76919365D01*
X113230660Y-75714125D01*
X113216518Y-75728268D01*
X113036913Y-75548663D01*
X113051055Y-75534520D01*
X113410265Y-75534520D01*
X114615505Y-76739760D01*
X114915712Y-76601802D01*
X115091551Y-76252557D01*
X115195876Y-75875718D01*
X115224679Y-75485767D01*
X115176853Y-75097690D01*
X115054236Y-74726400D01*
X114915712Y-74467238D01*
X114615505Y-74329280D01*
X113410265Y-75534520D01*
X113051055Y-75534520D01*
X113036913Y-75520378D01*
X113216518Y-75340773D01*
X113230660Y-75354915D01*
X114435900Y-74149675D01*
X114297942Y-73849468D01*
X113948697Y-73673629D01*
X113571858Y-73569304D01*
X113181907Y-73540501D01*
X112793830Y-73588327D01*
X112422540Y-73710944D01*
X112163378Y-73849468D01*
X112150500Y-73877491D01*
X112150500Y-73152000D01*
X125222000Y-73152000D01*
X125222000Y-89814448D01*
X125222000Y-89814448D01*
G37*
X125222000Y-89814448D02*
X125206600Y-89824738D01*
X125076366Y-89954972D01*
X124974042Y-90108111D01*
X124903560Y-90278271D01*
X124867628Y-90458911D01*
X124867628Y-90467731D01*
X124844114Y-90511722D01*
X124843408Y-90514051D01*
X124800658Y-90654982D01*
X124795039Y-90712034D01*
X124785984Y-90803968D01*
X124789661Y-90841300D01*
X124789660Y-98133464D01*
X124721074Y-98236111D01*
X124650592Y-98406271D01*
X124614660Y-98586911D01*
X124614660Y-98771089D01*
X124650592Y-98951729D01*
X124721074Y-99121889D01*
X124823398Y-99275028D01*
X124953632Y-99405262D01*
X125106771Y-99507586D01*
X125222000Y-99555315D01*
X125222000Y-106426000D01*
X121313199Y-106426000D01*
X121355797Y-106374094D01*
X121414762Y-106263780D01*
X121451072Y-106144082D01*
X121463332Y-106019600D01*
X121463332Y-103784400D01*
X121451072Y-103659918D01*
X121414762Y-103540220D01*
X121355797Y-103429906D01*
X121276445Y-103333215D01*
X121179754Y-103253863D01*
X121069440Y-103194898D01*
X120949742Y-103158588D01*
X120825260Y-103146328D01*
X119229622Y-103146328D01*
X119244401Y-103131549D01*
X119346725Y-102978410D01*
X119409798Y-102826138D01*
X119562070Y-102763065D01*
X119715209Y-102660741D01*
X119845443Y-102530507D01*
X119947767Y-102377368D01*
X120018249Y-102207208D01*
X120054181Y-102026568D01*
X120054181Y-101842390D01*
X120018249Y-101661750D01*
X119947767Y-101491590D01*
X119845443Y-101338451D01*
X119715209Y-101208217D01*
X119562070Y-101105893D01*
X119397660Y-101037793D01*
X119397660Y-97425646D01*
X120067171Y-96756136D01*
X120095216Y-96733120D01*
X120187065Y-96621202D01*
X120255315Y-96493515D01*
X120297343Y-96354967D01*
X120307978Y-96246987D01*
X120311534Y-96210883D01*
X120307978Y-96174778D01*
X120307978Y-94569814D01*
X120401564Y-94429752D01*
X120472046Y-94259592D01*
X120507978Y-94078952D01*
X120507978Y-93894774D01*
X120472046Y-93714134D01*
X120401564Y-93543974D01*
X120299240Y-93390835D01*
X120169006Y-93260601D01*
X120015867Y-93158277D01*
X119845707Y-93087795D01*
X119778660Y-93074458D01*
X119778660Y-85233646D01*
X122897098Y-82115209D01*
X122959151Y-82177262D01*
X123112290Y-82279586D01*
X123282450Y-82350068D01*
X123463090Y-82386000D01*
X123647268Y-82386000D01*
X123827908Y-82350068D01*
X123998068Y-82279586D01*
X124151207Y-82177262D01*
X124281441Y-82047028D01*
X124383765Y-81893889D01*
X124454247Y-81723729D01*
X124490179Y-81543089D01*
X124490179Y-81358911D01*
X124454247Y-81178271D01*
X124391175Y-81026000D01*
X124454247Y-80873729D01*
X124490179Y-80693089D01*
X124490179Y-80508911D01*
X124454247Y-80328271D01*
X124383765Y-80158111D01*
X124281441Y-80004972D01*
X124151207Y-79874738D01*
X123998068Y-79772414D01*
X123827908Y-79701932D01*
X123647268Y-79666000D01*
X123463090Y-79666000D01*
X123282450Y-79701932D01*
X123112290Y-79772414D01*
X122959151Y-79874738D01*
X122828917Y-80004972D01*
X122788139Y-80066000D01*
X122571564Y-80066000D01*
X122535459Y-80062444D01*
X122391374Y-80076635D01*
X122349346Y-80089384D01*
X122252827Y-80118663D01*
X122125140Y-80186913D01*
X122013222Y-80278762D01*
X121990206Y-80306807D01*
X119319518Y-82977495D01*
X119326660Y-82941592D01*
X119326660Y-82666408D01*
X119272974Y-82396510D01*
X119167665Y-82142273D01*
X119014780Y-81913465D01*
X118820195Y-81718880D01*
X118591387Y-81565995D01*
X118514145Y-81534000D01*
X118591387Y-81502005D01*
X118820195Y-81349120D01*
X119014780Y-81154535D01*
X119167665Y-80925727D01*
X119272974Y-80671490D01*
X119326660Y-80401592D01*
X119326660Y-80126408D01*
X119272974Y-79856510D01*
X119167665Y-79602273D01*
X119014780Y-79373465D01*
X118820195Y-79178880D01*
X118591387Y-79025995D01*
X118337150Y-78920686D01*
X118067252Y-78867000D01*
X117792068Y-78867000D01*
X117522170Y-78920686D01*
X117267933Y-79025995D01*
X117039125Y-79178880D01*
X116930170Y-79287835D01*
X116821215Y-79178880D01*
X116592407Y-79025995D01*
X116338170Y-78920686D01*
X116068272Y-78867000D01*
X115793088Y-78867000D01*
X115523190Y-78920686D01*
X115268953Y-79025995D01*
X115040145Y-79178880D01*
X114845560Y-79373465D01*
X114692675Y-79602273D01*
X114587366Y-79856510D01*
X114533680Y-80126408D01*
X114533680Y-80401592D01*
X114587366Y-80671490D01*
X114692675Y-80925727D01*
X114845560Y-81154535D01*
X115040145Y-81349120D01*
X115268953Y-81502005D01*
X115340623Y-81531692D01*
X115327657Y-81536364D01*
X115211700Y-81598344D01*
X115144720Y-81838435D01*
X115930680Y-82624395D01*
X116716640Y-81838435D01*
X116649660Y-81598344D01*
X116513920Y-81534515D01*
X116592407Y-81502005D01*
X116821215Y-81349120D01*
X116930170Y-81240165D01*
X117039125Y-81349120D01*
X117267933Y-81502005D01*
X117345175Y-81534000D01*
X117267933Y-81565995D01*
X117039125Y-81718880D01*
X116844540Y-81913465D01*
X116691655Y-82142273D01*
X116634833Y-82279452D01*
X116110285Y-82804000D01*
X116634833Y-83328548D01*
X116691655Y-83465727D01*
X116844540Y-83694535D01*
X117039125Y-83889120D01*
X117267933Y-84042005D01*
X117522170Y-84147314D01*
X117792068Y-84201000D01*
X118067252Y-84201000D01*
X118103156Y-84193858D01*
X118099468Y-84197546D01*
X118071423Y-84220562D01*
X117979574Y-84332480D01*
X117939763Y-84406962D01*
X117911324Y-84460167D01*
X117869295Y-84598715D01*
X117855104Y-84742800D01*
X117858661Y-84778915D01*
X117858660Y-90674782D01*
X117784769Y-90514051D01*
X117656876Y-90337629D01*
X117497022Y-90189547D01*
X117311350Y-90075497D01*
X117123138Y-90005832D01*
X116952200Y-90132366D01*
X116952200Y-91098100D01*
X116972200Y-91098100D01*
X116972200Y-91352100D01*
X116952200Y-91352100D01*
X116952200Y-92317834D01*
X117123138Y-92444368D01*
X117311350Y-92374703D01*
X117497022Y-92260653D01*
X117656876Y-92112571D01*
X117784769Y-91936149D01*
X117858660Y-91775418D01*
X117858660Y-93890681D01*
X117855104Y-93926786D01*
X117869295Y-94070871D01*
X117882044Y-94112899D01*
X117911323Y-94209418D01*
X117940624Y-94264237D01*
X117867771Y-94294414D01*
X117714632Y-94396738D01*
X117584398Y-94526972D01*
X117482074Y-94680111D01*
X117411592Y-94850271D01*
X117387507Y-94971351D01*
X117290923Y-95067936D01*
X117123138Y-95005832D01*
X116952200Y-95132366D01*
X116952200Y-96098100D01*
X116972200Y-96098100D01*
X116972200Y-96352100D01*
X116952200Y-96352100D01*
X116952200Y-97317834D01*
X117027650Y-97373685D01*
X117027651Y-99438471D01*
X116808358Y-99657764D01*
X116805751Y-99655157D01*
X116656707Y-99555569D01*
X116491097Y-99486971D01*
X116315287Y-99452000D01*
X116136033Y-99452000D01*
X116022660Y-99474551D01*
X116022660Y-97139561D01*
X116153378Y-97260653D01*
X116339050Y-97374703D01*
X116527262Y-97444368D01*
X116698200Y-97317834D01*
X116698200Y-96352100D01*
X116678200Y-96352100D01*
X116678200Y-96098100D01*
X116698200Y-96098100D01*
X116698200Y-95132366D01*
X116527262Y-95005832D01*
X116339050Y-95075497D01*
X116153378Y-95189547D01*
X116022660Y-95310639D01*
X116022660Y-93636535D01*
X116091246Y-93533889D01*
X116161728Y-93363729D01*
X116197660Y-93183089D01*
X116197660Y-92998911D01*
X116161728Y-92818271D01*
X116091246Y-92648111D01*
X115988922Y-92494972D01*
X115858688Y-92364738D01*
X115705549Y-92262414D01*
X115535389Y-92191932D01*
X115354749Y-92156000D01*
X115170571Y-92156000D01*
X114989931Y-92191932D01*
X114819771Y-92262414D01*
X114666632Y-92364738D01*
X114536398Y-92494972D01*
X114434074Y-92648111D01*
X114363592Y-92818271D01*
X114327660Y-92998911D01*
X114327660Y-93183089D01*
X114363592Y-93363729D01*
X114434074Y-93533889D01*
X114502660Y-93636536D01*
X114502660Y-96090100D01*
X114252200Y-96090100D01*
X114252200Y-97098100D01*
X114272200Y-97098100D01*
X114272200Y-97352100D01*
X114252200Y-97352100D01*
X114252200Y-97372100D01*
X113998200Y-97372100D01*
X113998200Y-97352100D01*
X112882246Y-97352100D01*
X112756081Y-97526974D01*
X112835924Y-97750076D01*
X112957831Y-97937864D01*
X113114031Y-98098261D01*
X113298522Y-98225103D01*
X113337535Y-98241872D01*
X113304503Y-98259528D01*
X113226868Y-98508603D01*
X114075660Y-99357395D01*
X114089803Y-99343253D01*
X114269408Y-99522858D01*
X114255265Y-99537000D01*
X114269408Y-99551143D01*
X114089803Y-99730748D01*
X114075660Y-99716605D01*
X113226868Y-100565397D01*
X113304503Y-100814472D01*
X113568543Y-100940371D01*
X113852071Y-101012339D01*
X114144191Y-101027611D01*
X114433679Y-100985599D01*
X114563871Y-100939477D01*
X114592753Y-100982702D01*
X114561075Y-101030111D01*
X114490593Y-101200271D01*
X114454661Y-101380911D01*
X114454661Y-101565089D01*
X114490593Y-101745729D01*
X114561075Y-101915889D01*
X114663399Y-102069028D01*
X114793633Y-102199262D01*
X114946772Y-102301586D01*
X115116932Y-102372068D01*
X115297572Y-102408000D01*
X115481750Y-102408000D01*
X115662390Y-102372068D01*
X115832550Y-102301586D01*
X115935196Y-102233000D01*
X116030602Y-102233000D01*
X116067924Y-102236676D01*
X116105246Y-102233000D01*
X116105257Y-102233000D01*
X116216910Y-102222003D01*
X116360171Y-102178546D01*
X116492200Y-102107974D01*
X116607925Y-102013001D01*
X116631728Y-101983997D01*
X117477661Y-101138065D01*
X117477661Y-101911084D01*
X117474104Y-101947199D01*
X117488295Y-102091284D01*
X117523461Y-102207208D01*
X117530324Y-102229832D01*
X117598574Y-102357519D01*
X117599906Y-102359142D01*
X117583139Y-102443432D01*
X117583139Y-102627610D01*
X117619071Y-102808250D01*
X117689553Y-102978410D01*
X117791877Y-103131549D01*
X117922111Y-103261783D01*
X118075250Y-103364107D01*
X118103813Y-103375938D01*
X118059523Y-103429906D01*
X118000558Y-103540220D01*
X117964248Y-103659918D01*
X117951988Y-103784400D01*
X117951988Y-106019600D01*
X117964248Y-106144082D01*
X118000558Y-106263780D01*
X118059523Y-106374094D01*
X118102121Y-106426000D01*
X114858808Y-106426000D01*
X114924452Y-106215397D01*
X114075660Y-105366605D01*
X113226868Y-106215397D01*
X113292512Y-106426000D01*
X112150500Y-106426000D01*
X112150500Y-105255531D01*
X112585049Y-105255531D01*
X112627061Y-105545019D01*
X112724741Y-105820747D01*
X112798188Y-105958157D01*
X113047263Y-106035792D01*
X113896055Y-105187000D01*
X114255265Y-105187000D01*
X115104057Y-106035792D01*
X115353132Y-105958157D01*
X115479031Y-105694117D01*
X115550999Y-105410589D01*
X115566271Y-105118469D01*
X115544211Y-104966465D01*
X115645569Y-105067823D01*
X115794613Y-105167411D01*
X115960223Y-105236009D01*
X116136033Y-105270980D01*
X116315287Y-105270980D01*
X116491097Y-105236009D01*
X116656707Y-105167411D01*
X116805751Y-105067823D01*
X116932503Y-104941071D01*
X117032091Y-104792027D01*
X117100689Y-104626417D01*
X117135660Y-104450607D01*
X117135660Y-104271353D01*
X117100689Y-104095543D01*
X117032091Y-103929933D01*
X116932503Y-103780889D01*
X116805751Y-103654137D01*
X116656707Y-103554549D01*
X116491097Y-103485951D01*
X116315287Y-103450980D01*
X116136033Y-103450980D01*
X115960223Y-103485951D01*
X115794613Y-103554549D01*
X115645569Y-103654137D01*
X115518817Y-103780889D01*
X115419229Y-103929933D01*
X115350631Y-104095543D01*
X115315660Y-104271353D01*
X115315660Y-104404163D01*
X115104057Y-104338208D01*
X114255265Y-105187000D01*
X113896055Y-105187000D01*
X113047263Y-104338208D01*
X112798188Y-104415843D01*
X112672289Y-104679883D01*
X112600321Y-104963411D01*
X112585049Y-105255531D01*
X112150500Y-105255531D01*
X112150500Y-104158603D01*
X113226868Y-104158603D01*
X114075660Y-105007395D01*
X114924452Y-104158603D01*
X114846817Y-103909528D01*
X114582777Y-103783629D01*
X114299249Y-103711661D01*
X114007129Y-103696389D01*
X113717641Y-103738401D01*
X113441913Y-103836081D01*
X113304503Y-103909528D01*
X113226868Y-104158603D01*
X112150500Y-104158603D01*
X112150500Y-99605531D01*
X112585049Y-99605531D01*
X112627061Y-99895019D01*
X112724741Y-100170747D01*
X112798188Y-100308157D01*
X113047263Y-100385792D01*
X113896055Y-99537000D01*
X113047263Y-98688208D01*
X112798188Y-98765843D01*
X112672289Y-99029883D01*
X112600321Y-99313411D01*
X112585049Y-99605531D01*
X112150500Y-99605531D01*
X112150500Y-96923226D01*
X112756081Y-96923226D01*
X112882246Y-97098100D01*
X113998200Y-97098100D01*
X113998200Y-96090100D01*
X113723200Y-96090100D01*
X113504213Y-96136685D01*
X113298522Y-96225097D01*
X113114031Y-96351939D01*
X112957831Y-96512336D01*
X112835924Y-96700124D01*
X112756081Y-96923226D01*
X112150500Y-96923226D01*
X112150500Y-91526231D01*
X115723970Y-91526231D01*
X115774614Y-91738166D01*
X115865631Y-91936149D01*
X115993524Y-92112571D01*
X116153378Y-92260653D01*
X116339050Y-92374703D01*
X116527262Y-92444368D01*
X116698200Y-92317834D01*
X116698200Y-91352100D01*
X115872636Y-91352100D01*
X115723970Y-91526231D01*
X112150500Y-91526231D01*
X112150500Y-90526974D01*
X112756081Y-90526974D01*
X112835924Y-90750076D01*
X112957831Y-90937864D01*
X113114031Y-91098261D01*
X113298522Y-91225103D01*
X113504213Y-91313515D01*
X113723200Y-91360100D01*
X113998200Y-91360100D01*
X113998200Y-90352100D01*
X114252200Y-90352100D01*
X114252200Y-91360100D01*
X114527200Y-91360100D01*
X114746187Y-91313515D01*
X114951878Y-91225103D01*
X115136369Y-91098261D01*
X115292569Y-90937864D01*
X115301589Y-90923969D01*
X115723970Y-90923969D01*
X115872636Y-91098100D01*
X116698200Y-91098100D01*
X116698200Y-90132366D01*
X116527262Y-90005832D01*
X116339050Y-90075497D01*
X116153378Y-90189547D01*
X115993524Y-90337629D01*
X115865631Y-90514051D01*
X115774614Y-90712034D01*
X115723970Y-90923969D01*
X115301589Y-90923969D01*
X115414476Y-90750076D01*
X115494319Y-90526974D01*
X115368154Y-90352100D01*
X114252200Y-90352100D01*
X113998200Y-90352100D01*
X112882246Y-90352100D01*
X112756081Y-90526974D01*
X112150500Y-90526974D01*
X112150500Y-89190509D01*
X112163378Y-89218532D01*
X112512623Y-89394371D01*
X112889462Y-89498696D01*
X112965635Y-89504322D01*
X112957831Y-89512336D01*
X112835924Y-89700124D01*
X112756081Y-89923226D01*
X112882246Y-90098100D01*
X113998200Y-90098100D01*
X113998200Y-90078100D01*
X114252200Y-90078100D01*
X114252200Y-90098100D01*
X115368154Y-90098100D01*
X115494319Y-89923226D01*
X115414476Y-89700124D01*
X115292569Y-89512336D01*
X115136369Y-89351939D01*
X114951878Y-89225097D01*
X114746187Y-89136685D01*
X114527200Y-89090100D01*
X114356962Y-89090100D01*
X114435900Y-88918325D01*
X113230660Y-87713085D01*
X113216518Y-87727228D01*
X113036913Y-87547623D01*
X113051055Y-87533480D01*
X113410265Y-87533480D01*
X114615505Y-88738720D01*
X114915712Y-88600762D01*
X115091551Y-88251517D01*
X115195876Y-87874678D01*
X115224679Y-87484727D01*
X115176853Y-87096650D01*
X115054236Y-86725360D01*
X114915712Y-86466198D01*
X114615505Y-86328240D01*
X113410265Y-87533480D01*
X113051055Y-87533480D01*
X113036913Y-87519338D01*
X113216518Y-87339733D01*
X113230660Y-87353875D01*
X114435900Y-86148635D01*
X114297942Y-85848428D01*
X113948697Y-85672589D01*
X113571858Y-85568264D01*
X113181907Y-85539461D01*
X112793830Y-85587287D01*
X112422540Y-85709904D01*
X112163378Y-85848428D01*
X112150500Y-85876451D01*
X112150500Y-83769565D01*
X115144720Y-83769565D01*
X115211700Y-84009656D01*
X115460728Y-84126756D01*
X115727815Y-84193023D01*
X116002697Y-84205910D01*
X116274813Y-84164922D01*
X116533703Y-84071636D01*
X116649660Y-84009656D01*
X116716640Y-83769565D01*
X115930680Y-82983605D01*
X115144720Y-83769565D01*
X112150500Y-83769565D01*
X112150500Y-82876017D01*
X114528770Y-82876017D01*
X114569758Y-83148133D01*
X114663044Y-83407023D01*
X114725024Y-83522980D01*
X114965115Y-83589960D01*
X115751075Y-82804000D01*
X114965115Y-82018040D01*
X114725024Y-82085020D01*
X114607924Y-82334048D01*
X114541657Y-82601135D01*
X114528770Y-82876017D01*
X112150500Y-82876017D01*
X112150500Y-77191549D01*
X112163378Y-77219572D01*
X112512623Y-77395411D01*
X112889462Y-77499736D01*
X113279413Y-77528539D01*
X113667490Y-77480713D01*
X114038780Y-77358096D01*
X114297942Y-77219572D01*
X114435900Y-76919365D01*
X113230660Y-75714125D01*
X113216518Y-75728268D01*
X113036913Y-75548663D01*
X113051055Y-75534520D01*
X113410265Y-75534520D01*
X114615505Y-76739760D01*
X114915712Y-76601802D01*
X115091551Y-76252557D01*
X115195876Y-75875718D01*
X115224679Y-75485767D01*
X115176853Y-75097690D01*
X115054236Y-74726400D01*
X114915712Y-74467238D01*
X114615505Y-74329280D01*
X113410265Y-75534520D01*
X113051055Y-75534520D01*
X113036913Y-75520378D01*
X113216518Y-75340773D01*
X113230660Y-75354915D01*
X114435900Y-74149675D01*
X114297942Y-73849468D01*
X113948697Y-73673629D01*
X113571858Y-73569304D01*
X113181907Y-73540501D01*
X112793830Y-73588327D01*
X112422540Y-73710944D01*
X112163378Y-73849468D01*
X112150500Y-73877491D01*
X112150500Y-73152000D01*
X125222000Y-73152000D01*
X125222000Y-89814448D01*
G36*
X124483906Y-67133887D02*
G01*
X124192036Y-67570702D01*
X123990992Y-68056065D01*
X123888500Y-68571323D01*
X123888500Y-69096677D01*
X123990992Y-69611935D01*
X124004273Y-69643999D01*
X123626156Y-69643999D01*
X123535266Y-69507972D01*
X123405032Y-69377738D01*
X123251893Y-69275414D01*
X123081733Y-69204932D01*
X122901093Y-69169000D01*
X122716915Y-69169000D01*
X122536275Y-69204932D01*
X122366115Y-69275414D01*
X122212976Y-69377738D01*
X122082742Y-69507972D01*
X121980418Y-69661111D01*
X121909936Y-69831271D01*
X121874004Y-70011911D01*
X121874004Y-70196089D01*
X121909936Y-70376729D01*
X121980418Y-70546889D01*
X122082742Y-70700028D01*
X122212976Y-70830262D01*
X122366115Y-70932586D01*
X122536275Y-71003068D01*
X122674473Y-71030558D01*
X122684727Y-71038973D01*
X122816756Y-71109545D01*
X122960017Y-71153002D01*
X123071670Y-71163999D01*
X123071678Y-71163999D01*
X123109003Y-71167675D01*
X123146328Y-71163999D01*
X124191198Y-71163999D01*
X124912200Y-71885002D01*
X124935999Y-71914001D01*
X124964997Y-71937799D01*
X125051724Y-72008974D01*
X125183753Y-72079546D01*
X125327014Y-72123003D01*
X125476000Y-72137677D01*
X125513333Y-72134000D01*
X127320199Y-72134000D01*
X128018001Y-72831803D01*
X128018000Y-73775077D01*
X128014324Y-73812400D01*
X128018000Y-73849722D01*
X128018000Y-73849732D01*
X128028997Y-73961385D01*
X128072454Y-74104646D01*
X128143026Y-74236676D01*
X128169677Y-74269150D01*
X128237999Y-74352401D01*
X128267003Y-74376204D01*
X128468196Y-74577397D01*
X128491999Y-74606401D01*
X128607724Y-74701374D01*
X128739753Y-74771946D01*
X128883014Y-74815403D01*
X128994667Y-74826400D01*
X128994676Y-74826400D01*
X129031999Y-74830076D01*
X129069322Y-74826400D01*
X135219599Y-74826400D01*
X135605600Y-75212402D01*
X135629399Y-75241401D01*
X135658397Y-75265199D01*
X135745124Y-75336374D01*
X135877153Y-75406946D01*
X136020414Y-75450403D01*
X136169400Y-75465077D01*
X136206733Y-75461400D01*
X140350399Y-75461400D01*
X140848788Y-75959790D01*
X140848788Y-78641151D01*
X140789660Y-78635328D01*
X138912470Y-78635328D01*
X138877586Y-78551111D01*
X138775262Y-78397972D01*
X138645028Y-78267738D01*
X138491889Y-78165414D01*
X138321729Y-78094932D01*
X138141089Y-78059000D01*
X137956911Y-78059000D01*
X137776271Y-78094932D01*
X137606111Y-78165414D01*
X137452972Y-78267738D01*
X137322738Y-78397972D01*
X137220414Y-78551111D01*
X137208865Y-78578993D01*
X135558012Y-80229847D01*
X135436931Y-80253932D01*
X135266771Y-80324414D01*
X135113632Y-80426738D01*
X134983398Y-80556972D01*
X134881074Y-80710111D01*
X134810592Y-80880271D01*
X134774660Y-81060911D01*
X134774660Y-81245089D01*
X134810592Y-81425729D01*
X134881074Y-81595889D01*
X134983398Y-81749028D01*
X135113632Y-81879262D01*
X135266771Y-81981586D01*
X135436931Y-82052068D01*
X135617571Y-82088000D01*
X135801749Y-82088000D01*
X135982389Y-82052068D01*
X136152549Y-81981586D01*
X136305688Y-81879262D01*
X136435922Y-81749028D01*
X136538246Y-81595889D01*
X136608728Y-81425729D01*
X136632813Y-81304648D01*
X138008462Y-79929000D01*
X138119588Y-79929000D01*
X138119588Y-81000600D01*
X138131848Y-81125082D01*
X138168158Y-81244780D01*
X138227123Y-81355094D01*
X138306475Y-81451785D01*
X138403166Y-81531137D01*
X138513480Y-81590102D01*
X138575572Y-81608937D01*
X138422927Y-81774965D01*
X138269974Y-82026081D01*
X138168951Y-82302211D01*
X138166302Y-82317974D01*
X138287443Y-82550000D01*
X139646660Y-82550000D01*
X139646660Y-82530000D01*
X139900660Y-82530000D01*
X139900660Y-82550000D01*
X139920660Y-82550000D01*
X139920660Y-82804000D01*
X139900660Y-82804000D01*
X139900660Y-82824000D01*
X139646660Y-82824000D01*
X139646660Y-82804000D01*
X138287443Y-82804000D01*
X138166302Y-83036026D01*
X138168951Y-83051789D01*
X138269974Y-83327919D01*
X138422927Y-83579035D01*
X138621931Y-83795486D01*
X138824607Y-83943576D01*
X138784654Y-83964931D01*
X138556463Y-84152203D01*
X138369191Y-84380394D01*
X138230035Y-84640736D01*
X138144344Y-84923223D01*
X138115409Y-85217000D01*
X138136093Y-85427001D01*
X137835068Y-85427001D01*
X137797735Y-85423324D01*
X137760402Y-85427001D01*
X137648749Y-85437998D01*
X137505488Y-85481455D01*
X137373459Y-85552027D01*
X137257734Y-85647000D01*
X137233935Y-85675999D01*
X136722658Y-86187277D01*
X136693660Y-86211075D01*
X136669862Y-86240073D01*
X136669861Y-86240074D01*
X136598686Y-86326800D01*
X136528114Y-86458830D01*
X136506976Y-86528515D01*
X136484658Y-86602090D01*
X136481071Y-86638508D01*
X136469984Y-86751076D01*
X136473661Y-86788408D01*
X136473660Y-90412077D01*
X136469984Y-90449400D01*
X136473660Y-90486722D01*
X136473660Y-90486732D01*
X136484657Y-90598385D01*
X136518824Y-90711020D01*
X136528114Y-90741646D01*
X136598686Y-90873676D01*
X136628508Y-90910014D01*
X136693659Y-90989401D01*
X136722663Y-91013204D01*
X138169559Y-92460100D01*
X138144344Y-92543223D01*
X138115409Y-92837000D01*
X138144344Y-93130777D01*
X138230035Y-93413264D01*
X138369191Y-93673606D01*
X138556463Y-93901797D01*
X138784654Y-94089069D01*
X139044996Y-94228225D01*
X139327483Y-94313916D01*
X139547641Y-94335600D01*
X139999679Y-94335600D01*
X140219837Y-94313916D01*
X140365220Y-94269815D01*
X140365220Y-99022658D01*
X140365219Y-99022668D01*
X140365219Y-99558897D01*
X140361543Y-99596219D01*
X140365219Y-99633541D01*
X140365219Y-99633552D01*
X140376216Y-99745205D01*
X140419673Y-99888466D01*
X140442383Y-99930953D01*
X140490245Y-100020495D01*
X140561420Y-100107221D01*
X140585219Y-100136220D01*
X140614217Y-100160018D01*
X140999347Y-100545149D01*
X141023432Y-100666229D01*
X141093914Y-100836389D01*
X141196238Y-100989528D01*
X141326472Y-101119762D01*
X141479611Y-101222086D01*
X141649771Y-101292568D01*
X141830411Y-101328500D01*
X142014589Y-101328500D01*
X142195229Y-101292568D01*
X142365389Y-101222086D01*
X142518528Y-101119762D01*
X142648762Y-100989528D01*
X142751086Y-100836389D01*
X142821568Y-100666229D01*
X142857500Y-100485589D01*
X142857500Y-100301411D01*
X142821568Y-100120771D01*
X142751086Y-99950611D01*
X142648762Y-99797472D01*
X142518528Y-99667238D01*
X142365389Y-99564914D01*
X142195229Y-99494432D01*
X142074149Y-99470347D01*
X141885219Y-99281418D01*
X141885219Y-95581400D01*
X144043876Y-97740058D01*
X144002664Y-97762086D01*
X143886939Y-97857059D01*
X143863136Y-97886063D01*
X143834663Y-97914536D01*
X143805659Y-97938339D01*
X143753143Y-98002330D01*
X143710686Y-98054064D01*
X143667381Y-98135081D01*
X143640114Y-98186094D01*
X143596657Y-98329355D01*
X143585660Y-98441008D01*
X143585660Y-98441018D01*
X143581984Y-98478340D01*
X143585660Y-98515662D01*
X143585661Y-112029084D01*
X143509055Y-112070031D01*
X143280863Y-112257303D01*
X143093591Y-112485494D01*
X143075660Y-112519041D01*
X143057729Y-112485494D01*
X142870457Y-112257303D01*
X142642266Y-112070031D01*
X142381924Y-111930875D01*
X142099437Y-111845184D01*
X141805660Y-111816249D01*
X141511884Y-111845184D01*
X141229397Y-111930875D01*
X140969055Y-112070031D01*
X140740863Y-112257303D01*
X140553591Y-112485494D01*
X140535660Y-112519041D01*
X140517729Y-112485494D01*
X140330457Y-112257303D01*
X140102266Y-112070031D01*
X139841924Y-111930875D01*
X139559437Y-111845184D01*
X139265660Y-111816249D01*
X138971884Y-111845184D01*
X138689397Y-111930875D01*
X138429055Y-112070031D01*
X138200863Y-112257303D01*
X138013591Y-112485494D01*
X137874435Y-112745836D01*
X137788744Y-113028323D01*
X137767060Y-113248481D01*
X137767060Y-113700518D01*
X137788744Y-113920676D01*
X137874435Y-114203163D01*
X138013591Y-114463505D01*
X138200863Y-114691697D01*
X138429054Y-114878969D01*
X138505660Y-114919916D01*
X138505661Y-115439928D01*
X138402060Y-115439928D01*
X138277578Y-115452188D01*
X138157880Y-115488498D01*
X138047566Y-115547463D01*
X137950875Y-115626815D01*
X137871523Y-115723506D01*
X137812558Y-115833820D01*
X137776248Y-115953518D01*
X137763988Y-116078000D01*
X137763988Y-118110000D01*
X137776248Y-118234482D01*
X137812558Y-118354180D01*
X137871523Y-118464494D01*
X137950875Y-118561185D01*
X138047566Y-118640537D01*
X138157880Y-118699502D01*
X138277578Y-118735812D01*
X138402060Y-118748072D01*
X140129260Y-118748072D01*
X140253742Y-118735812D01*
X140373440Y-118699502D01*
X140483754Y-118640537D01*
X140580445Y-118561185D01*
X140659797Y-118464494D01*
X140718762Y-118354180D01*
X140734246Y-118303135D01*
X140740863Y-118311197D01*
X140969055Y-118498469D01*
X141229397Y-118637625D01*
X141511884Y-118723316D01*
X141805660Y-118752251D01*
X142099437Y-118723316D01*
X142381924Y-118637625D01*
X142642266Y-118498469D01*
X142870457Y-118311197D01*
X143057729Y-118083006D01*
X143075660Y-118049459D01*
X143093591Y-118083006D01*
X143280863Y-118311197D01*
X143509055Y-118498469D01*
X143769397Y-118637625D01*
X144051884Y-118723316D01*
X144345660Y-118752251D01*
X144639437Y-118723316D01*
X144921924Y-118637625D01*
X145182266Y-118498469D01*
X145410457Y-118311197D01*
X145597729Y-118083006D01*
X145615660Y-118049459D01*
X145633591Y-118083006D01*
X145820863Y-118311197D01*
X146049055Y-118498469D01*
X146309397Y-118637625D01*
X146591884Y-118723316D01*
X146885660Y-118752251D01*
X147179437Y-118723316D01*
X147461924Y-118637625D01*
X147722266Y-118498469D01*
X147950457Y-118311197D01*
X148137729Y-118083006D01*
X148155660Y-118049459D01*
X148173591Y-118083006D01*
X148360863Y-118311197D01*
X148589055Y-118498469D01*
X148849397Y-118637625D01*
X149131884Y-118723316D01*
X149425660Y-118752251D01*
X149719437Y-118723316D01*
X150001924Y-118637625D01*
X150262266Y-118498469D01*
X150490457Y-118311197D01*
X150677729Y-118083006D01*
X150699084Y-118043053D01*
X150847174Y-118245729D01*
X151063625Y-118444733D01*
X151314741Y-118597686D01*
X151590871Y-118698709D01*
X151606634Y-118701358D01*
X151838660Y-118580217D01*
X151838660Y-117221000D01*
X152092660Y-117221000D01*
X152092660Y-118580217D01*
X152324686Y-118701358D01*
X152340449Y-118698709D01*
X152616579Y-118597686D01*
X152867695Y-118444733D01*
X153084146Y-118245729D01*
X153235660Y-118038367D01*
X153387174Y-118245729D01*
X153603625Y-118444733D01*
X153854741Y-118597686D01*
X154130871Y-118698709D01*
X154146634Y-118701358D01*
X154378660Y-118580217D01*
X154378660Y-117221000D01*
X152092660Y-117221000D01*
X151838660Y-117221000D01*
X151818660Y-117221000D01*
X151818660Y-116967000D01*
X151838660Y-116967000D01*
X151838660Y-115607783D01*
X152092660Y-115607783D01*
X152092660Y-116967000D01*
X154378660Y-116967000D01*
X154378660Y-115607783D01*
X154146634Y-115486642D01*
X154130871Y-115489291D01*
X153854741Y-115590314D01*
X153603625Y-115743267D01*
X153387174Y-115942271D01*
X153235660Y-116149633D01*
X153084146Y-115942271D01*
X152867695Y-115743267D01*
X152616579Y-115590314D01*
X152340449Y-115489291D01*
X152324686Y-115486642D01*
X152092660Y-115607783D01*
X151838660Y-115607783D01*
X151606634Y-115486642D01*
X151590871Y-115489291D01*
X151314741Y-115590314D01*
X151063625Y-115743267D01*
X150847174Y-115942271D01*
X150699084Y-116144947D01*
X150677729Y-116104994D01*
X150490457Y-115876803D01*
X150262265Y-115689531D01*
X150185660Y-115648585D01*
X150185660Y-114919915D01*
X150262265Y-114878969D01*
X150490457Y-114691697D01*
X150677729Y-114463506D01*
X150699084Y-114423553D01*
X150847174Y-114626229D01*
X151063625Y-114825233D01*
X151314741Y-114978186D01*
X151590871Y-115079209D01*
X151606634Y-115081858D01*
X151838660Y-114960717D01*
X151838660Y-113601500D01*
X152092660Y-113601500D01*
X152092660Y-114960717D01*
X152324686Y-115081858D01*
X152340449Y-115079209D01*
X152616579Y-114978186D01*
X152867695Y-114825233D01*
X153084146Y-114626229D01*
X153235660Y-114418867D01*
X153387174Y-114626229D01*
X153603625Y-114825233D01*
X153854741Y-114978186D01*
X154130871Y-115079209D01*
X154146634Y-115081858D01*
X154378660Y-114960717D01*
X154378660Y-113601500D01*
X152092660Y-113601500D01*
X151838660Y-113601500D01*
X151818660Y-113601500D01*
X151818660Y-113347500D01*
X151838660Y-113347500D01*
X151838660Y-111988283D01*
X152092660Y-111988283D01*
X152092660Y-113347500D01*
X154378660Y-113347500D01*
X154378660Y-111988283D01*
X154632660Y-111988283D01*
X154632660Y-113347500D01*
X154652660Y-113347500D01*
X154652660Y-113601500D01*
X154632660Y-113601500D01*
X154632660Y-114960717D01*
X154864686Y-115081858D01*
X154880449Y-115079209D01*
X155156579Y-114978186D01*
X155407695Y-114825233D01*
X155573723Y-114672588D01*
X155592558Y-114734680D01*
X155651523Y-114844994D01*
X155730875Y-114941685D01*
X155827566Y-115021037D01*
X155937880Y-115080002D01*
X156057578Y-115116312D01*
X156182060Y-115128572D01*
X156285660Y-115128572D01*
X156285660Y-115648584D01*
X156209054Y-115689531D01*
X155980863Y-115876803D01*
X155793591Y-116104995D01*
X155772236Y-116144947D01*
X155624146Y-115942271D01*
X155407695Y-115743267D01*
X155156579Y-115590314D01*
X154880449Y-115489291D01*
X154864686Y-115486642D01*
X154632660Y-115607783D01*
X154632660Y-116967000D01*
X154652660Y-116967000D01*
X154652660Y-117221000D01*
X154632660Y-117221000D01*
X154632660Y-118580217D01*
X154864686Y-118701358D01*
X154880449Y-118698709D01*
X155156579Y-118597686D01*
X155407695Y-118444733D01*
X155624146Y-118245729D01*
X155772236Y-118043053D01*
X155793591Y-118083006D01*
X155980863Y-118311197D01*
X156209055Y-118498469D01*
X156469397Y-118637625D01*
X156751884Y-118723316D01*
X157045660Y-118752251D01*
X157339437Y-118723316D01*
X157621924Y-118637625D01*
X157882266Y-118498469D01*
X158110457Y-118311197D01*
X158297729Y-118083006D01*
X158436885Y-117822663D01*
X158522576Y-117540176D01*
X158544260Y-117320018D01*
X158544260Y-116867981D01*
X158522576Y-116647823D01*
X158436885Y-116365336D01*
X158297729Y-116104994D01*
X158110457Y-115876803D01*
X157882265Y-115689531D01*
X157805660Y-115648585D01*
X157805660Y-115128572D01*
X157909260Y-115128572D01*
X158033742Y-115116312D01*
X158153440Y-115080002D01*
X158263754Y-115021037D01*
X158360445Y-114941685D01*
X158439797Y-114844994D01*
X158498762Y-114734680D01*
X158535072Y-114614982D01*
X158547332Y-114490500D01*
X158547332Y-112458500D01*
X158535072Y-112334018D01*
X158498762Y-112214320D01*
X158439797Y-112104006D01*
X158360445Y-112007315D01*
X158263754Y-111927963D01*
X158153440Y-111868998D01*
X158033742Y-111832688D01*
X157909260Y-111820428D01*
X156182060Y-111820428D01*
X156057578Y-111832688D01*
X155937880Y-111868998D01*
X155827566Y-111927963D01*
X155730875Y-112007315D01*
X155651523Y-112104006D01*
X155592558Y-112214320D01*
X155573723Y-112276412D01*
X155407695Y-112123767D01*
X155156579Y-111970814D01*
X154880449Y-111869791D01*
X154864686Y-111867142D01*
X154632660Y-111988283D01*
X154378660Y-111988283D01*
X154146634Y-111867142D01*
X154130871Y-111869791D01*
X153854741Y-111970814D01*
X153603625Y-112123767D01*
X153387174Y-112322771D01*
X153235660Y-112530133D01*
X153084146Y-112322771D01*
X152867695Y-112123767D01*
X152616579Y-111970814D01*
X152340449Y-111869791D01*
X152324686Y-111867142D01*
X152092660Y-111988283D01*
X151838660Y-111988283D01*
X151606634Y-111867142D01*
X151590871Y-111869791D01*
X151314741Y-111970814D01*
X151063625Y-112123767D01*
X150847174Y-112322771D01*
X150699084Y-112525447D01*
X150677729Y-112485494D01*
X150490457Y-112257303D01*
X150262266Y-112070031D01*
X150001924Y-111930875D01*
X149719437Y-111845184D01*
X149425660Y-111816249D01*
X149131884Y-111845184D01*
X148849397Y-111930875D01*
X148589055Y-112070031D01*
X148360863Y-112257303D01*
X148173591Y-112485494D01*
X148155660Y-112519041D01*
X148137729Y-112485494D01*
X147950457Y-112257303D01*
X147722266Y-112070031D01*
X147461924Y-111930875D01*
X147179437Y-111845184D01*
X146885660Y-111816249D01*
X146591884Y-111845184D01*
X146309397Y-111930875D01*
X146049055Y-112070031D01*
X145820863Y-112257303D01*
X145633591Y-112485494D01*
X145615660Y-112519041D01*
X145597729Y-112485494D01*
X145410457Y-112257303D01*
X145182266Y-112070031D01*
X145105660Y-112029084D01*
X145105660Y-99157060D01*
X145715098Y-99157060D01*
X145740887Y-99159600D01*
X145740897Y-99159600D01*
X145778219Y-99163276D01*
X145815542Y-99159600D01*
X148684545Y-99159600D01*
X148787191Y-99228186D01*
X148924994Y-99285265D01*
X148924994Y-99342589D01*
X148960926Y-99523229D01*
X149031408Y-99693389D01*
X149109691Y-99810548D01*
X149110991Y-99823749D01*
X149143530Y-99931017D01*
X149154448Y-99967010D01*
X149225020Y-100099040D01*
X149260320Y-100142053D01*
X149319993Y-100214765D01*
X149348997Y-100238568D01*
X157126930Y-108016502D01*
X157150729Y-108045501D01*
X157179727Y-108069299D01*
X157266453Y-108140474D01*
X157307674Y-108162507D01*
X157398483Y-108211046D01*
X157541744Y-108254503D01*
X157653397Y-108265500D01*
X157653406Y-108265500D01*
X157690729Y-108269176D01*
X157728052Y-108265500D01*
X160496988Y-108265500D01*
X160496988Y-108521500D01*
X160509248Y-108645982D01*
X160545558Y-108765680D01*
X160604523Y-108875994D01*
X160683875Y-108972685D01*
X160780566Y-109052037D01*
X160890880Y-109111002D01*
X161010578Y-109147312D01*
X161135060Y-109159572D01*
X161238660Y-109159572D01*
X161238661Y-115441232D01*
X161127418Y-115452188D01*
X161007720Y-115488498D01*
X160897406Y-115547463D01*
X160800715Y-115626815D01*
X160721363Y-115723506D01*
X160662398Y-115833820D01*
X160626088Y-115953518D01*
X160613828Y-116078000D01*
X160613828Y-118110000D01*
X160626088Y-118234482D01*
X160662398Y-118354180D01*
X160721363Y-118464494D01*
X160800715Y-118561185D01*
X160897406Y-118640537D01*
X161007720Y-118699502D01*
X161127418Y-118735812D01*
X161251900Y-118748072D01*
X162979100Y-118748072D01*
X163103582Y-118735812D01*
X163223280Y-118699502D01*
X163333594Y-118640537D01*
X163430285Y-118561185D01*
X163509637Y-118464494D01*
X163568602Y-118354180D01*
X163584086Y-118303135D01*
X163590703Y-118311197D01*
X163818895Y-118498469D01*
X164079237Y-118637625D01*
X164361724Y-118723316D01*
X164655500Y-118752251D01*
X164949277Y-118723316D01*
X165231764Y-118637625D01*
X165492106Y-118498469D01*
X165720297Y-118311197D01*
X165907569Y-118083006D01*
X165925500Y-118049459D01*
X165943431Y-118083006D01*
X166130703Y-118311197D01*
X166358895Y-118498469D01*
X166619237Y-118637625D01*
X166901724Y-118723316D01*
X167195500Y-118752251D01*
X167489277Y-118723316D01*
X167771764Y-118637625D01*
X168032106Y-118498469D01*
X168260297Y-118311197D01*
X168447569Y-118083006D01*
X168465500Y-118049459D01*
X168483431Y-118083006D01*
X168670703Y-118311197D01*
X168898895Y-118498469D01*
X169159237Y-118637625D01*
X169441724Y-118723316D01*
X169735500Y-118752251D01*
X170029277Y-118723316D01*
X170311764Y-118637625D01*
X170572106Y-118498469D01*
X170800297Y-118311197D01*
X170987569Y-118083006D01*
X171005500Y-118049459D01*
X171023431Y-118083006D01*
X171210703Y-118311197D01*
X171438895Y-118498469D01*
X171699237Y-118637625D01*
X171981724Y-118723316D01*
X172275500Y-118752251D01*
X172569277Y-118723316D01*
X172851764Y-118637625D01*
X173112106Y-118498469D01*
X173340297Y-118311197D01*
X173527569Y-118083006D01*
X173545500Y-118049459D01*
X173563431Y-118083006D01*
X173750703Y-118311197D01*
X173978895Y-118498469D01*
X174239237Y-118637625D01*
X174521724Y-118723316D01*
X174815500Y-118752251D01*
X175109277Y-118723316D01*
X175391764Y-118637625D01*
X175652106Y-118498469D01*
X175880297Y-118311197D01*
X176067569Y-118083006D01*
X176085500Y-118049459D01*
X176103431Y-118083006D01*
X176290703Y-118311197D01*
X176518895Y-118498469D01*
X176779237Y-118637625D01*
X177061724Y-118723316D01*
X177355500Y-118752251D01*
X177649277Y-118723316D01*
X177931764Y-118637625D01*
X178192106Y-118498469D01*
X178420297Y-118311197D01*
X178607569Y-118083006D01*
X178625500Y-118049459D01*
X178643431Y-118083006D01*
X178830703Y-118311197D01*
X179058895Y-118498469D01*
X179319237Y-118637625D01*
X179601724Y-118723316D01*
X179895500Y-118752251D01*
X180189277Y-118723316D01*
X180471764Y-118637625D01*
X180658161Y-118537994D01*
X180658161Y-118799000D01*
X127362367Y-118799000D01*
X127367254Y-118794113D01*
X127659124Y-118357298D01*
X127860168Y-117871935D01*
X127962660Y-117356677D01*
X127962660Y-116831323D01*
X127860168Y-116316065D01*
X127659124Y-115830702D01*
X127367254Y-115393887D01*
X126995773Y-115022406D01*
X126558958Y-114730536D01*
X126073595Y-114529492D01*
X125558337Y-114427000D01*
X125032983Y-114427000D01*
X124517725Y-114529492D01*
X124032362Y-114730536D01*
X123595547Y-115022406D01*
X123224066Y-115393887D01*
X122932196Y-115830702D01*
X122731152Y-116316065D01*
X122628660Y-116831323D01*
X122628660Y-117356677D01*
X122731152Y-117871935D01*
X122932196Y-118357298D01*
X123224066Y-118794113D01*
X123228953Y-118799000D01*
X118637200Y-118799000D01*
X118812957Y-118527742D01*
X116860320Y-116575105D01*
X114907683Y-118527742D01*
X115083440Y-118799000D01*
X112150500Y-118799000D01*
X112150500Y-113447742D01*
X112621683Y-113447742D01*
X112885883Y-113855500D01*
X113413855Y-114136093D01*
X113986424Y-114308292D01*
X114581585Y-114365479D01*
X114644358Y-114359146D01*
X114728076Y-114442864D01*
X114320320Y-114707063D01*
X114039727Y-115235035D01*
X113867528Y-115807604D01*
X113810341Y-116402765D01*
X113870363Y-116997647D01*
X114045287Y-117569388D01*
X114320320Y-118083937D01*
X114728078Y-118348137D01*
X116680715Y-116395500D01*
X116666573Y-116381358D01*
X116846178Y-116201753D01*
X116860320Y-116215895D01*
X116874463Y-116201753D01*
X117054068Y-116381358D01*
X117039925Y-116395500D01*
X118992562Y-118348137D01*
X119400320Y-118083937D01*
X119680913Y-117555965D01*
X119853112Y-116983396D01*
X119910299Y-116388235D01*
X119850277Y-115793353D01*
X119675353Y-115221612D01*
X119400320Y-114707063D01*
X118992564Y-114442864D01*
X119081556Y-114353872D01*
X123070620Y-114353872D01*
X123195102Y-114341612D01*
X123314800Y-114305302D01*
X123425114Y-114246337D01*
X123521805Y-114166985D01*
X123601157Y-114070294D01*
X123660122Y-113959980D01*
X123696432Y-113840282D01*
X123708692Y-113715800D01*
X123708692Y-108915200D01*
X123696432Y-108790718D01*
X123660122Y-108671020D01*
X123601157Y-108560706D01*
X123521805Y-108464015D01*
X123425114Y-108384663D01*
X123314800Y-108325698D01*
X123195102Y-108289388D01*
X123070620Y-108277128D01*
X118270020Y-108277128D01*
X118145538Y-108289388D01*
X118025840Y-108325698D01*
X117915526Y-108384663D01*
X117818835Y-108464015D01*
X117739483Y-108560706D01*
X117680518Y-108671020D01*
X117644208Y-108790718D01*
X117631948Y-108915200D01*
X117631948Y-113457965D01*
X117448216Y-113402708D01*
X116853055Y-113345521D01*
X116790282Y-113351854D01*
X116706564Y-113268136D01*
X117114320Y-113003937D01*
X117394913Y-112475965D01*
X117567112Y-111903396D01*
X117624299Y-111308235D01*
X117564277Y-110713353D01*
X117389353Y-110141612D01*
X117114320Y-109627063D01*
X116706562Y-109362863D01*
X114753925Y-111315500D01*
X114768068Y-111329643D01*
X114588463Y-111509248D01*
X114574320Y-111495105D01*
X112621683Y-113447742D01*
X112150500Y-113447742D01*
X112150500Y-113079214D01*
X112442078Y-113268137D01*
X114394715Y-111315500D01*
X112442078Y-109362863D01*
X112150500Y-109551786D01*
X112150500Y-109183258D01*
X112621683Y-109183258D01*
X114574320Y-111135895D01*
X116526957Y-109183258D01*
X116262757Y-108775500D01*
X115734785Y-108494907D01*
X115162216Y-108322708D01*
X114567055Y-108265521D01*
X113972173Y-108325543D01*
X113400432Y-108500467D01*
X112885883Y-108775500D01*
X112621683Y-109183258D01*
X112150500Y-109183258D01*
X112150500Y-107061000D01*
X125730000Y-107061000D01*
X125754776Y-107058560D01*
X125778601Y-107051333D01*
X125800557Y-107039597D01*
X125819803Y-107023803D01*
X125835597Y-107004557D01*
X125847333Y-106982601D01*
X125854560Y-106958776D01*
X125857000Y-106934000D01*
X125857000Y-99563732D01*
X125992549Y-99507586D01*
X126145688Y-99405262D01*
X126275922Y-99275028D01*
X126378246Y-99121889D01*
X126448728Y-98951729D01*
X126484660Y-98771089D01*
X126484660Y-98586911D01*
X126448728Y-98406271D01*
X126378246Y-98236111D01*
X126309660Y-98133465D01*
X126309660Y-96957801D01*
X127190462Y-97838604D01*
X127214260Y-97867602D01*
X127329985Y-97962575D01*
X127462014Y-98033147D01*
X127605275Y-98076604D01*
X127716928Y-98087601D01*
X127716937Y-98087601D01*
X127754260Y-98091277D01*
X127791583Y-98087601D01*
X132197737Y-98087601D01*
X132235059Y-98091277D01*
X132272381Y-98087601D01*
X132272392Y-98087601D01*
X132384045Y-98076604D01*
X132527306Y-98033147D01*
X132659335Y-97962575D01*
X132775060Y-97867602D01*
X132798863Y-97838598D01*
X133046760Y-97590701D01*
X133129883Y-97615916D01*
X133261938Y-97628922D01*
X131701861Y-99189000D01*
X128127195Y-99189000D01*
X128024549Y-99120414D01*
X127854389Y-99049932D01*
X127673749Y-99014000D01*
X127489571Y-99014000D01*
X127308931Y-99049932D01*
X127138771Y-99120414D01*
X126985632Y-99222738D01*
X126855398Y-99352972D01*
X126753074Y-99506111D01*
X126682592Y-99676271D01*
X126646660Y-99856911D01*
X126646660Y-100041089D01*
X126682592Y-100221729D01*
X126753074Y-100391889D01*
X126855398Y-100545028D01*
X126985632Y-100675262D01*
X127138771Y-100777586D01*
X127308931Y-100848068D01*
X127489571Y-100884000D01*
X127673749Y-100884000D01*
X127854389Y-100848068D01*
X128024549Y-100777586D01*
X128127195Y-100709000D01*
X131979340Y-100709000D01*
X132016662Y-100712676D01*
X132053984Y-100709000D01*
X132053995Y-100709000D01*
X132165648Y-100698003D01*
X132308909Y-100654546D01*
X132440938Y-100583974D01*
X132556663Y-100489001D01*
X132580466Y-100459997D01*
X135204663Y-97835801D01*
X135233661Y-97812003D01*
X135272542Y-97764626D01*
X135328634Y-97696279D01*
X135399206Y-97564249D01*
X135410111Y-97528299D01*
X135442663Y-97420988D01*
X135453660Y-97309335D01*
X135453660Y-97309325D01*
X135457336Y-97272002D01*
X135453660Y-97234679D01*
X135453660Y-83984323D01*
X135457336Y-83946998D01*
X135453660Y-83909673D01*
X135453660Y-83909665D01*
X135442663Y-83798012D01*
X135399206Y-83654751D01*
X135328634Y-83522722D01*
X135233661Y-83406997D01*
X135204658Y-83383195D01*
X135108815Y-83287352D01*
X135084730Y-83166271D01*
X135014248Y-82996111D01*
X134911924Y-82842972D01*
X134781690Y-82712738D01*
X134628551Y-82610414D01*
X134458391Y-82539932D01*
X134277751Y-82504000D01*
X134093573Y-82504000D01*
X133912933Y-82539932D01*
X133742773Y-82610414D01*
X133589634Y-82712738D01*
X133459400Y-82842972D01*
X133357076Y-82996111D01*
X133286594Y-83166271D01*
X133250662Y-83346911D01*
X133250662Y-83531089D01*
X133283266Y-83695000D01*
X133225855Y-83695000D01*
X133188530Y-83691324D01*
X133151205Y-83695000D01*
X133151197Y-83695000D01*
X133039544Y-83705997D01*
X132896283Y-83749454D01*
X132764254Y-83820026D01*
X132648529Y-83914999D01*
X132624731Y-83943997D01*
X132024930Y-84543799D01*
X131991440Y-84525898D01*
X131871742Y-84489588D01*
X131747260Y-84477328D01*
X130020060Y-84477328D01*
X129895578Y-84489588D01*
X129775880Y-84525898D01*
X129665566Y-84584863D01*
X129568875Y-84664215D01*
X129489523Y-84760906D01*
X129430558Y-84871220D01*
X129394248Y-84990918D01*
X129381988Y-85115400D01*
X129381988Y-86842600D01*
X129394248Y-86967082D01*
X129430558Y-87086780D01*
X129489523Y-87197094D01*
X129568875Y-87293785D01*
X129665566Y-87373137D01*
X129775880Y-87432102D01*
X129826925Y-87447586D01*
X129818863Y-87454203D01*
X129631591Y-87682394D01*
X129492435Y-87942736D01*
X129406744Y-88225223D01*
X129377809Y-88519000D01*
X129406744Y-88812777D01*
X129492435Y-89095264D01*
X129631591Y-89355606D01*
X129818863Y-89583797D01*
X130047054Y-89771069D01*
X130080600Y-89789000D01*
X130047054Y-89806931D01*
X129818863Y-89994203D01*
X129752822Y-90074674D01*
X128595660Y-88917513D01*
X128595660Y-80451801D01*
X129511310Y-79536152D01*
X129632389Y-79512068D01*
X129802549Y-79441586D01*
X129830562Y-79422868D01*
X129906625Y-79454374D01*
X130087265Y-79490306D01*
X130271443Y-79490306D01*
X130452083Y-79454374D01*
X130622243Y-79383892D01*
X130775382Y-79281568D01*
X130905616Y-79151334D01*
X131007940Y-78998195D01*
X131078422Y-78828035D01*
X131114354Y-78647395D01*
X131114354Y-78463217D01*
X131110288Y-78442775D01*
X131180662Y-78548098D01*
X131310896Y-78678332D01*
X131464035Y-78780656D01*
X131634195Y-78851138D01*
X131814835Y-78887070D01*
X131999013Y-78887070D01*
X132179653Y-78851138D01*
X132349813Y-78780656D01*
X132502952Y-78678332D01*
X132522071Y-78659213D01*
X133062526Y-79199669D01*
X133086320Y-79228662D01*
X133115313Y-79252456D01*
X133115317Y-79252460D01*
X133178496Y-79304309D01*
X133202045Y-79323635D01*
X133334074Y-79394207D01*
X133477335Y-79437664D01*
X133584565Y-79448225D01*
X133675746Y-79584688D01*
X133805980Y-79714922D01*
X133959119Y-79817246D01*
X134129279Y-79887728D01*
X134309919Y-79923660D01*
X134494097Y-79923660D01*
X134674737Y-79887728D01*
X134844897Y-79817246D01*
X134998036Y-79714922D01*
X135128270Y-79584688D01*
X135230594Y-79431549D01*
X135301076Y-79261389D01*
X135337008Y-79080749D01*
X135337008Y-78896571D01*
X135301076Y-78715931D01*
X135230594Y-78545771D01*
X135128270Y-78392632D01*
X134998036Y-78262398D01*
X134844897Y-78160074D01*
X134674737Y-78089592D01*
X134536539Y-78062102D01*
X134526285Y-78053687D01*
X134394256Y-77983115D01*
X134250995Y-77939658D01*
X134139342Y-77928661D01*
X134139331Y-77928661D01*
X134102009Y-77924985D01*
X134064687Y-77928661D01*
X133941124Y-77928661D01*
X132589439Y-76576978D01*
X132565637Y-76547975D01*
X132449912Y-76453002D01*
X132317883Y-76382430D01*
X132174622Y-76338973D01*
X132062969Y-76327976D01*
X132062958Y-76327976D01*
X132025636Y-76324300D01*
X131988314Y-76327976D01*
X128598592Y-76327976D01*
X128561269Y-76324300D01*
X128523946Y-76327976D01*
X128523936Y-76327976D01*
X128412283Y-76338973D01*
X128283633Y-76377998D01*
X128269022Y-76382430D01*
X128136992Y-76453002D01*
X128085222Y-76495489D01*
X128021268Y-76547975D01*
X127997470Y-76576973D01*
X125916636Y-78657808D01*
X125887638Y-78681606D01*
X125863840Y-78710604D01*
X125863839Y-78710605D01*
X125857000Y-78718938D01*
X125857000Y-72644000D01*
X125854560Y-72619224D01*
X125847333Y-72595399D01*
X125835597Y-72573443D01*
X125819803Y-72554197D01*
X125800557Y-72538403D01*
X125778601Y-72526667D01*
X125754776Y-72519440D01*
X125730000Y-72517000D01*
X112150500Y-72517000D01*
X112150500Y-67129000D01*
X124488793Y-67129000D01*
X124483906Y-67133887D01*
X124483906Y-67133887D01*
G37*
X124483906Y-67133887D02*
X124192036Y-67570702D01*
X123990992Y-68056065D01*
X123888500Y-68571323D01*
X123888500Y-69096677D01*
X123990992Y-69611935D01*
X124004273Y-69643999D01*
X123626156Y-69643999D01*
X123535266Y-69507972D01*
X123405032Y-69377738D01*
X123251893Y-69275414D01*
X123081733Y-69204932D01*
X122901093Y-69169000D01*
X122716915Y-69169000D01*
X122536275Y-69204932D01*
X122366115Y-69275414D01*
X122212976Y-69377738D01*
X122082742Y-69507972D01*
X121980418Y-69661111D01*
X121909936Y-69831271D01*
X121874004Y-70011911D01*
X121874004Y-70196089D01*
X121909936Y-70376729D01*
X121980418Y-70546889D01*
X122082742Y-70700028D01*
X122212976Y-70830262D01*
X122366115Y-70932586D01*
X122536275Y-71003068D01*
X122674473Y-71030558D01*
X122684727Y-71038973D01*
X122816756Y-71109545D01*
X122960017Y-71153002D01*
X123071670Y-71163999D01*
X123071678Y-71163999D01*
X123109003Y-71167675D01*
X123146328Y-71163999D01*
X124191198Y-71163999D01*
X124912200Y-71885002D01*
X124935999Y-71914001D01*
X124964997Y-71937799D01*
X125051724Y-72008974D01*
X125183753Y-72079546D01*
X125327014Y-72123003D01*
X125476000Y-72137677D01*
X125513333Y-72134000D01*
X127320199Y-72134000D01*
X128018001Y-72831803D01*
X128018000Y-73775077D01*
X128014324Y-73812400D01*
X128018000Y-73849722D01*
X128018000Y-73849732D01*
X128028997Y-73961385D01*
X128072454Y-74104646D01*
X128143026Y-74236676D01*
X128169677Y-74269150D01*
X128237999Y-74352401D01*
X128267003Y-74376204D01*
X128468196Y-74577397D01*
X128491999Y-74606401D01*
X128607724Y-74701374D01*
X128739753Y-74771946D01*
X128883014Y-74815403D01*
X128994667Y-74826400D01*
X128994676Y-74826400D01*
X129031999Y-74830076D01*
X129069322Y-74826400D01*
X135219599Y-74826400D01*
X135605600Y-75212402D01*
X135629399Y-75241401D01*
X135658397Y-75265199D01*
X135745124Y-75336374D01*
X135877153Y-75406946D01*
X136020414Y-75450403D01*
X136169400Y-75465077D01*
X136206733Y-75461400D01*
X140350399Y-75461400D01*
X140848788Y-75959790D01*
X140848788Y-78641151D01*
X140789660Y-78635328D01*
X138912470Y-78635328D01*
X138877586Y-78551111D01*
X138775262Y-78397972D01*
X138645028Y-78267738D01*
X138491889Y-78165414D01*
X138321729Y-78094932D01*
X138141089Y-78059000D01*
X137956911Y-78059000D01*
X137776271Y-78094932D01*
X137606111Y-78165414D01*
X137452972Y-78267738D01*
X137322738Y-78397972D01*
X137220414Y-78551111D01*
X137208865Y-78578993D01*
X135558012Y-80229847D01*
X135436931Y-80253932D01*
X135266771Y-80324414D01*
X135113632Y-80426738D01*
X134983398Y-80556972D01*
X134881074Y-80710111D01*
X134810592Y-80880271D01*
X134774660Y-81060911D01*
X134774660Y-81245089D01*
X134810592Y-81425729D01*
X134881074Y-81595889D01*
X134983398Y-81749028D01*
X135113632Y-81879262D01*
X135266771Y-81981586D01*
X135436931Y-82052068D01*
X135617571Y-82088000D01*
X135801749Y-82088000D01*
X135982389Y-82052068D01*
X136152549Y-81981586D01*
X136305688Y-81879262D01*
X136435922Y-81749028D01*
X136538246Y-81595889D01*
X136608728Y-81425729D01*
X136632813Y-81304648D01*
X138008462Y-79929000D01*
X138119588Y-79929000D01*
X138119588Y-81000600D01*
X138131848Y-81125082D01*
X138168158Y-81244780D01*
X138227123Y-81355094D01*
X138306475Y-81451785D01*
X138403166Y-81531137D01*
X138513480Y-81590102D01*
X138575572Y-81608937D01*
X138422927Y-81774965D01*
X138269974Y-82026081D01*
X138168951Y-82302211D01*
X138166302Y-82317974D01*
X138287443Y-82550000D01*
X139646660Y-82550000D01*
X139646660Y-82530000D01*
X139900660Y-82530000D01*
X139900660Y-82550000D01*
X139920660Y-82550000D01*
X139920660Y-82804000D01*
X139900660Y-82804000D01*
X139900660Y-82824000D01*
X139646660Y-82824000D01*
X139646660Y-82804000D01*
X138287443Y-82804000D01*
X138166302Y-83036026D01*
X138168951Y-83051789D01*
X138269974Y-83327919D01*
X138422927Y-83579035D01*
X138621931Y-83795486D01*
X138824607Y-83943576D01*
X138784654Y-83964931D01*
X138556463Y-84152203D01*
X138369191Y-84380394D01*
X138230035Y-84640736D01*
X138144344Y-84923223D01*
X138115409Y-85217000D01*
X138136093Y-85427001D01*
X137835068Y-85427001D01*
X137797735Y-85423324D01*
X137760402Y-85427001D01*
X137648749Y-85437998D01*
X137505488Y-85481455D01*
X137373459Y-85552027D01*
X137257734Y-85647000D01*
X137233935Y-85675999D01*
X136722658Y-86187277D01*
X136693660Y-86211075D01*
X136669862Y-86240073D01*
X136669861Y-86240074D01*
X136598686Y-86326800D01*
X136528114Y-86458830D01*
X136506976Y-86528515D01*
X136484658Y-86602090D01*
X136481071Y-86638508D01*
X136469984Y-86751076D01*
X136473661Y-86788408D01*
X136473660Y-90412077D01*
X136469984Y-90449400D01*
X136473660Y-90486722D01*
X136473660Y-90486732D01*
X136484657Y-90598385D01*
X136518824Y-90711020D01*
X136528114Y-90741646D01*
X136598686Y-90873676D01*
X136628508Y-90910014D01*
X136693659Y-90989401D01*
X136722663Y-91013204D01*
X138169559Y-92460100D01*
X138144344Y-92543223D01*
X138115409Y-92837000D01*
X138144344Y-93130777D01*
X138230035Y-93413264D01*
X138369191Y-93673606D01*
X138556463Y-93901797D01*
X138784654Y-94089069D01*
X139044996Y-94228225D01*
X139327483Y-94313916D01*
X139547641Y-94335600D01*
X139999679Y-94335600D01*
X140219837Y-94313916D01*
X140365220Y-94269815D01*
X140365220Y-99022658D01*
X140365219Y-99022668D01*
X140365219Y-99558897D01*
X140361543Y-99596219D01*
X140365219Y-99633541D01*
X140365219Y-99633552D01*
X140376216Y-99745205D01*
X140419673Y-99888466D01*
X140442383Y-99930953D01*
X140490245Y-100020495D01*
X140561420Y-100107221D01*
X140585219Y-100136220D01*
X140614217Y-100160018D01*
X140999347Y-100545149D01*
X141023432Y-100666229D01*
X141093914Y-100836389D01*
X141196238Y-100989528D01*
X141326472Y-101119762D01*
X141479611Y-101222086D01*
X141649771Y-101292568D01*
X141830411Y-101328500D01*
X142014589Y-101328500D01*
X142195229Y-101292568D01*
X142365389Y-101222086D01*
X142518528Y-101119762D01*
X142648762Y-100989528D01*
X142751086Y-100836389D01*
X142821568Y-100666229D01*
X142857500Y-100485589D01*
X142857500Y-100301411D01*
X142821568Y-100120771D01*
X142751086Y-99950611D01*
X142648762Y-99797472D01*
X142518528Y-99667238D01*
X142365389Y-99564914D01*
X142195229Y-99494432D01*
X142074149Y-99470347D01*
X141885219Y-99281418D01*
X141885219Y-95581400D01*
X144043876Y-97740058D01*
X144002664Y-97762086D01*
X143886939Y-97857059D01*
X143863136Y-97886063D01*
X143834663Y-97914536D01*
X143805659Y-97938339D01*
X143753143Y-98002330D01*
X143710686Y-98054064D01*
X143667381Y-98135081D01*
X143640114Y-98186094D01*
X143596657Y-98329355D01*
X143585660Y-98441008D01*
X143585660Y-98441018D01*
X143581984Y-98478340D01*
X143585660Y-98515662D01*
X143585661Y-112029084D01*
X143509055Y-112070031D01*
X143280863Y-112257303D01*
X143093591Y-112485494D01*
X143075660Y-112519041D01*
X143057729Y-112485494D01*
X142870457Y-112257303D01*
X142642266Y-112070031D01*
X142381924Y-111930875D01*
X142099437Y-111845184D01*
X141805660Y-111816249D01*
X141511884Y-111845184D01*
X141229397Y-111930875D01*
X140969055Y-112070031D01*
X140740863Y-112257303D01*
X140553591Y-112485494D01*
X140535660Y-112519041D01*
X140517729Y-112485494D01*
X140330457Y-112257303D01*
X140102266Y-112070031D01*
X139841924Y-111930875D01*
X139559437Y-111845184D01*
X139265660Y-111816249D01*
X138971884Y-111845184D01*
X138689397Y-111930875D01*
X138429055Y-112070031D01*
X138200863Y-112257303D01*
X138013591Y-112485494D01*
X137874435Y-112745836D01*
X137788744Y-113028323D01*
X137767060Y-113248481D01*
X137767060Y-113700518D01*
X137788744Y-113920676D01*
X137874435Y-114203163D01*
X138013591Y-114463505D01*
X138200863Y-114691697D01*
X138429054Y-114878969D01*
X138505660Y-114919916D01*
X138505661Y-115439928D01*
X138402060Y-115439928D01*
X138277578Y-115452188D01*
X138157880Y-115488498D01*
X138047566Y-115547463D01*
X137950875Y-115626815D01*
X137871523Y-115723506D01*
X137812558Y-115833820D01*
X137776248Y-115953518D01*
X137763988Y-116078000D01*
X137763988Y-118110000D01*
X137776248Y-118234482D01*
X137812558Y-118354180D01*
X137871523Y-118464494D01*
X137950875Y-118561185D01*
X138047566Y-118640537D01*
X138157880Y-118699502D01*
X138277578Y-118735812D01*
X138402060Y-118748072D01*
X140129260Y-118748072D01*
X140253742Y-118735812D01*
X140373440Y-118699502D01*
X140483754Y-118640537D01*
X140580445Y-118561185D01*
X140659797Y-118464494D01*
X140718762Y-118354180D01*
X140734246Y-118303135D01*
X140740863Y-118311197D01*
X140969055Y-118498469D01*
X141229397Y-118637625D01*
X141511884Y-118723316D01*
X141805660Y-118752251D01*
X142099437Y-118723316D01*
X142381924Y-118637625D01*
X142642266Y-118498469D01*
X142870457Y-118311197D01*
X143057729Y-118083006D01*
X143075660Y-118049459D01*
X143093591Y-118083006D01*
X143280863Y-118311197D01*
X143509055Y-118498469D01*
X143769397Y-118637625D01*
X144051884Y-118723316D01*
X144345660Y-118752251D01*
X144639437Y-118723316D01*
X144921924Y-118637625D01*
X145182266Y-118498469D01*
X145410457Y-118311197D01*
X145597729Y-118083006D01*
X145615660Y-118049459D01*
X145633591Y-118083006D01*
X145820863Y-118311197D01*
X146049055Y-118498469D01*
X146309397Y-118637625D01*
X146591884Y-118723316D01*
X146885660Y-118752251D01*
X147179437Y-118723316D01*
X147461924Y-118637625D01*
X147722266Y-118498469D01*
X147950457Y-118311197D01*
X148137729Y-118083006D01*
X148155660Y-118049459D01*
X148173591Y-118083006D01*
X148360863Y-118311197D01*
X148589055Y-118498469D01*
X148849397Y-118637625D01*
X149131884Y-118723316D01*
X149425660Y-118752251D01*
X149719437Y-118723316D01*
X150001924Y-118637625D01*
X150262266Y-118498469D01*
X150490457Y-118311197D01*
X150677729Y-118083006D01*
X150699084Y-118043053D01*
X150847174Y-118245729D01*
X151063625Y-118444733D01*
X151314741Y-118597686D01*
X151590871Y-118698709D01*
X151606634Y-118701358D01*
X151838660Y-118580217D01*
X151838660Y-117221000D01*
X152092660Y-117221000D01*
X152092660Y-118580217D01*
X152324686Y-118701358D01*
X152340449Y-118698709D01*
X152616579Y-118597686D01*
X152867695Y-118444733D01*
X153084146Y-118245729D01*
X153235660Y-118038367D01*
X153387174Y-118245729D01*
X153603625Y-118444733D01*
X153854741Y-118597686D01*
X154130871Y-118698709D01*
X154146634Y-118701358D01*
X154378660Y-118580217D01*
X154378660Y-117221000D01*
X152092660Y-117221000D01*
X151838660Y-117221000D01*
X151818660Y-117221000D01*
X151818660Y-116967000D01*
X151838660Y-116967000D01*
X151838660Y-115607783D01*
X152092660Y-115607783D01*
X152092660Y-116967000D01*
X154378660Y-116967000D01*
X154378660Y-115607783D01*
X154146634Y-115486642D01*
X154130871Y-115489291D01*
X153854741Y-115590314D01*
X153603625Y-115743267D01*
X153387174Y-115942271D01*
X153235660Y-116149633D01*
X153084146Y-115942271D01*
X152867695Y-115743267D01*
X152616579Y-115590314D01*
X152340449Y-115489291D01*
X152324686Y-115486642D01*
X152092660Y-115607783D01*
X151838660Y-115607783D01*
X151606634Y-115486642D01*
X151590871Y-115489291D01*
X151314741Y-115590314D01*
X151063625Y-115743267D01*
X150847174Y-115942271D01*
X150699084Y-116144947D01*
X150677729Y-116104994D01*
X150490457Y-115876803D01*
X150262265Y-115689531D01*
X150185660Y-115648585D01*
X150185660Y-114919915D01*
X150262265Y-114878969D01*
X150490457Y-114691697D01*
X150677729Y-114463506D01*
X150699084Y-114423553D01*
X150847174Y-114626229D01*
X151063625Y-114825233D01*
X151314741Y-114978186D01*
X151590871Y-115079209D01*
X151606634Y-115081858D01*
X151838660Y-114960717D01*
X151838660Y-113601500D01*
X152092660Y-113601500D01*
X152092660Y-114960717D01*
X152324686Y-115081858D01*
X152340449Y-115079209D01*
X152616579Y-114978186D01*
X152867695Y-114825233D01*
X153084146Y-114626229D01*
X153235660Y-114418867D01*
X153387174Y-114626229D01*
X153603625Y-114825233D01*
X153854741Y-114978186D01*
X154130871Y-115079209D01*
X154146634Y-115081858D01*
X154378660Y-114960717D01*
X154378660Y-113601500D01*
X152092660Y-113601500D01*
X151838660Y-113601500D01*
X151818660Y-113601500D01*
X151818660Y-113347500D01*
X151838660Y-113347500D01*
X151838660Y-111988283D01*
X152092660Y-111988283D01*
X152092660Y-113347500D01*
X154378660Y-113347500D01*
X154378660Y-111988283D01*
X154632660Y-111988283D01*
X154632660Y-113347500D01*
X154652660Y-113347500D01*
X154652660Y-113601500D01*
X154632660Y-113601500D01*
X154632660Y-114960717D01*
X154864686Y-115081858D01*
X154880449Y-115079209D01*
X155156579Y-114978186D01*
X155407695Y-114825233D01*
X155573723Y-114672588D01*
X155592558Y-114734680D01*
X155651523Y-114844994D01*
X155730875Y-114941685D01*
X155827566Y-115021037D01*
X155937880Y-115080002D01*
X156057578Y-115116312D01*
X156182060Y-115128572D01*
X156285660Y-115128572D01*
X156285660Y-115648584D01*
X156209054Y-115689531D01*
X155980863Y-115876803D01*
X155793591Y-116104995D01*
X155772236Y-116144947D01*
X155624146Y-115942271D01*
X155407695Y-115743267D01*
X155156579Y-115590314D01*
X154880449Y-115489291D01*
X154864686Y-115486642D01*
X154632660Y-115607783D01*
X154632660Y-116967000D01*
X154652660Y-116967000D01*
X154652660Y-117221000D01*
X154632660Y-117221000D01*
X154632660Y-118580217D01*
X154864686Y-118701358D01*
X154880449Y-118698709D01*
X155156579Y-118597686D01*
X155407695Y-118444733D01*
X155624146Y-118245729D01*
X155772236Y-118043053D01*
X155793591Y-118083006D01*
X155980863Y-118311197D01*
X156209055Y-118498469D01*
X156469397Y-118637625D01*
X156751884Y-118723316D01*
X157045660Y-118752251D01*
X157339437Y-118723316D01*
X157621924Y-118637625D01*
X157882266Y-118498469D01*
X158110457Y-118311197D01*
X158297729Y-118083006D01*
X158436885Y-117822663D01*
X158522576Y-117540176D01*
X158544260Y-117320018D01*
X158544260Y-116867981D01*
X158522576Y-116647823D01*
X158436885Y-116365336D01*
X158297729Y-116104994D01*
X158110457Y-115876803D01*
X157882265Y-115689531D01*
X157805660Y-115648585D01*
X157805660Y-115128572D01*
X157909260Y-115128572D01*
X158033742Y-115116312D01*
X158153440Y-115080002D01*
X158263754Y-115021037D01*
X158360445Y-114941685D01*
X158439797Y-114844994D01*
X158498762Y-114734680D01*
X158535072Y-114614982D01*
X158547332Y-114490500D01*
X158547332Y-112458500D01*
X158535072Y-112334018D01*
X158498762Y-112214320D01*
X158439797Y-112104006D01*
X158360445Y-112007315D01*
X158263754Y-111927963D01*
X158153440Y-111868998D01*
X158033742Y-111832688D01*
X157909260Y-111820428D01*
X156182060Y-111820428D01*
X156057578Y-111832688D01*
X155937880Y-111868998D01*
X155827566Y-111927963D01*
X155730875Y-112007315D01*
X155651523Y-112104006D01*
X155592558Y-112214320D01*
X155573723Y-112276412D01*
X155407695Y-112123767D01*
X155156579Y-111970814D01*
X154880449Y-111869791D01*
X154864686Y-111867142D01*
X154632660Y-111988283D01*
X154378660Y-111988283D01*
X154146634Y-111867142D01*
X154130871Y-111869791D01*
X153854741Y-111970814D01*
X153603625Y-112123767D01*
X153387174Y-112322771D01*
X153235660Y-112530133D01*
X153084146Y-112322771D01*
X152867695Y-112123767D01*
X152616579Y-111970814D01*
X152340449Y-111869791D01*
X152324686Y-111867142D01*
X152092660Y-111988283D01*
X151838660Y-111988283D01*
X151606634Y-111867142D01*
X151590871Y-111869791D01*
X151314741Y-111970814D01*
X151063625Y-112123767D01*
X150847174Y-112322771D01*
X150699084Y-112525447D01*
X150677729Y-112485494D01*
X150490457Y-112257303D01*
X150262266Y-112070031D01*
X150001924Y-111930875D01*
X149719437Y-111845184D01*
X149425660Y-111816249D01*
X149131884Y-111845184D01*
X148849397Y-111930875D01*
X148589055Y-112070031D01*
X148360863Y-112257303D01*
X148173591Y-112485494D01*
X148155660Y-112519041D01*
X148137729Y-112485494D01*
X147950457Y-112257303D01*
X147722266Y-112070031D01*
X147461924Y-111930875D01*
X147179437Y-111845184D01*
X146885660Y-111816249D01*
X146591884Y-111845184D01*
X146309397Y-111930875D01*
X146049055Y-112070031D01*
X145820863Y-112257303D01*
X145633591Y-112485494D01*
X145615660Y-112519041D01*
X145597729Y-112485494D01*
X145410457Y-112257303D01*
X145182266Y-112070031D01*
X145105660Y-112029084D01*
X145105660Y-99157060D01*
X145715098Y-99157060D01*
X145740887Y-99159600D01*
X145740897Y-99159600D01*
X145778219Y-99163276D01*
X145815542Y-99159600D01*
X148684545Y-99159600D01*
X148787191Y-99228186D01*
X148924994Y-99285265D01*
X148924994Y-99342589D01*
X148960926Y-99523229D01*
X149031408Y-99693389D01*
X149109691Y-99810548D01*
X149110991Y-99823749D01*
X149143530Y-99931017D01*
X149154448Y-99967010D01*
X149225020Y-100099040D01*
X149260320Y-100142053D01*
X149319993Y-100214765D01*
X149348997Y-100238568D01*
X157126930Y-108016502D01*
X157150729Y-108045501D01*
X157179727Y-108069299D01*
X157266453Y-108140474D01*
X157307674Y-108162507D01*
X157398483Y-108211046D01*
X157541744Y-108254503D01*
X157653397Y-108265500D01*
X157653406Y-108265500D01*
X157690729Y-108269176D01*
X157728052Y-108265500D01*
X160496988Y-108265500D01*
X160496988Y-108521500D01*
X160509248Y-108645982D01*
X160545558Y-108765680D01*
X160604523Y-108875994D01*
X160683875Y-108972685D01*
X160780566Y-109052037D01*
X160890880Y-109111002D01*
X161010578Y-109147312D01*
X161135060Y-109159572D01*
X161238660Y-109159572D01*
X161238661Y-115441232D01*
X161127418Y-115452188D01*
X161007720Y-115488498D01*
X160897406Y-115547463D01*
X160800715Y-115626815D01*
X160721363Y-115723506D01*
X160662398Y-115833820D01*
X160626088Y-115953518D01*
X160613828Y-116078000D01*
X160613828Y-118110000D01*
X160626088Y-118234482D01*
X160662398Y-118354180D01*
X160721363Y-118464494D01*
X160800715Y-118561185D01*
X160897406Y-118640537D01*
X161007720Y-118699502D01*
X161127418Y-118735812D01*
X161251900Y-118748072D01*
X162979100Y-118748072D01*
X163103582Y-118735812D01*
X163223280Y-118699502D01*
X163333594Y-118640537D01*
X163430285Y-118561185D01*
X163509637Y-118464494D01*
X163568602Y-118354180D01*
X163584086Y-118303135D01*
X163590703Y-118311197D01*
X163818895Y-118498469D01*
X164079237Y-118637625D01*
X164361724Y-118723316D01*
X164655500Y-118752251D01*
X164949277Y-118723316D01*
X165231764Y-118637625D01*
X165492106Y-118498469D01*
X165720297Y-118311197D01*
X165907569Y-118083006D01*
X165925500Y-118049459D01*
X165943431Y-118083006D01*
X166130703Y-118311197D01*
X166358895Y-118498469D01*
X166619237Y-118637625D01*
X166901724Y-118723316D01*
X167195500Y-118752251D01*
X167489277Y-118723316D01*
X167771764Y-118637625D01*
X168032106Y-118498469D01*
X168260297Y-118311197D01*
X168447569Y-118083006D01*
X168465500Y-118049459D01*
X168483431Y-118083006D01*
X168670703Y-118311197D01*
X168898895Y-118498469D01*
X169159237Y-118637625D01*
X169441724Y-118723316D01*
X169735500Y-118752251D01*
X170029277Y-118723316D01*
X170311764Y-118637625D01*
X170572106Y-118498469D01*
X170800297Y-118311197D01*
X170987569Y-118083006D01*
X171005500Y-118049459D01*
X171023431Y-118083006D01*
X171210703Y-118311197D01*
X171438895Y-118498469D01*
X171699237Y-118637625D01*
X171981724Y-118723316D01*
X172275500Y-118752251D01*
X172569277Y-118723316D01*
X172851764Y-118637625D01*
X173112106Y-118498469D01*
X173340297Y-118311197D01*
X173527569Y-118083006D01*
X173545500Y-118049459D01*
X173563431Y-118083006D01*
X173750703Y-118311197D01*
X173978895Y-118498469D01*
X174239237Y-118637625D01*
X174521724Y-118723316D01*
X174815500Y-118752251D01*
X175109277Y-118723316D01*
X175391764Y-118637625D01*
X175652106Y-118498469D01*
X175880297Y-118311197D01*
X176067569Y-118083006D01*
X176085500Y-118049459D01*
X176103431Y-118083006D01*
X176290703Y-118311197D01*
X176518895Y-118498469D01*
X176779237Y-118637625D01*
X177061724Y-118723316D01*
X177355500Y-118752251D01*
X177649277Y-118723316D01*
X177931764Y-118637625D01*
X178192106Y-118498469D01*
X178420297Y-118311197D01*
X178607569Y-118083006D01*
X178625500Y-118049459D01*
X178643431Y-118083006D01*
X178830703Y-118311197D01*
X179058895Y-118498469D01*
X179319237Y-118637625D01*
X179601724Y-118723316D01*
X179895500Y-118752251D01*
X180189277Y-118723316D01*
X180471764Y-118637625D01*
X180658161Y-118537994D01*
X180658161Y-118799000D01*
X127362367Y-118799000D01*
X127367254Y-118794113D01*
X127659124Y-118357298D01*
X127860168Y-117871935D01*
X127962660Y-117356677D01*
X127962660Y-116831323D01*
X127860168Y-116316065D01*
X127659124Y-115830702D01*
X127367254Y-115393887D01*
X126995773Y-115022406D01*
X126558958Y-114730536D01*
X126073595Y-114529492D01*
X125558337Y-114427000D01*
X125032983Y-114427000D01*
X124517725Y-114529492D01*
X124032362Y-114730536D01*
X123595547Y-115022406D01*
X123224066Y-115393887D01*
X122932196Y-115830702D01*
X122731152Y-116316065D01*
X122628660Y-116831323D01*
X122628660Y-117356677D01*
X122731152Y-117871935D01*
X122932196Y-118357298D01*
X123224066Y-118794113D01*
X123228953Y-118799000D01*
X118637200Y-118799000D01*
X118812957Y-118527742D01*
X116860320Y-116575105D01*
X114907683Y-118527742D01*
X115083440Y-118799000D01*
X112150500Y-118799000D01*
X112150500Y-113447742D01*
X112621683Y-113447742D01*
X112885883Y-113855500D01*
X113413855Y-114136093D01*
X113986424Y-114308292D01*
X114581585Y-114365479D01*
X114644358Y-114359146D01*
X114728076Y-114442864D01*
X114320320Y-114707063D01*
X114039727Y-115235035D01*
X113867528Y-115807604D01*
X113810341Y-116402765D01*
X113870363Y-116997647D01*
X114045287Y-117569388D01*
X114320320Y-118083937D01*
X114728078Y-118348137D01*
X116680715Y-116395500D01*
X116666573Y-116381358D01*
X116846178Y-116201753D01*
X116860320Y-116215895D01*
X116874463Y-116201753D01*
X117054068Y-116381358D01*
X117039925Y-116395500D01*
X118992562Y-118348137D01*
X119400320Y-118083937D01*
X119680913Y-117555965D01*
X119853112Y-116983396D01*
X119910299Y-116388235D01*
X119850277Y-115793353D01*
X119675353Y-115221612D01*
X119400320Y-114707063D01*
X118992564Y-114442864D01*
X119081556Y-114353872D01*
X123070620Y-114353872D01*
X123195102Y-114341612D01*
X123314800Y-114305302D01*
X123425114Y-114246337D01*
X123521805Y-114166985D01*
X123601157Y-114070294D01*
X123660122Y-113959980D01*
X123696432Y-113840282D01*
X123708692Y-113715800D01*
X123708692Y-108915200D01*
X123696432Y-108790718D01*
X123660122Y-108671020D01*
X123601157Y-108560706D01*
X123521805Y-108464015D01*
X123425114Y-108384663D01*
X123314800Y-108325698D01*
X123195102Y-108289388D01*
X123070620Y-108277128D01*
X118270020Y-108277128D01*
X118145538Y-108289388D01*
X118025840Y-108325698D01*
X117915526Y-108384663D01*
X117818835Y-108464015D01*
X117739483Y-108560706D01*
X117680518Y-108671020D01*
X117644208Y-108790718D01*
X117631948Y-108915200D01*
X117631948Y-113457965D01*
X117448216Y-113402708D01*
X116853055Y-113345521D01*
X116790282Y-113351854D01*
X116706564Y-113268136D01*
X117114320Y-113003937D01*
X117394913Y-112475965D01*
X117567112Y-111903396D01*
X117624299Y-111308235D01*
X117564277Y-110713353D01*
X117389353Y-110141612D01*
X117114320Y-109627063D01*
X116706562Y-109362863D01*
X114753925Y-111315500D01*
X114768068Y-111329643D01*
X114588463Y-111509248D01*
X114574320Y-111495105D01*
X112621683Y-113447742D01*
X112150500Y-113447742D01*
X112150500Y-113079214D01*
X112442078Y-113268137D01*
X114394715Y-111315500D01*
X112442078Y-109362863D01*
X112150500Y-109551786D01*
X112150500Y-109183258D01*
X112621683Y-109183258D01*
X114574320Y-111135895D01*
X116526957Y-109183258D01*
X116262757Y-108775500D01*
X115734785Y-108494907D01*
X115162216Y-108322708D01*
X114567055Y-108265521D01*
X113972173Y-108325543D01*
X113400432Y-108500467D01*
X112885883Y-108775500D01*
X112621683Y-109183258D01*
X112150500Y-109183258D01*
X112150500Y-107061000D01*
X125730000Y-107061000D01*
X125754776Y-107058560D01*
X125778601Y-107051333D01*
X125800557Y-107039597D01*
X125819803Y-107023803D01*
X125835597Y-107004557D01*
X125847333Y-106982601D01*
X125854560Y-106958776D01*
X125857000Y-106934000D01*
X125857000Y-99563732D01*
X125992549Y-99507586D01*
X126145688Y-99405262D01*
X126275922Y-99275028D01*
X126378246Y-99121889D01*
X126448728Y-98951729D01*
X126484660Y-98771089D01*
X126484660Y-98586911D01*
X126448728Y-98406271D01*
X126378246Y-98236111D01*
X126309660Y-98133465D01*
X126309660Y-96957801D01*
X127190462Y-97838604D01*
X127214260Y-97867602D01*
X127329985Y-97962575D01*
X127462014Y-98033147D01*
X127605275Y-98076604D01*
X127716928Y-98087601D01*
X127716937Y-98087601D01*
X127754260Y-98091277D01*
X127791583Y-98087601D01*
X132197737Y-98087601D01*
X132235059Y-98091277D01*
X132272381Y-98087601D01*
X132272392Y-98087601D01*
X132384045Y-98076604D01*
X132527306Y-98033147D01*
X132659335Y-97962575D01*
X132775060Y-97867602D01*
X132798863Y-97838598D01*
X133046760Y-97590701D01*
X133129883Y-97615916D01*
X133261938Y-97628922D01*
X131701861Y-99189000D01*
X128127195Y-99189000D01*
X128024549Y-99120414D01*
X127854389Y-99049932D01*
X127673749Y-99014000D01*
X127489571Y-99014000D01*
X127308931Y-99049932D01*
X127138771Y-99120414D01*
X126985632Y-99222738D01*
X126855398Y-99352972D01*
X126753074Y-99506111D01*
X126682592Y-99676271D01*
X126646660Y-99856911D01*
X126646660Y-100041089D01*
X126682592Y-100221729D01*
X126753074Y-100391889D01*
X126855398Y-100545028D01*
X126985632Y-100675262D01*
X127138771Y-100777586D01*
X127308931Y-100848068D01*
X127489571Y-100884000D01*
X127673749Y-100884000D01*
X127854389Y-100848068D01*
X128024549Y-100777586D01*
X128127195Y-100709000D01*
X131979340Y-100709000D01*
X132016662Y-100712676D01*
X132053984Y-100709000D01*
X132053995Y-100709000D01*
X132165648Y-100698003D01*
X132308909Y-100654546D01*
X132440938Y-100583974D01*
X132556663Y-100489001D01*
X132580466Y-100459997D01*
X135204663Y-97835801D01*
X135233661Y-97812003D01*
X135272542Y-97764626D01*
X135328634Y-97696279D01*
X135399206Y-97564249D01*
X135410111Y-97528299D01*
X135442663Y-97420988D01*
X135453660Y-97309335D01*
X135453660Y-97309325D01*
X135457336Y-97272002D01*
X135453660Y-97234679D01*
X135453660Y-83984323D01*
X135457336Y-83946998D01*
X135453660Y-83909673D01*
X135453660Y-83909665D01*
X135442663Y-83798012D01*
X135399206Y-83654751D01*
X135328634Y-83522722D01*
X135233661Y-83406997D01*
X135204658Y-83383195D01*
X135108815Y-83287352D01*
X135084730Y-83166271D01*
X135014248Y-82996111D01*
X134911924Y-82842972D01*
X134781690Y-82712738D01*
X134628551Y-82610414D01*
X134458391Y-82539932D01*
X134277751Y-82504000D01*
X134093573Y-82504000D01*
X133912933Y-82539932D01*
X133742773Y-82610414D01*
X133589634Y-82712738D01*
X133459400Y-82842972D01*
X133357076Y-82996111D01*
X133286594Y-83166271D01*
X133250662Y-83346911D01*
X133250662Y-83531089D01*
X133283266Y-83695000D01*
X133225855Y-83695000D01*
X133188530Y-83691324D01*
X133151205Y-83695000D01*
X133151197Y-83695000D01*
X133039544Y-83705997D01*
X132896283Y-83749454D01*
X132764254Y-83820026D01*
X132648529Y-83914999D01*
X132624731Y-83943997D01*
X132024930Y-84543799D01*
X131991440Y-84525898D01*
X131871742Y-84489588D01*
X131747260Y-84477328D01*
X130020060Y-84477328D01*
X129895578Y-84489588D01*
X129775880Y-84525898D01*
X129665566Y-84584863D01*
X129568875Y-84664215D01*
X129489523Y-84760906D01*
X129430558Y-84871220D01*
X129394248Y-84990918D01*
X129381988Y-85115400D01*
X129381988Y-86842600D01*
X129394248Y-86967082D01*
X129430558Y-87086780D01*
X129489523Y-87197094D01*
X129568875Y-87293785D01*
X129665566Y-87373137D01*
X129775880Y-87432102D01*
X129826925Y-87447586D01*
X129818863Y-87454203D01*
X129631591Y-87682394D01*
X129492435Y-87942736D01*
X129406744Y-88225223D01*
X129377809Y-88519000D01*
X129406744Y-88812777D01*
X129492435Y-89095264D01*
X129631591Y-89355606D01*
X129818863Y-89583797D01*
X130047054Y-89771069D01*
X130080600Y-89789000D01*
X130047054Y-89806931D01*
X129818863Y-89994203D01*
X129752822Y-90074674D01*
X128595660Y-88917513D01*
X128595660Y-80451801D01*
X129511310Y-79536152D01*
X129632389Y-79512068D01*
X129802549Y-79441586D01*
X129830562Y-79422868D01*
X129906625Y-79454374D01*
X130087265Y-79490306D01*
X130271443Y-79490306D01*
X130452083Y-79454374D01*
X130622243Y-79383892D01*
X130775382Y-79281568D01*
X130905616Y-79151334D01*
X131007940Y-78998195D01*
X131078422Y-78828035D01*
X131114354Y-78647395D01*
X131114354Y-78463217D01*
X131110288Y-78442775D01*
X131180662Y-78548098D01*
X131310896Y-78678332D01*
X131464035Y-78780656D01*
X131634195Y-78851138D01*
X131814835Y-78887070D01*
X131999013Y-78887070D01*
X132179653Y-78851138D01*
X132349813Y-78780656D01*
X132502952Y-78678332D01*
X132522071Y-78659213D01*
X133062526Y-79199669D01*
X133086320Y-79228662D01*
X133115313Y-79252456D01*
X133115317Y-79252460D01*
X133178496Y-79304309D01*
X133202045Y-79323635D01*
X133334074Y-79394207D01*
X133477335Y-79437664D01*
X133584565Y-79448225D01*
X133675746Y-79584688D01*
X133805980Y-79714922D01*
X133959119Y-79817246D01*
X134129279Y-79887728D01*
X134309919Y-79923660D01*
X134494097Y-79923660D01*
X134674737Y-79887728D01*
X134844897Y-79817246D01*
X134998036Y-79714922D01*
X135128270Y-79584688D01*
X135230594Y-79431549D01*
X135301076Y-79261389D01*
X135337008Y-79080749D01*
X135337008Y-78896571D01*
X135301076Y-78715931D01*
X135230594Y-78545771D01*
X135128270Y-78392632D01*
X134998036Y-78262398D01*
X134844897Y-78160074D01*
X134674737Y-78089592D01*
X134536539Y-78062102D01*
X134526285Y-78053687D01*
X134394256Y-77983115D01*
X134250995Y-77939658D01*
X134139342Y-77928661D01*
X134139331Y-77928661D01*
X134102009Y-77924985D01*
X134064687Y-77928661D01*
X133941124Y-77928661D01*
X132589439Y-76576978D01*
X132565637Y-76547975D01*
X132449912Y-76453002D01*
X132317883Y-76382430D01*
X132174622Y-76338973D01*
X132062969Y-76327976D01*
X132062958Y-76327976D01*
X132025636Y-76324300D01*
X131988314Y-76327976D01*
X128598592Y-76327976D01*
X128561269Y-76324300D01*
X128523946Y-76327976D01*
X128523936Y-76327976D01*
X128412283Y-76338973D01*
X128283633Y-76377998D01*
X128269022Y-76382430D01*
X128136992Y-76453002D01*
X128085222Y-76495489D01*
X128021268Y-76547975D01*
X127997470Y-76576973D01*
X125916636Y-78657808D01*
X125887638Y-78681606D01*
X125863840Y-78710604D01*
X125863839Y-78710605D01*
X125857000Y-78718938D01*
X125857000Y-72644000D01*
X125854560Y-72619224D01*
X125847333Y-72595399D01*
X125835597Y-72573443D01*
X125819803Y-72554197D01*
X125800557Y-72538403D01*
X125778601Y-72526667D01*
X125754776Y-72519440D01*
X125730000Y-72517000D01*
X112150500Y-72517000D01*
X112150500Y-67129000D01*
X124488793Y-67129000D01*
X124483906Y-67133887D01*
G36*
X165826591Y-108494506D02*
G01*
X166013863Y-108722697D01*
X166242055Y-108909969D01*
X166318660Y-108950915D01*
X166318661Y-115722550D01*
X166130703Y-115876803D01*
X165943431Y-116104995D01*
X165925500Y-116138541D01*
X165907569Y-116104994D01*
X165720297Y-115876803D01*
X165492105Y-115689531D01*
X165415500Y-115648585D01*
X165415500Y-108876950D01*
X165603457Y-108722697D01*
X165790729Y-108494506D01*
X165808660Y-108460959D01*
X165826591Y-108494506D01*
X165826591Y-108494506D01*
G37*
X165826591Y-108494506D02*
X166013863Y-108722697D01*
X166242055Y-108909969D01*
X166318660Y-108950915D01*
X166318661Y-115722550D01*
X166130703Y-115876803D01*
X165943431Y-116104995D01*
X165925500Y-116138541D01*
X165907569Y-116104994D01*
X165720297Y-115876803D01*
X165492105Y-115689531D01*
X165415500Y-115648585D01*
X165415500Y-108876950D01*
X165603457Y-108722697D01*
X165790729Y-108494506D01*
X165808660Y-108460959D01*
X165826591Y-108494506D01*
G36*
X168366591Y-108494506D02*
G01*
X168553863Y-108722697D01*
X168782055Y-108909969D01*
X168975501Y-109013368D01*
X168975500Y-115648584D01*
X168898894Y-115689531D01*
X168670703Y-115876803D01*
X168483431Y-116104995D01*
X168465500Y-116138541D01*
X168447569Y-116104994D01*
X168260297Y-115876803D01*
X168032105Y-115689531D01*
X167838660Y-115586132D01*
X167838660Y-108950916D01*
X167915266Y-108909969D01*
X168143457Y-108722697D01*
X168330729Y-108494506D01*
X168348660Y-108460959D01*
X168366591Y-108494506D01*
X168366591Y-108494506D01*
G37*
X168366591Y-108494506D02*
X168553863Y-108722697D01*
X168782055Y-108909969D01*
X168975501Y-109013368D01*
X168975500Y-115648584D01*
X168898894Y-115689531D01*
X168670703Y-115876803D01*
X168483431Y-116104995D01*
X168465500Y-116138541D01*
X168447569Y-116104994D01*
X168260297Y-115876803D01*
X168032105Y-115689531D01*
X167838660Y-115586132D01*
X167838660Y-108950916D01*
X167915266Y-108909969D01*
X168143457Y-108722697D01*
X168330729Y-108494506D01*
X168348660Y-108460959D01*
X168366591Y-108494506D01*
G36*
X170906591Y-108494506D02*
G01*
X171093863Y-108722697D01*
X171322055Y-108909969D01*
X171398660Y-108950915D01*
X171398661Y-115722550D01*
X171210703Y-115876803D01*
X171023431Y-116104995D01*
X171005500Y-116138541D01*
X170987569Y-116104994D01*
X170800297Y-115876803D01*
X170572105Y-115689531D01*
X170495500Y-115648585D01*
X170495500Y-108876950D01*
X170683457Y-108722697D01*
X170870729Y-108494506D01*
X170888660Y-108460959D01*
X170906591Y-108494506D01*
X170906591Y-108494506D01*
G37*
X170906591Y-108494506D02*
X171093863Y-108722697D01*
X171322055Y-108909969D01*
X171398660Y-108950915D01*
X171398661Y-115722550D01*
X171210703Y-115876803D01*
X171023431Y-116104995D01*
X171005500Y-116138541D01*
X170987569Y-116104994D01*
X170800297Y-115876803D01*
X170572105Y-115689531D01*
X170495500Y-115648585D01*
X170495500Y-108876950D01*
X170683457Y-108722697D01*
X170870729Y-108494506D01*
X170888660Y-108460959D01*
X170906591Y-108494506D01*
G36*
X173446591Y-108494506D02*
G01*
X173633863Y-108722697D01*
X173800130Y-108859149D01*
X173798650Y-108874178D01*
X173798650Y-108874188D01*
X173794974Y-108911510D01*
X173798650Y-108948833D01*
X173798651Y-115533818D01*
X173794974Y-115571150D01*
X173798651Y-115608483D01*
X173809648Y-115720136D01*
X173816665Y-115743267D01*
X173835949Y-115806843D01*
X173750703Y-115876803D01*
X173563431Y-116104995D01*
X173545500Y-116138541D01*
X173527569Y-116104994D01*
X173340297Y-115876803D01*
X173112105Y-115689531D01*
X172918660Y-115586132D01*
X172918660Y-108950916D01*
X172995266Y-108909969D01*
X173223457Y-108722697D01*
X173410729Y-108494506D01*
X173428660Y-108460959D01*
X173446591Y-108494506D01*
X173446591Y-108494506D01*
G37*
X173446591Y-108494506D02*
X173633863Y-108722697D01*
X173800130Y-108859149D01*
X173798650Y-108874178D01*
X173798650Y-108874188D01*
X173794974Y-108911510D01*
X173798650Y-108948833D01*
X173798651Y-115533818D01*
X173794974Y-115571150D01*
X173798651Y-115608483D01*
X173809648Y-115720136D01*
X173816665Y-115743267D01*
X173835949Y-115806843D01*
X173750703Y-115876803D01*
X173563431Y-116104995D01*
X173545500Y-116138541D01*
X173527569Y-116104994D01*
X173340297Y-115876803D01*
X173112105Y-115689531D01*
X172918660Y-115586132D01*
X172918660Y-108950916D01*
X172995266Y-108909969D01*
X173223457Y-108722697D01*
X173410729Y-108494506D01*
X173428660Y-108460959D01*
X173446591Y-108494506D01*
G36*
X163473863Y-108722697D02*
G01*
X163702055Y-108909969D01*
X163895501Y-109013368D01*
X163895500Y-115648584D01*
X163818894Y-115689531D01*
X163590703Y-115876803D01*
X163584086Y-115884865D01*
X163568602Y-115833820D01*
X163509637Y-115723506D01*
X163430285Y-115626815D01*
X163333594Y-115547463D01*
X163223280Y-115488498D01*
X163103582Y-115452188D01*
X162979100Y-115439928D01*
X162758660Y-115439928D01*
X162758660Y-109159572D01*
X162862260Y-109159572D01*
X162986742Y-109147312D01*
X163106440Y-109111002D01*
X163216754Y-109052037D01*
X163313445Y-108972685D01*
X163392797Y-108875994D01*
X163451762Y-108765680D01*
X163467246Y-108714635D01*
X163473863Y-108722697D01*
X163473863Y-108722697D01*
G37*
X163473863Y-108722697D02*
X163702055Y-108909969D01*
X163895501Y-109013368D01*
X163895500Y-115648584D01*
X163818894Y-115689531D01*
X163590703Y-115876803D01*
X163584086Y-115884865D01*
X163568602Y-115833820D01*
X163509637Y-115723506D01*
X163430285Y-115626815D01*
X163333594Y-115547463D01*
X163223280Y-115488498D01*
X163103582Y-115452188D01*
X162979100Y-115439928D01*
X162758660Y-115439928D01*
X162758660Y-109159572D01*
X162862260Y-109159572D01*
X162986742Y-109147312D01*
X163106440Y-109111002D01*
X163216754Y-109052037D01*
X163313445Y-108972685D01*
X163392797Y-108875994D01*
X163451762Y-108765680D01*
X163467246Y-108714635D01*
X163473863Y-108722697D01*
G36*
X155088624Y-101523502D02*
G01*
X155200277Y-101534499D01*
X155200287Y-101534499D01*
X155237609Y-101538175D01*
X155274932Y-101534499D01*
X160986769Y-101534499D01*
X163778660Y-104326391D01*
X163778661Y-106060084D01*
X163702054Y-106101031D01*
X163473863Y-106288303D01*
X163467246Y-106296365D01*
X163451762Y-106245320D01*
X163392797Y-106135006D01*
X163313445Y-106038315D01*
X163216754Y-105958963D01*
X163106440Y-105899998D01*
X162986742Y-105863688D01*
X162862260Y-105851428D01*
X161135060Y-105851428D01*
X161010578Y-105863688D01*
X160890880Y-105899998D01*
X160780566Y-105958963D01*
X160683875Y-106038315D01*
X160604523Y-106135006D01*
X160545558Y-106245320D01*
X160509248Y-106365018D01*
X160496988Y-106489500D01*
X160496988Y-106745500D01*
X158005532Y-106745500D01*
X152761080Y-101501049D01*
X155014605Y-101501049D01*
X155088624Y-101523502D01*
X155088624Y-101523502D01*
G37*
X155088624Y-101523502D02*
X155200277Y-101534499D01*
X155200287Y-101534499D01*
X155237609Y-101538175D01*
X155274932Y-101534499D01*
X160986769Y-101534499D01*
X163778660Y-104326391D01*
X163778661Y-106060084D01*
X163702054Y-106101031D01*
X163473863Y-106288303D01*
X163467246Y-106296365D01*
X163451762Y-106245320D01*
X163392797Y-106135006D01*
X163313445Y-106038315D01*
X163216754Y-105958963D01*
X163106440Y-105899998D01*
X162986742Y-105863688D01*
X162862260Y-105851428D01*
X161135060Y-105851428D01*
X161010578Y-105863688D01*
X160890880Y-105899998D01*
X160780566Y-105958963D01*
X160683875Y-106038315D01*
X160604523Y-106135006D01*
X160545558Y-106245320D01*
X160509248Y-106365018D01*
X160496988Y-106489500D01*
X160496988Y-106745500D01*
X158005532Y-106745500D01*
X152761080Y-101501049D01*
X155014605Y-101501049D01*
X155088624Y-101523502D01*
G36*
X176520501Y-68163869D02*
G01*
X176520500Y-79214033D01*
X176516579Y-79262139D01*
X176525209Y-79336832D01*
X176532582Y-79411688D01*
X176534644Y-79418485D01*
X176535458Y-79425532D01*
X176558489Y-79497091D01*
X176580328Y-79569086D01*
X176583675Y-79575347D01*
X176585849Y-79582103D01*
X176622413Y-79647822D01*
X176657864Y-79714145D01*
X176662366Y-79719631D01*
X176665818Y-79725835D01*
X176714499Y-79783155D01*
X176762209Y-79841291D01*
X176799522Y-79871913D01*
X178885493Y-81888735D01*
X178618798Y-81710536D01*
X178133435Y-81509492D01*
X177618177Y-81407000D01*
X177092823Y-81407000D01*
X176577565Y-81509492D01*
X176092202Y-81710536D01*
X175655387Y-82002406D01*
X175283906Y-82373887D01*
X174992036Y-82810702D01*
X174790992Y-83296065D01*
X174688500Y-83811323D01*
X174688500Y-84336677D01*
X174790992Y-84851935D01*
X174992036Y-85337298D01*
X175283906Y-85774113D01*
X175655387Y-86145594D01*
X176092202Y-86437464D01*
X176577565Y-86638508D01*
X177092823Y-86741000D01*
X177618177Y-86741000D01*
X178133435Y-86638508D01*
X178618798Y-86437464D01*
X179055613Y-86145594D01*
X179427094Y-85774113D01*
X179718964Y-85337298D01*
X179920008Y-84851935D01*
X180022500Y-84336677D01*
X180022500Y-83811323D01*
X179920008Y-83296065D01*
X179718964Y-82810702D01*
X179499761Y-82482642D01*
X180658160Y-83602640D01*
X180658161Y-106136234D01*
X180615265Y-106101031D01*
X180354923Y-105961875D01*
X180072436Y-105876184D01*
X179778660Y-105847249D01*
X179484883Y-105876184D01*
X179450481Y-105886620D01*
X176748364Y-103184503D01*
X176724561Y-103155499D01*
X176608836Y-103060526D01*
X176476807Y-102989954D01*
X176333546Y-102946497D01*
X176221893Y-102935500D01*
X176221882Y-102935500D01*
X176184560Y-102931824D01*
X176147238Y-102935500D01*
X169161302Y-102935500D01*
X164415336Y-98189535D01*
X171719803Y-98189535D01*
X171757125Y-98193211D01*
X171794447Y-98189535D01*
X171794458Y-98189535D01*
X171906111Y-98178538D01*
X172049372Y-98135081D01*
X172181401Y-98064509D01*
X172297126Y-97969536D01*
X172320929Y-97940532D01*
X174575760Y-95685701D01*
X174658883Y-95710916D01*
X174879041Y-95732600D01*
X175026279Y-95732600D01*
X175246437Y-95710916D01*
X175528924Y-95625225D01*
X175789266Y-95486069D01*
X176017457Y-95298797D01*
X176204729Y-95070606D01*
X176226130Y-95030567D01*
X176385806Y-95244293D01*
X176604172Y-95440817D01*
X176856682Y-95590964D01*
X177133633Y-95688963D01*
X177365660Y-95568464D01*
X177365660Y-94361000D01*
X177619660Y-94361000D01*
X177619660Y-95568464D01*
X177851687Y-95688963D01*
X178128638Y-95590964D01*
X178381148Y-95440817D01*
X178599514Y-95244293D01*
X178775344Y-95008944D01*
X178901882Y-94743814D01*
X178947618Y-94593026D01*
X178826477Y-94361000D01*
X177619660Y-94361000D01*
X177365660Y-94361000D01*
X177345660Y-94361000D01*
X177345660Y-94107000D01*
X177365660Y-94107000D01*
X177365660Y-94087000D01*
X177619660Y-94087000D01*
X177619660Y-94107000D01*
X178826477Y-94107000D01*
X178947618Y-93874974D01*
X178901882Y-93724186D01*
X178775344Y-93459056D01*
X178683914Y-93336677D01*
X179299064Y-92721528D01*
X179328061Y-92697731D01*
X179423034Y-92582006D01*
X179493606Y-92449977D01*
X179537063Y-92306716D01*
X179548060Y-92195063D01*
X179548060Y-92195062D01*
X179551737Y-92157730D01*
X179548060Y-92120397D01*
X179548060Y-90486722D01*
X179551736Y-90449399D01*
X179548060Y-90412076D01*
X179548060Y-90412067D01*
X179537063Y-90300414D01*
X179493606Y-90157153D01*
X179423034Y-90025124D01*
X179328061Y-89909399D01*
X179299063Y-89885601D01*
X178944361Y-89530900D01*
X178969576Y-89447777D01*
X178998511Y-89154000D01*
X178969576Y-88860223D01*
X178883885Y-88577736D01*
X178744729Y-88317394D01*
X178557457Y-88089203D01*
X178329266Y-87901931D01*
X178068924Y-87762775D01*
X177786437Y-87677084D01*
X177566279Y-87655400D01*
X177419041Y-87655400D01*
X177198883Y-87677084D01*
X176916396Y-87762775D01*
X176913678Y-87764228D01*
X176844060Y-87679398D01*
X176815062Y-87655600D01*
X171452464Y-82293003D01*
X171428661Y-82263999D01*
X171312936Y-82169026D01*
X171180907Y-82098454D01*
X171037646Y-82054997D01*
X170925993Y-82044000D01*
X170925982Y-82044000D01*
X170888660Y-82040324D01*
X170851338Y-82044000D01*
X163423035Y-82044000D01*
X163320389Y-81975414D01*
X163150229Y-81904932D01*
X162969589Y-81869000D01*
X162785411Y-81869000D01*
X162758498Y-81874353D01*
X162758498Y-81594963D01*
X163885561Y-80467901D01*
X170439697Y-80467901D01*
X170477019Y-80471577D01*
X170514341Y-80467901D01*
X170514352Y-80467901D01*
X170626005Y-80456904D01*
X170769266Y-80413447D01*
X170901295Y-80342875D01*
X171017020Y-80247902D01*
X171040823Y-80218898D01*
X171329868Y-79929853D01*
X171450949Y-79905768D01*
X171621109Y-79835286D01*
X171774248Y-79732962D01*
X171904482Y-79602728D01*
X172006806Y-79449589D01*
X172077288Y-79279429D01*
X172113220Y-79098789D01*
X172113220Y-78914611D01*
X172077288Y-78733971D01*
X172006806Y-78563811D01*
X171904482Y-78410672D01*
X171774248Y-78280438D01*
X171621109Y-78178114D01*
X171450949Y-78107632D01*
X171270309Y-78071700D01*
X171086131Y-78071700D01*
X170905491Y-78107632D01*
X170735331Y-78178114D01*
X170582192Y-78280438D01*
X170451958Y-78410672D01*
X170349634Y-78563811D01*
X170279152Y-78733971D01*
X170255067Y-78855052D01*
X170162218Y-78947901D01*
X165651214Y-78947901D01*
X165661620Y-78895589D01*
X165661620Y-78711411D01*
X165625688Y-78530771D01*
X165555206Y-78360611D01*
X165452882Y-78207472D01*
X165322648Y-78077238D01*
X165169509Y-77974914D01*
X165124407Y-77956232D01*
X167225540Y-75855100D01*
X172362638Y-75855100D01*
X172399960Y-75858776D01*
X172437282Y-75855100D01*
X172437293Y-75855100D01*
X172548946Y-75844103D01*
X172692207Y-75800646D01*
X172824236Y-75730074D01*
X172939961Y-75635101D01*
X172963764Y-75606097D01*
X174448761Y-74121101D01*
X174531884Y-74146316D01*
X174825660Y-74175251D01*
X175119437Y-74146316D01*
X175401924Y-74060625D01*
X175662266Y-73921469D01*
X175890457Y-73734197D01*
X176077729Y-73506006D01*
X176216885Y-73245663D01*
X176302576Y-72963176D01*
X176324260Y-72743018D01*
X176324260Y-72290981D01*
X176302576Y-72070823D01*
X176216885Y-71788336D01*
X176077729Y-71527994D01*
X175890457Y-71299803D01*
X175662265Y-71112531D01*
X175585660Y-71071585D01*
X175585660Y-70488072D01*
X175689260Y-70488072D01*
X175813742Y-70475812D01*
X175933440Y-70439502D01*
X176043754Y-70380537D01*
X176140445Y-70301185D01*
X176219797Y-70204494D01*
X176278762Y-70094180D01*
X176315072Y-69974482D01*
X176327332Y-69850000D01*
X176327332Y-67970700D01*
X176520501Y-68163869D01*
X176520501Y-68163869D01*
G37*
X176520501Y-68163869D02*
X176520500Y-79214033D01*
X176516579Y-79262139D01*
X176525209Y-79336832D01*
X176532582Y-79411688D01*
X176534644Y-79418485D01*
X176535458Y-79425532D01*
X176558489Y-79497091D01*
X176580328Y-79569086D01*
X176583675Y-79575347D01*
X176585849Y-79582103D01*
X176622413Y-79647822D01*
X176657864Y-79714145D01*
X176662366Y-79719631D01*
X176665818Y-79725835D01*
X176714499Y-79783155D01*
X176762209Y-79841291D01*
X176799522Y-79871913D01*
X178885493Y-81888735D01*
X178618798Y-81710536D01*
X178133435Y-81509492D01*
X177618177Y-81407000D01*
X177092823Y-81407000D01*
X176577565Y-81509492D01*
X176092202Y-81710536D01*
X175655387Y-82002406D01*
X175283906Y-82373887D01*
X174992036Y-82810702D01*
X174790992Y-83296065D01*
X174688500Y-83811323D01*
X174688500Y-84336677D01*
X174790992Y-84851935D01*
X174992036Y-85337298D01*
X175283906Y-85774113D01*
X175655387Y-86145594D01*
X176092202Y-86437464D01*
X176577565Y-86638508D01*
X177092823Y-86741000D01*
X177618177Y-86741000D01*
X178133435Y-86638508D01*
X178618798Y-86437464D01*
X179055613Y-86145594D01*
X179427094Y-85774113D01*
X179718964Y-85337298D01*
X179920008Y-84851935D01*
X180022500Y-84336677D01*
X180022500Y-83811323D01*
X179920008Y-83296065D01*
X179718964Y-82810702D01*
X179499761Y-82482642D01*
X180658160Y-83602640D01*
X180658161Y-106136234D01*
X180615265Y-106101031D01*
X180354923Y-105961875D01*
X180072436Y-105876184D01*
X179778660Y-105847249D01*
X179484883Y-105876184D01*
X179450481Y-105886620D01*
X176748364Y-103184503D01*
X176724561Y-103155499D01*
X176608836Y-103060526D01*
X176476807Y-102989954D01*
X176333546Y-102946497D01*
X176221893Y-102935500D01*
X176221882Y-102935500D01*
X176184560Y-102931824D01*
X176147238Y-102935500D01*
X169161302Y-102935500D01*
X164415336Y-98189535D01*
X171719803Y-98189535D01*
X171757125Y-98193211D01*
X171794447Y-98189535D01*
X171794458Y-98189535D01*
X171906111Y-98178538D01*
X172049372Y-98135081D01*
X172181401Y-98064509D01*
X172297126Y-97969536D01*
X172320929Y-97940532D01*
X174575760Y-95685701D01*
X174658883Y-95710916D01*
X174879041Y-95732600D01*
X175026279Y-95732600D01*
X175246437Y-95710916D01*
X175528924Y-95625225D01*
X175789266Y-95486069D01*
X176017457Y-95298797D01*
X176204729Y-95070606D01*
X176226130Y-95030567D01*
X176385806Y-95244293D01*
X176604172Y-95440817D01*
X176856682Y-95590964D01*
X177133633Y-95688963D01*
X177365660Y-95568464D01*
X177365660Y-94361000D01*
X177619660Y-94361000D01*
X177619660Y-95568464D01*
X177851687Y-95688963D01*
X178128638Y-95590964D01*
X178381148Y-95440817D01*
X178599514Y-95244293D01*
X178775344Y-95008944D01*
X178901882Y-94743814D01*
X178947618Y-94593026D01*
X178826477Y-94361000D01*
X177619660Y-94361000D01*
X177365660Y-94361000D01*
X177345660Y-94361000D01*
X177345660Y-94107000D01*
X177365660Y-94107000D01*
X177365660Y-94087000D01*
X177619660Y-94087000D01*
X177619660Y-94107000D01*
X178826477Y-94107000D01*
X178947618Y-93874974D01*
X178901882Y-93724186D01*
X178775344Y-93459056D01*
X178683914Y-93336677D01*
X179299064Y-92721528D01*
X179328061Y-92697731D01*
X179423034Y-92582006D01*
X179493606Y-92449977D01*
X179537063Y-92306716D01*
X179548060Y-92195063D01*
X179548060Y-92195062D01*
X179551737Y-92157730D01*
X179548060Y-92120397D01*
X179548060Y-90486722D01*
X179551736Y-90449399D01*
X179548060Y-90412076D01*
X179548060Y-90412067D01*
X179537063Y-90300414D01*
X179493606Y-90157153D01*
X179423034Y-90025124D01*
X179328061Y-89909399D01*
X179299063Y-89885601D01*
X178944361Y-89530900D01*
X178969576Y-89447777D01*
X178998511Y-89154000D01*
X178969576Y-88860223D01*
X178883885Y-88577736D01*
X178744729Y-88317394D01*
X178557457Y-88089203D01*
X178329266Y-87901931D01*
X178068924Y-87762775D01*
X177786437Y-87677084D01*
X177566279Y-87655400D01*
X177419041Y-87655400D01*
X177198883Y-87677084D01*
X176916396Y-87762775D01*
X176913678Y-87764228D01*
X176844060Y-87679398D01*
X176815062Y-87655600D01*
X171452464Y-82293003D01*
X171428661Y-82263999D01*
X171312936Y-82169026D01*
X171180907Y-82098454D01*
X171037646Y-82054997D01*
X170925993Y-82044000D01*
X170925982Y-82044000D01*
X170888660Y-82040324D01*
X170851338Y-82044000D01*
X163423035Y-82044000D01*
X163320389Y-81975414D01*
X163150229Y-81904932D01*
X162969589Y-81869000D01*
X162785411Y-81869000D01*
X162758498Y-81874353D01*
X162758498Y-81594963D01*
X163885561Y-80467901D01*
X170439697Y-80467901D01*
X170477019Y-80471577D01*
X170514341Y-80467901D01*
X170514352Y-80467901D01*
X170626005Y-80456904D01*
X170769266Y-80413447D01*
X170901295Y-80342875D01*
X171017020Y-80247902D01*
X171040823Y-80218898D01*
X171329868Y-79929853D01*
X171450949Y-79905768D01*
X171621109Y-79835286D01*
X171774248Y-79732962D01*
X171904482Y-79602728D01*
X172006806Y-79449589D01*
X172077288Y-79279429D01*
X172113220Y-79098789D01*
X172113220Y-78914611D01*
X172077288Y-78733971D01*
X172006806Y-78563811D01*
X171904482Y-78410672D01*
X171774248Y-78280438D01*
X171621109Y-78178114D01*
X171450949Y-78107632D01*
X171270309Y-78071700D01*
X171086131Y-78071700D01*
X170905491Y-78107632D01*
X170735331Y-78178114D01*
X170582192Y-78280438D01*
X170451958Y-78410672D01*
X170349634Y-78563811D01*
X170279152Y-78733971D01*
X170255067Y-78855052D01*
X170162218Y-78947901D01*
X165651214Y-78947901D01*
X165661620Y-78895589D01*
X165661620Y-78711411D01*
X165625688Y-78530771D01*
X165555206Y-78360611D01*
X165452882Y-78207472D01*
X165322648Y-78077238D01*
X165169509Y-77974914D01*
X165124407Y-77956232D01*
X167225540Y-75855100D01*
X172362638Y-75855100D01*
X172399960Y-75858776D01*
X172437282Y-75855100D01*
X172437293Y-75855100D01*
X172548946Y-75844103D01*
X172692207Y-75800646D01*
X172824236Y-75730074D01*
X172939961Y-75635101D01*
X172963764Y-75606097D01*
X174448761Y-74121101D01*
X174531884Y-74146316D01*
X174825660Y-74175251D01*
X175119437Y-74146316D01*
X175401924Y-74060625D01*
X175662266Y-73921469D01*
X175890457Y-73734197D01*
X176077729Y-73506006D01*
X176216885Y-73245663D01*
X176302576Y-72963176D01*
X176324260Y-72743018D01*
X176324260Y-72290981D01*
X176302576Y-72070823D01*
X176216885Y-71788336D01*
X176077729Y-71527994D01*
X175890457Y-71299803D01*
X175662265Y-71112531D01*
X175585660Y-71071585D01*
X175585660Y-70488072D01*
X175689260Y-70488072D01*
X175813742Y-70475812D01*
X175933440Y-70439502D01*
X176043754Y-70380537D01*
X176140445Y-70301185D01*
X176219797Y-70204494D01*
X176278762Y-70094180D01*
X176315072Y-69974482D01*
X176327332Y-69850000D01*
X176327332Y-67970700D01*
X176520501Y-68163869D01*
G36*
X151847988Y-91886382D02*
G01*
X151747398Y-91986972D01*
X151645074Y-92140111D01*
X151574592Y-92310271D01*
X151547102Y-92448469D01*
X151538687Y-92458723D01*
X151492703Y-92544753D01*
X151468115Y-92590753D01*
X151424658Y-92734014D01*
X151413661Y-92845667D01*
X151413661Y-92845677D01*
X151409985Y-92882999D01*
X151413661Y-92920322D01*
X151413662Y-95557829D01*
X151409985Y-95595161D01*
X151413662Y-95632494D01*
X151424659Y-95744147D01*
X151437841Y-95787603D01*
X151468115Y-95887407D01*
X151538687Y-96019437D01*
X151600570Y-96094841D01*
X151633661Y-96135162D01*
X151662659Y-96158960D01*
X152892307Y-97388609D01*
X152916106Y-97417608D01*
X153001159Y-97487409D01*
X153031831Y-97512581D01*
X153163860Y-97583153D01*
X153307121Y-97626610D01*
X153456107Y-97641284D01*
X153493440Y-97637607D01*
X154242758Y-97637607D01*
X154160398Y-97719967D01*
X154086204Y-97831006D01*
X153994560Y-97831006D01*
X153813920Y-97866938D01*
X153643760Y-97937420D01*
X153490621Y-98039744D01*
X153367553Y-98162812D01*
X152793345Y-97588604D01*
X152769542Y-97559600D01*
X152653817Y-97464627D01*
X152521788Y-97394055D01*
X152378527Y-97350598D01*
X152266874Y-97339601D01*
X152266863Y-97339601D01*
X152229541Y-97335925D01*
X152192219Y-97339601D01*
X149567404Y-97339601D01*
X149530079Y-97335925D01*
X149492754Y-97339601D01*
X149492746Y-97339601D01*
X149381093Y-97350598D01*
X149237832Y-97394055D01*
X149105803Y-97464627D01*
X149095549Y-97473042D01*
X148957351Y-97500532D01*
X148787191Y-97571014D01*
X148684545Y-97639600D01*
X146093022Y-97639600D01*
X142368787Y-93915366D01*
X142368787Y-92215456D01*
X142375801Y-92224003D01*
X142404799Y-92247801D01*
X142491526Y-92318976D01*
X142623555Y-92389548D01*
X142766816Y-92433005D01*
X142915802Y-92447679D01*
X142953135Y-92444002D01*
X147847032Y-92444002D01*
X147866192Y-92540327D01*
X147936674Y-92710487D01*
X148038998Y-92863626D01*
X148169232Y-92993860D01*
X148322371Y-93096184D01*
X148492531Y-93166666D01*
X148673171Y-93202598D01*
X148857349Y-93202598D01*
X149037989Y-93166666D01*
X149208149Y-93096184D01*
X149361288Y-92993860D01*
X149491522Y-92863626D01*
X149593846Y-92710487D01*
X149664328Y-92540327D01*
X149700260Y-92359687D01*
X149700260Y-92175509D01*
X149664328Y-91994869D01*
X149593846Y-91824709D01*
X149491522Y-91671570D01*
X149361288Y-91541336D01*
X149256052Y-91471020D01*
X151432626Y-91471020D01*
X151847988Y-91886382D01*
X151847988Y-91886382D01*
G37*
X151847988Y-91886382D02*
X151747398Y-91986972D01*
X151645074Y-92140111D01*
X151574592Y-92310271D01*
X151547102Y-92448469D01*
X151538687Y-92458723D01*
X151492703Y-92544753D01*
X151468115Y-92590753D01*
X151424658Y-92734014D01*
X151413661Y-92845667D01*
X151413661Y-92845677D01*
X151409985Y-92882999D01*
X151413661Y-92920322D01*
X151413662Y-95557829D01*
X151409985Y-95595161D01*
X151413662Y-95632494D01*
X151424659Y-95744147D01*
X151437841Y-95787603D01*
X151468115Y-95887407D01*
X151538687Y-96019437D01*
X151600570Y-96094841D01*
X151633661Y-96135162D01*
X151662659Y-96158960D01*
X152892307Y-97388609D01*
X152916106Y-97417608D01*
X153001159Y-97487409D01*
X153031831Y-97512581D01*
X153163860Y-97583153D01*
X153307121Y-97626610D01*
X153456107Y-97641284D01*
X153493440Y-97637607D01*
X154242758Y-97637607D01*
X154160398Y-97719967D01*
X154086204Y-97831006D01*
X153994560Y-97831006D01*
X153813920Y-97866938D01*
X153643760Y-97937420D01*
X153490621Y-98039744D01*
X153367553Y-98162812D01*
X152793345Y-97588604D01*
X152769542Y-97559600D01*
X152653817Y-97464627D01*
X152521788Y-97394055D01*
X152378527Y-97350598D01*
X152266874Y-97339601D01*
X152266863Y-97339601D01*
X152229541Y-97335925D01*
X152192219Y-97339601D01*
X149567404Y-97339601D01*
X149530079Y-97335925D01*
X149492754Y-97339601D01*
X149492746Y-97339601D01*
X149381093Y-97350598D01*
X149237832Y-97394055D01*
X149105803Y-97464627D01*
X149095549Y-97473042D01*
X148957351Y-97500532D01*
X148787191Y-97571014D01*
X148684545Y-97639600D01*
X146093022Y-97639600D01*
X142368787Y-93915366D01*
X142368787Y-92215456D01*
X142375801Y-92224003D01*
X142404799Y-92247801D01*
X142491526Y-92318976D01*
X142623555Y-92389548D01*
X142766816Y-92433005D01*
X142915802Y-92447679D01*
X142953135Y-92444002D01*
X147847032Y-92444002D01*
X147866192Y-92540327D01*
X147936674Y-92710487D01*
X148038998Y-92863626D01*
X148169232Y-92993860D01*
X148322371Y-93096184D01*
X148492531Y-93166666D01*
X148673171Y-93202598D01*
X148857349Y-93202598D01*
X149037989Y-93166666D01*
X149208149Y-93096184D01*
X149361288Y-92993860D01*
X149491522Y-92863626D01*
X149593846Y-92710487D01*
X149664328Y-92540327D01*
X149700260Y-92359687D01*
X149700260Y-92175509D01*
X149664328Y-91994869D01*
X149593846Y-91824709D01*
X149491522Y-91671570D01*
X149361288Y-91541336D01*
X149256052Y-91471020D01*
X151432626Y-91471020D01*
X151847988Y-91886382D01*
G36*
X172541660Y-88071802D02*
G01*
X172541661Y-90005668D01*
X172537984Y-90043000D01*
X172541661Y-90080333D01*
X172552658Y-90191986D01*
X172560271Y-90217084D01*
X172596114Y-90335246D01*
X172666686Y-90467276D01*
X172713230Y-90523989D01*
X172761660Y-90583001D01*
X172790658Y-90606799D01*
X173500959Y-91317100D01*
X173475744Y-91400223D01*
X173446809Y-91694000D01*
X173475744Y-91987777D01*
X173561435Y-92270264D01*
X173569525Y-92285399D01*
X170860681Y-92285399D01*
X169288384Y-90713103D01*
X169264581Y-90684099D01*
X169148856Y-90589126D01*
X169016827Y-90518554D01*
X168873566Y-90475097D01*
X168761913Y-90464100D01*
X168761902Y-90464100D01*
X168724580Y-90460424D01*
X168687258Y-90464100D01*
X165058140Y-90464100D01*
X165020817Y-90460424D01*
X164983494Y-90464100D01*
X164983485Y-90464100D01*
X164871832Y-90475097D01*
X164749267Y-90512276D01*
X164728571Y-90518554D01*
X164596541Y-90589126D01*
X164538559Y-90636711D01*
X164480817Y-90684099D01*
X164457019Y-90713098D01*
X163773937Y-91396180D01*
X163744939Y-91419978D01*
X163649965Y-91535703D01*
X163579393Y-91667732D01*
X163535936Y-91810993D01*
X163524939Y-91922646D01*
X163524939Y-91922657D01*
X163524333Y-91928813D01*
X163388912Y-92019298D01*
X163258678Y-92149532D01*
X163156354Y-92302671D01*
X163085872Y-92472831D01*
X163049940Y-92653471D01*
X163049940Y-92837649D01*
X163085872Y-93018289D01*
X163156354Y-93188449D01*
X163258678Y-93341588D01*
X163388912Y-93471822D01*
X163542051Y-93574146D01*
X163712211Y-93644628D01*
X163892851Y-93680560D01*
X164077029Y-93680560D01*
X164257669Y-93644628D01*
X164427829Y-93574146D01*
X164580968Y-93471822D01*
X164711202Y-93341588D01*
X164813526Y-93188449D01*
X164884008Y-93018289D01*
X164900605Y-92934851D01*
X165048551Y-92964280D01*
X165232729Y-92964280D01*
X165413369Y-92928348D01*
X165583529Y-92857866D01*
X165686175Y-92789280D01*
X167188438Y-92789280D01*
X167823311Y-93424154D01*
X167847396Y-93545234D01*
X167917878Y-93715394D01*
X168020202Y-93868533D01*
X168150436Y-93998767D01*
X168303575Y-94101091D01*
X168473735Y-94171573D01*
X168654375Y-94207505D01*
X168838553Y-94207505D01*
X168951910Y-94184957D01*
X168951910Y-94299347D01*
X169005157Y-94567036D01*
X169109604Y-94819193D01*
X169261238Y-95046129D01*
X169454231Y-95239122D01*
X169681167Y-95390756D01*
X169933324Y-95495203D01*
X170201013Y-95548450D01*
X170473947Y-95548450D01*
X170741636Y-95495203D01*
X170993793Y-95390756D01*
X171220729Y-95239122D01*
X171413722Y-95046129D01*
X171565356Y-94819193D01*
X171669803Y-94567036D01*
X171723050Y-94299347D01*
X171723050Y-94026413D01*
X171679087Y-93805399D01*
X173516642Y-93805399D01*
X173475744Y-93940223D01*
X173446809Y-94234000D01*
X173475744Y-94527777D01*
X173500959Y-94610900D01*
X171442324Y-96669535D01*
X162571163Y-96669535D01*
X162468517Y-96600949D01*
X162298357Y-96530467D01*
X162117717Y-96494535D01*
X161933539Y-96494535D01*
X161752899Y-96530467D01*
X161582739Y-96600949D01*
X161429600Y-96703273D01*
X161299366Y-96833507D01*
X161219160Y-96953544D01*
X161219160Y-96872411D01*
X161183228Y-96691771D01*
X161112746Y-96521611D01*
X161010422Y-96368472D01*
X160880188Y-96238238D01*
X160744161Y-96147348D01*
X160744161Y-94836488D01*
X160882007Y-94809068D01*
X161052167Y-94738586D01*
X161205306Y-94636262D01*
X161335540Y-94506028D01*
X161437864Y-94352889D01*
X161508346Y-94182729D01*
X161544278Y-94002089D01*
X161544278Y-93817911D01*
X161508346Y-93637271D01*
X161437864Y-93467111D01*
X161369278Y-93364465D01*
X161369278Y-93298572D01*
X161544949Y-93263628D01*
X161715109Y-93193146D01*
X161868248Y-93090822D01*
X161998482Y-92960588D01*
X162100806Y-92807449D01*
X162171288Y-92637289D01*
X162195373Y-92516209D01*
X162509502Y-92202080D01*
X162538499Y-92178283D01*
X162633472Y-92062558D01*
X162704044Y-91930529D01*
X162747501Y-91787268D01*
X162758498Y-91675615D01*
X162758498Y-91675606D01*
X162762174Y-91638283D01*
X162758498Y-91600960D01*
X162758498Y-89144533D01*
X168951910Y-89144533D01*
X168951910Y-89417467D01*
X169005157Y-89685156D01*
X169109604Y-89937313D01*
X169261238Y-90164249D01*
X169454231Y-90357242D01*
X169681167Y-90508876D01*
X169933324Y-90613323D01*
X170201013Y-90666570D01*
X170473947Y-90666570D01*
X170741636Y-90613323D01*
X170993793Y-90508876D01*
X171220729Y-90357242D01*
X171413722Y-90164249D01*
X171565356Y-89937313D01*
X171669803Y-89685156D01*
X171723050Y-89417467D01*
X171723050Y-89144533D01*
X171669803Y-88876844D01*
X171565356Y-88624687D01*
X171413722Y-88397751D01*
X171220729Y-88204758D01*
X170993793Y-88053124D01*
X170741636Y-87948677D01*
X170473947Y-87895430D01*
X170201013Y-87895430D01*
X169933324Y-87948677D01*
X169681167Y-88053124D01*
X169454231Y-88204758D01*
X169261238Y-88397751D01*
X169109604Y-88624687D01*
X169005157Y-88876844D01*
X168951910Y-89144533D01*
X162758498Y-89144533D01*
X162758498Y-85453500D01*
X162779089Y-85453500D01*
X162959729Y-85417568D01*
X163129889Y-85347086D01*
X163232535Y-85278500D01*
X169748359Y-85278500D01*
X172541660Y-88071802D01*
X172541660Y-88071802D01*
G37*
X172541660Y-88071802D02*
X172541661Y-90005668D01*
X172537984Y-90043000D01*
X172541661Y-90080333D01*
X172552658Y-90191986D01*
X172560271Y-90217084D01*
X172596114Y-90335246D01*
X172666686Y-90467276D01*
X172713230Y-90523989D01*
X172761660Y-90583001D01*
X172790658Y-90606799D01*
X173500959Y-91317100D01*
X173475744Y-91400223D01*
X173446809Y-91694000D01*
X173475744Y-91987777D01*
X173561435Y-92270264D01*
X173569525Y-92285399D01*
X170860681Y-92285399D01*
X169288384Y-90713103D01*
X169264581Y-90684099D01*
X169148856Y-90589126D01*
X169016827Y-90518554D01*
X168873566Y-90475097D01*
X168761913Y-90464100D01*
X168761902Y-90464100D01*
X168724580Y-90460424D01*
X168687258Y-90464100D01*
X165058140Y-90464100D01*
X165020817Y-90460424D01*
X164983494Y-90464100D01*
X164983485Y-90464100D01*
X164871832Y-90475097D01*
X164749267Y-90512276D01*
X164728571Y-90518554D01*
X164596541Y-90589126D01*
X164538559Y-90636711D01*
X164480817Y-90684099D01*
X164457019Y-90713098D01*
X163773937Y-91396180D01*
X163744939Y-91419978D01*
X163649965Y-91535703D01*
X163579393Y-91667732D01*
X163535936Y-91810993D01*
X163524939Y-91922646D01*
X163524939Y-91922657D01*
X163524333Y-91928813D01*
X163388912Y-92019298D01*
X163258678Y-92149532D01*
X163156354Y-92302671D01*
X163085872Y-92472831D01*
X163049940Y-92653471D01*
X163049940Y-92837649D01*
X163085872Y-93018289D01*
X163156354Y-93188449D01*
X163258678Y-93341588D01*
X163388912Y-93471822D01*
X163542051Y-93574146D01*
X163712211Y-93644628D01*
X163892851Y-93680560D01*
X164077029Y-93680560D01*
X164257669Y-93644628D01*
X164427829Y-93574146D01*
X164580968Y-93471822D01*
X164711202Y-93341588D01*
X164813526Y-93188449D01*
X164884008Y-93018289D01*
X164900605Y-92934851D01*
X165048551Y-92964280D01*
X165232729Y-92964280D01*
X165413369Y-92928348D01*
X165583529Y-92857866D01*
X165686175Y-92789280D01*
X167188438Y-92789280D01*
X167823311Y-93424154D01*
X167847396Y-93545234D01*
X167917878Y-93715394D01*
X168020202Y-93868533D01*
X168150436Y-93998767D01*
X168303575Y-94101091D01*
X168473735Y-94171573D01*
X168654375Y-94207505D01*
X168838553Y-94207505D01*
X168951910Y-94184957D01*
X168951910Y-94299347D01*
X169005157Y-94567036D01*
X169109604Y-94819193D01*
X169261238Y-95046129D01*
X169454231Y-95239122D01*
X169681167Y-95390756D01*
X169933324Y-95495203D01*
X170201013Y-95548450D01*
X170473947Y-95548450D01*
X170741636Y-95495203D01*
X170993793Y-95390756D01*
X171220729Y-95239122D01*
X171413722Y-95046129D01*
X171565356Y-94819193D01*
X171669803Y-94567036D01*
X171723050Y-94299347D01*
X171723050Y-94026413D01*
X171679087Y-93805399D01*
X173516642Y-93805399D01*
X173475744Y-93940223D01*
X173446809Y-94234000D01*
X173475744Y-94527777D01*
X173500959Y-94610900D01*
X171442324Y-96669535D01*
X162571163Y-96669535D01*
X162468517Y-96600949D01*
X162298357Y-96530467D01*
X162117717Y-96494535D01*
X161933539Y-96494535D01*
X161752899Y-96530467D01*
X161582739Y-96600949D01*
X161429600Y-96703273D01*
X161299366Y-96833507D01*
X161219160Y-96953544D01*
X161219160Y-96872411D01*
X161183228Y-96691771D01*
X161112746Y-96521611D01*
X161010422Y-96368472D01*
X160880188Y-96238238D01*
X160744161Y-96147348D01*
X160744161Y-94836488D01*
X160882007Y-94809068D01*
X161052167Y-94738586D01*
X161205306Y-94636262D01*
X161335540Y-94506028D01*
X161437864Y-94352889D01*
X161508346Y-94182729D01*
X161544278Y-94002089D01*
X161544278Y-93817911D01*
X161508346Y-93637271D01*
X161437864Y-93467111D01*
X161369278Y-93364465D01*
X161369278Y-93298572D01*
X161544949Y-93263628D01*
X161715109Y-93193146D01*
X161868248Y-93090822D01*
X161998482Y-92960588D01*
X162100806Y-92807449D01*
X162171288Y-92637289D01*
X162195373Y-92516209D01*
X162509502Y-92202080D01*
X162538499Y-92178283D01*
X162633472Y-92062558D01*
X162704044Y-91930529D01*
X162747501Y-91787268D01*
X162758498Y-91675615D01*
X162758498Y-91675606D01*
X162762174Y-91638283D01*
X162758498Y-91600960D01*
X162758498Y-89144533D01*
X168951910Y-89144533D01*
X168951910Y-89417467D01*
X169005157Y-89685156D01*
X169109604Y-89937313D01*
X169261238Y-90164249D01*
X169454231Y-90357242D01*
X169681167Y-90508876D01*
X169933324Y-90613323D01*
X170201013Y-90666570D01*
X170473947Y-90666570D01*
X170741636Y-90613323D01*
X170993793Y-90508876D01*
X171220729Y-90357242D01*
X171413722Y-90164249D01*
X171565356Y-89937313D01*
X171669803Y-89685156D01*
X171723050Y-89417467D01*
X171723050Y-89144533D01*
X171669803Y-88876844D01*
X171565356Y-88624687D01*
X171413722Y-88397751D01*
X171220729Y-88204758D01*
X170993793Y-88053124D01*
X170741636Y-87948677D01*
X170473947Y-87895430D01*
X170201013Y-87895430D01*
X169933324Y-87948677D01*
X169681167Y-88053124D01*
X169454231Y-88204758D01*
X169261238Y-88397751D01*
X169109604Y-88624687D01*
X169005157Y-88876844D01*
X168951910Y-89144533D01*
X162758498Y-89144533D01*
X162758498Y-85453500D01*
X162779089Y-85453500D01*
X162959729Y-85417568D01*
X163129889Y-85347086D01*
X163232535Y-85278500D01*
X169748359Y-85278500D01*
X172541660Y-88071802D01*
G36*
X143906600Y-78204802D02*
G01*
X143930398Y-78233800D01*
X144046123Y-78328773D01*
X144178152Y-78399345D01*
X144321413Y-78442802D01*
X144433066Y-78453799D01*
X144433075Y-78453799D01*
X144470398Y-78457475D01*
X144507721Y-78453799D01*
X158812223Y-78453799D01*
X158842820Y-78607617D01*
X158913302Y-78777777D01*
X158991320Y-78894539D01*
X158683665Y-79202194D01*
X158654661Y-79225997D01*
X158602941Y-79289019D01*
X158559688Y-79341722D01*
X158500563Y-79452337D01*
X158489116Y-79473752D01*
X158445659Y-79617013D01*
X158434662Y-79728666D01*
X158434662Y-79728676D01*
X158430986Y-79765998D01*
X158434662Y-79803321D01*
X158434663Y-81901001D01*
X158286771Y-81930419D01*
X158116611Y-82000901D01*
X158013965Y-82069487D01*
X153841714Y-82069487D01*
X153809319Y-82021005D01*
X153679085Y-81890771D01*
X153525946Y-81788447D01*
X153355786Y-81717965D01*
X153175146Y-81682033D01*
X152990968Y-81682033D01*
X152810328Y-81717965D01*
X152640168Y-81788447D01*
X152487029Y-81890771D01*
X152356795Y-82021005D01*
X152254471Y-82174144D01*
X152183989Y-82344304D01*
X152148057Y-82524944D01*
X152148057Y-82618868D01*
X152015167Y-82673912D01*
X151862028Y-82776236D01*
X151731794Y-82906470D01*
X151629470Y-83059609D01*
X151558988Y-83229769D01*
X151523056Y-83410409D01*
X151523056Y-83504061D01*
X151517671Y-83505132D01*
X151347511Y-83575614D01*
X151194372Y-83677938D01*
X151064138Y-83808172D01*
X150961814Y-83961311D01*
X150891332Y-84131471D01*
X150855400Y-84312111D01*
X150855400Y-84496289D01*
X150891332Y-84676929D01*
X150961814Y-84847089D01*
X151064138Y-85000228D01*
X151194372Y-85130462D01*
X151347511Y-85232786D01*
X151517671Y-85303268D01*
X151698311Y-85339200D01*
X151882489Y-85339200D01*
X152063129Y-85303268D01*
X152122925Y-85278500D01*
X156693141Y-85278500D01*
X156590680Y-85380961D01*
X156488356Y-85534100D01*
X156417874Y-85704260D01*
X156393789Y-85825340D01*
X155371070Y-86848060D01*
X155342072Y-86871858D01*
X155318274Y-86900856D01*
X155318273Y-86900857D01*
X155247098Y-86987583D01*
X155176526Y-87119613D01*
X155154403Y-87192546D01*
X155142718Y-87231069D01*
X155133070Y-87262874D01*
X155118396Y-87411859D01*
X155122073Y-87449191D01*
X155122072Y-91455536D01*
X155053486Y-91558183D01*
X154983004Y-91728343D01*
X154947072Y-91908983D01*
X154947072Y-92049114D01*
X152300418Y-89402461D01*
X152276615Y-89373457D01*
X152160890Y-89278484D01*
X152028861Y-89207912D01*
X151885600Y-89164455D01*
X151773947Y-89153458D01*
X151773936Y-89153458D01*
X151736614Y-89149782D01*
X151699292Y-89153458D01*
X144433995Y-89153458D01*
X144331349Y-89084872D01*
X144161189Y-89014390D01*
X143980549Y-88978458D01*
X143796371Y-88978458D01*
X143615731Y-89014390D01*
X143445571Y-89084872D01*
X143292432Y-89187196D01*
X143162198Y-89317430D01*
X143059874Y-89470569D01*
X142989392Y-89640729D01*
X142953460Y-89821369D01*
X142953460Y-90005547D01*
X142989392Y-90186187D01*
X143013675Y-90244812D01*
X142986214Y-90285911D01*
X142915732Y-90456071D01*
X142890337Y-90583736D01*
X142847600Y-90540999D01*
X142847600Y-77145801D01*
X143906600Y-78204802D01*
X143906600Y-78204802D01*
G37*
X143906600Y-78204802D02*
X143930398Y-78233800D01*
X144046123Y-78328773D01*
X144178152Y-78399345D01*
X144321413Y-78442802D01*
X144433066Y-78453799D01*
X144433075Y-78453799D01*
X144470398Y-78457475D01*
X144507721Y-78453799D01*
X158812223Y-78453799D01*
X158842820Y-78607617D01*
X158913302Y-78777777D01*
X158991320Y-78894539D01*
X158683665Y-79202194D01*
X158654661Y-79225997D01*
X158602941Y-79289019D01*
X158559688Y-79341722D01*
X158500563Y-79452337D01*
X158489116Y-79473752D01*
X158445659Y-79617013D01*
X158434662Y-79728666D01*
X158434662Y-79728676D01*
X158430986Y-79765998D01*
X158434662Y-79803321D01*
X158434663Y-81901001D01*
X158286771Y-81930419D01*
X158116611Y-82000901D01*
X158013965Y-82069487D01*
X153841714Y-82069487D01*
X153809319Y-82021005D01*
X153679085Y-81890771D01*
X153525946Y-81788447D01*
X153355786Y-81717965D01*
X153175146Y-81682033D01*
X152990968Y-81682033D01*
X152810328Y-81717965D01*
X152640168Y-81788447D01*
X152487029Y-81890771D01*
X152356795Y-82021005D01*
X152254471Y-82174144D01*
X152183989Y-82344304D01*
X152148057Y-82524944D01*
X152148057Y-82618868D01*
X152015167Y-82673912D01*
X151862028Y-82776236D01*
X151731794Y-82906470D01*
X151629470Y-83059609D01*
X151558988Y-83229769D01*
X151523056Y-83410409D01*
X151523056Y-83504061D01*
X151517671Y-83505132D01*
X151347511Y-83575614D01*
X151194372Y-83677938D01*
X151064138Y-83808172D01*
X150961814Y-83961311D01*
X150891332Y-84131471D01*
X150855400Y-84312111D01*
X150855400Y-84496289D01*
X150891332Y-84676929D01*
X150961814Y-84847089D01*
X151064138Y-85000228D01*
X151194372Y-85130462D01*
X151347511Y-85232786D01*
X151517671Y-85303268D01*
X151698311Y-85339200D01*
X151882489Y-85339200D01*
X152063129Y-85303268D01*
X152122925Y-85278500D01*
X156693141Y-85278500D01*
X156590680Y-85380961D01*
X156488356Y-85534100D01*
X156417874Y-85704260D01*
X156393789Y-85825340D01*
X155371070Y-86848060D01*
X155342072Y-86871858D01*
X155318274Y-86900856D01*
X155318273Y-86900857D01*
X155247098Y-86987583D01*
X155176526Y-87119613D01*
X155154403Y-87192546D01*
X155142718Y-87231069D01*
X155133070Y-87262874D01*
X155118396Y-87411859D01*
X155122073Y-87449191D01*
X155122072Y-91455536D01*
X155053486Y-91558183D01*
X154983004Y-91728343D01*
X154947072Y-91908983D01*
X154947072Y-92049114D01*
X152300418Y-89402461D01*
X152276615Y-89373457D01*
X152160890Y-89278484D01*
X152028861Y-89207912D01*
X151885600Y-89164455D01*
X151773947Y-89153458D01*
X151773936Y-89153458D01*
X151736614Y-89149782D01*
X151699292Y-89153458D01*
X144433995Y-89153458D01*
X144331349Y-89084872D01*
X144161189Y-89014390D01*
X143980549Y-88978458D01*
X143796371Y-88978458D01*
X143615731Y-89014390D01*
X143445571Y-89084872D01*
X143292432Y-89187196D01*
X143162198Y-89317430D01*
X143059874Y-89470569D01*
X142989392Y-89640729D01*
X142953460Y-89821369D01*
X142953460Y-90005547D01*
X142989392Y-90186187D01*
X143013675Y-90244812D01*
X142986214Y-90285911D01*
X142915732Y-90456071D01*
X142890337Y-90583736D01*
X142847600Y-90540999D01*
X142847600Y-77145801D01*
X143906600Y-78204802D01*
G36*
X175536561Y-67179928D02*
G01*
X173962060Y-67179928D01*
X173837578Y-67192188D01*
X173717880Y-67228498D01*
X173607566Y-67287463D01*
X173510875Y-67366815D01*
X173431523Y-67463506D01*
X173372558Y-67573820D01*
X173357074Y-67624865D01*
X173350457Y-67616803D01*
X173122266Y-67429531D01*
X172861924Y-67290375D01*
X172579437Y-67204684D01*
X172285660Y-67175749D01*
X171991884Y-67204684D01*
X171709397Y-67290375D01*
X171449055Y-67429531D01*
X171220863Y-67616803D01*
X171033591Y-67844994D01*
X171015660Y-67878541D01*
X170997729Y-67844994D01*
X170810457Y-67616803D01*
X170582266Y-67429531D01*
X170321924Y-67290375D01*
X170039437Y-67204684D01*
X169745660Y-67175749D01*
X169451884Y-67204684D01*
X169169397Y-67290375D01*
X168909055Y-67429531D01*
X168680863Y-67616803D01*
X168493591Y-67844994D01*
X168475660Y-67878541D01*
X168457729Y-67844994D01*
X168270457Y-67616803D01*
X168042266Y-67429531D01*
X167781924Y-67290375D01*
X167499437Y-67204684D01*
X167205660Y-67175749D01*
X166911884Y-67204684D01*
X166629397Y-67290375D01*
X166369055Y-67429531D01*
X166140863Y-67616803D01*
X165953591Y-67844994D01*
X165935660Y-67878541D01*
X165917729Y-67844994D01*
X165730457Y-67616803D01*
X165502266Y-67429531D01*
X165241924Y-67290375D01*
X164959437Y-67204684D01*
X164665660Y-67175749D01*
X164371884Y-67204684D01*
X164089397Y-67290375D01*
X163829055Y-67429531D01*
X163600863Y-67616803D01*
X163413591Y-67844994D01*
X163395660Y-67878541D01*
X163377729Y-67844994D01*
X163190457Y-67616803D01*
X162962266Y-67429531D01*
X162701924Y-67290375D01*
X162419437Y-67204684D01*
X162125660Y-67175749D01*
X161831884Y-67204684D01*
X161549397Y-67290375D01*
X161289055Y-67429531D01*
X161060863Y-67616803D01*
X160873591Y-67844994D01*
X160855660Y-67878541D01*
X160837729Y-67844994D01*
X160650457Y-67616803D01*
X160422266Y-67429531D01*
X160161924Y-67290375D01*
X159879437Y-67204684D01*
X159585660Y-67175749D01*
X159291884Y-67204684D01*
X159009397Y-67290375D01*
X158749055Y-67429531D01*
X158520863Y-67616803D01*
X158333591Y-67844994D01*
X158315660Y-67878541D01*
X158297729Y-67844994D01*
X158110457Y-67616803D01*
X157882266Y-67429531D01*
X157621924Y-67290375D01*
X157339437Y-67204684D01*
X157045660Y-67175749D01*
X156751884Y-67204684D01*
X156469397Y-67290375D01*
X156209055Y-67429531D01*
X155980863Y-67616803D01*
X155793591Y-67844994D01*
X155654435Y-68105336D01*
X155568744Y-68387823D01*
X155547060Y-68607981D01*
X155547060Y-69060018D01*
X155568744Y-69280176D01*
X155654435Y-69562663D01*
X155793591Y-69823005D01*
X155980863Y-70051197D01*
X156209054Y-70238469D01*
X156285660Y-70279416D01*
X156285660Y-70862928D01*
X156182060Y-70862928D01*
X156057578Y-70875188D01*
X155937880Y-70911498D01*
X155827566Y-70970463D01*
X155730875Y-71049815D01*
X155651523Y-71146506D01*
X155592558Y-71256820D01*
X155556248Y-71376518D01*
X155543988Y-71501000D01*
X155543988Y-73533000D01*
X155556248Y-73657482D01*
X155592558Y-73777180D01*
X155651523Y-73887494D01*
X155730875Y-73984185D01*
X155827566Y-74063537D01*
X155937880Y-74122502D01*
X156057578Y-74158812D01*
X156182060Y-74171072D01*
X157909260Y-74171072D01*
X158033742Y-74158812D01*
X158153440Y-74122502D01*
X158263754Y-74063537D01*
X158360445Y-73984185D01*
X158439797Y-73887494D01*
X158498762Y-73777180D01*
X158514246Y-73726135D01*
X158520863Y-73734197D01*
X158749055Y-73921469D01*
X159009397Y-74060625D01*
X159291884Y-74146316D01*
X159585660Y-74175251D01*
X159879437Y-74146316D01*
X160161924Y-74060625D01*
X160422266Y-73921469D01*
X160650457Y-73734197D01*
X160837729Y-73506006D01*
X160855660Y-73472459D01*
X160873591Y-73506006D01*
X161060863Y-73734197D01*
X161289055Y-73921469D01*
X161549397Y-74060625D01*
X161831884Y-74146316D01*
X162125660Y-74175251D01*
X162419437Y-74146316D01*
X162701924Y-74060625D01*
X162962266Y-73921469D01*
X163190457Y-73734197D01*
X163377729Y-73506006D01*
X163395660Y-73472459D01*
X163413591Y-73506006D01*
X163600863Y-73734197D01*
X163829055Y-73921469D01*
X163905661Y-73962416D01*
X163905661Y-73980197D01*
X160965160Y-76920699D01*
X160965160Y-76888011D01*
X160929228Y-76707371D01*
X160858746Y-76537211D01*
X160756422Y-76384072D01*
X160626188Y-76253838D01*
X160473049Y-76151514D01*
X160302889Y-76081032D01*
X160122249Y-76045100D01*
X159938071Y-76045100D01*
X159757431Y-76081032D01*
X159587271Y-76151514D01*
X159434132Y-76253838D01*
X159303898Y-76384072D01*
X159249655Y-76465253D01*
X159232422Y-76439462D01*
X159102188Y-76309228D01*
X158949049Y-76206904D01*
X158778889Y-76136422D01*
X158598249Y-76100490D01*
X158414071Y-76100490D01*
X158233431Y-76136422D01*
X158063271Y-76206904D01*
X157960625Y-76275490D01*
X145498492Y-76275490D01*
X144585553Y-75362552D01*
X144561468Y-75241471D01*
X144490986Y-75071311D01*
X144388662Y-74918172D01*
X144258428Y-74787938D01*
X144105289Y-74685614D01*
X143935129Y-74615132D01*
X143754489Y-74579200D01*
X143570311Y-74579200D01*
X143389671Y-74615132D01*
X143219511Y-74685614D01*
X143066372Y-74787938D01*
X142936138Y-74918172D01*
X142833814Y-75071311D01*
X142787160Y-75183944D01*
X142756015Y-75125676D01*
X142722574Y-75063112D01*
X142651399Y-74976386D01*
X142627601Y-74947388D01*
X142598604Y-74923591D01*
X141378983Y-73703971D01*
X141375123Y-73699268D01*
X141533729Y-73506006D01*
X141551660Y-73472459D01*
X141569591Y-73506006D01*
X141756863Y-73734197D01*
X141985055Y-73921469D01*
X142245397Y-74060625D01*
X142527884Y-74146316D01*
X142821660Y-74175251D01*
X143115437Y-74146316D01*
X143397924Y-74060625D01*
X143658266Y-73921469D01*
X143886457Y-73734197D01*
X144073729Y-73506006D01*
X144091660Y-73472459D01*
X144109591Y-73506006D01*
X144296863Y-73734197D01*
X144525055Y-73921469D01*
X144785397Y-74060625D01*
X145067884Y-74146316D01*
X145361660Y-74175251D01*
X145655437Y-74146316D01*
X145937924Y-74060625D01*
X146198266Y-73921469D01*
X146426457Y-73734197D01*
X146613729Y-73506006D01*
X146631660Y-73472459D01*
X146649591Y-73506006D01*
X146836863Y-73734197D01*
X147065055Y-73921469D01*
X147325397Y-74060625D01*
X147607884Y-74146316D01*
X147901660Y-74175251D01*
X148195437Y-74146316D01*
X148477924Y-74060625D01*
X148738266Y-73921469D01*
X148966457Y-73734197D01*
X149153729Y-73506006D01*
X149171660Y-73472459D01*
X149189591Y-73506006D01*
X149376863Y-73734197D01*
X149605055Y-73921469D01*
X149865397Y-74060625D01*
X150147884Y-74146316D01*
X150441660Y-74175251D01*
X150735437Y-74146316D01*
X151017924Y-74060625D01*
X151278266Y-73921469D01*
X151506457Y-73734197D01*
X151693729Y-73506006D01*
X151711660Y-73472459D01*
X151729591Y-73506006D01*
X151916863Y-73734197D01*
X152145055Y-73921469D01*
X152405397Y-74060625D01*
X152687884Y-74146316D01*
X152981660Y-74175251D01*
X153275437Y-74146316D01*
X153557924Y-74060625D01*
X153818266Y-73921469D01*
X154046457Y-73734197D01*
X154233729Y-73506006D01*
X154372885Y-73245663D01*
X154458576Y-72963176D01*
X154480260Y-72743018D01*
X154480260Y-72290981D01*
X154458576Y-72070823D01*
X154372885Y-71788336D01*
X154233729Y-71527994D01*
X154046457Y-71299803D01*
X153818265Y-71112531D01*
X153741660Y-71071585D01*
X153741660Y-70488072D01*
X153835100Y-70488072D01*
X153959582Y-70475812D01*
X154079280Y-70439502D01*
X154189594Y-70380537D01*
X154286285Y-70301185D01*
X154365637Y-70204494D01*
X154424602Y-70094180D01*
X154460912Y-69974482D01*
X154473172Y-69850000D01*
X154473172Y-67818000D01*
X154460912Y-67693518D01*
X154424602Y-67573820D01*
X154365637Y-67463506D01*
X154286285Y-67366815D01*
X154189594Y-67287463D01*
X154079280Y-67228498D01*
X153959582Y-67192188D01*
X153835100Y-67179928D01*
X152107900Y-67179928D01*
X151983418Y-67192188D01*
X151863720Y-67228498D01*
X151753406Y-67287463D01*
X151656715Y-67366815D01*
X151577363Y-67463506D01*
X151518398Y-67573820D01*
X151502914Y-67624865D01*
X151496297Y-67616803D01*
X151268106Y-67429531D01*
X151007764Y-67290375D01*
X150725277Y-67204684D01*
X150431500Y-67175749D01*
X150137724Y-67204684D01*
X149855237Y-67290375D01*
X149594895Y-67429531D01*
X149366703Y-67616803D01*
X149179431Y-67844994D01*
X149161500Y-67878541D01*
X149143569Y-67844994D01*
X148956297Y-67616803D01*
X148728106Y-67429531D01*
X148467764Y-67290375D01*
X148185277Y-67204684D01*
X147891500Y-67175749D01*
X147597724Y-67204684D01*
X147315237Y-67290375D01*
X147054895Y-67429531D01*
X146826703Y-67616803D01*
X146639431Y-67844994D01*
X146621500Y-67878541D01*
X146603569Y-67844994D01*
X146416297Y-67616803D01*
X146188106Y-67429531D01*
X145927764Y-67290375D01*
X145645277Y-67204684D01*
X145351500Y-67175749D01*
X145057724Y-67204684D01*
X144775237Y-67290375D01*
X144514895Y-67429531D01*
X144286703Y-67616803D01*
X144099431Y-67844994D01*
X144081500Y-67878541D01*
X144063569Y-67844994D01*
X143876297Y-67616803D01*
X143648106Y-67429531D01*
X143387764Y-67290375D01*
X143105277Y-67204684D01*
X142811500Y-67175749D01*
X142517724Y-67204684D01*
X142235237Y-67290375D01*
X141974895Y-67429531D01*
X141746703Y-67616803D01*
X141559431Y-67844994D01*
X141541500Y-67878541D01*
X141523569Y-67844994D01*
X141336297Y-67616803D01*
X141108106Y-67429531D01*
X140847764Y-67290375D01*
X140565277Y-67204684D01*
X140271500Y-67175749D01*
X139977724Y-67204684D01*
X139695237Y-67290375D01*
X139434895Y-67429531D01*
X139206703Y-67616803D01*
X139019431Y-67844994D01*
X138998076Y-67884947D01*
X138849986Y-67682271D01*
X138633535Y-67483267D01*
X138382419Y-67330314D01*
X138106289Y-67229291D01*
X138090526Y-67226642D01*
X137858500Y-67347783D01*
X137858500Y-68707000D01*
X137878500Y-68707000D01*
X137878500Y-68961000D01*
X137858500Y-68961000D01*
X137858500Y-70320217D01*
X138090526Y-70441358D01*
X138106289Y-70438709D01*
X138382419Y-70337686D01*
X138633535Y-70184733D01*
X138849986Y-69985729D01*
X138998076Y-69783053D01*
X139019431Y-69823005D01*
X139206703Y-70051197D01*
X139434894Y-70238469D01*
X139511500Y-70279416D01*
X139511501Y-71077014D01*
X139445054Y-71112531D01*
X139216863Y-71299803D01*
X139029591Y-71527995D01*
X139008236Y-71567947D01*
X138860146Y-71365271D01*
X138643695Y-71166267D01*
X138392579Y-71013314D01*
X138116449Y-70912291D01*
X138100686Y-70909642D01*
X137868660Y-71030783D01*
X137868660Y-72390000D01*
X137888660Y-72390000D01*
X137888660Y-72644000D01*
X137868660Y-72644000D01*
X137868660Y-72664000D01*
X137614660Y-72664000D01*
X137614660Y-72644000D01*
X137594660Y-72644000D01*
X137594660Y-72390000D01*
X137614660Y-72390000D01*
X137614660Y-71030783D01*
X137382634Y-70909642D01*
X137366871Y-70912291D01*
X137090741Y-71013314D01*
X136839625Y-71166267D01*
X136623174Y-71365271D01*
X136475084Y-71567947D01*
X136453729Y-71527994D01*
X136266457Y-71299803D01*
X136038265Y-71112531D01*
X135951500Y-71066154D01*
X135951500Y-70279415D01*
X136028105Y-70238469D01*
X136256297Y-70051197D01*
X136443569Y-69823006D01*
X136464924Y-69783053D01*
X136613014Y-69985729D01*
X136829465Y-70184733D01*
X137080581Y-70337686D01*
X137356711Y-70438709D01*
X137372474Y-70441358D01*
X137604500Y-70320217D01*
X137604500Y-68961000D01*
X137584500Y-68961000D01*
X137584500Y-68707000D01*
X137604500Y-68707000D01*
X137604500Y-67347783D01*
X137372474Y-67226642D01*
X137356711Y-67229291D01*
X137080581Y-67330314D01*
X136829465Y-67483267D01*
X136613014Y-67682271D01*
X136464924Y-67884947D01*
X136443569Y-67844994D01*
X136256297Y-67616803D01*
X136028106Y-67429531D01*
X135767764Y-67290375D01*
X135485277Y-67204684D01*
X135191500Y-67175749D01*
X134897724Y-67204684D01*
X134615237Y-67290375D01*
X134354895Y-67429531D01*
X134126703Y-67616803D01*
X133939431Y-67844994D01*
X133921500Y-67878541D01*
X133903569Y-67844994D01*
X133716297Y-67616803D01*
X133488106Y-67429531D01*
X133227764Y-67290375D01*
X132945277Y-67204684D01*
X132651500Y-67175749D01*
X132357724Y-67204684D01*
X132075237Y-67290375D01*
X131814895Y-67429531D01*
X131586703Y-67616803D01*
X131399431Y-67844994D01*
X131381500Y-67878541D01*
X131363569Y-67844994D01*
X131176297Y-67616803D01*
X130948106Y-67429531D01*
X130687764Y-67290375D01*
X130405277Y-67204684D01*
X130111500Y-67175749D01*
X129817724Y-67204684D01*
X129535237Y-67290375D01*
X129274895Y-67429531D01*
X129046703Y-67616803D01*
X128981253Y-67696553D01*
X128929124Y-67570702D01*
X128637254Y-67133887D01*
X128632367Y-67129000D01*
X175485633Y-67129000D01*
X175536561Y-67179928D01*
X175536561Y-67179928D01*
G37*
X175536561Y-67179928D02*
X173962060Y-67179928D01*
X173837578Y-67192188D01*
X173717880Y-67228498D01*
X173607566Y-67287463D01*
X173510875Y-67366815D01*
X173431523Y-67463506D01*
X173372558Y-67573820D01*
X173357074Y-67624865D01*
X173350457Y-67616803D01*
X173122266Y-67429531D01*
X172861924Y-67290375D01*
X172579437Y-67204684D01*
X172285660Y-67175749D01*
X171991884Y-67204684D01*
X171709397Y-67290375D01*
X171449055Y-67429531D01*
X171220863Y-67616803D01*
X171033591Y-67844994D01*
X171015660Y-67878541D01*
X170997729Y-67844994D01*
X170810457Y-67616803D01*
X170582266Y-67429531D01*
X170321924Y-67290375D01*
X170039437Y-67204684D01*
X169745660Y-67175749D01*
X169451884Y-67204684D01*
X169169397Y-67290375D01*
X168909055Y-67429531D01*
X168680863Y-67616803D01*
X168493591Y-67844994D01*
X168475660Y-67878541D01*
X168457729Y-67844994D01*
X168270457Y-67616803D01*
X168042266Y-67429531D01*
X167781924Y-67290375D01*
X167499437Y-67204684D01*
X167205660Y-67175749D01*
X166911884Y-67204684D01*
X166629397Y-67290375D01*
X166369055Y-67429531D01*
X166140863Y-67616803D01*
X165953591Y-67844994D01*
X165935660Y-67878541D01*
X165917729Y-67844994D01*
X165730457Y-67616803D01*
X165502266Y-67429531D01*
X165241924Y-67290375D01*
X164959437Y-67204684D01*
X164665660Y-67175749D01*
X164371884Y-67204684D01*
X164089397Y-67290375D01*
X163829055Y-67429531D01*
X163600863Y-67616803D01*
X163413591Y-67844994D01*
X163395660Y-67878541D01*
X163377729Y-67844994D01*
X163190457Y-67616803D01*
X162962266Y-67429531D01*
X162701924Y-67290375D01*
X162419437Y-67204684D01*
X162125660Y-67175749D01*
X161831884Y-67204684D01*
X161549397Y-67290375D01*
X161289055Y-67429531D01*
X161060863Y-67616803D01*
X160873591Y-67844994D01*
X160855660Y-67878541D01*
X160837729Y-67844994D01*
X160650457Y-67616803D01*
X160422266Y-67429531D01*
X160161924Y-67290375D01*
X159879437Y-67204684D01*
X159585660Y-67175749D01*
X159291884Y-67204684D01*
X159009397Y-67290375D01*
X158749055Y-67429531D01*
X158520863Y-67616803D01*
X158333591Y-67844994D01*
X158315660Y-67878541D01*
X158297729Y-67844994D01*
X158110457Y-67616803D01*
X157882266Y-67429531D01*
X157621924Y-67290375D01*
X157339437Y-67204684D01*
X157045660Y-67175749D01*
X156751884Y-67204684D01*
X156469397Y-67290375D01*
X156209055Y-67429531D01*
X155980863Y-67616803D01*
X155793591Y-67844994D01*
X155654435Y-68105336D01*
X155568744Y-68387823D01*
X155547060Y-68607981D01*
X155547060Y-69060018D01*
X155568744Y-69280176D01*
X155654435Y-69562663D01*
X155793591Y-69823005D01*
X155980863Y-70051197D01*
X156209054Y-70238469D01*
X156285660Y-70279416D01*
X156285660Y-70862928D01*
X156182060Y-70862928D01*
X156057578Y-70875188D01*
X155937880Y-70911498D01*
X155827566Y-70970463D01*
X155730875Y-71049815D01*
X155651523Y-71146506D01*
X155592558Y-71256820D01*
X155556248Y-71376518D01*
X155543988Y-71501000D01*
X155543988Y-73533000D01*
X155556248Y-73657482D01*
X155592558Y-73777180D01*
X155651523Y-73887494D01*
X155730875Y-73984185D01*
X155827566Y-74063537D01*
X155937880Y-74122502D01*
X156057578Y-74158812D01*
X156182060Y-74171072D01*
X157909260Y-74171072D01*
X158033742Y-74158812D01*
X158153440Y-74122502D01*
X158263754Y-74063537D01*
X158360445Y-73984185D01*
X158439797Y-73887494D01*
X158498762Y-73777180D01*
X158514246Y-73726135D01*
X158520863Y-73734197D01*
X158749055Y-73921469D01*
X159009397Y-74060625D01*
X159291884Y-74146316D01*
X159585660Y-74175251D01*
X159879437Y-74146316D01*
X160161924Y-74060625D01*
X160422266Y-73921469D01*
X160650457Y-73734197D01*
X160837729Y-73506006D01*
X160855660Y-73472459D01*
X160873591Y-73506006D01*
X161060863Y-73734197D01*
X161289055Y-73921469D01*
X161549397Y-74060625D01*
X161831884Y-74146316D01*
X162125660Y-74175251D01*
X162419437Y-74146316D01*
X162701924Y-74060625D01*
X162962266Y-73921469D01*
X163190457Y-73734197D01*
X163377729Y-73506006D01*
X163395660Y-73472459D01*
X163413591Y-73506006D01*
X163600863Y-73734197D01*
X163829055Y-73921469D01*
X163905661Y-73962416D01*
X163905661Y-73980197D01*
X160965160Y-76920699D01*
X160965160Y-76888011D01*
X160929228Y-76707371D01*
X160858746Y-76537211D01*
X160756422Y-76384072D01*
X160626188Y-76253838D01*
X160473049Y-76151514D01*
X160302889Y-76081032D01*
X160122249Y-76045100D01*
X159938071Y-76045100D01*
X159757431Y-76081032D01*
X159587271Y-76151514D01*
X159434132Y-76253838D01*
X159303898Y-76384072D01*
X159249655Y-76465253D01*
X159232422Y-76439462D01*
X159102188Y-76309228D01*
X158949049Y-76206904D01*
X158778889Y-76136422D01*
X158598249Y-76100490D01*
X158414071Y-76100490D01*
X158233431Y-76136422D01*
X158063271Y-76206904D01*
X157960625Y-76275490D01*
X145498492Y-76275490D01*
X144585553Y-75362552D01*
X144561468Y-75241471D01*
X144490986Y-75071311D01*
X144388662Y-74918172D01*
X144258428Y-74787938D01*
X144105289Y-74685614D01*
X143935129Y-74615132D01*
X143754489Y-74579200D01*
X143570311Y-74579200D01*
X143389671Y-74615132D01*
X143219511Y-74685614D01*
X143066372Y-74787938D01*
X142936138Y-74918172D01*
X142833814Y-75071311D01*
X142787160Y-75183944D01*
X142756015Y-75125676D01*
X142722574Y-75063112D01*
X142651399Y-74976386D01*
X142627601Y-74947388D01*
X142598604Y-74923591D01*
X141378983Y-73703971D01*
X141375123Y-73699268D01*
X141533729Y-73506006D01*
X141551660Y-73472459D01*
X141569591Y-73506006D01*
X141756863Y-73734197D01*
X141985055Y-73921469D01*
X142245397Y-74060625D01*
X142527884Y-74146316D01*
X142821660Y-74175251D01*
X143115437Y-74146316D01*
X143397924Y-74060625D01*
X143658266Y-73921469D01*
X143886457Y-73734197D01*
X144073729Y-73506006D01*
X144091660Y-73472459D01*
X144109591Y-73506006D01*
X144296863Y-73734197D01*
X144525055Y-73921469D01*
X144785397Y-74060625D01*
X145067884Y-74146316D01*
X145361660Y-74175251D01*
X145655437Y-74146316D01*
X145937924Y-74060625D01*
X146198266Y-73921469D01*
X146426457Y-73734197D01*
X146613729Y-73506006D01*
X146631660Y-73472459D01*
X146649591Y-73506006D01*
X146836863Y-73734197D01*
X147065055Y-73921469D01*
X147325397Y-74060625D01*
X147607884Y-74146316D01*
X147901660Y-74175251D01*
X148195437Y-74146316D01*
X148477924Y-74060625D01*
X148738266Y-73921469D01*
X148966457Y-73734197D01*
X149153729Y-73506006D01*
X149171660Y-73472459D01*
X149189591Y-73506006D01*
X149376863Y-73734197D01*
X149605055Y-73921469D01*
X149865397Y-74060625D01*
X150147884Y-74146316D01*
X150441660Y-74175251D01*
X150735437Y-74146316D01*
X151017924Y-74060625D01*
X151278266Y-73921469D01*
X151506457Y-73734197D01*
X151693729Y-73506006D01*
X151711660Y-73472459D01*
X151729591Y-73506006D01*
X151916863Y-73734197D01*
X152145055Y-73921469D01*
X152405397Y-74060625D01*
X152687884Y-74146316D01*
X152981660Y-74175251D01*
X153275437Y-74146316D01*
X153557924Y-74060625D01*
X153818266Y-73921469D01*
X154046457Y-73734197D01*
X154233729Y-73506006D01*
X154372885Y-73245663D01*
X154458576Y-72963176D01*
X154480260Y-72743018D01*
X154480260Y-72290981D01*
X154458576Y-72070823D01*
X154372885Y-71788336D01*
X154233729Y-71527994D01*
X154046457Y-71299803D01*
X153818265Y-71112531D01*
X153741660Y-71071585D01*
X153741660Y-70488072D01*
X153835100Y-70488072D01*
X153959582Y-70475812D01*
X154079280Y-70439502D01*
X154189594Y-70380537D01*
X154286285Y-70301185D01*
X154365637Y-70204494D01*
X154424602Y-70094180D01*
X154460912Y-69974482D01*
X154473172Y-69850000D01*
X154473172Y-67818000D01*
X154460912Y-67693518D01*
X154424602Y-67573820D01*
X154365637Y-67463506D01*
X154286285Y-67366815D01*
X154189594Y-67287463D01*
X154079280Y-67228498D01*
X153959582Y-67192188D01*
X153835100Y-67179928D01*
X152107900Y-67179928D01*
X151983418Y-67192188D01*
X151863720Y-67228498D01*
X151753406Y-67287463D01*
X151656715Y-67366815D01*
X151577363Y-67463506D01*
X151518398Y-67573820D01*
X151502914Y-67624865D01*
X151496297Y-67616803D01*
X151268106Y-67429531D01*
X151007764Y-67290375D01*
X150725277Y-67204684D01*
X150431500Y-67175749D01*
X150137724Y-67204684D01*
X149855237Y-67290375D01*
X149594895Y-67429531D01*
X149366703Y-67616803D01*
X149179431Y-67844994D01*
X149161500Y-67878541D01*
X149143569Y-67844994D01*
X148956297Y-67616803D01*
X148728106Y-67429531D01*
X148467764Y-67290375D01*
X148185277Y-67204684D01*
X147891500Y-67175749D01*
X147597724Y-67204684D01*
X147315237Y-67290375D01*
X147054895Y-67429531D01*
X146826703Y-67616803D01*
X146639431Y-67844994D01*
X146621500Y-67878541D01*
X146603569Y-67844994D01*
X146416297Y-67616803D01*
X146188106Y-67429531D01*
X145927764Y-67290375D01*
X145645277Y-67204684D01*
X145351500Y-67175749D01*
X145057724Y-67204684D01*
X144775237Y-67290375D01*
X144514895Y-67429531D01*
X144286703Y-67616803D01*
X144099431Y-67844994D01*
X144081500Y-67878541D01*
X144063569Y-67844994D01*
X143876297Y-67616803D01*
X143648106Y-67429531D01*
X143387764Y-67290375D01*
X143105277Y-67204684D01*
X142811500Y-67175749D01*
X142517724Y-67204684D01*
X142235237Y-67290375D01*
X141974895Y-67429531D01*
X141746703Y-67616803D01*
X141559431Y-67844994D01*
X141541500Y-67878541D01*
X141523569Y-67844994D01*
X141336297Y-67616803D01*
X141108106Y-67429531D01*
X140847764Y-67290375D01*
X140565277Y-67204684D01*
X140271500Y-67175749D01*
X139977724Y-67204684D01*
X139695237Y-67290375D01*
X139434895Y-67429531D01*
X139206703Y-67616803D01*
X139019431Y-67844994D01*
X138998076Y-67884947D01*
X138849986Y-67682271D01*
X138633535Y-67483267D01*
X138382419Y-67330314D01*
X138106289Y-67229291D01*
X138090526Y-67226642D01*
X137858500Y-67347783D01*
X137858500Y-68707000D01*
X137878500Y-68707000D01*
X137878500Y-68961000D01*
X137858500Y-68961000D01*
X137858500Y-70320217D01*
X138090526Y-70441358D01*
X138106289Y-70438709D01*
X138382419Y-70337686D01*
X138633535Y-70184733D01*
X138849986Y-69985729D01*
X138998076Y-69783053D01*
X139019431Y-69823005D01*
X139206703Y-70051197D01*
X139434894Y-70238469D01*
X139511500Y-70279416D01*
X139511501Y-71077014D01*
X139445054Y-71112531D01*
X139216863Y-71299803D01*
X139029591Y-71527995D01*
X139008236Y-71567947D01*
X138860146Y-71365271D01*
X138643695Y-71166267D01*
X138392579Y-71013314D01*
X138116449Y-70912291D01*
X138100686Y-70909642D01*
X137868660Y-71030783D01*
X137868660Y-72390000D01*
X137888660Y-72390000D01*
X137888660Y-72644000D01*
X137868660Y-72644000D01*
X137868660Y-72664000D01*
X137614660Y-72664000D01*
X137614660Y-72644000D01*
X137594660Y-72644000D01*
X137594660Y-72390000D01*
X137614660Y-72390000D01*
X137614660Y-71030783D01*
X137382634Y-70909642D01*
X137366871Y-70912291D01*
X137090741Y-71013314D01*
X136839625Y-71166267D01*
X136623174Y-71365271D01*
X136475084Y-71567947D01*
X136453729Y-71527994D01*
X136266457Y-71299803D01*
X136038265Y-71112531D01*
X135951500Y-71066154D01*
X135951500Y-70279415D01*
X136028105Y-70238469D01*
X136256297Y-70051197D01*
X136443569Y-69823006D01*
X136464924Y-69783053D01*
X136613014Y-69985729D01*
X136829465Y-70184733D01*
X137080581Y-70337686D01*
X137356711Y-70438709D01*
X137372474Y-70441358D01*
X137604500Y-70320217D01*
X137604500Y-68961000D01*
X137584500Y-68961000D01*
X137584500Y-68707000D01*
X137604500Y-68707000D01*
X137604500Y-67347783D01*
X137372474Y-67226642D01*
X137356711Y-67229291D01*
X137080581Y-67330314D01*
X136829465Y-67483267D01*
X136613014Y-67682271D01*
X136464924Y-67884947D01*
X136443569Y-67844994D01*
X136256297Y-67616803D01*
X136028106Y-67429531D01*
X135767764Y-67290375D01*
X135485277Y-67204684D01*
X135191500Y-67175749D01*
X134897724Y-67204684D01*
X134615237Y-67290375D01*
X134354895Y-67429531D01*
X134126703Y-67616803D01*
X133939431Y-67844994D01*
X133921500Y-67878541D01*
X133903569Y-67844994D01*
X133716297Y-67616803D01*
X133488106Y-67429531D01*
X133227764Y-67290375D01*
X132945277Y-67204684D01*
X132651500Y-67175749D01*
X132357724Y-67204684D01*
X132075237Y-67290375D01*
X131814895Y-67429531D01*
X131586703Y-67616803D01*
X131399431Y-67844994D01*
X131381500Y-67878541D01*
X131363569Y-67844994D01*
X131176297Y-67616803D01*
X130948106Y-67429531D01*
X130687764Y-67290375D01*
X130405277Y-67204684D01*
X130111500Y-67175749D01*
X129817724Y-67204684D01*
X129535237Y-67290375D01*
X129274895Y-67429531D01*
X129046703Y-67616803D01*
X128981253Y-67696553D01*
X128929124Y-67570702D01*
X128637254Y-67133887D01*
X128632367Y-67129000D01*
X175485633Y-67129000D01*
X175536561Y-67179928D01*
M02*
