M48
; DRILL file {KiCad 5.1.0-rc1-unknown-6bb8fde~66~ubuntu16.04.1} date Ne 10. február 2019, 19:19:24 CET
; FORMAT={-:-/ absolute / metric / decimal}
; #@! TF.CreationDate,2019-02-10T19:19:24+01:00
; #@! TF.GenerationSoftware,Kicad,Pcbnew,5.1.0-rc1-unknown-6bb8fde~66~ubuntu16.04.1
FMAT,2
METRIC
T1C0.400
T2C0.500
T3C0.550
T4C0.800
T5C0.813
T6C1.000
T7C1.016
T8C2.301
T9C3.048
%
G90
G05
T1
X115.263Y-93.091
X115.363Y-100.452
X115.39Y-101.473
X115.888Y-95.123
X116.619Y-98.819
X118.311Y-95.123
X118.518Y-102.536
X118.972Y-94.588
X119.119Y-101.934
X119.454Y-81.661
X119.573Y-93.987
X120.759Y-91.63
X120.912Y-98.87
X120.937Y-85.153
X121.14Y-102.629
X122.809Y-70.104
X123.555Y-80.601
X123.555Y-81.451
X125.412Y-110.236
X125.539Y-112.522
X125.55Y-98.679
X125.803Y-90.551
X127.381Y-109.283
X127.582Y-99.949
X128.091Y-92.075
X128.778Y-105.6
X129.36Y-78.613
X129.731Y-114.3
X130.179Y-78.555
X131.504Y-80.376
X131.504Y-81.676
X131.907Y-77.952
X132.524Y-117.03
X132.804Y-80.376
X132.804Y-81.676
X134.069Y-84.455
X134.186Y-83.439
X134.402Y-78.989
X134.81Y-107.823
X135.445Y-114.3
X135.71Y-81.153
X136.091Y-93.345
X136.843Y-113.855
X137.996Y-87.012
X138.049Y-78.994
X138.938Y-86.487
X140.129Y-95.326
X140.335Y-110.426
X141.922Y-100.393
X142.9Y-76.124
X143.129Y-105.537
X143.493Y-92.412
X143.662Y-75.514
X143.815Y-90.729
X143.888Y-89.913
X145.542Y-101.282
X145.542Y-101.282
X145.669Y-78.319
X146.812Y-75.565
X147.447Y-109.982
X148.765Y-92.268
X149.172Y-93.599
X149.23Y-98.4
X149.479Y-78.74
X149.733Y-102.552
X149.86Y-99.251
X150.05Y-82.931
X150.625Y-99.017
X151.424Y-99.066
X151.79Y-84.404
X151.892Y-110.109
X152.273Y-99.123
X152.458Y-83.502
X152.474Y-92.583
X153.035Y-95.504
X153.083Y-82.617
X154.087Y-98.766
X154.887Y-98.316
X155.882Y-92.001
X156.149Y-99.216
X156.162Y-92.751
X156.292Y-95.803
X156.474Y-94.869
X156.728Y-93.916
X157.099Y-80.835
X157.317Y-85.977
X157.505Y-93.562
X157.739Y-90.081
X157.744Y-95.504
X157.782Y-92.812
X158.496Y-86.677
X158.506Y-77.035
X158.559Y-82.829
X158.559Y-83.629
X158.559Y-84.519
X158.814Y-111.379
X159.332Y-96.774
X159.742Y-78.335
X160.03Y-76.98
X160.284Y-96.965
X160.609Y-93.91
X161.1Y-102.171
X161.163Y-104.902
X161.272Y-92.365
X161.734Y-75.12
X162.026Y-97.43
X162.687Y-84.519
X162.877Y-82.804
X163.195Y-83.629
X163.512Y-111.506
X163.985Y-92.746
X164.727Y-78.803
X165.141Y-92.029
X165.163Y-98.489
X165.925Y-111.506
X166.403Y-88.704
X166.494Y-94.501
X168.529Y-111.633
X168.746Y-93.273
X171.069Y-111.697
X171.166Y-96.426
X171.178Y-79.007
X171.26Y-98.87
X171.412Y-87.013
X173.037Y-83.566
X173.482Y-111.697
X173.609Y-76.263
X177.355Y-99.504
T3
X116.226Y-100.362
X116.226Y-104.361
T4
X170.337Y-89.281
X170.337Y-94.163
T5
X115.931Y-80.264
X115.931Y-82.804
X117.93Y-80.264
X117.93Y-82.804
T6
X114.076Y-99.537
X114.076Y-105.187
T7
X139.774Y-80.137
X139.774Y-82.677
X139.774Y-85.217
X139.774Y-87.757
X139.774Y-90.297
X139.774Y-92.837
X157.046Y-72.517
X159.586Y-72.517
X162.126Y-72.517
X164.666Y-72.517
X167.206Y-72.517
X169.746Y-72.517
X172.286Y-72.517
X174.826Y-72.517
X130.884Y-85.979
X130.884Y-88.519
X130.884Y-91.059
X130.884Y-93.599
X130.884Y-96.139
X133.424Y-85.979
X133.424Y-88.519
X133.424Y-91.059
X133.424Y-93.599
X133.424Y-96.139
X130.112Y-68.834
X132.651Y-68.834
X135.191Y-68.834
X137.731Y-68.834
X140.272Y-68.834
X142.811Y-68.834
X145.351Y-68.834
X147.891Y-68.834
X150.431Y-68.834
X152.971Y-68.834
X157.046Y-68.834
X159.586Y-68.834
X162.126Y-68.834
X164.666Y-68.834
X167.206Y-68.834
X169.746Y-68.834
X172.286Y-68.834
X174.826Y-68.834
X139.266Y-113.474
X141.806Y-113.474
X144.346Y-113.474
X146.886Y-113.474
X149.426Y-113.474
X151.966Y-113.474
X154.506Y-113.474
X157.046Y-113.474
X174.953Y-89.154
X174.953Y-91.694
X174.953Y-94.234
X177.493Y-89.154
X177.493Y-91.694
X177.493Y-94.234
X119.708Y-104.902
X139.266Y-117.094
X141.806Y-117.094
X144.346Y-117.094
X146.886Y-117.094
X149.426Y-117.094
X151.966Y-117.094
X154.506Y-117.094
X157.046Y-117.094
X162.115Y-117.094
X164.655Y-117.094
X167.195Y-117.094
X169.736Y-117.094
X172.275Y-117.094
X174.815Y-117.094
X177.355Y-117.094
X179.895Y-117.094
X161.999Y-107.505
X164.539Y-107.505
X167.079Y-107.505
X169.619Y-107.505
X172.159Y-107.505
X174.699Y-107.505
X177.239Y-107.505
X179.779Y-107.505
X130.122Y-72.517
X132.662Y-72.517
X135.202Y-72.517
X137.742Y-72.517
X140.282Y-72.517
X142.822Y-72.517
X145.362Y-72.517
X147.902Y-72.517
X150.442Y-72.517
X152.982Y-72.517
T8
X113.231Y-75.535
X113.231Y-87.533
T9
X125.296Y-117.094
X177.366Y-112.014
X126.555Y-68.834
X177.355Y-84.074
X125.296Y-117.094
X126.566Y-68.834
T2
G00X113.8Y-90.225
M15
G01X114.45Y-90.225
M16
G05
G00X113.8Y-97.225
M15
G01X114.45Y-97.225
M16
G05
T3
G00X116.825Y-91.075
M15
G01X116.825Y-91.375
M16
G05
G00X116.825Y-96.075
M15
G01X116.825Y-96.375
M16
G05
T7
G00X114.574Y-110.553
M15
G01X114.574Y-112.078
M16
G05
G00X116.098Y-116.395
M15
G01X117.622Y-116.395
M16
G05
G00X120.67Y-110.553
M15
G01X120.67Y-112.078
M16
G05
T0
M30
