G04 #@! TF.GenerationSoftware,KiCad,Pcbnew,5.1.0-rc1-unknown-6bb8fde~66~ubuntu16.04.1*
G04 #@! TF.CreationDate,2019-02-10T19:19:22+01:00
G04 #@! TF.ProjectId,arduino_unoPB,61726475-696e-46f5-9f75-6e6f50422e6b,rev?*
G04 #@! TF.SameCoordinates,Original*
G04 #@! TF.FileFunction,Legend,Bot*
G04 #@! TF.FilePolarity,Positive*
%FSLAX46Y46*%
G04 Gerber Fmt 4.6, Leading zero omitted, Abs format (unit mm)*
G04 Created by KiCad (PCBNEW 5.1.0-rc1-unknown-6bb8fde~66~ubuntu16.04.1) date 2019-02-10 19:19:22*
%MOMM*%
%LPD*%
G04 APERTURE LIST*
%ADD10C,0.150000*%
%ADD11C,0.400000*%
%ADD12R,1.727200X2.032000*%
%ADD13O,1.727200X2.032000*%
%ADD14C,4.064000*%
%ADD15R,2.032000X1.727200*%
%ADD16O,2.032000X1.727200*%
%ADD17R,1.727200X1.727200*%
%ADD18O,1.727200X1.727200*%
%ADD19C,1.524000*%
%ADD20C,2.700020*%
%ADD21O,0.950000X1.250000*%
%ADD22O,1.550000X1.000000*%
%ADD23C,1.700000*%
%ADD24C,0.550000*%
%ADD25R,2.235200X2.235200*%
%ADD26C,1.501140*%
%ADD27C,4.800600*%
%ADD28R,4.800600X4.800600*%
G04 APERTURE END LIST*
D10*
X180843180Y-110245780D02*
X179843180Y-110245780D01*
X180557466Y-110579114D01*
X179843180Y-110912447D01*
X180843180Y-110912447D01*
X179843180Y-111579114D02*
X179843180Y-111769590D01*
X179890800Y-111864828D01*
X179986038Y-111960066D01*
X180176514Y-112007685D01*
X180509847Y-112007685D01*
X180700323Y-111960066D01*
X180795561Y-111864828D01*
X180843180Y-111769590D01*
X180843180Y-111579114D01*
X180795561Y-111483876D01*
X180700323Y-111388638D01*
X180509847Y-111341019D01*
X180176514Y-111341019D01*
X179986038Y-111388638D01*
X179890800Y-111483876D01*
X179843180Y-111579114D01*
X180795561Y-112388638D02*
X180843180Y-112531495D01*
X180843180Y-112769590D01*
X180795561Y-112864828D01*
X180747942Y-112912447D01*
X180652704Y-112960066D01*
X180557466Y-112960066D01*
X180462228Y-112912447D01*
X180414609Y-112864828D01*
X180366990Y-112769590D01*
X180319371Y-112579114D01*
X180271752Y-112483876D01*
X180224133Y-112436257D01*
X180128895Y-112388638D01*
X180033657Y-112388638D01*
X179938419Y-112436257D01*
X179890800Y-112483876D01*
X179843180Y-112579114D01*
X179843180Y-112817209D01*
X179890800Y-112960066D01*
X180843180Y-113388638D02*
X179843180Y-113388638D01*
X180843180Y-114388638D02*
X180843180Y-113817209D01*
X180843180Y-114102923D02*
X179843180Y-114102923D01*
X179986038Y-114007685D01*
X180081276Y-113912447D01*
X180128895Y-113817209D01*
X175863428Y-116053200D02*
X176815809Y-116053200D01*
X176053904Y-114733438D02*
X176196761Y-114685819D01*
X176434857Y-114685819D01*
X176530095Y-114733438D01*
X176577714Y-114781057D01*
X176625333Y-114876295D01*
X176625333Y-114971533D01*
X176577714Y-115066771D01*
X176530095Y-115114390D01*
X176434857Y-115162009D01*
X176244380Y-115209628D01*
X176149142Y-115257247D01*
X176101523Y-115304866D01*
X176053904Y-115400104D01*
X176053904Y-115495342D01*
X176101523Y-115590580D01*
X176149142Y-115638200D01*
X176244380Y-115685819D01*
X176482476Y-115685819D01*
X176625333Y-115638200D01*
X176815809Y-116053200D02*
X177768190Y-116053200D01*
X177006285Y-114733438D02*
X177149142Y-114685819D01*
X177387238Y-114685819D01*
X177482476Y-114733438D01*
X177530095Y-114781057D01*
X177577714Y-114876295D01*
X177577714Y-114971533D01*
X177530095Y-115066771D01*
X177482476Y-115114390D01*
X177387238Y-115162009D01*
X177196761Y-115209628D01*
X177101523Y-115257247D01*
X177053904Y-115304866D01*
X177006285Y-115400104D01*
X177006285Y-115495342D01*
X177053904Y-115590580D01*
X177101523Y-115638200D01*
X177196761Y-115685819D01*
X177434857Y-115685819D01*
X177577714Y-115638200D01*
X177768190Y-116053200D02*
X178720571Y-116053200D01*
X178530095Y-114685819D02*
X177958666Y-114685819D01*
X178244380Y-114685819D02*
X178244380Y-115685819D01*
X178149142Y-115542961D01*
X178053904Y-115447723D01*
X177958666Y-115400104D01*
X164945961Y-111141095D02*
X164993580Y-111283952D01*
X164993580Y-111522047D01*
X164945961Y-111617285D01*
X164898342Y-111664904D01*
X164803104Y-111712523D01*
X164707866Y-111712523D01*
X164612628Y-111664904D01*
X164565009Y-111617285D01*
X164517390Y-111522047D01*
X164469771Y-111331571D01*
X164422152Y-111236333D01*
X164374533Y-111188714D01*
X164279295Y-111141095D01*
X164184057Y-111141095D01*
X164088819Y-111188714D01*
X164041200Y-111236333D01*
X163993580Y-111331571D01*
X163993580Y-111569666D01*
X164041200Y-111712523D01*
X164898342Y-112712523D02*
X164945961Y-112664904D01*
X164993580Y-112522047D01*
X164993580Y-112426809D01*
X164945961Y-112283952D01*
X164850723Y-112188714D01*
X164755485Y-112141095D01*
X164565009Y-112093476D01*
X164422152Y-112093476D01*
X164231676Y-112141095D01*
X164136438Y-112188714D01*
X164041200Y-112283952D01*
X163993580Y-112426809D01*
X163993580Y-112522047D01*
X164041200Y-112664904D01*
X164088819Y-112712523D01*
X164993580Y-113141095D02*
X163993580Y-113141095D01*
X164993580Y-113712523D02*
X164422152Y-113283952D01*
X163993580Y-113712523D02*
X164565009Y-113141095D01*
X164993580Y-114664904D02*
X164993580Y-114093476D01*
X164993580Y-114379190D02*
X163993580Y-114379190D01*
X164136438Y-114283952D01*
X164231676Y-114188714D01*
X164279295Y-114093476D01*
X162402780Y-110499780D02*
X161402780Y-110499780D01*
X162117066Y-110833114D01*
X161402780Y-111166447D01*
X162402780Y-111166447D01*
X162402780Y-111642638D02*
X161402780Y-111642638D01*
X162355161Y-112071209D02*
X162402780Y-112214066D01*
X162402780Y-112452161D01*
X162355161Y-112547400D01*
X162307542Y-112595019D01*
X162212304Y-112642638D01*
X162117066Y-112642638D01*
X162021828Y-112595019D01*
X161974209Y-112547400D01*
X161926590Y-112452161D01*
X161878971Y-112261685D01*
X161831352Y-112166447D01*
X161783733Y-112118828D01*
X161688495Y-112071209D01*
X161593257Y-112071209D01*
X161498019Y-112118828D01*
X161450400Y-112166447D01*
X161402780Y-112261685D01*
X161402780Y-112499780D01*
X161450400Y-112642638D01*
X161402780Y-113261685D02*
X161402780Y-113452161D01*
X161450400Y-113547400D01*
X161545638Y-113642638D01*
X161736114Y-113690257D01*
X162069447Y-113690257D01*
X162259923Y-113642638D01*
X162355161Y-113547400D01*
X162402780Y-113452161D01*
X162402780Y-113261685D01*
X162355161Y-113166447D01*
X162259923Y-113071209D01*
X162069447Y-113023590D01*
X161736114Y-113023590D01*
X161545638Y-113071209D01*
X161450400Y-113166447D01*
X161402780Y-113261685D01*
X162402780Y-114642638D02*
X162402780Y-114071209D01*
X162402780Y-114356923D02*
X161402780Y-114356923D01*
X161545638Y-114261685D01*
X161640876Y-114166447D01*
X161688495Y-114071209D01*
D11*
X175831500Y-66294000D02*
X111315500Y-66294000D01*
X181493160Y-83248500D02*
X177355500Y-79248000D01*
X177355500Y-79248000D02*
X177355500Y-67818000D01*
X177355500Y-67818000D02*
X175831500Y-66294000D01*
X181493160Y-83248500D02*
X181493160Y-119634000D01*
X111315500Y-119634000D02*
X181493160Y-119634000D01*
X111315500Y-66294000D02*
X111315500Y-119634000D01*
%LPC*%
D12*
X152971500Y-68834000D03*
D13*
X150431500Y-68834000D03*
X147891500Y-68834000D03*
X145351500Y-68834000D03*
X142811500Y-68834000D03*
X140271500Y-68834000D03*
X137731500Y-68834000D03*
X135191500Y-68834000D03*
X132651500Y-68834000D03*
X130111500Y-68834000D03*
X157045660Y-117094000D03*
X154505660Y-117094000D03*
X151965660Y-117094000D03*
X149425660Y-117094000D03*
X146885660Y-117094000D03*
X144345660Y-117094000D03*
X141805660Y-117094000D03*
D12*
X139265660Y-117094000D03*
D14*
X126555500Y-68834000D03*
X177355500Y-84074000D03*
D15*
X139773660Y-80137000D03*
D16*
X139773660Y-82677000D03*
X139773660Y-85217000D03*
X139773660Y-87757000D03*
X139773660Y-90297000D03*
X139773660Y-92837000D03*
D17*
X130883660Y-85979000D03*
D18*
X133423660Y-85979000D03*
X130883660Y-88519000D03*
X133423660Y-88519000D03*
X130883660Y-91059000D03*
X133423660Y-91059000D03*
X130883660Y-93599000D03*
X133423660Y-93599000D03*
X130883660Y-96139000D03*
X133423660Y-96139000D03*
D19*
X117929660Y-80264000D03*
X117929660Y-82804000D03*
X115930680Y-82804000D03*
X115930680Y-80264000D03*
D20*
X113230660Y-75534520D03*
X113230660Y-87533480D03*
D21*
X116825200Y-91225100D03*
X116825200Y-96225100D03*
D22*
X114125200Y-90225100D03*
X114125200Y-97225100D03*
D23*
X114075660Y-99537000D03*
X114075660Y-105187000D03*
D24*
X116225660Y-100362000D03*
X116225660Y-104360980D03*
D17*
X174952660Y-89154000D03*
D18*
X177492660Y-89154000D03*
X174952660Y-91694000D03*
X177492660Y-91694000D03*
X174952660Y-94234000D03*
X177492660Y-94234000D03*
D25*
X119707660Y-104902000D03*
D26*
X170337480Y-94162880D03*
X170337480Y-89281000D03*
D27*
X114574320Y-111315500D03*
D28*
X120670320Y-111315500D03*
D27*
X116860320Y-116395500D03*
D13*
X179778660Y-107505500D03*
X177238660Y-107505500D03*
X174698660Y-107505500D03*
X172158660Y-107505500D03*
X169618660Y-107505500D03*
X167078660Y-107505500D03*
X164538660Y-107505500D03*
D12*
X161998660Y-107505500D03*
D13*
X152981660Y-72517000D03*
X150441660Y-72517000D03*
X147901660Y-72517000D03*
X145361660Y-72517000D03*
X142821660Y-72517000D03*
X140281660Y-72517000D03*
X137741660Y-72517000D03*
X135201660Y-72517000D03*
X132661660Y-72517000D03*
D12*
X130121660Y-72517000D03*
X157045660Y-72517000D03*
D13*
X159585660Y-72517000D03*
X162125660Y-72517000D03*
X164665660Y-72517000D03*
X167205660Y-72517000D03*
X169745660Y-72517000D03*
X172285660Y-72517000D03*
X174825660Y-72517000D03*
D14*
X125295660Y-117094000D03*
X177365660Y-112014000D03*
X125295660Y-117094000D03*
X126565660Y-68834000D03*
D12*
X157045660Y-113474500D03*
D13*
X154505660Y-113474500D03*
X151965660Y-113474500D03*
X149425660Y-113474500D03*
X146885660Y-113474500D03*
X144345660Y-113474500D03*
X141805660Y-113474500D03*
X139265660Y-113474500D03*
X179895500Y-117094000D03*
X177355500Y-117094000D03*
X174815500Y-117094000D03*
X172275500Y-117094000D03*
X169735500Y-117094000D03*
X167195500Y-117094000D03*
X164655500Y-117094000D03*
D12*
X162115500Y-117094000D03*
X174825660Y-68834000D03*
D13*
X172285660Y-68834000D03*
X169745660Y-68834000D03*
X167205660Y-68834000D03*
X164665660Y-68834000D03*
X162125660Y-68834000D03*
X159585660Y-68834000D03*
X157045660Y-68834000D03*
M02*
