%TF.GenerationSoftware,KiCad,Pcbnew,5.0.0-rc2-dev-unknown-b813eac~63~ubuntu16.04.1*%
%TF.CreationDate,2018-04-08T17:46:50+02:00*%
%TF.ProjectId,F-6888multi,462D363838386D756C74692E6B696361,rev?*%
%TF.SameCoordinates,Original*%
%TF.FileFunction,Soldermask,Top*%
%TF.FilePolarity,Negative*%
%FSLAX46Y46*%
G04 Gerber Fmt 4.6, Leading zero omitted, Abs format (unit mm)*
G04 Created by KiCad (PCBNEW 5.0.0-rc2-dev-unknown-b813eac~63~ubuntu16.04.1) date Sun Apr  8 17:46:50 2018*
%MOMM*%
%LPD*%
G01*
G04 APERTURE LIST*
%ADD10R,3.000000X2.000000*%
%ADD11R,1.900000X1.400000*%
%ADD12R,2.580000X2.000000*%
%ADD13C,1.600000*%
%ADD14R,2.400000X2.900000*%
%ADD15R,2.600000X2.400000*%
%ADD16R,3.400000X1.900000*%
%ADD17R,2.100000X2.100000*%
%ADD18O,2.100000X2.100000*%
%ADD19R,1.100000X2.000000*%
%ADD20R,1.600000X1.800000*%
%ADD21R,2.000000X1.800000*%
%ADD22R,1.600000X2.600000*%
%ADD23R,2.400000X2.100000*%
%ADD24R,1.900000X1.700000*%
%ADD25R,2.000000X2.580000*%
%ADD26C,3.400000*%
%ADD27C,1.900000*%
G04 APERTURE END LIST*
D10*
%TO.C,C5*%
X172234000Y-95377000D03*
X168634000Y-95377000D03*
%TD*%
D11*
%TO.C,JP1*%
X162407600Y-82478400D03*
X162407600Y-81178400D03*
X162407600Y-79878400D03*
%TD*%
D12*
%TO.C,SW5*%
X165844000Y-89916000D03*
X175024000Y-89916000D03*
%TD*%
D13*
%TO.C,PJ-327A2*%
X177292000Y-125734000D03*
D14*
X177292000Y-122684000D03*
D15*
X174492000Y-129434000D03*
X180092000Y-132334000D03*
D13*
X177292000Y-132734000D03*
%TD*%
%TO.C,PJ-327A1*%
X168910000Y-131620000D03*
X168910000Y-125620000D03*
D16*
X165410000Y-133020000D03*
X165410000Y-129420000D03*
X165410000Y-123320000D03*
X172410000Y-125020000D03*
X172410000Y-132020000D03*
%TD*%
D17*
%TO.C,J2*%
X181864000Y-64262000D03*
D18*
X181864000Y-66802000D03*
X181864000Y-69342000D03*
X181864000Y-71882000D03*
X181864000Y-74422000D03*
X181864000Y-76962000D03*
X181864000Y-79502000D03*
X181864000Y-82042000D03*
X181864000Y-84582000D03*
X181864000Y-87122000D03*
X181864000Y-89662000D03*
X181864000Y-92202000D03*
X181864000Y-94742000D03*
X181864000Y-97282000D03*
X181864000Y-99822000D03*
X181864000Y-102362000D03*
X181864000Y-104902000D03*
X181864000Y-107442000D03*
X181864000Y-109982000D03*
X181864000Y-112522000D03*
%TD*%
D19*
%TO.C,J6*%
X170180000Y-77302000D03*
X169080000Y-77302000D03*
X167980000Y-77302000D03*
X171280000Y-77302000D03*
X172380000Y-77302000D03*
X173480000Y-77302000D03*
X175680000Y-77302000D03*
X174580000Y-77302000D03*
X176780000Y-77302000D03*
D20*
X177930000Y-76802000D03*
D21*
X163330000Y-76802000D03*
D22*
X177930000Y-67202000D03*
X162430000Y-67202000D03*
%TD*%
D23*
%TO.C,D2*%
X173736000Y-113030000D03*
X177736000Y-113030000D03*
%TD*%
D17*
%TO.C,J4*%
X159004000Y-115062000D03*
D18*
X159004000Y-112522000D03*
X159004000Y-109982000D03*
X159004000Y-107442000D03*
X159004000Y-104902000D03*
X159004000Y-102362000D03*
X159004000Y-99822000D03*
X159004000Y-97282000D03*
X159004000Y-94742000D03*
X159004000Y-92202000D03*
X159004000Y-89662000D03*
X159004000Y-87122000D03*
X159004000Y-84582000D03*
X159004000Y-82042000D03*
X159004000Y-79502000D03*
X159004000Y-76962000D03*
X159004000Y-74422000D03*
X159004000Y-71882000D03*
X159004000Y-69342000D03*
X159004000Y-66802000D03*
X159004000Y-64262000D03*
%TD*%
D12*
%TO.C,SW1*%
X175024000Y-85344000D03*
X165844000Y-85344000D03*
%TD*%
D10*
%TO.C,C4*%
X168443500Y-100457000D03*
X172043500Y-100457000D03*
%TD*%
D12*
%TO.C,SW4*%
X165844000Y-106553000D03*
X175024000Y-106553000D03*
%TD*%
D24*
%TO.C,R1*%
X170100000Y-81026000D03*
X172800000Y-81026000D03*
%TD*%
D25*
%TO.C,SW2*%
X164274500Y-102951500D03*
X164274500Y-93771500D03*
%TD*%
%TO.C,SW3*%
X176530000Y-102837200D03*
X176530000Y-93657200D03*
%TD*%
D23*
%TO.C,D1*%
X168402000Y-113030000D03*
X164402000Y-113030000D03*
%TD*%
D17*
%TO.C,J3*%
X181864000Y-120142000D03*
D18*
X181864000Y-117602000D03*
%TD*%
D26*
%TO.C,J1*%
X159115300Y-119122000D03*
X159115300Y-132842000D03*
D27*
X161785300Y-122682000D03*
X161785300Y-125222000D03*
X161785300Y-127252000D03*
X161785300Y-129792000D03*
%TD*%
D10*
%TO.C,C5*%
X145310000Y-95377000D03*
X141710000Y-95377000D03*
%TD*%
D11*
%TO.C,JP1*%
X135483600Y-82478400D03*
X135483600Y-81178400D03*
X135483600Y-79878400D03*
%TD*%
D12*
%TO.C,SW5*%
X138920000Y-89916000D03*
X148100000Y-89916000D03*
%TD*%
D13*
%TO.C,PJ-327A2*%
X150368000Y-125734000D03*
D14*
X150368000Y-122684000D03*
D15*
X147568000Y-129434000D03*
X153168000Y-132334000D03*
D13*
X150368000Y-132734000D03*
%TD*%
%TO.C,PJ-327A1*%
X141986000Y-131620000D03*
X141986000Y-125620000D03*
D16*
X138486000Y-133020000D03*
X138486000Y-129420000D03*
X138486000Y-123320000D03*
X145486000Y-125020000D03*
X145486000Y-132020000D03*
%TD*%
D17*
%TO.C,J2*%
X154940000Y-64262000D03*
D18*
X154940000Y-66802000D03*
X154940000Y-69342000D03*
X154940000Y-71882000D03*
X154940000Y-74422000D03*
X154940000Y-76962000D03*
X154940000Y-79502000D03*
X154940000Y-82042000D03*
X154940000Y-84582000D03*
X154940000Y-87122000D03*
X154940000Y-89662000D03*
X154940000Y-92202000D03*
X154940000Y-94742000D03*
X154940000Y-97282000D03*
X154940000Y-99822000D03*
X154940000Y-102362000D03*
X154940000Y-104902000D03*
X154940000Y-107442000D03*
X154940000Y-109982000D03*
X154940000Y-112522000D03*
%TD*%
D19*
%TO.C,J6*%
X143256000Y-77302000D03*
X142156000Y-77302000D03*
X141056000Y-77302000D03*
X144356000Y-77302000D03*
X145456000Y-77302000D03*
X146556000Y-77302000D03*
X148756000Y-77302000D03*
X147656000Y-77302000D03*
X149856000Y-77302000D03*
D20*
X151006000Y-76802000D03*
D21*
X136406000Y-76802000D03*
D22*
X151006000Y-67202000D03*
X135506000Y-67202000D03*
%TD*%
D23*
%TO.C,D2*%
X146812000Y-113030000D03*
X150812000Y-113030000D03*
%TD*%
D17*
%TO.C,J4*%
X132080000Y-115062000D03*
D18*
X132080000Y-112522000D03*
X132080000Y-109982000D03*
X132080000Y-107442000D03*
X132080000Y-104902000D03*
X132080000Y-102362000D03*
X132080000Y-99822000D03*
X132080000Y-97282000D03*
X132080000Y-94742000D03*
X132080000Y-92202000D03*
X132080000Y-89662000D03*
X132080000Y-87122000D03*
X132080000Y-84582000D03*
X132080000Y-82042000D03*
X132080000Y-79502000D03*
X132080000Y-76962000D03*
X132080000Y-74422000D03*
X132080000Y-71882000D03*
X132080000Y-69342000D03*
X132080000Y-66802000D03*
X132080000Y-64262000D03*
%TD*%
D12*
%TO.C,SW1*%
X148100000Y-85344000D03*
X138920000Y-85344000D03*
%TD*%
D10*
%TO.C,C4*%
X141519500Y-100457000D03*
X145119500Y-100457000D03*
%TD*%
D12*
%TO.C,SW4*%
X138920000Y-106553000D03*
X148100000Y-106553000D03*
%TD*%
D24*
%TO.C,R1*%
X143176000Y-81026000D03*
X145876000Y-81026000D03*
%TD*%
D25*
%TO.C,SW2*%
X137350500Y-102951500D03*
X137350500Y-93771500D03*
%TD*%
%TO.C,SW3*%
X149606000Y-102837200D03*
X149606000Y-93657200D03*
%TD*%
D23*
%TO.C,D1*%
X141478000Y-113030000D03*
X137478000Y-113030000D03*
%TD*%
D17*
%TO.C,J3*%
X154940000Y-120142000D03*
D18*
X154940000Y-117602000D03*
%TD*%
D26*
%TO.C,J1*%
X132191300Y-119122000D03*
X132191300Y-132842000D03*
D27*
X134861300Y-122682000D03*
X134861300Y-125222000D03*
X134861300Y-127252000D03*
X134861300Y-129792000D03*
%TD*%
D12*
%TO.C,SW1*%
X111996000Y-85344000D03*
X121176000Y-85344000D03*
%TD*%
D11*
%TO.C,JP1*%
X108559600Y-79878400D03*
X108559600Y-81178400D03*
X108559600Y-82478400D03*
%TD*%
D27*
%TO.C,J1*%
X107937300Y-129792000D03*
X107937300Y-127252000D03*
X107937300Y-125222000D03*
X107937300Y-122682000D03*
D26*
X105267300Y-132842000D03*
X105267300Y-119122000D03*
%TD*%
D13*
%TO.C,PJ-327A2*%
X123444000Y-132734000D03*
D15*
X126244000Y-132334000D03*
X120644000Y-129434000D03*
D14*
X123444000Y-122684000D03*
D13*
X123444000Y-125734000D03*
%TD*%
D16*
%TO.C,PJ-327A1*%
X118562000Y-132020000D03*
X118562000Y-125020000D03*
X111562000Y-123320000D03*
X111562000Y-129420000D03*
X111562000Y-133020000D03*
D13*
X115062000Y-125620000D03*
X115062000Y-131620000D03*
%TD*%
D10*
%TO.C,C4*%
X118195500Y-100457000D03*
X114595500Y-100457000D03*
%TD*%
%TO.C,C5*%
X114786000Y-95377000D03*
X118386000Y-95377000D03*
%TD*%
D23*
%TO.C,D1*%
X110554000Y-113030000D03*
X114554000Y-113030000D03*
%TD*%
%TO.C,D2*%
X123888000Y-113030000D03*
X119888000Y-113030000D03*
%TD*%
D18*
%TO.C,J2*%
X128016000Y-112522000D03*
X128016000Y-109982000D03*
X128016000Y-107442000D03*
X128016000Y-104902000D03*
X128016000Y-102362000D03*
X128016000Y-99822000D03*
X128016000Y-97282000D03*
X128016000Y-94742000D03*
X128016000Y-92202000D03*
X128016000Y-89662000D03*
X128016000Y-87122000D03*
X128016000Y-84582000D03*
X128016000Y-82042000D03*
X128016000Y-79502000D03*
X128016000Y-76962000D03*
X128016000Y-74422000D03*
X128016000Y-71882000D03*
X128016000Y-69342000D03*
X128016000Y-66802000D03*
D17*
X128016000Y-64262000D03*
%TD*%
D18*
%TO.C,J3*%
X128016000Y-117602000D03*
D17*
X128016000Y-120142000D03*
%TD*%
D22*
%TO.C,J6*%
X108582000Y-67202000D03*
X124082000Y-67202000D03*
D21*
X109482000Y-76802000D03*
D20*
X124082000Y-76802000D03*
D19*
X122932000Y-77302000D03*
X120732000Y-77302000D03*
X121832000Y-77302000D03*
X119632000Y-77302000D03*
X118532000Y-77302000D03*
X117432000Y-77302000D03*
X114132000Y-77302000D03*
X115232000Y-77302000D03*
X116332000Y-77302000D03*
%TD*%
D24*
%TO.C,R1*%
X118952000Y-81026000D03*
X116252000Y-81026000D03*
%TD*%
D25*
%TO.C,SW2*%
X110426500Y-93771500D03*
X110426500Y-102951500D03*
%TD*%
%TO.C,SW3*%
X122682000Y-93657200D03*
X122682000Y-102837200D03*
%TD*%
D12*
%TO.C,SW4*%
X121176000Y-106553000D03*
X111996000Y-106553000D03*
%TD*%
%TO.C,SW5*%
X121176000Y-89916000D03*
X111996000Y-89916000D03*
%TD*%
D18*
%TO.C,J4*%
X105156000Y-64262000D03*
X105156000Y-66802000D03*
X105156000Y-69342000D03*
X105156000Y-71882000D03*
X105156000Y-74422000D03*
X105156000Y-76962000D03*
X105156000Y-79502000D03*
X105156000Y-82042000D03*
X105156000Y-84582000D03*
X105156000Y-87122000D03*
X105156000Y-89662000D03*
X105156000Y-92202000D03*
X105156000Y-94742000D03*
X105156000Y-97282000D03*
X105156000Y-99822000D03*
X105156000Y-102362000D03*
X105156000Y-104902000D03*
X105156000Y-107442000D03*
X105156000Y-109982000D03*
X105156000Y-112522000D03*
D17*
X105156000Y-115062000D03*
%TD*%
M02*
