%TF.GenerationSoftware,KiCad,Pcbnew,5.0.0-rc2-dev-unknown-d09445c~65~ubuntu16.04.1*%
%TF.CreationDate,2018-05-20T19:04:23+02:00*%
%TF.ProjectId,F-6888multi,462D363838386D756C74692E6B696361,rev?*%
%TF.SameCoordinates,Original*%
%TF.FileFunction,Soldermask,Top*%
%TF.FilePolarity,Negative*%
%FSLAX46Y46*%
G04 Gerber Fmt 4.6, Leading zero omitted, Abs format (unit mm)*
G04 Created by KiCad (PCBNEW 5.0.0-rc2-dev-unknown-d09445c~65~ubuntu16.04.1) date Sun May 20 19:04:23 2018*
%MOMM*%
%LPD*%
G01*
G04 APERTURE LIST*
%ADD10R,0.700000X1.600000*%
%ADD11R,1.200000X1.400000*%
%ADD12R,1.600000X1.400000*%
%ADD13R,1.200000X2.200000*%
%ADD14R,2.000000X1.700000*%
%ADD15C,1.600000*%
%ADD16R,1.500000X3.500000*%
%ADD17R,2.000000X1.600000*%
%ADD18R,1.500000X1.000000*%
%ADD19R,1.600000X2.180000*%
%ADD20R,1.700000X1.700000*%
%ADD21O,2.100000X2.100000*%
%ADD22R,1.300000X1.500000*%
%ADD23R,0.750000X1.200000*%
%ADD24R,2.180000X1.600000*%
%ADD25C,3.400000*%
%ADD26C,1.900000*%
%ADD27R,3.000000X1.500000*%
%ADD28R,1.500000X1.300000*%
G04 APERTURE END LIST*
D10*
%TO.C,J6*%
X159308800Y-68767600D03*
X158208800Y-68767600D03*
X157108800Y-68767600D03*
X160408800Y-68767600D03*
X161508800Y-68767600D03*
X162608800Y-68767600D03*
X164808800Y-68767600D03*
X163708800Y-68767600D03*
X165908800Y-68767600D03*
D11*
X167058800Y-68267600D03*
D12*
X152458800Y-68267600D03*
D13*
X167058800Y-58667600D03*
X151558800Y-58667600D03*
%TD*%
D14*
%TO.C,D2*%
X162864800Y-103225600D03*
X166864800Y-103225600D03*
%TD*%
D15*
%TO.C,U4*%
X165754800Y-120243600D03*
D16*
X164554800Y-116493600D03*
X169754800Y-123993600D03*
X171554800Y-116493600D03*
D15*
X171754800Y-120243600D03*
%TD*%
D17*
%TO.C,C4*%
X161372300Y-91922600D03*
X157372300Y-91922600D03*
%TD*%
D18*
%TO.C,JP1*%
X151536400Y-73944000D03*
X151536400Y-72644000D03*
X151536400Y-71344000D03*
%TD*%
D19*
%TO.C,SW2*%
X153403300Y-94417100D03*
X153403300Y-85237100D03*
%TD*%
D17*
%TO.C,C10*%
X154083000Y-109982000D03*
X158083000Y-109982000D03*
%TD*%
%TO.C,C9*%
X158083000Y-107188000D03*
X154083000Y-107188000D03*
%TD*%
D20*
%TO.C,J2*%
X170992800Y-55727600D03*
D21*
X170992800Y-58267600D03*
X170992800Y-60807600D03*
X170992800Y-63347600D03*
X170992800Y-65887600D03*
X170992800Y-68427600D03*
X170992800Y-70967600D03*
X170992800Y-73507600D03*
X170992800Y-76047600D03*
X170992800Y-78587600D03*
X170992800Y-81127600D03*
X170992800Y-83667600D03*
X170992800Y-86207600D03*
X170992800Y-88747600D03*
X170992800Y-91287600D03*
X170992800Y-93827600D03*
X170992800Y-96367600D03*
X170992800Y-98907600D03*
X170992800Y-101447600D03*
X170992800Y-103987600D03*
%TD*%
D14*
%TO.C,D1*%
X157498800Y-103479600D03*
X153498800Y-103479600D03*
%TD*%
D22*
%TO.C,L1*%
X168122600Y-61366400D03*
X168122600Y-64066400D03*
%TD*%
D23*
%TO.C,C8*%
X168833800Y-57795200D03*
X168833800Y-55895200D03*
%TD*%
D20*
%TO.C,J4*%
X148132800Y-106527600D03*
D21*
X148132800Y-103987600D03*
X148132800Y-101447600D03*
X148132800Y-98907600D03*
X148132800Y-96367600D03*
X148132800Y-93827600D03*
X148132800Y-91287600D03*
X148132800Y-88747600D03*
X148132800Y-86207600D03*
X148132800Y-83667600D03*
X148132800Y-81127600D03*
X148132800Y-78587600D03*
X148132800Y-76047600D03*
X148132800Y-73507600D03*
X148132800Y-70967600D03*
X148132800Y-68427600D03*
X148132800Y-65887600D03*
X148132800Y-63347600D03*
X148132800Y-60807600D03*
X148132800Y-58267600D03*
X148132800Y-55727600D03*
%TD*%
D24*
%TO.C,SW1*%
X164152800Y-76809600D03*
X154972800Y-76809600D03*
%TD*%
D25*
%TO.C,J1*%
X148244100Y-110587600D03*
X148244100Y-124307600D03*
D26*
X150914100Y-114147600D03*
X150914100Y-116687600D03*
X150914100Y-118717600D03*
X150914100Y-121257600D03*
%TD*%
D27*
%TO.C,U2*%
X161030800Y-123485600D03*
X161030800Y-116485600D03*
X154030800Y-114785600D03*
X154030800Y-120885600D03*
X154030800Y-124485600D03*
D15*
X157530800Y-117085600D03*
X157530800Y-123085600D03*
%TD*%
D17*
%TO.C,C5*%
X157562800Y-86842600D03*
X161562800Y-86842600D03*
%TD*%
D24*
%TO.C,SW5*%
X154972800Y-81381600D03*
X164152800Y-81381600D03*
%TD*%
%TO.C,SW4*%
X154972800Y-98018600D03*
X164152800Y-98018600D03*
%TD*%
D19*
%TO.C,SW3*%
X165658800Y-85122800D03*
X165658800Y-94302800D03*
%TD*%
D15*
%TO.C,U3*%
X171246800Y-111099600D03*
D16*
X171046800Y-107349600D03*
X169246800Y-114849600D03*
X164046800Y-107349600D03*
D15*
X165246800Y-111099600D03*
%TD*%
D28*
%TO.C,R1*%
X159228800Y-72491600D03*
X161928800Y-72491600D03*
%TD*%
D10*
%TO.C,J6*%
X132384800Y-68767600D03*
X131284800Y-68767600D03*
X130184800Y-68767600D03*
X133484800Y-68767600D03*
X134584800Y-68767600D03*
X135684800Y-68767600D03*
X137884800Y-68767600D03*
X136784800Y-68767600D03*
X138984800Y-68767600D03*
D11*
X140134800Y-68267600D03*
D12*
X125534800Y-68267600D03*
D13*
X140134800Y-58667600D03*
X124634800Y-58667600D03*
%TD*%
D14*
%TO.C,D2*%
X135940800Y-103225600D03*
X139940800Y-103225600D03*
%TD*%
D15*
%TO.C,U4*%
X138830800Y-120243600D03*
D16*
X137630800Y-116493600D03*
X142830800Y-123993600D03*
X144630800Y-116493600D03*
D15*
X144830800Y-120243600D03*
%TD*%
D17*
%TO.C,C4*%
X134448300Y-91922600D03*
X130448300Y-91922600D03*
%TD*%
D18*
%TO.C,JP1*%
X124612400Y-73944000D03*
X124612400Y-72644000D03*
X124612400Y-71344000D03*
%TD*%
D19*
%TO.C,SW2*%
X126479300Y-94417100D03*
X126479300Y-85237100D03*
%TD*%
D17*
%TO.C,C10*%
X127159000Y-109982000D03*
X131159000Y-109982000D03*
%TD*%
%TO.C,C9*%
X131159000Y-107188000D03*
X127159000Y-107188000D03*
%TD*%
D20*
%TO.C,J2*%
X144068800Y-55727600D03*
D21*
X144068800Y-58267600D03*
X144068800Y-60807600D03*
X144068800Y-63347600D03*
X144068800Y-65887600D03*
X144068800Y-68427600D03*
X144068800Y-70967600D03*
X144068800Y-73507600D03*
X144068800Y-76047600D03*
X144068800Y-78587600D03*
X144068800Y-81127600D03*
X144068800Y-83667600D03*
X144068800Y-86207600D03*
X144068800Y-88747600D03*
X144068800Y-91287600D03*
X144068800Y-93827600D03*
X144068800Y-96367600D03*
X144068800Y-98907600D03*
X144068800Y-101447600D03*
X144068800Y-103987600D03*
%TD*%
D14*
%TO.C,D1*%
X130574800Y-103479600D03*
X126574800Y-103479600D03*
%TD*%
D22*
%TO.C,L1*%
X141198600Y-61366400D03*
X141198600Y-64066400D03*
%TD*%
D23*
%TO.C,C8*%
X141909800Y-57795200D03*
X141909800Y-55895200D03*
%TD*%
D20*
%TO.C,J4*%
X121208800Y-106527600D03*
D21*
X121208800Y-103987600D03*
X121208800Y-101447600D03*
X121208800Y-98907600D03*
X121208800Y-96367600D03*
X121208800Y-93827600D03*
X121208800Y-91287600D03*
X121208800Y-88747600D03*
X121208800Y-86207600D03*
X121208800Y-83667600D03*
X121208800Y-81127600D03*
X121208800Y-78587600D03*
X121208800Y-76047600D03*
X121208800Y-73507600D03*
X121208800Y-70967600D03*
X121208800Y-68427600D03*
X121208800Y-65887600D03*
X121208800Y-63347600D03*
X121208800Y-60807600D03*
X121208800Y-58267600D03*
X121208800Y-55727600D03*
%TD*%
D24*
%TO.C,SW1*%
X137228800Y-76809600D03*
X128048800Y-76809600D03*
%TD*%
D25*
%TO.C,J1*%
X121320100Y-110587600D03*
X121320100Y-124307600D03*
D26*
X123990100Y-114147600D03*
X123990100Y-116687600D03*
X123990100Y-118717600D03*
X123990100Y-121257600D03*
%TD*%
D27*
%TO.C,U2*%
X134106800Y-123485600D03*
X134106800Y-116485600D03*
X127106800Y-114785600D03*
X127106800Y-120885600D03*
X127106800Y-124485600D03*
D15*
X130606800Y-117085600D03*
X130606800Y-123085600D03*
%TD*%
D17*
%TO.C,C5*%
X130638800Y-86842600D03*
X134638800Y-86842600D03*
%TD*%
D24*
%TO.C,SW5*%
X128048800Y-81381600D03*
X137228800Y-81381600D03*
%TD*%
%TO.C,SW4*%
X128048800Y-98018600D03*
X137228800Y-98018600D03*
%TD*%
D19*
%TO.C,SW3*%
X138734800Y-85122800D03*
X138734800Y-94302800D03*
%TD*%
D15*
%TO.C,U3*%
X144322800Y-111099600D03*
D16*
X144122800Y-107349600D03*
X142322800Y-114849600D03*
X137122800Y-107349600D03*
D15*
X138322800Y-111099600D03*
%TD*%
D28*
%TO.C,R1*%
X132304800Y-72491600D03*
X135004800Y-72491600D03*
%TD*%
D15*
%TO.C,U3*%
X111398800Y-111099600D03*
D16*
X110198800Y-107349600D03*
X115398800Y-114849600D03*
X117198800Y-107349600D03*
D15*
X117398800Y-111099600D03*
%TD*%
D22*
%TO.C,L1*%
X114274600Y-64066400D03*
X114274600Y-61366400D03*
%TD*%
D23*
%TO.C,C8*%
X114985800Y-55895200D03*
X114985800Y-57795200D03*
%TD*%
D17*
%TO.C,C10*%
X104235000Y-109982000D03*
X100235000Y-109982000D03*
%TD*%
%TO.C,C9*%
X100235000Y-107188000D03*
X104235000Y-107188000D03*
%TD*%
D26*
%TO.C,J1*%
X97066100Y-121257600D03*
X97066100Y-118717600D03*
X97066100Y-116687600D03*
X97066100Y-114147600D03*
D25*
X94396100Y-124307600D03*
X94396100Y-110587600D03*
%TD*%
D24*
%TO.C,SW1*%
X101124800Y-76809600D03*
X110304800Y-76809600D03*
%TD*%
D18*
%TO.C,JP1*%
X97688400Y-71344000D03*
X97688400Y-72644000D03*
X97688400Y-73944000D03*
%TD*%
D15*
%TO.C,U2*%
X103682800Y-123085600D03*
X103682800Y-117085600D03*
D27*
X100182800Y-124485600D03*
X100182800Y-120885600D03*
X100182800Y-114785600D03*
X107182800Y-116485600D03*
X107182800Y-123485600D03*
%TD*%
D14*
%TO.C,D1*%
X99650800Y-103479600D03*
X103650800Y-103479600D03*
%TD*%
%TO.C,D2*%
X113016800Y-103225600D03*
X109016800Y-103225600D03*
%TD*%
D21*
%TO.C,J2*%
X117144800Y-103987600D03*
X117144800Y-101447600D03*
X117144800Y-98907600D03*
X117144800Y-96367600D03*
X117144800Y-93827600D03*
X117144800Y-91287600D03*
X117144800Y-88747600D03*
X117144800Y-86207600D03*
X117144800Y-83667600D03*
X117144800Y-81127600D03*
X117144800Y-78587600D03*
X117144800Y-76047600D03*
X117144800Y-73507600D03*
X117144800Y-70967600D03*
X117144800Y-68427600D03*
X117144800Y-65887600D03*
X117144800Y-63347600D03*
X117144800Y-60807600D03*
X117144800Y-58267600D03*
D20*
X117144800Y-55727600D03*
%TD*%
D13*
%TO.C,J6*%
X97710800Y-58667600D03*
X113210800Y-58667600D03*
D12*
X98610800Y-68267600D03*
D11*
X113210800Y-68267600D03*
D10*
X112060800Y-68767600D03*
X109860800Y-68767600D03*
X110960800Y-68767600D03*
X108760800Y-68767600D03*
X107660800Y-68767600D03*
X106560800Y-68767600D03*
X103260800Y-68767600D03*
X104360800Y-68767600D03*
X105460800Y-68767600D03*
%TD*%
D28*
%TO.C,R1*%
X108080800Y-72491600D03*
X105380800Y-72491600D03*
%TD*%
D19*
%TO.C,SW2*%
X99555300Y-85237100D03*
X99555300Y-94417100D03*
%TD*%
%TO.C,SW3*%
X111810800Y-94302800D03*
X111810800Y-85122800D03*
%TD*%
D24*
%TO.C,SW4*%
X110304800Y-98018600D03*
X101124800Y-98018600D03*
%TD*%
%TO.C,SW5*%
X110304800Y-81381600D03*
X101124800Y-81381600D03*
%TD*%
D21*
%TO.C,J4*%
X94284800Y-55727600D03*
X94284800Y-58267600D03*
X94284800Y-60807600D03*
X94284800Y-63347600D03*
X94284800Y-65887600D03*
X94284800Y-68427600D03*
X94284800Y-70967600D03*
X94284800Y-73507600D03*
X94284800Y-76047600D03*
X94284800Y-78587600D03*
X94284800Y-81127600D03*
X94284800Y-83667600D03*
X94284800Y-86207600D03*
X94284800Y-88747600D03*
X94284800Y-91287600D03*
X94284800Y-93827600D03*
X94284800Y-96367600D03*
X94284800Y-98907600D03*
X94284800Y-101447600D03*
X94284800Y-103987600D03*
D20*
X94284800Y-106527600D03*
%TD*%
D15*
%TO.C,U4*%
X117906800Y-120243600D03*
D16*
X117706800Y-116493600D03*
X115906800Y-123993600D03*
X110706800Y-116493600D03*
D15*
X111906800Y-120243600D03*
%TD*%
D17*
%TO.C,C4*%
X103524300Y-91922600D03*
X107524300Y-91922600D03*
%TD*%
%TO.C,C5*%
X107714800Y-86842600D03*
X103714800Y-86842600D03*
%TD*%
M02*
