M48
;DRILL file {KiCad 5.0.0-rc2-dev-unknown-b813eac~63~ubuntu16.04.1} date Sun Apr  8 17:46:52 2018
;FORMAT={-:-/ absolute / metric / decimal}
FMAT,2
METRIC,TZ
T1C0.400
T2C1.000
T3C2.300
T4C1.000
T5C1.200
%
G90
G05
M71
T1
X104.75Y-122.149
X104.877Y-129.718
X106.68Y-83.82
X108.14Y-83.82
X108.345Y-85.369
X108.687Y-108.966
X109.243Y-98.019
X109.797Y-97.143
X110.617Y-82.956
X110.693Y-98.362
X111.266Y-96.926
X111.289Y-73.101
X111.557Y-65.329
X111.735Y-126.695
X112.09Y-119.99
X112.243Y-100.813
X112.307Y-74.143
X112.319Y-86.868
X112.37Y-118.847
X112.395Y-117.577
X112.412Y-98.559
X112.42Y-92.024
X112.757Y-75.311
X113.402Y-98.42
X113.757Y-75.337
X113.97Y-79.273
X114.122Y-133.198
X114.242Y-87.159
X114.249Y-130.454
X114.656Y-121.869
X114.783Y-110.058
X114.783Y-116.027
X115.062Y-79.248
X115.087Y-93.396
X115.607Y-98.476
X115.672Y-75.413
X116.002Y-92.202
X116.053Y-129.972
X117.016Y-78.831
X117.17Y-83.49
X117.196Y-120.091
X117.577Y-122.047
X118.327Y-113.233
X118.567Y-75.514
X119.177Y-73.736
X119.38Y-127.051
X119.431Y-79.553
X119.431Y-119.812
X119.442Y-98.298
X119.99Y-104.013
X120.477Y-79.579
X120.718Y-75.304
X121.336Y-71.857
X121.361Y-73.076
X121.463Y-81.661
X121.691Y-132.232
X121.89Y-83.568
X122.901Y-80.788
X122.987Y-91.491
X123.241Y-82.753
X123.52Y-85.623
X123.622Y-98.679
X123.749Y-129.718
X124.054Y-90.526
X124.155Y-109.093
X124.181Y-88.849
X124.638Y-85.776
X124.765Y-83.82
X124.766Y-82.82
X125.705Y-93.523
X125.73Y-125.298
X125.954Y-90.576
X127.94Y-129.261
X128.549Y-133.121
X131.674Y-122.149
X131.801Y-129.718
X133.604Y-83.82
X135.064Y-83.82
X135.269Y-85.369
X135.611Y-108.966
X136.167Y-98.019
X136.721Y-97.143
X137.541Y-82.956
X137.617Y-98.362
X138.19Y-96.926
X138.213Y-73.101
X138.481Y-65.329
X138.659Y-126.695
X139.014Y-119.99
X139.167Y-100.813
X139.231Y-74.143
X139.243Y-86.868
X139.294Y-118.847
X139.319Y-117.577
X139.336Y-98.559
X139.344Y-92.024
X139.681Y-75.311
X140.326Y-98.42
X140.681Y-75.337
X140.894Y-79.273
X141.046Y-133.198
X141.166Y-87.159
X141.173Y-130.454
X141.58Y-121.869
X141.707Y-110.058
X141.707Y-116.027
X141.986Y-79.248
X142.011Y-93.396
X142.531Y-98.476
X142.596Y-75.413
X142.926Y-92.202
X142.977Y-129.972
X143.94Y-78.831
X144.094Y-83.49
X144.12Y-120.091
X144.501Y-122.047
X145.251Y-113.233
X145.491Y-75.514
X146.101Y-73.736
X146.304Y-127.051
X146.355Y-79.553
X146.355Y-119.812
X146.366Y-98.298
X146.914Y-104.013
X147.401Y-79.579
X147.642Y-75.304
X148.26Y-71.857
X148.285Y-73.076
X148.387Y-81.661
X148.615Y-132.232
X148.814Y-83.568
X149.825Y-80.788
X149.911Y-91.491
X150.165Y-82.753
X150.444Y-85.623
X150.546Y-98.679
X150.673Y-129.718
X150.978Y-90.526
X151.079Y-109.093
X151.105Y-88.849
X151.562Y-85.776
X151.689Y-83.82
X151.69Y-82.82
X152.629Y-93.523
X152.654Y-125.298
X152.878Y-90.576
X154.864Y-129.261
X155.473Y-133.121
X158.598Y-122.149
X158.725Y-129.718
X160.528Y-83.82
X161.988Y-83.82
X162.193Y-85.369
X162.535Y-108.966
X163.091Y-98.019
X163.645Y-97.143
X164.465Y-82.956
X164.541Y-98.362
X165.114Y-96.926
X165.137Y-73.101
X165.405Y-65.329
X165.583Y-126.695
X165.938Y-119.99
X166.091Y-100.813
X166.155Y-74.143
X166.167Y-86.868
X166.218Y-118.847
X166.243Y-117.577
X166.26Y-98.559
X166.268Y-92.024
X166.605Y-75.311
X167.25Y-98.42
X167.605Y-75.337
X167.818Y-79.273
X167.97Y-133.198
X168.09Y-87.159
X168.097Y-130.454
X168.504Y-121.869
X168.631Y-110.058
X168.631Y-116.027
X168.91Y-79.248
X168.935Y-93.396
X169.455Y-98.476
X169.52Y-75.413
X169.85Y-92.202
X169.901Y-129.972
X170.864Y-78.831
X171.018Y-83.49
X171.044Y-120.091
X171.425Y-122.047
X172.175Y-113.233
X172.415Y-75.514
X173.025Y-73.736
X173.228Y-127.051
X173.279Y-79.553
X173.279Y-119.812
X173.29Y-98.298
X173.838Y-104.013
X174.325Y-79.579
X174.566Y-75.304
X175.184Y-71.857
X175.209Y-73.076
X175.311Y-81.661
X175.539Y-132.232
X175.738Y-83.568
X176.749Y-80.788
X176.835Y-91.491
X177.089Y-82.753
X177.368Y-85.623
X177.47Y-98.679
X177.597Y-129.718
X177.902Y-90.526
X178.003Y-109.093
X178.029Y-88.849
X178.486Y-85.776
X178.613Y-83.82
X178.614Y-82.82
X179.553Y-93.523
X179.578Y-125.298
X179.802Y-90.576
X181.788Y-129.261
X182.397Y-133.121
T2
X181.864Y-117.602
X181.864Y-120.142
X154.94Y-117.602
X154.94Y-120.142
X107.937Y-122.682
X107.937Y-125.222
X107.937Y-127.252
X107.937Y-129.792
X134.861Y-122.682
X134.861Y-125.222
X134.861Y-127.252
X134.861Y-129.792
X154.94Y-64.262
X154.94Y-66.802
X154.94Y-69.342
X154.94Y-71.882
X154.94Y-74.422
X154.94Y-76.962
X154.94Y-79.502
X154.94Y-82.042
X154.94Y-84.582
X154.94Y-87.122
X154.94Y-89.662
X154.94Y-92.202
X154.94Y-94.742
X154.94Y-97.282
X154.94Y-99.822
X154.94Y-102.362
X154.94Y-104.902
X154.94Y-107.442
X154.94Y-109.982
X154.94Y-112.522
X181.864Y-64.262
X181.864Y-66.802
X181.864Y-69.342
X181.864Y-71.882
X181.864Y-74.422
X181.864Y-76.962
X181.864Y-79.502
X181.864Y-82.042
X181.864Y-84.582
X181.864Y-87.122
X181.864Y-89.662
X181.864Y-92.202
X181.864Y-94.742
X181.864Y-97.282
X181.864Y-99.822
X181.864Y-102.362
X181.864Y-104.902
X181.864Y-107.442
X181.864Y-109.982
X181.864Y-112.522
X161.785Y-122.682
X161.785Y-125.222
X161.785Y-127.252
X161.785Y-129.792
X128.016Y-64.262
X128.016Y-66.802
X128.016Y-69.342
X128.016Y-71.882
X128.016Y-74.422
X128.016Y-76.962
X128.016Y-79.502
X128.016Y-82.042
X128.016Y-84.582
X128.016Y-87.122
X128.016Y-89.662
X128.016Y-92.202
X128.016Y-94.742
X128.016Y-97.282
X128.016Y-99.822
X128.016Y-102.362
X128.016Y-104.902
X128.016Y-107.442
X128.016Y-109.982
X128.016Y-112.522
X132.08Y-64.262
X132.08Y-66.802
X132.08Y-69.342
X132.08Y-71.882
X132.08Y-74.422
X132.08Y-76.962
X132.08Y-79.502
X132.08Y-82.042
X132.08Y-84.582
X132.08Y-87.122
X132.08Y-89.662
X132.08Y-92.202
X132.08Y-94.742
X132.08Y-97.282
X132.08Y-99.822
X132.08Y-102.362
X132.08Y-104.902
X132.08Y-107.442
X132.08Y-109.982
X132.08Y-112.522
X132.08Y-115.062
X159.004Y-64.262
X159.004Y-66.802
X159.004Y-69.342
X159.004Y-71.882
X159.004Y-74.422
X159.004Y-76.962
X159.004Y-79.502
X159.004Y-82.042
X159.004Y-84.582
X159.004Y-87.122
X159.004Y-89.662
X159.004Y-92.202
X159.004Y-94.742
X159.004Y-97.282
X159.004Y-99.822
X159.004Y-102.362
X159.004Y-104.902
X159.004Y-107.442
X159.004Y-109.982
X159.004Y-112.522
X159.004Y-115.062
X128.016Y-117.602
X128.016Y-120.142
X105.156Y-64.262
X105.156Y-66.802
X105.156Y-69.342
X105.156Y-71.882
X105.156Y-74.422
X105.156Y-76.962
X105.156Y-79.502
X105.156Y-82.042
X105.156Y-84.582
X105.156Y-87.122
X105.156Y-89.662
X105.156Y-92.202
X105.156Y-94.742
X105.156Y-97.282
X105.156Y-99.822
X105.156Y-102.362
X105.156Y-104.902
X105.156Y-107.442
X105.156Y-109.982
X105.156Y-112.522
X105.156Y-115.062
T3
X105.267Y-119.122
X105.267Y-132.842
X132.191Y-119.122
X132.191Y-132.842
X159.115Y-119.122
X159.115Y-132.842
T4
X140.206Y-66.802
X148.186Y-66.802
X113.282Y-66.802
X121.262Y-66.802
X167.13Y-66.802
X175.11Y-66.802
T5
X168.91Y-125.62
X168.91Y-131.62
X123.444Y-125.734
X123.444Y-132.734
X177.292Y-125.734
X177.292Y-132.734
X115.062Y-125.62
X115.062Y-131.62
X141.986Y-125.62
X141.986Y-131.62
X150.368Y-125.734
X150.368Y-132.734
T0
M30
