M48
;DRILL file {KiCad 5.0.0-rc2-dev-unknown-d09445c~65~ubuntu16.04.1} date Sun May 20 19:04:26 2018
;FORMAT={-:-/ absolute / metric / decimal}
FMAT,2
METRIC,TZ
T1C0.400
T2C1.000
T3C2.300
T4C1.000
T5C1.200
%
G90
G05
M71
T1
X93.878Y-113.614
X94.005Y-121.183
X96.244Y-75.286
X97.079Y-80.366
X97.079Y-83.668
X97.269Y-75.286
X97.333Y-124.054
X97.815Y-100.432
X97.841Y-77.318
X98.345Y-89.421
X99.108Y-88.775
X99.111Y-90.78
X99.746Y-74.422
X100.381Y-122.784
X100.401Y-87.986
X100.418Y-64.567
X100.686Y-56.794
X101.219Y-85.598
X101.436Y-65.608
X101.648Y-104.847
X101.811Y-89.994
X101.876Y-107.412
X101.886Y-66.777
X101.908Y-108.411
X102.143Y-96.495
X102.159Y-93.65
X102.401Y-83.058
X102.667Y-62.078
X102.667Y-70.815
X102.8Y-89.846
X102.886Y-66.803
X102.895Y-78.638
X103.429Y-124.816
X103.664Y-70.896
X103.734Y-94.248
X104.211Y-84.899
X104.286Y-89.941
X104.724Y-70.612
X104.8Y-66.878
X105.131Y-84.48
X105.181Y-121.437
X105.943Y-74.752
X106.561Y-66.751
X106.985Y-75.463
X107.188Y-70.434
X107.456Y-104.699
X107.696Y-66.98
X108.255Y-110.185
X108.306Y-65.202
X108.571Y-89.764
X108.572Y-71.023
X109.118Y-95.479
X109.195Y-92.798
X109.605Y-71.045
X109.847Y-66.769
X110.16Y-59.538
X110.439Y-55.677
X110.465Y-63.322
X110.49Y-64.541
X110.541Y-124.562
X110.592Y-73.127
X110.795Y-114.148
X110.996Y-75.036
X112.03Y-72.254
X112.293Y-108.204
X112.454Y-74.741
X112.649Y-77.089
X112.751Y-90.145
X113.194Y-81.987
X113.309Y-80.315
X113.716Y-119.355
X113.767Y-77.241
X113.894Y-75.286
X113.895Y-74.275
X114.021Y-82.728
X115.082Y-82.042
X115.621Y-120.244
X120.802Y-113.614
X120.929Y-121.183
X123.168Y-75.286
X124.003Y-80.366
X124.003Y-83.668
X124.193Y-75.286
X124.257Y-124.054
X124.739Y-100.432
X124.765Y-77.318
X125.269Y-89.421
X126.032Y-88.775
X126.035Y-90.78
X126.67Y-74.422
X127.305Y-122.784
X127.325Y-87.986
X127.342Y-64.567
X127.61Y-56.794
X128.143Y-85.598
X128.36Y-65.608
X128.572Y-104.847
X128.735Y-89.994
X128.8Y-107.412
X128.81Y-66.777
X128.832Y-108.411
X129.067Y-96.495
X129.083Y-93.65
X129.325Y-83.058
X129.591Y-62.078
X129.591Y-70.815
X129.724Y-89.846
X129.81Y-66.803
X129.819Y-78.638
X130.353Y-124.816
X130.588Y-70.896
X130.658Y-94.248
X131.135Y-84.899
X131.21Y-89.941
X131.648Y-70.612
X131.724Y-66.878
X132.055Y-84.48
X132.105Y-121.437
X132.867Y-74.752
X133.485Y-66.751
X133.909Y-75.463
X134.112Y-70.434
X134.38Y-104.699
X134.62Y-66.98
X135.179Y-110.185
X135.23Y-65.202
X135.495Y-89.764
X135.496Y-71.023
X136.042Y-95.479
X136.119Y-92.798
X136.529Y-71.045
X136.771Y-66.769
X137.084Y-59.538
X137.363Y-55.677
X137.389Y-63.322
X137.414Y-64.541
X137.465Y-124.562
X137.516Y-73.127
X137.719Y-114.148
X137.92Y-75.036
X138.954Y-72.254
X139.217Y-108.204
X139.378Y-74.741
X139.573Y-77.089
X139.675Y-90.145
X140.118Y-81.987
X140.233Y-80.315
X140.64Y-119.355
X140.691Y-77.241
X140.818Y-75.286
X140.819Y-74.275
X140.945Y-82.728
X142.006Y-82.042
X142.545Y-120.244
X147.726Y-113.614
X147.853Y-121.183
X150.092Y-75.286
X150.927Y-80.366
X150.927Y-83.668
X151.117Y-75.286
X151.181Y-124.054
X151.663Y-100.432
X151.689Y-77.318
X152.193Y-89.421
X152.956Y-88.775
X152.959Y-90.78
X153.594Y-74.422
X154.229Y-122.784
X154.249Y-87.986
X154.266Y-64.567
X154.534Y-56.794
X155.067Y-85.598
X155.284Y-65.608
X155.496Y-104.847
X155.659Y-89.994
X155.724Y-107.412
X155.734Y-66.777
X155.756Y-108.411
X155.991Y-96.495
X156.007Y-93.65
X156.249Y-83.058
X156.515Y-62.078
X156.515Y-70.815
X156.648Y-89.846
X156.734Y-66.803
X156.743Y-78.638
X157.277Y-124.816
X157.512Y-70.896
X157.582Y-94.248
X158.059Y-84.899
X158.134Y-89.941
X158.572Y-70.612
X158.648Y-66.878
X158.979Y-84.48
X159.029Y-121.437
X159.791Y-74.752
X160.409Y-66.751
X160.833Y-75.463
X161.036Y-70.434
X161.304Y-104.699
X161.544Y-66.98
X162.103Y-110.185
X162.154Y-65.202
X162.419Y-89.764
X162.42Y-71.023
X162.966Y-95.479
X163.043Y-92.798
X163.453Y-71.045
X163.695Y-66.769
X164.008Y-59.538
X164.287Y-55.677
X164.313Y-63.322
X164.338Y-64.541
X164.389Y-124.562
X164.44Y-73.127
X164.643Y-114.148
X164.844Y-75.036
X165.878Y-72.254
X166.141Y-108.204
X166.302Y-74.741
X166.497Y-77.089
X166.599Y-90.145
X167.042Y-81.987
X167.157Y-80.315
X167.564Y-119.355
X167.615Y-77.241
X167.742Y-75.286
X167.743Y-74.275
X167.869Y-82.728
X168.93Y-82.042
X169.469Y-120.244
T2
X150.914Y-114.148
X150.914Y-116.688
X150.914Y-118.718
X150.914Y-121.258
X97.066Y-114.148
X97.066Y-116.688
X97.066Y-118.718
X97.066Y-121.258
X123.99Y-114.148
X123.99Y-116.688
X123.99Y-118.718
X123.99Y-121.258
X94.285Y-55.728
X94.285Y-58.268
X94.285Y-60.808
X94.285Y-63.348
X94.285Y-65.888
X94.285Y-68.428
X94.285Y-70.968
X94.285Y-73.508
X94.285Y-76.048
X94.285Y-78.588
X94.285Y-81.128
X94.285Y-83.668
X94.285Y-86.208
X94.285Y-88.748
X94.285Y-91.288
X94.285Y-93.828
X94.285Y-96.368
X94.285Y-98.908
X94.285Y-101.448
X94.285Y-103.988
X94.285Y-106.528
X144.069Y-55.728
X144.069Y-58.268
X144.069Y-60.808
X144.069Y-63.348
X144.069Y-65.888
X144.069Y-68.428
X144.069Y-70.968
X144.069Y-73.508
X144.069Y-76.048
X144.069Y-78.588
X144.069Y-81.128
X144.069Y-83.668
X144.069Y-86.208
X144.069Y-88.748
X144.069Y-91.288
X144.069Y-93.828
X144.069Y-96.368
X144.069Y-98.908
X144.069Y-101.448
X144.069Y-103.988
X170.993Y-55.728
X170.993Y-58.268
X170.993Y-60.808
X170.993Y-63.348
X170.993Y-65.888
X170.993Y-68.428
X170.993Y-70.968
X170.993Y-73.508
X170.993Y-76.048
X170.993Y-78.588
X170.993Y-81.128
X170.993Y-83.668
X170.993Y-86.208
X170.993Y-88.748
X170.993Y-91.288
X170.993Y-93.828
X170.993Y-96.368
X170.993Y-98.908
X170.993Y-101.448
X170.993Y-103.988
X121.209Y-55.728
X121.209Y-58.268
X121.209Y-60.808
X121.209Y-63.348
X121.209Y-65.888
X121.209Y-68.428
X121.209Y-70.968
X121.209Y-73.508
X121.209Y-76.048
X121.209Y-78.588
X121.209Y-81.128
X121.209Y-83.668
X121.209Y-86.208
X121.209Y-88.748
X121.209Y-91.288
X121.209Y-93.828
X121.209Y-96.368
X121.209Y-98.908
X121.209Y-101.448
X121.209Y-103.988
X121.209Y-106.528
X148.133Y-55.728
X148.133Y-58.268
X148.133Y-60.808
X148.133Y-63.348
X148.133Y-65.888
X148.133Y-68.428
X148.133Y-70.968
X148.133Y-73.508
X148.133Y-76.048
X148.133Y-78.588
X148.133Y-81.128
X148.133Y-83.668
X148.133Y-86.208
X148.133Y-88.748
X148.133Y-91.288
X148.133Y-93.828
X148.133Y-96.368
X148.133Y-98.908
X148.133Y-101.448
X148.133Y-103.988
X148.133Y-106.528
X117.145Y-55.728
X117.145Y-58.268
X117.145Y-60.808
X117.145Y-63.348
X117.145Y-65.888
X117.145Y-68.428
X117.145Y-70.968
X117.145Y-73.508
X117.145Y-76.048
X117.145Y-78.588
X117.145Y-81.128
X117.145Y-83.668
X117.145Y-86.208
X117.145Y-88.748
X117.145Y-91.288
X117.145Y-93.828
X117.145Y-96.368
X117.145Y-98.908
X117.145Y-101.448
X117.145Y-103.988
T3
X148.244Y-110.588
X148.244Y-124.308
X94.396Y-110.588
X94.396Y-124.308
X121.32Y-110.588
X121.32Y-124.308
T4
X156.259Y-58.268
X164.239Y-58.268
X129.335Y-58.268
X137.315Y-58.268
X102.411Y-58.268
X110.391Y-58.268
T5
X111.399Y-111.1
X117.399Y-111.1
X130.607Y-117.086
X130.607Y-123.086
X165.247Y-111.1
X171.247Y-111.1
X138.323Y-111.1
X144.323Y-111.1
X138.831Y-120.244
X144.831Y-120.244
X111.907Y-120.244
X117.907Y-120.244
X165.755Y-120.244
X171.755Y-120.244
X157.531Y-117.086
X157.531Y-123.086
X103.683Y-117.086
X103.683Y-123.086
T0
M30
