%TF.GenerationSoftware,KiCad,Pcbnew,5.0.0-rc2-dev-unknown-d09445c~65~ubuntu16.04.1*%
%TF.CreationDate,2018-05-20T19:04:23+02:00*%
%TF.ProjectId,F-6888multi,462D363838386D756C74692E6B696361,rev?*%
%TF.SameCoordinates,Original*%
%TF.FileFunction,Legend,Bot*%
%TF.FilePolarity,Positive*%
%FSLAX46Y46*%
G04 Gerber Fmt 4.6, Leading zero omitted, Abs format (unit mm)*
G04 Created by KiCad (PCBNEW 5.0.0-rc2-dev-unknown-d09445c~65~ubuntu16.04.1) date Sun May 20 19:04:23 2018*
%MOMM*%
%LPD*%
G01*
G04 APERTURE LIST*
%ADD10C,0.125000*%
%ADD11C,0.120000*%
%ADD12C,0.150000*%
G04 APERTURE END LIST*
D10*
X168286085Y-67870457D02*
X168314657Y-67841885D01*
X168343228Y-67756171D01*
X168343228Y-67699028D01*
X168314657Y-67613314D01*
X168257514Y-67556171D01*
X168200371Y-67527600D01*
X168086085Y-67499028D01*
X168000371Y-67499028D01*
X167886085Y-67527600D01*
X167828942Y-67556171D01*
X167771800Y-67613314D01*
X167743228Y-67699028D01*
X167743228Y-67756171D01*
X167771800Y-67841885D01*
X167800371Y-67870457D01*
X168171800Y-68099028D02*
X168171800Y-68384742D01*
X168343228Y-68041885D02*
X167743228Y-68241885D01*
X168343228Y-68441885D01*
X168343228Y-68927600D02*
X168343228Y-68641885D01*
X167743228Y-68641885D01*
X168343228Y-69413314D02*
X168343228Y-69127600D01*
X167743228Y-69127600D01*
X168959085Y-83939028D02*
X168959085Y-83339028D01*
X168759085Y-83767600D01*
X168559085Y-83339028D01*
X168559085Y-83939028D01*
X168273371Y-83339028D02*
X168273371Y-83824742D01*
X168244800Y-83881885D01*
X168216228Y-83910457D01*
X168159085Y-83939028D01*
X168044800Y-83939028D01*
X167987657Y-83910457D01*
X167959085Y-83881885D01*
X167930514Y-83824742D01*
X167930514Y-83339028D01*
X167730514Y-83339028D02*
X167387657Y-83339028D01*
X167559085Y-83939028D02*
X167559085Y-83339028D01*
X167187657Y-83624742D02*
X166987657Y-83624742D01*
X166901942Y-83939028D02*
X167187657Y-83939028D01*
X167187657Y-83339028D01*
X166901942Y-83339028D01*
X168406800Y-55206957D02*
X168378228Y-55149814D01*
X168378228Y-55064100D01*
X168406800Y-54978385D01*
X168463942Y-54921242D01*
X168521085Y-54892671D01*
X168635371Y-54864100D01*
X168721085Y-54864100D01*
X168835371Y-54892671D01*
X168892514Y-54921242D01*
X168949657Y-54978385D01*
X168978228Y-55064100D01*
X168978228Y-55121242D01*
X168949657Y-55206957D01*
X168921085Y-55235528D01*
X168721085Y-55235528D01*
X168721085Y-55121242D01*
X168978228Y-55492671D02*
X168378228Y-55492671D01*
X168978228Y-55835528D01*
X168378228Y-55835528D01*
X168978228Y-56121242D02*
X168378228Y-56121242D01*
X168378228Y-56264100D01*
X168406800Y-56349814D01*
X168463942Y-56406957D01*
X168521085Y-56435528D01*
X168635371Y-56464100D01*
X168721085Y-56464100D01*
X168835371Y-56435528D01*
X168892514Y-56406957D01*
X168949657Y-56349814D01*
X168978228Y-56264100D01*
X168978228Y-56121242D01*
X168709828Y-90987600D02*
X168766971Y-90959028D01*
X168852685Y-90959028D01*
X168938400Y-90987600D01*
X168995542Y-91044742D01*
X169024114Y-91101885D01*
X169052685Y-91216171D01*
X169052685Y-91301885D01*
X169024114Y-91416171D01*
X168995542Y-91473314D01*
X168938400Y-91530457D01*
X168852685Y-91559028D01*
X168795542Y-91559028D01*
X168709828Y-91530457D01*
X168681257Y-91501885D01*
X168681257Y-91301885D01*
X168795542Y-91301885D01*
X168424114Y-91559028D02*
X168424114Y-90959028D01*
X168195542Y-90959028D01*
X168138400Y-90987600D01*
X168109828Y-91016171D01*
X168081257Y-91073314D01*
X168081257Y-91159028D01*
X168109828Y-91216171D01*
X168138400Y-91244742D01*
X168195542Y-91273314D01*
X168424114Y-91273314D01*
X167824114Y-91559028D02*
X167824114Y-90959028D01*
X167424114Y-90959028D02*
X167309828Y-90959028D01*
X167252685Y-90987600D01*
X167195542Y-91044742D01*
X167166971Y-91159028D01*
X167166971Y-91359028D01*
X167195542Y-91473314D01*
X167252685Y-91530457D01*
X167309828Y-91559028D01*
X167424114Y-91559028D01*
X167481257Y-91530457D01*
X167538400Y-91473314D01*
X167566971Y-91359028D01*
X167566971Y-91159028D01*
X167538400Y-91044742D01*
X167481257Y-90987600D01*
X167424114Y-90959028D01*
X166595542Y-91559028D02*
X166938400Y-91559028D01*
X166766971Y-91559028D02*
X166766971Y-90959028D01*
X166824114Y-91044742D01*
X166881257Y-91101885D01*
X166938400Y-91130457D01*
X166081257Y-90959028D02*
X166195542Y-90959028D01*
X166252685Y-90987600D01*
X166281257Y-91016171D01*
X166338400Y-91101885D01*
X166366971Y-91216171D01*
X166366971Y-91444742D01*
X166338400Y-91501885D01*
X166309828Y-91530457D01*
X166252685Y-91559028D01*
X166138400Y-91559028D01*
X166081257Y-91530457D01*
X166052685Y-91501885D01*
X166024114Y-91444742D01*
X166024114Y-91301885D01*
X166052685Y-91244742D01*
X166081257Y-91216171D01*
X166138400Y-91187600D01*
X166252685Y-91187600D01*
X166309828Y-91216171D01*
X166338400Y-91244742D01*
X166366971Y-91301885D01*
X150533085Y-106376828D02*
X150818800Y-106376828D01*
X150847371Y-106662542D01*
X150818800Y-106633971D01*
X150761657Y-106605400D01*
X150618800Y-106605400D01*
X150561657Y-106633971D01*
X150533085Y-106662542D01*
X150504514Y-106719685D01*
X150504514Y-106862542D01*
X150533085Y-106919685D01*
X150561657Y-106948257D01*
X150618800Y-106976828D01*
X150761657Y-106976828D01*
X150818800Y-106948257D01*
X150847371Y-106919685D01*
X150333085Y-106376828D02*
X150133085Y-106976828D01*
X149933085Y-106376828D01*
X168717828Y-89019028D02*
X169003542Y-89019028D01*
X169003542Y-88419028D01*
X168517828Y-88704742D02*
X168317828Y-88704742D01*
X168232114Y-89019028D02*
X168517828Y-89019028D01*
X168517828Y-88419028D01*
X168232114Y-88419028D01*
X167974971Y-89019028D02*
X167974971Y-88419028D01*
X167832114Y-88419028D01*
X167746400Y-88447600D01*
X167689257Y-88504742D01*
X167660685Y-88561885D01*
X167632114Y-88676171D01*
X167632114Y-88761885D01*
X167660685Y-88876171D01*
X167689257Y-88933314D01*
X167746400Y-88990457D01*
X167832114Y-89019028D01*
X167974971Y-89019028D01*
X167403542Y-88476171D02*
X167374971Y-88447600D01*
X167317828Y-88419028D01*
X167174971Y-88419028D01*
X167117828Y-88447600D01*
X167089257Y-88476171D01*
X167060685Y-88533314D01*
X167060685Y-88590457D01*
X167089257Y-88676171D01*
X167432114Y-89019028D01*
X167060685Y-89019028D01*
X168714742Y-59779028D02*
X168714742Y-59579028D01*
X169029028Y-59579028D02*
X168429028Y-59579028D01*
X168429028Y-59864742D01*
X169029028Y-60093314D02*
X168429028Y-60093314D01*
X168857600Y-60293314D01*
X168429028Y-60493314D01*
X169029028Y-60493314D01*
X169029028Y-60779028D02*
X168429028Y-60779028D01*
X169029028Y-61064742D02*
X168429028Y-61064742D01*
X169029028Y-61407600D01*
X168429028Y-61407600D01*
X169029028Y-61693314D02*
X168429028Y-61693314D01*
X169029028Y-62036171D01*
X168429028Y-62036171D01*
X167965442Y-57126314D02*
X167965442Y-56926314D01*
X168279728Y-56926314D02*
X167679728Y-56926314D01*
X167679728Y-57212028D01*
X168279728Y-57440600D02*
X167679728Y-57440600D01*
X168108300Y-57640600D01*
X167679728Y-57840600D01*
X168279728Y-57840600D01*
X168279728Y-58126314D02*
X167679728Y-58126314D01*
X168279728Y-58412028D02*
X167679728Y-58412028D01*
X168279728Y-58754885D01*
X167679728Y-58754885D01*
X168279728Y-59040600D02*
X167679728Y-59040600D01*
X167679728Y-59269171D01*
X167708300Y-59326314D01*
X167736871Y-59354885D01*
X167794014Y-59383457D01*
X167879728Y-59383457D01*
X167936871Y-59354885D01*
X167965442Y-59326314D01*
X167994014Y-59269171D01*
X167994014Y-59040600D01*
X153434828Y-91514600D02*
X153149114Y-91514600D01*
X153491971Y-91686028D02*
X153291971Y-91086028D01*
X153091971Y-91686028D01*
X152891971Y-91086028D02*
X152891971Y-91571742D01*
X152863400Y-91628885D01*
X152834828Y-91657457D01*
X152777685Y-91686028D01*
X152663400Y-91686028D01*
X152606257Y-91657457D01*
X152577685Y-91628885D01*
X152549114Y-91571742D01*
X152549114Y-91086028D01*
X152320542Y-91086028D02*
X151920542Y-91686028D01*
X151920542Y-91086028D02*
X152320542Y-91686028D01*
X151834828Y-91743171D02*
X151377685Y-91743171D01*
X151234828Y-91686028D02*
X151234828Y-91086028D01*
X151091971Y-91086028D01*
X151006257Y-91114600D01*
X150949114Y-91171742D01*
X150920542Y-91228885D01*
X150891971Y-91343171D01*
X150891971Y-91428885D01*
X150920542Y-91543171D01*
X150949114Y-91600314D01*
X151006257Y-91657457D01*
X151091971Y-91686028D01*
X151234828Y-91686028D01*
X150634828Y-91371742D02*
X150434828Y-91371742D01*
X150349114Y-91686028D02*
X150634828Y-91686028D01*
X150634828Y-91086028D01*
X150349114Y-91086028D01*
X150177685Y-91086028D02*
X149834828Y-91086028D01*
X150006257Y-91686028D02*
X150006257Y-91086028D01*
X150118800Y-55321257D02*
X150090228Y-55264114D01*
X150090228Y-55178400D01*
X150118800Y-55092685D01*
X150175942Y-55035542D01*
X150233085Y-55006971D01*
X150347371Y-54978400D01*
X150433085Y-54978400D01*
X150547371Y-55006971D01*
X150604514Y-55035542D01*
X150661657Y-55092685D01*
X150690228Y-55178400D01*
X150690228Y-55235542D01*
X150661657Y-55321257D01*
X150633085Y-55349828D01*
X150433085Y-55349828D01*
X150433085Y-55235542D01*
X150690228Y-55606971D02*
X150090228Y-55606971D01*
X150690228Y-55949828D01*
X150090228Y-55949828D01*
X150690228Y-56235542D02*
X150090228Y-56235542D01*
X150090228Y-56378400D01*
X150118800Y-56464114D01*
X150175942Y-56521257D01*
X150233085Y-56549828D01*
X150347371Y-56578400D01*
X150433085Y-56578400D01*
X150547371Y-56549828D01*
X150604514Y-56521257D01*
X150661657Y-56464114D01*
X150690228Y-56378400D01*
X150690228Y-56235542D01*
X152977657Y-104166957D02*
X152891942Y-104195528D01*
X152749085Y-104195528D01*
X152691942Y-104166957D01*
X152663371Y-104138385D01*
X152634800Y-104081242D01*
X152634800Y-104024100D01*
X152663371Y-103966957D01*
X152691942Y-103938385D01*
X152749085Y-103909814D01*
X152863371Y-103881242D01*
X152920514Y-103852671D01*
X152949085Y-103824100D01*
X152977657Y-103766957D01*
X152977657Y-103709814D01*
X152949085Y-103652671D01*
X152920514Y-103624100D01*
X152863371Y-103595528D01*
X152720514Y-103595528D01*
X152634800Y-103624100D01*
X152377657Y-104195528D02*
X152377657Y-103595528D01*
X152234800Y-103595528D01*
X152149085Y-103624100D01*
X152091942Y-103681242D01*
X152063371Y-103738385D01*
X152034800Y-103852671D01*
X152034800Y-103938385D01*
X152063371Y-104052671D01*
X152091942Y-104109814D01*
X152149085Y-104166957D01*
X152234800Y-104195528D01*
X152377657Y-104195528D01*
X151920514Y-104252671D02*
X151463371Y-104252671D01*
X150977657Y-104138385D02*
X151006228Y-104166957D01*
X151091942Y-104195528D01*
X151149085Y-104195528D01*
X151234800Y-104166957D01*
X151291942Y-104109814D01*
X151320514Y-104052671D01*
X151349085Y-103938385D01*
X151349085Y-103852671D01*
X151320514Y-103738385D01*
X151291942Y-103681242D01*
X151234800Y-103624100D01*
X151149085Y-103595528D01*
X151091942Y-103595528D01*
X151006228Y-103624100D01*
X150977657Y-103652671D01*
X150434800Y-104195528D02*
X150720514Y-104195528D01*
X150720514Y-103595528D01*
X150234800Y-104195528D02*
X150234800Y-103595528D01*
X149891942Y-104195528D02*
X150149085Y-103852671D01*
X149891942Y-103595528D02*
X150234800Y-103938385D01*
X168608228Y-96118400D02*
X168665371Y-96089828D01*
X168751085Y-96089828D01*
X168836800Y-96118400D01*
X168893942Y-96175542D01*
X168922514Y-96232685D01*
X168951085Y-96346971D01*
X168951085Y-96432685D01*
X168922514Y-96546971D01*
X168893942Y-96604114D01*
X168836800Y-96661257D01*
X168751085Y-96689828D01*
X168693942Y-96689828D01*
X168608228Y-96661257D01*
X168579657Y-96632685D01*
X168579657Y-96432685D01*
X168693942Y-96432685D01*
X168322514Y-96689828D02*
X168322514Y-96089828D01*
X168093942Y-96089828D01*
X168036800Y-96118400D01*
X168008228Y-96146971D01*
X167979657Y-96204114D01*
X167979657Y-96289828D01*
X168008228Y-96346971D01*
X168036800Y-96375542D01*
X168093942Y-96404114D01*
X168322514Y-96404114D01*
X167722514Y-96689828D02*
X167722514Y-96089828D01*
X167322514Y-96089828D02*
X167208228Y-96089828D01*
X167151085Y-96118400D01*
X167093942Y-96175542D01*
X167065371Y-96289828D01*
X167065371Y-96489828D01*
X167093942Y-96604114D01*
X167151085Y-96661257D01*
X167208228Y-96689828D01*
X167322514Y-96689828D01*
X167379657Y-96661257D01*
X167436800Y-96604114D01*
X167465371Y-96489828D01*
X167465371Y-96289828D01*
X167436800Y-96175542D01*
X167379657Y-96118400D01*
X167322514Y-96089828D01*
X166493942Y-96689828D02*
X166836800Y-96689828D01*
X166665371Y-96689828D02*
X166665371Y-96089828D01*
X166722514Y-96175542D01*
X166779657Y-96232685D01*
X166836800Y-96261257D01*
X166122514Y-96089828D02*
X166065371Y-96089828D01*
X166008228Y-96118400D01*
X165979657Y-96146971D01*
X165951085Y-96204114D01*
X165922514Y-96318400D01*
X165922514Y-96461257D01*
X165951085Y-96575542D01*
X165979657Y-96632685D01*
X166008228Y-96661257D01*
X166065371Y-96689828D01*
X166122514Y-96689828D01*
X166179657Y-96661257D01*
X166208228Y-96632685D01*
X166236800Y-96575542D01*
X166265371Y-96461257D01*
X166265371Y-96318400D01*
X166236800Y-96204114D01*
X166208228Y-96146971D01*
X166179657Y-96118400D01*
X166122514Y-96089828D01*
X169028857Y-99201257D02*
X168943142Y-99229828D01*
X168800285Y-99229828D01*
X168743142Y-99201257D01*
X168714571Y-99172685D01*
X168686000Y-99115542D01*
X168686000Y-99058400D01*
X168714571Y-99001257D01*
X168743142Y-98972685D01*
X168800285Y-98944114D01*
X168914571Y-98915542D01*
X168971714Y-98886971D01*
X169000285Y-98858400D01*
X169028857Y-98801257D01*
X169028857Y-98744114D01*
X169000285Y-98686971D01*
X168971714Y-98658400D01*
X168914571Y-98629828D01*
X168771714Y-98629828D01*
X168686000Y-98658400D01*
X168428857Y-99229828D02*
X168428857Y-98629828D01*
X168286000Y-98629828D01*
X168200285Y-98658400D01*
X168143142Y-98715542D01*
X168114571Y-98772685D01*
X168086000Y-98886971D01*
X168086000Y-98972685D01*
X168114571Y-99086971D01*
X168143142Y-99144114D01*
X168200285Y-99201257D01*
X168286000Y-99229828D01*
X168428857Y-99229828D01*
X167971714Y-99286971D02*
X167514571Y-99286971D01*
X167028857Y-99172685D02*
X167057428Y-99201257D01*
X167143142Y-99229828D01*
X167200285Y-99229828D01*
X167286000Y-99201257D01*
X167343142Y-99144114D01*
X167371714Y-99086971D01*
X167400285Y-98972685D01*
X167400285Y-98886971D01*
X167371714Y-98772685D01*
X167343142Y-98715542D01*
X167286000Y-98658400D01*
X167200285Y-98629828D01*
X167143142Y-98629828D01*
X167057428Y-98658400D01*
X167028857Y-98686971D01*
X166771714Y-99229828D02*
X166771714Y-98629828D01*
X166571714Y-99058400D01*
X166371714Y-98629828D01*
X166371714Y-99229828D01*
X166086000Y-99229828D02*
X166086000Y-98629828D01*
X165943142Y-98629828D01*
X165857428Y-98658400D01*
X165800285Y-98715542D01*
X165771714Y-98772685D01*
X165743142Y-98886971D01*
X165743142Y-98972685D01*
X165771714Y-99086971D01*
X165800285Y-99144114D01*
X165857428Y-99201257D01*
X165943142Y-99229828D01*
X166086000Y-99229828D01*
X168678114Y-101198400D02*
X168735257Y-101169828D01*
X168820971Y-101169828D01*
X168906685Y-101198400D01*
X168963828Y-101255542D01*
X168992400Y-101312685D01*
X169020971Y-101426971D01*
X169020971Y-101512685D01*
X168992400Y-101626971D01*
X168963828Y-101684114D01*
X168906685Y-101741257D01*
X168820971Y-101769828D01*
X168763828Y-101769828D01*
X168678114Y-101741257D01*
X168649542Y-101712685D01*
X168649542Y-101512685D01*
X168763828Y-101512685D01*
X168392400Y-101769828D02*
X168392400Y-101169828D01*
X168163828Y-101169828D01*
X168106685Y-101198400D01*
X168078114Y-101226971D01*
X168049542Y-101284114D01*
X168049542Y-101369828D01*
X168078114Y-101426971D01*
X168106685Y-101455542D01*
X168163828Y-101484114D01*
X168392400Y-101484114D01*
X167792400Y-101769828D02*
X167792400Y-101169828D01*
X167392400Y-101169828D02*
X167278114Y-101169828D01*
X167220971Y-101198400D01*
X167163828Y-101255542D01*
X167135257Y-101369828D01*
X167135257Y-101569828D01*
X167163828Y-101684114D01*
X167220971Y-101741257D01*
X167278114Y-101769828D01*
X167392400Y-101769828D01*
X167449542Y-101741257D01*
X167506685Y-101684114D01*
X167535257Y-101569828D01*
X167535257Y-101369828D01*
X167506685Y-101255542D01*
X167449542Y-101198400D01*
X167392400Y-101169828D01*
X166592400Y-101169828D02*
X166878114Y-101169828D01*
X166906685Y-101455542D01*
X166878114Y-101426971D01*
X166820971Y-101398400D01*
X166678114Y-101398400D01*
X166620971Y-101426971D01*
X166592400Y-101455542D01*
X166563828Y-101512685D01*
X166563828Y-101655542D01*
X166592400Y-101712685D01*
X166620971Y-101741257D01*
X166678114Y-101769828D01*
X166820971Y-101769828D01*
X166878114Y-101741257D01*
X166906685Y-101712685D01*
X169078057Y-104484457D02*
X168992342Y-104513028D01*
X168849485Y-104513028D01*
X168792342Y-104484457D01*
X168763771Y-104455885D01*
X168735200Y-104398742D01*
X168735200Y-104341600D01*
X168763771Y-104284457D01*
X168792342Y-104255885D01*
X168849485Y-104227314D01*
X168963771Y-104198742D01*
X169020914Y-104170171D01*
X169049485Y-104141600D01*
X169078057Y-104084457D01*
X169078057Y-104027314D01*
X169049485Y-103970171D01*
X169020914Y-103941600D01*
X168963771Y-103913028D01*
X168820914Y-103913028D01*
X168735200Y-103941600D01*
X168478057Y-104513028D02*
X168478057Y-103913028D01*
X168335200Y-103913028D01*
X168249485Y-103941600D01*
X168192342Y-103998742D01*
X168163771Y-104055885D01*
X168135200Y-104170171D01*
X168135200Y-104255885D01*
X168163771Y-104370171D01*
X168192342Y-104427314D01*
X168249485Y-104484457D01*
X168335200Y-104513028D01*
X168478057Y-104513028D01*
X168020914Y-104570171D02*
X167563771Y-104570171D01*
X167420914Y-104513028D02*
X167420914Y-103913028D01*
X167278057Y-103913028D01*
X167192342Y-103941600D01*
X167135200Y-103998742D01*
X167106628Y-104055885D01*
X167078057Y-104170171D01*
X167078057Y-104255885D01*
X167106628Y-104370171D01*
X167135200Y-104427314D01*
X167192342Y-104484457D01*
X167278057Y-104513028D01*
X167420914Y-104513028D01*
X166849485Y-104341600D02*
X166563771Y-104341600D01*
X166906628Y-104513028D02*
X166706628Y-103913028D01*
X166506628Y-104513028D01*
X166392342Y-103913028D02*
X166049485Y-103913028D01*
X166220914Y-104513028D02*
X166220914Y-103913028D01*
X165878057Y-104341600D02*
X165592342Y-104341600D01*
X165935200Y-104513028D02*
X165735200Y-103913028D01*
X165535200Y-104513028D01*
X168429028Y-64505028D02*
X169029028Y-64705028D01*
X168429028Y-64905028D01*
X168429028Y-65219314D02*
X168429028Y-65333600D01*
X168457600Y-65390742D01*
X168514742Y-65447885D01*
X168629028Y-65476457D01*
X168829028Y-65476457D01*
X168943314Y-65447885D01*
X169000457Y-65390742D01*
X169029028Y-65333600D01*
X169029028Y-65219314D01*
X169000457Y-65162171D01*
X168943314Y-65105028D01*
X168829028Y-65076457D01*
X168629028Y-65076457D01*
X168514742Y-65105028D01*
X168457600Y-65162171D01*
X168429028Y-65219314D01*
X169029028Y-66019314D02*
X169029028Y-65733600D01*
X168429028Y-65733600D01*
X168800457Y-66219314D02*
X168800457Y-66676457D01*
X169029028Y-66447885D02*
X168571885Y-66447885D01*
X167679728Y-62282528D02*
X168279728Y-62482528D01*
X167679728Y-62682528D01*
X167679728Y-62996814D02*
X167679728Y-63111100D01*
X167708300Y-63168242D01*
X167765442Y-63225385D01*
X167879728Y-63253957D01*
X168079728Y-63253957D01*
X168194014Y-63225385D01*
X168251157Y-63168242D01*
X168279728Y-63111100D01*
X168279728Y-62996814D01*
X168251157Y-62939671D01*
X168194014Y-62882528D01*
X168079728Y-62853957D01*
X167879728Y-62853957D01*
X167765442Y-62882528D01*
X167708300Y-62939671D01*
X167679728Y-62996814D01*
X168279728Y-63796814D02*
X168279728Y-63511100D01*
X167679728Y-63511100D01*
X168051157Y-63996814D02*
X168051157Y-64453957D01*
X167792457Y-94064100D02*
X167735314Y-94092671D01*
X167649600Y-94092671D01*
X167563885Y-94064100D01*
X167506742Y-94006957D01*
X167478171Y-93949814D01*
X167449600Y-93835528D01*
X167449600Y-93749814D01*
X167478171Y-93635528D01*
X167506742Y-93578385D01*
X167563885Y-93521242D01*
X167649600Y-93492671D01*
X167706742Y-93492671D01*
X167792457Y-93521242D01*
X167821028Y-93549814D01*
X167821028Y-93749814D01*
X167706742Y-93749814D01*
X168078171Y-93492671D02*
X168078171Y-94092671D01*
X168421028Y-93492671D01*
X168421028Y-94092671D01*
X168706742Y-93492671D02*
X168706742Y-94092671D01*
X168849600Y-94092671D01*
X168935314Y-94064100D01*
X168992457Y-94006957D01*
X169021028Y-93949814D01*
X169049600Y-93835528D01*
X169049600Y-93749814D01*
X169021028Y-93635528D01*
X168992457Y-93578385D01*
X168935314Y-93521242D01*
X168849600Y-93492671D01*
X168706742Y-93492671D01*
X168552800Y-81348228D02*
X168752800Y-81062514D01*
X168895657Y-81348228D02*
X168895657Y-80748228D01*
X168667085Y-80748228D01*
X168609942Y-80776800D01*
X168581371Y-80805371D01*
X168552800Y-80862514D01*
X168552800Y-80948228D01*
X168581371Y-81005371D01*
X168609942Y-81033942D01*
X168667085Y-81062514D01*
X168895657Y-81062514D01*
X168352800Y-80748228D02*
X167952800Y-81348228D01*
X167952800Y-80748228D02*
X168352800Y-81348228D01*
X168476571Y-73779028D02*
X168676571Y-73493314D01*
X168819428Y-73779028D02*
X168819428Y-73179028D01*
X168590857Y-73179028D01*
X168533714Y-73207600D01*
X168505142Y-73236171D01*
X168476571Y-73293314D01*
X168476571Y-73379028D01*
X168505142Y-73436171D01*
X168533714Y-73464742D01*
X168590857Y-73493314D01*
X168819428Y-73493314D01*
X168248000Y-73750457D02*
X168162285Y-73779028D01*
X168019428Y-73779028D01*
X167962285Y-73750457D01*
X167933714Y-73721885D01*
X167905142Y-73664742D01*
X167905142Y-73607600D01*
X167933714Y-73550457D01*
X167962285Y-73521885D01*
X168019428Y-73493314D01*
X168133714Y-73464742D01*
X168190857Y-73436171D01*
X168219428Y-73407600D01*
X168248000Y-73350457D01*
X168248000Y-73293314D01*
X168219428Y-73236171D01*
X168190857Y-73207600D01*
X168133714Y-73179028D01*
X167990857Y-73179028D01*
X167905142Y-73207600D01*
X167733714Y-73179028D02*
X167390857Y-73179028D01*
X167562285Y-73779028D02*
X167562285Y-73179028D01*
X151179200Y-66548228D02*
X151179200Y-66833942D01*
X151350628Y-66491085D02*
X150750628Y-66691085D01*
X151350628Y-66891085D01*
X150750628Y-67091085D02*
X151236342Y-67091085D01*
X151293485Y-67119657D01*
X151322057Y-67148228D01*
X151350628Y-67205371D01*
X151350628Y-67319657D01*
X151322057Y-67376800D01*
X151293485Y-67405371D01*
X151236342Y-67433942D01*
X150750628Y-67433942D01*
X151350628Y-67719657D02*
X150750628Y-67719657D01*
X150750628Y-67862514D01*
X150779200Y-67948228D01*
X150836342Y-68005371D01*
X150893485Y-68033942D01*
X151007771Y-68062514D01*
X151093485Y-68062514D01*
X151207771Y-68033942D01*
X151264914Y-68005371D01*
X151322057Y-67948228D01*
X151350628Y-67862514D01*
X151350628Y-67719657D01*
X151350628Y-68319657D02*
X150750628Y-68319657D01*
X150750628Y-68719657D02*
X150750628Y-68833942D01*
X150779200Y-68891085D01*
X150836342Y-68948228D01*
X150950628Y-68976800D01*
X151150628Y-68976800D01*
X151264914Y-68948228D01*
X151322057Y-68891085D01*
X151350628Y-68833942D01*
X151350628Y-68719657D01*
X151322057Y-68662514D01*
X151264914Y-68605371D01*
X151150628Y-68576800D01*
X150950628Y-68576800D01*
X150836342Y-68605371D01*
X150779200Y-68662514D01*
X150750628Y-68719657D01*
X151350628Y-69576800D02*
X151064914Y-69376800D01*
X151350628Y-69233942D02*
X150750628Y-69233942D01*
X150750628Y-69462514D01*
X150779200Y-69519657D01*
X150807771Y-69548228D01*
X150864914Y-69576800D01*
X150950628Y-69576800D01*
X151007771Y-69548228D01*
X151036342Y-69519657D01*
X151064914Y-69462514D01*
X151064914Y-69233942D01*
X151350628Y-69833942D02*
X150750628Y-69833942D01*
X151350628Y-70176800D01*
X150750628Y-70176800D01*
X150039428Y-64630457D02*
X150639428Y-64830457D01*
X150039428Y-65030457D01*
X150582285Y-65573314D02*
X150610857Y-65544742D01*
X150639428Y-65459028D01*
X150639428Y-65401885D01*
X150610857Y-65316171D01*
X150553714Y-65259028D01*
X150496571Y-65230457D01*
X150382285Y-65201885D01*
X150296571Y-65201885D01*
X150182285Y-65230457D01*
X150125142Y-65259028D01*
X150068000Y-65316171D01*
X150039428Y-65401885D01*
X150039428Y-65459028D01*
X150068000Y-65544742D01*
X150096571Y-65573314D01*
X150582285Y-66173314D02*
X150610857Y-66144742D01*
X150639428Y-66059028D01*
X150639428Y-66001885D01*
X150610857Y-65916171D01*
X150553714Y-65859028D01*
X150496571Y-65830457D01*
X150382285Y-65801885D01*
X150296571Y-65801885D01*
X150182285Y-65830457D01*
X150125142Y-65859028D01*
X150068000Y-65916171D01*
X150039428Y-66001885D01*
X150039428Y-66059028D01*
X150068000Y-66144742D01*
X150096571Y-66173314D01*
X150639428Y-66430457D02*
X150039428Y-66430457D01*
X150039428Y-66830457D02*
X150039428Y-66944742D01*
X150068000Y-67001885D01*
X150125142Y-67059028D01*
X150239428Y-67087600D01*
X150439428Y-67087600D01*
X150553714Y-67059028D01*
X150610857Y-67001885D01*
X150639428Y-66944742D01*
X150639428Y-66830457D01*
X150610857Y-66773314D01*
X150553714Y-66716171D01*
X150439428Y-66687600D01*
X150239428Y-66687600D01*
X150125142Y-66716171D01*
X150068000Y-66773314D01*
X150039428Y-66830457D01*
X152063314Y-81551428D02*
X152063314Y-80951428D01*
X151863314Y-81380000D01*
X151663314Y-80951428D01*
X151663314Y-81551428D01*
X151377600Y-81551428D02*
X151377600Y-80951428D01*
X150749028Y-81494285D02*
X150777600Y-81522857D01*
X150863314Y-81551428D01*
X150920457Y-81551428D01*
X151006171Y-81522857D01*
X151063314Y-81465714D01*
X151091885Y-81408571D01*
X151120457Y-81294285D01*
X151120457Y-81208571D01*
X151091885Y-81094285D01*
X151063314Y-81037142D01*
X151006171Y-80980000D01*
X150920457Y-80951428D01*
X150863314Y-80951428D01*
X150777600Y-80980000D01*
X150749028Y-81008571D01*
X150491885Y-81551428D02*
X150491885Y-80951428D01*
X150206171Y-81551428D02*
X150206171Y-80951428D01*
X149977600Y-80951428D01*
X149920457Y-80980000D01*
X149891885Y-81008571D01*
X149863314Y-81065714D01*
X149863314Y-81151428D01*
X149891885Y-81208571D01*
X149920457Y-81237142D01*
X149977600Y-81265714D01*
X150206171Y-81265714D01*
X150241057Y-94102200D02*
X150183914Y-94130771D01*
X150098200Y-94130771D01*
X150012485Y-94102200D01*
X149955342Y-94045057D01*
X149926771Y-93987914D01*
X149898200Y-93873628D01*
X149898200Y-93787914D01*
X149926771Y-93673628D01*
X149955342Y-93616485D01*
X150012485Y-93559342D01*
X150098200Y-93530771D01*
X150155342Y-93530771D01*
X150241057Y-93559342D01*
X150269628Y-93587914D01*
X150269628Y-93787914D01*
X150155342Y-93787914D01*
X150526771Y-93530771D02*
X150526771Y-94130771D01*
X150869628Y-93530771D01*
X150869628Y-94130771D01*
X151155342Y-93530771D02*
X151155342Y-94130771D01*
X151298200Y-94130771D01*
X151383914Y-94102200D01*
X151441057Y-94045057D01*
X151469628Y-93987914D01*
X151498200Y-93873628D01*
X151498200Y-93787914D01*
X151469628Y-93673628D01*
X151441057Y-93616485D01*
X151383914Y-93559342D01*
X151298200Y-93530771D01*
X151155342Y-93530771D01*
X169079828Y-69881885D02*
X168479828Y-69881885D01*
X168908400Y-70081885D01*
X168479828Y-70281885D01*
X169079828Y-70281885D01*
X168479828Y-70681885D02*
X168479828Y-70796171D01*
X168508400Y-70853314D01*
X168565542Y-70910457D01*
X168679828Y-70939028D01*
X168879828Y-70939028D01*
X168994114Y-70910457D01*
X169051257Y-70853314D01*
X169079828Y-70796171D01*
X169079828Y-70681885D01*
X169051257Y-70624742D01*
X168994114Y-70567600D01*
X168879828Y-70539028D01*
X168679828Y-70539028D01*
X168565542Y-70567600D01*
X168508400Y-70624742D01*
X168479828Y-70681885D01*
X169079828Y-71196171D02*
X168479828Y-71196171D01*
X168479828Y-71339028D01*
X168508400Y-71424742D01*
X168565542Y-71481885D01*
X168622685Y-71510457D01*
X168736971Y-71539028D01*
X168822685Y-71539028D01*
X168936971Y-71510457D01*
X168994114Y-71481885D01*
X169051257Y-71424742D01*
X169079828Y-71339028D01*
X169079828Y-71196171D01*
X168765542Y-71796171D02*
X168765542Y-71996171D01*
X169079828Y-72081885D02*
X169079828Y-71796171D01*
X168479828Y-71796171D01*
X168479828Y-72081885D01*
X168525714Y-75747600D02*
X168582857Y-75719028D01*
X168668571Y-75719028D01*
X168754285Y-75747600D01*
X168811428Y-75804742D01*
X168840000Y-75861885D01*
X168868571Y-75976171D01*
X168868571Y-76061885D01*
X168840000Y-76176171D01*
X168811428Y-76233314D01*
X168754285Y-76290457D01*
X168668571Y-76319028D01*
X168611428Y-76319028D01*
X168525714Y-76290457D01*
X168497142Y-76261885D01*
X168497142Y-76061885D01*
X168611428Y-76061885D01*
X168240000Y-76319028D02*
X168240000Y-75719028D01*
X168011428Y-75719028D01*
X167954285Y-75747600D01*
X167925714Y-75776171D01*
X167897142Y-75833314D01*
X167897142Y-75919028D01*
X167925714Y-75976171D01*
X167954285Y-76004742D01*
X168011428Y-76033314D01*
X168240000Y-76033314D01*
X167640000Y-76319028D02*
X167640000Y-75719028D01*
X167240000Y-75719028D02*
X167125714Y-75719028D01*
X167068571Y-75747600D01*
X167011428Y-75804742D01*
X166982857Y-75919028D01*
X166982857Y-76119028D01*
X167011428Y-76233314D01*
X167068571Y-76290457D01*
X167125714Y-76319028D01*
X167240000Y-76319028D01*
X167297142Y-76290457D01*
X167354285Y-76233314D01*
X167382857Y-76119028D01*
X167382857Y-75919028D01*
X167354285Y-75804742D01*
X167297142Y-75747600D01*
X167240000Y-75719028D01*
X166468571Y-75719028D02*
X166582857Y-75719028D01*
X166640000Y-75747600D01*
X166668571Y-75776171D01*
X166725714Y-75861885D01*
X166754285Y-75976171D01*
X166754285Y-76204742D01*
X166725714Y-76261885D01*
X166697142Y-76290457D01*
X166640000Y-76319028D01*
X166525714Y-76319028D01*
X166468571Y-76290457D01*
X166440000Y-76261885D01*
X166411428Y-76204742D01*
X166411428Y-76061885D01*
X166440000Y-76004742D01*
X166468571Y-75976171D01*
X166525714Y-75947600D01*
X166640000Y-75947600D01*
X166697142Y-75976171D01*
X166725714Y-76004742D01*
X166754285Y-76061885D01*
X169011542Y-78259028D02*
X168668685Y-78259028D01*
X168840114Y-78859028D02*
X168840114Y-78259028D01*
X168525828Y-78259028D02*
X168125828Y-78859028D01*
X168125828Y-78259028D02*
X168525828Y-78859028D01*
X153598342Y-73760000D02*
X153312628Y-73760000D01*
X153655485Y-73931428D02*
X153455485Y-73331428D01*
X153255485Y-73931428D01*
X153055485Y-73331428D02*
X153055485Y-73817142D01*
X153026914Y-73874285D01*
X152998342Y-73902857D01*
X152941200Y-73931428D01*
X152826914Y-73931428D01*
X152769771Y-73902857D01*
X152741200Y-73874285D01*
X152712628Y-73817142D01*
X152712628Y-73331428D01*
X152426914Y-73931428D02*
X152426914Y-73331428D01*
X152284057Y-73331428D01*
X152198342Y-73360000D01*
X152141200Y-73417142D01*
X152112628Y-73474285D01*
X152084057Y-73588571D01*
X152084057Y-73674285D01*
X152112628Y-73788571D01*
X152141200Y-73845714D01*
X152198342Y-73902857D01*
X152284057Y-73931428D01*
X152426914Y-73931428D01*
X151826914Y-73931428D02*
X151826914Y-73331428D01*
X151426914Y-73331428D02*
X151312628Y-73331428D01*
X151255485Y-73360000D01*
X151198342Y-73417142D01*
X151169771Y-73531428D01*
X151169771Y-73731428D01*
X151198342Y-73845714D01*
X151255485Y-73902857D01*
X151312628Y-73931428D01*
X151426914Y-73931428D01*
X151484057Y-73902857D01*
X151541200Y-73845714D01*
X151569771Y-73731428D01*
X151569771Y-73531428D01*
X151541200Y-73417142D01*
X151484057Y-73360000D01*
X151426914Y-73331428D01*
X150626914Y-73931428D02*
X150912628Y-73931428D01*
X150912628Y-73331428D01*
X150426914Y-73931428D02*
X150426914Y-73331428D01*
X150198342Y-73331428D01*
X150141200Y-73360000D01*
X150112628Y-73388571D01*
X150084057Y-73445714D01*
X150084057Y-73531428D01*
X150112628Y-73588571D01*
X150141200Y-73617142D01*
X150198342Y-73645714D01*
X150426914Y-73645714D01*
X150468000Y-69254914D02*
X150468000Y-69540628D01*
X150639428Y-69197771D02*
X150039428Y-69397771D01*
X150639428Y-69597771D01*
X150039428Y-69797771D02*
X150525142Y-69797771D01*
X150582285Y-69826342D01*
X150610857Y-69854914D01*
X150639428Y-69912057D01*
X150639428Y-70026342D01*
X150610857Y-70083485D01*
X150582285Y-70112057D01*
X150525142Y-70140628D01*
X150039428Y-70140628D01*
X150639428Y-70426342D02*
X150039428Y-70426342D01*
X150039428Y-70569200D01*
X150068000Y-70654914D01*
X150125142Y-70712057D01*
X150182285Y-70740628D01*
X150296571Y-70769200D01*
X150382285Y-70769200D01*
X150496571Y-70740628D01*
X150553714Y-70712057D01*
X150610857Y-70654914D01*
X150639428Y-70569200D01*
X150639428Y-70426342D01*
X150639428Y-71026342D02*
X150039428Y-71026342D01*
X150039428Y-71426342D02*
X150039428Y-71540628D01*
X150068000Y-71597771D01*
X150125142Y-71654914D01*
X150239428Y-71683485D01*
X150439428Y-71683485D01*
X150553714Y-71654914D01*
X150610857Y-71597771D01*
X150639428Y-71540628D01*
X150639428Y-71426342D01*
X150610857Y-71369200D01*
X150553714Y-71312057D01*
X150439428Y-71283485D01*
X150239428Y-71283485D01*
X150125142Y-71312057D01*
X150068000Y-71369200D01*
X150039428Y-71426342D01*
X150639428Y-72283485D02*
X150353714Y-72083485D01*
X150639428Y-71940628D02*
X150039428Y-71940628D01*
X150039428Y-72169200D01*
X150068000Y-72226342D01*
X150096571Y-72254914D01*
X150153714Y-72283485D01*
X150239428Y-72283485D01*
X150296571Y-72254914D01*
X150325142Y-72226342D01*
X150353714Y-72169200D01*
X150353714Y-71940628D01*
X150639428Y-72540628D02*
X150039428Y-72540628D01*
X150039428Y-72769200D01*
X150068000Y-72826342D01*
X150096571Y-72854914D01*
X150153714Y-72883485D01*
X150239428Y-72883485D01*
X150296571Y-72854914D01*
X150325142Y-72826342D01*
X150353714Y-72769200D01*
X150353714Y-72540628D01*
X151077600Y-57524742D02*
X151077600Y-57810457D01*
X151249028Y-57467600D02*
X150649028Y-57667600D01*
X151249028Y-57867600D01*
X151249028Y-58067600D02*
X150649028Y-58067600D01*
X150649028Y-58210457D01*
X150677600Y-58296171D01*
X150734742Y-58353314D01*
X150791885Y-58381885D01*
X150906171Y-58410457D01*
X150991885Y-58410457D01*
X151106171Y-58381885D01*
X151163314Y-58353314D01*
X151220457Y-58296171D01*
X151249028Y-58210457D01*
X151249028Y-58067600D01*
X151191885Y-59010457D02*
X151220457Y-58981885D01*
X151249028Y-58896171D01*
X151249028Y-58839028D01*
X151220457Y-58753314D01*
X151163314Y-58696171D01*
X151106171Y-58667600D01*
X150991885Y-58639028D01*
X150906171Y-58639028D01*
X150791885Y-58667600D01*
X150734742Y-58696171D01*
X150677600Y-58753314D01*
X150649028Y-58839028D01*
X150649028Y-58896171D01*
X150677600Y-58981885D01*
X150706171Y-59010457D01*
X150572728Y-83939028D02*
X150572728Y-83339028D01*
X150229871Y-83939028D01*
X150229871Y-83339028D01*
X149601300Y-83881885D02*
X149629871Y-83910457D01*
X149715585Y-83939028D01*
X149772728Y-83939028D01*
X149858442Y-83910457D01*
X149915585Y-83853314D01*
X149944157Y-83796171D01*
X149972728Y-83681885D01*
X149972728Y-83596171D01*
X149944157Y-83481885D01*
X149915585Y-83424742D01*
X149858442Y-83367600D01*
X149772728Y-83339028D01*
X149715585Y-83339028D01*
X149629871Y-83367600D01*
X149601300Y-83396171D01*
X151969657Y-88796800D02*
X151683942Y-88796800D01*
X152026800Y-88968228D02*
X151826800Y-88368228D01*
X151626800Y-88968228D01*
X151426800Y-88368228D02*
X151426800Y-88853942D01*
X151398228Y-88911085D01*
X151369657Y-88939657D01*
X151312514Y-88968228D01*
X151198228Y-88968228D01*
X151141085Y-88939657D01*
X151112514Y-88911085D01*
X151083942Y-88853942D01*
X151083942Y-88368228D01*
X150855371Y-88368228D02*
X150455371Y-88968228D01*
X150455371Y-88368228D02*
X150855371Y-88968228D01*
X149883942Y-88968228D02*
X150083942Y-88682514D01*
X150226800Y-88968228D02*
X150226800Y-88368228D01*
X149998228Y-88368228D01*
X149941085Y-88396800D01*
X149912514Y-88425371D01*
X149883942Y-88482514D01*
X149883942Y-88568228D01*
X149912514Y-88625371D01*
X149941085Y-88653942D01*
X149998228Y-88682514D01*
X150226800Y-88682514D01*
X168717828Y-86415528D02*
X169003542Y-86415528D01*
X169003542Y-85815528D01*
X168517828Y-86101242D02*
X168317828Y-86101242D01*
X168232114Y-86415528D02*
X168517828Y-86415528D01*
X168517828Y-85815528D01*
X168232114Y-85815528D01*
X167974971Y-86415528D02*
X167974971Y-85815528D01*
X167832114Y-85815528D01*
X167746400Y-85844100D01*
X167689257Y-85901242D01*
X167660685Y-85958385D01*
X167632114Y-86072671D01*
X167632114Y-86158385D01*
X167660685Y-86272671D01*
X167689257Y-86329814D01*
X167746400Y-86386957D01*
X167832114Y-86415528D01*
X167974971Y-86415528D01*
X167060685Y-86415528D02*
X167403542Y-86415528D01*
X167232114Y-86415528D02*
X167232114Y-85815528D01*
X167289257Y-85901242D01*
X167346400Y-85958385D01*
X167403542Y-85986957D01*
X151810914Y-86358400D02*
X151525200Y-86358400D01*
X151868057Y-86529828D02*
X151668057Y-85929828D01*
X151468057Y-86529828D01*
X151268057Y-85929828D02*
X151268057Y-86415542D01*
X151239485Y-86472685D01*
X151210914Y-86501257D01*
X151153771Y-86529828D01*
X151039485Y-86529828D01*
X150982342Y-86501257D01*
X150953771Y-86472685D01*
X150925200Y-86415542D01*
X150925200Y-85929828D01*
X150696628Y-85929828D02*
X150296628Y-86529828D01*
X150296628Y-85929828D02*
X150696628Y-86529828D01*
X149782342Y-86529828D02*
X150068057Y-86529828D01*
X150068057Y-85929828D01*
X152507771Y-98528228D02*
X152507771Y-99013942D01*
X152479200Y-99071085D01*
X152450628Y-99099657D01*
X152393485Y-99128228D01*
X152279200Y-99128228D01*
X152222057Y-99099657D01*
X152193485Y-99071085D01*
X152164914Y-99013942D01*
X152164914Y-98528228D01*
X151907771Y-99099657D02*
X151822057Y-99128228D01*
X151679200Y-99128228D01*
X151622057Y-99099657D01*
X151593485Y-99071085D01*
X151564914Y-99013942D01*
X151564914Y-98956800D01*
X151593485Y-98899657D01*
X151622057Y-98871085D01*
X151679200Y-98842514D01*
X151793485Y-98813942D01*
X151850628Y-98785371D01*
X151879200Y-98756800D01*
X151907771Y-98699657D01*
X151907771Y-98642514D01*
X151879200Y-98585371D01*
X151850628Y-98556800D01*
X151793485Y-98528228D01*
X151650628Y-98528228D01*
X151564914Y-98556800D01*
X151107771Y-98813942D02*
X151022057Y-98842514D01*
X150993485Y-98871085D01*
X150964914Y-98928228D01*
X150964914Y-99013942D01*
X150993485Y-99071085D01*
X151022057Y-99099657D01*
X151079200Y-99128228D01*
X151307771Y-99128228D01*
X151307771Y-98528228D01*
X151107771Y-98528228D01*
X151050628Y-98556800D01*
X151022057Y-98585371D01*
X150993485Y-98642514D01*
X150993485Y-98699657D01*
X151022057Y-98756800D01*
X151050628Y-98785371D01*
X151107771Y-98813942D01*
X151307771Y-98813942D01*
X150707771Y-99128228D02*
X150707771Y-98528228D01*
X150564914Y-98528228D01*
X150479200Y-98556800D01*
X150422057Y-98613942D01*
X150393485Y-98671085D01*
X150364914Y-98785371D01*
X150364914Y-98871085D01*
X150393485Y-98985371D01*
X150422057Y-99042514D01*
X150479200Y-99099657D01*
X150564914Y-99128228D01*
X150707771Y-99128228D01*
X150107771Y-98899657D02*
X149650628Y-98899657D01*
X150090228Y-59515542D02*
X150690228Y-59715542D01*
X150090228Y-59915542D01*
X150090228Y-60058400D02*
X150090228Y-60429828D01*
X150318800Y-60229828D01*
X150318800Y-60315542D01*
X150347371Y-60372685D01*
X150375942Y-60401257D01*
X150433085Y-60429828D01*
X150575942Y-60429828D01*
X150633085Y-60401257D01*
X150661657Y-60372685D01*
X150690228Y-60315542D01*
X150690228Y-60144114D01*
X150661657Y-60086971D01*
X150633085Y-60058400D01*
X150090228Y-60801257D02*
X150090228Y-60915542D01*
X150118800Y-60972685D01*
X150175942Y-61029828D01*
X150290228Y-61058400D01*
X150490228Y-61058400D01*
X150604514Y-61029828D01*
X150661657Y-60972685D01*
X150690228Y-60915542D01*
X150690228Y-60801257D01*
X150661657Y-60744114D01*
X150604514Y-60686971D01*
X150490228Y-60658400D01*
X150290228Y-60658400D01*
X150175942Y-60686971D01*
X150118800Y-60744114D01*
X150090228Y-60801257D01*
X150090228Y-61315542D02*
X150575942Y-61315542D01*
X150633085Y-61344114D01*
X150661657Y-61372685D01*
X150690228Y-61429828D01*
X150690228Y-61544114D01*
X150661657Y-61601257D01*
X150633085Y-61629828D01*
X150575942Y-61658400D01*
X150090228Y-61658400D01*
X150090228Y-61858400D02*
X150090228Y-62201257D01*
X150690228Y-62029828D02*
X150090228Y-62029828D01*
X153190371Y-78909828D02*
X153190371Y-78309828D01*
X152990371Y-78738400D01*
X152790371Y-78309828D01*
X152790371Y-78909828D01*
X152504657Y-78909828D02*
X152504657Y-78309828D01*
X151876085Y-78852685D02*
X151904657Y-78881257D01*
X151990371Y-78909828D01*
X152047514Y-78909828D01*
X152133228Y-78881257D01*
X152190371Y-78824114D01*
X152218942Y-78766971D01*
X152247514Y-78652685D01*
X152247514Y-78566971D01*
X152218942Y-78452685D01*
X152190371Y-78395542D01*
X152133228Y-78338400D01*
X152047514Y-78309828D01*
X151990371Y-78309828D01*
X151904657Y-78338400D01*
X151876085Y-78366971D01*
X151418942Y-78595542D02*
X151333228Y-78624114D01*
X151304657Y-78652685D01*
X151276085Y-78709828D01*
X151276085Y-78795542D01*
X151304657Y-78852685D01*
X151333228Y-78881257D01*
X151390371Y-78909828D01*
X151618942Y-78909828D01*
X151618942Y-78309828D01*
X151418942Y-78309828D01*
X151361800Y-78338400D01*
X151333228Y-78366971D01*
X151304657Y-78424114D01*
X151304657Y-78481257D01*
X151333228Y-78538400D01*
X151361800Y-78566971D01*
X151418942Y-78595542D01*
X151618942Y-78595542D01*
X151018942Y-78909828D02*
X151018942Y-78309828D01*
X150761800Y-78738400D02*
X150476085Y-78738400D01*
X150818942Y-78909828D02*
X150618942Y-78309828D01*
X150418942Y-78909828D01*
X150247514Y-78881257D02*
X150161800Y-78909828D01*
X150018942Y-78909828D01*
X149961800Y-78881257D01*
X149933228Y-78852685D01*
X149904657Y-78795542D01*
X149904657Y-78738400D01*
X149933228Y-78681257D01*
X149961800Y-78652685D01*
X150018942Y-78624114D01*
X150133228Y-78595542D01*
X150190371Y-78566971D01*
X150218942Y-78538400D01*
X150247514Y-78481257D01*
X150247514Y-78424114D01*
X150218942Y-78366971D01*
X150190371Y-78338400D01*
X150133228Y-78309828D01*
X149990371Y-78309828D01*
X149904657Y-78338400D01*
X153485628Y-76249200D02*
X153199914Y-76249200D01*
X153542771Y-76420628D02*
X153342771Y-75820628D01*
X153142771Y-76420628D01*
X152942771Y-75820628D02*
X152942771Y-76306342D01*
X152914200Y-76363485D01*
X152885628Y-76392057D01*
X152828485Y-76420628D01*
X152714200Y-76420628D01*
X152657057Y-76392057D01*
X152628485Y-76363485D01*
X152599914Y-76306342D01*
X152599914Y-75820628D01*
X152314200Y-76420628D02*
X152314200Y-75820628D01*
X152171342Y-75820628D01*
X152085628Y-75849200D01*
X152028485Y-75906342D01*
X151999914Y-75963485D01*
X151971342Y-76077771D01*
X151971342Y-76163485D01*
X151999914Y-76277771D01*
X152028485Y-76334914D01*
X152085628Y-76392057D01*
X152171342Y-76420628D01*
X152314200Y-76420628D01*
X151714200Y-76420628D02*
X151714200Y-75820628D01*
X151314200Y-75820628D02*
X151199914Y-75820628D01*
X151142771Y-75849200D01*
X151085628Y-75906342D01*
X151057057Y-76020628D01*
X151057057Y-76220628D01*
X151085628Y-76334914D01*
X151142771Y-76392057D01*
X151199914Y-76420628D01*
X151314200Y-76420628D01*
X151371342Y-76392057D01*
X151428485Y-76334914D01*
X151457057Y-76220628D01*
X151457057Y-76020628D01*
X151428485Y-75906342D01*
X151371342Y-75849200D01*
X151314200Y-75820628D01*
X150514200Y-76420628D02*
X150799914Y-76420628D01*
X150799914Y-75820628D01*
X150314200Y-76420628D02*
X150314200Y-75820628D01*
X149971342Y-76420628D01*
X149971342Y-75820628D01*
X150649028Y-62488885D02*
X151249028Y-62688885D01*
X150649028Y-62888885D01*
X150934742Y-63288885D02*
X150963314Y-63374600D01*
X150991885Y-63403171D01*
X151049028Y-63431742D01*
X151134742Y-63431742D01*
X151191885Y-63403171D01*
X151220457Y-63374600D01*
X151249028Y-63317457D01*
X151249028Y-63088885D01*
X150649028Y-63088885D01*
X150649028Y-63288885D01*
X150677600Y-63346028D01*
X150706171Y-63374600D01*
X150763314Y-63403171D01*
X150820457Y-63403171D01*
X150877600Y-63374600D01*
X150906171Y-63346028D01*
X150934742Y-63288885D01*
X150934742Y-63088885D01*
X151077600Y-63660314D02*
X151077600Y-63946028D01*
X151249028Y-63603171D02*
X150649028Y-63803171D01*
X151249028Y-64003171D01*
X150649028Y-64117457D02*
X150649028Y-64460314D01*
X151249028Y-64288885D02*
X150649028Y-64288885D01*
X152558571Y-100966628D02*
X152558571Y-101452342D01*
X152530000Y-101509485D01*
X152501428Y-101538057D01*
X152444285Y-101566628D01*
X152330000Y-101566628D01*
X152272857Y-101538057D01*
X152244285Y-101509485D01*
X152215714Y-101452342D01*
X152215714Y-100966628D01*
X151958571Y-101538057D02*
X151872857Y-101566628D01*
X151730000Y-101566628D01*
X151672857Y-101538057D01*
X151644285Y-101509485D01*
X151615714Y-101452342D01*
X151615714Y-101395200D01*
X151644285Y-101338057D01*
X151672857Y-101309485D01*
X151730000Y-101280914D01*
X151844285Y-101252342D01*
X151901428Y-101223771D01*
X151930000Y-101195200D01*
X151958571Y-101138057D01*
X151958571Y-101080914D01*
X151930000Y-101023771D01*
X151901428Y-100995200D01*
X151844285Y-100966628D01*
X151701428Y-100966628D01*
X151615714Y-100995200D01*
X151158571Y-101252342D02*
X151072857Y-101280914D01*
X151044285Y-101309485D01*
X151015714Y-101366628D01*
X151015714Y-101452342D01*
X151044285Y-101509485D01*
X151072857Y-101538057D01*
X151130000Y-101566628D01*
X151358571Y-101566628D01*
X151358571Y-100966628D01*
X151158571Y-100966628D01*
X151101428Y-100995200D01*
X151072857Y-101023771D01*
X151044285Y-101080914D01*
X151044285Y-101138057D01*
X151072857Y-101195200D01*
X151101428Y-101223771D01*
X151158571Y-101252342D01*
X151358571Y-101252342D01*
X150758571Y-101566628D02*
X150758571Y-100966628D01*
X150615714Y-100966628D01*
X150530000Y-100995200D01*
X150472857Y-101052342D01*
X150444285Y-101109485D01*
X150415714Y-101223771D01*
X150415714Y-101309485D01*
X150444285Y-101423771D01*
X150472857Y-101480914D01*
X150530000Y-101538057D01*
X150615714Y-101566628D01*
X150758571Y-101566628D01*
X150158571Y-101338057D02*
X149701428Y-101338057D01*
X149930000Y-101566628D02*
X149930000Y-101109485D01*
X151631542Y-96689828D02*
X151631542Y-96089828D01*
X151002971Y-96689828D02*
X151202971Y-96404114D01*
X151345828Y-96689828D02*
X151345828Y-96089828D01*
X151117257Y-96089828D01*
X151060114Y-96118400D01*
X151031542Y-96146971D01*
X151002971Y-96204114D01*
X151002971Y-96289828D01*
X151031542Y-96346971D01*
X151060114Y-96375542D01*
X151117257Y-96404114D01*
X151345828Y-96404114D01*
X150745828Y-96689828D02*
X150745828Y-96089828D01*
X150602971Y-96089828D01*
X150517257Y-96118400D01*
X150460114Y-96175542D01*
X150431542Y-96232685D01*
X150402971Y-96346971D01*
X150402971Y-96432685D01*
X150431542Y-96546971D01*
X150460114Y-96604114D01*
X150517257Y-96661257D01*
X150602971Y-96689828D01*
X150745828Y-96689828D01*
X150174400Y-96518400D02*
X149888685Y-96518400D01*
X150231542Y-96689828D02*
X150031542Y-96089828D01*
X149831542Y-96689828D01*
X141362085Y-67870457D02*
X141390657Y-67841885D01*
X141419228Y-67756171D01*
X141419228Y-67699028D01*
X141390657Y-67613314D01*
X141333514Y-67556171D01*
X141276371Y-67527600D01*
X141162085Y-67499028D01*
X141076371Y-67499028D01*
X140962085Y-67527600D01*
X140904942Y-67556171D01*
X140847800Y-67613314D01*
X140819228Y-67699028D01*
X140819228Y-67756171D01*
X140847800Y-67841885D01*
X140876371Y-67870457D01*
X141247800Y-68099028D02*
X141247800Y-68384742D01*
X141419228Y-68041885D02*
X140819228Y-68241885D01*
X141419228Y-68441885D01*
X141419228Y-68927600D02*
X141419228Y-68641885D01*
X140819228Y-68641885D01*
X141419228Y-69413314D02*
X141419228Y-69127600D01*
X140819228Y-69127600D01*
X142035085Y-83939028D02*
X142035085Y-83339028D01*
X141835085Y-83767600D01*
X141635085Y-83339028D01*
X141635085Y-83939028D01*
X141349371Y-83339028D02*
X141349371Y-83824742D01*
X141320800Y-83881885D01*
X141292228Y-83910457D01*
X141235085Y-83939028D01*
X141120800Y-83939028D01*
X141063657Y-83910457D01*
X141035085Y-83881885D01*
X141006514Y-83824742D01*
X141006514Y-83339028D01*
X140806514Y-83339028D02*
X140463657Y-83339028D01*
X140635085Y-83939028D02*
X140635085Y-83339028D01*
X140263657Y-83624742D02*
X140063657Y-83624742D01*
X139977942Y-83939028D02*
X140263657Y-83939028D01*
X140263657Y-83339028D01*
X139977942Y-83339028D01*
X141482800Y-55206957D02*
X141454228Y-55149814D01*
X141454228Y-55064100D01*
X141482800Y-54978385D01*
X141539942Y-54921242D01*
X141597085Y-54892671D01*
X141711371Y-54864100D01*
X141797085Y-54864100D01*
X141911371Y-54892671D01*
X141968514Y-54921242D01*
X142025657Y-54978385D01*
X142054228Y-55064100D01*
X142054228Y-55121242D01*
X142025657Y-55206957D01*
X141997085Y-55235528D01*
X141797085Y-55235528D01*
X141797085Y-55121242D01*
X142054228Y-55492671D02*
X141454228Y-55492671D01*
X142054228Y-55835528D01*
X141454228Y-55835528D01*
X142054228Y-56121242D02*
X141454228Y-56121242D01*
X141454228Y-56264100D01*
X141482800Y-56349814D01*
X141539942Y-56406957D01*
X141597085Y-56435528D01*
X141711371Y-56464100D01*
X141797085Y-56464100D01*
X141911371Y-56435528D01*
X141968514Y-56406957D01*
X142025657Y-56349814D01*
X142054228Y-56264100D01*
X142054228Y-56121242D01*
X141785828Y-90987600D02*
X141842971Y-90959028D01*
X141928685Y-90959028D01*
X142014400Y-90987600D01*
X142071542Y-91044742D01*
X142100114Y-91101885D01*
X142128685Y-91216171D01*
X142128685Y-91301885D01*
X142100114Y-91416171D01*
X142071542Y-91473314D01*
X142014400Y-91530457D01*
X141928685Y-91559028D01*
X141871542Y-91559028D01*
X141785828Y-91530457D01*
X141757257Y-91501885D01*
X141757257Y-91301885D01*
X141871542Y-91301885D01*
X141500114Y-91559028D02*
X141500114Y-90959028D01*
X141271542Y-90959028D01*
X141214400Y-90987600D01*
X141185828Y-91016171D01*
X141157257Y-91073314D01*
X141157257Y-91159028D01*
X141185828Y-91216171D01*
X141214400Y-91244742D01*
X141271542Y-91273314D01*
X141500114Y-91273314D01*
X140900114Y-91559028D02*
X140900114Y-90959028D01*
X140500114Y-90959028D02*
X140385828Y-90959028D01*
X140328685Y-90987600D01*
X140271542Y-91044742D01*
X140242971Y-91159028D01*
X140242971Y-91359028D01*
X140271542Y-91473314D01*
X140328685Y-91530457D01*
X140385828Y-91559028D01*
X140500114Y-91559028D01*
X140557257Y-91530457D01*
X140614400Y-91473314D01*
X140642971Y-91359028D01*
X140642971Y-91159028D01*
X140614400Y-91044742D01*
X140557257Y-90987600D01*
X140500114Y-90959028D01*
X139671542Y-91559028D02*
X140014400Y-91559028D01*
X139842971Y-91559028D02*
X139842971Y-90959028D01*
X139900114Y-91044742D01*
X139957257Y-91101885D01*
X140014400Y-91130457D01*
X139157257Y-90959028D02*
X139271542Y-90959028D01*
X139328685Y-90987600D01*
X139357257Y-91016171D01*
X139414400Y-91101885D01*
X139442971Y-91216171D01*
X139442971Y-91444742D01*
X139414400Y-91501885D01*
X139385828Y-91530457D01*
X139328685Y-91559028D01*
X139214400Y-91559028D01*
X139157257Y-91530457D01*
X139128685Y-91501885D01*
X139100114Y-91444742D01*
X139100114Y-91301885D01*
X139128685Y-91244742D01*
X139157257Y-91216171D01*
X139214400Y-91187600D01*
X139328685Y-91187600D01*
X139385828Y-91216171D01*
X139414400Y-91244742D01*
X139442971Y-91301885D01*
X123609085Y-106376828D02*
X123894800Y-106376828D01*
X123923371Y-106662542D01*
X123894800Y-106633971D01*
X123837657Y-106605400D01*
X123694800Y-106605400D01*
X123637657Y-106633971D01*
X123609085Y-106662542D01*
X123580514Y-106719685D01*
X123580514Y-106862542D01*
X123609085Y-106919685D01*
X123637657Y-106948257D01*
X123694800Y-106976828D01*
X123837657Y-106976828D01*
X123894800Y-106948257D01*
X123923371Y-106919685D01*
X123409085Y-106376828D02*
X123209085Y-106976828D01*
X123009085Y-106376828D01*
X141793828Y-89019028D02*
X142079542Y-89019028D01*
X142079542Y-88419028D01*
X141593828Y-88704742D02*
X141393828Y-88704742D01*
X141308114Y-89019028D02*
X141593828Y-89019028D01*
X141593828Y-88419028D01*
X141308114Y-88419028D01*
X141050971Y-89019028D02*
X141050971Y-88419028D01*
X140908114Y-88419028D01*
X140822400Y-88447600D01*
X140765257Y-88504742D01*
X140736685Y-88561885D01*
X140708114Y-88676171D01*
X140708114Y-88761885D01*
X140736685Y-88876171D01*
X140765257Y-88933314D01*
X140822400Y-88990457D01*
X140908114Y-89019028D01*
X141050971Y-89019028D01*
X140479542Y-88476171D02*
X140450971Y-88447600D01*
X140393828Y-88419028D01*
X140250971Y-88419028D01*
X140193828Y-88447600D01*
X140165257Y-88476171D01*
X140136685Y-88533314D01*
X140136685Y-88590457D01*
X140165257Y-88676171D01*
X140508114Y-89019028D01*
X140136685Y-89019028D01*
X141790742Y-59779028D02*
X141790742Y-59579028D01*
X142105028Y-59579028D02*
X141505028Y-59579028D01*
X141505028Y-59864742D01*
X142105028Y-60093314D02*
X141505028Y-60093314D01*
X141933600Y-60293314D01*
X141505028Y-60493314D01*
X142105028Y-60493314D01*
X142105028Y-60779028D02*
X141505028Y-60779028D01*
X142105028Y-61064742D02*
X141505028Y-61064742D01*
X142105028Y-61407600D01*
X141505028Y-61407600D01*
X142105028Y-61693314D02*
X141505028Y-61693314D01*
X142105028Y-62036171D01*
X141505028Y-62036171D01*
X141041442Y-57126314D02*
X141041442Y-56926314D01*
X141355728Y-56926314D02*
X140755728Y-56926314D01*
X140755728Y-57212028D01*
X141355728Y-57440600D02*
X140755728Y-57440600D01*
X141184300Y-57640600D01*
X140755728Y-57840600D01*
X141355728Y-57840600D01*
X141355728Y-58126314D02*
X140755728Y-58126314D01*
X141355728Y-58412028D02*
X140755728Y-58412028D01*
X141355728Y-58754885D01*
X140755728Y-58754885D01*
X141355728Y-59040600D02*
X140755728Y-59040600D01*
X140755728Y-59269171D01*
X140784300Y-59326314D01*
X140812871Y-59354885D01*
X140870014Y-59383457D01*
X140955728Y-59383457D01*
X141012871Y-59354885D01*
X141041442Y-59326314D01*
X141070014Y-59269171D01*
X141070014Y-59040600D01*
X126510828Y-91514600D02*
X126225114Y-91514600D01*
X126567971Y-91686028D02*
X126367971Y-91086028D01*
X126167971Y-91686028D01*
X125967971Y-91086028D02*
X125967971Y-91571742D01*
X125939400Y-91628885D01*
X125910828Y-91657457D01*
X125853685Y-91686028D01*
X125739400Y-91686028D01*
X125682257Y-91657457D01*
X125653685Y-91628885D01*
X125625114Y-91571742D01*
X125625114Y-91086028D01*
X125396542Y-91086028D02*
X124996542Y-91686028D01*
X124996542Y-91086028D02*
X125396542Y-91686028D01*
X124910828Y-91743171D02*
X124453685Y-91743171D01*
X124310828Y-91686028D02*
X124310828Y-91086028D01*
X124167971Y-91086028D01*
X124082257Y-91114600D01*
X124025114Y-91171742D01*
X123996542Y-91228885D01*
X123967971Y-91343171D01*
X123967971Y-91428885D01*
X123996542Y-91543171D01*
X124025114Y-91600314D01*
X124082257Y-91657457D01*
X124167971Y-91686028D01*
X124310828Y-91686028D01*
X123710828Y-91371742D02*
X123510828Y-91371742D01*
X123425114Y-91686028D02*
X123710828Y-91686028D01*
X123710828Y-91086028D01*
X123425114Y-91086028D01*
X123253685Y-91086028D02*
X122910828Y-91086028D01*
X123082257Y-91686028D02*
X123082257Y-91086028D01*
X123194800Y-55321257D02*
X123166228Y-55264114D01*
X123166228Y-55178400D01*
X123194800Y-55092685D01*
X123251942Y-55035542D01*
X123309085Y-55006971D01*
X123423371Y-54978400D01*
X123509085Y-54978400D01*
X123623371Y-55006971D01*
X123680514Y-55035542D01*
X123737657Y-55092685D01*
X123766228Y-55178400D01*
X123766228Y-55235542D01*
X123737657Y-55321257D01*
X123709085Y-55349828D01*
X123509085Y-55349828D01*
X123509085Y-55235542D01*
X123766228Y-55606971D02*
X123166228Y-55606971D01*
X123766228Y-55949828D01*
X123166228Y-55949828D01*
X123766228Y-56235542D02*
X123166228Y-56235542D01*
X123166228Y-56378400D01*
X123194800Y-56464114D01*
X123251942Y-56521257D01*
X123309085Y-56549828D01*
X123423371Y-56578400D01*
X123509085Y-56578400D01*
X123623371Y-56549828D01*
X123680514Y-56521257D01*
X123737657Y-56464114D01*
X123766228Y-56378400D01*
X123766228Y-56235542D01*
X126053657Y-104166957D02*
X125967942Y-104195528D01*
X125825085Y-104195528D01*
X125767942Y-104166957D01*
X125739371Y-104138385D01*
X125710800Y-104081242D01*
X125710800Y-104024100D01*
X125739371Y-103966957D01*
X125767942Y-103938385D01*
X125825085Y-103909814D01*
X125939371Y-103881242D01*
X125996514Y-103852671D01*
X126025085Y-103824100D01*
X126053657Y-103766957D01*
X126053657Y-103709814D01*
X126025085Y-103652671D01*
X125996514Y-103624100D01*
X125939371Y-103595528D01*
X125796514Y-103595528D01*
X125710800Y-103624100D01*
X125453657Y-104195528D02*
X125453657Y-103595528D01*
X125310800Y-103595528D01*
X125225085Y-103624100D01*
X125167942Y-103681242D01*
X125139371Y-103738385D01*
X125110800Y-103852671D01*
X125110800Y-103938385D01*
X125139371Y-104052671D01*
X125167942Y-104109814D01*
X125225085Y-104166957D01*
X125310800Y-104195528D01*
X125453657Y-104195528D01*
X124996514Y-104252671D02*
X124539371Y-104252671D01*
X124053657Y-104138385D02*
X124082228Y-104166957D01*
X124167942Y-104195528D01*
X124225085Y-104195528D01*
X124310800Y-104166957D01*
X124367942Y-104109814D01*
X124396514Y-104052671D01*
X124425085Y-103938385D01*
X124425085Y-103852671D01*
X124396514Y-103738385D01*
X124367942Y-103681242D01*
X124310800Y-103624100D01*
X124225085Y-103595528D01*
X124167942Y-103595528D01*
X124082228Y-103624100D01*
X124053657Y-103652671D01*
X123510800Y-104195528D02*
X123796514Y-104195528D01*
X123796514Y-103595528D01*
X123310800Y-104195528D02*
X123310800Y-103595528D01*
X122967942Y-104195528D02*
X123225085Y-103852671D01*
X122967942Y-103595528D02*
X123310800Y-103938385D01*
X141684228Y-96118400D02*
X141741371Y-96089828D01*
X141827085Y-96089828D01*
X141912800Y-96118400D01*
X141969942Y-96175542D01*
X141998514Y-96232685D01*
X142027085Y-96346971D01*
X142027085Y-96432685D01*
X141998514Y-96546971D01*
X141969942Y-96604114D01*
X141912800Y-96661257D01*
X141827085Y-96689828D01*
X141769942Y-96689828D01*
X141684228Y-96661257D01*
X141655657Y-96632685D01*
X141655657Y-96432685D01*
X141769942Y-96432685D01*
X141398514Y-96689828D02*
X141398514Y-96089828D01*
X141169942Y-96089828D01*
X141112800Y-96118400D01*
X141084228Y-96146971D01*
X141055657Y-96204114D01*
X141055657Y-96289828D01*
X141084228Y-96346971D01*
X141112800Y-96375542D01*
X141169942Y-96404114D01*
X141398514Y-96404114D01*
X140798514Y-96689828D02*
X140798514Y-96089828D01*
X140398514Y-96089828D02*
X140284228Y-96089828D01*
X140227085Y-96118400D01*
X140169942Y-96175542D01*
X140141371Y-96289828D01*
X140141371Y-96489828D01*
X140169942Y-96604114D01*
X140227085Y-96661257D01*
X140284228Y-96689828D01*
X140398514Y-96689828D01*
X140455657Y-96661257D01*
X140512800Y-96604114D01*
X140541371Y-96489828D01*
X140541371Y-96289828D01*
X140512800Y-96175542D01*
X140455657Y-96118400D01*
X140398514Y-96089828D01*
X139569942Y-96689828D02*
X139912800Y-96689828D01*
X139741371Y-96689828D02*
X139741371Y-96089828D01*
X139798514Y-96175542D01*
X139855657Y-96232685D01*
X139912800Y-96261257D01*
X139198514Y-96089828D02*
X139141371Y-96089828D01*
X139084228Y-96118400D01*
X139055657Y-96146971D01*
X139027085Y-96204114D01*
X138998514Y-96318400D01*
X138998514Y-96461257D01*
X139027085Y-96575542D01*
X139055657Y-96632685D01*
X139084228Y-96661257D01*
X139141371Y-96689828D01*
X139198514Y-96689828D01*
X139255657Y-96661257D01*
X139284228Y-96632685D01*
X139312800Y-96575542D01*
X139341371Y-96461257D01*
X139341371Y-96318400D01*
X139312800Y-96204114D01*
X139284228Y-96146971D01*
X139255657Y-96118400D01*
X139198514Y-96089828D01*
X142104857Y-99201257D02*
X142019142Y-99229828D01*
X141876285Y-99229828D01*
X141819142Y-99201257D01*
X141790571Y-99172685D01*
X141762000Y-99115542D01*
X141762000Y-99058400D01*
X141790571Y-99001257D01*
X141819142Y-98972685D01*
X141876285Y-98944114D01*
X141990571Y-98915542D01*
X142047714Y-98886971D01*
X142076285Y-98858400D01*
X142104857Y-98801257D01*
X142104857Y-98744114D01*
X142076285Y-98686971D01*
X142047714Y-98658400D01*
X141990571Y-98629828D01*
X141847714Y-98629828D01*
X141762000Y-98658400D01*
X141504857Y-99229828D02*
X141504857Y-98629828D01*
X141362000Y-98629828D01*
X141276285Y-98658400D01*
X141219142Y-98715542D01*
X141190571Y-98772685D01*
X141162000Y-98886971D01*
X141162000Y-98972685D01*
X141190571Y-99086971D01*
X141219142Y-99144114D01*
X141276285Y-99201257D01*
X141362000Y-99229828D01*
X141504857Y-99229828D01*
X141047714Y-99286971D02*
X140590571Y-99286971D01*
X140104857Y-99172685D02*
X140133428Y-99201257D01*
X140219142Y-99229828D01*
X140276285Y-99229828D01*
X140362000Y-99201257D01*
X140419142Y-99144114D01*
X140447714Y-99086971D01*
X140476285Y-98972685D01*
X140476285Y-98886971D01*
X140447714Y-98772685D01*
X140419142Y-98715542D01*
X140362000Y-98658400D01*
X140276285Y-98629828D01*
X140219142Y-98629828D01*
X140133428Y-98658400D01*
X140104857Y-98686971D01*
X139847714Y-99229828D02*
X139847714Y-98629828D01*
X139647714Y-99058400D01*
X139447714Y-98629828D01*
X139447714Y-99229828D01*
X139162000Y-99229828D02*
X139162000Y-98629828D01*
X139019142Y-98629828D01*
X138933428Y-98658400D01*
X138876285Y-98715542D01*
X138847714Y-98772685D01*
X138819142Y-98886971D01*
X138819142Y-98972685D01*
X138847714Y-99086971D01*
X138876285Y-99144114D01*
X138933428Y-99201257D01*
X139019142Y-99229828D01*
X139162000Y-99229828D01*
X141754114Y-101198400D02*
X141811257Y-101169828D01*
X141896971Y-101169828D01*
X141982685Y-101198400D01*
X142039828Y-101255542D01*
X142068400Y-101312685D01*
X142096971Y-101426971D01*
X142096971Y-101512685D01*
X142068400Y-101626971D01*
X142039828Y-101684114D01*
X141982685Y-101741257D01*
X141896971Y-101769828D01*
X141839828Y-101769828D01*
X141754114Y-101741257D01*
X141725542Y-101712685D01*
X141725542Y-101512685D01*
X141839828Y-101512685D01*
X141468400Y-101769828D02*
X141468400Y-101169828D01*
X141239828Y-101169828D01*
X141182685Y-101198400D01*
X141154114Y-101226971D01*
X141125542Y-101284114D01*
X141125542Y-101369828D01*
X141154114Y-101426971D01*
X141182685Y-101455542D01*
X141239828Y-101484114D01*
X141468400Y-101484114D01*
X140868400Y-101769828D02*
X140868400Y-101169828D01*
X140468400Y-101169828D02*
X140354114Y-101169828D01*
X140296971Y-101198400D01*
X140239828Y-101255542D01*
X140211257Y-101369828D01*
X140211257Y-101569828D01*
X140239828Y-101684114D01*
X140296971Y-101741257D01*
X140354114Y-101769828D01*
X140468400Y-101769828D01*
X140525542Y-101741257D01*
X140582685Y-101684114D01*
X140611257Y-101569828D01*
X140611257Y-101369828D01*
X140582685Y-101255542D01*
X140525542Y-101198400D01*
X140468400Y-101169828D01*
X139668400Y-101169828D02*
X139954114Y-101169828D01*
X139982685Y-101455542D01*
X139954114Y-101426971D01*
X139896971Y-101398400D01*
X139754114Y-101398400D01*
X139696971Y-101426971D01*
X139668400Y-101455542D01*
X139639828Y-101512685D01*
X139639828Y-101655542D01*
X139668400Y-101712685D01*
X139696971Y-101741257D01*
X139754114Y-101769828D01*
X139896971Y-101769828D01*
X139954114Y-101741257D01*
X139982685Y-101712685D01*
X142154057Y-104484457D02*
X142068342Y-104513028D01*
X141925485Y-104513028D01*
X141868342Y-104484457D01*
X141839771Y-104455885D01*
X141811200Y-104398742D01*
X141811200Y-104341600D01*
X141839771Y-104284457D01*
X141868342Y-104255885D01*
X141925485Y-104227314D01*
X142039771Y-104198742D01*
X142096914Y-104170171D01*
X142125485Y-104141600D01*
X142154057Y-104084457D01*
X142154057Y-104027314D01*
X142125485Y-103970171D01*
X142096914Y-103941600D01*
X142039771Y-103913028D01*
X141896914Y-103913028D01*
X141811200Y-103941600D01*
X141554057Y-104513028D02*
X141554057Y-103913028D01*
X141411200Y-103913028D01*
X141325485Y-103941600D01*
X141268342Y-103998742D01*
X141239771Y-104055885D01*
X141211200Y-104170171D01*
X141211200Y-104255885D01*
X141239771Y-104370171D01*
X141268342Y-104427314D01*
X141325485Y-104484457D01*
X141411200Y-104513028D01*
X141554057Y-104513028D01*
X141096914Y-104570171D02*
X140639771Y-104570171D01*
X140496914Y-104513028D02*
X140496914Y-103913028D01*
X140354057Y-103913028D01*
X140268342Y-103941600D01*
X140211200Y-103998742D01*
X140182628Y-104055885D01*
X140154057Y-104170171D01*
X140154057Y-104255885D01*
X140182628Y-104370171D01*
X140211200Y-104427314D01*
X140268342Y-104484457D01*
X140354057Y-104513028D01*
X140496914Y-104513028D01*
X139925485Y-104341600D02*
X139639771Y-104341600D01*
X139982628Y-104513028D02*
X139782628Y-103913028D01*
X139582628Y-104513028D01*
X139468342Y-103913028D02*
X139125485Y-103913028D01*
X139296914Y-104513028D02*
X139296914Y-103913028D01*
X138954057Y-104341600D02*
X138668342Y-104341600D01*
X139011200Y-104513028D02*
X138811200Y-103913028D01*
X138611200Y-104513028D01*
X141505028Y-64505028D02*
X142105028Y-64705028D01*
X141505028Y-64905028D01*
X141505028Y-65219314D02*
X141505028Y-65333600D01*
X141533600Y-65390742D01*
X141590742Y-65447885D01*
X141705028Y-65476457D01*
X141905028Y-65476457D01*
X142019314Y-65447885D01*
X142076457Y-65390742D01*
X142105028Y-65333600D01*
X142105028Y-65219314D01*
X142076457Y-65162171D01*
X142019314Y-65105028D01*
X141905028Y-65076457D01*
X141705028Y-65076457D01*
X141590742Y-65105028D01*
X141533600Y-65162171D01*
X141505028Y-65219314D01*
X142105028Y-66019314D02*
X142105028Y-65733600D01*
X141505028Y-65733600D01*
X141876457Y-66219314D02*
X141876457Y-66676457D01*
X142105028Y-66447885D02*
X141647885Y-66447885D01*
X140755728Y-62282528D02*
X141355728Y-62482528D01*
X140755728Y-62682528D01*
X140755728Y-62996814D02*
X140755728Y-63111100D01*
X140784300Y-63168242D01*
X140841442Y-63225385D01*
X140955728Y-63253957D01*
X141155728Y-63253957D01*
X141270014Y-63225385D01*
X141327157Y-63168242D01*
X141355728Y-63111100D01*
X141355728Y-62996814D01*
X141327157Y-62939671D01*
X141270014Y-62882528D01*
X141155728Y-62853957D01*
X140955728Y-62853957D01*
X140841442Y-62882528D01*
X140784300Y-62939671D01*
X140755728Y-62996814D01*
X141355728Y-63796814D02*
X141355728Y-63511100D01*
X140755728Y-63511100D01*
X141127157Y-63996814D02*
X141127157Y-64453957D01*
X140868457Y-94064100D02*
X140811314Y-94092671D01*
X140725600Y-94092671D01*
X140639885Y-94064100D01*
X140582742Y-94006957D01*
X140554171Y-93949814D01*
X140525600Y-93835528D01*
X140525600Y-93749814D01*
X140554171Y-93635528D01*
X140582742Y-93578385D01*
X140639885Y-93521242D01*
X140725600Y-93492671D01*
X140782742Y-93492671D01*
X140868457Y-93521242D01*
X140897028Y-93549814D01*
X140897028Y-93749814D01*
X140782742Y-93749814D01*
X141154171Y-93492671D02*
X141154171Y-94092671D01*
X141497028Y-93492671D01*
X141497028Y-94092671D01*
X141782742Y-93492671D02*
X141782742Y-94092671D01*
X141925600Y-94092671D01*
X142011314Y-94064100D01*
X142068457Y-94006957D01*
X142097028Y-93949814D01*
X142125600Y-93835528D01*
X142125600Y-93749814D01*
X142097028Y-93635528D01*
X142068457Y-93578385D01*
X142011314Y-93521242D01*
X141925600Y-93492671D01*
X141782742Y-93492671D01*
X141628800Y-81348228D02*
X141828800Y-81062514D01*
X141971657Y-81348228D02*
X141971657Y-80748228D01*
X141743085Y-80748228D01*
X141685942Y-80776800D01*
X141657371Y-80805371D01*
X141628800Y-80862514D01*
X141628800Y-80948228D01*
X141657371Y-81005371D01*
X141685942Y-81033942D01*
X141743085Y-81062514D01*
X141971657Y-81062514D01*
X141428800Y-80748228D02*
X141028800Y-81348228D01*
X141028800Y-80748228D02*
X141428800Y-81348228D01*
X141552571Y-73779028D02*
X141752571Y-73493314D01*
X141895428Y-73779028D02*
X141895428Y-73179028D01*
X141666857Y-73179028D01*
X141609714Y-73207600D01*
X141581142Y-73236171D01*
X141552571Y-73293314D01*
X141552571Y-73379028D01*
X141581142Y-73436171D01*
X141609714Y-73464742D01*
X141666857Y-73493314D01*
X141895428Y-73493314D01*
X141324000Y-73750457D02*
X141238285Y-73779028D01*
X141095428Y-73779028D01*
X141038285Y-73750457D01*
X141009714Y-73721885D01*
X140981142Y-73664742D01*
X140981142Y-73607600D01*
X141009714Y-73550457D01*
X141038285Y-73521885D01*
X141095428Y-73493314D01*
X141209714Y-73464742D01*
X141266857Y-73436171D01*
X141295428Y-73407600D01*
X141324000Y-73350457D01*
X141324000Y-73293314D01*
X141295428Y-73236171D01*
X141266857Y-73207600D01*
X141209714Y-73179028D01*
X141066857Y-73179028D01*
X140981142Y-73207600D01*
X140809714Y-73179028D02*
X140466857Y-73179028D01*
X140638285Y-73779028D02*
X140638285Y-73179028D01*
X124255200Y-66548228D02*
X124255200Y-66833942D01*
X124426628Y-66491085D02*
X123826628Y-66691085D01*
X124426628Y-66891085D01*
X123826628Y-67091085D02*
X124312342Y-67091085D01*
X124369485Y-67119657D01*
X124398057Y-67148228D01*
X124426628Y-67205371D01*
X124426628Y-67319657D01*
X124398057Y-67376800D01*
X124369485Y-67405371D01*
X124312342Y-67433942D01*
X123826628Y-67433942D01*
X124426628Y-67719657D02*
X123826628Y-67719657D01*
X123826628Y-67862514D01*
X123855200Y-67948228D01*
X123912342Y-68005371D01*
X123969485Y-68033942D01*
X124083771Y-68062514D01*
X124169485Y-68062514D01*
X124283771Y-68033942D01*
X124340914Y-68005371D01*
X124398057Y-67948228D01*
X124426628Y-67862514D01*
X124426628Y-67719657D01*
X124426628Y-68319657D02*
X123826628Y-68319657D01*
X123826628Y-68719657D02*
X123826628Y-68833942D01*
X123855200Y-68891085D01*
X123912342Y-68948228D01*
X124026628Y-68976800D01*
X124226628Y-68976800D01*
X124340914Y-68948228D01*
X124398057Y-68891085D01*
X124426628Y-68833942D01*
X124426628Y-68719657D01*
X124398057Y-68662514D01*
X124340914Y-68605371D01*
X124226628Y-68576800D01*
X124026628Y-68576800D01*
X123912342Y-68605371D01*
X123855200Y-68662514D01*
X123826628Y-68719657D01*
X124426628Y-69576800D02*
X124140914Y-69376800D01*
X124426628Y-69233942D02*
X123826628Y-69233942D01*
X123826628Y-69462514D01*
X123855200Y-69519657D01*
X123883771Y-69548228D01*
X123940914Y-69576800D01*
X124026628Y-69576800D01*
X124083771Y-69548228D01*
X124112342Y-69519657D01*
X124140914Y-69462514D01*
X124140914Y-69233942D01*
X124426628Y-69833942D02*
X123826628Y-69833942D01*
X124426628Y-70176800D01*
X123826628Y-70176800D01*
X123115428Y-64630457D02*
X123715428Y-64830457D01*
X123115428Y-65030457D01*
X123658285Y-65573314D02*
X123686857Y-65544742D01*
X123715428Y-65459028D01*
X123715428Y-65401885D01*
X123686857Y-65316171D01*
X123629714Y-65259028D01*
X123572571Y-65230457D01*
X123458285Y-65201885D01*
X123372571Y-65201885D01*
X123258285Y-65230457D01*
X123201142Y-65259028D01*
X123144000Y-65316171D01*
X123115428Y-65401885D01*
X123115428Y-65459028D01*
X123144000Y-65544742D01*
X123172571Y-65573314D01*
X123658285Y-66173314D02*
X123686857Y-66144742D01*
X123715428Y-66059028D01*
X123715428Y-66001885D01*
X123686857Y-65916171D01*
X123629714Y-65859028D01*
X123572571Y-65830457D01*
X123458285Y-65801885D01*
X123372571Y-65801885D01*
X123258285Y-65830457D01*
X123201142Y-65859028D01*
X123144000Y-65916171D01*
X123115428Y-66001885D01*
X123115428Y-66059028D01*
X123144000Y-66144742D01*
X123172571Y-66173314D01*
X123715428Y-66430457D02*
X123115428Y-66430457D01*
X123115428Y-66830457D02*
X123115428Y-66944742D01*
X123144000Y-67001885D01*
X123201142Y-67059028D01*
X123315428Y-67087600D01*
X123515428Y-67087600D01*
X123629714Y-67059028D01*
X123686857Y-67001885D01*
X123715428Y-66944742D01*
X123715428Y-66830457D01*
X123686857Y-66773314D01*
X123629714Y-66716171D01*
X123515428Y-66687600D01*
X123315428Y-66687600D01*
X123201142Y-66716171D01*
X123144000Y-66773314D01*
X123115428Y-66830457D01*
X125139314Y-81551428D02*
X125139314Y-80951428D01*
X124939314Y-81380000D01*
X124739314Y-80951428D01*
X124739314Y-81551428D01*
X124453600Y-81551428D02*
X124453600Y-80951428D01*
X123825028Y-81494285D02*
X123853600Y-81522857D01*
X123939314Y-81551428D01*
X123996457Y-81551428D01*
X124082171Y-81522857D01*
X124139314Y-81465714D01*
X124167885Y-81408571D01*
X124196457Y-81294285D01*
X124196457Y-81208571D01*
X124167885Y-81094285D01*
X124139314Y-81037142D01*
X124082171Y-80980000D01*
X123996457Y-80951428D01*
X123939314Y-80951428D01*
X123853600Y-80980000D01*
X123825028Y-81008571D01*
X123567885Y-81551428D02*
X123567885Y-80951428D01*
X123282171Y-81551428D02*
X123282171Y-80951428D01*
X123053600Y-80951428D01*
X122996457Y-80980000D01*
X122967885Y-81008571D01*
X122939314Y-81065714D01*
X122939314Y-81151428D01*
X122967885Y-81208571D01*
X122996457Y-81237142D01*
X123053600Y-81265714D01*
X123282171Y-81265714D01*
X123317057Y-94102200D02*
X123259914Y-94130771D01*
X123174200Y-94130771D01*
X123088485Y-94102200D01*
X123031342Y-94045057D01*
X123002771Y-93987914D01*
X122974200Y-93873628D01*
X122974200Y-93787914D01*
X123002771Y-93673628D01*
X123031342Y-93616485D01*
X123088485Y-93559342D01*
X123174200Y-93530771D01*
X123231342Y-93530771D01*
X123317057Y-93559342D01*
X123345628Y-93587914D01*
X123345628Y-93787914D01*
X123231342Y-93787914D01*
X123602771Y-93530771D02*
X123602771Y-94130771D01*
X123945628Y-93530771D01*
X123945628Y-94130771D01*
X124231342Y-93530771D02*
X124231342Y-94130771D01*
X124374200Y-94130771D01*
X124459914Y-94102200D01*
X124517057Y-94045057D01*
X124545628Y-93987914D01*
X124574200Y-93873628D01*
X124574200Y-93787914D01*
X124545628Y-93673628D01*
X124517057Y-93616485D01*
X124459914Y-93559342D01*
X124374200Y-93530771D01*
X124231342Y-93530771D01*
X142155828Y-69881885D02*
X141555828Y-69881885D01*
X141984400Y-70081885D01*
X141555828Y-70281885D01*
X142155828Y-70281885D01*
X141555828Y-70681885D02*
X141555828Y-70796171D01*
X141584400Y-70853314D01*
X141641542Y-70910457D01*
X141755828Y-70939028D01*
X141955828Y-70939028D01*
X142070114Y-70910457D01*
X142127257Y-70853314D01*
X142155828Y-70796171D01*
X142155828Y-70681885D01*
X142127257Y-70624742D01*
X142070114Y-70567600D01*
X141955828Y-70539028D01*
X141755828Y-70539028D01*
X141641542Y-70567600D01*
X141584400Y-70624742D01*
X141555828Y-70681885D01*
X142155828Y-71196171D02*
X141555828Y-71196171D01*
X141555828Y-71339028D01*
X141584400Y-71424742D01*
X141641542Y-71481885D01*
X141698685Y-71510457D01*
X141812971Y-71539028D01*
X141898685Y-71539028D01*
X142012971Y-71510457D01*
X142070114Y-71481885D01*
X142127257Y-71424742D01*
X142155828Y-71339028D01*
X142155828Y-71196171D01*
X141841542Y-71796171D02*
X141841542Y-71996171D01*
X142155828Y-72081885D02*
X142155828Y-71796171D01*
X141555828Y-71796171D01*
X141555828Y-72081885D01*
X141601714Y-75747600D02*
X141658857Y-75719028D01*
X141744571Y-75719028D01*
X141830285Y-75747600D01*
X141887428Y-75804742D01*
X141916000Y-75861885D01*
X141944571Y-75976171D01*
X141944571Y-76061885D01*
X141916000Y-76176171D01*
X141887428Y-76233314D01*
X141830285Y-76290457D01*
X141744571Y-76319028D01*
X141687428Y-76319028D01*
X141601714Y-76290457D01*
X141573142Y-76261885D01*
X141573142Y-76061885D01*
X141687428Y-76061885D01*
X141316000Y-76319028D02*
X141316000Y-75719028D01*
X141087428Y-75719028D01*
X141030285Y-75747600D01*
X141001714Y-75776171D01*
X140973142Y-75833314D01*
X140973142Y-75919028D01*
X141001714Y-75976171D01*
X141030285Y-76004742D01*
X141087428Y-76033314D01*
X141316000Y-76033314D01*
X140716000Y-76319028D02*
X140716000Y-75719028D01*
X140316000Y-75719028D02*
X140201714Y-75719028D01*
X140144571Y-75747600D01*
X140087428Y-75804742D01*
X140058857Y-75919028D01*
X140058857Y-76119028D01*
X140087428Y-76233314D01*
X140144571Y-76290457D01*
X140201714Y-76319028D01*
X140316000Y-76319028D01*
X140373142Y-76290457D01*
X140430285Y-76233314D01*
X140458857Y-76119028D01*
X140458857Y-75919028D01*
X140430285Y-75804742D01*
X140373142Y-75747600D01*
X140316000Y-75719028D01*
X139544571Y-75719028D02*
X139658857Y-75719028D01*
X139716000Y-75747600D01*
X139744571Y-75776171D01*
X139801714Y-75861885D01*
X139830285Y-75976171D01*
X139830285Y-76204742D01*
X139801714Y-76261885D01*
X139773142Y-76290457D01*
X139716000Y-76319028D01*
X139601714Y-76319028D01*
X139544571Y-76290457D01*
X139516000Y-76261885D01*
X139487428Y-76204742D01*
X139487428Y-76061885D01*
X139516000Y-76004742D01*
X139544571Y-75976171D01*
X139601714Y-75947600D01*
X139716000Y-75947600D01*
X139773142Y-75976171D01*
X139801714Y-76004742D01*
X139830285Y-76061885D01*
X142087542Y-78259028D02*
X141744685Y-78259028D01*
X141916114Y-78859028D02*
X141916114Y-78259028D01*
X141601828Y-78259028D02*
X141201828Y-78859028D01*
X141201828Y-78259028D02*
X141601828Y-78859028D01*
X126674342Y-73760000D02*
X126388628Y-73760000D01*
X126731485Y-73931428D02*
X126531485Y-73331428D01*
X126331485Y-73931428D01*
X126131485Y-73331428D02*
X126131485Y-73817142D01*
X126102914Y-73874285D01*
X126074342Y-73902857D01*
X126017200Y-73931428D01*
X125902914Y-73931428D01*
X125845771Y-73902857D01*
X125817200Y-73874285D01*
X125788628Y-73817142D01*
X125788628Y-73331428D01*
X125502914Y-73931428D02*
X125502914Y-73331428D01*
X125360057Y-73331428D01*
X125274342Y-73360000D01*
X125217200Y-73417142D01*
X125188628Y-73474285D01*
X125160057Y-73588571D01*
X125160057Y-73674285D01*
X125188628Y-73788571D01*
X125217200Y-73845714D01*
X125274342Y-73902857D01*
X125360057Y-73931428D01*
X125502914Y-73931428D01*
X124902914Y-73931428D02*
X124902914Y-73331428D01*
X124502914Y-73331428D02*
X124388628Y-73331428D01*
X124331485Y-73360000D01*
X124274342Y-73417142D01*
X124245771Y-73531428D01*
X124245771Y-73731428D01*
X124274342Y-73845714D01*
X124331485Y-73902857D01*
X124388628Y-73931428D01*
X124502914Y-73931428D01*
X124560057Y-73902857D01*
X124617200Y-73845714D01*
X124645771Y-73731428D01*
X124645771Y-73531428D01*
X124617200Y-73417142D01*
X124560057Y-73360000D01*
X124502914Y-73331428D01*
X123702914Y-73931428D02*
X123988628Y-73931428D01*
X123988628Y-73331428D01*
X123502914Y-73931428D02*
X123502914Y-73331428D01*
X123274342Y-73331428D01*
X123217200Y-73360000D01*
X123188628Y-73388571D01*
X123160057Y-73445714D01*
X123160057Y-73531428D01*
X123188628Y-73588571D01*
X123217200Y-73617142D01*
X123274342Y-73645714D01*
X123502914Y-73645714D01*
X123544000Y-69254914D02*
X123544000Y-69540628D01*
X123715428Y-69197771D02*
X123115428Y-69397771D01*
X123715428Y-69597771D01*
X123115428Y-69797771D02*
X123601142Y-69797771D01*
X123658285Y-69826342D01*
X123686857Y-69854914D01*
X123715428Y-69912057D01*
X123715428Y-70026342D01*
X123686857Y-70083485D01*
X123658285Y-70112057D01*
X123601142Y-70140628D01*
X123115428Y-70140628D01*
X123715428Y-70426342D02*
X123115428Y-70426342D01*
X123115428Y-70569200D01*
X123144000Y-70654914D01*
X123201142Y-70712057D01*
X123258285Y-70740628D01*
X123372571Y-70769200D01*
X123458285Y-70769200D01*
X123572571Y-70740628D01*
X123629714Y-70712057D01*
X123686857Y-70654914D01*
X123715428Y-70569200D01*
X123715428Y-70426342D01*
X123715428Y-71026342D02*
X123115428Y-71026342D01*
X123115428Y-71426342D02*
X123115428Y-71540628D01*
X123144000Y-71597771D01*
X123201142Y-71654914D01*
X123315428Y-71683485D01*
X123515428Y-71683485D01*
X123629714Y-71654914D01*
X123686857Y-71597771D01*
X123715428Y-71540628D01*
X123715428Y-71426342D01*
X123686857Y-71369200D01*
X123629714Y-71312057D01*
X123515428Y-71283485D01*
X123315428Y-71283485D01*
X123201142Y-71312057D01*
X123144000Y-71369200D01*
X123115428Y-71426342D01*
X123715428Y-72283485D02*
X123429714Y-72083485D01*
X123715428Y-71940628D02*
X123115428Y-71940628D01*
X123115428Y-72169200D01*
X123144000Y-72226342D01*
X123172571Y-72254914D01*
X123229714Y-72283485D01*
X123315428Y-72283485D01*
X123372571Y-72254914D01*
X123401142Y-72226342D01*
X123429714Y-72169200D01*
X123429714Y-71940628D01*
X123715428Y-72540628D02*
X123115428Y-72540628D01*
X123115428Y-72769200D01*
X123144000Y-72826342D01*
X123172571Y-72854914D01*
X123229714Y-72883485D01*
X123315428Y-72883485D01*
X123372571Y-72854914D01*
X123401142Y-72826342D01*
X123429714Y-72769200D01*
X123429714Y-72540628D01*
X124153600Y-57524742D02*
X124153600Y-57810457D01*
X124325028Y-57467600D02*
X123725028Y-57667600D01*
X124325028Y-57867600D01*
X124325028Y-58067600D02*
X123725028Y-58067600D01*
X123725028Y-58210457D01*
X123753600Y-58296171D01*
X123810742Y-58353314D01*
X123867885Y-58381885D01*
X123982171Y-58410457D01*
X124067885Y-58410457D01*
X124182171Y-58381885D01*
X124239314Y-58353314D01*
X124296457Y-58296171D01*
X124325028Y-58210457D01*
X124325028Y-58067600D01*
X124267885Y-59010457D02*
X124296457Y-58981885D01*
X124325028Y-58896171D01*
X124325028Y-58839028D01*
X124296457Y-58753314D01*
X124239314Y-58696171D01*
X124182171Y-58667600D01*
X124067885Y-58639028D01*
X123982171Y-58639028D01*
X123867885Y-58667600D01*
X123810742Y-58696171D01*
X123753600Y-58753314D01*
X123725028Y-58839028D01*
X123725028Y-58896171D01*
X123753600Y-58981885D01*
X123782171Y-59010457D01*
X123648728Y-83939028D02*
X123648728Y-83339028D01*
X123305871Y-83939028D01*
X123305871Y-83339028D01*
X122677300Y-83881885D02*
X122705871Y-83910457D01*
X122791585Y-83939028D01*
X122848728Y-83939028D01*
X122934442Y-83910457D01*
X122991585Y-83853314D01*
X123020157Y-83796171D01*
X123048728Y-83681885D01*
X123048728Y-83596171D01*
X123020157Y-83481885D01*
X122991585Y-83424742D01*
X122934442Y-83367600D01*
X122848728Y-83339028D01*
X122791585Y-83339028D01*
X122705871Y-83367600D01*
X122677300Y-83396171D01*
X125045657Y-88796800D02*
X124759942Y-88796800D01*
X125102800Y-88968228D02*
X124902800Y-88368228D01*
X124702800Y-88968228D01*
X124502800Y-88368228D02*
X124502800Y-88853942D01*
X124474228Y-88911085D01*
X124445657Y-88939657D01*
X124388514Y-88968228D01*
X124274228Y-88968228D01*
X124217085Y-88939657D01*
X124188514Y-88911085D01*
X124159942Y-88853942D01*
X124159942Y-88368228D01*
X123931371Y-88368228D02*
X123531371Y-88968228D01*
X123531371Y-88368228D02*
X123931371Y-88968228D01*
X122959942Y-88968228D02*
X123159942Y-88682514D01*
X123302800Y-88968228D02*
X123302800Y-88368228D01*
X123074228Y-88368228D01*
X123017085Y-88396800D01*
X122988514Y-88425371D01*
X122959942Y-88482514D01*
X122959942Y-88568228D01*
X122988514Y-88625371D01*
X123017085Y-88653942D01*
X123074228Y-88682514D01*
X123302800Y-88682514D01*
X141793828Y-86415528D02*
X142079542Y-86415528D01*
X142079542Y-85815528D01*
X141593828Y-86101242D02*
X141393828Y-86101242D01*
X141308114Y-86415528D02*
X141593828Y-86415528D01*
X141593828Y-85815528D01*
X141308114Y-85815528D01*
X141050971Y-86415528D02*
X141050971Y-85815528D01*
X140908114Y-85815528D01*
X140822400Y-85844100D01*
X140765257Y-85901242D01*
X140736685Y-85958385D01*
X140708114Y-86072671D01*
X140708114Y-86158385D01*
X140736685Y-86272671D01*
X140765257Y-86329814D01*
X140822400Y-86386957D01*
X140908114Y-86415528D01*
X141050971Y-86415528D01*
X140136685Y-86415528D02*
X140479542Y-86415528D01*
X140308114Y-86415528D02*
X140308114Y-85815528D01*
X140365257Y-85901242D01*
X140422400Y-85958385D01*
X140479542Y-85986957D01*
X124886914Y-86358400D02*
X124601200Y-86358400D01*
X124944057Y-86529828D02*
X124744057Y-85929828D01*
X124544057Y-86529828D01*
X124344057Y-85929828D02*
X124344057Y-86415542D01*
X124315485Y-86472685D01*
X124286914Y-86501257D01*
X124229771Y-86529828D01*
X124115485Y-86529828D01*
X124058342Y-86501257D01*
X124029771Y-86472685D01*
X124001200Y-86415542D01*
X124001200Y-85929828D01*
X123772628Y-85929828D02*
X123372628Y-86529828D01*
X123372628Y-85929828D02*
X123772628Y-86529828D01*
X122858342Y-86529828D02*
X123144057Y-86529828D01*
X123144057Y-85929828D01*
X125583771Y-98528228D02*
X125583771Y-99013942D01*
X125555200Y-99071085D01*
X125526628Y-99099657D01*
X125469485Y-99128228D01*
X125355200Y-99128228D01*
X125298057Y-99099657D01*
X125269485Y-99071085D01*
X125240914Y-99013942D01*
X125240914Y-98528228D01*
X124983771Y-99099657D02*
X124898057Y-99128228D01*
X124755200Y-99128228D01*
X124698057Y-99099657D01*
X124669485Y-99071085D01*
X124640914Y-99013942D01*
X124640914Y-98956800D01*
X124669485Y-98899657D01*
X124698057Y-98871085D01*
X124755200Y-98842514D01*
X124869485Y-98813942D01*
X124926628Y-98785371D01*
X124955200Y-98756800D01*
X124983771Y-98699657D01*
X124983771Y-98642514D01*
X124955200Y-98585371D01*
X124926628Y-98556800D01*
X124869485Y-98528228D01*
X124726628Y-98528228D01*
X124640914Y-98556800D01*
X124183771Y-98813942D02*
X124098057Y-98842514D01*
X124069485Y-98871085D01*
X124040914Y-98928228D01*
X124040914Y-99013942D01*
X124069485Y-99071085D01*
X124098057Y-99099657D01*
X124155200Y-99128228D01*
X124383771Y-99128228D01*
X124383771Y-98528228D01*
X124183771Y-98528228D01*
X124126628Y-98556800D01*
X124098057Y-98585371D01*
X124069485Y-98642514D01*
X124069485Y-98699657D01*
X124098057Y-98756800D01*
X124126628Y-98785371D01*
X124183771Y-98813942D01*
X124383771Y-98813942D01*
X123783771Y-99128228D02*
X123783771Y-98528228D01*
X123640914Y-98528228D01*
X123555200Y-98556800D01*
X123498057Y-98613942D01*
X123469485Y-98671085D01*
X123440914Y-98785371D01*
X123440914Y-98871085D01*
X123469485Y-98985371D01*
X123498057Y-99042514D01*
X123555200Y-99099657D01*
X123640914Y-99128228D01*
X123783771Y-99128228D01*
X123183771Y-98899657D02*
X122726628Y-98899657D01*
X123166228Y-59515542D02*
X123766228Y-59715542D01*
X123166228Y-59915542D01*
X123166228Y-60058400D02*
X123166228Y-60429828D01*
X123394800Y-60229828D01*
X123394800Y-60315542D01*
X123423371Y-60372685D01*
X123451942Y-60401257D01*
X123509085Y-60429828D01*
X123651942Y-60429828D01*
X123709085Y-60401257D01*
X123737657Y-60372685D01*
X123766228Y-60315542D01*
X123766228Y-60144114D01*
X123737657Y-60086971D01*
X123709085Y-60058400D01*
X123166228Y-60801257D02*
X123166228Y-60915542D01*
X123194800Y-60972685D01*
X123251942Y-61029828D01*
X123366228Y-61058400D01*
X123566228Y-61058400D01*
X123680514Y-61029828D01*
X123737657Y-60972685D01*
X123766228Y-60915542D01*
X123766228Y-60801257D01*
X123737657Y-60744114D01*
X123680514Y-60686971D01*
X123566228Y-60658400D01*
X123366228Y-60658400D01*
X123251942Y-60686971D01*
X123194800Y-60744114D01*
X123166228Y-60801257D01*
X123166228Y-61315542D02*
X123651942Y-61315542D01*
X123709085Y-61344114D01*
X123737657Y-61372685D01*
X123766228Y-61429828D01*
X123766228Y-61544114D01*
X123737657Y-61601257D01*
X123709085Y-61629828D01*
X123651942Y-61658400D01*
X123166228Y-61658400D01*
X123166228Y-61858400D02*
X123166228Y-62201257D01*
X123766228Y-62029828D02*
X123166228Y-62029828D01*
X126266371Y-78909828D02*
X126266371Y-78309828D01*
X126066371Y-78738400D01*
X125866371Y-78309828D01*
X125866371Y-78909828D01*
X125580657Y-78909828D02*
X125580657Y-78309828D01*
X124952085Y-78852685D02*
X124980657Y-78881257D01*
X125066371Y-78909828D01*
X125123514Y-78909828D01*
X125209228Y-78881257D01*
X125266371Y-78824114D01*
X125294942Y-78766971D01*
X125323514Y-78652685D01*
X125323514Y-78566971D01*
X125294942Y-78452685D01*
X125266371Y-78395542D01*
X125209228Y-78338400D01*
X125123514Y-78309828D01*
X125066371Y-78309828D01*
X124980657Y-78338400D01*
X124952085Y-78366971D01*
X124494942Y-78595542D02*
X124409228Y-78624114D01*
X124380657Y-78652685D01*
X124352085Y-78709828D01*
X124352085Y-78795542D01*
X124380657Y-78852685D01*
X124409228Y-78881257D01*
X124466371Y-78909828D01*
X124694942Y-78909828D01*
X124694942Y-78309828D01*
X124494942Y-78309828D01*
X124437800Y-78338400D01*
X124409228Y-78366971D01*
X124380657Y-78424114D01*
X124380657Y-78481257D01*
X124409228Y-78538400D01*
X124437800Y-78566971D01*
X124494942Y-78595542D01*
X124694942Y-78595542D01*
X124094942Y-78909828D02*
X124094942Y-78309828D01*
X123837800Y-78738400D02*
X123552085Y-78738400D01*
X123894942Y-78909828D02*
X123694942Y-78309828D01*
X123494942Y-78909828D01*
X123323514Y-78881257D02*
X123237800Y-78909828D01*
X123094942Y-78909828D01*
X123037800Y-78881257D01*
X123009228Y-78852685D01*
X122980657Y-78795542D01*
X122980657Y-78738400D01*
X123009228Y-78681257D01*
X123037800Y-78652685D01*
X123094942Y-78624114D01*
X123209228Y-78595542D01*
X123266371Y-78566971D01*
X123294942Y-78538400D01*
X123323514Y-78481257D01*
X123323514Y-78424114D01*
X123294942Y-78366971D01*
X123266371Y-78338400D01*
X123209228Y-78309828D01*
X123066371Y-78309828D01*
X122980657Y-78338400D01*
X126561628Y-76249200D02*
X126275914Y-76249200D01*
X126618771Y-76420628D02*
X126418771Y-75820628D01*
X126218771Y-76420628D01*
X126018771Y-75820628D02*
X126018771Y-76306342D01*
X125990200Y-76363485D01*
X125961628Y-76392057D01*
X125904485Y-76420628D01*
X125790200Y-76420628D01*
X125733057Y-76392057D01*
X125704485Y-76363485D01*
X125675914Y-76306342D01*
X125675914Y-75820628D01*
X125390200Y-76420628D02*
X125390200Y-75820628D01*
X125247342Y-75820628D01*
X125161628Y-75849200D01*
X125104485Y-75906342D01*
X125075914Y-75963485D01*
X125047342Y-76077771D01*
X125047342Y-76163485D01*
X125075914Y-76277771D01*
X125104485Y-76334914D01*
X125161628Y-76392057D01*
X125247342Y-76420628D01*
X125390200Y-76420628D01*
X124790200Y-76420628D02*
X124790200Y-75820628D01*
X124390200Y-75820628D02*
X124275914Y-75820628D01*
X124218771Y-75849200D01*
X124161628Y-75906342D01*
X124133057Y-76020628D01*
X124133057Y-76220628D01*
X124161628Y-76334914D01*
X124218771Y-76392057D01*
X124275914Y-76420628D01*
X124390200Y-76420628D01*
X124447342Y-76392057D01*
X124504485Y-76334914D01*
X124533057Y-76220628D01*
X124533057Y-76020628D01*
X124504485Y-75906342D01*
X124447342Y-75849200D01*
X124390200Y-75820628D01*
X123590200Y-76420628D02*
X123875914Y-76420628D01*
X123875914Y-75820628D01*
X123390200Y-76420628D02*
X123390200Y-75820628D01*
X123047342Y-76420628D01*
X123047342Y-75820628D01*
X123725028Y-62488885D02*
X124325028Y-62688885D01*
X123725028Y-62888885D01*
X124010742Y-63288885D02*
X124039314Y-63374600D01*
X124067885Y-63403171D01*
X124125028Y-63431742D01*
X124210742Y-63431742D01*
X124267885Y-63403171D01*
X124296457Y-63374600D01*
X124325028Y-63317457D01*
X124325028Y-63088885D01*
X123725028Y-63088885D01*
X123725028Y-63288885D01*
X123753600Y-63346028D01*
X123782171Y-63374600D01*
X123839314Y-63403171D01*
X123896457Y-63403171D01*
X123953600Y-63374600D01*
X123982171Y-63346028D01*
X124010742Y-63288885D01*
X124010742Y-63088885D01*
X124153600Y-63660314D02*
X124153600Y-63946028D01*
X124325028Y-63603171D02*
X123725028Y-63803171D01*
X124325028Y-64003171D01*
X123725028Y-64117457D02*
X123725028Y-64460314D01*
X124325028Y-64288885D02*
X123725028Y-64288885D01*
X125634571Y-100966628D02*
X125634571Y-101452342D01*
X125606000Y-101509485D01*
X125577428Y-101538057D01*
X125520285Y-101566628D01*
X125406000Y-101566628D01*
X125348857Y-101538057D01*
X125320285Y-101509485D01*
X125291714Y-101452342D01*
X125291714Y-100966628D01*
X125034571Y-101538057D02*
X124948857Y-101566628D01*
X124806000Y-101566628D01*
X124748857Y-101538057D01*
X124720285Y-101509485D01*
X124691714Y-101452342D01*
X124691714Y-101395200D01*
X124720285Y-101338057D01*
X124748857Y-101309485D01*
X124806000Y-101280914D01*
X124920285Y-101252342D01*
X124977428Y-101223771D01*
X125006000Y-101195200D01*
X125034571Y-101138057D01*
X125034571Y-101080914D01*
X125006000Y-101023771D01*
X124977428Y-100995200D01*
X124920285Y-100966628D01*
X124777428Y-100966628D01*
X124691714Y-100995200D01*
X124234571Y-101252342D02*
X124148857Y-101280914D01*
X124120285Y-101309485D01*
X124091714Y-101366628D01*
X124091714Y-101452342D01*
X124120285Y-101509485D01*
X124148857Y-101538057D01*
X124206000Y-101566628D01*
X124434571Y-101566628D01*
X124434571Y-100966628D01*
X124234571Y-100966628D01*
X124177428Y-100995200D01*
X124148857Y-101023771D01*
X124120285Y-101080914D01*
X124120285Y-101138057D01*
X124148857Y-101195200D01*
X124177428Y-101223771D01*
X124234571Y-101252342D01*
X124434571Y-101252342D01*
X123834571Y-101566628D02*
X123834571Y-100966628D01*
X123691714Y-100966628D01*
X123606000Y-100995200D01*
X123548857Y-101052342D01*
X123520285Y-101109485D01*
X123491714Y-101223771D01*
X123491714Y-101309485D01*
X123520285Y-101423771D01*
X123548857Y-101480914D01*
X123606000Y-101538057D01*
X123691714Y-101566628D01*
X123834571Y-101566628D01*
X123234571Y-101338057D02*
X122777428Y-101338057D01*
X123006000Y-101566628D02*
X123006000Y-101109485D01*
X124707542Y-96689828D02*
X124707542Y-96089828D01*
X124078971Y-96689828D02*
X124278971Y-96404114D01*
X124421828Y-96689828D02*
X124421828Y-96089828D01*
X124193257Y-96089828D01*
X124136114Y-96118400D01*
X124107542Y-96146971D01*
X124078971Y-96204114D01*
X124078971Y-96289828D01*
X124107542Y-96346971D01*
X124136114Y-96375542D01*
X124193257Y-96404114D01*
X124421828Y-96404114D01*
X123821828Y-96689828D02*
X123821828Y-96089828D01*
X123678971Y-96089828D01*
X123593257Y-96118400D01*
X123536114Y-96175542D01*
X123507542Y-96232685D01*
X123478971Y-96346971D01*
X123478971Y-96432685D01*
X123507542Y-96546971D01*
X123536114Y-96604114D01*
X123593257Y-96661257D01*
X123678971Y-96689828D01*
X123821828Y-96689828D01*
X123250400Y-96518400D02*
X122964685Y-96518400D01*
X123307542Y-96689828D02*
X123107542Y-96089828D01*
X122907542Y-96689828D01*
X115230057Y-104484457D02*
X115144342Y-104513028D01*
X115001485Y-104513028D01*
X114944342Y-104484457D01*
X114915771Y-104455885D01*
X114887200Y-104398742D01*
X114887200Y-104341600D01*
X114915771Y-104284457D01*
X114944342Y-104255885D01*
X115001485Y-104227314D01*
X115115771Y-104198742D01*
X115172914Y-104170171D01*
X115201485Y-104141600D01*
X115230057Y-104084457D01*
X115230057Y-104027314D01*
X115201485Y-103970171D01*
X115172914Y-103941600D01*
X115115771Y-103913028D01*
X114972914Y-103913028D01*
X114887200Y-103941600D01*
X114630057Y-104513028D02*
X114630057Y-103913028D01*
X114487200Y-103913028D01*
X114401485Y-103941600D01*
X114344342Y-103998742D01*
X114315771Y-104055885D01*
X114287200Y-104170171D01*
X114287200Y-104255885D01*
X114315771Y-104370171D01*
X114344342Y-104427314D01*
X114401485Y-104484457D01*
X114487200Y-104513028D01*
X114630057Y-104513028D01*
X114172914Y-104570171D02*
X113715771Y-104570171D01*
X113572914Y-104513028D02*
X113572914Y-103913028D01*
X113430057Y-103913028D01*
X113344342Y-103941600D01*
X113287200Y-103998742D01*
X113258628Y-104055885D01*
X113230057Y-104170171D01*
X113230057Y-104255885D01*
X113258628Y-104370171D01*
X113287200Y-104427314D01*
X113344342Y-104484457D01*
X113430057Y-104513028D01*
X113572914Y-104513028D01*
X113001485Y-104341600D02*
X112715771Y-104341600D01*
X113058628Y-104513028D02*
X112858628Y-103913028D01*
X112658628Y-104513028D01*
X112544342Y-103913028D02*
X112201485Y-103913028D01*
X112372914Y-104513028D02*
X112372914Y-103913028D01*
X112030057Y-104341600D02*
X111744342Y-104341600D01*
X112087200Y-104513028D02*
X111887200Y-103913028D01*
X111687200Y-104513028D01*
X114830114Y-101198400D02*
X114887257Y-101169828D01*
X114972971Y-101169828D01*
X115058685Y-101198400D01*
X115115828Y-101255542D01*
X115144400Y-101312685D01*
X115172971Y-101426971D01*
X115172971Y-101512685D01*
X115144400Y-101626971D01*
X115115828Y-101684114D01*
X115058685Y-101741257D01*
X114972971Y-101769828D01*
X114915828Y-101769828D01*
X114830114Y-101741257D01*
X114801542Y-101712685D01*
X114801542Y-101512685D01*
X114915828Y-101512685D01*
X114544400Y-101769828D02*
X114544400Y-101169828D01*
X114315828Y-101169828D01*
X114258685Y-101198400D01*
X114230114Y-101226971D01*
X114201542Y-101284114D01*
X114201542Y-101369828D01*
X114230114Y-101426971D01*
X114258685Y-101455542D01*
X114315828Y-101484114D01*
X114544400Y-101484114D01*
X113944400Y-101769828D02*
X113944400Y-101169828D01*
X113544400Y-101169828D02*
X113430114Y-101169828D01*
X113372971Y-101198400D01*
X113315828Y-101255542D01*
X113287257Y-101369828D01*
X113287257Y-101569828D01*
X113315828Y-101684114D01*
X113372971Y-101741257D01*
X113430114Y-101769828D01*
X113544400Y-101769828D01*
X113601542Y-101741257D01*
X113658685Y-101684114D01*
X113687257Y-101569828D01*
X113687257Y-101369828D01*
X113658685Y-101255542D01*
X113601542Y-101198400D01*
X113544400Y-101169828D01*
X112744400Y-101169828D02*
X113030114Y-101169828D01*
X113058685Y-101455542D01*
X113030114Y-101426971D01*
X112972971Y-101398400D01*
X112830114Y-101398400D01*
X112772971Y-101426971D01*
X112744400Y-101455542D01*
X112715828Y-101512685D01*
X112715828Y-101655542D01*
X112744400Y-101712685D01*
X112772971Y-101741257D01*
X112830114Y-101769828D01*
X112972971Y-101769828D01*
X113030114Y-101741257D01*
X113058685Y-101712685D01*
X115180857Y-99201257D02*
X115095142Y-99229828D01*
X114952285Y-99229828D01*
X114895142Y-99201257D01*
X114866571Y-99172685D01*
X114838000Y-99115542D01*
X114838000Y-99058400D01*
X114866571Y-99001257D01*
X114895142Y-98972685D01*
X114952285Y-98944114D01*
X115066571Y-98915542D01*
X115123714Y-98886971D01*
X115152285Y-98858400D01*
X115180857Y-98801257D01*
X115180857Y-98744114D01*
X115152285Y-98686971D01*
X115123714Y-98658400D01*
X115066571Y-98629828D01*
X114923714Y-98629828D01*
X114838000Y-98658400D01*
X114580857Y-99229828D02*
X114580857Y-98629828D01*
X114438000Y-98629828D01*
X114352285Y-98658400D01*
X114295142Y-98715542D01*
X114266571Y-98772685D01*
X114238000Y-98886971D01*
X114238000Y-98972685D01*
X114266571Y-99086971D01*
X114295142Y-99144114D01*
X114352285Y-99201257D01*
X114438000Y-99229828D01*
X114580857Y-99229828D01*
X114123714Y-99286971D02*
X113666571Y-99286971D01*
X113180857Y-99172685D02*
X113209428Y-99201257D01*
X113295142Y-99229828D01*
X113352285Y-99229828D01*
X113438000Y-99201257D01*
X113495142Y-99144114D01*
X113523714Y-99086971D01*
X113552285Y-98972685D01*
X113552285Y-98886971D01*
X113523714Y-98772685D01*
X113495142Y-98715542D01*
X113438000Y-98658400D01*
X113352285Y-98629828D01*
X113295142Y-98629828D01*
X113209428Y-98658400D01*
X113180857Y-98686971D01*
X112923714Y-99229828D02*
X112923714Y-98629828D01*
X112723714Y-99058400D01*
X112523714Y-98629828D01*
X112523714Y-99229828D01*
X112238000Y-99229828D02*
X112238000Y-98629828D01*
X112095142Y-98629828D01*
X112009428Y-98658400D01*
X111952285Y-98715542D01*
X111923714Y-98772685D01*
X111895142Y-98886971D01*
X111895142Y-98972685D01*
X111923714Y-99086971D01*
X111952285Y-99144114D01*
X112009428Y-99201257D01*
X112095142Y-99229828D01*
X112238000Y-99229828D01*
X114760228Y-96118400D02*
X114817371Y-96089828D01*
X114903085Y-96089828D01*
X114988800Y-96118400D01*
X115045942Y-96175542D01*
X115074514Y-96232685D01*
X115103085Y-96346971D01*
X115103085Y-96432685D01*
X115074514Y-96546971D01*
X115045942Y-96604114D01*
X114988800Y-96661257D01*
X114903085Y-96689828D01*
X114845942Y-96689828D01*
X114760228Y-96661257D01*
X114731657Y-96632685D01*
X114731657Y-96432685D01*
X114845942Y-96432685D01*
X114474514Y-96689828D02*
X114474514Y-96089828D01*
X114245942Y-96089828D01*
X114188800Y-96118400D01*
X114160228Y-96146971D01*
X114131657Y-96204114D01*
X114131657Y-96289828D01*
X114160228Y-96346971D01*
X114188800Y-96375542D01*
X114245942Y-96404114D01*
X114474514Y-96404114D01*
X113874514Y-96689828D02*
X113874514Y-96089828D01*
X113474514Y-96089828D02*
X113360228Y-96089828D01*
X113303085Y-96118400D01*
X113245942Y-96175542D01*
X113217371Y-96289828D01*
X113217371Y-96489828D01*
X113245942Y-96604114D01*
X113303085Y-96661257D01*
X113360228Y-96689828D01*
X113474514Y-96689828D01*
X113531657Y-96661257D01*
X113588800Y-96604114D01*
X113617371Y-96489828D01*
X113617371Y-96289828D01*
X113588800Y-96175542D01*
X113531657Y-96118400D01*
X113474514Y-96089828D01*
X112645942Y-96689828D02*
X112988800Y-96689828D01*
X112817371Y-96689828D02*
X112817371Y-96089828D01*
X112874514Y-96175542D01*
X112931657Y-96232685D01*
X112988800Y-96261257D01*
X112274514Y-96089828D02*
X112217371Y-96089828D01*
X112160228Y-96118400D01*
X112131657Y-96146971D01*
X112103085Y-96204114D01*
X112074514Y-96318400D01*
X112074514Y-96461257D01*
X112103085Y-96575542D01*
X112131657Y-96632685D01*
X112160228Y-96661257D01*
X112217371Y-96689828D01*
X112274514Y-96689828D01*
X112331657Y-96661257D01*
X112360228Y-96632685D01*
X112388800Y-96575542D01*
X112417371Y-96461257D01*
X112417371Y-96318400D01*
X112388800Y-96204114D01*
X112360228Y-96146971D01*
X112331657Y-96118400D01*
X112274514Y-96089828D01*
X113944457Y-94064100D02*
X113887314Y-94092671D01*
X113801600Y-94092671D01*
X113715885Y-94064100D01*
X113658742Y-94006957D01*
X113630171Y-93949814D01*
X113601600Y-93835528D01*
X113601600Y-93749814D01*
X113630171Y-93635528D01*
X113658742Y-93578385D01*
X113715885Y-93521242D01*
X113801600Y-93492671D01*
X113858742Y-93492671D01*
X113944457Y-93521242D01*
X113973028Y-93549814D01*
X113973028Y-93749814D01*
X113858742Y-93749814D01*
X114230171Y-93492671D02*
X114230171Y-94092671D01*
X114573028Y-93492671D01*
X114573028Y-94092671D01*
X114858742Y-93492671D02*
X114858742Y-94092671D01*
X115001600Y-94092671D01*
X115087314Y-94064100D01*
X115144457Y-94006957D01*
X115173028Y-93949814D01*
X115201600Y-93835528D01*
X115201600Y-93749814D01*
X115173028Y-93635528D01*
X115144457Y-93578385D01*
X115087314Y-93521242D01*
X115001600Y-93492671D01*
X114858742Y-93492671D01*
X114861828Y-90987600D02*
X114918971Y-90959028D01*
X115004685Y-90959028D01*
X115090400Y-90987600D01*
X115147542Y-91044742D01*
X115176114Y-91101885D01*
X115204685Y-91216171D01*
X115204685Y-91301885D01*
X115176114Y-91416171D01*
X115147542Y-91473314D01*
X115090400Y-91530457D01*
X115004685Y-91559028D01*
X114947542Y-91559028D01*
X114861828Y-91530457D01*
X114833257Y-91501885D01*
X114833257Y-91301885D01*
X114947542Y-91301885D01*
X114576114Y-91559028D02*
X114576114Y-90959028D01*
X114347542Y-90959028D01*
X114290400Y-90987600D01*
X114261828Y-91016171D01*
X114233257Y-91073314D01*
X114233257Y-91159028D01*
X114261828Y-91216171D01*
X114290400Y-91244742D01*
X114347542Y-91273314D01*
X114576114Y-91273314D01*
X113976114Y-91559028D02*
X113976114Y-90959028D01*
X113576114Y-90959028D02*
X113461828Y-90959028D01*
X113404685Y-90987600D01*
X113347542Y-91044742D01*
X113318971Y-91159028D01*
X113318971Y-91359028D01*
X113347542Y-91473314D01*
X113404685Y-91530457D01*
X113461828Y-91559028D01*
X113576114Y-91559028D01*
X113633257Y-91530457D01*
X113690400Y-91473314D01*
X113718971Y-91359028D01*
X113718971Y-91159028D01*
X113690400Y-91044742D01*
X113633257Y-90987600D01*
X113576114Y-90959028D01*
X112747542Y-91559028D02*
X113090400Y-91559028D01*
X112918971Y-91559028D02*
X112918971Y-90959028D01*
X112976114Y-91044742D01*
X113033257Y-91101885D01*
X113090400Y-91130457D01*
X112233257Y-90959028D02*
X112347542Y-90959028D01*
X112404685Y-90987600D01*
X112433257Y-91016171D01*
X112490400Y-91101885D01*
X112518971Y-91216171D01*
X112518971Y-91444742D01*
X112490400Y-91501885D01*
X112461828Y-91530457D01*
X112404685Y-91559028D01*
X112290400Y-91559028D01*
X112233257Y-91530457D01*
X112204685Y-91501885D01*
X112176114Y-91444742D01*
X112176114Y-91301885D01*
X112204685Y-91244742D01*
X112233257Y-91216171D01*
X112290400Y-91187600D01*
X112404685Y-91187600D01*
X112461828Y-91216171D01*
X112490400Y-91244742D01*
X112518971Y-91301885D01*
X114869828Y-89019028D02*
X115155542Y-89019028D01*
X115155542Y-88419028D01*
X114669828Y-88704742D02*
X114469828Y-88704742D01*
X114384114Y-89019028D02*
X114669828Y-89019028D01*
X114669828Y-88419028D01*
X114384114Y-88419028D01*
X114126971Y-89019028D02*
X114126971Y-88419028D01*
X113984114Y-88419028D01*
X113898400Y-88447600D01*
X113841257Y-88504742D01*
X113812685Y-88561885D01*
X113784114Y-88676171D01*
X113784114Y-88761885D01*
X113812685Y-88876171D01*
X113841257Y-88933314D01*
X113898400Y-88990457D01*
X113984114Y-89019028D01*
X114126971Y-89019028D01*
X113555542Y-88476171D02*
X113526971Y-88447600D01*
X113469828Y-88419028D01*
X113326971Y-88419028D01*
X113269828Y-88447600D01*
X113241257Y-88476171D01*
X113212685Y-88533314D01*
X113212685Y-88590457D01*
X113241257Y-88676171D01*
X113584114Y-89019028D01*
X113212685Y-89019028D01*
X114869828Y-86415528D02*
X115155542Y-86415528D01*
X115155542Y-85815528D01*
X114669828Y-86101242D02*
X114469828Y-86101242D01*
X114384114Y-86415528D02*
X114669828Y-86415528D01*
X114669828Y-85815528D01*
X114384114Y-85815528D01*
X114126971Y-86415528D02*
X114126971Y-85815528D01*
X113984114Y-85815528D01*
X113898400Y-85844100D01*
X113841257Y-85901242D01*
X113812685Y-85958385D01*
X113784114Y-86072671D01*
X113784114Y-86158385D01*
X113812685Y-86272671D01*
X113841257Y-86329814D01*
X113898400Y-86386957D01*
X113984114Y-86415528D01*
X114126971Y-86415528D01*
X113212685Y-86415528D02*
X113555542Y-86415528D01*
X113384114Y-86415528D02*
X113384114Y-85815528D01*
X113441257Y-85901242D01*
X113498400Y-85958385D01*
X113555542Y-85986957D01*
X115111085Y-83939028D02*
X115111085Y-83339028D01*
X114911085Y-83767600D01*
X114711085Y-83339028D01*
X114711085Y-83939028D01*
X114425371Y-83339028D02*
X114425371Y-83824742D01*
X114396800Y-83881885D01*
X114368228Y-83910457D01*
X114311085Y-83939028D01*
X114196800Y-83939028D01*
X114139657Y-83910457D01*
X114111085Y-83881885D01*
X114082514Y-83824742D01*
X114082514Y-83339028D01*
X113882514Y-83339028D02*
X113539657Y-83339028D01*
X113711085Y-83939028D02*
X113711085Y-83339028D01*
X113339657Y-83624742D02*
X113139657Y-83624742D01*
X113053942Y-83939028D02*
X113339657Y-83939028D01*
X113339657Y-83339028D01*
X113053942Y-83339028D01*
X114704800Y-81348228D02*
X114904800Y-81062514D01*
X115047657Y-81348228D02*
X115047657Y-80748228D01*
X114819085Y-80748228D01*
X114761942Y-80776800D01*
X114733371Y-80805371D01*
X114704800Y-80862514D01*
X114704800Y-80948228D01*
X114733371Y-81005371D01*
X114761942Y-81033942D01*
X114819085Y-81062514D01*
X115047657Y-81062514D01*
X114504800Y-80748228D02*
X114104800Y-81348228D01*
X114104800Y-80748228D02*
X114504800Y-81348228D01*
X115163542Y-78259028D02*
X114820685Y-78259028D01*
X114992114Y-78859028D02*
X114992114Y-78259028D01*
X114677828Y-78259028D02*
X114277828Y-78859028D01*
X114277828Y-78259028D02*
X114677828Y-78859028D01*
X114677714Y-75747600D02*
X114734857Y-75719028D01*
X114820571Y-75719028D01*
X114906285Y-75747600D01*
X114963428Y-75804742D01*
X114992000Y-75861885D01*
X115020571Y-75976171D01*
X115020571Y-76061885D01*
X114992000Y-76176171D01*
X114963428Y-76233314D01*
X114906285Y-76290457D01*
X114820571Y-76319028D01*
X114763428Y-76319028D01*
X114677714Y-76290457D01*
X114649142Y-76261885D01*
X114649142Y-76061885D01*
X114763428Y-76061885D01*
X114392000Y-76319028D02*
X114392000Y-75719028D01*
X114163428Y-75719028D01*
X114106285Y-75747600D01*
X114077714Y-75776171D01*
X114049142Y-75833314D01*
X114049142Y-75919028D01*
X114077714Y-75976171D01*
X114106285Y-76004742D01*
X114163428Y-76033314D01*
X114392000Y-76033314D01*
X113792000Y-76319028D02*
X113792000Y-75719028D01*
X113392000Y-75719028D02*
X113277714Y-75719028D01*
X113220571Y-75747600D01*
X113163428Y-75804742D01*
X113134857Y-75919028D01*
X113134857Y-76119028D01*
X113163428Y-76233314D01*
X113220571Y-76290457D01*
X113277714Y-76319028D01*
X113392000Y-76319028D01*
X113449142Y-76290457D01*
X113506285Y-76233314D01*
X113534857Y-76119028D01*
X113534857Y-75919028D01*
X113506285Y-75804742D01*
X113449142Y-75747600D01*
X113392000Y-75719028D01*
X112620571Y-75719028D02*
X112734857Y-75719028D01*
X112792000Y-75747600D01*
X112820571Y-75776171D01*
X112877714Y-75861885D01*
X112906285Y-75976171D01*
X112906285Y-76204742D01*
X112877714Y-76261885D01*
X112849142Y-76290457D01*
X112792000Y-76319028D01*
X112677714Y-76319028D01*
X112620571Y-76290457D01*
X112592000Y-76261885D01*
X112563428Y-76204742D01*
X112563428Y-76061885D01*
X112592000Y-76004742D01*
X112620571Y-75976171D01*
X112677714Y-75947600D01*
X112792000Y-75947600D01*
X112849142Y-75976171D01*
X112877714Y-76004742D01*
X112906285Y-76061885D01*
X114628571Y-73779028D02*
X114828571Y-73493314D01*
X114971428Y-73779028D02*
X114971428Y-73179028D01*
X114742857Y-73179028D01*
X114685714Y-73207600D01*
X114657142Y-73236171D01*
X114628571Y-73293314D01*
X114628571Y-73379028D01*
X114657142Y-73436171D01*
X114685714Y-73464742D01*
X114742857Y-73493314D01*
X114971428Y-73493314D01*
X114400000Y-73750457D02*
X114314285Y-73779028D01*
X114171428Y-73779028D01*
X114114285Y-73750457D01*
X114085714Y-73721885D01*
X114057142Y-73664742D01*
X114057142Y-73607600D01*
X114085714Y-73550457D01*
X114114285Y-73521885D01*
X114171428Y-73493314D01*
X114285714Y-73464742D01*
X114342857Y-73436171D01*
X114371428Y-73407600D01*
X114400000Y-73350457D01*
X114400000Y-73293314D01*
X114371428Y-73236171D01*
X114342857Y-73207600D01*
X114285714Y-73179028D01*
X114142857Y-73179028D01*
X114057142Y-73207600D01*
X113885714Y-73179028D02*
X113542857Y-73179028D01*
X113714285Y-73779028D02*
X113714285Y-73179028D01*
X115231828Y-69881885D02*
X114631828Y-69881885D01*
X115060400Y-70081885D01*
X114631828Y-70281885D01*
X115231828Y-70281885D01*
X114631828Y-70681885D02*
X114631828Y-70796171D01*
X114660400Y-70853314D01*
X114717542Y-70910457D01*
X114831828Y-70939028D01*
X115031828Y-70939028D01*
X115146114Y-70910457D01*
X115203257Y-70853314D01*
X115231828Y-70796171D01*
X115231828Y-70681885D01*
X115203257Y-70624742D01*
X115146114Y-70567600D01*
X115031828Y-70539028D01*
X114831828Y-70539028D01*
X114717542Y-70567600D01*
X114660400Y-70624742D01*
X114631828Y-70681885D01*
X115231828Y-71196171D02*
X114631828Y-71196171D01*
X114631828Y-71339028D01*
X114660400Y-71424742D01*
X114717542Y-71481885D01*
X114774685Y-71510457D01*
X114888971Y-71539028D01*
X114974685Y-71539028D01*
X115088971Y-71510457D01*
X115146114Y-71481885D01*
X115203257Y-71424742D01*
X115231828Y-71339028D01*
X115231828Y-71196171D01*
X114917542Y-71796171D02*
X114917542Y-71996171D01*
X115231828Y-72081885D02*
X115231828Y-71796171D01*
X114631828Y-71796171D01*
X114631828Y-72081885D01*
X114438085Y-67870457D02*
X114466657Y-67841885D01*
X114495228Y-67756171D01*
X114495228Y-67699028D01*
X114466657Y-67613314D01*
X114409514Y-67556171D01*
X114352371Y-67527600D01*
X114238085Y-67499028D01*
X114152371Y-67499028D01*
X114038085Y-67527600D01*
X113980942Y-67556171D01*
X113923800Y-67613314D01*
X113895228Y-67699028D01*
X113895228Y-67756171D01*
X113923800Y-67841885D01*
X113952371Y-67870457D01*
X114323800Y-68099028D02*
X114323800Y-68384742D01*
X114495228Y-68041885D02*
X113895228Y-68241885D01*
X114495228Y-68441885D01*
X114495228Y-68927600D02*
X114495228Y-68641885D01*
X113895228Y-68641885D01*
X114495228Y-69413314D02*
X114495228Y-69127600D01*
X113895228Y-69127600D01*
X114581028Y-64505028D02*
X115181028Y-64705028D01*
X114581028Y-64905028D01*
X114581028Y-65219314D02*
X114581028Y-65333600D01*
X114609600Y-65390742D01*
X114666742Y-65447885D01*
X114781028Y-65476457D01*
X114981028Y-65476457D01*
X115095314Y-65447885D01*
X115152457Y-65390742D01*
X115181028Y-65333600D01*
X115181028Y-65219314D01*
X115152457Y-65162171D01*
X115095314Y-65105028D01*
X114981028Y-65076457D01*
X114781028Y-65076457D01*
X114666742Y-65105028D01*
X114609600Y-65162171D01*
X114581028Y-65219314D01*
X115181028Y-66019314D02*
X115181028Y-65733600D01*
X114581028Y-65733600D01*
X114952457Y-66219314D02*
X114952457Y-66676457D01*
X115181028Y-66447885D02*
X114723885Y-66447885D01*
X113831728Y-62282528D02*
X114431728Y-62482528D01*
X113831728Y-62682528D01*
X113831728Y-62996814D02*
X113831728Y-63111100D01*
X113860300Y-63168242D01*
X113917442Y-63225385D01*
X114031728Y-63253957D01*
X114231728Y-63253957D01*
X114346014Y-63225385D01*
X114403157Y-63168242D01*
X114431728Y-63111100D01*
X114431728Y-62996814D01*
X114403157Y-62939671D01*
X114346014Y-62882528D01*
X114231728Y-62853957D01*
X114031728Y-62853957D01*
X113917442Y-62882528D01*
X113860300Y-62939671D01*
X113831728Y-62996814D01*
X114431728Y-63796814D02*
X114431728Y-63511100D01*
X113831728Y-63511100D01*
X114203157Y-63996814D02*
X114203157Y-64453957D01*
X114866742Y-59779028D02*
X114866742Y-59579028D01*
X115181028Y-59579028D02*
X114581028Y-59579028D01*
X114581028Y-59864742D01*
X115181028Y-60093314D02*
X114581028Y-60093314D01*
X115009600Y-60293314D01*
X114581028Y-60493314D01*
X115181028Y-60493314D01*
X115181028Y-60779028D02*
X114581028Y-60779028D01*
X115181028Y-61064742D02*
X114581028Y-61064742D01*
X115181028Y-61407600D01*
X114581028Y-61407600D01*
X115181028Y-61693314D02*
X114581028Y-61693314D01*
X115181028Y-62036171D01*
X114581028Y-62036171D01*
X114117442Y-57126314D02*
X114117442Y-56926314D01*
X114431728Y-56926314D02*
X113831728Y-56926314D01*
X113831728Y-57212028D01*
X114431728Y-57440600D02*
X113831728Y-57440600D01*
X114260300Y-57640600D01*
X113831728Y-57840600D01*
X114431728Y-57840600D01*
X114431728Y-58126314D02*
X113831728Y-58126314D01*
X114431728Y-58412028D02*
X113831728Y-58412028D01*
X114431728Y-58754885D01*
X113831728Y-58754885D01*
X114431728Y-59040600D02*
X113831728Y-59040600D01*
X113831728Y-59269171D01*
X113860300Y-59326314D01*
X113888871Y-59354885D01*
X113946014Y-59383457D01*
X114031728Y-59383457D01*
X114088871Y-59354885D01*
X114117442Y-59326314D01*
X114146014Y-59269171D01*
X114146014Y-59040600D01*
X114558800Y-55206957D02*
X114530228Y-55149814D01*
X114530228Y-55064100D01*
X114558800Y-54978385D01*
X114615942Y-54921242D01*
X114673085Y-54892671D01*
X114787371Y-54864100D01*
X114873085Y-54864100D01*
X114987371Y-54892671D01*
X115044514Y-54921242D01*
X115101657Y-54978385D01*
X115130228Y-55064100D01*
X115130228Y-55121242D01*
X115101657Y-55206957D01*
X115073085Y-55235528D01*
X114873085Y-55235528D01*
X114873085Y-55121242D01*
X115130228Y-55492671D02*
X114530228Y-55492671D01*
X115130228Y-55835528D01*
X114530228Y-55835528D01*
X115130228Y-56121242D02*
X114530228Y-56121242D01*
X114530228Y-56264100D01*
X114558800Y-56349814D01*
X114615942Y-56406957D01*
X114673085Y-56435528D01*
X114787371Y-56464100D01*
X114873085Y-56464100D01*
X114987371Y-56435528D01*
X115044514Y-56406957D01*
X115101657Y-56349814D01*
X115130228Y-56264100D01*
X115130228Y-56121242D01*
X96685085Y-106376828D02*
X96970800Y-106376828D01*
X96999371Y-106662542D01*
X96970800Y-106633971D01*
X96913657Y-106605400D01*
X96770800Y-106605400D01*
X96713657Y-106633971D01*
X96685085Y-106662542D01*
X96656514Y-106719685D01*
X96656514Y-106862542D01*
X96685085Y-106919685D01*
X96713657Y-106948257D01*
X96770800Y-106976828D01*
X96913657Y-106976828D01*
X96970800Y-106948257D01*
X96999371Y-106919685D01*
X96485085Y-106376828D02*
X96285085Y-106976828D01*
X96085085Y-106376828D01*
X99129657Y-104166957D02*
X99043942Y-104195528D01*
X98901085Y-104195528D01*
X98843942Y-104166957D01*
X98815371Y-104138385D01*
X98786800Y-104081242D01*
X98786800Y-104024100D01*
X98815371Y-103966957D01*
X98843942Y-103938385D01*
X98901085Y-103909814D01*
X99015371Y-103881242D01*
X99072514Y-103852671D01*
X99101085Y-103824100D01*
X99129657Y-103766957D01*
X99129657Y-103709814D01*
X99101085Y-103652671D01*
X99072514Y-103624100D01*
X99015371Y-103595528D01*
X98872514Y-103595528D01*
X98786800Y-103624100D01*
X98529657Y-104195528D02*
X98529657Y-103595528D01*
X98386800Y-103595528D01*
X98301085Y-103624100D01*
X98243942Y-103681242D01*
X98215371Y-103738385D01*
X98186800Y-103852671D01*
X98186800Y-103938385D01*
X98215371Y-104052671D01*
X98243942Y-104109814D01*
X98301085Y-104166957D01*
X98386800Y-104195528D01*
X98529657Y-104195528D01*
X98072514Y-104252671D02*
X97615371Y-104252671D01*
X97129657Y-104138385D02*
X97158228Y-104166957D01*
X97243942Y-104195528D01*
X97301085Y-104195528D01*
X97386800Y-104166957D01*
X97443942Y-104109814D01*
X97472514Y-104052671D01*
X97501085Y-103938385D01*
X97501085Y-103852671D01*
X97472514Y-103738385D01*
X97443942Y-103681242D01*
X97386800Y-103624100D01*
X97301085Y-103595528D01*
X97243942Y-103595528D01*
X97158228Y-103624100D01*
X97129657Y-103652671D01*
X96586800Y-104195528D02*
X96872514Y-104195528D01*
X96872514Y-103595528D01*
X96386800Y-104195528D02*
X96386800Y-103595528D01*
X96043942Y-104195528D02*
X96301085Y-103852671D01*
X96043942Y-103595528D02*
X96386800Y-103938385D01*
X98710571Y-100966628D02*
X98710571Y-101452342D01*
X98682000Y-101509485D01*
X98653428Y-101538057D01*
X98596285Y-101566628D01*
X98482000Y-101566628D01*
X98424857Y-101538057D01*
X98396285Y-101509485D01*
X98367714Y-101452342D01*
X98367714Y-100966628D01*
X98110571Y-101538057D02*
X98024857Y-101566628D01*
X97882000Y-101566628D01*
X97824857Y-101538057D01*
X97796285Y-101509485D01*
X97767714Y-101452342D01*
X97767714Y-101395200D01*
X97796285Y-101338057D01*
X97824857Y-101309485D01*
X97882000Y-101280914D01*
X97996285Y-101252342D01*
X98053428Y-101223771D01*
X98082000Y-101195200D01*
X98110571Y-101138057D01*
X98110571Y-101080914D01*
X98082000Y-101023771D01*
X98053428Y-100995200D01*
X97996285Y-100966628D01*
X97853428Y-100966628D01*
X97767714Y-100995200D01*
X97310571Y-101252342D02*
X97224857Y-101280914D01*
X97196285Y-101309485D01*
X97167714Y-101366628D01*
X97167714Y-101452342D01*
X97196285Y-101509485D01*
X97224857Y-101538057D01*
X97282000Y-101566628D01*
X97510571Y-101566628D01*
X97510571Y-100966628D01*
X97310571Y-100966628D01*
X97253428Y-100995200D01*
X97224857Y-101023771D01*
X97196285Y-101080914D01*
X97196285Y-101138057D01*
X97224857Y-101195200D01*
X97253428Y-101223771D01*
X97310571Y-101252342D01*
X97510571Y-101252342D01*
X96910571Y-101566628D02*
X96910571Y-100966628D01*
X96767714Y-100966628D01*
X96682000Y-100995200D01*
X96624857Y-101052342D01*
X96596285Y-101109485D01*
X96567714Y-101223771D01*
X96567714Y-101309485D01*
X96596285Y-101423771D01*
X96624857Y-101480914D01*
X96682000Y-101538057D01*
X96767714Y-101566628D01*
X96910571Y-101566628D01*
X96310571Y-101338057D02*
X95853428Y-101338057D01*
X96082000Y-101566628D02*
X96082000Y-101109485D01*
X98659771Y-98528228D02*
X98659771Y-99013942D01*
X98631200Y-99071085D01*
X98602628Y-99099657D01*
X98545485Y-99128228D01*
X98431200Y-99128228D01*
X98374057Y-99099657D01*
X98345485Y-99071085D01*
X98316914Y-99013942D01*
X98316914Y-98528228D01*
X98059771Y-99099657D02*
X97974057Y-99128228D01*
X97831200Y-99128228D01*
X97774057Y-99099657D01*
X97745485Y-99071085D01*
X97716914Y-99013942D01*
X97716914Y-98956800D01*
X97745485Y-98899657D01*
X97774057Y-98871085D01*
X97831200Y-98842514D01*
X97945485Y-98813942D01*
X98002628Y-98785371D01*
X98031200Y-98756800D01*
X98059771Y-98699657D01*
X98059771Y-98642514D01*
X98031200Y-98585371D01*
X98002628Y-98556800D01*
X97945485Y-98528228D01*
X97802628Y-98528228D01*
X97716914Y-98556800D01*
X97259771Y-98813942D02*
X97174057Y-98842514D01*
X97145485Y-98871085D01*
X97116914Y-98928228D01*
X97116914Y-99013942D01*
X97145485Y-99071085D01*
X97174057Y-99099657D01*
X97231200Y-99128228D01*
X97459771Y-99128228D01*
X97459771Y-98528228D01*
X97259771Y-98528228D01*
X97202628Y-98556800D01*
X97174057Y-98585371D01*
X97145485Y-98642514D01*
X97145485Y-98699657D01*
X97174057Y-98756800D01*
X97202628Y-98785371D01*
X97259771Y-98813942D01*
X97459771Y-98813942D01*
X96859771Y-99128228D02*
X96859771Y-98528228D01*
X96716914Y-98528228D01*
X96631200Y-98556800D01*
X96574057Y-98613942D01*
X96545485Y-98671085D01*
X96516914Y-98785371D01*
X96516914Y-98871085D01*
X96545485Y-98985371D01*
X96574057Y-99042514D01*
X96631200Y-99099657D01*
X96716914Y-99128228D01*
X96859771Y-99128228D01*
X96259771Y-98899657D02*
X95802628Y-98899657D01*
X97783542Y-96689828D02*
X97783542Y-96089828D01*
X97154971Y-96689828D02*
X97354971Y-96404114D01*
X97497828Y-96689828D02*
X97497828Y-96089828D01*
X97269257Y-96089828D01*
X97212114Y-96118400D01*
X97183542Y-96146971D01*
X97154971Y-96204114D01*
X97154971Y-96289828D01*
X97183542Y-96346971D01*
X97212114Y-96375542D01*
X97269257Y-96404114D01*
X97497828Y-96404114D01*
X96897828Y-96689828D02*
X96897828Y-96089828D01*
X96754971Y-96089828D01*
X96669257Y-96118400D01*
X96612114Y-96175542D01*
X96583542Y-96232685D01*
X96554971Y-96346971D01*
X96554971Y-96432685D01*
X96583542Y-96546971D01*
X96612114Y-96604114D01*
X96669257Y-96661257D01*
X96754971Y-96689828D01*
X96897828Y-96689828D01*
X96326400Y-96518400D02*
X96040685Y-96518400D01*
X96383542Y-96689828D02*
X96183542Y-96089828D01*
X95983542Y-96689828D01*
X96393057Y-94102200D02*
X96335914Y-94130771D01*
X96250200Y-94130771D01*
X96164485Y-94102200D01*
X96107342Y-94045057D01*
X96078771Y-93987914D01*
X96050200Y-93873628D01*
X96050200Y-93787914D01*
X96078771Y-93673628D01*
X96107342Y-93616485D01*
X96164485Y-93559342D01*
X96250200Y-93530771D01*
X96307342Y-93530771D01*
X96393057Y-93559342D01*
X96421628Y-93587914D01*
X96421628Y-93787914D01*
X96307342Y-93787914D01*
X96678771Y-93530771D02*
X96678771Y-94130771D01*
X97021628Y-93530771D01*
X97021628Y-94130771D01*
X97307342Y-93530771D02*
X97307342Y-94130771D01*
X97450200Y-94130771D01*
X97535914Y-94102200D01*
X97593057Y-94045057D01*
X97621628Y-93987914D01*
X97650200Y-93873628D01*
X97650200Y-93787914D01*
X97621628Y-93673628D01*
X97593057Y-93616485D01*
X97535914Y-93559342D01*
X97450200Y-93530771D01*
X97307342Y-93530771D01*
X99586828Y-91514600D02*
X99301114Y-91514600D01*
X99643971Y-91686028D02*
X99443971Y-91086028D01*
X99243971Y-91686028D01*
X99043971Y-91086028D02*
X99043971Y-91571742D01*
X99015400Y-91628885D01*
X98986828Y-91657457D01*
X98929685Y-91686028D01*
X98815400Y-91686028D01*
X98758257Y-91657457D01*
X98729685Y-91628885D01*
X98701114Y-91571742D01*
X98701114Y-91086028D01*
X98472542Y-91086028D02*
X98072542Y-91686028D01*
X98072542Y-91086028D02*
X98472542Y-91686028D01*
X97986828Y-91743171D02*
X97529685Y-91743171D01*
X97386828Y-91686028D02*
X97386828Y-91086028D01*
X97243971Y-91086028D01*
X97158257Y-91114600D01*
X97101114Y-91171742D01*
X97072542Y-91228885D01*
X97043971Y-91343171D01*
X97043971Y-91428885D01*
X97072542Y-91543171D01*
X97101114Y-91600314D01*
X97158257Y-91657457D01*
X97243971Y-91686028D01*
X97386828Y-91686028D01*
X96786828Y-91371742D02*
X96586828Y-91371742D01*
X96501114Y-91686028D02*
X96786828Y-91686028D01*
X96786828Y-91086028D01*
X96501114Y-91086028D01*
X96329685Y-91086028D02*
X95986828Y-91086028D01*
X96158257Y-91686028D02*
X96158257Y-91086028D01*
X98121657Y-88796800D02*
X97835942Y-88796800D01*
X98178800Y-88968228D02*
X97978800Y-88368228D01*
X97778800Y-88968228D01*
X97578800Y-88368228D02*
X97578800Y-88853942D01*
X97550228Y-88911085D01*
X97521657Y-88939657D01*
X97464514Y-88968228D01*
X97350228Y-88968228D01*
X97293085Y-88939657D01*
X97264514Y-88911085D01*
X97235942Y-88853942D01*
X97235942Y-88368228D01*
X97007371Y-88368228D02*
X96607371Y-88968228D01*
X96607371Y-88368228D02*
X97007371Y-88968228D01*
X96035942Y-88968228D02*
X96235942Y-88682514D01*
X96378800Y-88968228D02*
X96378800Y-88368228D01*
X96150228Y-88368228D01*
X96093085Y-88396800D01*
X96064514Y-88425371D01*
X96035942Y-88482514D01*
X96035942Y-88568228D01*
X96064514Y-88625371D01*
X96093085Y-88653942D01*
X96150228Y-88682514D01*
X96378800Y-88682514D01*
X97962914Y-86358400D02*
X97677200Y-86358400D01*
X98020057Y-86529828D02*
X97820057Y-85929828D01*
X97620057Y-86529828D01*
X97420057Y-85929828D02*
X97420057Y-86415542D01*
X97391485Y-86472685D01*
X97362914Y-86501257D01*
X97305771Y-86529828D01*
X97191485Y-86529828D01*
X97134342Y-86501257D01*
X97105771Y-86472685D01*
X97077200Y-86415542D01*
X97077200Y-85929828D01*
X96848628Y-85929828D02*
X96448628Y-86529828D01*
X96448628Y-85929828D02*
X96848628Y-86529828D01*
X95934342Y-86529828D02*
X96220057Y-86529828D01*
X96220057Y-85929828D01*
X96724728Y-83939028D02*
X96724728Y-83339028D01*
X96381871Y-83939028D01*
X96381871Y-83339028D01*
X95753300Y-83881885D02*
X95781871Y-83910457D01*
X95867585Y-83939028D01*
X95924728Y-83939028D01*
X96010442Y-83910457D01*
X96067585Y-83853314D01*
X96096157Y-83796171D01*
X96124728Y-83681885D01*
X96124728Y-83596171D01*
X96096157Y-83481885D01*
X96067585Y-83424742D01*
X96010442Y-83367600D01*
X95924728Y-83339028D01*
X95867585Y-83339028D01*
X95781871Y-83367600D01*
X95753300Y-83396171D01*
X98215314Y-81551428D02*
X98215314Y-80951428D01*
X98015314Y-81380000D01*
X97815314Y-80951428D01*
X97815314Y-81551428D01*
X97529600Y-81551428D02*
X97529600Y-80951428D01*
X96901028Y-81494285D02*
X96929600Y-81522857D01*
X97015314Y-81551428D01*
X97072457Y-81551428D01*
X97158171Y-81522857D01*
X97215314Y-81465714D01*
X97243885Y-81408571D01*
X97272457Y-81294285D01*
X97272457Y-81208571D01*
X97243885Y-81094285D01*
X97215314Y-81037142D01*
X97158171Y-80980000D01*
X97072457Y-80951428D01*
X97015314Y-80951428D01*
X96929600Y-80980000D01*
X96901028Y-81008571D01*
X96643885Y-81551428D02*
X96643885Y-80951428D01*
X96358171Y-81551428D02*
X96358171Y-80951428D01*
X96129600Y-80951428D01*
X96072457Y-80980000D01*
X96043885Y-81008571D01*
X96015314Y-81065714D01*
X96015314Y-81151428D01*
X96043885Y-81208571D01*
X96072457Y-81237142D01*
X96129600Y-81265714D01*
X96358171Y-81265714D01*
X99342371Y-78909828D02*
X99342371Y-78309828D01*
X99142371Y-78738400D01*
X98942371Y-78309828D01*
X98942371Y-78909828D01*
X98656657Y-78909828D02*
X98656657Y-78309828D01*
X98028085Y-78852685D02*
X98056657Y-78881257D01*
X98142371Y-78909828D01*
X98199514Y-78909828D01*
X98285228Y-78881257D01*
X98342371Y-78824114D01*
X98370942Y-78766971D01*
X98399514Y-78652685D01*
X98399514Y-78566971D01*
X98370942Y-78452685D01*
X98342371Y-78395542D01*
X98285228Y-78338400D01*
X98199514Y-78309828D01*
X98142371Y-78309828D01*
X98056657Y-78338400D01*
X98028085Y-78366971D01*
X97570942Y-78595542D02*
X97485228Y-78624114D01*
X97456657Y-78652685D01*
X97428085Y-78709828D01*
X97428085Y-78795542D01*
X97456657Y-78852685D01*
X97485228Y-78881257D01*
X97542371Y-78909828D01*
X97770942Y-78909828D01*
X97770942Y-78309828D01*
X97570942Y-78309828D01*
X97513800Y-78338400D01*
X97485228Y-78366971D01*
X97456657Y-78424114D01*
X97456657Y-78481257D01*
X97485228Y-78538400D01*
X97513800Y-78566971D01*
X97570942Y-78595542D01*
X97770942Y-78595542D01*
X97170942Y-78909828D02*
X97170942Y-78309828D01*
X96913800Y-78738400D02*
X96628085Y-78738400D01*
X96970942Y-78909828D02*
X96770942Y-78309828D01*
X96570942Y-78909828D01*
X96399514Y-78881257D02*
X96313800Y-78909828D01*
X96170942Y-78909828D01*
X96113800Y-78881257D01*
X96085228Y-78852685D01*
X96056657Y-78795542D01*
X96056657Y-78738400D01*
X96085228Y-78681257D01*
X96113800Y-78652685D01*
X96170942Y-78624114D01*
X96285228Y-78595542D01*
X96342371Y-78566971D01*
X96370942Y-78538400D01*
X96399514Y-78481257D01*
X96399514Y-78424114D01*
X96370942Y-78366971D01*
X96342371Y-78338400D01*
X96285228Y-78309828D01*
X96142371Y-78309828D01*
X96056657Y-78338400D01*
X99637628Y-76249200D02*
X99351914Y-76249200D01*
X99694771Y-76420628D02*
X99494771Y-75820628D01*
X99294771Y-76420628D01*
X99094771Y-75820628D02*
X99094771Y-76306342D01*
X99066200Y-76363485D01*
X99037628Y-76392057D01*
X98980485Y-76420628D01*
X98866200Y-76420628D01*
X98809057Y-76392057D01*
X98780485Y-76363485D01*
X98751914Y-76306342D01*
X98751914Y-75820628D01*
X98466200Y-76420628D02*
X98466200Y-75820628D01*
X98323342Y-75820628D01*
X98237628Y-75849200D01*
X98180485Y-75906342D01*
X98151914Y-75963485D01*
X98123342Y-76077771D01*
X98123342Y-76163485D01*
X98151914Y-76277771D01*
X98180485Y-76334914D01*
X98237628Y-76392057D01*
X98323342Y-76420628D01*
X98466200Y-76420628D01*
X97866200Y-76420628D02*
X97866200Y-75820628D01*
X97466200Y-75820628D02*
X97351914Y-75820628D01*
X97294771Y-75849200D01*
X97237628Y-75906342D01*
X97209057Y-76020628D01*
X97209057Y-76220628D01*
X97237628Y-76334914D01*
X97294771Y-76392057D01*
X97351914Y-76420628D01*
X97466200Y-76420628D01*
X97523342Y-76392057D01*
X97580485Y-76334914D01*
X97609057Y-76220628D01*
X97609057Y-76020628D01*
X97580485Y-75906342D01*
X97523342Y-75849200D01*
X97466200Y-75820628D01*
X96666200Y-76420628D02*
X96951914Y-76420628D01*
X96951914Y-75820628D01*
X96466200Y-76420628D02*
X96466200Y-75820628D01*
X96123342Y-76420628D01*
X96123342Y-75820628D01*
X99750342Y-73760000D02*
X99464628Y-73760000D01*
X99807485Y-73931428D02*
X99607485Y-73331428D01*
X99407485Y-73931428D01*
X99207485Y-73331428D02*
X99207485Y-73817142D01*
X99178914Y-73874285D01*
X99150342Y-73902857D01*
X99093200Y-73931428D01*
X98978914Y-73931428D01*
X98921771Y-73902857D01*
X98893200Y-73874285D01*
X98864628Y-73817142D01*
X98864628Y-73331428D01*
X98578914Y-73931428D02*
X98578914Y-73331428D01*
X98436057Y-73331428D01*
X98350342Y-73360000D01*
X98293200Y-73417142D01*
X98264628Y-73474285D01*
X98236057Y-73588571D01*
X98236057Y-73674285D01*
X98264628Y-73788571D01*
X98293200Y-73845714D01*
X98350342Y-73902857D01*
X98436057Y-73931428D01*
X98578914Y-73931428D01*
X97978914Y-73931428D02*
X97978914Y-73331428D01*
X97578914Y-73331428D02*
X97464628Y-73331428D01*
X97407485Y-73360000D01*
X97350342Y-73417142D01*
X97321771Y-73531428D01*
X97321771Y-73731428D01*
X97350342Y-73845714D01*
X97407485Y-73902857D01*
X97464628Y-73931428D01*
X97578914Y-73931428D01*
X97636057Y-73902857D01*
X97693200Y-73845714D01*
X97721771Y-73731428D01*
X97721771Y-73531428D01*
X97693200Y-73417142D01*
X97636057Y-73360000D01*
X97578914Y-73331428D01*
X96778914Y-73931428D02*
X97064628Y-73931428D01*
X97064628Y-73331428D01*
X96578914Y-73931428D02*
X96578914Y-73331428D01*
X96350342Y-73331428D01*
X96293200Y-73360000D01*
X96264628Y-73388571D01*
X96236057Y-73445714D01*
X96236057Y-73531428D01*
X96264628Y-73588571D01*
X96293200Y-73617142D01*
X96350342Y-73645714D01*
X96578914Y-73645714D01*
X96620000Y-69254914D02*
X96620000Y-69540628D01*
X96791428Y-69197771D02*
X96191428Y-69397771D01*
X96791428Y-69597771D01*
X96191428Y-69797771D02*
X96677142Y-69797771D01*
X96734285Y-69826342D01*
X96762857Y-69854914D01*
X96791428Y-69912057D01*
X96791428Y-70026342D01*
X96762857Y-70083485D01*
X96734285Y-70112057D01*
X96677142Y-70140628D01*
X96191428Y-70140628D01*
X96791428Y-70426342D02*
X96191428Y-70426342D01*
X96191428Y-70569200D01*
X96220000Y-70654914D01*
X96277142Y-70712057D01*
X96334285Y-70740628D01*
X96448571Y-70769200D01*
X96534285Y-70769200D01*
X96648571Y-70740628D01*
X96705714Y-70712057D01*
X96762857Y-70654914D01*
X96791428Y-70569200D01*
X96791428Y-70426342D01*
X96791428Y-71026342D02*
X96191428Y-71026342D01*
X96191428Y-71426342D02*
X96191428Y-71540628D01*
X96220000Y-71597771D01*
X96277142Y-71654914D01*
X96391428Y-71683485D01*
X96591428Y-71683485D01*
X96705714Y-71654914D01*
X96762857Y-71597771D01*
X96791428Y-71540628D01*
X96791428Y-71426342D01*
X96762857Y-71369200D01*
X96705714Y-71312057D01*
X96591428Y-71283485D01*
X96391428Y-71283485D01*
X96277142Y-71312057D01*
X96220000Y-71369200D01*
X96191428Y-71426342D01*
X96791428Y-72283485D02*
X96505714Y-72083485D01*
X96791428Y-71940628D02*
X96191428Y-71940628D01*
X96191428Y-72169200D01*
X96220000Y-72226342D01*
X96248571Y-72254914D01*
X96305714Y-72283485D01*
X96391428Y-72283485D01*
X96448571Y-72254914D01*
X96477142Y-72226342D01*
X96505714Y-72169200D01*
X96505714Y-71940628D01*
X96791428Y-72540628D02*
X96191428Y-72540628D01*
X96191428Y-72769200D01*
X96220000Y-72826342D01*
X96248571Y-72854914D01*
X96305714Y-72883485D01*
X96391428Y-72883485D01*
X96448571Y-72854914D01*
X96477142Y-72826342D01*
X96505714Y-72769200D01*
X96505714Y-72540628D01*
X97331200Y-66548228D02*
X97331200Y-66833942D01*
X97502628Y-66491085D02*
X96902628Y-66691085D01*
X97502628Y-66891085D01*
X96902628Y-67091085D02*
X97388342Y-67091085D01*
X97445485Y-67119657D01*
X97474057Y-67148228D01*
X97502628Y-67205371D01*
X97502628Y-67319657D01*
X97474057Y-67376800D01*
X97445485Y-67405371D01*
X97388342Y-67433942D01*
X96902628Y-67433942D01*
X97502628Y-67719657D02*
X96902628Y-67719657D01*
X96902628Y-67862514D01*
X96931200Y-67948228D01*
X96988342Y-68005371D01*
X97045485Y-68033942D01*
X97159771Y-68062514D01*
X97245485Y-68062514D01*
X97359771Y-68033942D01*
X97416914Y-68005371D01*
X97474057Y-67948228D01*
X97502628Y-67862514D01*
X97502628Y-67719657D01*
X97502628Y-68319657D02*
X96902628Y-68319657D01*
X96902628Y-68719657D02*
X96902628Y-68833942D01*
X96931200Y-68891085D01*
X96988342Y-68948228D01*
X97102628Y-68976800D01*
X97302628Y-68976800D01*
X97416914Y-68948228D01*
X97474057Y-68891085D01*
X97502628Y-68833942D01*
X97502628Y-68719657D01*
X97474057Y-68662514D01*
X97416914Y-68605371D01*
X97302628Y-68576800D01*
X97102628Y-68576800D01*
X96988342Y-68605371D01*
X96931200Y-68662514D01*
X96902628Y-68719657D01*
X97502628Y-69576800D02*
X97216914Y-69376800D01*
X97502628Y-69233942D02*
X96902628Y-69233942D01*
X96902628Y-69462514D01*
X96931200Y-69519657D01*
X96959771Y-69548228D01*
X97016914Y-69576800D01*
X97102628Y-69576800D01*
X97159771Y-69548228D01*
X97188342Y-69519657D01*
X97216914Y-69462514D01*
X97216914Y-69233942D01*
X97502628Y-69833942D02*
X96902628Y-69833942D01*
X97502628Y-70176800D01*
X96902628Y-70176800D01*
X96191428Y-64630457D02*
X96791428Y-64830457D01*
X96191428Y-65030457D01*
X96734285Y-65573314D02*
X96762857Y-65544742D01*
X96791428Y-65459028D01*
X96791428Y-65401885D01*
X96762857Y-65316171D01*
X96705714Y-65259028D01*
X96648571Y-65230457D01*
X96534285Y-65201885D01*
X96448571Y-65201885D01*
X96334285Y-65230457D01*
X96277142Y-65259028D01*
X96220000Y-65316171D01*
X96191428Y-65401885D01*
X96191428Y-65459028D01*
X96220000Y-65544742D01*
X96248571Y-65573314D01*
X96734285Y-66173314D02*
X96762857Y-66144742D01*
X96791428Y-66059028D01*
X96791428Y-66001885D01*
X96762857Y-65916171D01*
X96705714Y-65859028D01*
X96648571Y-65830457D01*
X96534285Y-65801885D01*
X96448571Y-65801885D01*
X96334285Y-65830457D01*
X96277142Y-65859028D01*
X96220000Y-65916171D01*
X96191428Y-66001885D01*
X96191428Y-66059028D01*
X96220000Y-66144742D01*
X96248571Y-66173314D01*
X96791428Y-66430457D02*
X96191428Y-66430457D01*
X96191428Y-66830457D02*
X96191428Y-66944742D01*
X96220000Y-67001885D01*
X96277142Y-67059028D01*
X96391428Y-67087600D01*
X96591428Y-67087600D01*
X96705714Y-67059028D01*
X96762857Y-67001885D01*
X96791428Y-66944742D01*
X96791428Y-66830457D01*
X96762857Y-66773314D01*
X96705714Y-66716171D01*
X96591428Y-66687600D01*
X96391428Y-66687600D01*
X96277142Y-66716171D01*
X96220000Y-66773314D01*
X96191428Y-66830457D01*
X96801028Y-62488885D02*
X97401028Y-62688885D01*
X96801028Y-62888885D01*
X97086742Y-63288885D02*
X97115314Y-63374600D01*
X97143885Y-63403171D01*
X97201028Y-63431742D01*
X97286742Y-63431742D01*
X97343885Y-63403171D01*
X97372457Y-63374600D01*
X97401028Y-63317457D01*
X97401028Y-63088885D01*
X96801028Y-63088885D01*
X96801028Y-63288885D01*
X96829600Y-63346028D01*
X96858171Y-63374600D01*
X96915314Y-63403171D01*
X96972457Y-63403171D01*
X97029600Y-63374600D01*
X97058171Y-63346028D01*
X97086742Y-63288885D01*
X97086742Y-63088885D01*
X97229600Y-63660314D02*
X97229600Y-63946028D01*
X97401028Y-63603171D02*
X96801028Y-63803171D01*
X97401028Y-64003171D01*
X96801028Y-64117457D02*
X96801028Y-64460314D01*
X97401028Y-64288885D02*
X96801028Y-64288885D01*
X96242228Y-59515542D02*
X96842228Y-59715542D01*
X96242228Y-59915542D01*
X96242228Y-60058400D02*
X96242228Y-60429828D01*
X96470800Y-60229828D01*
X96470800Y-60315542D01*
X96499371Y-60372685D01*
X96527942Y-60401257D01*
X96585085Y-60429828D01*
X96727942Y-60429828D01*
X96785085Y-60401257D01*
X96813657Y-60372685D01*
X96842228Y-60315542D01*
X96842228Y-60144114D01*
X96813657Y-60086971D01*
X96785085Y-60058400D01*
X96242228Y-60801257D02*
X96242228Y-60915542D01*
X96270800Y-60972685D01*
X96327942Y-61029828D01*
X96442228Y-61058400D01*
X96642228Y-61058400D01*
X96756514Y-61029828D01*
X96813657Y-60972685D01*
X96842228Y-60915542D01*
X96842228Y-60801257D01*
X96813657Y-60744114D01*
X96756514Y-60686971D01*
X96642228Y-60658400D01*
X96442228Y-60658400D01*
X96327942Y-60686971D01*
X96270800Y-60744114D01*
X96242228Y-60801257D01*
X96242228Y-61315542D02*
X96727942Y-61315542D01*
X96785085Y-61344114D01*
X96813657Y-61372685D01*
X96842228Y-61429828D01*
X96842228Y-61544114D01*
X96813657Y-61601257D01*
X96785085Y-61629828D01*
X96727942Y-61658400D01*
X96242228Y-61658400D01*
X96242228Y-61858400D02*
X96242228Y-62201257D01*
X96842228Y-62029828D02*
X96242228Y-62029828D01*
X97229600Y-57524742D02*
X97229600Y-57810457D01*
X97401028Y-57467600D02*
X96801028Y-57667600D01*
X97401028Y-57867600D01*
X97401028Y-58067600D02*
X96801028Y-58067600D01*
X96801028Y-58210457D01*
X96829600Y-58296171D01*
X96886742Y-58353314D01*
X96943885Y-58381885D01*
X97058171Y-58410457D01*
X97143885Y-58410457D01*
X97258171Y-58381885D01*
X97315314Y-58353314D01*
X97372457Y-58296171D01*
X97401028Y-58210457D01*
X97401028Y-58067600D01*
X97343885Y-59010457D02*
X97372457Y-58981885D01*
X97401028Y-58896171D01*
X97401028Y-58839028D01*
X97372457Y-58753314D01*
X97315314Y-58696171D01*
X97258171Y-58667600D01*
X97143885Y-58639028D01*
X97058171Y-58639028D01*
X96943885Y-58667600D01*
X96886742Y-58696171D01*
X96829600Y-58753314D01*
X96801028Y-58839028D01*
X96801028Y-58896171D01*
X96829600Y-58981885D01*
X96858171Y-59010457D01*
X96270800Y-55321257D02*
X96242228Y-55264114D01*
X96242228Y-55178400D01*
X96270800Y-55092685D01*
X96327942Y-55035542D01*
X96385085Y-55006971D01*
X96499371Y-54978400D01*
X96585085Y-54978400D01*
X96699371Y-55006971D01*
X96756514Y-55035542D01*
X96813657Y-55092685D01*
X96842228Y-55178400D01*
X96842228Y-55235542D01*
X96813657Y-55321257D01*
X96785085Y-55349828D01*
X96585085Y-55349828D01*
X96585085Y-55235542D01*
X96842228Y-55606971D02*
X96242228Y-55606971D01*
X96842228Y-55949828D01*
X96242228Y-55949828D01*
X96842228Y-56235542D02*
X96242228Y-56235542D01*
X96242228Y-56378400D01*
X96270800Y-56464114D01*
X96327942Y-56521257D01*
X96385085Y-56549828D01*
X96499371Y-56578400D01*
X96585085Y-56578400D01*
X96699371Y-56549828D01*
X96756514Y-56521257D01*
X96813657Y-56464114D01*
X96842228Y-56378400D01*
X96842228Y-56235542D01*
D11*
%TO.C,R9*%
X158149400Y-80654600D02*
X158149400Y-81854600D01*
X159909400Y-81854600D02*
X159909400Y-80654600D01*
D12*
%TO.C,U1*%
X152666800Y-72745600D02*
X152666800Y-71745600D01*
X155166800Y-72745600D02*
X152666800Y-72745600D01*
X166166800Y-72745600D02*
X163866800Y-72745600D01*
X166166800Y-72745600D02*
X166166800Y-71745600D01*
D11*
%TO.C,C7*%
X156823600Y-112150400D02*
X156823600Y-114150400D01*
X154783600Y-114150400D02*
X154783600Y-112150400D01*
D12*
%TO.C,D3*%
X157640020Y-120243600D02*
X156938980Y-120243600D01*
X158589980Y-120243600D02*
X159138620Y-120243600D01*
X158589980Y-120243600D02*
X158589980Y-121043700D01*
X158589980Y-120243600D02*
X158589980Y-119443500D01*
X158589980Y-120243600D02*
X157640020Y-119443500D01*
X157640020Y-119443500D02*
X157640020Y-121043700D01*
X157640020Y-121043700D02*
X158589980Y-120243600D01*
X159138620Y-118993920D02*
X159237680Y-118993920D01*
X159138620Y-121493280D02*
X159237680Y-121493280D01*
X156839920Y-118993920D02*
X159189420Y-118993920D01*
X156839920Y-121493280D02*
X159087820Y-121493280D01*
D11*
%TO.C,R10*%
X147506800Y-116621000D02*
X147506800Y-117821000D01*
X149266800Y-117821000D02*
X149266800Y-116621000D01*
%TO.C,J2*%
X172322800Y-105317600D02*
X169662800Y-105317600D01*
X172322800Y-56997600D02*
X172322800Y-105317600D01*
X169662800Y-56997600D02*
X169662800Y-105317600D01*
X172322800Y-56997600D02*
X169662800Y-56997600D01*
X172322800Y-55727600D02*
X172322800Y-54397600D01*
X172322800Y-54397600D02*
X170992800Y-54397600D01*
%TO.C,C3*%
X168501000Y-116470800D02*
X167501000Y-116470800D01*
X167501000Y-114770800D02*
X168501000Y-114770800D01*
%TO.C,R6*%
X158728300Y-90554100D02*
X158728300Y-89354100D01*
X156968300Y-89354100D02*
X156968300Y-90554100D01*
%TO.C,R2*%
X163744800Y-103647800D02*
X163744800Y-102447800D01*
X161984800Y-102447800D02*
X161984800Y-103647800D01*
%TO.C,R5*%
X161776300Y-90554100D02*
X161776300Y-89354100D01*
X160016300Y-89354100D02*
X160016300Y-90554100D01*
%TO.C,J4*%
X146802800Y-54397600D02*
X149462800Y-54397600D01*
X146802800Y-105257600D02*
X146802800Y-54397600D01*
X149462800Y-105257600D02*
X149462800Y-54397600D01*
X146802800Y-105257600D02*
X149462800Y-105257600D01*
X146802800Y-106527600D02*
X146802800Y-107857600D01*
X146802800Y-107857600D02*
X148132800Y-107857600D01*
%TO.C,R3*%
X168675600Y-112581800D02*
X167475600Y-112581800D01*
X167475600Y-114341800D02*
X168675600Y-114341800D01*
%TO.C,R4*%
X154296000Y-111162400D02*
X154296000Y-109962400D01*
X152536000Y-109962400D02*
X152536000Y-111162400D01*
%TO.C,R11*%
X150326200Y-109178800D02*
X150326200Y-110378800D01*
X152086200Y-110378800D02*
X152086200Y-109178800D01*
%TO.C,C2*%
X161324800Y-113135600D02*
X159324800Y-113135600D01*
X159324800Y-111095600D02*
X161324800Y-111095600D01*
%TO.C,R8*%
X167344800Y-118837600D02*
X168544800Y-118837600D01*
X168544800Y-117077600D02*
X167344800Y-117077600D01*
%TO.C,R7*%
X159506200Y-76031200D02*
X158306200Y-76031200D01*
X158306200Y-77791200D02*
X159506200Y-77791200D01*
%TO.C,C1*%
X168837800Y-107051600D02*
X168837800Y-109051600D01*
X166797800Y-109051600D02*
X166797800Y-107051600D01*
%TO.C,C6*%
X161324800Y-115675600D02*
X159324800Y-115675600D01*
X159324800Y-113635600D02*
X161324800Y-113635600D01*
%TO.C,R9*%
X131225400Y-80654600D02*
X131225400Y-81854600D01*
X132985400Y-81854600D02*
X132985400Y-80654600D01*
D12*
%TO.C,U1*%
X125742800Y-72745600D02*
X125742800Y-71745600D01*
X128242800Y-72745600D02*
X125742800Y-72745600D01*
X139242800Y-72745600D02*
X136942800Y-72745600D01*
X139242800Y-72745600D02*
X139242800Y-71745600D01*
D11*
%TO.C,C7*%
X129899600Y-112150400D02*
X129899600Y-114150400D01*
X127859600Y-114150400D02*
X127859600Y-112150400D01*
D12*
%TO.C,D3*%
X130716020Y-120243600D02*
X130014980Y-120243600D01*
X131665980Y-120243600D02*
X132214620Y-120243600D01*
X131665980Y-120243600D02*
X131665980Y-121043700D01*
X131665980Y-120243600D02*
X131665980Y-119443500D01*
X131665980Y-120243600D02*
X130716020Y-119443500D01*
X130716020Y-119443500D02*
X130716020Y-121043700D01*
X130716020Y-121043700D02*
X131665980Y-120243600D01*
X132214620Y-118993920D02*
X132313680Y-118993920D01*
X132214620Y-121493280D02*
X132313680Y-121493280D01*
X129915920Y-118993920D02*
X132265420Y-118993920D01*
X129915920Y-121493280D02*
X132163820Y-121493280D01*
D11*
%TO.C,R10*%
X120582800Y-116621000D02*
X120582800Y-117821000D01*
X122342800Y-117821000D02*
X122342800Y-116621000D01*
%TO.C,J2*%
X145398800Y-105317600D02*
X142738800Y-105317600D01*
X145398800Y-56997600D02*
X145398800Y-105317600D01*
X142738800Y-56997600D02*
X142738800Y-105317600D01*
X145398800Y-56997600D02*
X142738800Y-56997600D01*
X145398800Y-55727600D02*
X145398800Y-54397600D01*
X145398800Y-54397600D02*
X144068800Y-54397600D01*
%TO.C,C3*%
X141577000Y-116470800D02*
X140577000Y-116470800D01*
X140577000Y-114770800D02*
X141577000Y-114770800D01*
%TO.C,R6*%
X131804300Y-90554100D02*
X131804300Y-89354100D01*
X130044300Y-89354100D02*
X130044300Y-90554100D01*
%TO.C,R2*%
X136820800Y-103647800D02*
X136820800Y-102447800D01*
X135060800Y-102447800D02*
X135060800Y-103647800D01*
%TO.C,R5*%
X134852300Y-90554100D02*
X134852300Y-89354100D01*
X133092300Y-89354100D02*
X133092300Y-90554100D01*
%TO.C,J4*%
X119878800Y-54397600D02*
X122538800Y-54397600D01*
X119878800Y-105257600D02*
X119878800Y-54397600D01*
X122538800Y-105257600D02*
X122538800Y-54397600D01*
X119878800Y-105257600D02*
X122538800Y-105257600D01*
X119878800Y-106527600D02*
X119878800Y-107857600D01*
X119878800Y-107857600D02*
X121208800Y-107857600D01*
%TO.C,R3*%
X141751600Y-112581800D02*
X140551600Y-112581800D01*
X140551600Y-114341800D02*
X141751600Y-114341800D01*
%TO.C,R4*%
X127372000Y-111162400D02*
X127372000Y-109962400D01*
X125612000Y-109962400D02*
X125612000Y-111162400D01*
%TO.C,R11*%
X123402200Y-109178800D02*
X123402200Y-110378800D01*
X125162200Y-110378800D02*
X125162200Y-109178800D01*
%TO.C,C2*%
X134400800Y-113135600D02*
X132400800Y-113135600D01*
X132400800Y-111095600D02*
X134400800Y-111095600D01*
%TO.C,R8*%
X140420800Y-118837600D02*
X141620800Y-118837600D01*
X141620800Y-117077600D02*
X140420800Y-117077600D01*
%TO.C,R7*%
X132582200Y-76031200D02*
X131382200Y-76031200D01*
X131382200Y-77791200D02*
X132582200Y-77791200D01*
%TO.C,C1*%
X141913800Y-107051600D02*
X141913800Y-109051600D01*
X139873800Y-109051600D02*
X139873800Y-107051600D01*
%TO.C,C6*%
X134400800Y-115675600D02*
X132400800Y-115675600D01*
X132400800Y-113635600D02*
X134400800Y-113635600D01*
%TO.C,C7*%
X100935600Y-114150400D02*
X100935600Y-112150400D01*
X102975600Y-112150400D02*
X102975600Y-114150400D01*
%TO.C,R10*%
X95418800Y-117821000D02*
X95418800Y-116621000D01*
X93658800Y-116621000D02*
X93658800Y-117821000D01*
%TO.C,R11*%
X98238200Y-110378800D02*
X98238200Y-109178800D01*
X96478200Y-109178800D02*
X96478200Y-110378800D01*
%TO.C,R9*%
X106061400Y-81854600D02*
X106061400Y-80654600D01*
X104301400Y-80654600D02*
X104301400Y-81854600D01*
%TO.C,R3*%
X113627600Y-114341800D02*
X114827600Y-114341800D01*
X114827600Y-112581800D02*
X113627600Y-112581800D01*
%TO.C,C1*%
X112949800Y-109051600D02*
X112949800Y-107051600D01*
X114989800Y-107051600D02*
X114989800Y-109051600D01*
%TO.C,C2*%
X105476800Y-111095600D02*
X107476800Y-111095600D01*
X107476800Y-113135600D02*
X105476800Y-113135600D01*
%TO.C,C3*%
X113653000Y-114770800D02*
X114653000Y-114770800D01*
X114653000Y-116470800D02*
X113653000Y-116470800D01*
%TO.C,J2*%
X118474800Y-54397600D02*
X117144800Y-54397600D01*
X118474800Y-55727600D02*
X118474800Y-54397600D01*
X118474800Y-56997600D02*
X115814800Y-56997600D01*
X115814800Y-56997600D02*
X115814800Y-105317600D01*
X118474800Y-56997600D02*
X118474800Y-105317600D01*
X118474800Y-105317600D02*
X115814800Y-105317600D01*
%TO.C,R2*%
X108136800Y-102447800D02*
X108136800Y-103647800D01*
X109896800Y-103647800D02*
X109896800Y-102447800D01*
%TO.C,R4*%
X98688000Y-109962400D02*
X98688000Y-111162400D01*
X100448000Y-111162400D02*
X100448000Y-109962400D01*
%TO.C,R5*%
X106168300Y-89354100D02*
X106168300Y-90554100D01*
X107928300Y-90554100D02*
X107928300Y-89354100D01*
%TO.C,R6*%
X103120300Y-89354100D02*
X103120300Y-90554100D01*
X104880300Y-90554100D02*
X104880300Y-89354100D01*
%TO.C,R7*%
X104458200Y-77791200D02*
X105658200Y-77791200D01*
X105658200Y-76031200D02*
X104458200Y-76031200D01*
D12*
%TO.C,D3*%
X102991920Y-121493280D02*
X105239820Y-121493280D01*
X102991920Y-118993920D02*
X105341420Y-118993920D01*
X105290620Y-121493280D02*
X105389680Y-121493280D01*
X105290620Y-118993920D02*
X105389680Y-118993920D01*
X103792020Y-121043700D02*
X104741980Y-120243600D01*
X103792020Y-119443500D02*
X103792020Y-121043700D01*
X104741980Y-120243600D02*
X103792020Y-119443500D01*
X104741980Y-120243600D02*
X104741980Y-119443500D01*
X104741980Y-120243600D02*
X104741980Y-121043700D01*
X104741980Y-120243600D02*
X105290620Y-120243600D01*
X103792020Y-120243600D02*
X103090980Y-120243600D01*
D11*
%TO.C,J4*%
X92954800Y-107857600D02*
X94284800Y-107857600D01*
X92954800Y-106527600D02*
X92954800Y-107857600D01*
X92954800Y-105257600D02*
X95614800Y-105257600D01*
X95614800Y-105257600D02*
X95614800Y-54397600D01*
X92954800Y-105257600D02*
X92954800Y-54397600D01*
X92954800Y-54397600D02*
X95614800Y-54397600D01*
%TO.C,C6*%
X105476800Y-113635600D02*
X107476800Y-113635600D01*
X107476800Y-115675600D02*
X105476800Y-115675600D01*
%TO.C,R8*%
X114696800Y-117077600D02*
X113496800Y-117077600D01*
X113496800Y-118837600D02*
X114696800Y-118837600D01*
D12*
%TO.C,U1*%
X112318800Y-72745600D02*
X112318800Y-71745600D01*
X112318800Y-72745600D02*
X110018800Y-72745600D01*
X101318800Y-72745600D02*
X98818800Y-72745600D01*
X98818800Y-72745600D02*
X98818800Y-71745600D01*
%TO.C,R9*%
X161181780Y-81087933D02*
X160705590Y-80754600D01*
X161181780Y-80516504D02*
X160181780Y-80516504D01*
X160181780Y-80897457D01*
X160229400Y-80992695D01*
X160277019Y-81040314D01*
X160372257Y-81087933D01*
X160515114Y-81087933D01*
X160610352Y-81040314D01*
X160657971Y-80992695D01*
X160705590Y-80897457D01*
X160705590Y-80516504D01*
X161181780Y-81564123D02*
X161181780Y-81754600D01*
X161134161Y-81849838D01*
X161086542Y-81897457D01*
X160943685Y-81992695D01*
X160753209Y-82040314D01*
X160372257Y-82040314D01*
X160277019Y-81992695D01*
X160229400Y-81945076D01*
X160181780Y-81849838D01*
X160181780Y-81659361D01*
X160229400Y-81564123D01*
X160277019Y-81516504D01*
X160372257Y-81468885D01*
X160610352Y-81468885D01*
X160705590Y-81516504D01*
X160753209Y-81564123D01*
X160800828Y-81659361D01*
X160800828Y-81849838D01*
X160753209Y-81945076D01*
X160705590Y-81992695D01*
X160610352Y-82040314D01*
%TO.C,C7*%
X154410742Y-112983733D02*
X154458361Y-112936114D01*
X154505980Y-112793257D01*
X154505980Y-112698019D01*
X154458361Y-112555161D01*
X154363123Y-112459923D01*
X154267885Y-112412304D01*
X154077409Y-112364685D01*
X153934552Y-112364685D01*
X153744076Y-112412304D01*
X153648838Y-112459923D01*
X153553600Y-112555161D01*
X153505980Y-112698019D01*
X153505980Y-112793257D01*
X153553600Y-112936114D01*
X153601219Y-112983733D01*
X153505980Y-113317066D02*
X153505980Y-113983733D01*
X154505980Y-113555161D01*
%TO.C,D3*%
X159983395Y-118409980D02*
X159983395Y-117409980D01*
X159745300Y-117409980D01*
X159602442Y-117457600D01*
X159507204Y-117552838D01*
X159459585Y-117648076D01*
X159411966Y-117838552D01*
X159411966Y-117981409D01*
X159459585Y-118171885D01*
X159507204Y-118267123D01*
X159602442Y-118362361D01*
X159745300Y-118409980D01*
X159983395Y-118409980D01*
X159078633Y-117409980D02*
X158459585Y-117409980D01*
X158792919Y-117790933D01*
X158650061Y-117790933D01*
X158554823Y-117838552D01*
X158507204Y-117886171D01*
X158459585Y-117981409D01*
X158459585Y-118219504D01*
X158507204Y-118314742D01*
X158554823Y-118362361D01*
X158650061Y-118409980D01*
X158935776Y-118409980D01*
X159031014Y-118362361D01*
X159078633Y-118314742D01*
X160850704Y-123145980D02*
X160850704Y-122145980D01*
X160279276Y-123145980D02*
X160707847Y-122574552D01*
X160279276Y-122145980D02*
X160850704Y-122717409D01*
X155926895Y-122910266D02*
X155450704Y-122910266D01*
X156022133Y-123195980D02*
X155688800Y-122195980D01*
X155355466Y-123195980D01*
%TO.C,R10*%
X147139180Y-116578142D02*
X146662990Y-116244809D01*
X147139180Y-116006714D02*
X146139180Y-116006714D01*
X146139180Y-116387666D01*
X146186800Y-116482904D01*
X146234419Y-116530523D01*
X146329657Y-116578142D01*
X146472514Y-116578142D01*
X146567752Y-116530523D01*
X146615371Y-116482904D01*
X146662990Y-116387666D01*
X146662990Y-116006714D01*
X147139180Y-117530523D02*
X147139180Y-116959095D01*
X147139180Y-117244809D02*
X146139180Y-117244809D01*
X146282038Y-117149571D01*
X146377276Y-117054333D01*
X146424895Y-116959095D01*
X146139180Y-118149571D02*
X146139180Y-118244809D01*
X146186800Y-118340047D01*
X146234419Y-118387666D01*
X146329657Y-118435285D01*
X146520133Y-118482904D01*
X146758228Y-118482904D01*
X146948704Y-118435285D01*
X147043942Y-118387666D01*
X147091561Y-118340047D01*
X147139180Y-118244809D01*
X147139180Y-118149571D01*
X147091561Y-118054333D01*
X147043942Y-118006714D01*
X146948704Y-117959095D01*
X146758228Y-117911476D01*
X146520133Y-117911476D01*
X146329657Y-117959095D01*
X146234419Y-118006714D01*
X146186800Y-118054333D01*
X146139180Y-118149571D01*
%TO.C,C3*%
X165297442Y-115403333D02*
X165345061Y-115355714D01*
X165392680Y-115212857D01*
X165392680Y-115117619D01*
X165345061Y-114974761D01*
X165249823Y-114879523D01*
X165154585Y-114831904D01*
X164964109Y-114784285D01*
X164821252Y-114784285D01*
X164630776Y-114831904D01*
X164535538Y-114879523D01*
X164440300Y-114974761D01*
X164392680Y-115117619D01*
X164392680Y-115212857D01*
X164440300Y-115355714D01*
X164487919Y-115403333D01*
X164392680Y-115736666D02*
X164392680Y-116355714D01*
X164773633Y-116022380D01*
X164773633Y-116165238D01*
X164821252Y-116260476D01*
X164868871Y-116308095D01*
X164964109Y-116355714D01*
X165202204Y-116355714D01*
X165297442Y-116308095D01*
X165345061Y-116260476D01*
X165392680Y-116165238D01*
X165392680Y-115879523D01*
X165345061Y-115784285D01*
X165297442Y-115736666D01*
%TO.C,R6*%
X157951466Y-87320380D02*
X158284800Y-86844190D01*
X158522895Y-87320380D02*
X158522895Y-86320380D01*
X158141942Y-86320380D01*
X158046704Y-86368000D01*
X157999085Y-86415619D01*
X157951466Y-86510857D01*
X157951466Y-86653714D01*
X157999085Y-86748952D01*
X158046704Y-86796571D01*
X158141942Y-86844190D01*
X158522895Y-86844190D01*
X157094323Y-86320380D02*
X157284800Y-86320380D01*
X157380038Y-86368000D01*
X157427657Y-86415619D01*
X157522895Y-86558476D01*
X157570514Y-86748952D01*
X157570514Y-87129904D01*
X157522895Y-87225142D01*
X157475276Y-87272761D01*
X157380038Y-87320380D01*
X157189561Y-87320380D01*
X157094323Y-87272761D01*
X157046704Y-87225142D01*
X156999085Y-87129904D01*
X156999085Y-86891809D01*
X157046704Y-86796571D01*
X157094323Y-86748952D01*
X157189561Y-86701333D01*
X157380038Y-86701333D01*
X157475276Y-86748952D01*
X157522895Y-86796571D01*
X157570514Y-86891809D01*
%TO.C,R2*%
X162967966Y-100185480D02*
X163301300Y-99709290D01*
X163539395Y-100185480D02*
X163539395Y-99185480D01*
X163158442Y-99185480D01*
X163063204Y-99233100D01*
X163015585Y-99280719D01*
X162967966Y-99375957D01*
X162967966Y-99518814D01*
X163015585Y-99614052D01*
X163063204Y-99661671D01*
X163158442Y-99709290D01*
X163539395Y-99709290D01*
X162587014Y-99280719D02*
X162539395Y-99233100D01*
X162444157Y-99185480D01*
X162206061Y-99185480D01*
X162110823Y-99233100D01*
X162063204Y-99280719D01*
X162015585Y-99375957D01*
X162015585Y-99471195D01*
X162063204Y-99614052D01*
X162634633Y-100185480D01*
X162015585Y-100185480D01*
%TO.C,R5*%
X161050266Y-87218780D02*
X161383600Y-86742590D01*
X161621695Y-87218780D02*
X161621695Y-86218780D01*
X161240742Y-86218780D01*
X161145504Y-86266400D01*
X161097885Y-86314019D01*
X161050266Y-86409257D01*
X161050266Y-86552114D01*
X161097885Y-86647352D01*
X161145504Y-86694971D01*
X161240742Y-86742590D01*
X161621695Y-86742590D01*
X160145504Y-86218780D02*
X160621695Y-86218780D01*
X160669314Y-86694971D01*
X160621695Y-86647352D01*
X160526457Y-86599733D01*
X160288361Y-86599733D01*
X160193123Y-86647352D01*
X160145504Y-86694971D01*
X160097885Y-86790209D01*
X160097885Y-87028304D01*
X160145504Y-87123542D01*
X160193123Y-87171161D01*
X160288361Y-87218780D01*
X160526457Y-87218780D01*
X160621695Y-87171161D01*
X160669314Y-87123542D01*
%TO.C,R3*%
X165479980Y-113422133D02*
X165003790Y-113088800D01*
X165479980Y-112850704D02*
X164479980Y-112850704D01*
X164479980Y-113231657D01*
X164527600Y-113326895D01*
X164575219Y-113374514D01*
X164670457Y-113422133D01*
X164813314Y-113422133D01*
X164908552Y-113374514D01*
X164956171Y-113326895D01*
X165003790Y-113231657D01*
X165003790Y-112850704D01*
X164479980Y-113755466D02*
X164479980Y-114374514D01*
X164860933Y-114041180D01*
X164860933Y-114184038D01*
X164908552Y-114279276D01*
X164956171Y-114326895D01*
X165051409Y-114374514D01*
X165289504Y-114374514D01*
X165384742Y-114326895D01*
X165432361Y-114279276D01*
X165479980Y-114184038D01*
X165479980Y-113898323D01*
X165432361Y-113803085D01*
X165384742Y-113755466D01*
%TO.C,R4*%
X153620766Y-107839780D02*
X153954100Y-107363590D01*
X154192195Y-107839780D02*
X154192195Y-106839780D01*
X153811242Y-106839780D01*
X153716004Y-106887400D01*
X153668385Y-106935019D01*
X153620766Y-107030257D01*
X153620766Y-107173114D01*
X153668385Y-107268352D01*
X153716004Y-107315971D01*
X153811242Y-107363590D01*
X154192195Y-107363590D01*
X152763623Y-107173114D02*
X152763623Y-107839780D01*
X153001719Y-106792161D02*
X153239814Y-107506447D01*
X152620766Y-107506447D01*
%TO.C,R11*%
X152344380Y-105427542D02*
X151868190Y-105094209D01*
X152344380Y-104856114D02*
X151344380Y-104856114D01*
X151344380Y-105237066D01*
X151392000Y-105332304D01*
X151439619Y-105379923D01*
X151534857Y-105427542D01*
X151677714Y-105427542D01*
X151772952Y-105379923D01*
X151820571Y-105332304D01*
X151868190Y-105237066D01*
X151868190Y-104856114D01*
X152344380Y-106379923D02*
X152344380Y-105808495D01*
X152344380Y-106094209D02*
X151344380Y-106094209D01*
X151487238Y-105998971D01*
X151582476Y-105903733D01*
X151630095Y-105808495D01*
X152344380Y-107332304D02*
X152344380Y-106760876D01*
X152344380Y-107046590D02*
X151344380Y-107046590D01*
X151487238Y-106951352D01*
X151582476Y-106856114D01*
X151630095Y-106760876D01*
%TO.C,C2*%
X160618442Y-111948933D02*
X160666061Y-111901314D01*
X160713680Y-111758457D01*
X160713680Y-111663219D01*
X160666061Y-111520361D01*
X160570823Y-111425123D01*
X160475585Y-111377504D01*
X160285109Y-111329885D01*
X160142252Y-111329885D01*
X159951776Y-111377504D01*
X159856538Y-111425123D01*
X159761300Y-111520361D01*
X159713680Y-111663219D01*
X159713680Y-111758457D01*
X159761300Y-111901314D01*
X159808919Y-111948933D01*
X159808919Y-112329885D02*
X159761300Y-112377504D01*
X159713680Y-112472742D01*
X159713680Y-112710838D01*
X159761300Y-112806076D01*
X159808919Y-112853695D01*
X159904157Y-112901314D01*
X159999395Y-112901314D01*
X160142252Y-112853695D01*
X160713680Y-112282266D01*
X160713680Y-112901314D01*
%TO.C,R8*%
X165349180Y-117727433D02*
X164872990Y-117394100D01*
X165349180Y-117156004D02*
X164349180Y-117156004D01*
X164349180Y-117536957D01*
X164396800Y-117632195D01*
X164444419Y-117679814D01*
X164539657Y-117727433D01*
X164682514Y-117727433D01*
X164777752Y-117679814D01*
X164825371Y-117632195D01*
X164872990Y-117536957D01*
X164872990Y-117156004D01*
X164777752Y-118298861D02*
X164730133Y-118203623D01*
X164682514Y-118156004D01*
X164587276Y-118108385D01*
X164539657Y-118108385D01*
X164444419Y-118156004D01*
X164396800Y-118203623D01*
X164349180Y-118298861D01*
X164349180Y-118489338D01*
X164396800Y-118584576D01*
X164444419Y-118632195D01*
X164539657Y-118679814D01*
X164587276Y-118679814D01*
X164682514Y-118632195D01*
X164730133Y-118584576D01*
X164777752Y-118489338D01*
X164777752Y-118298861D01*
X164825371Y-118203623D01*
X164872990Y-118156004D01*
X164968228Y-118108385D01*
X165158704Y-118108385D01*
X165253942Y-118156004D01*
X165301561Y-118203623D01*
X165349180Y-118298861D01*
X165349180Y-118489338D01*
X165301561Y-118584576D01*
X165253942Y-118632195D01*
X165158704Y-118679814D01*
X164968228Y-118679814D01*
X164872990Y-118632195D01*
X164825371Y-118584576D01*
X164777752Y-118489338D01*
%TO.C,R7*%
X159072866Y-79063580D02*
X159406200Y-78587390D01*
X159644295Y-79063580D02*
X159644295Y-78063580D01*
X159263342Y-78063580D01*
X159168104Y-78111200D01*
X159120485Y-78158819D01*
X159072866Y-78254057D01*
X159072866Y-78396914D01*
X159120485Y-78492152D01*
X159168104Y-78539771D01*
X159263342Y-78587390D01*
X159644295Y-78587390D01*
X158739533Y-78063580D02*
X158072866Y-78063580D01*
X158501438Y-79063580D01*
%TO.C,C1*%
X170054542Y-109593333D02*
X170102161Y-109545714D01*
X170149780Y-109402857D01*
X170149780Y-109307619D01*
X170102161Y-109164761D01*
X170006923Y-109069523D01*
X169911685Y-109021904D01*
X169721209Y-108974285D01*
X169578352Y-108974285D01*
X169387876Y-109021904D01*
X169292638Y-109069523D01*
X169197400Y-109164761D01*
X169149780Y-109307619D01*
X169149780Y-109402857D01*
X169197400Y-109545714D01*
X169245019Y-109593333D01*
X170149780Y-110545714D02*
X170149780Y-109974285D01*
X170149780Y-110260000D02*
X169149780Y-110260000D01*
X169292638Y-110164761D01*
X169387876Y-110069523D01*
X169435495Y-109974285D01*
%TO.C,C6*%
X160681942Y-114361933D02*
X160729561Y-114314314D01*
X160777180Y-114171457D01*
X160777180Y-114076219D01*
X160729561Y-113933361D01*
X160634323Y-113838123D01*
X160539085Y-113790504D01*
X160348609Y-113742885D01*
X160205752Y-113742885D01*
X160015276Y-113790504D01*
X159920038Y-113838123D01*
X159824800Y-113933361D01*
X159777180Y-114076219D01*
X159777180Y-114171457D01*
X159824800Y-114314314D01*
X159872419Y-114361933D01*
X159777180Y-115219076D02*
X159777180Y-115028600D01*
X159824800Y-114933361D01*
X159872419Y-114885742D01*
X160015276Y-114790504D01*
X160205752Y-114742885D01*
X160586704Y-114742885D01*
X160681942Y-114790504D01*
X160729561Y-114838123D01*
X160777180Y-114933361D01*
X160777180Y-115123838D01*
X160729561Y-115219076D01*
X160681942Y-115266695D01*
X160586704Y-115314314D01*
X160348609Y-115314314D01*
X160253371Y-115266695D01*
X160205752Y-115219076D01*
X160158133Y-115123838D01*
X160158133Y-114933361D01*
X160205752Y-114838123D01*
X160253371Y-114790504D01*
X160348609Y-114742885D01*
%TO.C,R9*%
X134257780Y-81087933D02*
X133781590Y-80754600D01*
X134257780Y-80516504D02*
X133257780Y-80516504D01*
X133257780Y-80897457D01*
X133305400Y-80992695D01*
X133353019Y-81040314D01*
X133448257Y-81087933D01*
X133591114Y-81087933D01*
X133686352Y-81040314D01*
X133733971Y-80992695D01*
X133781590Y-80897457D01*
X133781590Y-80516504D01*
X134257780Y-81564123D02*
X134257780Y-81754600D01*
X134210161Y-81849838D01*
X134162542Y-81897457D01*
X134019685Y-81992695D01*
X133829209Y-82040314D01*
X133448257Y-82040314D01*
X133353019Y-81992695D01*
X133305400Y-81945076D01*
X133257780Y-81849838D01*
X133257780Y-81659361D01*
X133305400Y-81564123D01*
X133353019Y-81516504D01*
X133448257Y-81468885D01*
X133686352Y-81468885D01*
X133781590Y-81516504D01*
X133829209Y-81564123D01*
X133876828Y-81659361D01*
X133876828Y-81849838D01*
X133829209Y-81945076D01*
X133781590Y-81992695D01*
X133686352Y-82040314D01*
%TO.C,C7*%
X127486742Y-112983733D02*
X127534361Y-112936114D01*
X127581980Y-112793257D01*
X127581980Y-112698019D01*
X127534361Y-112555161D01*
X127439123Y-112459923D01*
X127343885Y-112412304D01*
X127153409Y-112364685D01*
X127010552Y-112364685D01*
X126820076Y-112412304D01*
X126724838Y-112459923D01*
X126629600Y-112555161D01*
X126581980Y-112698019D01*
X126581980Y-112793257D01*
X126629600Y-112936114D01*
X126677219Y-112983733D01*
X126581980Y-113317066D02*
X126581980Y-113983733D01*
X127581980Y-113555161D01*
%TO.C,D3*%
X133059395Y-118409980D02*
X133059395Y-117409980D01*
X132821300Y-117409980D01*
X132678442Y-117457600D01*
X132583204Y-117552838D01*
X132535585Y-117648076D01*
X132487966Y-117838552D01*
X132487966Y-117981409D01*
X132535585Y-118171885D01*
X132583204Y-118267123D01*
X132678442Y-118362361D01*
X132821300Y-118409980D01*
X133059395Y-118409980D01*
X132154633Y-117409980D02*
X131535585Y-117409980D01*
X131868919Y-117790933D01*
X131726061Y-117790933D01*
X131630823Y-117838552D01*
X131583204Y-117886171D01*
X131535585Y-117981409D01*
X131535585Y-118219504D01*
X131583204Y-118314742D01*
X131630823Y-118362361D01*
X131726061Y-118409980D01*
X132011776Y-118409980D01*
X132107014Y-118362361D01*
X132154633Y-118314742D01*
X133926704Y-123145980D02*
X133926704Y-122145980D01*
X133355276Y-123145980D02*
X133783847Y-122574552D01*
X133355276Y-122145980D02*
X133926704Y-122717409D01*
X129002895Y-122910266D02*
X128526704Y-122910266D01*
X129098133Y-123195980D02*
X128764800Y-122195980D01*
X128431466Y-123195980D01*
%TO.C,R10*%
X120215180Y-116578142D02*
X119738990Y-116244809D01*
X120215180Y-116006714D02*
X119215180Y-116006714D01*
X119215180Y-116387666D01*
X119262800Y-116482904D01*
X119310419Y-116530523D01*
X119405657Y-116578142D01*
X119548514Y-116578142D01*
X119643752Y-116530523D01*
X119691371Y-116482904D01*
X119738990Y-116387666D01*
X119738990Y-116006714D01*
X120215180Y-117530523D02*
X120215180Y-116959095D01*
X120215180Y-117244809D02*
X119215180Y-117244809D01*
X119358038Y-117149571D01*
X119453276Y-117054333D01*
X119500895Y-116959095D01*
X119215180Y-118149571D02*
X119215180Y-118244809D01*
X119262800Y-118340047D01*
X119310419Y-118387666D01*
X119405657Y-118435285D01*
X119596133Y-118482904D01*
X119834228Y-118482904D01*
X120024704Y-118435285D01*
X120119942Y-118387666D01*
X120167561Y-118340047D01*
X120215180Y-118244809D01*
X120215180Y-118149571D01*
X120167561Y-118054333D01*
X120119942Y-118006714D01*
X120024704Y-117959095D01*
X119834228Y-117911476D01*
X119596133Y-117911476D01*
X119405657Y-117959095D01*
X119310419Y-118006714D01*
X119262800Y-118054333D01*
X119215180Y-118149571D01*
%TO.C,C3*%
X138373442Y-115403333D02*
X138421061Y-115355714D01*
X138468680Y-115212857D01*
X138468680Y-115117619D01*
X138421061Y-114974761D01*
X138325823Y-114879523D01*
X138230585Y-114831904D01*
X138040109Y-114784285D01*
X137897252Y-114784285D01*
X137706776Y-114831904D01*
X137611538Y-114879523D01*
X137516300Y-114974761D01*
X137468680Y-115117619D01*
X137468680Y-115212857D01*
X137516300Y-115355714D01*
X137563919Y-115403333D01*
X137468680Y-115736666D02*
X137468680Y-116355714D01*
X137849633Y-116022380D01*
X137849633Y-116165238D01*
X137897252Y-116260476D01*
X137944871Y-116308095D01*
X138040109Y-116355714D01*
X138278204Y-116355714D01*
X138373442Y-116308095D01*
X138421061Y-116260476D01*
X138468680Y-116165238D01*
X138468680Y-115879523D01*
X138421061Y-115784285D01*
X138373442Y-115736666D01*
%TO.C,R6*%
X131027466Y-87320380D02*
X131360800Y-86844190D01*
X131598895Y-87320380D02*
X131598895Y-86320380D01*
X131217942Y-86320380D01*
X131122704Y-86368000D01*
X131075085Y-86415619D01*
X131027466Y-86510857D01*
X131027466Y-86653714D01*
X131075085Y-86748952D01*
X131122704Y-86796571D01*
X131217942Y-86844190D01*
X131598895Y-86844190D01*
X130170323Y-86320380D02*
X130360800Y-86320380D01*
X130456038Y-86368000D01*
X130503657Y-86415619D01*
X130598895Y-86558476D01*
X130646514Y-86748952D01*
X130646514Y-87129904D01*
X130598895Y-87225142D01*
X130551276Y-87272761D01*
X130456038Y-87320380D01*
X130265561Y-87320380D01*
X130170323Y-87272761D01*
X130122704Y-87225142D01*
X130075085Y-87129904D01*
X130075085Y-86891809D01*
X130122704Y-86796571D01*
X130170323Y-86748952D01*
X130265561Y-86701333D01*
X130456038Y-86701333D01*
X130551276Y-86748952D01*
X130598895Y-86796571D01*
X130646514Y-86891809D01*
%TO.C,R2*%
X136043966Y-100185480D02*
X136377300Y-99709290D01*
X136615395Y-100185480D02*
X136615395Y-99185480D01*
X136234442Y-99185480D01*
X136139204Y-99233100D01*
X136091585Y-99280719D01*
X136043966Y-99375957D01*
X136043966Y-99518814D01*
X136091585Y-99614052D01*
X136139204Y-99661671D01*
X136234442Y-99709290D01*
X136615395Y-99709290D01*
X135663014Y-99280719D02*
X135615395Y-99233100D01*
X135520157Y-99185480D01*
X135282061Y-99185480D01*
X135186823Y-99233100D01*
X135139204Y-99280719D01*
X135091585Y-99375957D01*
X135091585Y-99471195D01*
X135139204Y-99614052D01*
X135710633Y-100185480D01*
X135091585Y-100185480D01*
%TO.C,R5*%
X134126266Y-87218780D02*
X134459600Y-86742590D01*
X134697695Y-87218780D02*
X134697695Y-86218780D01*
X134316742Y-86218780D01*
X134221504Y-86266400D01*
X134173885Y-86314019D01*
X134126266Y-86409257D01*
X134126266Y-86552114D01*
X134173885Y-86647352D01*
X134221504Y-86694971D01*
X134316742Y-86742590D01*
X134697695Y-86742590D01*
X133221504Y-86218780D02*
X133697695Y-86218780D01*
X133745314Y-86694971D01*
X133697695Y-86647352D01*
X133602457Y-86599733D01*
X133364361Y-86599733D01*
X133269123Y-86647352D01*
X133221504Y-86694971D01*
X133173885Y-86790209D01*
X133173885Y-87028304D01*
X133221504Y-87123542D01*
X133269123Y-87171161D01*
X133364361Y-87218780D01*
X133602457Y-87218780D01*
X133697695Y-87171161D01*
X133745314Y-87123542D01*
%TO.C,R3*%
X138555980Y-113422133D02*
X138079790Y-113088800D01*
X138555980Y-112850704D02*
X137555980Y-112850704D01*
X137555980Y-113231657D01*
X137603600Y-113326895D01*
X137651219Y-113374514D01*
X137746457Y-113422133D01*
X137889314Y-113422133D01*
X137984552Y-113374514D01*
X138032171Y-113326895D01*
X138079790Y-113231657D01*
X138079790Y-112850704D01*
X137555980Y-113755466D02*
X137555980Y-114374514D01*
X137936933Y-114041180D01*
X137936933Y-114184038D01*
X137984552Y-114279276D01*
X138032171Y-114326895D01*
X138127409Y-114374514D01*
X138365504Y-114374514D01*
X138460742Y-114326895D01*
X138508361Y-114279276D01*
X138555980Y-114184038D01*
X138555980Y-113898323D01*
X138508361Y-113803085D01*
X138460742Y-113755466D01*
%TO.C,R4*%
X126696766Y-107839780D02*
X127030100Y-107363590D01*
X127268195Y-107839780D02*
X127268195Y-106839780D01*
X126887242Y-106839780D01*
X126792004Y-106887400D01*
X126744385Y-106935019D01*
X126696766Y-107030257D01*
X126696766Y-107173114D01*
X126744385Y-107268352D01*
X126792004Y-107315971D01*
X126887242Y-107363590D01*
X127268195Y-107363590D01*
X125839623Y-107173114D02*
X125839623Y-107839780D01*
X126077719Y-106792161D02*
X126315814Y-107506447D01*
X125696766Y-107506447D01*
%TO.C,R11*%
X125420380Y-105427542D02*
X124944190Y-105094209D01*
X125420380Y-104856114D02*
X124420380Y-104856114D01*
X124420380Y-105237066D01*
X124468000Y-105332304D01*
X124515619Y-105379923D01*
X124610857Y-105427542D01*
X124753714Y-105427542D01*
X124848952Y-105379923D01*
X124896571Y-105332304D01*
X124944190Y-105237066D01*
X124944190Y-104856114D01*
X125420380Y-106379923D02*
X125420380Y-105808495D01*
X125420380Y-106094209D02*
X124420380Y-106094209D01*
X124563238Y-105998971D01*
X124658476Y-105903733D01*
X124706095Y-105808495D01*
X125420380Y-107332304D02*
X125420380Y-106760876D01*
X125420380Y-107046590D02*
X124420380Y-107046590D01*
X124563238Y-106951352D01*
X124658476Y-106856114D01*
X124706095Y-106760876D01*
%TO.C,C2*%
X133694442Y-111948933D02*
X133742061Y-111901314D01*
X133789680Y-111758457D01*
X133789680Y-111663219D01*
X133742061Y-111520361D01*
X133646823Y-111425123D01*
X133551585Y-111377504D01*
X133361109Y-111329885D01*
X133218252Y-111329885D01*
X133027776Y-111377504D01*
X132932538Y-111425123D01*
X132837300Y-111520361D01*
X132789680Y-111663219D01*
X132789680Y-111758457D01*
X132837300Y-111901314D01*
X132884919Y-111948933D01*
X132884919Y-112329885D02*
X132837300Y-112377504D01*
X132789680Y-112472742D01*
X132789680Y-112710838D01*
X132837300Y-112806076D01*
X132884919Y-112853695D01*
X132980157Y-112901314D01*
X133075395Y-112901314D01*
X133218252Y-112853695D01*
X133789680Y-112282266D01*
X133789680Y-112901314D01*
%TO.C,R8*%
X138425180Y-117727433D02*
X137948990Y-117394100D01*
X138425180Y-117156004D02*
X137425180Y-117156004D01*
X137425180Y-117536957D01*
X137472800Y-117632195D01*
X137520419Y-117679814D01*
X137615657Y-117727433D01*
X137758514Y-117727433D01*
X137853752Y-117679814D01*
X137901371Y-117632195D01*
X137948990Y-117536957D01*
X137948990Y-117156004D01*
X137853752Y-118298861D02*
X137806133Y-118203623D01*
X137758514Y-118156004D01*
X137663276Y-118108385D01*
X137615657Y-118108385D01*
X137520419Y-118156004D01*
X137472800Y-118203623D01*
X137425180Y-118298861D01*
X137425180Y-118489338D01*
X137472800Y-118584576D01*
X137520419Y-118632195D01*
X137615657Y-118679814D01*
X137663276Y-118679814D01*
X137758514Y-118632195D01*
X137806133Y-118584576D01*
X137853752Y-118489338D01*
X137853752Y-118298861D01*
X137901371Y-118203623D01*
X137948990Y-118156004D01*
X138044228Y-118108385D01*
X138234704Y-118108385D01*
X138329942Y-118156004D01*
X138377561Y-118203623D01*
X138425180Y-118298861D01*
X138425180Y-118489338D01*
X138377561Y-118584576D01*
X138329942Y-118632195D01*
X138234704Y-118679814D01*
X138044228Y-118679814D01*
X137948990Y-118632195D01*
X137901371Y-118584576D01*
X137853752Y-118489338D01*
%TO.C,R7*%
X132148866Y-79063580D02*
X132482200Y-78587390D01*
X132720295Y-79063580D02*
X132720295Y-78063580D01*
X132339342Y-78063580D01*
X132244104Y-78111200D01*
X132196485Y-78158819D01*
X132148866Y-78254057D01*
X132148866Y-78396914D01*
X132196485Y-78492152D01*
X132244104Y-78539771D01*
X132339342Y-78587390D01*
X132720295Y-78587390D01*
X131815533Y-78063580D02*
X131148866Y-78063580D01*
X131577438Y-79063580D01*
%TO.C,C1*%
X143130542Y-109593333D02*
X143178161Y-109545714D01*
X143225780Y-109402857D01*
X143225780Y-109307619D01*
X143178161Y-109164761D01*
X143082923Y-109069523D01*
X142987685Y-109021904D01*
X142797209Y-108974285D01*
X142654352Y-108974285D01*
X142463876Y-109021904D01*
X142368638Y-109069523D01*
X142273400Y-109164761D01*
X142225780Y-109307619D01*
X142225780Y-109402857D01*
X142273400Y-109545714D01*
X142321019Y-109593333D01*
X143225780Y-110545714D02*
X143225780Y-109974285D01*
X143225780Y-110260000D02*
X142225780Y-110260000D01*
X142368638Y-110164761D01*
X142463876Y-110069523D01*
X142511495Y-109974285D01*
%TO.C,C6*%
X133757942Y-114361933D02*
X133805561Y-114314314D01*
X133853180Y-114171457D01*
X133853180Y-114076219D01*
X133805561Y-113933361D01*
X133710323Y-113838123D01*
X133615085Y-113790504D01*
X133424609Y-113742885D01*
X133281752Y-113742885D01*
X133091276Y-113790504D01*
X132996038Y-113838123D01*
X132900800Y-113933361D01*
X132853180Y-114076219D01*
X132853180Y-114171457D01*
X132900800Y-114314314D01*
X132948419Y-114361933D01*
X132853180Y-115219076D02*
X132853180Y-115028600D01*
X132900800Y-114933361D01*
X132948419Y-114885742D01*
X133091276Y-114790504D01*
X133281752Y-114742885D01*
X133662704Y-114742885D01*
X133757942Y-114790504D01*
X133805561Y-114838123D01*
X133853180Y-114933361D01*
X133853180Y-115123838D01*
X133805561Y-115219076D01*
X133757942Y-115266695D01*
X133662704Y-115314314D01*
X133424609Y-115314314D01*
X133329371Y-115266695D01*
X133281752Y-115219076D01*
X133234133Y-115123838D01*
X133234133Y-114933361D01*
X133281752Y-114838123D01*
X133329371Y-114790504D01*
X133424609Y-114742885D01*
%TO.C,C7*%
X100562742Y-112983733D02*
X100610361Y-112936114D01*
X100657980Y-112793257D01*
X100657980Y-112698019D01*
X100610361Y-112555161D01*
X100515123Y-112459923D01*
X100419885Y-112412304D01*
X100229409Y-112364685D01*
X100086552Y-112364685D01*
X99896076Y-112412304D01*
X99800838Y-112459923D01*
X99705600Y-112555161D01*
X99657980Y-112698019D01*
X99657980Y-112793257D01*
X99705600Y-112936114D01*
X99753219Y-112983733D01*
X99657980Y-113317066D02*
X99657980Y-113983733D01*
X100657980Y-113555161D01*
%TO.C,R10*%
X93291180Y-116578142D02*
X92814990Y-116244809D01*
X93291180Y-116006714D02*
X92291180Y-116006714D01*
X92291180Y-116387666D01*
X92338800Y-116482904D01*
X92386419Y-116530523D01*
X92481657Y-116578142D01*
X92624514Y-116578142D01*
X92719752Y-116530523D01*
X92767371Y-116482904D01*
X92814990Y-116387666D01*
X92814990Y-116006714D01*
X93291180Y-117530523D02*
X93291180Y-116959095D01*
X93291180Y-117244809D02*
X92291180Y-117244809D01*
X92434038Y-117149571D01*
X92529276Y-117054333D01*
X92576895Y-116959095D01*
X92291180Y-118149571D02*
X92291180Y-118244809D01*
X92338800Y-118340047D01*
X92386419Y-118387666D01*
X92481657Y-118435285D01*
X92672133Y-118482904D01*
X92910228Y-118482904D01*
X93100704Y-118435285D01*
X93195942Y-118387666D01*
X93243561Y-118340047D01*
X93291180Y-118244809D01*
X93291180Y-118149571D01*
X93243561Y-118054333D01*
X93195942Y-118006714D01*
X93100704Y-117959095D01*
X92910228Y-117911476D01*
X92672133Y-117911476D01*
X92481657Y-117959095D01*
X92386419Y-118006714D01*
X92338800Y-118054333D01*
X92291180Y-118149571D01*
%TO.C,R11*%
X98496380Y-105427542D02*
X98020190Y-105094209D01*
X98496380Y-104856114D02*
X97496380Y-104856114D01*
X97496380Y-105237066D01*
X97544000Y-105332304D01*
X97591619Y-105379923D01*
X97686857Y-105427542D01*
X97829714Y-105427542D01*
X97924952Y-105379923D01*
X97972571Y-105332304D01*
X98020190Y-105237066D01*
X98020190Y-104856114D01*
X98496380Y-106379923D02*
X98496380Y-105808495D01*
X98496380Y-106094209D02*
X97496380Y-106094209D01*
X97639238Y-105998971D01*
X97734476Y-105903733D01*
X97782095Y-105808495D01*
X98496380Y-107332304D02*
X98496380Y-106760876D01*
X98496380Y-107046590D02*
X97496380Y-107046590D01*
X97639238Y-106951352D01*
X97734476Y-106856114D01*
X97782095Y-106760876D01*
%TO.C,R9*%
X107333780Y-81087933D02*
X106857590Y-80754600D01*
X107333780Y-80516504D02*
X106333780Y-80516504D01*
X106333780Y-80897457D01*
X106381400Y-80992695D01*
X106429019Y-81040314D01*
X106524257Y-81087933D01*
X106667114Y-81087933D01*
X106762352Y-81040314D01*
X106809971Y-80992695D01*
X106857590Y-80897457D01*
X106857590Y-80516504D01*
X107333780Y-81564123D02*
X107333780Y-81754600D01*
X107286161Y-81849838D01*
X107238542Y-81897457D01*
X107095685Y-81992695D01*
X106905209Y-82040314D01*
X106524257Y-82040314D01*
X106429019Y-81992695D01*
X106381400Y-81945076D01*
X106333780Y-81849838D01*
X106333780Y-81659361D01*
X106381400Y-81564123D01*
X106429019Y-81516504D01*
X106524257Y-81468885D01*
X106762352Y-81468885D01*
X106857590Y-81516504D01*
X106905209Y-81564123D01*
X106952828Y-81659361D01*
X106952828Y-81849838D01*
X106905209Y-81945076D01*
X106857590Y-81992695D01*
X106762352Y-82040314D01*
%TO.C,R3*%
X111631980Y-113422133D02*
X111155790Y-113088800D01*
X111631980Y-112850704D02*
X110631980Y-112850704D01*
X110631980Y-113231657D01*
X110679600Y-113326895D01*
X110727219Y-113374514D01*
X110822457Y-113422133D01*
X110965314Y-113422133D01*
X111060552Y-113374514D01*
X111108171Y-113326895D01*
X111155790Y-113231657D01*
X111155790Y-112850704D01*
X110631980Y-113755466D02*
X110631980Y-114374514D01*
X111012933Y-114041180D01*
X111012933Y-114184038D01*
X111060552Y-114279276D01*
X111108171Y-114326895D01*
X111203409Y-114374514D01*
X111441504Y-114374514D01*
X111536742Y-114326895D01*
X111584361Y-114279276D01*
X111631980Y-114184038D01*
X111631980Y-113898323D01*
X111584361Y-113803085D01*
X111536742Y-113755466D01*
%TO.C,C1*%
X116206542Y-109593333D02*
X116254161Y-109545714D01*
X116301780Y-109402857D01*
X116301780Y-109307619D01*
X116254161Y-109164761D01*
X116158923Y-109069523D01*
X116063685Y-109021904D01*
X115873209Y-108974285D01*
X115730352Y-108974285D01*
X115539876Y-109021904D01*
X115444638Y-109069523D01*
X115349400Y-109164761D01*
X115301780Y-109307619D01*
X115301780Y-109402857D01*
X115349400Y-109545714D01*
X115397019Y-109593333D01*
X116301780Y-110545714D02*
X116301780Y-109974285D01*
X116301780Y-110260000D02*
X115301780Y-110260000D01*
X115444638Y-110164761D01*
X115539876Y-110069523D01*
X115587495Y-109974285D01*
%TO.C,C2*%
X106770442Y-111948933D02*
X106818061Y-111901314D01*
X106865680Y-111758457D01*
X106865680Y-111663219D01*
X106818061Y-111520361D01*
X106722823Y-111425123D01*
X106627585Y-111377504D01*
X106437109Y-111329885D01*
X106294252Y-111329885D01*
X106103776Y-111377504D01*
X106008538Y-111425123D01*
X105913300Y-111520361D01*
X105865680Y-111663219D01*
X105865680Y-111758457D01*
X105913300Y-111901314D01*
X105960919Y-111948933D01*
X105960919Y-112329885D02*
X105913300Y-112377504D01*
X105865680Y-112472742D01*
X105865680Y-112710838D01*
X105913300Y-112806076D01*
X105960919Y-112853695D01*
X106056157Y-112901314D01*
X106151395Y-112901314D01*
X106294252Y-112853695D01*
X106865680Y-112282266D01*
X106865680Y-112901314D01*
%TO.C,C3*%
X111449442Y-115403333D02*
X111497061Y-115355714D01*
X111544680Y-115212857D01*
X111544680Y-115117619D01*
X111497061Y-114974761D01*
X111401823Y-114879523D01*
X111306585Y-114831904D01*
X111116109Y-114784285D01*
X110973252Y-114784285D01*
X110782776Y-114831904D01*
X110687538Y-114879523D01*
X110592300Y-114974761D01*
X110544680Y-115117619D01*
X110544680Y-115212857D01*
X110592300Y-115355714D01*
X110639919Y-115403333D01*
X110544680Y-115736666D02*
X110544680Y-116355714D01*
X110925633Y-116022380D01*
X110925633Y-116165238D01*
X110973252Y-116260476D01*
X111020871Y-116308095D01*
X111116109Y-116355714D01*
X111354204Y-116355714D01*
X111449442Y-116308095D01*
X111497061Y-116260476D01*
X111544680Y-116165238D01*
X111544680Y-115879523D01*
X111497061Y-115784285D01*
X111449442Y-115736666D01*
%TO.C,R2*%
X109119966Y-100185480D02*
X109453300Y-99709290D01*
X109691395Y-100185480D02*
X109691395Y-99185480D01*
X109310442Y-99185480D01*
X109215204Y-99233100D01*
X109167585Y-99280719D01*
X109119966Y-99375957D01*
X109119966Y-99518814D01*
X109167585Y-99614052D01*
X109215204Y-99661671D01*
X109310442Y-99709290D01*
X109691395Y-99709290D01*
X108739014Y-99280719D02*
X108691395Y-99233100D01*
X108596157Y-99185480D01*
X108358061Y-99185480D01*
X108262823Y-99233100D01*
X108215204Y-99280719D01*
X108167585Y-99375957D01*
X108167585Y-99471195D01*
X108215204Y-99614052D01*
X108786633Y-100185480D01*
X108167585Y-100185480D01*
%TO.C,R4*%
X99772766Y-107839780D02*
X100106100Y-107363590D01*
X100344195Y-107839780D02*
X100344195Y-106839780D01*
X99963242Y-106839780D01*
X99868004Y-106887400D01*
X99820385Y-106935019D01*
X99772766Y-107030257D01*
X99772766Y-107173114D01*
X99820385Y-107268352D01*
X99868004Y-107315971D01*
X99963242Y-107363590D01*
X100344195Y-107363590D01*
X98915623Y-107173114D02*
X98915623Y-107839780D01*
X99153719Y-106792161D02*
X99391814Y-107506447D01*
X98772766Y-107506447D01*
%TO.C,R5*%
X107202266Y-87218780D02*
X107535600Y-86742590D01*
X107773695Y-87218780D02*
X107773695Y-86218780D01*
X107392742Y-86218780D01*
X107297504Y-86266400D01*
X107249885Y-86314019D01*
X107202266Y-86409257D01*
X107202266Y-86552114D01*
X107249885Y-86647352D01*
X107297504Y-86694971D01*
X107392742Y-86742590D01*
X107773695Y-86742590D01*
X106297504Y-86218780D02*
X106773695Y-86218780D01*
X106821314Y-86694971D01*
X106773695Y-86647352D01*
X106678457Y-86599733D01*
X106440361Y-86599733D01*
X106345123Y-86647352D01*
X106297504Y-86694971D01*
X106249885Y-86790209D01*
X106249885Y-87028304D01*
X106297504Y-87123542D01*
X106345123Y-87171161D01*
X106440361Y-87218780D01*
X106678457Y-87218780D01*
X106773695Y-87171161D01*
X106821314Y-87123542D01*
%TO.C,R6*%
X104103466Y-87320380D02*
X104436800Y-86844190D01*
X104674895Y-87320380D02*
X104674895Y-86320380D01*
X104293942Y-86320380D01*
X104198704Y-86368000D01*
X104151085Y-86415619D01*
X104103466Y-86510857D01*
X104103466Y-86653714D01*
X104151085Y-86748952D01*
X104198704Y-86796571D01*
X104293942Y-86844190D01*
X104674895Y-86844190D01*
X103246323Y-86320380D02*
X103436800Y-86320380D01*
X103532038Y-86368000D01*
X103579657Y-86415619D01*
X103674895Y-86558476D01*
X103722514Y-86748952D01*
X103722514Y-87129904D01*
X103674895Y-87225142D01*
X103627276Y-87272761D01*
X103532038Y-87320380D01*
X103341561Y-87320380D01*
X103246323Y-87272761D01*
X103198704Y-87225142D01*
X103151085Y-87129904D01*
X103151085Y-86891809D01*
X103198704Y-86796571D01*
X103246323Y-86748952D01*
X103341561Y-86701333D01*
X103532038Y-86701333D01*
X103627276Y-86748952D01*
X103674895Y-86796571D01*
X103722514Y-86891809D01*
%TO.C,R7*%
X105224866Y-79063580D02*
X105558200Y-78587390D01*
X105796295Y-79063580D02*
X105796295Y-78063580D01*
X105415342Y-78063580D01*
X105320104Y-78111200D01*
X105272485Y-78158819D01*
X105224866Y-78254057D01*
X105224866Y-78396914D01*
X105272485Y-78492152D01*
X105320104Y-78539771D01*
X105415342Y-78587390D01*
X105796295Y-78587390D01*
X104891533Y-78063580D02*
X104224866Y-78063580D01*
X104653438Y-79063580D01*
%TO.C,D3*%
X106135395Y-118409980D02*
X106135395Y-117409980D01*
X105897300Y-117409980D01*
X105754442Y-117457600D01*
X105659204Y-117552838D01*
X105611585Y-117648076D01*
X105563966Y-117838552D01*
X105563966Y-117981409D01*
X105611585Y-118171885D01*
X105659204Y-118267123D01*
X105754442Y-118362361D01*
X105897300Y-118409980D01*
X106135395Y-118409980D01*
X105230633Y-117409980D02*
X104611585Y-117409980D01*
X104944919Y-117790933D01*
X104802061Y-117790933D01*
X104706823Y-117838552D01*
X104659204Y-117886171D01*
X104611585Y-117981409D01*
X104611585Y-118219504D01*
X104659204Y-118314742D01*
X104706823Y-118362361D01*
X104802061Y-118409980D01*
X105087776Y-118409980D01*
X105183014Y-118362361D01*
X105230633Y-118314742D01*
X102078895Y-122910266D02*
X101602704Y-122910266D01*
X102174133Y-123195980D02*
X101840800Y-122195980D01*
X101507466Y-123195980D01*
X107002704Y-123145980D02*
X107002704Y-122145980D01*
X106431276Y-123145980D02*
X106859847Y-122574552D01*
X106431276Y-122145980D02*
X107002704Y-122717409D01*
%TO.C,C6*%
X106833942Y-114361933D02*
X106881561Y-114314314D01*
X106929180Y-114171457D01*
X106929180Y-114076219D01*
X106881561Y-113933361D01*
X106786323Y-113838123D01*
X106691085Y-113790504D01*
X106500609Y-113742885D01*
X106357752Y-113742885D01*
X106167276Y-113790504D01*
X106072038Y-113838123D01*
X105976800Y-113933361D01*
X105929180Y-114076219D01*
X105929180Y-114171457D01*
X105976800Y-114314314D01*
X106024419Y-114361933D01*
X105929180Y-115219076D02*
X105929180Y-115028600D01*
X105976800Y-114933361D01*
X106024419Y-114885742D01*
X106167276Y-114790504D01*
X106357752Y-114742885D01*
X106738704Y-114742885D01*
X106833942Y-114790504D01*
X106881561Y-114838123D01*
X106929180Y-114933361D01*
X106929180Y-115123838D01*
X106881561Y-115219076D01*
X106833942Y-115266695D01*
X106738704Y-115314314D01*
X106500609Y-115314314D01*
X106405371Y-115266695D01*
X106357752Y-115219076D01*
X106310133Y-115123838D01*
X106310133Y-114933361D01*
X106357752Y-114838123D01*
X106405371Y-114790504D01*
X106500609Y-114742885D01*
%TO.C,R8*%
X111501180Y-117727433D02*
X111024990Y-117394100D01*
X111501180Y-117156004D02*
X110501180Y-117156004D01*
X110501180Y-117536957D01*
X110548800Y-117632195D01*
X110596419Y-117679814D01*
X110691657Y-117727433D01*
X110834514Y-117727433D01*
X110929752Y-117679814D01*
X110977371Y-117632195D01*
X111024990Y-117536957D01*
X111024990Y-117156004D01*
X110929752Y-118298861D02*
X110882133Y-118203623D01*
X110834514Y-118156004D01*
X110739276Y-118108385D01*
X110691657Y-118108385D01*
X110596419Y-118156004D01*
X110548800Y-118203623D01*
X110501180Y-118298861D01*
X110501180Y-118489338D01*
X110548800Y-118584576D01*
X110596419Y-118632195D01*
X110691657Y-118679814D01*
X110739276Y-118679814D01*
X110834514Y-118632195D01*
X110882133Y-118584576D01*
X110929752Y-118489338D01*
X110929752Y-118298861D01*
X110977371Y-118203623D01*
X111024990Y-118156004D01*
X111120228Y-118108385D01*
X111310704Y-118108385D01*
X111405942Y-118156004D01*
X111453561Y-118203623D01*
X111501180Y-118298861D01*
X111501180Y-118489338D01*
X111453561Y-118584576D01*
X111405942Y-118632195D01*
X111310704Y-118679814D01*
X111120228Y-118679814D01*
X111024990Y-118632195D01*
X110977371Y-118584576D01*
X110929752Y-118489338D01*
%TD*%
M02*
