G04 #@! TF.GenerationSoftware,KiCad,Pcbnew,5.0.0-rc2-dev-unknown-b813eac~63~ubuntu16.04.1*
G04 #@! TF.CreationDate,2018-04-08T16:52:17+02:00*
G04 #@! TF.ProjectId,f-6188multi,662D363138386D756C74692E6B696361,rev?*
G04 #@! TF.SameCoordinates,Original*
G04 #@! TF.FileFunction,Soldermask,Top*
G04 #@! TF.FilePolarity,Negative*
%FSLAX46Y46*%
G04 Gerber Fmt 4.6, Leading zero omitted, Abs format (unit mm)*
G04 Created by KiCad (PCBNEW 5.0.0-rc2-dev-unknown-b813eac~63~ubuntu16.04.1) date Sun Apr  8 16:52:17 2018*
%MOMM*%
%LPD*%
G01*
G04 APERTURE LIST*
%ADD10R,1.800860X1.597660*%
%ADD11C,1.200000*%
%ADD12R,3.500000X1.500000*%
%ADD13R,1.400000X1.500000*%
%ADD14R,1.500000X1.400000*%
%ADD15R,1.600000X2.000000*%
%ADD16R,1.501140X2.999740*%
%ADD17R,1.500000X1.300000*%
%ADD18O,2.032000X1.727200*%
%ADD19R,2.032000X1.727200*%
%ADD20R,0.500000X1.500000*%
%ADD21C,0.050000*%
%ADD22C,1.000000*%
G04 APERTURE END LIST*
D10*
X178816000Y-120037860D03*
X178816000Y-117198140D03*
D11*
X181864000Y-135224000D03*
D12*
X185614000Y-134224000D03*
X178114000Y-139224000D03*
X185614000Y-141224000D03*
D11*
X181864000Y-141224000D03*
D13*
X195580000Y-104316000D03*
X195580000Y-113616000D03*
D14*
X192102000Y-112776000D03*
X182802000Y-112776000D03*
D15*
X178562000Y-129794000D03*
X178562000Y-125794000D03*
D13*
X179070000Y-104062000D03*
X179070000Y-113362000D03*
D14*
X192102000Y-119888000D03*
X182802000Y-119888000D03*
D16*
X186182000Y-125509020D03*
X186182000Y-129506980D03*
D17*
X182292000Y-116433600D03*
X184992000Y-116433600D03*
D10*
X195326000Y-117452140D03*
X195326000Y-120291860D03*
D18*
X199898000Y-141732000D03*
X199898000Y-139192000D03*
X199898000Y-136652000D03*
X199898000Y-134112000D03*
X199898000Y-131572000D03*
X199898000Y-129032000D03*
X199898000Y-126492000D03*
X199898000Y-123952000D03*
X199898000Y-121412000D03*
X199898000Y-118872000D03*
X199898000Y-116332000D03*
X199898000Y-113792000D03*
X199898000Y-111252000D03*
X199898000Y-108712000D03*
X199898000Y-106172000D03*
D19*
X199898000Y-103632000D03*
D14*
X192102000Y-104394000D03*
X182802000Y-104394000D03*
D19*
X174498000Y-141732000D03*
D18*
X174498000Y-139192000D03*
X174498000Y-136652000D03*
X174498000Y-134112000D03*
X174498000Y-131572000D03*
X174498000Y-129032000D03*
X174498000Y-126492000D03*
X174498000Y-123952000D03*
X174498000Y-121412000D03*
X174498000Y-118872000D03*
X174498000Y-116332000D03*
X174498000Y-113792000D03*
X174498000Y-111252000D03*
X174498000Y-108712000D03*
X174498000Y-106172000D03*
X174498000Y-103632000D03*
D14*
X192102000Y-108864400D03*
X182802000Y-108864400D03*
D11*
X188722000Y-135145000D03*
X188722000Y-141145000D03*
D16*
X190068200Y-129473960D03*
X190068200Y-125476000D03*
X182880000Y-129506980D03*
X182880000Y-125509020D03*
D15*
X192786000Y-125508000D03*
X192786000Y-129508000D03*
X195834000Y-129508000D03*
X195834000Y-125508000D03*
D17*
X189962800Y-116433600D03*
X192662800Y-116433600D03*
D20*
X180486000Y-122936000D03*
X179686000Y-122936000D03*
D21*
G36*
X179485010Y-122188408D02*
X179533546Y-122195607D01*
X179581143Y-122207530D01*
X179627343Y-122224060D01*
X179671699Y-122245039D01*
X179713786Y-122270265D01*
X179753198Y-122299495D01*
X179789554Y-122332447D01*
X179822506Y-122368803D01*
X179851736Y-122408215D01*
X179876962Y-122450302D01*
X179897941Y-122494658D01*
X179914471Y-122540858D01*
X179926394Y-122588455D01*
X179933593Y-122636991D01*
X179936001Y-122686000D01*
X179936001Y-123186000D01*
X179933593Y-123235009D01*
X179926394Y-123283545D01*
X179914471Y-123331142D01*
X179897941Y-123377342D01*
X179876962Y-123421698D01*
X179851736Y-123463785D01*
X179822506Y-123503197D01*
X179789554Y-123539553D01*
X179753198Y-123572505D01*
X179713786Y-123601735D01*
X179671699Y-123626961D01*
X179627343Y-123647940D01*
X179581143Y-123664470D01*
X179533546Y-123676393D01*
X179485010Y-123683592D01*
X179436001Y-123686000D01*
X179435999Y-123686000D01*
X179386990Y-123683592D01*
X179338454Y-123676393D01*
X179290857Y-123664470D01*
X179244657Y-123647940D01*
X179200301Y-123626961D01*
X179158214Y-123601735D01*
X179118802Y-123572505D01*
X179082446Y-123539553D01*
X179049494Y-123503197D01*
X179020264Y-123463785D01*
X178995038Y-123421698D01*
X178974059Y-123377342D01*
X178957529Y-123331142D01*
X178945606Y-123283545D01*
X178938407Y-123235009D01*
X178935999Y-123186000D01*
X178935999Y-122686000D01*
X178938407Y-122636991D01*
X178945606Y-122588455D01*
X178957529Y-122540858D01*
X178974059Y-122494658D01*
X178995038Y-122450302D01*
X179020264Y-122408215D01*
X179049494Y-122368803D01*
X179082446Y-122332447D01*
X179118802Y-122299495D01*
X179158214Y-122270265D01*
X179200301Y-122245039D01*
X179244657Y-122224060D01*
X179290857Y-122207530D01*
X179338454Y-122195607D01*
X179386990Y-122188408D01*
X179435999Y-122186000D01*
X179436001Y-122186000D01*
X179485010Y-122188408D01*
X179485010Y-122188408D01*
G37*
D22*
X179436000Y-122936000D03*
D21*
G36*
X180785010Y-122188408D02*
X180833546Y-122195607D01*
X180881143Y-122207530D01*
X180927343Y-122224060D01*
X180971699Y-122245039D01*
X181013786Y-122270265D01*
X181053198Y-122299495D01*
X181089554Y-122332447D01*
X181122506Y-122368803D01*
X181151736Y-122408215D01*
X181176962Y-122450302D01*
X181197941Y-122494658D01*
X181214471Y-122540858D01*
X181226394Y-122588455D01*
X181233593Y-122636991D01*
X181236001Y-122686000D01*
X181236001Y-123186000D01*
X181233593Y-123235009D01*
X181226394Y-123283545D01*
X181214471Y-123331142D01*
X181197941Y-123377342D01*
X181176962Y-123421698D01*
X181151736Y-123463785D01*
X181122506Y-123503197D01*
X181089554Y-123539553D01*
X181053198Y-123572505D01*
X181013786Y-123601735D01*
X180971699Y-123626961D01*
X180927343Y-123647940D01*
X180881143Y-123664470D01*
X180833546Y-123676393D01*
X180785010Y-123683592D01*
X180736001Y-123686000D01*
X180735999Y-123686000D01*
X180686990Y-123683592D01*
X180638454Y-123676393D01*
X180590857Y-123664470D01*
X180544657Y-123647940D01*
X180500301Y-123626961D01*
X180458214Y-123601735D01*
X180418802Y-123572505D01*
X180382446Y-123539553D01*
X180349494Y-123503197D01*
X180320264Y-123463785D01*
X180295038Y-123421698D01*
X180274059Y-123377342D01*
X180257529Y-123331142D01*
X180245606Y-123283545D01*
X180238407Y-123235009D01*
X180235999Y-123186000D01*
X180235999Y-122686000D01*
X180238407Y-122636991D01*
X180245606Y-122588455D01*
X180257529Y-122540858D01*
X180274059Y-122494658D01*
X180295038Y-122450302D01*
X180320264Y-122408215D01*
X180349494Y-122368803D01*
X180382446Y-122332447D01*
X180418802Y-122299495D01*
X180458214Y-122270265D01*
X180500301Y-122245039D01*
X180544657Y-122224060D01*
X180590857Y-122207530D01*
X180638454Y-122195607D01*
X180686990Y-122188408D01*
X180735999Y-122186000D01*
X180736001Y-122186000D01*
X180785010Y-122188408D01*
X180785010Y-122188408D01*
G37*
D22*
X180736000Y-122936000D03*
D11*
X192532000Y-134970000D03*
D12*
X196282000Y-133970000D03*
X188782000Y-138970000D03*
X196282000Y-140970000D03*
D11*
X192532000Y-140970000D03*
D10*
X149352000Y-120037860D03*
X149352000Y-117198140D03*
D11*
X152400000Y-135224000D03*
D12*
X156150000Y-134224000D03*
X148650000Y-139224000D03*
X156150000Y-141224000D03*
D11*
X152400000Y-141224000D03*
D13*
X166116000Y-104316000D03*
X166116000Y-113616000D03*
D14*
X162638000Y-112776000D03*
X153338000Y-112776000D03*
D15*
X149098000Y-129794000D03*
X149098000Y-125794000D03*
D13*
X149606000Y-104062000D03*
X149606000Y-113362000D03*
D14*
X162638000Y-119888000D03*
X153338000Y-119888000D03*
D16*
X156718000Y-125509020D03*
X156718000Y-129506980D03*
D17*
X152828000Y-116433600D03*
X155528000Y-116433600D03*
D10*
X165862000Y-117452140D03*
X165862000Y-120291860D03*
D18*
X170434000Y-141732000D03*
X170434000Y-139192000D03*
X170434000Y-136652000D03*
X170434000Y-134112000D03*
X170434000Y-131572000D03*
X170434000Y-129032000D03*
X170434000Y-126492000D03*
X170434000Y-123952000D03*
X170434000Y-121412000D03*
X170434000Y-118872000D03*
X170434000Y-116332000D03*
X170434000Y-113792000D03*
X170434000Y-111252000D03*
X170434000Y-108712000D03*
X170434000Y-106172000D03*
D19*
X170434000Y-103632000D03*
D14*
X162638000Y-104394000D03*
X153338000Y-104394000D03*
D19*
X145034000Y-141732000D03*
D18*
X145034000Y-139192000D03*
X145034000Y-136652000D03*
X145034000Y-134112000D03*
X145034000Y-131572000D03*
X145034000Y-129032000D03*
X145034000Y-126492000D03*
X145034000Y-123952000D03*
X145034000Y-121412000D03*
X145034000Y-118872000D03*
X145034000Y-116332000D03*
X145034000Y-113792000D03*
X145034000Y-111252000D03*
X145034000Y-108712000D03*
X145034000Y-106172000D03*
X145034000Y-103632000D03*
D14*
X162638000Y-108864400D03*
X153338000Y-108864400D03*
D11*
X159258000Y-135145000D03*
X159258000Y-141145000D03*
D16*
X160604200Y-129473960D03*
X160604200Y-125476000D03*
X153416000Y-129506980D03*
X153416000Y-125509020D03*
D15*
X163322000Y-125508000D03*
X163322000Y-129508000D03*
X166370000Y-129508000D03*
X166370000Y-125508000D03*
D17*
X160498800Y-116433600D03*
X163198800Y-116433600D03*
D20*
X151022000Y-122936000D03*
X150222000Y-122936000D03*
D21*
G36*
X150021010Y-122188408D02*
X150069546Y-122195607D01*
X150117143Y-122207530D01*
X150163343Y-122224060D01*
X150207699Y-122245039D01*
X150249786Y-122270265D01*
X150289198Y-122299495D01*
X150325554Y-122332447D01*
X150358506Y-122368803D01*
X150387736Y-122408215D01*
X150412962Y-122450302D01*
X150433941Y-122494658D01*
X150450471Y-122540858D01*
X150462394Y-122588455D01*
X150469593Y-122636991D01*
X150472001Y-122686000D01*
X150472001Y-123186000D01*
X150469593Y-123235009D01*
X150462394Y-123283545D01*
X150450471Y-123331142D01*
X150433941Y-123377342D01*
X150412962Y-123421698D01*
X150387736Y-123463785D01*
X150358506Y-123503197D01*
X150325554Y-123539553D01*
X150289198Y-123572505D01*
X150249786Y-123601735D01*
X150207699Y-123626961D01*
X150163343Y-123647940D01*
X150117143Y-123664470D01*
X150069546Y-123676393D01*
X150021010Y-123683592D01*
X149972001Y-123686000D01*
X149971999Y-123686000D01*
X149922990Y-123683592D01*
X149874454Y-123676393D01*
X149826857Y-123664470D01*
X149780657Y-123647940D01*
X149736301Y-123626961D01*
X149694214Y-123601735D01*
X149654802Y-123572505D01*
X149618446Y-123539553D01*
X149585494Y-123503197D01*
X149556264Y-123463785D01*
X149531038Y-123421698D01*
X149510059Y-123377342D01*
X149493529Y-123331142D01*
X149481606Y-123283545D01*
X149474407Y-123235009D01*
X149471999Y-123186000D01*
X149471999Y-122686000D01*
X149474407Y-122636991D01*
X149481606Y-122588455D01*
X149493529Y-122540858D01*
X149510059Y-122494658D01*
X149531038Y-122450302D01*
X149556264Y-122408215D01*
X149585494Y-122368803D01*
X149618446Y-122332447D01*
X149654802Y-122299495D01*
X149694214Y-122270265D01*
X149736301Y-122245039D01*
X149780657Y-122224060D01*
X149826857Y-122207530D01*
X149874454Y-122195607D01*
X149922990Y-122188408D01*
X149971999Y-122186000D01*
X149972001Y-122186000D01*
X150021010Y-122188408D01*
X150021010Y-122188408D01*
G37*
D22*
X149972000Y-122936000D03*
D21*
G36*
X151321010Y-122188408D02*
X151369546Y-122195607D01*
X151417143Y-122207530D01*
X151463343Y-122224060D01*
X151507699Y-122245039D01*
X151549786Y-122270265D01*
X151589198Y-122299495D01*
X151625554Y-122332447D01*
X151658506Y-122368803D01*
X151687736Y-122408215D01*
X151712962Y-122450302D01*
X151733941Y-122494658D01*
X151750471Y-122540858D01*
X151762394Y-122588455D01*
X151769593Y-122636991D01*
X151772001Y-122686000D01*
X151772001Y-123186000D01*
X151769593Y-123235009D01*
X151762394Y-123283545D01*
X151750471Y-123331142D01*
X151733941Y-123377342D01*
X151712962Y-123421698D01*
X151687736Y-123463785D01*
X151658506Y-123503197D01*
X151625554Y-123539553D01*
X151589198Y-123572505D01*
X151549786Y-123601735D01*
X151507699Y-123626961D01*
X151463343Y-123647940D01*
X151417143Y-123664470D01*
X151369546Y-123676393D01*
X151321010Y-123683592D01*
X151272001Y-123686000D01*
X151271999Y-123686000D01*
X151222990Y-123683592D01*
X151174454Y-123676393D01*
X151126857Y-123664470D01*
X151080657Y-123647940D01*
X151036301Y-123626961D01*
X150994214Y-123601735D01*
X150954802Y-123572505D01*
X150918446Y-123539553D01*
X150885494Y-123503197D01*
X150856264Y-123463785D01*
X150831038Y-123421698D01*
X150810059Y-123377342D01*
X150793529Y-123331142D01*
X150781606Y-123283545D01*
X150774407Y-123235009D01*
X150771999Y-123186000D01*
X150771999Y-122686000D01*
X150774407Y-122636991D01*
X150781606Y-122588455D01*
X150793529Y-122540858D01*
X150810059Y-122494658D01*
X150831038Y-122450302D01*
X150856264Y-122408215D01*
X150885494Y-122368803D01*
X150918446Y-122332447D01*
X150954802Y-122299495D01*
X150994214Y-122270265D01*
X151036301Y-122245039D01*
X151080657Y-122224060D01*
X151126857Y-122207530D01*
X151174454Y-122195607D01*
X151222990Y-122188408D01*
X151271999Y-122186000D01*
X151272001Y-122186000D01*
X151321010Y-122188408D01*
X151321010Y-122188408D01*
G37*
D22*
X151272000Y-122936000D03*
D11*
X163068000Y-134970000D03*
D12*
X166818000Y-133970000D03*
X159318000Y-138970000D03*
X166818000Y-140970000D03*
D11*
X163068000Y-140970000D03*
D10*
X119888000Y-120037860D03*
X119888000Y-117198140D03*
D11*
X122936000Y-135224000D03*
D12*
X126686000Y-134224000D03*
X119186000Y-139224000D03*
X126686000Y-141224000D03*
D11*
X122936000Y-141224000D03*
D13*
X136652000Y-104316000D03*
X136652000Y-113616000D03*
D14*
X133174000Y-112776000D03*
X123874000Y-112776000D03*
D15*
X119634000Y-129794000D03*
X119634000Y-125794000D03*
D13*
X120142000Y-104062000D03*
X120142000Y-113362000D03*
D14*
X133174000Y-119888000D03*
X123874000Y-119888000D03*
D16*
X127254000Y-125509020D03*
X127254000Y-129506980D03*
D17*
X123364000Y-116433600D03*
X126064000Y-116433600D03*
D10*
X136398000Y-117452140D03*
X136398000Y-120291860D03*
D18*
X140970000Y-141732000D03*
X140970000Y-139192000D03*
X140970000Y-136652000D03*
X140970000Y-134112000D03*
X140970000Y-131572000D03*
X140970000Y-129032000D03*
X140970000Y-126492000D03*
X140970000Y-123952000D03*
X140970000Y-121412000D03*
X140970000Y-118872000D03*
X140970000Y-116332000D03*
X140970000Y-113792000D03*
X140970000Y-111252000D03*
X140970000Y-108712000D03*
X140970000Y-106172000D03*
D19*
X140970000Y-103632000D03*
D14*
X133174000Y-104394000D03*
X123874000Y-104394000D03*
D19*
X115570000Y-141732000D03*
D18*
X115570000Y-139192000D03*
X115570000Y-136652000D03*
X115570000Y-134112000D03*
X115570000Y-131572000D03*
X115570000Y-129032000D03*
X115570000Y-126492000D03*
X115570000Y-123952000D03*
X115570000Y-121412000D03*
X115570000Y-118872000D03*
X115570000Y-116332000D03*
X115570000Y-113792000D03*
X115570000Y-111252000D03*
X115570000Y-108712000D03*
X115570000Y-106172000D03*
X115570000Y-103632000D03*
D14*
X133174000Y-108864400D03*
X123874000Y-108864400D03*
D11*
X129794000Y-135145000D03*
X129794000Y-141145000D03*
D16*
X131140200Y-129473960D03*
X131140200Y-125476000D03*
X123952000Y-129506980D03*
X123952000Y-125509020D03*
D15*
X133858000Y-125508000D03*
X133858000Y-129508000D03*
X136906000Y-129508000D03*
X136906000Y-125508000D03*
D17*
X131034800Y-116433600D03*
X133734800Y-116433600D03*
D20*
X121558000Y-122936000D03*
X120758000Y-122936000D03*
D21*
G36*
X120557010Y-122188408D02*
X120605546Y-122195607D01*
X120653143Y-122207530D01*
X120699343Y-122224060D01*
X120743699Y-122245039D01*
X120785786Y-122270265D01*
X120825198Y-122299495D01*
X120861554Y-122332447D01*
X120894506Y-122368803D01*
X120923736Y-122408215D01*
X120948962Y-122450302D01*
X120969941Y-122494658D01*
X120986471Y-122540858D01*
X120998394Y-122588455D01*
X121005593Y-122636991D01*
X121008001Y-122686000D01*
X121008001Y-123186000D01*
X121005593Y-123235009D01*
X120998394Y-123283545D01*
X120986471Y-123331142D01*
X120969941Y-123377342D01*
X120948962Y-123421698D01*
X120923736Y-123463785D01*
X120894506Y-123503197D01*
X120861554Y-123539553D01*
X120825198Y-123572505D01*
X120785786Y-123601735D01*
X120743699Y-123626961D01*
X120699343Y-123647940D01*
X120653143Y-123664470D01*
X120605546Y-123676393D01*
X120557010Y-123683592D01*
X120508001Y-123686000D01*
X120507999Y-123686000D01*
X120458990Y-123683592D01*
X120410454Y-123676393D01*
X120362857Y-123664470D01*
X120316657Y-123647940D01*
X120272301Y-123626961D01*
X120230214Y-123601735D01*
X120190802Y-123572505D01*
X120154446Y-123539553D01*
X120121494Y-123503197D01*
X120092264Y-123463785D01*
X120067038Y-123421698D01*
X120046059Y-123377342D01*
X120029529Y-123331142D01*
X120017606Y-123283545D01*
X120010407Y-123235009D01*
X120007999Y-123186000D01*
X120007999Y-122686000D01*
X120010407Y-122636991D01*
X120017606Y-122588455D01*
X120029529Y-122540858D01*
X120046059Y-122494658D01*
X120067038Y-122450302D01*
X120092264Y-122408215D01*
X120121494Y-122368803D01*
X120154446Y-122332447D01*
X120190802Y-122299495D01*
X120230214Y-122270265D01*
X120272301Y-122245039D01*
X120316657Y-122224060D01*
X120362857Y-122207530D01*
X120410454Y-122195607D01*
X120458990Y-122188408D01*
X120507999Y-122186000D01*
X120508001Y-122186000D01*
X120557010Y-122188408D01*
X120557010Y-122188408D01*
G37*
D22*
X120508000Y-122936000D03*
D21*
G36*
X121857010Y-122188408D02*
X121905546Y-122195607D01*
X121953143Y-122207530D01*
X121999343Y-122224060D01*
X122043699Y-122245039D01*
X122085786Y-122270265D01*
X122125198Y-122299495D01*
X122161554Y-122332447D01*
X122194506Y-122368803D01*
X122223736Y-122408215D01*
X122248962Y-122450302D01*
X122269941Y-122494658D01*
X122286471Y-122540858D01*
X122298394Y-122588455D01*
X122305593Y-122636991D01*
X122308001Y-122686000D01*
X122308001Y-123186000D01*
X122305593Y-123235009D01*
X122298394Y-123283545D01*
X122286471Y-123331142D01*
X122269941Y-123377342D01*
X122248962Y-123421698D01*
X122223736Y-123463785D01*
X122194506Y-123503197D01*
X122161554Y-123539553D01*
X122125198Y-123572505D01*
X122085786Y-123601735D01*
X122043699Y-123626961D01*
X121999343Y-123647940D01*
X121953143Y-123664470D01*
X121905546Y-123676393D01*
X121857010Y-123683592D01*
X121808001Y-123686000D01*
X121807999Y-123686000D01*
X121758990Y-123683592D01*
X121710454Y-123676393D01*
X121662857Y-123664470D01*
X121616657Y-123647940D01*
X121572301Y-123626961D01*
X121530214Y-123601735D01*
X121490802Y-123572505D01*
X121454446Y-123539553D01*
X121421494Y-123503197D01*
X121392264Y-123463785D01*
X121367038Y-123421698D01*
X121346059Y-123377342D01*
X121329529Y-123331142D01*
X121317606Y-123283545D01*
X121310407Y-123235009D01*
X121307999Y-123186000D01*
X121307999Y-122686000D01*
X121310407Y-122636991D01*
X121317606Y-122588455D01*
X121329529Y-122540858D01*
X121346059Y-122494658D01*
X121367038Y-122450302D01*
X121392264Y-122408215D01*
X121421494Y-122368803D01*
X121454446Y-122332447D01*
X121490802Y-122299495D01*
X121530214Y-122270265D01*
X121572301Y-122245039D01*
X121616657Y-122224060D01*
X121662857Y-122207530D01*
X121710454Y-122195607D01*
X121758990Y-122188408D01*
X121807999Y-122186000D01*
X121808001Y-122186000D01*
X121857010Y-122188408D01*
X121857010Y-122188408D01*
G37*
D22*
X121808000Y-122936000D03*
D11*
X133604000Y-134970000D03*
D12*
X137354000Y-133970000D03*
X129854000Y-138970000D03*
X137354000Y-140970000D03*
D11*
X133604000Y-140970000D03*
D10*
X178816000Y-77873860D03*
X178816000Y-75034140D03*
D11*
X181864000Y-93060000D03*
D12*
X185614000Y-92060000D03*
X178114000Y-97060000D03*
X185614000Y-99060000D03*
D11*
X181864000Y-99060000D03*
D13*
X195580000Y-62152000D03*
X195580000Y-71452000D03*
D14*
X192102000Y-70612000D03*
X182802000Y-70612000D03*
D15*
X178562000Y-87630000D03*
X178562000Y-83630000D03*
D13*
X179070000Y-61898000D03*
X179070000Y-71198000D03*
D14*
X192102000Y-77724000D03*
X182802000Y-77724000D03*
D16*
X186182000Y-83345020D03*
X186182000Y-87342980D03*
D17*
X182292000Y-74269600D03*
X184992000Y-74269600D03*
D10*
X195326000Y-75288140D03*
X195326000Y-78127860D03*
D18*
X199898000Y-99568000D03*
X199898000Y-97028000D03*
X199898000Y-94488000D03*
X199898000Y-91948000D03*
X199898000Y-89408000D03*
X199898000Y-86868000D03*
X199898000Y-84328000D03*
X199898000Y-81788000D03*
X199898000Y-79248000D03*
X199898000Y-76708000D03*
X199898000Y-74168000D03*
X199898000Y-71628000D03*
X199898000Y-69088000D03*
X199898000Y-66548000D03*
X199898000Y-64008000D03*
D19*
X199898000Y-61468000D03*
D14*
X192102000Y-62230000D03*
X182802000Y-62230000D03*
D19*
X174498000Y-99568000D03*
D18*
X174498000Y-97028000D03*
X174498000Y-94488000D03*
X174498000Y-91948000D03*
X174498000Y-89408000D03*
X174498000Y-86868000D03*
X174498000Y-84328000D03*
X174498000Y-81788000D03*
X174498000Y-79248000D03*
X174498000Y-76708000D03*
X174498000Y-74168000D03*
X174498000Y-71628000D03*
X174498000Y-69088000D03*
X174498000Y-66548000D03*
X174498000Y-64008000D03*
X174498000Y-61468000D03*
D14*
X192102000Y-66700400D03*
X182802000Y-66700400D03*
D11*
X188722000Y-92981000D03*
X188722000Y-98981000D03*
D16*
X190068200Y-87309960D03*
X190068200Y-83312000D03*
X182880000Y-87342980D03*
X182880000Y-83345020D03*
D15*
X192786000Y-83344000D03*
X192786000Y-87344000D03*
X195834000Y-87344000D03*
X195834000Y-83344000D03*
D17*
X189962800Y-74269600D03*
X192662800Y-74269600D03*
D20*
X180486000Y-80772000D03*
X179686000Y-80772000D03*
D21*
G36*
X179485010Y-80024408D02*
X179533546Y-80031607D01*
X179581143Y-80043530D01*
X179627343Y-80060060D01*
X179671699Y-80081039D01*
X179713786Y-80106265D01*
X179753198Y-80135495D01*
X179789554Y-80168447D01*
X179822506Y-80204803D01*
X179851736Y-80244215D01*
X179876962Y-80286302D01*
X179897941Y-80330658D01*
X179914471Y-80376858D01*
X179926394Y-80424455D01*
X179933593Y-80472991D01*
X179936001Y-80522000D01*
X179936001Y-81022000D01*
X179933593Y-81071009D01*
X179926394Y-81119545D01*
X179914471Y-81167142D01*
X179897941Y-81213342D01*
X179876962Y-81257698D01*
X179851736Y-81299785D01*
X179822506Y-81339197D01*
X179789554Y-81375553D01*
X179753198Y-81408505D01*
X179713786Y-81437735D01*
X179671699Y-81462961D01*
X179627343Y-81483940D01*
X179581143Y-81500470D01*
X179533546Y-81512393D01*
X179485010Y-81519592D01*
X179436001Y-81522000D01*
X179435999Y-81522000D01*
X179386990Y-81519592D01*
X179338454Y-81512393D01*
X179290857Y-81500470D01*
X179244657Y-81483940D01*
X179200301Y-81462961D01*
X179158214Y-81437735D01*
X179118802Y-81408505D01*
X179082446Y-81375553D01*
X179049494Y-81339197D01*
X179020264Y-81299785D01*
X178995038Y-81257698D01*
X178974059Y-81213342D01*
X178957529Y-81167142D01*
X178945606Y-81119545D01*
X178938407Y-81071009D01*
X178935999Y-81022000D01*
X178935999Y-80522000D01*
X178938407Y-80472991D01*
X178945606Y-80424455D01*
X178957529Y-80376858D01*
X178974059Y-80330658D01*
X178995038Y-80286302D01*
X179020264Y-80244215D01*
X179049494Y-80204803D01*
X179082446Y-80168447D01*
X179118802Y-80135495D01*
X179158214Y-80106265D01*
X179200301Y-80081039D01*
X179244657Y-80060060D01*
X179290857Y-80043530D01*
X179338454Y-80031607D01*
X179386990Y-80024408D01*
X179435999Y-80022000D01*
X179436001Y-80022000D01*
X179485010Y-80024408D01*
X179485010Y-80024408D01*
G37*
D22*
X179436000Y-80772000D03*
D21*
G36*
X180785010Y-80024408D02*
X180833546Y-80031607D01*
X180881143Y-80043530D01*
X180927343Y-80060060D01*
X180971699Y-80081039D01*
X181013786Y-80106265D01*
X181053198Y-80135495D01*
X181089554Y-80168447D01*
X181122506Y-80204803D01*
X181151736Y-80244215D01*
X181176962Y-80286302D01*
X181197941Y-80330658D01*
X181214471Y-80376858D01*
X181226394Y-80424455D01*
X181233593Y-80472991D01*
X181236001Y-80522000D01*
X181236001Y-81022000D01*
X181233593Y-81071009D01*
X181226394Y-81119545D01*
X181214471Y-81167142D01*
X181197941Y-81213342D01*
X181176962Y-81257698D01*
X181151736Y-81299785D01*
X181122506Y-81339197D01*
X181089554Y-81375553D01*
X181053198Y-81408505D01*
X181013786Y-81437735D01*
X180971699Y-81462961D01*
X180927343Y-81483940D01*
X180881143Y-81500470D01*
X180833546Y-81512393D01*
X180785010Y-81519592D01*
X180736001Y-81522000D01*
X180735999Y-81522000D01*
X180686990Y-81519592D01*
X180638454Y-81512393D01*
X180590857Y-81500470D01*
X180544657Y-81483940D01*
X180500301Y-81462961D01*
X180458214Y-81437735D01*
X180418802Y-81408505D01*
X180382446Y-81375553D01*
X180349494Y-81339197D01*
X180320264Y-81299785D01*
X180295038Y-81257698D01*
X180274059Y-81213342D01*
X180257529Y-81167142D01*
X180245606Y-81119545D01*
X180238407Y-81071009D01*
X180235999Y-81022000D01*
X180235999Y-80522000D01*
X180238407Y-80472991D01*
X180245606Y-80424455D01*
X180257529Y-80376858D01*
X180274059Y-80330658D01*
X180295038Y-80286302D01*
X180320264Y-80244215D01*
X180349494Y-80204803D01*
X180382446Y-80168447D01*
X180418802Y-80135495D01*
X180458214Y-80106265D01*
X180500301Y-80081039D01*
X180544657Y-80060060D01*
X180590857Y-80043530D01*
X180638454Y-80031607D01*
X180686990Y-80024408D01*
X180735999Y-80022000D01*
X180736001Y-80022000D01*
X180785010Y-80024408D01*
X180785010Y-80024408D01*
G37*
D22*
X180736000Y-80772000D03*
D11*
X192532000Y-92806000D03*
D12*
X196282000Y-91806000D03*
X188782000Y-96806000D03*
X196282000Y-98806000D03*
D11*
X192532000Y-98806000D03*
D10*
X149352000Y-77873860D03*
X149352000Y-75034140D03*
D11*
X152400000Y-93060000D03*
D12*
X156150000Y-92060000D03*
X148650000Y-97060000D03*
X156150000Y-99060000D03*
D11*
X152400000Y-99060000D03*
D13*
X166116000Y-62152000D03*
X166116000Y-71452000D03*
D14*
X162638000Y-70612000D03*
X153338000Y-70612000D03*
D15*
X149098000Y-87630000D03*
X149098000Y-83630000D03*
D13*
X149606000Y-61898000D03*
X149606000Y-71198000D03*
D14*
X162638000Y-77724000D03*
X153338000Y-77724000D03*
D16*
X156718000Y-83345020D03*
X156718000Y-87342980D03*
D17*
X152828000Y-74269600D03*
X155528000Y-74269600D03*
D10*
X165862000Y-75288140D03*
X165862000Y-78127860D03*
D18*
X170434000Y-99568000D03*
X170434000Y-97028000D03*
X170434000Y-94488000D03*
X170434000Y-91948000D03*
X170434000Y-89408000D03*
X170434000Y-86868000D03*
X170434000Y-84328000D03*
X170434000Y-81788000D03*
X170434000Y-79248000D03*
X170434000Y-76708000D03*
X170434000Y-74168000D03*
X170434000Y-71628000D03*
X170434000Y-69088000D03*
X170434000Y-66548000D03*
X170434000Y-64008000D03*
D19*
X170434000Y-61468000D03*
D14*
X162638000Y-62230000D03*
X153338000Y-62230000D03*
D19*
X145034000Y-99568000D03*
D18*
X145034000Y-97028000D03*
X145034000Y-94488000D03*
X145034000Y-91948000D03*
X145034000Y-89408000D03*
X145034000Y-86868000D03*
X145034000Y-84328000D03*
X145034000Y-81788000D03*
X145034000Y-79248000D03*
X145034000Y-76708000D03*
X145034000Y-74168000D03*
X145034000Y-71628000D03*
X145034000Y-69088000D03*
X145034000Y-66548000D03*
X145034000Y-64008000D03*
X145034000Y-61468000D03*
D14*
X162638000Y-66700400D03*
X153338000Y-66700400D03*
D11*
X159258000Y-92981000D03*
X159258000Y-98981000D03*
D16*
X160604200Y-87309960D03*
X160604200Y-83312000D03*
X153416000Y-87342980D03*
X153416000Y-83345020D03*
D15*
X163322000Y-83344000D03*
X163322000Y-87344000D03*
X166370000Y-87344000D03*
X166370000Y-83344000D03*
D17*
X160498800Y-74269600D03*
X163198800Y-74269600D03*
D20*
X151022000Y-80772000D03*
X150222000Y-80772000D03*
D21*
G36*
X150021010Y-80024408D02*
X150069546Y-80031607D01*
X150117143Y-80043530D01*
X150163343Y-80060060D01*
X150207699Y-80081039D01*
X150249786Y-80106265D01*
X150289198Y-80135495D01*
X150325554Y-80168447D01*
X150358506Y-80204803D01*
X150387736Y-80244215D01*
X150412962Y-80286302D01*
X150433941Y-80330658D01*
X150450471Y-80376858D01*
X150462394Y-80424455D01*
X150469593Y-80472991D01*
X150472001Y-80522000D01*
X150472001Y-81022000D01*
X150469593Y-81071009D01*
X150462394Y-81119545D01*
X150450471Y-81167142D01*
X150433941Y-81213342D01*
X150412962Y-81257698D01*
X150387736Y-81299785D01*
X150358506Y-81339197D01*
X150325554Y-81375553D01*
X150289198Y-81408505D01*
X150249786Y-81437735D01*
X150207699Y-81462961D01*
X150163343Y-81483940D01*
X150117143Y-81500470D01*
X150069546Y-81512393D01*
X150021010Y-81519592D01*
X149972001Y-81522000D01*
X149971999Y-81522000D01*
X149922990Y-81519592D01*
X149874454Y-81512393D01*
X149826857Y-81500470D01*
X149780657Y-81483940D01*
X149736301Y-81462961D01*
X149694214Y-81437735D01*
X149654802Y-81408505D01*
X149618446Y-81375553D01*
X149585494Y-81339197D01*
X149556264Y-81299785D01*
X149531038Y-81257698D01*
X149510059Y-81213342D01*
X149493529Y-81167142D01*
X149481606Y-81119545D01*
X149474407Y-81071009D01*
X149471999Y-81022000D01*
X149471999Y-80522000D01*
X149474407Y-80472991D01*
X149481606Y-80424455D01*
X149493529Y-80376858D01*
X149510059Y-80330658D01*
X149531038Y-80286302D01*
X149556264Y-80244215D01*
X149585494Y-80204803D01*
X149618446Y-80168447D01*
X149654802Y-80135495D01*
X149694214Y-80106265D01*
X149736301Y-80081039D01*
X149780657Y-80060060D01*
X149826857Y-80043530D01*
X149874454Y-80031607D01*
X149922990Y-80024408D01*
X149971999Y-80022000D01*
X149972001Y-80022000D01*
X150021010Y-80024408D01*
X150021010Y-80024408D01*
G37*
D22*
X149972000Y-80772000D03*
D21*
G36*
X151321010Y-80024408D02*
X151369546Y-80031607D01*
X151417143Y-80043530D01*
X151463343Y-80060060D01*
X151507699Y-80081039D01*
X151549786Y-80106265D01*
X151589198Y-80135495D01*
X151625554Y-80168447D01*
X151658506Y-80204803D01*
X151687736Y-80244215D01*
X151712962Y-80286302D01*
X151733941Y-80330658D01*
X151750471Y-80376858D01*
X151762394Y-80424455D01*
X151769593Y-80472991D01*
X151772001Y-80522000D01*
X151772001Y-81022000D01*
X151769593Y-81071009D01*
X151762394Y-81119545D01*
X151750471Y-81167142D01*
X151733941Y-81213342D01*
X151712962Y-81257698D01*
X151687736Y-81299785D01*
X151658506Y-81339197D01*
X151625554Y-81375553D01*
X151589198Y-81408505D01*
X151549786Y-81437735D01*
X151507699Y-81462961D01*
X151463343Y-81483940D01*
X151417143Y-81500470D01*
X151369546Y-81512393D01*
X151321010Y-81519592D01*
X151272001Y-81522000D01*
X151271999Y-81522000D01*
X151222990Y-81519592D01*
X151174454Y-81512393D01*
X151126857Y-81500470D01*
X151080657Y-81483940D01*
X151036301Y-81462961D01*
X150994214Y-81437735D01*
X150954802Y-81408505D01*
X150918446Y-81375553D01*
X150885494Y-81339197D01*
X150856264Y-81299785D01*
X150831038Y-81257698D01*
X150810059Y-81213342D01*
X150793529Y-81167142D01*
X150781606Y-81119545D01*
X150774407Y-81071009D01*
X150771999Y-81022000D01*
X150771999Y-80522000D01*
X150774407Y-80472991D01*
X150781606Y-80424455D01*
X150793529Y-80376858D01*
X150810059Y-80330658D01*
X150831038Y-80286302D01*
X150856264Y-80244215D01*
X150885494Y-80204803D01*
X150918446Y-80168447D01*
X150954802Y-80135495D01*
X150994214Y-80106265D01*
X151036301Y-80081039D01*
X151080657Y-80060060D01*
X151126857Y-80043530D01*
X151174454Y-80031607D01*
X151222990Y-80024408D01*
X151271999Y-80022000D01*
X151272001Y-80022000D01*
X151321010Y-80024408D01*
X151321010Y-80024408D01*
G37*
D22*
X151272000Y-80772000D03*
D11*
X163068000Y-92806000D03*
D12*
X166818000Y-91806000D03*
X159318000Y-96806000D03*
X166818000Y-98806000D03*
D11*
X163068000Y-98806000D03*
D14*
X123874000Y-77724000D03*
X133174000Y-77724000D03*
D13*
X136652000Y-71452000D03*
X136652000Y-62152000D03*
X120142000Y-71198000D03*
X120142000Y-61898000D03*
D14*
X123874000Y-70612000D03*
X133174000Y-70612000D03*
X123874000Y-66700400D03*
X133174000Y-66700400D03*
X123874000Y-62230000D03*
X133174000Y-62230000D03*
D11*
X122936000Y-99060000D03*
D12*
X126686000Y-99060000D03*
X119186000Y-97060000D03*
X126686000Y-92060000D03*
D11*
X122936000Y-93060000D03*
X133604000Y-98806000D03*
D12*
X137354000Y-98806000D03*
X129854000Y-96806000D03*
X137354000Y-91806000D03*
D11*
X133604000Y-92806000D03*
D16*
X123952000Y-83345020D03*
X123952000Y-87342980D03*
D18*
X115570000Y-61468000D03*
X115570000Y-64008000D03*
X115570000Y-66548000D03*
X115570000Y-69088000D03*
X115570000Y-71628000D03*
X115570000Y-74168000D03*
X115570000Y-76708000D03*
X115570000Y-79248000D03*
X115570000Y-81788000D03*
X115570000Y-84328000D03*
X115570000Y-86868000D03*
X115570000Y-89408000D03*
X115570000Y-91948000D03*
X115570000Y-94488000D03*
X115570000Y-97028000D03*
D19*
X115570000Y-99568000D03*
X140970000Y-61468000D03*
D18*
X140970000Y-64008000D03*
X140970000Y-66548000D03*
X140970000Y-69088000D03*
X140970000Y-71628000D03*
X140970000Y-74168000D03*
X140970000Y-76708000D03*
X140970000Y-79248000D03*
X140970000Y-81788000D03*
X140970000Y-84328000D03*
X140970000Y-86868000D03*
X140970000Y-89408000D03*
X140970000Y-91948000D03*
X140970000Y-94488000D03*
X140970000Y-97028000D03*
X140970000Y-99568000D03*
D10*
X119888000Y-75034140D03*
X119888000Y-77873860D03*
X136398000Y-78127860D03*
X136398000Y-75288140D03*
D17*
X126064000Y-74269600D03*
X123364000Y-74269600D03*
X133734800Y-74269600D03*
X131034800Y-74269600D03*
D11*
X129794000Y-98981000D03*
X129794000Y-92981000D03*
D15*
X119634000Y-83630000D03*
X119634000Y-87630000D03*
D16*
X131140200Y-83312000D03*
X131140200Y-87309960D03*
X127254000Y-87342980D03*
X127254000Y-83345020D03*
D15*
X133858000Y-87344000D03*
X133858000Y-83344000D03*
X136906000Y-83344000D03*
X136906000Y-87344000D03*
D21*
G36*
X121857010Y-80024408D02*
X121905546Y-80031607D01*
X121953143Y-80043530D01*
X121999343Y-80060060D01*
X122043699Y-80081039D01*
X122085786Y-80106265D01*
X122125198Y-80135495D01*
X122161554Y-80168447D01*
X122194506Y-80204803D01*
X122223736Y-80244215D01*
X122248962Y-80286302D01*
X122269941Y-80330658D01*
X122286471Y-80376858D01*
X122298394Y-80424455D01*
X122305593Y-80472991D01*
X122308001Y-80522000D01*
X122308001Y-81022000D01*
X122305593Y-81071009D01*
X122298394Y-81119545D01*
X122286471Y-81167142D01*
X122269941Y-81213342D01*
X122248962Y-81257698D01*
X122223736Y-81299785D01*
X122194506Y-81339197D01*
X122161554Y-81375553D01*
X122125198Y-81408505D01*
X122085786Y-81437735D01*
X122043699Y-81462961D01*
X121999343Y-81483940D01*
X121953143Y-81500470D01*
X121905546Y-81512393D01*
X121857010Y-81519592D01*
X121808001Y-81522000D01*
X121807999Y-81522000D01*
X121758990Y-81519592D01*
X121710454Y-81512393D01*
X121662857Y-81500470D01*
X121616657Y-81483940D01*
X121572301Y-81462961D01*
X121530214Y-81437735D01*
X121490802Y-81408505D01*
X121454446Y-81375553D01*
X121421494Y-81339197D01*
X121392264Y-81299785D01*
X121367038Y-81257698D01*
X121346059Y-81213342D01*
X121329529Y-81167142D01*
X121317606Y-81119545D01*
X121310407Y-81071009D01*
X121307999Y-81022000D01*
X121307999Y-80522000D01*
X121310407Y-80472991D01*
X121317606Y-80424455D01*
X121329529Y-80376858D01*
X121346059Y-80330658D01*
X121367038Y-80286302D01*
X121392264Y-80244215D01*
X121421494Y-80204803D01*
X121454446Y-80168447D01*
X121490802Y-80135495D01*
X121530214Y-80106265D01*
X121572301Y-80081039D01*
X121616657Y-80060060D01*
X121662857Y-80043530D01*
X121710454Y-80031607D01*
X121758990Y-80024408D01*
X121807999Y-80022000D01*
X121808001Y-80022000D01*
X121857010Y-80024408D01*
X121857010Y-80024408D01*
G37*
D22*
X121808000Y-80772000D03*
D21*
G36*
X120557010Y-80024408D02*
X120605546Y-80031607D01*
X120653143Y-80043530D01*
X120699343Y-80060060D01*
X120743699Y-80081039D01*
X120785786Y-80106265D01*
X120825198Y-80135495D01*
X120861554Y-80168447D01*
X120894506Y-80204803D01*
X120923736Y-80244215D01*
X120948962Y-80286302D01*
X120969941Y-80330658D01*
X120986471Y-80376858D01*
X120998394Y-80424455D01*
X121005593Y-80472991D01*
X121008001Y-80522000D01*
X121008001Y-81022000D01*
X121005593Y-81071009D01*
X120998394Y-81119545D01*
X120986471Y-81167142D01*
X120969941Y-81213342D01*
X120948962Y-81257698D01*
X120923736Y-81299785D01*
X120894506Y-81339197D01*
X120861554Y-81375553D01*
X120825198Y-81408505D01*
X120785786Y-81437735D01*
X120743699Y-81462961D01*
X120699343Y-81483940D01*
X120653143Y-81500470D01*
X120605546Y-81512393D01*
X120557010Y-81519592D01*
X120508001Y-81522000D01*
X120507999Y-81522000D01*
X120458990Y-81519592D01*
X120410454Y-81512393D01*
X120362857Y-81500470D01*
X120316657Y-81483940D01*
X120272301Y-81462961D01*
X120230214Y-81437735D01*
X120190802Y-81408505D01*
X120154446Y-81375553D01*
X120121494Y-81339197D01*
X120092264Y-81299785D01*
X120067038Y-81257698D01*
X120046059Y-81213342D01*
X120029529Y-81167142D01*
X120017606Y-81119545D01*
X120010407Y-81071009D01*
X120007999Y-81022000D01*
X120007999Y-80522000D01*
X120010407Y-80472991D01*
X120017606Y-80424455D01*
X120029529Y-80376858D01*
X120046059Y-80330658D01*
X120067038Y-80286302D01*
X120092264Y-80244215D01*
X120121494Y-80204803D01*
X120154446Y-80168447D01*
X120190802Y-80135495D01*
X120230214Y-80106265D01*
X120272301Y-80081039D01*
X120316657Y-80060060D01*
X120362857Y-80043530D01*
X120410454Y-80031607D01*
X120458990Y-80024408D01*
X120507999Y-80022000D01*
X120508001Y-80022000D01*
X120557010Y-80024408D01*
X120557010Y-80024408D01*
G37*
D22*
X120508000Y-80772000D03*
D20*
X120758000Y-80772000D03*
X121558000Y-80772000D03*
M02*
