G04 #@! TF.GenerationSoftware,KiCad,Pcbnew,5.0.0-rc2-dev-unknown-b813eac~63~ubuntu16.04.1*
G04 #@! TF.CreationDate,2018-04-08T16:52:17+02:00*
G04 #@! TF.ProjectId,f-6188multi,662D363138386D756C74692E6B696361,rev?*
G04 #@! TF.SameCoordinates,Original*
G04 #@! TF.FileFunction,Paste,Bot*
G04 #@! TF.FilePolarity,Positive*
%FSLAX46Y46*%
G04 Gerber Fmt 4.6, Leading zero omitted, Abs format (unit mm)*
G04 Created by KiCad (PCBNEW 5.0.0-rc2-dev-unknown-b813eac~63~ubuntu16.04.1) date Sun Apr  8 16:52:17 2018*
%MOMM*%
%LPD*%
G01*
G04 APERTURE LIST*
%ADD10R,1.300000X1.500000*%
%ADD11R,1.600000X2.000000*%
%ADD12R,3.000000X1.500000*%
%ADD13R,1.500000X0.800000*%
%ADD14R,1.500000X1.300000*%
G04 APERTURE END LIST*
D10*
X193294000Y-129112000D03*
X193294000Y-126412000D03*
D11*
X182118000Y-125762000D03*
X182118000Y-129762000D03*
D10*
X195580000Y-129112000D03*
X195580000Y-126412000D03*
D12*
X185222000Y-141545000D03*
X185222000Y-134545000D03*
X192222000Y-132845000D03*
X192222000Y-138945000D03*
X192222000Y-142545000D03*
D13*
X194056000Y-119158000D03*
X194056000Y-118058000D03*
X194056000Y-116958000D03*
X194056000Y-115858000D03*
X194056000Y-114758000D03*
X194056000Y-113658000D03*
X194056000Y-110358000D03*
X194056000Y-112558000D03*
X194056000Y-108158000D03*
X194056000Y-111458000D03*
X194056000Y-107058000D03*
X194056000Y-109258000D03*
X194056000Y-104858000D03*
X194056000Y-103758000D03*
X194056000Y-102658000D03*
X194056000Y-105958000D03*
X180556000Y-109258000D03*
X180556000Y-102658000D03*
X180556000Y-112558000D03*
X180556000Y-119158000D03*
X180556000Y-108158000D03*
X180556000Y-116958000D03*
X180556000Y-105958000D03*
X180556000Y-118058000D03*
X180556000Y-103758000D03*
X180556000Y-114758000D03*
X180556000Y-111458000D03*
X180556000Y-107058000D03*
X180556000Y-104858000D03*
X180556000Y-113658000D03*
X180556000Y-115858000D03*
X180556000Y-110358000D03*
D14*
X182960000Y-138938000D03*
X180260000Y-138938000D03*
D11*
X188315600Y-125508000D03*
X188315600Y-129508000D03*
X190754000Y-129508000D03*
X190754000Y-125508000D03*
D14*
X181690000Y-132842000D03*
X178990000Y-132842000D03*
D10*
X179578000Y-129112000D03*
X179578000Y-126412000D03*
X177546000Y-107362000D03*
X177546000Y-110062000D03*
X184658000Y-128858000D03*
X184658000Y-126158000D03*
X163830000Y-129112000D03*
X163830000Y-126412000D03*
D11*
X152654000Y-125762000D03*
X152654000Y-129762000D03*
D10*
X166116000Y-129112000D03*
X166116000Y-126412000D03*
D12*
X155758000Y-141545000D03*
X155758000Y-134545000D03*
X162758000Y-132845000D03*
X162758000Y-138945000D03*
X162758000Y-142545000D03*
D13*
X164592000Y-119158000D03*
X164592000Y-118058000D03*
X164592000Y-116958000D03*
X164592000Y-115858000D03*
X164592000Y-114758000D03*
X164592000Y-113658000D03*
X164592000Y-110358000D03*
X164592000Y-112558000D03*
X164592000Y-108158000D03*
X164592000Y-111458000D03*
X164592000Y-107058000D03*
X164592000Y-109258000D03*
X164592000Y-104858000D03*
X164592000Y-103758000D03*
X164592000Y-102658000D03*
X164592000Y-105958000D03*
X151092000Y-109258000D03*
X151092000Y-102658000D03*
X151092000Y-112558000D03*
X151092000Y-119158000D03*
X151092000Y-108158000D03*
X151092000Y-116958000D03*
X151092000Y-105958000D03*
X151092000Y-118058000D03*
X151092000Y-103758000D03*
X151092000Y-114758000D03*
X151092000Y-111458000D03*
X151092000Y-107058000D03*
X151092000Y-104858000D03*
X151092000Y-113658000D03*
X151092000Y-115858000D03*
X151092000Y-110358000D03*
D14*
X153496000Y-138938000D03*
X150796000Y-138938000D03*
D11*
X158851600Y-125508000D03*
X158851600Y-129508000D03*
X161290000Y-129508000D03*
X161290000Y-125508000D03*
D14*
X152226000Y-132842000D03*
X149526000Y-132842000D03*
D10*
X150114000Y-129112000D03*
X150114000Y-126412000D03*
X148082000Y-107362000D03*
X148082000Y-110062000D03*
X155194000Y-128858000D03*
X155194000Y-126158000D03*
X134366000Y-129112000D03*
X134366000Y-126412000D03*
D11*
X123190000Y-125762000D03*
X123190000Y-129762000D03*
D10*
X136652000Y-129112000D03*
X136652000Y-126412000D03*
D12*
X126294000Y-141545000D03*
X126294000Y-134545000D03*
X133294000Y-132845000D03*
X133294000Y-138945000D03*
X133294000Y-142545000D03*
D13*
X135128000Y-119158000D03*
X135128000Y-118058000D03*
X135128000Y-116958000D03*
X135128000Y-115858000D03*
X135128000Y-114758000D03*
X135128000Y-113658000D03*
X135128000Y-110358000D03*
X135128000Y-112558000D03*
X135128000Y-108158000D03*
X135128000Y-111458000D03*
X135128000Y-107058000D03*
X135128000Y-109258000D03*
X135128000Y-104858000D03*
X135128000Y-103758000D03*
X135128000Y-102658000D03*
X135128000Y-105958000D03*
X121628000Y-109258000D03*
X121628000Y-102658000D03*
X121628000Y-112558000D03*
X121628000Y-119158000D03*
X121628000Y-108158000D03*
X121628000Y-116958000D03*
X121628000Y-105958000D03*
X121628000Y-118058000D03*
X121628000Y-103758000D03*
X121628000Y-114758000D03*
X121628000Y-111458000D03*
X121628000Y-107058000D03*
X121628000Y-104858000D03*
X121628000Y-113658000D03*
X121628000Y-115858000D03*
X121628000Y-110358000D03*
D14*
X124032000Y-138938000D03*
X121332000Y-138938000D03*
D11*
X129387600Y-125508000D03*
X129387600Y-129508000D03*
X131826000Y-129508000D03*
X131826000Y-125508000D03*
D14*
X122762000Y-132842000D03*
X120062000Y-132842000D03*
D10*
X120650000Y-129112000D03*
X120650000Y-126412000D03*
X118618000Y-107362000D03*
X118618000Y-110062000D03*
X125730000Y-128858000D03*
X125730000Y-126158000D03*
X193294000Y-86948000D03*
X193294000Y-84248000D03*
D11*
X182118000Y-83598000D03*
X182118000Y-87598000D03*
D10*
X195580000Y-86948000D03*
X195580000Y-84248000D03*
D12*
X185222000Y-99381000D03*
X185222000Y-92381000D03*
X192222000Y-90681000D03*
X192222000Y-96781000D03*
X192222000Y-100381000D03*
D13*
X194056000Y-76994000D03*
X194056000Y-75894000D03*
X194056000Y-74794000D03*
X194056000Y-73694000D03*
X194056000Y-72594000D03*
X194056000Y-71494000D03*
X194056000Y-68194000D03*
X194056000Y-70394000D03*
X194056000Y-65994000D03*
X194056000Y-69294000D03*
X194056000Y-64894000D03*
X194056000Y-67094000D03*
X194056000Y-62694000D03*
X194056000Y-61594000D03*
X194056000Y-60494000D03*
X194056000Y-63794000D03*
X180556000Y-67094000D03*
X180556000Y-60494000D03*
X180556000Y-70394000D03*
X180556000Y-76994000D03*
X180556000Y-65994000D03*
X180556000Y-74794000D03*
X180556000Y-63794000D03*
X180556000Y-75894000D03*
X180556000Y-61594000D03*
X180556000Y-72594000D03*
X180556000Y-69294000D03*
X180556000Y-64894000D03*
X180556000Y-62694000D03*
X180556000Y-71494000D03*
X180556000Y-73694000D03*
X180556000Y-68194000D03*
D14*
X182960000Y-96774000D03*
X180260000Y-96774000D03*
D11*
X188315600Y-83344000D03*
X188315600Y-87344000D03*
X190754000Y-87344000D03*
X190754000Y-83344000D03*
D14*
X181690000Y-90678000D03*
X178990000Y-90678000D03*
D10*
X179578000Y-86948000D03*
X179578000Y-84248000D03*
X177546000Y-65198000D03*
X177546000Y-67898000D03*
X184658000Y-86694000D03*
X184658000Y-83994000D03*
X163830000Y-86948000D03*
X163830000Y-84248000D03*
D11*
X152654000Y-83598000D03*
X152654000Y-87598000D03*
D10*
X166116000Y-86948000D03*
X166116000Y-84248000D03*
D12*
X155758000Y-99381000D03*
X155758000Y-92381000D03*
X162758000Y-90681000D03*
X162758000Y-96781000D03*
X162758000Y-100381000D03*
D13*
X164592000Y-76994000D03*
X164592000Y-75894000D03*
X164592000Y-74794000D03*
X164592000Y-73694000D03*
X164592000Y-72594000D03*
X164592000Y-71494000D03*
X164592000Y-68194000D03*
X164592000Y-70394000D03*
X164592000Y-65994000D03*
X164592000Y-69294000D03*
X164592000Y-64894000D03*
X164592000Y-67094000D03*
X164592000Y-62694000D03*
X164592000Y-61594000D03*
X164592000Y-60494000D03*
X164592000Y-63794000D03*
X151092000Y-67094000D03*
X151092000Y-60494000D03*
X151092000Y-70394000D03*
X151092000Y-76994000D03*
X151092000Y-65994000D03*
X151092000Y-74794000D03*
X151092000Y-63794000D03*
X151092000Y-75894000D03*
X151092000Y-61594000D03*
X151092000Y-72594000D03*
X151092000Y-69294000D03*
X151092000Y-64894000D03*
X151092000Y-62694000D03*
X151092000Y-71494000D03*
X151092000Y-73694000D03*
X151092000Y-68194000D03*
D14*
X153496000Y-96774000D03*
X150796000Y-96774000D03*
D11*
X158851600Y-83344000D03*
X158851600Y-87344000D03*
X161290000Y-87344000D03*
X161290000Y-83344000D03*
D14*
X152226000Y-90678000D03*
X149526000Y-90678000D03*
D10*
X150114000Y-86948000D03*
X150114000Y-84248000D03*
X148082000Y-65198000D03*
X148082000Y-67898000D03*
X155194000Y-86694000D03*
X155194000Y-83994000D03*
X118618000Y-67898000D03*
X118618000Y-65198000D03*
D14*
X120062000Y-90678000D03*
X122762000Y-90678000D03*
X121332000Y-96774000D03*
X124032000Y-96774000D03*
D10*
X136652000Y-84248000D03*
X136652000Y-86948000D03*
X120650000Y-84248000D03*
X120650000Y-86948000D03*
X134366000Y-84248000D03*
X134366000Y-86948000D03*
X125730000Y-83994000D03*
X125730000Y-86694000D03*
D13*
X121628000Y-68194000D03*
X121628000Y-73694000D03*
X121628000Y-71494000D03*
X121628000Y-62694000D03*
X121628000Y-64894000D03*
X121628000Y-69294000D03*
X121628000Y-72594000D03*
X121628000Y-61594000D03*
X121628000Y-75894000D03*
X121628000Y-63794000D03*
X121628000Y-74794000D03*
X121628000Y-65994000D03*
X121628000Y-76994000D03*
X121628000Y-70394000D03*
X121628000Y-60494000D03*
X121628000Y-67094000D03*
X135128000Y-63794000D03*
X135128000Y-60494000D03*
X135128000Y-61594000D03*
X135128000Y-62694000D03*
X135128000Y-67094000D03*
X135128000Y-64894000D03*
X135128000Y-69294000D03*
X135128000Y-65994000D03*
X135128000Y-70394000D03*
X135128000Y-68194000D03*
X135128000Y-71494000D03*
X135128000Y-72594000D03*
X135128000Y-73694000D03*
X135128000Y-74794000D03*
X135128000Y-75894000D03*
X135128000Y-76994000D03*
D12*
X133294000Y-100381000D03*
X133294000Y-96781000D03*
X133294000Y-90681000D03*
X126294000Y-92381000D03*
X126294000Y-99381000D03*
D11*
X129387600Y-87344000D03*
X129387600Y-83344000D03*
X131826000Y-83344000D03*
X131826000Y-87344000D03*
X123190000Y-87598000D03*
X123190000Y-83598000D03*
M02*
