M48
;DRILL file {KiCad 5.0.0-rc2-dev-unknown-b813eac~63~ubuntu16.04.1} date Sun Apr  8 16:32:46 2018
;FORMAT={-:-/ absolute / metric / decimal}
FMAT,2
METRIC,TZ
T1C0.400
T2C1.016
T3C1.200
%
G90
G05
M71
T1
X117.348Y-87.884
X117.348Y-130.048
X117.602Y-80.518
X117.602Y-122.682
X118.059Y-95.707
X118.059Y-137.871
X118.821Y-62.84
X118.821Y-105.004
X119.634Y-73.406
X119.634Y-115.57
X120.142Y-89.408
X120.142Y-131.572
X120.244Y-92.862
X120.244Y-135.026
X120.396Y-65.024
X120.396Y-66.04
X120.396Y-67.056
X120.396Y-68.072
X120.396Y-107.188
X120.396Y-108.204
X120.396Y-109.22
X120.396Y-110.236
X120.401Y-69.347
X120.401Y-111.511
X120.904Y-85.598
X120.904Y-127.762
X121.92Y-77.724
X121.92Y-119.888
X122.978Y-63.512
X122.978Y-105.676
X123.088Y-69.139
X123.088Y-111.303
X123.149Y-64.872
X123.149Y-107.036
X123.952Y-76.2
X123.952Y-118.364
X124.003Y-94.271
X124.003Y-136.435
X124.198Y-90.663
X124.198Y-132.827
X124.206Y-79.248
X124.206Y-121.412
X124.714Y-68.326
X124.714Y-73.146
X124.714Y-80.772
X124.714Y-110.49
X124.714Y-115.31
X124.714Y-122.936
X125.476Y-85.344
X125.476Y-127.508
X125.578Y-97.739
X125.578Y-139.903
X125.73Y-71.018
X125.73Y-94.488
X125.73Y-113.182
X125.73Y-136.652
X125.984Y-62.738
X125.984Y-104.902
X126.746Y-80.264
X126.746Y-122.428
X127.Y-61.722
X127.Y-103.886
X127.102Y-96.622
X127.102Y-138.786
X127.254Y-78.613
X127.254Y-120.777
X127.61Y-73.762
X127.61Y-115.926
X127.979Y-77.089
X127.979Y-119.253
X128.397Y-66.929
X128.397Y-109.093
X128.676Y-85.344
X128.676Y-127.508
X128.778Y-100.33
X128.778Y-142.494
X128.859Y-71.496
X128.859Y-113.66
X129.083Y-94.539
X129.083Y-136.703
X129.337Y-80.467
X129.337Y-122.631
X129.51Y-73.778
X129.51Y-115.942
X129.54Y-76.352
X129.54Y-118.516
X130.302Y-67.945
X130.302Y-110.109
X130.556Y-65.151
X130.556Y-77.216
X130.556Y-107.315
X130.556Y-119.38
X130.759Y-71.73
X130.759Y-113.894
X131.978Y-94.793
X131.978Y-136.957
X132.461Y-63.754
X132.461Y-68.199
X132.461Y-105.918
X132.461Y-110.363
X132.551Y-73.914
X132.551Y-116.078
X132.805Y-76.011
X132.805Y-118.175
X133.25Y-85.392
X133.25Y-127.556
X133.35Y-64.643
X133.35Y-69.312
X133.35Y-79.248
X133.35Y-106.807
X133.35Y-111.476
X133.35Y-121.412
X133.87Y-76.011
X133.87Y-118.175
X135.518Y-88.9
X135.518Y-131.064
X135.636Y-80.772
X135.636Y-94.234
X135.636Y-122.936
X135.636Y-136.398
X146.812Y-87.884
X146.812Y-130.048
X147.066Y-80.518
X147.066Y-122.682
X147.523Y-95.707
X147.523Y-137.871
X148.285Y-62.84
X148.285Y-105.004
X149.098Y-73.406
X149.098Y-115.57
X149.606Y-89.408
X149.606Y-131.572
X149.708Y-92.862
X149.708Y-135.026
X149.86Y-65.024
X149.86Y-66.04
X149.86Y-67.056
X149.86Y-68.072
X149.86Y-107.188
X149.86Y-108.204
X149.86Y-109.22
X149.86Y-110.236
X149.865Y-69.347
X149.865Y-111.511
X150.368Y-85.598
X150.368Y-127.762
X151.384Y-77.724
X151.384Y-119.888
X152.442Y-63.512
X152.442Y-105.676
X152.552Y-69.139
X152.552Y-111.303
X152.613Y-64.872
X152.613Y-107.036
X153.416Y-76.2
X153.416Y-118.364
X153.467Y-94.271
X153.467Y-136.435
X153.662Y-90.663
X153.662Y-132.827
X153.67Y-79.248
X153.67Y-121.412
X154.178Y-68.326
X154.178Y-73.146
X154.178Y-80.772
X154.178Y-110.49
X154.178Y-115.31
X154.178Y-122.936
X154.94Y-85.344
X154.94Y-127.508
X155.042Y-97.739
X155.042Y-139.903
X155.194Y-71.018
X155.194Y-94.488
X155.194Y-113.182
X155.194Y-136.652
X155.448Y-62.738
X155.448Y-104.902
X156.21Y-80.264
X156.21Y-122.428
X156.464Y-61.722
X156.464Y-103.886
X156.566Y-96.622
X156.566Y-138.786
X156.718Y-78.613
X156.718Y-120.777
X157.074Y-73.762
X157.074Y-115.926
X157.443Y-77.089
X157.443Y-119.253
X157.861Y-66.929
X157.861Y-109.093
X158.14Y-85.344
X158.14Y-127.508
X158.242Y-100.33
X158.242Y-142.494
X158.323Y-71.496
X158.323Y-113.66
X158.547Y-94.539
X158.547Y-136.703
X158.801Y-80.467
X158.801Y-122.631
X158.974Y-73.778
X158.974Y-115.942
X159.004Y-76.352
X159.004Y-118.516
X159.766Y-67.945
X159.766Y-110.109
X160.02Y-65.151
X160.02Y-77.216
X160.02Y-107.315
X160.02Y-119.38
X160.223Y-71.73
X160.223Y-113.894
X161.442Y-94.793
X161.442Y-136.957
X161.925Y-63.754
X161.925Y-68.199
X161.925Y-105.918
X161.925Y-110.363
X162.015Y-73.914
X162.015Y-116.078
X162.269Y-76.011
X162.269Y-118.175
X162.714Y-85.392
X162.714Y-127.556
X162.814Y-64.643
X162.814Y-69.312
X162.814Y-79.248
X162.814Y-106.807
X162.814Y-111.476
X162.814Y-121.412
X163.334Y-76.011
X163.334Y-118.175
X164.982Y-88.9
X164.982Y-131.064
X165.1Y-80.772
X165.1Y-94.234
X165.1Y-122.936
X165.1Y-136.398
X176.276Y-87.884
X176.276Y-130.048
X176.53Y-80.518
X176.53Y-122.682
X176.987Y-95.707
X176.987Y-137.871
X177.749Y-62.84
X177.749Y-105.004
X178.562Y-73.406
X178.562Y-115.57
X179.07Y-89.408
X179.07Y-131.572
X179.172Y-92.862
X179.172Y-135.026
X179.324Y-65.024
X179.324Y-66.04
X179.324Y-67.056
X179.324Y-68.072
X179.324Y-107.188
X179.324Y-108.204
X179.324Y-109.22
X179.324Y-110.236
X179.329Y-69.347
X179.329Y-111.511
X179.832Y-85.598
X179.832Y-127.762
X180.848Y-77.724
X180.848Y-119.888
X181.906Y-63.512
X181.906Y-105.676
X182.016Y-69.139
X182.016Y-111.303
X182.077Y-64.872
X182.077Y-107.036
X182.88Y-76.2
X182.88Y-118.364
X182.931Y-94.271
X182.931Y-136.435
X183.126Y-90.663
X183.126Y-132.827
X183.134Y-79.248
X183.134Y-121.412
X183.642Y-68.326
X183.642Y-73.146
X183.642Y-80.772
X183.642Y-110.49
X183.642Y-115.31
X183.642Y-122.936
X184.404Y-85.344
X184.404Y-127.508
X184.506Y-97.739
X184.506Y-139.903
X184.658Y-71.018
X184.658Y-94.488
X184.658Y-113.182
X184.658Y-136.652
X184.912Y-62.738
X184.912Y-104.902
X185.674Y-80.264
X185.674Y-122.428
X185.928Y-61.722
X185.928Y-103.886
X186.03Y-96.622
X186.03Y-138.786
X186.182Y-78.613
X186.182Y-120.777
X186.538Y-73.762
X186.538Y-115.926
X186.907Y-77.089
X186.907Y-119.253
X187.325Y-66.929
X187.325Y-109.093
X187.604Y-85.344
X187.604Y-127.508
X187.706Y-100.33
X187.706Y-142.494
X187.787Y-71.496
X187.787Y-113.66
X188.011Y-94.539
X188.011Y-136.703
X188.265Y-80.467
X188.265Y-122.631
X188.438Y-73.778
X188.438Y-115.942
X188.468Y-76.352
X188.468Y-118.516
X189.23Y-67.945
X189.23Y-110.109
X189.484Y-65.151
X189.484Y-77.216
X189.484Y-107.315
X189.484Y-119.38
X189.687Y-71.73
X189.687Y-113.894
X190.906Y-94.793
X190.906Y-136.957
X191.389Y-63.754
X191.389Y-68.199
X191.389Y-105.918
X191.389Y-110.363
X191.479Y-73.914
X191.479Y-116.078
X191.733Y-76.011
X191.733Y-118.175
X192.178Y-85.392
X192.178Y-127.556
X192.278Y-64.643
X192.278Y-69.312
X192.278Y-79.248
X192.278Y-106.807
X192.278Y-111.476
X192.278Y-121.412
X192.798Y-76.011
X192.798Y-118.175
X194.446Y-88.9
X194.446Y-131.064
X194.564Y-80.772
X194.564Y-94.234
X194.564Y-122.936
X194.564Y-136.398
T2
X170.434Y-61.468
X170.434Y-64.008
X170.434Y-66.548
X170.434Y-69.088
X170.434Y-71.628
X170.434Y-74.168
X170.434Y-76.708
X170.434Y-79.248
X170.434Y-81.788
X170.434Y-84.328
X170.434Y-86.868
X170.434Y-89.408
X170.434Y-91.948
X170.434Y-94.488
X170.434Y-97.028
X170.434Y-99.568
X115.57Y-103.632
X115.57Y-106.172
X115.57Y-108.712
X115.57Y-111.252
X115.57Y-113.792
X115.57Y-116.332
X115.57Y-118.872
X115.57Y-121.412
X115.57Y-123.952
X115.57Y-126.492
X115.57Y-129.032
X115.57Y-131.572
X115.57Y-134.112
X115.57Y-136.652
X115.57Y-139.192
X115.57Y-141.732
X199.898Y-61.468
X199.898Y-64.008
X199.898Y-66.548
X199.898Y-69.088
X199.898Y-71.628
X199.898Y-74.168
X199.898Y-76.708
X199.898Y-79.248
X199.898Y-81.788
X199.898Y-84.328
X199.898Y-86.868
X199.898Y-89.408
X199.898Y-91.948
X199.898Y-94.488
X199.898Y-97.028
X199.898Y-99.568
X199.898Y-103.632
X199.898Y-106.172
X199.898Y-108.712
X199.898Y-111.252
X199.898Y-113.792
X199.898Y-116.332
X199.898Y-118.872
X199.898Y-121.412
X199.898Y-123.952
X199.898Y-126.492
X199.898Y-129.032
X199.898Y-131.572
X199.898Y-134.112
X199.898Y-136.652
X199.898Y-139.192
X199.898Y-141.732
X145.034Y-61.468
X145.034Y-64.008
X145.034Y-66.548
X145.034Y-69.088
X145.034Y-71.628
X145.034Y-74.168
X145.034Y-76.708
X145.034Y-79.248
X145.034Y-81.788
X145.034Y-84.328
X145.034Y-86.868
X145.034Y-89.408
X145.034Y-91.948
X145.034Y-94.488
X145.034Y-97.028
X145.034Y-99.568
X170.434Y-103.632
X170.434Y-106.172
X170.434Y-108.712
X170.434Y-111.252
X170.434Y-113.792
X170.434Y-116.332
X170.434Y-118.872
X170.434Y-121.412
X170.434Y-123.952
X170.434Y-126.492
X170.434Y-129.032
X170.434Y-131.572
X170.434Y-134.112
X170.434Y-136.652
X170.434Y-139.192
X170.434Y-141.732
X140.97Y-103.632
X140.97Y-106.172
X140.97Y-108.712
X140.97Y-111.252
X140.97Y-113.792
X140.97Y-116.332
X140.97Y-118.872
X140.97Y-121.412
X140.97Y-123.952
X140.97Y-126.492
X140.97Y-129.032
X140.97Y-131.572
X140.97Y-134.112
X140.97Y-136.652
X140.97Y-139.192
X140.97Y-141.732
X115.57Y-61.468
X115.57Y-64.008
X115.57Y-66.548
X115.57Y-69.088
X115.57Y-71.628
X115.57Y-74.168
X115.57Y-76.708
X115.57Y-79.248
X115.57Y-81.788
X115.57Y-84.328
X115.57Y-86.868
X115.57Y-89.408
X115.57Y-91.948
X115.57Y-94.488
X115.57Y-97.028
X115.57Y-99.568
X140.97Y-61.468
X140.97Y-64.008
X140.97Y-66.548
X140.97Y-69.088
X140.97Y-71.628
X140.97Y-74.168
X140.97Y-76.708
X140.97Y-79.248
X140.97Y-81.788
X140.97Y-84.328
X140.97Y-86.868
X140.97Y-89.408
X140.97Y-91.948
X140.97Y-94.488
X140.97Y-97.028
X140.97Y-99.568
X174.498Y-61.468
X174.498Y-64.008
X174.498Y-66.548
X174.498Y-69.088
X174.498Y-71.628
X174.498Y-74.168
X174.498Y-76.708
X174.498Y-79.248
X174.498Y-81.788
X174.498Y-84.328
X174.498Y-86.868
X174.498Y-89.408
X174.498Y-91.948
X174.498Y-94.488
X174.498Y-97.028
X174.498Y-99.568
X174.498Y-103.632
X174.498Y-106.172
X174.498Y-108.712
X174.498Y-111.252
X174.498Y-113.792
X174.498Y-116.332
X174.498Y-118.872
X174.498Y-121.412
X174.498Y-123.952
X174.498Y-126.492
X174.498Y-129.032
X174.498Y-131.572
X174.498Y-134.112
X174.498Y-136.652
X174.498Y-139.192
X174.498Y-141.732
X145.034Y-103.632
X145.034Y-106.172
X145.034Y-108.712
X145.034Y-111.252
X145.034Y-113.792
X145.034Y-116.332
X145.034Y-118.872
X145.034Y-121.412
X145.034Y-123.952
X145.034Y-126.492
X145.034Y-129.032
X145.034Y-131.572
X145.034Y-134.112
X145.034Y-136.652
X145.034Y-139.192
X145.034Y-141.732
T3
X192.532Y-92.806
X192.532Y-98.806
X163.068Y-134.97
X163.068Y-140.97
X188.722Y-92.981
X188.722Y-98.981
X163.068Y-92.806
X163.068Y-98.806
X159.258Y-92.981
X159.258Y-98.981
X181.864Y-93.06
X181.864Y-99.06
X181.864Y-135.224
X181.864Y-141.224
X152.4Y-93.06
X152.4Y-99.06
X192.532Y-134.97
X192.532Y-140.97
X188.722Y-135.145
X188.722Y-141.145
X152.4Y-135.224
X152.4Y-141.224
X159.258Y-135.145
X159.258Y-141.145
X133.604Y-92.806
X133.604Y-98.806
X122.936Y-93.06
X122.936Y-99.06
X122.936Y-135.224
X122.936Y-141.224
X129.794Y-135.145
X129.794Y-141.145
X129.794Y-92.981
X129.794Y-98.981
X133.604Y-134.97
X133.604Y-140.97
T0
M30
