G04 #@! TF.GenerationSoftware,KiCad,Pcbnew,5.0.0-rc2-dev-unknown-b813eac~63~ubuntu16.04.1*
G04 #@! TF.CreationDate,2018-04-08T16:52:17+02:00*
G04 #@! TF.ProjectId,f-6188multi,662D363138386D756C74692E6B696361,rev?*
G04 #@! TF.SameCoordinates,Original*
G04 #@! TF.FileFunction,Paste,Top*
G04 #@! TF.FilePolarity,Positive*
%FSLAX46Y46*%
G04 Gerber Fmt 4.6, Leading zero omitted, Abs format (unit mm)*
G04 Created by KiCad (PCBNEW 5.0.0-rc2-dev-unknown-b813eac~63~ubuntu16.04.1) date Sun Apr  8 16:52:17 2018*
%MOMM*%
%LPD*%
G01*
G04 APERTURE LIST*
%ADD10R,1.800860X1.597660*%
%ADD11R,3.500000X1.500000*%
%ADD12R,1.400000X1.500000*%
%ADD13R,1.500000X1.400000*%
%ADD14R,1.600000X2.000000*%
%ADD15R,1.501140X2.999740*%
%ADD16R,1.500000X1.300000*%
G04 APERTURE END LIST*
D10*
X178816000Y-120037860D03*
X178816000Y-117198140D03*
D11*
X185614000Y-134224000D03*
X178114000Y-139224000D03*
X185614000Y-141224000D03*
D12*
X195580000Y-104316000D03*
X195580000Y-113616000D03*
D13*
X192102000Y-112776000D03*
X182802000Y-112776000D03*
D14*
X178562000Y-129794000D03*
X178562000Y-125794000D03*
D12*
X179070000Y-104062000D03*
X179070000Y-113362000D03*
D13*
X192102000Y-119888000D03*
X182802000Y-119888000D03*
D15*
X186182000Y-125509020D03*
X186182000Y-129506980D03*
D16*
X182292000Y-116433600D03*
X184992000Y-116433600D03*
D10*
X195326000Y-117452140D03*
X195326000Y-120291860D03*
D13*
X192102000Y-104394000D03*
X182802000Y-104394000D03*
X192102000Y-108864400D03*
X182802000Y-108864400D03*
D15*
X190068200Y-129473960D03*
X190068200Y-125476000D03*
X182880000Y-129506980D03*
X182880000Y-125509020D03*
D14*
X192786000Y-125508000D03*
X192786000Y-129508000D03*
X195834000Y-129508000D03*
X195834000Y-125508000D03*
D16*
X189962800Y-116433600D03*
X192662800Y-116433600D03*
D11*
X196282000Y-133970000D03*
X188782000Y-138970000D03*
X196282000Y-140970000D03*
D10*
X149352000Y-120037860D03*
X149352000Y-117198140D03*
D11*
X156150000Y-134224000D03*
X148650000Y-139224000D03*
X156150000Y-141224000D03*
D12*
X166116000Y-104316000D03*
X166116000Y-113616000D03*
D13*
X162638000Y-112776000D03*
X153338000Y-112776000D03*
D14*
X149098000Y-129794000D03*
X149098000Y-125794000D03*
D12*
X149606000Y-104062000D03*
X149606000Y-113362000D03*
D13*
X162638000Y-119888000D03*
X153338000Y-119888000D03*
D15*
X156718000Y-125509020D03*
X156718000Y-129506980D03*
D16*
X152828000Y-116433600D03*
X155528000Y-116433600D03*
D10*
X165862000Y-117452140D03*
X165862000Y-120291860D03*
D13*
X162638000Y-104394000D03*
X153338000Y-104394000D03*
X162638000Y-108864400D03*
X153338000Y-108864400D03*
D15*
X160604200Y-129473960D03*
X160604200Y-125476000D03*
X153416000Y-129506980D03*
X153416000Y-125509020D03*
D14*
X163322000Y-125508000D03*
X163322000Y-129508000D03*
X166370000Y-129508000D03*
X166370000Y-125508000D03*
D16*
X160498800Y-116433600D03*
X163198800Y-116433600D03*
D11*
X166818000Y-133970000D03*
X159318000Y-138970000D03*
X166818000Y-140970000D03*
D10*
X119888000Y-120037860D03*
X119888000Y-117198140D03*
D11*
X126686000Y-134224000D03*
X119186000Y-139224000D03*
X126686000Y-141224000D03*
D12*
X136652000Y-104316000D03*
X136652000Y-113616000D03*
D13*
X133174000Y-112776000D03*
X123874000Y-112776000D03*
D14*
X119634000Y-129794000D03*
X119634000Y-125794000D03*
D12*
X120142000Y-104062000D03*
X120142000Y-113362000D03*
D13*
X133174000Y-119888000D03*
X123874000Y-119888000D03*
D15*
X127254000Y-125509020D03*
X127254000Y-129506980D03*
D16*
X123364000Y-116433600D03*
X126064000Y-116433600D03*
D10*
X136398000Y-117452140D03*
X136398000Y-120291860D03*
D13*
X133174000Y-104394000D03*
X123874000Y-104394000D03*
X133174000Y-108864400D03*
X123874000Y-108864400D03*
D15*
X131140200Y-129473960D03*
X131140200Y-125476000D03*
X123952000Y-129506980D03*
X123952000Y-125509020D03*
D14*
X133858000Y-125508000D03*
X133858000Y-129508000D03*
X136906000Y-129508000D03*
X136906000Y-125508000D03*
D16*
X131034800Y-116433600D03*
X133734800Y-116433600D03*
D11*
X137354000Y-133970000D03*
X129854000Y-138970000D03*
X137354000Y-140970000D03*
D10*
X178816000Y-77873860D03*
X178816000Y-75034140D03*
D11*
X185614000Y-92060000D03*
X178114000Y-97060000D03*
X185614000Y-99060000D03*
D12*
X195580000Y-62152000D03*
X195580000Y-71452000D03*
D13*
X192102000Y-70612000D03*
X182802000Y-70612000D03*
D14*
X178562000Y-87630000D03*
X178562000Y-83630000D03*
D12*
X179070000Y-61898000D03*
X179070000Y-71198000D03*
D13*
X192102000Y-77724000D03*
X182802000Y-77724000D03*
D15*
X186182000Y-83345020D03*
X186182000Y-87342980D03*
D16*
X182292000Y-74269600D03*
X184992000Y-74269600D03*
D10*
X195326000Y-75288140D03*
X195326000Y-78127860D03*
D13*
X192102000Y-62230000D03*
X182802000Y-62230000D03*
X192102000Y-66700400D03*
X182802000Y-66700400D03*
D15*
X190068200Y-87309960D03*
X190068200Y-83312000D03*
X182880000Y-87342980D03*
X182880000Y-83345020D03*
D14*
X192786000Y-83344000D03*
X192786000Y-87344000D03*
X195834000Y-87344000D03*
X195834000Y-83344000D03*
D16*
X189962800Y-74269600D03*
X192662800Y-74269600D03*
D11*
X196282000Y-91806000D03*
X188782000Y-96806000D03*
X196282000Y-98806000D03*
D10*
X149352000Y-77873860D03*
X149352000Y-75034140D03*
D11*
X156150000Y-92060000D03*
X148650000Y-97060000D03*
X156150000Y-99060000D03*
D12*
X166116000Y-62152000D03*
X166116000Y-71452000D03*
D13*
X162638000Y-70612000D03*
X153338000Y-70612000D03*
D14*
X149098000Y-87630000D03*
X149098000Y-83630000D03*
D12*
X149606000Y-61898000D03*
X149606000Y-71198000D03*
D13*
X162638000Y-77724000D03*
X153338000Y-77724000D03*
D15*
X156718000Y-83345020D03*
X156718000Y-87342980D03*
D16*
X152828000Y-74269600D03*
X155528000Y-74269600D03*
D10*
X165862000Y-75288140D03*
X165862000Y-78127860D03*
D13*
X162638000Y-62230000D03*
X153338000Y-62230000D03*
X162638000Y-66700400D03*
X153338000Y-66700400D03*
D15*
X160604200Y-87309960D03*
X160604200Y-83312000D03*
X153416000Y-87342980D03*
X153416000Y-83345020D03*
D14*
X163322000Y-83344000D03*
X163322000Y-87344000D03*
X166370000Y-87344000D03*
X166370000Y-83344000D03*
D16*
X160498800Y-74269600D03*
X163198800Y-74269600D03*
D11*
X166818000Y-91806000D03*
X159318000Y-96806000D03*
X166818000Y-98806000D03*
D13*
X123874000Y-77724000D03*
X133174000Y-77724000D03*
D12*
X136652000Y-71452000D03*
X136652000Y-62152000D03*
X120142000Y-71198000D03*
X120142000Y-61898000D03*
D13*
X123874000Y-70612000D03*
X133174000Y-70612000D03*
X123874000Y-66700400D03*
X133174000Y-66700400D03*
X123874000Y-62230000D03*
X133174000Y-62230000D03*
D11*
X126686000Y-99060000D03*
X119186000Y-97060000D03*
X126686000Y-92060000D03*
X137354000Y-98806000D03*
X129854000Y-96806000D03*
X137354000Y-91806000D03*
D15*
X123952000Y-83345020D03*
X123952000Y-87342980D03*
D10*
X119888000Y-75034140D03*
X119888000Y-77873860D03*
X136398000Y-78127860D03*
X136398000Y-75288140D03*
D16*
X126064000Y-74269600D03*
X123364000Y-74269600D03*
X133734800Y-74269600D03*
X131034800Y-74269600D03*
D14*
X119634000Y-83630000D03*
X119634000Y-87630000D03*
D15*
X131140200Y-83312000D03*
X131140200Y-87309960D03*
X127254000Y-87342980D03*
X127254000Y-83345020D03*
D14*
X133858000Y-87344000D03*
X133858000Y-83344000D03*
X136906000Y-83344000D03*
X136906000Y-87344000D03*
M02*
