G04 #@! TF.GenerationSoftware,KiCad,Pcbnew,5.0.0-rc2-dev-unknown-b813eac~63~ubuntu16.04.1*
G04 #@! TF.CreationDate,2018-04-08T16:52:17+02:00*
G04 #@! TF.ProjectId,f-6188multi,662D363138386D756C74692E6B696361,rev?*
G04 #@! TF.SameCoordinates,Original*
G04 #@! TF.FileFunction,Soldermask,Bot*
G04 #@! TF.FilePolarity,Negative*
%FSLAX46Y46*%
G04 Gerber Fmt 4.6, Leading zero omitted, Abs format (unit mm)*
G04 Created by KiCad (PCBNEW 5.0.0-rc2-dev-unknown-b813eac~63~ubuntu16.04.1) date Sun Apr  8 16:52:17 2018*
%MOMM*%
%LPD*%
G01*
G04 APERTURE LIST*
%ADD10C,1.200000*%
%ADD11R,1.300000X1.500000*%
%ADD12R,1.600000X2.000000*%
%ADD13O,2.032000X1.727200*%
%ADD14R,2.032000X1.727200*%
%ADD15R,1.500000X0.500000*%
%ADD16C,0.050000*%
%ADD17C,1.000000*%
%ADD18R,1.500000X1.000000*%
%ADD19R,3.000000X1.500000*%
%ADD20R,1.500000X0.800000*%
%ADD21R,1.500000X1.300000*%
G04 APERTURE END LIST*
D10*
X181864000Y-135224000D03*
X181864000Y-141224000D03*
D11*
X193294000Y-129112000D03*
X193294000Y-126412000D03*
D12*
X182118000Y-125762000D03*
X182118000Y-129762000D03*
D11*
X195580000Y-129112000D03*
X195580000Y-126412000D03*
D13*
X199898000Y-141732000D03*
X199898000Y-139192000D03*
X199898000Y-136652000D03*
X199898000Y-134112000D03*
X199898000Y-131572000D03*
X199898000Y-129032000D03*
X199898000Y-126492000D03*
X199898000Y-123952000D03*
X199898000Y-121412000D03*
X199898000Y-118872000D03*
X199898000Y-116332000D03*
X199898000Y-113792000D03*
X199898000Y-111252000D03*
X199898000Y-108712000D03*
X199898000Y-106172000D03*
D14*
X199898000Y-103632000D03*
D15*
X177800000Y-121426000D03*
D16*
G36*
X178099009Y-121228407D02*
X178147545Y-121235606D01*
X178195142Y-121247529D01*
X178241342Y-121264059D01*
X178285698Y-121285038D01*
X178327785Y-121310264D01*
X178367197Y-121339494D01*
X178403553Y-121372446D01*
X178436505Y-121408802D01*
X178465735Y-121448214D01*
X178490961Y-121490301D01*
X178511940Y-121534657D01*
X178528470Y-121580857D01*
X178540393Y-121628454D01*
X178547592Y-121676990D01*
X178550000Y-121725999D01*
X178550000Y-121726001D01*
X178547592Y-121775010D01*
X178540393Y-121823546D01*
X178528470Y-121871143D01*
X178511940Y-121917343D01*
X178490961Y-121961699D01*
X178465735Y-122003786D01*
X178436505Y-122043198D01*
X178403553Y-122079554D01*
X178367197Y-122112506D01*
X178327785Y-122141736D01*
X178285698Y-122166962D01*
X178241342Y-122187941D01*
X178195142Y-122204471D01*
X178147545Y-122216394D01*
X178099009Y-122223593D01*
X178050000Y-122226001D01*
X177550000Y-122226001D01*
X177500991Y-122223593D01*
X177452455Y-122216394D01*
X177404858Y-122204471D01*
X177358658Y-122187941D01*
X177314302Y-122166962D01*
X177272215Y-122141736D01*
X177232803Y-122112506D01*
X177196447Y-122079554D01*
X177163495Y-122043198D01*
X177134265Y-122003786D01*
X177109039Y-121961699D01*
X177088060Y-121917343D01*
X177071530Y-121871143D01*
X177059607Y-121823546D01*
X177052408Y-121775010D01*
X177050000Y-121726001D01*
X177050000Y-121725999D01*
X177052408Y-121676990D01*
X177059607Y-121628454D01*
X177071530Y-121580857D01*
X177088060Y-121534657D01*
X177109039Y-121490301D01*
X177134265Y-121448214D01*
X177163495Y-121408802D01*
X177196447Y-121372446D01*
X177232803Y-121339494D01*
X177272215Y-121310264D01*
X177314302Y-121285038D01*
X177358658Y-121264059D01*
X177404858Y-121247529D01*
X177452455Y-121235606D01*
X177500991Y-121228407D01*
X177550000Y-121225999D01*
X178050000Y-121225999D01*
X178099009Y-121228407D01*
X178099009Y-121228407D01*
G37*
D17*
X177800000Y-121726000D03*
D18*
X177800000Y-120426000D03*
D15*
X177800000Y-119426000D03*
D16*
G36*
X178099009Y-118628407D02*
X178147545Y-118635606D01*
X178195142Y-118647529D01*
X178241342Y-118664059D01*
X178285698Y-118685038D01*
X178327785Y-118710264D01*
X178367197Y-118739494D01*
X178403553Y-118772446D01*
X178436505Y-118808802D01*
X178465735Y-118848214D01*
X178490961Y-118890301D01*
X178511940Y-118934657D01*
X178528470Y-118980857D01*
X178540393Y-119028454D01*
X178547592Y-119076990D01*
X178550000Y-119125999D01*
X178550000Y-119126001D01*
X178547592Y-119175010D01*
X178540393Y-119223546D01*
X178528470Y-119271143D01*
X178511940Y-119317343D01*
X178490961Y-119361699D01*
X178465735Y-119403786D01*
X178436505Y-119443198D01*
X178403553Y-119479554D01*
X178367197Y-119512506D01*
X178327785Y-119541736D01*
X178285698Y-119566962D01*
X178241342Y-119587941D01*
X178195142Y-119604471D01*
X178147545Y-119616394D01*
X178099009Y-119623593D01*
X178050000Y-119626001D01*
X177550000Y-119626001D01*
X177500991Y-119623593D01*
X177452455Y-119616394D01*
X177404858Y-119604471D01*
X177358658Y-119587941D01*
X177314302Y-119566962D01*
X177272215Y-119541736D01*
X177232803Y-119512506D01*
X177196447Y-119479554D01*
X177163495Y-119443198D01*
X177134265Y-119403786D01*
X177109039Y-119361699D01*
X177088060Y-119317343D01*
X177071530Y-119271143D01*
X177059607Y-119223546D01*
X177052408Y-119175010D01*
X177050000Y-119126001D01*
X177050000Y-119125999D01*
X177052408Y-119076990D01*
X177059607Y-119028454D01*
X177071530Y-118980857D01*
X177088060Y-118934657D01*
X177109039Y-118890301D01*
X177134265Y-118848214D01*
X177163495Y-118808802D01*
X177196447Y-118772446D01*
X177232803Y-118739494D01*
X177272215Y-118710264D01*
X177314302Y-118685038D01*
X177358658Y-118664059D01*
X177404858Y-118647529D01*
X177452455Y-118635606D01*
X177500991Y-118628407D01*
X177550000Y-118625999D01*
X178050000Y-118625999D01*
X178099009Y-118628407D01*
X178099009Y-118628407D01*
G37*
D17*
X177800000Y-119126000D03*
D14*
X174498000Y-141732000D03*
D13*
X174498000Y-139192000D03*
X174498000Y-136652000D03*
X174498000Y-134112000D03*
X174498000Y-131572000D03*
X174498000Y-129032000D03*
X174498000Y-126492000D03*
X174498000Y-123952000D03*
X174498000Y-121412000D03*
X174498000Y-118872000D03*
X174498000Y-116332000D03*
X174498000Y-113792000D03*
X174498000Y-111252000D03*
X174498000Y-108712000D03*
X174498000Y-106172000D03*
X174498000Y-103632000D03*
D19*
X185222000Y-141545000D03*
X185222000Y-134545000D03*
X192222000Y-132845000D03*
X192222000Y-138945000D03*
X192222000Y-142545000D03*
D10*
X188722000Y-135145000D03*
X188722000Y-141145000D03*
D20*
X194056000Y-119158000D03*
X194056000Y-118058000D03*
X194056000Y-116958000D03*
X194056000Y-115858000D03*
X194056000Y-114758000D03*
X194056000Y-113658000D03*
X194056000Y-110358000D03*
X194056000Y-112558000D03*
X194056000Y-108158000D03*
X194056000Y-111458000D03*
X194056000Y-107058000D03*
X194056000Y-109258000D03*
X194056000Y-104858000D03*
X194056000Y-103758000D03*
X194056000Y-102658000D03*
X194056000Y-105958000D03*
X180556000Y-109258000D03*
X180556000Y-102658000D03*
X180556000Y-112558000D03*
X180556000Y-119158000D03*
X180556000Y-108158000D03*
X180556000Y-116958000D03*
X180556000Y-105958000D03*
X180556000Y-118058000D03*
X180556000Y-103758000D03*
X180556000Y-114758000D03*
X180556000Y-111458000D03*
X180556000Y-107058000D03*
X180556000Y-104858000D03*
X180556000Y-113658000D03*
X180556000Y-115858000D03*
X180556000Y-110358000D03*
D21*
X182960000Y-138938000D03*
X180260000Y-138938000D03*
D12*
X188315600Y-125508000D03*
X188315600Y-129508000D03*
X190754000Y-129508000D03*
X190754000Y-125508000D03*
D21*
X181690000Y-132842000D03*
X178990000Y-132842000D03*
D11*
X179578000Y-129112000D03*
X179578000Y-126412000D03*
D10*
X192532000Y-134970000D03*
X192532000Y-140970000D03*
D11*
X177546000Y-107362000D03*
X177546000Y-110062000D03*
X184658000Y-128858000D03*
X184658000Y-126158000D03*
D10*
X152400000Y-135224000D03*
X152400000Y-141224000D03*
D11*
X163830000Y-129112000D03*
X163830000Y-126412000D03*
D12*
X152654000Y-125762000D03*
X152654000Y-129762000D03*
D11*
X166116000Y-129112000D03*
X166116000Y-126412000D03*
D13*
X170434000Y-141732000D03*
X170434000Y-139192000D03*
X170434000Y-136652000D03*
X170434000Y-134112000D03*
X170434000Y-131572000D03*
X170434000Y-129032000D03*
X170434000Y-126492000D03*
X170434000Y-123952000D03*
X170434000Y-121412000D03*
X170434000Y-118872000D03*
X170434000Y-116332000D03*
X170434000Y-113792000D03*
X170434000Y-111252000D03*
X170434000Y-108712000D03*
X170434000Y-106172000D03*
D14*
X170434000Y-103632000D03*
D15*
X148336000Y-121426000D03*
D16*
G36*
X148635009Y-121228407D02*
X148683545Y-121235606D01*
X148731142Y-121247529D01*
X148777342Y-121264059D01*
X148821698Y-121285038D01*
X148863785Y-121310264D01*
X148903197Y-121339494D01*
X148939553Y-121372446D01*
X148972505Y-121408802D01*
X149001735Y-121448214D01*
X149026961Y-121490301D01*
X149047940Y-121534657D01*
X149064470Y-121580857D01*
X149076393Y-121628454D01*
X149083592Y-121676990D01*
X149086000Y-121725999D01*
X149086000Y-121726001D01*
X149083592Y-121775010D01*
X149076393Y-121823546D01*
X149064470Y-121871143D01*
X149047940Y-121917343D01*
X149026961Y-121961699D01*
X149001735Y-122003786D01*
X148972505Y-122043198D01*
X148939553Y-122079554D01*
X148903197Y-122112506D01*
X148863785Y-122141736D01*
X148821698Y-122166962D01*
X148777342Y-122187941D01*
X148731142Y-122204471D01*
X148683545Y-122216394D01*
X148635009Y-122223593D01*
X148586000Y-122226001D01*
X148086000Y-122226001D01*
X148036991Y-122223593D01*
X147988455Y-122216394D01*
X147940858Y-122204471D01*
X147894658Y-122187941D01*
X147850302Y-122166962D01*
X147808215Y-122141736D01*
X147768803Y-122112506D01*
X147732447Y-122079554D01*
X147699495Y-122043198D01*
X147670265Y-122003786D01*
X147645039Y-121961699D01*
X147624060Y-121917343D01*
X147607530Y-121871143D01*
X147595607Y-121823546D01*
X147588408Y-121775010D01*
X147586000Y-121726001D01*
X147586000Y-121725999D01*
X147588408Y-121676990D01*
X147595607Y-121628454D01*
X147607530Y-121580857D01*
X147624060Y-121534657D01*
X147645039Y-121490301D01*
X147670265Y-121448214D01*
X147699495Y-121408802D01*
X147732447Y-121372446D01*
X147768803Y-121339494D01*
X147808215Y-121310264D01*
X147850302Y-121285038D01*
X147894658Y-121264059D01*
X147940858Y-121247529D01*
X147988455Y-121235606D01*
X148036991Y-121228407D01*
X148086000Y-121225999D01*
X148586000Y-121225999D01*
X148635009Y-121228407D01*
X148635009Y-121228407D01*
G37*
D17*
X148336000Y-121726000D03*
D18*
X148336000Y-120426000D03*
D15*
X148336000Y-119426000D03*
D16*
G36*
X148635009Y-118628407D02*
X148683545Y-118635606D01*
X148731142Y-118647529D01*
X148777342Y-118664059D01*
X148821698Y-118685038D01*
X148863785Y-118710264D01*
X148903197Y-118739494D01*
X148939553Y-118772446D01*
X148972505Y-118808802D01*
X149001735Y-118848214D01*
X149026961Y-118890301D01*
X149047940Y-118934657D01*
X149064470Y-118980857D01*
X149076393Y-119028454D01*
X149083592Y-119076990D01*
X149086000Y-119125999D01*
X149086000Y-119126001D01*
X149083592Y-119175010D01*
X149076393Y-119223546D01*
X149064470Y-119271143D01*
X149047940Y-119317343D01*
X149026961Y-119361699D01*
X149001735Y-119403786D01*
X148972505Y-119443198D01*
X148939553Y-119479554D01*
X148903197Y-119512506D01*
X148863785Y-119541736D01*
X148821698Y-119566962D01*
X148777342Y-119587941D01*
X148731142Y-119604471D01*
X148683545Y-119616394D01*
X148635009Y-119623593D01*
X148586000Y-119626001D01*
X148086000Y-119626001D01*
X148036991Y-119623593D01*
X147988455Y-119616394D01*
X147940858Y-119604471D01*
X147894658Y-119587941D01*
X147850302Y-119566962D01*
X147808215Y-119541736D01*
X147768803Y-119512506D01*
X147732447Y-119479554D01*
X147699495Y-119443198D01*
X147670265Y-119403786D01*
X147645039Y-119361699D01*
X147624060Y-119317343D01*
X147607530Y-119271143D01*
X147595607Y-119223546D01*
X147588408Y-119175010D01*
X147586000Y-119126001D01*
X147586000Y-119125999D01*
X147588408Y-119076990D01*
X147595607Y-119028454D01*
X147607530Y-118980857D01*
X147624060Y-118934657D01*
X147645039Y-118890301D01*
X147670265Y-118848214D01*
X147699495Y-118808802D01*
X147732447Y-118772446D01*
X147768803Y-118739494D01*
X147808215Y-118710264D01*
X147850302Y-118685038D01*
X147894658Y-118664059D01*
X147940858Y-118647529D01*
X147988455Y-118635606D01*
X148036991Y-118628407D01*
X148086000Y-118625999D01*
X148586000Y-118625999D01*
X148635009Y-118628407D01*
X148635009Y-118628407D01*
G37*
D17*
X148336000Y-119126000D03*
D14*
X145034000Y-141732000D03*
D13*
X145034000Y-139192000D03*
X145034000Y-136652000D03*
X145034000Y-134112000D03*
X145034000Y-131572000D03*
X145034000Y-129032000D03*
X145034000Y-126492000D03*
X145034000Y-123952000D03*
X145034000Y-121412000D03*
X145034000Y-118872000D03*
X145034000Y-116332000D03*
X145034000Y-113792000D03*
X145034000Y-111252000D03*
X145034000Y-108712000D03*
X145034000Y-106172000D03*
X145034000Y-103632000D03*
D19*
X155758000Y-141545000D03*
X155758000Y-134545000D03*
X162758000Y-132845000D03*
X162758000Y-138945000D03*
X162758000Y-142545000D03*
D10*
X159258000Y-135145000D03*
X159258000Y-141145000D03*
D20*
X164592000Y-119158000D03*
X164592000Y-118058000D03*
X164592000Y-116958000D03*
X164592000Y-115858000D03*
X164592000Y-114758000D03*
X164592000Y-113658000D03*
X164592000Y-110358000D03*
X164592000Y-112558000D03*
X164592000Y-108158000D03*
X164592000Y-111458000D03*
X164592000Y-107058000D03*
X164592000Y-109258000D03*
X164592000Y-104858000D03*
X164592000Y-103758000D03*
X164592000Y-102658000D03*
X164592000Y-105958000D03*
X151092000Y-109258000D03*
X151092000Y-102658000D03*
X151092000Y-112558000D03*
X151092000Y-119158000D03*
X151092000Y-108158000D03*
X151092000Y-116958000D03*
X151092000Y-105958000D03*
X151092000Y-118058000D03*
X151092000Y-103758000D03*
X151092000Y-114758000D03*
X151092000Y-111458000D03*
X151092000Y-107058000D03*
X151092000Y-104858000D03*
X151092000Y-113658000D03*
X151092000Y-115858000D03*
X151092000Y-110358000D03*
D21*
X153496000Y-138938000D03*
X150796000Y-138938000D03*
D12*
X158851600Y-125508000D03*
X158851600Y-129508000D03*
X161290000Y-129508000D03*
X161290000Y-125508000D03*
D21*
X152226000Y-132842000D03*
X149526000Y-132842000D03*
D11*
X150114000Y-129112000D03*
X150114000Y-126412000D03*
D10*
X163068000Y-134970000D03*
X163068000Y-140970000D03*
D11*
X148082000Y-107362000D03*
X148082000Y-110062000D03*
X155194000Y-128858000D03*
X155194000Y-126158000D03*
D10*
X122936000Y-135224000D03*
X122936000Y-141224000D03*
D11*
X134366000Y-129112000D03*
X134366000Y-126412000D03*
D12*
X123190000Y-125762000D03*
X123190000Y-129762000D03*
D11*
X136652000Y-129112000D03*
X136652000Y-126412000D03*
D13*
X140970000Y-141732000D03*
X140970000Y-139192000D03*
X140970000Y-136652000D03*
X140970000Y-134112000D03*
X140970000Y-131572000D03*
X140970000Y-129032000D03*
X140970000Y-126492000D03*
X140970000Y-123952000D03*
X140970000Y-121412000D03*
X140970000Y-118872000D03*
X140970000Y-116332000D03*
X140970000Y-113792000D03*
X140970000Y-111252000D03*
X140970000Y-108712000D03*
X140970000Y-106172000D03*
D14*
X140970000Y-103632000D03*
D15*
X118872000Y-121426000D03*
D16*
G36*
X119171009Y-121228407D02*
X119219545Y-121235606D01*
X119267142Y-121247529D01*
X119313342Y-121264059D01*
X119357698Y-121285038D01*
X119399785Y-121310264D01*
X119439197Y-121339494D01*
X119475553Y-121372446D01*
X119508505Y-121408802D01*
X119537735Y-121448214D01*
X119562961Y-121490301D01*
X119583940Y-121534657D01*
X119600470Y-121580857D01*
X119612393Y-121628454D01*
X119619592Y-121676990D01*
X119622000Y-121725999D01*
X119622000Y-121726001D01*
X119619592Y-121775010D01*
X119612393Y-121823546D01*
X119600470Y-121871143D01*
X119583940Y-121917343D01*
X119562961Y-121961699D01*
X119537735Y-122003786D01*
X119508505Y-122043198D01*
X119475553Y-122079554D01*
X119439197Y-122112506D01*
X119399785Y-122141736D01*
X119357698Y-122166962D01*
X119313342Y-122187941D01*
X119267142Y-122204471D01*
X119219545Y-122216394D01*
X119171009Y-122223593D01*
X119122000Y-122226001D01*
X118622000Y-122226001D01*
X118572991Y-122223593D01*
X118524455Y-122216394D01*
X118476858Y-122204471D01*
X118430658Y-122187941D01*
X118386302Y-122166962D01*
X118344215Y-122141736D01*
X118304803Y-122112506D01*
X118268447Y-122079554D01*
X118235495Y-122043198D01*
X118206265Y-122003786D01*
X118181039Y-121961699D01*
X118160060Y-121917343D01*
X118143530Y-121871143D01*
X118131607Y-121823546D01*
X118124408Y-121775010D01*
X118122000Y-121726001D01*
X118122000Y-121725999D01*
X118124408Y-121676990D01*
X118131607Y-121628454D01*
X118143530Y-121580857D01*
X118160060Y-121534657D01*
X118181039Y-121490301D01*
X118206265Y-121448214D01*
X118235495Y-121408802D01*
X118268447Y-121372446D01*
X118304803Y-121339494D01*
X118344215Y-121310264D01*
X118386302Y-121285038D01*
X118430658Y-121264059D01*
X118476858Y-121247529D01*
X118524455Y-121235606D01*
X118572991Y-121228407D01*
X118622000Y-121225999D01*
X119122000Y-121225999D01*
X119171009Y-121228407D01*
X119171009Y-121228407D01*
G37*
D17*
X118872000Y-121726000D03*
D18*
X118872000Y-120426000D03*
D15*
X118872000Y-119426000D03*
D16*
G36*
X119171009Y-118628407D02*
X119219545Y-118635606D01*
X119267142Y-118647529D01*
X119313342Y-118664059D01*
X119357698Y-118685038D01*
X119399785Y-118710264D01*
X119439197Y-118739494D01*
X119475553Y-118772446D01*
X119508505Y-118808802D01*
X119537735Y-118848214D01*
X119562961Y-118890301D01*
X119583940Y-118934657D01*
X119600470Y-118980857D01*
X119612393Y-119028454D01*
X119619592Y-119076990D01*
X119622000Y-119125999D01*
X119622000Y-119126001D01*
X119619592Y-119175010D01*
X119612393Y-119223546D01*
X119600470Y-119271143D01*
X119583940Y-119317343D01*
X119562961Y-119361699D01*
X119537735Y-119403786D01*
X119508505Y-119443198D01*
X119475553Y-119479554D01*
X119439197Y-119512506D01*
X119399785Y-119541736D01*
X119357698Y-119566962D01*
X119313342Y-119587941D01*
X119267142Y-119604471D01*
X119219545Y-119616394D01*
X119171009Y-119623593D01*
X119122000Y-119626001D01*
X118622000Y-119626001D01*
X118572991Y-119623593D01*
X118524455Y-119616394D01*
X118476858Y-119604471D01*
X118430658Y-119587941D01*
X118386302Y-119566962D01*
X118344215Y-119541736D01*
X118304803Y-119512506D01*
X118268447Y-119479554D01*
X118235495Y-119443198D01*
X118206265Y-119403786D01*
X118181039Y-119361699D01*
X118160060Y-119317343D01*
X118143530Y-119271143D01*
X118131607Y-119223546D01*
X118124408Y-119175010D01*
X118122000Y-119126001D01*
X118122000Y-119125999D01*
X118124408Y-119076990D01*
X118131607Y-119028454D01*
X118143530Y-118980857D01*
X118160060Y-118934657D01*
X118181039Y-118890301D01*
X118206265Y-118848214D01*
X118235495Y-118808802D01*
X118268447Y-118772446D01*
X118304803Y-118739494D01*
X118344215Y-118710264D01*
X118386302Y-118685038D01*
X118430658Y-118664059D01*
X118476858Y-118647529D01*
X118524455Y-118635606D01*
X118572991Y-118628407D01*
X118622000Y-118625999D01*
X119122000Y-118625999D01*
X119171009Y-118628407D01*
X119171009Y-118628407D01*
G37*
D17*
X118872000Y-119126000D03*
D14*
X115570000Y-141732000D03*
D13*
X115570000Y-139192000D03*
X115570000Y-136652000D03*
X115570000Y-134112000D03*
X115570000Y-131572000D03*
X115570000Y-129032000D03*
X115570000Y-126492000D03*
X115570000Y-123952000D03*
X115570000Y-121412000D03*
X115570000Y-118872000D03*
X115570000Y-116332000D03*
X115570000Y-113792000D03*
X115570000Y-111252000D03*
X115570000Y-108712000D03*
X115570000Y-106172000D03*
X115570000Y-103632000D03*
D19*
X126294000Y-141545000D03*
X126294000Y-134545000D03*
X133294000Y-132845000D03*
X133294000Y-138945000D03*
X133294000Y-142545000D03*
D10*
X129794000Y-135145000D03*
X129794000Y-141145000D03*
D20*
X135128000Y-119158000D03*
X135128000Y-118058000D03*
X135128000Y-116958000D03*
X135128000Y-115858000D03*
X135128000Y-114758000D03*
X135128000Y-113658000D03*
X135128000Y-110358000D03*
X135128000Y-112558000D03*
X135128000Y-108158000D03*
X135128000Y-111458000D03*
X135128000Y-107058000D03*
X135128000Y-109258000D03*
X135128000Y-104858000D03*
X135128000Y-103758000D03*
X135128000Y-102658000D03*
X135128000Y-105958000D03*
X121628000Y-109258000D03*
X121628000Y-102658000D03*
X121628000Y-112558000D03*
X121628000Y-119158000D03*
X121628000Y-108158000D03*
X121628000Y-116958000D03*
X121628000Y-105958000D03*
X121628000Y-118058000D03*
X121628000Y-103758000D03*
X121628000Y-114758000D03*
X121628000Y-111458000D03*
X121628000Y-107058000D03*
X121628000Y-104858000D03*
X121628000Y-113658000D03*
X121628000Y-115858000D03*
X121628000Y-110358000D03*
D21*
X124032000Y-138938000D03*
X121332000Y-138938000D03*
D12*
X129387600Y-125508000D03*
X129387600Y-129508000D03*
X131826000Y-129508000D03*
X131826000Y-125508000D03*
D21*
X122762000Y-132842000D03*
X120062000Y-132842000D03*
D11*
X120650000Y-129112000D03*
X120650000Y-126412000D03*
D10*
X133604000Y-134970000D03*
X133604000Y-140970000D03*
D11*
X118618000Y-107362000D03*
X118618000Y-110062000D03*
X125730000Y-128858000D03*
X125730000Y-126158000D03*
D10*
X181864000Y-93060000D03*
X181864000Y-99060000D03*
D11*
X193294000Y-86948000D03*
X193294000Y-84248000D03*
D12*
X182118000Y-83598000D03*
X182118000Y-87598000D03*
D11*
X195580000Y-86948000D03*
X195580000Y-84248000D03*
D13*
X199898000Y-99568000D03*
X199898000Y-97028000D03*
X199898000Y-94488000D03*
X199898000Y-91948000D03*
X199898000Y-89408000D03*
X199898000Y-86868000D03*
X199898000Y-84328000D03*
X199898000Y-81788000D03*
X199898000Y-79248000D03*
X199898000Y-76708000D03*
X199898000Y-74168000D03*
X199898000Y-71628000D03*
X199898000Y-69088000D03*
X199898000Y-66548000D03*
X199898000Y-64008000D03*
D14*
X199898000Y-61468000D03*
D15*
X177800000Y-79262000D03*
D16*
G36*
X178099009Y-79064407D02*
X178147545Y-79071606D01*
X178195142Y-79083529D01*
X178241342Y-79100059D01*
X178285698Y-79121038D01*
X178327785Y-79146264D01*
X178367197Y-79175494D01*
X178403553Y-79208446D01*
X178436505Y-79244802D01*
X178465735Y-79284214D01*
X178490961Y-79326301D01*
X178511940Y-79370657D01*
X178528470Y-79416857D01*
X178540393Y-79464454D01*
X178547592Y-79512990D01*
X178550000Y-79561999D01*
X178550000Y-79562001D01*
X178547592Y-79611010D01*
X178540393Y-79659546D01*
X178528470Y-79707143D01*
X178511940Y-79753343D01*
X178490961Y-79797699D01*
X178465735Y-79839786D01*
X178436505Y-79879198D01*
X178403553Y-79915554D01*
X178367197Y-79948506D01*
X178327785Y-79977736D01*
X178285698Y-80002962D01*
X178241342Y-80023941D01*
X178195142Y-80040471D01*
X178147545Y-80052394D01*
X178099009Y-80059593D01*
X178050000Y-80062001D01*
X177550000Y-80062001D01*
X177500991Y-80059593D01*
X177452455Y-80052394D01*
X177404858Y-80040471D01*
X177358658Y-80023941D01*
X177314302Y-80002962D01*
X177272215Y-79977736D01*
X177232803Y-79948506D01*
X177196447Y-79915554D01*
X177163495Y-79879198D01*
X177134265Y-79839786D01*
X177109039Y-79797699D01*
X177088060Y-79753343D01*
X177071530Y-79707143D01*
X177059607Y-79659546D01*
X177052408Y-79611010D01*
X177050000Y-79562001D01*
X177050000Y-79561999D01*
X177052408Y-79512990D01*
X177059607Y-79464454D01*
X177071530Y-79416857D01*
X177088060Y-79370657D01*
X177109039Y-79326301D01*
X177134265Y-79284214D01*
X177163495Y-79244802D01*
X177196447Y-79208446D01*
X177232803Y-79175494D01*
X177272215Y-79146264D01*
X177314302Y-79121038D01*
X177358658Y-79100059D01*
X177404858Y-79083529D01*
X177452455Y-79071606D01*
X177500991Y-79064407D01*
X177550000Y-79061999D01*
X178050000Y-79061999D01*
X178099009Y-79064407D01*
X178099009Y-79064407D01*
G37*
D17*
X177800000Y-79562000D03*
D18*
X177800000Y-78262000D03*
D15*
X177800000Y-77262000D03*
D16*
G36*
X178099009Y-76464407D02*
X178147545Y-76471606D01*
X178195142Y-76483529D01*
X178241342Y-76500059D01*
X178285698Y-76521038D01*
X178327785Y-76546264D01*
X178367197Y-76575494D01*
X178403553Y-76608446D01*
X178436505Y-76644802D01*
X178465735Y-76684214D01*
X178490961Y-76726301D01*
X178511940Y-76770657D01*
X178528470Y-76816857D01*
X178540393Y-76864454D01*
X178547592Y-76912990D01*
X178550000Y-76961999D01*
X178550000Y-76962001D01*
X178547592Y-77011010D01*
X178540393Y-77059546D01*
X178528470Y-77107143D01*
X178511940Y-77153343D01*
X178490961Y-77197699D01*
X178465735Y-77239786D01*
X178436505Y-77279198D01*
X178403553Y-77315554D01*
X178367197Y-77348506D01*
X178327785Y-77377736D01*
X178285698Y-77402962D01*
X178241342Y-77423941D01*
X178195142Y-77440471D01*
X178147545Y-77452394D01*
X178099009Y-77459593D01*
X178050000Y-77462001D01*
X177550000Y-77462001D01*
X177500991Y-77459593D01*
X177452455Y-77452394D01*
X177404858Y-77440471D01*
X177358658Y-77423941D01*
X177314302Y-77402962D01*
X177272215Y-77377736D01*
X177232803Y-77348506D01*
X177196447Y-77315554D01*
X177163495Y-77279198D01*
X177134265Y-77239786D01*
X177109039Y-77197699D01*
X177088060Y-77153343D01*
X177071530Y-77107143D01*
X177059607Y-77059546D01*
X177052408Y-77011010D01*
X177050000Y-76962001D01*
X177050000Y-76961999D01*
X177052408Y-76912990D01*
X177059607Y-76864454D01*
X177071530Y-76816857D01*
X177088060Y-76770657D01*
X177109039Y-76726301D01*
X177134265Y-76684214D01*
X177163495Y-76644802D01*
X177196447Y-76608446D01*
X177232803Y-76575494D01*
X177272215Y-76546264D01*
X177314302Y-76521038D01*
X177358658Y-76500059D01*
X177404858Y-76483529D01*
X177452455Y-76471606D01*
X177500991Y-76464407D01*
X177550000Y-76461999D01*
X178050000Y-76461999D01*
X178099009Y-76464407D01*
X178099009Y-76464407D01*
G37*
D17*
X177800000Y-76962000D03*
D14*
X174498000Y-99568000D03*
D13*
X174498000Y-97028000D03*
X174498000Y-94488000D03*
X174498000Y-91948000D03*
X174498000Y-89408000D03*
X174498000Y-86868000D03*
X174498000Y-84328000D03*
X174498000Y-81788000D03*
X174498000Y-79248000D03*
X174498000Y-76708000D03*
X174498000Y-74168000D03*
X174498000Y-71628000D03*
X174498000Y-69088000D03*
X174498000Y-66548000D03*
X174498000Y-64008000D03*
X174498000Y-61468000D03*
D19*
X185222000Y-99381000D03*
X185222000Y-92381000D03*
X192222000Y-90681000D03*
X192222000Y-96781000D03*
X192222000Y-100381000D03*
D10*
X188722000Y-92981000D03*
X188722000Y-98981000D03*
D20*
X194056000Y-76994000D03*
X194056000Y-75894000D03*
X194056000Y-74794000D03*
X194056000Y-73694000D03*
X194056000Y-72594000D03*
X194056000Y-71494000D03*
X194056000Y-68194000D03*
X194056000Y-70394000D03*
X194056000Y-65994000D03*
X194056000Y-69294000D03*
X194056000Y-64894000D03*
X194056000Y-67094000D03*
X194056000Y-62694000D03*
X194056000Y-61594000D03*
X194056000Y-60494000D03*
X194056000Y-63794000D03*
X180556000Y-67094000D03*
X180556000Y-60494000D03*
X180556000Y-70394000D03*
X180556000Y-76994000D03*
X180556000Y-65994000D03*
X180556000Y-74794000D03*
X180556000Y-63794000D03*
X180556000Y-75894000D03*
X180556000Y-61594000D03*
X180556000Y-72594000D03*
X180556000Y-69294000D03*
X180556000Y-64894000D03*
X180556000Y-62694000D03*
X180556000Y-71494000D03*
X180556000Y-73694000D03*
X180556000Y-68194000D03*
D21*
X182960000Y-96774000D03*
X180260000Y-96774000D03*
D12*
X188315600Y-83344000D03*
X188315600Y-87344000D03*
X190754000Y-87344000D03*
X190754000Y-83344000D03*
D21*
X181690000Y-90678000D03*
X178990000Y-90678000D03*
D11*
X179578000Y-86948000D03*
X179578000Y-84248000D03*
D10*
X192532000Y-92806000D03*
X192532000Y-98806000D03*
D11*
X177546000Y-65198000D03*
X177546000Y-67898000D03*
X184658000Y-86694000D03*
X184658000Y-83994000D03*
D10*
X152400000Y-93060000D03*
X152400000Y-99060000D03*
D11*
X163830000Y-86948000D03*
X163830000Y-84248000D03*
D12*
X152654000Y-83598000D03*
X152654000Y-87598000D03*
D11*
X166116000Y-86948000D03*
X166116000Y-84248000D03*
D13*
X170434000Y-99568000D03*
X170434000Y-97028000D03*
X170434000Y-94488000D03*
X170434000Y-91948000D03*
X170434000Y-89408000D03*
X170434000Y-86868000D03*
X170434000Y-84328000D03*
X170434000Y-81788000D03*
X170434000Y-79248000D03*
X170434000Y-76708000D03*
X170434000Y-74168000D03*
X170434000Y-71628000D03*
X170434000Y-69088000D03*
X170434000Y-66548000D03*
X170434000Y-64008000D03*
D14*
X170434000Y-61468000D03*
D15*
X148336000Y-79262000D03*
D16*
G36*
X148635009Y-79064407D02*
X148683545Y-79071606D01*
X148731142Y-79083529D01*
X148777342Y-79100059D01*
X148821698Y-79121038D01*
X148863785Y-79146264D01*
X148903197Y-79175494D01*
X148939553Y-79208446D01*
X148972505Y-79244802D01*
X149001735Y-79284214D01*
X149026961Y-79326301D01*
X149047940Y-79370657D01*
X149064470Y-79416857D01*
X149076393Y-79464454D01*
X149083592Y-79512990D01*
X149086000Y-79561999D01*
X149086000Y-79562001D01*
X149083592Y-79611010D01*
X149076393Y-79659546D01*
X149064470Y-79707143D01*
X149047940Y-79753343D01*
X149026961Y-79797699D01*
X149001735Y-79839786D01*
X148972505Y-79879198D01*
X148939553Y-79915554D01*
X148903197Y-79948506D01*
X148863785Y-79977736D01*
X148821698Y-80002962D01*
X148777342Y-80023941D01*
X148731142Y-80040471D01*
X148683545Y-80052394D01*
X148635009Y-80059593D01*
X148586000Y-80062001D01*
X148086000Y-80062001D01*
X148036991Y-80059593D01*
X147988455Y-80052394D01*
X147940858Y-80040471D01*
X147894658Y-80023941D01*
X147850302Y-80002962D01*
X147808215Y-79977736D01*
X147768803Y-79948506D01*
X147732447Y-79915554D01*
X147699495Y-79879198D01*
X147670265Y-79839786D01*
X147645039Y-79797699D01*
X147624060Y-79753343D01*
X147607530Y-79707143D01*
X147595607Y-79659546D01*
X147588408Y-79611010D01*
X147586000Y-79562001D01*
X147586000Y-79561999D01*
X147588408Y-79512990D01*
X147595607Y-79464454D01*
X147607530Y-79416857D01*
X147624060Y-79370657D01*
X147645039Y-79326301D01*
X147670265Y-79284214D01*
X147699495Y-79244802D01*
X147732447Y-79208446D01*
X147768803Y-79175494D01*
X147808215Y-79146264D01*
X147850302Y-79121038D01*
X147894658Y-79100059D01*
X147940858Y-79083529D01*
X147988455Y-79071606D01*
X148036991Y-79064407D01*
X148086000Y-79061999D01*
X148586000Y-79061999D01*
X148635009Y-79064407D01*
X148635009Y-79064407D01*
G37*
D17*
X148336000Y-79562000D03*
D18*
X148336000Y-78262000D03*
D15*
X148336000Y-77262000D03*
D16*
G36*
X148635009Y-76464407D02*
X148683545Y-76471606D01*
X148731142Y-76483529D01*
X148777342Y-76500059D01*
X148821698Y-76521038D01*
X148863785Y-76546264D01*
X148903197Y-76575494D01*
X148939553Y-76608446D01*
X148972505Y-76644802D01*
X149001735Y-76684214D01*
X149026961Y-76726301D01*
X149047940Y-76770657D01*
X149064470Y-76816857D01*
X149076393Y-76864454D01*
X149083592Y-76912990D01*
X149086000Y-76961999D01*
X149086000Y-76962001D01*
X149083592Y-77011010D01*
X149076393Y-77059546D01*
X149064470Y-77107143D01*
X149047940Y-77153343D01*
X149026961Y-77197699D01*
X149001735Y-77239786D01*
X148972505Y-77279198D01*
X148939553Y-77315554D01*
X148903197Y-77348506D01*
X148863785Y-77377736D01*
X148821698Y-77402962D01*
X148777342Y-77423941D01*
X148731142Y-77440471D01*
X148683545Y-77452394D01*
X148635009Y-77459593D01*
X148586000Y-77462001D01*
X148086000Y-77462001D01*
X148036991Y-77459593D01*
X147988455Y-77452394D01*
X147940858Y-77440471D01*
X147894658Y-77423941D01*
X147850302Y-77402962D01*
X147808215Y-77377736D01*
X147768803Y-77348506D01*
X147732447Y-77315554D01*
X147699495Y-77279198D01*
X147670265Y-77239786D01*
X147645039Y-77197699D01*
X147624060Y-77153343D01*
X147607530Y-77107143D01*
X147595607Y-77059546D01*
X147588408Y-77011010D01*
X147586000Y-76962001D01*
X147586000Y-76961999D01*
X147588408Y-76912990D01*
X147595607Y-76864454D01*
X147607530Y-76816857D01*
X147624060Y-76770657D01*
X147645039Y-76726301D01*
X147670265Y-76684214D01*
X147699495Y-76644802D01*
X147732447Y-76608446D01*
X147768803Y-76575494D01*
X147808215Y-76546264D01*
X147850302Y-76521038D01*
X147894658Y-76500059D01*
X147940858Y-76483529D01*
X147988455Y-76471606D01*
X148036991Y-76464407D01*
X148086000Y-76461999D01*
X148586000Y-76461999D01*
X148635009Y-76464407D01*
X148635009Y-76464407D01*
G37*
D17*
X148336000Y-76962000D03*
D14*
X145034000Y-99568000D03*
D13*
X145034000Y-97028000D03*
X145034000Y-94488000D03*
X145034000Y-91948000D03*
X145034000Y-89408000D03*
X145034000Y-86868000D03*
X145034000Y-84328000D03*
X145034000Y-81788000D03*
X145034000Y-79248000D03*
X145034000Y-76708000D03*
X145034000Y-74168000D03*
X145034000Y-71628000D03*
X145034000Y-69088000D03*
X145034000Y-66548000D03*
X145034000Y-64008000D03*
X145034000Y-61468000D03*
D19*
X155758000Y-99381000D03*
X155758000Y-92381000D03*
X162758000Y-90681000D03*
X162758000Y-96781000D03*
X162758000Y-100381000D03*
D10*
X159258000Y-92981000D03*
X159258000Y-98981000D03*
D20*
X164592000Y-76994000D03*
X164592000Y-75894000D03*
X164592000Y-74794000D03*
X164592000Y-73694000D03*
X164592000Y-72594000D03*
X164592000Y-71494000D03*
X164592000Y-68194000D03*
X164592000Y-70394000D03*
X164592000Y-65994000D03*
X164592000Y-69294000D03*
X164592000Y-64894000D03*
X164592000Y-67094000D03*
X164592000Y-62694000D03*
X164592000Y-61594000D03*
X164592000Y-60494000D03*
X164592000Y-63794000D03*
X151092000Y-67094000D03*
X151092000Y-60494000D03*
X151092000Y-70394000D03*
X151092000Y-76994000D03*
X151092000Y-65994000D03*
X151092000Y-74794000D03*
X151092000Y-63794000D03*
X151092000Y-75894000D03*
X151092000Y-61594000D03*
X151092000Y-72594000D03*
X151092000Y-69294000D03*
X151092000Y-64894000D03*
X151092000Y-62694000D03*
X151092000Y-71494000D03*
X151092000Y-73694000D03*
X151092000Y-68194000D03*
D21*
X153496000Y-96774000D03*
X150796000Y-96774000D03*
D12*
X158851600Y-83344000D03*
X158851600Y-87344000D03*
X161290000Y-87344000D03*
X161290000Y-83344000D03*
D21*
X152226000Y-90678000D03*
X149526000Y-90678000D03*
D11*
X150114000Y-86948000D03*
X150114000Y-84248000D03*
D10*
X163068000Y-92806000D03*
X163068000Y-98806000D03*
D11*
X148082000Y-65198000D03*
X148082000Y-67898000D03*
X155194000Y-86694000D03*
X155194000Y-83994000D03*
D10*
X122936000Y-99060000D03*
X122936000Y-93060000D03*
X133604000Y-98806000D03*
X133604000Y-92806000D03*
D13*
X115570000Y-61468000D03*
X115570000Y-64008000D03*
X115570000Y-66548000D03*
X115570000Y-69088000D03*
X115570000Y-71628000D03*
X115570000Y-74168000D03*
X115570000Y-76708000D03*
X115570000Y-79248000D03*
X115570000Y-81788000D03*
X115570000Y-84328000D03*
X115570000Y-86868000D03*
X115570000Y-89408000D03*
X115570000Y-91948000D03*
X115570000Y-94488000D03*
X115570000Y-97028000D03*
D14*
X115570000Y-99568000D03*
X140970000Y-61468000D03*
D13*
X140970000Y-64008000D03*
X140970000Y-66548000D03*
X140970000Y-69088000D03*
X140970000Y-71628000D03*
X140970000Y-74168000D03*
X140970000Y-76708000D03*
X140970000Y-79248000D03*
X140970000Y-81788000D03*
X140970000Y-84328000D03*
X140970000Y-86868000D03*
X140970000Y-89408000D03*
X140970000Y-91948000D03*
X140970000Y-94488000D03*
X140970000Y-97028000D03*
X140970000Y-99568000D03*
D11*
X118618000Y-67898000D03*
X118618000Y-65198000D03*
D21*
X120062000Y-90678000D03*
X122762000Y-90678000D03*
X121332000Y-96774000D03*
X124032000Y-96774000D03*
D11*
X136652000Y-84248000D03*
X136652000Y-86948000D03*
X120650000Y-84248000D03*
X120650000Y-86948000D03*
X134366000Y-84248000D03*
X134366000Y-86948000D03*
X125730000Y-83994000D03*
X125730000Y-86694000D03*
D20*
X121628000Y-68194000D03*
X121628000Y-73694000D03*
X121628000Y-71494000D03*
X121628000Y-62694000D03*
X121628000Y-64894000D03*
X121628000Y-69294000D03*
X121628000Y-72594000D03*
X121628000Y-61594000D03*
X121628000Y-75894000D03*
X121628000Y-63794000D03*
X121628000Y-74794000D03*
X121628000Y-65994000D03*
X121628000Y-76994000D03*
X121628000Y-70394000D03*
X121628000Y-60494000D03*
X121628000Y-67094000D03*
X135128000Y-63794000D03*
X135128000Y-60494000D03*
X135128000Y-61594000D03*
X135128000Y-62694000D03*
X135128000Y-67094000D03*
X135128000Y-64894000D03*
X135128000Y-69294000D03*
X135128000Y-65994000D03*
X135128000Y-70394000D03*
X135128000Y-68194000D03*
X135128000Y-71494000D03*
X135128000Y-72594000D03*
X135128000Y-73694000D03*
X135128000Y-74794000D03*
X135128000Y-75894000D03*
X135128000Y-76994000D03*
D10*
X129794000Y-98981000D03*
X129794000Y-92981000D03*
D19*
X133294000Y-100381000D03*
X133294000Y-96781000D03*
X133294000Y-90681000D03*
X126294000Y-92381000D03*
X126294000Y-99381000D03*
D12*
X129387600Y-87344000D03*
X129387600Y-83344000D03*
X131826000Y-83344000D03*
X131826000Y-87344000D03*
X123190000Y-87598000D03*
X123190000Y-83598000D03*
D16*
G36*
X119171009Y-76464407D02*
X119219545Y-76471606D01*
X119267142Y-76483529D01*
X119313342Y-76500059D01*
X119357698Y-76521038D01*
X119399785Y-76546264D01*
X119439197Y-76575494D01*
X119475553Y-76608446D01*
X119508505Y-76644802D01*
X119537735Y-76684214D01*
X119562961Y-76726301D01*
X119583940Y-76770657D01*
X119600470Y-76816857D01*
X119612393Y-76864454D01*
X119619592Y-76912990D01*
X119622000Y-76961999D01*
X119622000Y-76962001D01*
X119619592Y-77011010D01*
X119612393Y-77059546D01*
X119600470Y-77107143D01*
X119583940Y-77153343D01*
X119562961Y-77197699D01*
X119537735Y-77239786D01*
X119508505Y-77279198D01*
X119475553Y-77315554D01*
X119439197Y-77348506D01*
X119399785Y-77377736D01*
X119357698Y-77402962D01*
X119313342Y-77423941D01*
X119267142Y-77440471D01*
X119219545Y-77452394D01*
X119171009Y-77459593D01*
X119122000Y-77462001D01*
X118622000Y-77462001D01*
X118572991Y-77459593D01*
X118524455Y-77452394D01*
X118476858Y-77440471D01*
X118430658Y-77423941D01*
X118386302Y-77402962D01*
X118344215Y-77377736D01*
X118304803Y-77348506D01*
X118268447Y-77315554D01*
X118235495Y-77279198D01*
X118206265Y-77239786D01*
X118181039Y-77197699D01*
X118160060Y-77153343D01*
X118143530Y-77107143D01*
X118131607Y-77059546D01*
X118124408Y-77011010D01*
X118122000Y-76962001D01*
X118122000Y-76961999D01*
X118124408Y-76912990D01*
X118131607Y-76864454D01*
X118143530Y-76816857D01*
X118160060Y-76770657D01*
X118181039Y-76726301D01*
X118206265Y-76684214D01*
X118235495Y-76644802D01*
X118268447Y-76608446D01*
X118304803Y-76575494D01*
X118344215Y-76546264D01*
X118386302Y-76521038D01*
X118430658Y-76500059D01*
X118476858Y-76483529D01*
X118524455Y-76471606D01*
X118572991Y-76464407D01*
X118622000Y-76461999D01*
X119122000Y-76461999D01*
X119171009Y-76464407D01*
X119171009Y-76464407D01*
G37*
D17*
X118872000Y-76962000D03*
D15*
X118872000Y-77262000D03*
D18*
X118872000Y-78262000D03*
D16*
G36*
X119171009Y-79064407D02*
X119219545Y-79071606D01*
X119267142Y-79083529D01*
X119313342Y-79100059D01*
X119357698Y-79121038D01*
X119399785Y-79146264D01*
X119439197Y-79175494D01*
X119475553Y-79208446D01*
X119508505Y-79244802D01*
X119537735Y-79284214D01*
X119562961Y-79326301D01*
X119583940Y-79370657D01*
X119600470Y-79416857D01*
X119612393Y-79464454D01*
X119619592Y-79512990D01*
X119622000Y-79561999D01*
X119622000Y-79562001D01*
X119619592Y-79611010D01*
X119612393Y-79659546D01*
X119600470Y-79707143D01*
X119583940Y-79753343D01*
X119562961Y-79797699D01*
X119537735Y-79839786D01*
X119508505Y-79879198D01*
X119475553Y-79915554D01*
X119439197Y-79948506D01*
X119399785Y-79977736D01*
X119357698Y-80002962D01*
X119313342Y-80023941D01*
X119267142Y-80040471D01*
X119219545Y-80052394D01*
X119171009Y-80059593D01*
X119122000Y-80062001D01*
X118622000Y-80062001D01*
X118572991Y-80059593D01*
X118524455Y-80052394D01*
X118476858Y-80040471D01*
X118430658Y-80023941D01*
X118386302Y-80002962D01*
X118344215Y-79977736D01*
X118304803Y-79948506D01*
X118268447Y-79915554D01*
X118235495Y-79879198D01*
X118206265Y-79839786D01*
X118181039Y-79797699D01*
X118160060Y-79753343D01*
X118143530Y-79707143D01*
X118131607Y-79659546D01*
X118124408Y-79611010D01*
X118122000Y-79562001D01*
X118122000Y-79561999D01*
X118124408Y-79512990D01*
X118131607Y-79464454D01*
X118143530Y-79416857D01*
X118160060Y-79370657D01*
X118181039Y-79326301D01*
X118206265Y-79284214D01*
X118235495Y-79244802D01*
X118268447Y-79208446D01*
X118304803Y-79175494D01*
X118344215Y-79146264D01*
X118386302Y-79121038D01*
X118430658Y-79100059D01*
X118476858Y-79083529D01*
X118524455Y-79071606D01*
X118572991Y-79064407D01*
X118622000Y-79061999D01*
X119122000Y-79061999D01*
X119171009Y-79064407D01*
X119171009Y-79064407D01*
G37*
D17*
X118872000Y-79562000D03*
D15*
X118872000Y-79262000D03*
M02*
