G04 #@! TF.GenerationSoftware,KiCad,Pcbnew,5.1.0-rc1-unknown-e6a200b~76~ubuntu16.04.1*
G04 #@! TF.CreationDate,2019-02-18T11:20:04+01:00
G04 #@! TF.ProjectId,nano324,6e616e6f-3332-4342-9e6b-696361645f70,rev?*
G04 #@! TF.SameCoordinates,Original*
G04 #@! TF.FileFunction,Legend,Bot*
G04 #@! TF.FilePolarity,Positive*
%FSLAX46Y46*%
G04 Gerber Fmt 4.6, Leading zero omitted, Abs format (unit mm)*
G04 Created by KiCad (PCBNEW 5.1.0-rc1-unknown-e6a200b~76~ubuntu16.04.1) date 2019-02-18 11:20:04*
%MOMM*%
%LPD*%
G04 APERTURE LIST*
%ADD10C,0.150000*%
%ADD11C,0.127000*%
%ADD12C,0.120000*%
%ADD13C,0.076200*%
%ADD14C,2.540000*%
%ADD15O,1.727200X1.727200*%
%ADD16R,1.727200X1.727200*%
%ADD17R,1.500000X1.250000*%
%ADD18R,0.910000X1.220000*%
%ADD19R,2.032000X1.727200*%
%ADD20O,2.032000X1.727200*%
%ADD21C,1.000760*%
%ADD22C,1.000760*%
%ADD23R,1.500000X1.300000*%
%ADD24R,2.150000X0.950000*%
%ADD25R,2.150000X3.250000*%
%ADD26O,1.000000X1.550000*%
%ADD27O,1.250000X0.950000*%
%ADD28R,2.030000X1.650000*%
%ADD29R,1.220000X0.910000*%
%ADD30R,1.300000X1.300000*%
%ADD31R,0.850000X0.300000*%
%ADD32R,0.300000X0.850000*%
G04 APERTURE END LIST*
D10*
X199651240Y-102475400D02*
X198651240Y-102475400D01*
X198651240Y-100775400D02*
X199651240Y-100775400D01*
X196658480Y-91583080D02*
X200198480Y-91583080D01*
X196658480Y-89783080D02*
X200198480Y-89783080D01*
X198340980Y-91191080D02*
X198340980Y-90175080D01*
X198975980Y-90302080D02*
X198340980Y-90683080D01*
X198975980Y-91064080D02*
X198975980Y-90302080D01*
X198340980Y-90683080D02*
X198975980Y-91064080D01*
X197959980Y-90683080D02*
X198340980Y-90683080D01*
X198975980Y-90683080D02*
X199356980Y-90683080D01*
X195818200Y-136511000D02*
X197018200Y-136511000D01*
X197018200Y-134761000D02*
X195818200Y-134761000D01*
X192489200Y-100750000D02*
X193489200Y-100750000D01*
X193489200Y-102450000D02*
X192489200Y-102450000D01*
X193180400Y-81131040D02*
X194180400Y-81131040D01*
X194180400Y-82831040D02*
X193180400Y-82831040D01*
D11*
X194338000Y-98258700D02*
X197838000Y-98258700D01*
X197838000Y-91758700D02*
X194338000Y-91758700D01*
X195438000Y-97458700D02*
G75*
G03X195438000Y-97458700I-300000J0D01*
G01*
D10*
X199712200Y-109054000D02*
X198712200Y-109054000D01*
X198712200Y-107354000D02*
X199712200Y-107354000D01*
X197018200Y-136970800D02*
X195818200Y-136970800D01*
X195818200Y-138720800D02*
X197018200Y-138720800D01*
X194383280Y-91522920D02*
X193383280Y-91522920D01*
X193383280Y-89822920D02*
X194383280Y-89822920D01*
X197792400Y-81075160D02*
X198792400Y-81075160D01*
X198792400Y-82775160D02*
X197792400Y-82775160D01*
D11*
X195412600Y-88721100D02*
G75*
G03X195412600Y-88721100I-300000J0D01*
G01*
X197812600Y-83021100D02*
X194312600Y-83021100D01*
X194312600Y-89521100D02*
X197812600Y-89521100D01*
D10*
X198641400Y-98636720D02*
X199641400Y-98636720D01*
X199641400Y-100336720D02*
X198641400Y-100336720D01*
D12*
X192916200Y-133303520D02*
X192916200Y-131303520D01*
X190776200Y-131303520D02*
X190776200Y-133303520D01*
D10*
X190946200Y-125000000D02*
X190946200Y-128540000D01*
X192746200Y-125000000D02*
X192746200Y-128540000D01*
X191338200Y-126682500D02*
X192354200Y-126682500D01*
X192227200Y-127317500D02*
X191846200Y-126682500D01*
X191465200Y-127317500D02*
X192227200Y-127317500D01*
X191846200Y-126682500D02*
X191465200Y-127317500D01*
X191846200Y-126301500D02*
X191846200Y-126682500D01*
X191846200Y-127317500D02*
X191846200Y-127698500D01*
X192431120Y-100300760D02*
X193631120Y-100300760D01*
X193631120Y-98550760D02*
X192431120Y-98550760D01*
X198481600Y-127184500D02*
X198481600Y-127709500D01*
X194181600Y-127184500D02*
X194181600Y-127709500D01*
X194181600Y-131484500D02*
X194181600Y-130959500D01*
X198481600Y-131484500D02*
X198481600Y-130959500D01*
X194181600Y-127184500D02*
X194706600Y-127184500D01*
X194181600Y-131484500D02*
X194706600Y-131484500D01*
X198481600Y-127184500D02*
X197956600Y-127184500D01*
X175267240Y-102475400D02*
X174267240Y-102475400D01*
X174267240Y-100775400D02*
X175267240Y-100775400D01*
X172274480Y-91583080D02*
X175814480Y-91583080D01*
X172274480Y-89783080D02*
X175814480Y-89783080D01*
X173956980Y-91191080D02*
X173956980Y-90175080D01*
X174591980Y-90302080D02*
X173956980Y-90683080D01*
X174591980Y-91064080D02*
X174591980Y-90302080D01*
X173956980Y-90683080D02*
X174591980Y-91064080D01*
X173575980Y-90683080D02*
X173956980Y-90683080D01*
X174591980Y-90683080D02*
X174972980Y-90683080D01*
X171434200Y-136511000D02*
X172634200Y-136511000D01*
X172634200Y-134761000D02*
X171434200Y-134761000D01*
X168105200Y-100750000D02*
X169105200Y-100750000D01*
X169105200Y-102450000D02*
X168105200Y-102450000D01*
X168796400Y-81131040D02*
X169796400Y-81131040D01*
X169796400Y-82831040D02*
X168796400Y-82831040D01*
D11*
X169954000Y-98258700D02*
X173454000Y-98258700D01*
X173454000Y-91758700D02*
X169954000Y-91758700D01*
X171054000Y-97458700D02*
G75*
G03X171054000Y-97458700I-300000J0D01*
G01*
D10*
X175328200Y-109054000D02*
X174328200Y-109054000D01*
X174328200Y-107354000D02*
X175328200Y-107354000D01*
X172634200Y-136970800D02*
X171434200Y-136970800D01*
X171434200Y-138720800D02*
X172634200Y-138720800D01*
X169999280Y-91522920D02*
X168999280Y-91522920D01*
X168999280Y-89822920D02*
X169999280Y-89822920D01*
X173408400Y-81075160D02*
X174408400Y-81075160D01*
X174408400Y-82775160D02*
X173408400Y-82775160D01*
D11*
X171028600Y-88721100D02*
G75*
G03X171028600Y-88721100I-300000J0D01*
G01*
X173428600Y-83021100D02*
X169928600Y-83021100D01*
X169928600Y-89521100D02*
X173428600Y-89521100D01*
D10*
X174257400Y-98636720D02*
X175257400Y-98636720D01*
X175257400Y-100336720D02*
X174257400Y-100336720D01*
D12*
X168532200Y-133303520D02*
X168532200Y-131303520D01*
X166392200Y-131303520D02*
X166392200Y-133303520D01*
D10*
X166562200Y-125000000D02*
X166562200Y-128540000D01*
X168362200Y-125000000D02*
X168362200Y-128540000D01*
X166954200Y-126682500D02*
X167970200Y-126682500D01*
X167843200Y-127317500D02*
X167462200Y-126682500D01*
X167081200Y-127317500D02*
X167843200Y-127317500D01*
X167462200Y-126682500D02*
X167081200Y-127317500D01*
X167462200Y-126301500D02*
X167462200Y-126682500D01*
X167462200Y-127317500D02*
X167462200Y-127698500D01*
X168047120Y-100300760D02*
X169247120Y-100300760D01*
X169247120Y-98550760D02*
X168047120Y-98550760D01*
X174097600Y-127184500D02*
X174097600Y-127709500D01*
X169797600Y-127184500D02*
X169797600Y-127709500D01*
X169797600Y-131484500D02*
X169797600Y-130959500D01*
X174097600Y-131484500D02*
X174097600Y-130959500D01*
X169797600Y-127184500D02*
X170322600Y-127184500D01*
X169797600Y-131484500D02*
X170322600Y-131484500D01*
X174097600Y-127184500D02*
X173572600Y-127184500D01*
X150883240Y-102475400D02*
X149883240Y-102475400D01*
X149883240Y-100775400D02*
X150883240Y-100775400D01*
X147890480Y-91583080D02*
X151430480Y-91583080D01*
X147890480Y-89783080D02*
X151430480Y-89783080D01*
X149572980Y-91191080D02*
X149572980Y-90175080D01*
X150207980Y-90302080D02*
X149572980Y-90683080D01*
X150207980Y-91064080D02*
X150207980Y-90302080D01*
X149572980Y-90683080D02*
X150207980Y-91064080D01*
X149191980Y-90683080D02*
X149572980Y-90683080D01*
X150207980Y-90683080D02*
X150588980Y-90683080D01*
X147050200Y-136511000D02*
X148250200Y-136511000D01*
X148250200Y-134761000D02*
X147050200Y-134761000D01*
X143721200Y-100750000D02*
X144721200Y-100750000D01*
X144721200Y-102450000D02*
X143721200Y-102450000D01*
X144412400Y-81131040D02*
X145412400Y-81131040D01*
X145412400Y-82831040D02*
X144412400Y-82831040D01*
D11*
X145570000Y-98258700D02*
X149070000Y-98258700D01*
X149070000Y-91758700D02*
X145570000Y-91758700D01*
X146670000Y-97458700D02*
G75*
G03X146670000Y-97458700I-300000J0D01*
G01*
D10*
X150944200Y-109054000D02*
X149944200Y-109054000D01*
X149944200Y-107354000D02*
X150944200Y-107354000D01*
X148250200Y-136970800D02*
X147050200Y-136970800D01*
X147050200Y-138720800D02*
X148250200Y-138720800D01*
X145615280Y-91522920D02*
X144615280Y-91522920D01*
X144615280Y-89822920D02*
X145615280Y-89822920D01*
X149024400Y-81075160D02*
X150024400Y-81075160D01*
X150024400Y-82775160D02*
X149024400Y-82775160D01*
D11*
X146644600Y-88721100D02*
G75*
G03X146644600Y-88721100I-300000J0D01*
G01*
X149044600Y-83021100D02*
X145544600Y-83021100D01*
X145544600Y-89521100D02*
X149044600Y-89521100D01*
D10*
X149873400Y-98636720D02*
X150873400Y-98636720D01*
X150873400Y-100336720D02*
X149873400Y-100336720D01*
D12*
X144148200Y-133303520D02*
X144148200Y-131303520D01*
X142008200Y-131303520D02*
X142008200Y-133303520D01*
D10*
X142178200Y-125000000D02*
X142178200Y-128540000D01*
X143978200Y-125000000D02*
X143978200Y-128540000D01*
X142570200Y-126682500D02*
X143586200Y-126682500D01*
X143459200Y-127317500D02*
X143078200Y-126682500D01*
X142697200Y-127317500D02*
X143459200Y-127317500D01*
X143078200Y-126682500D02*
X142697200Y-127317500D01*
X143078200Y-126301500D02*
X143078200Y-126682500D01*
X143078200Y-127317500D02*
X143078200Y-127698500D01*
X143663120Y-100300760D02*
X144863120Y-100300760D01*
X144863120Y-98550760D02*
X143663120Y-98550760D01*
X149713600Y-127184500D02*
X149713600Y-127709500D01*
X145413600Y-127184500D02*
X145413600Y-127709500D01*
X145413600Y-131484500D02*
X145413600Y-130959500D01*
X149713600Y-131484500D02*
X149713600Y-130959500D01*
X145413600Y-127184500D02*
X145938600Y-127184500D01*
X145413600Y-131484500D02*
X145938600Y-131484500D01*
X149713600Y-127184500D02*
X149188600Y-127184500D01*
D11*
X122286000Y-97458700D02*
G75*
G03X122286000Y-97458700I-300000J0D01*
G01*
X124686000Y-91758700D02*
X121186000Y-91758700D01*
X121186000Y-98258700D02*
X124686000Y-98258700D01*
D10*
X120337200Y-102450000D02*
X119337200Y-102450000D01*
X119337200Y-100750000D02*
X120337200Y-100750000D01*
X125560200Y-107354000D02*
X126560200Y-107354000D01*
X126560200Y-109054000D02*
X125560200Y-109054000D01*
X120231280Y-89822920D02*
X121231280Y-89822920D01*
X121231280Y-91522920D02*
X120231280Y-91522920D01*
X121028400Y-82831040D02*
X120028400Y-82831040D01*
X120028400Y-81131040D02*
X121028400Y-81131040D01*
X125499240Y-100775400D02*
X126499240Y-100775400D01*
X126499240Y-102475400D02*
X125499240Y-102475400D01*
X125640400Y-82775160D02*
X124640400Y-82775160D01*
X124640400Y-81075160D02*
X125640400Y-81075160D01*
X126489400Y-100336720D02*
X125489400Y-100336720D01*
X125489400Y-98636720D02*
X126489400Y-98636720D01*
X118694200Y-127317500D02*
X118694200Y-127698500D01*
X118694200Y-126301500D02*
X118694200Y-126682500D01*
X118694200Y-126682500D02*
X118313200Y-127317500D01*
X118313200Y-127317500D02*
X119075200Y-127317500D01*
X119075200Y-127317500D02*
X118694200Y-126682500D01*
X118186200Y-126682500D02*
X119202200Y-126682500D01*
X119594200Y-125000000D02*
X119594200Y-128540000D01*
X117794200Y-125000000D02*
X117794200Y-128540000D01*
X125823980Y-90683080D02*
X126204980Y-90683080D01*
X124807980Y-90683080D02*
X125188980Y-90683080D01*
X125188980Y-90683080D02*
X125823980Y-91064080D01*
X125823980Y-91064080D02*
X125823980Y-90302080D01*
X125823980Y-90302080D02*
X125188980Y-90683080D01*
X125188980Y-91191080D02*
X125188980Y-90175080D01*
X123506480Y-89783080D02*
X127046480Y-89783080D01*
X123506480Y-91583080D02*
X127046480Y-91583080D01*
D12*
X117624200Y-131303520D02*
X117624200Y-133303520D01*
X119764200Y-133303520D02*
X119764200Y-131303520D01*
D10*
X123866200Y-134761000D02*
X122666200Y-134761000D01*
X122666200Y-136511000D02*
X123866200Y-136511000D01*
X122666200Y-138720800D02*
X123866200Y-138720800D01*
X123866200Y-136970800D02*
X122666200Y-136970800D01*
X120479120Y-98550760D02*
X119279120Y-98550760D01*
X119279120Y-100300760D02*
X120479120Y-100300760D01*
X125329600Y-127184500D02*
X124804600Y-127184500D01*
X121029600Y-131484500D02*
X121554600Y-131484500D01*
X121029600Y-127184500D02*
X121554600Y-127184500D01*
X125329600Y-131484500D02*
X125329600Y-130959500D01*
X121029600Y-131484500D02*
X121029600Y-130959500D01*
X121029600Y-127184500D02*
X121029600Y-127709500D01*
X125329600Y-127184500D02*
X125329600Y-127709500D01*
D11*
X121160600Y-89521100D02*
X124660600Y-89521100D01*
X124660600Y-83021100D02*
X121160600Y-83021100D01*
X122260600Y-88721100D02*
G75*
G03X122260600Y-88721100I-300000J0D01*
G01*
D10*
X202617342Y-101433333D02*
X202664961Y-101385714D01*
X202712580Y-101242857D01*
X202712580Y-101147619D01*
X202664961Y-101004761D01*
X202569723Y-100909523D01*
X202474485Y-100861904D01*
X202284009Y-100814285D01*
X202141152Y-100814285D01*
X201950676Y-100861904D01*
X201855438Y-100909523D01*
X201760200Y-101004761D01*
X201712580Y-101147619D01*
X201712580Y-101242857D01*
X201760200Y-101385714D01*
X201807819Y-101433333D01*
X201712580Y-102338095D02*
X201712580Y-101861904D01*
X202188771Y-101814285D01*
X202141152Y-101861904D01*
X202093533Y-101957142D01*
X202093533Y-102195238D01*
X202141152Y-102290476D01*
X202188771Y-102338095D01*
X202284009Y-102385714D01*
X202522104Y-102385714D01*
X202617342Y-102338095D01*
X202664961Y-102290476D01*
X202712580Y-102195238D01*
X202712580Y-101957142D01*
X202664961Y-101861904D01*
X202617342Y-101814285D01*
X202204580Y-90066904D02*
X201204580Y-90066904D01*
X201204580Y-90305000D01*
X201252200Y-90447857D01*
X201347438Y-90543095D01*
X201442676Y-90590714D01*
X201633152Y-90638333D01*
X201776009Y-90638333D01*
X201966485Y-90590714D01*
X202061723Y-90543095D01*
X202156961Y-90447857D01*
X202204580Y-90305000D01*
X202204580Y-90066904D01*
X201204580Y-91495476D02*
X201204580Y-91305000D01*
X201252200Y-91209761D01*
X201299819Y-91162142D01*
X201442676Y-91066904D01*
X201633152Y-91019285D01*
X202014104Y-91019285D01*
X202109342Y-91066904D01*
X202156961Y-91114523D01*
X202204580Y-91209761D01*
X202204580Y-91400238D01*
X202156961Y-91495476D01*
X202109342Y-91543095D01*
X202014104Y-91590714D01*
X201776009Y-91590714D01*
X201680771Y-91543095D01*
X201633152Y-91495476D01*
X201585533Y-91400238D01*
X201585533Y-91209761D01*
X201633152Y-91114523D01*
X201680771Y-91066904D01*
X201776009Y-91019285D01*
X202077580Y-135469333D02*
X201601390Y-135136000D01*
X202077580Y-134897904D02*
X201077580Y-134897904D01*
X201077580Y-135278857D01*
X201125200Y-135374095D01*
X201172819Y-135421714D01*
X201268057Y-135469333D01*
X201410914Y-135469333D01*
X201506152Y-135421714D01*
X201553771Y-135374095D01*
X201601390Y-135278857D01*
X201601390Y-134897904D01*
X202077580Y-136421714D02*
X202077580Y-135850285D01*
X202077580Y-136136000D02*
X201077580Y-136136000D01*
X201220438Y-136040761D01*
X201315676Y-135945523D01*
X201363295Y-135850285D01*
X190115782Y-101413013D02*
X190163401Y-101365394D01*
X190211020Y-101222537D01*
X190211020Y-101127299D01*
X190163401Y-100984441D01*
X190068163Y-100889203D01*
X189972925Y-100841584D01*
X189782449Y-100793965D01*
X189639592Y-100793965D01*
X189449116Y-100841584D01*
X189353878Y-100889203D01*
X189258640Y-100984441D01*
X189211020Y-101127299D01*
X189211020Y-101222537D01*
X189258640Y-101365394D01*
X189306259Y-101413013D01*
X189639592Y-101984441D02*
X189591973Y-101889203D01*
X189544354Y-101841584D01*
X189449116Y-101793965D01*
X189401497Y-101793965D01*
X189306259Y-101841584D01*
X189258640Y-101889203D01*
X189211020Y-101984441D01*
X189211020Y-102174918D01*
X189258640Y-102270156D01*
X189306259Y-102317775D01*
X189401497Y-102365394D01*
X189449116Y-102365394D01*
X189544354Y-102317775D01*
X189591973Y-102270156D01*
X189639592Y-102174918D01*
X189639592Y-101984441D01*
X189687211Y-101889203D01*
X189734830Y-101841584D01*
X189830068Y-101793965D01*
X190020544Y-101793965D01*
X190115782Y-101841584D01*
X190163401Y-101889203D01*
X190211020Y-101984441D01*
X190211020Y-102174918D01*
X190163401Y-102270156D01*
X190115782Y-102317775D01*
X190020544Y-102365394D01*
X189830068Y-102365394D01*
X189734830Y-102317775D01*
X189687211Y-102270156D01*
X189639592Y-102174918D01*
X190806342Y-81748333D02*
X190853961Y-81700714D01*
X190901580Y-81557857D01*
X190901580Y-81462619D01*
X190853961Y-81319761D01*
X190758723Y-81224523D01*
X190663485Y-81176904D01*
X190473009Y-81129285D01*
X190330152Y-81129285D01*
X190139676Y-81176904D01*
X190044438Y-81224523D01*
X189949200Y-81319761D01*
X189901580Y-81462619D01*
X189901580Y-81557857D01*
X189949200Y-81700714D01*
X189996819Y-81748333D01*
X189901580Y-82605476D02*
X189901580Y-82415000D01*
X189949200Y-82319761D01*
X189996819Y-82272142D01*
X190139676Y-82176904D01*
X190330152Y-82129285D01*
X190711104Y-82129285D01*
X190806342Y-82176904D01*
X190853961Y-82224523D01*
X190901580Y-82319761D01*
X190901580Y-82510238D01*
X190853961Y-82605476D01*
X190806342Y-82653095D01*
X190711104Y-82700714D01*
X190473009Y-82700714D01*
X190377771Y-82653095D01*
X190330152Y-82605476D01*
X190282533Y-82510238D01*
X190282533Y-82319761D01*
X190330152Y-82224523D01*
X190377771Y-82176904D01*
X190473009Y-82129285D01*
D13*
X197037476Y-97001995D02*
X197037476Y-97659976D01*
X196998771Y-97737385D01*
X196960066Y-97776090D01*
X196882657Y-97814795D01*
X196727838Y-97814795D01*
X196650428Y-97776090D01*
X196611723Y-97737385D01*
X196573019Y-97659976D01*
X196573019Y-97001995D01*
X195837628Y-97272928D02*
X195837628Y-97814795D01*
X196031152Y-96963290D02*
X196224676Y-97543861D01*
X195721514Y-97543861D01*
X196795571Y-93988466D02*
X196408523Y-93988466D01*
X196872980Y-94220695D02*
X196602047Y-93407895D01*
X196331114Y-94220695D01*
X196060180Y-94220695D02*
X196060180Y-93407895D01*
X195750542Y-93407895D01*
X195673133Y-93446600D01*
X195634428Y-93485304D01*
X195595723Y-93562714D01*
X195595723Y-93678828D01*
X195634428Y-93756238D01*
X195673133Y-93794942D01*
X195750542Y-93833647D01*
X196060180Y-93833647D01*
X194821628Y-94220695D02*
X195286085Y-94220695D01*
X195053857Y-94220695D02*
X195053857Y-93407895D01*
X195131266Y-93524009D01*
X195208676Y-93601419D01*
X195286085Y-93640123D01*
X194047533Y-94220695D02*
X194511990Y-94220695D01*
X194279761Y-94220695D02*
X194279761Y-93407895D01*
X194357171Y-93524009D01*
X194434580Y-93601419D01*
X194511990Y-93640123D01*
X193273438Y-94220695D02*
X193737895Y-94220695D01*
X193505666Y-94220695D02*
X193505666Y-93407895D01*
X193583076Y-93524009D01*
X193660485Y-93601419D01*
X193737895Y-93640123D01*
X193002504Y-93407895D02*
X192460638Y-93407895D01*
X192808980Y-94220695D01*
X192151000Y-93911057D02*
X191531723Y-93911057D01*
X190757628Y-93407895D02*
X191144676Y-93407895D01*
X191183380Y-93794942D01*
X191144676Y-93756238D01*
X191067266Y-93717533D01*
X190873742Y-93717533D01*
X190796333Y-93756238D01*
X190757628Y-93794942D01*
X190718923Y-93872352D01*
X190718923Y-94065876D01*
X190757628Y-94143285D01*
X190796333Y-94181990D01*
X190873742Y-94220695D01*
X191067266Y-94220695D01*
X191144676Y-94181990D01*
X191183380Y-94143285D01*
X190215761Y-93407895D02*
X190138352Y-93407895D01*
X190060942Y-93446600D01*
X190022238Y-93485304D01*
X189983533Y-93562714D01*
X189944828Y-93717533D01*
X189944828Y-93911057D01*
X189983533Y-94065876D01*
X190022238Y-94143285D01*
X190060942Y-94181990D01*
X190138352Y-94220695D01*
X190215761Y-94220695D01*
X190293171Y-94181990D01*
X190331876Y-94143285D01*
X190370580Y-94065876D01*
X190409285Y-93911057D01*
X190409285Y-93717533D01*
X190370580Y-93562714D01*
X190331876Y-93485304D01*
X190293171Y-93446600D01*
X190215761Y-93407895D01*
D10*
X202744342Y-108037333D02*
X202791961Y-107989714D01*
X202839580Y-107846857D01*
X202839580Y-107751619D01*
X202791961Y-107608761D01*
X202696723Y-107513523D01*
X202601485Y-107465904D01*
X202411009Y-107418285D01*
X202268152Y-107418285D01*
X202077676Y-107465904D01*
X201982438Y-107513523D01*
X201887200Y-107608761D01*
X201839580Y-107751619D01*
X201839580Y-107846857D01*
X201887200Y-107989714D01*
X201934819Y-108037333D01*
X201934819Y-108418285D02*
X201887200Y-108465904D01*
X201839580Y-108561142D01*
X201839580Y-108799238D01*
X201887200Y-108894476D01*
X201934819Y-108942095D01*
X202030057Y-108989714D01*
X202125295Y-108989714D01*
X202268152Y-108942095D01*
X202839580Y-108370666D01*
X202839580Y-108989714D01*
X202077580Y-137628333D02*
X201601390Y-137295000D01*
X202077580Y-137056904D02*
X201077580Y-137056904D01*
X201077580Y-137437857D01*
X201125200Y-137533095D01*
X201172819Y-137580714D01*
X201268057Y-137628333D01*
X201410914Y-137628333D01*
X201506152Y-137580714D01*
X201553771Y-137533095D01*
X201601390Y-137437857D01*
X201601390Y-137056904D01*
X201172819Y-138009285D02*
X201125200Y-138056904D01*
X201077580Y-138152142D01*
X201077580Y-138390238D01*
X201125200Y-138485476D01*
X201172819Y-138533095D01*
X201268057Y-138580714D01*
X201363295Y-138580714D01*
X201506152Y-138533095D01*
X202077580Y-137961666D01*
X202077580Y-138580714D01*
X190933342Y-90638333D02*
X190980961Y-90590714D01*
X191028580Y-90447857D01*
X191028580Y-90352619D01*
X190980961Y-90209761D01*
X190885723Y-90114523D01*
X190790485Y-90066904D01*
X190600009Y-90019285D01*
X190457152Y-90019285D01*
X190266676Y-90066904D01*
X190171438Y-90114523D01*
X190076200Y-90209761D01*
X190028580Y-90352619D01*
X190028580Y-90447857D01*
X190076200Y-90590714D01*
X190123819Y-90638333D01*
X191028580Y-91590714D02*
X191028580Y-91019285D01*
X191028580Y-91305000D02*
X190028580Y-91305000D01*
X190171438Y-91209761D01*
X190266676Y-91114523D01*
X190314295Y-91019285D01*
X201982342Y-81621333D02*
X202029961Y-81573714D01*
X202077580Y-81430857D01*
X202077580Y-81335619D01*
X202029961Y-81192761D01*
X201934723Y-81097523D01*
X201839485Y-81049904D01*
X201649009Y-81002285D01*
X201506152Y-81002285D01*
X201315676Y-81049904D01*
X201220438Y-81097523D01*
X201125200Y-81192761D01*
X201077580Y-81335619D01*
X201077580Y-81430857D01*
X201125200Y-81573714D01*
X201172819Y-81621333D01*
X201077580Y-81954666D02*
X201077580Y-82621333D01*
X202077580Y-82192761D01*
D13*
X197012076Y-88264395D02*
X197012076Y-88922376D01*
X196973371Y-88999785D01*
X196934666Y-89038490D01*
X196857257Y-89077195D01*
X196702438Y-89077195D01*
X196625028Y-89038490D01*
X196586323Y-88999785D01*
X196547619Y-88922376D01*
X196547619Y-88264395D01*
X196237980Y-88264395D02*
X195734819Y-88264395D01*
X196005752Y-88574033D01*
X195889638Y-88574033D01*
X195812228Y-88612738D01*
X195773523Y-88651442D01*
X195734819Y-88728852D01*
X195734819Y-88922376D01*
X195773523Y-88999785D01*
X195812228Y-89038490D01*
X195889638Y-89077195D01*
X196121866Y-89077195D01*
X196199276Y-89038490D01*
X196237980Y-88999785D01*
X196795571Y-85225466D02*
X196408523Y-85225466D01*
X196872980Y-85457695D02*
X196602047Y-84644895D01*
X196331114Y-85457695D01*
X196060180Y-85457695D02*
X196060180Y-84644895D01*
X195750542Y-84644895D01*
X195673133Y-84683600D01*
X195634428Y-84722304D01*
X195595723Y-84799714D01*
X195595723Y-84915828D01*
X195634428Y-84993238D01*
X195673133Y-85031942D01*
X195750542Y-85070647D01*
X196060180Y-85070647D01*
X194821628Y-85457695D02*
X195286085Y-85457695D01*
X195053857Y-85457695D02*
X195053857Y-84644895D01*
X195131266Y-84761009D01*
X195208676Y-84838419D01*
X195286085Y-84877123D01*
X194047533Y-85457695D02*
X194511990Y-85457695D01*
X194279761Y-85457695D02*
X194279761Y-84644895D01*
X194357171Y-84761009D01*
X194434580Y-84838419D01*
X194511990Y-84877123D01*
X193273438Y-85457695D02*
X193737895Y-85457695D01*
X193505666Y-85457695D02*
X193505666Y-84644895D01*
X193583076Y-84761009D01*
X193660485Y-84838419D01*
X193737895Y-84877123D01*
X193002504Y-84644895D02*
X192460638Y-84644895D01*
X192808980Y-85457695D01*
X192151000Y-85148057D02*
X191531723Y-85148057D01*
X190757628Y-84644895D02*
X191144676Y-84644895D01*
X191183380Y-85031942D01*
X191144676Y-84993238D01*
X191067266Y-84954533D01*
X190873742Y-84954533D01*
X190796333Y-84993238D01*
X190757628Y-85031942D01*
X190718923Y-85109352D01*
X190718923Y-85302876D01*
X190757628Y-85380285D01*
X190796333Y-85418990D01*
X190873742Y-85457695D01*
X191067266Y-85457695D01*
X191144676Y-85418990D01*
X191183380Y-85380285D01*
X190215761Y-84644895D02*
X190138352Y-84644895D01*
X190060942Y-84683600D01*
X190022238Y-84722304D01*
X189983533Y-84799714D01*
X189944828Y-84954533D01*
X189944828Y-85148057D01*
X189983533Y-85302876D01*
X190022238Y-85380285D01*
X190060942Y-85418990D01*
X190138352Y-85457695D01*
X190215761Y-85457695D01*
X190293171Y-85418990D01*
X190331876Y-85380285D01*
X190370580Y-85302876D01*
X190409285Y-85148057D01*
X190409285Y-84954533D01*
X190370580Y-84799714D01*
X190331876Y-84722304D01*
X190293171Y-84683600D01*
X190215761Y-84644895D01*
D10*
X202617342Y-99274333D02*
X202664961Y-99226714D01*
X202712580Y-99083857D01*
X202712580Y-98988619D01*
X202664961Y-98845761D01*
X202569723Y-98750523D01*
X202474485Y-98702904D01*
X202284009Y-98655285D01*
X202141152Y-98655285D01*
X201950676Y-98702904D01*
X201855438Y-98750523D01*
X201760200Y-98845761D01*
X201712580Y-98988619D01*
X201712580Y-99083857D01*
X201760200Y-99226714D01*
X201807819Y-99274333D01*
X202712580Y-99750523D02*
X202712580Y-99941000D01*
X202664961Y-100036238D01*
X202617342Y-100083857D01*
X202474485Y-100179095D01*
X202284009Y-100226714D01*
X201903057Y-100226714D01*
X201807819Y-100179095D01*
X201760200Y-100131476D01*
X201712580Y-100036238D01*
X201712580Y-99845761D01*
X201760200Y-99750523D01*
X201807819Y-99702904D01*
X201903057Y-99655285D01*
X202141152Y-99655285D01*
X202236390Y-99702904D01*
X202284009Y-99750523D01*
X202331628Y-99845761D01*
X202331628Y-100036238D01*
X202284009Y-100131476D01*
X202236390Y-100179095D01*
X202141152Y-100226714D01*
X189574771Y-131920186D02*
X189574771Y-131586853D01*
X190098580Y-131586853D02*
X189098580Y-131586853D01*
X189098580Y-132063043D01*
X190098580Y-132967805D02*
X190098580Y-132396377D01*
X190098580Y-132682091D02*
X189098580Y-132682091D01*
X189241438Y-132586853D01*
X189336676Y-132491615D01*
X189384295Y-132396377D01*
X190139580Y-126261904D02*
X189139580Y-126261904D01*
X189139580Y-126500000D01*
X189187200Y-126642857D01*
X189282438Y-126738095D01*
X189377676Y-126785714D01*
X189568152Y-126833333D01*
X189711009Y-126833333D01*
X189901485Y-126785714D01*
X189996723Y-126738095D01*
X190091961Y-126642857D01*
X190139580Y-126500000D01*
X190139580Y-126261904D01*
X189139580Y-127738095D02*
X189139580Y-127261904D01*
X189615771Y-127214285D01*
X189568152Y-127261904D01*
X189520533Y-127357142D01*
X189520533Y-127595238D01*
X189568152Y-127690476D01*
X189615771Y-127738095D01*
X189711009Y-127785714D01*
X189949104Y-127785714D01*
X190044342Y-127738095D01*
X190091961Y-127690476D01*
X190139580Y-127595238D01*
X190139580Y-127357142D01*
X190091961Y-127261904D01*
X190044342Y-127214285D01*
X190266580Y-99401333D02*
X189790390Y-99068000D01*
X190266580Y-98829904D02*
X189266580Y-98829904D01*
X189266580Y-99210857D01*
X189314200Y-99306095D01*
X189361819Y-99353714D01*
X189457057Y-99401333D01*
X189599914Y-99401333D01*
X189695152Y-99353714D01*
X189742771Y-99306095D01*
X189790390Y-99210857D01*
X189790390Y-98829904D01*
X189695152Y-99972761D02*
X189647533Y-99877523D01*
X189599914Y-99829904D01*
X189504676Y-99782285D01*
X189457057Y-99782285D01*
X189361819Y-99829904D01*
X189314200Y-99877523D01*
X189266580Y-99972761D01*
X189266580Y-100163238D01*
X189314200Y-100258476D01*
X189361819Y-100306095D01*
X189457057Y-100353714D01*
X189504676Y-100353714D01*
X189599914Y-100306095D01*
X189647533Y-100258476D01*
X189695152Y-100163238D01*
X189695152Y-99972761D01*
X189742771Y-99877523D01*
X189790390Y-99829904D01*
X189885628Y-99782285D01*
X190076104Y-99782285D01*
X190171342Y-99829904D01*
X190218961Y-99877523D01*
X190266580Y-99972761D01*
X190266580Y-100163238D01*
X190218961Y-100258476D01*
X190171342Y-100306095D01*
X190076104Y-100353714D01*
X189885628Y-100353714D01*
X189790390Y-100306095D01*
X189742771Y-100258476D01*
X189695152Y-100163238D01*
X199299580Y-128524095D02*
X200109104Y-128524095D01*
X200204342Y-128571714D01*
X200251961Y-128619333D01*
X200299580Y-128714571D01*
X200299580Y-128905047D01*
X200251961Y-129000285D01*
X200204342Y-129047904D01*
X200109104Y-129095523D01*
X199299580Y-129095523D01*
X199394819Y-129524095D02*
X199347200Y-129571714D01*
X199299580Y-129666952D01*
X199299580Y-129905047D01*
X199347200Y-130000285D01*
X199394819Y-130047904D01*
X199490057Y-130095523D01*
X199585295Y-130095523D01*
X199728152Y-130047904D01*
X200299580Y-129476476D01*
X200299580Y-130095523D01*
X178233342Y-101433333D02*
X178280961Y-101385714D01*
X178328580Y-101242857D01*
X178328580Y-101147619D01*
X178280961Y-101004761D01*
X178185723Y-100909523D01*
X178090485Y-100861904D01*
X177900009Y-100814285D01*
X177757152Y-100814285D01*
X177566676Y-100861904D01*
X177471438Y-100909523D01*
X177376200Y-101004761D01*
X177328580Y-101147619D01*
X177328580Y-101242857D01*
X177376200Y-101385714D01*
X177423819Y-101433333D01*
X177328580Y-102338095D02*
X177328580Y-101861904D01*
X177804771Y-101814285D01*
X177757152Y-101861904D01*
X177709533Y-101957142D01*
X177709533Y-102195238D01*
X177757152Y-102290476D01*
X177804771Y-102338095D01*
X177900009Y-102385714D01*
X178138104Y-102385714D01*
X178233342Y-102338095D01*
X178280961Y-102290476D01*
X178328580Y-102195238D01*
X178328580Y-101957142D01*
X178280961Y-101861904D01*
X178233342Y-101814285D01*
X177820580Y-90066904D02*
X176820580Y-90066904D01*
X176820580Y-90305000D01*
X176868200Y-90447857D01*
X176963438Y-90543095D01*
X177058676Y-90590714D01*
X177249152Y-90638333D01*
X177392009Y-90638333D01*
X177582485Y-90590714D01*
X177677723Y-90543095D01*
X177772961Y-90447857D01*
X177820580Y-90305000D01*
X177820580Y-90066904D01*
X176820580Y-91495476D02*
X176820580Y-91305000D01*
X176868200Y-91209761D01*
X176915819Y-91162142D01*
X177058676Y-91066904D01*
X177249152Y-91019285D01*
X177630104Y-91019285D01*
X177725342Y-91066904D01*
X177772961Y-91114523D01*
X177820580Y-91209761D01*
X177820580Y-91400238D01*
X177772961Y-91495476D01*
X177725342Y-91543095D01*
X177630104Y-91590714D01*
X177392009Y-91590714D01*
X177296771Y-91543095D01*
X177249152Y-91495476D01*
X177201533Y-91400238D01*
X177201533Y-91209761D01*
X177249152Y-91114523D01*
X177296771Y-91066904D01*
X177392009Y-91019285D01*
X177693580Y-135469333D02*
X177217390Y-135136000D01*
X177693580Y-134897904D02*
X176693580Y-134897904D01*
X176693580Y-135278857D01*
X176741200Y-135374095D01*
X176788819Y-135421714D01*
X176884057Y-135469333D01*
X177026914Y-135469333D01*
X177122152Y-135421714D01*
X177169771Y-135374095D01*
X177217390Y-135278857D01*
X177217390Y-134897904D01*
X177693580Y-136421714D02*
X177693580Y-135850285D01*
X177693580Y-136136000D02*
X176693580Y-136136000D01*
X176836438Y-136040761D01*
X176931676Y-135945523D01*
X176979295Y-135850285D01*
X165731782Y-101413013D02*
X165779401Y-101365394D01*
X165827020Y-101222537D01*
X165827020Y-101127299D01*
X165779401Y-100984441D01*
X165684163Y-100889203D01*
X165588925Y-100841584D01*
X165398449Y-100793965D01*
X165255592Y-100793965D01*
X165065116Y-100841584D01*
X164969878Y-100889203D01*
X164874640Y-100984441D01*
X164827020Y-101127299D01*
X164827020Y-101222537D01*
X164874640Y-101365394D01*
X164922259Y-101413013D01*
X165255592Y-101984441D02*
X165207973Y-101889203D01*
X165160354Y-101841584D01*
X165065116Y-101793965D01*
X165017497Y-101793965D01*
X164922259Y-101841584D01*
X164874640Y-101889203D01*
X164827020Y-101984441D01*
X164827020Y-102174918D01*
X164874640Y-102270156D01*
X164922259Y-102317775D01*
X165017497Y-102365394D01*
X165065116Y-102365394D01*
X165160354Y-102317775D01*
X165207973Y-102270156D01*
X165255592Y-102174918D01*
X165255592Y-101984441D01*
X165303211Y-101889203D01*
X165350830Y-101841584D01*
X165446068Y-101793965D01*
X165636544Y-101793965D01*
X165731782Y-101841584D01*
X165779401Y-101889203D01*
X165827020Y-101984441D01*
X165827020Y-102174918D01*
X165779401Y-102270156D01*
X165731782Y-102317775D01*
X165636544Y-102365394D01*
X165446068Y-102365394D01*
X165350830Y-102317775D01*
X165303211Y-102270156D01*
X165255592Y-102174918D01*
X166422342Y-81748333D02*
X166469961Y-81700714D01*
X166517580Y-81557857D01*
X166517580Y-81462619D01*
X166469961Y-81319761D01*
X166374723Y-81224523D01*
X166279485Y-81176904D01*
X166089009Y-81129285D01*
X165946152Y-81129285D01*
X165755676Y-81176904D01*
X165660438Y-81224523D01*
X165565200Y-81319761D01*
X165517580Y-81462619D01*
X165517580Y-81557857D01*
X165565200Y-81700714D01*
X165612819Y-81748333D01*
X165517580Y-82605476D02*
X165517580Y-82415000D01*
X165565200Y-82319761D01*
X165612819Y-82272142D01*
X165755676Y-82176904D01*
X165946152Y-82129285D01*
X166327104Y-82129285D01*
X166422342Y-82176904D01*
X166469961Y-82224523D01*
X166517580Y-82319761D01*
X166517580Y-82510238D01*
X166469961Y-82605476D01*
X166422342Y-82653095D01*
X166327104Y-82700714D01*
X166089009Y-82700714D01*
X165993771Y-82653095D01*
X165946152Y-82605476D01*
X165898533Y-82510238D01*
X165898533Y-82319761D01*
X165946152Y-82224523D01*
X165993771Y-82176904D01*
X166089009Y-82129285D01*
D13*
X172653476Y-97001995D02*
X172653476Y-97659976D01*
X172614771Y-97737385D01*
X172576066Y-97776090D01*
X172498657Y-97814795D01*
X172343838Y-97814795D01*
X172266428Y-97776090D01*
X172227723Y-97737385D01*
X172189019Y-97659976D01*
X172189019Y-97001995D01*
X171453628Y-97272928D02*
X171453628Y-97814795D01*
X171647152Y-96963290D02*
X171840676Y-97543861D01*
X171337514Y-97543861D01*
X172411571Y-93988466D02*
X172024523Y-93988466D01*
X172488980Y-94220695D02*
X172218047Y-93407895D01*
X171947114Y-94220695D01*
X171676180Y-94220695D02*
X171676180Y-93407895D01*
X171366542Y-93407895D01*
X171289133Y-93446600D01*
X171250428Y-93485304D01*
X171211723Y-93562714D01*
X171211723Y-93678828D01*
X171250428Y-93756238D01*
X171289133Y-93794942D01*
X171366542Y-93833647D01*
X171676180Y-93833647D01*
X170437628Y-94220695D02*
X170902085Y-94220695D01*
X170669857Y-94220695D02*
X170669857Y-93407895D01*
X170747266Y-93524009D01*
X170824676Y-93601419D01*
X170902085Y-93640123D01*
X169663533Y-94220695D02*
X170127990Y-94220695D01*
X169895761Y-94220695D02*
X169895761Y-93407895D01*
X169973171Y-93524009D01*
X170050580Y-93601419D01*
X170127990Y-93640123D01*
X168889438Y-94220695D02*
X169353895Y-94220695D01*
X169121666Y-94220695D02*
X169121666Y-93407895D01*
X169199076Y-93524009D01*
X169276485Y-93601419D01*
X169353895Y-93640123D01*
X168618504Y-93407895D02*
X168076638Y-93407895D01*
X168424980Y-94220695D01*
X167767000Y-93911057D02*
X167147723Y-93911057D01*
X166373628Y-93407895D02*
X166760676Y-93407895D01*
X166799380Y-93794942D01*
X166760676Y-93756238D01*
X166683266Y-93717533D01*
X166489742Y-93717533D01*
X166412333Y-93756238D01*
X166373628Y-93794942D01*
X166334923Y-93872352D01*
X166334923Y-94065876D01*
X166373628Y-94143285D01*
X166412333Y-94181990D01*
X166489742Y-94220695D01*
X166683266Y-94220695D01*
X166760676Y-94181990D01*
X166799380Y-94143285D01*
X165831761Y-93407895D02*
X165754352Y-93407895D01*
X165676942Y-93446600D01*
X165638238Y-93485304D01*
X165599533Y-93562714D01*
X165560828Y-93717533D01*
X165560828Y-93911057D01*
X165599533Y-94065876D01*
X165638238Y-94143285D01*
X165676942Y-94181990D01*
X165754352Y-94220695D01*
X165831761Y-94220695D01*
X165909171Y-94181990D01*
X165947876Y-94143285D01*
X165986580Y-94065876D01*
X166025285Y-93911057D01*
X166025285Y-93717533D01*
X165986580Y-93562714D01*
X165947876Y-93485304D01*
X165909171Y-93446600D01*
X165831761Y-93407895D01*
D10*
X178360342Y-108037333D02*
X178407961Y-107989714D01*
X178455580Y-107846857D01*
X178455580Y-107751619D01*
X178407961Y-107608761D01*
X178312723Y-107513523D01*
X178217485Y-107465904D01*
X178027009Y-107418285D01*
X177884152Y-107418285D01*
X177693676Y-107465904D01*
X177598438Y-107513523D01*
X177503200Y-107608761D01*
X177455580Y-107751619D01*
X177455580Y-107846857D01*
X177503200Y-107989714D01*
X177550819Y-108037333D01*
X177550819Y-108418285D02*
X177503200Y-108465904D01*
X177455580Y-108561142D01*
X177455580Y-108799238D01*
X177503200Y-108894476D01*
X177550819Y-108942095D01*
X177646057Y-108989714D01*
X177741295Y-108989714D01*
X177884152Y-108942095D01*
X178455580Y-108370666D01*
X178455580Y-108989714D01*
X177693580Y-137628333D02*
X177217390Y-137295000D01*
X177693580Y-137056904D02*
X176693580Y-137056904D01*
X176693580Y-137437857D01*
X176741200Y-137533095D01*
X176788819Y-137580714D01*
X176884057Y-137628333D01*
X177026914Y-137628333D01*
X177122152Y-137580714D01*
X177169771Y-137533095D01*
X177217390Y-137437857D01*
X177217390Y-137056904D01*
X176788819Y-138009285D02*
X176741200Y-138056904D01*
X176693580Y-138152142D01*
X176693580Y-138390238D01*
X176741200Y-138485476D01*
X176788819Y-138533095D01*
X176884057Y-138580714D01*
X176979295Y-138580714D01*
X177122152Y-138533095D01*
X177693580Y-137961666D01*
X177693580Y-138580714D01*
X166549342Y-90638333D02*
X166596961Y-90590714D01*
X166644580Y-90447857D01*
X166644580Y-90352619D01*
X166596961Y-90209761D01*
X166501723Y-90114523D01*
X166406485Y-90066904D01*
X166216009Y-90019285D01*
X166073152Y-90019285D01*
X165882676Y-90066904D01*
X165787438Y-90114523D01*
X165692200Y-90209761D01*
X165644580Y-90352619D01*
X165644580Y-90447857D01*
X165692200Y-90590714D01*
X165739819Y-90638333D01*
X166644580Y-91590714D02*
X166644580Y-91019285D01*
X166644580Y-91305000D02*
X165644580Y-91305000D01*
X165787438Y-91209761D01*
X165882676Y-91114523D01*
X165930295Y-91019285D01*
X177598342Y-81621333D02*
X177645961Y-81573714D01*
X177693580Y-81430857D01*
X177693580Y-81335619D01*
X177645961Y-81192761D01*
X177550723Y-81097523D01*
X177455485Y-81049904D01*
X177265009Y-81002285D01*
X177122152Y-81002285D01*
X176931676Y-81049904D01*
X176836438Y-81097523D01*
X176741200Y-81192761D01*
X176693580Y-81335619D01*
X176693580Y-81430857D01*
X176741200Y-81573714D01*
X176788819Y-81621333D01*
X176693580Y-81954666D02*
X176693580Y-82621333D01*
X177693580Y-82192761D01*
D13*
X172628076Y-88264395D02*
X172628076Y-88922376D01*
X172589371Y-88999785D01*
X172550666Y-89038490D01*
X172473257Y-89077195D01*
X172318438Y-89077195D01*
X172241028Y-89038490D01*
X172202323Y-88999785D01*
X172163619Y-88922376D01*
X172163619Y-88264395D01*
X171853980Y-88264395D02*
X171350819Y-88264395D01*
X171621752Y-88574033D01*
X171505638Y-88574033D01*
X171428228Y-88612738D01*
X171389523Y-88651442D01*
X171350819Y-88728852D01*
X171350819Y-88922376D01*
X171389523Y-88999785D01*
X171428228Y-89038490D01*
X171505638Y-89077195D01*
X171737866Y-89077195D01*
X171815276Y-89038490D01*
X171853980Y-88999785D01*
X172411571Y-85225466D02*
X172024523Y-85225466D01*
X172488980Y-85457695D02*
X172218047Y-84644895D01*
X171947114Y-85457695D01*
X171676180Y-85457695D02*
X171676180Y-84644895D01*
X171366542Y-84644895D01*
X171289133Y-84683600D01*
X171250428Y-84722304D01*
X171211723Y-84799714D01*
X171211723Y-84915828D01*
X171250428Y-84993238D01*
X171289133Y-85031942D01*
X171366542Y-85070647D01*
X171676180Y-85070647D01*
X170437628Y-85457695D02*
X170902085Y-85457695D01*
X170669857Y-85457695D02*
X170669857Y-84644895D01*
X170747266Y-84761009D01*
X170824676Y-84838419D01*
X170902085Y-84877123D01*
X169663533Y-85457695D02*
X170127990Y-85457695D01*
X169895761Y-85457695D02*
X169895761Y-84644895D01*
X169973171Y-84761009D01*
X170050580Y-84838419D01*
X170127990Y-84877123D01*
X168889438Y-85457695D02*
X169353895Y-85457695D01*
X169121666Y-85457695D02*
X169121666Y-84644895D01*
X169199076Y-84761009D01*
X169276485Y-84838419D01*
X169353895Y-84877123D01*
X168618504Y-84644895D02*
X168076638Y-84644895D01*
X168424980Y-85457695D01*
X167767000Y-85148057D02*
X167147723Y-85148057D01*
X166373628Y-84644895D02*
X166760676Y-84644895D01*
X166799380Y-85031942D01*
X166760676Y-84993238D01*
X166683266Y-84954533D01*
X166489742Y-84954533D01*
X166412333Y-84993238D01*
X166373628Y-85031942D01*
X166334923Y-85109352D01*
X166334923Y-85302876D01*
X166373628Y-85380285D01*
X166412333Y-85418990D01*
X166489742Y-85457695D01*
X166683266Y-85457695D01*
X166760676Y-85418990D01*
X166799380Y-85380285D01*
X165831761Y-84644895D02*
X165754352Y-84644895D01*
X165676942Y-84683600D01*
X165638238Y-84722304D01*
X165599533Y-84799714D01*
X165560828Y-84954533D01*
X165560828Y-85148057D01*
X165599533Y-85302876D01*
X165638238Y-85380285D01*
X165676942Y-85418990D01*
X165754352Y-85457695D01*
X165831761Y-85457695D01*
X165909171Y-85418990D01*
X165947876Y-85380285D01*
X165986580Y-85302876D01*
X166025285Y-85148057D01*
X166025285Y-84954533D01*
X165986580Y-84799714D01*
X165947876Y-84722304D01*
X165909171Y-84683600D01*
X165831761Y-84644895D01*
D10*
X178233342Y-99274333D02*
X178280961Y-99226714D01*
X178328580Y-99083857D01*
X178328580Y-98988619D01*
X178280961Y-98845761D01*
X178185723Y-98750523D01*
X178090485Y-98702904D01*
X177900009Y-98655285D01*
X177757152Y-98655285D01*
X177566676Y-98702904D01*
X177471438Y-98750523D01*
X177376200Y-98845761D01*
X177328580Y-98988619D01*
X177328580Y-99083857D01*
X177376200Y-99226714D01*
X177423819Y-99274333D01*
X178328580Y-99750523D02*
X178328580Y-99941000D01*
X178280961Y-100036238D01*
X178233342Y-100083857D01*
X178090485Y-100179095D01*
X177900009Y-100226714D01*
X177519057Y-100226714D01*
X177423819Y-100179095D01*
X177376200Y-100131476D01*
X177328580Y-100036238D01*
X177328580Y-99845761D01*
X177376200Y-99750523D01*
X177423819Y-99702904D01*
X177519057Y-99655285D01*
X177757152Y-99655285D01*
X177852390Y-99702904D01*
X177900009Y-99750523D01*
X177947628Y-99845761D01*
X177947628Y-100036238D01*
X177900009Y-100131476D01*
X177852390Y-100179095D01*
X177757152Y-100226714D01*
X165190771Y-131920186D02*
X165190771Y-131586853D01*
X165714580Y-131586853D02*
X164714580Y-131586853D01*
X164714580Y-132063043D01*
X165714580Y-132967805D02*
X165714580Y-132396377D01*
X165714580Y-132682091D02*
X164714580Y-132682091D01*
X164857438Y-132586853D01*
X164952676Y-132491615D01*
X165000295Y-132396377D01*
X165755580Y-126261904D02*
X164755580Y-126261904D01*
X164755580Y-126500000D01*
X164803200Y-126642857D01*
X164898438Y-126738095D01*
X164993676Y-126785714D01*
X165184152Y-126833333D01*
X165327009Y-126833333D01*
X165517485Y-126785714D01*
X165612723Y-126738095D01*
X165707961Y-126642857D01*
X165755580Y-126500000D01*
X165755580Y-126261904D01*
X164755580Y-127738095D02*
X164755580Y-127261904D01*
X165231771Y-127214285D01*
X165184152Y-127261904D01*
X165136533Y-127357142D01*
X165136533Y-127595238D01*
X165184152Y-127690476D01*
X165231771Y-127738095D01*
X165327009Y-127785714D01*
X165565104Y-127785714D01*
X165660342Y-127738095D01*
X165707961Y-127690476D01*
X165755580Y-127595238D01*
X165755580Y-127357142D01*
X165707961Y-127261904D01*
X165660342Y-127214285D01*
X165882580Y-99401333D02*
X165406390Y-99068000D01*
X165882580Y-98829904D02*
X164882580Y-98829904D01*
X164882580Y-99210857D01*
X164930200Y-99306095D01*
X164977819Y-99353714D01*
X165073057Y-99401333D01*
X165215914Y-99401333D01*
X165311152Y-99353714D01*
X165358771Y-99306095D01*
X165406390Y-99210857D01*
X165406390Y-98829904D01*
X165311152Y-99972761D02*
X165263533Y-99877523D01*
X165215914Y-99829904D01*
X165120676Y-99782285D01*
X165073057Y-99782285D01*
X164977819Y-99829904D01*
X164930200Y-99877523D01*
X164882580Y-99972761D01*
X164882580Y-100163238D01*
X164930200Y-100258476D01*
X164977819Y-100306095D01*
X165073057Y-100353714D01*
X165120676Y-100353714D01*
X165215914Y-100306095D01*
X165263533Y-100258476D01*
X165311152Y-100163238D01*
X165311152Y-99972761D01*
X165358771Y-99877523D01*
X165406390Y-99829904D01*
X165501628Y-99782285D01*
X165692104Y-99782285D01*
X165787342Y-99829904D01*
X165834961Y-99877523D01*
X165882580Y-99972761D01*
X165882580Y-100163238D01*
X165834961Y-100258476D01*
X165787342Y-100306095D01*
X165692104Y-100353714D01*
X165501628Y-100353714D01*
X165406390Y-100306095D01*
X165358771Y-100258476D01*
X165311152Y-100163238D01*
X174915580Y-128524095D02*
X175725104Y-128524095D01*
X175820342Y-128571714D01*
X175867961Y-128619333D01*
X175915580Y-128714571D01*
X175915580Y-128905047D01*
X175867961Y-129000285D01*
X175820342Y-129047904D01*
X175725104Y-129095523D01*
X174915580Y-129095523D01*
X175010819Y-129524095D02*
X174963200Y-129571714D01*
X174915580Y-129666952D01*
X174915580Y-129905047D01*
X174963200Y-130000285D01*
X175010819Y-130047904D01*
X175106057Y-130095523D01*
X175201295Y-130095523D01*
X175344152Y-130047904D01*
X175915580Y-129476476D01*
X175915580Y-130095523D01*
X153849342Y-101433333D02*
X153896961Y-101385714D01*
X153944580Y-101242857D01*
X153944580Y-101147619D01*
X153896961Y-101004761D01*
X153801723Y-100909523D01*
X153706485Y-100861904D01*
X153516009Y-100814285D01*
X153373152Y-100814285D01*
X153182676Y-100861904D01*
X153087438Y-100909523D01*
X152992200Y-101004761D01*
X152944580Y-101147619D01*
X152944580Y-101242857D01*
X152992200Y-101385714D01*
X153039819Y-101433333D01*
X152944580Y-102338095D02*
X152944580Y-101861904D01*
X153420771Y-101814285D01*
X153373152Y-101861904D01*
X153325533Y-101957142D01*
X153325533Y-102195238D01*
X153373152Y-102290476D01*
X153420771Y-102338095D01*
X153516009Y-102385714D01*
X153754104Y-102385714D01*
X153849342Y-102338095D01*
X153896961Y-102290476D01*
X153944580Y-102195238D01*
X153944580Y-101957142D01*
X153896961Y-101861904D01*
X153849342Y-101814285D01*
X153436580Y-90066904D02*
X152436580Y-90066904D01*
X152436580Y-90305000D01*
X152484200Y-90447857D01*
X152579438Y-90543095D01*
X152674676Y-90590714D01*
X152865152Y-90638333D01*
X153008009Y-90638333D01*
X153198485Y-90590714D01*
X153293723Y-90543095D01*
X153388961Y-90447857D01*
X153436580Y-90305000D01*
X153436580Y-90066904D01*
X152436580Y-91495476D02*
X152436580Y-91305000D01*
X152484200Y-91209761D01*
X152531819Y-91162142D01*
X152674676Y-91066904D01*
X152865152Y-91019285D01*
X153246104Y-91019285D01*
X153341342Y-91066904D01*
X153388961Y-91114523D01*
X153436580Y-91209761D01*
X153436580Y-91400238D01*
X153388961Y-91495476D01*
X153341342Y-91543095D01*
X153246104Y-91590714D01*
X153008009Y-91590714D01*
X152912771Y-91543095D01*
X152865152Y-91495476D01*
X152817533Y-91400238D01*
X152817533Y-91209761D01*
X152865152Y-91114523D01*
X152912771Y-91066904D01*
X153008009Y-91019285D01*
X153309580Y-135469333D02*
X152833390Y-135136000D01*
X153309580Y-134897904D02*
X152309580Y-134897904D01*
X152309580Y-135278857D01*
X152357200Y-135374095D01*
X152404819Y-135421714D01*
X152500057Y-135469333D01*
X152642914Y-135469333D01*
X152738152Y-135421714D01*
X152785771Y-135374095D01*
X152833390Y-135278857D01*
X152833390Y-134897904D01*
X153309580Y-136421714D02*
X153309580Y-135850285D01*
X153309580Y-136136000D02*
X152309580Y-136136000D01*
X152452438Y-136040761D01*
X152547676Y-135945523D01*
X152595295Y-135850285D01*
X141347782Y-101413013D02*
X141395401Y-101365394D01*
X141443020Y-101222537D01*
X141443020Y-101127299D01*
X141395401Y-100984441D01*
X141300163Y-100889203D01*
X141204925Y-100841584D01*
X141014449Y-100793965D01*
X140871592Y-100793965D01*
X140681116Y-100841584D01*
X140585878Y-100889203D01*
X140490640Y-100984441D01*
X140443020Y-101127299D01*
X140443020Y-101222537D01*
X140490640Y-101365394D01*
X140538259Y-101413013D01*
X140871592Y-101984441D02*
X140823973Y-101889203D01*
X140776354Y-101841584D01*
X140681116Y-101793965D01*
X140633497Y-101793965D01*
X140538259Y-101841584D01*
X140490640Y-101889203D01*
X140443020Y-101984441D01*
X140443020Y-102174918D01*
X140490640Y-102270156D01*
X140538259Y-102317775D01*
X140633497Y-102365394D01*
X140681116Y-102365394D01*
X140776354Y-102317775D01*
X140823973Y-102270156D01*
X140871592Y-102174918D01*
X140871592Y-101984441D01*
X140919211Y-101889203D01*
X140966830Y-101841584D01*
X141062068Y-101793965D01*
X141252544Y-101793965D01*
X141347782Y-101841584D01*
X141395401Y-101889203D01*
X141443020Y-101984441D01*
X141443020Y-102174918D01*
X141395401Y-102270156D01*
X141347782Y-102317775D01*
X141252544Y-102365394D01*
X141062068Y-102365394D01*
X140966830Y-102317775D01*
X140919211Y-102270156D01*
X140871592Y-102174918D01*
X142038342Y-81748333D02*
X142085961Y-81700714D01*
X142133580Y-81557857D01*
X142133580Y-81462619D01*
X142085961Y-81319761D01*
X141990723Y-81224523D01*
X141895485Y-81176904D01*
X141705009Y-81129285D01*
X141562152Y-81129285D01*
X141371676Y-81176904D01*
X141276438Y-81224523D01*
X141181200Y-81319761D01*
X141133580Y-81462619D01*
X141133580Y-81557857D01*
X141181200Y-81700714D01*
X141228819Y-81748333D01*
X141133580Y-82605476D02*
X141133580Y-82415000D01*
X141181200Y-82319761D01*
X141228819Y-82272142D01*
X141371676Y-82176904D01*
X141562152Y-82129285D01*
X141943104Y-82129285D01*
X142038342Y-82176904D01*
X142085961Y-82224523D01*
X142133580Y-82319761D01*
X142133580Y-82510238D01*
X142085961Y-82605476D01*
X142038342Y-82653095D01*
X141943104Y-82700714D01*
X141705009Y-82700714D01*
X141609771Y-82653095D01*
X141562152Y-82605476D01*
X141514533Y-82510238D01*
X141514533Y-82319761D01*
X141562152Y-82224523D01*
X141609771Y-82176904D01*
X141705009Y-82129285D01*
D13*
X148269476Y-97001995D02*
X148269476Y-97659976D01*
X148230771Y-97737385D01*
X148192066Y-97776090D01*
X148114657Y-97814795D01*
X147959838Y-97814795D01*
X147882428Y-97776090D01*
X147843723Y-97737385D01*
X147805019Y-97659976D01*
X147805019Y-97001995D01*
X147069628Y-97272928D02*
X147069628Y-97814795D01*
X147263152Y-96963290D02*
X147456676Y-97543861D01*
X146953514Y-97543861D01*
X148027571Y-93988466D02*
X147640523Y-93988466D01*
X148104980Y-94220695D02*
X147834047Y-93407895D01*
X147563114Y-94220695D01*
X147292180Y-94220695D02*
X147292180Y-93407895D01*
X146982542Y-93407895D01*
X146905133Y-93446600D01*
X146866428Y-93485304D01*
X146827723Y-93562714D01*
X146827723Y-93678828D01*
X146866428Y-93756238D01*
X146905133Y-93794942D01*
X146982542Y-93833647D01*
X147292180Y-93833647D01*
X146053628Y-94220695D02*
X146518085Y-94220695D01*
X146285857Y-94220695D02*
X146285857Y-93407895D01*
X146363266Y-93524009D01*
X146440676Y-93601419D01*
X146518085Y-93640123D01*
X145279533Y-94220695D02*
X145743990Y-94220695D01*
X145511761Y-94220695D02*
X145511761Y-93407895D01*
X145589171Y-93524009D01*
X145666580Y-93601419D01*
X145743990Y-93640123D01*
X144505438Y-94220695D02*
X144969895Y-94220695D01*
X144737666Y-94220695D02*
X144737666Y-93407895D01*
X144815076Y-93524009D01*
X144892485Y-93601419D01*
X144969895Y-93640123D01*
X144234504Y-93407895D02*
X143692638Y-93407895D01*
X144040980Y-94220695D01*
X143383000Y-93911057D02*
X142763723Y-93911057D01*
X141989628Y-93407895D02*
X142376676Y-93407895D01*
X142415380Y-93794942D01*
X142376676Y-93756238D01*
X142299266Y-93717533D01*
X142105742Y-93717533D01*
X142028333Y-93756238D01*
X141989628Y-93794942D01*
X141950923Y-93872352D01*
X141950923Y-94065876D01*
X141989628Y-94143285D01*
X142028333Y-94181990D01*
X142105742Y-94220695D01*
X142299266Y-94220695D01*
X142376676Y-94181990D01*
X142415380Y-94143285D01*
X141447761Y-93407895D02*
X141370352Y-93407895D01*
X141292942Y-93446600D01*
X141254238Y-93485304D01*
X141215533Y-93562714D01*
X141176828Y-93717533D01*
X141176828Y-93911057D01*
X141215533Y-94065876D01*
X141254238Y-94143285D01*
X141292942Y-94181990D01*
X141370352Y-94220695D01*
X141447761Y-94220695D01*
X141525171Y-94181990D01*
X141563876Y-94143285D01*
X141602580Y-94065876D01*
X141641285Y-93911057D01*
X141641285Y-93717533D01*
X141602580Y-93562714D01*
X141563876Y-93485304D01*
X141525171Y-93446600D01*
X141447761Y-93407895D01*
D10*
X153976342Y-108037333D02*
X154023961Y-107989714D01*
X154071580Y-107846857D01*
X154071580Y-107751619D01*
X154023961Y-107608761D01*
X153928723Y-107513523D01*
X153833485Y-107465904D01*
X153643009Y-107418285D01*
X153500152Y-107418285D01*
X153309676Y-107465904D01*
X153214438Y-107513523D01*
X153119200Y-107608761D01*
X153071580Y-107751619D01*
X153071580Y-107846857D01*
X153119200Y-107989714D01*
X153166819Y-108037333D01*
X153166819Y-108418285D02*
X153119200Y-108465904D01*
X153071580Y-108561142D01*
X153071580Y-108799238D01*
X153119200Y-108894476D01*
X153166819Y-108942095D01*
X153262057Y-108989714D01*
X153357295Y-108989714D01*
X153500152Y-108942095D01*
X154071580Y-108370666D01*
X154071580Y-108989714D01*
X153309580Y-137628333D02*
X152833390Y-137295000D01*
X153309580Y-137056904D02*
X152309580Y-137056904D01*
X152309580Y-137437857D01*
X152357200Y-137533095D01*
X152404819Y-137580714D01*
X152500057Y-137628333D01*
X152642914Y-137628333D01*
X152738152Y-137580714D01*
X152785771Y-137533095D01*
X152833390Y-137437857D01*
X152833390Y-137056904D01*
X152404819Y-138009285D02*
X152357200Y-138056904D01*
X152309580Y-138152142D01*
X152309580Y-138390238D01*
X152357200Y-138485476D01*
X152404819Y-138533095D01*
X152500057Y-138580714D01*
X152595295Y-138580714D01*
X152738152Y-138533095D01*
X153309580Y-137961666D01*
X153309580Y-138580714D01*
X142165342Y-90638333D02*
X142212961Y-90590714D01*
X142260580Y-90447857D01*
X142260580Y-90352619D01*
X142212961Y-90209761D01*
X142117723Y-90114523D01*
X142022485Y-90066904D01*
X141832009Y-90019285D01*
X141689152Y-90019285D01*
X141498676Y-90066904D01*
X141403438Y-90114523D01*
X141308200Y-90209761D01*
X141260580Y-90352619D01*
X141260580Y-90447857D01*
X141308200Y-90590714D01*
X141355819Y-90638333D01*
X142260580Y-91590714D02*
X142260580Y-91019285D01*
X142260580Y-91305000D02*
X141260580Y-91305000D01*
X141403438Y-91209761D01*
X141498676Y-91114523D01*
X141546295Y-91019285D01*
X153214342Y-81621333D02*
X153261961Y-81573714D01*
X153309580Y-81430857D01*
X153309580Y-81335619D01*
X153261961Y-81192761D01*
X153166723Y-81097523D01*
X153071485Y-81049904D01*
X152881009Y-81002285D01*
X152738152Y-81002285D01*
X152547676Y-81049904D01*
X152452438Y-81097523D01*
X152357200Y-81192761D01*
X152309580Y-81335619D01*
X152309580Y-81430857D01*
X152357200Y-81573714D01*
X152404819Y-81621333D01*
X152309580Y-81954666D02*
X152309580Y-82621333D01*
X153309580Y-82192761D01*
D13*
X148244076Y-88264395D02*
X148244076Y-88922376D01*
X148205371Y-88999785D01*
X148166666Y-89038490D01*
X148089257Y-89077195D01*
X147934438Y-89077195D01*
X147857028Y-89038490D01*
X147818323Y-88999785D01*
X147779619Y-88922376D01*
X147779619Y-88264395D01*
X147469980Y-88264395D02*
X146966819Y-88264395D01*
X147237752Y-88574033D01*
X147121638Y-88574033D01*
X147044228Y-88612738D01*
X147005523Y-88651442D01*
X146966819Y-88728852D01*
X146966819Y-88922376D01*
X147005523Y-88999785D01*
X147044228Y-89038490D01*
X147121638Y-89077195D01*
X147353866Y-89077195D01*
X147431276Y-89038490D01*
X147469980Y-88999785D01*
X148027571Y-85225466D02*
X147640523Y-85225466D01*
X148104980Y-85457695D02*
X147834047Y-84644895D01*
X147563114Y-85457695D01*
X147292180Y-85457695D02*
X147292180Y-84644895D01*
X146982542Y-84644895D01*
X146905133Y-84683600D01*
X146866428Y-84722304D01*
X146827723Y-84799714D01*
X146827723Y-84915828D01*
X146866428Y-84993238D01*
X146905133Y-85031942D01*
X146982542Y-85070647D01*
X147292180Y-85070647D01*
X146053628Y-85457695D02*
X146518085Y-85457695D01*
X146285857Y-85457695D02*
X146285857Y-84644895D01*
X146363266Y-84761009D01*
X146440676Y-84838419D01*
X146518085Y-84877123D01*
X145279533Y-85457695D02*
X145743990Y-85457695D01*
X145511761Y-85457695D02*
X145511761Y-84644895D01*
X145589171Y-84761009D01*
X145666580Y-84838419D01*
X145743990Y-84877123D01*
X144505438Y-85457695D02*
X144969895Y-85457695D01*
X144737666Y-85457695D02*
X144737666Y-84644895D01*
X144815076Y-84761009D01*
X144892485Y-84838419D01*
X144969895Y-84877123D01*
X144234504Y-84644895D02*
X143692638Y-84644895D01*
X144040980Y-85457695D01*
X143383000Y-85148057D02*
X142763723Y-85148057D01*
X141989628Y-84644895D02*
X142376676Y-84644895D01*
X142415380Y-85031942D01*
X142376676Y-84993238D01*
X142299266Y-84954533D01*
X142105742Y-84954533D01*
X142028333Y-84993238D01*
X141989628Y-85031942D01*
X141950923Y-85109352D01*
X141950923Y-85302876D01*
X141989628Y-85380285D01*
X142028333Y-85418990D01*
X142105742Y-85457695D01*
X142299266Y-85457695D01*
X142376676Y-85418990D01*
X142415380Y-85380285D01*
X141447761Y-84644895D02*
X141370352Y-84644895D01*
X141292942Y-84683600D01*
X141254238Y-84722304D01*
X141215533Y-84799714D01*
X141176828Y-84954533D01*
X141176828Y-85148057D01*
X141215533Y-85302876D01*
X141254238Y-85380285D01*
X141292942Y-85418990D01*
X141370352Y-85457695D01*
X141447761Y-85457695D01*
X141525171Y-85418990D01*
X141563876Y-85380285D01*
X141602580Y-85302876D01*
X141641285Y-85148057D01*
X141641285Y-84954533D01*
X141602580Y-84799714D01*
X141563876Y-84722304D01*
X141525171Y-84683600D01*
X141447761Y-84644895D01*
D10*
X153849342Y-99274333D02*
X153896961Y-99226714D01*
X153944580Y-99083857D01*
X153944580Y-98988619D01*
X153896961Y-98845761D01*
X153801723Y-98750523D01*
X153706485Y-98702904D01*
X153516009Y-98655285D01*
X153373152Y-98655285D01*
X153182676Y-98702904D01*
X153087438Y-98750523D01*
X152992200Y-98845761D01*
X152944580Y-98988619D01*
X152944580Y-99083857D01*
X152992200Y-99226714D01*
X153039819Y-99274333D01*
X153944580Y-99750523D02*
X153944580Y-99941000D01*
X153896961Y-100036238D01*
X153849342Y-100083857D01*
X153706485Y-100179095D01*
X153516009Y-100226714D01*
X153135057Y-100226714D01*
X153039819Y-100179095D01*
X152992200Y-100131476D01*
X152944580Y-100036238D01*
X152944580Y-99845761D01*
X152992200Y-99750523D01*
X153039819Y-99702904D01*
X153135057Y-99655285D01*
X153373152Y-99655285D01*
X153468390Y-99702904D01*
X153516009Y-99750523D01*
X153563628Y-99845761D01*
X153563628Y-100036238D01*
X153516009Y-100131476D01*
X153468390Y-100179095D01*
X153373152Y-100226714D01*
X140806771Y-131920186D02*
X140806771Y-131586853D01*
X141330580Y-131586853D02*
X140330580Y-131586853D01*
X140330580Y-132063043D01*
X141330580Y-132967805D02*
X141330580Y-132396377D01*
X141330580Y-132682091D02*
X140330580Y-132682091D01*
X140473438Y-132586853D01*
X140568676Y-132491615D01*
X140616295Y-132396377D01*
X141371580Y-126261904D02*
X140371580Y-126261904D01*
X140371580Y-126500000D01*
X140419200Y-126642857D01*
X140514438Y-126738095D01*
X140609676Y-126785714D01*
X140800152Y-126833333D01*
X140943009Y-126833333D01*
X141133485Y-126785714D01*
X141228723Y-126738095D01*
X141323961Y-126642857D01*
X141371580Y-126500000D01*
X141371580Y-126261904D01*
X140371580Y-127738095D02*
X140371580Y-127261904D01*
X140847771Y-127214285D01*
X140800152Y-127261904D01*
X140752533Y-127357142D01*
X140752533Y-127595238D01*
X140800152Y-127690476D01*
X140847771Y-127738095D01*
X140943009Y-127785714D01*
X141181104Y-127785714D01*
X141276342Y-127738095D01*
X141323961Y-127690476D01*
X141371580Y-127595238D01*
X141371580Y-127357142D01*
X141323961Y-127261904D01*
X141276342Y-127214285D01*
X141498580Y-99401333D02*
X141022390Y-99068000D01*
X141498580Y-98829904D02*
X140498580Y-98829904D01*
X140498580Y-99210857D01*
X140546200Y-99306095D01*
X140593819Y-99353714D01*
X140689057Y-99401333D01*
X140831914Y-99401333D01*
X140927152Y-99353714D01*
X140974771Y-99306095D01*
X141022390Y-99210857D01*
X141022390Y-98829904D01*
X140927152Y-99972761D02*
X140879533Y-99877523D01*
X140831914Y-99829904D01*
X140736676Y-99782285D01*
X140689057Y-99782285D01*
X140593819Y-99829904D01*
X140546200Y-99877523D01*
X140498580Y-99972761D01*
X140498580Y-100163238D01*
X140546200Y-100258476D01*
X140593819Y-100306095D01*
X140689057Y-100353714D01*
X140736676Y-100353714D01*
X140831914Y-100306095D01*
X140879533Y-100258476D01*
X140927152Y-100163238D01*
X140927152Y-99972761D01*
X140974771Y-99877523D01*
X141022390Y-99829904D01*
X141117628Y-99782285D01*
X141308104Y-99782285D01*
X141403342Y-99829904D01*
X141450961Y-99877523D01*
X141498580Y-99972761D01*
X141498580Y-100163238D01*
X141450961Y-100258476D01*
X141403342Y-100306095D01*
X141308104Y-100353714D01*
X141117628Y-100353714D01*
X141022390Y-100306095D01*
X140974771Y-100258476D01*
X140927152Y-100163238D01*
X150531580Y-128524095D02*
X151341104Y-128524095D01*
X151436342Y-128571714D01*
X151483961Y-128619333D01*
X151531580Y-128714571D01*
X151531580Y-128905047D01*
X151483961Y-129000285D01*
X151436342Y-129047904D01*
X151341104Y-129095523D01*
X150531580Y-129095523D01*
X150626819Y-129524095D02*
X150579200Y-129571714D01*
X150531580Y-129666952D01*
X150531580Y-129905047D01*
X150579200Y-130000285D01*
X150626819Y-130047904D01*
X150722057Y-130095523D01*
X150817295Y-130095523D01*
X150960152Y-130047904D01*
X151531580Y-129476476D01*
X151531580Y-130095523D01*
D13*
X123885476Y-97001995D02*
X123885476Y-97659976D01*
X123846771Y-97737385D01*
X123808066Y-97776090D01*
X123730657Y-97814795D01*
X123575838Y-97814795D01*
X123498428Y-97776090D01*
X123459723Y-97737385D01*
X123421019Y-97659976D01*
X123421019Y-97001995D01*
X122685628Y-97272928D02*
X122685628Y-97814795D01*
X122879152Y-96963290D02*
X123072676Y-97543861D01*
X122569514Y-97543861D01*
X123643571Y-93988466D02*
X123256523Y-93988466D01*
X123720980Y-94220695D02*
X123450047Y-93407895D01*
X123179114Y-94220695D01*
X122908180Y-94220695D02*
X122908180Y-93407895D01*
X122598542Y-93407895D01*
X122521133Y-93446600D01*
X122482428Y-93485304D01*
X122443723Y-93562714D01*
X122443723Y-93678828D01*
X122482428Y-93756238D01*
X122521133Y-93794942D01*
X122598542Y-93833647D01*
X122908180Y-93833647D01*
X121669628Y-94220695D02*
X122134085Y-94220695D01*
X121901857Y-94220695D02*
X121901857Y-93407895D01*
X121979266Y-93524009D01*
X122056676Y-93601419D01*
X122134085Y-93640123D01*
X120895533Y-94220695D02*
X121359990Y-94220695D01*
X121127761Y-94220695D02*
X121127761Y-93407895D01*
X121205171Y-93524009D01*
X121282580Y-93601419D01*
X121359990Y-93640123D01*
X120121438Y-94220695D02*
X120585895Y-94220695D01*
X120353666Y-94220695D02*
X120353666Y-93407895D01*
X120431076Y-93524009D01*
X120508485Y-93601419D01*
X120585895Y-93640123D01*
X119850504Y-93407895D02*
X119308638Y-93407895D01*
X119656980Y-94220695D01*
X118999000Y-93911057D02*
X118379723Y-93911057D01*
X117605628Y-93407895D02*
X117992676Y-93407895D01*
X118031380Y-93794942D01*
X117992676Y-93756238D01*
X117915266Y-93717533D01*
X117721742Y-93717533D01*
X117644333Y-93756238D01*
X117605628Y-93794942D01*
X117566923Y-93872352D01*
X117566923Y-94065876D01*
X117605628Y-94143285D01*
X117644333Y-94181990D01*
X117721742Y-94220695D01*
X117915266Y-94220695D01*
X117992676Y-94181990D01*
X118031380Y-94143285D01*
X117063761Y-93407895D02*
X116986352Y-93407895D01*
X116908942Y-93446600D01*
X116870238Y-93485304D01*
X116831533Y-93562714D01*
X116792828Y-93717533D01*
X116792828Y-93911057D01*
X116831533Y-94065876D01*
X116870238Y-94143285D01*
X116908942Y-94181990D01*
X116986352Y-94220695D01*
X117063761Y-94220695D01*
X117141171Y-94181990D01*
X117179876Y-94143285D01*
X117218580Y-94065876D01*
X117257285Y-93911057D01*
X117257285Y-93717533D01*
X117218580Y-93562714D01*
X117179876Y-93485304D01*
X117141171Y-93446600D01*
X117063761Y-93407895D01*
D10*
X116963782Y-101413013D02*
X117011401Y-101365394D01*
X117059020Y-101222537D01*
X117059020Y-101127299D01*
X117011401Y-100984441D01*
X116916163Y-100889203D01*
X116820925Y-100841584D01*
X116630449Y-100793965D01*
X116487592Y-100793965D01*
X116297116Y-100841584D01*
X116201878Y-100889203D01*
X116106640Y-100984441D01*
X116059020Y-101127299D01*
X116059020Y-101222537D01*
X116106640Y-101365394D01*
X116154259Y-101413013D01*
X116487592Y-101984441D02*
X116439973Y-101889203D01*
X116392354Y-101841584D01*
X116297116Y-101793965D01*
X116249497Y-101793965D01*
X116154259Y-101841584D01*
X116106640Y-101889203D01*
X116059020Y-101984441D01*
X116059020Y-102174918D01*
X116106640Y-102270156D01*
X116154259Y-102317775D01*
X116249497Y-102365394D01*
X116297116Y-102365394D01*
X116392354Y-102317775D01*
X116439973Y-102270156D01*
X116487592Y-102174918D01*
X116487592Y-101984441D01*
X116535211Y-101889203D01*
X116582830Y-101841584D01*
X116678068Y-101793965D01*
X116868544Y-101793965D01*
X116963782Y-101841584D01*
X117011401Y-101889203D01*
X117059020Y-101984441D01*
X117059020Y-102174918D01*
X117011401Y-102270156D01*
X116963782Y-102317775D01*
X116868544Y-102365394D01*
X116678068Y-102365394D01*
X116582830Y-102317775D01*
X116535211Y-102270156D01*
X116487592Y-102174918D01*
X129592342Y-108037333D02*
X129639961Y-107989714D01*
X129687580Y-107846857D01*
X129687580Y-107751619D01*
X129639961Y-107608761D01*
X129544723Y-107513523D01*
X129449485Y-107465904D01*
X129259009Y-107418285D01*
X129116152Y-107418285D01*
X128925676Y-107465904D01*
X128830438Y-107513523D01*
X128735200Y-107608761D01*
X128687580Y-107751619D01*
X128687580Y-107846857D01*
X128735200Y-107989714D01*
X128782819Y-108037333D01*
X128782819Y-108418285D02*
X128735200Y-108465904D01*
X128687580Y-108561142D01*
X128687580Y-108799238D01*
X128735200Y-108894476D01*
X128782819Y-108942095D01*
X128878057Y-108989714D01*
X128973295Y-108989714D01*
X129116152Y-108942095D01*
X129687580Y-108370666D01*
X129687580Y-108989714D01*
X117781342Y-90638333D02*
X117828961Y-90590714D01*
X117876580Y-90447857D01*
X117876580Y-90352619D01*
X117828961Y-90209761D01*
X117733723Y-90114523D01*
X117638485Y-90066904D01*
X117448009Y-90019285D01*
X117305152Y-90019285D01*
X117114676Y-90066904D01*
X117019438Y-90114523D01*
X116924200Y-90209761D01*
X116876580Y-90352619D01*
X116876580Y-90447857D01*
X116924200Y-90590714D01*
X116971819Y-90638333D01*
X117876580Y-91590714D02*
X117876580Y-91019285D01*
X117876580Y-91305000D02*
X116876580Y-91305000D01*
X117019438Y-91209761D01*
X117114676Y-91114523D01*
X117162295Y-91019285D01*
X117654342Y-81748333D02*
X117701961Y-81700714D01*
X117749580Y-81557857D01*
X117749580Y-81462619D01*
X117701961Y-81319761D01*
X117606723Y-81224523D01*
X117511485Y-81176904D01*
X117321009Y-81129285D01*
X117178152Y-81129285D01*
X116987676Y-81176904D01*
X116892438Y-81224523D01*
X116797200Y-81319761D01*
X116749580Y-81462619D01*
X116749580Y-81557857D01*
X116797200Y-81700714D01*
X116844819Y-81748333D01*
X116749580Y-82605476D02*
X116749580Y-82415000D01*
X116797200Y-82319761D01*
X116844819Y-82272142D01*
X116987676Y-82176904D01*
X117178152Y-82129285D01*
X117559104Y-82129285D01*
X117654342Y-82176904D01*
X117701961Y-82224523D01*
X117749580Y-82319761D01*
X117749580Y-82510238D01*
X117701961Y-82605476D01*
X117654342Y-82653095D01*
X117559104Y-82700714D01*
X117321009Y-82700714D01*
X117225771Y-82653095D01*
X117178152Y-82605476D01*
X117130533Y-82510238D01*
X117130533Y-82319761D01*
X117178152Y-82224523D01*
X117225771Y-82176904D01*
X117321009Y-82129285D01*
X129465342Y-101433333D02*
X129512961Y-101385714D01*
X129560580Y-101242857D01*
X129560580Y-101147619D01*
X129512961Y-101004761D01*
X129417723Y-100909523D01*
X129322485Y-100861904D01*
X129132009Y-100814285D01*
X128989152Y-100814285D01*
X128798676Y-100861904D01*
X128703438Y-100909523D01*
X128608200Y-101004761D01*
X128560580Y-101147619D01*
X128560580Y-101242857D01*
X128608200Y-101385714D01*
X128655819Y-101433333D01*
X128560580Y-102338095D02*
X128560580Y-101861904D01*
X129036771Y-101814285D01*
X128989152Y-101861904D01*
X128941533Y-101957142D01*
X128941533Y-102195238D01*
X128989152Y-102290476D01*
X129036771Y-102338095D01*
X129132009Y-102385714D01*
X129370104Y-102385714D01*
X129465342Y-102338095D01*
X129512961Y-102290476D01*
X129560580Y-102195238D01*
X129560580Y-101957142D01*
X129512961Y-101861904D01*
X129465342Y-101814285D01*
X128830342Y-81621333D02*
X128877961Y-81573714D01*
X128925580Y-81430857D01*
X128925580Y-81335619D01*
X128877961Y-81192761D01*
X128782723Y-81097523D01*
X128687485Y-81049904D01*
X128497009Y-81002285D01*
X128354152Y-81002285D01*
X128163676Y-81049904D01*
X128068438Y-81097523D01*
X127973200Y-81192761D01*
X127925580Y-81335619D01*
X127925580Y-81430857D01*
X127973200Y-81573714D01*
X128020819Y-81621333D01*
X127925580Y-81954666D02*
X127925580Y-82621333D01*
X128925580Y-82192761D01*
X129465342Y-99274333D02*
X129512961Y-99226714D01*
X129560580Y-99083857D01*
X129560580Y-98988619D01*
X129512961Y-98845761D01*
X129417723Y-98750523D01*
X129322485Y-98702904D01*
X129132009Y-98655285D01*
X128989152Y-98655285D01*
X128798676Y-98702904D01*
X128703438Y-98750523D01*
X128608200Y-98845761D01*
X128560580Y-98988619D01*
X128560580Y-99083857D01*
X128608200Y-99226714D01*
X128655819Y-99274333D01*
X129560580Y-99750523D02*
X129560580Y-99941000D01*
X129512961Y-100036238D01*
X129465342Y-100083857D01*
X129322485Y-100179095D01*
X129132009Y-100226714D01*
X128751057Y-100226714D01*
X128655819Y-100179095D01*
X128608200Y-100131476D01*
X128560580Y-100036238D01*
X128560580Y-99845761D01*
X128608200Y-99750523D01*
X128655819Y-99702904D01*
X128751057Y-99655285D01*
X128989152Y-99655285D01*
X129084390Y-99702904D01*
X129132009Y-99750523D01*
X129179628Y-99845761D01*
X129179628Y-100036238D01*
X129132009Y-100131476D01*
X129084390Y-100179095D01*
X128989152Y-100226714D01*
X116987580Y-126261904D02*
X115987580Y-126261904D01*
X115987580Y-126500000D01*
X116035200Y-126642857D01*
X116130438Y-126738095D01*
X116225676Y-126785714D01*
X116416152Y-126833333D01*
X116559009Y-126833333D01*
X116749485Y-126785714D01*
X116844723Y-126738095D01*
X116939961Y-126642857D01*
X116987580Y-126500000D01*
X116987580Y-126261904D01*
X115987580Y-127738095D02*
X115987580Y-127261904D01*
X116463771Y-127214285D01*
X116416152Y-127261904D01*
X116368533Y-127357142D01*
X116368533Y-127595238D01*
X116416152Y-127690476D01*
X116463771Y-127738095D01*
X116559009Y-127785714D01*
X116797104Y-127785714D01*
X116892342Y-127738095D01*
X116939961Y-127690476D01*
X116987580Y-127595238D01*
X116987580Y-127357142D01*
X116939961Y-127261904D01*
X116892342Y-127214285D01*
X129052580Y-90066904D02*
X128052580Y-90066904D01*
X128052580Y-90305000D01*
X128100200Y-90447857D01*
X128195438Y-90543095D01*
X128290676Y-90590714D01*
X128481152Y-90638333D01*
X128624009Y-90638333D01*
X128814485Y-90590714D01*
X128909723Y-90543095D01*
X129004961Y-90447857D01*
X129052580Y-90305000D01*
X129052580Y-90066904D01*
X128052580Y-91495476D02*
X128052580Y-91305000D01*
X128100200Y-91209761D01*
X128147819Y-91162142D01*
X128290676Y-91066904D01*
X128481152Y-91019285D01*
X128862104Y-91019285D01*
X128957342Y-91066904D01*
X129004961Y-91114523D01*
X129052580Y-91209761D01*
X129052580Y-91400238D01*
X129004961Y-91495476D01*
X128957342Y-91543095D01*
X128862104Y-91590714D01*
X128624009Y-91590714D01*
X128528771Y-91543095D01*
X128481152Y-91495476D01*
X128433533Y-91400238D01*
X128433533Y-91209761D01*
X128481152Y-91114523D01*
X128528771Y-91066904D01*
X128624009Y-91019285D01*
X116422771Y-131920186D02*
X116422771Y-131586853D01*
X116946580Y-131586853D02*
X115946580Y-131586853D01*
X115946580Y-132063043D01*
X116946580Y-132967805D02*
X116946580Y-132396377D01*
X116946580Y-132682091D02*
X115946580Y-132682091D01*
X116089438Y-132586853D01*
X116184676Y-132491615D01*
X116232295Y-132396377D01*
X128925580Y-135469333D02*
X128449390Y-135136000D01*
X128925580Y-134897904D02*
X127925580Y-134897904D01*
X127925580Y-135278857D01*
X127973200Y-135374095D01*
X128020819Y-135421714D01*
X128116057Y-135469333D01*
X128258914Y-135469333D01*
X128354152Y-135421714D01*
X128401771Y-135374095D01*
X128449390Y-135278857D01*
X128449390Y-134897904D01*
X128925580Y-136421714D02*
X128925580Y-135850285D01*
X128925580Y-136136000D02*
X127925580Y-136136000D01*
X128068438Y-136040761D01*
X128163676Y-135945523D01*
X128211295Y-135850285D01*
X128925580Y-137628333D02*
X128449390Y-137295000D01*
X128925580Y-137056904D02*
X127925580Y-137056904D01*
X127925580Y-137437857D01*
X127973200Y-137533095D01*
X128020819Y-137580714D01*
X128116057Y-137628333D01*
X128258914Y-137628333D01*
X128354152Y-137580714D01*
X128401771Y-137533095D01*
X128449390Y-137437857D01*
X128449390Y-137056904D01*
X128020819Y-138009285D02*
X127973200Y-138056904D01*
X127925580Y-138152142D01*
X127925580Y-138390238D01*
X127973200Y-138485476D01*
X128020819Y-138533095D01*
X128116057Y-138580714D01*
X128211295Y-138580714D01*
X128354152Y-138533095D01*
X128925580Y-137961666D01*
X128925580Y-138580714D01*
X117114580Y-99401333D02*
X116638390Y-99068000D01*
X117114580Y-98829904D02*
X116114580Y-98829904D01*
X116114580Y-99210857D01*
X116162200Y-99306095D01*
X116209819Y-99353714D01*
X116305057Y-99401333D01*
X116447914Y-99401333D01*
X116543152Y-99353714D01*
X116590771Y-99306095D01*
X116638390Y-99210857D01*
X116638390Y-98829904D01*
X116543152Y-99972761D02*
X116495533Y-99877523D01*
X116447914Y-99829904D01*
X116352676Y-99782285D01*
X116305057Y-99782285D01*
X116209819Y-99829904D01*
X116162200Y-99877523D01*
X116114580Y-99972761D01*
X116114580Y-100163238D01*
X116162200Y-100258476D01*
X116209819Y-100306095D01*
X116305057Y-100353714D01*
X116352676Y-100353714D01*
X116447914Y-100306095D01*
X116495533Y-100258476D01*
X116543152Y-100163238D01*
X116543152Y-99972761D01*
X116590771Y-99877523D01*
X116638390Y-99829904D01*
X116733628Y-99782285D01*
X116924104Y-99782285D01*
X117019342Y-99829904D01*
X117066961Y-99877523D01*
X117114580Y-99972761D01*
X117114580Y-100163238D01*
X117066961Y-100258476D01*
X117019342Y-100306095D01*
X116924104Y-100353714D01*
X116733628Y-100353714D01*
X116638390Y-100306095D01*
X116590771Y-100258476D01*
X116543152Y-100163238D01*
X126147580Y-128524095D02*
X126957104Y-128524095D01*
X127052342Y-128571714D01*
X127099961Y-128619333D01*
X127147580Y-128714571D01*
X127147580Y-128905047D01*
X127099961Y-129000285D01*
X127052342Y-129047904D01*
X126957104Y-129095523D01*
X126147580Y-129095523D01*
X126242819Y-129524095D02*
X126195200Y-129571714D01*
X126147580Y-129666952D01*
X126147580Y-129905047D01*
X126195200Y-130000285D01*
X126242819Y-130047904D01*
X126338057Y-130095523D01*
X126433295Y-130095523D01*
X126576152Y-130047904D01*
X127147580Y-129476476D01*
X127147580Y-130095523D01*
D13*
X123860076Y-88264395D02*
X123860076Y-88922376D01*
X123821371Y-88999785D01*
X123782666Y-89038490D01*
X123705257Y-89077195D01*
X123550438Y-89077195D01*
X123473028Y-89038490D01*
X123434323Y-88999785D01*
X123395619Y-88922376D01*
X123395619Y-88264395D01*
X123085980Y-88264395D02*
X122582819Y-88264395D01*
X122853752Y-88574033D01*
X122737638Y-88574033D01*
X122660228Y-88612738D01*
X122621523Y-88651442D01*
X122582819Y-88728852D01*
X122582819Y-88922376D01*
X122621523Y-88999785D01*
X122660228Y-89038490D01*
X122737638Y-89077195D01*
X122969866Y-89077195D01*
X123047276Y-89038490D01*
X123085980Y-88999785D01*
X123643571Y-85225466D02*
X123256523Y-85225466D01*
X123720980Y-85457695D02*
X123450047Y-84644895D01*
X123179114Y-85457695D01*
X122908180Y-85457695D02*
X122908180Y-84644895D01*
X122598542Y-84644895D01*
X122521133Y-84683600D01*
X122482428Y-84722304D01*
X122443723Y-84799714D01*
X122443723Y-84915828D01*
X122482428Y-84993238D01*
X122521133Y-85031942D01*
X122598542Y-85070647D01*
X122908180Y-85070647D01*
X121669628Y-85457695D02*
X122134085Y-85457695D01*
X121901857Y-85457695D02*
X121901857Y-84644895D01*
X121979266Y-84761009D01*
X122056676Y-84838419D01*
X122134085Y-84877123D01*
X120895533Y-85457695D02*
X121359990Y-85457695D01*
X121127761Y-85457695D02*
X121127761Y-84644895D01*
X121205171Y-84761009D01*
X121282580Y-84838419D01*
X121359990Y-84877123D01*
X120121438Y-85457695D02*
X120585895Y-85457695D01*
X120353666Y-85457695D02*
X120353666Y-84644895D01*
X120431076Y-84761009D01*
X120508485Y-84838419D01*
X120585895Y-84877123D01*
X119850504Y-84644895D02*
X119308638Y-84644895D01*
X119656980Y-85457695D01*
X118999000Y-85148057D02*
X118379723Y-85148057D01*
X117605628Y-84644895D02*
X117992676Y-84644895D01*
X118031380Y-85031942D01*
X117992676Y-84993238D01*
X117915266Y-84954533D01*
X117721742Y-84954533D01*
X117644333Y-84993238D01*
X117605628Y-85031942D01*
X117566923Y-85109352D01*
X117566923Y-85302876D01*
X117605628Y-85380285D01*
X117644333Y-85418990D01*
X117721742Y-85457695D01*
X117915266Y-85457695D01*
X117992676Y-85418990D01*
X118031380Y-85380285D01*
X117063761Y-84644895D02*
X116986352Y-84644895D01*
X116908942Y-84683600D01*
X116870238Y-84722304D01*
X116831533Y-84799714D01*
X116792828Y-84954533D01*
X116792828Y-85148057D01*
X116831533Y-85302876D01*
X116870238Y-85380285D01*
X116908942Y-85418990D01*
X116986352Y-85457695D01*
X117063761Y-85457695D01*
X117141171Y-85418990D01*
X117179876Y-85380285D01*
X117218580Y-85302876D01*
X117257285Y-85148057D01*
X117257285Y-84954533D01*
X117218580Y-84799714D01*
X117179876Y-84722304D01*
X117141171Y-84683600D01*
X117063761Y-84644895D01*
%LPC*%
D14*
X206324200Y-76708000D03*
D15*
X193624200Y-79248000D03*
X193624200Y-76708000D03*
X196164200Y-79248000D03*
X196164200Y-76708000D03*
X198704200Y-79248000D03*
D16*
X198704200Y-76708000D03*
D17*
X197901240Y-101625400D03*
X200401240Y-101625400D03*
D18*
X200293480Y-90683080D03*
X197023480Y-90683080D03*
D19*
X186004200Y-79248000D03*
D20*
X186004200Y-81788000D03*
X186004200Y-84328000D03*
X186004200Y-86868000D03*
X186004200Y-89408000D03*
X186004200Y-91948000D03*
X186004200Y-94488000D03*
X186004200Y-97028000D03*
X186004200Y-99568000D03*
X186004200Y-102108000D03*
X186004200Y-104648000D03*
X186004200Y-107188000D03*
X186004200Y-109728000D03*
X186004200Y-112268000D03*
X186004200Y-114808000D03*
X186004200Y-117348000D03*
X186004200Y-119888000D03*
X186004200Y-122428000D03*
X186004200Y-124968000D03*
X186004200Y-127508000D03*
X186004200Y-130048000D03*
X186004200Y-132588000D03*
X186004200Y-135128000D03*
D14*
X186004200Y-137668000D03*
D21*
X201710134Y-118672766D03*
D22*
X201533223Y-118849677D02*
X201887045Y-118495855D01*
D21*
X201710134Y-120595234D03*
D22*
X201887045Y-120772145D02*
X201533223Y-120418323D01*
D23*
X197768200Y-135636000D03*
X195068200Y-135636000D03*
D17*
X194239200Y-101600000D03*
X191739200Y-101600000D03*
X194930400Y-81981040D03*
X192430400Y-81981040D03*
D24*
X193188000Y-92708700D03*
X193188000Y-95008700D03*
X193188000Y-97308700D03*
D25*
X198988000Y-95008700D03*
D17*
X197962200Y-108204000D03*
X200462200Y-108204000D03*
D23*
X195068200Y-137845800D03*
X197768200Y-137845800D03*
D14*
X186004200Y-76708000D03*
D17*
X192633280Y-90672920D03*
X195133280Y-90672920D03*
X199542400Y-81925160D03*
X197042400Y-81925160D03*
D25*
X198962600Y-86271100D03*
D24*
X193162600Y-88571100D03*
X193162600Y-86271100D03*
X193162600Y-83971100D03*
D17*
X200391400Y-99486720D03*
X197891400Y-99486720D03*
D26*
X199851300Y-136445460D03*
X192851300Y-136445460D03*
D27*
X198851300Y-133745460D03*
X193851300Y-133745460D03*
D28*
X191846200Y-130723520D03*
X191846200Y-133883520D03*
D29*
X191846200Y-128635000D03*
X191846200Y-125365000D03*
D14*
X206324200Y-137668000D03*
D20*
X206324200Y-135128000D03*
X206324200Y-132588000D03*
X206324200Y-130048000D03*
X206324200Y-127508000D03*
X206324200Y-124968000D03*
X206324200Y-122428000D03*
X206324200Y-119888000D03*
X206324200Y-117348000D03*
X206324200Y-114808000D03*
X206324200Y-112268000D03*
X206324200Y-109728000D03*
X206324200Y-107188000D03*
X206324200Y-104648000D03*
X206324200Y-102108000D03*
X206324200Y-99568000D03*
X206324200Y-97028000D03*
X206324200Y-94488000D03*
X206324200Y-91948000D03*
X206324200Y-89408000D03*
X206324200Y-86868000D03*
X206324200Y-84328000D03*
X206324200Y-81788000D03*
D19*
X206324200Y-79248000D03*
D23*
X194381120Y-99425760D03*
X191681120Y-99425760D03*
D30*
X196981600Y-129984500D03*
X195681600Y-129984500D03*
X196981600Y-128684500D03*
X195681600Y-128684500D03*
D31*
X198281600Y-130584500D03*
X198281600Y-130084500D03*
X198281600Y-129584500D03*
X198281600Y-129084500D03*
X198281600Y-128584500D03*
X198281600Y-128084500D03*
D32*
X197581600Y-127384500D03*
X197081600Y-127384500D03*
X196581600Y-127384500D03*
X196081600Y-127384500D03*
X195581600Y-127384500D03*
X195081600Y-127384500D03*
D31*
X194381600Y-128084500D03*
X194381600Y-128584500D03*
X194381600Y-129084500D03*
X194381600Y-129584500D03*
X194381600Y-130084500D03*
X194381600Y-130584500D03*
D32*
X195081600Y-131284500D03*
X195581600Y-131284500D03*
X196081600Y-131284500D03*
X196581600Y-131284500D03*
X197081600Y-131284500D03*
X197581600Y-131284500D03*
D14*
X181940200Y-76708000D03*
D15*
X169240200Y-79248000D03*
X169240200Y-76708000D03*
X171780200Y-79248000D03*
X171780200Y-76708000D03*
X174320200Y-79248000D03*
D16*
X174320200Y-76708000D03*
D17*
X173517240Y-101625400D03*
X176017240Y-101625400D03*
D18*
X175909480Y-90683080D03*
X172639480Y-90683080D03*
D19*
X161620200Y-79248000D03*
D20*
X161620200Y-81788000D03*
X161620200Y-84328000D03*
X161620200Y-86868000D03*
X161620200Y-89408000D03*
X161620200Y-91948000D03*
X161620200Y-94488000D03*
X161620200Y-97028000D03*
X161620200Y-99568000D03*
X161620200Y-102108000D03*
X161620200Y-104648000D03*
X161620200Y-107188000D03*
X161620200Y-109728000D03*
X161620200Y-112268000D03*
X161620200Y-114808000D03*
X161620200Y-117348000D03*
X161620200Y-119888000D03*
X161620200Y-122428000D03*
X161620200Y-124968000D03*
X161620200Y-127508000D03*
X161620200Y-130048000D03*
X161620200Y-132588000D03*
X161620200Y-135128000D03*
D14*
X161620200Y-137668000D03*
D21*
X177326134Y-118672766D03*
D22*
X177149223Y-118849677D02*
X177503045Y-118495855D01*
D21*
X177326134Y-120595234D03*
D22*
X177503045Y-120772145D02*
X177149223Y-120418323D01*
D23*
X173384200Y-135636000D03*
X170684200Y-135636000D03*
D17*
X169855200Y-101600000D03*
X167355200Y-101600000D03*
X170546400Y-81981040D03*
X168046400Y-81981040D03*
D24*
X168804000Y-92708700D03*
X168804000Y-95008700D03*
X168804000Y-97308700D03*
D25*
X174604000Y-95008700D03*
D17*
X173578200Y-108204000D03*
X176078200Y-108204000D03*
D23*
X170684200Y-137845800D03*
X173384200Y-137845800D03*
D14*
X161620200Y-76708000D03*
D17*
X168249280Y-90672920D03*
X170749280Y-90672920D03*
X175158400Y-81925160D03*
X172658400Y-81925160D03*
D25*
X174578600Y-86271100D03*
D24*
X168778600Y-88571100D03*
X168778600Y-86271100D03*
X168778600Y-83971100D03*
D17*
X176007400Y-99486720D03*
X173507400Y-99486720D03*
D26*
X175467300Y-136445460D03*
X168467300Y-136445460D03*
D27*
X174467300Y-133745460D03*
X169467300Y-133745460D03*
D28*
X167462200Y-130723520D03*
X167462200Y-133883520D03*
D29*
X167462200Y-128635000D03*
X167462200Y-125365000D03*
D14*
X181940200Y-137668000D03*
D20*
X181940200Y-135128000D03*
X181940200Y-132588000D03*
X181940200Y-130048000D03*
X181940200Y-127508000D03*
X181940200Y-124968000D03*
X181940200Y-122428000D03*
X181940200Y-119888000D03*
X181940200Y-117348000D03*
X181940200Y-114808000D03*
X181940200Y-112268000D03*
X181940200Y-109728000D03*
X181940200Y-107188000D03*
X181940200Y-104648000D03*
X181940200Y-102108000D03*
X181940200Y-99568000D03*
X181940200Y-97028000D03*
X181940200Y-94488000D03*
X181940200Y-91948000D03*
X181940200Y-89408000D03*
X181940200Y-86868000D03*
X181940200Y-84328000D03*
X181940200Y-81788000D03*
D19*
X181940200Y-79248000D03*
D23*
X169997120Y-99425760D03*
X167297120Y-99425760D03*
D30*
X172597600Y-129984500D03*
X171297600Y-129984500D03*
X172597600Y-128684500D03*
X171297600Y-128684500D03*
D31*
X173897600Y-130584500D03*
X173897600Y-130084500D03*
X173897600Y-129584500D03*
X173897600Y-129084500D03*
X173897600Y-128584500D03*
X173897600Y-128084500D03*
D32*
X173197600Y-127384500D03*
X172697600Y-127384500D03*
X172197600Y-127384500D03*
X171697600Y-127384500D03*
X171197600Y-127384500D03*
X170697600Y-127384500D03*
D31*
X169997600Y-128084500D03*
X169997600Y-128584500D03*
X169997600Y-129084500D03*
X169997600Y-129584500D03*
X169997600Y-130084500D03*
X169997600Y-130584500D03*
D32*
X170697600Y-131284500D03*
X171197600Y-131284500D03*
X171697600Y-131284500D03*
X172197600Y-131284500D03*
X172697600Y-131284500D03*
X173197600Y-131284500D03*
D14*
X157556200Y-76708000D03*
D15*
X144856200Y-79248000D03*
X144856200Y-76708000D03*
X147396200Y-79248000D03*
X147396200Y-76708000D03*
X149936200Y-79248000D03*
D16*
X149936200Y-76708000D03*
D17*
X149133240Y-101625400D03*
X151633240Y-101625400D03*
D18*
X151525480Y-90683080D03*
X148255480Y-90683080D03*
D19*
X137236200Y-79248000D03*
D20*
X137236200Y-81788000D03*
X137236200Y-84328000D03*
X137236200Y-86868000D03*
X137236200Y-89408000D03*
X137236200Y-91948000D03*
X137236200Y-94488000D03*
X137236200Y-97028000D03*
X137236200Y-99568000D03*
X137236200Y-102108000D03*
X137236200Y-104648000D03*
X137236200Y-107188000D03*
X137236200Y-109728000D03*
X137236200Y-112268000D03*
X137236200Y-114808000D03*
X137236200Y-117348000D03*
X137236200Y-119888000D03*
X137236200Y-122428000D03*
X137236200Y-124968000D03*
X137236200Y-127508000D03*
X137236200Y-130048000D03*
X137236200Y-132588000D03*
X137236200Y-135128000D03*
D14*
X137236200Y-137668000D03*
D21*
X152942134Y-118672766D03*
D22*
X152765223Y-118849677D02*
X153119045Y-118495855D01*
D21*
X152942134Y-120595234D03*
D22*
X153119045Y-120772145D02*
X152765223Y-120418323D01*
D23*
X149000200Y-135636000D03*
X146300200Y-135636000D03*
D17*
X145471200Y-101600000D03*
X142971200Y-101600000D03*
X146162400Y-81981040D03*
X143662400Y-81981040D03*
D24*
X144420000Y-92708700D03*
X144420000Y-95008700D03*
X144420000Y-97308700D03*
D25*
X150220000Y-95008700D03*
D17*
X149194200Y-108204000D03*
X151694200Y-108204000D03*
D23*
X146300200Y-137845800D03*
X149000200Y-137845800D03*
D14*
X137236200Y-76708000D03*
D17*
X143865280Y-90672920D03*
X146365280Y-90672920D03*
X150774400Y-81925160D03*
X148274400Y-81925160D03*
D25*
X150194600Y-86271100D03*
D24*
X144394600Y-88571100D03*
X144394600Y-86271100D03*
X144394600Y-83971100D03*
D17*
X151623400Y-99486720D03*
X149123400Y-99486720D03*
D26*
X151083300Y-136445460D03*
X144083300Y-136445460D03*
D27*
X150083300Y-133745460D03*
X145083300Y-133745460D03*
D28*
X143078200Y-130723520D03*
X143078200Y-133883520D03*
D29*
X143078200Y-128635000D03*
X143078200Y-125365000D03*
D14*
X157556200Y-137668000D03*
D20*
X157556200Y-135128000D03*
X157556200Y-132588000D03*
X157556200Y-130048000D03*
X157556200Y-127508000D03*
X157556200Y-124968000D03*
X157556200Y-122428000D03*
X157556200Y-119888000D03*
X157556200Y-117348000D03*
X157556200Y-114808000D03*
X157556200Y-112268000D03*
X157556200Y-109728000D03*
X157556200Y-107188000D03*
X157556200Y-104648000D03*
X157556200Y-102108000D03*
X157556200Y-99568000D03*
X157556200Y-97028000D03*
X157556200Y-94488000D03*
X157556200Y-91948000D03*
X157556200Y-89408000D03*
X157556200Y-86868000D03*
X157556200Y-84328000D03*
X157556200Y-81788000D03*
D19*
X157556200Y-79248000D03*
D23*
X145613120Y-99425760D03*
X142913120Y-99425760D03*
D30*
X148213600Y-129984500D03*
X146913600Y-129984500D03*
X148213600Y-128684500D03*
X146913600Y-128684500D03*
D31*
X149513600Y-130584500D03*
X149513600Y-130084500D03*
X149513600Y-129584500D03*
X149513600Y-129084500D03*
X149513600Y-128584500D03*
X149513600Y-128084500D03*
D32*
X148813600Y-127384500D03*
X148313600Y-127384500D03*
X147813600Y-127384500D03*
X147313600Y-127384500D03*
X146813600Y-127384500D03*
X146313600Y-127384500D03*
D31*
X145613600Y-128084500D03*
X145613600Y-128584500D03*
X145613600Y-129084500D03*
X145613600Y-129584500D03*
X145613600Y-130084500D03*
X145613600Y-130584500D03*
D32*
X146313600Y-131284500D03*
X146813600Y-131284500D03*
X147313600Y-131284500D03*
X147813600Y-131284500D03*
X148313600Y-131284500D03*
X148813600Y-131284500D03*
D25*
X125836000Y-95008700D03*
D24*
X120036000Y-97308700D03*
X120036000Y-95008700D03*
X120036000Y-92708700D03*
D17*
X118587200Y-101600000D03*
X121087200Y-101600000D03*
X127310200Y-108204000D03*
X124810200Y-108204000D03*
D14*
X112852200Y-76708000D03*
X112852200Y-137668000D03*
X133172200Y-137668000D03*
X133172200Y-76708000D03*
D17*
X121981280Y-90672920D03*
X119481280Y-90672920D03*
X119278400Y-81981040D03*
X121778400Y-81981040D03*
X127249240Y-101625400D03*
X124749240Y-101625400D03*
X123890400Y-81925160D03*
X126390400Y-81925160D03*
X124739400Y-99486720D03*
X127239400Y-99486720D03*
D29*
X118694200Y-125365000D03*
X118694200Y-128635000D03*
D18*
X123871480Y-90683080D03*
X127141480Y-90683080D03*
D28*
X118694200Y-133883520D03*
X118694200Y-130723520D03*
D27*
X120699300Y-133745460D03*
X125699300Y-133745460D03*
D26*
X119699300Y-136445460D03*
X126699300Y-136445460D03*
D16*
X125552200Y-76708000D03*
D15*
X125552200Y-79248000D03*
X123012200Y-76708000D03*
X123012200Y-79248000D03*
X120472200Y-76708000D03*
X120472200Y-79248000D03*
D23*
X121916200Y-135636000D03*
X124616200Y-135636000D03*
X124616200Y-137845800D03*
X121916200Y-137845800D03*
X118529120Y-99425760D03*
X121229120Y-99425760D03*
D32*
X124429600Y-131284500D03*
X123929600Y-131284500D03*
X123429600Y-131284500D03*
X122929600Y-131284500D03*
X122429600Y-131284500D03*
X121929600Y-131284500D03*
D31*
X121229600Y-130584500D03*
X121229600Y-130084500D03*
X121229600Y-129584500D03*
X121229600Y-129084500D03*
X121229600Y-128584500D03*
X121229600Y-128084500D03*
D32*
X121929600Y-127384500D03*
X122429600Y-127384500D03*
X122929600Y-127384500D03*
X123429600Y-127384500D03*
X123929600Y-127384500D03*
X124429600Y-127384500D03*
D31*
X125129600Y-128084500D03*
X125129600Y-128584500D03*
X125129600Y-129084500D03*
X125129600Y-129584500D03*
X125129600Y-130084500D03*
X125129600Y-130584500D03*
D30*
X122529600Y-128684500D03*
X123829600Y-128684500D03*
X122529600Y-129984500D03*
X123829600Y-129984500D03*
D24*
X120010600Y-83971100D03*
X120010600Y-86271100D03*
X120010600Y-88571100D03*
D25*
X125810600Y-86271100D03*
D21*
X128558134Y-120595234D03*
D22*
X128735045Y-120772145D02*
X128381223Y-120418323D01*
D21*
X128558134Y-118672766D03*
D22*
X128381223Y-118849677D02*
X128735045Y-118495855D01*
D20*
X112852200Y-135128000D03*
X112852200Y-132588000D03*
X112852200Y-130048000D03*
X112852200Y-127508000D03*
X112852200Y-124968000D03*
X112852200Y-122428000D03*
X112852200Y-119888000D03*
X112852200Y-117348000D03*
X112852200Y-114808000D03*
X112852200Y-112268000D03*
X112852200Y-109728000D03*
X112852200Y-107188000D03*
X112852200Y-104648000D03*
X112852200Y-102108000D03*
X112852200Y-99568000D03*
X112852200Y-97028000D03*
X112852200Y-94488000D03*
X112852200Y-91948000D03*
X112852200Y-89408000D03*
X112852200Y-86868000D03*
X112852200Y-84328000D03*
X112852200Y-81788000D03*
D19*
X112852200Y-79248000D03*
X133172200Y-79248000D03*
D20*
X133172200Y-81788000D03*
X133172200Y-84328000D03*
X133172200Y-86868000D03*
X133172200Y-89408000D03*
X133172200Y-91948000D03*
X133172200Y-94488000D03*
X133172200Y-97028000D03*
X133172200Y-99568000D03*
X133172200Y-102108000D03*
X133172200Y-104648000D03*
X133172200Y-107188000D03*
X133172200Y-109728000D03*
X133172200Y-112268000D03*
X133172200Y-114808000D03*
X133172200Y-117348000D03*
X133172200Y-119888000D03*
X133172200Y-122428000D03*
X133172200Y-124968000D03*
X133172200Y-127508000D03*
X133172200Y-130048000D03*
X133172200Y-132588000D03*
X133172200Y-135128000D03*
M02*
