M48
; DRILL file {KiCad 5.1.0-rc1-unknown-e6a200b~76~ubuntu16.04.1} date Po 18. február 2019, 11:20:20 CET
; FORMAT={-:-/ absolute / metric / decimal}
; #@! TF.CreationDate,2019-02-18T11:20:20+01:00
; #@! TF.GenerationSoftware,Kicad,Pcbnew,5.1.0-rc1-unknown-e6a200b~76~ubuntu16.04.1
FMAT,2
METRIC
T1C0.400
T2C0.500
T3C0.550
T4C0.599
T5C1.016
T6C1.778
%
G90
G05
T1
X114.371Y-81.286
X114.884Y-118.872
X115.392Y-113.538
X115.392Y-116.078
X115.646Y-81.788
X116.154Y-115.791
X116.185Y-112.299
X116.916Y-101.346
X116.916Y-114.3
X117.424Y-99.314
X117.424Y-114.808
X117.424Y-122.428
X117.832Y-109.105
X118.072Y-82.004
X118.186Y-109.728
X118.332Y-103.523
X118.354Y-108.638
X118.653Y-110.395
X118.708Y-109.242
X118.935Y-106.172
X118.967Y-102.888
X119.243Y-110.771
X119.48Y-100.478
X119.71Y-105.41
X119.793Y-101.6
X119.964Y-106.934
X120.191Y-104.621
X120.472Y-106.172
X120.726Y-105.41
X120.726Y-111.252
X120.98Y-108.712
X120.98Y-112.268
X121.336Y-132.786
X121.39Y-98.298
X121.742Y-109.474
X121.8Y-107.534
X121.996Y-103.886
X122.25Y-81.026
X122.281Y-132.441
X122.496Y-105.855
X122.53Y-128.684
X122.53Y-129.984
X122.568Y-136.715
X122.704Y-103.832
X122.843Y-106.81
X122.918Y-84.328
X123.063Y-135.56
X123.114Y-137.96
X123.266Y-98.298
X123.297Y-109.982
X123.462Y-113.851
X123.52Y-112.268
X123.52Y-112.268
X123.52Y-123.698
X123.52Y-126.492
X123.521Y-106.982
X123.602Y-105.239
X123.774Y-119.888
X123.83Y-128.684
X123.83Y-129.984
X124.028Y-110.998
X124.163Y-136.779
X124.191Y-132.441
X124.282Y-85.09
X124.282Y-113.03
X124.307Y-116.561
X124.536Y-105.918
X124.727Y-109.093
X124.79Y-97.536
X124.968Y-92.062
X125.058Y-116.521
X125.298Y-110.998
X125.298Y-81.788
X125.806Y-105.918
X126.06Y-138.112
X126.121Y-131.882
X126.187Y-114.681
X126.187Y-116.365
X126.568Y-109.728
X127.076Y-105.918
X127.203Y-100.711
X127.33Y-115.062
X127.33Y-117.348
X127.584Y-109.474
X128.092Y-103.124
X128.346Y-87.63
X129.241Y-111.887
X129.616Y-79.756
X129.616Y-81.534
X129.616Y-84.074
X129.616Y-86.106
X129.71Y-111.353
X130.009Y-110.72
X130.124Y-114.046
X130.251Y-108.966
X130.632Y-106.172
X130.632Y-122.936
X130.795Y-105.176
X131.14Y-113.538
X131.394Y-123.444
X138.755Y-81.286
X139.268Y-118.872
X139.776Y-113.538
X139.776Y-116.078
X140.03Y-81.788
X140.538Y-115.791
X140.569Y-112.299
X141.3Y-101.346
X141.3Y-114.3
X141.808Y-99.314
X141.808Y-114.808
X141.808Y-122.428
X142.216Y-109.105
X142.456Y-82.004
X142.57Y-109.728
X142.716Y-103.523
X142.738Y-108.638
X143.037Y-110.395
X143.092Y-109.242
X143.319Y-106.172
X143.351Y-102.888
X143.627Y-110.771
X143.864Y-100.478
X144.094Y-105.41
X144.177Y-101.6
X144.348Y-106.934
X144.575Y-104.621
X144.856Y-106.172
X145.11Y-105.41
X145.11Y-111.252
X145.364Y-108.712
X145.364Y-112.268
X145.72Y-132.786
X145.774Y-98.298
X146.126Y-109.474
X146.184Y-107.534
X146.38Y-103.886
X146.634Y-81.026
X146.665Y-132.441
X146.88Y-105.855
X146.914Y-128.684
X146.914Y-129.984
X146.952Y-136.715
X147.088Y-103.832
X147.227Y-106.81
X147.302Y-84.328
X147.447Y-135.56
X147.498Y-137.96
X147.65Y-98.298
X147.681Y-109.982
X147.846Y-113.851
X147.904Y-112.268
X147.904Y-112.268
X147.904Y-123.698
X147.904Y-126.492
X147.905Y-106.982
X147.986Y-105.239
X148.158Y-119.888
X148.214Y-128.684
X148.214Y-129.984
X148.412Y-110.998
X148.547Y-136.779
X148.575Y-132.441
X148.666Y-85.09
X148.666Y-113.03
X148.691Y-116.561
X148.92Y-105.918
X149.111Y-109.093
X149.174Y-97.536
X149.352Y-92.062
X149.442Y-116.521
X149.682Y-110.998
X149.682Y-81.788
X150.19Y-105.918
X150.444Y-138.112
X150.505Y-131.882
X150.571Y-114.681
X150.571Y-116.365
X150.952Y-109.728
X151.46Y-105.918
X151.587Y-100.711
X151.714Y-115.062
X151.714Y-117.348
X151.968Y-109.474
X152.476Y-103.124
X152.73Y-87.63
X153.625Y-111.887
X154.0Y-79.756
X154.0Y-81.534
X154.0Y-84.074
X154.0Y-86.106
X154.094Y-111.353
X154.393Y-110.72
X154.508Y-114.046
X154.635Y-108.966
X155.016Y-106.172
X155.016Y-122.936
X155.179Y-105.176
X155.524Y-113.538
X155.778Y-123.444
X163.139Y-81.286
X163.652Y-118.872
X164.16Y-113.538
X164.16Y-116.078
X164.414Y-81.788
X164.922Y-115.791
X164.953Y-112.299
X165.684Y-101.346
X165.684Y-114.3
X166.192Y-99.314
X166.192Y-114.808
X166.192Y-122.428
X166.6Y-109.105
X166.84Y-82.004
X166.954Y-109.728
X167.1Y-103.523
X167.122Y-108.638
X167.421Y-110.395
X167.476Y-109.242
X167.703Y-106.172
X167.735Y-102.888
X168.011Y-110.771
X168.248Y-100.478
X168.478Y-105.41
X168.561Y-101.6
X168.732Y-106.934
X168.959Y-104.621
X169.24Y-106.172
X169.494Y-105.41
X169.494Y-111.252
X169.748Y-108.712
X169.748Y-112.268
X170.104Y-132.786
X170.158Y-98.298
X170.51Y-109.474
X170.568Y-107.534
X170.764Y-103.886
X171.018Y-81.026
X171.049Y-132.441
X171.264Y-105.855
X171.298Y-128.684
X171.298Y-129.984
X171.336Y-136.715
X171.472Y-103.832
X171.611Y-106.81
X171.686Y-84.328
X171.831Y-135.56
X171.882Y-137.96
X172.034Y-98.298
X172.065Y-109.982
X172.23Y-113.851
X172.288Y-112.268
X172.288Y-112.268
X172.288Y-123.698
X172.288Y-126.492
X172.289Y-106.982
X172.37Y-105.239
X172.542Y-119.888
X172.598Y-128.684
X172.598Y-129.984
X172.796Y-110.998
X172.931Y-136.779
X172.959Y-132.441
X173.05Y-85.09
X173.05Y-113.03
X173.075Y-116.561
X173.304Y-105.918
X173.495Y-109.093
X173.558Y-97.536
X173.736Y-92.062
X173.826Y-116.521
X174.066Y-110.998
X174.066Y-81.788
X174.574Y-105.918
X174.828Y-138.112
X174.889Y-131.882
X174.955Y-114.681
X174.955Y-116.365
X175.336Y-109.728
X175.844Y-105.918
X175.971Y-100.711
X176.098Y-115.062
X176.098Y-117.348
X176.352Y-109.474
X176.86Y-103.124
X177.114Y-87.63
X178.009Y-111.887
X178.384Y-79.756
X178.384Y-81.534
X178.384Y-84.074
X178.384Y-86.106
X178.478Y-111.353
X178.777Y-110.72
X178.892Y-114.046
X179.019Y-108.966
X179.4Y-106.172
X179.4Y-122.936
X179.563Y-105.176
X179.908Y-113.538
X180.162Y-123.444
X187.523Y-81.286
X188.036Y-118.872
X188.544Y-113.538
X188.544Y-116.078
X188.798Y-81.788
X189.306Y-115.791
X189.337Y-112.299
X190.068Y-101.346
X190.068Y-114.3
X190.576Y-99.314
X190.576Y-114.808
X190.576Y-122.428
X190.984Y-109.105
X191.224Y-82.004
X191.338Y-109.728
X191.484Y-103.523
X191.506Y-108.638
X191.805Y-110.395
X191.86Y-109.242
X192.087Y-106.172
X192.119Y-102.888
X192.395Y-110.771
X192.632Y-100.478
X192.862Y-105.41
X192.945Y-101.6
X193.116Y-106.934
X193.343Y-104.621
X193.624Y-106.172
X193.878Y-105.41
X193.878Y-111.252
X194.132Y-108.712
X194.132Y-112.268
X194.488Y-132.786
X194.542Y-98.298
X194.894Y-109.474
X194.952Y-107.534
X195.148Y-103.886
X195.402Y-81.026
X195.433Y-132.441
X195.648Y-105.855
X195.682Y-128.684
X195.682Y-129.984
X195.72Y-136.715
X195.856Y-103.832
X195.995Y-106.81
X196.07Y-84.328
X196.215Y-135.56
X196.266Y-137.96
X196.418Y-98.298
X196.449Y-109.982
X196.614Y-113.851
X196.672Y-112.268
X196.672Y-112.268
X196.672Y-123.698
X196.672Y-126.492
X196.673Y-106.982
X196.754Y-105.239
X196.926Y-119.888
X196.982Y-128.684
X196.982Y-129.984
X197.18Y-110.998
X197.315Y-136.779
X197.343Y-132.441
X197.434Y-85.09
X197.434Y-113.03
X197.459Y-116.561
X197.688Y-105.918
X197.879Y-109.093
X197.942Y-97.536
X198.12Y-92.062
X198.21Y-116.521
X198.45Y-110.998
X198.45Y-81.788
X198.958Y-105.918
X199.212Y-138.112
X199.273Y-131.882
X199.339Y-114.681
X199.339Y-116.365
X199.72Y-109.728
X200.228Y-105.918
X200.355Y-100.711
X200.482Y-115.062
X200.482Y-117.348
X200.736Y-109.474
X201.244Y-103.124
X201.498Y-87.63
X202.393Y-111.887
X202.768Y-79.756
X202.768Y-81.534
X202.768Y-84.074
X202.768Y-86.106
X202.862Y-111.353
X203.161Y-110.72
X203.276Y-114.046
X203.403Y-108.966
X203.784Y-106.172
X203.784Y-122.936
X203.947Y-105.176
X204.292Y-113.538
X204.546Y-123.444
T4
X128.346Y-118.885
X128.346Y-120.383
X177.114Y-118.885
X177.114Y-120.383
X152.73Y-118.885
X152.73Y-120.383
X201.498Y-118.885
X201.498Y-120.383
T5
X137.236Y-79.248
X137.236Y-81.788
X137.236Y-84.328
X137.236Y-86.868
X137.236Y-89.408
X137.236Y-91.948
X137.236Y-94.488
X137.236Y-97.028
X137.236Y-99.568
X137.236Y-102.108
X137.236Y-104.648
X137.236Y-107.188
X137.236Y-109.728
X137.236Y-112.268
X137.236Y-114.808
X137.236Y-117.348
X137.236Y-119.888
X137.236Y-122.428
X137.236Y-124.968
X137.236Y-127.508
X137.236Y-130.048
X137.236Y-132.588
X137.236Y-135.128
X206.324Y-79.248
X206.324Y-81.788
X206.324Y-84.328
X206.324Y-86.868
X206.324Y-89.408
X206.324Y-91.948
X206.324Y-94.488
X206.324Y-97.028
X206.324Y-99.568
X206.324Y-102.108
X206.324Y-104.648
X206.324Y-107.188
X206.324Y-109.728
X206.324Y-112.268
X206.324Y-114.808
X206.324Y-117.348
X206.324Y-119.888
X206.324Y-122.428
X206.324Y-124.968
X206.324Y-127.508
X206.324Y-130.048
X206.324Y-132.588
X206.324Y-135.128
X120.472Y-76.708
X120.472Y-79.248
X123.012Y-76.708
X123.012Y-79.248
X125.552Y-76.708
X125.552Y-79.248
X157.556Y-79.248
X157.556Y-81.788
X157.556Y-84.328
X157.556Y-86.868
X157.556Y-89.408
X157.556Y-91.948
X157.556Y-94.488
X157.556Y-97.028
X157.556Y-99.568
X157.556Y-102.108
X157.556Y-104.648
X157.556Y-107.188
X157.556Y-109.728
X157.556Y-112.268
X157.556Y-114.808
X157.556Y-117.348
X157.556Y-119.888
X157.556Y-122.428
X157.556Y-124.968
X157.556Y-127.508
X157.556Y-130.048
X157.556Y-132.588
X157.556Y-135.128
X181.94Y-79.248
X181.94Y-81.788
X181.94Y-84.328
X181.94Y-86.868
X181.94Y-89.408
X181.94Y-91.948
X181.94Y-94.488
X181.94Y-97.028
X181.94Y-99.568
X181.94Y-102.108
X181.94Y-104.648
X181.94Y-107.188
X181.94Y-109.728
X181.94Y-112.268
X181.94Y-114.808
X181.94Y-117.348
X181.94Y-119.888
X181.94Y-122.428
X181.94Y-124.968
X181.94Y-127.508
X181.94Y-130.048
X181.94Y-132.588
X181.94Y-135.128
X193.624Y-76.708
X193.624Y-79.248
X196.164Y-76.708
X196.164Y-79.248
X198.704Y-76.708
X198.704Y-79.248
X186.004Y-79.248
X186.004Y-81.788
X186.004Y-84.328
X186.004Y-86.868
X186.004Y-89.408
X186.004Y-91.948
X186.004Y-94.488
X186.004Y-97.028
X186.004Y-99.568
X186.004Y-102.108
X186.004Y-104.648
X186.004Y-107.188
X186.004Y-109.728
X186.004Y-112.268
X186.004Y-114.808
X186.004Y-117.348
X186.004Y-119.888
X186.004Y-122.428
X186.004Y-124.968
X186.004Y-127.508
X186.004Y-130.048
X186.004Y-132.588
X186.004Y-135.128
X133.172Y-79.248
X133.172Y-81.788
X133.172Y-84.328
X133.172Y-86.868
X133.172Y-89.408
X133.172Y-91.948
X133.172Y-94.488
X133.172Y-97.028
X133.172Y-99.568
X133.172Y-102.108
X133.172Y-104.648
X133.172Y-107.188
X133.172Y-109.728
X133.172Y-112.268
X133.172Y-114.808
X133.172Y-117.348
X133.172Y-119.888
X133.172Y-122.428
X133.172Y-124.968
X133.172Y-127.508
X133.172Y-130.048
X133.172Y-132.588
X133.172Y-135.128
X169.24Y-76.708
X169.24Y-79.248
X171.78Y-76.708
X171.78Y-79.248
X174.32Y-76.708
X174.32Y-79.248
X161.62Y-79.248
X161.62Y-81.788
X161.62Y-84.328
X161.62Y-86.868
X161.62Y-89.408
X161.62Y-91.948
X161.62Y-94.488
X161.62Y-97.028
X161.62Y-99.568
X161.62Y-102.108
X161.62Y-104.648
X161.62Y-107.188
X161.62Y-109.728
X161.62Y-112.268
X161.62Y-114.808
X161.62Y-117.348
X161.62Y-119.888
X161.62Y-122.428
X161.62Y-124.968
X161.62Y-127.508
X161.62Y-130.048
X161.62Y-132.588
X161.62Y-135.128
X144.856Y-76.708
X144.856Y-79.248
X147.396Y-76.708
X147.396Y-79.248
X149.936Y-76.708
X149.936Y-79.248
X112.852Y-79.248
X112.852Y-81.788
X112.852Y-84.328
X112.852Y-86.868
X112.852Y-89.408
X112.852Y-91.948
X112.852Y-94.488
X112.852Y-97.028
X112.852Y-99.568
X112.852Y-102.108
X112.852Y-104.648
X112.852Y-107.188
X112.852Y-109.728
X112.852Y-112.268
X112.852Y-114.808
X112.852Y-117.348
X112.852Y-119.888
X112.852Y-122.428
X112.852Y-124.968
X112.852Y-127.508
X112.852Y-130.048
X112.852Y-132.588
X112.852Y-135.128
T6
X137.236Y-76.708
X133.172Y-76.708
X206.324Y-137.668
X186.004Y-137.668
X181.94Y-76.708
X186.004Y-76.708
X112.852Y-76.708
X206.324Y-76.708
X161.62Y-137.668
X133.172Y-137.668
X157.556Y-76.708
X161.62Y-76.708
X157.556Y-137.668
X181.94Y-137.668
X112.852Y-137.668
X137.236Y-137.668
T2
G00X144.083Y-136.77
M15
G01X144.083Y-136.12
M16
G05
G00X151.083Y-136.77
M15
G01X151.083Y-136.12
M16
G05
G00X119.699Y-136.77
M15
G01X119.699Y-136.12
M16
G05
G00X126.699Y-136.77
M15
G01X126.699Y-136.12
M16
G05
G00X168.467Y-136.77
M15
G01X168.467Y-136.12
M16
G05
G00X175.467Y-136.77
M15
G01X175.467Y-136.12
M16
G05
G00X192.851Y-136.77
M15
G01X192.851Y-136.12
M16
G05
G00X199.851Y-136.77
M15
G01X199.851Y-136.12
M16
G05
T3
G00X144.933Y-133.745
M15
G01X145.233Y-133.745
M16
G05
G00X149.933Y-133.745
M15
G01X150.233Y-133.745
M16
G05
G00X120.549Y-133.745
M15
G01X120.849Y-133.745
M16
G05
G00X125.549Y-133.745
M15
G01X125.849Y-133.745
M16
G05
G00X169.317Y-133.745
M15
G01X169.617Y-133.745
M16
G05
G00X174.317Y-133.745
M15
G01X174.617Y-133.745
M16
G05
G00X193.701Y-133.745
M15
G01X194.001Y-133.745
M16
G05
G00X198.701Y-133.745
M15
G01X199.001Y-133.745
M16
G05
T0
M30
